<?xml version="1.0" encoding="UTF-8" standalone="no"?>
<!-- Created with Inkscape (http://www.inkscape.org/) -->

<svg
   xmlns:dc="http://purl.org/dc/elements/1.1/"
   xmlns:cc="http://creativecommons.org/ns#"
   xmlns:rdf="http://www.w3.org/1999/02/22-rdf-syntax-ns#"
   xmlns:svg="http://www.w3.org/2000/svg"
   xmlns="http://www.w3.org/2000/svg"
   xmlns:xlink="http://www.w3.org/1999/xlink"
   xmlns:sodipodi="http://sodipodi.sourceforge.net/DTD/sodipodi-0.dtd"
   xmlns:inkscape="http://www.inkscape.org/namespaces/inkscape"
   width="96"
   height="96"
   id="svg11037"
   version="1.1"
   inkscape:version="0.48.3.1 r9886"
   sodipodi:docname="templat.svg">
  <defs
     id="defs11039">
    <linearGradient
       y2="1046.1001"
       x2="47.999954"
       y1="962.62189"
       x1="47.999954"
       gradientTransform="matrix(1.15,0,0,1.15,-7.1999462,-150.65291)"
       gradientUnits="userSpaceOnUse"
       id="linearGradient3886"
       xlink:href="#linearGradient3795"
       inkscape:collect="always" />
    <linearGradient
       id="linearGradient3795">
      <stop
         style="stop-color:#13a6fd;stop-opacity:1;"
         offset="0"
         id="stop3797" />
      <stop
         style="stop-color:#2975b6;stop-opacity:1;"
         offset="1"
         id="stop3799" />
    </linearGradient>
    <linearGradient
       y2="1046.1001"
       x2="47.999954"
       y1="962.62189"
       x1="47.999954"
       gradientTransform="matrix(1.15,0,0,1.15,-7.1999462,-150.65292)"
       gradientUnits="userSpaceOnUse"
       id="linearGradient11642"
       xlink:href="#linearGradient3795"
       inkscape:collect="always" />
    <clipPath
       clipPathUnits="userSpaceOnUse"
       id="clipPath3009">
      <path
         id="path3011"
         d="m -2,956.36218 -96,0 0,33.5624 96,25.68742 0,-59.24982 z"
         style="opacity:0.15;fill:#ffffff;fill-opacity:1;stroke:none"
         inkscape:connector-curvature="0" />
    </clipPath>
    <linearGradient
       x1="45.447727"
       y1="92.539597"
       x2="45.447727"
       y2="7.0165396"
       id="linearGradient3837"
       xlink:href="#ButtonShadow"
       gradientUnits="userSpaceOnUse"
       gradientTransform="scale(1.0058652,0.994169)" />
    <linearGradient
       x1="45.447727"
       y1="92.539597"
       x2="45.447727"
       y2="7.0165396"
       id="ButtonShadow"
       gradientUnits="userSpaceOnUse"
       gradientTransform="scale(1.0058652,0.994169)">
      <stop
         id="stop3750"
         style="stop-color:#000000;stop-opacity:1"
         offset="0" />
      <stop
         id="stop3752"
         style="stop-color:#000000;stop-opacity:0.58823532"
         offset="1" />
    </linearGradient>
    <linearGradient
       x1="40"
       y1="91"
       x2="40"
       y2="3.3073549"
       id="linearGradient3794"
       xlink:href="#ButtonShadow"
       gradientUnits="userSpaceOnUse" />
    <linearGradient
       x1="45.447727"
       y1="92.539597"
       x2="45.447727"
       y2="7.0165396"
       id="linearGradient3117"
       gradientUnits="userSpaceOnUse"
       gradientTransform="scale(1.0058652,0.994169)">
      <stop
         id="stop3119"
         style="stop-color:#000000;stop-opacity:1"
         offset="0" />
      <stop
         id="stop3121"
         style="stop-color:#000000;stop-opacity:0.58823532"
         offset="1" />
    </linearGradient>
    <radialGradient
       cx="48"
       cy="90.199997"
       r="42"
       fx="48"
       fy="90.199997"
       id="radialGradient3901"
       xlink:href="#linearGradient3702"
       gradientUnits="userSpaceOnUse"
       gradientTransform="matrix(1.3333333,5.3333334e-8,-3.8095238e-8,0.95238092,-15.999997,-5.9047602)" />
    <linearGradient
       id="linearGradient3702">
      <stop
         id="stop3705"
         style="stop-color:#88ff02;stop-opacity:1"
         offset="0" />
      <stop
         id="stop3707"
         style="stop-color:#1f8000;stop-opacity:1"
         offset="1" />
    </linearGradient>
    <linearGradient
       x1="6"
       y1="63"
       x2="32.019222"
       y2="63"
       id="linearGradient3897"
       xlink:href="#linearGradient3858"
       gradientUnits="userSpaceOnUse"
       gradientTransform="matrix(-1,0,0,1,96,0)" />
    <linearGradient
       id="linearGradient3858">
      <stop
         id="stop3860"
         style="stop-color:#225500;stop-opacity:1"
         offset="0" />
      <stop
         id="stop3862"
         style="stop-color:#225500;stop-opacity:0"
         offset="1" />
    </linearGradient>
    <linearGradient
       x1="32"
       y1="6.0500002"
       x2="64"
       y2="6.0500002"
       id="linearGradient3777"
       xlink:href="#linearGradient3788"
       gradientUnits="userSpaceOnUse" />
    <linearGradient
       id="linearGradient3788">
      <stop
         id="stop3790"
         style="stop-color:#d9d9d9;stop-opacity:1"
         offset="0" />
      <stop
         id="stop3792"
         style="stop-color:#c6c6c6;stop-opacity:1"
         offset="0.25015625" />
      <stop
         id="stop3796"
         style="stop-color:#696969;stop-opacity:1"
         offset="1" />
    </linearGradient>
    <linearGradient
       x1="-90"
       y1="48"
       x2="-6"
       y2="48"
       id="linearGradient3925"
       xlink:href="#linearGradient3614"
       gradientUnits="userSpaceOnUse"
       gradientTransform="matrix(1,0,0,-1,96,96)" />
    <linearGradient
       id="linearGradient3614">
      <stop
         id="stop3616"
         style="stop-color:#ffffff;stop-opacity:0.48062015"
         offset="0" />
      <stop
         id="stop3618"
         style="stop-color:#ffffff;stop-opacity:0.12403101"
         offset="1" />
    </linearGradient>
    <linearGradient
       x1="-16"
       y1="8"
       x2="-16"
       y2="88"
       id="linearGradient3761"
       xlink:href="#linearGradient3675"
       gradientUnits="userSpaceOnUse"
       gradientTransform="matrix(0,-1,1,0,0,0)" />
    <linearGradient
       id="linearGradient3675">
      <stop
         id="stop3677"
         style="stop-color:#666666;stop-opacity:1"
         offset="0" />
      <stop
         id="stop3683"
         style="stop-color:#e6e6e6;stop-opacity:1"
         offset="0.25015625" />
      <stop
         id="stop3685"
         style="stop-color:#808080;stop-opacity:1"
         offset="0.51292795" />
      <stop
         id="stop3679"
         style="stop-color:#474747;stop-opacity:1"
         offset="1" />
    </linearGradient>
    <linearGradient
       x1="-16"
       y1="8"
       x2="-16"
       y2="88"
       id="linearGradient3767"
       xlink:href="#linearGradient3675"
       gradientUnits="userSpaceOnUse"
       gradientTransform="matrix(0,1,1,0,0,96)" />
    <linearGradient
       id="linearGradient3147">
      <stop
         id="stop3149"
         style="stop-color:#666666;stop-opacity:1"
         offset="0" />
      <stop
         id="stop3151"
         style="stop-color:#e6e6e6;stop-opacity:1"
         offset="0.25015625" />
      <stop
         id="stop3153"
         style="stop-color:#808080;stop-opacity:1"
         offset="0.51292795" />
      <stop
         id="stop3155"
         style="stop-color:#474747;stop-opacity:1"
         offset="1" />
    </linearGradient>
    <linearGradient
       x1="26"
       y1="6"
       x2="26"
       y2="120.01754"
       id="linearGradient3839"
       xlink:href="#linearGradient3833"
       gradientUnits="userSpaceOnUse"
       gradientTransform="translate(-2,0)" />
    <linearGradient
       id="linearGradient3833">
      <stop
         id="stop3835"
         style="stop-color:#ffffff;stop-opacity:1"
         offset="0" />
      <stop
         id="stop3837"
         style="stop-color:#ffffff;stop-opacity:0"
         offset="1" />
    </linearGradient>
    <linearGradient
       x1="26"
       y1="6"
       x2="26"
       y2="72.022263"
       id="linearGradient3843"
       xlink:href="#linearGradient3833"
       gradientUnits="userSpaceOnUse"
       gradientTransform="matrix(0.57142857,0,0,1,50.857143,0)" />
    <linearGradient
       id="linearGradient3162">
      <stop
         id="stop3164"
         style="stop-color:#ffffff;stop-opacity:1"
         offset="0" />
      <stop
         id="stop3166"
         style="stop-color:#ffffff;stop-opacity:0"
         offset="1" />
    </linearGradient>
    <linearGradient
       x1="26"
       y1="6"
       x2="26"
       y2="72.022263"
       id="linearGradient3873"
       xlink:href="#linearGradient3833"
       gradientUnits="userSpaceOnUse"
       gradientTransform="matrix(0.23809524,0,0,1,47.190476,-96.000008)" />
    <linearGradient
       id="linearGradient3169">
      <stop
         id="stop3171"
         style="stop-color:#ffffff;stop-opacity:1"
         offset="0" />
      <stop
         id="stop3173"
         style="stop-color:#ffffff;stop-opacity:0"
         offset="1" />
    </linearGradient>
    <radialGradient
       cx="48"
       cy="90.171875"
       r="42"
       fx="48"
       fy="90.171875"
       id="radialGradient3619"
       xlink:href="#linearGradient3737"
       gradientUnits="userSpaceOnUse"
       gradientTransform="matrix(1.1573129,0,0,0.99590774,-7.5510206,0.19713193)" />
    <linearGradient
       id="linearGradient3737">
      <stop
         id="stop3739"
         style="stop-color:#ffffff;stop-opacity:1"
         offset="0" />
      <stop
         id="stop3741"
         style="stop-color:#ffffff;stop-opacity:0"
         offset="1" />
    </linearGradient>
    <linearGradient
       x1="36.357143"
       y1="6"
       x2="36.357143"
       y2="63.893143"
       id="linearGradient3188"
       xlink:href="#linearGradient3737"
       gradientUnits="userSpaceOnUse" />
    <linearGradient
       id="linearGradient3180">
      <stop
         id="stop3182"
         style="stop-color:#ffffff;stop-opacity:1"
         offset="0" />
      <stop
         id="stop3184"
         style="stop-color:#ffffff;stop-opacity:0"
         offset="1" />
    </linearGradient>
    <linearGradient
       x1="64"
       y1="47"
       x2="82.835136"
       y2="47"
       id="linearGradient3976"
       xlink:href="#linearGradient3833"
       gradientUnits="userSpaceOnUse"
       gradientTransform="translate(4,0)" />
    <linearGradient
       id="linearGradient3187">
      <stop
         id="stop3189"
         style="stop-color:#ffffff;stop-opacity:1"
         offset="0" />
      <stop
         id="stop3191"
         style="stop-color:#ffffff;stop-opacity:0"
         offset="1" />
    </linearGradient>
    <clipPath
       clipPathUnits="userSpaceOnUse"
       id="clipPath3188">
      <rect
         x="3.0434785"
         y="1.9999982"
         width="90"
         height="90"
         style="fill:url(#linearGradient3192);fill-opacity:1"
         id="rect3190"
         rx="24.456522"
         ry="24.456522" />
    </clipPath>
    <linearGradient
       inkscape:collect="always"
       xlink:href="#linearGradient3795"
       id="linearGradient3192"
       gradientUnits="userSpaceOnUse"
       gradientTransform="matrix(1.125,0,0,1.125,-5.9564691,-1082.9061)"
       x1="47.999954"
       y1="962.62189"
       x2="47.999954"
       y2="1046.1001" />
  </defs>
  <sodipodi:namedview
     id="base"
     pagecolor="#ffffff"
     bordercolor="#666666"
     borderopacity="1.0"
     inkscape:pageopacity="0.0"
     inkscape:pageshadow="2"
     inkscape:zoom="3.959798"
     inkscape:cx="33.538031"
     inkscape:cy="59.964634"
     inkscape:document-units="px"
     inkscape:current-layer="layer1"
     showgrid="false"
     inkscape:window-width="1280"
     inkscape:window-height="750"
     inkscape:window-x="0"
     inkscape:window-y="22"
     inkscape:window-maximized="1"
     showguides="true"
     inkscape:guide-bbox="true">
    <sodipodi:guide
       orientation="0,1"
       position="-24.748737,0"
       id="guide11064" />
    <sodipodi:guide
       orientation="0,1"
       position="-23.233509,96"
       id="guide11066" />
    <sodipodi:guide
       orientation="1,0"
       position="0,54.800776"
       id="guide11068" />
    <sodipodi:guide
       orientation="1,0"
       position="96,51.012704"
       id="guide11070" />
    <sodipodi:guide
       orientation="0,1"
       position="-18.94036,48"
       id="guide11072" />
    <sodipodi:guide
       orientation="1,0"
       position="48,79.296975"
       id="guide11074" />
    <sodipodi:guide
       orientation="1,0"
       position="2,75.508903"
       id="guide11076" />
    <sodipodi:guide
       orientation="0,1"
       position="-77.27667,2"
       id="guide11078" />
    <sodipodi:guide
       orientation="1,0"
       position="94,77.781746"
       id="guide11080" />
    <sodipodi:guide
       orientation="0,1"
       position="-65.912454,94"
       id="guide11082" />
  </sodipodi:namedview>
  <metadata
     id="metadata11042">
    <rdf:RDF>
      <cc:Work
         rdf:about="">
        <dc:format>image/svg+xml</dc:format>
        <dc:type
           rdf:resource="http://purl.org/dc/dcmitype/StillImage" />
        <dc:title></dc:title>
      </cc:Work>
    </rdf:RDF>
  </metadata>
  <g
     inkscape:label="Layer 1"
     inkscape:groupmode="layer"
     id="layer1"
     transform="translate(0,-956.36218)">
    <g
       transform="matrix(1.0222222,0,0,1.0222222,-1.1111113,956.31774)"
       style="display:inline"
       id="g3071"
       clip-path="url(#clipPath3188)">
      <path
         style="opacity:0.3;fill:url(#linearGradient3837);fill-opacity:1;fill-rule:nonzero;stroke:none;display:inline"
         id="path2956"
         inkscape:connector-curvature="0"
         d="M 32.15625,3.21875 C 31.465153,3.5480919 31,4.2184013 31,5 l 0,1 1,0 0,-1 0,-1 c 0,-0.277 0.05531,-0.5418125 0.15625,-0.78125 z m 31.6875,0 C 63.944688,3.4581875 64,3.723 64,4 l 0,1 0,1 1,0 0,-1 C 65,4.2184013 64.534847,3.5480919 63.84375,3.21875 z M 6.4375,9.75 C 5.5380109,10.927446 5,12.397277 5,14 l 0,3 2,0 0,63 1,0 L 8,38 8,36 8,18 8,16 6,16 6,12 C 6,11.203625 6.1581836,10.444095 6.4375,9.75 z m 83.125,0 C 89.841816,10.444095 90,11.203625 90,12 l 0,2 0,2 -2,0 0,2 0,18 0,42 0,2 1,0 0,-63 2,0 0,-3 C 91,12.397277 90.461989,10.927446 89.5625,9.75 z M 5,81 5,85 c 0,3.878 3.122,7 7,7 l 72,0 c 3.878,0 7,-3.122 7,-7 l 0,-4 -1,0 0,1 0,2 c 0,3.324 -2.676,6 -6,6 L 12,90 C 8.676,90 6,87.324 6,84 l 0,-2 0,-1 -1,0 z" />
      <path
         style="opacity:0.45;fill:url(#linearGradient3794);fill-opacity:1;fill-rule:nonzero;stroke:none;display:inline"
         id="path3743"
         inkscape:connector-curvature="0"
         d="m 6,16 0,1 2,0 0,-1 -2,0 z m 82,0 0,1 2,0 0,-1 -2,0 z M 6,84 6,85 c 0,3.324 2.676,6 6,6 l 72,0 c 3.324,0 6,-2.676 6,-6 l 0,-1 c 0,3.324 -2.676,6 -6,6 L 12,90 C 8.676,90 6,87.324 6,84 z" />
      <g
         id="layer4">
        <path
           style="fill:url(#radialGradient3901);fill-opacity:1;fill-rule:nonzero;stroke:none;display:inline"
           id="rect3814"
           inkscape:connector-curvature="0"
           d="M 8,36 8,80 88,80 88,36 8,36 z" />
        <path
           style="opacity:0.6;fill:#338000;fill-opacity:1;stroke:none"
           id="rect3845"
           inkscape:connector-curvature="0"
           d="m 8,78 0,2 80,0 0,-2 -80,0 z" />
        <path
           style="fill:url(#linearGradient3897);fill-opacity:1;fill-rule:nonzero;stroke:none;display:inline"
           id="path3856"
           inkscape:connector-curvature="0"
           d="m 48,36 0,44 40,0 0,-44 -40,0 z" />
        <path
           style="opacity:0.4;fill:#aad400;fill-opacity:1;stroke:none"
           id="rect3829"
           inkscape:connector-curvature="0"
           d="m 8,36 0,2 80,0 0,-2 -80,0 z" />
        <path
           style="opacity:0.3;fill:#aad400;fill-opacity:1;stroke:none;display:inline"
           id="rect3991"
           inkscape:connector-curvature="0"
           d="m 8,36 0,44 2,0 0,-44 -2,0 z m 78,0 0,44 2,0 0,-44 -2,0 z" />
      </g>
      <g
         style="display:inline"
         id="layer1-5">
        <rect
           style="fill:url(#linearGradient3777);fill-opacity:1;stroke:none"
           id="rect3769"
           y="2"
           x="32"
           ry="2"
           rx="2"
           height="8.1000004"
           width="32" />
        <path
           style="fill:url(#linearGradient3925);fill-opacity:1;fill-rule:nonzero;stroke:none"
           id="rect2419"
           inkscape:connector-curvature="0"
           d="M 8,16 8,80 88,80 88,16 8,16 z" />
        <path
           style="fill:url(#linearGradient3761);fill-opacity:1;fill-rule:nonzero;stroke:none"
           id="rect3754"
           inkscape:connector-curvature="0"
           d="M 12,6 C 8.676,6 6,8.676 6,12 l 0,4 84,0 0,-4 C 90,8.676 87.324,6 84,6 L 12,6 z" />
        <path
           style="fill:url(#linearGradient3767);fill-opacity:1;fill-rule:nonzero;stroke:none"
           id="path3765"
           inkscape:connector-curvature="0"
           d="M 12,90 C 8.676,90 6,87.324 6,84 l 0,-4 84,0 0,4 c 0,3.324 -2.676,6 -6,6 l -72,0 z" />
        <path
           style="opacity:0.5;fill:#ffffff;fill-opacity:1;stroke:none"
           id="rect3779"
           inkscape:connector-curvature="0"
           d="m 34,2 c -1.108,0 -2,0.892 -2,2 l 0,1 c 0,-1.108 0.892,-2 2,-2 l 28,0 c 1.108,0 2,0.892 2,2 L 64,4 C 64,2.892 63.108,2 62,2 L 34,2 z" />
        <rect
           style="opacity:0.2;fill:#000000;fill-opacity:1;stroke:none"
           id="rect3798"
           y="5"
           x="32"
           height="1"
           width="32" />
        <rect
           style="opacity:0.4;fill:url(#linearGradient3839);fill-opacity:1;stroke:none"
           id="rect3831"
           y="6"
           x="14"
           height="84.000008"
           width="21" />
        <rect
           style="opacity:0.2;fill:url(#linearGradient3843);fill-opacity:1;stroke:none"
           id="rect3841"
           y="6"
           x="60"
           height="84.000008"
           width="12" />
        <rect
           style="opacity:0.28999999;fill:#ffffff;fill-opacity:1;stroke:none;display:inline"
           id="rect3847"
           y="80"
           x="6"
           height="2"
           width="84" />
        <rect
           style="opacity:0.1;fill:#000000;fill-opacity:1;stroke:none;display:inline"
           id="rect3854"
           y="14"
           x="6"
           height="2"
           width="84" />
        <path
           style="opacity:0.1;fill:#000000;fill-opacity:1;stroke:none;display:inline"
           id="rect3869"
           inkscape:connector-curvature="0"
           d="m 8,16 0,2 80,0 0,-2 -80,0 z" />
        <rect
           style="opacity:0.1;fill:url(#linearGradient3873);fill-opacity:1;stroke:none"
           id="rect3871"
           transform="scale(1,-1)"
           y="-90.000008"
           x="51"
           height="84.000008"
           width="5" />
        <rect
           style="opacity:0.4;fill:#ffffff;fill-opacity:1;stroke:none"
           id="rect3987"
           y="16"
           x="8"
           height="20"
           width="2" />
        <rect
           style="opacity:0.3;fill:#ffffff;fill-opacity:1;stroke:none"
           id="rect3989"
           y="16"
           x="86"
           height="20"
           width="2" />
      </g>
      <g
         style="display:inline"
         id="layer5">
        <path
           style="opacity:0.2;fill:url(#radialGradient3619);fill-opacity:1;fill-rule:nonzero;stroke:none;display:inline"
           id="path3615"
           inkscape:connector-curvature="0"
           d="M 10.15625,6.34375 C 9.8547231,6.440553 9.559795,6.547888 9.28125,6.6875 8.72416,6.966724 8.221197,7.353194 7.78125,7.78125 7.5612765,7.995278 7.3718839,8.223115 7.1875,8.46875 7.0031161,8.714385 6.8320918,8.976493 6.6875,9.25 6.5473802,9.515048 6.411365,9.774729 6.3125,10.0625 6.302142,10.09265 6.29113,10.12587 6.28125,10.15625 6.19079,10.434335 6.14245,10.735654 6.09375,11.03125 6.04135,11.3493 6,11.665279 6,12 l 0,2 0,2 1,0 0,-3 0,-2 C 7,10.635705 7.0521214,10.279012 7.125,9.9375 7.1483606,9.828031 7.1884177,9.731618 7.21875,9.625 7.2454455,9.530581 7.2494249,9.4357 7.28125,9.34375 7.288911,9.3218 7.30454,9.30306 7.3125,9.28125 7.3880752,9.071951 7.4927417,8.850956 7.59375,8.65625 7.6510225,8.548267 7.716487,8.446782 7.78125,8.34375 7.805304,8.30462 7.818661,8.25713 7.84375,8.21875 7.9378561,8.077785 8.0486711,7.942755 8.15625,7.8125 c 0.1525404,-0.185862 0.3220701,-0.369817 0.5,-0.53125 0.099219,-0.088888 0.2063272,-0.1692 0.3125,-0.25 0.1127274,-0.086487 0.223355,-0.1733 0.34375,-0.25 0.031457,-0.01999 0.061817,-0.0432 0.09375,-0.0625 0.00738,-0.0045 0.02384,0.0044 0.03125,0 0.2320391,-0.138728 0.4625482,-0.274778 0.71875,-0.375 z m 75.6875,0 c 0.256202,0.100222 0.486711,0.236272 0.71875,0.375 0.0074,0.0044 0.02385,-0.0045 0.03125,0 0.108182,0.065386 0.209929,0.1456 0.3125,0.21875 0.152409,0.109314 0.299114,0.218194 0.4375,0.34375 0.01127,0.0101 0.02008,0.02105 0.03125,0.03125 0.165609,0.153002 0.325576,0.32555 0.46875,0.5 0.107579,0.130255 0.21839,0.265285 0.3125,0.40625 0.06073,0.0929 0.1329,0.18404 0.1875,0.28125 0.04596,0.080046 0.08342,0.1672 0.125,0.25 0.08037,0.163801 0.15601,0.357511 0.21875,0.53125 0.0079,0.02181 0.02355,0.04055 0.03125,0.0625 0.06787,0.196092 0.1121,0.386857 0.15625,0.59375 C 88.94788,10.279012 89,10.635705 89,11 l 0,2 0,3 1,0 0,-2 0,-2 c 0,-0.334721 -0.04135,-0.6507 -0.09375,-0.96875 -0.0487,-0.295596 -0.09704,-0.596915 -0.1875,-0.875 C 89.70883,10.12524 89.69791,10.09328 89.6875,10.0625 89.588635,9.774729 89.45262,9.515048 89.3125,9.25 89.167908,8.976493 88.996884,8.714385 88.8125,8.46875 88.628116,8.223115 88.438723,7.995278 88.21875,7.78125 87.778803,7.353194 87.27584,6.966724 86.71875,6.6875 86.440205,6.547888 86.145277,6.44055 85.84375,6.34375 z M 6,80 l 0,2 0,2 c 0,3.324 2.676,6 6,6 l 72,0 c 3.324,0 6,-2.676 6,-6 l 0,-2 0,-2 -1,0 0,1 0,2 c 0,2.781848 -2.218152,5 -5,5 l -2,0 -68,0 -2,0 C 9.2181517,88 7,85.781848 7,83 l 0,-2 0,-1 -1,0 z" />
        <path
           style="opacity:0.2;fill:url(#linearGradient3188);fill-opacity:1;fill-rule:nonzero;stroke:none;display:inline"
           id="rect3728"
           inkscape:connector-curvature="0"
           d="M 12,6 C 8.676,6 6,8.676 6,12 l 0,2 0,2 1,0 0,-1 0,-2 C 7,10.218152 9.2181517,8 12,8 l 2,0 68,0 2,0 c 2.781848,0 5,2.218152 5,5 l 0,2 0,1 1,0 0,-2 0,-2 C 90,8.676 87.324,6 84,6 L 12,6 z m -6,74 0,2 0,2 c 0,0.334721 0.04135,0.6507 0.09375,0.96875 0.0487,0.295596 0.09704,0.596915 0.1875,0.875 0.00988,0.03038 0.020892,0.0636 0.03125,0.09375 0.098865,0.287771 0.2348802,0.547452 0.375,0.8125 0.1445918,0.273507 0.3156161,0.535615 0.5,0.78125 0.1843839,0.245635 0.3737765,0.473472 0.59375,0.6875 0.439947,0.428056 0.94291,0.814526 1.5,1.09375 0.278545,0.139612 0.5734731,0.246947 0.875,0.34375 -0.2562018,-0.100222 -0.4867109,-0.236272 -0.71875,-0.375 -0.00741,-0.0044 -0.023866,0.0045 -0.03125,0 -0.031933,-0.0193 -0.062293,-0.04251 -0.09375,-0.0625 -0.120395,-0.0767 -0.2310226,-0.163513 -0.34375,-0.25 -0.1061728,-0.0808 -0.2132809,-0.161112 -0.3125,-0.25 C 8.4783201,88.557317 8.3087904,88.373362 8.15625,88.1875 8.0486711,88.057245 7.9378561,87.922215 7.84375,87.78125 7.818661,87.74287 7.805304,87.69538 7.78125,87.65625 7.716487,87.553218 7.6510225,87.451733 7.59375,87.34375 7.4927417,87.149044 7.3880752,86.928049 7.3125,86.71875 7.30454,86.69694 7.288911,86.6782 7.28125,86.65625 7.2494249,86.5643 7.2454455,86.469419 7.21875,86.375 7.1884177,86.268382 7.1483606,86.171969 7.125,86.0625 7.0521214,85.720988 7,85.364295 7,85 l 0,-2 0,-3 -1,0 z m 83,0 0,3 0,2 c 0,0.364295 -0.05212,0.720988 -0.125,1.0625 -0.04415,0.206893 -0.08838,0.397658 -0.15625,0.59375 -0.0077,0.02195 -0.0233,0.04069 -0.03125,0.0625 -0.06274,0.173739 -0.138383,0.367449 -0.21875,0.53125 -0.04158,0.0828 -0.07904,0.169954 -0.125,0.25 -0.0546,0.09721 -0.126774,0.18835 -0.1875,0.28125 -0.09411,0.140965 -0.204921,0.275995 -0.3125,0.40625 -0.143174,0.17445 -0.303141,0.346998 -0.46875,0.5 -0.01117,0.0102 -0.01998,0.02115 -0.03125,0.03125 -0.138386,0.125556 -0.285091,0.234436 -0.4375,0.34375 -0.102571,0.07315 -0.204318,0.153364 -0.3125,0.21875 -0.0074,0.0045 -0.02384,-0.0044 -0.03125,0 -0.232039,0.138728 -0.462548,0.274778 -0.71875,0.375 0.301527,-0.0968 0.596455,-0.204138 0.875,-0.34375 0.55709,-0.279224 1.060053,-0.665694 1.5,-1.09375 0.219973,-0.214028 0.409366,-0.441865 0.59375,-0.6875 0.184384,-0.245635 0.355408,-0.507743 0.5,-0.78125 0.14012,-0.265048 0.276135,-0.524729 0.375,-0.8125 0.01041,-0.03078 0.02133,-0.06274 0.03125,-0.09375 0.09046,-0.278085 0.1388,-0.579404 0.1875,-0.875 C 89.95865,84.6507 90,84.334721 90,84 l 0,-2 0,-2 -1,0 z" />
      </g>
      <g
         id="layer6">
        <path
           style="opacity:0.8;fill:url(#linearGradient3976);fill-opacity:1;stroke:none"
           id="rect3955"
           inkscape:connector-curvature="0"
           d="m 68,22 0,2 16,0 0,-2 -16,0 z m 0,8 0,2 16,0 0,-2 -16,0 z m 0,8 0,2 16,0 0,-2 -16,0 z m 0,8 0,2 16,0 0,-2 -16,0 z m 0,8 0,2 16,0 0,-2 -16,0 z m 0,8 0,2 16,0 0,-2 -16,0 z m 0,8 0,2 16,0 0,-2 -16,0 z" />
        <path
           style="opacity:0.8;fill:#ffffff;stroke:none;display:inline"
           id="path3887"
           inkscape:connector-curvature="0"
           d="m 57.980764,44 0,12 L 64,56 l -6.019236,16 0,-12 -6.019235,0 6.019235,-16 z" />
      </g>
    </g>
    <rect
       ry="25"
       rx="25"
       id="rect3003"
       style="opacity:0.15;fill:#ffffff;fill-opacity:1"
       height="92"
       width="92"
       y="958.36218"
       x="-96"
       clip-path="url(#clipPath3009)"
       transform="translate(98,0)" />
  </g>
</svg>
