<?xml version="1.0" encoding="UTF-8" standalone="no"?>
<!-- Created with Inkscape (http://www.inkscape.org/) -->

<svg
   xmlns:dc="http://purl.org/dc/elements/1.1/"
   xmlns:cc="http://creativecommons.org/ns#"
   xmlns:rdf="http://www.w3.org/1999/02/22-rdf-syntax-ns#"
   xmlns:svg="http://www.w3.org/2000/svg"
   xmlns="http://www.w3.org/2000/svg"
   xmlns:xlink="http://www.w3.org/1999/xlink"
   xmlns:sodipodi="http://sodipodi.sourceforge.net/DTD/sodipodi-0.dtd"
   xmlns:inkscape="http://www.inkscape.org/namespaces/inkscape"
   width="96"
   height="96"
   id="svg11037"
   version="1.1"
   inkscape:version="0.48.3.1 r9886"
   sodipodi:docname="distributor-logo.svg">
  <defs
     id="defs11039">
    <linearGradient
       y2="1046.1001"
       x2="47.999954"
       y1="962.62189"
       x1="47.999954"
       gradientTransform="matrix(1.15,0,0,1.15,-7.1999462,-150.65291)"
       gradientUnits="userSpaceOnUse"
       id="linearGradient3886"
       xlink:href="#linearGradient3795"
       inkscape:collect="always" />
    <linearGradient
       id="linearGradient3795">
      <stop
         style="stop-color:#13a6fd;stop-opacity:1;"
         offset="0"
         id="stop3797" />
      <stop
         style="stop-color:#2975b6;stop-opacity:1;"
         offset="1"
         id="stop3799" />
    </linearGradient>
    <clipPath
       clipPathUnits="userSpaceOnUse"
       id="clipPath3009">
      <path
         id="path3011"
         d="m -2,956.36218 -96,0 0,33.5624 96,25.68742 0,-59.24982 z"
         style="opacity:0.15;fill:#ffffff;fill-opacity:1;stroke:none"
         inkscape:connector-curvature="0" />
    </clipPath>
    <linearGradient
       id="linearGradient6116"
       y2="609.51001"
       gradientUnits="userSpaceOnUse"
       x2="302.85999"
       gradientTransform="matrix(0.076357,0,0,0.020588,-3.5974,32.451)"
       y1="366.64999"
       x1="302.85999">
      <stop
         id="stop5050"
         style="stop-opacity:0"
         offset="0" />
      <stop
         id="stop5056"
         offset=".5" />
      <stop
         id="stop5052"
         style="stop-opacity:0"
         offset="1" />
    </linearGradient>
    <radialGradient
       id="radialGradient6118"
       xlink:href="#linearGradient5060"
       gradientUnits="userSpaceOnUse"
       cy="486.64999"
       cx="605.71002"
       gradientTransform="matrix(0.044847,0,0,0.020588,15.389,32.451)"
       r="117.14" />
    <linearGradient
       id="linearGradient5060">
      <stop
         id="stop5062"
         offset="0" />
      <stop
         id="stop5064"
         style="stop-opacity:0"
         offset="1" />
    </linearGradient>
    <radialGradient
       id="radialGradient6120"
       xlink:href="#linearGradient5060"
       gradientUnits="userSpaceOnUse"
       cy="486.64999"
       cx="605.71002"
       gradientTransform="matrix(-0.044847,0,0,0.020588,32.611,32.451)"
       r="117.14" />
    <linearGradient
       id="linearGradient3119">
      <stop
         id="stop3121"
         offset="0" />
      <stop
         id="stop3123"
         style="stop-opacity:0"
         offset="1" />
    </linearGradient>
    <linearGradient
       id="linearGradient6122"
       y2="50"
       gradientUnits="userSpaceOnUse"
       x2="30"
       gradientTransform="matrix(1.0018,0,0,0.75964,-5.0509,4.9364)"
       y1="41"
       x1="29.938">
      <stop
         id="stop2223"
         style="stop-color:#7a7a7a"
         offset="0" />
      <stop
         id="stop2219"
         style="stop-color:#474747"
         offset="1" />
    </linearGradient>
    <radialGradient
       id="radialGradient6124"
       gradientUnits="userSpaceOnUse"
       cy="8.4899998"
       cx="11.734"
       gradientTransform="matrix(1.3767,0.69719,-0.46811,0.92435,-0.049157,-2.9386)"
       r="23.048">
      <stop
         id="stop7064"
         style="stop-color:#e6e6e6"
         offset="0" />
      <stop
         id="stop7060"
         style="stop-color:#c8c8c8"
         offset="1" />
    </radialGradient>
    <linearGradient
       id="linearGradient6114"
       y2="10"
       xlink:href="#linearGradient3484"
       gradientUnits="userSpaceOnUse"
       x2="18.073"
       gradientTransform="translate(0,-1.0001)"
       y1="29.797001"
       x1="17.813999" />
    <linearGradient
       id="linearGradient3484">
      <stop
         id="stop3486"
         style="stop-color:#969696"
         offset="0" />
      <stop
         id="stop3488"
         style="stop-color:#b4b4b4"
         offset="1" />
    </linearGradient>
    <radialGradient
       id="radialGradient6128"
       xlink:href="#linearGradient4035"
       gradientUnits="userSpaceOnUse"
       cy="206.42999"
       cx="141.75"
       gradientTransform="matrix(0.35161,-0.0050244,0.0026023,0.28909,-27.024,-25.218)"
       r="78.727997" />
    <linearGradient
       id="linearGradient4035">
      <stop
         id="stop4037-5"
         style="stop-color:#f5f5f5"
         offset="0" />
      <stop
         id="stop4039-6"
         style="stop-color:#e7e7e7"
         offset=".47026" />
      <stop
         id="stop4041-9"
         style="stop-color:#8c8c8c"
         offset=".69349" />
      <stop
         id="stop4043"
         style="stop-color:#ddd"
         offset=".83543" />
      <stop
         id="stop4045"
         style="stop-color:#a8a8a8"
         offset="1" />
    </linearGradient>
    <radialGradient
       id="radialGradient6130"
       gradientUnits="userSpaceOnUse"
       cy="191.85001"
       cx="142.62"
       gradientTransform="matrix(0.18495,0,0,-0.13074,-3.1112,45.048)"
       r="78.727997">
      <stop
         id="stop7611"
         style="stop-color:#fff"
         offset="0" />
      <stop
         id="stop7677"
         style="stop-color:#e7e7e7"
         offset=".47026" />
      <stop
         id="stop7613"
         style="stop-color:#8c8c8c"
         offset=".67184" />
      <stop
         id="stop7617"
         style="stop-color:#ddd"
         offset=".83543" />
      <stop
         id="stop7615"
         style="stop-color:#a8a8a8"
         offset="1" />
    </radialGradient>
    <radialGradient
       id="radialGradient6132"
       fx="113.67"
       fy="98"
       xlink:href="#radialGradient4241"
       gradientUnits="userSpaceOnUse"
       cy="97.587997"
       cx="113.07"
       gradientTransform="matrix(-0.32949,0,0,0.34975,41.963,0.49383)"
       r="2.5631001" />
    <radialGradient
       id="radialGradient4241"
       fx="113.67"
       fy="98"
       gradientUnits="userSpaceOnUse"
       cy="97.587997"
       cx="113.07"
       r="2.5631001">
      <stop
         id="stop4243-8"
         style="stop-color:#eee"
         offset="0" />
      <stop
         id="stop4245-7"
         style="stop-color:#cecece"
         offset=".16" />
      <stop
         id="stop4247"
         style="stop-color:#888"
         offset=".4675" />
      <stop
         id="stop4249"
         style="stop-color:#555"
         offset="1" />
    </radialGradient>
    <radialGradient
       id="radialGradient6134"
       fx="113.67"
       fy="98"
       xlink:href="#radialGradient4241"
       gradientUnits="userSpaceOnUse"
       cy="97.587997"
       cx="113.07"
       gradientTransform="matrix(0.22283,-0.037522,0.025099,0.14905,-18.146,0.53228)"
       r="2.5631001" />
    <radialGradient
       id="radialGradient3155"
       fx="113.67"
       fy="98"
       gradientUnits="userSpaceOnUse"
       cy="97.587997"
       cx="113.07"
       r="2.5631001">
      <stop
         id="stop3157"
         style="stop-color:#eee"
         offset="0" />
      <stop
         id="stop3159"
         style="stop-color:#cecece"
         offset=".16" />
      <stop
         id="stop3161"
         style="stop-color:#888"
         offset=".4675" />
      <stop
         id="stop3163"
         style="stop-color:#555"
         offset="1" />
    </radialGradient>
    <radialGradient
       id="radialGradient6136"
       fx="113.67"
       fy="98"
       xlink:href="#radialGradient4241"
       gradientUnits="userSpaceOnUse"
       cy="97.587997"
       cx="113.07"
       gradientTransform="matrix(0.22333,0.034393,-0.023006,0.14939,14.791,-7.6318)"
       r="2.5631001" />
    <radialGradient
       id="radialGradient3166"
       fx="113.67"
       fy="98"
       gradientUnits="userSpaceOnUse"
       cy="97.587997"
       cx="113.07"
       r="2.5631001">
      <stop
         id="stop3168"
         style="stop-color:#eee"
         offset="0" />
      <stop
         id="stop3170"
         style="stop-color:#cecece"
         offset=".16" />
      <stop
         id="stop3172"
         style="stop-color:#888"
         offset=".4675" />
      <stop
         id="stop3174"
         style="stop-color:#555"
         offset="1" />
    </radialGradient>
    <linearGradient
       id="linearGradient6138"
       y2="35.280998"
       xlink:href="#linearGradient5060"
       gradientUnits="userSpaceOnUse"
       x2="24.688"
       gradientTransform="matrix(1.0213,0,0,0.89888,0.78724,7.7865)"
       y1="35.280998"
       x1="7.0625" />
    <linearGradient
       id="linearGradient3177">
      <stop
         id="stop3179"
         offset="0" />
      <stop
         id="stop3181"
         style="stop-opacity:0"
         offset="1" />
    </linearGradient>
    <linearGradient
       id="linearGradient6140"
       y2="33.758999"
       gradientUnits="userSpaceOnUse"
       x2="12.222"
       gradientTransform="matrix(1.0213,0,0,0.89888,-0.025178,8.9783)"
       y1="37.206001"
       x1="12.277">
      <stop
         id="stop4238-2"
         style="stop-color:#eee"
         offset="0" />
      <stop
         id="stop4240"
         style="stop-color:#eee;stop-opacity:0"
         offset="1" />
    </linearGradient>
    <radialGradient
       id="radialGradient6142"
       xlink:href="#linearGradient4035"
       gradientUnits="userSpaceOnUse"
       cy="143.83"
       cx="127.32"
       gradientTransform="matrix(0.19054,-0.025056,0.0061935,0.10073,-7.4372,4.4287)"
       r="78.727997" />
    <linearGradient
       id="linearGradient3187">
      <stop
         id="stop3189"
         style="stop-color:#f5f5f5"
         offset="0" />
      <stop
         id="stop3191"
         style="stop-color:#e7e7e7"
         offset=".47026" />
      <stop
         id="stop3193"
         style="stop-color:#8c8c8c"
         offset=".69349" />
      <stop
         id="stop3195"
         style="stop-color:#ddd"
         offset=".83543" />
      <stop
         id="stop3197"
         style="stop-color:#a8a8a8"
         offset="1" />
    </linearGradient>
    <radialGradient
       id="radialGradient6144"
       fx="113.67"
       fy="98"
       xlink:href="#radialGradient4241"
       gradientUnits="userSpaceOnUse"
       cy="97.587997"
       cx="113.07"
       gradientTransform="matrix(0.32949,0,0,0.34975,6.0549,0.49383)"
       r="2.5631001" />
    <radialGradient
       id="radialGradient3200"
       fx="113.67"
       fy="98"
       gradientUnits="userSpaceOnUse"
       cy="97.587997"
       cx="113.07"
       r="2.5631001">
      <stop
         id="stop3202"
         style="stop-color:#eee"
         offset="0" />
      <stop
         id="stop3204"
         style="stop-color:#cecece"
         offset=".16" />
      <stop
         id="stop3206"
         style="stop-color:#888"
         offset=".4675" />
      <stop
         id="stop3208"
         style="stop-color:#555"
         offset="1" />
    </radialGradient>
    <radialGradient
       id="radialGradient6146"
       xlink:href="#linearGradient6310-8"
       gradientUnits="userSpaceOnUse"
       cy="42"
       cx="24"
       gradientTransform="matrix(1,-1.0652e-8,2.7813e-8,0.35714,1.0762e-6,24.5)"
       r="21" />
    <linearGradient
       id="linearGradient6310-8">
      <stop
         id="stop6312-6"
         style="stop-color:#fff"
         offset="0" />
      <stop
         id="stop6314-6"
         style="stop-color:#fff;stop-opacity:0"
         offset="1" />
    </linearGradient>
    <linearGradient
       id="linearGradient6208"
       y2="36.354"
       xlink:href="#linearGradient6310-8"
       gradientUnits="userSpaceOnUse"
       x2="35.998001"
       gradientTransform="matrix(0,0.76325,0.70658,0,22.962,985.19)"
       y1="31.247"
       x1="35.998001" />
    <linearGradient
       id="linearGradient3215">
      <stop
         id="stop3217"
         style="stop-color:#fff"
         offset="0" />
      <stop
         id="stop3219"
         style="stop-color:#fff;stop-opacity:0"
         offset="1" />
    </linearGradient>
    <linearGradient
       id="linearGradient6210"
       y2="13.112"
       gradientUnits="userSpaceOnUse"
       x2="17.858999"
       gradientTransform="matrix(-0.82806,0,0,0.89447,61.189,986.55)"
       y1="12.959"
       x1="19.503">
      <stop
         id="stop2189"
         style="stop-color:#fff;stop-opacity:.64341"
         offset="0" />
      <stop
         id="stop2191"
         style="stop-color:#fff;stop-opacity:0"
         offset="1" />
    </linearGradient>
    <radialGradient
       r="21"
       cy="42"
       cx="24"
       gradientTransform="matrix(1,-1.0652e-8,2.7813e-8,0.35714,1.0762e-6,24.5)"
       gradientUnits="userSpaceOnUse"
       id="radialGradient3249"
       xlink:href="#linearGradient6310-8"
       inkscape:collect="always" />
  </defs>
  <sodipodi:namedview
     id="base"
     pagecolor="#ffffff"
     bordercolor="#666666"
     borderopacity="1.0"
     inkscape:pageopacity="0.0"
     inkscape:pageshadow="2"
     inkscape:zoom="3.959798"
     inkscape:cx="63.20989"
     inkscape:cy="59.117374"
     inkscape:document-units="px"
     inkscape:current-layer="layer1"
     showgrid="false"
     inkscape:window-width="1280"
     inkscape:window-height="750"
     inkscape:window-x="0"
     inkscape:window-y="22"
     inkscape:window-maximized="1"
     showguides="true"
     inkscape:guide-bbox="true">
    <sodipodi:guide
       orientation="0,1"
       position="-24.748737,0"
       id="guide11064" />
    <sodipodi:guide
       orientation="0,1"
       position="-23.233509,96"
       id="guide11066" />
    <sodipodi:guide
       orientation="1,0"
       position="0,54.800776"
       id="guide11068" />
    <sodipodi:guide
       orientation="1,0"
       position="96,51.012704"
       id="guide11070" />
    <sodipodi:guide
       orientation="0,1"
       position="-18.94036,48"
       id="guide11072" />
    <sodipodi:guide
       orientation="1,0"
       position="48,79.296975"
       id="guide11074" />
    <sodipodi:guide
       orientation="1,0"
       position="2,75.508903"
       id="guide11076" />
    <sodipodi:guide
       orientation="0,1"
       position="-77.27667,2"
       id="guide11078" />
    <sodipodi:guide
       orientation="1,0"
       position="94,77.781746"
       id="guide11080" />
    <sodipodi:guide
       orientation="0,1"
       position="-65.912454,94"
       id="guide11082" />
  </sodipodi:namedview>
  <metadata
     id="metadata11042">
    <rdf:RDF>
      <cc:Work
         rdf:about="">
        <dc:format>image/svg+xml</dc:format>
        <dc:type
           rdf:resource="http://purl.org/dc/dcmitype/StillImage" />
        <dc:title></dc:title>
      </cc:Work>
    </rdf:RDF>
  </metadata>
  <g
     inkscape:label="Layer 1"
     inkscape:groupmode="layer"
     id="layer1"
     transform="translate(0,-956.36218)">
    <rect
       x="2"
       y="958.36218"
       width="92"
       height="92"
       style="fill:#000000;fill-opacity:1;opacity:0.85"
       id="rect3867"
       rx="25"
       ry="25" />
    <g
       transform="matrix(0.90375383,0,0,0.90375383,4.3533352,96.407142)"
       id="g3989">
      <path
         inkscape:connector-curvature="0"
         id="path3497"
         style="fill:none;stroke:#ffffff;stroke-width:11.86299992"
         d="m 69.671,1004.3 c 0,14.959 -12.127,27.086 -27.086,27.086 -14.959,0 -27.086,-12.127 -27.086,-27.086 0,-14.959 12.127,-27.086 27.086,-27.086 14.959,0 27.086,12.127 27.086,27.086 z" />
      <path
         inkscape:connector-curvature="0"
         id="rect4269"
         style="fill:#aa0000;stroke:#ff0000;stroke-width:10.875;stroke-linecap:round;stroke-linejoin:round"
         d="m 80.969,976.94 h 0.61572 v 55.466 H 80.969 z" />
    </g>
    <rect
       ry="25"
       rx="25"
       id="rect3003"
       style="opacity:0.15;fill:#ffffff;fill-opacity:1"
       height="92"
       width="92"
       y="958.36218"
       x="-96"
       clip-path="url(#clipPath3009)"
       transform="translate(98,0)" />
    <g
       id="g3059"
       transform="matrix(0.69365,0,0,0.69365,11.244,1014.0022)">
      <rect
         id="rect2723"
         style="opacity:0.3;fill:url(#linearGradient6116)"
         height="5"
         width="36.868999"
         y="40"
         x="5.5653" />
      <path
         inkscape:connector-curvature="0"
         id="path2725"
         d="m 42.417,40 v 4.9997 c 2.309,0.009 5.583,-1.12 5.583,-2.5 0,-1.38 -2.577,-2.5 -5.583,-2.5 z"
         style="opacity:0.3;fill:url(#radialGradient6118)" />
      <path
         inkscape:connector-curvature="0"
         id="path2727"
         d="m 5.5833,40 v 4.9997 C 3.2738,45.0087 0,43.8797 0,42.4997 c 0,-1.38 2.5773,-2.5 5.5833,-2.5 z"
         style="opacity:0.3;fill:url(#radialGradient6120)" />
      <path
         inkscape:connector-curvature="0"
         id="rect6431"
         d="m 1.4639,36.464 h 45.072 l -0.9012,6.072 H 2.4657 L 1.4643,36.464 z"
         style="fill:url(#linearGradient6122);fill-rule:evenodd;stroke:#353537;stroke-width:0.92799997;stroke-linecap:round;stroke-linejoin:round;enable-background:new" />
      <rect
         id="rect6381"
         style="fill:#d2d2d3;fill-rule:evenodd;enable-background:new"
         height="1"
         width="45"
         y="36"
         x="1.5" />
      <path
         inkscape:connector-curvature="0"
         id="path6345"
         d="M 46.55,36.602 39.74,10.828 C 39.54745,10.09403 38.5388,9.4981 37.6908,9.4981 h -27.617 c -1.3027,0 -2.0493,0.19857 -2.324,1.3299 l -6.3,25.749"
         style="fill:url(#radialGradient6124);stroke:url(#linearGradient6114);stroke-width:0.99577999;stroke-linecap:round;stroke-linejoin:round" />
      <path
         inkscape:connector-curvature="0"
         id="path7046"
         d="M 45.5,36.5 2.5,36.476"
         style="opacity:0.4;fill:none;stroke:#ffffff;stroke-linecap:round" />
      <path
         inkscape:connector-curvature="0"
         id="path9001"
         d="m 40.971,25.374 c -0.21768,-1.998 -1.6765,-3.9031 -4.1004,-5.4065 -0.049,-0.579 -0.67,-7.971 -0.67,-7.971 -0.048,-0.568 -0.772,-0.997 -1.685,-0.997 h -5.7313 c -0.91983,0 -1.6309,0.43452 -1.6541,1.0107 -0.10517,2.6032 -3.312,3.9624 -8.0956,5.1988 -1.6761,0.29034 -6.046,1.6552 -7.049,2.2542 -2.9524,1.5736 -4.7132,3.6715 -4.9572,5.9101 -0.22194,2.0361 0.84483,4.0736 3.0039,5.7372 3.16,2.435 8.381,3.889 13.967,3.889 5.586,0 10.807,-1.454 13.968,-3.889 1.971,-1.519 3.032,-3.351 3.032,-5.208 0,-0.17636 -0.01031,-0.35299 -0.02866,-0.52934 h 5.7e-5 z M 24,33.99 c -9.3035,0 -16.427,-4.0803 -15.912,-8.8102 0.22233,-2.0392 1.8544,-4.216 4.557,-5.6505 0.50612,-0.38148 5.0771,-1.8654 6.7168,-2.1261 4.5447,-1.1721 8.7007,-2.6932 8.831,-5.8988 0.0057,-0.1535 0.26756,-0.27511 0.59196,-0.27511 h 5.7305 c 0.33174,0 0.6117,0.12753 0.62484,0.28498 l 0.69594,8.282 c 2.4088,1.3958 3.8684,3.4793 4.0757,5.3836 0.51578,4.7299 -6.6082,8.8102 -15.912,8.8102 z"
         style="fill:url(#radialGradient6128)" />
      <path
         inkscape:connector-curvature="0"
         id="path9003"
         d="M 24,28 C 20.635,28 18.055,26.733 18.001,25.052 18,25.034 18,25.016 18,24.998 18,24.39 18.338,23.812 18.981,23.322 20.067,22.494 21.944,22 24,22 c 2.056,0 3.9324,0.49413 5.0192,1.322 0.66144,0.50352 1.0004,1.102 0.97973,1.7299 C 29.94369,26.7326 27.36413,28 23.99963,28 v 3e-6 z m 0,-5.0597 c -3.1618,0 -4.7726,1.2558 -4.7346,2.4023 0.03667,1.1286 2.1563,2.0304 4.7346,2.0304 2.5783,0 4.698,-0.90209 4.7346,-2.0304 C 28.77209,24.1958 27.1617,22.9403 24,22.9403 z"
         style="fill:url(#radialGradient6130)" />
      <path
         inkscape:connector-curvature="0"
         id="path9007"
         d="M 6.0158,34.619 C 5.9743,35.215 5.3526,35.7 4.6277,35.7 3.90315,35.7 3.3546,35.21455 3.403,34.6193 c 0.048106,-0.59212 0.66952,-1.0702 1.3871,-1.0702 0.71796,2.81e-4 1.2666,0.4781 1.2257,1.0702 z"
         style="fill:#e1e1e1" />
      <path
         inkscape:connector-curvature="0"
         id="path9009"
         d="m 5.547,34.201 c 0.066228,0.07554 0.14201,0.19656 0.14201,0.35744 0,0.01155 -6.602e-4,0.02308 -0.00132,0.03533 -0.028667,0.41025 -0.514,0.75685 -1.0596,0.75685 -0.31071,0 -0.59473,-0.11367 -0.75947,-0.30463 C 3.797781,34.9645 3.71706,34.8295 3.73155,34.64973 c 0.033278,-0.40676 0.51796,-0.75056 1.059,-0.75056 0.3084,2.8e-4 0.59143,0.11297 0.75651,0.30183 h 2.6e-6 z"
         style="fill:url(#radialGradient6132)" />
      <path
         inkscape:connector-curvature="0"
         id="path9019"
         d="m 8.6135,10.982 c 0.070795,0.24896 0.52611,0.38504 1.0163,0.30249 0.49,-0.08251 0.82617,-0.35187 0.7507,-0.60004 C 10.30547,10.43759 9.85091,10.3046 9.3656,10.38632 8.88008,10.4682 8.54336,10.73431 8.61348,10.982 z"
         style="fill:#f0f0f0" />
      <path
         inkscape:connector-curvature="0"
         id="path9021"
         d="m 8.9006,10.75 c -0.039367,0.03974 -0.081933,0.09994 -0.070388,0.1685 8.287e-4,0.0049 0.0021,0.0098 0.00343,0.0149 0.048828,0.17157 0.40193,0.26401 0.77093,0.20187 0.21013,-0.03538 0.39405,-0.11617 0.49176,-0.21631 0.04206,-0.0428 0.08696,-0.10952 0.06426,-0.18448 -0.0517,-0.16956 -0.40415,-0.26088 -0.77003,-0.19927 -0.20855,0.03524 -0.39187,0.1155 -0.48995,0.21478 l -1.8e-6,10e-7 z"
         style="fill:url(#radialGradient6134)" />
      <path
         inkscape:connector-curvature="0"
         id="path9025"
         d="m 36.912,10.697 c -0.01101,0.25859 0.37848,0.53084 0.86981,0.60651 0.49111,0.07563 0.89489,-0.07446 0.90121,-0.33377 0.0063,-0.25794 -0.38341,-0.52702 -0.86983,-0.60192 -0.48666,-0.07482 -0.88994,0.07201 -0.90119,0.32919 z"
         style="fill:#e1e1e1" />
      <path
         inkscape:connector-curvature="0"
         id="path9027"
         d="m 37.258,10.567 c -0.04986,0.02535 -0.10918,0.06913 -0.11977,0.13785 -7.6e-4,0.0049 -0.0011,0.0099 -0.0014,0.01523 -0.0076,0.17822 0.29861,0.37693 0.66845,0.43388 0.2106,0.03243 0.41059,0.01353 0.53482,-0.05084 0.05338,-0.02741 0.11697,-0.07665 0.11897,-0.15495 0.0042,-0.17721 -0.30171,-0.37465 -0.66842,-0.43113 -0.20906,-0.03207 -0.40831,-0.01348 -0.53262,0.04996 l -2e-6,-1e-6 z"
         style="fill:url(#radialGradient6136)" />
      <path
         inkscape:connector-curvature="0"
         id="rect8993"
         d="M 7.5,37 H 26 v 5 H 8 L 7.49999,37 z"
         style="fill:url(#linearGradient6138);fill-rule:evenodd" />
      <path
         inkscape:connector-curvature="0"
         id="path8995"
         d="M 8,42 7.59999,38.3942 C 9.47459,41.2519 16.47299,42 21.21299,42 h -13.213 z"
         style="opacity:0.81142997;fill:url(#linearGradient6140);fill-rule:evenodd" />
      <path
         inkscape:connector-curvature="0"
         id="path9039"
         d="M 10.907,11 10.803,11.381 9.2616,17.052 9,18 l 0.764,-0.204 12.995,-3.544 0.04127,-0.01771 0.03442,-0.01771 c 0.68814,-0.35435 1.0558,-1.0704 1.1425,-1.7278 0.0434,-0.3287 0.03039,-0.65058 -0.08254,-0.9481 -0.10664,-0.28088 -0.38428,-0.53078 -0.67452,-0.52279 v -0.01771 h -0.04821 -11.955 -0.30973 l 3.3e-5,10e-7 z m 0.43984,0.35038 h 11.977 c 0.0056,0.04787 0.01906,0.07443 0.0067,0.165 -0.03757,0.28502 -0.1992,1.3047 -0.60524,1.5271 l -12.596,3.4375 1.2176,-5.1296 h 3.91e-4 z"
         style="fill:url(#radialGradient6142)" />
      <path
         inkscape:connector-curvature="0"
         id="path9091"
         d="m 42.002,34.619 c 0.042,0.596 0.663,1.081 1.388,1.081 0.72455,0 1.2731,-0.48545 1.2247,-1.0807 -0.04811,-0.59212 -0.66952,-1.0702 -1.3871,-1.0702 -0.71796,2.81e-4 -1.2666,0.4781 -1.2257,1.0702 z"
         style="fill:#e1e1e1" />
      <path
         inkscape:connector-curvature="0"
         id="path9093"
         d="m 42.471,34.201 c -0.06623,0.07554 -0.14201,0.19656 -0.14201,0.35744 0,0.01155 6.6e-4,0.02308 0.0013,0.03533 0.02867,0.41025 0.514,0.75685 1.0596,0.75685 0.31071,0 0.59473,-0.11367 0.75947,-0.30463 0.07084,-0.08149 0.15156,-0.21649 0.13707,-0.39626 -0.03328,-0.40676 -0.51796,-0.75056 -1.059,-0.75056 -0.3084,2.8e-4 -0.59143,0.11297 -0.7565,0.30183 h -2e-6 z"
         style="fill:url(#radialGradient6144)" />
      <rect
         id="rect6300-3"
         style="opacity:0.3;fill:url(#radialGradient3249)"
         height="5"
         width="42"
         y="37"
         x="3" />
    </g>
    <g
       id="g3842"
       style="fill:#aa0000"
       transform="translate(-7.1755,13.06278)">
      <path
         inkscape:connector-curvature="0"
         id="path1432"
         style="fill:#aa0000;stroke:url(#linearGradient6208);stroke-width:0.69564998000000000;stroke-linejoin:round;stroke-miterlimit:7;display:block"
         d="m 49.169,1000.8 c 1.0704,-11.791 -18.345,-12.312 -18.201,3.5787 h -5.7997 l 10.307,12.99 10.809,-12.99 h -5.934 c -0.41404,-10.734 7.4003,-9.0727 8.819,-3.5787 z" />
      <path
         inkscape:connector-curvature="0"
         id="path2177"
         d="m 49.646,1000.2 c -3.4742,-11.96 -18.284,-8.6379 -17.957,4.926 h -4.876 l 8.6653,11.057 9.146,-11.057 H 39.6275 C 39.38142,993.8 46.2837,994.79 49.6455,1000.2 z"
         style="opacity:0.69886020000000004;fill:#aa0000;stroke:url(#linearGradient6210);stroke-width:0.69564998000000000;stroke-linejoin:round;stroke-miterlimit:7;display:block" />
    </g>
  </g>
</svg>
