<?xml version="1.0" encoding="UTF-8" standalone="no"?>
<!-- Created with Inkscape (http://www.inkscape.org/) -->

<svg
   xmlns:dc="http://purl.org/dc/elements/1.1/"
   xmlns:cc="http://creativecommons.org/ns#"
   xmlns:rdf="http://www.w3.org/1999/02/22-rdf-syntax-ns#"
   xmlns:svg="http://www.w3.org/2000/svg"
   xmlns="http://www.w3.org/2000/svg"
   xmlns:xlink="http://www.w3.org/1999/xlink"
   xmlns:sodipodi="http://sodipodi.sourceforge.net/DTD/sodipodi-0.dtd"
   xmlns:inkscape="http://www.inkscape.org/namespaces/inkscape"
   width="96"
   height="96"
   id="svg11037"
   version="1.1"
   inkscape:version="0.48.3.1 r9886"
   sodipodi:docname="templat.svg">
  <defs
     id="defs11039">
    <linearGradient
       y2="1046.1001"
       x2="47.999954"
       y1="962.62189"
       x1="47.999954"
       gradientTransform="matrix(1.15,0,0,1.15,-7.1999462,-150.65291)"
       gradientUnits="userSpaceOnUse"
       id="linearGradient3886"
       xlink:href="#linearGradient3795"
       inkscape:collect="always" />
    <linearGradient
       id="linearGradient3795">
      <stop
         style="stop-color:#13a6fd;stop-opacity:1;"
         offset="0"
         id="stop3797" />
      <stop
         style="stop-color:#2975b6;stop-opacity:1;"
         offset="1"
         id="stop3799" />
    </linearGradient>
    <linearGradient
       y2="1046.1001"
       x2="47.999954"
       y1="962.62189"
       x1="47.999954"
       gradientTransform="matrix(1.15,0,0,1.15,-7.1999462,-150.65292)"
       gradientUnits="userSpaceOnUse"
       id="linearGradient11642"
       xlink:href="#linearGradient3795"
       inkscape:collect="always" />
    <clipPath
       clipPathUnits="userSpaceOnUse"
       id="clipPath3009">
      <path
         id="path3011"
         d="m -2,956.36218 -96,0 0,33.5624 96,25.68742 0,-59.24982 z"
         style="opacity:0.15;fill:#ffffff;fill-opacity:1;stroke:none"
         inkscape:connector-curvature="0" />
    </clipPath>
    <linearGradient
       x1="32.251034"
       y1="6.1317081"
       x2="32.251034"
       y2="90.238609"
       id="linearGradient3721"
       xlink:href="#ButtonShadow-0"
       gradientUnits="userSpaceOnUse"
       gradientTransform="translate(0,-97)" />
    <linearGradient
       x1="45.447727"
       y1="92.539597"
       x2="45.447727"
       y2="7.0165396"
       id="ButtonShadow-0"
       gradientUnits="userSpaceOnUse"
       gradientTransform="matrix(1.0058652,0,0,0.994169,100,0)">
      <stop
         id="stop3750-8"
         style="stop-color:#000000;stop-opacity:1"
         offset="0" />
      <stop
         id="stop3752-5"
         style="stop-color:#000000;stop-opacity:0.58823532"
         offset="1" />
    </linearGradient>
    <linearGradient
       x1="48"
       y1="90"
       x2="48"
       y2="5.9877172"
       id="linearGradient3617"
       xlink:href="#linearGradient4074"
       gradientUnits="userSpaceOnUse" />
    <linearGradient
       id="linearGradient4074">
      <stop
         id="stop4076"
         style="stop-color:#8c8c8c;stop-opacity:1"
         offset="0" />
      <stop
         id="stop4078"
         style="stop-color:#f5f5f5;stop-opacity:1"
         offset="1" />
    </linearGradient>
    <linearGradient
       x1="48"
       y1="80"
       x2="48"
       y2="5.9877172"
       id="linearGradient4065"
       xlink:href="#linearGradient3641"
       gradientUnits="userSpaceOnUse" />
    <linearGradient
       id="linearGradient3641">
      <stop
         id="stop3643"
         style="stop-color:#0c0c0c;stop-opacity:1"
         offset="0" />
      <stop
         id="stop3645"
         style="stop-color:#373737;stop-opacity:1"
         offset="1" />
    </linearGradient>
    <linearGradient
       x1="36.357143"
       y1="6"
       x2="36.357143"
       y2="63.893143"
       id="linearGradient4124"
       xlink:href="#linearGradient3737"
       gradientUnits="userSpaceOnUse" />
    <linearGradient
       id="linearGradient3737">
      <stop
         id="stop3739"
         style="stop-color:#ffffff;stop-opacity:1"
         offset="0" />
      <stop
         id="stop3741"
         style="stop-color:#ffffff;stop-opacity:0"
         offset="1" />
    </linearGradient>
    <linearGradient
       x1="47"
       y1="23"
       x2="47"
       y2="17"
       id="linearGradient4241"
       xlink:href="#linearGradient4235"
       gradientUnits="userSpaceOnUse"
       gradientTransform="translate(0,-2)" />
    <linearGradient
       id="linearGradient4235">
      <stop
         id="stop4237"
         style="stop-color:#5dbc1e;stop-opacity:1"
         offset="0" />
      <stop
         id="stop4239"
         style="stop-color:#acc837;stop-opacity:1"
         offset="1" />
    </linearGradient>
    <linearGradient
       x1="16.162441"
       y1="44.48222"
       x2="76.771591"
       y2="44.48222"
       id="linearGradient3707"
       xlink:href="#linearGradient4127"
       gradientUnits="userSpaceOnUse" />
    <linearGradient
       id="linearGradient4127">
      <stop
         id="stop4129"
         style="stop-color:#a4a4a4;stop-opacity:1"
         offset="0" />
      <stop
         id="stop4131"
         style="stop-color:#bfbfbf;stop-opacity:1"
         offset="1" />
    </linearGradient>
    <linearGradient
       x1="16.162441"
       y1="44.48222"
       x2="76.771591"
       y2="44.48222"
       id="linearGradient3744"
       xlink:href="#linearGradient3746"
       gradientUnits="userSpaceOnUse" />
    <linearGradient
       id="linearGradient3746">
      <stop
         id="stop3748"
         style="stop-color:#4c4c4c;stop-opacity:1"
         offset="0" />
      <stop
         id="stop3753"
         style="stop-color:#0a0a0a;stop-opacity:1"
         offset="0.60000002" />
      <stop
         id="stop3751"
         style="stop-color:#4e4e4e;stop-opacity:1"
         offset="1" />
    </linearGradient>
    <linearGradient
       x1="15.343399"
       y1="44.48222"
       x2="77.590637"
       y2="44.48222"
       id="linearGradient4139"
       xlink:href="#linearGradient4133"
       gradientUnits="userSpaceOnUse" />
    <linearGradient
       id="linearGradient4133">
      <stop
         id="stop4135"
         style="stop-color:#1a1a1a;stop-opacity:1"
         offset="0" />
      <stop
         id="stop4137"
         style="stop-color:#292929;stop-opacity:1"
         offset="1" />
    </linearGradient>
    <radialGradient
       cx="47.729706"
       cy="45.997448"
       r="13.637059"
       fx="47.729706"
       fy="45.997448"
       id="radialGradient3687"
       xlink:href="#linearGradient3681"
       gradientUnits="userSpaceOnUse" />
    <linearGradient
       id="linearGradient3681">
      <stop
         id="stop3683"
         style="stop-color:#ffffff;stop-opacity:0.18548387"
         offset="0" />
      <stop
         id="stop3689"
         style="stop-color:#ffffff;stop-opacity:0.10887097"
         offset="0.3086735" />
      <stop
         id="stop3691"
         style="stop-color:#000000;stop-opacity:0"
         offset="0.43622452" />
      <stop
         id="stop3693"
         style="stop-color:#000000;stop-opacity:0"
         offset="0.54464293" />
      <stop
         id="stop3695"
         style="stop-color:#ffffff;stop-opacity:0"
         offset="0.58290821" />
      <stop
         id="stop3697"
         style="stop-color:#000000;stop-opacity:0.1814516"
         offset="0.61479598" />
      <stop
         id="stop3699"
         style="stop-color:#000000;stop-opacity:0.43145162"
         offset="0.69132656" />
      <stop
         id="stop3701"
         style="stop-color:#ffffff;stop-opacity:0.08064516"
         offset="0.78061229" />
      <stop
         id="stop3703"
         style="stop-color:#000000;stop-opacity:0"
         offset="0.87627554" />
      <stop
         id="stop3685"
         style="stop-color:#ffffff;stop-opacity:0"
         offset="1" />
    </linearGradient>
    <linearGradient
       x1="33.199345"
       y1="45.997448"
       x2="67.957489"
       y2="45.997448"
       id="linearGradient3733"
       xlink:href="#linearGradient3727"
       gradientUnits="userSpaceOnUse" />
    <linearGradient
       id="linearGradient3727">
      <stop
         id="stop3729"
         style="stop-color:#ffffff;stop-opacity:1"
         offset="0" />
      <stop
         id="stop3731"
         style="stop-color:#ffffff;stop-opacity:0"
         offset="1" />
    </linearGradient>
    <filter
       color-interpolation-filters="sRGB"
       id="filter3774">
      <feGaussianBlur
         id="feGaussianBlur3776"
         stdDeviation="0.27274118" />
    </filter>
    <linearGradient
       x1="40.068184"
       y1="58.17598"
       x2="31.793724"
       y2="49.665066"
       id="linearGradient3767"
       xlink:href="#linearGradient3761"
       gradientUnits="userSpaceOnUse" />
    <linearGradient
       id="linearGradient3761">
      <stop
         id="stop3763"
         style="stop-color:#ffffff;stop-opacity:1"
         offset="0" />
      <stop
         id="stop3765"
         style="stop-color:#ffffff;stop-opacity:0"
         offset="1" />
    </linearGradient>
    <linearGradient
       x1="40.068184"
       y1="58.17598"
       x2="40.068184"
       y2="41.697067"
       id="linearGradient3771"
       xlink:href="#linearGradient3761"
       gradientUnits="userSpaceOnUse" />
    <linearGradient
       id="linearGradient3245">
      <stop
         id="stop3247"
         style="stop-color:#ffffff;stop-opacity:1"
         offset="0" />
      <stop
         id="stop3249"
         style="stop-color:#ffffff;stop-opacity:0"
         offset="1" />
    </linearGradient>
    <linearGradient
       x1="40.068184"
       y1="58.17598"
       x2="40.068184"
       y2="41.697067"
       id="linearGradient3775"
       xlink:href="#linearGradient3761"
       gradientUnits="userSpaceOnUse" />
    <linearGradient
       id="linearGradient3252">
      <stop
         id="stop3254"
         style="stop-color:#ffffff;stop-opacity:1"
         offset="0" />
      <stop
         id="stop3256"
         style="stop-color:#ffffff;stop-opacity:0"
         offset="1" />
    </linearGradient>
    <linearGradient
       x1="40.068184"
       y1="58.17598"
       x2="40.068184"
       y2="41.697067"
       id="linearGradient3779"
       xlink:href="#linearGradient3761"
       gradientUnits="userSpaceOnUse" />
    <linearGradient
       id="linearGradient3259">
      <stop
         id="stop3261"
         style="stop-color:#ffffff;stop-opacity:1"
         offset="0" />
      <stop
         id="stop3263"
         style="stop-color:#ffffff;stop-opacity:0"
         offset="1" />
    </linearGradient>
    <linearGradient
       x1="40.068184"
       y1="58.17598"
       x2="40.068184"
       y2="41.697067"
       id="linearGradient3791"
       xlink:href="#linearGradient3761"
       gradientUnits="userSpaceOnUse" />
    <linearGradient
       id="linearGradient3266">
      <stop
         id="stop3268"
         style="stop-color:#ffffff;stop-opacity:1"
         offset="0" />
      <stop
         id="stop3270"
         style="stop-color:#ffffff;stop-opacity:0"
         offset="1" />
    </linearGradient>
    <linearGradient
       x1="64.072342"
       y1="64.036171"
       x2="46.604744"
       y2="46.568573"
       id="linearGradient4192"
       xlink:href="#linearGradient3761"
       gradientUnits="userSpaceOnUse" />
    <linearGradient
       id="linearGradient3273">
      <stop
         id="stop3275"
         style="stop-color:#ffffff;stop-opacity:1"
         offset="0" />
      <stop
         id="stop3277"
         style="stop-color:#ffffff;stop-opacity:0"
         offset="1" />
    </linearGradient>
    <radialGradient
       cx="41"
       cy="52"
       r="9.7082043"
       fx="41"
       fy="52"
       id="radialGradient3803"
       xlink:href="#linearGradient3797"
       gradientUnits="userSpaceOnUse"
       gradientTransform="matrix(1,0,0,0.61803397,0,19.862234)" />
    <linearGradient
       id="linearGradient3797">
      <stop
         id="stop3799-9"
         style="stop-color:#ffffff;stop-opacity:1"
         offset="0" />
      <stop
         id="stop3805"
         style="stop-color:#ffffff;stop-opacity:1"
         offset="0.5" />
      <stop
         id="stop3801"
         style="stop-color:#ffffff;stop-opacity:0"
         offset="1" />
    </linearGradient>
    <clipPath
       clipPathUnits="userSpaceOnUse"
       id="clipPath3234">
      <rect
         x="6"
         y="6.0869617"
         width="84"
         height="84"
         style="fill:url(#linearGradient3238);fill-opacity:1"
         id="rect3236"
         rx="22.826086"
         ry="22.826086" />
    </clipPath>
    <linearGradient
       inkscape:collect="always"
       xlink:href="#linearGradient3795"
       id="linearGradient3238"
       gradientUnits="userSpaceOnUse"
       gradientTransform="matrix(1.05,0,0,1.05,-2.3999508,-1006.492)"
       x1="47.999954"
       y1="962.62189"
       x2="47.999954"
       y2="1046.1001" />
  </defs>
  <sodipodi:namedview
     id="base"
     pagecolor="#ffffff"
     bordercolor="#666666"
     borderopacity="1.0"
     inkscape:pageopacity="0.0"
     inkscape:pageshadow="2"
     inkscape:zoom="3.959798"
     inkscape:cx="33.538031"
     inkscape:cy="59.964634"
     inkscape:document-units="px"
     inkscape:current-layer="layer1"
     showgrid="false"
     inkscape:window-width="1280"
     inkscape:window-height="750"
     inkscape:window-x="0"
     inkscape:window-y="22"
     inkscape:window-maximized="1"
     showguides="true"
     inkscape:guide-bbox="true">
    <sodipodi:guide
       orientation="0,1"
       position="-24.748737,0"
       id="guide11064" />
    <sodipodi:guide
       orientation="0,1"
       position="-23.233509,96"
       id="guide11066" />
    <sodipodi:guide
       orientation="1,0"
       position="0,54.800776"
       id="guide11068" />
    <sodipodi:guide
       orientation="1,0"
       position="96,51.012704"
       id="guide11070" />
    <sodipodi:guide
       orientation="0,1"
       position="-18.94036,48"
       id="guide11072" />
    <sodipodi:guide
       orientation="1,0"
       position="48,79.296975"
       id="guide11074" />
    <sodipodi:guide
       orientation="1,0"
       position="2,75.508903"
       id="guide11076" />
    <sodipodi:guide
       orientation="0,1"
       position="-77.27667,2"
       id="guide11078" />
    <sodipodi:guide
       orientation="1,0"
       position="94,77.781746"
       id="guide11080" />
    <sodipodi:guide
       orientation="0,1"
       position="-65.912454,94"
       id="guide11082" />
  </sodipodi:namedview>
  <metadata
     id="metadata11042">
    <rdf:RDF>
      <cc:Work
         rdf:about="">
        <dc:format>image/svg+xml</dc:format>
        <dc:type
           rdf:resource="http://purl.org/dc/dcmitype/StillImage" />
        <dc:title></dc:title>
      </cc:Work>
    </rdf:RDF>
  </metadata>
  <g
     inkscape:label="Layer 1"
     inkscape:groupmode="layer"
     id="layer1"
     transform="translate(0,-956.36218)">
    <g
       transform="matrix(1.0952381,0,0,1.0952381,-4.5714286,951.69551)"
       id="g3144"
       clip-path="url(#clipPath3234)">
      <g
         id="layer7">
        <rect
           style="opacity:0.45;fill:url(#linearGradient3721);fill-opacity:1;fill-rule:nonzero;stroke:none;display:inline"
           id="rect3716"
           transform="scale(1,-1)"
           y="-91"
           x="6"
           ry="6"
           rx="6"
           height="84"
           width="84" />
      </g>
      <rect
         style="fill:url(#linearGradient3617);fill-opacity:1;fill-rule:nonzero;stroke:none;display:inline"
         id="rect2419"
         y="6"
         x="6"
         ry="6"
         rx="6"
         height="84"
         width="84" />
      <path
         style="opacity:0.3;fill:#000000;fill-opacity:1;fill-rule:nonzero;stroke:none;display:inline"
         id="path4100"
         inkscape:connector-curvature="0"
         d="M 31.21875,7 C 28.106818,19.061157 16.646384,27.714381 16.03125,47.34375 16.003603,47.889164 16,48.447715 16,49 16,66.673112 30.326888,81 48,81 65.673112,81 80,66.673112 80,49 80,48.447715 79.996397,47.889164 79.96875,47.34375 79.353616,27.714381 67.893182,19.061157 64.78125,7 l -33.5625,0 z" />
      <path
         style="fill:url(#linearGradient4065);fill-opacity:1;fill-rule:nonzero;stroke:none;display:inline"
         id="rect4063"
         inkscape:connector-curvature="0"
         d="M 31.21875,6 C 28.106818,18.061157 16.646384,26.714381 16.03125,46.34375 16.003603,46.889164 16,47.447715 16,48 16,65.673112 30.326888,80 48,80 65.673112,80 80,65.673112 80,48 80,47.447715 79.996397,46.889164 79.96875,46.34375 79.353616,26.714381 67.893182,18.061157 64.78125,6 l -33.5625,0 z" />
      <path
         style="fill:#000000;fill-opacity:1;fill-rule:nonzero;stroke:none;display:inline"
         id="path4082"
         inkscape:connector-curvature="0"
         d="m 16,47.5 c -0.0012,0.167276 0,0.333332 0,0.5 0,17.673112 14.326888,32 32,32 17.673112,0 32,-14.326888 32,-32 0,-0.166668 0.0012,-0.332724 0,-0.5 C 79.733293,64.942958 65.506444,79 48,79 30.493556,79 16.266707,64.942958 16,47.5 z" />
      <path
         style="opacity:0.15;fill:url(#linearGradient4124);fill-opacity:1;fill-rule:nonzero;stroke:none;display:inline"
         id="path4117"
         inkscape:connector-curvature="0"
         d="m 31.21875,6 c -0.175451,0.6800091 -0.399914,1.3390787 -0.625,2 l 34.8125,0 C 65.181164,7.3390787 64.956701,6.6800091 64.78125,6 l -33.5625,0 z" />
      <path
         style="fill:url(#linearGradient4241);fill-opacity:1;stroke:none;display:inline"
         id="path4225"
         inkscape:connector-curvature="0"
         d="m 42,21 6,-2 6,2 -6,-6 z" />
      <path
         style="opacity:0.4;fill:#000000;fill-opacity:1;stroke:none;display:inline"
         id="path4243"
         inkscape:connector-curvature="0"
         d="M 48,14 42,20 43.5,19.5 48,15 52.5,19.5 54,20 48,14 z" />
      <path
         style="opacity:0.3;fill:#ffffff;fill-opacity:1;stroke:none;display:inline"
         id="path4252"
         inkscape:connector-curvature="0"
         d="M 48,15 42,21 43.5,20.5 48,16 52.5,20.5 54,21 48,15 z" />
      <g
         style="display:inline"
         id="layer3">
        <path
           inkscape:connector-curvature="0"
           style="opacity:0.05;fill:#000000;fill-opacity:1;stroke:none"
           id="path4184"
           transform="matrix(0,-0.75896127,-0.75896127,0,81.760282,84.266667)"
           d="m 46.46875,10.375 c -18.81247,0 -34.125,15.276639 -34.125,34.09375 0,18.816893 15.308107,34.125 34.125,34.125 18.816893,0 34.125,-15.308107 34.125,-34.125 0,-18.817111 -15.31253,-34.09375 -34.125,-34.09375 z" />
        <path
           inkscape:connector-curvature="0"
           style="opacity:0.07999998;fill:#000000;fill-opacity:1;stroke:none"
           id="path4180"
           transform="matrix(0,-0.75896127,-0.75896127,0,81.760282,84.266667)"
           d="m 46.46875,11.75 c -18.061089,0 -32.75,14.654652 -32.75,32.71875 0,18.064028 14.685972,32.75 32.75,32.75 18.064028,0 32.75,-14.685972 32.75,-32.75 0,-18.064098 -14.688911,-32.71875 -32.75,-32.71875 z" />
        <path
           inkscape:connector-curvature="0"
           style="opacity:0.15;fill:#000000;fill-opacity:1;stroke:none"
           id="path4176"
           transform="matrix(0,-0.75896127,-0.75896127,0,81.760282,84.266667)"
           d="m 46.46875,12.8125 c -17.480704,0 -31.6875,14.17383 -31.6875,31.65625 0,17.48242 14.20508,31.6875 31.6875,31.6875 17.48242,0 31.6875,-14.20508 31.6875,-31.6875 0,-17.48242 -14.206796,-31.65625 -31.6875,-31.65625 z" />
        <path
           inkscape:connector-curvature="0"
           style="opacity:0.3;fill:#000000;fill-opacity:1;stroke:none"
           id="path4170"
           transform="matrix(0,-0.75896127,-0.75896127,0,81.760282,84.266667)"
           d="m 76.771595,44.48222 a 30.304577,30.304577 0 1 1 -60.609154,0 30.304577,30.304577 0 1 1 60.609154,0 z" />
        <path
           inkscape:connector-curvature="0"
           style="fill:url(#linearGradient3707);fill-opacity:1;stroke:none"
           id="path3697"
           transform="matrix(0,-0.75896127,-0.75896127,0,81.760282,83.266667)"
           d="m 76.771595,44.48222 a 30.304577,30.304577 0 1 1 -60.609154,0 30.304577,30.304577 0 1 1 60.609154,0 z" />
        <path
           inkscape:connector-curvature="0"
           style="fill:url(#linearGradient3744);fill-opacity:1;stroke:url(#linearGradient4139);stroke-width:1.63808525;stroke-miterlimit:4;stroke-dasharray:none"
           id="path3742"
           transform="matrix(0,0.61046884,-0.61046884,0,75.155009,19.633333)"
           d="m 76.771595,44.48222 a 30.304577,30.304577 0 1 1 -60.609154,0 30.304577,30.304577 0 1 1 60.609154,0 z" />
        <path
           style="opacity:0.3;fill:#ffffff;fill-opacity:1;stroke:none"
           id="path4158"
           inkscape:connector-curvature="0"
           d="m 48,25 c -12.702549,0 -23,10.297451 -23,23 0,0.167023 -0.0035,0.333826 0,0.5 C 25.265891,36.028237 35.464474,26 48,26 60.535526,26 70.734109,36.028237 71,48.5 71.003543,48.333826 71,48.167023 71,48 71,35.297451 60.702549,25 48,25 z M 29.03125,48.5 C 29.026845,48.668301 29,48.830636 29,49 29,59.49341 37.50659,68 48,68 58.49341,68 67,59.49341 67,49 67,48.830636 66.973155,48.668301 66.96875,48.5 66.70026,58.759276 58.324046,67 48,67 37.675954,67 29.29974,58.759276 29.03125,48.5 z" />
      </g>
      <g
         style="display:inline"
         id="layer4">
        <path
           inkscape:connector-curvature="0"
           style="fill:#000000;fill-opacity:1;stroke:none"
           id="path3757"
           transform="matrix(1.0266143,0,0,1.0266143,-0.999999,0.7783622)"
           d="m 61.366765,45.997448 a 13.637059,13.637059 0 1 1 -27.274118,0 13.637059,13.637059 0 1 1 27.274118,0 z" />
        <path
           style="opacity:0.6;fill:#000000;fill-opacity:1;stroke:none"
           id="path3760"
           inkscape:connector-curvature="0"
           d="M 47.5,33 C 39.491871,33 33,39.491871 33,47.5 33,55.508129 39.491871,62 47.5,62 c 0.08504,0 0.165309,0.0015 0.25,0 C 40.133878,61.866031 34,55.648102 34,48 c 0,-7.731986 6.268014,-14 14,-14 7.648102,0 13.866031,6.133878 14,13.75 0.0015,-0.08469 0,-0.164961 0,-0.25 C 62,39.491871 55.508129,33 47.5,33 z" />
        <path
           inkscape:connector-curvature="0"
           style="fill:url(#radialGradient3687);fill-opacity:1;stroke:none"
           id="path2907"
           transform="matrix(1.0266143,0,0,1.0266143,-0.999999,0.778362)"
           d="m 61.366765,45.997448 a 13.637059,13.637059 0 1 1 -27.274118,0 13.637059,13.637059 0 1 1 27.274118,0 z" />
        <path
           inkscape:connector-curvature="0"
           style="fill:none;stroke:url(#linearGradient3733);stroke-width:0.514606;stroke-miterlimit:4;stroke-opacity:1;stroke-dasharray:none;filter:url(#filter3774)"
           id="path3705"
           transform="matrix(0,0.97161711,-0.97161711,0,92.69191,1.6250011)"
           d="m 61.366765,45.997448 a 13.637059,13.637059 0 1 1 -27.274118,0 13.637059,13.637059 0 1 1 27.274118,0 z" />
        <path
           style="opacity:0.6;fill:#ffffff;fill-opacity:1;stroke:none"
           id="path3735"
           inkscape:connector-curvature="0"
           d="m 41.34375,47.375 c 0.07082,-0.767299 0.285421,-1.486362 0.59375,-2.15625 L 37.34375,42.8125 c -0.603997,1.243084 -1.018186,2.621977 -1.15625,4.0625 l 5.15625,0.5 z m 1.375,-3.4375 c 1.071033,-1.389071 2.667628,-2.34897 4.5,-2.5625 L 46.625,36.21875 c -3.598468,0.417087 -6.654118,2.435762 -8.53125,5.3125 l 4.625,2.40625 z" />
        <path
           inkscape:connector-curvature="0"
           style="opacity:0.4314516;fill:url(#linearGradient3767);fill-opacity:1;stroke:none"
           id="path3759"
           transform="matrix(0.58268801,-0.58268801,0.58268801,0.58268801,-0.74355667,46.935862)"
           d="m 50.708204,52 a 9.7082043,6 0 1 1 -19.416408,0 9.7082043,6 0 1 1 19.416408,0 z" />
        <path
           inkscape:connector-curvature="0"
           style="opacity:0.3;fill:url(#linearGradient3771);fill-opacity:1;stroke:none"
           id="path3769"
           transform="matrix(0.15076894,-0.15076894,0.15076894,0.15076894,37.387737,49.649792)"
           d="m 50.708204,52 a 9.7082043,6 0 1 1 -19.416408,0 9.7082043,6 0 1 1 19.416408,0 z" />
        <path
           inkscape:connector-curvature="0"
           style="opacity:0.3;fill:url(#linearGradient3775);fill-opacity:1;stroke:none"
           id="path3773"
           transform="matrix(-0.10757707,0.10757707,-0.10757707,-0.10757707,55.999137,47.076819)"
           d="m 50.708204,52 a 9.7082043,6 0 1 1 -19.416408,0 9.7082043,6 0 1 1 19.416408,0 z" />
        <path
           inkscape:connector-curvature="0"
           style="opacity:0.4314516;fill:url(#linearGradient3779);fill-opacity:1;stroke:none"
           id="path3777"
           transform="matrix(-0.19358861,0.19358861,-0.19358861,-0.19358861,59.194255,43.21899)"
           d="m 50.708204,52 a 9.7082043,6 0 1 1 -19.416408,0 9.7082043,6 0 1 1 19.416408,0 z" />
        <path
           inkscape:connector-curvature="0"
           style="opacity:0.6;fill:url(#linearGradient3791);fill-opacity:1;stroke:none"
           id="path3789"
           transform="matrix(0.08968638,-0.08968638,0.08968638,0.08968638,40.497472,47.750757)"
           d="m 50.708204,52 a 9.7082043,6 0 1 1 -19.416408,0 9.7082043,6 0 1 1 19.416408,0 z" />
        <path
           style="opacity:0.5;fill:url(#linearGradient4192);fill-opacity:1;stroke:none;display:inline"
           id="path3806"
           inkscape:connector-curvature="0"
           d="m 48,32 c -8.836556,0 -16,7.163444 -16,16 0,8.836556 7.163444,16 16,16 8.836556,0 16,-7.163444 16,-16 0,-8.836556 -7.163444,-16 -16,-16 z m 0,1 c 8.284271,0 15,6.715729 15,15 0,8.284271 -6.715729,15 -15,15 -8.284271,0 -15,-6.715729 -15,-15 0,-8.284271 6.715729,-15 15,-15 z" />
      </g>
      <g
         style="display:inline"
         id="layer6">
        <path
           inkscape:connector-curvature="0"
           style="fill:url(#radialGradient3803);fill-opacity:1;stroke:none;display:inline"
           id="path3793"
           transform="matrix(0.23287504,-0.23287504,0.23287504,0.23287504,33.266783,52.13527)"
           d="m 50.708204,52 a 9.7082043,6 0 1 1 -19.416408,0 9.7082043,6 0 1 1 19.416408,0 z" />
        <path
           inkscape:connector-curvature="0"
           style="opacity:0.3;fill:#5f8dd3;fill-opacity:1;stroke:none;display:inline"
           id="path3285"
           transform="matrix(1.0266143,0,0,1.0266143,-0.999999,0.7783622)"
           d="m 61.366765,45.997448 a 13.637059,13.637059 0 1 1 -27.274118,0 13.637059,13.637059 0 1 1 27.274118,0 z" />
      </g>
    </g>
    <rect
       ry="25"
       rx="25"
       id="rect3003"
       style="opacity:0.15;fill:#ffffff;fill-opacity:1"
       height="92"
       width="92"
       y="958.36218"
       x="-96"
       clip-path="url(#clipPath3009)"
       transform="translate(98,0)" />
  </g>
</svg>
