<?xml version="1.0" encoding="UTF-8" standalone="no"?>
<!-- Created with Inkscape (http://www.inkscape.org/) -->

<svg
   xmlns:dc="http://purl.org/dc/elements/1.1/"
   xmlns:cc="http://creativecommons.org/ns#"
   xmlns:rdf="http://www.w3.org/1999/02/22-rdf-syntax-ns#"
   xmlns:svg="http://www.w3.org/2000/svg"
   xmlns="http://www.w3.org/2000/svg"
   xmlns:xlink="http://www.w3.org/1999/xlink"
   xmlns:sodipodi="http://sodipodi.sourceforge.net/DTD/sodipodi-0.dtd"
   xmlns:inkscape="http://www.inkscape.org/namespaces/inkscape"
   width="96"
   height="96"
   id="svg11037"
   version="1.1"
   inkscape:version="0.48.3.1 r9886"
   sodipodi:docname="templat.svg">
  <defs
     id="defs11039">
    <linearGradient
       y2="1046.1001"
       x2="47.999954"
       y1="962.62189"
       x1="47.999954"
       gradientTransform="matrix(1.15,0,0,1.15,-7.1999462,-150.65291)"
       gradientUnits="userSpaceOnUse"
       id="linearGradient3886"
       xlink:href="#linearGradient3795"
       inkscape:collect="always" />
    <linearGradient
       id="linearGradient3795">
      <stop
         style="stop-color:#13a6fd;stop-opacity:1;"
         offset="0"
         id="stop3797" />
      <stop
         style="stop-color:#2975b6;stop-opacity:1;"
         offset="1"
         id="stop3799" />
    </linearGradient>
    <linearGradient
       y2="1046.1001"
       x2="47.999954"
       y1="962.62189"
       x1="47.999954"
       gradientTransform="matrix(1.15,0,0,1.15,-7.1999462,-150.65292)"
       gradientUnits="userSpaceOnUse"
       id="linearGradient11642"
       xlink:href="#linearGradient3795"
       inkscape:collect="always" />
    <clipPath
       clipPathUnits="userSpaceOnUse"
       id="clipPath3009">
      <path
         id="path3011"
         d="m -2,956.36218 -96,0 0,33.5624 96,25.68742 0,-59.24982 z"
         style="opacity:0.15;fill:#ffffff;fill-opacity:1;stroke:none"
         inkscape:connector-curvature="0" />
    </clipPath>
    <linearGradient
       inkscape:collect="always"
       xlink:href="#linearGradient3614"
       id="linearGradient3479"
       gradientUnits="userSpaceOnUse"
       x1="48"
       y1="90"
       x2="48"
       y2="5.9877172" />
    <linearGradient
       id="linearGradient3614">
      <stop
         id="stop3616"
         style="stop-color:#c8c4b7;stop-opacity:1"
         offset="0" />
      <stop
         id="stop3618"
         style="stop-color:#e3e2db;stop-opacity:1"
         offset="1" />
    </linearGradient>
    <filter
       x="-0.046066221"
       y="-0.68178004"
       width="1.0921324"
       height="2.3635602"
       color-interpolation-filters="sRGB"
       id="filter3903">
      <feGaussianBlur
         id="feGaussianBlur3905"
         stdDeviation="1.4203751" />
    </filter>
    <linearGradient
       inkscape:collect="always"
       xlink:href="#linearGradient3889"
       id="linearGradient3474"
       gradientUnits="userSpaceOnUse"
       x1="48"
       y1="8"
       x2="48"
       y2="48" />
    <linearGradient
       id="linearGradient3889">
      <stop
         id="stop3891"
         style="stop-color:#a49e89;stop-opacity:1"
         offset="0" />
      <stop
         id="stop3893"
         style="stop-color:#ffffff;stop-opacity:1"
         offset="1" />
    </linearGradient>
    <linearGradient
       inkscape:collect="always"
       xlink:href="#linearGradient3721"
       id="linearGradient3469"
       gradientUnits="userSpaceOnUse"
       x1="48"
       y1="14"
       x2="48"
       y2="42" />
    <linearGradient
       id="linearGradient3721">
      <stop
         id="stop3723"
         style="stop-color:#949494;stop-opacity:1"
         offset="0" />
      <stop
         id="stop3731"
         style="stop-color:#aeaeae;stop-opacity:1"
         offset="0.19546634" />
      <stop
         id="stop3729"
         style="stop-color:#828282;stop-opacity:1"
         offset="0.66360098" />
      <stop
         id="stop3725"
         style="stop-color:#4d4d4d;stop-opacity:1"
         offset="1" />
    </linearGradient>
    <linearGradient
       inkscape:collect="always"
       xlink:href="#linearGradient3735"
       id="linearGradient3466"
       gradientUnits="userSpaceOnUse"
       spreadMethod="reflect"
       x1="41.84375"
       y1="28"
       x2="48"
       y2="28" />
    <linearGradient
       id="linearGradient3735">
      <stop
         id="stop3737"
         style="stop-color:#000000;stop-opacity:1"
         offset="0" />
      <stop
         id="stop3744"
         style="stop-color:#000000;stop-opacity:0.1627907"
         offset="0.5" />
      <stop
         id="stop3740"
         style="stop-color:#000000;stop-opacity:0"
         offset="1" />
    </linearGradient>
    <radialGradient
       inkscape:collect="always"
       xlink:href="#linearGradient3737"
       id="radialGradient3463"
       gradientUnits="userSpaceOnUse"
       gradientTransform="matrix(1,0,0,0.1,0,36.55)"
       cx="48"
       cy="19.5"
       fx="48"
       fy="19.5"
       r="5" />
    <linearGradient
       id="linearGradient3737">
      <stop
         id="stop3739"
         style="stop-color:#ffffff;stop-opacity:1"
         offset="0" />
      <stop
         id="stop3741"
         style="stop-color:#ffffff;stop-opacity:0"
         offset="1" />
    </linearGradient>
    <radialGradient
       inkscape:collect="always"
       xlink:href="#linearGradient3737"
       id="radialGradient3460"
       gradientUnits="userSpaceOnUse"
       gradientTransform="matrix(1,0,0,0.1,0,33.55)"
       cx="48"
       cy="19.5"
       fx="48"
       fy="19.5"
       r="5" />
    <linearGradient
       id="linearGradient3553">
      <stop
         id="stop3555"
         style="stop-color:#ffffff;stop-opacity:1"
         offset="0" />
      <stop
         id="stop3557"
         style="stop-color:#ffffff;stop-opacity:0"
         offset="1" />
    </linearGradient>
    <radialGradient
       inkscape:collect="always"
       xlink:href="#linearGradient3737"
       id="radialGradient3457"
       gradientUnits="userSpaceOnUse"
       gradientTransform="matrix(1,0,0,0.1,0,30.55)"
       cx="48"
       cy="19.5"
       fx="48"
       fy="19.5"
       r="5" />
    <linearGradient
       id="linearGradient3560">
      <stop
         id="stop3562"
         style="stop-color:#ffffff;stop-opacity:1"
         offset="0" />
      <stop
         id="stop3564"
         style="stop-color:#ffffff;stop-opacity:0"
         offset="1" />
    </linearGradient>
    <radialGradient
       inkscape:collect="always"
       xlink:href="#linearGradient3737"
       id="radialGradient3454"
       gradientUnits="userSpaceOnUse"
       gradientTransform="matrix(1,0,0,0.1,0,27.55)"
       cx="48"
       cy="19.5"
       fx="48"
       fy="19.5"
       r="5" />
    <linearGradient
       id="linearGradient3567">
      <stop
         id="stop3569"
         style="stop-color:#ffffff;stop-opacity:1"
         offset="0" />
      <stop
         id="stop3571"
         style="stop-color:#ffffff;stop-opacity:0"
         offset="1" />
    </linearGradient>
    <radialGradient
       inkscape:collect="always"
       xlink:href="#linearGradient3737"
       id="radialGradient3451"
       gradientUnits="userSpaceOnUse"
       gradientTransform="matrix(1,0,0,0.1,0,24.55)"
       cx="48"
       cy="19.5"
       fx="48"
       fy="19.5"
       r="5" />
    <linearGradient
       id="linearGradient3574">
      <stop
         id="stop3576"
         style="stop-color:#ffffff;stop-opacity:1"
         offset="0" />
      <stop
         id="stop3578"
         style="stop-color:#ffffff;stop-opacity:0"
         offset="1" />
    </linearGradient>
    <radialGradient
       inkscape:collect="always"
       xlink:href="#linearGradient3737"
       id="radialGradient3448"
       gradientUnits="userSpaceOnUse"
       gradientTransform="matrix(1,0,0,0.1,0,21.55)"
       cx="48"
       cy="19.5"
       fx="48"
       fy="19.5"
       r="5" />
    <linearGradient
       id="linearGradient3581">
      <stop
         id="stop3583"
         style="stop-color:#ffffff;stop-opacity:1"
         offset="0" />
      <stop
         id="stop3585"
         style="stop-color:#ffffff;stop-opacity:0"
         offset="1" />
    </linearGradient>
    <radialGradient
       inkscape:collect="always"
       xlink:href="#linearGradient3737"
       id="radialGradient3445"
       gradientUnits="userSpaceOnUse"
       gradientTransform="matrix(1,0,0,0.1,0,18.55)"
       cx="48"
       cy="19.5"
       fx="48"
       fy="19.5"
       r="5" />
    <linearGradient
       id="linearGradient3588">
      <stop
         id="stop3590"
         style="stop-color:#ffffff;stop-opacity:1"
         offset="0" />
      <stop
         id="stop3592"
         style="stop-color:#ffffff;stop-opacity:0"
         offset="1" />
    </linearGradient>
    <radialGradient
       inkscape:collect="always"
       xlink:href="#linearGradient3737"
       id="radialGradient3442"
       gradientUnits="userSpaceOnUse"
       gradientTransform="matrix(1,0,0,0.1,0,15.55)"
       cx="48"
       cy="19.5"
       fx="48"
       fy="19.5"
       r="5" />
    <linearGradient
       id="linearGradient3595">
      <stop
         id="stop3597"
         style="stop-color:#ffffff;stop-opacity:1"
         offset="0" />
      <stop
         id="stop3599"
         style="stop-color:#ffffff;stop-opacity:0"
         offset="1" />
    </linearGradient>
    <radialGradient
       inkscape:collect="always"
       xlink:href="#linearGradient3837"
       id="radialGradient3439"
       gradientUnits="userSpaceOnUse"
       gradientTransform="matrix(1,0,0,0.1,0,33.75)"
       cx="48"
       cy="37.5"
       fx="48"
       fy="37.5"
       r="5" />
    <linearGradient
       id="linearGradient3837">
      <stop
         id="stop3839"
         style="stop-color:#000000;stop-opacity:1"
         offset="0" />
      <stop
         id="stop3841"
         style="stop-color:#000000;stop-opacity:0"
         offset="1" />
    </linearGradient>
    <radialGradient
       inkscape:collect="always"
       xlink:href="#linearGradient3837"
       id="radialGradient3436"
       gradientUnits="userSpaceOnUse"
       gradientTransform="matrix(1,0,0,0.1,0,30.75)"
       cx="48"
       cy="37.5"
       fx="48"
       fy="37.5"
       r="5" />
    <linearGradient
       id="linearGradient3606">
      <stop
         id="stop3608"
         style="stop-color:#000000;stop-opacity:1"
         offset="0" />
      <stop
         id="stop3610"
         style="stop-color:#000000;stop-opacity:0"
         offset="1" />
    </linearGradient>
    <radialGradient
       inkscape:collect="always"
       xlink:href="#linearGradient3837"
       id="radialGradient3433"
       gradientUnits="userSpaceOnUse"
       gradientTransform="matrix(1,0,0,0.1,0,27.75)"
       cx="48"
       cy="37.5"
       fx="48"
       fy="37.5"
       r="5" />
    <linearGradient
       id="linearGradient3613">
      <stop
         id="stop3615"
         style="stop-color:#000000;stop-opacity:1"
         offset="0" />
      <stop
         id="stop3617"
         style="stop-color:#000000;stop-opacity:0"
         offset="1" />
    </linearGradient>
    <radialGradient
       inkscape:collect="always"
       xlink:href="#linearGradient3837"
       id="radialGradient3430"
       gradientUnits="userSpaceOnUse"
       gradientTransform="matrix(1,0,0,0.1,0,24.75)"
       cx="48"
       cy="37.5"
       fx="48"
       fy="37.5"
       r="5" />
    <linearGradient
       id="linearGradient3620">
      <stop
         id="stop3622"
         style="stop-color:#000000;stop-opacity:1"
         offset="0" />
      <stop
         id="stop3624"
         style="stop-color:#000000;stop-opacity:0"
         offset="1" />
    </linearGradient>
    <radialGradient
       inkscape:collect="always"
       xlink:href="#linearGradient3837"
       id="radialGradient3427"
       gradientUnits="userSpaceOnUse"
       gradientTransform="matrix(1,0,0,0.1,0,21.75)"
       cx="48"
       cy="37.5"
       fx="48"
       fy="37.5"
       r="5" />
    <linearGradient
       id="linearGradient3627">
      <stop
         id="stop3629"
         style="stop-color:#000000;stop-opacity:1"
         offset="0" />
      <stop
         id="stop3631"
         style="stop-color:#000000;stop-opacity:0"
         offset="1" />
    </linearGradient>
    <radialGradient
       inkscape:collect="always"
       xlink:href="#linearGradient3837"
       id="radialGradient3424"
       gradientUnits="userSpaceOnUse"
       gradientTransform="matrix(1,0,0,0.1,0,18.75)"
       cx="48"
       cy="37.5"
       fx="48"
       fy="37.5"
       r="5" />
    <linearGradient
       id="linearGradient3634">
      <stop
         id="stop3636"
         style="stop-color:#000000;stop-opacity:1"
         offset="0" />
      <stop
         id="stop3638"
         style="stop-color:#000000;stop-opacity:0"
         offset="1" />
    </linearGradient>
    <radialGradient
       inkscape:collect="always"
       xlink:href="#linearGradient3837"
       id="radialGradient3421"
       gradientUnits="userSpaceOnUse"
       gradientTransform="matrix(1,0,0,0.1,0,15.75)"
       cx="48"
       cy="37.5"
       fx="48"
       fy="37.5"
       r="5" />
    <linearGradient
       id="linearGradient3641">
      <stop
         id="stop3643"
         style="stop-color:#000000;stop-opacity:1"
         offset="0" />
      <stop
         id="stop3645"
         style="stop-color:#000000;stop-opacity:0"
         offset="1" />
    </linearGradient>
    <radialGradient
       inkscape:collect="always"
       xlink:href="#linearGradient3837"
       id="radialGradient3418"
       gradientUnits="userSpaceOnUse"
       gradientTransform="matrix(1,0,0,0.1,0,12.75)"
       cx="48"
       cy="37.5"
       fx="48"
       fy="37.5"
       r="5" />
    <linearGradient
       id="linearGradient3648">
      <stop
         id="stop3650"
         style="stop-color:#000000;stop-opacity:1"
         offset="0" />
      <stop
         id="stop3652"
         style="stop-color:#000000;stop-opacity:0"
         offset="1" />
    </linearGradient>
    <linearGradient
       inkscape:collect="always"
       xlink:href="#linearGradient3688"
       id="linearGradient3415"
       gradientUnits="userSpaceOnUse"
       x1="16"
       y1="88"
       x2="16"
       y2="8" />
    <linearGradient
       id="linearGradient3688">
      <stop
         id="stop3690"
         style="stop-color:#333333;stop-opacity:1"
         offset="0" />
      <stop
         id="stop3692"
         style="stop-color:#595959;stop-opacity:1"
         offset="1" />
    </linearGradient>
    <linearGradient
       inkscape:collect="always"
       xlink:href="#linearGradient3688"
       id="linearGradient3412"
       gradientUnits="userSpaceOnUse"
       gradientTransform="matrix(-1,0,0,1,96,0)"
       x1="16"
       y1="88"
       x2="16"
       y2="8" />
    <linearGradient
       id="linearGradient3659">
      <stop
         id="stop3661"
         style="stop-color:#333333;stop-opacity:1"
         offset="0" />
      <stop
         id="stop3663"
         style="stop-color:#595959;stop-opacity:1"
         offset="1" />
    </linearGradient>
    <linearGradient
       inkscape:collect="always"
       xlink:href="#linearGradient3737-4"
       id="linearGradient3402"
       gradientUnits="userSpaceOnUse"
       x1="40"
       y1="8"
       x2="40"
       y2="64" />
    <linearGradient
       id="linearGradient3737-4">
      <stop
         id="stop3739-11"
         style="stop-color:#ffffff;stop-opacity:1"
         offset="0" />
      <stop
         id="stop3741-3"
         style="stop-color:#ffffff;stop-opacity:0"
         offset="1" />
    </linearGradient>
    <radialGradient
       inkscape:collect="always"
       xlink:href="#linearGradient3837"
       id="radialGradient3255"
       gradientUnits="userSpaceOnUse"
       gradientTransform="matrix(1.4117647,0,-2.3529408e-8,4.7058821,-36.235292,-214.07282)"
       cx="93.666664"
       cy="64.190475"
       fx="93.666664"
       fy="64.190475"
       r="17" />
    <linearGradient
       id="linearGradient3670">
      <stop
         id="stop3672"
         style="stop-color:#000000;stop-opacity:1"
         offset="0" />
      <stop
         id="stop3674"
         style="stop-color:#000000;stop-opacity:0"
         offset="1" />
    </linearGradient>
    <radialGradient
       inkscape:collect="always"
       xlink:href="#linearGradient3837"
       id="radialGradient3252"
       gradientUnits="userSpaceOnUse"
       gradientTransform="matrix(-0.94117647,-1.4641499e-7,-4.3924491e-7,2.823529,94.793751,-127.70625)"
       cx="7.2183251"
       cy="76.395973"
       fx="7.2183251"
       fy="76.395973"
       r="17" />
    <linearGradient
       id="linearGradient3677">
      <stop
         id="stop3679"
         style="stop-color:#000000;stop-opacity:1"
         offset="0" />
      <stop
         id="stop3681"
         style="stop-color:#000000;stop-opacity:0"
         offset="1" />
    </linearGradient>
    <radialGradient
       inkscape:collect="always"
       xlink:href="#linearGradient3837"
       id="radialGradient3249"
       gradientUnits="userSpaceOnUse"
       gradientTransform="matrix(-1.4117647,0,2.3529408e-8,4.7058821,132.23529,-214.07282)"
       cx="93.666664"
       cy="64.190475"
       fx="93.666664"
       fy="64.190475"
       r="17" />
    <linearGradient
       id="linearGradient3684">
      <stop
         id="stop3686"
         style="stop-color:#000000;stop-opacity:1"
         offset="0" />
      <stop
         id="stop3688"
         style="stop-color:#000000;stop-opacity:0"
         offset="1" />
    </linearGradient>
    <radialGradient
       inkscape:collect="always"
       xlink:href="#linearGradient3837"
       id="radialGradient3246"
       gradientUnits="userSpaceOnUse"
       gradientTransform="matrix(0.94117647,-1.4641499e-7,4.3924491e-7,2.823529,1.206249,-127.70625)"
       cx="7.2183251"
       cy="76.395973"
       fx="7.2183251"
       fy="76.395973"
       r="17" />
    <linearGradient
       id="linearGradient3691">
      <stop
         id="stop3693"
         style="stop-color:#000000;stop-opacity:1"
         offset="0" />
      <stop
         id="stop3695"
         style="stop-color:#000000;stop-opacity:0"
         offset="1" />
    </linearGradient>
    <radialGradient
       r="17"
       fy="76.395973"
       fx="7.2183251"
       cy="76.395973"
       cx="7.2183251"
       gradientTransform="matrix(0.94117647,-1.4641499e-7,4.3924491e-7,2.823529,1.206249,-127.70625)"
       gradientUnits="userSpaceOnUse"
       id="radialGradient3732"
       xlink:href="#linearGradient3837"
       inkscape:collect="always" />
    <clipPath
       clipPathUnits="userSpaceOnUse"
       id="clipPath3304">
      <rect
         x="6"
         y="6.0000038"
         width="84"
         height="84"
         style="fill:url(#linearGradient3308);fill-opacity:1"
         id="rect3306"
         rx="22.826086"
         ry="22.826086" />
    </clipPath>
    <linearGradient
       inkscape:collect="always"
       xlink:href="#linearGradient3795"
       id="linearGradient3308"
       gradientUnits="userSpaceOnUse"
       gradientTransform="matrix(1.05,0,0,1.05,-2.3999508,-1006.579)"
       x1="47.999954"
       y1="962.62189"
       x2="47.999954"
       y2="1046.1001" />
  </defs>
  <sodipodi:namedview
     id="base"
     pagecolor="#ffffff"
     bordercolor="#666666"
     borderopacity="1.0"
     inkscape:pageopacity="0.0"
     inkscape:pageshadow="2"
     inkscape:zoom="3.959798"
     inkscape:cx="33.538031"
     inkscape:cy="59.964634"
     inkscape:document-units="px"
     inkscape:current-layer="layer1"
     showgrid="false"
     inkscape:window-width="1280"
     inkscape:window-height="750"
     inkscape:window-x="0"
     inkscape:window-y="22"
     inkscape:window-maximized="1"
     showguides="true"
     inkscape:guide-bbox="true">
    <sodipodi:guide
       orientation="0,1"
       position="-24.748737,0"
       id="guide11064" />
    <sodipodi:guide
       orientation="0,1"
       position="-23.233509,96"
       id="guide11066" />
    <sodipodi:guide
       orientation="1,0"
       position="0,54.800776"
       id="guide11068" />
    <sodipodi:guide
       orientation="1,0"
       position="96,51.012704"
       id="guide11070" />
    <sodipodi:guide
       orientation="0,1"
       position="-18.94036,48"
       id="guide11072" />
    <sodipodi:guide
       orientation="1,0"
       position="48,79.296975"
       id="guide11074" />
    <sodipodi:guide
       orientation="1,0"
       position="2,75.508903"
       id="guide11076" />
    <sodipodi:guide
       orientation="0,1"
       position="-77.27667,2"
       id="guide11078" />
    <sodipodi:guide
       orientation="1,0"
       position="94,77.781746"
       id="guide11080" />
    <sodipodi:guide
       orientation="0,1"
       position="-65.912454,94"
       id="guide11082" />
  </sodipodi:namedview>
  <metadata
     id="metadata11042">
    <rdf:RDF>
      <cc:Work
         rdf:about="">
        <dc:format>image/svg+xml</dc:format>
        <dc:type
           rdf:resource="http://purl.org/dc/dcmitype/StillImage" />
        <dc:title></dc:title>
      </cc:Work>
    </rdf:RDF>
  </metadata>
  <g
     inkscape:label="Layer 1"
     inkscape:groupmode="layer"
     id="layer1"
     transform="translate(0,-956.36218)">
    <g
       transform="matrix(1.0952381,0,0,1.0952381,-4.5714286,951.79075)"
       style="display:inline"
       id="g3481"
       clip-path="url(#clipPath3304)">
      <path
         d="m 21,6 c -2.761424,0 -5,2.2385763 -5,5 l 0,7 0,14 c 0,14.107143 10,24 10,44 l 0,14 44,0 0,-14 C 70,56 80,46.107143 80,32 l 0,-14 0,-7 C 80,8.2385763 77.761424,6 75,6 L 74,6 69,6 29,6 22,6 21,6 z m 63,0 c 0.20775,0 0.42281,0.010839 0.625,0.03125 0.478847,0.048339 0.937091,0.1590508 1.375,0.3125 L 86,6 84,6 z"
         inkscape:connector-curvature="0"
         id="rect2419"
         style="fill:url(#linearGradient3479);fill-opacity:1;fill-rule:nonzero;stroke:none" />
      <path
         d="m 45.60625,6 0,46.9375 0,0.03125 c 7.9e-5,0.01112 0,0.03722 0,0.03125 0,1.136812 0.956938,2.09375 2.09375,2.09375 1.136812,0 2.09375,-0.956938 2.09375,-2.09375 0,0.006 -7.9e-5,-0.02013 0,-0.03125 7.9e-5,-0.01112 8.63e-4,-0.0041 0,-0.03125 l 0,-46.9375 -4.1875,0 z"
         inkscape:connector-curvature="0"
         id="path4051"
         style="font-size:medium;font-style:normal;font-variant:normal;font-weight:normal;font-stretch:normal;text-indent:0;text-align:start;text-decoration:none;line-height:normal;letter-spacing:normal;word-spacing:normal;text-transform:none;direction:ltr;block-progression:tb;writing-mode:lr-tb;text-anchor:start;opacity:0.6;color:#000000;fill:#ffffff;fill-opacity:1;stroke:none;stroke-width:2;marker:none;visibility:visible;display:inline;overflow:visible;enable-background:accumulate;font-family:Abandoned Bitplane;-inkscape-font-specification:Abandoned Bitplane" />
      <rect
         width="74"
         height="5"
         rx="8"
         ry="2.5"
         x="11"
         y="11"
         transform="matrix(1,0,0,2.2519731,0,-7.8373518)"
         id="rect3897"
         style="opacity:0.2;fill:#ffffff;fill-opacity:1;stroke:none;filter:url(#filter3903)" />
      <path
         d="M 48,9.96875 C 42.470142,9.96875 37.96875,14.470142 37.96875,20 l 0,16 c 0,5.529858 4.501392,10.03125 10.03125,10.03125 5.529858,0 10.03125,-4.501392 10.03125,-10.03125 l 0,-16 C 58.03125,14.470142 53.529858,9.96875 48,9.96875 z"
         id="path3879"
         style="opacity:0.9;fill:url(#linearGradient3474);fill-opacity:1;stroke:none"
         inkscape:connector-curvature="0" />
      <path
         d="m 46.7,6 0,46.96875 c -3.42e-4,0.01075 0,0.02042 0,0.03125 0,0.552285 0.447715,1 1,1 0.552285,0 1,-0.447715 1,-1 0,-0.01083 3.42e-4,-0.0205 0,-0.03125 L 48.7,6 l -2,0 z"
         inkscape:connector-curvature="0"
         id="path3711"
         style="font-size:medium;font-style:normal;font-variant:normal;font-weight:normal;font-stretch:normal;text-indent:0;text-align:start;text-decoration:none;line-height:normal;letter-spacing:normal;word-spacing:normal;text-transform:none;direction:ltr;block-progression:tb;writing-mode:lr-tb;text-anchor:start;opacity:0.9;color:#000000;fill:#000000;fill-opacity:1;stroke:none;stroke-width:2;marker:none;visibility:visible;display:inline;overflow:visible;enable-background:accumulate;font-family:Abandoned Bitplane;-inkscape-font-specification:Abandoned Bitplane" />
      <rect
         width="16"
         height="32"
         rx="8"
         ry="8"
         x="40"
         y="12"
         id="rect3713"
         style="opacity:0.9;fill:#000000;fill-opacity:1;stroke:none" />
      <path
         d="m 48,13.84375 c -3.439318,0 -6.15625,2.716932 -6.15625,6.15625 l 0,16 c 0,3.439318 2.716932,6.15625 6.15625,6.15625 3.439318,0 6.15625,-2.716932 6.15625,-6.15625 l 0,-16 c 0,-3.439318 -2.716932,-6.15625 -6.15625,-6.15625 z"
         id="path3719"
         style="opacity:0.98999999;fill:url(#linearGradient3469);fill-opacity:1;stroke:none"
         inkscape:connector-curvature="0" />
      <path
         d="m 48,13.84375 c -3.439318,0 -6.15625,2.716932 -6.15625,6.15625 l 0,16 c 0,3.439318 2.716932,6.15625 6.15625,6.15625 3.439318,0 6.15625,-2.716932 6.15625,-6.15625 l 0,-16 c 0,-3.439318 -2.716932,-6.15625 -6.15625,-6.15625 z"
         id="path3733"
         style="opacity:0.5;fill:url(#linearGradient3466);fill-opacity:1;stroke:none"
         inkscape:connector-curvature="0" />
      <rect
         width="10"
         height="1"
         x="43"
         y="38"
         id="rect3789"
         style="opacity:0.4;fill:url(#radialGradient3463);fill-opacity:1;stroke:none" />
      <rect
         width="10"
         height="1"
         x="43"
         y="35"
         id="rect3805"
         style="opacity:0.4;fill:url(#radialGradient3460);fill-opacity:1;stroke:none" />
      <rect
         width="10"
         height="1"
         x="43"
         y="32"
         id="rect3809"
         style="opacity:0.4;fill:url(#radialGradient3457);fill-opacity:1;stroke:none" />
      <rect
         width="10"
         height="1"
         x="43"
         y="29"
         id="rect3813"
         style="opacity:0.4;fill:url(#radialGradient3454);fill-opacity:1;stroke:none" />
      <rect
         width="10"
         height="1"
         x="43"
         y="26"
         id="rect3817"
         style="opacity:0.4;fill:url(#radialGradient3451);fill-opacity:1;stroke:none" />
      <rect
         width="10"
         height="1"
         x="43"
         y="23"
         id="rect3821"
         style="opacity:0.4;fill:url(#radialGradient3448);fill-opacity:1;stroke:none" />
      <rect
         width="10"
         height="1"
         x="43"
         y="20"
         id="rect3825"
         style="opacity:0.4;fill:url(#radialGradient3445);fill-opacity:1;stroke:none" />
      <rect
         width="10"
         height="1"
         x="43"
         y="17"
         id="rect3829"
         style="opacity:0.4;fill:url(#radialGradient3442);fill-opacity:1;stroke:none" />
      <rect
         width="10"
         height="1"
         x="43"
         y="37"
         id="rect3833"
         style="opacity:0.6;fill:url(#radialGradient3439);fill-opacity:1;stroke:none" />
      <rect
         width="10"
         height="1"
         x="43"
         y="34"
         id="rect3845"
         style="opacity:0.6;fill:url(#radialGradient3436);fill-opacity:1;stroke:none" />
      <rect
         width="10"
         height="1"
         x="43"
         y="31"
         id="rect3849"
         style="opacity:0.6;fill:url(#radialGradient3433);fill-opacity:1;stroke:none" />
      <rect
         width="10"
         height="1"
         x="43"
         y="28"
         id="rect3853"
         style="opacity:0.4;fill:url(#radialGradient3430);fill-opacity:1;stroke:none" />
      <rect
         width="10"
         height="1"
         x="43"
         y="25"
         id="rect3857"
         style="opacity:0.6;fill:url(#radialGradient3427);fill-opacity:1;stroke:none" />
      <rect
         width="10"
         height="1"
         x="43"
         y="22"
         id="rect3861"
         style="opacity:0.6;fill:url(#radialGradient3424);fill-opacity:1;stroke:none" />
      <rect
         width="10"
         height="1"
         x="43"
         y="19"
         id="rect3865"
         style="opacity:0.6;fill:url(#radialGradient3421);fill-opacity:1;stroke:none" />
      <rect
         width="10"
         height="1"
         x="43"
         y="16"
         id="rect3869"
         style="opacity:0.6;fill:url(#radialGradient3418);fill-opacity:1;stroke:none" />
      <path
         d="M 12,6 C 8.676,6 6,8.676 6,12 l 0,4 0,16 c 0,15.179622 5,20.148843 5,40 l 0,12 c 0,3.313708 2.68629,6 6,6 l 9,0 0,-14 C 26,56 16,46.107143 16,32 l 0,-21 c 0,-2.7614237 2.238576,-5 5,-5 l -5,0 -4,0 z"
         inkscape:connector-curvature="0"
         id="path3942"
         style="fill:url(#linearGradient3415);fill-opacity:1;stroke:none" />
      <path
         d="m 75,6 c 2.761424,0 5,2.2385763 5,5 l 0,21 C 80,46.107143 70,56 70,76 l 0,14 9,0 c 3.31371,0 6,-2.686292 6,-6 l 0,-12 c 0,-19.851157 5,-24.820378 5,-40 l 0,-16 0,-4 C 90,8.88375 87.65789,6.337417 84.625,6.03125 84.42281,6.0108389 84.20775,6 84,6 l -9,0 z"
         inkscape:connector-curvature="0"
         id="path3984"
         style="fill:url(#linearGradient3412);fill-opacity:1;stroke:none" />
      <path
         d="m 21,6 c -2.761424,0 -5,2.2385763 -5,5 l 0,21 c 0,14.107143 10,24 10,44 l 0,14 1,0 0,-14 C 27,56 17,46.107143 17,32 l 0,-21 c 0,-2.7614237 2.238576,-5 5,-5 l -1,0 z"
         inkscape:connector-curvature="0"
         id="path3988"
         style="opacity:0.6;fill:#ffffff;fill-opacity:1;stroke:none" />
      <path
         d="m 75,6 c 2.761424,0 5,2.2385763 5,5 l 0,21 C 80,46.107143 70,56 70,76 l 0,14 -1,0 0,-14 C 69,56 79,46.107143 79,32 L 79,11 C 79,8.2385763 76.761424,6 74,6 l 1,0 z"
         inkscape:connector-curvature="0"
         id="path3998"
         style="opacity:0.6;fill:#ffffff;fill-opacity:1;stroke:none" />
      <path
         d="M 50.96875,57.4375 C 49.625813,57.34733 49.211712,58.94091 49.4375,60 c 0.330073,0.715084 1.176062,0.536417 1.5625,0 0.787257,-0.598257 1.405431,-2.394289 -0.03125,-2.5625 z M 55,59 c -1.050666,0.06588 -2.112803,1.05125 -1.9375,2.125 C 54.183016,62.250017 57.168734,60.881428 56,59.28125 55.705321,59.068838 55.350222,58.978039 55,59 z m -7,1 c -3.313708,0 -6,2.686292 -6,6 0,3.313708 2.686292,6 6,6 3.313708,0 6,-2.686292 6,-6 0,-0.165789 -0.01806,-0.33761 -0.03125,-0.5 C 53.7127,68.02128 51.588835,70 49,70 46.238576,70 44,67.761424 44,65 44,62.411165 45.97872,60.2873 48.5,60.03125 48.33761,60.01806 48.165789,60 48,60 z m 1,2 c -1.656854,0 -3,1.343146 -3,3 0,1.656854 1.343146,3 3,3 1.656854,0 3,-1.343146 3,-3 0,-1.656854 -1.343146,-3 -3,-3 z m 7.46875,1.21875 C 55.336106,63.204619 53.889193,64.041321 55.375,65.25 55.877079,65.624339 56.587584,65.410309 57,65 c 1.03937,-1.254621 0.349695,-1.770259 -0.53125,-1.78125 z"
         inkscape:connector-curvature="0"
         id="path4142"
         style="opacity:0.2;fill:#000000;fill-opacity:1;stroke:none" />
      <path
         d="M 12,6 C 8.676,6 6,8.676 6,12 l 0,4 0,16 c 0,15.179622 5,20.148843 5,40 l 0,12 c 0,3.313708 2.68629,6 6,6 l 9,0 0,-0.03125 -9,0 c -2.762872,0 -4.96875,-2.205878 -4.96875,-4.96875 l 0,-12 C 12.03125,62.988848 10.753247,56.667003 9.5,51.03125 8.2467532,45.395497 7.03125,40.477903 7.03125,33 l 0,-16 0,-4 C 7.03125,10.223027 9.2230266,8.03125 12,8.03125 l 5,0 C 17.911811,6.8120153 19.360404,6 21,6 l -5,0 -4,0 z m 63,0 c 1.639595,0 3.088189,0.8120153 4,2.03125 l 5,0 c 2.776973,0 4.96875,2.191777 4.96875,4.96875 l 0,4 0,16 c 0,7.477903 -1.215503,12.395497 -2.46875,18.03125 C 85.246753,56.667003 83.96875,62.988848 83.96875,73 l 0,12 c 0,2.762872 -2.205878,4.96875 -4.96875,4.96875 l -9,0 0,0.03125 9,0 c 0.62132,0 1.217617,-0.105942 1.78125,-0.28125 C 83.223662,88.959081 85,86.692388 85,84 l 0,-12 c 0,-19.851157 5,-24.820378 5,-40 l 0,-16 0,-4 c 0,-0.216142 -0.0093,-0.414898 -0.03125,-0.625 -0.0171,-0.169404 -0.03171,-0.335136 -0.0625,-0.5 C 89.90035,10.84385 89.88139,10.81222 89.875,10.78125 89.8419,10.61868 89.79588,10.469923 89.75,10.3125 89.7409,10.2808 89.7284,10.25023 89.71875,10.21875 89.67408,10.074535 89.64874,9.9205201 89.59375,9.78125 89.57668,9.737664 89.5493,9.699324 89.53125,9.65625 89.478923,9.5321223 89.43526,9.4009029 89.375,9.28125 89.347863,9.227147 89.309957,9.17814 89.28125,9.125 89.221705,9.0151154 89.159823,8.9180702 89.09375,8.8125 89.05808,8.755084 89.00628,8.7123346 88.96875,8.65625 88.94791,8.625354 88.92765,8.59298 88.90625,8.5625 88.815924,8.432919 88.725043,8.3092525 88.625,8.1875 88.563958,8.1134741 88.501973,8.0397155 88.4375,7.96875 88.265214,7.7786495 88.070296,7.6040018 87.875,7.4375 87.852639,7.4185034 87.835143,7.3936715 87.8125,7.375 87.664448,7.252917 87.503301,7.1388633 87.34375,7.03125 87.292203,6.9964826 87.240179,6.9706887 87.1875,6.9375 87.078428,6.8688595 86.988724,6.7803852 86.875,6.71875 86.834533,6.6968212 86.791028,6.6772687 86.75,6.65625 86.617608,6.5885318 86.481713,6.5266769 86.34375,6.46875 86.31382,6.4561328 86.280178,6.4496442 86.25,6.4375 86.101154,6.3778961 85.935835,6.329002 85.78125,6.28125 85.75915,6.27441 85.74096,6.256596 85.71875,6.25 85.551474,6.20042 85.391936,6.160087 85.21875,6.125 85.2087,6.12295 85.19756,6.127 85.1875,6.125 85.003744,6.088771 84.814555,6.0503854 84.625,6.03125 84.422808,6.0108389 84.20775,6 84,6 l -9,0 z"
         inkscape:connector-curvature="0"
         id="path3670"
         style="opacity:0.25;fill:url(#linearGradient3402);fill-opacity:1;fill-rule:nonzero;stroke:none" />
      <path
         d="m 56,6 0,84 23,0 c 3.313708,0 6,-2.686292 6,-6 l 0,-12 c 0,-19.851157 5,-24.820378 5,-40 l 0,-16 0,-4 C 90,8.676 87.324,6 84,6 L 56,6 z"
         inkscape:connector-curvature="0"
         id="rect3973"
         style="opacity:0.5;fill:url(#radialGradient3255);fill-opacity:1;stroke:none" />
      <path
         d="m 90,32 c 0,15.179622 -5,20.148843 -5,40 l 0,12 c 0,3.313708 -2.686292,6 -6,6 l -23,0 0,-58 34,0 z"
         inkscape:connector-curvature="0"
         id="path3986"
         style="opacity:0.9;fill:url(#radialGradient3252);fill-opacity:1;stroke:none" />
      <path
         d="m 40,6 0,84 -23,0 c -3.313708,0 -6,-2.686292 -6,-6 L 11,72 C 11,52.148843 6,47.179622 6,32 L 6,16 6,12 C 6,8.676 8.676,6 12,6 l 28,0 z"
         inkscape:connector-curvature="0"
         id="path3990"
         style="opacity:0.5;fill:url(#radialGradient3249);fill-opacity:1;stroke:none" />
      <path
         d="m 6,32 c 0,15.179622 5,20.148843 5,40 l 0,12 c 0,3.313708 2.686292,6 6,6 l 23,0 0,-58 -34,0 z"
         inkscape:connector-curvature="0"
         id="path3992"
         style="opacity:0.9;fill:url(#radialGradient3732);fill-opacity:1;stroke:none" />
    </g>
    <rect
       ry="25"
       rx="25"
       id="rect3003"
       style="opacity:0.15;fill:#ffffff;fill-opacity:1"
       height="92"
       width="92"
       y="958.36218"
       x="-96"
       clip-path="url(#clipPath3009)"
       transform="translate(98,0)" />
  </g>
</svg>
