<?xml version="1.0" encoding="UTF-8" standalone="no"?>
<!-- Created with Inkscape (http://www.inkscape.org/) -->

<svg
   xmlns:dc="http://purl.org/dc/elements/1.1/"
   xmlns:cc="http://creativecommons.org/ns#"
   xmlns:rdf="http://www.w3.org/1999/02/22-rdf-syntax-ns#"
   xmlns:svg="http://www.w3.org/2000/svg"
   xmlns="http://www.w3.org/2000/svg"
   xmlns:xlink="http://www.w3.org/1999/xlink"
   xmlns:sodipodi="http://sodipodi.sourceforge.net/DTD/sodipodi-0.dtd"
   xmlns:inkscape="http://www.inkscape.org/namespaces/inkscape"
   width="96"
   height="96"
   id="svg11037"
   version="1.1"
   inkscape:version="0.48.3.1 r9886"
   sodipodi:docname="templat.svg">
  <defs
     id="defs11039">
    <linearGradient
       y2="1046.1001"
       x2="47.999954"
       y1="962.62189"
       x1="47.999954"
       gradientTransform="matrix(1.15,0,0,1.15,-7.1999462,-150.65291)"
       gradientUnits="userSpaceOnUse"
       id="linearGradient3886"
       xlink:href="#linearGradient3795"
       inkscape:collect="always" />
    <linearGradient
       id="linearGradient3795">
      <stop
         style="stop-color:#13a6fd;stop-opacity:1;"
         offset="0"
         id="stop3797" />
      <stop
         style="stop-color:#2975b6;stop-opacity:1;"
         offset="1"
         id="stop3799" />
    </linearGradient>
    <linearGradient
       y2="1046.1001"
       x2="47.999954"
       y1="962.62189"
       x1="47.999954"
       gradientTransform="matrix(1.15,0,0,1.15,-7.1999462,-150.65292)"
       gradientUnits="userSpaceOnUse"
       id="linearGradient11642"
       xlink:href="#linearGradient3795"
       inkscape:collect="always" />
    <clipPath
       clipPathUnits="userSpaceOnUse"
       id="clipPath3009">
      <path
         id="path3011"
         d="m -2,956.36218 -96,0 0,33.5624 96,25.68742 0,-59.24982 z"
         style="opacity:0.15;fill:#ffffff;fill-opacity:1;stroke:none"
         inkscape:connector-curvature="0" />
    </clipPath>
    <linearGradient
       inkscape:collect="always"
       xlink:href="#linearGradient3700"
       id="linearGradient3257"
       gradientUnits="userSpaceOnUse"
       x1="48"
       y1="90"
       x2="48"
       y2="5.9877172" />
    <linearGradient
       id="linearGradient3700">
      <stop
         id="stop3702"
         style="stop-color:#bebebe;stop-opacity:1"
         offset="0" />
      <stop
         id="stop3704"
         style="stop-color:#e6e6e6;stop-opacity:1"
         offset="1" />
    </linearGradient>
    <radialGradient
       inkscape:collect="always"
       xlink:href="#linearGradient3737"
       id="radialGradient3254"
       gradientUnits="userSpaceOnUse"
       gradientTransform="matrix(1.1428571,0,0,0.9985119,-6.8571429,0.07152158)"
       cx="48"
       cy="90.0625"
       fx="48"
       fy="90.0625"
       r="42" />
    <linearGradient
       id="linearGradient3737">
      <stop
         id="stop3739"
         style="stop-color:#ffffff;stop-opacity:1"
         offset="0" />
      <stop
         id="stop3741"
         style="stop-color:#ffffff;stop-opacity:0"
         offset="1" />
    </linearGradient>
    <linearGradient
       inkscape:collect="always"
       xlink:href="#linearGradient3939"
       id="linearGradient3251"
       gradientUnits="userSpaceOnUse"
       x1="48"
       y1="88"
       x2="48"
       y2="-96" />
    <linearGradient
       id="linearGradient3939">
      <stop
         id="stop3941"
         style="stop-color:#6f6f91;stop-opacity:1"
         offset="0" />
      <stop
         id="stop3943"
         style="stop-color:#6f6f91;stop-opacity:0"
         offset="1" />
    </linearGradient>
    <linearGradient
       inkscape:collect="always"
       xlink:href="#linearGradient3987"
       id="linearGradient3248"
       gradientUnits="userSpaceOnUse"
       spreadMethod="reflect"
       x1="12"
       y1="48"
       x2="12"
       y2="90" />
    <linearGradient
       id="linearGradient3987">
      <stop
         id="stop3989"
         style="stop-color:#000000;stop-opacity:1"
         offset="0" />
      <stop
         id="stop3991"
         style="stop-color:#000000;stop-opacity:0"
         offset="1" />
    </linearGradient>
    <linearGradient
       inkscape:collect="always"
       xlink:href="#linearGradient3987"
       id="linearGradient3245"
       gradientUnits="userSpaceOnUse"
       gradientTransform="translate(71,0)"
       spreadMethod="reflect"
       x1="12"
       y1="48"
       x2="12"
       y2="90" />
    <linearGradient
       id="linearGradient3315">
      <stop
         id="stop3317"
         style="stop-color:#000000;stop-opacity:1"
         offset="0" />
      <stop
         id="stop3319"
         style="stop-color:#000000;stop-opacity:0"
         offset="1" />
    </linearGradient>
    <linearGradient
       inkscape:collect="always"
       xlink:href="#linearGradient3737"
       id="linearGradient3220"
       gradientUnits="userSpaceOnUse"
       x1="48"
       y1="20.220806"
       x2="48"
       y2="138.66119" />
    <linearGradient
       id="linearGradient3322">
      <stop
         id="stop3324"
         style="stop-color:#ffffff;stop-opacity:1"
         offset="0" />
      <stop
         id="stop3326"
         style="stop-color:#ffffff;stop-opacity:0"
         offset="1" />
    </linearGradient>
    <clipPath
       id="clipPath3613">
      <rect
         width="84"
         height="84"
         rx="6"
         ry="6"
         x="6"
         y="6"
         id="rect3615"
         style="fill:#ffffff;fill-opacity:1;fill-rule:nonzero;stroke:none" />
    </clipPath>
    <filter
       x="-0.192"
       y="-0.192"
       width="1.3839999"
       height="1.3839999"
       color-interpolation-filters="sRGB"
       id="filter3794">
      <feGaussianBlur
         id="feGaussianBlur3796"
         stdDeviation="5.28" />
    </filter>
    <linearGradient
       inkscape:collect="always"
       xlink:href="#linearGradient4101"
       id="linearGradient3259"
       gradientUnits="userSpaceOnUse"
       gradientTransform="matrix(0.99144486,0.13052619,-0.13052619,0.99144486,8.6781261,-4.6936427)"
       x1="40"
       y1="64"
       x2="72.331612"
       y2="8" />
    <linearGradient
       id="linearGradient4101">
      <stop
         id="stop4103"
         style="stop-color:#000000;stop-opacity:1"
         offset="0" />
      <stop
         id="stop4105"
         style="stop-color:#000000;stop-opacity:0"
         offset="1" />
    </linearGradient>
    <filter
       color-interpolation-filters="sRGB"
       id="filter4117">
      <feGaussianBlur
         id="feGaussianBlur4119"
         stdDeviation="0.24925597" />
    </filter>
    <linearGradient
       inkscape:collect="always"
       xlink:href="#linearGradient4101"
       id="linearGradient3261"
       gradientUnits="userSpaceOnUse"
       gradientTransform="matrix(0.79335334,0.60876143,-0.60876143,0.79335334,47.167905,-11.24319)"
       x1="40"
       y1="64"
       x2="66.009178"
       y2="18.950783" />
    <linearGradient
       id="linearGradient3339">
      <stop
         id="stop3341"
         style="stop-color:#000000;stop-opacity:1"
         offset="0" />
      <stop
         id="stop3343"
         style="stop-color:#000000;stop-opacity:0"
         offset="1" />
    </linearGradient>
    <filter
       color-interpolation-filters="sRGB"
       id="filter4121">
      <feGaussianBlur
         id="feGaussianBlur4123"
         stdDeviation="0.46576014" />
    </filter>
    <linearGradient
       inkscape:collect="always"
       xlink:href="#linearGradient4038"
       id="linearGradient3263"
       gradientUnits="userSpaceOnUse"
       x1="33"
       y1="15.5"
       x2="35"
       y2="15.5" />
    <linearGradient
       id="linearGradient4038">
      <stop
         id="stop4040"
         style="stop-color:#60607c;stop-opacity:1"
         offset="0" />
      <stop
         id="stop4048"
         style="stop-color:#9d9db2;stop-opacity:1"
         offset="0.40000001" />
      <stop
         id="stop4046"
         style="stop-color:#60607c;stop-opacity:1"
         offset="0.60000002" />
      <stop
         id="stop4042"
         style="stop-color:#3d3d4f;stop-opacity:1"
         offset="1" />
    </linearGradient>
    <linearGradient
       inkscape:collect="always"
       xlink:href="#linearGradient4025"
       id="linearGradient3265"
       gradientUnits="userSpaceOnUse"
       x1="31.999853"
       y1="41.5"
       x2="36.000145"
       y2="41.5" />
    <linearGradient
       id="linearGradient4025">
      <stop
         id="stop4027"
         style="stop-color:#d4d4d4;stop-opacity:1"
         offset="0" />
      <stop
         id="stop4035"
         style="stop-color:#ffffff;stop-opacity:1"
         offset="0.40000001" />
      <stop
         id="stop4033"
         style="stop-color:#e0e0e0;stop-opacity:1"
         offset="0.60000002" />
      <stop
         id="stop4029"
         style="stop-color:#868686;stop-opacity:1"
         offset="1" />
    </linearGradient>
    <linearGradient
       inkscape:collect="always"
       xlink:href="#linearGradient4038"
       id="linearGradient3267"
       gradientUnits="userSpaceOnUse"
       x1="31.5"
       y1="52.5"
       x2="36.5"
       y2="52.5" />
    <linearGradient
       id="linearGradient3360">
      <stop
         id="stop3362"
         style="stop-color:#60607c;stop-opacity:1"
         offset="0" />
      <stop
         id="stop3364"
         style="stop-color:#9d9db2;stop-opacity:1"
         offset="0.40000001" />
      <stop
         id="stop3366"
         style="stop-color:#60607c;stop-opacity:1"
         offset="0.60000002" />
      <stop
         id="stop3368"
         style="stop-color:#3d3d4f;stop-opacity:1"
         offset="1" />
    </linearGradient>
    <clipPath
       clipPathUnits="userSpaceOnUse"
       id="clipPath3315">
      <rect
         x="6"
         y="6.0000038"
         width="84"
         height="84"
         style="fill:url(#linearGradient3319);fill-opacity:1"
         id="rect3317"
         rx="22.826086"
         ry="22.826086" />
    </clipPath>
    <linearGradient
       inkscape:collect="always"
       xlink:href="#linearGradient3795"
       id="linearGradient3319"
       gradientUnits="userSpaceOnUse"
       gradientTransform="matrix(1.05,0,0,1.05,-2.3999508,-1006.579)"
       x1="47.999954"
       y1="962.62189"
       x2="47.999954"
       y2="1046.1001" />
  </defs>
  <sodipodi:namedview
     id="base"
     pagecolor="#ffffff"
     bordercolor="#666666"
     borderopacity="1.0"
     inkscape:pageopacity="0.0"
     inkscape:pageshadow="2"
     inkscape:zoom="3.959798"
     inkscape:cx="33.538031"
     inkscape:cy="59.964634"
     inkscape:document-units="px"
     inkscape:current-layer="layer1"
     showgrid="false"
     inkscape:window-width="1280"
     inkscape:window-height="750"
     inkscape:window-x="0"
     inkscape:window-y="22"
     inkscape:window-maximized="1"
     showguides="true"
     inkscape:guide-bbox="true">
    <sodipodi:guide
       orientation="0,1"
       position="-24.748737,0"
       id="guide11064" />
    <sodipodi:guide
       orientation="0,1"
       position="-23.233509,96"
       id="guide11066" />
    <sodipodi:guide
       orientation="1,0"
       position="0,54.800776"
       id="guide11068" />
    <sodipodi:guide
       orientation="1,0"
       position="96,51.012704"
       id="guide11070" />
    <sodipodi:guide
       orientation="0,1"
       position="-18.94036,48"
       id="guide11072" />
    <sodipodi:guide
       orientation="1,0"
       position="48,79.296975"
       id="guide11074" />
    <sodipodi:guide
       orientation="1,0"
       position="2,75.508903"
       id="guide11076" />
    <sodipodi:guide
       orientation="0,1"
       position="-77.27667,2"
       id="guide11078" />
    <sodipodi:guide
       orientation="1,0"
       position="94,77.781746"
       id="guide11080" />
    <sodipodi:guide
       orientation="0,1"
       position="-65.912454,94"
       id="guide11082" />
  </sodipodi:namedview>
  <metadata
     id="metadata11042">
    <rdf:RDF>
      <cc:Work
         rdf:about="">
        <dc:format>image/svg+xml</dc:format>
        <dc:type
           rdf:resource="http://purl.org/dc/dcmitype/StillImage" />
        <dc:title></dc:title>
      </cc:Work>
    </rdf:RDF>
  </metadata>
  <g
     inkscape:label="Layer 1"
     inkscape:groupmode="layer"
     id="layer1"
     transform="translate(0,-956.36218)">
    <g
       transform="matrix(1.0952381,0,0,1.0952381,-4.5714286,951.79075)"
       id="g3269"
       clip-path="url(#clipPath3315)">
      <path
         style="fill:url(#linearGradient3257);fill-opacity:1;fill-rule:nonzero;stroke:none"
         id="rect2419"
         inkscape:connector-curvature="0"
         d="M 12,6 C 8.676,6 6,8.676 6,12 l 0,2 c 0,2 2,3 2,5 l 0,58 c 0,2 -2,3 -2,5 l 0,2 c 0,3.324 2.676,6 6,6 l 72,0 c 3.324,0 6,-2.676 6,-6 l 0,-2 c 0,-2 -2,-3 -2,-5 l 0,-58 c 0,-2 2,-3 2,-5 l 0,-2 C 90,8.676 87.324,6 84,6 L 12,6 z" />
      <path
         style="opacity:0.2;fill:url(#radialGradient3254);fill-opacity:1;fill-rule:nonzero;stroke:none"
         id="path3838"
         inkscape:connector-curvature="0"
         d="M 12,90 C 8.676,90 6,87.324 6,84 L 6,82 C 6,80 8,79 8,77 L 8,19 C 8,17 6,16 6,14 L 6,12 C 6,9.0915 8.0422266,6.682648 10.78125,6.125 8.573881,6.660087 6.96875,8.611026 6.96875,11 l 0,2 c 0,0.681113 0.3125,1.21875 0.8125,1.96875 0.5,0.75 1.1875,1.712363 1.1875,3.03125 l 0,58 c 0,1.318887 -0.6875,2.28125 -1.1875,3.03125 -0.5,0.75 -0.8125,1.287637 -0.8125,1.96875 l 0,2 c 0,2.810558 2.2206918,5.03125 5.03125,5.03125 l 72,0 c 2.810558,0 5.03125,-2.220692 5.03125,-5.03125 l 0,-2 c 0,-0.681113 -0.3125,-1.21875 -0.8125,-1.96875 -0.5,-0.75 -1.1875,-1.712363 -1.1875,-3.03125 l 0,-58 c 0,-1.318887 0.6875,-2.28125 1.1875,-3.03125 0.5,-0.75 0.8125,-1.287637 0.8125,-1.96875 l 0,-2 c 0,-2.388974 -1.605131,-4.339913 -3.8125,-4.875 C 87.957773,6.682648 90,9.0915 90,12 l 0,2 c 0,2 -2,3 -2,5 l 0,58 c 0,2 2,3 2,5 l 0,2 c 0,3.324 -2.676,6 -6,6 l -72,0 z" />
      <rect
         style="color:#000000;fill:url(#linearGradient3251);fill-opacity:1;fill-rule:nonzero;stroke:none;stroke-width:1.5;marker:none;visibility:visible;display:inline;overflow:visible;enable-background:accumulate"
         id="rect3937"
         y="6"
         x="12"
         height="84"
         width="72" />
      <rect
         style="opacity:0.2;color:#000000;fill:url(#linearGradient3248);fill-opacity:1;fill-rule:nonzero;stroke:none;stroke-width:1.5;marker:none;visibility:visible;display:inline;overflow:visible;enable-background:accumulate"
         id="rect3983"
         y="6"
         x="12"
         height="84"
         width="1" />
      <rect
         style="opacity:0.2;color:#000000;fill:url(#linearGradient3245);fill-opacity:1;fill-rule:nonzero;stroke:none;stroke-width:1.5;marker:none;visibility:visible;display:inline;overflow:visible;enable-background:accumulate"
         id="rect3995"
         y="6"
         x="83"
         height="84"
         width="1" />
      <path
         style="opacity:0.3;color:#000000;fill:#ffffff;fill-opacity:1;fill-rule:nonzero;stroke:none;stroke-width:1.5;marker:none;visibility:visible;display:inline;overflow:visible;enable-background:accumulate"
         id="rect3999"
         inkscape:connector-curvature="0"
         d="m 20,24 0,48 56,0 0,-48 -56,0 z m 1,1 54,0 0,46 -54,0 0,-46 z" />
      <rect
         style="opacity:0.1;color:#000000;fill:#54547e;fill-opacity:1;fill-rule:nonzero;stroke:none;stroke-width:1.5;marker:none;visibility:visible;display:inline;overflow:visible;enable-background:accumulate"
         id="rect4004"
         y="25"
         x="21"
         height="46"
         width="54" />
      <path
         style="opacity:0.4;color:#000000;fill:#ffffff;fill-opacity:1;fill-rule:nonzero;stroke:none;stroke-width:1.5;marker:none;visibility:visible;display:inline;overflow:visible;enable-background:accumulate"
         id="rect4006"
         inkscape:connector-curvature="0"
         d="m 40,76 0,4 16,0 0,-4 -16,0 z m 5.40625,0.90625 0.21875,0 L 46.78125,79 46.21875,79 46,78.59375 l -0.96875,0 -0.1875,0.40625 -0.5625,0 1.125,-2.09375 z m 2.84375,0 c 0.326641,2e-6 0.585522,0.02755 0.78125,0.125 l -0.21875,0.3125 c -0.112771,-0.08231 -0.281085,-0.124998 -0.53125,-0.125 -0.237206,2e-6 -0.442096,0.07305 -0.59375,0.21875 -0.151656,0.144754 -0.218751,0.340169 -0.21875,0.5625 -10e-7,0.222333 0.07876,0.40069 0.21875,0.53125 0.141285,0.130561 0.327886,0.1875 0.5625,0.1875 0.268312,0 0.473343,-0.07873 0.625,-0.21875 l 0.21875,0.3125 c -0.206098,0.15989 -0.508318,0.21875 -0.90625,0.21875 -0.397935,0 -0.685897,-0.09014 -0.90625,-0.28125 -0.220354,-0.191111 -0.34375,-0.451063 -0.34375,-0.78125 0,-0.307479 0.131314,-0.54375 0.375,-0.75 0.244981,-0.207193 0.556416,-0.312498 0.9375,-0.3125 z m 2.34375,0 c 0.409598,2e-6 0.721032,0.09582 0.9375,0.28125 0.216463,0.185436 0.343747,0.446334 0.34375,0.78125 -3e-6,0.334918 -0.116917,0.584463 -0.34375,0.78125 -0.225541,0.196788 -0.552671,0.28125 -0.96875,0.28125 -0.38238,0 -0.670201,-0.08635 -0.875,-0.28125 -0.203504,-0.194895 -0.3125,-0.442548 -0.3125,-0.78125 0,-0.296126 0.122099,-0.545642 0.34375,-0.75 0.222946,-0.2053 0.502989,-0.312498 0.875,-0.3125 z m -9.625,0.03125 0.53125,0 0.53125,1.25 0.5625,-1.25 0.21875,0 0.59375,1.25 0.53125,-1.25 0.53125,0 -0.9375,2.09375 -0.1875,0 -0.625,-1.3125 -0.59375,1.3125 -0.21875,0 -0.9375,-2.09375 z m 11.65625,0 0.28125,0 0.59375,1.40625 0.625,-1.40625 0.25,0 0.59375,2.0625 -0.5,0 -0.28125,-1.09375 -0.59375,1.125 -0.15625,0 -0.59375,-1.125 L 52.53125,79 52.0625,79 52.625,76.9375 z m -2.03125,0.28125 c -0.22554,2e-6 -0.379454,0.05505 -0.5,0.1875 -0.120547,0.131509 -0.187501,0.339223 -0.1875,0.5625 -10e-7,0.243147 0.04348,0.429101 0.15625,0.5625 0.112769,0.1334 0.28483,0.1875 0.5,0.1875 0.252758,0 0.430286,-0.05694 0.5625,-0.1875 0.133507,-0.13056 0.218748,-0.313676 0.21875,-0.5625 -2e-6,-0.487237 -0.257446,-0.749998 -0.75,-0.75 z m -5.0625,0.3125 -0.34375,0.78125 0.6875,0 -0.34375,-0.78125 z" />
      <g
         style="display:inline"
         id="layer5">
        <rect
           style="opacity:0.1;fill:url(#linearGradient3220);fill-opacity:1;fill-rule:nonzero;stroke:#ffffff;stroke-width:0.5;stroke-linecap:round;stroke-linejoin:miter;stroke-miterlimit:4;stroke-opacity:1;stroke-dasharray:none;stroke-dashoffset:0;filter:url(#filter3794)"
           id="rect3171"
           clip-path="url(#clipPath3613)"
           y="15"
           x="15"
           ry="12"
           rx="12"
           height="66"
           width="66" />
      </g>
      <g
         transform="translate(-10,10)"
         style="display:inline"
         id="layer4">
        <path
           style="opacity:0.15;color:#000000;fill:url(#linearGradient3259);fill-opacity:1;fill-rule:nonzero;stroke:none;stroke-width:1.5;marker:none;visibility:visible;display:inline;overflow:visible;filter:url(#filter4117);enable-background:accumulate"
           id="rect4071"
           inkscape:connector-curvature="0"
           d="M 81.991846,7.763541 C 81.824486,7.785575 81.65964,7.8752174 81.548282,8.0203412 L 80.219153,9.7365373 C 79.77794,9.6892677 79.317088,9.8642411 79.01812,10.240331 l -23.008563,28.963315 -0.0269,-0.03506 c -0.290247,-0.222716 -0.708413,-0.160672 -0.931128,0.129571 0,0 -4.687031,7.205946 -7.099105,10.349422 -1.34004,1.746375 -4.164258,4.337312 -4.164258,4.337312 -0.222714,0.290248 -0.156592,0.677432 0.133651,0.900145 0,0 -4.591128,8.153867 -3.543303,8.957892 1.047825,0.804025 7.72006,-5.72884 7.72006,-5.72884 0.290247,0.222714 0.708414,0.160671 0.931128,-0.129572 0,0 1.759438,-3.36151 3.099479,-5.107886 2.412074,-3.143475 8.159805,-9.547865 8.159805,-9.547865 0.222714,-0.290247 0.160671,-0.708414 -0.129572,-0.931128 l -0.03098,-0.0041 22.04081,-29.752635 c 0.289236,-0.390632 0.303066,-0.8573 0.136254,-1.274368 L 83.6387,9.6193755 C 83.861416,9.3291279 83.795293,8.9419438 83.50505,8.7192297 L 82.479411,7.8907694 C 82.334287,7.7794123 82.159207,7.7415074 81.991846,7.763541 z" />
        <path
           style="opacity:0.2;color:#000000;fill:url(#linearGradient3261);fill-opacity:1;fill-rule:nonzero;stroke:none;stroke-width:1.5;marker:none;visibility:visible;display:inline;overflow:visible;filter:url(#filter4121);enable-background:accumulate"
           id="path4109"
           inkscape:connector-curvature="0"
           d="m 104.43086,36.201907 c -0.15596,-0.0646 -0.34354,-0.06939 -0.51254,6.14e-4 l -2.00916,0.821704 c -0.35847,-0.261543 -0.84506,-0.340437 -1.29202,-0.164218 l -34.407658,13.578685 -0.0058,-0.04381 c -0.140003,-0.338001 -0.533168,-0.493352 -0.871166,-0.353352 0,0 -7.662061,3.897017 -11.322716,5.41331 -2.033697,0.842385 -5.77501,1.674093 -5.77501,1.674093 -0.338,0.140006 -0.474328,0.508378 -0.334327,0.846374 0,0 -8.052967,4.765892 -7.547536,5.986111 0.50543,1.220218 9.550188,-1.101291 9.550188,-1.101291 0.140004,0.337999 0.533169,0.493352 0.871166,0.353351 0,0 3.204473,-2.031434 5.238171,-2.873819 3.660655,-1.516293 11.840531,-4.188791 11.840531,-4.188791 0.337999,-0.140005 0.493352,-0.533169 0.353351,-0.871167 l -0.02478,-0.01904 33.964226,-14.746132 c 0.4458,-0.19368 0.69111,-0.590911 0.75518,-1.035508 l 2.02817,-0.846483 c 0.338,-0.140004 0.47433,-0.508377 0.33433,-0.846374 l -0.474,-1.230287 c -0.07,-0.169 -0.20268,-0.289367 -0.35863,-0.353966 z" />
        <g
           id="g4058"
           transform="matrix(1.1438071,0.66037735,-0.66037735,1.1438071,45.736674,-35.279902)">
          <rect
             style="color:#000000;fill:url(#linearGradient3263);fill-opacity:1;fill-rule:nonzero;stroke:none;stroke-width:1.5;marker:none;visibility:visible;display:inline;overflow:visible;enable-background:accumulate"
             id="rect4016"
             y="14"
             x="33"
             ry="0.5"
             height="3"
             width="2" />
          <path
             style="color:#000000;fill:url(#linearGradient3265);fill-opacity:1;fill-rule:nonzero;stroke:#8f8f8f;stroke-width:0.22714287;stroke-miterlimit:4;stroke-opacity:1;stroke-dasharray:none;marker:none;visibility:visible;display:inline;overflow:visible;enable-background:accumulate"
             id="rect4014"
             inkscape:connector-curvature="0"
             d="m 33.5,16 c -0.554,0 -0.9905,0.446082 -1,1 L 32,46 c -0.0096,0.553918 0.446,1 1,1 l 2,0 c 0.554,0 1.0095,-0.446082 1,-1 L 35.5,17 c -0.0095,-0.553918 -0.446,-1 -1,-1 l -1,0 z M 32,60 c 0,0 1,7 2,7 1,0 2,-7 2,-7 l -4,0 z" />
          <path
             style="color:#000000;fill:url(#linearGradient3267);fill-opacity:1;fill-rule:nonzero;stroke:#424255;stroke-width:0.22714287;stroke-miterlimit:4;stroke-opacity:1;stroke-dasharray:none;marker:none;visibility:visible;display:inline;overflow:visible;enable-background:accumulate"
             id="rect4018"
             inkscape:connector-curvature="0"
             d="m 32,45 4,0 c 0.277,0 0.5,0.223 0.5,0.5 0,0 -0.5,6.5 -0.5,9.5 0,1.666667 0.5,4.5 0.5,4.5 0,0.277 -0.223,0.5 -0.5,0.5 l -4,0 c -0.277,0 -0.5,-0.223 -0.5,-0.5 0,0 0.5,-2.833333 0.5,-4.5 0,-3 -0.5,-9.5 -0.5,-9.5 0,-0.277 0.223,-0.5 0.5,-0.5 z" />
        </g>
      </g>
    </g>
    <rect
       ry="25"
       rx="25"
       id="rect3003"
       style="opacity:0.15;fill:#ffffff;fill-opacity:1"
       height="92"
       width="92"
       y="958.36218"
       x="-96"
       clip-path="url(#clipPath3009)"
       transform="translate(98,0)" />
  </g>
</svg>
