<?xml version="1.0" encoding="UTF-8" standalone="no"?>
<!-- Created with Inkscape (http://www.inkscape.org/) -->

<svg
   xmlns:dc="http://purl.org/dc/elements/1.1/"
   xmlns:cc="http://creativecommons.org/ns#"
   xmlns:rdf="http://www.w3.org/1999/02/22-rdf-syntax-ns#"
   xmlns:svg="http://www.w3.org/2000/svg"
   xmlns="http://www.w3.org/2000/svg"
   xmlns:xlink="http://www.w3.org/1999/xlink"
   xmlns:sodipodi="http://sodipodi.sourceforge.net/DTD/sodipodi-0.dtd"
   xmlns:inkscape="http://www.inkscape.org/namespaces/inkscape"
   width="96"
   height="96"
   id="svg11037"
   version="1.1"
   inkscape:version="0.48.3.1 r9886"
   sodipodi:docname="templat.svg">
  <defs
     id="defs11039">
    <linearGradient
       y2="1046.1001"
       x2="47.999954"
       y1="962.62189"
       x1="47.999954"
       gradientTransform="matrix(1.15,0,0,1.15,-7.1999462,-150.65291)"
       gradientUnits="userSpaceOnUse"
       id="linearGradient3886"
       xlink:href="#linearGradient3795"
       inkscape:collect="always" />
    <linearGradient
       id="linearGradient3795">
      <stop
         style="stop-color:#13a6fd;stop-opacity:1;"
         offset="0"
         id="stop3797" />
      <stop
         style="stop-color:#2975b6;stop-opacity:1;"
         offset="1"
         id="stop3799" />
    </linearGradient>
    <linearGradient
       y2="1046.1001"
       x2="47.999954"
       y1="962.62189"
       x1="47.999954"
       gradientTransform="matrix(1.15,0,0,1.15,-7.1999462,-150.65292)"
       gradientUnits="userSpaceOnUse"
       id="linearGradient11642"
       xlink:href="#linearGradient3700"
       inkscape:collect="always" />
    <clipPath
       clipPathUnits="userSpaceOnUse"
       id="clipPath3009">
      <path
         id="path3011"
         d="m -2,956.36218 -96,0 0,33.5624 96,25.68742 0,-59.24982 z"
         style="opacity:0.15;fill:#ffffff;fill-opacity:1;stroke:none"
         inkscape:connector-curvature="0" />
    </clipPath>
    <linearGradient
       x1="48"
       y1="90"
       x2="48"
       y2="5.9877172"
       id="linearGradient3617"
       xlink:href="#linearGradient3700"
       gradientUnits="userSpaceOnUse" />
    <linearGradient
       id="linearGradient3700">
      <stop
         id="stop3702"
         style="stop-color:#a5aaaf;stop-opacity:1"
         offset="0" />
      <stop
         id="stop3704"
         style="stop-color:#d4d7d9;stop-opacity:1"
         offset="1" />
    </linearGradient>
    <linearGradient
       gradientTransform="translate(-99.770317,960.3622)"
       y2="5.9877172"
       x2="48"
       y1="90"
       x1="48"
       gradientUnits="userSpaceOnUse"
       id="linearGradient3074"
       xlink:href="#linearGradient3700"
       inkscape:collect="always" />
    <linearGradient
       x1="16"
       y1="49"
       x2="80"
       y2="49"
       id="linearGradient4223"
       xlink:href="#linearGradient4086"
       gradientUnits="userSpaceOnUse"
       gradientTransform="matrix(0,-1,1,0,-1,97)" />
    <linearGradient
       id="linearGradient4086">
      <stop
         id="stop4088"
         style="stop-color:#bebebe;stop-opacity:1"
         offset="0" />
      <stop
         id="stop4098"
         style="stop-color:#ebebeb;stop-opacity:1"
         offset="1" />
    </linearGradient>
    <linearGradient
       x1="15"
       y1="48"
       x2="120"
       y2="48"
       id="linearGradient3857-9"
       xlink:href="#linearGradient3851-2"
       gradientUnits="userSpaceOnUse"
       gradientTransform="matrix(0,-1,1,0,0,97)" />
    <linearGradient
       id="linearGradient3851-2">
      <stop
         id="stop3853-9"
         style="stop-color:#000000;stop-opacity:1"
         offset="0" />
      <stop
         id="stop3855-4"
         style="stop-color:#000000;stop-opacity:0"
         offset="1" />
    </linearGradient>
    <radialGradient
       cx="48"
       cy="44"
       r="16"
       fx="48"
       fy="44"
       id="radialGradient3847-1"
       xlink:href="#linearGradient3841-9"
       gradientUnits="userSpaceOnUse" />
    <linearGradient
       id="linearGradient3841-9">
      <stop
         id="stop3843-9"
         style="stop-color:#ffffff;stop-opacity:1"
         offset="0" />
      <stop
         id="stop3849-7"
         style="stop-color:#ffffff;stop-opacity:0.33587787"
         offset="0.5" />
      <stop
         id="stop3845-4"
         style="stop-color:#000000;stop-opacity:0.16793893"
         offset="1" />
    </linearGradient>
    <linearGradient
       x1="-41"
       y1="49"
       x2="72"
       y2="49"
       id="linearGradient4111"
       xlink:href="#linearGradient4086"
       gradientUnits="userSpaceOnUse"
       gradientTransform="matrix(0,1,-1,0,97,1)" />
    <linearGradient
       id="linearGradient3124">
      <stop
         id="stop3126"
         style="stop-color:#bebebe;stop-opacity:1"
         offset="0" />
      <stop
         id="stop3128"
         style="stop-color:#ebebeb;stop-opacity:1"
         offset="1" />
    </linearGradient>
  </defs>
  <sodipodi:namedview
     id="base"
     pagecolor="#ffffff"
     bordercolor="#666666"
     borderopacity="1.0"
     inkscape:pageopacity="0.0"
     inkscape:pageshadow="2"
     inkscape:zoom="3.959798"
     inkscape:cx="29.118614"
     inkscape:cy="59.964634"
     inkscape:document-units="px"
     inkscape:current-layer="layer1"
     showgrid="false"
     inkscape:window-width="1280"
     inkscape:window-height="750"
     inkscape:window-x="0"
     inkscape:window-y="22"
     inkscape:window-maximized="1"
     showguides="true"
     inkscape:guide-bbox="true">
    <sodipodi:guide
       orientation="0,1"
       position="-24.748737,0"
       id="guide11064" />
    <sodipodi:guide
       orientation="0,1"
       position="-23.233509,96"
       id="guide11066" />
    <sodipodi:guide
       orientation="1,0"
       position="0,54.800776"
       id="guide11068" />
    <sodipodi:guide
       orientation="1,0"
       position="96,51.012704"
       id="guide11070" />
    <sodipodi:guide
       orientation="0,1"
       position="-18.94036,48"
       id="guide11072" />
    <sodipodi:guide
       orientation="1,0"
       position="48,79.296975"
       id="guide11074" />
    <sodipodi:guide
       orientation="1,0"
       position="2,75.508903"
       id="guide11076" />
    <sodipodi:guide
       orientation="0,1"
       position="-77.27667,2"
       id="guide11078" />
    <sodipodi:guide
       orientation="1,0"
       position="94,77.781746"
       id="guide11080" />
    <sodipodi:guide
       orientation="0,1"
       position="-65.912454,94"
       id="guide11082" />
  </sodipodi:namedview>
  <metadata
     id="metadata11042">
    <rdf:RDF>
      <cc:Work
         rdf:about="">
        <dc:format>image/svg+xml</dc:format>
        <dc:type
           rdf:resource="http://purl.org/dc/dcmitype/StillImage" />
        <dc:title></dc:title>
      </cc:Work>
    </rdf:RDF>
  </metadata>
  <g
     inkscape:label="Layer 1"
     inkscape:groupmode="layer"
     id="layer1"
     transform="translate(0,-956.36218)">
    <rect
       x="2"
       y="958.36218"
       width="92"
       height="92"
       style="fill:url(#linearGradient11642);fill-opacity:1.0"
       id="rect3867"
       rx="25"
       ry="25" />
    <g
       transform="translate(2.2222222e-7,956.36218)"
       id="g3076">
      <g
         id="layer4">
        <path
           style="color:#000000;fill:url(#linearGradient4223);fill-opacity:1;fill-rule:nonzero;stroke:none;stroke-width:2;marker:none;visibility:visible;display:inline;overflow:visible;enable-background:accumulate"
           id="path3823"
           inkscape:connector-curvature="0"
           d="M 16,49 C 16,66.673112 30.326888,81 48,81 65.673112,81 80,66.673112 80,49 80,31.326888 65.673112,17 48,17 30.326888,17 16,31.326888 16,49 z m 16,0 c 0,-8.836556 7.163444,-16 16,-16 8.836556,0 16,7.163444 16,16 0,8.836556 -7.163444,16 -16,16 -8.836556,0 -16,-7.163444 -16,-16 z" />
        <path
           style="opacity:0.35;color:#000000;fill:url(#linearGradient3857-9);fill-opacity:1;fill-rule:nonzero;stroke:none;stroke-width:2;marker:none;visibility:visible;display:inline;overflow:visible;enable-background:accumulate"
           id="path3834"
           inkscape:connector-curvature="0"
           d="M 15,49 C 15,67.21297 29.78703,82 48,82 66.21297,82 81,67.21297 81,49 81,30.78703 66.21297,16 48,16 29.78703,16 15,30.78703 15,49 z m 1,0 C 16,31.326888 30.326888,17 48,17 65.673112,17 80,31.326888 80,49 80,66.673112 65.673112,81 48,81 30.326888,81 16,66.673112 16,49 z m 16,0 c 0,8.836556 7.163444,16 16,16 8.836556,0 16,-7.163444 16,-16 0,-8.836556 -7.163444,-16 -16,-16 -8.836556,0 -16,7.163444 -16,16 z m 1,0 c 0,-8.296698 6.703302,-15 15,-15 8.296698,0 15,6.703302 15,15 0,8.296698 -6.703302,15 -15,15 -8.296698,0 -15,-6.703302 -15,-15 z" />
        <path
           inkscape:connector-curvature="0"
           style="opacity:0.25;color:#000000;fill:url(#radialGradient3847-1);fill-opacity:1;fill-rule:nonzero;stroke:none;stroke-width:2;marker:none;visibility:visible;display:inline;overflow:visible;enable-background:accumulate"
           id="path3839"
           transform="translate(0,1)"
           d="m 64,48 a 16,16 0 1 1 -32,0 16,16 0 1 1 32,0 z" />
        <path
           style="opacity:0.6;color:#000000;fill:#ffffff;fill-opacity:1;fill-rule:nonzero;stroke:none;stroke-width:2;marker:none;visibility:visible;display:inline;overflow:visible;enable-background:accumulate"
           id="path3859"
           inkscape:connector-curvature="0"
           d="m 48,17 c -17.673112,0 -32,14.326888 -32,32 0,0.166668 -0.0025,0.333936 0,0.5 C 16.266707,32.057042 30.493556,18 48,18 65.506444,18 79.733293,32.057042 80,49.5 80.0025,49.333936 80,49.166668 80,49 80,31.326888 65.673112,17 48,17 z M 32.03125,49.5 C 32.02595,49.668703 32,49.830019 32,50 c 0,8.836556 7.163444,16 16,16 8.836556,0 16,-7.163444 16,-16 0,-0.169981 -0.02599,-0.331297 -0.03125,-0.5 C 63.700451,58.101453 56.666575,65 48,65 39.333425,65 32.299549,58.101453 32.03125,49.5 z" />
        <path
           style="opacity:0.1;color:#000000;fill:#000000;fill-opacity:1;fill-rule:nonzero;stroke:none;stroke-width:2;marker:none;visibility:visible;display:inline;overflow:visible;enable-background:accumulate"
           id="path3864"
           inkscape:connector-curvature="0"
           d="m 48,32 c -8.836556,0 -16,7.163444 -16,16 0,0.169981 0.02599,0.331297 0.03125,0.5 C 32.299549,39.898547 39.333425,33 48,33 56.666575,33 63.700451,39.898547 63.96875,48.5 63.97405,48.331297 64,48.169981 64,48 64,39.163444 56.836556,32 48,32 z M 16,48.5 c -0.0025,0.166064 0,0.333332 0,0.5 0,17.673112 14.326888,32 32,32 17.673112,0 32,-14.326888 32,-32 0,-0.166668 0.0025,-0.333936 0,-0.5 C 79.733293,65.942958 65.506444,80 48,80 30.493556,80 16.266707,65.942958 16,48.5 z" />
        <path
           style="opacity:0.3;color:#000000;fill:#ffffff;fill-opacity:1;fill-rule:nonzero;stroke:none;stroke-width:2;marker:none;visibility:visible;display:inline;overflow:visible;enable-background:accumulate"
           id="path3871"
           inkscape:connector-curvature="0"
           d="m 48,34 c -8.284271,0 -15,6.715729 -15,15 0,0.169216 0.02569,0.332137 0.03125,0.5 C 33.297896,41.449818 39.884945,35 48,35 56.115055,35 62.702104,41.449818 62.96875,49.5 62.97435,49.332137 63,49.169216 63,49 63,40.715729 56.284271,34 48,34 z" />
        <path
           style="opacity:0.3;color:#000000;fill:#ffffff;fill-opacity:1;fill-rule:nonzero;stroke:none;stroke-width:2;marker:none;visibility:visible;display:inline;overflow:visible;enable-background:accumulate"
           id="path3876"
           inkscape:connector-curvature="0"
           d="m 15,48.5 c -0.0023,0.167161 0,0.332264 0,0.5 0,18.792408 14.774603,34.03125 33,34.03125 18.225397,0 33,-15.238842 33,-34.03125 0,-0.167736 0.0023,-0.332839 0,-0.5 C 80.7395,67.060799 66.062722,82.03125 48,82.03125 29.937278,82.03125 15.2605,67.060799 15,48.5 z" />
        <path
           style="color:#000000;fill:url(#linearGradient4111);fill-opacity:1;fill-rule:nonzero;stroke:none;stroke-width:2;marker:none;visibility:visible;display:inline;overflow:visible;enable-background:accumulate"
           id="path4100"
           inkscape:connector-curvature="0"
           d="M 72,49 C 72,35.745166 61.254834,25 48,25 34.745166,25 24,35.745166 24,49 24,62.254834 34.745166,73 48,73 61.254834,73 72,62.254834 72,49 z m -8,0 c 0,8.836556 -7.163444,16 -16,16 -8.836556,0 -16,-7.163444 -16,-16 0,-8.836556 7.163444,-16 16,-16 8.836556,0 16,7.163444 16,16 z" />
        <path
           inkscape:connector-curvature="0"
           style="opacity:0.12000002;color:#000000;fill:#eeeeee;fill-opacity:1;fill-rule:nonzero;stroke:none;stroke-width:2;marker:none;visibility:visible;display:inline;overflow:visible;enable-background:accumulate"
           id="path4133"
           d="M 48,18 C 30.926553,18 17,31.926553 17,49 17,66.073447 30.926553,80 48,80 65.073447,80 79,66.073447 79,49 79,31.926553 65.073447,18 48,18 z m 0,13 c 9.988507,0 18,8.011493 18,18 0,9.988507 -8.011493,18 -18,18 -9.988507,0 -18,-8.011493 -18,-18 0,-9.988507 8.011493,-18 18,-18 z" />
        <path
           inkscape:connector-curvature="0"
           style="opacity:0.25;color:#000000;fill:#eeeeee;fill-opacity:1;fill-rule:nonzero;stroke:none;stroke-width:2;marker:none;visibility:visible;display:inline;overflow:visible;enable-background:accumulate"
           id="path4129"
           d="M 48,19.03125 C 31.471988,19.03125 18.03125,32.471988 18.03125,49 18.03125,65.528012 31.471988,78.96875 48,78.96875 64.528012,78.96875 77.96875,65.528012 77.96875,49 77.96875,32.471988 64.528012,19.03125 48,19.03125 z m 0,10.9375 C 58.538603,29.96875 67.03125,38.461397 67.03125,49 67.03125,59.538603 58.538603,68.03125 48,68.03125 37.461397,68.03125 28.96875,59.538603 28.96875,49 28.96875,38.461397 37.461397,29.96875 48,29.96875 z" />
        <path
           inkscape:connector-curvature="0"
           style="opacity:0.4;color:#000000;fill:#eeeeee;fill-opacity:1;fill-rule:nonzero;stroke:none;stroke-width:2;marker:none;visibility:visible;display:inline;overflow:visible;enable-background:accumulate"
           id="path4125"
           d="M 48,20.03125 C 32.017655,20.03125 19.03125,33.017655 19.03125,49 19.03125,64.982345 32.017655,77.96875 48,77.96875 63.982345,77.96875 76.96875,64.982345 76.96875,49 76.96875,33.017655 63.982345,20.03125 48,20.03125 z m 0,8.9375 C 59.081021,28.96875 68.03125,37.918979 68.03125,49 68.03125,60.081021 59.081021,69.03125 48,69.03125 36.918979,69.03125 27.96875,60.081021 27.96875,49 27.96875,37.918979 36.918979,28.96875 48,28.96875 z" />
        <path
           inkscape:connector-curvature="0"
           style="opacity:0.6;color:#000000;fill:#eeeeee;fill-opacity:1;fill-rule:nonzero;stroke:none;stroke-width:2;marker:none;visibility:visible;display:inline;overflow:visible;enable-background:accumulate"
           id="path4121"
           d="M 48,20.9375 C 32.510032,20.9375 19.9375,33.510032 19.9375,49 19.9375,64.489968 32.510032,77.0625 48,77.0625 63.489968,77.0625 76.0625,64.489968 76.0625,49 76.0625,33.510032 63.489968,20.9375 48,20.9375 z m 0,7.125 C 59.571985,28.0625 68.9375,37.428015 68.9375,49 68.9375,60.571985 59.571985,69.9375 48,69.9375 36.428015,69.9375 27.0625,60.571985 27.0625,49 27.0625,37.428015 36.428015,28.0625 48,28.0625 z" />
        <path
           style="color:#000000;fill:#eeeeee;fill-opacity:1;fill-rule:nonzero;stroke:none;stroke-width:2;marker:none;visibility:visible;display:inline;overflow:visible;enable-background:accumulate"
           id="path4113"
           inkscape:connector-curvature="0"
           d="M 48,22 C 33.088312,22 21,34.088312 21,49 21,63.911688 33.088312,76 48,76 62.911688,76 75,63.911688 75,49 75,34.088312 62.911688,22 48,22 z m 0,5 C 60.150265,27 70,36.849735 70,49 70,61.150265 60.150265,71 48,71 35.849735,71 26,61.150265 26,49 26,36.849735 35.849735,27 48,27 z" />
      </g>
      <g
         id="layer7">
        <path
           style="color:#000000;fill:#b3b3b3;fill-opacity:1;fill-rule:nonzero;stroke:none;stroke-width:2;marker:none;visibility:visible;display:inline;overflow:visible;enable-background:accumulate"
           id="path3912"
           inkscape:connector-curvature="0"
           d="m 67,45.9375 0,3 0,3 2.5,-1.5 2.5,-1.5 -2.5,-1.5 -2.5,-1.5 z m 5,3 0,3 2.5,-1.5 2.5,-1.5 -2.5,-1.5 -2.5,-1.5 0,3 z m 5,0 0,3.0625 1,0 0,-6 -1,0 0,2.9375 z" />
        <path
           style="color:#000000;fill:#b3b3b3;fill-opacity:1;fill-rule:nonzero;stroke:none;stroke-width:2;marker:none;visibility:visible;display:inline;overflow:visible;enable-background:accumulate"
           id="path3919"
           inkscape:connector-curvature="0"
           d="m 29,45.9375 0,3 0,3 -2.5,-1.5 -2.5,-1.5 2.5,-1.5 2.5,-1.5 z m -5,3 0,3 -2.5,-1.5 -2.5,-1.5 2.5,-1.5 2.5,-1.5 0,3 z m -5,0 0,3.0625 -1,0 0,-6 1,0 0,2.9375 z" />
        <rect
           style="color:#000000;fill:#b3b3b3;fill-opacity:1;fill-rule:nonzero;stroke:none;stroke-width:2;marker:none;visibility:visible;display:inline;overflow:visible;enable-background:accumulate"
           id="rect3921"
           y="72"
           x="44"
           height="2"
           width="8" />
        <path
           style="color:#000000;fill:#b3b3b3;fill-opacity:1;fill-rule:nonzero;stroke:none;stroke-width:2;marker:none;visibility:visible;display:inline;overflow:visible;enable-background:accumulate"
           id="rect3923"
           inkscape:connector-curvature="0"
           d="m 47,21 0,3 -3,0 0,2 3,0 0,3 2,0 0,-3 3,0 0,-2 -3,0 0,-3 -2,0 z" />
        <path
           style="color:#000000;fill:#f2f2f2;fill-opacity:1;fill-rule:nonzero;stroke:none;stroke-width:2;marker:none;visibility:visible;display:inline;overflow:visible;enable-background:accumulate"
           id="path3928"
           inkscape:connector-curvature="0"
           d="m 40,45 0,4 0,4 3.5,-2 L 47,49 43.5,47 40,45 z m 10,0 0,8 2,0 0,-8 -2,0 z m 4,0 0,8 2,0 0,-8 -2,0 z" />
        <path
           style="opacity:0.2;color:#000000;fill:#f2f2f2;fill-opacity:1;fill-rule:nonzero;stroke:none;stroke-width:2;marker:none;visibility:visible;display:inline;overflow:visible;enable-background:accumulate"
           id="path3935"
           inkscape:connector-curvature="0"
           d="M 46.125,49.5 43.5,51 40,53 40,54 43.5,52 47,50 46.125,49.5 z M 50,53 l 0,1 2,0 0,-1 -2,0 z m 4,0 0,1 2,0 0,-1 -2,0 z" />
        <path
           style="opacity:0.1;color:#000000;fill:#000000;fill-opacity:1;fill-rule:nonzero;stroke:none;stroke-width:2;marker:none;visibility:visible;display:inline;overflow:visible;enable-background:accumulate"
           id="path3940"
           inkscape:connector-curvature="0"
           d="m 40,44 0,1 3.5,2 2.625,1.5 L 47,48 43.5,46 40,44 z m 10,0 0,1 2,0 0,-1 -2,0 z m 4,0 0,1 2,0 0,-1 -2,0 z" />
      </g>
    </g>
    <rect
       ry="25"
       rx="25"
       id="rect3003"
       style="opacity:0.15;fill:#ffffff;fill-opacity:1"
       height="92"
       width="92"
       y="958.36218"
       x="-96"
       clip-path="url(#clipPath3009)"
       transform="translate(98,0)" />
  </g>
</svg>
