<?xml version="1.0" encoding="UTF-8" standalone="no"?>
<!-- Created with Inkscape (http://www.inkscape.org/) -->

<svg
   xmlns:dc="http://purl.org/dc/elements/1.1/"
   xmlns:cc="http://creativecommons.org/ns#"
   xmlns:rdf="http://www.w3.org/1999/02/22-rdf-syntax-ns#"
   xmlns:svg="http://www.w3.org/2000/svg"
   xmlns="http://www.w3.org/2000/svg"
   xmlns:xlink="http://www.w3.org/1999/xlink"
   xmlns:sodipodi="http://sodipodi.sourceforge.net/DTD/sodipodi-0.dtd"
   xmlns:inkscape="http://www.inkscape.org/namespaces/inkscape"
   width="96"
   height="96"
   id="svg11037"
   version="1.1"
   inkscape:version="0.48.3.1 r9886"
   sodipodi:docname="templat.svg">
  <defs
     id="defs11039">
    <linearGradient
       y2="1046.1001"
       x2="47.999954"
       y1="962.62189"
       x1="47.999954"
       gradientTransform="matrix(1.15,0,0,1.15,-7.1999462,-150.65291)"
       gradientUnits="userSpaceOnUse"
       id="linearGradient3886"
       xlink:href="#linearGradient3795"
       inkscape:collect="always" />
    <linearGradient
       id="linearGradient3795">
      <stop
         style="stop-color:#13a6fd;stop-opacity:1;"
         offset="0"
         id="stop3797" />
      <stop
         style="stop-color:#2975b6;stop-opacity:1;"
         offset="1"
         id="stop3799" />
    </linearGradient>
    <linearGradient
       y2="1046.1001"
       x2="47.999954"
       y1="962.62189"
       x1="47.999954"
       gradientTransform="matrix(1.15,0,0,1.15,-7.1999462,-150.65292)"
       gradientUnits="userSpaceOnUse"
       id="linearGradient11642"
       xlink:href="#linearGradient3795"
       inkscape:collect="always" />
    <clipPath
       clipPathUnits="userSpaceOnUse"
       id="clipPath3009">
      <path
         id="path3011"
         d="m -2,956.36218 -96,0 0,33.5624 96,25.68742 0,-59.24982 z"
         style="opacity:0.15;fill:#ffffff;fill-opacity:1;stroke:none"
         inkscape:connector-curvature="0" />
    </clipPath>
    <linearGradient
       x1="48"
       y1="90"
       x2="48"
       y2="5.9877172"
       id="linearGradient3345"
       xlink:href="#linearGradient3700-5-1-1"
       gradientUnits="userSpaceOnUse" />
    <linearGradient
       id="linearGradient3700-5-1-1">
      <stop
         id="stop3702-0-2-7"
         style="stop-color:#285178;stop-opacity:1"
         offset="0" />
      <stop
         id="stop3704-4-9-2"
         style="stop-color:#4f759a;stop-opacity:1"
         offset="1" />
    </linearGradient>
    <radialGradient
       cx="63.98003"
       cy="61.948856"
       r="58.01997"
       fx="63.98003"
       fy="61.948856"
       id="radialGradient5232-9"
       xlink:href="#linearGradient3875"
       gradientUnits="userSpaceOnUse"
       gradientTransform="matrix(1.090012,0,0,0.84044811,-21.739002,-5.4878171)" />
    <linearGradient
       id="linearGradient3875">
      <stop
         id="stop3877"
         style="stop-color:#ffffff;stop-opacity:1"
         offset="0" />
      <stop
         id="stop3879"
         style="stop-color:#ffffff;stop-opacity:0.42635658"
         offset="1" />
    </linearGradient>
    <radialGradient
       cx="49.233551"
       cy="70.608253"
       r="25.483549"
       fx="49.233551"
       fy="70.608253"
       id="radialGradient4246"
       xlink:href="#linearGradient5226-0"
       gradientUnits="userSpaceOnUse"
       gradientTransform="matrix(0.46811249,-0.52911558,1.7948202,1.5821666,-112.03757,-37.344561)" />
    <linearGradient
       id="linearGradient5226-0">
      <stop
         id="stop5228-7"
         style="stop-color:#ffffff;stop-opacity:1"
         offset="0" />
      <stop
         id="stop5230-6"
         style="stop-color:#ffffff;stop-opacity:0"
         offset="1" />
    </linearGradient>
    <radialGradient
       cx="64.230392"
       cy="68.449158"
       r="43.769611"
       fx="64.230392"
       fy="68.449158"
       id="radialGradient4252"
       xlink:href="#linearGradient5226-0"
       gradientUnits="userSpaceOnUse"
       gradientTransform="matrix(1.4544425,0,0,0.92610887,-45.079796,-12.6013)" />
    <linearGradient
       id="linearGradient3222">
      <stop
         id="stop3224"
         style="stop-color:#ffffff;stop-opacity:1"
         offset="0" />
      <stop
         id="stop3226"
         style="stop-color:#ffffff;stop-opacity:0"
         offset="1" />
    </linearGradient>
    <radialGradient
       cx="74.375"
       cy="67.125"
       r="3.125"
       fx="74.375"
       fy="67.125"
       id="radialGradient3216"
       xlink:href="#linearGradient3543"
       gradientUnits="userSpaceOnUse" />
    <linearGradient
       id="linearGradient3543">
      <stop
         id="stop3545"
         style="stop-color:#ffffff;stop-opacity:1"
         offset="0" />
      <stop
         id="stop3555"
         style="stop-color:#ffffff;stop-opacity:1"
         offset="0.30645162" />
      <stop
         id="stop3551"
         style="stop-color:#ffffff;stop-opacity:0.640625"
         offset="0.51899064" />
      <stop
         id="stop3547"
         style="stop-color:#ffffff;stop-opacity:0"
         offset="1" />
    </linearGradient>
    <radialGradient
       cx="74.375"
       cy="67.125"
       r="3.125"
       fx="74.375"
       fy="67.125"
       id="radialGradient3443"
       xlink:href="#linearGradient3543"
       gradientUnits="userSpaceOnUse" />
    <linearGradient
       id="linearGradient3235">
      <stop
         id="stop3237"
         style="stop-color:#ffffff;stop-opacity:1"
         offset="0" />
      <stop
         id="stop3239"
         style="stop-color:#ffffff;stop-opacity:1"
         offset="0.30645162" />
      <stop
         id="stop3241"
         style="stop-color:#ffffff;stop-opacity:0.640625"
         offset="0.51899064" />
      <stop
         id="stop3243"
         style="stop-color:#ffffff;stop-opacity:0"
         offset="1" />
    </linearGradient>
    <radialGradient
       cx="74.375"
       cy="67.125"
       r="3.125"
       fx="74.375"
       fy="67.125"
       id="radialGradient3445"
       xlink:href="#linearGradient3543"
       gradientUnits="userSpaceOnUse" />
    <linearGradient
       id="linearGradient3246">
      <stop
         id="stop3248"
         style="stop-color:#ffffff;stop-opacity:1"
         offset="0" />
      <stop
         id="stop3250"
         style="stop-color:#ffffff;stop-opacity:1"
         offset="0.30645162" />
      <stop
         id="stop3252"
         style="stop-color:#ffffff;stop-opacity:0.640625"
         offset="0.51899064" />
      <stop
         id="stop3254"
         style="stop-color:#ffffff;stop-opacity:0"
         offset="1" />
    </linearGradient>
    <radialGradient
       cx="74.375"
       cy="67.125"
       r="3.125"
       fx="74.375"
       fy="67.125"
       id="radialGradient3447"
       xlink:href="#linearGradient3543"
       gradientUnits="userSpaceOnUse" />
    <linearGradient
       id="linearGradient3257">
      <stop
         id="stop3259"
         style="stop-color:#ffffff;stop-opacity:1"
         offset="0" />
      <stop
         id="stop3261"
         style="stop-color:#ffffff;stop-opacity:1"
         offset="0.30645162" />
      <stop
         id="stop3263"
         style="stop-color:#ffffff;stop-opacity:0.640625"
         offset="0.51899064" />
      <stop
         id="stop3265"
         style="stop-color:#ffffff;stop-opacity:0"
         offset="1" />
    </linearGradient>
    <radialGradient
       cx="74.375"
       cy="67.125"
       r="3.125"
       fx="74.375"
       fy="67.125"
       id="radialGradient3449"
       xlink:href="#linearGradient3543"
       gradientUnits="userSpaceOnUse" />
    <linearGradient
       id="linearGradient3268">
      <stop
         id="stop3270"
         style="stop-color:#ffffff;stop-opacity:1"
         offset="0" />
      <stop
         id="stop3272"
         style="stop-color:#ffffff;stop-opacity:1"
         offset="0.30645162" />
      <stop
         id="stop3274"
         style="stop-color:#ffffff;stop-opacity:0.640625"
         offset="0.51899064" />
      <stop
         id="stop3276"
         style="stop-color:#ffffff;stop-opacity:0"
         offset="1" />
    </linearGradient>
    <radialGradient
       cx="74.375"
       cy="67.125"
       r="3.125"
       fx="74.375"
       fy="67.125"
       id="radialGradient3451"
       xlink:href="#linearGradient3543"
       gradientUnits="userSpaceOnUse" />
    <linearGradient
       id="linearGradient3279">
      <stop
         id="stop3281"
         style="stop-color:#ffffff;stop-opacity:1"
         offset="0" />
      <stop
         id="stop3283"
         style="stop-color:#ffffff;stop-opacity:1"
         offset="0.30645162" />
      <stop
         id="stop3285"
         style="stop-color:#ffffff;stop-opacity:0.640625"
         offset="0.51899064" />
      <stop
         id="stop3287"
         style="stop-color:#ffffff;stop-opacity:0"
         offset="1" />
    </linearGradient>
    <radialGradient
       cx="63.875"
       cy="2.2173476"
       r="58.375"
       fx="63.875"
       fy="2.2173476"
       id="radialGradient4248"
       xlink:href="#linearGradient5226-0"
       gradientUnits="userSpaceOnUse"
       gradientTransform="matrix(1.0948456,0,0,0.33117465,-21.844872,32.792567)" />
    <linearGradient
       id="linearGradient3290">
      <stop
         id="stop3292"
         style="stop-color:#ffffff;stop-opacity:1"
         offset="0" />
      <stop
         id="stop3294"
         style="stop-color:#ffffff;stop-opacity:0"
         offset="1" />
    </linearGradient>
    <radialGradient
       cx="69.75"
       cy="75.973572"
       r="58.5"
       fx="69.75"
       fy="75.973572"
       id="radialGradient4250"
       xlink:href="#linearGradient5226-0"
       gradientUnits="userSpaceOnUse"
       gradientTransform="matrix(2.2593878,-0.06832043,0.00797869,0.26385907,-105.95706,38.8624)" />
    <linearGradient
       id="linearGradient3297">
      <stop
         id="stop3299"
         style="stop-color:#ffffff;stop-opacity:1"
         offset="0" />
      <stop
         id="stop3301"
         style="stop-color:#ffffff;stop-opacity:0"
         offset="1" />
    </linearGradient>
    <radialGradient
       cx="74.375"
       cy="67.125"
       r="3.125"
       fx="74.375"
       fy="67.125"
       id="radialGradient3354"
       xlink:href="#linearGradient3543"
       gradientUnits="userSpaceOnUse" />
    <linearGradient
       id="linearGradient3304">
      <stop
         id="stop3306"
         style="stop-color:#ffffff;stop-opacity:1"
         offset="0" />
      <stop
         id="stop3308"
         style="stop-color:#ffffff;stop-opacity:1"
         offset="0.30645162" />
      <stop
         id="stop3310"
         style="stop-color:#ffffff;stop-opacity:0.640625"
         offset="0.51899064" />
      <stop
         id="stop3312"
         style="stop-color:#ffffff;stop-opacity:0"
         offset="1" />
    </linearGradient>
    <linearGradient
       x1="48"
       y1="36"
       x2="56.96875"
       y2="36"
       id="linearGradient3983"
       xlink:href="#linearGradient3977"
       gradientUnits="userSpaceOnUse"
       gradientTransform="matrix(1.5,0,0,1.5,-24,-14)"
       spreadMethod="reflect" />
    <linearGradient
       id="linearGradient3977">
      <stop
         id="stop3979"
         style="stop-color:#cbcbcb;stop-opacity:1"
         offset="0" />
      <stop
         id="stop3981"
         style="stop-color:#efefef;stop-opacity:1"
         offset="1" />
    </linearGradient>
    <linearGradient
       x1="39.03125"
       y1="35.984375"
       x2="47.230457"
       y2="24.974846"
       id="linearGradient4011"
       xlink:href="#linearGradient4005"
       gradientUnits="userSpaceOnUse"
       gradientTransform="matrix(1.5,0,0,1.5,-24,-14)" />
    <linearGradient
       id="linearGradient4005">
      <stop
         id="stop4007"
         style="stop-color:#000000;stop-opacity:1"
         offset="0" />
      <stop
         id="stop4009"
         style="stop-color:#000000;stop-opacity:0"
         offset="1" />
    </linearGradient>
    <linearGradient
       x1="56.727566"
       y1="37.282234"
       x2="48.758419"
       y2="23.479269"
       id="linearGradient4039"
       xlink:href="#linearGradient4033"
       gradientUnits="userSpaceOnUse"
       gradientTransform="matrix(1.5,0,0,1.5,-24,-14)" />
    <linearGradient
       id="linearGradient4033">
      <stop
         id="stop4035"
         style="stop-color:#000000;stop-opacity:1"
         offset="0" />
      <stop
         id="stop4037"
         style="stop-color:#000000;stop-opacity:0"
         offset="1" />
    </linearGradient>
    <linearGradient
       x1="48"
       y1="41"
       x2="60"
       y2="41"
       id="linearGradient3933"
       xlink:href="#linearGradient3956"
       gradientUnits="userSpaceOnUse"
       gradientTransform="matrix(1.5,0,0,1.5,-24,-14)"
       spreadMethod="reflect" />
    <linearGradient
       id="linearGradient3956">
      <stop
         id="stop3958"
         style="stop-color:#e6c94c;stop-opacity:1"
         offset="0" />
      <stop
         id="stop3966"
         style="stop-color:#e7ce5f;stop-opacity:1"
         offset="0.57832253" />
      <stop
         id="stop3960"
         style="stop-color:#f0de93;stop-opacity:1"
         offset="0.83333331" />
      <stop
         id="stop3962"
         style="stop-color:#d0b64c;stop-opacity:1"
         offset="0.91666669" />
      <stop
         id="stop3964"
         style="stop-color:#907d2e;stop-opacity:1"
         offset="1" />
    </linearGradient>
    <linearGradient
       x1="48"
       y1="41"
       x2="60"
       y2="41"
       id="linearGradient3945"
       xlink:href="#linearGradient3956"
       gradientUnits="userSpaceOnUse"
       gradientTransform="matrix(1.5,0,0,1.5,-24,-5)"
       spreadMethod="reflect" />
    <linearGradient
       id="linearGradient3334">
      <stop
         id="stop3336"
         style="stop-color:#e6c94c;stop-opacity:1"
         offset="0" />
      <stop
         id="stop3338"
         style="stop-color:#e7ce5f;stop-opacity:1"
         offset="0.57832253" />
      <stop
         id="stop3340"
         style="stop-color:#f0de93;stop-opacity:1"
         offset="0.83333331" />
      <stop
         id="stop3342"
         style="stop-color:#d0b64c;stop-opacity:1"
         offset="0.91666669" />
      <stop
         id="stop3344"
         style="stop-color:#907d2e;stop-opacity:1"
         offset="1" />
    </linearGradient>
    <linearGradient
       x1="48"
       y1="41"
       x2="60"
       y2="41"
       id="linearGradient3954"
       xlink:href="#linearGradient3956"
       gradientUnits="userSpaceOnUse"
       gradientTransform="matrix(1.5,0,0,1.5,-24,4)"
       spreadMethod="reflect" />
    <linearGradient
       id="linearGradient3347">
      <stop
         id="stop3349"
         style="stop-color:#e6c94c;stop-opacity:1"
         offset="0" />
      <stop
         id="stop3351"
         style="stop-color:#e7ce5f;stop-opacity:1"
         offset="0.57832253" />
      <stop
         id="stop3353"
         style="stop-color:#f0de93;stop-opacity:1"
         offset="0.83333331" />
      <stop
         id="stop3355"
         style="stop-color:#d0b64c;stop-opacity:1"
         offset="0.91666669" />
      <stop
         id="stop3357"
         style="stop-color:#907d2e;stop-opacity:1"
         offset="1" />
    </linearGradient>
    <clipPath
       clipPathUnits="userSpaceOnUse"
       id="clipPath3278">
      <rect
         x="6"
         y="5.9999437"
         width="84.000053"
         height="84.000053"
         style="fill:url(#linearGradient3282);fill-opacity:1"
         id="rect3280"
         rx="22.826101"
         ry="22.826101" />
    </clipPath>
    <linearGradient
       inkscape:collect="always"
       xlink:href="#linearGradient3795"
       id="linearGradient3282"
       gradientUnits="userSpaceOnUse"
       gradientTransform="matrix(1.0500007,0,0,1.0500007,-2.3999564,-1006.5797)"
       x1="47.999954"
       y1="962.62189"
       x2="47.999954"
       y2="1046.1001" />
  </defs>
  <sodipodi:namedview
     id="base"
     pagecolor="#ffffff"
     bordercolor="#666666"
     borderopacity="1.0"
     inkscape:pageopacity="0.0"
     inkscape:pageshadow="2"
     inkscape:zoom="3.959798"
     inkscape:cx="33.538031"
     inkscape:cy="59.964634"
     inkscape:document-units="px"
     inkscape:current-layer="layer1"
     showgrid="false"
     inkscape:window-width="1280"
     inkscape:window-height="750"
     inkscape:window-x="0"
     inkscape:window-y="22"
     inkscape:window-maximized="1"
     showguides="true"
     inkscape:guide-bbox="true">
    <sodipodi:guide
       orientation="0,1"
       position="-24.748737,0"
       id="guide11064" />
    <sodipodi:guide
       orientation="0,1"
       position="-23.233509,96"
       id="guide11066" />
    <sodipodi:guide
       orientation="1,0"
       position="0,54.800776"
       id="guide11068" />
    <sodipodi:guide
       orientation="1,0"
       position="96,51.012704"
       id="guide11070" />
    <sodipodi:guide
       orientation="0,1"
       position="-18.94036,48"
       id="guide11072" />
    <sodipodi:guide
       orientation="1,0"
       position="48,79.296975"
       id="guide11074" />
    <sodipodi:guide
       orientation="1,0"
       position="2,75.508903"
       id="guide11076" />
    <sodipodi:guide
       orientation="0,1"
       position="-77.27667,2"
       id="guide11078" />
    <sodipodi:guide
       orientation="1,0"
       position="94,77.781746"
       id="guide11080" />
    <sodipodi:guide
       orientation="0,1"
       position="-65.912454,94"
       id="guide11082" />
  </sodipodi:namedview>
  <metadata
     id="metadata11042">
    <rdf:RDF>
      <cc:Work
         rdf:about="">
        <dc:format>image/svg+xml</dc:format>
        <dc:type
           rdf:resource="http://purl.org/dc/dcmitype/StillImage" />
        <dc:title></dc:title>
      </cc:Work>
    </rdf:RDF>
  </metadata>
  <g
     inkscape:label="Layer 1"
     inkscape:groupmode="layer"
     id="layer1"
     transform="translate(0,-956.36218)">
    <g
       transform="matrix(1.0952374,0,0,1.0952374,-4.5714242,951.79082)"
       style="display:inline"
       id="g3161"
       clip-path="url(#clipPath3278)">
      <rect
         style="fill:url(#linearGradient3345);fill-opacity:1;fill-rule:nonzero;stroke:none;display:inline"
         id="rect2419-8"
         y="6"
         x="6"
         ry="6"
         rx="6"
         height="84"
         width="84" />
      <path
         style="opacity:0.4;fill:url(#radialGradient5232-9);fill-opacity:1;stroke:none;display:inline"
         id="path3522-9"
         inkscape:connector-curvature="0"
         d="m 36.27388,6.096377 c 1.65012,2.2155912 0.11259,5.915398 2.60148,5.878671 1.2119,1.713164 -2.41545,0.511042 0.2036,1.831432 1.5061,1.185988 -1.5934,1.863613 0.27178,2.927919 -2.14968,1.109114 0.34844,5.801103 1.94512,6.97538 2.62795,2.212061 1.1622,-4.683394 4.0945,-5.04209 1.59336,-1.818795 4.39184,-2.986327 6.37927,-4.815989 -1.9423,-0.15766 -3.07647,-1.366454 -1.23702,-2.115252 3.38545,3.468671 0.8489,-1.642711 -1.02514,-2.452023 1.81336,-0.5767594 3.57698,-0.154404 3.32537,-1.6505493 1.91632,-1.4018192 -1.84226,-1.8544226 -3.18394,-1.5374987 -4.45834,0 -8.91667,0 -13.37502,0 z M 8.472035,7.5434349 C 6.022275,8.2412831 5.851393,14.095058 8.313685,10.844535 8.918028,9.50983 11.710762,7.901324 8.472035,7.5434349 z M 19.918529,7.746927 c -1.41226,2.214241 0.204911,3.989518 1.379911,1.288786 0.83171,-1.1277826 -0.617931,-1.2474651 -1.379911,-1.288786 z m 3.528951,0.4974263 c -2.728751,1.2645837 -0.6726,4.2134717 -0.60506,4.8693197 2.87457,0.994334 4.47323,-0.650114 5.56069,2.160413 2.73516,1.576152 -0.0538,4.314918 -1.08054,5.028176 1.84934,-1.610389 5.40416,4.378304 4.47226,1.214321 -1.11179,-0.811673 2.98515,1.303915 0.85962,-1.334006 -1.95607,-3.151091 0.15527,-1.410713 0.97995,-0.675273 2.80488,-2.514847 -3.1736,-2.818813 -1.68123,-5.40689 C 30.64542,13.041357 28.93028,9.83304 26.6145,10.46016 25.06426,12.464727 26.40035,6.0923691 24.12589,9.281181 c -0.11789,1.782531 -0.0429,4.044447 -0.70571,0.956351 -0.44407,-0.540606 0.764,-1.7974072 0.0273,-1.9931787 z m -5.56489,0.022612 C 16.050988,8.8775146 16.149361,11.351938 18.401546,11.617212 19.17298,10.738016 18.70804,8.4334551 17.88259,8.2669652 z M 10.734187,9.058325 c -2.379078,0.563598 -1.407992,2.481632 -0.679572,3.02182 -2.944918,0.737557 4.49569,0.942657 0.79268,1.409793 -3.08079,1.230224 2.966663,2.67961 3.958767,1.220954 3.804388,0.930273 0.136908,-3.045031 -0.197041,-5.199948 -1.612752,-1.7306215 -0.06365,3.989551 -1.521868,0.184316 -0.508787,1.129983 -2.126528,0.166515 -2.352966,-0.636935 z M 86.33531,9.307037 c -3.19244,1.249243 1.98418,5.963472 0.69765,1.674664 -0.12817,-0.517868 0.28819,-1.886169 -0.69765,-1.674664 z M 19.66969,11.2063 c -2.294083,2.155636 2.91599,3.938244 -0.658894,5.54415 -0.53602,-2.001942 -1.458276,1.001608 -3.503467,-0.615111 -3.515899,1.46374 -5.313868,-0.762449 -8.257534,-2.288432 -1.768029,-0.220055 -1.103781,1.679698 -1.220884,3.458474 0,4.915862 0,9.831727 0,14.74759 1.733489,1.823574 0.676329,0.804576 0,0.301602 0.951467,3.240031 -0.419572,7.976266 3.330851,9.860928 0.637563,1.182446 3.312882,6.219986 3.43622,4.712704 -1.341214,-1.404368 -2.717353,-5.614596 -0.447896,-1.862098 2.032756,3.567022 4.774753,5.880584 8.780474,6.729415 2.19006,0.744855 3.99117,3.305322 5.91712,2.741963 1.08905,2.870539 -3.22741,5.627088 0.14491,8.30447 1.76052,2.71045 4.71618,4.488168 3.11596,8.29345 -1.11907,3.716413 -0.63993,7.765882 -1.60779,11.228513 -0.30039,2.107681 2.93804,7.457302 2.65747,3.173531 0.94557,-2.976918 0.92064,-6.252508 3.14759,-8.360679 3.04711,0.02412 0.58237,-3.276114 3.607,-2.844995 1.84565,-2.418872 2.38023,-5.304486 5.49491,-6.264978 0.37205,-2.936144 5.17882,-7.4329 0.21314,-8.576056 -1.34961,-0.665119 -4.8245,-0.904282 -4.55894,-1.232465 0.53803,-2.913429 -4.49347,-3.742841 -6.63424,-4.934817 -2.81075,-1.994856 -7.03423,3.313948 -8.02451,-1.260398 -0.59088,-1.439233 -2.75133,-1.462574 -1.75843,-3.683379 -1.78939,1.779441 -5.28934,1.238624 -4.373028,-2.197824 1.391566,-2.894156 6.735638,-3.031092 7.646258,0.450058 -1.26435,-3.839294 2.44394,-6.828036 4.50253,-9.559465 0.41916,-1.305551 2.90974,-2.427219 2.05268,-0.692077 1.46015,-0.05266 3.67328,-2.687302 1.07941,-1.471281 -0.0367,-2.402702 -2.27298,-1.719417 -2.998,-1.378249 1.34377,-2.132514 8.24498,-0.966646 5.35509,-4.452373 -2.2393,-0.907229 -2.05302,-6.201368 -4.318,-3.251981 0.1906,-1.817243 -4.61001,-5.374474 -4.50525,-2.327163 0.58599,2.726773 0.10714,5.867952 -1.13992,7.655308 -0.26025,-3.995633 -7.075686,-3.112538 -6.199431,-7.370332 1.269451,-2.029282 2.752851,-4.835506 2.894181,-4.583059 2.27505,-0.868509 4.10459,-3.394824 1.46783,-5.055609 -0.14092,1.447483 -1.98303,4.433935 -1.72366,0.821917 -1.705794,2.022175 -1.3162,-3.217808 -2.91375,-3.761252 z m 54.45,1.401837 c -3.99594,0.977352 -5.58007,4.793453 -7.55681,7.954209 -2.91386,1.313584 -2.80294,6.954861 0.45241,5.153113 0.87128,1.52152 -0.60951,3.919724 1.92831,1.930256 2.047,-2.708555 0.35794,-7.089232 3.84142,-8.797142 0.25374,1.32799 -3.21334,6.286746 0.83699,5.471685 3.66156,0.13814 -2.66185,0.364788 -0.88099,2.703385 -1.85027,-1.097665 -0.88884,2.997843 -3.30399,2.044772 -2.09232,1.137967 -3.46433,-0.528366 -2.98503,-2.353789 -1.64596,0.960095 0.5177,3.668626 -2.33958,3.831405 -0.64005,2.272529 -5.90338,1.930002 -2.9102,4.244049 1.3289,3.443647 -4.95154,0.215879 -3.16854,4.348369 1.52545,4.086407 4.7224,-1.354049 6.01943,-2.405153 2.50248,-1.940907 6.21066,3.309444 3.95877,3.504593 2.52508,-0.338743 2.00619,-2.739888 -0.0169,-3.669477 -1.09268,-2.833524 3.45903,1.389634 3.2066,2.810286 1.60595,3.006852 0.94462,-3.078557 2.57885,-0.384373 -0.1908,2.841965 6.57418,0.668223 3.34439,4.290282 -2.77688,0.559235 -5.51013,-0.715787 -7.90083,0.100876 -2.22511,-0.01969 -2.11347,-2.396773 -2.92358,-2.992055 -2.83037,0.229926 -6.32794,0.203926 -8.22277,2.490166 -2.04902,2.810946 -5.00383,6.740445 -2.77053,10.329674 2.23487,5.318818 7.77718,0.27589 10.96298,3.417068 0.94693,1.309731 -0.8206,2.86661 1.2967,4.285291 0.79672,3.022035 -0.90448,5.891404 1.05227,8.780282 1.01184,2.716843 1.63978,6.783262 5.40576,4.300665 3.98577,-2.398255 2.92416,-6.819304 6.21294,-9.268036 -2.60227,-5.035562 3.18363,-7.243505 4.62722,-11.33147 -3.15395,0.461678 -5.96377,-2.682428 -6.72579,-5.847035 -1.32494,-1.53712 -0.98368,-3.80361 0.49633,-0.916013 2.03426,1.970926 2.07821,7.819175 5.84127,4.810628 1.72035,-0.719477 6.4186,-3.464001 2.67511,-4.712977 -2.41304,1.747528 -5.07525,-5.221667 -1.53182,-1.179385 2.57602,1.092759 4.37996,1.743838 4.37996,-1.879216 0,-9.761273 0,-19.654809 0,-29.482214 -0.8024,0.819872 -2.8638,2.334082 -3.90428,1.32791 -1.79037,0.249281 -4.15389,3.732429 -3.59125,0.365356 -1.55624,-0.103042 -0.27858,3.019034 -2.41664,3.106347 -0.21529,1.605089 -2.15987,0.29723 -1.42943,1.821464 -1.50065,-1.064346 -2.77067,-4.424842 0.18614,-2.315577 4.39103,-1.31719 -2.8956,-4.288275 -3.45804,-5.006418 0.94545,-0.226501 -1.02861,-1.211646 -1.26681,-0.881801 z m -36.23968,0.881801 c -1.4615,1.217596 2.77854,1.446893 0,0 z m -19.522371,0.655697 c -1.634647,1.709655 2.603281,1.571667 0,0 z m 9.478421,1.69577 c -1.23786,2.027571 1.82903,0.748571 0,0 z m 27.10058,2.39669 c -1.44923,1.668248 -3.36205,-0.439045 -3.39323,0.994852 0.26265,0.433258 1.31467,3.52554 3.61945,1.243565 1.23698,-0.521451 0.74995,-1.835967 -0.22622,-2.238417 z m -30.85575,0.994852 c -2.74881,2.400285 4.6683,2.621438 0.58232,0.275289 l -0.58232,-0.27529 z m 36.2623,6.647418 c -1.97909,1.2904 0.94943,4.030804 -0.0431,5.318079 -1.2401,2.160392 4.60832,-0.152179 1.48461,-1.875826 -0.22257,-1.48088 -1.83002,-3.287723 -1.44154,-3.442253 z m -1.33468,2.600181 c -2.75739,0.779471 -0.62595,4.803849 0.35067,1.013493 0.0549,-0.219748 0.12936,-1.020842 -0.35067,-1.013493 z m -22.0786,2.916726 c -2.56522,1.748962 -0.39843,3.494707 1.48156,2.707775 -0.38596,-1.055239 -1.46417,-1.720102 -1.48156,-2.707775 z m 48.4553,2.939335 c 1.27995,0.645878 -2.34554,1.749213 -0.0498,2.885924 1.33598,1.570889 0.83231,4.942999 -1.3392,2.556372 0.40344,-2.664667 -2.94356,-4.654664 1.38903,-5.442296 z m -6.58287,0.02261 c -0.17366,1.711943 3.69395,4.372967 -0.47504,3.504593 -2.20475,0.258597 -5.50697,-0.06736 -2.72943,-2.814283 0.87765,-0.526822 3.18206,1.817596 1.98292,-0.373765 0.42513,-0.02712 0.82107,-0.18758 1.22155,-0.316545 z M 66.06643,38.0673 c -1.60811,1.035898 1.11199,1.830212 0,0 z m -40.37941,9.654585 c -0.27111,0.904354 5.08598,1.82085 1.38929,0.371963 l -0.55107,-0.193949 -0.83822,-0.178014 z m 4.16235,1.288785 c -1.62491,1.649392 3.34782,0.492772 0,0 z m 54.3369,15.126272 c -3.53072,0.09109 -3.06133,9.197024 -0.60013,3.808943 0.2334,-1.169216 1.1689,-2.712425 0.60013,-3.808943 z" />
      <g
         id="layer7">
        <g
           id="g3125">
          <g
             id="layer3"
             style="display:inline">
            <g
               id="g4234">
              <path
                 d="M 7,29.523112 C 58.250036,38.347576 38.633643,89 38.633643,89"
                 inkscape:connector-curvature="0"
                 id="path3583"
                 style="fill:none;stroke:url(#radialGradient4246);stroke-width:2;stroke-linecap:butt;stroke-linejoin:miter;stroke-miterlimit:4;stroke-opacity:1;stroke-dasharray:none;display:inline" />
              <path
                 d="M 27.676739,88.823511 C 26.616393,73.292454 56.129343,28.640665 88.823332,20.875137"
                 inkscape:connector-curvature="0"
                 id="path3581"
                 style="fill:none;stroke:url(#radialGradient4252);stroke-width:2;stroke-linecap:butt;stroke-linejoin:miter;stroke-miterlimit:4;stroke-opacity:1;stroke-dasharray:none;display:inline" />
              <path
                 inkscape:connector-curvature="0"
                 d="m 77.5,67.125 a 3.125,3.125 0 1 1 -6.25,0 3.125,3.125 0 1 1 6.25,0 z"
                 transform="matrix(1.3572422,0,0,1.3554377,-73.268157,-53.871603)"
                 id="path3537"
                 style="fill:url(#radialGradient3216);fill-opacity:1;fill-rule:evenodd;stroke:none;display:inline" />
              <path
                 inkscape:connector-curvature="0"
                 d="m 77.5,67.125 a 3.125,3.125 0 1 1 -6.25,0 3.125,3.125 0 1 1 6.25,0 z"
                 transform="matrix(1.0744835,0,0,1.0730548,-39.513825,-14.090919)"
                 id="path3557"
                 style="fill:url(#radialGradient3443);fill-opacity:1;fill-rule:evenodd;stroke:none;display:inline" />
              <path
                 inkscape:connector-curvature="0"
                 d="m 77.5,67.125 a 3.125,3.125 0 1 1 -6.25,0 3.125,3.125 0 1 1 6.25,0 z"
                 transform="matrix(1.5834493,0,0,1.581344,-53.333661,-72.388859)"
                 id="path3561"
                 style="fill:url(#radialGradient3445);fill-opacity:1;fill-rule:evenodd;stroke:none;display:inline" />
              <path
                 inkscape:connector-curvature="0"
                 d="m 77.5,67.125 a 3.125,3.125 0 1 1 -6.25,0 3.125,3.125 0 1 1 6.25,0 z"
                 transform="matrix(1.0219348,0,0,1.020576,-15.635673,-16.92189)"
                 id="path3565"
                 style="opacity:0.6;fill:url(#radialGradient3447);fill-opacity:1;fill-rule:evenodd;stroke:none;display:inline" />
              <path
                 inkscape:connector-curvature="0"
                 d="m 77.5,67.125 a 3.125,3.125 0 1 1 -6.25,0 3.125,3.125 0 1 1 6.25,0 z"
                 transform="matrix(0.89260147,0,0,0.89141463,-51.611367,-28.371713)"
                 id="path3569"
                 style="opacity:0.7;fill:url(#radialGradient3449);fill-opacity:1;fill-rule:evenodd;stroke:none;display:inline" />
              <path
                 inkscape:connector-curvature="0"
                 d="m 77.5,67.125 a 3.125,3.125 0 1 1 -6.25,0 3.125,3.125 0 1 1 6.25,0 z"
                 transform="matrix(0.56551763,0,0,0.5647657,38.456917,3.261507)"
                 id="path3573"
                 style="opacity:0.6;fill:url(#radialGradient3451);fill-opacity:1;fill-rule:evenodd;stroke:none;display:inline" />
              <path
                 d="M 7.1767242,47.701508 C 35.275882,28.287687 72.387975,27.228751 89.000056,49.289911"
                 inkscape:connector-curvature="0"
                 id="path3577"
                 style="fill:none;stroke:url(#radialGradient4248);stroke-width:2;stroke-linecap:butt;stroke-linejoin:miter;stroke-miterlimit:4;stroke-opacity:1;stroke-dasharray:none;display:inline" />
              <path
                 d="M 7.1767242,67.821286 C 58.42676,56.349483 89.17678,37.641619 89.17678,37.641619"
                 inkscape:connector-curvature="0"
                 id="path3585"
                 style="opacity:0.6;fill:none;stroke:url(#radialGradient4250);stroke-width:1.5;stroke-linecap:butt;stroke-linejoin:miter;stroke-miterlimit:4;stroke-opacity:1;stroke-dasharray:none;display:inline" />
              <path
                 inkscape:connector-curvature="0"
                 d="m 77.5,67.125 a 3.125,3.125 0 1 1 -6.25,0 3.125,3.125 0 1 1 6.25,0 z"
                 transform="matrix(0.84547158,0,0,0.84434747,15.553432,-31.917967)"
                 id="path3352"
                 style="opacity:0.6;fill:url(#radialGradient3354);fill-opacity:1;fill-rule:evenodd;stroke:none;display:inline" />
            </g>
          </g>
          <path
             d="m 47.625,21.5625 c -0.124058,0.01 -0.24832,0.02416 -0.375,0.03125 C 40.171363,21.985193 34.5625,27.82359 34.5625,35 l 0,9 L 31.5,44 C 30.669,44 30,44.669 30,45.5 l 0,1.5 0,4.5 c 0,0.831 0.669,1.5 1.5,1.5 -0.831,0 -1.5,0.669 -1.5,1.5 l 0,1.5 0,4.5 c 0,0.831 0.669,1.5 1.5,1.5 -0.831,0 -1.5,0.669 -1.5,1.5 l 0,1.5 0,3 0,1.5 c 0,0.831 0.669,1.5 1.5,1.5 l 33,0 C 65.331,71 66,70.331 66,69.5 L 66,68 66,63.5 C 66,62.669 65.331,62 64.5,62 65.331,62 66,61.331 66,60.5 l 0,-6 C 66,53.669 65.331,53 64.5,53 65.331,53 66,52.331 66,51.5 l 0,-6 C 66,44.669 65.331,44 64.5,44 l -3.0625,0 0,-9 c 0,-4.571738 -2.264337,-8.600168 -5.75,-11.03125 -0.0537,-0.03726 -0.101975,-0.08849 -0.15625,-0.125 -0.228385,-0.154297 -0.480674,-0.297153 -0.71875,-0.4375 -0.01215,-0.0072 -0.01907,-0.02412 -0.03125,-0.03125 -0.01974,-0.01155 -0.0427,-0.01979 -0.0625,-0.03125 C 54.70679,23.33685 54.69948,23.31936 54.6875,23.3125 54.59589,23.25989 54.499205,23.206748 54.40625,23.15625 53.16443,22.481631 51.814023,22.005976 50.375,21.75 49.600116,21.609899 48.812618,21.5625 48,21.5625 c -0.07464,0 -0.146549,3.06e-4 -0.21875,0 -0.05214,-0.0022 -0.103957,0.0016 -0.15625,0 z m 0,4.5 c 0.124055,-0.0049 0.249534,0 0.375,0 1.884076,0 3.604652,0.544421 5.03125,1.5 0.0074,0.0051 0.02382,-0.0052 0.03125,0 0.174421,0.117569 0.334986,0.245626 0.5,0.375 1.422781,1.143333 2.488397,2.722033 3.03125,4.5625 0.0432,0.155332 0.08979,0.309954 0.125,0.46875 0.01707,0.07071 0.01572,0.147364 0.03125,0.21875 0.05097,0.258813 0.127093,0.514519 0.15625,0.78125 C 56.9428,34.304352 56.9375,34.653016 56.9375,35 l 0,9 -17.875,0 0,-9 c 0,-0.295636 0.0046,-0.587476 0.03125,-0.875 9.55e-4,-0.01038 -9.89e-4,-0.02089 0,-0.03125 9.99e-4,-0.01041 -10e-4,-0.02085 0,-0.03125 0.0225,-0.228573 0.05505,-0.43356 0.09375,-0.65625 0.0019,-0.0099 -0.0019,-0.02133 0,-0.03125 0.0056,-0.03183 0.02532,-0.06205 0.03125,-0.09375 0.04967,-0.266928 0.115458,-0.523938 0.1875,-0.78125 0.0029,-0.0098 -0.0029,-0.0215 0,-0.03125 0.0091,-0.03212 0.0218,-0.06179 0.03125,-0.09375 0.06858,-0.231639 0.132728,-0.464649 0.21875,-0.6875 0.005,-0.01281 0.02624,-0.01847 0.03125,-0.03125 0.01237,-0.0307 0.01858,-0.06322 0.03125,-0.09375 0.08547,-0.211617 0.18061,-0.422251 0.28125,-0.625 0.01664,-0.03351 0.04546,-0.06049 0.0625,-0.09375 0.397564,-0.76555 0.88712,-1.480709 1.46875,-2.09375 0.02078,-0.02164 0.0415,-0.04108 0.0625,-0.0625 0.100973,-0.104395 0.206713,-0.213261 0.3125,-0.3125 0.03832,-0.03522 0.08605,-0.05921 0.125,-0.09375 0.05046,-0.04479 0.104742,-0.08137 0.15625,-0.125 0.03299,-0.0286 0.06035,-0.06564 0.09375,-0.09375 0.05091,-0.04184 0.104379,-0.08429 0.15625,-0.125 0.02933,-0.02357 0.06412,-0.03931 0.09375,-0.0625 0.08731,-0.06661 0.160101,-0.155374 0.25,-0.21875 0.117441,-0.08301 0.253293,-0.141414 0.375,-0.21875 0.03207,-0.02033 0.06139,-0.04257 0.09375,-0.0625 0.142892,-0.08826 0.28915,-0.169746 0.4375,-0.25 0.273537,-0.146692 0.553121,-0.288013 0.84375,-0.40625 0.08184,-0.03334 0.166888,-0.06276 0.25,-0.09375 0.183647,-0.06879 0.372946,-0.130483 0.5625,-0.1875 0.09432,-0.02824 0.185541,-0.0685 0.28125,-0.09375 0.05992,-0.01592 0.127054,-0.01652 0.1875,-0.03125 0.02187,-0.0053 0.04056,-0.02608 0.0625,-0.03125 0.0829,-0.01955 0.166149,-0.01397 0.25,-0.03125 0.02218,-0.0046 0.04026,-0.02682 0.0625,-0.03125 0.01028,-0.002 0.02096,0.002 0.03125,0 0.253317,-0.04958 0.488782,-0.09656 0.75,-0.125 0.214133,-0.02333 0.437342,-0.02269 0.65625,-0.03125 z"
             inkscape:connector-curvature="0"
             id="path3488"
             style="opacity:0.3;color:#000000;fill:#000000;fill-opacity:1;fill-rule:nonzero;stroke:none;stroke-width:2;marker:none;visibility:visible;display:inline;overflow:visible;enable-background:accumulate" />
          <path
             d="M 48,20.546875 C 40.57035,20.546875 34.546875,26.57035 34.546875,34 l 0,12 c 0,7.42965 6.023475,13.453125 13.453125,13.453125 7.42965,0 13.453125,-6.023475 13.453125,-13.453125 l 0,-12 C 61.453125,26.57035 55.42965,20.546875 48,20.546875 z m 0,4.5 c 5.024202,0 8.953125,3.928923 8.953125,8.953125 l 0,12 c 0,5.024202 -3.928923,8.953125 -8.953125,8.953125 -5.024202,0 -8.953125,-3.928923 -8.953125,-8.953125 l 0,-12 c 0,-5.024202 3.928923,-8.953125 8.953125,-8.953125 z"
             inkscape:connector-curvature="0"
             id="path3974"
             style="color:#000000;fill:url(#linearGradient3983);fill-opacity:1;fill-rule:nonzero;stroke:none;stroke-width:2;marker:none;visibility:visible;display:inline;overflow:visible;enable-background:accumulate" />
          <path
             d="m 48,23.5 c -5.817,0 -10.5,4.683 -10.5,10.5 l 0,18 c 0,0.992833 0.16668,1.950256 0.421875,2.859375 2.465784,2.811147 6.04518,4.59375 10.078125,4.59375 4.032945,0 7.612341,-1.782603 10.078125,-4.59375 C 58.33332,53.950256 58.5,52.992833 58.5,52 l 0,-18 C 58.5,28.183 53.817,23.5 48,23.5 z m 0,1.546875 c 5.024202,0 8.953125,3.928923 8.953125,8.953125 l 0,12 c 0,5.024202 -3.928923,8.953125 -8.953125,8.953125 -5.024202,0 -8.953125,-3.928923 -8.953125,-8.953125 l 0,-12 c 0,-5.024202 3.928923,-8.953125 8.953125,-8.953125 z"
             inkscape:connector-curvature="0"
             id="rect3985"
             style="opacity:0.1;color:#000000;fill:#000000;fill-opacity:1;fill-rule:nonzero;stroke:none;stroke-width:2;marker:none;visibility:visible;display:inline;overflow:visible;enable-background:accumulate" />
          <path
             inkscape:connector-curvature="0"
             d="m 48,25.3125 c -3.70276,0 -6.6875,2.98474 -6.6875,6.6875 l 0,12 c 0,0.59376 0.131289,1.161696 0.28125,1.71875 1.583964,1.778496 3.838102,2.9375 6.40625,2.9375 2.568148,0 4.822286,-1.159004 6.40625,-2.9375 C 54.556211,45.161696 54.6875,44.59376 54.6875,44 l 0,-12 c 0,-3.70276 -2.98474,-6.6875 -6.6875,-6.6875 z m 0,0.40625 c 3.51969,0 6.28125,2.76156 6.28125,6.28125 l 0,8 c 0,3.51969 -2.76156,6.28125 -6.28125,6.28125 -3.51969,0 -6.28125,-2.76156 -6.28125,-6.28125 l 0,-8 c 0,-3.51969 2.76156,-6.28125 6.28125,-6.28125 z"
             transform="matrix(1.4328358,0,0,1.4813934,-20.776119,-13.094672)"
             id="path3993"
             style="opacity:0.2;color:#000000;fill:#000000;fill-opacity:1;fill-rule:nonzero;stroke:none;stroke-width:2;marker:none;visibility:visible;display:inline;overflow:visible;enable-background:accumulate" />
          <path
             d="M 48,20.546875 C 40.57035,20.546875 34.546875,26.57035 34.546875,34 l 0,12 c 0,7.205194 5.678164,13.057384 12.796875,13.40625 C 40.560149,58.727852 35.25,53.045935 35.25,46.1875 l 0,-11.8125 c 0,-7.315665 6.023475,-13.21875 13.453125,-13.21875 2.942283,0 5.660553,0.906397 7.875,2.484375 C 54.252609,21.721417 51.250472,20.546875 48,20.546875 z m 5.765625,6.515625 c 1.966135,1.628968 3.1875,4.124316 3.1875,6.9375 l 0,12 c 0,5.024202 -3.928923,8.953125 -8.953125,8.953125 -0.267028,0 -0.53646,-0.02511 -0.796875,-0.04687 0.486792,0.07758 0.987396,0.09375 1.5,0.09375 5.024202,0 8.953125,-3.86538 8.953125,-8.8125 l 0,-11.8125 c 0,-3.091952 -1.512962,-5.744303 -3.890625,-7.3125 z"
             inkscape:connector-curvature="0"
             id="path3995"
             style="opacity:0.2;color:#000000;fill:url(#linearGradient4011);fill-opacity:1;fill-rule:nonzero;stroke:none;stroke-width:2;marker:none;visibility:visible;display:inline;overflow:visible;enable-background:accumulate" />
          <path
             d="M 48,20.546875 C 40.57035,20.546875 34.546875,26.57035 34.546875,34 l 0,12 1.171875,0 0,-12 c 0,-7.22174 5.702024,-13.128953 12.84375,-13.453125 -0.189961,-0.008 -0.370582,0 -0.5625,0 z"
             inkscape:connector-curvature="0"
             id="path4013"
             style="opacity:0.1;color:#000000;fill:#000000;fill-opacity:1;fill-rule:nonzero;stroke:none;stroke-width:2;marker:none;visibility:visible;display:inline;overflow:visible;enable-background:accumulate" />
          <path
             d="m 48,20.546875 c -0.256441,0 -0.497099,0.03271 -0.75,0.04687 C 54.324177,20.9899 59.953125,26.826791 59.953125,34 l 0,12 c 0,7.173208 -5.628948,13.0101 -12.703125,13.40625 0.252901,0.0141 0.493559,0.04687 0.75,0.04687 7.42965,0 13.453125,-6.023475 13.453125,-13.453125 l 0,-12 C 61.453125,26.57035 55.42965,20.546875 48,20.546875 z m -1.5,4.5 c -5.024202,0 -8.953125,3.928923 -8.953125,8.953125 l 0,12 c 0,5.024202 3.928923,8.953125 8.953125,8.953125 0.188721,0 0.37702,-0.03594 0.5625,-0.04687 C 42.49104,54.456206 39.046875,50.710189 39.046875,46 l 0,-12 c 0,-4.710189 3.444165,-8.456207 8.015625,-8.90625 C 46.87702,25.0828 46.688721,25.04688 46.5,25.04688 z"
             inkscape:connector-curvature="0"
             id="path4024"
             style="opacity:0.15;color:#000000;fill:url(#linearGradient4039);fill-opacity:1;fill-rule:nonzero;stroke:none;stroke-width:2;marker:none;visibility:visible;display:inline;overflow:visible;enable-background:accumulate" />
          <path
             d="M 47.625,20.546875 C 54.855582,20.774045 60.65625,26.714288 60.65625,34 l 0,12 c 0,7.285711 -5.800668,13.225954 -13.03125,13.453125 0.12708,0.0036 0.247054,0 0.375,0 7.42965,0 13.453125,-6.023475 13.453125,-13.453125 l 0,-12 C 61.453125,26.57035 55.42965,20.546875 48,20.546875 c -0.12795,0 -0.247912,-0.0036 -0.375,0 z m -0.421875,4.5 C 42.178923,25.046875 38.25,28.975798 38.25,34 l 0,12 c 0,5.024202 3.928923,8.953125 8.953125,8.953125 0.140955,0 0.282708,0.0062 0.421875,0 C 42.781072,54.763774 39.046875,50.89891 39.046875,46 l 0,-12 c 0,-4.89891 3.734197,-8.763774 8.578125,-8.953125 -0.13917,-0.0061 -0.280921,0 -0.421875,0 z"
             inkscape:connector-curvature="0"
             id="path4041"
             style="opacity:0.2;color:#000000;fill:#000000;fill-opacity:1;fill-rule:nonzero;stroke:none;stroke-width:2;marker:none;visibility:visible;display:inline;overflow:visible;enable-background:accumulate" />
          <path
             d="m 47.953125,22.75 1.171875,0.04687 0.04687,0 1.078125,0.1875 0.04687,0 1.03125,0.28125 0.04687,0 0.984375,0.328125 0.04687,0.04687 0.9375,0.421875 0.04687,0.04687 0.890625,0.515625 0.04687,0.04687 0.234375,0.1875 L 55.265625,25 55.734375,24.484375 55.59375,23.78125 55.453125,23.6875 55.171875,23.453125 55.125,23.40625 54.140625,22.796875 54.046875,22.75 l -1.03125,-0.46875 -0.09375,-0.04687 -1.078125,-0.421875 -0.09375,0 -1.125,-0.28125 -0.09375,-0.04687 -1.171875,-0.1875 -0.09375,0 -1.21875,-0.04687 c -1.434468,-0.10008 -1.728376,1.633438 -0.09375,1.5 z m -6,0 -0.09375,0.04687 -0.984375,0.609375 -0.04687,0.04687 -0.9375,0.65625 -0.04687,0.04687 L 39,24.953125 38.953125,25 l -0.796875,0.84375 -0.04687,0.04687 -0.65625,0.9375 -0.04687,0.04687 -0.609375,0.984375 -0.04687,0.09375 -0.421875,0.9375 0,0.703125 0.609375,0.375 0.65625,-0.28125 0.09375,-0.1875 0.375,-0.84375 0.04687,-0.04687 0.515625,-0.890625 0.04687,-0.04687 0.609375,-0.796875 0.04687,-0.04687 0.703125,-0.75 0.04687,0 0,-0.04687 0.75,-0.703125 0.04687,-0.04687 0.796875,-0.609375 0.04687,-0.04687 0.890625,-0.515625 0.04687,-0.04687 0.890625,-0.375 C 44.614386,22.986946 43.5,22 42.890625,22.328125 z"
             inkscape:connector-curvature="0"
             id="rect4052"
             style="font-size:medium;font-style:normal;font-variant:normal;font-weight:normal;font-stretch:normal;text-indent:0;text-align:start;text-decoration:none;line-height:normal;letter-spacing:normal;word-spacing:normal;text-transform:none;direction:ltr;block-progression:tb;writing-mode:lr-tb;text-anchor:start;baseline-shift:baseline;opacity:0.3;color:#000000;fill:#ffffff;fill-opacity:1;stroke:none;stroke-width:1;marker:none;visibility:visible;display:inline;overflow:visible;enable-background:accumulate;font-family:Sans;-inkscape-font-specification:Sans" />
          <path
             inkscape:connector-curvature="0"
             d="m 48.03125,23.6875 c -0.399301,-0.02786 -0.575897,0.194836 -0.59375,0.34375 -0.0089,0.07446 -0.0071,0.132508 0.0625,0.1875 0.06958,0.05499 0.198694,0.113244 0.4375,0.09375 a 0.19490146,0.19490146 0 0 1 0.03125,0 l 0.78125,0.03125 0.03125,0 a 0.19490146,0.19490146 0 0 1 0.03125,0 l 0.6875,0.125 0.03125,0 a 0.19490146,0.19490146 0 0 1 0.03125,0 0.19490146,0.19490146 0 0 1 0.03125,0 l 0.625,0.1875 0.0625,0 a 0.19490146,0.19490146 0 0 1 0.03125,0 l 0.65625,0.21875 a 0.19490146,0.19490146 0 0 1 0.0625,0.03125 l 0.625,0.28125 a 0.19490146,0.19490146 0 0 1 0.03125,0.03125 0.19490146,0.19490146 0 0 1 0,0.03125 l 0.03125,0.03125 0.5625,0.3125 a 0.19490146,0.19490146 0 0 1 0.03125,0 0.19490146,0.19490146 0 0 1 0,0.03125 l 0.03125,0 0.125,0.09375 L 52.5,25.75 l 0.25,0.03125 0.1875,-0.1875 -0.0625,-0.3125 a 0.19490146,0.19490146 0 0 1 -0.03125,0 L 52.65625,25.125 a 0.19490146,0.19490146 0 0 1 0,-0.03125 L 52.625,25.0625 52,24.6875 52,24.71875 51.9375,24.6875 51.25,24.375 l -0.03125,-0.03125 -0.03125,0 L 50.5,24.0625 a 0.19490146,0.19490146 0 0 1 -0.03125,0 0.19490146,0.19490146 0 0 1 -0.03125,0 l -0.75,-0.1875 a 0.19490146,0.19490146 0 0 1 -0.03125,0 l -0.0625,-0.03125 -0.6875,-0.125 -0.03125,0 -0.03125,0 -0.8125,-0.03125 z M 44.6875,24.375 a 0.19490146,0.19490146 0 0 1 0,0.03125 L 44.0625,24.6875 44,24.71875 l 0,-0.03125 -0.625,0.375 -0.03125,0.03125 a 0.19490146,0.19490146 0 0 1 0,0.03125 l -0.625,0.4375 -0.03125,0 a 0.19490146,0.19490146 0 0 1 0,0.03125 L 42.125,26.125 41.59375,26.6875 a 0.19490146,0.19490146 0 0 1 -0.03125,0 l 0,0.03125 -0.4375,0.625 a 0.19490146,0.19490146 0 0 1 -0.03125,0 L 41.0625,27.375 40.6875,28 l 0.03125,0 -0.03125,0.0625 -0.28125,0.625 0,0.28125 0.21875,0.125 0.28125,-0.125 0.03125,-0.0625 0.25,-0.5625 a 0.19490146,0.19490146 0 0 1 0.03125,-0.03125 0.19490146,0.19490146 0 0 1 0.03125,0 l 0.03125,-0.03125 0.3125,-0.5625 a 0.19490146,0.19490146 0 0 1 0,-0.03125 0.19490146,0.19490146 0 0 1 0.03125,0 l 0,-0.03125 0.40625,-0.53125 a 0.19490146,0.19490146 0 0 1 0.03125,0 l 0,-0.03125 0.46875,-0.46875 a 0.19490146,0.19490146 0 0 1 0,-0.03125 0.19490146,0.19490146 0 0 1 0.03125,-0.03125 0.19490146,0.19490146 0 0 1 0.03125,0 0.19490146,0.19490146 0 0 1 0,-0.03125 l 0.03125,0 0.46875,-0.46875 0.03125,0 a 0.19490146,0.19490146 0 0 1 0,-0.03125 l 0.53125,-0.40625 0.03125,0 a 0.19490146,0.19490146 0 0 1 0.03125,-0.03125 l 0.5625,-0.3125 L 44.3125,25.25 a 0.19490146,0.19490146 0 0 1 0.0625,-0.0625 l 0.5625,-0.21875 c 0.02063,-0.01354 0.01444,-0.01822 0.03125,-0.03125 0.103282,-0.08006 0.145812,-0.16503 0.15625,-0.21875 0.01214,-0.06247 -0.01479,-0.124279 -0.0625,-0.1875 -0.04771,-0.06322 -0.110698,-0.13087 -0.1875,-0.15625 -0.0768,-0.02538 -0.143675,-0.0236 -0.1875,0 z"
             transform="matrix(1.5,0,0,1.5,-24,-14)"
             id="path4061"
             style="font-size:medium;font-style:normal;font-variant:normal;font-weight:normal;font-stretch:normal;text-indent:0;text-align:start;text-decoration:none;line-height:normal;letter-spacing:normal;word-spacing:normal;text-transform:none;direction:ltr;block-progression:tb;writing-mode:lr-tb;text-anchor:start;baseline-shift:baseline;opacity:0.6;color:#000000;fill:#ffffff;fill-opacity:1;stroke:none;stroke-width:1;marker:none;visibility:visible;display:inline;overflow:visible;enable-background:accumulate;font-family:Sans;-inkscape-font-specification:Sans" />
          <rect
             width="36"
             height="9"
             rx="1.5"
             ry="1.5"
             x="30"
             y="43"
             id="rect3138"
             style="color:#000000;fill:url(#linearGradient3933);fill-opacity:1;fill-rule:nonzero;stroke:none;stroke-width:2;marker:none;visibility:visible;display:inline;overflow:visible;enable-background:accumulate" />
          <path
             d="M 31.5,43 C 30.669,43 30,43.669 30,44.5 l 0,1.5 c 0,-0.831 0.669,-1.5 1.5,-1.5 l 33,0 c 0.831,0 1.5,0.669 1.5,1.5 l 0,-1.5 C 66,43.669 65.331,43 64.5,43 l -33,0 z"
             inkscape:connector-curvature="0"
             id="rect3148"
             style="opacity:0.3;color:#000000;fill:#ffffff;fill-opacity:1;fill-rule:nonzero;stroke:none;stroke-width:2;marker:none;visibility:visible;display:inline;overflow:visible;enable-background:accumulate" />
          <path
             d="m 30,49 0,1.5 c 0,0.831 0.669,1.5 1.5,1.5 l 33,0 C 65.331,52 66,51.331 66,50.5 L 66,49 c 0,0.831 -0.669,1.5 -1.5,1.5 l -33,0 C 30.669,50.5 30,49.831 30,49 z"
             inkscape:connector-curvature="0"
             id="rect3921"
             style="opacity:0.15;color:#000000;fill:#a05a2c;fill-opacity:1;fill-rule:nonzero;stroke:none;stroke-width:2;marker:none;visibility:visible;display:inline;overflow:visible;enable-background:accumulate" />
          <rect
             width="36"
             height="9"
             rx="1.5"
             ry="1.5"
             x="30"
             y="52"
             id="rect3939"
             style="color:#000000;fill:url(#linearGradient3945);fill-opacity:1;fill-rule:nonzero;stroke:none;stroke-width:2;marker:none;visibility:visible;display:inline;overflow:visible;enable-background:accumulate" />
          <path
             d="M 31.5,52 C 30.669,52 30,52.669 30,53.5 l 0,1.5 c 0,-0.831 0.669,-1.5 1.5,-1.5 l 33,0 c 0.831,0 1.5,0.669 1.5,1.5 l 0,-1.5 C 66,52.669 65.331,52 64.5,52 l -33,0 z"
             inkscape:connector-curvature="0"
             id="path3941"
             style="opacity:0.3;color:#000000;fill:#ffffff;fill-opacity:1;fill-rule:nonzero;stroke:none;stroke-width:2;marker:none;visibility:visible;display:inline;overflow:visible;enable-background:accumulate" />
          <path
             d="m 30,58 0,1.5 c 0,0.831 0.669,1.5 1.5,1.5 l 33,0 C 65.331,61 66,60.331 66,59.5 L 66,58 c 0,0.831 -0.669,1.5 -1.5,1.5 l -33,0 C 30.669,59.5 30,58.831 30,58 z"
             inkscape:connector-curvature="0"
             id="path3943"
             style="opacity:0.15;color:#000000;fill:#a05a2c;fill-opacity:1;fill-rule:nonzero;stroke:none;stroke-width:2;marker:none;visibility:visible;display:inline;overflow:visible;enable-background:accumulate" />
          <rect
             width="36"
             height="9"
             rx="1.5"
             ry="1.5"
             x="30"
             y="61"
             id="rect3947"
             style="color:#000000;fill:url(#linearGradient3954);fill-opacity:1;fill-rule:nonzero;stroke:none;stroke-width:2;marker:none;visibility:visible;display:inline;overflow:visible;enable-background:accumulate" />
          <path
             d="M 31.5,61 C 30.669,61 30,61.669 30,62.5 l 0,1.5 c 0,-0.831 0.669,-1.5 1.5,-1.5 l 33,0 c 0.831,0 1.5,0.669 1.5,1.5 l 0,-1.5 C 66,61.669 65.331,61 64.5,61 l -33,0 z"
             inkscape:connector-curvature="0"
             id="path3949"
             style="opacity:0.3;color:#000000;fill:#ffffff;fill-opacity:1;fill-rule:nonzero;stroke:none;stroke-width:2;marker:none;visibility:visible;display:inline;overflow:visible;enable-background:accumulate" />
          <path
             d="m 30,67 0,1.5 c 0,0.831 0.669,1.5 1.5,1.5 l 33,0 C 65.331,70 66,69.331 66,68.5 L 66,67 c 0,0.831 -0.669,1.5 -1.5,1.5 l -33,0 C 30.669,68.5 30,67.831 30,67 z"
             inkscape:connector-curvature="0"
             id="path3952"
             style="opacity:0.15;color:#000000;fill:#a05a2c;fill-opacity:1;fill-rule:nonzero;stroke:none;stroke-width:2;marker:none;visibility:visible;display:inline;overflow:visible;enable-background:accumulate" />
        </g>
      </g>
    </g>
    <rect
       ry="25"
       rx="25"
       id="rect3003"
       style="opacity:0.15;fill:#ffffff;fill-opacity:1"
       height="92"
       width="92"
       y="958.36218"
       x="-96"
       clip-path="url(#clipPath3009)"
       transform="translate(98,0)" />
  </g>
</svg>
