<?xml version="1.0" encoding="UTF-8" standalone="no"?>
<!-- Created with Inkscape (http://www.inkscape.org/) -->

<svg
   xmlns:dc="http://purl.org/dc/elements/1.1/"
   xmlns:cc="http://creativecommons.org/ns#"
   xmlns:rdf="http://www.w3.org/1999/02/22-rdf-syntax-ns#"
   xmlns:svg="http://www.w3.org/2000/svg"
   xmlns="http://www.w3.org/2000/svg"
   xmlns:xlink="http://www.w3.org/1999/xlink"
   xmlns:sodipodi="http://sodipodi.sourceforge.net/DTD/sodipodi-0.dtd"
   xmlns:inkscape="http://www.inkscape.org/namespaces/inkscape"
   width="96"
   height="96"
   id="svg11037"
   version="1.1"
   inkscape:version="0.48.3.1 r9886"
   sodipodi:docname="templat.svg">
  <defs
     id="defs11039">
    <linearGradient
       y2="1046.1001"
       x2="47.999954"
       y1="962.62189"
       x1="47.999954"
       gradientTransform="matrix(1.15,0,0,1.15,-7.1999462,-150.65291)"
       gradientUnits="userSpaceOnUse"
       id="linearGradient3886"
       xlink:href="#linearGradient3795"
       inkscape:collect="always" />
    <linearGradient
       id="linearGradient3795">
      <stop
         style="stop-color:#13a6fd;stop-opacity:1;"
         offset="0"
         id="stop3797" />
      <stop
         style="stop-color:#2975b6;stop-opacity:1;"
         offset="1"
         id="stop3799" />
    </linearGradient>
    <linearGradient
       y2="1046.1001"
       x2="47.999954"
       y1="962.62189"
       x1="47.999954"
       gradientTransform="matrix(1.15,0,0,1.15,-7.1999462,-150.65292)"
       gradientUnits="userSpaceOnUse"
       id="linearGradient11642"
       xlink:href="#linearGradient3795"
       inkscape:collect="always" />
    <clipPath
       clipPathUnits="userSpaceOnUse"
       id="clipPath3009">
      <path
         id="path3011"
         d="m -2,956.36218 -96,0 0,33.5624 96,25.68742 0,-59.24982 z"
         style="opacity:0.15;fill:#ffffff;fill-opacity:1;stroke:none"
         inkscape:connector-curvature="0" />
    </clipPath>
    <linearGradient
       x1="48"
       y1="90"
       x2="48"
       y2="5.9877172"
       id="linearGradient3617"
       xlink:href="#ButtonColor"
       gradientUnits="userSpaceOnUse" />
    <linearGradient
       x1="58.650177"
       y1="122"
       x2="58.650177"
       y2="5.4252338"
       id="ButtonColor"
       gradientUnits="userSpaceOnUse">
      <stop
         id="stop3189"
         style="stop-color:#d18c1d;stop-opacity:1"
         offset="0" />
      <stop
         id="stop3191"
         style="stop-color:#ffcf0f;stop-opacity:1"
         offset="1" />
    </linearGradient>
    <linearGradient
       x1="56.466431"
       y1="11.349823"
       x2="56.466431"
       y2="36.26585"
       id="linearGradient3198"
       xlink:href="#linearGradient3192"
       gradientUnits="userSpaceOnUse" />
    <linearGradient
       id="linearGradient3192">
      <stop
         id="stop3194"
         style="stop-color:#000000;stop-opacity:1"
         offset="0" />
      <stop
         id="stop3196"
         style="stop-color:#000000;stop-opacity:0"
         offset="1" />
    </linearGradient>
    <linearGradient
       x1="56.466431"
       y1="11.349823"
       x2="56.466431"
       y2="36.26585"
       id="linearGradient3193"
       xlink:href="#linearGradient3192"
       gradientUnits="userSpaceOnUse" />
    <linearGradient
       id="linearGradient3087">
      <stop
         id="stop3089"
         style="stop-color:#000000;stop-opacity:1"
         offset="0" />
      <stop
         id="stop3091"
         style="stop-color:#000000;stop-opacity:0"
         offset="1" />
    </linearGradient>
    <linearGradient
       x1="56.466431"
       y1="11.349823"
       x2="56.466431"
       y2="36.26585"
       id="linearGradient3195"
       xlink:href="#linearGradient3192"
       gradientUnits="userSpaceOnUse" />
    <linearGradient
       id="linearGradient3094">
      <stop
         id="stop3096"
         style="stop-color:#000000;stop-opacity:1"
         offset="0" />
      <stop
         id="stop3098"
         style="stop-color:#000000;stop-opacity:0"
         offset="1" />
    </linearGradient>
    <linearGradient
       x1="56.466431"
       y1="11.349823"
       x2="56.466431"
       y2="36.26585"
       id="linearGradient3197"
       xlink:href="#linearGradient3192"
       gradientUnits="userSpaceOnUse" />
    <linearGradient
       id="linearGradient3101">
      <stop
         id="stop3103"
         style="stop-color:#000000;stop-opacity:1"
         offset="0" />
      <stop
         id="stop3105"
         style="stop-color:#000000;stop-opacity:0"
         offset="1" />
    </linearGradient>
    <linearGradient
       x1="56.466431"
       y1="11.349823"
       x2="56.466431"
       y2="36.26585"
       id="linearGradient3199"
       xlink:href="#linearGradient3192"
       gradientUnits="userSpaceOnUse" />
    <linearGradient
       id="linearGradient3108">
      <stop
         id="stop3110"
         style="stop-color:#000000;stop-opacity:1"
         offset="0" />
      <stop
         id="stop3112"
         style="stop-color:#000000;stop-opacity:0"
         offset="1" />
    </linearGradient>
    <linearGradient
       x1="48"
       y1="20.220806"
       x2="48"
       y2="138.66119"
       id="linearGradient3613"
       xlink:href="#linearGradient3737"
       gradientUnits="userSpaceOnUse" />
    <linearGradient
       id="linearGradient3737">
      <stop
         id="stop3739"
         style="stop-color:#ffffff;stop-opacity:1"
         offset="0" />
      <stop
         id="stop3741"
         style="stop-color:#ffffff;stop-opacity:0"
         offset="1" />
    </linearGradient>
    <clipPath
       id="clipPath3613">
      <rect
         width="84"
         height="84"
         rx="6"
         ry="6"
         x="6"
         y="6"
         id="rect3615"
         style="fill:#ffffff;fill-opacity:1;fill-rule:nonzero;stroke:none" />
    </clipPath>
    <filter
       x="-0.192"
       y="-0.192"
       width="1.3839999"
       height="1.3839999"
       color-interpolation-filters="sRGB"
       id="filter3794">
      <feGaussianBlur
         id="feGaussianBlur3796"
         stdDeviation="5.28" />
    </filter>
    <clipPath
       id="clipPath3865">
      <path
         d="m -88,6 c -3.324,0 -6,2.676 -6,6 l 0,72 c 0,3.324 2.676,6 6,6 l 72,0 c 3.324,0 6,-2.676 6,-6 l 0,-72 c 0,-3.324 -2.676,-6 -6,-6 l -72,0 z m 33.625,22 c 1.880448,-0.06833 3.788449,0.959903 4.75,2.90625 0.579908,1.173833 0.630329,3.073374 0.125,4.40625 -0.761049,2.007369 -2.527947,3.21875 -4.6875,3.21875 -1.137164,0 -1.202239,0.0223 -1.125,0.375 0.04475,0.204342 0.323856,4.66007 0.625,9.90625 0.412151,7.179997 0.511906,9.704677 0.375,10.21875 -0.100033,0.375618 -0.156526,0.731501 -0.125,0.78125 1.574006,0.888629 3.192056,1.799209 4.90625,2.3125 1.336222,-1.877455 3.772107,-4.744143 4.25,-4.96875 3.317966,-0.462086 6.880559,-0.480621 10.1875,0.03125 5.657377,6.560115 11.174834,13.764075 16.1875,20.84375 l -41.25,0.09375 8.71875,-13.75 c -0.03569,-0.02979 -2.808198,-1.483462 -6.1875,-3.25 -5.496689,-2.873399 -6.638586,-3.372067 -6.625,-2.90625 0.0022,0.07386 0.421884,1.875646 0.9375,4 l 1.1875,3.84375 0.03125,5.625 c 0.01843,5.443247 -0.0022,5.661679 -0.34375,6 -0.375441,0.371853 -1.112829,0.396687 -3.3125,0.1875 -0.792649,-0.07539 -1.840876,-0.406019 -2.125,-0.6875 l 0.03125,-11.625 -0.9375,-3.6875 -0.9375,-3.6875 -5.1875,9 c -2.848853,4.962604 -5.472239,9.333029 -5.8125,9.6875 -0.86375,0.899818 -1.354531,0.838846 -2.84375,-0.25 -1.275231,-0.932391 -1.572539,-1.383605 -1.40625,-2.25 0.149834,-0.780644 0.01677,-0.546097 6.09375,-11.125 3.011727,-5.242855 5.523305,-9.703165 5.5625,-9.90625 0.06098,-0.31595 -0.193363,-0.503911 -1.78125,-1.34375 -1.833623,-0.96981 -1.875906,-0.977232 -2.125,-0.625 -0.442438,0.625627 -1.074526,0.451733 -2.3125,-0.65625 -1.698831,-1.520448 -1.745074,-1.297229 2,-8.28125 1.698047,-3.166613 3.271023,-5.951186 3.5,-6.1875 l 0.40625,-0.40625 7.4375,-0.0625 7.4375,-0.0625 L -59,34.9375 c -0.591495,-1.88561 0.02988,-4.22107 1.46875,-5.59375 0.915574,-0.873465 2.027981,-1.302753 3.15625,-1.34375 z m -14.5,13.25 c -0.253538,1.82e-4 -0.598734,0.01989 -1.03125,0.03125 L -71.75,41.34375 -73.71875,45 c -1.084031,2.025217 -1.949573,3.738343 -1.90625,3.78125 0.110518,0.109463 3.300355,1.74815 3.40625,1.75 0.04772,8.18e-4 0.962794,-1.959126 2.03125,-4.34375 1.068455,-2.384626 1.96681,-4.487517 2.03125,-4.65625 0.08147,-0.213327 0.04187,-0.281796 -0.71875,-0.28125 z m 9.4375,7 c -0.147081,-0.02701 -0.580386,0.857379 -1.6875,3.34375 -0.896631,2.013671 -1.656072,3.720382 -1.6875,3.78125 -0.06085,0.117854 3.815701,2.179108 3.9375,2.09375 0.03957,-0.02773 -0.03025,-2.019282 -0.15625,-4.40625 -0.126001,-2.386971 -0.285188,-4.532318 -0.34375,-4.75 -0.01033,-0.0384 -0.04149,-0.05864 -0.0625,-0.0625 z"
         inkscape:connector-curvature="0"
         id="path3867"
         style="fill:#ffffff;fill-opacity:1;fill-rule:nonzero;stroke:none" />
    </clipPath>
    <filter
       x="-0.10549754"
       y="-0.13912515"
       width="1.2109951"
       height="1.2782503"
       color-interpolation-filters="sRGB"
       id="filter3861">
      <feGaussianBlur
         id="feGaussianBlur3863"
         stdDeviation="2.9050996" />
    </filter>
    <clipPath
       id="clipPath3873">
      <path
         d="m -55.763593,76.871041 c -0.792649,-0.07539 -1.81409,-0.394056 -2.098214,-0.675537 l 0.0091,-11.629569 -0.938143,-3.695097 -0.938143,-3.695097 -5.179737,9.022914 c -2.848853,4.962604 -5.458134,9.312939 -5.798395,9.66741 -0.86375,0.899818 -1.365788,0.859482 -2.855007,-0.229364 -1.275231,-0.932391 -1.561174,-1.396213 -1.394885,-2.262608 0.149834,-0.780644 0.01978,-0.543388 6.096765,-11.122291 3.011727,-5.242855 5.507937,-9.698625 5.547132,-9.90171 0.06098,-0.31595 -0.196572,-0.510905 -1.784459,-1.350744 -1.833623,-0.96981 -1.858729,-0.977254 -2.107823,-0.625022 -0.442438,0.625627 -1.076735,0.443555 -2.314709,-0.664428 -1.698831,-1.520448 -1.757699,-1.275786 1.987375,-8.259807 1.698047,-3.166613 3.274703,-5.950827 3.50368,-6.187141 l 0.416322,-0.429663 7.438682,-0.04987 7.438685,-0.04987 -0.253918,-0.809459 c -0.591495,-1.88561 0.0095,-4.19663 1.448371,-5.56931 2.441532,-2.329241 6.363975,-1.555682 7.902456,1.558473 0.579908,1.173833 0.635892,3.055549 0.130563,4.388425 -0.761049,2.007369 -2.533852,3.225841 -4.693405,3.225841 -1.137164,0 -1.193753,0.01883 -1.116514,0.371533 0.04475,0.204342 0.327755,4.66386 0.628899,9.91004 0.412151,7.179997 0.502564,9.707373 0.365658,10.221446 -0.100033,0.375618 -0.156083,0.723641 -0.124557,0.77339 1.574006,0.888629 3.190563,1.801476 4.904757,2.314767 1.336222,-1.877455 3.797333,-4.729212 4.275226,-4.953819 3.317966,-0.462086 6.852918,-0.488971 10.159859,0.0229 5.657377,6.560115 11.18443,13.764926 16.197096,20.844601 l -41.233706,0.08249 8.713509,-13.734918 c -0.03569,-0.02979 -2.829765,-1.499502 -6.209067,-3.26604 -5.496689,-2.873399 -6.619512,-3.366421 -6.605926,-2.900604 0.0022,0.07386 0.425783,1.872406 0.941399,3.99676 l 1.19002,3.862467 0.01906,5.627061 c 0.01843,5.443247 0.0075,5.638485 -0.334064,5.976806 -0.375441,0.371853 -1.134271,0.403831 -3.333942,0.194644 z m 6.720887,-24.807932 c -0.126001,-2.386971 -0.277007,-4.518048 -0.335569,-4.73573 -0.08264,-0.307176 -0.471447,0.423869 -1.73672,3.265436 -0.896631,2.013671 -1.655958,3.711021 -1.687386,3.771889 -0.06085,0.117854 3.795022,2.174125 3.916821,2.088767 0.03957,-0.02773 -0.03115,-2.003394 -0.157146,-4.390362 z m -11.15999,-6.878865 c 1.068455,-2.384626 1.995368,-4.473735 2.059808,-4.642468 0.108626,-0.284436 -0.01879,-0.30322 -1.748855,-0.257798 l -1.866016,0.04899 -1.970962,3.682213 c -1.084031,2.025217 -1.935518,3.717322 -1.892195,3.760229 0.110518,0.109463 3.282916,1.741151 3.388811,1.743001 0.04772,8.18e-4 0.960953,-1.949543 2.029409,-4.334167 z"
         inkscape:connector-curvature="0"
         id="path3875"
         style="fill:#ffffff;fill-opacity:1;display:inline" />
    </clipPath>
    <filter
       color-interpolation-filters="sRGB"
       id="filter3881">
      <feGaussianBlur
         id="feGaussianBlur3883"
         stdDeviation="0.58101993" />
    </filter>
    <clipPath
       clipPathUnits="userSpaceOnUse"
       id="clipPath3112">
      <rect
         x="6"
         y="6.0000038"
         width="84"
         height="84"
         style="fill:url(#linearGradient3116);fill-opacity:1"
         id="rect3114"
         rx="22.826086"
         ry="22.826086" />
    </clipPath>
    <linearGradient
       inkscape:collect="always"
       xlink:href="#linearGradient3795"
       id="linearGradient3116"
       gradientUnits="userSpaceOnUse"
       gradientTransform="matrix(1.05,0,0,1.05,-2.3999508,-1006.579)"
       x1="47.999954"
       y1="962.62189"
       x2="47.999954"
       y2="1046.1001" />
  </defs>
  <sodipodi:namedview
     id="base"
     pagecolor="#ffffff"
     bordercolor="#666666"
     borderopacity="1.0"
     inkscape:pageopacity="0.0"
     inkscape:pageshadow="2"
     inkscape:zoom="3.959798"
     inkscape:cx="33.538031"
     inkscape:cy="59.964634"
     inkscape:document-units="px"
     inkscape:current-layer="layer1"
     showgrid="false"
     inkscape:window-width="1280"
     inkscape:window-height="750"
     inkscape:window-x="0"
     inkscape:window-y="22"
     inkscape:window-maximized="1"
     showguides="true"
     inkscape:guide-bbox="true">
    <sodipodi:guide
       orientation="0,1"
       position="-24.748737,0"
       id="guide11064" />
    <sodipodi:guide
       orientation="0,1"
       position="-23.233509,96"
       id="guide11066" />
    <sodipodi:guide
       orientation="1,0"
       position="0,54.800776"
       id="guide11068" />
    <sodipodi:guide
       orientation="1,0"
       position="96,51.012704"
       id="guide11070" />
    <sodipodi:guide
       orientation="0,1"
       position="-18.94036,48"
       id="guide11072" />
    <sodipodi:guide
       orientation="1,0"
       position="48,79.296975"
       id="guide11074" />
    <sodipodi:guide
       orientation="1,0"
       position="2,75.508903"
       id="guide11076" />
    <sodipodi:guide
       orientation="0,1"
       position="-77.27667,2"
       id="guide11078" />
    <sodipodi:guide
       orientation="1,0"
       position="94,77.781746"
       id="guide11080" />
    <sodipodi:guide
       orientation="0,1"
       position="-65.912454,94"
       id="guide11082" />
  </sodipodi:namedview>
  <metadata
     id="metadata11042">
    <rdf:RDF>
      <cc:Work
         rdf:about="">
        <dc:format>image/svg+xml</dc:format>
        <dc:type
           rdf:resource="http://purl.org/dc/dcmitype/StillImage" />
        <dc:title></dc:title>
      </cc:Work>
    </rdf:RDF>
  </metadata>
  <g
     inkscape:label="Layer 1"
     inkscape:groupmode="layer"
     id="layer1"
     transform="translate(0,-956.36218)">
    <g
       transform="matrix(1.0952381,0,0,1.0952381,-4.5714286,951.79075)"
       id="g3054"
       clip-path="url(#clipPath3112)">
      <rect
         style="fill:url(#linearGradient3617);fill-opacity:1;fill-rule:nonzero;stroke:none;display:inline"
         id="rect2419"
         y="6"
         x="6"
         ry="6"
         rx="6"
         height="84"
         width="84" />
      <g
         style="fill:url(#linearGradient3198);fill-opacity:1;display:inline"
         id="g4638"
         transform="matrix(0.71698113,0,0,0.75,2.8301887,1.5)">
        <path
           style="opacity:0.8;fill:url(#linearGradient3193);fill-opacity:1;fill-rule:evenodd;stroke:none"
           id="rect4629"
           inkscape:connector-curvature="0"
           d="M 18,6 34,6 26,22 10,22 18,6 z" />
        <path
           style="opacity:0.8;fill:url(#linearGradient3195);fill-opacity:1;fill-rule:evenodd;stroke:none"
           id="path4632"
           inkscape:connector-curvature="0"
           d="M 44,6 60,6 52,22 36,22 44,6 z" />
        <path
           style="opacity:0.8;fill:url(#linearGradient3197);fill-opacity:1;fill-rule:evenodd;stroke:none"
           id="path4634"
           inkscape:connector-curvature="0"
           d="M 72,6 88,6 80,22 64,22 72,6 z" />
        <path
           style="opacity:0.8;fill:url(#linearGradient3199);fill-opacity:1;fill-rule:evenodd;stroke:none"
           id="path4636"
           inkscape:connector-curvature="0"
           d="m 100,6 16,0 -8,16 -16,0 8,-16 z" />
      </g>
      <g
         id="layer5">
        <rect
           style="opacity:0.1;fill:url(#linearGradient3613);fill-opacity:1;fill-rule:nonzero;stroke:#ffffff;stroke-width:0.5;stroke-linecap:round;stroke-linejoin:miter;stroke-miterlimit:4;stroke-opacity:1;stroke-dasharray:none;stroke-dashoffset:0;filter:url(#filter3794)"
           id="rect3171"
           clip-path="url(#clipPath3613)"
           y="15"
           x="15"
           ry="12"
           rx="12"
           height="66"
           width="66" />
      </g>
      <g
         id="layer3">
        <path
           style="opacity:0.8;fill:#feeeb7;fill-opacity:1;display:inline;filter:url(#filter3861)"
           id="path3859"
           clip-path="url(#clipPath3865)"
           transform="translate(100,0)"
           inkscape:connector-curvature="0"
           d="m -65.763593,77.871041 c -0.792649,-0.07539 -1.81409,-0.394056 -2.098214,-0.675537 l 0.0091,-11.629569 -0.938143,-3.695097 -0.938143,-3.695097 -5.179737,9.022914 c -2.848853,4.962604 -5.458134,9.312939 -5.798395,9.66741 -0.86375,0.899818 -1.365788,0.859482 -2.855007,-0.229364 -1.275231,-0.932391 -1.561174,-1.396213 -1.394885,-2.262608 0.149834,-0.780644 0.01978,-0.543388 6.096765,-11.122291 3.011727,-5.242855 5.507937,-9.698625 5.547132,-9.90171 0.06098,-0.31595 -0.196572,-0.510905 -1.784459,-1.350744 -1.833623,-0.96981 -1.858729,-0.977254 -2.107823,-0.625022 -0.442438,0.625627 -1.076735,0.443555 -2.314709,-0.664428 -1.698831,-1.520448 -1.757699,-1.275786 1.987375,-8.259807 1.698047,-3.166613 3.274703,-5.950827 3.50368,-6.187141 l 0.416322,-0.429663 7.438682,-0.04987 7.438685,-0.04987 -0.253918,-0.809459 c -0.591495,-1.88561 0.0095,-4.19663 1.448371,-5.56931 2.441532,-2.329241 6.363975,-1.555682 7.902456,1.558473 0.579908,1.173833 0.635892,3.055549 0.130563,4.388425 -0.761049,2.007369 -2.533852,3.225841 -4.693405,3.225841 -1.137164,0 -1.193753,0.01883 -1.116514,0.371533 0.04475,0.204342 0.327755,4.66386 0.628899,9.91004 0.412151,7.179997 0.502564,9.707373 0.365658,10.221446 -0.100033,0.375618 -0.156083,0.723641 -0.124557,0.77339 1.574006,0.888629 3.190563,1.801476 4.904757,2.314767 1.336222,-1.877455 3.797333,-4.729212 4.275226,-4.953819 3.317966,-0.462086 6.852918,-0.488971 10.159859,0.0229 5.657377,6.560115 11.18443,13.764926 16.197096,20.844601 l -41.233706,0.08249 8.713509,-13.734918 c -0.03569,-0.02979 -2.829765,-1.499502 -6.209067,-3.26604 -5.496689,-2.873399 -6.619512,-3.366421 -6.605926,-2.900604 0.0022,0.07386 0.425783,1.872406 0.941399,3.99676 l 1.19002,3.862467 0.01906,5.627061 c 0.01843,5.443247 0.0075,5.638485 -0.334064,5.976806 -0.375441,0.371853 -1.134271,0.403831 -3.333942,0.194644 z m 6.720887,-24.807932 c -0.126001,-2.386971 -0.277007,-4.518048 -0.335569,-4.73573 -0.08264,-0.307176 -0.471447,0.423869 -1.73672,3.265436 -0.896631,2.013671 -1.655958,3.711021 -1.687386,3.771889 -0.06085,0.117854 3.795022,2.174125 3.916821,2.088767 0.03957,-0.02773 -0.03115,-2.003394 -0.157146,-4.390362 z m -11.15999,-6.878865 c 1.068455,-2.384626 1.995368,-4.473735 2.059808,-4.642468 0.108626,-0.284436 -0.01879,-0.30322 -1.748855,-0.257798 l -1.866016,0.04899 -1.970962,3.682213 c -1.084031,2.025217 -1.935518,3.717322 -1.892195,3.760229 0.110518,0.109463 3.282916,1.741151 3.388811,1.743001 0.04772,8.18e-4 0.960953,-1.949543 2.029409,-4.334167 z" />
        <path
           style="fill:#3a2d01;fill-opacity:1;display:inline"
           id="path3856"
           inkscape:connector-curvature="0"
           d="m 34.236407,77.871041 c -0.792649,-0.07539 -1.81409,-0.394056 -2.098214,-0.675537 l 0.0091,-11.629569 -0.938143,-3.695097 -0.938143,-3.695097 -5.179737,9.022914 c -2.848853,4.962604 -5.458134,9.312939 -5.798395,9.66741 -0.86375,0.899818 -1.365788,0.859482 -2.855007,-0.229364 -1.275231,-0.932391 -1.561174,-1.396213 -1.394885,-2.262608 0.149834,-0.780644 0.01978,-0.543388 6.096765,-11.122291 3.011727,-5.242855 5.507937,-9.698625 5.547132,-9.90171 0.06098,-0.31595 -0.196572,-0.510905 -1.784459,-1.350744 -1.833623,-0.96981 -1.858729,-0.977254 -2.107823,-0.625022 -0.442438,0.625627 -1.076735,0.443555 -2.314709,-0.664428 -1.698831,-1.520448 -1.757699,-1.275786 1.987375,-8.259807 1.698047,-3.166613 3.274703,-5.950827 3.50368,-6.187141 l 0.416322,-0.429663 7.438682,-0.04987 7.438685,-0.04987 -0.253918,-0.809459 c -0.591495,-1.88561 0.0095,-4.19663 1.448371,-5.56931 2.441532,-2.329241 6.363975,-1.555682 7.902456,1.558473 0.579908,1.173833 0.635892,3.055549 0.130563,4.388425 -0.761049,2.007369 -2.533852,3.225841 -4.693405,3.225841 -1.137164,0 -1.193753,0.01883 -1.116514,0.371533 0.04475,0.204342 0.327755,4.66386 0.628899,9.91004 0.412151,7.179997 0.502564,9.707373 0.365658,10.221446 -0.100033,0.375618 -0.156083,0.723641 -0.124557,0.77339 1.574006,0.888629 3.190563,1.801476 4.904757,2.314767 1.336222,-1.877455 3.797333,-4.729212 4.275226,-4.953819 3.317966,-0.462086 6.852918,-0.488971 10.159859,0.0229 5.657377,6.560115 11.18443,13.764926 16.197096,20.844601 l -41.233706,0.08249 8.713509,-13.734918 c -0.03569,-0.02979 -2.829765,-1.499502 -6.209067,-3.26604 -5.496689,-2.873399 -6.619512,-3.366421 -6.605926,-2.900604 0.0022,0.07386 0.425783,1.872406 0.941399,3.99676 l 1.19002,3.862467 0.01906,5.627061 c 0.01843,5.443247 0.0075,5.638485 -0.334064,5.976806 -0.375441,0.371853 -1.134271,0.403831 -3.333942,0.194644 z m 6.720887,-24.807932 c -0.126001,-2.386971 -0.277007,-4.518048 -0.335569,-4.73573 -0.08264,-0.307176 -0.471447,0.423869 -1.73672,3.265436 -0.896631,2.013671 -1.655958,3.711021 -1.687386,3.771889 -0.06085,0.117854 3.795022,2.174125 3.916821,2.088767 0.03957,-0.02773 -0.03115,-2.003394 -0.157146,-4.390362 z m -11.15999,-6.878865 c 1.068455,-2.384626 1.995368,-4.473735 2.059808,-4.642468 0.108626,-0.284436 -0.01879,-0.30322 -1.748855,-0.257798 l -1.866016,0.04899 -1.970962,3.682213 c -1.084031,2.025217 -1.935518,3.717322 -1.892195,3.760229 0.110518,0.109463 3.282916,1.741151 3.388811,1.743001 0.04772,8.18e-4 0.960953,-1.949543 2.029409,-4.334167 z" />
        <path
           style="opacity:0.8;fill:none;stroke:#000000;stroke-width:1;stroke-miterlimit:4;stroke-dasharray:none;display:inline;filter:url(#filter3881)"
           id="path3869"
           clip-path="url(#clipPath3873)"
           transform="translate(90,1)"
           inkscape:connector-curvature="0"
           d="m -55.763593,77.871041 c -0.792649,-0.07539 -1.81409,-0.394056 -2.098214,-0.675537 l 0.0091,-11.629569 -0.938143,-3.695097 -0.938143,-3.695097 -5.179737,9.022914 c -2.848853,4.962604 -5.458134,9.312939 -5.798395,9.66741 -0.86375,0.899818 -1.365788,0.859482 -2.855007,-0.229364 -1.275231,-0.932391 -1.561174,-1.396213 -1.394885,-2.262608 0.149834,-0.780644 0.01978,-0.543388 6.096765,-11.122291 3.011727,-5.242855 5.507937,-9.698625 5.547132,-9.90171 0.06098,-0.31595 -0.196572,-0.510905 -1.784459,-1.350744 -1.833623,-0.96981 -1.858729,-0.977254 -2.107823,-0.625022 -0.442438,0.625627 -1.076735,0.443555 -2.314709,-0.664428 -1.698831,-1.520448 -1.757699,-1.275786 1.987375,-8.259807 1.698047,-3.166613 3.274703,-5.950827 3.50368,-6.187141 l 0.416322,-0.429663 7.438682,-0.04987 7.438685,-0.04987 -0.253918,-0.809459 c -0.591495,-1.88561 0.0095,-4.19663 1.448371,-5.56931 2.441532,-2.329241 6.363975,-1.555682 7.902456,1.558473 0.579908,1.173833 0.635892,3.055549 0.130563,4.388425 -0.761049,2.007369 -2.533852,3.225841 -4.693405,3.225841 -1.137164,0 -1.193753,0.01883 -1.116514,0.371533 0.04475,0.204342 0.327755,4.66386 0.628899,9.91004 0.412151,7.179997 0.502564,9.707373 0.365658,10.221446 -0.100033,0.375618 -0.156083,0.723641 -0.124557,0.77339 1.574006,0.888629 3.190563,1.801476 4.904757,2.314767 1.336222,-1.877455 3.797333,-4.729212 4.275226,-4.953819 3.317966,-0.462086 6.852918,-0.488971 10.159859,0.0229 5.657377,6.560115 11.18443,13.764926 16.197096,20.844601 l -41.233706,0.08249 8.713509,-13.734918 c -0.03569,-0.02979 -2.829765,-1.499502 -6.209067,-3.26604 -5.496689,-2.873399 -6.619512,-3.366421 -6.605926,-2.900604 0.0022,0.07386 0.425783,1.872406 0.941399,3.99676 l 1.19002,3.862467 0.01906,5.627061 c 0.01843,5.443247 0.0075,5.638485 -0.334064,5.976806 -0.375441,0.371853 -1.134271,0.403831 -3.333942,0.194644 z m 6.720887,-24.807932 c -0.126001,-2.386971 -0.277007,-4.518048 -0.335569,-4.73573 -0.08264,-0.307176 -0.471447,0.423869 -1.73672,3.265436 -0.896631,2.013671 -1.655958,3.711021 -1.687386,3.771889 -0.06085,0.117854 3.795022,2.174125 3.916821,2.088767 0.03957,-0.02773 -0.03115,-2.003394 -0.157146,-4.390362 z m -11.15999,-6.878865 c 1.068455,-2.384626 1.995368,-4.473735 2.059808,-4.642468 0.108626,-0.284436 -0.01879,-0.30322 -1.748855,-0.257798 l -1.866016,0.04899 -1.970962,3.682213 c -1.084031,2.025217 -1.935518,3.717322 -1.892195,3.760229 0.110518,0.109463 3.282916,1.741151 3.388811,1.743001 0.04772,8.18e-4 0.960953,-1.949543 2.029409,-4.334167 z" />
      </g>
    </g>
    <rect
       ry="25"
       rx="25"
       id="rect3003"
       style="opacity:0.15;fill:#ffffff;fill-opacity:1"
       height="92"
       width="92"
       y="958.36218"
       x="-96"
       clip-path="url(#clipPath3009)"
       transform="translate(98,0)" />
  </g>
</svg>
