<?xml version="1.0" encoding="UTF-8" standalone="no"?>
<!-- Created with Inkscape (http://www.inkscape.org/) -->

<svg
   xmlns:dc="http://purl.org/dc/elements/1.1/"
   xmlns:cc="http://creativecommons.org/ns#"
   xmlns:rdf="http://www.w3.org/1999/02/22-rdf-syntax-ns#"
   xmlns:svg="http://www.w3.org/2000/svg"
   xmlns="http://www.w3.org/2000/svg"
   xmlns:xlink="http://www.w3.org/1999/xlink"
   xmlns:sodipodi="http://sodipodi.sourceforge.net/DTD/sodipodi-0.dtd"
   xmlns:inkscape="http://www.inkscape.org/namespaces/inkscape"
   width="96"
   height="96"
   id="svg11037"
   version="1.1"
   inkscape:version="0.48.3.1 r9886"
   sodipodi:docname="templat.svg">
  <defs
     id="defs11039">
    <linearGradient
       y2="1046.1001"
       x2="47.999954"
       y1="962.62189"
       x1="47.999954"
       gradientTransform="matrix(1.15,0,0,1.15,-7.1999462,-150.65291)"
       gradientUnits="userSpaceOnUse"
       id="linearGradient3886"
       xlink:href="#linearGradient3795"
       inkscape:collect="always" />
    <linearGradient
       id="linearGradient3795">
      <stop
         style="stop-color:#13a6fd;stop-opacity:1;"
         offset="0"
         id="stop3797" />
      <stop
         style="stop-color:#2975b6;stop-opacity:1;"
         offset="1"
         id="stop3799" />
    </linearGradient>
    <linearGradient
       y2="1046.1001"
       x2="47.999954"
       y1="962.62189"
       x1="47.999954"
       gradientTransform="matrix(1.15,0,0,1.15,-7.1999462,-150.65292)"
       gradientUnits="userSpaceOnUse"
       id="linearGradient11642"
       xlink:href="#linearGradient3795"
       inkscape:collect="always" />
    <clipPath
       clipPathUnits="userSpaceOnUse"
       id="clipPath3009">
      <path
         id="path3011"
         d="m -2,956.36218 -96,0 0,33.5624 96,25.68742 0,-59.24982 z"
         style="opacity:0.15;fill:#ffffff;fill-opacity:1;stroke:none"
         inkscape:connector-curvature="0" />
    </clipPath>
    <linearGradient
       x1="48"
       y1="90"
       x2="48"
       y2="5.9877172"
       id="linearGradient3617"
       xlink:href="#linearGradient3700"
       gradientUnits="userSpaceOnUse" />
    <linearGradient
       id="linearGradient3700">
      <stop
         id="stop3702"
         style="stop-color:#4c6d37;stop-opacity:1"
         offset="0" />
      <stop
         id="stop3704"
         style="stop-color:#75ac54;stop-opacity:1"
         offset="1" />
    </linearGradient>
    <linearGradient
       x1="48"
       y1="6"
       x2="48"
       y2="109.10714"
       id="linearGradient3146"
       xlink:href="#linearGradient3737-4"
       gradientUnits="userSpaceOnUse" />
    <linearGradient
       id="linearGradient3737-4">
      <stop
         id="stop3739-4"
         style="stop-color:#fffec0;stop-opacity:1"
         offset="0" />
      <stop
         id="stop3741-3"
         style="stop-color:#ffffff;stop-opacity:0"
         offset="1" />
    </linearGradient>
    <linearGradient
       x1="48"
       y1="20.220806"
       x2="48"
       y2="138.66119"
       id="linearGradient3613"
       xlink:href="#linearGradient3737"
       gradientUnits="userSpaceOnUse" />
    <linearGradient
       id="linearGradient3737">
      <stop
         id="stop3739"
         style="stop-color:#ffffff;stop-opacity:1"
         offset="0" />
      <stop
         id="stop3741"
         style="stop-color:#ffffff;stop-opacity:0"
         offset="1" />
    </linearGradient>
    <clipPath
       id="clipPath3613">
      <rect
         width="84"
         height="84"
         rx="6"
         ry="6"
         x="6"
         y="6"
         id="rect3615"
         style="fill:#ffffff;fill-opacity:1;fill-rule:nonzero;stroke:none" />
    </clipPath>
    <filter
       x="-0.192"
       y="-0.192"
       width="1.3839999"
       height="1.3839999"
       color-interpolation-filters="sRGB"
       id="filter3794">
      <feGaussianBlur
         id="feGaussianBlur3796"
         stdDeviation="5.28" />
    </filter>
    <linearGradient
       x1="37.875"
       y1="-62"
       x2="37.875"
       y2="8.8750048"
       id="linearGradient4053"
       xlink:href="#linearGradient4088"
       gradientUnits="userSpaceOnUse"
       gradientTransform="matrix(0.88888883,0,0,0.88888883,5.3333362,71.111107)" />
    <linearGradient
       id="linearGradient4088">
      <stop
         id="stop4090"
         style="stop-color:#d5b742;stop-opacity:1"
         offset="0" />
      <stop
         id="stop4094"
         style="stop-color:#f5e6aa;stop-opacity:1"
         offset="0.34920636" />
      <stop
         id="stop4096"
         style="stop-color:#e0bf55;stop-opacity:1"
         offset="0.5714286" />
      <stop
         id="stop4092"
         style="stop-color:#8a6e24;stop-opacity:1"
         offset="1" />
    </linearGradient>
    <clipPath
       clipPathUnits="userSpaceOnUse"
       id="clipPath3070">
      <rect
         x="6"
         y="6.0000038"
         width="84"
         height="84"
         style="fill:url(#linearGradient3074);fill-opacity:1"
         id="rect3072"
         rx="22.826086"
         ry="22.826086" />
    </clipPath>
    <linearGradient
       inkscape:collect="always"
       xlink:href="#linearGradient3795"
       id="linearGradient3074"
       gradientUnits="userSpaceOnUse"
       gradientTransform="matrix(1.05,0,0,1.05,-2.3999508,-1006.579)"
       x1="47.999954"
       y1="962.62189"
       x2="47.999954"
       y2="1046.1001" />
  </defs>
  <sodipodi:namedview
     id="base"
     pagecolor="#ffffff"
     bordercolor="#666666"
     borderopacity="1.0"
     inkscape:pageopacity="0.0"
     inkscape:pageshadow="2"
     inkscape:zoom="3.959798"
     inkscape:cx="33.538031"
     inkscape:cy="59.964634"
     inkscape:document-units="px"
     inkscape:current-layer="layer1"
     showgrid="false"
     inkscape:window-width="1280"
     inkscape:window-height="750"
     inkscape:window-x="0"
     inkscape:window-y="22"
     inkscape:window-maximized="1"
     showguides="true"
     inkscape:guide-bbox="true">
    <sodipodi:guide
       orientation="0,1"
       position="-24.748737,0"
       id="guide11064" />
    <sodipodi:guide
       orientation="0,1"
       position="-23.233509,96"
       id="guide11066" />
    <sodipodi:guide
       orientation="1,0"
       position="0,54.800776"
       id="guide11068" />
    <sodipodi:guide
       orientation="1,0"
       position="96,51.012704"
       id="guide11070" />
    <sodipodi:guide
       orientation="0,1"
       position="-18.94036,48"
       id="guide11072" />
    <sodipodi:guide
       orientation="1,0"
       position="48,79.296975"
       id="guide11074" />
    <sodipodi:guide
       orientation="1,0"
       position="2,75.508903"
       id="guide11076" />
    <sodipodi:guide
       orientation="0,1"
       position="-77.27667,2"
       id="guide11078" />
    <sodipodi:guide
       orientation="1,0"
       position="94,77.781746"
       id="guide11080" />
    <sodipodi:guide
       orientation="0,1"
       position="-65.912454,94"
       id="guide11082" />
  </sodipodi:namedview>
  <metadata
     id="metadata11042">
    <rdf:RDF>
      <cc:Work
         rdf:about="">
        <dc:format>image/svg+xml</dc:format>
        <dc:type
           rdf:resource="http://purl.org/dc/dcmitype/StillImage" />
        <dc:title></dc:title>
      </cc:Work>
    </rdf:RDF>
  </metadata>
  <g
     inkscape:label="Layer 1"
     inkscape:groupmode="layer"
     id="layer1"
     transform="translate(0,-956.36218)">
    <g
       transform="matrix(1.0952381,0,0,1.0952381,-4.5714286,951.79075)"
       id="g3047"
       clip-path="url(#clipPath3070)">
      <g
         id="layer1-9">
        <rect
           style="fill:url(#linearGradient3617);fill-opacity:1;fill-rule:nonzero;stroke:none"
           id="rect2419"
           y="6"
           x="6"
           ry="6"
           rx="6"
           height="84"
           width="84" />
        <path
           style="opacity:0.3;fill:url(#linearGradient3146);fill-opacity:1;stroke:none"
           id="path4141"
           inkscape:connector-curvature="0"
           d="M 20.875,6 46.65625,46.65625 6,20.5 6,39 46.21875,48 6,56.75 6,75.125 46.65625,49.34375 20.5,90 39,90 48,49.78125 56.75,90 75.125,90 49.34375,49.34375 90,75.5 90,57 49.78125,48 90,39.25 90,20.875 49.34375,46.65625 75.5,6 57,6 48,46.21875 39.25,6 20.875,6 z" />
      </g>
      <g
         id="layer5">
        <rect
           style="opacity:0.1;fill:url(#linearGradient3613);fill-opacity:1;fill-rule:nonzero;stroke:#ffffff;stroke-width:0.5;stroke-linecap:round;stroke-linejoin:miter;stroke-miterlimit:4;stroke-opacity:1;stroke-dasharray:none;stroke-dashoffset:0;filter:url(#filter3794)"
           id="rect3171"
           clip-path="url(#clipPath3613)"
           y="15"
           x="15"
           ry="12"
           rx="12"
           height="66"
           width="66" />
      </g>
      <path
         style="font-size:73.92197418px;font-style:normal;font-variant:normal;font-weight:normal;font-stretch:normal;text-align:start;line-height:100%;writing-mode:lr-tb;text-anchor:start;opacity:0.3;fill:#000000;fill-opacity:1;stroke:none;font-family:Biohazard Participants;-inkscape-font-specification:Biohazard Participants"
         id="path4011"
         inkscape:connector-curvature="0"
         d="m 51.679672,73.837782 0,7.162218 -7.359343,0 0,-7.030801 C 40.027366,73.44353 36.654338,71.866529 34.201233,69.238193 31.748114,66.566056 30.455849,63.06161 30.324436,58.724847 l 11.893223,0.06571 c 0.04379,1.577013 0.613263,2.825472 1.70842,3.74538 1.095122,0.919926 2.453094,1.379884 4.073921,1.379876 1.401757,8e-6 2.628314,-0.350437 3.679672,-1.051334 1.226531,-0.744686 1.839809,-1.774117 1.839835,-3.088296 -2.6e-5,-1.927433 -1.971277,-3.613947 -5.913758,-5.059548 -5.869965,-2.146456 -9.527731,-3.723457 -10.973305,-4.731006 -3.942511,-2.628313 -5.913761,-6.373689 -5.913757,-11.236139 -4e-6,-3.986274 1.29226,-7.3374 3.876796,-10.053389 2.49691,-2.584485 5.738522,-4.139582 9.724846,-4.665297 l 0,-7.0308 7.359343,0 0,7.0308 c 8.542061,1.533243 12.856909,6.592785 12.944558,15.178644 l -11.63039,0 c -2.6e-5,-1.664579 -0.481887,-3.022552 -1.445585,-4.073921 -0.963748,-1.095103 -2.277915,-1.642673 -3.942506,-1.64271 -1.314187,3.7e-5 -2.453132,0.372385 -3.416837,1.117042 -1.095156,0.788537 -1.642726,1.839871 -1.642711,3.154004 -1.5e-5,1.664646 1.993139,3.263549 5.979467,4.796715 5.826118,2.146502 9.549592,3.78921 11.170431,4.928131 3.986273,2.672163 5.979427,6.351832 5.979465,11.039014 -3.8e-5,4.161542 -1.314205,7.622182 -3.942504,10.38193 -2.496952,2.584531 -5.848078,4.22724 -10.053388,4.928131" />
      <path
         style="font-size:73.92197418px;font-style:normal;font-variant:normal;font-weight:normal;font-stretch:normal;text-align:start;line-height:100%;writing-mode:lr-tb;text-anchor:start;fill:url(#linearGradient4053);fill-opacity:1;stroke:none;font-family:Biohazard Participants;-inkscape-font-specification:Biohazard Participants"
         id="path3104"
         inkscape:connector-curvature="0"
         d="m 51.679672,72.837782 0,7.162218 -7.359343,0 0,-7.030801 C 40.027366,72.44353 36.654338,70.866529 34.201233,68.238193 31.748114,65.566056 30.455849,62.06161 30.324436,57.724847 l 11.893223,0.06571 c 0.04379,1.577013 0.613263,2.825472 1.70842,3.74538 1.095122,0.919926 2.453094,1.379884 4.073921,1.379876 1.401757,8e-6 2.628314,-0.350437 3.679672,-1.051334 1.226531,-0.744686 1.839809,-1.774117 1.839835,-3.088296 -2.6e-5,-1.927433 -1.971277,-3.613947 -5.913758,-5.059548 -5.869965,-2.146456 -9.527731,-3.723457 -10.973305,-4.731006 -3.942511,-2.628313 -5.913761,-6.373689 -5.913757,-11.236139 -4e-6,-3.986274 1.29226,-7.3374 3.876796,-10.053389 2.49691,-2.584485 5.738522,-4.139582 9.724846,-4.665297 l 0,-7.0308 7.359343,0 0,7.0308 c 8.542061,1.533243 12.856909,6.592785 12.944558,15.178644 l -11.63039,0 c -2.6e-5,-1.664579 -0.481887,-3.022552 -1.445585,-4.073921 -0.963748,-1.095103 -2.277915,-1.642673 -3.942506,-1.64271 -1.314187,3.7e-5 -2.453132,0.372385 -3.416837,1.117042 -1.095156,0.788537 -1.642726,1.839871 -1.642711,3.154004 -1.5e-5,1.664646 1.993139,3.263549 5.979467,4.796715 5.826118,2.146502 9.549592,3.78921 11.170431,4.928131 3.986273,2.672163 5.979427,6.351832 5.979465,11.039014 -3.8e-5,4.161542 -1.314205,7.622182 -3.942504,10.38193 -2.496952,2.584531 -5.848078,4.22724 -10.053388,4.928131" />
      <path
         style="font-size:73.92197418px;font-style:normal;font-variant:normal;font-weight:normal;font-stretch:normal;text-align:start;line-height:100%;writing-mode:lr-tb;text-anchor:start;opacity:0.3;fill:#ffffff;fill-opacity:1;stroke:none;font-family:Biohazard Participants;-inkscape-font-specification:Biohazard Participants"
         id="path4055"
         inkscape:connector-curvature="0"
         d="m 44.3125,16 0,1 7.375,0 0,-1 -7.375,0 z m 0,7.03125 c -3.986324,0.525715 -7.22184,2.071765 -9.71875,4.65625 -2.584536,2.715989 -3.875004,6.076226 -3.875,10.0625 0,0.149433 0.02753,0.290177 0.03125,0.4375 0.117863,-3.737405 1.38301,-6.914104 3.84375,-9.5 2.49691,-2.584485 5.732426,-4.130535 9.71875,-4.65625 l 0,-1 z m 7.375,0 0,1 c 8.200498,1.471935 12.497566,6.215686 12.90625,14.1875 l 0.03125,0 C 64.537351,29.632891 60.229561,24.564493 51.6875,23.03125 z m -9.09375,14.125 c -0.02756,0.195262 -0.0625,0.385258 -0.0625,0.59375 -1.5e-5,1.664646 2.013672,3.279334 6,4.8125 5.826118,2.146502 9.535411,3.798579 11.15625,4.9375 3.859321,2.587062 5.845805,6.117972 5.96875,10.59375 0.0055,-0.188247 0.03125,-0.371294 0.03125,-0.5625 -3.8e-5,-4.687182 -2.013727,-8.359087 -6,-11.03125 -1.620839,-1.138921 -5.330132,-2.790998 -11.15625,-4.9375 -3.662256,-1.408526 -5.639787,-2.886753 -5.9375,-4.40625 z M 30.3125,57.71875 c 0.01032,0.340544 0.06912,0.66972 0.09375,1 l 11.8125,0.0625 c 0.04379,1.577013 0.623593,2.830092 1.71875,3.75 1.095122,0.919926 2.441673,1.375008 4.0625,1.375 1.401757,8e-6 2.636142,-0.330353 3.6875,-1.03125 1.226531,-0.744686 1.843724,-1.779571 1.84375,-3.09375 -2e-6,-0.136586 -0.0427,-0.272083 -0.0625,-0.40625 -0.163739,1.029662 -0.749313,1.873461 -1.78125,2.5 -1.051358,0.700897 -2.285743,1.031258 -3.6875,1.03125 -1.620827,8e-6 -2.967378,-0.455074 -4.0625,-1.375 -1.095157,-0.919908 -1.67496,-2.172987 -1.71875,-3.75 L 30.3125,57.71875 z" />
      <path
         style="font-size:73.92197418px;font-style:normal;font-variant:normal;font-weight:normal;font-stretch:normal;text-align:start;line-height:100%;writing-mode:lr-tb;text-anchor:start;opacity:0.4;fill:#503a16;fill-opacity:1;stroke:none;font-family:Biohazard Participants;-inkscape-font-specification:Biohazard Participants"
         id="path4098"
         inkscape:connector-curvature="0"
         d="m 47.59375,31.5 c -1.314187,3.7e-5 -2.442545,0.380343 -3.40625,1.125 -1.095156,0.788537 -1.656265,1.810867 -1.65625,3.125 -10e-7,0.135329 0.03616,0.27179 0.0625,0.40625 0.146174,-1.035482 0.672345,-1.867817 1.59375,-2.53125 0.963705,-0.744657 2.092063,-1.124963 3.40625,-1.125 1.664591,3.7e-5 3.005002,0.529897 3.96875,1.625 0.963698,1.051369 1.437474,2.429171 1.4375,4.09375 l 11.625,0 c -0.0035,-0.343314 -0.01423,-0.667962 -0.03125,-1 L 53,37.21875 C 52.999974,35.554171 52.526198,34.176369 51.5625,33.125 50.598752,32.029897 49.258341,31.500037 47.59375,31.5 z M 30.75,37.1875 c -0.0059,0.188023 -0.03125,0.371562 -0.03125,0.5625 -4e-6,4.86245 1.963739,8.621687 5.90625,11.25 1.445574,1.007549 5.098785,2.572294 10.96875,4.71875 3.6631,1.343159 5.615395,2.897129 5.875,4.65625 0.03088,-0.194165 0.0625,-0.38525 0.0625,-0.59375 -2.6e-5,-1.927433 -1.995019,-3.616899 -5.9375,-5.0625 C 41.723785,50.572294 38.070574,49.007549 36.625,48 32.80365,45.45246 30.867434,41.833967 30.75,37.1875 z m 34.90625,19.90625 c -0.115246,3.908888 -1.429961,7.179551 -3.9375,9.8125 -2.496952,2.584531 -5.82594,4.236609 -10.03125,4.9375 l 0,1 c 4.20531,-0.700891 7.534298,-2.352969 10.03125,-4.9375 2.628299,-2.759748 3.968712,-6.213458 3.96875,-10.375 -10e-7,-0.149275 -0.02721,-0.290269 -0.03125,-0.4375 z m -35.34375,0.625 c 0.131413,4.336763 1.421881,7.859113 3.875,10.53125 2.453105,2.628336 5.832037,4.193081 10.125,4.71875 l 0,-1 C 40.019537,71.443081 36.640605,69.878336 34.1875,67.25 31.927012,64.787693 30.69534,61.594518 30.40625,57.71875 l -0.09375,0 z m 14,21.28125 0,1 7.375,0 0,-1 -7.375,0 z" />
    </g>
    <rect
       ry="25"
       rx="25"
       id="rect3003"
       style="opacity:0.15;fill:#ffffff;fill-opacity:1"
       height="92"
       width="92"
       y="958.36218"
       x="-96"
       clip-path="url(#clipPath3009)"
       transform="translate(98,0)" />
  </g>
</svg>
