<?xml version="1.0" encoding="UTF-8" standalone="no"?>
<!-- Created with Inkscape (http://www.inkscape.org/) -->

<svg
   xmlns:dc="http://purl.org/dc/elements/1.1/"
   xmlns:cc="http://creativecommons.org/ns#"
   xmlns:rdf="http://www.w3.org/1999/02/22-rdf-syntax-ns#"
   xmlns:svg="http://www.w3.org/2000/svg"
   xmlns="http://www.w3.org/2000/svg"
   xmlns:xlink="http://www.w3.org/1999/xlink"
   xmlns:sodipodi="http://sodipodi.sourceforge.net/DTD/sodipodi-0.dtd"
   xmlns:inkscape="http://www.inkscape.org/namespaces/inkscape"
   width="96"
   height="96"
   id="svg11037"
   version="1.1"
   inkscape:version="0.48.3.1 r9886"
   sodipodi:docname="templat.svg">
  <defs
     id="defs11039">
    <linearGradient
       y2="1046.1001"
       x2="47.999954"
       y1="962.62189"
       x1="47.999954"
       gradientTransform="matrix(1.15,0,0,1.15,-7.1999462,-150.65291)"
       gradientUnits="userSpaceOnUse"
       id="linearGradient3886"
       xlink:href="#linearGradient3795"
       inkscape:collect="always" />
    <linearGradient
       id="linearGradient3795">
      <stop
         style="stop-color:#13a6fd;stop-opacity:1;"
         offset="0"
         id="stop3797" />
      <stop
         style="stop-color:#2975b6;stop-opacity:1;"
         offset="1"
         id="stop3799" />
    </linearGradient>
    <linearGradient
       y2="1046.1001"
       x2="47.999954"
       y1="962.62189"
       x1="47.999954"
       gradientTransform="matrix(1.15,0,0,1.15,-7.1999462,-150.65292)"
       gradientUnits="userSpaceOnUse"
       id="linearGradient11642"
       xlink:href="#linearGradient3052"
       inkscape:collect="always" />
    <clipPath
       clipPathUnits="userSpaceOnUse"
       id="clipPath3009">
      <path
         id="path3011"
         d="m -2,956.36218 -96,0 0,33.5624 96,25.68742 0,-59.24982 z"
         style="opacity:0.15;fill:#ffffff;fill-opacity:1;stroke:none"
         inkscape:connector-curvature="0" />
    </clipPath>
    <linearGradient
       id="linearGradient3052"
       y2="5.9877"
       gradientUnits="userSpaceOnUse"
       y1="90"
       x2="48"
       x1="48">
      <stop
         id="stop3189-4"
         style="stop-color:#c8c8c8"
         offset="0" />
      <stop
         id="stop3191-0"
         style="stop-color:#e6e6e6"
         offset="1" />
    </linearGradient>
    <linearGradient
       gradientTransform="translate(-88.000002,970.85322)"
       y2="5.9877"
       x2="48"
       y1="90"
       x1="48"
       gradientUnits="userSpaceOnUse"
       id="linearGradient3037"
       xlink:href="#linearGradient3052"
       inkscape:collect="always" />
    <clipPath
       id="clipPath3748"
       clipPathUnits="userSpaceOnUse">
      <path
         inkscape:connector-curvature="0"
         id="path3750"
         style="opacity:0.2;color:#000000;fill:#ff0000"
         d="m -100,-74 v 96 h 96 v -96 h -96 z m 43.875,12 h 8.25 v 7.9062 c 9.6098,1.7249 14.464,7.4347 14.562,17.094 h -13.062 c -2.9e-5,-1.8727 -0.54084,-3.411 -1.625,-4.5938 -1.0842,-1.232 -2.5648,-1.8437 -4.4375,-1.8438 -1.4785,4.3e-5 -2.7596,0.41226 -3.8438,1.25 -1.2321,0.8871 -1.8438,2.0528 -1.8438,3.5312 -1.7e-5,1.8727 2.2341,3.6814 6.7188,5.4062 6.5544,2.4148 10.739,4.2812 12.562,5.5625 4.4846,3.0062 6.7187,7.1332 6.7188,12.406 -4.3e-5,4.6817 -1.4807,8.5828 -4.4375,11.688 -2.8091,2.9076 -6.5815,4.7427 -11.312,5.5312 v 8.0625 h -8.25 V 2.094 c -4.8296,-0.59138 -8.6465,-2.3556 -11.406,-5.3125 -2.7598,-3.0062 -4.1959,-6.9649 -4.3438,-11.844 l 13.374,0.063 c 0.04926,1.7741 0.6742,3.1839 1.9062,4.2188 1.232,1.0349 2.7703,1.5625 4.5938,1.5625 1.577,9e-6 2.9422,-0.39899 4.125,-1.1875 1.3798,-0.83777 2.0937,-1.9903 2.0938,-3.4688 -3e-5,-2.1684 -2.221,-4.0612 -6.6562,-5.6875 -6.6037,-2.4148 -10.717,-4.2103 -12.344,-5.3438 -4.4353,-2.9569 -6.6563,-7.1547 -6.6562,-12.625 -4e-6,-4.4846 1.4361,-8.257 4.3438,-11.312 2.809,-2.9075 6.4841,-4.6586 10.969,-5.25 v -7.9062 z" />
    </clipPath>
    <filter
       color-interpolation-filters="sRGB"
       id="filter3752">
      <feGaussianBlur
         id="feGaussianBlur3754"
         stdDeviation="0.89827519" />
    </filter>
    <linearGradient
       id="linearGradient3981"
       y2="20"
       gradientUnits="userSpaceOnUse"
       x2="13"
       gradientTransform="matrix(4,0,0,4,4,-70)"
       y1="2"
       x1="13">
      <stop
         id="stop4490"
         style="stop-color:#323232"
         offset="0" />
      <stop
         id="stop4492"
         style="stop-color:#787878"
         offset="1" />
    </linearGradient>
  </defs>
  <sodipodi:namedview
     id="base"
     pagecolor="#ffffff"
     bordercolor="#666666"
     borderopacity="1.0"
     inkscape:pageopacity="0.0"
     inkscape:pageshadow="2"
     inkscape:zoom="3.959798"
     inkscape:cx="29.118614"
     inkscape:cy="59.964634"
     inkscape:document-units="px"
     inkscape:current-layer="layer1"
     showgrid="false"
     inkscape:window-width="1280"
     inkscape:window-height="750"
     inkscape:window-x="0"
     inkscape:window-y="22"
     inkscape:window-maximized="1"
     showguides="true"
     inkscape:guide-bbox="true">
    <sodipodi:guide
       orientation="0,1"
       position="-24.748737,0"
       id="guide11064" />
    <sodipodi:guide
       orientation="0,1"
       position="-23.233509,96"
       id="guide11066" />
    <sodipodi:guide
       orientation="1,0"
       position="0,54.800776"
       id="guide11068" />
    <sodipodi:guide
       orientation="1,0"
       position="96,51.012704"
       id="guide11070" />
    <sodipodi:guide
       orientation="0,1"
       position="-18.94036,48"
       id="guide11072" />
    <sodipodi:guide
       orientation="1,0"
       position="48,79.296975"
       id="guide11074" />
    <sodipodi:guide
       orientation="1,0"
       position="2,75.508903"
       id="guide11076" />
    <sodipodi:guide
       orientation="0,1"
       position="-77.27667,2"
       id="guide11078" />
    <sodipodi:guide
       orientation="1,0"
       position="94,77.781746"
       id="guide11080" />
    <sodipodi:guide
       orientation="0,1"
       position="-65.912454,94"
       id="guide11082" />
  </sodipodi:namedview>
  <metadata
     id="metadata11042">
    <rdf:RDF>
      <cc:Work
         rdf:about="">
        <dc:format>image/svg+xml</dc:format>
        <dc:type
           rdf:resource="http://purl.org/dc/dcmitype/StillImage" />
        <dc:title></dc:title>
      </cc:Work>
    </rdf:RDF>
  </metadata>
  <g
     inkscape:label="Layer 1"
     inkscape:groupmode="layer"
     id="layer1"
     transform="translate(0,-956.36218)">
    <rect
       x="2"
       y="958.36218"
       width="92"
       height="92"
       style="fill:url(#linearGradient11642);fill-opacity:1.0"
       id="rect3867"
       rx="25"
       ry="25" />
    <g
       transform="translate(-1.1467743e-7,1030.3622)"
       id="g3039">
      <text
         sodipodi:linespacing="100%"
         xml:space="preserve"
         x="-75.433266"
         y="-0.71868134"
         transform="translate(100,0)"
         clip-path="url(#clipPath3748)"
         style="font-size:73.92199707px;line-height:100%;opacity:0.2;fill:none;stroke:#ffffff;stroke-width:4;filter:url(#filter3752);font-family:Biohazard Participants"
         id="text3736"><tspan
           style="fill:none;stroke:#ffffff;stroke-width:4"
           x="-75.433266"
           y="-0.71868134"
           id="tspan3738">$</tspan></text>
      <path
         inkscape:connector-curvature="0"
         style="fill:url(#linearGradient3981)"
         d="M 52.14,1.9425 V 10 H 43.8607 V 2.0903 c -4.83,-0.5913 -8.625,-2.3654 -11.385,-5.3223 -2.759,-3.0062 -4.213,-6.949 -4.361,-11.828 l 13.38,0.07392 c 0.04926,1.7741 0.68992,3.1787 1.922,4.2136 1.232,1.0349 2.7597,1.5524 4.5832,1.5524 1.577,8.5e-6 2.9569,-0.39424 4.1396,-1.1828 1.3798,-0.83777 2.0698,-1.9959 2.0698,-3.4743 -3e-5,-2.1684 -2.2177,-4.0657 -6.653,-5.692 -6.6037,-2.4148 -10.719,-4.1889 -12.345,-5.3224 -4.4353,-2.9569 -6.653,-7.1704 -6.653,-12.641 -4e-6,-4.4846 1.4538,-8.2546 4.3614,-11.31 2.809,-2.9075 6.4558,-4.657 10.94,-5.2485 v -7.9097 h 8.2793 v 7.9097 c 9.6098,1.7249 14.464,7.4169 14.563,17.076 H 53.618 c -2.9e-5,-1.8727 -0.54212,-3.4004 -1.6263,-4.5832 -1.0842,-1.232 -2.5627,-1.848 -4.4353,-1.848 -1.4785,4.2e-5 -2.7598,0.41893 -3.8439,1.2567 -1.2321,0.8871 -1.8481,2.0699 -1.848,3.5483 -1.7e-5,1.8727 2.2423,3.6715 6.7269,5.3963 6.5544,2.4148 10.743,4.2629 12.567,5.5441 4.4846,3.0062 6.7269,7.1458 6.7269,12.419 -4.3e-5,4.6817 -1.4785,8.575 -4.4353,11.68 -2.8091,2.9076 -6.5791,4.7556 -11.31,5.5441"
         id="path3104" />
      <path
         inkscape:connector-curvature="0"
         transform="translate(0,-74)"
         d="m 43.875,12 v 7.9062 c -4.4846,0.59143 -8.1597,2.3425 -10.969,5.25 -2.9076,3.0555 -4.3438,6.8279 -4.3438,11.312 -4e-6,5.4703 2.2209,9.6681 6.6562,12.625 1.6263,1.1335 5.74,2.929 12.344,5.3438 4.4353,1.6263 6.6562,3.5191 6.6562,5.6875 -3e-5,1.4785 -0.7139,2.631 -2.0938,3.4688 -1.1828,0.78851 -2.548,1.1875 -4.125,1.1875 -1.8234,9e-6 -3.3617,-0.52758 -4.5938,-1.5625 -1.231,-1.034 -1.856,-2.444 -1.905,-4.218 l -13.375,-0.062 c 0.14784,4.8789 1.584,8.8376 4.3438,11.844 2.7597,2.9569 6.5767,4.7211 11.406,5.3125 v 7.9062 h 8.25 v -8.0625 c 4.731,-0.7885 8.5034,-2.6237 11.312,-5.5312 2.9568,-3.1047 4.4375,-7.0058 4.4375,-11.688 -4.3e-5,-5.2731 -2.2342,-9.4001 -6.7188,-12.406 -1.8234,-1.2813 -6.0081,-3.1477 -12.562,-5.5625 -4.4846,-1.7248 -6.7188,-3.5335 -6.7188,-5.4062 -1.7e-5,-1.4784 0.6117,-2.6441 1.8438,-3.5312 1.0842,-0.83774 2.3653,-1.25 3.8438,-1.25 1.8727,4.3e-5 3.3533,0.61176 4.4375,1.8438 1.0842,1.1828 1.625,2.7211 1.625,4.5938 h 13.062 c -0.098,-9.66 -4.952,-15.37 -14.562,-17.095 v -7.9062 h -8.25 z m 2,2 h 4.25 v 5.9062 a 2.0013,2.0013 0 0 0 1.6562,1.9688 c 4.4847,0.80497 7.5868,2.4759 9.6562,4.9062 1.7133,2.0121 2.596,4.8241 2.9375,8.2188 h -9.0938 c -0.302,-1.453 -0.803,-2.826 -1.781,-3.906 -0.0098,-0.0111 -0.02142,-0.02023 -0.03125,-0.03125 -1.4636,-1.6419 -3.6132,-2.4999 -5.9062,-2.5 -1.8263,5.3e-5 -3.5735,0.54374 -5,1.625 -0.01881,0.01426 -0.0438,0.01681 -0.0625,0.03125 l 0.031,0.031 c -1.619,1.1925 -2.6563,3.0863 -2.6562,5.0938 -1.6e-5,1.7321 1.0538,3.1974 2.4375,4.3125 1.3837,1.1151 3.2054,2.0622 5.5625,2.9688 a 2.0013,2.0013 0 0 0 0.03125,0 c 6.5,2.395 10.701,4.334 12.094,5.313 a 2.0013,2.0013 0 0 0 0.03125,0.03125 c 4.0363,2.7057 5.8437,6.0421 5.8438,10.75 -3.9e-5,4.2598 -1.2654,7.5724 -3.875,10.312 -2.4794,2.5663 -5.8143,4.2034 -10.219,4.9375 a 2.0013,2.0013 0 0 0 -1.656,1.969 v 6.0625 h -4.25 v -5.9062 a 2.0013,2.0013 0 0 0 -1.75,-2 c -4.479,-0.549 -7.785,-2.113 -10.187,-4.688 -1.979,-2.163 -3.001,-5.043 -3.438,-8.468 l 9.438,0.062 c 0.39308,1.4434 1.0353,2.7822 2.1875,3.75 1.6037,1.3471 3.6656,2.0313 5.875,2.0312 1.8754,1e-5 3.6608,-0.49935 5.1562,-1.4688 0.01164,-0.0075 0.01965,-0.02365 0.03125,-0.03125 0.01908,-0.01176 0.04355,-0.0193 0.0625,-0.03125 V 65.2188 c 1.7518,-1.1132 2.9687,-3.016 2.9688,-5.0938 -2.4e-5,-1.7674 -0.97922,-3.3706 -2.375,-4.5625 -1.39578,-1.1919 -3.2419,-2.1376 -5.5938,-3 -6.555,-2.3969 -10.734,-4.3299 -11.875,-5.125 a 2.0013,2.0013 0 0 0 -0.03125,0 c -3.9645,-2.643 -5.7813,-6.0401 -5.7812,-10.969 -4e-6,-4.0573 1.2138,-7.2395 3.7812,-9.9375 2.482,-2.569 5.6637,-4.1132 9.7812,-4.6562 a 2.0013,2.0013 0 0 0 1.75,-1.9688 v -5.907 z"
         style="opacity:0.1"
         id="text3756" />
      <path
         inkscape:connector-curvature="0"
         transform="translate(0,-74)"
         d="m 43.875,12 v 7.906 c -4.485,0.592 -8.16,2.343 -10.969,5.25 -2.907,3.056 -4.344,6.828 -4.344,11.313 0,5.47 2.221,9.668 6.657,12.625 1.626,1.133 5.74,2.929 12.343,5.344 4.436,1.626 6.657,3.519 6.657,5.687 0,1.478 -0.714,2.631 -2.094,3.469 -1.183,0.788 -2.548,1.187 -4.125,1.187 -1.823,0 -3.362,-0.527 -4.594,-1.562 C 42.174,62.184 41.549,60.774 41.5,59 L 28.125,58.938 c 0.148,4.878 1.584,8.837 4.344,11.843 2.759,2.957 6.576,4.721 11.406,5.313 V 84 h 8.25 v -8.062 c 4.731,-0.789 8.503,-2.624 11.313,-5.532 2.956,-3.104 4.437,-7.006 4.437,-11.687 0,-5.273 -2.234,-9.4 -6.719,-12.407 -1.823,-1.281 -6.008,-3.147 -12.562,-5.562 -4.485,-1.725 -6.719,-3.534 -6.719,-5.406 0,-1.479 0.612,-2.644 1.844,-3.532 1.084,-0.837 2.365,-1.249 3.843,-1.25 1.873,10e-4 3.354,0.612 4.438,1.844 1.084,1.183 1.625,2.721 1.625,4.594 H 66.688 C 66.589,27.341 61.735,21.631 52.125,19.906 V 12 h -8.25 z m 1.094,1.094 h 6.062 v 6.812 A 1.1092,1.1092 0 0 0 51.938,21 c 4.627,0.831 7.958,2.57 10.187,5.188 2.031,2.385 3.088,5.66 3.313,9.718 H 54.531 c -0.19,-1.605 -0.661,-3.084 -1.687,-4.218 -0.01,-0.012 -0.022,-0.021 -0.032,-0.032 -1.293,-1.449 -3.151,-2.187 -5.25,-2.187 -1.669,0 -3.227,0.466 -4.5,1.437 -0.012,0.009 -0.018,0.022 -0.031,0.032 -1.441,1.054 -2.25,2.637 -2.25,4.406 0,1.377 0.797,2.605 2.063,3.625 1.266,1.02 3.038,1.925 5.344,2.812 a 1.1092,1.1092 0 0 0 0.031,0 c 6.524,2.404 10.727,4.324 12.312,5.438 4.236,2.839 6.25,6.54 6.25,11.5 0,4.438 -1.403,8.007 -4.156,10.906 -2.626,2.718 -6.137,4.46 -10.687,5.219 a 1.1092,1.1092 0 0 0 -0.907,1.094 v 6.968 H 44.969 V 76.094 A 1.1092,1.1092 0 0 0 44,75 c -4.635,-0.568 -8.157,-2.224 -10.719,-4.969 -2.343,-2.553 -3.62,-5.876 -3.937,-10 l 11.281,0.063 c 0.265,1.556 0.87,2.966 2.063,3.968 1.438,1.208 3.275,1.813 5.312,1.813 1.764,0 3.383,-0.433 4.75,-1.344 L 52.719,64.5 c 1.597,-0.986 2.593,-2.555 2.593,-4.375 0,-1.463 -0.763,-2.792 -2.031,-3.875 C 52.013,55.167 50.23,54.247 47.938,53.406 41.361,51.001 37.201,49.133 35.844,48.188 a 1.1092,1.1092 0 0 0 0,-0.032 c -4.175,-2.783 -6.188,-6.517 -6.188,-11.687 0,-4.239 1.355,-7.678 4.063,-10.531 2.628,-2.72 6.031,-4.373 10.312,-4.938 a 1.1092,1.1092 0 0 0 0.938,-1.094 v -6.812 z"
         style="opacity:0.2"
         id="path3983" />
      <path
         inkscape:connector-curvature="0"
         transform="translate(0,-74)"
         d="m 43.875,12 v 1 h 8.25 v -1 h -8.25 z m 0,7.906 c -4.485,0.592 -8.16,2.343 -10.969,5.25 -2.907,3.056 -4.344,6.828 -4.344,11.313 0,0.192 0.026,0.373 0.032,0.562 0.093,-4.29 1.501,-7.92 4.312,-10.875 2.809,-2.907 6.484,-4.658 10.969,-5.25 v -1 z m 8.25,0 v 1 C 61.398,22.571 66.239,27.948 66.656,37 h 0.032 C 66.589,27.341 61.735,21.631 52.125,19.906 z M 41.906,35.812 c -0.019,0.176 -0.031,0.347 -0.031,0.532 0,1.872 2.234,3.681 6.719,5.406 6.554,2.415 10.739,4.281 12.562,5.562 4.331,2.904 6.539,6.858 6.688,11.876 0.003,-0.158 0.031,-0.309 0.031,-0.469 0,-5.273 -2.234,-9.4 -6.719,-12.407 C 59.333,45.031 55.148,43.165 48.594,40.75 44.463,39.161 42.233,37.527 41.906,35.812 z M 28.125,58.938 c 0.01,0.342 0.039,0.666 0.063,1 L 41.5,60 c 0.049,1.774 0.674,3.184 1.906,4.219 1.232,1.035 2.771,1.562 4.594,1.562 1.577,0 2.942,-0.399 4.125,-1.187 1.38,-0.838 2.094,-1.991 2.094,-3.469 0,-0.136 -0.014,-0.273 -0.031,-0.406 -0.166,1.196 -0.875,2.154 -2.063,2.875 -1.183,0.788 -2.548,1.187 -4.125,1.187 -1.823,0 -3.362,-0.527 -4.594,-1.562 C 42.174,62.184 41.549,60.774 41.5,59 L 28.125,58.938 z"
         style="opacity:0.3"
         id="path3996" />
      <path
         inkscape:connector-curvature="0"
         transform="translate(0,-74)"
         d="m 47.562,30.562 c -1.478,10e-4 -2.759,0.413 -3.843,1.25 -1.232,0.888 -1.844,2.053 -1.844,3.532 0,0.117 0.014,0.258 0.031,0.375 0.156,-1.185 0.763,-2.151 1.813,-2.907 1.084,-0.837 2.365,-1.249 3.843,-1.25 1.873,10e-4 3.354,0.612 4.438,1.844 1.084,1.183 1.625,2.721 1.625,4.594 H 66.688 C 66.684,37.661 66.671,37.329 66.656,37 H 53.625 c 0,-1.873 -0.541,-3.411 -1.625,-4.594 -1.084,-1.232 -2.565,-1.843 -4.438,-1.844 z m -18.968,6.469 c -0.003,0.147 -0.032,0.289 -0.032,0.438 0,5.47 2.221,9.668 6.657,12.625 1.626,1.133 5.74,2.929 12.343,5.344 4.118,1.509 6.331,3.241 6.626,5.218 0.021,-0.175 0.031,-0.346 0.031,-0.531 0,-2.168 -2.221,-4.061 -6.657,-5.687 -6.603,-2.415 -10.717,-4.211 -12.343,-5.344 -4.28,-2.853 -6.475,-6.87 -6.625,-12.063 z m 39.25,22.157 c -0.098,4.469 -1.551,8.219 -4.406,11.218 -2.81,2.908 -6.582,4.743 -11.313,5.532 v 1 c 4.731,-0.789 8.503,-2.624 11.313,-5.532 2.956,-3.104 4.437,-7.006 4.437,-11.687 0,-0.181 -0.026,-0.353 -0.031,-0.531 z m -39.719,0.75 c 0.148,4.878 1.584,8.837 4.344,11.843 2.759,2.957 6.576,4.721 11.406,5.313 v -1 C 39.045,75.502 35.228,73.738 32.469,70.781 29.903,67.986 28.495,64.352 28.188,59.938 H 28.125 z M 43.875,84 v 1 h 8.25 v -1 h -8.25 z"
         style="opacity:0.5;fill:#ffffff"
         id="path4005" />
    </g>
    <rect
       ry="25"
       rx="25"
       id="rect3003"
       style="opacity:0.15;fill:#ffffff;fill-opacity:1"
       height="92"
       width="92"
       y="958.36218"
       x="-96"
       clip-path="url(#clipPath3009)"
       transform="translate(98,0)" />
  </g>
</svg>
