<?xml version="1.0" encoding="UTF-8" standalone="no"?>
<!-- Created with Inkscape (http://www.inkscape.org/) -->

<svg
   xmlns:dc="http://purl.org/dc/elements/1.1/"
   xmlns:cc="http://creativecommons.org/ns#"
   xmlns:rdf="http://www.w3.org/1999/02/22-rdf-syntax-ns#"
   xmlns:svg="http://www.w3.org/2000/svg"
   xmlns="http://www.w3.org/2000/svg"
   xmlns:xlink="http://www.w3.org/1999/xlink"
   xmlns:sodipodi="http://sodipodi.sourceforge.net/DTD/sodipodi-0.dtd"
   xmlns:inkscape="http://www.inkscape.org/namespaces/inkscape"
   width="96"
   height="96"
   id="svg11037"
   version="1.1"
   inkscape:version="0.48.3.1 r9886"
   sodipodi:docname="templat.svg">
  <defs
     id="defs11039">
    <linearGradient
       y2="1046.1001"
       x2="47.999954"
       y1="962.62189"
       x1="47.999954"
       gradientTransform="matrix(1.15,0,0,1.15,-7.1999462,-150.65291)"
       gradientUnits="userSpaceOnUse"
       id="linearGradient3886"
       xlink:href="#linearGradient3795"
       inkscape:collect="always" />
    <linearGradient
       id="linearGradient3795">
      <stop
         style="stop-color:#13a6fd;stop-opacity:1;"
         offset="0"
         id="stop3797" />
      <stop
         style="stop-color:#2975b6;stop-opacity:1;"
         offset="1"
         id="stop3799" />
    </linearGradient>
    <linearGradient
       y2="1046.1001"
       x2="47.999954"
       y1="962.62189"
       x1="47.999954"
       gradientTransform="matrix(1.15,0,0,1.15,-7.1999462,-150.65292)"
       gradientUnits="userSpaceOnUse"
       id="linearGradient11642"
       xlink:href="#ButtonColor-6"
       inkscape:collect="always" />
    <clipPath
       clipPathUnits="userSpaceOnUse"
       id="clipPath3009">
      <path
         id="path3011"
         d="m -2,956.36218 -96,0 0,33.5624 96,25.68742 0,-59.24982 z"
         style="opacity:0.15;fill:#ffffff;fill-opacity:1;stroke:none"
         inkscape:connector-curvature="0" />
    </clipPath>
    <linearGradient
       x1="48"
       y1="90"
       x2="48"
       y2="5.9877172"
       id="linearGradient3052"
       xlink:href="#ButtonColor-6"
       gradientUnits="userSpaceOnUse" />
    <linearGradient
       x1="10.31979"
       y1="21"
       x2="10.31979"
       y2="0.99929649"
       id="ButtonColor-6"
       gradientUnits="userSpaceOnUse">
      <stop
         id="stop3189-4"
         style="stop-color:#c8c8c8;stop-opacity:1"
         offset="0" />
      <stop
         id="stop3191-0"
         style="stop-color:#e6e6e6;stop-opacity:1"
         offset="1" />
    </linearGradient>
    <linearGradient
       gradientTransform="translate(-90.000001,950.36217)"
       y2="5.9877172"
       x2="48"
       y1="90"
       x1="48"
       gradientUnits="userSpaceOnUse"
       id="linearGradient3040"
       xlink:href="#ButtonColor-6"
       inkscape:collect="always" />
    <filter
       color-interpolation-filters="sRGB"
       id="filter3998">
      <feGaussianBlur
         id="feGaussianBlur4000"
         stdDeviation="0.78264169" />
    </filter>
    <linearGradient
       x1="14"
       y1="1"
       x2="14"
       y2="21.024984"
       id="linearGradient3714"
       xlink:href="#linearGradient4528"
       gradientUnits="userSpaceOnUse"
       gradientTransform="matrix(3.1351351,0,0,3.1351351,9.3243243,-60.135135)" />
    <linearGradient
       x1="7.1904788"
       y1="6.9551144"
       x2="7.1904788"
       y2="18.319494"
       id="linearGradient4528"
       gradientUnits="userSpaceOnUse"
       gradientTransform="scale(1.1467263,0.8720476)">
      <stop
         id="stop4530"
         style="stop-color:#323232;stop-opacity:1"
         offset="0" />
      <stop
         id="stop4532"
         style="stop-color:#787878;stop-opacity:1"
         offset="1" />
    </linearGradient>
  </defs>
  <sodipodi:namedview
     id="base"
     pagecolor="#ffffff"
     bordercolor="#666666"
     borderopacity="1.0"
     inkscape:pageopacity="0.0"
     inkscape:pageshadow="2"
     inkscape:zoom="3.959798"
     inkscape:cx="29.118614"
     inkscape:cy="59.964634"
     inkscape:document-units="px"
     inkscape:current-layer="layer1"
     showgrid="false"
     inkscape:window-width="1280"
     inkscape:window-height="750"
     inkscape:window-x="0"
     inkscape:window-y="22"
     inkscape:window-maximized="1"
     showguides="true"
     inkscape:guide-bbox="true">
    <sodipodi:guide
       orientation="0,1"
       position="-24.748737,0"
       id="guide11064" />
    <sodipodi:guide
       orientation="0,1"
       position="-23.233509,96"
       id="guide11066" />
    <sodipodi:guide
       orientation="1,0"
       position="0,54.800776"
       id="guide11068" />
    <sodipodi:guide
       orientation="1,0"
       position="96,51.012704"
       id="guide11070" />
    <sodipodi:guide
       orientation="0,1"
       position="-18.94036,48"
       id="guide11072" />
    <sodipodi:guide
       orientation="1,0"
       position="48,79.296975"
       id="guide11074" />
    <sodipodi:guide
       orientation="1,0"
       position="2,75.508903"
       id="guide11076" />
    <sodipodi:guide
       orientation="0,1"
       position="-77.27667,2"
       id="guide11078" />
    <sodipodi:guide
       orientation="1,0"
       position="94,77.781746"
       id="guide11080" />
    <sodipodi:guide
       orientation="0,1"
       position="-65.912454,94"
       id="guide11082" />
  </sodipodi:namedview>
  <metadata
     id="metadata11042">
    <rdf:RDF>
      <cc:Work
         rdf:about="">
        <dc:format>image/svg+xml</dc:format>
        <dc:type
           rdf:resource="http://purl.org/dc/dcmitype/StillImage" />
        <dc:title></dc:title>
      </cc:Work>
    </rdf:RDF>
  </metadata>
  <g
     inkscape:label="Layer 1"
     inkscape:groupmode="layer"
     id="layer1"
     transform="translate(0,-956.36218)">
    <rect
       x="2"
       y="958.36218"
       width="92"
       height="92"
       style="fill:url(#linearGradient11642);fill-opacity:1.0"
       id="rect3867"
       rx="25"
       ry="25" />
    <g
       transform="translate(-5.2823395e-8,1030.3622)"
       style="display:inline"
       id="g3053">
      <path
         style="opacity:0.2;color:#000000;fill:none;stroke:#ffffff;stroke-width:4;stroke-miterlimit:4;stroke-dasharray:none;marker:none;visibility:visible;display:inline;overflow:visible;filter:url(#filter3998);enable-background:accumulate"
         id="path3996"
         inkscape:connector-curvature="0"
         d="m 50.081081,-57 0,6.27027 0,6.270271 0,29.293918 c -3.321973,-1.302253 -7.502428,-1.423106 -11.658784,0 C 30.926726,-12.599106 26.50467,-6.1538956 28.625,-0.6655405 30.74533,4.822814 38.568618,7.191434 46.064189,4.625 52.197808,2.524889 56.250322,-2.1722645 56.351351,-6.8378378 c 0.0069,-0.3232826 0.03135,-0.658206 0,-0.9797298 l 0,-33.7027024 c 5.51301,3.501152 12.654675,10.781524 12.540541,25.277027 C 73.536733,-44.85546 58.999174,-41.764924 50.081081,-57 z" />
      <path
         style="color:#000000;fill:url(#linearGradient3714);fill-opacity:1;stroke:none;stroke-width:1;marker:none;visibility:visible;display:inline;overflow:visible;enable-background:accumulate"
         id="path2928"
         inkscape:connector-curvature="0"
         d="m 50.081081,-57 0,6.27027 0,6.270271 0,29.293918 c -3.321973,-1.302253 -7.502428,-1.423106 -11.658784,0 C 30.926726,-12.599106 26.50467,-6.1538956 28.625,-0.6655405 30.74533,4.822814 38.568618,7.191434 46.064189,4.625 52.197808,2.524889 56.250322,-2.1722645 56.351351,-6.8378378 c 0.0069,-0.3232826 0.03135,-0.658206 0,-0.9797298 l 0,-33.7027024 c 5.51301,3.501152 12.654675,10.781524 12.540541,25.277027 C 73.536733,-44.85546 58.999174,-41.764924 50.081081,-57 z" />
      <path
         style="opacity:0.1;color:#000000;fill:#000000;fill-opacity:1;stroke:none;stroke-width:1;marker:none;visibility:visible;display:inline;overflow:visible;enable-background:accumulate"
         id="path3968"
         transform="translate(0,-74)"
         inkscape:connector-curvature="0"
         d="m 50.09375,17 0,6.28125 0,6.25 0,29.3125 c -3.321973,-1.302253 -7.499894,-1.423106 -11.65625,0 -7.495571,2.566435 -11.93283,9.011645 -9.8125,14.5 2.12033,5.488354 9.941929,7.847684 17.4375,5.28125 6.133619,-2.100111 10.180221,-6.803177 10.28125,-11.46875 0.0069,-0.323283 0.03135,-0.647226 0,-0.96875 l 0,-33.71875 C 61.85676,35.969902 69.020384,43.254497 68.90625,57.75 73.551091,29.137783 59.011843,32.235076 50.09375,17 z m 2.125,6.53125 c 3.865517,4.417011 7.936674,7.073874 10.75,10.25 1.444369,1.630631 2.537132,3.59255 3.375,5.9375 C 63.706563,35.460214 60.409436,32.503948 57.5,30.65625 a 2.1408319,2.1408319 0 0 0 -3.28125,1.8125 l 0,33.71875 a 2.1408319,2.1408319 0 0 0 0,0.21875 c 0.0074,0.07631 0.0086,0.318111 0,0.71875 -0.07492,3.459821 -3.363759,7.592437 -8.84375,9.46875 -3.341713,1.144181 -6.759739,1.184991 -9.4375,0.375 -2.677761,-0.809991 -4.534043,-2.391257 -5.3125,-4.40625 -0.777759,-2.013184 -0.414713,-4.203698 1.0625,-6.375 1.477213,-2.171302 4.086801,-4.165242 7.4375,-5.3125 3.705303,-1.268669 7.391419,-1.127347 10.1875,-0.03125 a 2.1408319,2.1408319 0 0 0 2.90625,-2 l 0,-29.3125 0,-6 z" />
      <path
         style="opacity:0.2;color:#000000;fill:#000000;fill-opacity:1;stroke:none;stroke-width:1;marker:none;visibility:visible;display:inline;overflow:visible;enable-background:accumulate"
         id="path3196"
         transform="translate(0,-74)"
         inkscape:connector-curvature="0"
         d="m 50.09375,17 0,6.28125 0,6.25 0,29.3125 c -3.321973,-1.302253 -7.499894,-1.423106 -11.65625,0 -7.495571,2.566435 -11.93283,9.011645 -9.8125,14.5 2.12033,5.488354 9.941929,7.847684 17.4375,5.28125 6.133619,-2.100111 10.180221,-6.803177 10.28125,-11.46875 0.0069,-0.323283 0.03135,-0.647226 0,-0.96875 l 0,-33.71875 C 61.85676,35.969902 69.020384,43.254497 68.90625,57.75 73.551091,29.137783 59.011843,32.235076 50.09375,17 z M 51.25,20.59375 c 4.230136,5.662162 9.074006,8.698728 12.46875,12.53125 2.759376,3.115218 4.623962,7.051279 4.8125,13.78125 C 66.07818,38.920243 61.097582,34.122101 56.96875,31.5 a 1.1517074,1.1517074 0 0 0 -1.78125,0.96875 l 0,33.71875 a 1.1517074,1.1517074 0 0 0 0,0.125 c 0.01849,0.189608 0.0078,0.447602 0,0.8125 -0.08698,4.016912 -3.718015,8.426536 -9.5,10.40625 -3.52933,1.208419 -7.131888,1.252023 -10.03125,0.375 -2.899362,-0.877023 -5.060136,-2.616854 -5.96875,-4.96875 -0.908238,-2.350924 -0.430173,-4.903491 1.1875,-7.28125 1.617673,-2.377759 4.403336,-4.508675 7.9375,-5.71875 3.913702,-1.340023 7.835942,-1.222597 10.875,-0.03125 a 1.1517074,1.1517074 0 0 0 1.5625,-1.0625 l 0,-29.3125 0,-6.25 0,-2.6875 z" />
      <path
         style="opacity:0.3;color:#000000;fill:#000000;fill-opacity:1;stroke:none;stroke-width:1;marker:none;visibility:visible;display:inline;overflow:visible;enable-background:accumulate"
         id="path3978"
         transform="translate(0,-74)"
         inkscape:connector-curvature="0"
         d="m 50.09375,17 0,1 C 57.802711,31.169475 69.694105,30.653217 69.78125,48.75 70.135322,29.624471 57.942796,30.408787 50.09375,17 z M 44.5625,57.8125 c -1.979905,-0.01511 -4.046822,0.319697 -6.125,1.03125 C 31.989009,61.051672 27.815144,66.129524 28.125,71 c 0.273596,-4.550146 4.305491,-9.099489 10.3125,-11.15625 4.156356,-1.423106 8.334277,-1.302253 11.65625,0 l 0,-1 C 48.432764,58.192624 46.542405,57.827607 44.5625,57.8125 z" />
      <path
         style="opacity:0.5;color:#000000;fill:#ffffff;fill-opacity:1;stroke:none;stroke-width:1;marker:none;visibility:visible;display:inline;overflow:visible;enable-background:accumulate"
         id="path3987"
         transform="translate(0,-74)"
         inkscape:connector-curvature="0"
         d="m 56.34375,32.46875 0,1 c 5.51301,3.501152 12.676634,10.785747 12.5625,25.28125 0.629756,-3.879299 0.888668,-7.161562 0.875,-10 -0.04823,2.604915 -0.318204,5.57014 -0.875,9 0.114134,-14.495503 -7.04949,-21.780098 -12.5625,-25.28125 z m 0,34.71875 C 56.225443,71.842839 52.182497,76.529553 46.0625,78.625 38.566929,81.191434 30.74533,78.832104 28.625,73.34375 28.328804,72.577064 28.175313,71.790848 28.125,71 c -0.0678,1.127545 0.07892,2.253806 0.5,3.34375 2.12033,5.488354 9.941929,7.847684 17.4375,5.28125 6.133619,-2.100111 10.180221,-6.803177 10.28125,-11.46875 0.0069,-0.323283 0.03135,-0.647226 0,-0.96875 z" />
    </g>
    <rect
       ry="25"
       rx="25"
       id="rect3003"
       style="opacity:0.15;fill:#ffffff;fill-opacity:1"
       height="92"
       width="92"
       y="958.36218"
       x="-96"
       clip-path="url(#clipPath3009)"
       transform="translate(98,0)" />
  </g>
</svg>
