<?xml version="1.0" encoding="UTF-8" standalone="no"?>
<!-- Created with Inkscape (http://www.inkscape.org/) -->

<svg
   xmlns:dc="http://purl.org/dc/elements/1.1/"
   xmlns:cc="http://creativecommons.org/ns#"
   xmlns:rdf="http://www.w3.org/1999/02/22-rdf-syntax-ns#"
   xmlns:svg="http://www.w3.org/2000/svg"
   xmlns="http://www.w3.org/2000/svg"
   xmlns:xlink="http://www.w3.org/1999/xlink"
   xmlns:sodipodi="http://sodipodi.sourceforge.net/DTD/sodipodi-0.dtd"
   xmlns:inkscape="http://www.inkscape.org/namespaces/inkscape"
   width="96"
   height="96"
   id="svg11037"
   version="1.1"
   inkscape:version="0.48.3.1 r9886"
   sodipodi:docname="templat.svg">
  <defs
     id="defs11039">
    <linearGradient
       y2="1046.1001"
       x2="47.999954"
       y1="962.62189"
       x1="47.999954"
       gradientTransform="matrix(1.15,0,0,1.15,-7.1999462,-150.65291)"
       gradientUnits="userSpaceOnUse"
       id="linearGradient3886"
       xlink:href="#linearGradient3795"
       inkscape:collect="always" />
    <linearGradient
       id="linearGradient3795">
      <stop
         style="stop-color:#13a6fd;stop-opacity:1;"
         offset="0"
         id="stop3797" />
      <stop
         style="stop-color:#2975b6;stop-opacity:1;"
         offset="1"
         id="stop3799" />
    </linearGradient>
    <linearGradient
       y2="1046.1001"
       x2="47.999954"
       y1="962.62189"
       x1="47.999954"
       gradientTransform="matrix(1.15,0,0,1.15,-7.1999462,-150.65292)"
       gradientUnits="userSpaceOnUse"
       id="linearGradient11642"
       xlink:href="#ButtonColor-6"
       inkscape:collect="always" />
    <clipPath
       clipPathUnits="userSpaceOnUse"
       id="clipPath3009">
      <path
         id="path3011"
         d="m -2,956.36218 -96,0 0,33.5624 96,25.68742 0,-59.24982 z"
         style="opacity:0.15;fill:#ffffff;fill-opacity:1;stroke:none"
         inkscape:connector-curvature="0" />
    </clipPath>
    <linearGradient
       x1="48"
       y1="90"
       x2="48"
       y2="5.9877172"
       id="linearGradient3052"
       xlink:href="#ButtonColor-6"
       gradientUnits="userSpaceOnUse" />
    <linearGradient
       x1="10.31979"
       y1="21"
       x2="10.31979"
       y2="0.99929649"
       id="ButtonColor-6"
       gradientUnits="userSpaceOnUse">
      <stop
         id="stop3189-4"
         style="stop-color:#c8c8c8;stop-opacity:1"
         offset="0" />
      <stop
         id="stop3191-0"
         style="stop-color:#e6e6e6;stop-opacity:1"
         offset="1" />
    </linearGradient>
    <linearGradient
       gradientTransform="translate(-99.517779,931.63119)"
       y2="5.9877172"
       x2="48"
       y1="90"
       x1="48"
       gradientUnits="userSpaceOnUse"
       id="linearGradient3041"
       xlink:href="#ButtonColor-6"
       inkscape:collect="always" />
    <filter
       color-interpolation-filters="sRGB"
       id="filter3851">
      <feGaussianBlur
         id="feGaussianBlur3853"
         stdDeviation="0.15745957" />
    </filter>
    <linearGradient
       x1="10.735273"
       y1="5.3143144"
       x2="12.340249"
       y2="15.422365"
       id="linearGradient2902"
       xlink:href="#linearGradient3651"
       gradientUnits="userSpaceOnUse" />
    <linearGradient
       id="linearGradient3651">
      <stop
         id="stop3653"
         style="stop-color:#f3840c;stop-opacity:1"
         offset="0" />
      <stop
         id="stop3655"
         style="stop-color:#f9ba3f;stop-opacity:1"
         offset="1" />
    </linearGradient>
  </defs>
  <sodipodi:namedview
     id="base"
     pagecolor="#ffffff"
     bordercolor="#666666"
     borderopacity="1.0"
     inkscape:pageopacity="0.0"
     inkscape:pageshadow="2"
     inkscape:zoom="3.959798"
     inkscape:cx="29.118614"
     inkscape:cy="59.964634"
     inkscape:document-units="px"
     inkscape:current-layer="layer1"
     showgrid="false"
     inkscape:window-width="1280"
     inkscape:window-height="750"
     inkscape:window-x="0"
     inkscape:window-y="22"
     inkscape:window-maximized="1"
     showguides="true"
     inkscape:guide-bbox="true">
    <sodipodi:guide
       orientation="0,1"
       position="-24.748737,0"
       id="guide11064" />
    <sodipodi:guide
       orientation="0,1"
       position="-23.233509,96"
       id="guide11066" />
    <sodipodi:guide
       orientation="1,0"
       position="0,54.800776"
       id="guide11068" />
    <sodipodi:guide
       orientation="1,0"
       position="96,51.012704"
       id="guide11070" />
    <sodipodi:guide
       orientation="0,1"
       position="-18.94036,48"
       id="guide11072" />
    <sodipodi:guide
       orientation="1,0"
       position="48,79.296975"
       id="guide11074" />
    <sodipodi:guide
       orientation="1,0"
       position="2,75.508903"
       id="guide11076" />
    <sodipodi:guide
       orientation="0,1"
       position="-77.27667,2"
       id="guide11078" />
    <sodipodi:guide
       orientation="1,0"
       position="94,77.781746"
       id="guide11080" />
    <sodipodi:guide
       orientation="0,1"
       position="-65.912454,94"
       id="guide11082" />
  </sodipodi:namedview>
  <metadata
     id="metadata11042">
    <rdf:RDF>
      <cc:Work
         rdf:about="">
        <dc:format>image/svg+xml</dc:format>
        <dc:type
           rdf:resource="http://purl.org/dc/dcmitype/StillImage" />
        <dc:title></dc:title>
      </cc:Work>
    </rdf:RDF>
  </metadata>
  <g
     inkscape:label="Layer 1"
     inkscape:groupmode="layer"
     id="layer1"
     transform="translate(0,-956.36218)">
    <rect
       x="2"
       y="958.36218"
       width="92"
       height="92"
       style="fill:url(#linearGradient11642);fill-opacity:1.0"
       id="rect3867"
       rx="25"
       ry="25" />
    <g
       transform="translate(3.5037408e-7,1030.3622)"
       style="display:inline"
       id="g3054">
      <path
         inkscape:connector-curvature="0"
         style="opacity:0.2;color:#000000;fill:none;stroke:#ffffff;stroke-width:0.68230891;stroke-miterlimit:4;stroke-dasharray:none;marker:none;visibility:visible;display:inline;overflow:visible;filter:url(#filter3851);enable-background:accumulate"
         id="path3081"
         transform="matrix(5.7899147,0.91933388,-0.91933388,5.7899147,-5.5803626,-96.638728)"
         d="M 15,15 11.442463,13.793604 8.431842,16.040294 8.479853,12.284079 5.4127911,10.115073 9,9 l 1.115073,-3.5872089 2.169006,3.0670619 3.756215,-0.048011 -2.24669,3.010621 z" />
      <path
         inkscape:connector-curvature="0"
         style="color:#000000;fill:url(#linearGradient2902);fill-opacity:1;fill-rule:nonzero;stroke:none;stroke-width:1;marker:none;visibility:visible;display:inline;overflow:visible;enable-background:accumulate"
         id="path3649"
         transform="matrix(5.7899147,0.91933388,-0.91933388,5.7899147,-5.5803626,-96.638728)"
         d="M 15,15 11.442463,13.793604 8.431842,16.040294 8.479853,12.284079 5.4127911,10.115073 9,9 l 1.115073,-3.5872089 2.169006,3.0670619 3.756215,-0.048011 -2.24669,3.010621 z" />
      <path
         style="opacity:0.1;color:#000000;fill:#d45500;fill-opacity:1;fill-rule:nonzero;stroke:none;stroke-width:1;marker:none;visibility:visible;display:inline;overflow:visible;enable-background:accumulate"
         id="path3899"
         transform="translate(0,-74)"
         inkscape:connector-curvature="0"
         d="m 48,18 -9.75,19.75 -21.78125,3.15625 15.75,15.375 L 28.5,78 48,67.75 67.46875,78 63.75,56.28125 79.53125,40.9375 57.75,37.75 48,18 z m -0.03125,4.03125 8.15625,16.5 A 1.7702708,1.7702708 0 0 0 57.46875,39.5 l 18.09375,2.6875 -13.125,12.75 a 1.7702708,1.7702708 0 0 0 -0.28125,0.5 1.7702708,1.7702708 0 0 0 -0.1875,1.09375 L 65.1875,74.84375 48.78125,66.125 A 1.7702708,1.7702708 0 0 0 47.125,66.0625 l -16.21875,8.53125 3.0625,-18.0625 a 1.7702708,1.7702708 0 0 0 -0.5,-1.5625 L 20.3125,42.125 38.53125,39.46875 a 1.7702708,1.7702708 0 0 0 1.03125,-0.59375 1.7702708,1.7702708 0 0 0 0.25,-0.34375 l 8.15625,-16.5 z" />
      <path
         style="opacity:0.2;color:#000000;fill:#d45500;fill-opacity:1;fill-rule:nonzero;stroke:none;stroke-width:1;marker:none;visibility:visible;display:inline;overflow:visible;enable-background:accumulate"
         id="path3127"
         transform="translate(0,-74)"
         inkscape:connector-curvature="0"
         d="m 48,18 -9.75,19.75 -21.78125,3.15625 15.75,15.375 L 28.5,78 48,67.75 67.46875,78 63.75,56.28125 79.53125,40.9375 57.75,37.75 48,18 z m -0.03125,1.8125 8.96875,18.3125 a 0.81395512,0.81395512 0 0 0 0.1875,0.03125 0.81395512,0.81395512 0 0 0 0.125,0.1875 0.81395512,0.81395512 0 0 0 0.1875,0.03125 0.81395512,0.81395512 0 0 0 0.1875,0.03125 l 20.125,3 -14.6875,14.1875 A 0.81395512,0.81395512 0 0 0 63.03125,55.78125 0.81395512,0.81395512 0 0 0 63,55.96875 0.81395512,0.81395512 0 0 0 62.96875,56.125 0.81395512,0.81395512 0 0 0 62.9375,56.3125 l 3.46875,20.21875 -18.125,-9.5625 a 0.81395512,0.81395512 0 0 0 -0.1875,-0.03125 0.81395512,0.81395512 0 0 0 -0.1875,-0.03125 0.81395512,0.81395512 0 0 0 -0.1875,-0.03125 0.81395512,0.81395512 0 0 0 -0.1875,-0.03125 l -18,9.59375 L 32.875,56.375 A 0.81395512,0.81395512 0 0 0 32.90625,56.1875 0.81395512,0.81395512 0 0 0 32.9375,56 0.81395512,0.81395512 0 0 0 32.78125,55.8125 0.81395512,0.81395512 0 0 0 32.8125,55.625 L 18.1875,41.4375 38.3125,38.5 a 0.81395512,0.81395512 0 0 0 0.1875,0.03125 0.81395512,0.81395512 0 0 0 0.21875,-0.15625 0.81395512,0.81395512 0 0 0 0.1875,-0.15625 0.81395512,0.81395512 0 0 0 0.03125,-0.1875 L 47.96875,19.8125 z" />
      <path
         style="opacity:0.5;color:#000000;fill:#d45500;fill-opacity:1;fill-rule:nonzero;stroke:none;stroke-width:1;marker:none;visibility:visible;display:inline;overflow:visible;enable-background:accumulate"
         id="path3925"
         transform="translate(0,-74)"
         inkscape:connector-curvature="0"
         d="M 48,18 38.25,37.75 16.46875,40.90625 17.375,41.78125 38.25,38.75 48,19 57.75,38.75 78.625,41.8125 79.53125,40.9375 57.75,37.75 48,18 z M 32.0625,57.125 28.5,78 28.6875,77.90625 32.21875,57.28125 32.0625,57.125 z m 31.84375,0 -0.15625,0.15625 3.53125,20.625 L 67.46875,78 63.90625,57.125 z" />
      <path
         style="opacity:0.5;color:#000000;fill:#ffffff;fill-opacity:1;fill-rule:nonzero;stroke:none;stroke-width:1;marker:none;visibility:visible;display:inline;overflow:visible;enable-background:accumulate"
         id="path3934"
         transform="translate(0,-74)"
         inkscape:connector-curvature="0"
         d="m 17.375,41.78125 -0.90625,0.125 L 32.0625,57.125 32.21875,56.28125 17.375,41.78125 z M 78.625,41.8125 63.75,56.28125 63.90625,57.125 79.53125,41.9375 78.625,41.8125 z M 48,67.75 28.6875,77.90625 28.5,79 48,68.75 67.46875,79 67.28125,77.90625 48,67.75 z" />
    </g>
    <rect
       ry="25"
       rx="25"
       id="rect3003"
       style="opacity:0.15;fill:#ffffff;fill-opacity:1"
       height="92"
       width="92"
       y="958.36218"
       x="-96"
       clip-path="url(#clipPath3009)"
       transform="translate(98,0)" />
  </g>
</svg>
