<?xml version="1.0" encoding="UTF-8" standalone="no"?>
<!-- Created with Inkscape (http://www.inkscape.org/) -->

<svg
   xmlns:dc="http://purl.org/dc/elements/1.1/"
   xmlns:cc="http://creativecommons.org/ns#"
   xmlns:rdf="http://www.w3.org/1999/02/22-rdf-syntax-ns#"
   xmlns:svg="http://www.w3.org/2000/svg"
   xmlns="http://www.w3.org/2000/svg"
   xmlns:xlink="http://www.w3.org/1999/xlink"
   xmlns:sodipodi="http://sodipodi.sourceforge.net/DTD/sodipodi-0.dtd"
   xmlns:inkscape="http://www.inkscape.org/namespaces/inkscape"
   width="96"
   height="96"
   id="svg11037"
   version="1.1"
   inkscape:version="0.48.3.1 r9886"
   sodipodi:docname="templat.svg">
  <defs
     id="defs11039">
    <linearGradient
       y2="1046.1001"
       x2="47.999954"
       y1="962.62189"
       x1="47.999954"
       gradientTransform="matrix(1.15,0,0,1.15,-7.1999462,-150.65291)"
       gradientUnits="userSpaceOnUse"
       id="linearGradient3886"
       xlink:href="#linearGradient3795"
       inkscape:collect="always" />
    <linearGradient
       id="linearGradient3795">
      <stop
         style="stop-color:#13a6fd;stop-opacity:1;"
         offset="0"
         id="stop3797" />
      <stop
         style="stop-color:#2975b6;stop-opacity:1;"
         offset="1"
         id="stop3799" />
    </linearGradient>
    <linearGradient
       y2="1046.1001"
       x2="47.999954"
       y1="962.62189"
       x1="47.999954"
       gradientTransform="matrix(1.15,0,0,1.15,-7.1999462,-150.65292)"
       gradientUnits="userSpaceOnUse"
       id="linearGradient11642"
       xlink:href="#ButtonColor-6"
       inkscape:collect="always" />
    <clipPath
       clipPathUnits="userSpaceOnUse"
       id="clipPath3009">
      <path
         id="path3011"
         d="m -2,956.36218 -96,0 0,33.5624 96,25.68742 0,-59.24982 z"
         style="opacity:0.15;fill:#ffffff;fill-opacity:1;stroke:none"
         inkscape:connector-curvature="0" />
    </clipPath>
    <linearGradient
       x1="48"
       y1="90"
       x2="48"
       y2="5.9877172"
       id="linearGradient3052"
       xlink:href="#ButtonColor-6"
       gradientUnits="userSpaceOnUse"
       gradientTransform="translate(-85.016949,-11.79661)" />
    <linearGradient
       x1="10.31979"
       y1="21"
       x2="10.31979"
       y2="0.99929649"
       id="ButtonColor-6"
       gradientUnits="userSpaceOnUse">
      <stop
         id="stop3189-4"
         style="stop-color:#c8c8c8;stop-opacity:1"
         offset="0" />
      <stop
         id="stop3191-0"
         style="stop-color:#e6e6e6;stop-opacity:1"
         offset="1" />
    </linearGradient>
    <linearGradient
       y2="5.9877172"
       x2="48"
       y1="90"
       x1="48"
       gradientTransform="translate(-115.17514,914.20606)"
       gradientUnits="userSpaceOnUse"
       id="linearGradient3040"
       xlink:href="#ButtonColor-6"
       inkscape:collect="always" />
    <filter
       color-interpolation-filters="sRGB"
       id="filter3983">
      <feGaussianBlur
         id="feGaussianBlur3985"
         stdDeviation="0.8690625" />
    </filter>
    <linearGradient
       x1="26.018665"
       y1="6.9005618"
       x2="26.018665"
       y2="21.617134"
       id="linearGradient2956"
       xlink:href="#linearGradient5520"
       gradientUnits="userSpaceOnUse"
       gradientTransform="matrix(3.6988916,0,0,4.3488388,-48.240224,-88.009431)" />
    <linearGradient
       x1="11.998966"
       y1="0.92195445"
       x2="11.998966"
       y2="19.387045"
       id="linearGradient5520"
       gradientUnits="userSpaceOnUse"
       gradientTransform="scale(0.9219544,1.0846523)">
      <stop
         id="stop5522"
         style="stop-color:#323232;stop-opacity:1"
         offset="0" />
      <stop
         id="stop5524"
         style="stop-color:#787878;stop-opacity:1"
         offset="1" />
    </linearGradient>
  </defs>
  <sodipodi:namedview
     id="base"
     pagecolor="#ffffff"
     bordercolor="#666666"
     borderopacity="1.0"
     inkscape:pageopacity="0.0"
     inkscape:pageshadow="2"
     inkscape:zoom="3.959798"
     inkscape:cx="29.118614"
     inkscape:cy="59.964634"
     inkscape:document-units="px"
     inkscape:current-layer="layer1"
     showgrid="false"
     inkscape:window-width="1280"
     inkscape:window-height="750"
     inkscape:window-x="0"
     inkscape:window-y="22"
     inkscape:window-maximized="1"
     showguides="true"
     inkscape:guide-bbox="true">
    <sodipodi:guide
       orientation="0,1"
       position="-24.748737,0"
       id="guide11064" />
    <sodipodi:guide
       orientation="0,1"
       position="-23.233509,96"
       id="guide11066" />
    <sodipodi:guide
       orientation="1,0"
       position="0,54.800776"
       id="guide11068" />
    <sodipodi:guide
       orientation="1,0"
       position="96,51.012704"
       id="guide11070" />
    <sodipodi:guide
       orientation="0,1"
       position="-18.94036,48"
       id="guide11072" />
    <sodipodi:guide
       orientation="1,0"
       position="48,79.296975"
       id="guide11074" />
    <sodipodi:guide
       orientation="1,0"
       position="2,75.508903"
       id="guide11076" />
    <sodipodi:guide
       orientation="0,1"
       position="-77.27667,2"
       id="guide11078" />
    <sodipodi:guide
       orientation="1,0"
       position="94,77.781746"
       id="guide11080" />
    <sodipodi:guide
       orientation="0,1"
       position="-65.912454,94"
       id="guide11082" />
  </sodipodi:namedview>
  <metadata
     id="metadata11042">
    <rdf:RDF>
      <cc:Work
         rdf:about="">
        <dc:format>image/svg+xml</dc:format>
        <dc:type
           rdf:resource="http://purl.org/dc/dcmitype/StillImage" />
        <dc:title></dc:title>
      </cc:Work>
    </rdf:RDF>
  </metadata>
  <g
     inkscape:label="Layer 1"
     inkscape:groupmode="layer"
     id="layer1"
     transform="translate(0,-956.36218)">
    <rect
       x="2"
       y="958.36218"
       width="92"
       height="92"
       style="fill:url(#linearGradient11642);fill-opacity:1.0"
       id="rect3867"
       rx="25"
       ry="25" />
    <g
       transform="translate(-4.0054321e-8,1030.3622)"
       id="layer1-1"
       style="display:inline">
      <path
         d="m 36,-57.875 0,6 24,0 0,-6 z m 0,10 0,10 24,0 0,-10 z m 0,14 0,13.875 -14,0 26,26 26,-26 -14,0 0,-13.875 z"
         inkscape:connector-curvature="0"
         id="path3981"
         style="opacity:0.2;fill:none;stroke:#ffffff;stroke-width:4;stroke-miterlimit:4;stroke-dasharray:none;display:inline;filter:url(#filter3983)" />
      <path
         d="m 36,-57.875 0,6 24,0 0,-6 z m 0,10 0,10 24,0 0,-10 z m 0,14 0,13.875 -14,0 26,26 26,-26 -14,0 0,-13.875 z"
         inkscape:connector-curvature="0"
         id="Symbol"
         style="fill:url(#linearGradient2956);fill-opacity:1;stroke:none;display:inline" />
      <path
         d="m 36,16.125 0,6 24,0 0,-6 -24,0 z m 1.9375,1.9375 20.125,0 0,2.125 -20.125,0 0,-2.125 z M 36,26.125 l 0,10 24,0 0,-10 -24,0 z m 1.9375,1.9375 20.125,0 0,6.125 -20.125,0 0,-6.125 z M 36,40.125 36,54 22,54 48,80 74,54 l -14,0 0,-13.875 -24,0 z m 1.9375,1.9375 20.125,0 0,11.9375 A 1.9249095,1.9249095 0 0 0 60,55.9375 l 9.3125,0 L 48,77.25 26.6875,55.9375 36,55.9375 A 1.9249095,1.9249095 0 0 0 37.9375,54 l 0,-11.9375 z"
         inkscape:connector-curvature="0"
         transform="translate(0,-74)"
         id="path3953"
         style="opacity:0.1;fill:#000000;fill-opacity:1;stroke:none;display:inline" />
      <path
         d="m 36,16.125 0,6 24,0 0,-6 -24,0 z m 0.96875,0.96875 22.0625,0 0,4.0625 -22.0625,0 0,-4.0625 z M 36,26.125 l 0,10 24,0 0,-10 -24,0 z m 0.96875,0.96875 22.0625,0 0,8.0625 -22.0625,0 0,-8.0625 z M 36,40.125 36,54 22,54 48,80 74,54 l -14,0 0,-13.875 -24,0 z m 0.96875,0.96875 22.0625,0 0,12.90625 A 0.96245477,0.96245477 0 0 0 60,54.96875 l 11.65625,0 L 48,78.625 24.34375,54.96875 36,54.96875 A 0.96245477,0.96245477 0 0 0 36.96875,54 l 0,-12.90625 z"
         inkscape:connector-curvature="0"
         transform="translate(0,-74)"
         id="path3181"
         style="opacity:0.2;fill:#000000;fill-opacity:1;stroke:none;display:inline" />
      <path
         d="m 36,16.125 0,1 24,0 0,-1 -24,0 z m 0,10 0,1 24,0 0,-1 -24,0 z m 0,14 0,1 24,0 0,-1 -24,0 z M 22,54 l 1,1 13,0 0,-1 -14,0 z m 38,0 0,1 13,0 1,-1 -14,0 z"
         inkscape:connector-curvature="0"
         transform="translate(0,-74)"
         id="path3963"
         style="opacity:0.3;fill:#000000;fill-opacity:1;stroke:none;display:inline" />
      <path
         d="m 36,22.125 0,1 24,0 0,-1 -24,0 z m 0,14 0,1 24,0 0,-1 -24,0 z M 22,55 48,81 74,55 73,55 48,80 23,55 22,55 z"
         inkscape:connector-curvature="0"
         transform="translate(0,-74)"
         id="path3972"
         style="opacity:0.5;fill:#ffffff;fill-opacity:1;stroke:none;display:inline" />
    </g>
    <rect
       ry="25"
       rx="25"
       id="rect3003"
       style="opacity:0.15;fill:#ffffff;fill-opacity:1"
       height="92"
       width="92"
       y="958.36218"
       x="-96"
       clip-path="url(#clipPath3009)"
       transform="translate(98,0)" />
  </g>
</svg>
