<?xml version="1.0" encoding="UTF-8" standalone="no"?>
<!-- Created with Inkscape (http://www.inkscape.org/) -->

<svg
   xmlns:dc="http://purl.org/dc/elements/1.1/"
   xmlns:cc="http://creativecommons.org/ns#"
   xmlns:rdf="http://www.w3.org/1999/02/22-rdf-syntax-ns#"
   xmlns:svg="http://www.w3.org/2000/svg"
   xmlns="http://www.w3.org/2000/svg"
   xmlns:xlink="http://www.w3.org/1999/xlink"
   xmlns:sodipodi="http://sodipodi.sourceforge.net/DTD/sodipodi-0.dtd"
   xmlns:inkscape="http://www.inkscape.org/namespaces/inkscape"
   width="96"
   height="96"
   id="svg11037"
   version="1.1"
   inkscape:version="0.48.3.1 r9886"
   sodipodi:docname="templat.svg">
  <defs
     id="defs11039">
    <linearGradient
       y2="1046.1001"
       x2="47.999954"
       y1="962.62189"
       x1="47.999954"
       gradientTransform="matrix(1.15,0,0,1.15,-7.1999462,-150.65291)"
       gradientUnits="userSpaceOnUse"
       id="linearGradient3886"
       xlink:href="#linearGradient3795"
       inkscape:collect="always" />
    <linearGradient
       id="linearGradient3795">
      <stop
         style="stop-color:#13a6fd;stop-opacity:1;"
         offset="0"
         id="stop3797" />
      <stop
         style="stop-color:#2975b6;stop-opacity:1;"
         offset="1"
         id="stop3799" />
    </linearGradient>
    <linearGradient
       y2="1046.1001"
       x2="47.999954"
       y1="962.62189"
       x1="47.999954"
       gradientTransform="matrix(1.15,0,0,1.15,-7.1999462,-150.65292)"
       gradientUnits="userSpaceOnUse"
       id="linearGradient11642"
       xlink:href="#ButtonColor-6"
       inkscape:collect="always" />
    <clipPath
       clipPathUnits="userSpaceOnUse"
       id="clipPath3009">
      <path
         id="path3011"
         d="m -2,956.36218 -96,0 0,33.5624 96,25.68742 0,-59.24982 z"
         style="opacity:0.15;fill:#ffffff;fill-opacity:1;stroke:none"
         inkscape:connector-curvature="0" />
    </clipPath>
    <linearGradient
       x1="48"
       y1="90"
       x2="48"
       y2="5.9877172"
       id="linearGradient3052"
       xlink:href="#ButtonColor-6"
       gradientUnits="userSpaceOnUse" />
    <linearGradient
       x1="10.31979"
       y1="21"
       x2="10.31979"
       y2="0.99929649"
       id="ButtonColor-6"
       gradientUnits="userSpaceOnUse">
      <stop
         id="stop3189-4"
         style="stop-color:#c8c8c8;stop-opacity:1"
         offset="0" />
      <stop
         id="stop3191-0"
         style="stop-color:#e6e6e6;stop-opacity:1"
         offset="1" />
    </linearGradient>
    <linearGradient
       gradientTransform="translate(-82.597724,973.04745)"
       y2="5.9877172"
       x2="48"
       y1="90"
       x1="48"
       gradientUnits="userSpaceOnUse"
       id="linearGradient3042"
       xlink:href="#ButtonColor-6"
       inkscape:collect="always" />
    <clipPath
       id="clipPath3647">
      <path
         d="m -100,-74 0,96 96,0 0,-96 -96,0 z M -67.0625,-54 -52,-38.9375 -36.9375,-54 -24,-41.0625 -39.0625,-26 -24,-10.9375 -36.9375,2 -52,-13.0625 -67.0625,2 -80,-10.9375 -64.9375,-26 -80,-41.0625 -67.0625,-54 z"
         inkscape:connector-curvature="0"
         id="path3649"
         style="opacity:0.3;color:#000000;fill:#ff0000;fill-opacity:1;fill-rule:nonzero;stroke:none;stroke-width:4;marker:none;visibility:visible;display:inline;overflow:visible;enable-background:accumulate" />
    </clipPath>
    <filter
       color-interpolation-filters="sRGB"
       id="filter3651">
      <feGaussianBlur
         id="feGaussianBlur3653"
         stdDeviation="0.84000001" />
    </filter>
    <linearGradient
       x1="11"
       y1="3.9374998"
       x2="11"
       y2="18.083122"
       id="linearGradient3634"
       xlink:href="#linearGradient3904"
       gradientUnits="userSpaceOnUse"
       gradientTransform="matrix(4,0,0,4,4,-70)" />
    <linearGradient
       x1="11"
       y1="3.9374998"
       x2="11"
       y2="18.083122"
       id="linearGradient3904"
       gradientUnits="userSpaceOnUse">
      <stop
         id="stop3906"
         style="stop-color:#323232;stop-opacity:1"
         offset="0" />
      <stop
         id="stop3908"
         style="stop-color:#787878;stop-opacity:1"
         offset="1" />
    </linearGradient>
  </defs>
  <sodipodi:namedview
     id="base"
     pagecolor="#ffffff"
     bordercolor="#666666"
     borderopacity="1.0"
     inkscape:pageopacity="0.0"
     inkscape:pageshadow="2"
     inkscape:zoom="3.959798"
     inkscape:cx="29.118614"
     inkscape:cy="59.964634"
     inkscape:document-units="px"
     inkscape:current-layer="layer1"
     showgrid="false"
     inkscape:window-width="1280"
     inkscape:window-height="750"
     inkscape:window-x="0"
     inkscape:window-y="22"
     inkscape:window-maximized="1"
     showguides="true"
     inkscape:guide-bbox="true">
    <sodipodi:guide
       orientation="0,1"
       position="-24.748737,0"
       id="guide11064" />
    <sodipodi:guide
       orientation="0,1"
       position="-23.233509,96"
       id="guide11066" />
    <sodipodi:guide
       orientation="1,0"
       position="0,54.800776"
       id="guide11068" />
    <sodipodi:guide
       orientation="1,0"
       position="96,51.012704"
       id="guide11070" />
    <sodipodi:guide
       orientation="0,1"
       position="-18.94036,48"
       id="guide11072" />
    <sodipodi:guide
       orientation="1,0"
       position="48,79.296975"
       id="guide11074" />
    <sodipodi:guide
       orientation="1,0"
       position="2,75.508903"
       id="guide11076" />
    <sodipodi:guide
       orientation="0,1"
       position="-77.27667,2"
       id="guide11078" />
    <sodipodi:guide
       orientation="1,0"
       position="94,77.781746"
       id="guide11080" />
    <sodipodi:guide
       orientation="0,1"
       position="-65.912454,94"
       id="guide11082" />
  </sodipodi:namedview>
  <metadata
     id="metadata11042">
    <rdf:RDF>
      <cc:Work
         rdf:about="">
        <dc:format>image/svg+xml</dc:format>
        <dc:type
           rdf:resource="http://purl.org/dc/dcmitype/StillImage" />
        <dc:title></dc:title>
      </cc:Work>
    </rdf:RDF>
  </metadata>
  <g
     inkscape:label="Layer 1"
     inkscape:groupmode="layer"
     id="layer1"
     transform="translate(0,-956.36218)">
    <rect
       x="2"
       y="958.36218"
       width="92"
       height="92"
       style="fill:url(#linearGradient11642);fill-opacity:1.0"
       id="rect3867"
       rx="25"
       ry="25" />
    <g
       transform="translate(8.0108636e-8,1030.3622)"
       style="display:inline"
       id="g3044">
      <path
         style="opacity:0.2;fill:none;stroke:#ffffff;stroke-width:4;stroke-miterlimit:4;stroke-dasharray:none;filter:url(#filter3651)"
         id="path3638"
         clip-path="url(#clipPath3647)"
         transform="translate(100,0)"
         inkscape:connector-curvature="0"
         d="M -36.923076,-54.000001 -52,-38.923078 -67.076922,-54.000001 -80,-41.076924 -64.923076,-26.000004 -80,-10.92308 -67.076922,2 -52,-13.076928 -36.923076,2 -24,-10.92308 -39.076924,-26.000004 -24,-41.076924 -36.923076,-54.000001 z" />
      <path
         style="fill:url(#linearGradient3634);fill-opacity:1;stroke:none"
         id="Symbol"
         inkscape:connector-curvature="0"
         d="M 63.076924,-54.000001 48,-38.923078 32.923078,-54.000001 20,-41.076924 35.076924,-26.000004 20,-10.92308 32.923078,2 48,-13.076928 63.076924,2 76,-10.92308 60.923076,-26.000004 76,-41.076924 63.076924,-54.000001 z" />
      <path
         style="opacity:0.1;fill:#000000;fill-opacity:1;stroke:none"
         id="path3876"
         transform="translate(0,-74)"
         inkscape:connector-curvature="0"
         d="M 32.9375,20 20,32.9375 35.0625,48 20,63.0625 32.9375,76 48,60.9375 63.0625,76 76,63.0625 60.9375,48 76,32.9375 63.0625,20 48,35.0625 32.9375,20 z m 0,2.6875 13.71875,13.71875 a 1.8996937,1.8996937 0 0 0 2.6875,0 L 63.0625,22.6875 l 10.25,10.25 -13.71875,13.71875 a 1.8996937,1.8996937 0 0 0 0,2.6875 L 73.3125,63.0625 63.0625,73.3125 49.34375,59.59375 a 1.8996937,1.8996937 0 0 0 -2.6875,0 L 32.9375,73.3125 22.6875,63.0625 36.40625,49.34375 a 1.8996937,1.8996937 0 0 0 0,-2.6875 L 22.6875,32.9375 l 10.25,-10.25 z" />
      <path
         style="opacity:0.2;fill:#000000;fill-opacity:1;stroke:none"
         id="path3104"
         transform="translate(0,-74)"
         inkscape:connector-curvature="0"
         d="M 32.9375,20 20,32.9375 35.0625,48 20,63.0625 32.9375,76 48,60.9375 63.0625,76 76,63.0625 60.9375,48 76,32.9375 63.0625,20 48,35.0625 32.9375,20 z m 0,1.5625 14.28125,14.28125 a 1.1081546,1.1081546 0 0 0 1.5625,0 L 63.0625,21.5625 74.4375,32.9375 60.15625,47.21875 a 1.1081546,1.1081546 0 0 0 0,1.5625 L 74.4375,63.0625 63.0625,74.4375 48.78125,60.15625 a 1.1081546,1.1081546 0 0 0 -1.5625,0 L 32.9375,74.4375 21.5625,63.0625 35.84375,48.78125 a 1.1081546,1.1081546 0 0 0 0,-1.5625 L 21.5625,32.9375 32.9375,21.5625 z" />
      <path
         style="opacity:0.3;fill:#000000;fill-opacity:1;stroke:none"
         id="path3886"
         transform="translate(0,-74)"
         inkscape:connector-curvature="0"
         d="M 32.9375,20 20,32.9375 l 0.5,0.5 L 32.9375,21 48,36.0625 63.0625,21 75.5,33.4375 76,32.9375 63.0625,20 48,35.0625 32.9375,20 z M 34.5625,48.5 20,63.0625 l 0.5,0.5 L 35.0625,49 l -0.5,-0.5 z m 26.875,0 -0.5,0.5 L 75.5,63.5625 76,63.0625 61.4375,48.5 z" />
      <path
         style="opacity:0.5;fill:#ffffff;fill-opacity:1;stroke:none"
         id="path3895"
         transform="translate(0,-74)"
         inkscape:connector-curvature="0"
         d="M 20.5,33.4375 20,33.9375 34.5625,48.5 35.0625,48 20.5,33.4375 z m 55,0 L 60.9375,48 l 0.5,0.5 L 76,33.9375 l -0.5,-0.5 z M 48,60.9375 32.9375,76 20.5,63.5625 20,64.0625 32.9375,77 48,61.9375 63.0625,77 76,64.0625 75.5,63.5625 63.0625,76 48,60.9375 z" />
    </g>
    <rect
       ry="25"
       rx="25"
       id="rect3003"
       style="opacity:0.15;fill:#ffffff;fill-opacity:1"
       height="92"
       width="92"
       y="958.36218"
       x="-96"
       clip-path="url(#clipPath3009)"
       transform="translate(98,0)" />
  </g>
</svg>
