<?xml version="1.0" encoding="UTF-8" standalone="no"?>
<!-- Created with Inkscape (http://www.inkscape.org/) -->

<svg
   xmlns:dc="http://purl.org/dc/elements/1.1/"
   xmlns:cc="http://creativecommons.org/ns#"
   xmlns:rdf="http://www.w3.org/1999/02/22-rdf-syntax-ns#"
   xmlns:svg="http://www.w3.org/2000/svg"
   xmlns="http://www.w3.org/2000/svg"
   xmlns:xlink="http://www.w3.org/1999/xlink"
   xmlns:sodipodi="http://sodipodi.sourceforge.net/DTD/sodipodi-0.dtd"
   xmlns:inkscape="http://www.inkscape.org/namespaces/inkscape"
   width="96"
   height="96"
   id="svg11037"
   version="1.1"
   inkscape:version="0.48.3.1 r9886"
   sodipodi:docname="templat.svg">
  <defs
     id="defs11039">
    <linearGradient
       y2="1046.1001"
       x2="47.999954"
       y1="962.62189"
       x1="47.999954"
       gradientTransform="matrix(1.15,0,0,1.15,-7.1999462,-150.65291)"
       gradientUnits="userSpaceOnUse"
       id="linearGradient3886"
       xlink:href="#linearGradient3795"
       inkscape:collect="always" />
    <linearGradient
       id="linearGradient3795">
      <stop
         style="stop-color:#13a6fd;stop-opacity:1;"
         offset="0"
         id="stop3797" />
      <stop
         style="stop-color:#2975b6;stop-opacity:1;"
         offset="1"
         id="stop3799" />
    </linearGradient>
    <linearGradient
       y2="1046.1001"
       x2="47.999954"
       y1="962.62189"
       x1="47.999954"
       gradientTransform="matrix(1.15,0,0,1.15,-7.1999462,-150.65292)"
       gradientUnits="userSpaceOnUse"
       id="linearGradient11642"
       xlink:href="#ButtonColor-6"
       inkscape:collect="always" />
    <clipPath
       clipPathUnits="userSpaceOnUse"
       id="clipPath3009">
      <path
         id="path3011"
         d="m -2,956.36218 -96,0 0,33.5624 96,25.68742 0,-59.24982 z"
         style="opacity:0.15;fill:#ffffff;fill-opacity:1;stroke:none"
         inkscape:connector-curvature="0" />
    </clipPath>
    <linearGradient
       x1="48"
       y1="90"
       x2="48"
       y2="5.9877172"
       id="linearGradient3052"
       xlink:href="#ButtonColor-6"
       gradientUnits="userSpaceOnUse" />
    <linearGradient
       x1="10.31979"
       y1="21"
       x2="10.31979"
       y2="0.99929649"
       id="ButtonColor-6"
       gradientUnits="userSpaceOnUse">
      <stop
         id="stop3189-4"
         style="stop-color:#c8c8c8;stop-opacity:1"
         offset="0" />
      <stop
         id="stop3191-0"
         style="stop-color:#e6e6e6;stop-opacity:1"
         offset="1" />
    </linearGradient>
    <linearGradient
       gradientTransform="translate(-87.901025,989.71497)"
       y2="5.9877172"
       x2="48"
       y1="90"
       x1="48"
       gradientUnits="userSpaceOnUse"
       id="linearGradient3042"
       xlink:href="#ButtonColor-6"
       inkscape:collect="always" />
    <clipPath
       id="clipPath3720">
      <path
         d="m -100,-74 0,96 96,0 0,-96 -96,0 z m 48.25,20.375 c 5.310324,0 10.282712,1.532132 14.5,4.125 l -4.75,7.875 c -2.817244,-1.742827 -6.188048,-2.749999 -9.75,-2.75 -9.630238,0 -17.522742,7.344919 -18.375,16.75 l 9.875,0 -13.875,20.75 -13.875,-20.75 8.625,0 c 0.894193,-14.496311 12.90481,-26.000003 27.625,-26 z m 21.875,8 13.875,20.75 -8.625,0 c -0.894192,14.496312 -12.904808,26.000004 -27.625,26 -5.310324,0 -10.282712,-1.532132 -14.5,-4.125 l 4.75,-7.875 c 2.817244,1.742828 6.188048,2.75 9.75,2.75 9.63024,0 17.52274,-7.34492 18.375,-16.75 l -9.875,0 13.875,-20.75 z"
         inkscape:connector-curvature="0"
         id="path3722"
         style="opacity:0.3;color:#000000;fill:#ff0000;fill-opacity:1;fill-rule:nonzero;stroke:none;stroke-width:4;marker:none;visibility:visible;display:inline;overflow:visible;enable-background:accumulate" />
    </clipPath>
    <filter
       color-interpolation-filters="sRGB"
       id="filter3724">
      <feGaussianBlur
         id="feGaussianBlur3726"
         stdDeviation="0.950625" />
    </filter>
    <linearGradient
       x1="10"
       y1="4"
       x2="10"
       y2="18"
       id="linearGradient3760"
       xlink:href="#linearGradient3904"
       gradientUnits="userSpaceOnUse"
       gradientTransform="matrix(4,0,0,4,0,-70)" />
    <linearGradient
       x1="11"
       y1="3.9374998"
       x2="11"
       y2="18.083122"
       id="linearGradient3904"
       gradientUnits="userSpaceOnUse">
      <stop
         id="stop3906"
         style="stop-color:#323232;stop-opacity:1"
         offset="0" />
      <stop
         id="stop3908"
         style="stop-color:#787878;stop-opacity:1"
         offset="1" />
    </linearGradient>
  </defs>
  <sodipodi:namedview
     id="base"
     pagecolor="#ffffff"
     bordercolor="#666666"
     borderopacity="1.0"
     inkscape:pageopacity="0.0"
     inkscape:pageshadow="2"
     inkscape:zoom="3.959798"
     inkscape:cx="29.118614"
     inkscape:cy="59.964634"
     inkscape:document-units="px"
     inkscape:current-layer="layer1"
     showgrid="false"
     inkscape:window-width="1280"
     inkscape:window-height="750"
     inkscape:window-x="0"
     inkscape:window-y="22"
     inkscape:window-maximized="1"
     showguides="true"
     inkscape:guide-bbox="true">
    <sodipodi:guide
       orientation="0,1"
       position="-24.748737,0"
       id="guide11064" />
    <sodipodi:guide
       orientation="0,1"
       position="-23.233509,96"
       id="guide11066" />
    <sodipodi:guide
       orientation="1,0"
       position="0,54.800776"
       id="guide11068" />
    <sodipodi:guide
       orientation="1,0"
       position="96,51.012704"
       id="guide11070" />
    <sodipodi:guide
       orientation="0,1"
       position="-18.94036,48"
       id="guide11072" />
    <sodipodi:guide
       orientation="1,0"
       position="48,79.296975"
       id="guide11074" />
    <sodipodi:guide
       orientation="1,0"
       position="2,75.508903"
       id="guide11076" />
    <sodipodi:guide
       orientation="0,1"
       position="-77.27667,2"
       id="guide11078" />
    <sodipodi:guide
       orientation="1,0"
       position="94,77.781746"
       id="guide11080" />
    <sodipodi:guide
       orientation="0,1"
       position="-65.912454,94"
       id="guide11082" />
  </sodipodi:namedview>
  <metadata
     id="metadata11042">
    <rdf:RDF>
      <cc:Work
         rdf:about="">
        <dc:format>image/svg+xml</dc:format>
        <dc:type
           rdf:resource="http://purl.org/dc/dcmitype/StillImage" />
        <dc:title></dc:title>
      </cc:Work>
    </rdf:RDF>
  </metadata>
  <g
     inkscape:label="Layer 1"
     inkscape:groupmode="layer"
     id="layer1"
     transform="translate(0,-956.36218)">
    <rect
       x="2"
       y="958.36218"
       width="92"
       height="92"
       style="fill:url(#linearGradient11642);fill-opacity:1.0"
       id="rect3867"
       rx="25"
       ry="25" />
    <g
       transform="translate(0,1030.3622)"
       style="display:inline"
       id="g3055">
      <path
         style="opacity:0.2;fill:none;stroke:#ffffff;stroke-width:4;stroke-miterlimit:4;stroke-dasharray:none;display:inline;filter:url(#filter3724)"
         id="path3711"
         clip-path="url(#clipPath3720)"
         transform="translate(100,0)"
         inkscape:connector-curvature="0"
         d="m -51.75,-53.625 c -14.72019,-3e-6 -26.730807,11.503689 -27.625,26 l -8.625,0 13.875,20.75 13.875,-20.75 -9.875,0 c 0.852258,-9.405081 8.744762,-16.75 18.375,-16.75 3.561952,10e-7 6.932756,1.007173 9.75,2.75 l 4.75,-7.875 c -4.217288,-2.592868 -9.189676,-4.125 -14.5,-4.125 z m 21.875,8 -13.875,20.75 9.875,0 c -0.85226,9.40508 -8.74476,16.75 -18.375,16.75 -3.561952,0 -6.932756,-1.007172 -9.75,-2.75 L -66.75,-3 c 4.217288,2.592868 9.189676,4.125 14.5,4.125 14.720192,4e-6 26.730808,-11.503688 27.625,-26 l 8.625,0 -13.875,-20.75 z" />
      <path
         style="fill:url(#linearGradient3760);fill-opacity:1;stroke:none;display:inline"
         id="Symbol"
         inkscape:connector-curvature="0"
         d="m 48.25,-53.625 c -14.72019,-3e-6 -26.730807,11.503689 -27.625,26 l -8.625,0 13.875,20.75 13.875,-20.75 -9.875,0 c 0.852258,-9.405081 8.744762,-16.75 18.375,-16.75 3.561952,10e-7 6.932756,1.007173 9.75,2.75 l 4.75,-7.875 c -4.217288,-2.592868 -9.189676,-4.125 -14.5,-4.125 z m 21.875,8 -13.875,20.75 9.875,0 c -0.85226,9.40508 -8.74476,16.75 -18.375,16.75 -3.561952,0 -6.932756,-1.007172 -9.75,-2.75 L 33.25,-3 c 4.217288,2.592868 9.189676,4.125 14.5,4.125 14.720192,4e-6 26.730808,-11.503688 27.625,-26 l 8.625,0 -13.875,-20.75 z" />
      <path
         style="opacity:0.1;fill:#000000;fill-opacity:1;stroke:none;display:inline"
         id="path3950"
         transform="translate(0,-74)"
         inkscape:connector-curvature="0"
         d="m 48.25,20.375 c -14.72019,-3e-6 -26.730807,11.503689 -27.625,26 l -8.625,0 13.875,20.75 13.875,-20.75 -9.875,0 c 0.852258,-9.405081 8.744762,-16.75 18.375,-16.75 3.561952,1e-6 6.932756,1.007173 9.75,2.75 L 62.75,24.5 c -4.217288,-2.592868 -9.189676,-4.125 -14.5,-4.125 z m 0,1.9375 c 4.253497,0 8.176343,1.225036 11.71875,3.0625 l -2.75,4.53125 C 54.486801,28.567192 51.478958,27.687501 48.25,27.6875 c -10.62251,0 -19.370756,8.107402 -20.3125,18.5 a 1.9517109,1.9517109 0 0 0 1.9375,2.125 l 6.21875,0 L 25.875,63.59375 15.65625,48.3125 l 4.96875,0 A 1.9517109,1.9517109 0 0 0 22.5625,46.5 C 23.394486,33.012168 34.546538,22.312497 48.25,22.3125 z m 21.875,6.0625 -13.875,20.75 9.875,0 c -0.85226,9.40508 -8.74476,16.75 -18.375,16.75 -3.561952,0 -6.932756,-1.007172 -9.75,-2.75 L 33.25,71 c 4.217288,2.592868 9.189676,4.125 14.5,4.125 14.720192,4e-6 26.730808,-11.503688 27.625,-26 l 8.625,0 -13.875,-20.75 z m 0,3.53125 10.21875,15.28125 -4.96875,0 A 1.9517109,1.9517109 0 0 0 73.4375,49 C 72.605515,62.487833 61.453464,73.187504 47.75,73.1875 c -4.253497,0 -8.176343,-1.225037 -11.71875,-3.0625 l 2.75,-4.53125 c 2.731949,1.339058 5.739792,2.21875 8.96875,2.21875 10.622512,0 19.370754,-8.107403 20.3125,-18.5 a 1.9517109,1.9517109 0 0 0 -1.9375,-2.125 l -6.21875,0 L 70.125,31.90625 z" />
      <path
         style="opacity:0.2;fill:#000000;fill-opacity:1;stroke:none;display:inline"
         id="path3178"
         transform="translate(0,-74)"
         inkscape:connector-curvature="0"
         d="m 48.25,20.375 c -14.72019,-3e-6 -26.730807,11.503689 -27.625,26 l -8.625,0 13.875,20.75 13.875,-20.75 -9.875,0 c 0.852258,-9.405081 8.744762,-16.75 18.375,-16.75 3.561952,1e-6 6.932756,1.007173 9.75,2.75 L 62.75,24.5 c -4.217288,-2.592868 -9.189676,-4.125 -14.5,-4.125 z m 0,1.03125 c 4.752585,0 9.160358,1.37669 13.03125,3.5625 l -3.6875,6.125 c -2.787073,-1.525114 -5.952473,-2.499999 -9.34375,-2.5 -10.147805,0 -18.476066,7.767332 -19.375,17.6875 a 1.0180082,1.0180082 0 0 0 1,1.125 l 7.96875,0 L 25.875,65.3125 13.90625,47.40625 l 6.71875,0 A 1.0180082,1.0180082 0 0 0 21.65625,46.4375 C 22.517996,32.46721 34.060133,21.406247 48.25,21.40625 z m 21.875,6.96875 -13.875,20.75 9.875,0 c -0.85226,9.40508 -8.74476,16.75 -18.375,16.75 -3.561952,0 -6.932756,-1.007172 -9.75,-2.75 L 33.25,71 c 4.217288,2.592868 9.189676,4.125 14.5,4.125 14.720192,4e-6 26.730808,-11.503688 27.625,-26 l 8.625,0 -13.875,-20.75 z m 0,1.8125 11.96875,17.90625 -6.71875,0 A 1.0180082,1.0180082 0 0 0 74.34375,49.0625 C 73.482005,63.032791 61.939869,74.093754 47.75,74.09375 c -4.752585,0 -9.160358,-1.37669 -13.03125,-3.5625 l 3.6875,-6.125 c 2.787074,1.525114 5.952473,2.5 9.34375,2.5 10.147807,0 18.476064,-7.767333 19.375,-17.6875 a 1.0180082,1.0180082 0 0 0 -1,-1.125 l -7.96875,0 L 70.125,30.1875 z" />
      <path
         style="opacity:0.3;fill:#000000;fill-opacity:1;stroke:none;display:inline"
         id="path3960"
         transform="translate(0,-74)"
         inkscape:connector-curvature="0"
         d="m 48.25,20.375 c -14.72019,-3e-6 -26.730807,11.503689 -27.625,26 l -8.625,0 0.65625,1 7.96875,0 c 0.894193,-14.496311 12.90481,-26.000003 27.625,-26 5.130567,0 9.939041,1.439806 14.0625,3.875 L 62.75,24.5 c -4.217288,-2.592868 -9.189676,-4.125 -14.5,-4.125 z m 21.875,8 -13.875,20.75 0.65625,0 13.21875,-19.75 13.21875,19.75 0.65625,0 -13.875,-20.75 z m -40.09375,18 c -0.04828,0.331008 -0.125755,0.663474 -0.15625,1 l 9.21875,0 0.65625,-1 -9.71875,0 z m 35.9375,3.75 c -1.301009,8.919876 -8.933092,15.75 -18.21875,15.75 -3.561952,0 -6.932756,-1.007172 -9.75,-2.75 L 33.25,71 c 0.142757,0.08777 0.293028,0.164679 0.4375,0.25 L 38,64.125 c 2.817244,1.742828 6.188048,2.75 9.75,2.75 9.63024,0 17.52274,-7.34492 18.375,-16.75 l -0.15625,0 z" />
      <path
         style="opacity:0.5;fill:#ffffff;fill-opacity:1;stroke:none;display:inline"
         id="path3969"
         transform="translate(0,-74)"
         inkscape:connector-curvature="0"
         d="M 62.3125,25.25 58,32.375 c -2.817244,-1.742827 -6.188048,-2.749999 -9.75,-2.75 -9.630238,0 -17.522742,7.344919 -18.375,16.75 l 0.15625,0 c 1.301008,-8.919876 8.933094,-15.75 18.21875,-15.75 3.561952,1e-6 6.932756,1.007173 9.75,2.75 L 62.75,25.5 C 62.607243,25.41223 62.456972,25.335321 62.3125,25.25 z M 12,47.375 l 13.875,20.75 13.875,-20.75 -0.65625,0 L 25.875,67.125 12.65625,47.375 12,47.375 z m 44.90625,1.75 -0.65625,1 9.71875,0 c 0.04828,-0.331008 0.125755,-0.663474 0.15625,-1 l -9.21875,0 z m 18.46875,0 c -0.894192,14.496312 -12.904808,26.000004 -27.625,26 -5.130567,0 -9.939041,-1.439806 -14.0625,-3.875 L 33.25,72 c 4.217288,2.592868 9.189676,4.125 14.5,4.125 14.720192,4e-6 26.730808,-11.503688 27.625,-26 l 8.625,0 -0.65625,-1 -7.96875,0 z" />
    </g>
    <rect
       ry="25"
       rx="25"
       id="rect3003"
       style="opacity:0.15;fill:#ffffff;fill-opacity:1"
       height="92"
       width="92"
       y="958.36218"
       x="-96"
       clip-path="url(#clipPath3009)"
       transform="translate(98,0)" />
  </g>
</svg>
