<?xml version="1.0" encoding="UTF-8" standalone="no"?>
<!-- Created with Inkscape (http://www.inkscape.org/) -->

<svg
   xmlns:dc="http://purl.org/dc/elements/1.1/"
   xmlns:cc="http://creativecommons.org/ns#"
   xmlns:rdf="http://www.w3.org/1999/02/22-rdf-syntax-ns#"
   xmlns:svg="http://www.w3.org/2000/svg"
   xmlns="http://www.w3.org/2000/svg"
   xmlns:xlink="http://www.w3.org/1999/xlink"
   xmlns:sodipodi="http://sodipodi.sourceforge.net/DTD/sodipodi-0.dtd"
   xmlns:inkscape="http://www.inkscape.org/namespaces/inkscape"
   width="96"
   height="96"
   id="svg11037"
   version="1.1"
   inkscape:version="0.48.3.1 r9886"
   sodipodi:docname="avatar-default.svg">
  <defs
     id="defs11039">
    <linearGradient
       y2="1046.1001"
       x2="47.999954"
       y1="962.62189"
       x1="47.999954"
       gradientTransform="matrix(1.15,0,0,1.15,-7.1999462,-150.65291)"
       gradientUnits="userSpaceOnUse"
       id="linearGradient3886"
       xlink:href="#linearGradient3795"
       inkscape:collect="always" />
    <linearGradient
       id="linearGradient3795">
      <stop
         style="stop-color:#13a6fd;stop-opacity:1;"
         offset="0"
         id="stop3797" />
      <stop
         style="stop-color:#2975b6;stop-opacity:1;"
         offset="1"
         id="stop3799" />
    </linearGradient>
    <linearGradient
       y2="1046.1001"
       x2="47.999954"
       y1="962.62189"
       x1="47.999954"
       gradientTransform="matrix(1.15,0,0,1.15,-7.1999462,-150.65292)"
       gradientUnits="userSpaceOnUse"
       id="linearGradient11642"
       xlink:href="#linearGradient9181"
       inkscape:collect="always" />
    <linearGradient
       id="linearGradient9181"
       y2="902.35999"
       gradientUnits="userSpaceOnUse"
       x2="48"
       gradientTransform="translate(0,-7.8516e-6)"
       y1="1052.4"
       x1="48">
      <stop
         id="stop3702-83"
         style="stop-color:#bebebe"
         offset="0" />
      <stop
         id="stop3704-80"
         style="stop-color:#dcdcdc"
         offset="1" />
    </linearGradient>
    <linearGradient
       y2="902.35999"
       x2="48"
       y1="1052.4"
       x1="48"
       gradientTransform="translate(-87.999997,8.0022012)"
       gradientUnits="userSpaceOnUse"
       id="linearGradient3035"
       xlink:href="#linearGradient9181"
       inkscape:collect="always" />
    <linearGradient
       id="linearGradient3829-6"
       y2="76"
       gradientUnits="userSpaceOnUse"
       x2="49"
       gradientTransform="scale(0.92195,1.0847)"
       y1="20"
       x1="49">
      <stop
         id="stop3283-5"
         style="stop-opacity:.86275"
         offset="0" />
      <stop
         id="stop2651"
         style="stop-opacity:.47059"
         offset="1" />
    </linearGradient>
    <clipPath
       clipPathUnits="userSpaceOnUse"
       id="clipPath3009">
      <path
         id="path3011"
         d="m -2,956.36218 -96,0 0,33.5624 96,25.68742 0,-59.24982 z"
         style="opacity:0.15;fill:#ffffff;fill-opacity:1;stroke:none"
         inkscape:connector-curvature="0" />
    </clipPath>
  </defs>
  <sodipodi:namedview
     id="base"
     pagecolor="#ffffff"
     bordercolor="#666666"
     borderopacity="1.0"
     inkscape:pageopacity="0.0"
     inkscape:pageshadow="2"
     inkscape:zoom="3.959798"
     inkscape:cx="33.538031"
     inkscape:cy="59.964634"
     inkscape:document-units="px"
     inkscape:current-layer="layer1"
     showgrid="false"
     inkscape:window-width="1280"
     inkscape:window-height="754"
     inkscape:window-x="0"
     inkscape:window-y="22"
     inkscape:window-maximized="1"
     showguides="true"
     inkscape:guide-bbox="true">
    <sodipodi:guide
       orientation="0,1"
       position="-24.748737,0"
       id="guide11064" />
    <sodipodi:guide
       orientation="0,1"
       position="-23.233509,96"
       id="guide11066" />
    <sodipodi:guide
       orientation="1,0"
       position="0,54.800776"
       id="guide11068" />
    <sodipodi:guide
       orientation="1,0"
       position="96,51.012704"
       id="guide11070" />
    <sodipodi:guide
       orientation="0,1"
       position="-18.94036,48"
       id="guide11072" />
    <sodipodi:guide
       orientation="1,0"
       position="48,79.296975"
       id="guide11074" />
    <sodipodi:guide
       orientation="1,0"
       position="2,75.508903"
       id="guide11076" />
    <sodipodi:guide
       orientation="0,1"
       position="-77.27667,2"
       id="guide11078" />
    <sodipodi:guide
       orientation="1,0"
       position="94,77.781746"
       id="guide11080" />
    <sodipodi:guide
       orientation="0,1"
       position="-65.912454,94"
       id="guide11082" />
  </sodipodi:namedview>
  <metadata
     id="metadata11042">
    <rdf:RDF>
      <cc:Work
         rdf:about="">
        <dc:format>image/svg+xml</dc:format>
        <dc:type
           rdf:resource="http://purl.org/dc/dcmitype/StillImage" />
        <dc:title />
      </cc:Work>
    </rdf:RDF>
  </metadata>
  <g
     inkscape:label="Layer 1"
     inkscape:groupmode="layer"
     id="layer1"
     transform="translate(0,-956.36218)">
    <rect
       x="2"
       y="958.36218"
       width="92"
       height="92"
       style="fill:url(#linearGradient11642);fill-opacity:1.0"
       id="rect3867"
       rx="25"
       ry="25" />
    <g
       id="g3078"
       transform="matrix(0.9172,0,0,0.9172,3.9745,961.66218)">
      <path
         inkscape:connector-curvature="0"
         id="path3159"
         style="fill:url(#linearGradient3829-6)"
         d="m 48,20 c -8.3015,0 -14.955,6.252 -14.955,14 0.01872,0.82507 0.08037,2.0177 0.1591,3.0227 -1.4196,0.6025 -1.5232,3.3653 -0.31818,6.2045 0.47785,1.1259 1.0865,1.9904 1.75,2.7045 0.16122,0.79793 0.11892,1.1562 0.31818,2.0682 0.55603,1.6681 2.7482,4.9373 4.7727,7.6364 0.19852,2.0728 0.40445,4.1646 0,6.5227 -5.8335,4.8398 -20.863,6.9214 -20.841,11.932 L 18.5678,76 h 58.864 l -0.318,-1.909 c -0.024,-4.288 -15.079,-6.922 -20.841,-11.932 -0.233,-1.918 -0.278,-3.838 -0.159,-5.727 1.844,-2.847 4.312,-6.574 4.931,-8.432 0.22258,-0.94085 0.30359,-1.5763 0.47727,-2.3864 0.55278,-0.66959 1.0246,-1.4269 1.4318,-2.3864 1.1448,-2.6972 1.0708,-5.2721 -0.15908,-6.0455 0.07251,-1.0868 0.12714,-2.2431 0.15908,-3.1818 10e-4,-7.748 -6.653,-14 -14.954,-14 z" />
      <path
         inkscape:connector-curvature="0"
         id="path3840"
         style="opacity:0.15"
         d="m 48,20 c -8.3015,0 -14.969,6.252 -14.969,14 0.01872,0.82507 0.10877,2.0262 0.1875,3.0312 -1.4196,0.6025 -1.5488,3.3483 -0.34375,6.1875 0.47785,1.1259 1.0865,2.0046 1.75,2.7188 0.16122,0.79793 0.14449,1.1505 0.34375,2.0625 0.55603,1.6681 2.7255,4.926 4.75,7.625 0.19852,2.0728 0.40445,4.1731 0,6.5312 -5.8335,4.8398 -20.866,6.9271 -20.844,11.938 l -0.312,1.906 h 58.876 l -0.313,-1.906 c -0.024,-4.288 -15.082,-6.927 -20.844,-11.938 -0.233,-1.918 -0.275,-3.829 -0.156,-5.718 1.845,-2.847 4.287,-6.58 4.906,-8.438 0.22258,-0.94085 0.32632,-1.5649 0.5,-2.375 0.55278,-0.66959 1.0303,-1.4468 1.4375,-2.4062 1.1448,-2.6972 1.0423,-5.2579 -0.1875,-6.0312 0.073,-1.087 0.156,-2.249 0.188,-3.188 0,-7.748 -6.668,-14 -14.969,-14 z m 0,1 c 7.7831,0 13.951,5.8144 13.969,12.969 2.7e-5,0.01054 0,0.0207 0,0.03125 -0.03157,0.90345 -0.11548,2.0456 -0.1875,3.125 a 1.0097,1.0097 0 0 0 0.468,0.906 c 0.20052,0.1261 0.4702,0.6168 0.5,1.5 0.0298,0.8832 -0.19549,2.0484 -0.71875,3.2812 -0.37292,0.87866 -0.79093,1.5623 -1.2812,2.1562 a 1.0097,1.0097 0 0 0 -0.21875,0.4375 c -0.17145,0.7997 -0.23912,1.429 -0.4375,2.2812 -5.17e-4,0.0022 -0.03073,-0.0022 -0.03125,0 -0.2479,0.7437 -0.96961,2.1255 -1.875,3.625 -0.90539,1.4995 -1.9828,3.1374 -2.9062,4.5625 a 1.0097,1.0097 0 0 0 -0.15625,0.5 c -0.12209,1.9463 -0.08485,3.9228 0.15625,5.9062 a 1.0097,1.0097 0 0 0 0.34375,0.625 c 3.1434,2.7334 8.38,4.6252 12.844,6.4375 2.2319,0.90616 4.2574,1.7619 5.6562,2.625 0.69941,0.43158 1.241,0.87786 1.5625,1.25 0.32146,0.37214 0.43616,0.63412 0.4375,0.875 a 1.0097,1.0097 0 0 0 0,0.15625 l 0.125,0.75 h -56.5 l 0.125,-0.75 a 1.0097,1.0097 0 0 0 0,-0.15625 c -0.0033,-0.74743 0.5931,-1.5409 1.9688,-2.4375 1.3757,-0.8966 3.4014,-1.787 5.625,-2.6562 4.4473,-1.7385 9.7164,-3.416 12.906,-6.0625 a 1.0097,1.0097 0 0 0 0.34375,-0.625 c 0.43099,-2.5128 0.19837,-4.71 0,-6.7812 a 1.0097,1.0097 0 0 0 -0.1875,-0.5 c -1.9883,-2.6508 -4.1159,-6.0036 -4.5625,-7.3125 -0.0022,-0.0065 -0.0291,-0.02481 -0.03125,-0.03125 -0.159,-0.763 -0.146,-1.11 -0.313,-1.937 a 1.0097,1.0097 0 0 0 -0.25,-0.5 c -0.592,-0.63716 -1.1313,-1.4215 -1.5625,-2.4375 -0.5517,-1.2999 -0.79822,-2.5579 -0.75,-3.4688 0.04822,-0.91085 0.35032,-1.2849 0.5625,-1.375 a 1.0097,1.0097 0 0 0 0.594,-1.031 c -0.078,-0.992 -0.169,-2.163 -0.188,-2.938 -2e-4,-0.0082 1.84e-4,-0.02314 0,-0.03125 0.018,-7.155 6.186,-12.969 13.969,-12.969 z" />
    </g>
    <rect
       ry="25"
       rx="25"
       id="rect3003"
       style="opacity:0.15;fill:#ffffff;fill-opacity:1"
       height="92"
       width="92"
       y="958.36218"
       x="-96"
       clip-path="url(#clipPath3009)"
       transform="translate(98,3.8281269e-7)" />
  </g>
</svg>
