<?xml version="1.0" encoding="UTF-8" standalone="no"?>
<!-- Created with Inkscape (http://www.inkscape.org/) -->

<svg
   xmlns:dc="http://purl.org/dc/elements/1.1/"
   xmlns:cc="http://creativecommons.org/ns#"
   xmlns:rdf="http://www.w3.org/1999/02/22-rdf-syntax-ns#"
   xmlns:svg="http://www.w3.org/2000/svg"
   xmlns="http://www.w3.org/2000/svg"
   xmlns:xlink="http://www.w3.org/1999/xlink"
   xmlns:sodipodi="http://sodipodi.sourceforge.net/DTD/sodipodi-0.dtd"
   xmlns:inkscape="http://www.inkscape.org/namespaces/inkscape"
   width="96"
   height="96"
   id="svg11037"
   version="1.1"
   inkscape:version="0.48.3.1 r9886"
   sodipodi:docname="stock_people.svg">
  <defs
     id="defs11039">
    <linearGradient
       y2="1046.1001"
       x2="47.999954"
       y1="962.62189"
       x1="47.999954"
       gradientTransform="matrix(1.15,0,0,1.15,-7.1999462,-150.65291)"
       gradientUnits="userSpaceOnUse"
       id="linearGradient3886"
       xlink:href="#linearGradient3795"
       inkscape:collect="always" />
    <linearGradient
       id="linearGradient3795">
      <stop
         style="stop-color:#13a6fd;stop-opacity:1;"
         offset="0"
         id="stop3797" />
      <stop
         style="stop-color:#2975b6;stop-opacity:1;"
         offset="1"
         id="stop3799" />
    </linearGradient>
    <linearGradient
       y2="1046.1001"
       x2="47.999954"
       y1="962.62189"
       x1="47.999954"
       gradientTransform="matrix(1.15,0,0,1.15,-7.1999462,-150.65292)"
       gradientUnits="userSpaceOnUse"
       id="linearGradient11642"
       xlink:href="#linearGradient9181"
       inkscape:collect="always" />
    <linearGradient
       id="linearGradient9181"
       y2="902.35999"
       gradientUnits="userSpaceOnUse"
       x2="48"
       gradientTransform="translate(0,-7.8516e-6)"
       y1="1052.4"
       x1="48">
      <stop
         id="stop3702-83"
         style="stop-color:#bebebe"
         offset="0" />
      <stop
         id="stop3704-80"
         style="stop-color:#dcdcdc"
         offset="1" />
    </linearGradient>
    <linearGradient
       id="linearGradient3829-6"
       y2="76"
       gradientUnits="userSpaceOnUse"
       x2="49"
       gradientTransform="scale(0.92195,1.0847)"
       y1="20"
       x1="49">
      <stop
         id="stop3283-5"
         style="stop-opacity:.86275"
         offset="0" />
      <stop
         id="stop2651"
         style="stop-opacity:.47059"
         offset="1" />
    </linearGradient>
    <linearGradient
       id="linearGradient3886-7"
       y2="76"
       xlink:href="#StandardGradient-5"
       gradientUnits="userSpaceOnUse"
       x2="49"
       gradientTransform="matrix(0.85714,0,0,0.85714,14.857,6.8571)"
       y1="20"
       x1="49" />
    <linearGradient
       id="StandardGradient-5"
       y2="19.386999"
       gradientUnits="userSpaceOnUse"
       x2="11.999"
       gradientTransform="scale(0.92195,1.0847)"
       y1="0.92194998"
       x1="11.999">
      <stop
         id="stop3283-0"
         style="stop-opacity:.86275"
         offset="0" />
      <stop
         id="stop2651-4"
         style="stop-opacity:.47059"
         offset="1" />
    </linearGradient>
    <linearGradient
       id="linearGradient3081"
       y2="76"
       xlink:href="#StandardGradient-5"
       gradientUnits="userSpaceOnUse"
       x2="49"
       gradientTransform="matrix(0.57143,0,0,0.57143,4.1623,24.571)"
       y1="20"
       x1="49" />
    <linearGradient
       id="linearGradient3068"
       y2="19.386999"
       gradientUnits="userSpaceOnUse"
       x2="11.999"
       gradientTransform="scale(0.92195,1.0847)"
       y1="0.92194998"
       x1="11.999">
      <stop
         id="stop3070"
         style="stop-opacity:.86275"
         offset="0" />
      <stop
         id="stop3072"
         style="stop-opacity:.47059"
         offset="1" />
    </linearGradient>
    <clipPath
       clipPathUnits="userSpaceOnUse"
       id="clipPath3009">
      <path
         id="path3011"
         d="m -2,956.36218 -96,0 0,33.5624 96,25.68742 0,-59.24982 z"
         style="opacity:0.15;fill:#ffffff;fill-opacity:1;stroke:none"
         inkscape:connector-curvature="0" />
    </clipPath>
  </defs>
  <sodipodi:namedview
     id="base"
     pagecolor="#ffffff"
     bordercolor="#666666"
     borderopacity="1.0"
     inkscape:pageopacity="0.0"
     inkscape:pageshadow="2"
     inkscape:zoom="3.959798"
     inkscape:cx="33.538031"
     inkscape:cy="59.964634"
     inkscape:document-units="px"
     inkscape:current-layer="layer1"
     showgrid="false"
     inkscape:window-width="1280"
     inkscape:window-height="754"
     inkscape:window-x="0"
     inkscape:window-y="22"
     inkscape:window-maximized="1"
     showguides="true"
     inkscape:guide-bbox="true">
    <sodipodi:guide
       orientation="0,1"
       position="-24.748737,0"
       id="guide11064" />
    <sodipodi:guide
       orientation="0,1"
       position="-23.233509,96"
       id="guide11066" />
    <sodipodi:guide
       orientation="1,0"
       position="0,54.800776"
       id="guide11068" />
    <sodipodi:guide
       orientation="1,0"
       position="96,51.012704"
       id="guide11070" />
    <sodipodi:guide
       orientation="0,1"
       position="-18.94036,48"
       id="guide11072" />
    <sodipodi:guide
       orientation="1,0"
       position="48,79.296975"
       id="guide11074" />
    <sodipodi:guide
       orientation="1,0"
       position="2,75.508903"
       id="guide11076" />
    <sodipodi:guide
       orientation="0,1"
       position="-77.27667,2"
       id="guide11078" />
    <sodipodi:guide
       orientation="1,0"
       position="94,77.781746"
       id="guide11080" />
    <sodipodi:guide
       orientation="0,1"
       position="-65.912454,94"
       id="guide11082" />
  </sodipodi:namedview>
  <metadata
     id="metadata11042">
    <rdf:RDF>
      <cc:Work
         rdf:about="">
        <dc:format>image/svg+xml</dc:format>
        <dc:type
           rdf:resource="http://purl.org/dc/dcmitype/StillImage" />
        <dc:title />
      </cc:Work>
    </rdf:RDF>
  </metadata>
  <g
     inkscape:label="Layer 1"
     inkscape:groupmode="layer"
     id="layer1"
     transform="translate(0,-956.36218)">
    <rect
       x="2"
       y="958.36218"
       width="92"
       height="92"
       style="fill:url(#linearGradient11642);fill-opacity:1.0"
       id="rect3867"
       rx="25"
       ry="25" />
    <g
       id="g3050"
       transform="matrix(0.81269,0,0,0.81269,8.9873998,965.85218)">
      <path
         inkscape:connector-curvature="0"
         id="path3159"
         style="fill:url(#linearGradient3886-7)"
         d="m 56,24 c -7.1156,0 -12.818,5.3588 -12.818,12 0.01605,0.7072 0.06889,1.7294 0.13637,2.5909 -1.2168,0.51643 -1.3056,2.8846 -0.27273,5.3182 0.40958,0.96505 0.93124,1.706 1.5,2.3182 0.13819,0.68394 0.10193,0.99099 0.27272,1.7727 0.4766,1.4298 2.3556,4.232 4.0909,6.5455 0.17016,1.7767 0.34667,3.5697 0,5.5909 -5.0001,4.1484 -17.883,5.9327 -17.864,10.227 l -0.272,1.636 h 50.454 l -0.272,-1.636 c -0.021,-3.676 -12.925,-5.933 -17.864,-10.228 -0.2,-1.644 -0.238,-3.289 -0.136,-4.909 1.581,-2.44 3.696,-5.634 4.227,-7.227 0.19078,-0.80644 0.26022,-1.3511 0.40909,-2.0455 0.47382,-0.57394 0.87824,-1.2231 1.2273,-2.0455 0.98122,-2.3119 0.9178,-4.5189 -0.13635,-5.1818 0.06215,-0.9315 0.10898,-1.9227 0.13635,-2.7273 0,-6.641 -5.702,-12 -12.818,-12 z" />
      <path
         inkscape:connector-curvature="0"
         id="path3079"
         style="opacity:0.6;fill:url(#linearGradient3081)"
         d="m 31.594,36 c -4.7437,0 -8.5625,3.5725 -8.5625,8 0.01067,0.47147 0.04877,1.1444 0.09375,1.7188 -0.8112,0.34429 -0.84483,1.9401 -0.15625,3.5625 0.27306,0.64337 0.62083,1.1232 1,1.5312 0.09213,0.45596 0.04239,0.66634 0.15625,1.1875 0.31773,0.9532 1.5931,2.8327 2.75,4.375 0.11344,1.1845 0.23112,2.3713 0,3.7188 -3.3334,2.7656 -11.919,3.9494 -11.906,6.8125 l -0.188,1.094 h 17.719 c 2.1694,-1.7092 6.4061,-3.0656 10.281,-4.625 -2.3852,-0.9563 -4.9725,-1.9801 -6.4688,-3.2812 -0.13322,-1.096 -0.16147,-2.2018 -0.09375,-3.2812 1.0541,-1.6268 2.4586,-3.7508 2.8125,-4.8125 0.12719,-0.53763 0.182,-0.91208 0.28125,-1.375 0.31588,-0.38262 0.57981,-0.79549 0.8125,-1.3438 0.65415,-1.5413 0.60902,-3.0268 -0.09375,-3.4688 0.04144,-0.621 0.07549,-1.2761 0.09375,-1.8125 -10e-7,-4.4275 -3.7875,-8 -8.5312,-8 z" />
      <path
         inkscape:connector-curvature="0"
         id="path3878"
         style="opacity:0.15"
         d="m 56,24 c -7.1156,0 -12.812,5.3588 -12.812,12 0.01605,0.7072 0.05752,1.7323 0.125,2.5938 -1.2168,0.51643 -1.3141,2.8789 -0.28125,5.3125 0.40958,0.96505 0.93124,1.7004 1.5,2.3125 0.13819,0.68394 0.11046,0.99951 0.28125,1.7812 0.4766,1.4298 2.3585,4.2178 4.0938,6.5312 0.17016,1.7767 0.34667,3.5725 0,5.5938 -1.5099,1.2527 -3.7499,2.2942 -6.125,3.25 -2.3852,-0.9563 -4.9725,-1.9801 -6.4688,-3.2812 -0.13322,-1.096 -0.16147,-2.2018 -0.09375,-3.2812 1.0541,-1.6268 2.4586,-3.7508 2.8125,-4.8125 0.12719,-0.53763 0.182,-0.91208 0.28125,-1.375 0.31588,-0.38262 0.57981,-0.79549 0.8125,-1.3438 0.65415,-1.5413 0.60902,-3.0268 -0.09375,-3.4688 0.04144,-0.621 0.07549,-1.2761 0.09375,-1.8125 -1e-6,-4.4275 -3.7875,-8 -8.5312,-8 -4.7437,0 -8.5625,3.5725 -8.5625,8 0.01067,0.47147 0.04877,1.1444 0.09375,1.7188 -0.8112,0.34429 -0.84483,1.9401 -0.15625,3.5625 0.27306,0.64337 0.62083,1.1232 1,1.5312 0.09213,0.45596 0.04239,0.66634 0.15625,1.1875 0.31773,0.9532 1.5931,2.8327 2.75,4.375 0.11344,1.1845 0.23112,2.3713 0,3.7188 -3.3334,2.7656 -11.919,3.9494 -11.906,6.8125 l -0.189,1.094 h 17.719 c -0.90425,0.71241 -1.4727,1.4931 -1.4688,2.375 l -0.25,1.625 h 50.438 l -0.25,-1.625 c -0.0205,-3.6756 -12.936,-5.9554 -17.875,-10.25 -0.19983,-1.644 -0.22657,-3.287 -0.125,-4.9062 1.5812,-2.4402 3.6879,-5.6262 4.2188,-7.2188 0.19078,-0.80644 0.25738,-1.3369 0.40625,-2.0312 0.47382,-0.57394 0.86971,-1.2401 1.2188,-2.0625 0.98122,-2.3119 0.92915,-4.5246 -0.125,-5.1875 0.062,-0.932 0.097,-1.914 0.124,-2.719 0,-6.641 -5.696,-12 -12.812,-12 z m 0,0.96875 c 6.6154,0 11.826,4.93 11.844,11 3.2e-5,0.01059 0,0.02065 0,0.03125 -0.02718,0.79752 -0.06494,1.7561 -0.125,2.6562 a 0.97331,0.97331 0 0 0 0.4375,0.875 c 0.12011,0.07553 0.35722,0.44423 0.375,1.1875 0.01779,0.74327 -0.18043,1.765 -0.625,2.8125 -0.31948,0.75275 -0.65462,1.3184 -1.0625,1.8125 a 0.97331,0.97331 0 0 0 -0.188,0.406 c -0.15023,0.70072 -0.21318,1.2324 -0.375,1.9375 -5.03e-4,0.0022 -0.03075,-0.0022 -0.03125,0 -0.20486,0.61457 -0.84698,1.814 -1.625,3.0938 -0.77802,1.2798 -1.676,2.6829 -2.4688,3.9062 a 0.97331,0.97331 0 0 0 -0.156,0.468 c -0.10482,1.6709 -0.08295,3.383 0.125,5.0938 a 0.97331,0.97331 0 0 0 0.34375,0.625 c 2.722,2.367 7.2056,3.9432 11.031,5.5 1.9128,0.7784 3.6551,1.5467 4.8438,2.2812 0.59433,0.36727 1.0477,0.7245 1.3125,1.0312 0.26484,0.30675 0.34278,0.51273 0.34375,0.6875 a 0.97331,0.97331 0 0 0 0,0.15625 l 0.0625,0.5 h -48.125 l 0.0625,-0.5 a 0.97331,0.97331 0 0 0 -10e-4,-0.156 c -0.0021,-0.4612 0.30524,-1.0038 1.0938,-1.625 a 0.97331,0.97331 0 0 0 -0.594,-1.719 h -16.562 a 0.97331,0.97331 0 0 0 0,-0.125 c -0.001,-0.22908 0.19974,-0.58214 0.9375,-1.0625 0.73776,-0.48036 1.8935,-0.97599 3.1562,-1.4688 2.5256,-0.98552 5.5386,-1.9299 7.4688,-3.5312 a 0.97331,0.97331 0 0 0 0.344,-0.594 c 0.25651,-1.4956 0.11323,-2.7865 0,-3.9688 a 0.97331,0.97331 0 0 0 -0.1875,-0.5 c -0.567,-0.756 -1.171,-1.59 -1.656,-2.343 -0.48492,-0.75344 -0.84149,-1.462 -0.9375,-1.75 -0.06315,-0.34739 -0.01728,-0.52937 -0.125,-1.0625 a 0.97331,0.97331 0 0 0 -0.25,-0.46875 c -0.32225,-0.34683 -0.58757,-0.72002 -0.8125,-1.25 -0.29723,-0.70032 -0.42284,-1.3931 -0.40625,-1.8438 0.01244,-0.33797 0.06994,-0.4253 0.0625,-0.4375 a 0.97331,0.97331 0 0 0 0.5625,-0.96875 c -0.043,-0.548 -0.083,-1.217 -0.094,-1.657 -2.02e-4,-0.0083 1.84e-4,-0.02313 0,-0.03125 0.01822,-3.8533 3.3503,-7 7.5938,-7 4.2434,0 7.5444,3.1421 7.5625,7 5e-5,0.01061 0,0.02063 0,0.03125 -0.01801,0.51735 -0.05369,1.1497 -0.09375,1.75 a 0.97331,0.97331 0 0 0 0.438,0.875 c -0.05667,-0.03563 0.11273,0.09349 0.125,0.53125 0.01227,0.43776 -0.12625,1.0903 -0.40625,1.75 -0.198,0.467 -0.39,0.771 -0.657,1.094 a 0.97331,0.97331 0 0 0 -0.1875,0.40625 c -0.09896,0.46159 -0.14804,0.83326 -0.25,1.2812 h -0.03125 c -0.11638,0.34915 -0.51679,1.1537 -1.0312,2 -0.51446,0.84625 -1.127,1.7771 -1.6562,2.5938 a 0.97331,0.97331 0 0 0 -0.156,0.469 c -0.07138,1.1378 -0.04694,2.3113 0.09375,3.4688 a 0.97331,0.97331 0 0 0 0.34375,0.625 c 1.7247,1.4998 4.3365,2.4824 6.7188,3.4375 a 0.97331,0.97331 0 0 0 0.75,0 c 2.4057,-0.96806 4.7051,-2.0208 6.375,-3.4062 a 0.97331,0.97331 0 0 0 0.343,-0.595 c 0.37221,-2.1701 0.17,-4.0687 0,-5.8438 a 0.97331,0.97331 0 0 0 -0.1875,-0.5 c -1.713,-2.283 -3.584,-5.189 -3.938,-6.249 -0.129,-0.632 -0.103,-0.931 -0.25,-1.657 a 0.97331,0.97331 0 0 0 -0.25,-0.469 c -0.50621,-0.54483 -0.94956,-1.1761 -1.3125,-2.0312 -0.46789,-1.1024 -0.66258,-2.1756 -0.625,-2.9375 0.03758,-0.76192 0.2493,-1.0404 0.375,-1.0938 A 0.97331,0.97331 0 0 0 44.2795,38.5291 c -0.065,-0.822 -0.11,-1.841 -0.126,-2.531 -1.98e-4,-0.0085 1.91e-4,-0.02285 0,-0.03125 0.01811,-6.07 5.2284,-11 11.844,-11 z" />
    </g>
    <rect
       ry="25"
       rx="25"
       id="rect3003"
       style="opacity:0.15;fill:#ffffff;fill-opacity:1"
       height="92"
       width="92"
       y="958.36218"
       x="-96"
       clip-path="url(#clipPath3009)"
       transform="translate(98,3.8281269e-7)" />
  </g>
</svg>
