<?xml version="1.0" encoding="UTF-8" standalone="no"?>
<!-- Created with Inkscape (http://www.inkscape.org/) -->

<svg
   xmlns:dc="http://purl.org/dc/elements/1.1/"
   xmlns:cc="http://creativecommons.org/ns#"
   xmlns:rdf="http://www.w3.org/1999/02/22-rdf-syntax-ns#"
   xmlns:svg="http://www.w3.org/2000/svg"
   xmlns="http://www.w3.org/2000/svg"
   xmlns:xlink="http://www.w3.org/1999/xlink"
   xmlns:sodipodi="http://sodipodi.sourceforge.net/DTD/sodipodi-0.dtd"
   xmlns:inkscape="http://www.inkscape.org/namespaces/inkscape"
   width="96"
   height="96"
   id="svg11037"
   version="1.1"
   inkscape:version="0.48.3.1 r9886"
   sodipodi:docname="application-rss+xml.svg">
  <defs
     id="defs11039">
    <linearGradient
       y2="1046.1001"
       x2="47.999954"
       y1="962.62189"
       x1="47.999954"
       gradientTransform="matrix(1.15,0,0,1.15,-7.1999462,-150.65291)"
       gradientUnits="userSpaceOnUse"
       id="linearGradient3886"
       xlink:href="#linearGradient3795"
       inkscape:collect="always" />
    <linearGradient
       id="linearGradient3795">
      <stop
         style="stop-color:#13a6fd;stop-opacity:1;"
         offset="0"
         id="stop3797" />
      <stop
         style="stop-color:#2975b6;stop-opacity:1;"
         offset="1"
         id="stop3799" />
    </linearGradient>
    <linearGradient
       y2="1046.1001"
       x2="47.999954"
       y1="962.62189"
       x1="47.999954"
       gradientTransform="matrix(1.15,0,0,1.15,-7.1999462,-150.65292)"
       gradientUnits="userSpaceOnUse"
       id="linearGradient11642"
       xlink:href="#linearGradient3700"
       inkscape:collect="always" />
    <linearGradient
       x1="48"
       y1="90"
       x2="48"
       y2="5.9877172"
       id="linearGradient3706"
       xlink:href="#linearGradient3700"
       gradientUnits="userSpaceOnUse" />
    <linearGradient
       id="linearGradient3700">
      <stop
         id="stop3702"
         style="stop-color:#e6e6e6;stop-opacity:1"
         offset="0" />
      <stop
         id="stop3704"
         style="stop-color:#f5f5f5;stop-opacity:1"
         offset="1" />
    </linearGradient>
    <linearGradient
       x1="36.357143"
       y1="6"
       x2="36.357143"
       y2="63.893143"
       id="linearGradient3923"
       xlink:href="#linearGradient3737-1"
       gradientUnits="userSpaceOnUse" />
    <linearGradient
       id="linearGradient3737-1">
      <stop
         id="stop3739-9"
         style="stop-color:#ffffff;stop-opacity:1"
         offset="0" />
      <stop
         id="stop3741-3"
         style="stop-color:#ffffff;stop-opacity:0"
         offset="1" />
    </linearGradient>
    <radialGradient
       cx="48"
       cy="90.171875"
       r="42"
       fx="48"
       fy="90.171875"
       id="radialGradient2886"
       xlink:href="#linearGradient3737-0"
       gradientUnits="userSpaceOnUse"
       gradientTransform="matrix(1.1573129,0,0,0.99590774,-7.551021,0.1971319)" />
    <linearGradient
       id="linearGradient3737-0">
      <stop
         id="stop3739-6"
         style="stop-color:#ffffff;stop-opacity:1"
         offset="0" />
      <stop
         id="stop3741-0"
         style="stop-color:#ffffff;stop-opacity:0"
         offset="1" />
    </linearGradient>
    <radialGradient
       r="42"
       fy="90.171875"
       fx="48"
       cy="90.171875"
       cx="48"
       gradientTransform="matrix(1.1573129,0,0,0.99590774,-7.551021,0.1971319)"
       gradientUnits="userSpaceOnUse"
       id="radialGradient3075"
       xlink:href="#linearGradient3737-0"
       inkscape:collect="always" />
    <clipPath
       id="clipPath3763">
      <path
         d="m -88,6 c -3.324,0 -6,2.676 -6,6 l 0,72 c 0,3.324 2.676,6 6,6 l 72,0 c 3.324,0 6,-2.676 6,-6 l 0,-72 c 0,-3.324 -2.676,-6 -6,-6 l -72,0 z m 4,38 a 36,36 0 0 1 36,36 l -7.1875,0 A 28.8,28.8 0 0 0 -84,51.1875 L -84,44 z m 0,12.125 A 23.862857,23.862857 0 0 1 -60.125,80 l -7,0 A 16.868571,16.868571 0 0 0 -84,63.125 l 0,-7 z m 4.9375,14 c 2.726708,0 4.9375,2.210792 4.9375,4.9375 0,2.726709 -2.210792,4.9375 -4.9375,4.9375 C -81.789209,80 -84,77.789209 -84,75.0625 c 0,-2.726708 2.210792,-4.9375 4.9375,-4.9375 z"
         inkscape:connector-curvature="0"
         id="path3765"
         style="fill:#ff00ff;fill-opacity:1;fill-rule:nonzero;stroke:none" />
    </clipPath>
    <filter
       color-interpolation-filters="sRGB"
       id="filter3767">
      <feGaussianBlur
         id="feGaussianBlur3769"
         stdDeviation="1.08" />
    </filter>
    <linearGradient
       x1="8"
       y1="40"
       x2="8"
       y2="-57.781818"
       id="linearGradient3707"
       xlink:href="#linearGradient2841"
       gradientUnits="userSpaceOnUse"
       gradientTransform="matrix(0.5625,0,0,0.5625,34,57.5)" />
    <linearGradient
       id="linearGradient2841">
      <stop
         id="stop2843"
         style="stop-color:#d4530d;stop-opacity:1"
         offset="0" />
      <stop
         id="stop2845"
         style="stop-color:#f7ad25;stop-opacity:1"
         offset="1" />
    </linearGradient>
    <clipPath
       clipPathUnits="userSpaceOnUse"
       id="clipPath3009">
      <path
         id="path3011"
         d="m -2,956.36218 -96,0 0,33.5624 96,25.68742 0,-59.24982 z"
         style="opacity:0.15;fill:#ffffff;fill-opacity:1;stroke:none"
         inkscape:connector-curvature="0" />
    </clipPath>
  </defs>
  <sodipodi:namedview
     id="base"
     pagecolor="#ffffff"
     bordercolor="#666666"
     borderopacity="1.0"
     inkscape:pageopacity="0.0"
     inkscape:pageshadow="2"
     inkscape:zoom="3.959798"
     inkscape:cx="33.538031"
     inkscape:cy="59.964634"
     inkscape:document-units="px"
     inkscape:current-layer="layer1"
     showgrid="false"
     inkscape:window-width="1280"
     inkscape:window-height="750"
     inkscape:window-x="0"
     inkscape:window-y="22"
     inkscape:window-maximized="1"
     showguides="true"
     inkscape:guide-bbox="true">
    <sodipodi:guide
       orientation="0,1"
       position="-24.748737,0"
       id="guide11064" />
    <sodipodi:guide
       orientation="0,1"
       position="-23.233509,96"
       id="guide11066" />
    <sodipodi:guide
       orientation="1,0"
       position="0,54.800776"
       id="guide11068" />
    <sodipodi:guide
       orientation="1,0"
       position="96,51.012704"
       id="guide11070" />
    <sodipodi:guide
       orientation="0,1"
       position="-18.94036,48"
       id="guide11072" />
    <sodipodi:guide
       orientation="1,0"
       position="48,79.296975"
       id="guide11074" />
    <sodipodi:guide
       orientation="1,0"
       position="2,75.508903"
       id="guide11076" />
    <sodipodi:guide
       orientation="0,1"
       position="-77.27667,2"
       id="guide11078" />
    <sodipodi:guide
       orientation="1,0"
       position="94,77.781746"
       id="guide11080" />
    <sodipodi:guide
       orientation="0,1"
       position="-65.912454,94"
       id="guide11082" />
  </sodipodi:namedview>
  <metadata
     id="metadata11042">
    <rdf:RDF>
      <cc:Work
         rdf:about="">
        <dc:format>image/svg+xml</dc:format>
        <dc:type
           rdf:resource="http://purl.org/dc/dcmitype/StillImage" />
        <dc:title />
      </cc:Work>
    </rdf:RDF>
  </metadata>
  <g
     inkscape:label="Layer 1"
     inkscape:groupmode="layer"
     id="layer1"
     transform="translate(0,-956.36218)">
    <rect
       x="2"
       y="958.36218"
       width="92"
       height="92"
       style="fill:url(#linearGradient11642);fill-opacity:1.0"
       id="rect3867"
       rx="25"
       ry="25" />
    <g
       transform="translate(1.0299683e-7,956.36218)"
       style="display:inline"
       id="layer3">
      <path
         d="m -84,44 0,7.2 A 28.8,28.8 0 0 1 -55.2,80 l 7.2,0 A 36,36 0 0 0 -84,44 z m 0,12.137143 0,6.994286 A 16.868571,16.868571 0 0 1 -67.131429,80 l 6.994286,0 A 23.862857,23.862857 0 0 0 -84,56.137143 z m 4.937142,13.988571 C -81.789566,70.125714 -84,72.336149 -84,75.062857 -84,77.789566 -81.789566,80 -79.062857,80 c 2.726708,0 4.937143,-2.210434 4.937143,-4.937143 0,-2.726708 -2.210435,-4.937143 -4.937143,-4.937143 z"
         inkscape:connector-curvature="0"
         transform="translate(100,0)"
         clip-path="url(#clipPath3763)"
         id="path3754"
         style="opacity:0.12000002;fill:none;stroke:#ffffff;stroke-width:2;stroke-miterlimit:4;stroke-dasharray:none;display:inline;filter:url(#filter3767)" />
      <path
         d="m 16,44 0,7.2 A 28.8,28.8 0 0 1 44.8,80 L 52,80 A 36,36 0 0 0 16,44 z m 0,12.137143 0,6.994286 A 16.868571,16.868571 0 0 1 32.868571,80 l 6.994286,0 A 23.862857,23.862857 0 0 0 16,56.137143 z m 4.937142,13.988571 C 18.210434,70.125714 16,72.336149 16,75.062857 16,77.789566 18.210434,80 20.937143,80 c 2.726708,0 4.937143,-2.210434 4.937143,-4.937143 0,-2.726708 -2.210435,-4.937143 -4.937143,-4.937143 z"
         inkscape:connector-curvature="0"
         id="circle3643"
         style="fill:url(#linearGradient3707);fill-opacity:1;display:inline" />
      <path
         d="m 16,44 0,7.1875 c 0.323237,0.01539 0.646215,0.03623 0.96875,0.0625 6.68e-4,-0.02083 6.68e-4,-0.04167 0,-0.0625 l 0,-6.15625 c 0.812941,0.02133 1.604135,0.03984 2.46875,0.125 1.20415,0.118598 2.219523,0.263945 3.40625,0.5 1.186727,0.236055 2.154625,0.461262 3.3125,0.8125 1.157875,0.351238 2.132128,0.693212 3.25,1.15625 1.117872,0.463038 2.026646,0.929621 3.09375,1.5 1.067104,0.570379 1.962691,1.077773 2.96875,1.75 1.006059,0.672227 1.814676,1.294899 2.75,2.0625 0.935324,0.767601 1.706918,1.425668 2.5625,2.28125 0.855582,0.855582 1.513649,1.627176 2.28125,2.5625 0.767601,0.935324 1.390273,1.743941 2.0625,2.75 0.672227,1.006059 1.179621,1.901646 1.75,2.96875 0.570379,1.067104 1.036962,1.975878 1.5,3.09375 0.463038,1.117872 0.805012,2.092125 1.15625,3.25 0.351238,1.157875 0.576445,2.125773 0.8125,3.3125 0.236055,1.186727 0.381402,2.2021 0.5,3.40625 0.08516,0.864615 0.103674,1.655809 0.125,2.46875 l -6.15625,0 c -0.01042,-1.67e-4 -0.02083,-1.67e-4 -0.03125,0 C 44.7971,79.353961 44.80752,79.676939 44.8125,80 L 52,80 C 52,70.575222 48.120169,61.20848 41.455844,54.544156 34.79152,47.879831 25.424778,44 16,44 z m 0,12.125 0,7 c 0.323427,0.01154 0.646522,0.03238 0.96875,0.0625 6.68e-4,-0.02083 6.68e-4,-0.04167 0,-0.0625 l 0,-5.96875 c 0.409214,0.01676 0.820495,0.01733 1.28125,0.0625 0.809435,0.07936 1.421001,0.154134 2.21875,0.3125 0.797749,0.158366 1.40913,0.326654 2.1875,0.5625 0.77837,0.235846 1.373515,0.438949 2.125,0.75 0.751485,0.311051 1.313896,0.585492 2.03125,0.96875 0.717354,0.383258 1.229945,0.704482 1.90625,1.15625 0.676305,0.451768 1.183765,0.796578 1.8125,1.3125 0.628735,0.515922 1.081149,0.956149 1.65625,1.53125 0.575101,0.575101 1.015328,1.027515 1.53125,1.65625 0.515922,0.628735 0.860732,1.136195 1.3125,1.8125 0.451768,0.676305 0.772992,1.188896 1.15625,1.90625 0.383258,0.717354 0.657699,1.279765 0.96875,2.03125 0.311051,0.751485 0.514154,1.34663 0.75,2.125 0.235846,0.77837 0.404134,1.389751 0.5625,2.1875 0.158366,0.797749 0.233142,1.409315 0.3125,2.21875 0.04517,0.460755 0.04574,0.872036 0.0625,1.28125 l -5.96875,0 c -0.02083,-6.68e-4 -0.04167,-6.68e-4 -0.0625,0 0.03012,0.322228 0.05096,0.645323 0.0625,0.96875 l 7,0 C 39.878182,73.748671 37.306092,67.534624 32.885734,63.114266 28.465376,58.693908 22.251329,56.121818 16,56.125 z m 4.9375,14 C 18.210792,70.125 16,72.335792 16,75.0625 16,77.789209 18.210791,80 20.9375,80 c 2.726708,0 4.9375,-2.210791 4.9375,-4.9375 0,-2.726708 -2.210792,-4.9375 -4.9375,-4.9375 z m 0,0.96875 c 2.200152,0 3.96875,1.768598 3.96875,3.96875 0,2.200153 -1.768598,3.96875 -3.96875,3.96875 -2.200153,0 -3.96875,-1.768597 -3.96875,-3.96875 0,-2.200152 1.768598,-3.96875 3.96875,-3.96875 z"
         inkscape:connector-curvature="0"
         id="path3735"
         style="opacity:0.3;fill:#803300;fill-opacity:1;display:inline" />
      <path
         d="m 16,44 0,1 A 36,36 0 0 1 51.9375,80 L 52,80 A 36,36 0 0 0 16,44 z m 0,12.125 0,1 A 23.862857,23.862857 0 0 1 39.8125,80 l 0.0625,0 A 23.862857,23.862857 0 0 0 16,56.125 z m 4.9375,14 C 18.210792,70.125 16,72.335792 16,75.0625 c 0,0.170419 0.0144,0.334028 0.03125,0.5 0.252831,-2.489584 2.349961,-4.4375 4.90625,-4.4375 2.556289,0 4.653419,1.947916 4.90625,4.4375 0.01685,-0.165972 0.03125,-0.329581 0.03125,-0.5 0,-2.726708 -2.210792,-4.9375 -4.9375,-4.9375 z"
         inkscape:connector-curvature="0"
         id="path3709"
         style="opacity:0.5;fill:#803300;fill-opacity:1;display:inline" />
      <path
         d="m 16,51.1875 0,1 A 28.8,28.8 0 0 1 44.8125,81 L 52,81 a 36,36 0 0 0 -0.0625,-1 l -7.125,0 A 28.8,28.8 0 0 0 16,51.1875 z m 0,11.9375 0,1 A 16.868571,16.868571 0 0 1 32.875,81 l 7,0 A 23.862857,23.862857 0 0 0 39.8125,80 L 32.875,80 A 16.868571,16.868571 0 0 0 16,63.125 z m 0.03125,12.4375 C 16.014395,75.728472 16,75.892081 16,76.0625 16,78.789209 18.210791,81 20.9375,81 c 2.726708,0 4.9375,-2.210791 4.9375,-4.9375 0,-0.170419 -0.0144,-0.334028 -0.03125,-0.5 C 25.590919,78.052085 23.493789,80 20.9375,80 18.38121,80 16.284081,78.052085 16.03125,75.5625 z"
         inkscape:connector-curvature="0"
         id="path3745"
         style="fill:#ffffff;fill-opacity:1;display:inline" />
    </g>
    <rect
       ry="25"
       rx="25"
       id="rect3003"
       style="opacity:0.15;fill:#ffffff;fill-opacity:1"
       height="92"
       width="92"
       y="958.36218"
       x="-96"
       clip-path="url(#clipPath3009)"
       transform="translate(98,3.8281269e-7)" />
  </g>
</svg>
