<?xml version="1.0" encoding="UTF-8" standalone="no"?>
<!-- Created with Inkscape (http://www.inkscape.org/) -->

<svg
   xmlns:dc="http://purl.org/dc/elements/1.1/"
   xmlns:cc="http://creativecommons.org/ns#"
   xmlns:rdf="http://www.w3.org/1999/02/22-rdf-syntax-ns#"
   xmlns:svg="http://www.w3.org/2000/svg"
   xmlns="http://www.w3.org/2000/svg"
   xmlns:xlink="http://www.w3.org/1999/xlink"
   xmlns:sodipodi="http://sodipodi.sourceforge.net/DTD/sodipodi-0.dtd"
   xmlns:inkscape="http://www.inkscape.org/namespaces/inkscape"
   width="96"
   height="96"
   id="svg11037"
   version="1.1"
   inkscape:version="0.48.3.1 r9886"
   sodipodi:docname="application-pdf.svg">
  <defs
     id="defs11039">
    <linearGradient
       y2="1046.1001"
       x2="47.999954"
       y1="962.62189"
       x1="47.999954"
       gradientTransform="matrix(1.15,0,0,1.15,-7.1999462,-150.65291)"
       gradientUnits="userSpaceOnUse"
       id="linearGradient3886"
       xlink:href="#linearGradient3795"
       inkscape:collect="always" />
    <linearGradient
       id="linearGradient3795">
      <stop
         style="stop-color:#13a6fd;stop-opacity:1;"
         offset="0"
         id="stop3797" />
      <stop
         style="stop-color:#2975b6;stop-opacity:1;"
         offset="1"
         id="stop3799" />
    </linearGradient>
    <linearGradient
       y2="1046.1001"
       x2="47.999954"
       y1="962.62189"
       x1="47.999954"
       gradientTransform="matrix(1.15,0,0,1.15,-7.1999462,-150.65292)"
       gradientUnits="userSpaceOnUse"
       id="linearGradient11642"
       xlink:href="#linearGradient3795"
       inkscape:collect="always" />
    <linearGradient
       x1="48"
       y1="90"
       x2="48"
       y2="5.9877172"
       id="linearGradient3706"
       xlink:href="#linearGradient3700"
       gradientUnits="userSpaceOnUse" />
    <linearGradient
       id="linearGradient3700">
      <stop
         id="stop3702"
         style="stop-color:#e6e6e6;stop-opacity:1"
         offset="0" />
      <stop
         id="stop3704"
         style="stop-color:#f5f5f5;stop-opacity:1"
         offset="1" />
    </linearGradient>
    <linearGradient
       x1="48"
       y1="20.220806"
       x2="48"
       y2="138.66119"
       id="linearGradient3822"
       xlink:href="#linearGradient3737-9"
       gradientUnits="userSpaceOnUse" />
    <linearGradient
       id="linearGradient3737-9">
      <stop
         id="stop3739-2"
         style="stop-color:#ffffff;stop-opacity:1"
         offset="0" />
      <stop
         id="stop3741-1"
         style="stop-color:#ffffff;stop-opacity:0"
         offset="1" />
    </linearGradient>
    <clipPath
       id="clipPath3613">
      <rect
         width="84"
         height="84"
         rx="6"
         ry="6"
         x="6"
         y="6"
         id="rect3615"
         style="fill:#ffffff;fill-opacity:1;fill-rule:nonzero;stroke:none" />
    </clipPath>
    <filter
       x="-0.192"
       y="-0.192"
       width="1.3839999"
       height="1.3839999"
       color-interpolation-filters="sRGB"
       id="filter3794">
      <feGaussianBlur
         id="feGaussianBlur3796"
         stdDeviation="5.28" />
    </filter>
    <linearGradient
       x1="56.633896"
       y1="89.164001"
       x2="56.633896"
       y2="6.398416"
       id="linearGradient3203"
       xlink:href="#linearGradient3174"
       gradientUnits="userSpaceOnUse" />
    <linearGradient
       id="linearGradient3174">
      <stop
         id="stop3176"
         style="stop-color:#c30000;stop-opacity:1"
         offset="0" />
      <stop
         id="stop3178"
         style="stop-color:#f12300;stop-opacity:1"
         offset="1" />
    </linearGradient>
    <clipPath
       clipPathUnits="userSpaceOnUse"
       id="clipPath3060">
      <rect
         x="6"
         y="6.0000038"
         width="84"
         height="84"
         style="fill:url(#linearGradient3064);fill-opacity:1"
         id="rect3062"
         rx="22.826086"
         ry="22.826086" />
    </clipPath>
    <linearGradient
       inkscape:collect="always"
       xlink:href="#linearGradient3795"
       id="linearGradient3064"
       gradientUnits="userSpaceOnUse"
       gradientTransform="matrix(1.05,0,0,1.05,-2.3999508,-1006.579)"
       x1="47.999954"
       y1="962.62189"
       x2="47.999954"
       y2="1046.1001" />
    <clipPath
       clipPathUnits="userSpaceOnUse"
       id="clipPath3009">
      <path
         id="path3011"
         d="m -2,956.36218 -96,0 0,33.5624 96,25.68742 0,-59.24982 z"
         style="opacity:0.15;fill:#ffffff;fill-opacity:1;stroke:none"
         inkscape:connector-curvature="0" />
    </clipPath>
  </defs>
  <sodipodi:namedview
     id="base"
     pagecolor="#ffffff"
     bordercolor="#666666"
     borderopacity="1.0"
     inkscape:pageopacity="0.0"
     inkscape:pageshadow="2"
     inkscape:zoom="3.959798"
     inkscape:cx="37.957448"
     inkscape:cy="59.964634"
     inkscape:document-units="px"
     inkscape:current-layer="layer1"
     showgrid="false"
     inkscape:window-width="1280"
     inkscape:window-height="750"
     inkscape:window-x="0"
     inkscape:window-y="22"
     inkscape:window-maximized="1"
     showguides="true"
     inkscape:guide-bbox="true">
    <sodipodi:guide
       orientation="0,1"
       position="-24.748737,0"
       id="guide11064" />
    <sodipodi:guide
       orientation="0,1"
       position="-23.233509,96"
       id="guide11066" />
    <sodipodi:guide
       orientation="1,0"
       position="0,54.800776"
       id="guide11068" />
    <sodipodi:guide
       orientation="1,0"
       position="96,51.012704"
       id="guide11070" />
    <sodipodi:guide
       orientation="0,1"
       position="-18.94036,48"
       id="guide11072" />
    <sodipodi:guide
       orientation="1,0"
       position="48,79.296975"
       id="guide11074" />
    <sodipodi:guide
       orientation="1,0"
       position="2,75.508903"
       id="guide11076" />
    <sodipodi:guide
       orientation="0,1"
       position="-77.27667,2"
       id="guide11078" />
    <sodipodi:guide
       orientation="1,0"
       position="94,77.781746"
       id="guide11080" />
    <sodipodi:guide
       orientation="0,1"
       position="-65.912454,94"
       id="guide11082" />
  </sodipodi:namedview>
  <metadata
     id="metadata11042">
    <rdf:RDF>
      <cc:Work
         rdf:about="">
        <dc:format>image/svg+xml</dc:format>
        <dc:type
           rdf:resource="http://purl.org/dc/dcmitype/StillImage" />
        <dc:title />
      </cc:Work>
    </rdf:RDF>
  </metadata>
  <g
     inkscape:label="Layer 1"
     inkscape:groupmode="layer"
     id="layer1"
     transform="translate(0,-956.36218)">
    <g
       transform="matrix(1.0952381,0,0,1.0952381,-4.5714286,951.79075)"
       id="g3061"
       clip-path="url(#clipPath3060)">
      <g
         id="layer1-8">
        <g
           id="g3040">
          <rect
             width="84"
             height="84"
             rx="6"
             ry="6"
             x="6"
             y="6"
             id="rect2419"
             style="fill:url(#linearGradient3706);fill-opacity:1;fill-rule:nonzero;stroke:none" />
        </g>
      </g>
      <g
         id="layer5">
        <rect
           style="opacity:0.5;fill:url(#linearGradient3822);fill-opacity:1;fill-rule:nonzero;stroke:#ffffff;stroke-width:0.5;stroke-linecap:round;stroke-linejoin:miter;stroke-miterlimit:4;stroke-opacity:1;stroke-dasharray:none;stroke-dashoffset:0;display:inline;filter:url(#filter3794)"
           id="rect3171"
           clip-path="url(#clipPath3613)"
           y="15"
           x="15"
           ry="12"
           rx="12"
           height="66"
           width="66" />
      </g>
      <g
         id="layer3">
        <path
           style="opacity:0.5;fill:#999999;fill-opacity:1;fill-rule:nonzero;stroke:none"
           id="rect3362"
           inkscape:connector-curvature="0"
           d="M 12,12 12,29.9375 20.09375,12 12,12 z M 21.90625,12 30,29.9375 30,12 21.90625,12 z M 21,19.03125 l -3.03125,7 2.928571,0 1.71875,3.96875 3.227679,0 -2.375,-5.28125 -0.0625,-0.125 L 21,19.03125 z" />
        <path
           style="opacity:0.1;fill:#000000;fill-opacity:1;fill-rule:evenodd;stroke:none"
           id="path3192"
           inkscape:connector-curvature="0"
           d="M 90,28.6875 C 66.483285,59.017616 30.249279,63.158806 6,58.78125 l 0,4.90625 c 22.767532,4.109913 50.946157,3.417984 71.3125,-5.09375 -4.387217,6.352052 -6.223842,13.463734 -6.65625,19.9375 -0.278127,4.163964 0.003,8.088332 0.46875,11.46875 l 4.03125,0 c -0.478649,-3.261833 -0.772231,-7.111813 -0.5,-11.1875 C 75.286755,69.372953 78.723322,58.984232 90,51.84375 L 90,28.6875 z" />
        <path
           style="fill:url(#linearGradient3203);fill-opacity:1;fill-rule:evenodd;stroke:none;display:inline"
           id="path4144"
           inkscape:connector-curvature="0"
           d="M 58.762131,6.0005672 C 54.813987,14.692463 51.82222,23.633779 49.837199,32.644132 48.806861,33.464064 47.759914,34.230151 46.687219,35.006616 34.448967,43.86517 19.768492,49.65331 6,49.312763 l 0,6.562455 C 18.183497,57.025416 26.288573,59.087281 31.806074,66.42514 37.263113,73.682589 40.318537,80.858914 40.318537,90 l 4.199972,0 c 0,-9.113789 -3.95447,-19.939986 -9.299958,-26.068593 C 29.93589,57.874832 23.264186,55.069699 14.268692,52.987738 26.298245,51.377178 38.242322,46.028524 48.524707,38.681591 45.55928,55.902052 46.04264,73.389567 49.705946,90 L 78.712,90 C 64.218349,76.858849 57.948589,53.302841 57.974636,31.069143 66.147448,23.461052 72.49871,14.738119 75.824519,6.0005672 l -4.46247,0 C 68.596865,12.400983 63.962095,18.968932 58.10589,25.031685 58.462461,18.332933 59.531125,11.920825 60.993371,6.0005672 l -2.23124,0 z" />
        <path
           style="opacity:0.6;fill:#550000;fill-opacity:1;fill-rule:evenodd;stroke:none;display:inline"
           id="path3683"
           inkscape:connector-curvature="0"
           d="M 58.75,6 C 54.801856,14.691896 51.828771,23.645897 49.84375,32.65625 48.813412,33.476182 47.760195,34.223535 46.6875,35 34.449248,43.858554 19.768492,49.653047 6,49.3125 l 0,1 C 19.768492,50.653047 34.449248,44.858554 46.6875,36 47.760195,35.223535 48.813412,34.476182 49.84375,33.65625 51.828771,24.645897 54.801856,15.691896 58.75,7 l 2,0 C 60.828988,6.6670557 60.918512,6.3299248 61,6 l -2.25,0 z m 12.625,0 c -2.750591,6.366638 -7.375043,12.901458 -13.1875,18.9375 -0.02373,0.36488 -0.07423,0.727119 -0.09375,1.09375 C 63.949955,19.968497 68.609816,13.400416 71.375,7 l 4.03125,0 C 75.54317,6.6637659 75.684478,6.3363402 75.8125,6 L 71.375,6 z M 58.03125,35.25 c 0.535584,20.715555 6.558943,42.08726 19.625,54.75 l 1.0625,0 C 65.130952,77.680171 58.751682,56.206067 58.03125,35.25 z m -9.5,4.4375 c -0.06075,0.04341 -0.126632,0.08173 -0.1875,0.125 -1.048187,6.416674 -1.61151,12.856525 -1.71875,19.28125 0.156241,-6.472447 0.794215,-12.948577 1.90625,-19.40625 z M 16.75,53.625 c -0.822927,0.14489 -1.644513,0.264648 -2.46875,0.375 8.995494,2.081961 15.654839,4.880925 20.9375,10.9375 C 40.369893,70.84329 44.226175,81.105736 44.5,90 l 0.03125,0 c 0,-9.113789 -3.967012,-19.933893 -9.3125,-26.0625 C 30.438061,58.456437 24.498696,55.654163 16.75,53.625 z" />
        <path
           style="opacity:0.8;fill:#ffffff;fill-opacity:1;fill-rule:evenodd;stroke:none;display:inline"
           id="path3671"
           inkscape:connector-curvature="0"
           d="m 60.75,7 c -1.338401,5.641496 -2.31955,11.705807 -2.65625,18.03125 0.03091,-0.032 0.06291,-0.06173 0.09375,-0.09375 C 58.597335,18.635619 59.617784,12.596235 61,7 l -0.25,0 z m 14.65625,0 c -3.420027,8.398562 -9.579289,16.747272 -17.4375,24.0625 -3.89e-4,0.331772 -0.0024,0.667678 0,1 C 66.141562,24.454409 72.486691,15.737552 75.8125,7 l -0.40625,0 z m -26.875,31.6875 C 38.248865,46.034433 26.310803,51.38944 14.28125,53 c 0.854775,0.197833 1.655137,0.411938 2.46875,0.625 11.11655,-1.957259 22.058519,-7.034282 31.59375,-13.8125 0.0615,-0.376516 0.122704,-0.748727 0.1875,-1.125 z M 6,55.875 l 0,1 c 12.183497,1.150198 20.294999,3.224641 25.8125,10.5625 5.254879,6.988591 8.252476,13.898377 8.46875,22.5625 l 0.03125,0 c 0,-9.141086 -3.042961,-16.305051 -8.5,-23.5625 C 26.294999,59.099641 18.183497,57.025198 6,55.875 z m 40.625,8.6875 C 46.768504,73.158773 47.734334,81.686962 49.5,90 l 0.21875,0 C 47.887097,81.694783 46.833075,73.163241 46.625,64.5625 z" />
      </g>
    </g>
    <rect
       ry="25"
       rx="25"
       id="rect3003"
       style="opacity:0.15;fill:#ffffff;fill-opacity:1"
       height="92"
       width="92"
       y="958.36218"
       x="-96"
       clip-path="url(#clipPath3009)"
       transform="translate(98,3.8281269e-7)" />
  </g>
</svg>
