<?xml version="1.0" encoding="UTF-8" standalone="no"?>
<!-- Created with Inkscape (http://www.inkscape.org/) -->

<svg
   xmlns:dc="http://purl.org/dc/elements/1.1/"
   xmlns:cc="http://creativecommons.org/ns#"
   xmlns:rdf="http://www.w3.org/1999/02/22-rdf-syntax-ns#"
   xmlns:svg="http://www.w3.org/2000/svg"
   xmlns="http://www.w3.org/2000/svg"
   xmlns:xlink="http://www.w3.org/1999/xlink"
   xmlns:sodipodi="http://sodipodi.sourceforge.net/DTD/sodipodi-0.dtd"
   xmlns:inkscape="http://www.inkscape.org/namespaces/inkscape"
   width="96"
   height="96"
   id="svg11037"
   version="1.1"
   inkscape:version="0.48.3.1 r9886"
   sodipodi:docname="application-x-executable.svg">
  <defs
     id="defs11039">
    <linearGradient
       y2="1046.1001"
       x2="47.999954"
       y1="962.62189"
       x1="47.999954"
       gradientTransform="matrix(1.15,0,0,1.15,-7.1999462,-150.65291)"
       gradientUnits="userSpaceOnUse"
       id="linearGradient3886"
       xlink:href="#linearGradient3795"
       inkscape:collect="always" />
    <linearGradient
       id="linearGradient3795">
      <stop
         style="stop-color:#13a6fd;stop-opacity:1;"
         offset="0"
         id="stop3797" />
      <stop
         style="stop-color:#2975b6;stop-opacity:1;"
         offset="1"
         id="stop3799" />
    </linearGradient>
    <linearGradient
       y2="1046.1001"
       x2="47.999954"
       y1="962.62189"
       x1="47.999954"
       gradientTransform="matrix(1.15,0,0,1.15,-7.1999462,-150.65292)"
       gradientUnits="userSpaceOnUse"
       id="linearGradient11642"
       xlink:href="#ButtonColor-7"
       inkscape:collect="always" />
    <linearGradient
       x1="48"
       y1="90"
       x2="48"
       y2="5.9877172"
       id="linearGradient3617"
       xlink:href="#ButtonColor-7"
       gradientUnits="userSpaceOnUse"
       gradientTransform="translate(-25.220339,-8.9491525)" />
    <linearGradient
       x1="10.31979"
       y1="21"
       x2="10.31979"
       y2="0.99929649"
       id="ButtonColor-7"
       gradientUnits="userSpaceOnUse">
      <stop
         id="stop3189"
         style="stop-color:#787878;stop-opacity:1"
         offset="0" />
      <stop
         id="stop3191"
         style="stop-color:#b4b4b4;stop-opacity:1"
         offset="1" />
    </linearGradient>
    <linearGradient
       y2="5.9877172"
       x2="48"
       y1="90"
       x1="48"
       gradientTransform="translate(-109.11423,981.38121)"
       gradientUnits="userSpaceOnUse"
       id="linearGradient3108"
       xlink:href="#ButtonColor-7"
       inkscape:collect="always" />
    <linearGradient
       x1="20.758585"
       y1="1"
       x2="20.758585"
       y2="45.017357"
       id="linearGradient3141"
       xlink:href="#linearGradient3309"
       gradientUnits="userSpaceOnUse"
       gradientTransform="matrix(1.2790652,0,0,1.2790652,17.302433,18.5815)" />
    <linearGradient
       x1="63.9995"
       y1="3.1001"
       x2="63.9995"
       y2="122.8994"
       id="linearGradient3309"
       gradientUnits="userSpaceOnUse">
      <stop
         id="stop3311"
         style="stop-color:#f0f0f0;stop-opacity:1"
         offset="0" />
      <stop
         id="stop3313"
         style="stop-color:#aaaaaa;stop-opacity:1"
         offset="1" />
    </linearGradient>
    <clipPath
       id="clipPath4403">
      <path
         d="m 30.916245,135.971 c -0.937266,0.54113 -1.228304,1.74752 -0.677924,2.7008 l 1.9375,3.35585 c -1.418086,1.4141 -2.622273,3.01198 -3.595451,4.71 l -3.783634,-0.99095 c -0.531629,-0.14245 -1.037926,-0.11751 -1.476221,0.13061 -0.438159,0.24835 -0.796545,0.66758 -0.936598,1.19027 l -1.978825,7.38507 c -0.280102,1.04538 0.365953,2.06538 1.429126,2.35032 l 3.772195,1.03363 c -0.0062,1.95711 0.237711,3.94301 0.758755,5.87671 l -3.355849,1.9375 c -0.95328,0.55037 -1.304431,1.74066 -0.763301,2.67792 l 3.8125,6.60344 c 0.54113,0.93727 1.747521,1.2283 2.700801,0.67793 l 3.355849,-1.9375 c 1.414106,1.41808 3.011983,2.62227 4.709995,3.59545 l -0.990945,3.78363 c -0.284894,1.06325 0.275431,2.13275 1.320874,2.41282 l 7.385075,1.97883 c 1.045371,0.28011 2.065425,-0.36588 2.35032,-1.42913 l 1.033633,-3.77219 c 1.957118,0.006 3.943015,-0.23771 5.876701,-0.75876 l 1.9375,3.35585 c 0.550375,0.95328 1.740658,1.30443 2.677924,0.7633 l 6.603444,-3.8125 c 0.937258,-0.54113 1.228299,-1.74752 0.677924,-2.7008 l -1.9375,-3.35585 c 1.418087,-1.4141 2.622272,-3.01197 3.595452,-4.70999 l 3.783633,0.99094 c 1.063244,0.2849 2.132709,-0.27549 2.41282,-1.32087 l 1.978825,-7.38508 c 0.280102,-1.04537 -0.365953,-2.06538 -1.429127,-2.35032 l -3.772195,-1.03363 c 0.0062,-1.95711 -0.237701,-3.94301 -0.758754,-5.8767 l 3.355848,-1.9375 c 0.953272,-0.55037 1.304431,-1.74066 0.763301,-2.67793 l -3.8125,-6.60344 c -0.54113,-0.93726 -1.747529,-1.2283 -2.700801,-0.67792 l -3.355849,1.9375 c -1.414093,-1.4181 -3.011984,-2.62228 -4.709995,-3.59546 l 0.990945,-3.78363 c 0.284894,-1.06324 -0.275422,-2.13275 -1.320874,-2.41282 l -7.385074,-1.97882 c -1.045381,-0.28011 -2.065426,0.36588 -2.35032,1.42912 l -1.033633,3.7722 c -1.95712,-0.006 -3.943015,0.2377 -5.876702,0.75875 l -1.9375,-3.35585 c -0.55038,-0.95328 -1.740666,-1.30442 -2.677924,-0.7633 l -6.603444,3.8125 z m 10.051722,9.7851 c 6.696096,-3.866 15.258361,-1.57175 19.124356,5.12435 3.865995,6.6961 1.57174,15.25836 -5.124356,19.12436 -6.696096,3.86599 -15.258361,1.57174 -19.124356,-5.12436 -3.865995,-6.6961 -1.57174,-15.25836 5.124356,-19.12435 z"
         inkscape:connector-curvature="0"
         id="path4405"
         style="fill:url(#linearGradient4407);fill-opacity:1;fill-rule:nonzero;stroke:none;stroke-width:1;marker:none;visibility:visible;display:block;overflow:visible;enable-background:accumulate" />
    </clipPath>
    <linearGradient
       x1="48.233639"
       y1="48.047016"
       x2="126.13924"
       y2="66.232674"
       id="linearGradient4213"
       xlink:href="#linearGradient4071-3"
       gradientUnits="userSpaceOnUse" />
    <linearGradient
       id="linearGradient4071-3">
      <stop
         id="stop4073-8"
         style="stop-color:#000000;stop-opacity:1"
         offset="0" />
      <stop
         id="stop4075-4"
         style="stop-color:#000000;stop-opacity:0"
         offset="1" />
    </linearGradient>
    <linearGradient
       x1="48.055065"
       y1="48.031517"
       x2="126.67282"
       y2="62.838562"
       id="linearGradient4215"
       xlink:href="#linearGradient4047-2"
       gradientUnits="userSpaceOnUse" />
    <linearGradient
       id="linearGradient4047-2">
      <stop
         id="stop4049-0"
         style="stop-color:#000000;stop-opacity:1"
         offset="0" />
      <stop
         id="stop4051-5"
         style="stop-color:#000000;stop-opacity:0"
         offset="1" />
    </linearGradient>
    <linearGradient
       x1="47.997307"
       y1="48.028725"
       x2="127.05216"
       y2="60.289631"
       id="linearGradient4217"
       xlink:href="#linearGradient4047-2"
       gradientUnits="userSpaceOnUse" />
    <linearGradient
       id="linearGradient3166">
      <stop
         id="stop3168"
         style="stop-color:#000000;stop-opacity:1"
         offset="0" />
      <stop
         id="stop3170"
         style="stop-color:#000000;stop-opacity:0"
         offset="1" />
    </linearGradient>
    <linearGradient
       x1="47.99826"
       y1="48.028797"
       x2="127.41583"
       y2="57.664623"
       id="linearGradient4219"
       xlink:href="#linearGradient4047-2"
       gradientUnits="userSpaceOnUse" />
    <linearGradient
       id="linearGradient3173">
      <stop
         id="stop3175"
         style="stop-color:#000000;stop-opacity:1"
         offset="0" />
      <stop
         id="stop3177"
         style="stop-color:#000000;stop-opacity:0"
         offset="1" />
    </linearGradient>
    <linearGradient
       x1="48.233643"
       y1="48.04702"
       x2="126.13924"
       y2="66.232674"
       id="linearGradient4221"
       xlink:href="#linearGradient4115-2"
       gradientUnits="userSpaceOnUse" />
    <linearGradient
       id="linearGradient4115-2">
      <stop
         id="stop4117-3"
         style="stop-color:#ffffff;stop-opacity:1"
         offset="0" />
      <stop
         id="stop4119-6"
         style="stop-color:#ffffff;stop-opacity:0"
         offset="1" />
    </linearGradient>
    <linearGradient
       x1="48.055069"
       y1="48.031521"
       x2="126.67282"
       y2="62.838566"
       id="linearGradient4223"
       xlink:href="#linearGradient4115-2"
       gradientUnits="userSpaceOnUse" />
    <linearGradient
       id="linearGradient3184">
      <stop
         id="stop3186"
         style="stop-color:#ffffff;stop-opacity:1"
         offset="0" />
      <stop
         id="stop3188"
         style="stop-color:#ffffff;stop-opacity:0"
         offset="1" />
    </linearGradient>
    <linearGradient
       x1="47.997311"
       y1="48.028728"
       x2="127.05216"
       y2="60.289635"
       id="linearGradient4225"
       xlink:href="#linearGradient4115-2"
       gradientUnits="userSpaceOnUse" />
    <linearGradient
       id="linearGradient3191">
      <stop
         id="stop3193"
         style="stop-color:#ffffff;stop-opacity:1"
         offset="0" />
      <stop
         id="stop3195"
         style="stop-color:#ffffff;stop-opacity:0"
         offset="1" />
    </linearGradient>
    <linearGradient
       x1="47.998264"
       y1="48.028801"
       x2="127.41583"
       y2="57.664627"
       id="linearGradient4227"
       xlink:href="#linearGradient4115-2"
       gradientUnits="userSpaceOnUse" />
    <linearGradient
       id="linearGradient3198">
      <stop
         id="stop3200"
         style="stop-color:#ffffff;stop-opacity:1"
         offset="0" />
      <stop
         id="stop3202"
         style="stop-color:#ffffff;stop-opacity:0"
         offset="1" />
    </linearGradient>
    <linearGradient
       x1="48.233639"
       y1="48.047016"
       x2="126.13924"
       y2="66.232674"
       id="linearGradient4229"
       xlink:href="#linearGradient4071-3"
       gradientUnits="userSpaceOnUse" />
    <linearGradient
       id="linearGradient3205">
      <stop
         id="stop3207"
         style="stop-color:#000000;stop-opacity:1"
         offset="0" />
      <stop
         id="stop3209"
         style="stop-color:#000000;stop-opacity:0"
         offset="1" />
    </linearGradient>
    <linearGradient
       x1="48.055065"
       y1="48.031517"
       x2="126.67282"
       y2="62.838562"
       id="linearGradient4231"
       xlink:href="#linearGradient4047-2"
       gradientUnits="userSpaceOnUse" />
    <linearGradient
       id="linearGradient3212">
      <stop
         id="stop3214"
         style="stop-color:#000000;stop-opacity:1"
         offset="0" />
      <stop
         id="stop3216"
         style="stop-color:#000000;stop-opacity:0"
         offset="1" />
    </linearGradient>
    <linearGradient
       x1="47.997307"
       y1="48.028725"
       x2="127.05216"
       y2="60.289631"
       id="linearGradient4233"
       xlink:href="#linearGradient4047-2"
       gradientUnits="userSpaceOnUse" />
    <linearGradient
       id="linearGradient3219">
      <stop
         id="stop3221"
         style="stop-color:#000000;stop-opacity:1"
         offset="0" />
      <stop
         id="stop3223"
         style="stop-color:#000000;stop-opacity:0"
         offset="1" />
    </linearGradient>
    <linearGradient
       x1="47.99826"
       y1="48.028797"
       x2="127.41583"
       y2="57.664623"
       id="linearGradient4235"
       xlink:href="#linearGradient4047-2"
       gradientUnits="userSpaceOnUse" />
    <linearGradient
       id="linearGradient3226">
      <stop
         id="stop3228"
         style="stop-color:#000000;stop-opacity:1"
         offset="0" />
      <stop
         id="stop3230"
         style="stop-color:#000000;stop-opacity:0"
         offset="1" />
    </linearGradient>
    <linearGradient
       x1="48.233639"
       y1="48.047016"
       x2="126.13924"
       y2="66.232674"
       id="linearGradient4237"
       xlink:href="#linearGradient4071-3"
       gradientUnits="userSpaceOnUse" />
    <linearGradient
       id="linearGradient3233">
      <stop
         id="stop3235"
         style="stop-color:#000000;stop-opacity:1"
         offset="0" />
      <stop
         id="stop3237"
         style="stop-color:#000000;stop-opacity:0"
         offset="1" />
    </linearGradient>
    <linearGradient
       x1="48.055065"
       y1="48.031517"
       x2="126.67282"
       y2="62.838562"
       id="linearGradient4239"
       xlink:href="#linearGradient4047-2"
       gradientUnits="userSpaceOnUse" />
    <linearGradient
       id="linearGradient3240">
      <stop
         id="stop3242"
         style="stop-color:#000000;stop-opacity:1"
         offset="0" />
      <stop
         id="stop3244"
         style="stop-color:#000000;stop-opacity:0"
         offset="1" />
    </linearGradient>
    <linearGradient
       x1="47.997307"
       y1="48.028725"
       x2="127.05216"
       y2="60.289631"
       id="linearGradient4241"
       xlink:href="#linearGradient4047-2"
       gradientUnits="userSpaceOnUse" />
    <linearGradient
       id="linearGradient3247">
      <stop
         id="stop3249"
         style="stop-color:#000000;stop-opacity:1"
         offset="0" />
      <stop
         id="stop3251"
         style="stop-color:#000000;stop-opacity:0"
         offset="1" />
    </linearGradient>
    <linearGradient
       x1="47.99826"
       y1="48.028797"
       x2="127.41583"
       y2="57.664623"
       id="linearGradient4243"
       xlink:href="#linearGradient4047-2"
       gradientUnits="userSpaceOnUse" />
    <linearGradient
       id="linearGradient3254">
      <stop
         id="stop3256"
         style="stop-color:#000000;stop-opacity:1"
         offset="0" />
      <stop
         id="stop3258"
         style="stop-color:#000000;stop-opacity:0"
         offset="1" />
    </linearGradient>
    <linearGradient
       x1="48.233643"
       y1="48.04702"
       x2="126.13924"
       y2="66.232674"
       id="linearGradient4245"
       xlink:href="#linearGradient4115-2"
       gradientUnits="userSpaceOnUse" />
    <linearGradient
       id="linearGradient3261">
      <stop
         id="stop3263"
         style="stop-color:#ffffff;stop-opacity:1"
         offset="0" />
      <stop
         id="stop3265"
         style="stop-color:#ffffff;stop-opacity:0"
         offset="1" />
    </linearGradient>
    <linearGradient
       x1="48.055069"
       y1="48.031521"
       x2="126.67282"
       y2="62.838566"
       id="linearGradient4247"
       xlink:href="#linearGradient4115-2"
       gradientUnits="userSpaceOnUse" />
    <linearGradient
       id="linearGradient3268">
      <stop
         id="stop3270"
         style="stop-color:#ffffff;stop-opacity:1"
         offset="0" />
      <stop
         id="stop3272"
         style="stop-color:#ffffff;stop-opacity:0"
         offset="1" />
    </linearGradient>
    <linearGradient
       x1="47.997311"
       y1="48.028728"
       x2="127.05216"
       y2="60.289635"
       id="linearGradient4249"
       xlink:href="#linearGradient4115-2"
       gradientUnits="userSpaceOnUse" />
    <linearGradient
       id="linearGradient3275">
      <stop
         id="stop3277"
         style="stop-color:#ffffff;stop-opacity:1"
         offset="0" />
      <stop
         id="stop3279"
         style="stop-color:#ffffff;stop-opacity:0"
         offset="1" />
    </linearGradient>
    <linearGradient
       x1="47.998264"
       y1="48.028801"
       x2="127.41583"
       y2="57.664627"
       id="linearGradient4251"
       xlink:href="#linearGradient4115-2"
       gradientUnits="userSpaceOnUse" />
    <linearGradient
       id="linearGradient3282">
      <stop
         id="stop3284"
         style="stop-color:#ffffff;stop-opacity:1"
         offset="0" />
      <stop
         id="stop3286"
         style="stop-color:#ffffff;stop-opacity:0"
         offset="1" />
    </linearGradient>
    <clipPath
       clipPathUnits="userSpaceOnUse"
       id="clipPath3009">
      <path
         id="path3011"
         d="m -2,956.36218 -96,0 0,33.5624 96,25.68742 0,-59.24982 z"
         style="opacity:0.15;fill:#ffffff;fill-opacity:1;stroke:none"
         inkscape:connector-curvature="0" />
    </clipPath>
  </defs>
  <sodipodi:namedview
     id="base"
     pagecolor="#ffffff"
     bordercolor="#666666"
     borderopacity="1.0"
     inkscape:pageopacity="0.0"
     inkscape:pageshadow="2"
     inkscape:zoom="3.959798"
     inkscape:cx="33.538031"
     inkscape:cy="59.964634"
     inkscape:document-units="px"
     inkscape:current-layer="layer1"
     showgrid="false"
     inkscape:window-width="1280"
     inkscape:window-height="750"
     inkscape:window-x="0"
     inkscape:window-y="22"
     inkscape:window-maximized="1"
     showguides="true"
     inkscape:guide-bbox="true">
    <sodipodi:guide
       orientation="0,1"
       position="-24.748737,0"
       id="guide11064" />
    <sodipodi:guide
       orientation="0,1"
       position="-23.233509,96"
       id="guide11066" />
    <sodipodi:guide
       orientation="1,0"
       position="0,54.800776"
       id="guide11068" />
    <sodipodi:guide
       orientation="1,0"
       position="96,51.012704"
       id="guide11070" />
    <sodipodi:guide
       orientation="0,1"
       position="-18.94036,48"
       id="guide11072" />
    <sodipodi:guide
       orientation="1,0"
       position="48,79.296975"
       id="guide11074" />
    <sodipodi:guide
       orientation="1,0"
       position="2,75.508903"
       id="guide11076" />
    <sodipodi:guide
       orientation="0,1"
       position="-77.27667,2"
       id="guide11078" />
    <sodipodi:guide
       orientation="1,0"
       position="94,77.781746"
       id="guide11080" />
    <sodipodi:guide
       orientation="0,1"
       position="-65.912454,94"
       id="guide11082" />
  </sodipodi:namedview>
  <metadata
     id="metadata11042">
    <rdf:RDF>
      <cc:Work
         rdf:about="">
        <dc:format>image/svg+xml</dc:format>
        <dc:type
           rdf:resource="http://purl.org/dc/dcmitype/StillImage" />
        <dc:title />
      </cc:Work>
    </rdf:RDF>
  </metadata>
  <g
     inkscape:label="Layer 1"
     inkscape:groupmode="layer"
     id="layer1"
     transform="translate(0,-956.36218)">
    <rect
       x="2"
       y="958.36218"
       width="92"
       height="92"
       style="fill:url(#linearGradient11642);fill-opacity:1.0"
       id="rect3867"
       rx="25"
       ry="25" />
    <g
       transform="translate(0,956.36218)"
       id="g3110">
      <path
         style="fill:url(#linearGradient3141);fill-opacity:1;fill-rule:nonzero;stroke:none;stroke-width:1;marker:none;visibility:visible;display:block;overflow:visible;enable-background:accumulate"
         id="rect3267"
         inkscape:connector-curvature="0"
         d="m 44.1875,20.5 c -1.082262,0 -1.9375,0.899245 -1.9375,2 l 0,3.875 c -1.935147,0.515597 -3.776942,1.297312 -5.46875,2.28125 L 34,25.90625 c -0.389179,-0.389176 -0.840116,-0.620732 -1.34375,-0.625 -0.503633,-0.0043 -1.023619,0.179866 -1.40625,0.5625 L 25.84375,31.25 c -0.765262,0.76527 -0.715766,1.971648 0.0625,2.75 l 2.75,2.78125 C 27.672316,38.473053 26.89061,40.314849 26.375,42.25 l -3.875,0 c -1.100753,0 -2,0.855244 -2,1.9375 l 0,7.625 c 0,1.082256 0.899247,1.9375 2,1.9375 l 3.875,0 c 0.51561,1.935152 1.297316,3.776947 2.28125,5.46875 L 25.90625,62 c -0.778348,0.77835 -0.827844,1.984729 -0.0625,2.75 L 31.25,70.15625 c 0.765262,0.76527 1.971652,0.715847 2.75,-0.0625 l 2.78125,-2.75 c 1.691808,0.983939 3.533603,1.765652 5.46875,2.28125 l 0,3.875 c 0,1.100754 0.855238,2 1.9375,2 l 7.625,0 c 1.082252,0 1.9375,-0.899246 1.9375,-2 l 0,-3.875 c 1.935147,-0.515598 3.776941,-1.297311 5.46875,-2.28125 L 62,70.09375 c 0.778348,0.77835 1.984727,0.827772 2.75,0.0625 L 70.15625,64.75 c 0.765263,-0.76527 0.715767,-1.97165 -0.0625,-2.75 l -2.75,-2.78125 C 68.327683,57.526947 69.109401,55.685152 69.625,53.75 l 3.875,0 c 1.100744,0 2,-0.855243 2,-1.9375 l 0,-7.625 c 0,-1.082255 -0.899256,-1.9375 -2,-1.9375 l -3.875,0 C 69.109405,40.314849 68.327683,38.473053 67.34375,36.78125 L 70.09375,34 c 0.778348,-0.778351 0.827855,-1.98473 0.0625,-2.75 L 64.75,25.84375 C 63.984727,25.07848 62.778348,25.127901 62,25.90625 l -2.78125,2.75 C 57.526941,27.672312 55.685147,26.890597 53.75,26.375 l 0,-3.875 c 0,-1.100755 -0.855248,-2 -1.9375,-2 l -7.625,0 z M 48,34 c 7.731986,0 14,6.268014 14,14 0,7.731986 -6.268014,14 -14,14 -7.731986,0 -14,-6.268014 -14,-14 0,-7.731986 6.268014,-14 14,-14 z" />
      <g
         id="g4176"
         clip-path="url(#clipPath4403)"
         transform="matrix(0.8660254,0.5,-0.5,0.8660254,85.39875,-112.71247)">
        <g
           style="opacity:0.9"
           id="g4011"
           transform="matrix(0.1413721,0.99271966,-1.1651755,0.12044784,96.937266,104.80532)">
          <path
             inkscape:connector-curvature="0"
             style="opacity:0.05;color:#000000;fill:url(#linearGradient4213);fill-opacity:1;fill-rule:nonzero;stroke:none;stroke-width:2;marker:none;visibility:visible;display:inline;overflow:visible;enable-background:accumulate"
             id="path4009"
             transform="matrix(0.99411049,-0.1083712,0.1083712,0.99411049,-5.1582185,5.4918915)"
             d="m 108.8959,48 a 60.895905,60.895905 0 0 1 -6.54616,27.466658 L 48,48 z" />
          <path
             inkscape:connector-curvature="0"
             style="opacity:0.07000002;color:#000000;fill:url(#linearGradient4215);fill-opacity:1;fill-rule:nonzero;stroke:none;stroke-width:2;marker:none;visibility:visible;display:inline;overflow:visible;enable-background:accumulate"
             id="path4007"
             transform="matrix(0.99786084,-0.06537382,0.06537382,0.99786084,-3.0940115,3.2415713)"
             d="m 108.8959,48 a 60.895905,60.895905 0 0 1 -4.45721,22.86887 L 48,48 z" />
          <path
             inkscape:connector-curvature="0"
             style="opacity:0.1;color:#000000;fill:url(#linearGradient4217);fill-opacity:1;fill-rule:nonzero;stroke:none;stroke-width:2;marker:none;visibility:visible;display:inline;overflow:visible;enable-background:accumulate"
             id="path4005"
             transform="matrix(0.99945136,-0.0331207,0.0331207,0.99945136,-1.5634586,1.6161281)"
             d="m 108.8959,48 a 60.895905,60.895905 0 0 1 -3.12994,19.271878 L 48,48 z" />
          <path
             inkscape:connector-curvature="0"
             style="opacity:0.05;color:#000000;fill:url(#linearGradient4219);fill-opacity:1;fill-rule:nonzero;stroke:none;stroke-width:2;marker:none;visibility:visible;display:inline;overflow:visible;enable-background:accumulate"
             id="path4003"
             d="m 108.8959,48 a 60.895905,60.895905 0 0 1 -2.07497,15.76102 L 48,48 z" />
        </g>
        <g
           style="opacity:0.9;fill:#ffffff"
           id="g4027"
           transform="matrix(1.062807,-0.13087531,-0.74010065,3.227468,32.525111,9.33226)">
          <path
             inkscape:connector-curvature="0"
             style="opacity:0.2;color:#000000;fill:url(#linearGradient4221);fill-opacity:1;fill-rule:nonzero;stroke:none;stroke-width:2;marker:none;visibility:visible;display:inline;overflow:visible;enable-background:accumulate"
             id="path4029"
             transform="matrix(0.99411049,-0.1083712,0.1083712,0.99411049,-5.1582185,5.4918915)"
             d="m 108.8959,48 a 60.895905,60.895905 0 0 1 -6.54616,27.466658 L 48,48 z" />
          <path
             inkscape:connector-curvature="0"
             style="opacity:0.4;color:#000000;fill:url(#linearGradient4223);fill-opacity:1;fill-rule:nonzero;stroke:none;stroke-width:2;marker:none;visibility:visible;display:inline;overflow:visible;enable-background:accumulate"
             id="path4031"
             transform="matrix(0.99786084,-0.06537382,0.06537382,0.99786084,-3.0940115,3.2415713)"
             d="m 108.8959,48 a 60.895905,60.895905 0 0 1 -4.45721,22.86887 L 48,48 z" />
          <path
             inkscape:connector-curvature="0"
             style="opacity:0.6;color:#000000;fill:url(#linearGradient4225);fill-opacity:1;fill-rule:nonzero;stroke:none;stroke-width:2;marker:none;visibility:visible;display:inline;overflow:visible;enable-background:accumulate"
             id="path4033"
             transform="matrix(0.99945136,-0.0331207,0.0331207,0.99945136,-1.5634586,1.6161281)"
             d="m 108.8959,48 a 60.895905,60.895905 0 0 1 -3.12994,19.271878 L 48,48 z" />
          <path
             inkscape:connector-curvature="0"
             style="opacity:0.8;color:#000000;fill:url(#linearGradient4227);fill-opacity:1;fill-rule:nonzero;stroke:none;stroke-width:2;marker:none;visibility:visible;display:inline;overflow:visible;enable-background:accumulate"
             id="path4035"
             d="m 108.8959,48 a 60.895905,60.895905 0 0 1 -2.07497,15.76102 L 48,48 z" />
        </g>
        <g
           style="opacity:0.5"
           id="g4079"
           transform="matrix(-0.61678932,0.78712829,-0.78712829,-0.61678932,115.00148,150.01193)">
          <path
             inkscape:connector-curvature="0"
             style="opacity:0.05;color:#000000;fill:url(#linearGradient4229);fill-opacity:1;fill-rule:nonzero;stroke:none;stroke-width:2;marker:none;visibility:visible;display:inline;overflow:visible;enable-background:accumulate"
             id="path4081"
             transform="matrix(0.99411049,-0.1083712,0.1083712,0.99411049,-5.1582185,5.4918915)"
             d="m 108.8959,48 a 60.895905,60.895905 0 0 1 -6.54616,27.466658 L 48,48 z" />
          <path
             inkscape:connector-curvature="0"
             style="opacity:0.07000002;color:#000000;fill:url(#linearGradient4231);fill-opacity:1;fill-rule:nonzero;stroke:none;stroke-width:2;marker:none;visibility:visible;display:inline;overflow:visible;enable-background:accumulate"
             id="path4083"
             transform="matrix(0.99786084,-0.06537382,0.06537382,0.99786084,-3.0940115,3.2415713)"
             d="m 108.8959,48 a 60.895905,60.895905 0 0 1 -4.45721,22.86887 L 48,48 z" />
          <path
             inkscape:connector-curvature="0"
             style="opacity:0.1;color:#000000;fill:url(#linearGradient4233);fill-opacity:1;fill-rule:nonzero;stroke:none;stroke-width:2;marker:none;visibility:visible;display:inline;overflow:visible;enable-background:accumulate"
             id="path4085"
             transform="matrix(0.99945136,-0.0331207,0.0331207,0.99945136,-1.5634586,1.6161281)"
             d="m 108.8959,48 a 60.895905,60.895905 0 0 1 -3.12994,19.271878 L 48,48 z" />
          <path
             inkscape:connector-curvature="0"
             style="opacity:0.1;color:#000000;fill:url(#linearGradient4235);fill-opacity:1;fill-rule:nonzero;stroke:none;stroke-width:2;marker:none;visibility:visible;display:inline;overflow:visible;enable-background:accumulate"
             id="path4087"
             d="m 108.8959,48 a 60.895905,60.895905 0 0 1 -2.07497,15.76102 L 48,48 z" />
        </g>
        <g
           style="opacity:0.8"
           id="g4097"
           transform="matrix(-0.06817198,-1.0460056,2.710673,0.60162586,-79.095447,179.08013)">
          <path
             inkscape:connector-curvature="0"
             style="opacity:0.05;color:#000000;fill:url(#linearGradient4237);fill-opacity:1;fill-rule:nonzero;stroke:none;stroke-width:2;marker:none;visibility:visible;display:inline;overflow:visible;enable-background:accumulate"
             id="path4099"
             transform="matrix(0.99411049,-0.1083712,0.1083712,0.99411049,-5.1582185,5.4918915)"
             d="m 108.8959,48 a 60.895905,60.895905 0 0 1 -6.54616,27.466658 L 48,48 z" />
          <path
             inkscape:connector-curvature="0"
             style="opacity:0.07000002;color:#000000;fill:url(#linearGradient4239);fill-opacity:1;fill-rule:nonzero;stroke:none;stroke-width:2;marker:none;visibility:visible;display:inline;overflow:visible;enable-background:accumulate"
             id="path4101"
             transform="matrix(0.99786084,-0.06537382,0.06537382,0.99786084,-3.0940115,3.2415713)"
             d="m 108.8959,48 a 60.895905,60.895905 0 0 1 -4.45721,22.86887 L 48,48 z" />
          <path
             inkscape:connector-curvature="0"
             style="opacity:0.1;color:#000000;fill:url(#linearGradient4241);fill-opacity:1;fill-rule:nonzero;stroke:none;stroke-width:2;marker:none;visibility:visible;display:inline;overflow:visible;enable-background:accumulate"
             id="path4103"
             transform="matrix(0.99945136,-0.0331207,0.0331207,0.99945136,-1.5634586,1.6161281)"
             d="m 108.8959,48 a 60.895905,60.895905 0 0 1 -3.12994,19.271878 L 48,48 z" />
          <path
             inkscape:connector-curvature="0"
             style="opacity:0.1;color:#000000;fill:url(#linearGradient4243);fill-opacity:1;fill-rule:nonzero;stroke:none;stroke-width:2;marker:none;visibility:visible;display:inline;overflow:visible;enable-background:accumulate"
             id="path4105"
             d="m 108.8959,48 a 60.895905,60.895905 0 0 1 -2.07497,15.76102 L 48,48 z" />
        </g>
        <g
           style="opacity:0.9;fill:#ffffff"
           id="g4147"
           transform="matrix(-1.062807,0.1308753,0.74010064,-3.227468,62.996694,306.66774)">
          <path
             inkscape:connector-curvature="0"
             style="opacity:0.2;color:#000000;fill:url(#linearGradient4245);fill-opacity:1;fill-rule:nonzero;stroke:none;stroke-width:2;marker:none;visibility:visible;display:inline;overflow:visible;enable-background:accumulate"
             id="path4149"
             transform="matrix(0.99411049,-0.1083712,0.1083712,0.99411049,-5.1582185,5.4918915)"
             d="m 108.8959,48 a 60.895905,60.895905 0 0 1 -6.54616,27.466658 L 48,48 z" />
          <path
             inkscape:connector-curvature="0"
             style="opacity:0.4;color:#000000;fill:url(#linearGradient4247);fill-opacity:1;fill-rule:nonzero;stroke:none;stroke-width:2;marker:none;visibility:visible;display:inline;overflow:visible;enable-background:accumulate"
             id="path4151"
             transform="matrix(0.99786084,-0.06537382,0.06537382,0.99786084,-3.0940115,3.2415713)"
             d="m 108.8959,48 a 60.895905,60.895905 0 0 1 -4.45721,22.86887 L 48,48 z" />
          <path
             inkscape:connector-curvature="0"
             style="opacity:0.6;color:#000000;fill:url(#linearGradient4249);fill-opacity:1;fill-rule:nonzero;stroke:none;stroke-width:2;marker:none;visibility:visible;display:inline;overflow:visible;enable-background:accumulate"
             id="path4153"
             transform="matrix(0.99945136,-0.0331207,0.0331207,0.99945136,-1.5634586,1.6161281)"
             d="m 108.8959,48 a 60.895905,60.895905 0 0 1 -3.12994,19.271878 L 48,48 z" />
          <path
             inkscape:connector-curvature="0"
             style="opacity:0.8;color:#000000;fill:url(#linearGradient4251);fill-opacity:1;fill-rule:nonzero;stroke:none;stroke-width:2;marker:none;visibility:visible;display:inline;overflow:visible;enable-background:accumulate"
             id="path4155"
             d="m 108.8959,48 a 60.895905,60.895905 0 0 1 -2.07497,15.76102 L 48,48 z" />
        </g>
      </g>
      <path
         style="opacity:0.7;fill:#ffffff;fill-opacity:1;fill-rule:nonzero;stroke:none;stroke-width:1;marker:none;visibility:visible;display:block;overflow:visible;enable-background:accumulate"
         id="path4382"
         inkscape:connector-curvature="0"
         d="m 44.1875,20.5 c -1.082262,0 -1.9375,0.899245 -1.9375,2 l 0,1 c 0,-1.100755 0.855238,-2 1.9375,-2 l 7.625,0 c 1.082252,0 1.9375,0.899245 1.9375,2 l 0,-1 c 0,-1.100755 -0.855248,-2 -1.9375,-2 l -7.625,0 z m -11.53125,4.78125 c -0.503633,-0.0043 -1.023619,0.179866 -1.40625,0.5625 L 25.84375,31.25 c -0.496443,0.496448 -0.634599,1.182061 -0.46875,1.8125 0.0841,-0.291632 0.234756,-0.578504 0.46875,-0.8125 L 31.25,26.84375 c 0.382631,-0.382634 0.902617,-0.5668 1.40625,-0.5625 0.503634,0.0043 0.954571,0.235824 1.34375,0.625 l 2.78125,2.75 C 38.473058,28.672312 40.314853,27.890597 42.25,27.375 l 0,-1 c -1.935147,0.515597 -3.776942,1.297312 -5.46875,2.28125 L 34,25.90625 c -0.389179,-0.389176 -0.840116,-0.620732 -1.34375,-0.625 z m 30.71875,0 c -0.494547,0.01399 -0.985826,0.235826 -1.375,0.625 l -2.78125,2.75 C 57.526941,27.672312 55.685147,26.890597 53.75,26.375 l 0,1 c 1.935147,0.515597 3.776941,1.297312 5.46875,2.28125 L 62,26.90625 c 0.778348,-0.778349 1.984727,-0.82777 2.75,-0.0625 L 70.15625,32.25 c 0.234022,0.233996 0.38464,0.520868 0.46875,0.8125 0.165867,-0.630439 0.02775,-1.316052 -0.46875,-1.8125 L 64.75,25.84375 c -0.382637,-0.382635 -0.880453,-0.57649 -1.375,-0.5625 z M 28.3125,37.4375 c -0.812756,1.508863 -1.487562,3.123824 -1.9375,4.8125 l -3.875,0 c -1.100753,0 -2,0.855244 -2,1.9375 l 0,1 c 0,-1.082256 0.899247,-1.9375 2,-1.9375 l 3.875,0 c 0.51561,-1.935151 1.297316,-3.776947 2.28125,-5.46875 L 28.3125,37.4375 z m 39.375,0 -0.34375,0.34375 c 0.983933,1.691803 1.765655,3.533599 2.28125,5.46875 l 3.875,0 c 1.100744,0 2,0.855245 2,1.9375 l 0,-1 c 0,-1.082255 -0.899256,-1.9375 -2,-1.9375 l -3.875,0 C 69.175075,40.561324 68.500258,38.946363 67.6875,37.4375 z M 34.03125,48.5 C 34.02535,48.66679 34,48.831775 34,49 c 0,7.731986 6.268014,14 14,14 7.731986,0 14,-6.268014 14,-14 0,-0.168225 -0.02537,-0.33321 -0.03125,-0.5 C 61.704161,55.999218 55.563761,62 48,62 40.436239,62 34.295839,55.999218 34.03125,48.5 z M 28.3125,59.5625 25.90625,62 C 25.365897,62.540355 25.184033,63.275367 25.375,63.9375 25.46481,63.596123 25.632834,63.273417 25.90625,63 l 2.75,-2.78125 C 28.530929,60.00327 28.431128,59.78273 28.3125,59.5625 z m 39.375,0 c -0.118628,0.22023 -0.218429,0.44077 -0.34375,0.65625 L 70.09375,63 c 0.273388,0.273417 0.441444,0.596123 0.53125,0.9375 C 70.815945,63.275367 70.634,62.540355 70.09375,62 L 67.6875,59.5625 z" />
      <path
         style="opacity:0.2;fill:#000000;fill-opacity:1;fill-rule:nonzero;stroke:none;stroke-width:1;marker:none;visibility:visible;display:block;overflow:visible;enable-background:accumulate"
         id="path4391"
         inkscape:connector-curvature="0"
         d="M 25.375,32.0625 C 25.184055,32.724633 25.366,33.459644 25.90625,34 l 2.40625,2.4375 c 0.118628,-0.22023 0.218429,-0.44077 0.34375,-0.65625 L 25.90625,33 C 25.632863,32.726583 25.464806,32.403877 25.375,32.0625 z m 45.25,0 C 70.53518,32.403877 70.367166,32.726583 70.09375,33 l -2.75,2.78125 c 0.125321,0.21548 0.225122,0.43602 0.34375,0.65625 L 70.09375,34 c 0.540353,-0.540355 0.722218,-1.275367 0.53125,-1.9375 z M 48,33 c -7.731986,0 -14,6.268014 -14,14 0,0.168225 0.02537,0.33321 0.03125,0.5 C 34.295839,40.000782 40.436239,34 48,34 55.563761,34 61.704161,40.000782 61.96875,47.5 61.97465,47.33321 62,47.168225 62,47 62,39.268014 55.731986,33 48,33 z m -27.5,17.8125 0,1 c 0,1.082256 0.899247,1.9375 2,1.9375 l 3.875,0 c 0.449938,1.688677 1.124744,3.303637 1.9375,4.8125 l 0.34375,-0.34375 C 27.672316,56.526947 26.89061,54.685152 26.375,52.75 l -3.875,0 c -1.100753,0 -2,-0.855244 -2,-1.9375 z m 55,0 c 0,1.082257 -0.899256,1.9375 -2,1.9375 l -3.875,0 c -0.515599,1.935152 -1.297317,3.776947 -2.28125,5.46875 l 0.34375,0.34375 c 0.812757,-1.508863 1.487571,-3.123823 1.9375,-4.8125 l 3.875,0 c 1.100744,0 2,-0.855243 2,-1.9375 l 0,-1 z m -50.125,12.125 c -0.165865,0.630439 -0.02775,1.316051 0.46875,1.8125 L 31.25,70.15625 c 0.765262,0.76527 1.971652,0.715847 2.75,-0.0625 l 2.78125,-2.75 c 1.691808,0.983939 3.533603,1.765652 5.46875,2.28125 l 0,-1 C 40.314853,68.109402 38.473058,67.327689 36.78125,66.34375 L 34,69.09375 c -0.778348,0.778347 -1.984738,0.82777 -2.75,0.0625 L 25.84375,63.75 C 25.609731,63.516004 25.45911,63.229132 25.375,62.9375 z m 45.25,0 c -0.0841,0.291632 -0.234756,0.578504 -0.46875,0.8125 L 64.75,69.15625 C 63.984727,69.921522 62.778348,69.8721 62,69.09375 l -2.78125,-2.75 C 57.526941,67.327689 55.685147,68.109402 53.75,68.625 l 0,1 c 1.935147,-0.515598 3.776941,-1.297311 5.46875,-2.28125 L 62,70.09375 c 0.778348,0.77835 1.984727,0.827772 2.75,0.0625 L 70.15625,64.75 c 0.496443,-0.496448 0.634599,-1.182061 0.46875,-1.8125 z M 42.25,72.5 l 0,1 c 0,1.100754 0.855238,2 1.9375,2 l 7.625,0 c 1.082252,0 1.9375,-0.899246 1.9375,-2 l 0,-1 c 0,1.100754 -0.855248,2 -1.9375,2 l -7.625,0 c -1.082262,0 -1.9375,-0.899246 -1.9375,-2 z" />
    </g>
    <rect
       ry="25"
       rx="25"
       id="rect3003"
       style="opacity:0.15;fill:#ffffff;fill-opacity:1"
       height="92"
       width="92"
       y="958.36218"
       x="-96"
       clip-path="url(#clipPath3009)"
       transform="translate(98,3.8281269e-7)" />
  </g>
</svg>
