<?xml version="1.0" encoding="UTF-8" standalone="no"?>
<!-- Created with Inkscape (http://www.inkscape.org/) -->

<svg
   xmlns:dc="http://purl.org/dc/elements/1.1/"
   xmlns:cc="http://creativecommons.org/ns#"
   xmlns:rdf="http://www.w3.org/1999/02/22-rdf-syntax-ns#"
   xmlns:svg="http://www.w3.org/2000/svg"
   xmlns="http://www.w3.org/2000/svg"
   xmlns:xlink="http://www.w3.org/1999/xlink"
   xmlns:sodipodi="http://sodipodi.sourceforge.net/DTD/sodipodi-0.dtd"
   xmlns:inkscape="http://www.inkscape.org/namespaces/inkscape"
   width="96"
   height="96"
   id="svg11037"
   version="1.1"
   inkscape:version="0.48.3.1 r9886"
   sodipodi:docname="application-x-flash-video.svg">
  <defs
     id="defs11039">
    <linearGradient
       y2="1046.1001"
       x2="47.999954"
       y1="962.62189"
       x1="47.999954"
       gradientTransform="matrix(1.15,0,0,1.15,-7.1999462,-150.65291)"
       gradientUnits="userSpaceOnUse"
       id="linearGradient3886"
       xlink:href="#linearGradient3795"
       inkscape:collect="always" />
    <linearGradient
       id="linearGradient3795">
      <stop
         style="stop-color:#13a6fd;stop-opacity:1;"
         offset="0"
         id="stop3797" />
      <stop
         style="stop-color:#2975b6;stop-opacity:1;"
         offset="1"
         id="stop3799" />
    </linearGradient>
    <linearGradient
       y2="1046.1001"
       x2="47.999954"
       y1="962.62189"
       x1="47.999954"
       gradientTransform="matrix(1.15,0,0,1.15,-7.1999462,-150.65292)"
       gradientUnits="userSpaceOnUse"
       id="linearGradient11642"
       xlink:href="#linearGradient3700"
       inkscape:collect="always" />
    <linearGradient
       x1="48"
       y1="90"
       x2="48"
       y2="5.9877172"
       id="linearGradient3706"
       xlink:href="#linearGradient3700"
       gradientUnits="userSpaceOnUse" />
    <linearGradient
       id="linearGradient3700">
      <stop
         id="stop3702"
         style="stop-color:#e6e6e6;stop-opacity:1"
         offset="0" />
      <stop
         id="stop3704"
         style="stop-color:#f5f5f5;stop-opacity:1"
         offset="1" />
    </linearGradient>
    <linearGradient
       gradientTransform="translate(-97.984796,952.36218)"
       y2="5.9877172"
       x2="48"
       y1="90"
       x1="48"
       gradientUnits="userSpaceOnUse"
       id="linearGradient3060"
       xlink:href="#linearGradient3700"
       inkscape:collect="always" />
    <linearGradient
       x1="62.336792"
       y1="79.015236"
       x2="62.336792"
       y2="12.797539"
       id="linearGradient3736"
       xlink:href="#linearGradient3174"
       gradientUnits="userSpaceOnUse"
       gradientTransform="matrix(0.87485882,0,0,0.90698611,2.7626711,6.33428)" />
    <linearGradient
       id="linearGradient3174">
      <stop
         id="stop3176"
         style="stop-color:#c30000;stop-opacity:1"
         offset="0" />
      <stop
         id="stop3178"
         style="stop-color:#f12300;stop-opacity:1"
         offset="1" />
    </linearGradient>
    <clipPath
       clipPathUnits="userSpaceOnUse"
       id="clipPath3009">
      <path
         id="path3011"
         d="m -2,956.36218 -96,0 0,33.5624 96,25.68742 0,-59.24982 z"
         style="opacity:0.15;fill:#ffffff;fill-opacity:1;stroke:none"
         inkscape:connector-curvature="0" />
    </clipPath>
  </defs>
  <sodipodi:namedview
     id="base"
     pagecolor="#ffffff"
     bordercolor="#666666"
     borderopacity="1.0"
     inkscape:pageopacity="0.0"
     inkscape:pageshadow="2"
     inkscape:zoom="3.959798"
     inkscape:cx="33.538031"
     inkscape:cy="59.964634"
     inkscape:document-units="px"
     inkscape:current-layer="layer1"
     showgrid="false"
     inkscape:window-width="1280"
     inkscape:window-height="750"
     inkscape:window-x="0"
     inkscape:window-y="22"
     inkscape:window-maximized="1"
     showguides="true"
     inkscape:guide-bbox="true">
    <sodipodi:guide
       orientation="0,1"
       position="-24.748737,0"
       id="guide11064" />
    <sodipodi:guide
       orientation="0,1"
       position="-23.233509,96"
       id="guide11066" />
    <sodipodi:guide
       orientation="1,0"
       position="0,54.800776"
       id="guide11068" />
    <sodipodi:guide
       orientation="1,0"
       position="96,51.012704"
       id="guide11070" />
    <sodipodi:guide
       orientation="0,1"
       position="-18.94036,48"
       id="guide11072" />
    <sodipodi:guide
       orientation="1,0"
       position="48,79.296975"
       id="guide11074" />
    <sodipodi:guide
       orientation="1,0"
       position="2,75.508903"
       id="guide11076" />
    <sodipodi:guide
       orientation="0,1"
       position="-77.27667,2"
       id="guide11078" />
    <sodipodi:guide
       orientation="1,0"
       position="94,77.781746"
       id="guide11080" />
    <sodipodi:guide
       orientation="0,1"
       position="-65.912454,94"
       id="guide11082" />
  </sodipodi:namedview>
  <metadata
     id="metadata11042">
    <rdf:RDF>
      <cc:Work
         rdf:about="">
        <dc:format>image/svg+xml</dc:format>
        <dc:type
           rdf:resource="http://purl.org/dc/dcmitype/StillImage" />
        <dc:title />
      </cc:Work>
    </rdf:RDF>
  </metadata>
  <g
     inkscape:label="Layer 1"
     inkscape:groupmode="layer"
     id="layer1"
     transform="translate(0,-956.36218)">
    <rect
       x="2"
       y="958.36218"
       width="92"
       height="92"
       style="fill:url(#linearGradient11642);fill-opacity:1.0"
       id="rect3867"
       rx="25"
       ry="25" />
    <g
       transform="translate(0,956.36218)"
       id="g3082">
      <path
         style="opacity:0.5;fill:#999999;fill-opacity:1;fill-rule:nonzero;stroke:none"
         id="rect3362"
         inkscape:connector-curvature="0"
         d="M 12,12 12,29.9375 20.09375,12 12,12 z M 21.90625,12 30,29.9375 30,12 21.90625,12 z M 21,19.03125 l -3.03125,7 2.928571,0 1.71875,3.96875 3.227679,0 -2.375,-5.28125 -0.0625,-0.125 L 21,19.03125 z" />
      <path
         style="fill:url(#linearGradient3736);fill-opacity:1;stroke:none"
         id="path3727"
         inkscape:connector-curvature="0"
         d="m 72,18.019752 0,12.070101 C 59.948935,30.301609 56.987234,42.054076 56.987234,42.054076 l 9.089362,0 0,12.070102 -14.093617,0 C 43.506385,80.276063 24,77.946746 24,77.946746 l 0,-12.070102 c 0,0 12.378009,2.29621 18.689364,-20.752103 C 50.584291,16.293202 72,18.019752 72,18.019752 z" />
      <path
         style="opacity:0.2;fill:#000000;fill-opacity:1;stroke:none"
         id="path2902"
         inkscape:connector-curvature="0"
         d="M 71.0625,18 C 66.855461,18.063706 49.595561,19.897578 42.6875,45.125 36.376145,68.173313 24,65.875 24,65.875 l 0,12.0625 c 0,0 19.492156,2.339385 27.96875,-23.8125 l 14.09375,0 0,-12.0625 -9.0625,0 c 0,0 2.948935,-11.756994 15,-11.96875 l 0,-12.0625 c 0,0 -0.336494,-0.04035 -0.9375,-0.03125 z M 71,19.0625 71,29.21875 c -5.756652,0.421836 -9.573527,3.384171 -11.8125,6.34375 -2.370885,3.133948 -3.15625,6.25 -3.15625,6.25 A 0.99278244,0.99278244 0 0 0 57,43.0625 l 8.0625,0 0,10.0625 -13.09375,0 a 0.99278244,0.99278244 0 0 0 -0.9375,0.6875 c -4.166805,12.855375 -10.927727,18.547337 -16.625,21.125 -4.866511,2.201794 -8.328029,2.072249 -9.40625,2 L 25,66.875 c 0.40845,0.02126 0.476194,0.07815 1.15625,0 1.378738,-0.158437 3.24037,-0.644163 5.3125,-1.875 4.144259,-2.461674 8.985949,-7.933321 12.1875,-19.625 C 47.54198,31.184772 54.64108,24.709641 60.75,21.65625 66.015834,19.024254 69.86141,19.026543 71,19.0625 z" />
      <path
         style="opacity:0.6;fill:#800000;fill-opacity:1;stroke:none"
         id="path3749"
         inkscape:connector-curvature="0"
         d="M 71.0625,18 C 66.855461,18.063706 49.595561,19.897578 42.6875,45.125 36.376145,68.173313 24,65.875 24,65.875 l 0,1 c 0,0 12.376145,2.298313 18.6875,-20.75 C 50.582427,17.293661 72,19.03125 72,19.03125 l 0,-1 c 0,0 -0.336494,-0.04035 -0.9375,-0.03125 z m -13.75,24.0625 c -0.205273,0.574173 -0.3125,1 -0.3125,1 l 9.0625,0 0,-1 -8.75,0 z" />
      <path
         style="opacity:0.8;fill:#ffffff;fill-opacity:1;stroke:none"
         id="path3758"
         inkscape:connector-curvature="0"
         d="M 72,30.09375 C 59.948935,30.305506 57,42.0625 57,42.0625 l 0.3125,0 C 58.303766,39.289815 62.016365,31.269178 72,31.09375 l 0,-1 z M 51.96875,54.125 C 43.492156,80.276885 24,77.9375 24,77.9375 l 0,1 c 0,0 19.492156,2.339385 27.96875,-23.8125 l 14.09375,0 0,-1 -14.09375,0 z" />
    </g>
    <rect
       ry="25"
       rx="25"
       id="rect3003"
       style="opacity:0.15;fill:#ffffff;fill-opacity:1"
       height="92"
       width="92"
       y="958.36218"
       x="-96"
       clip-path="url(#clipPath3009)"
       transform="translate(98,3.8281269e-7)" />
  </g>
</svg>
