<?xml version="1.0" encoding="UTF-8" standalone="no"?>
<!-- Created with Inkscape (http://www.inkscape.org/) -->

<svg
   xmlns:dc="http://purl.org/dc/elements/1.1/"
   xmlns:cc="http://creativecommons.org/ns#"
   xmlns:rdf="http://www.w3.org/1999/02/22-rdf-syntax-ns#"
   xmlns:svg="http://www.w3.org/2000/svg"
   xmlns="http://www.w3.org/2000/svg"
   xmlns:xlink="http://www.w3.org/1999/xlink"
   xmlns:sodipodi="http://sodipodi.sourceforge.net/DTD/sodipodi-0.dtd"
   xmlns:inkscape="http://www.inkscape.org/namespaces/inkscape"
   width="96"
   height="96"
   id="svg11037"
   version="1.1"
   inkscape:version="0.48.3.1 r9886"
   sodipodi:docname="application-x-theme.svg">
  <defs
     id="defs11039">
    <linearGradient
       y2="1046.1001"
       x2="47.999954"
       y1="962.62189"
       x1="47.999954"
       gradientTransform="matrix(1.15,0,0,1.15,-7.1999462,-150.65291)"
       gradientUnits="userSpaceOnUse"
       id="linearGradient3886"
       xlink:href="#linearGradient3795"
       inkscape:collect="always" />
    <linearGradient
       id="linearGradient3795">
      <stop
         style="stop-color:#13a6fd;stop-opacity:1;"
         offset="0"
         id="stop3797" />
      <stop
         style="stop-color:#2975b6;stop-opacity:1;"
         offset="1"
         id="stop3799" />
    </linearGradient>
    <linearGradient
       y2="1046.1001"
       x2="47.999954"
       y1="962.62189"
       x1="47.999954"
       gradientTransform="matrix(1.15,0,0,1.15,-7.1999462,-150.65292)"
       gradientUnits="userSpaceOnUse"
       id="linearGradient11642"
       xlink:href="#linearGradient3700"
       inkscape:collect="always" />
    <linearGradient
       x1="48"
       y1="90"
       x2="48"
       y2="5.9877172"
       id="linearGradient3706"
       xlink:href="#linearGradient3700"
       gradientUnits="userSpaceOnUse" />
    <linearGradient
       id="linearGradient3700">
      <stop
         id="stop3702"
         style="stop-color:#e6e6e6;stop-opacity:1"
         offset="0" />
      <stop
         id="stop3704"
         style="stop-color:#f5f5f5;stop-opacity:1"
         offset="1" />
    </linearGradient>
    <linearGradient
       gradientTransform="translate(-102.54824,960.3622)"
       y2="5.9877172"
       x2="48"
       y1="90"
       x1="48"
       gradientUnits="userSpaceOnUse"
       id="linearGradient3155"
       xlink:href="#linearGradient3700"
       inkscape:collect="always" />
    <linearGradient
       x1="78"
       y1="48"
       x2="78"
       y2="60"
       id="linearGradient4059-2"
       xlink:href="#linearGradient4053-8"
       gradientUnits="userSpaceOnUse" />
    <linearGradient
       id="linearGradient4053-8">
      <stop
         id="stop4055-2"
         style="stop-color:#ff0000;stop-opacity:1"
         offset="0" />
      <stop
         id="stop4057-8"
         style="stop-color:#ff006b;stop-opacity:1"
         offset="1" />
    </linearGradient>
    <linearGradient
       x1="71"
       y1="34"
       x2="77"
       y2="45"
       id="linearGradient4051-9"
       xlink:href="#linearGradient4045-8"
       gradientUnits="userSpaceOnUse" />
    <linearGradient
       id="linearGradient4045-8">
      <stop
         id="stop4047-7"
         style="stop-color:#ff8200;stop-opacity:1"
         offset="0" />
      <stop
         id="stop4049-9"
         style="stop-color:#ff4700;stop-opacity:1"
         offset="1" />
    </linearGradient>
    <linearGradient
       x1="58"
       y1="25"
       x2="68"
       y2="31"
       id="linearGradient4043-7"
       xlink:href="#linearGradient4037-7"
       gradientUnits="userSpaceOnUse" />
    <linearGradient
       id="linearGradient4037-7">
      <stop
         id="stop4039-4"
         style="stop-color:#ffd500;stop-opacity:1"
         offset="0" />
      <stop
         id="stop4041-5"
         style="stop-color:#ff9a00;stop-opacity:1"
         offset="1" />
    </linearGradient>
    <linearGradient
       x1="42"
       y1="32"
       x2="54"
       y2="32"
       id="linearGradient4035-4"
       xlink:href="#linearGradient4029-7"
       gradientUnits="userSpaceOnUse" />
    <linearGradient
       id="linearGradient4029-7">
      <stop
         id="stop4031-8"
         style="stop-color:#46cc00;stop-opacity:1"
         offset="0" />
      <stop
         id="stop4033-7"
         style="stop-color:#85cc00;stop-opacity:1"
         offset="1" />
    </linearGradient>
    <linearGradient
       x1="28"
       y1="31"
       x2="38.099506"
       y2="25.169048"
       id="linearGradient4027-3"
       xlink:href="#linearGradient4021-8"
       gradientUnits="userSpaceOnUse" />
    <linearGradient
       id="linearGradient4021-8">
      <stop
         id="stop4023-1"
         style="stop-color:#00b4b4;stop-opacity:1"
         offset="0" />
      <stop
         id="stop4025-7"
         style="stop-color:#00b464;stop-opacity:1"
         offset="1" />
    </linearGradient>
    <linearGradient
       x1="19"
       y1="44"
       x2="25"
       y2="34"
       id="linearGradient4019-7"
       xlink:href="#linearGradient4013-8"
       gradientUnits="userSpaceOnUse" />
    <linearGradient
       id="linearGradient4013-8">
      <stop
         id="stop4015-9"
         style="stop-color:#0033cc;stop-opacity:1"
         offset="0" />
      <stop
         id="stop4017-7"
         style="stop-color:#0e7eff;stop-opacity:1"
         offset="1" />
    </linearGradient>
    <linearGradient
       x1="18"
       y1="60"
       x2="18"
       y2="47.958405"
       id="linearGradient4121-7"
       xlink:href="#linearGradient4005-1"
       gradientUnits="userSpaceOnUse" />
    <linearGradient
       id="linearGradient4005-1">
      <stop
         id="stop4007-6"
         style="stop-color:#660099;stop-opacity:1"
         offset="0" />
      <stop
         id="stop4009-0"
         style="stop-color:#330eac;stop-opacity:1"
         offset="1" />
    </linearGradient>
    <radialGradient
       cx="-22"
       cy="54"
       r="6"
       fx="-22"
       fy="54"
       id="radialGradient4392-0"
       xlink:href="#linearGradient4193-9"
       gradientUnits="userSpaceOnUse" />
    <linearGradient
       id="linearGradient4193-9">
      <stop
         id="stop4195-8"
         style="stop-color:#ffffff;stop-opacity:1"
         offset="0" />
      <stop
         id="stop4197-2"
         style="stop-color:#ffffff;stop-opacity:0"
         offset="1" />
    </linearGradient>
    <radialGradient
       cx="-34"
       cy="54"
       r="4"
       fx="-34"
       fy="54"
       id="radialGradient4394-6"
       xlink:href="#linearGradient4193-9"
       gradientUnits="userSpaceOnUse" />
    <linearGradient
       id="linearGradient3440">
      <stop
         id="stop3442"
         style="stop-color:#ffffff;stop-opacity:1"
         offset="0" />
      <stop
         id="stop3444"
         style="stop-color:#ffffff;stop-opacity:0"
         offset="1" />
    </linearGradient>
    <radialGradient
       cx="-42"
       cy="54"
       r="2"
       fx="-42"
       fy="54"
       id="radialGradient4396-5"
       xlink:href="#linearGradient4193-9"
       gradientUnits="userSpaceOnUse" />
    <linearGradient
       id="linearGradient3447">
      <stop
         id="stop3449"
         style="stop-color:#ffffff;stop-opacity:1"
         offset="0" />
      <stop
         id="stop3451"
         style="stop-color:#ffffff;stop-opacity:0"
         offset="1" />
    </linearGradient>
    <radialGradient
       cx="-26.019238"
       cy="39"
       r="6.0010023"
       fx="-26.019238"
       fy="39"
       id="radialGradient4398-1"
       xlink:href="#linearGradient4193-9"
       gradientUnits="userSpaceOnUse"
       gradientTransform="translate(0,-9.4323106e-6)" />
    <linearGradient
       id="linearGradient3454">
      <stop
         id="stop3456"
         style="stop-color:#ffffff;stop-opacity:1"
         offset="0" />
      <stop
         id="stop3458"
         style="stop-color:#ffffff;stop-opacity:0"
         offset="1" />
    </linearGradient>
    <radialGradient
       cx="-36.411545"
       cy="45"
       r="4.0006676"
       fx="-36.411545"
       fy="45"
       id="radialGradient4400-1"
       xlink:href="#linearGradient4193-9"
       gradientUnits="userSpaceOnUse"
       gradientTransform="translate(0,1.1316876e-5)" />
    <linearGradient
       id="linearGradient3461">
      <stop
         id="stop3463"
         style="stop-color:#ffffff;stop-opacity:1"
         offset="0" />
      <stop
         id="stop3465"
         style="stop-color:#ffffff;stop-opacity:0"
         offset="1" />
    </linearGradient>
    <radialGradient
       cx="-43.339745"
       cy="49.000004"
       r="2.0003338"
       fx="-43.339745"
       fy="49.000004"
       id="radialGradient4402-1"
       xlink:href="#linearGradient4193-9"
       gradientUnits="userSpaceOnUse"
       gradientTransform="translate(0,-1.9326718e-5)" />
    <linearGradient
       id="linearGradient3468">
      <stop
         id="stop3470"
         style="stop-color:#ffffff;stop-opacity:1"
         offset="0" />
      <stop
         id="stop3472"
         style="stop-color:#ffffff;stop-opacity:0"
         offset="1" />
    </linearGradient>
    <radialGradient
       cx="-37"
       cy="28.019238"
       r="6.0010018"
       fx="-37"
       fy="28.019238"
       id="radialGradient4404-6"
       xlink:href="#linearGradient4193-9"
       gradientUnits="userSpaceOnUse"
       gradientTransform="translate(0,7.9863022e-6)" />
    <linearGradient
       id="linearGradient3475">
      <stop
         id="stop3477"
         style="stop-color:#ffffff;stop-opacity:1"
         offset="0" />
      <stop
         id="stop3479"
         style="stop-color:#ffffff;stop-opacity:0"
         offset="1" />
    </linearGradient>
    <radialGradient
       cx="-43"
       cy="38.411541"
       r="4.000668"
       fx="-43"
       fy="38.411541"
       id="radialGradient4406-0"
       xlink:href="#linearGradient4193-9"
       gradientUnits="userSpaceOnUse"
       gradientTransform="translate(0,1.0061379e-5)" />
    <linearGradient
       id="linearGradient3482">
      <stop
         id="stop3484"
         style="stop-color:#ffffff;stop-opacity:1"
         offset="0" />
      <stop
         id="stop3486"
         style="stop-color:#ffffff;stop-opacity:0"
         offset="1" />
    </linearGradient>
    <radialGradient
       cx="-47"
       cy="45.339748"
       r="2.0003338"
       fx="-47"
       fy="45.339748"
       id="radialGradient4408-4"
       xlink:href="#linearGradient4193-9"
       gradientUnits="userSpaceOnUse"
       gradientTransform="translate(0,6.8397251e-6)" />
    <linearGradient
       id="linearGradient3489">
      <stop
         id="stop3491"
         style="stop-color:#ffffff;stop-opacity:1"
         offset="0" />
      <stop
         id="stop3493"
         style="stop-color:#ffffff;stop-opacity:0"
         offset="1" />
    </linearGradient>
    <radialGradient
       cx="-52"
       cy="24"
       r="5.9999995"
       fx="-52"
       fy="24"
       id="radialGradient4410-4"
       xlink:href="#linearGradient4193-9"
       gradientUnits="userSpaceOnUse"
       gradientTransform="translate(0,-1.9999996e-6)" />
    <linearGradient
       id="linearGradient3496">
      <stop
         id="stop3498"
         style="stop-color:#ffffff;stop-opacity:1"
         offset="0" />
      <stop
         id="stop3500"
         style="stop-color:#ffffff;stop-opacity:0"
         offset="1" />
    </linearGradient>
    <radialGradient
       cx="-52"
       cy="36"
       r="4.0000005"
       fx="-52"
       fy="36"
       id="radialGradient4412-6"
       xlink:href="#linearGradient4193-9"
       gradientUnits="userSpaceOnUse"
       gradientTransform="translate(0,4.4999994e-6)" />
    <linearGradient
       id="linearGradient3503">
      <stop
         id="stop3505"
         style="stop-color:#ffffff;stop-opacity:1"
         offset="0" />
      <stop
         id="stop3507"
         style="stop-color:#ffffff;stop-opacity:0"
         offset="1" />
    </linearGradient>
    <radialGradient
       cx="-52"
       cy="44"
       r="2"
       fx="-52"
       fy="44"
       id="radialGradient4414-6"
       xlink:href="#linearGradient4193-9"
       gradientUnits="userSpaceOnUse" />
    <linearGradient
       id="linearGradient3510">
      <stop
         id="stop3512"
         style="stop-color:#ffffff;stop-opacity:1"
         offset="0" />
      <stop
         id="stop3514"
         style="stop-color:#ffffff;stop-opacity:0"
         offset="1" />
    </linearGradient>
    <radialGradient
       cx="-67"
       cy="28.019239"
       r="6.0010018"
       fx="-67"
       fy="28.019239"
       id="radialGradient4416-1"
       xlink:href="#linearGradient4193-9"
       gradientUnits="userSpaceOnUse"
       gradientTransform="translate(0,-3.0927722e-6)" />
    <linearGradient
       id="linearGradient3517">
      <stop
         id="stop3519"
         style="stop-color:#ffffff;stop-opacity:1"
         offset="0" />
      <stop
         id="stop3521"
         style="stop-color:#ffffff;stop-opacity:0"
         offset="1" />
    </linearGradient>
    <radialGradient
       cx="-61"
       cy="38.411541"
       r="4.000668"
       fx="-61"
       fy="38.411541"
       id="radialGradient4418-0"
       xlink:href="#linearGradient4193-9"
       gradientUnits="userSpaceOnUse"
       gradientTransform="translate(0,1.2557281e-5)" />
    <linearGradient
       id="linearGradient3524">
      <stop
         id="stop3526"
         style="stop-color:#ffffff;stop-opacity:1"
         offset="0" />
      <stop
         id="stop3528"
         style="stop-color:#ffffff;stop-opacity:0"
         offset="1" />
    </linearGradient>
    <radialGradient
       cx="-57"
       cy="45.339748"
       r="2.0003338"
       fx="-57"
       fy="45.339748"
       id="radialGradient4420-9"
       xlink:href="#linearGradient4193-9"
       gradientUnits="userSpaceOnUse"
       gradientTransform="translate(0,6.8397249e-6)" />
    <linearGradient
       id="linearGradient3531">
      <stop
         id="stop3533"
         style="stop-color:#ffffff;stop-opacity:1"
         offset="0" />
      <stop
         id="stop3535"
         style="stop-color:#ffffff;stop-opacity:0"
         offset="1" />
    </linearGradient>
    <radialGradient
       cx="-77.980759"
       cy="39"
       r="6.0010023"
       fx="-77.980759"
       fy="39"
       id="radialGradient4422-0"
       xlink:href="#linearGradient4193-9"
       gradientUnits="userSpaceOnUse"
       gradientTransform="translate(0,-9.5483009e-6)" />
    <linearGradient
       id="linearGradient3538">
      <stop
         id="stop3540"
         style="stop-color:#ffffff;stop-opacity:1"
         offset="0" />
      <stop
         id="stop3542"
         style="stop-color:#ffffff;stop-opacity:0"
         offset="1" />
    </linearGradient>
    <radialGradient
       cx="-67.588455"
       cy="45"
       r="4.000668"
       fx="-67.588455"
       fy="45"
       id="radialGradient4424-9"
       xlink:href="#linearGradient4193-9"
       gradientUnits="userSpaceOnUse"
       gradientTransform="translate(0,1.3415513e-5)" />
    <linearGradient
       id="linearGradient3545">
      <stop
         id="stop3547"
         style="stop-color:#ffffff;stop-opacity:1"
         offset="0" />
      <stop
         id="stop3549"
         style="stop-color:#ffffff;stop-opacity:0"
         offset="1" />
    </linearGradient>
    <radialGradient
       cx="-60.660255"
       cy="49.000004"
       r="2.0003338"
       fx="-60.660255"
       fy="49.000004"
       id="radialGradient4426-2"
       xlink:href="#linearGradient4193-9"
       gradientUnits="userSpaceOnUse"
       gradientTransform="translate(0,-1.3883792e-5)" />
    <linearGradient
       id="linearGradient3552">
      <stop
         id="stop3554"
         style="stop-color:#ffffff;stop-opacity:1"
         offset="0" />
      <stop
         id="stop3556"
         style="stop-color:#ffffff;stop-opacity:0"
         offset="1" />
    </linearGradient>
    <radialGradient
       cx="-82"
       cy="54"
       r="6"
       fx="-82"
       fy="54"
       id="radialGradient4428-4"
       xlink:href="#linearGradient4193-9"
       gradientUnits="userSpaceOnUse" />
    <linearGradient
       id="linearGradient3559">
      <stop
         id="stop3561"
         style="stop-color:#ffffff;stop-opacity:1"
         offset="0" />
      <stop
         id="stop3563"
         style="stop-color:#ffffff;stop-opacity:0"
         offset="1" />
    </linearGradient>
    <radialGradient
       cx="-70"
       cy="54"
       r="4.0000005"
       fx="-70"
       fy="54"
       id="radialGradient4430-0"
       xlink:href="#linearGradient4193-9"
       gradientUnits="userSpaceOnUse"
       gradientTransform="translate(0,6.7499991e-6)" />
    <linearGradient
       id="linearGradient3566">
      <stop
         id="stop3568"
         style="stop-color:#ffffff;stop-opacity:1"
         offset="0" />
      <stop
         id="stop3570"
         style="stop-color:#ffffff;stop-opacity:0"
         offset="1" />
    </linearGradient>
    <radialGradient
       cx="-62"
       cy="54"
       r="2"
       fx="-62"
       fy="54"
       id="radialGradient4432-8"
       xlink:href="#linearGradient4193-9"
       gradientUnits="userSpaceOnUse" />
    <linearGradient
       id="linearGradient3573">
      <stop
         id="stop3575"
         style="stop-color:#ffffff;stop-opacity:1"
         offset="0" />
      <stop
         id="stop3577"
         style="stop-color:#ffffff;stop-opacity:0"
         offset="1" />
    </linearGradient>
    <clipPath
       clipPathUnits="userSpaceOnUse"
       id="clipPath3009">
      <path
         id="path3011"
         d="m -2,956.36218 -96,0 0,33.5624 96,25.68742 0,-59.24982 z"
         style="opacity:0.15;fill:#ffffff;fill-opacity:1;stroke:none"
         inkscape:connector-curvature="0" />
    </clipPath>
  </defs>
  <sodipodi:namedview
     id="base"
     pagecolor="#ffffff"
     bordercolor="#666666"
     borderopacity="1.0"
     inkscape:pageopacity="0.0"
     inkscape:pageshadow="2"
     inkscape:zoom="3.959798"
     inkscape:cx="33.538031"
     inkscape:cy="59.964634"
     inkscape:document-units="px"
     inkscape:current-layer="layer1"
     showgrid="false"
     inkscape:window-width="1280"
     inkscape:window-height="750"
     inkscape:window-x="0"
     inkscape:window-y="22"
     inkscape:window-maximized="1"
     showguides="true"
     inkscape:guide-bbox="true">
    <sodipodi:guide
       orientation="0,1"
       position="-24.748737,0"
       id="guide11064" />
    <sodipodi:guide
       orientation="0,1"
       position="-23.233509,96"
       id="guide11066" />
    <sodipodi:guide
       orientation="1,0"
       position="0,54.800776"
       id="guide11068" />
    <sodipodi:guide
       orientation="1,0"
       position="96,51.012704"
       id="guide11070" />
    <sodipodi:guide
       orientation="0,1"
       position="-18.94036,48"
       id="guide11072" />
    <sodipodi:guide
       orientation="1,0"
       position="48,79.296975"
       id="guide11074" />
    <sodipodi:guide
       orientation="1,0"
       position="2,75.508903"
       id="guide11076" />
    <sodipodi:guide
       orientation="0,1"
       position="-77.27667,2"
       id="guide11078" />
    <sodipodi:guide
       orientation="1,0"
       position="94,77.781746"
       id="guide11080" />
    <sodipodi:guide
       orientation="0,1"
       position="-65.912454,94"
       id="guide11082" />
  </sodipodi:namedview>
  <metadata
     id="metadata11042">
    <rdf:RDF>
      <cc:Work
         rdf:about="">
        <dc:format>image/svg+xml</dc:format>
        <dc:type
           rdf:resource="http://purl.org/dc/dcmitype/StillImage" />
        <dc:title />
      </cc:Work>
    </rdf:RDF>
  </metadata>
  <g
     inkscape:label="Layer 1"
     inkscape:groupmode="layer"
     id="layer1"
     transform="translate(0,-956.36218)">
    <rect
       x="2"
       y="958.36218"
       width="92"
       height="92"
       style="fill:url(#linearGradient11642);fill-opacity:1.0"
       id="rect3867"
       rx="25"
       ry="25" />
    <g
       transform="translate(0,956.36218)"
       style="display:inline"
       id="g3362">
      <g
         style="display:inline"
         id="g4434">
        <path
           style="color:#000000;fill:url(#linearGradient4059-2);fill-opacity:1;fill-rule:nonzero;stroke:none;stroke-width:1;marker:none;visibility:visible;display:inline;overflow:visible;enable-background:accumulate"
           id="path3949"
           inkscape:connector-curvature="0"
           d="m 78,48 c -3.313709,0 -6,2.68629 -6,6 0,3.31371 2.686291,6 6,6 3.313709,0 6,-2.68629 6,-6 0,-3.31371 -2.686291,-6 -6,-6 z m -12,2 c -2.209139,0 -4,1.79086 -4,4 0,2.20914 1.790861,4 4,4 2.209139,0 4,-1.79086 4,-4 0,-2.20914 -1.790861,-4 -4,-4 z m -8,2 c -1.104569,0 -2,0.89543 -2,2 0,1.10457 0.895431,2 2,2 1.104569,0 2,-0.89543 2,-2 0,-1.10457 -0.895431,-2 -2,-2 z" />
        <path
           style="color:#000000;fill:url(#linearGradient4051-9);fill-opacity:1;fill-rule:nonzero;stroke:none;stroke-width:1;marker:none;visibility:visible;display:inline;overflow:visible;enable-background:accumulate"
           id="path3951"
           inkscape:connector-curvature="0"
           d="M 70.980762,33.80385 C 68.111006,35.4607 67.127755,39.13024 68.78461,42 c 1.656854,2.86976 5.326396,3.85301 8.196152,2.19615 C 79.850518,42.5393 80.833769,38.86976 79.176915,36 77.52006,33.13024 73.850518,32.14699 70.980762,33.80385 z m -9.392305,7.73205 c -1.91317,1.10457 -2.568671,3.55093 -1.464101,5.4641 1.104569,1.91317 3.550931,2.56867 5.464101,1.4641 1.913171,-1.10457 2.568671,-3.55093 1.464102,-5.4641 -1.10457,-1.91317 -3.550931,-2.56867 -5.464102,-1.4641 z m -5.928203,5.73205 C 54.703669,47.82023 54.375919,49.04341 54.928203,50 c 0.552285,0.95659 1.775466,1.28434 2.732051,0.73205 C 58.616839,50.17977 58.944589,48.95659 58.392305,48 57.84002,47.04341 56.616839,46.71567 55.660254,47.26795 z" />
        <path
           style="color:#000000;fill:url(#linearGradient4043-7);fill-opacity:1;fill-rule:nonzero;stroke:none;stroke-width:1;marker:none;visibility:visible;display:inline;overflow:visible;enable-background:accumulate"
           id="path3953"
           inkscape:connector-curvature="0"
           d="m 57.803848,25.01924 c -1.656855,2.86975 -0.673604,6.5393 2.196152,8.19615 2.869756,1.65685 6.539298,0.6736 8.196152,-2.19615 C 69.853007,28.14948 68.869756,24.47994 66,22.82309 63.130244,21.16623 59.460702,22.14948 57.803848,25.01924 z m -4.26795,11.3923 C 52.431329,38.32471 53.08683,40.77107 55,41.87564 c 1.91317,1.10457 4.359532,0.44907 5.464102,-1.4641 C 61.568671,38.49837 60.91317,36.05201 59,34.94744 c -1.91317,-1.10457 -4.359532,-0.44907 -5.464102,1.4641 z m -2.267949,7.92821 C 50.715665,45.29633 51.043415,46.51951 52,47.0718 c 0.956585,0.55228 2.179766,0.22453 2.732051,-0.73205 C 55.284335,45.38316 54.956585,44.15998 54,43.6077 53.043415,43.05541 51.820234,43.38316 51.267949,44.33975 z" />
        <path
           style="color:#000000;fill:url(#linearGradient4035-4);fill-opacity:1;fill-rule:nonzero;stroke:none;stroke-width:1;marker:none;visibility:visible;display:inline;overflow:visible;enable-background:accumulate"
           id="path3955"
           inkscape:connector-curvature="0"
           d="M 42.000001,24 C 42,27.31371 44.686291,30 48,30 c 3.313709,0 6,-2.68629 6,-6 0,-3.31371 -2.686291,-6 -6,-6 -3.313709,0 -6,2.68629 -5.999999,6 z M 44,36 c 0,2.20914 1.790862,4 4,4 2.209139,0 4,-1.79086 4.000001,-4 C 52,33.79086 50.209138,32 48,32 c -2.209138,0 -4,1.79086 -4,4 z m 2,8 c 10e-7,1.10457 0.895431,2 2,2 1.104569,0 2,-0.89543 2,-2 0,-1.10457 -0.895431,-2 -2,-2 -1.104569,0 -2,0.89543 -2,2 z" />
        <path
           style="color:#000000;fill:url(#linearGradient4027-3);fill-opacity:1;fill-rule:nonzero;stroke:none;stroke-width:1;marker:none;visibility:visible;display:inline;overflow:visible;enable-background:accumulate"
           id="path3957"
           inkscape:connector-curvature="0"
           d="m 27.803849,31.01924 c 1.656853,2.86975 5.326395,3.85301 8.196151,2.19615 2.869756,-1.65685 3.853007,-5.3264 2.196152,-8.19615 C 36.539298,22.14948 32.869756,21.16623 30,22.82309 c -2.869756,1.65685 -3.853007,5.32639 -2.196151,8.19615 z m 7.732049,9.3923 c 1.10457,1.91317 3.550932,2.56867 5.464102,1.4641 1.913171,-1.10457 2.568671,-3.55093 1.464103,-5.4641 C 41.359532,34.49837 38.91317,33.84287 37,34.94744 c -1.91317,1.10457 -2.568671,3.55093 -1.464102,5.4641 z m 5.732051,5.92821 C 41.820235,47.29633 43.043415,47.62408 44,47.0718 44.956585,46.51951 45.284335,45.29633 44.732051,44.33975 44.179766,43.38316 42.956585,43.05541 42,43.6077 c -0.956585,0.55228 -1.284335,1.77546 -0.732051,2.73205 z" />
        <path
           style="color:#000000;fill:url(#linearGradient4019-7);fill-opacity:1;fill-rule:nonzero;stroke:none;stroke-width:1;marker:none;visibility:visible;display:inline;overflow:visible;enable-background:accumulate"
           id="path3959"
           inkscape:connector-curvature="0"
           d="M 19.019239,44.19615 C 21.888994,45.85301 25.558536,44.86976 27.215391,42 28.872245,39.13024 27.888994,35.4607 25.019238,33.80385 22.149482,32.14699 18.47994,33.13024 16.823086,36 c -1.656855,2.86976 -0.673604,6.5393 2.196153,8.19615 z M 30.411542,48.4641 C 32.324713,49.56867 34.771075,48.91317 35.875645,47 36.980214,45.08683 36.324713,42.64047 34.411544,41.5359 32.498372,40.43133 30.05201,41.08683 28.947441,43 c -1.104569,1.91317 -0.449069,4.35953 1.464101,5.4641 z m 7.928204,2.26795 C 39.296332,51.28434 40.519512,50.95659 41.071797,50 41.624082,49.04342 41.296331,47.82023 40.339746,47.26795 39.383161,46.71567 38.15998,47.04341 37.607695,48 c -0.552284,0.95659 -0.224534,2.17977 0.732051,2.73205 z" />
        <path
           style="color:#000000;fill:url(#linearGradient4121-7);fill-opacity:1;fill-rule:nonzero;stroke:none;stroke-width:1;marker:none;visibility:visible;display:inline;overflow:visible;enable-background:accumulate"
           id="path3961"
           inkscape:connector-curvature="0"
           d="m 18.000001,60 c 3.313708,0 5.999999,-2.68629 6,-6 C 24,50.68629 21.313709,48 18,48 c -3.313709,0 -6,2.68629 -5.999999,6 -10e-7,3.31371 2.68629,6 6,6 z M 30,58 c 2.209139,0 4,-1.79086 4.000001,-4 C 34,51.79086 32.209139,50 30,50 c -2.209139,0 -4,1.79086 -4,4 0,2.20914 1.790861,4 4,4 z m 8,-2 c 1.10457,0 2,-0.89543 2,-2 10e-7,-1.10457 -0.895431,-2 -2,-2 -1.104569,0 -2,0.89543 -2,2 0,1.10457 0.895431,2 2,2 z" />
      </g>
      <g
         id="g3157">
        <path
           d="m 41.542815,68.98518 -3.006137,7.95198 6.023244,0 -3.017107,-7.95198 m -1.250728,-2.12981 2.512427,0 6.24267,15.9789 -2.303973,0 -1.492097,-4.09908 -7.383685,0 -1.492097,4.09908 -2.336887,0 6.253642,-15.9789"
           inkscape:connector-curvature="0"
           id="path4444"
           style="font-size:21.91880798px;font-style:normal;font-variant:normal;font-weight:normal;font-stretch:normal;text-align:start;line-height:125%;writing-mode:lr-tb;text-anchor:start;fill:#4d4d4d;fill-opacity:1;stroke:none;display:inline;font-family:DejaVu Sans;-inkscape-font-specification:DejaVu Sans" />
        <path
           d="m 58.221823,76.80874 c -1.591117,0 -2.693478,0.18194 -3.307086,0.54582 -0.613616,0.3639 -0.920422,0.98464 -0.920418,1.86225 -4e-6,0.69923 0.228317,1.25576 0.684963,1.66959 0.463772,0.4067 1.091654,0.61005 1.883647,0.61005 1.091653,0 1.965693,-0.38529 2.622123,-1.15588 0.663549,-0.77771 0.995327,-1.80872 0.995337,-3.09303 l 0,-0.43881 -1.958566,0 m 3.927834,-0.81339 0,6.83893 -1.969268,0 0,-1.81944 c -0.449516,0.72778 -1.009615,1.26647 -1.6803,1.61609 -0.670699,0.34248 -1.491227,0.51372 -2.461585,0.51372 -1.227229,0 -2.204726,-0.34248 -2.932496,-1.02744 -0.72064,-0.6921 -1.080958,-1.61609 -1.080957,-2.77196 -10e-7,-1.34852 0.449505,-2.36526 1.34852,-3.05023 0.906145,-0.68495 2.254664,-1.02743 4.045562,-1.02744 l 2.761256,0 0,-0.19265 c -10e-6,-0.90614 -0.299681,-1.60537 -0.899014,-2.0977 -0.592215,-0.49944 -1.427013,-0.74916 -2.504395,-0.74917 -0.684968,1e-5 -1.352093,0.0821 -2.001376,0.24615 -0.649291,0.16412 -1.273605,0.41028 -1.872945,0.73848 l 0,-1.81943 c 0.720635,-0.27826 1.419867,-0.48517 2.097699,-0.62075 0.677823,-0.14269 1.337812,-0.21404 1.97997,-0.21405 1.733804,1e-5 3.028811,0.44952 3.885023,1.34852 0.856193,0.89902 1.284294,2.26181 1.284306,4.08837"
           inkscape:connector-curvature="0"
           id="path4446"
           style="font-size:21.91880798px;font-style:normal;font-variant:normal;font-weight:normal;font-stretch:normal;text-align:start;line-height:125%;writing-mode:lr-tb;text-anchor:start;fill:#4d4d4d;fill-opacity:1;stroke:none;display:inline;font-family:DejaVu Sans;-inkscape-font-specification:DejaVu Sans" />
        <g
           transform="translate(100,-1)"
           id="g4369"
           style="opacity:0.3;display:inline">
          <path
             d="m -22,48 c -3.313709,0 -6,2.68629 -6,6 0,3.31371 2.686291,6 6,6 3.313709,0 6,-2.68629 6,-6 0,-3.31371 -2.686291,-6 -6,-6 z"
             inkscape:connector-curvature="0"
             id="path4155"
             style="color:#000000;fill:url(#radialGradient4392-0);fill-opacity:1;fill-rule:nonzero;stroke:none;stroke-width:1;marker:none;visibility:visible;display:inline;overflow:visible;enable-background:accumulate" />
          <path
             d="m -34,50 c -2.209139,0 -4,1.79086 -4,4 0,2.20914 1.790861,4 4,4 2.209139,0 4,-1.79086 4,-4 0,-2.20914 -1.790861,-4 -4,-4 z"
             inkscape:connector-curvature="0"
             id="path4153"
             style="color:#000000;fill:url(#radialGradient4394-6);fill-opacity:1;fill-rule:nonzero;stroke:none;stroke-width:1;marker:none;visibility:visible;display:inline;overflow:visible;enable-background:accumulate" />
          <path
             d="m -42,52 c -1.104569,0 -2,0.89543 -2,2 0,1.10457 0.895431,2 2,2 1.104569,0 2,-0.89543 2,-2 0,-1.10457 -0.895431,-2 -2,-2 z"
             inkscape:connector-curvature="0"
             id="path4123"
             style="color:#000000;fill:url(#radialGradient4396-5);fill-opacity:1;fill-rule:nonzero;stroke:none;stroke-width:1;marker:none;visibility:visible;display:inline;overflow:visible;enable-background:accumulate" />
          <path
             d="m -29.019238,33.80385 c -2.869756,1.65685 -3.853007,5.32639 -2.196152,8.19615 1.656854,2.86976 5.326396,3.85301 8.196152,2.19615 2.869756,-1.65685 3.853007,-5.32639 2.196153,-8.19615 -1.656855,-2.86976 -5.326397,-3.85301 -8.196153,-2.19615 z"
             inkscape:connector-curvature="0"
             id="path4161"
             style="color:#000000;fill:url(#radialGradient4398-1);fill-opacity:1;fill-rule:nonzero;stroke:none;stroke-width:1;marker:none;visibility:visible;display:inline;overflow:visible;enable-background:accumulate" />
          <path
             d="m -38.411543,41.5359 c -1.91317,1.10457 -2.568671,3.55093 -1.464101,5.4641 1.104569,1.91317 3.550931,2.56867 5.464101,1.4641 1.913171,-1.10457 2.568671,-3.55093 1.464102,-5.4641 -1.10457,-1.91317 -3.550931,-2.56867 -5.464102,-1.4641 z"
             inkscape:connector-curvature="0"
             id="path4159"
             style="color:#000000;fill:url(#radialGradient4400-1);fill-opacity:1;fill-rule:nonzero;stroke:none;stroke-width:1;marker:none;visibility:visible;display:inline;overflow:visible;enable-background:accumulate" />
          <path
             d="m -44.339746,47.26795 c -0.956585,0.55228 -1.284335,1.77546 -0.732051,2.73205 0.552285,0.95659 1.775466,1.28434 2.732051,0.73205 0.956585,-0.55228 1.284335,-1.77546 0.732051,-2.73205 -0.552285,-0.95659 -1.775466,-1.28433 -2.732051,-0.73205 z"
             inkscape:connector-curvature="0"
             id="path4125"
             style="color:#000000;fill:url(#radialGradient4402-1);fill-opacity:1;fill-rule:nonzero;stroke:none;stroke-width:1;marker:none;visibility:visible;display:inline;overflow:visible;enable-background:accumulate" />
          <path
             d="m -42.196152,25.01924 c -1.656855,2.86975 -0.673604,6.5393 2.196152,8.19615 2.869756,1.65685 6.539298,0.6736 8.196152,-2.19615 1.656855,-2.86976 0.673604,-6.5393 -2.196152,-8.19615 -2.869756,-1.65686 -6.539298,-0.67361 -8.196152,2.19615 z"
             inkscape:connector-curvature="0"
             id="path4167"
             style="color:#000000;fill:url(#radialGradient4404-6);fill-opacity:1;fill-rule:nonzero;stroke:none;stroke-width:1;marker:none;visibility:visible;display:inline;overflow:visible;enable-background:accumulate" />
          <path
             d="m -46.464102,36.41154 c -1.104569,1.91317 -0.449068,4.35953 1.464102,5.4641 1.91317,1.10457 4.359532,0.44907 5.464102,-1.4641 1.104569,-1.91317 0.449068,-4.35953 -1.464102,-5.4641 -1.91317,-1.10457 -4.359532,-0.44907 -5.464102,1.4641 z"
             inkscape:connector-curvature="0"
             id="path4165"
             style="color:#000000;fill:url(#radialGradient4406-0);fill-opacity:1;fill-rule:nonzero;stroke:none;stroke-width:1;marker:none;visibility:visible;display:inline;overflow:visible;enable-background:accumulate" />
          <path
             d="m -48.732051,44.33975 c -0.552284,0.95658 -0.224534,2.17976 0.732051,2.73205 0.956585,0.55228 2.179766,0.22453 2.732051,-0.73205 0.552284,-0.95659 0.224534,-2.17977 -0.732051,-2.73205 -0.956585,-0.55229 -2.179766,-0.22454 -2.732051,0.73205 z"
             inkscape:connector-curvature="0"
             id="path4127"
             style="color:#000000;fill:url(#radialGradient4408-4);fill-opacity:1;fill-rule:nonzero;stroke:none;stroke-width:1;marker:none;visibility:visible;display:inline;overflow:visible;enable-background:accumulate" />
          <path
             d="m -57.999999,24 c -10e-7,3.31371 2.68629,6 5.999999,6 3.313709,0 6,-2.68629 6,-6 0,-3.31371 -2.686291,-6 -6,-6 -3.313709,0 -6,2.68629 -5.999999,6 z"
             inkscape:connector-curvature="0"
             id="path4173"
             style="color:#000000;fill:url(#radialGradient4410-4);fill-opacity:1;fill-rule:nonzero;stroke:none;stroke-width:1;marker:none;visibility:visible;display:inline;overflow:visible;enable-background:accumulate" />
          <path
             d="m -56,36 c 0,2.20914 1.790862,4 4,4 2.209139,0 4,-1.79086 4.000001,-4 C -48,33.79086 -49.790862,32 -52,32 c -2.209138,0 -4,1.79086 -4,4 z"
             inkscape:connector-curvature="0"
             id="path4171"
             style="color:#000000;fill:url(#radialGradient4412-6);fill-opacity:1;fill-rule:nonzero;stroke:none;stroke-width:1;marker:none;visibility:visible;display:inline;overflow:visible;enable-background:accumulate" />
          <path
             d="m -54,44 c 10e-7,1.10457 0.895431,2 2,2 1.104569,0 2,-0.89543 2,-2 0,-1.10457 -0.895431,-2 -2,-2 -1.104569,0 -2,0.89543 -2,2 z"
             inkscape:connector-curvature="0"
             id="path4129"
             style="color:#000000;fill:url(#radialGradient4414-6);fill-opacity:1;fill-rule:nonzero;stroke:none;stroke-width:1;marker:none;visibility:visible;display:inline;overflow:visible;enable-background:accumulate" />
          <path
             d="m -72.196151,31.01924 c 1.656853,2.86975 5.326395,3.85301 8.196151,2.19615 2.869756,-1.65685 3.853007,-5.3264 2.196152,-8.19615 -1.656854,-2.86976 -5.326396,-3.85301 -8.196152,-2.19615 -2.869756,1.65685 -3.853007,5.32639 -2.196151,8.19615 z"
             inkscape:connector-curvature="0"
             id="path4179"
             style="color:#000000;fill:url(#radialGradient4416-1);fill-opacity:1;fill-rule:nonzero;stroke:none;stroke-width:1;marker:none;visibility:visible;display:inline;overflow:visible;enable-background:accumulate" />
          <path
             d="m -64.464102,40.41154 c 1.10457,1.91317 3.550932,2.56867 5.464102,1.4641 1.913171,-1.10457 2.568671,-3.55093 1.464103,-5.4641 -1.104571,-1.91317 -3.550933,-2.56867 -5.464103,-1.4641 -1.91317,1.10457 -2.568671,3.55093 -1.464102,5.4641 z"
             inkscape:connector-curvature="0"
             id="path4177"
             style="color:#000000;fill:url(#radialGradient4418-0);fill-opacity:1;fill-rule:nonzero;stroke:none;stroke-width:1;marker:none;visibility:visible;display:inline;overflow:visible;enable-background:accumulate" />
          <path
             d="m -58.732051,46.33975 c 0.552286,0.95658 1.775466,1.28433 2.732051,0.73205 0.956585,-0.55229 1.284335,-1.77547 0.732051,-2.73205 C -55.820234,43.38316 -57.043415,43.05541 -58,43.6077 c -0.956585,0.55228 -1.284335,1.77546 -0.732051,2.73205 z"
             inkscape:connector-curvature="0"
             id="path4131"
             style="color:#000000;fill:url(#radialGradient4420-9);fill-opacity:1;fill-rule:nonzero;stroke:none;stroke-width:1;marker:none;visibility:visible;display:inline;overflow:visible;enable-background:accumulate" />
          <path
             d="m -80.980761,44.19615 c 2.869755,1.65686 6.539297,0.67361 8.196152,-2.19615 1.656854,-2.86976 0.673603,-6.5393 -2.196153,-8.19615 -2.869756,-1.65686 -6.539298,-0.67361 -8.196152,2.19615 -1.656855,2.86976 -0.673604,6.5393 2.196153,8.19615 z"
             inkscape:connector-curvature="0"
             id="path4185"
             style="color:#000000;fill:url(#radialGradient4422-0);fill-opacity:1;fill-rule:nonzero;stroke:none;stroke-width:1;marker:none;visibility:visible;display:inline;overflow:visible;enable-background:accumulate" />
          <path
             d="m -69.588458,48.4641 c 1.913171,1.10457 4.359533,0.44907 5.464103,-1.4641 1.104569,-1.91317 0.449068,-4.35953 -1.464101,-5.4641 -1.913172,-1.10457 -4.359534,-0.44907 -5.464103,1.4641 -1.104569,1.91317 -0.449069,4.35953 1.464101,5.4641 z"
             inkscape:connector-curvature="0"
             id="path4183"
             style="color:#000000;fill:url(#radialGradient4424-9);fill-opacity:1;fill-rule:nonzero;stroke:none;stroke-width:1;marker:none;visibility:visible;display:inline;overflow:visible;enable-background:accumulate" />
          <path
             d="m -61.660254,50.73205 c 0.956586,0.55229 2.179766,0.22454 2.732051,-0.73205 0.552285,-0.95658 0.224534,-2.17977 -0.732051,-2.73205 -0.956585,-0.55228 -2.179766,-0.22454 -2.732051,0.73205 -0.552284,0.95659 -0.224534,2.17977 0.732051,2.73205 z"
             inkscape:connector-curvature="0"
             id="path4133"
             style="color:#000000;fill:url(#radialGradient4426-2);fill-opacity:1;fill-rule:nonzero;stroke:none;stroke-width:1;marker:none;visibility:visible;display:inline;overflow:visible;enable-background:accumulate" />
          <path
             d="m -81.999999,60 c 3.313708,0 5.999999,-2.68629 6,-6 C -76,50.68629 -78.686291,48 -82,48 c -3.313709,0 -6,2.68629 -5.999999,6 -10e-7,3.31371 2.68629,6 6,6 z"
             inkscape:connector-curvature="0"
             id="path4191"
             style="color:#000000;fill:url(#radialGradient4428-4);fill-opacity:1;fill-rule:nonzero;stroke:none;stroke-width:1;marker:none;visibility:visible;display:inline;overflow:visible;enable-background:accumulate" />
          <path
             d="m -70,58 c 2.209139,0 4,-1.79086 4.000001,-4 C -66,51.79086 -67.790861,50 -70,50 c -2.209139,0 -4,1.79086 -4,4 0,2.20914 1.790861,4 4,4 z"
             inkscape:connector-curvature="0"
             id="path4189"
             style="color:#000000;fill:url(#radialGradient4430-0);fill-opacity:1;fill-rule:nonzero;stroke:none;stroke-width:1;marker:none;visibility:visible;display:inline;overflow:visible;enable-background:accumulate" />
          <path
             d="m -62,56 c 1.10457,0 2,-0.89543 2,-2 10e-7,-1.10457 -0.895431,-2 -2,-2 -1.104569,0 -2,0.89543 -2,2 0,1.10457 0.895431,2 2,2 z"
             inkscape:connector-curvature="0"
             id="path4135"
             style="color:#000000;fill:url(#radialGradient4432-8);fill-opacity:1;fill-rule:nonzero;stroke:none;stroke-width:1;marker:none;visibility:visible;display:inline;overflow:visible;enable-background:accumulate" />
        </g>
      </g>
    </g>
    <rect
       ry="25"
       rx="25"
       id="rect3003"
       style="opacity:0.15;fill:#ffffff;fill-opacity:1"
       height="92"
       width="92"
       y="958.36218"
       x="-96"
       clip-path="url(#clipPath3009)"
       transform="translate(98,3.8281269e-7)" />
  </g>
</svg>
