<?xml version="1.0" encoding="UTF-8" standalone="no"?>
<!-- Created with Inkscape (http://www.inkscape.org/) -->

<svg
   xmlns:dc="http://purl.org/dc/elements/1.1/"
   xmlns:cc="http://creativecommons.org/ns#"
   xmlns:rdf="http://www.w3.org/1999/02/22-rdf-syntax-ns#"
   xmlns:svg="http://www.w3.org/2000/svg"
   xmlns="http://www.w3.org/2000/svg"
   xmlns:xlink="http://www.w3.org/1999/xlink"
   xmlns:sodipodi="http://sodipodi.sourceforge.net/DTD/sodipodi-0.dtd"
   xmlns:inkscape="http://www.inkscape.org/namespaces/inkscape"
   width="96"
   height="96"
   id="svg11037"
   version="1.1"
   inkscape:version="0.48.3.1 r9886"
   sodipodi:docname="audio-x-vorbis+ogg.svg">
  <defs
     id="defs11039">
    <linearGradient
       y2="1046.1001"
       x2="47.999954"
       y1="962.62189"
       x1="47.999954"
       gradientTransform="matrix(1.15,0,0,1.15,-7.1999462,-150.65291)"
       gradientUnits="userSpaceOnUse"
       id="linearGradient3886"
       xlink:href="#linearGradient3795"
       inkscape:collect="always" />
    <linearGradient
       id="linearGradient3795">
      <stop
         style="stop-color:#13a6fd;stop-opacity:1;"
         offset="0"
         id="stop3797" />
      <stop
         style="stop-color:#2975b6;stop-opacity:1;"
         offset="1"
         id="stop3799" />
    </linearGradient>
    <linearGradient
       y2="1046.1001"
       x2="47.999954"
       y1="962.62189"
       x1="47.999954"
       gradientTransform="matrix(1.15,0,0,1.15,-7.1999462,-150.65292)"
       gradientUnits="userSpaceOnUse"
       id="linearGradient11642"
       xlink:href="#linearGradient3700"
       inkscape:collect="always" />
    <linearGradient
       x1="48"
       y1="90"
       x2="48"
       y2="5.9877172"
       id="linearGradient3706"
       xlink:href="#linearGradient3700"
       gradientUnits="userSpaceOnUse" />
    <linearGradient
       id="linearGradient3700">
      <stop
         id="stop3702"
         style="stop-color:#e6e6e6;stop-opacity:1"
         offset="0" />
      <stop
         id="stop3704"
         style="stop-color:#f5f5f5;stop-opacity:1"
         offset="1" />
    </linearGradient>
    <linearGradient
       gradientTransform="translate(-108.10408,968.50176)"
       y2="5.9877172"
       x2="48"
       y1="90"
       x1="48"
       gradientUnits="userSpaceOnUse"
       id="linearGradient3117"
       xlink:href="#linearGradient3700"
       inkscape:collect="always" />
    <radialGradient
       cx="61"
       cy="24.63372"
       r="19.007999"
       fx="61"
       fy="24.63372"
       id="radialGradient4110-3"
       xlink:href="#linearGradient3798-0"
       gradientUnits="userSpaceOnUse"
       gradientTransform="matrix(1.2626263,-0.2104377,0.09520749,0.57124497,-18.365519,22.764811)" />
    <linearGradient
       id="linearGradient3798-0">
      <stop
         id="stop3800-3"
         style="stop-color:#0a85ff;stop-opacity:1"
         offset="0" />
      <stop
         id="stop3802-0"
         style="stop-color:#006ad3;stop-opacity:0"
         offset="1" />
    </linearGradient>
    <filter
       color-interpolation-filters="sRGB"
       id="filter3810-9">
      <feGaussianBlur
         id="feGaussianBlur3812-0"
         stdDeviation="0.42" />
    </filter>
    <radialGradient
       cx="41.752941"
       cy="36.95731"
       r="19"
       fx="41.752941"
       fy="36.95731"
       id="radialGradient4112-0"
       xlink:href="#linearGradient3816-7"
       gradientUnits="userSpaceOnUse"
       gradientTransform="matrix(3.3630994,-0.59089075,0.30096298,1.7129535,-109.78914,2.6805672)" />
    <linearGradient
       id="linearGradient3816-7">
      <stop
         id="stop3818-5"
         style="stop-color:#51acff;stop-opacity:1"
         offset="0" />
      <stop
         id="stop3824-1"
         style="stop-color:#6abaee;stop-opacity:0.67450982"
         offset="0.5" />
      <stop
         id="stop3820-9"
         style="stop-color:#318fe4;stop-opacity:0"
         offset="1" />
    </linearGradient>
    <linearGradient
       x1="80"
       y1="37"
       x2="77"
       y2="37"
       id="linearGradient4114-8"
       xlink:href="#linearGradient3860-3"
       gradientUnits="userSpaceOnUse"
       gradientTransform="translate(4.4049615e-7,3)" />
    <linearGradient
       id="linearGradient3860-3">
      <stop
         id="stop3862-2"
         style="stop-color:#002767;stop-opacity:1"
         offset="0" />
      <stop
         id="stop3868-2"
         style="stop-color:#003180;stop-opacity:0.36434108"
         offset="0.5" />
      <stop
         id="stop3864-9"
         style="stop-color:#002767;stop-opacity:0"
         offset="1" />
    </linearGradient>
    <linearGradient
       x1="52"
       y1="10"
       x2="51.631207"
       y2="8.0840635"
       id="linearGradient4116-8"
       xlink:href="#linearGradient3828-7"
       gradientUnits="userSpaceOnUse"
       gradientTransform="translate(4.4049615e-7,3)" />
    <linearGradient
       id="linearGradient3828-7">
      <stop
         id="stop3830-5"
         style="stop-color:#a2d7fb;stop-opacity:1"
         offset="0" />
      <stop
         id="stop3832-2"
         style="stop-color:#a2d7fb;stop-opacity:0"
         offset="1" />
    </linearGradient>
    <radialGradient
       cx="40.284538"
       cy="39.106094"
       r="19"
       fx="40.284538"
       fy="39.106094"
       id="radialGradient4118-3"
       xlink:href="#linearGradient3816-7"
       gradientUnits="userSpaceOnUse"
       gradientTransform="matrix(3.3729562,-0.5317483,0.18746453,1.1891145,-71.604806,16.442362)" />
    <linearGradient
       id="linearGradient3150">
      <stop
         id="stop3152"
         style="stop-color:#51acff;stop-opacity:1"
         offset="0" />
      <stop
         id="stop3154"
         style="stop-color:#6abaee;stop-opacity:0.67450982"
         offset="0.5" />
      <stop
         id="stop3156"
         style="stop-color:#318fe4;stop-opacity:0"
         offset="1" />
    </linearGradient>
    <radialGradient
       cx="46"
       cy="50.608784"
       r="1.5"
       fx="46"
       fy="50.608784"
       id="radialGradient4120-3"
       xlink:href="#linearGradient3879-7"
       gradientUnits="userSpaceOnUse"
       gradientTransform="matrix(2.6666667,-6.9565204e-8,8.0000011e-7,30.666677,-76.666707,-1477.0032)" />
    <linearGradient
       id="linearGradient3879-7">
      <stop
         id="stop3881-4"
         style="stop-color:#002767;stop-opacity:1"
         offset="0" />
      <stop
         id="stop3883-4"
         style="stop-color:#003180;stop-opacity:0.36434108"
         offset="0.5" />
      <stop
         id="stop3885-7"
         style="stop-color:#002767;stop-opacity:0"
         offset="1" />
    </linearGradient>
    <radialGradient
       cx="39.768967"
       cy="69.843796"
       r="11"
       fx="39.768967"
       fy="69.843796"
       id="radialGradient4122-3"
       xlink:href="#linearGradient3958-7"
       gradientUnits="userSpaceOnUse"
       gradientTransform="matrix(1.1597853,-0.1400901,0.07244171,0.58349276,-11.414104,33.34065)" />
    <linearGradient
       id="linearGradient3958-7">
      <stop
         id="stop3960-0"
         style="stop-color:#01a3f1;stop-opacity:1"
         offset="0" />
      <stop
         id="stop3962-5"
         style="stop-color:#01a3f1;stop-opacity:0"
         offset="1" />
    </linearGradient>
    <linearGradient
       x1="40"
       y1="70"
       x2="41.884232"
       y2="62.967953"
       id="linearGradient4124-1"
       xlink:href="#linearGradient3934-5"
       gradientUnits="userSpaceOnUse" />
    <linearGradient
       id="linearGradient3934-5">
      <stop
         id="stop3936-7"
         style="stop-color:#003d9e;stop-opacity:1"
         offset="0" />
      <stop
         id="stop3938-7"
         style="stop-color:#003d9e;stop-opacity:0"
         offset="1" />
    </linearGradient>
    <linearGradient
       x1="40"
       y1="69"
       x2="42"
       y2="64"
       id="linearGradient4126-6"
       xlink:href="#linearGradient3934-5"
       gradientUnits="userSpaceOnUse" />
    <linearGradient
       id="linearGradient3172">
      <stop
         id="stop3174"
         style="stop-color:#003d9e;stop-opacity:1"
         offset="0" />
      <stop
         id="stop3176"
         style="stop-color:#003d9e;stop-opacity:0"
         offset="1" />
    </linearGradient>
    <linearGradient
       x1="31"
       y1="61"
       x2="36"
       y2="70"
       id="linearGradient4128-7"
       xlink:href="#linearGradient3894-7"
       gradientUnits="userSpaceOnUse"
       gradientTransform="translate(4.4049615e-7,3)" />
    <linearGradient
       id="linearGradient3894-7">
      <stop
         id="stop3896-6"
         style="stop-color:#93ddf7;stop-opacity:1"
         offset="0" />
      <stop
         id="stop3898-4"
         style="stop-color:#93ddf7;stop-opacity:0"
         offset="1" />
    </linearGradient>
    <radialGradient
       cx="39.768967"
       cy="69.843796"
       r="11"
       fx="39.768967"
       fy="69.843796"
       id="radialGradient4130-4"
       xlink:href="#linearGradient3958-7"
       gradientUnits="userSpaceOnUse"
       gradientTransform="matrix(1.1597853,-0.1400901,0.07244171,0.58349276,-11.414104,33.34065)" />
    <linearGradient
       id="linearGradient3183">
      <stop
         id="stop3185"
         style="stop-color:#01a3f1;stop-opacity:1"
         offset="0" />
      <stop
         id="stop3187"
         style="stop-color:#01a3f1;stop-opacity:0"
         offset="1" />
    </linearGradient>
    <linearGradient
       x1="40"
       y1="70"
       x2="41.884232"
       y2="62.967953"
       id="linearGradient4132-9"
       xlink:href="#linearGradient3934-5"
       gradientUnits="userSpaceOnUse"
       gradientTransform="translate(34,-5.0000001)" />
    <linearGradient
       id="linearGradient3190">
      <stop
         id="stop3192"
         style="stop-color:#003d9e;stop-opacity:1"
         offset="0" />
      <stop
         id="stop3194"
         style="stop-color:#003d9e;stop-opacity:0"
         offset="1" />
    </linearGradient>
    <linearGradient
       x1="40"
       y1="69"
       x2="42"
       y2="64"
       id="linearGradient4134-5"
       xlink:href="#linearGradient3934-5"
       gradientUnits="userSpaceOnUse"
       gradientTransform="translate(34,-5.0000001)" />
    <linearGradient
       id="linearGradient3197">
      <stop
         id="stop3199"
         style="stop-color:#003d9e;stop-opacity:1"
         offset="0" />
      <stop
         id="stop3201"
         style="stop-color:#003d9e;stop-opacity:0"
         offset="1" />
    </linearGradient>
    <linearGradient
       x1="31"
       y1="61"
       x2="36"
       y2="70"
       id="linearGradient4136-2"
       xlink:href="#linearGradient3894-7"
       gradientUnits="userSpaceOnUse"
       gradientTransform="translate(34,-2.0000001)" />
    <linearGradient
       id="linearGradient3204">
      <stop
         id="stop3206"
         style="stop-color:#93ddf7;stop-opacity:1"
         offset="0" />
      <stop
         id="stop3208"
         style="stop-color:#93ddf7;stop-opacity:0"
         offset="1" />
    </linearGradient>
    <clipPath
       clipPathUnits="userSpaceOnUse"
       id="clipPath3009">
      <path
         id="path3011-9"
         d="m -2,956.36218 -96,0 0,33.5624 96,25.68742 0,-59.24982 z"
         style="opacity:0.15;fill:#ffffff;fill-opacity:1;stroke:none"
         inkscape:connector-curvature="0" />
    </clipPath>
  </defs>
  <sodipodi:namedview
     id="base"
     pagecolor="#ffffff"
     bordercolor="#666666"
     borderopacity="1.0"
     inkscape:pageopacity="0.0"
     inkscape:pageshadow="2"
     inkscape:zoom="3.959798"
     inkscape:cx="33.538031"
     inkscape:cy="59.964634"
     inkscape:document-units="px"
     inkscape:current-layer="layer1"
     showgrid="false"
     inkscape:window-width="1280"
     inkscape:window-height="750"
     inkscape:window-x="0"
     inkscape:window-y="22"
     inkscape:window-maximized="1"
     showguides="true"
     inkscape:guide-bbox="true">
    <sodipodi:guide
       orientation="0,1"
       position="-24.748737,0"
       id="guide11064" />
    <sodipodi:guide
       orientation="0,1"
       position="-23.233509,96"
       id="guide11066" />
    <sodipodi:guide
       orientation="1,0"
       position="0,54.800776"
       id="guide11068" />
    <sodipodi:guide
       orientation="1,0"
       position="96,51.012704"
       id="guide11070" />
    <sodipodi:guide
       orientation="0,1"
       position="-18.94036,48"
       id="guide11072" />
    <sodipodi:guide
       orientation="1,0"
       position="48,79.296975"
       id="guide11074" />
    <sodipodi:guide
       orientation="1,0"
       position="2,75.508903"
       id="guide11076" />
    <sodipodi:guide
       orientation="0,1"
       position="-77.27667,2"
       id="guide11078" />
    <sodipodi:guide
       orientation="1,0"
       position="94,77.781746"
       id="guide11080" />
    <sodipodi:guide
       orientation="0,1"
       position="-65.912454,94"
       id="guide11082" />
  </sodipodi:namedview>
  <metadata
     id="metadata11042">
    <rdf:RDF>
      <cc:Work
         rdf:about="">
        <dc:format>image/svg+xml</dc:format>
        <dc:type
           rdf:resource="http://purl.org/dc/dcmitype/StillImage" />
        <dc:title />
      </cc:Work>
    </rdf:RDF>
  </metadata>
  <g
     inkscape:label="Layer 1"
     inkscape:groupmode="layer"
     id="layer1"
     transform="translate(0,-956.36218)">
    <rect
       x="2"
       y="958.36218"
       width="92"
       height="92"
       style="fill:url(#linearGradient11642);fill-opacity:1.0"
       id="rect3867"
       rx="25"
       ry="25" />
    <g
       transform="translate(-8.2953946e-8,956.36218)"
       style="display:inline"
       id="layer3">
      <g
         id="text3731"
         style="font-size:15.64537144px;font-style:normal;font-variant:normal;font-weight:bold;font-stretch:normal;text-align:start;line-height:125%;writing-mode:lr-tb;text-anchor:start;fill:#666666;fill-opacity:1;stroke:none;font-family:BabelSans;-inkscape-font-specification:Abandoned Bitplane Bold">
        <path
           d="m 42.51361,78.023466 c -9e-6,-0.427634 -0.03652,-0.870919 -0.109518,-1.329856 -0.06259,-0.469354 -0.166893,-0.923069 -0.312907,-1.361148 -0.135602,-0.448492 -0.318131,-0.876131 -0.547588,-1.28292 -0.229474,-0.40677 -0.505875,-0.761398 -0.829205,-1.063885 -0.323345,-0.302467 -0.704048,-0.542362 -1.142112,-0.719687 -0.427646,-0.177303 -0.912652,-0.26596 -1.45502,-0.265972 -0.844854,1.2e-5 -1.55411,0.198186 -2.12777,0.594524 -0.563236,0.39636 -1.011736,0.897012 -1.345502,1.501956 -0.333769,0.604963 -0.573664,1.267283 -0.719687,1.986962 -0.135594,0.719694 -0.20339,1.40809 -0.20339,2.065189 0,0.63625 0.07823,1.29857 0.234681,1.986962 0.166883,0.688399 0.422424,1.319429 0.766623,1.89309 0.354626,0.573665 0.808342,1.048241 1.361147,1.423729 0.56323,0.365059 1.23598,0.547588 2.018253,0.547588 0.813554,0 1.501949,-0.187745 2.065189,-0.563233 0.563226,-0.385919 1.016941,-0.870925 1.361147,-1.45502 0.34419,-0.594522 0.594516,-1.241196 0.750978,-1.940026 0.156445,-0.698822 0.234672,-1.371572 0.234681,-2.018253 m -1.533247,0.01565 c -7e-6,0.490226 -0.04694,1.001308 -0.140808,1.533246 -0.09388,0.531946 -0.250333,1.022167 -0.469361,1.470665 -0.219042,0.438072 -0.516304,0.803131 -0.891786,1.095176 -0.365065,0.281618 -0.823995,0.422426 -1.376793,0.422425 -0.531947,1e-6 -0.980447,-0.135592 -1.345502,-0.40678 -0.365062,-0.281615 -0.662323,-0.636243 -0.891786,-1.063885 -0.219038,-0.427637 -0.380706,-0.896998 -0.485007,-1.408083 -0.09387,-0.511078 -0.14081,-1.006514 -0.140808,-1.486311 -2e-6,-0.292041 0.01043,-0.604948 0.03129,-0.938722 0.02086,-0.344191 0.06258,-0.677959 0.125163,-1.001304 0.06258,-0.33376 0.151236,-0.646667 0.265971,-0.938722 0.11473,-0.302469 0.260754,-0.563225 0.438071,-0.782269 0.271183,-0.333758 0.568445,-0.594514 0.891786,-0.782268 0.333764,-0.187735 0.714467,-0.281607 1.142112,-0.281617 0.542367,10e-6 0.996083,0.146034 1.361147,0.438071 0.365052,0.292056 0.657099,0.667544 0.876141,1.126466 0.219028,0.448509 0.375481,0.943945 0.469361,1.486311 0.09387,0.531949 0.140801,1.037815 0.140808,1.517601"
           inkscape:connector-curvature="0"
           id="path3736"
           style="fill:#666666" />
        <path
           d="m 52.286834,83.812254 0,-5.976532 -4.114733,0.01564 0,1.439374 2.612777,0 0,2.112125 c -0.146031,0.156456 -0.312915,0.297264 -0.500652,0.422425 -0.187751,0.125165 -0.391141,0.234683 -0.610169,0.328553 -0.208612,0.09387 -0.427646,0.166886 -0.657106,0.219035 -0.219041,0.05215 -0.432861,0.07823 -0.64146,0.07823 -0.594529,2e-6 -1.089965,-0.130376 -1.486311,-0.391134 -0.396352,-0.271185 -0.714474,-0.620598 -0.954367,-1.04824 -0.229468,-0.427637 -0.396352,-0.907428 -0.500652,-1.439374 -0.09387,-0.531938 -0.14081,-1.06388 -0.140808,-1.595828 -2e-6,-0.531936 0.04693,-1.063878 0.140808,-1.595828 0.1043,-0.531935 0.271184,-1.011726 0.500652,-1.439374 0.239893,-0.438061 0.5528,-0.787474 0.938722,-1.04824 0.396346,-0.271176 0.891782,-0.406769 1.48631,-0.406779 0.375484,1e-5 0.693606,0.06259 0.954368,0.187744 0.27118,0.114743 0.500645,0.286841 0.688396,0.516297 0.198168,0.229475 0.359837,0.505876 0.485007,0.829205 0.135586,0.323346 0.250318,0.688404 0.344198,1.095176 l 1.329857,-0.453716 c -0.114742,-0.542364 -0.271195,-1.037801 -0.469361,-1.48631 -0.187753,-0.448491 -0.438079,-0.83441 -0.750978,-1.157758 -0.302485,-0.323326 -0.667543,-0.568437 -1.095176,-0.735332 -0.427647,-0.177303 -0.928298,-0.26596 -1.501956,-0.265971 -0.855284,1.1e-5 -1.574971,0.187755 -2.159061,0.563233 -0.584096,0.365069 -1.053457,0.839645 -1.408084,1.423729 -0.354629,0.573672 -0.61017,1.220347 -0.766623,1.940026 -0.156454,0.719694 -0.234681,1.42895 -0.23468,2.12777 -10e-7,0.709262 0.08344,1.418518 0.250326,2.127771 0.166883,0.698829 0.438069,1.329859 0.813559,1.89309 0.375487,0.563234 0.860493,1.022165 1.455019,1.376792 0.594521,0.354629 1.314207,0.531943 2.159062,0.531943 0.427634,0 0.834413,-0.09909 1.220339,-0.297262 0.396342,-0.187744 0.771831,-0.385919 1.126466,-0.594524 l 0,0.704042 1.486311,0"
           inkscape:connector-curvature="0"
           id="path3738"
           style="fill:#666666" />
        <path
           d="m 62.279093,83.812254 0,-5.976532 -4.114733,0.01564 0,1.439374 2.612777,0 0,2.112125 c -0.146031,0.156456 -0.312915,0.297264 -0.500652,0.422425 -0.187751,0.125165 -0.391141,0.234683 -0.610169,0.328553 -0.208611,0.09387 -0.427646,0.166886 -0.657106,0.219035 -0.219041,0.05215 -0.432861,0.07823 -0.64146,0.07823 -0.594529,2e-6 -1.089965,-0.130376 -1.48631,-0.391134 -0.396353,-0.271185 -0.714475,-0.620598 -0.954368,-1.04824 -0.229468,-0.427637 -0.396352,-0.907428 -0.500652,-1.439374 -0.09387,-0.531938 -0.14081,-1.06388 -0.140808,-1.595828 -2e-6,-0.531936 0.04693,-1.063878 0.140808,-1.595828 0.1043,-0.531935 0.271184,-1.011726 0.500652,-1.439374 0.239893,-0.438061 0.5528,-0.787474 0.938722,-1.04824 0.396346,-0.271176 0.891782,-0.406769 1.48631,-0.406779 0.375484,1e-5 0.693606,0.06259 0.954368,0.187744 0.27118,0.114743 0.500645,0.286841 0.688396,0.516297 0.198168,0.229475 0.359837,0.505876 0.485007,0.829205 0.135586,0.323346 0.250318,0.688404 0.344198,1.095176 l 1.329857,-0.453716 c -0.114742,-0.542364 -0.271195,-1.037801 -0.469361,-1.48631 -0.187753,-0.448491 -0.438079,-0.83441 -0.750978,-1.157758 -0.302485,-0.323326 -0.667543,-0.568437 -1.095176,-0.735332 -0.427647,-0.177303 -0.928298,-0.26596 -1.501956,-0.265971 -0.855284,1.1e-5 -1.574971,0.187755 -2.159061,0.563233 -0.584096,0.365069 -1.053457,0.839645 -1.408084,1.423729 -0.354629,0.573672 -0.61017,1.220347 -0.766623,1.940026 -0.156454,0.719694 -0.234681,1.42895 -0.23468,2.12777 -1e-6,0.709262 0.08344,1.418518 0.250326,2.127771 0.166883,0.698829 0.438069,1.329859 0.813559,1.89309 0.375487,0.563234 0.860493,1.022165 1.455019,1.376792 0.594521,0.354629 1.314207,0.531943 2.159062,0.531943 0.427634,0 0.834413,-0.09909 1.220339,-0.297262 0.396342,-0.187744 0.771831,-0.385919 1.126466,-0.594524 l 0,0.704042 1.486311,0"
           inkscape:connector-curvature="0"
           id="path3740"
           style="fill:#666666" />
      </g>
      <path
         d="M 65.59375,11.09375 C 55.570299,12.873116 45.510057,14.561551 35.5,16.40625 c -1.976426,0.763306 -1.032104,3.248014 -1.25,4.862345 0,10.483385 0,20.96677 0,31.450155 -5.743588,-0.705556 -12.716357,3.965802 -11.706151,10.277769 1.449384,5.905893 9.111296,7.150188 13.923409,4.726775 4.082721,-1.648294 6.412323,-6.067586 5.970242,-10.330326 0,-8.589323 0,-17.178645 0,-25.767968 5.65625,-1.020833 11.3125,-2.041667 16.96875,-3.0625 0,6.822917 0,13.645833 0,20.46875 -5.761066,-0.775148 -12.673841,4.002882 -11.706028,10.279238 1.450931,5.904745 9.111422,7.148456 13.923284,4.725305 4.082722,-1.648294 6.412325,-6.067584 5.970244,-10.330325 -0.02094,-13.70261 0.04182,-27.415525 -0.03125,-41.111718 -0.186043,-0.909516 -1.057449,-1.550559 -1.96875,-1.5 z"
         inkscape:connector-curvature="0"
         id="path4241"
         style="opacity:0.05;fill:#005ef5;fill-opacity:1;stroke:none;display:inline" />
      <path
         inkscape:connector-curvature="0"
         d="M 66.5625,14.0625 36.96875,19.25 a 0.93646586,0.93646586 0 0 0 -0.78125,0.9375 l 0,35.53125 c -1.615631,-0.233816 -3.344544,-0.215979 -5.09375,0.34375 -2.350084,0.752004 -4.250012,2.128862 -5.4375,3.8125 -1.187488,1.683638 -1.650786,3.745036 -0.96875,5.65625 0.681739,1.910383 2.34228,3.248395 4.34375,3.90625 2.00147,0.657855 4.366814,0.690097 6.71875,-0.0625 3.816499,-1.221242 6.437311,-4.152185 6.625,-7.3125 A 0.93646586,0.93646586 0 0 0 42.5,61.59375 l 0,-28.78125 18.84375,-3.375 0,22.59375 c -1.611033,-0.241588 -3.337805,-0.249386 -5.09375,0.3125 -2.352024,0.752625 -4.250856,2.152494 -5.4375,3.84375 -1.186644,1.691256 -1.651115,3.744122 -0.96875,5.65625 0.681735,1.910384 2.342279,3.248395 4.34375,3.90625 2.001471,0.657855 4.366815,0.690097 6.71875,-0.0625 3.816495,-1.221243 6.437313,-4.152184 6.625,-7.3125 a 0.93646586,0.93646586 0 0 0 0.125,-0.46875 L 67.65625,15 A 0.93646586,0.93646586 0 0 0 66.5625,14.0625 z"
         transform="translate(-1,-2)"
         id="path4237"
         style="opacity:0.12000002;fill:#005ef5;fill-opacity:1;stroke:none;display:inline" />
      <path
         d="m 65.71233,13 -29.589041,5.178082 0,36.570206 c -1.715629,-0.463185 -3.744472,-0.435619 -5.755993,0.208048 -4.347078,1.391023 -6.937344,5.094835 -5.802225,8.275685 1.135118,3.18085 5.569873,4.627324 9.916951,3.236301 3.713254,-1.188205 6.131025,-4.06923 6.056507,-6.865582 l 0.02312,0 0,-29.589041 20.712321,-3.69863 0,24.734589 c -1.71562,-0.463186 -3.744466,-0.43562 -5.755986,0.208048 -4.34708,1.391023 -6.937343,5.094835 -5.80222,8.275685 1.13511,3.18085 5.56987,4.627324 9.916946,3.236301 3.71325,-1.188206 6.13102,-4.06923 6.0565,-6.865582 l 0.0231,0 0,-42.90411 z"
         inkscape:connector-curvature="0"
         id="path4140"
         style="opacity:0.3;fill:#005ef5;fill-opacity:1;stroke:none;display:inline" />
      <g
         transform="matrix(0.73972603,0,0,0.73972603,6.534248,7.5616441)"
         id="g4093"
         style="display:inline">
        <path
           d="M 80,5.9999999 40,13 40,62.4375 c -2.319276,-0.626158 -5.061972,-0.588893 -7.78125,0.28125 -5.876605,1.880457 -9.378261,6.887462 -7.843749,11.1875 1.534512,4.300038 7.529643,6.255457 13.406249,4.375 C 42.801019,76.674972 46.069487,72.780254 45.96875,69 L 46,69 46,29 74,24 74,57.4375 c -2.319276,-0.626158 -5.061972,-0.588893 -7.78125,0.28125 -5.876606,1.880457 -9.378262,6.887462 -7.84375,11.1875 1.534512,4.300038 7.529644,6.255457 13.40625,4.375 C 76.801019,71.674972 80.069487,67.780254 79.96875,64 L 80,64 80,5.9999999 z"
           inkscape:connector-curvature="0"
           id="path3011"
           style="fill:#0046b5;fill-opacity:1;stroke:none;display:inline" />
        <path
           d="M 42,16 42,29 78,22 78,8.9999999 42,16 z"
           inkscape:connector-curvature="0"
           id="path3796"
           style="fill:url(#radialGradient4110-3);fill-opacity:1;stroke:none;display:inline;filter:url(#filter3810-9)" />
        <path
           d="M 79,7.9999999 41,15 41,62.75 c 0.722607,0.272294 1.402627,0.590247 2,1 L 43,30 c 0,-4 0.417188,-5.500626 4,-7 10.867162,-4.547809 27,-2 32,-15.0000001 z"
           inkscape:connector-curvature="0"
           id="path3814"
           style="fill:url(#radialGradient4112-0);fill-opacity:1;stroke:none;display:inline" />
        <path
           d="M 80,5.9999999 77,6.5312499 77,70.25 C 78.916539,68.443002 80.027571,66.207324 79.96875,64 L 80,64 80,5.9999999 z"
           inkscape:connector-curvature="0"
           id="path3850"
           style="fill:url(#linearGradient4114-8);fill-opacity:1;stroke:none;display:inline" />
        <path
           d="m 40,13 1,2 38,-7.0000001 1,-2 L 40,13 z"
           inkscape:connector-curvature="0"
           id="path3826"
           style="fill:url(#linearGradient4116-8);fill-opacity:1;stroke:none;display:inline" />
        <path
           d="M 77.0625,23.4375 75,23.78125 75,57.75 c 0.722607,0.272294 1.402627,0.590247 2,1 L 77,25 c 0,-0.579491 0.03663,-1.080328 0.0625,-1.5625 z"
           inkscape:connector-curvature="0"
           id="path3841"
           style="fill:url(#radialGradient4118-3);fill-opacity:1;stroke:none;display:inline" />
        <path
           d="M 46,29 43,29.53125 43,75.25 C 44.916539,73.443002 46.027571,71.207324 45.96875,69 L 46,69 46,29 z"
           inkscape:connector-curvature="0"
           id="path3870"
           style="fill:url(#radialGradient4120-3);fill-opacity:1;stroke:none;display:inline" />
        <path
           inkscape:connector-curvature="0"
           d="m 51,65 a 11,8 0 1 1 -22,0 11,8 0 1 1 22,0 z"
           transform="matrix(0.9673215,-0.30953355,0.34730992,0.97323843,-26.26801,19.620844)"
           id="path3906"
           style="color:#000000;fill:url(#radialGradient4122-3);fill-opacity:1;fill-rule:nonzero;stroke:none;stroke-width:1.5;marker:none;visibility:visible;display:inline;overflow:visible;enable-background:accumulate" />
        <path
           d="m 36.59375,62 c -1.413615,0.01337 -2.905848,0.248636 -4.375,0.71875 -5.876605,1.880457 -9.378261,6.887462 -7.843749,11.1875 1.534512,4.300038 7.529643,6.255457 13.406249,4.375 5.876606,-1.880457 9.378262,-6.887462 7.84375,-11.1875 C 44.474116,63.868722 40.834595,61.959906 36.59375,62 z m 0.09375,1.84375 c 1.225586,-0.01097 2.347709,0.174813 3.34375,0.5 1.992081,0.650375 3.312347,1.823394 3.84375,3.3125 0.531403,1.489106 0.260889,3.182456 -0.90625,4.84375 -1.167139,1.661294 -3.221645,3.202202 -5.8125,4.03125 -2.590855,0.829048 -5.195419,0.775375 -7.187499,0.125 -1.992081,-0.650375 -3.312347,-1.823394 -3.84375,-3.3125 -0.531403,-1.489106 -0.260889,-3.182456 0.90625,-4.84375 1.167139,-1.661294 3.221645,-3.202202 5.812499,-4.03125 1.295427,-0.414524 2.618164,-0.614034 3.84375,-0.625 z"
           inkscape:connector-curvature="0"
           id="path3927"
           style="opacity:0.2;color:#000000;fill:url(#linearGradient4124-1);fill-opacity:1;fill-rule:nonzero;stroke:none;stroke-width:1.5;marker:none;visibility:visible;display:inline;overflow:visible;enable-background:accumulate" />
        <path
           d="m 36.59375,62 c -1.413615,0.01337 -2.905848,0.248636 -4.375,0.71875 -5.876605,1.880457 -9.378261,6.887462 -7.843749,11.1875 1.534512,4.300038 7.529643,6.255457 13.406249,4.375 5.876606,-1.880457 9.378262,-6.887462 7.84375,-11.1875 C 44.474116,63.868722 40.834595,61.959906 36.59375,62 z m 0.03125,1.03125 c 1.308148,-0.01099 2.561427,0.173812 3.65625,0.53125 2.189647,0.714875 3.768044,2.055356 4.40625,3.84375 0.638206,1.788394 0.220391,3.767696 -1.0625,5.59375 -1.282891,1.826054 -3.439308,3.433105 -6.1875,4.3125 -2.748192,0.879395 -5.529103,0.839875 -7.718749,0.125 -2.189647,-0.714875 -3.768044,-2.055356 -4.40625,-3.84375 -0.638206,-1.788394 -0.220391,-3.767696 1.0625,-5.59375 1.282891,-1.826054 3.439308,-3.433105 6.187499,-4.3125 1.374096,-0.439698 2.754352,-0.645258 4.0625,-0.65625 z"
           inkscape:connector-curvature="0"
           id="path3920"
           style="opacity:0.5;color:#000000;fill:url(#linearGradient4126-6);fill-opacity:1;fill-rule:nonzero;stroke:none;stroke-width:1.5;marker:none;visibility:visible;display:inline;overflow:visible;enable-background:accumulate" />
        <path
           d="m 40,65 c 1.220869,2.476881 -1.444191,5.171368 -5.407201,7.124758 -3.963009,1.95339 -7.723257,2.425975 -8.944126,-0.05091 -1.220869,-2.476881 1.002075,-6.068326 4.965085,-8.021716 3.963009,-1.95339 8.165373,-1.529017 9.386242,0.947864 z"
           inkscape:connector-curvature="0"
           id="path3891"
           style="color:#000000;fill:url(#linearGradient4128-7);fill-opacity:1;fill-rule:nonzero;stroke:none;stroke-width:1.5;marker:none;visibility:visible;display:inline;overflow:visible;enable-background:accumulate" />
        <path
           inkscape:connector-curvature="0"
           d="m 51,65 a 11,8 0 1 1 -22,0 11,8 0 1 1 22,0 z"
           transform="matrix(0.9673215,-0.30953355,0.34730992,0.97323843,7.7319904,14.620844)"
           id="path3966"
           style="color:#000000;fill:url(#radialGradient4130-4);fill-opacity:1;fill-rule:nonzero;stroke:none;stroke-width:1.5;marker:none;visibility:visible;display:inline;overflow:visible;enable-background:accumulate" />
        <path
           d="m 70.59375,57 c -1.413615,0.01337 -2.905848,0.248636 -4.375,0.71875 -5.876606,1.880457 -9.378262,6.887462 -7.84375,11.1875 1.534512,4.300038 7.529644,6.255457 13.40625,4.375 5.876606,-1.880457 9.378262,-6.887462 7.84375,-11.1875 C 78.474116,58.868722 74.834595,56.959906 70.59375,57 z m 0.09375,1.84375 c 1.225586,-0.01097 2.347709,0.174813 3.34375,0.5 1.992081,0.650375 3.312347,1.823394 3.84375,3.3125 0.531403,1.489106 0.260889,3.182456 -0.90625,4.84375 -1.167139,1.661294 -3.221645,3.202202 -5.8125,4.03125 -2.590855,0.829048 -5.195419,0.775375 -7.1875,0.125 -1.992081,-0.650375 -3.312347,-1.823394 -3.84375,-3.3125 -0.531403,-1.489106 -0.260889,-3.182456 0.90625,-4.84375 1.167139,-1.661294 3.221645,-3.202202 5.8125,-4.03125 1.295427,-0.414524 2.618164,-0.614034 3.84375,-0.625 z"
           inkscape:connector-curvature="0"
           id="path3968"
           style="opacity:0.2;color:#000000;fill:url(#linearGradient4132-9);fill-opacity:1;fill-rule:nonzero;stroke:none;stroke-width:1.5;marker:none;visibility:visible;display:inline;overflow:visible;enable-background:accumulate" />
        <path
           d="m 70.59375,57 c -1.413615,0.01337 -2.905848,0.248636 -4.375,0.71875 -5.876606,1.880457 -9.378262,6.887462 -7.84375,11.1875 1.534512,4.300038 7.529644,6.255457 13.40625,4.375 5.876606,-1.880457 9.378262,-6.887462 7.84375,-11.1875 C 78.474116,58.868722 74.834595,56.959906 70.59375,57 z m 0.03125,1.03125 c 1.308148,-0.01099 2.561427,0.173812 3.65625,0.53125 2.189647,0.714875 3.768044,2.055356 4.40625,3.84375 0.638206,1.788394 0.220391,3.767696 -1.0625,5.59375 -1.282891,1.826054 -3.439308,3.433105 -6.1875,4.3125 -2.748192,0.879395 -5.529103,0.839875 -7.71875,0.125 C 61.529103,71.722625 59.950706,70.382144 59.3125,68.59375 58.674294,66.805356 59.092109,64.826054 60.375,63 c 1.282891,-1.826054 3.439308,-3.433105 6.1875,-4.3125 1.374096,-0.439698 2.754352,-0.645258 4.0625,-0.65625 z"
           inkscape:connector-curvature="0"
           id="path3970"
           style="opacity:0.5;color:#000000;fill:url(#linearGradient4134-5);fill-opacity:1;fill-rule:nonzero;stroke:none;stroke-width:1.5;marker:none;visibility:visible;display:inline;overflow:visible;enable-background:accumulate" />
        <path
           d="m 74,60 c 1.220869,2.476881 -1.444191,5.171368 -5.407201,7.124758 -3.96301,1.95339 -7.723258,2.425975 -8.944127,-0.05091 -1.220869,-2.476881 1.002075,-6.068326 4.965085,-8.021716 3.96301,-1.95339 8.165374,-1.529017 9.386243,0.947864 z"
           inkscape:connector-curvature="0"
           id="path3972"
           style="color:#000000;fill:url(#linearGradient4136-2);fill-opacity:1;fill-rule:nonzero;stroke:none;stroke-width:1.5;marker:none;visibility:visible;display:inline;overflow:visible;enable-background:accumulate" />
      </g>
    </g>
    <rect
       ry="25"
       rx="25"
       id="rect3003"
       style="opacity:0.15;fill:#ffffff;fill-opacity:1"
       height="92"
       width="92"
       y="958.36218"
       x="-96"
       clip-path="url(#clipPath3009)"
       transform="translate(98,3.8281269e-7)" />
  </g>
</svg>
