<?xml version="1.0" encoding="UTF-8" standalone="no"?>
<!-- Created with Inkscape (http://www.inkscape.org/) -->

<svg
   xmlns:dc="http://purl.org/dc/elements/1.1/"
   xmlns:cc="http://creativecommons.org/ns#"
   xmlns:rdf="http://www.w3.org/1999/02/22-rdf-syntax-ns#"
   xmlns:svg="http://www.w3.org/2000/svg"
   xmlns="http://www.w3.org/2000/svg"
   xmlns:xlink="http://www.w3.org/1999/xlink"
   xmlns:sodipodi="http://sodipodi.sourceforge.net/DTD/sodipodi-0.dtd"
   xmlns:inkscape="http://www.inkscape.org/namespaces/inkscape"
   width="96"
   height="96"
   id="svg11037"
   version="1.1"
   inkscape:version="0.48.3.1 r9886"
   sodipodi:docname="authors.svg">
  <defs
     id="defs11039">
    <linearGradient
       y2="1046.1001"
       x2="47.999954"
       y1="962.62189"
       x1="47.999954"
       gradientTransform="matrix(1.15,0,0,1.15,-7.1999462,-150.65291)"
       gradientUnits="userSpaceOnUse"
       id="linearGradient3886"
       xlink:href="#linearGradient3795"
       inkscape:collect="always" />
    <linearGradient
       id="linearGradient3795">
      <stop
         style="stop-color:#13a6fd;stop-opacity:1;"
         offset="0"
         id="stop3797" />
      <stop
         style="stop-color:#2975b6;stop-opacity:1;"
         offset="1"
         id="stop3799" />
    </linearGradient>
    <linearGradient
       y2="1046.1001"
       x2="47.999954"
       y1="962.62189"
       x1="47.999954"
       gradientTransform="matrix(1.15,0,0,1.15,-7.1999462,-150.65292)"
       gradientUnits="userSpaceOnUse"
       id="linearGradient11642"
       xlink:href="#linearGradient3700"
       inkscape:collect="always" />
    <linearGradient
       x1="48"
       y1="90"
       x2="48"
       y2="5.9877172"
       id="linearGradient3706"
       xlink:href="#linearGradient3700"
       gradientUnits="userSpaceOnUse" />
    <linearGradient
       id="linearGradient3700">
      <stop
         id="stop3702"
         style="stop-color:#e6e6e6;stop-opacity:1"
         offset="0" />
      <stop
         id="stop3704"
         style="stop-color:#f5f5f5;stop-opacity:1"
         offset="1" />
    </linearGradient>
    <linearGradient
       gradientTransform="translate(-104.82108,950.36215)"
       y2="5.9877172"
       x2="48"
       y1="90"
       x1="48"
       gradientUnits="userSpaceOnUse"
       id="linearGradient3062"
       xlink:href="#linearGradient3700"
       inkscape:collect="always" />
    <linearGradient
       x1="48"
       y1="72"
       x2="48"
       y2="24"
       id="linearGradient3871"
       xlink:href="#linearGradient3697"
       gradientUnits="userSpaceOnUse" />
    <linearGradient
       id="linearGradient3697">
      <stop
         id="stop3699"
         style="stop-color:#bababa;stop-opacity:1"
         offset="0" />
      <stop
         id="stop3701"
         style="stop-color:#d2d2d2;stop-opacity:1"
         offset="1" />
    </linearGradient>
    <clipPath
       id="clipPath3900">
      <path
         d="M 12,6 C 8.676,6 6,8.676 6,12 l 0,72 c 0,3.324 2.676,6 6,6 l 72,0 c 3.324,0 6,-2.676 6,-6 L 90,12 C 90,8.676 87.324,6 84,6 L 12,6 z m 36,18 c 7.115557,0 12.8125,5.35882 12.8125,12 -0.02737,0.804615 -0.06285,1.787246 -0.125,2.71875 1.05415,0.662894 1.106222,2.875584 0.125,5.1875 -0.349038,0.82239 -0.744935,1.488564 -1.21875,2.0625 -0.148869,0.694383 -0.215469,1.224809 -0.40625,2.03125 -0.530843,1.592528 -2.637523,4.778595 -4.21875,7.21875 -0.101571,1.619229 -0.07483,3.262268 0.125,4.90625 4.938806,4.294616 17.85451,6.574387 17.875,10.25 l 0.25,1.625 -50.4375,0 0.25,-1.625 c -0.01917,-4.294615 12.87488,-6.101614 17.875,-10.25 0.346674,-2.021237 0.170158,-3.817053 0,-5.59375 C 39.170963,52.217793 37.289098,49.429794 36.8125,48 c -0.170793,-0.781736 -0.143059,-1.09731 -0.28125,-1.78125 -0.568754,-0.612143 -1.090416,-1.347453 -1.5,-2.3125 -1.032864,-2.433596 -0.935549,-4.79607 0.28125,-5.3125 C 35.24502,37.732254 35.20355,36.7072 35.1875,36 35.1875,29.35882 40.884449,24 48,24 z"
         inkscape:connector-curvature="0"
         id="path3902"
         style="fill:#ff00ff;fill-opacity:1;fill-rule:nonzero;stroke:none" />
    </clipPath>
    <filter
       x="-0.1404973"
       y="-0.14768182"
       width="1.2809947"
       height="1.2953635"
       color-interpolation-filters="sRGB"
       id="filter3904">
      <feGaussianBlur
         id="feGaussianBlur3906"
         stdDeviation="2.9536363" />
    </filter>
    <clipPath
       clipPathUnits="userSpaceOnUse"
       id="clipPath3009">
      <path
         id="path3011"
         d="m -2,956.36218 -96,0 0,33.5624 96,25.68742 0,-59.24982 z"
         style="opacity:0.15;fill:#ffffff;fill-opacity:1;stroke:none"
         inkscape:connector-curvature="0" />
    </clipPath>
  </defs>
  <sodipodi:namedview
     id="base"
     pagecolor="#ffffff"
     bordercolor="#666666"
     borderopacity="1.0"
     inkscape:pageopacity="0.0"
     inkscape:pageshadow="2"
     inkscape:zoom="3.959798"
     inkscape:cx="33.538031"
     inkscape:cy="59.964634"
     inkscape:document-units="px"
     inkscape:current-layer="layer1"
     showgrid="false"
     inkscape:window-width="1280"
     inkscape:window-height="750"
     inkscape:window-x="0"
     inkscape:window-y="22"
     inkscape:window-maximized="1"
     showguides="true"
     inkscape:guide-bbox="true">
    <sodipodi:guide
       orientation="0,1"
       position="-24.748737,0"
       id="guide11064" />
    <sodipodi:guide
       orientation="0,1"
       position="-23.233509,96"
       id="guide11066" />
    <sodipodi:guide
       orientation="1,0"
       position="0,54.800776"
       id="guide11068" />
    <sodipodi:guide
       orientation="1,0"
       position="96,51.012704"
       id="guide11070" />
    <sodipodi:guide
       orientation="0,1"
       position="-18.94036,48"
       id="guide11072" />
    <sodipodi:guide
       orientation="1,0"
       position="48,79.296975"
       id="guide11074" />
    <sodipodi:guide
       orientation="1,0"
       position="2,75.508903"
       id="guide11076" />
    <sodipodi:guide
       orientation="0,1"
       position="-77.27667,2"
       id="guide11078" />
    <sodipodi:guide
       orientation="1,0"
       position="94,77.781746"
       id="guide11080" />
    <sodipodi:guide
       orientation="0,1"
       position="-65.912454,94"
       id="guide11082" />
  </sodipodi:namedview>
  <metadata
     id="metadata11042">
    <rdf:RDF>
      <cc:Work
         rdf:about="">
        <dc:format>image/svg+xml</dc:format>
        <dc:type
           rdf:resource="http://purl.org/dc/dcmitype/StillImage" />
        <dc:title />
      </cc:Work>
    </rdf:RDF>
  </metadata>
  <g
     inkscape:label="Layer 1"
     inkscape:groupmode="layer"
     id="layer1"
     transform="translate(0,-956.36218)">
    <rect
       x="2"
       y="958.36218"
       width="92"
       height="92"
       style="fill:url(#linearGradient11642);fill-opacity:1.0"
       id="rect3867"
       rx="25"
       ry="25" />
    <g
       transform="translate(3.7884521e-7,956.36218)"
       style="display:inline"
       id="g3102">
      <g
         id="g3064">
        <path
           d="m 48,24 c -7.115551,0 -12.818183,5.358818 -12.818183,11.999998 0.01605,0.7072 0.06889,1.729415 0.136367,2.590911 -1.216799,0.51643 -1.305592,2.884584 -0.272728,5.31818 0.409584,0.965047 0.931246,1.706041 1.5,2.318184 0.138191,0.68394 0.101933,0.990991 0.272726,1.772727 0.476598,1.429794 2.35562,4.231998 4.090907,6.545455 0.170158,1.776697 0.346674,3.569672 0,5.590909 -5.00012,4.148386 -17.882799,5.932657 -17.863633,10.227272 L 22.772728,72 73.227272,72 72.954533,70.363636 C 72.934041,66.688023 60.029712,64.43098 55.090906,60.136364 54.891074,58.492382 54.852981,56.846502 54.954552,55.227273 56.535779,52.787118 58.650981,49.592528 59.181824,48 c 0.190781,-0.806441 0.260219,-1.351072 0.409088,-2.045455 0.473815,-0.573936 0.878237,-1.223066 1.227275,-2.045456 0.981222,-2.311916 0.917797,-4.518924 -0.136353,-5.181818 0.06215,-0.931504 0.108982,-1.922658 0.136353,-2.727273 C 60.818187,29.358818 55.115563,24 48.000006,24 z"
           inkscape:connector-curvature="0"
           id="path3159"
           style="fill:url(#linearGradient3871);fill-opacity:1;stroke:none" />
        <path
           d="m 35.21875,36.5 c -0.0074,0.168627 -0.03125,0.329616 -0.03125,0.5 0.01006,0.443267 0.06024,1.051362 0.09375,1.625 0.01311,-0.0061 0.01787,-0.02557 0.03125,-0.03125 C 35.25804,37.89844 35.242494,37.154581 35.21875,36.5 z m 25.5625,0.03125 c -0.02801,0.698409 -0.04375,1.438121 -0.09375,2.1875 0.01252,0.0079 0.01901,0.02294 0.03125,0.03125 0.03266,-0.607051 0.07613,-1.231906 0.09375,-1.75 0,-0.159769 -0.02471,-0.310522 -0.03125,-0.46875 z m -26.40625,4.875 c -0.07443,0.981493 0.115987,2.227052 0.65625,3.5 0.409584,0.965047 0.931246,1.700357 1.5,2.3125 0.138191,0.68394 0.110457,0.999514 0.28125,1.78125 0.476598,1.429794 2.358463,4.217793 4.09375,6.53125 0.08508,0.888348 0.165436,1.795764 0.1875,2.71875 0.04371,-1.285165 -0.07217,-2.514544 -0.1875,-3.71875 C 39.170963,52.217793 37.289098,49.429794 36.8125,48 c -0.170793,-0.781736 -0.143059,-1.09731 -0.28125,-1.78125 -0.568754,-0.612143 -1.090416,-1.347453 -1.5,-2.3125 -0.367914,-0.866866 -0.573264,-1.730475 -0.65625,-2.5 z m 27.09375,0.03125 c -0.07699,0.761567 -0.288292,1.601782 -0.65625,2.46875 -0.349038,0.82239 -0.744935,1.488564 -1.21875,2.0625 -0.148869,0.694383 -0.215469,1.224809 -0.40625,2.03125 -0.530843,1.592528 -2.637523,4.778595 -4.21875,7.21875 -0.04571,0.728653 -0.07537,1.481905 -0.0625,2.21875 0.0076,-0.407693 0.03711,-0.813943 0.0625,-1.21875 1.581227,-2.440155 3.687907,-5.626222 4.21875,-7.21875 0.190781,-0.806441 0.257381,-1.336867 0.40625,-2.03125 0.473815,-0.573936 0.869712,-1.24011 1.21875,-2.0625 0.539794,-1.27184 0.739775,-2.500018 0.65625,-3.46875 z M 22.9375,72 l -0.15625,1 50.4375,0 -0.15625,-1 -50.125,0 z"
           inkscape:connector-curvature="0"
           id="path3873"
           style="fill:#ffffff;fill-opacity:1;stroke:none" />
        <path
           d="m 48,24 c -7.115551,0 -12.8125,5.35882 -12.8125,12 0.0031,0.136421 0.02558,0.343549 0.03125,0.5 C 35.501102,30.09593 41.067004,25 48,25 54.944375,25 60.515893,30.112358 60.78125,36.53125 60.788058,36.361512 60.807148,36.157316 60.8125,36 60.8125,29.35882 55.115557,24 48,24 z M 35.28125,38.625 c -0.754278,0.352435 -1.053673,1.414215 -0.90625,2.78125 0.06786,-0.894905 0.357176,-1.566201 0.9375,-1.8125 -0.02518,-0.321517 -0.0113,-0.627191 -0.03125,-0.96875 z m 25.4375,0.125 c -0.01806,0.335718 -0.0091,0.637044 -0.03125,0.96875 0.467714,0.294118 0.708312,0.911142 0.78125,1.6875 0.118343,-1.2305 -0.12347,-2.231086 -0.75,-2.65625 z m -5.8125,18.9375 c -0.01105,1.142855 0.04762,2.286713 0.1875,3.4375 4.938806,4.294616 17.854508,6.574387 17.875,10.25 L 73.0625,72 l 0.15625,0 -0.25,-1.625 c -0.02049,-3.675613 -12.936194,-5.955384 -17.875,-10.25 -0.09992,-0.821991 -0.165694,-1.618129 -0.1875,-2.4375 z m -13.8125,0.96875 c -0.02954,0.480089 -0.100831,0.963441 -0.1875,1.46875 -5.00012,4.148386 -17.894166,5.955385 -17.875,10.25 l -0.25,1.625 0.15625,0 0.09375,-0.625 c -0.01917,-4.294615 12.87488,-6.101614 17.875,-10.25 0.148299,-0.86464 0.189228,-1.671057 0.1875,-2.46875 z"
           inkscape:connector-curvature="0"
           id="path3882"
           style="opacity:0.2;fill:#000000;fill-opacity:1;stroke:none" />
      </g>
      <path
         style="opacity:0.6;fill:none;stroke:#ffffff;stroke-width:2;stroke-miterlimit:4;stroke-opacity:1;stroke-dasharray:none;filter:url(#filter3904)"
         id="path3898"
         clip-path="url(#clipPath3900)"
         inkscape:connector-curvature="0"
         d="m 48,24 c -7.115551,0 -12.818183,5.358818 -12.818183,11.999998 0.01605,0.7072 0.06889,1.729415 0.136367,2.590911 -1.216799,0.51643 -1.305592,2.884584 -0.272728,5.31818 0.409584,0.965047 0.931246,1.706041 1.5,2.318184 0.138191,0.68394 0.101933,0.990991 0.272726,1.772727 0.476598,1.429794 2.35562,4.231998 4.090907,6.545455 0.170158,1.776697 0.346674,3.569672 0,5.590909 -5.00012,4.148386 -17.882799,5.932657 -17.863633,10.227272 L 22.772728,72 73.227272,72 72.954533,70.363636 C 72.934041,66.688023 60.029712,64.43098 55.090906,60.136364 54.891074,58.492382 54.852981,56.846502 54.954552,55.227273 56.535779,52.787118 58.650981,49.592528 59.181824,48 c 0.190781,-0.806441 0.260219,-1.351072 0.409088,-2.045455 0.473815,-0.573936 0.878237,-1.223066 1.227275,-2.045456 0.981222,-2.311916 0.917797,-4.518924 -0.136353,-5.181818 0.06215,-0.931504 0.108982,-1.922658 0.136353,-2.727273 C 60.818187,29.358818 55.115563,24 48.000006,24 z" />
    </g>
    <rect
       ry="25"
       rx="25"
       id="rect3003"
       style="opacity:0.15;fill:#ffffff;fill-opacity:1"
       height="92"
       width="92"
       y="958.36218"
       x="-96"
       clip-path="url(#clipPath3009)"
       transform="translate(98,3.8281269e-7)" />
  </g>
</svg>
