<?xml version="1.0" encoding="UTF-8" standalone="no"?>
<!-- Created with Inkscape (http://www.inkscape.org/) -->

<svg
   xmlns:dc="http://purl.org/dc/elements/1.1/"
   xmlns:cc="http://creativecommons.org/ns#"
   xmlns:rdf="http://www.w3.org/1999/02/22-rdf-syntax-ns#"
   xmlns:svg="http://www.w3.org/2000/svg"
   xmlns="http://www.w3.org/2000/svg"
   xmlns:xlink="http://www.w3.org/1999/xlink"
   xmlns:sodipodi="http://sodipodi.sourceforge.net/DTD/sodipodi-0.dtd"
   xmlns:inkscape="http://www.inkscape.org/namespaces/inkscape"
   width="96"
   height="96"
   id="svg11037"
   version="1.1"
   inkscape:version="0.48.3.1 r9886"
   sodipodi:docname="deb.svg">
  <defs
     id="defs11039">
    <linearGradient
       y2="1046.1001"
       x2="47.999954"
       y1="962.62189"
       x1="47.999954"
       gradientTransform="matrix(1.15,0,0,1.15,-7.1999462,-150.65291)"
       gradientUnits="userSpaceOnUse"
       id="linearGradient3886"
       xlink:href="#linearGradient3795"
       inkscape:collect="always" />
    <linearGradient
       id="linearGradient3795">
      <stop
         style="stop-color:#13a6fd;stop-opacity:1;"
         offset="0"
         id="stop3797" />
      <stop
         style="stop-color:#2975b6;stop-opacity:1;"
         offset="1"
         id="stop3799" />
    </linearGradient>
    <linearGradient
       y2="1046.1001"
       x2="47.999954"
       y1="962.62189"
       x1="47.999954"
       gradientTransform="matrix(1.15,0,0,1.15,-7.1999462,-150.65292)"
       gradientUnits="userSpaceOnUse"
       id="linearGradient11642"
       xlink:href="#linearGradient3700"
       inkscape:collect="always" />
    <linearGradient
       x1="48"
       y1="90"
       x2="48"
       y2="5.9877172"
       id="linearGradient3706"
       xlink:href="#linearGradient3700"
       gradientUnits="userSpaceOnUse" />
    <linearGradient
       id="linearGradient3700">
      <stop
         id="stop3702"
         style="stop-color:#ebebeb;stop-opacity:1"
         offset="0" />
      <stop
         id="stop3704"
         style="stop-color:#fafafa;stop-opacity:1"
         offset="1" />
    </linearGradient>
    <linearGradient
       gradientTransform="translate(-109.36677,988.70481)"
       y2="5.9877172"
       x2="48"
       y1="90"
       x1="48"
       gradientUnits="userSpaceOnUse"
       id="linearGradient3075"
       xlink:href="#linearGradient3700"
       inkscape:collect="always" />
    <clipPath
       clipPathUnits="userSpaceOnUse"
       id="clipPath3009">
      <path
         id="path3011"
         d="m -2,956.36218 -96,0 0,33.5624 96,25.68742 0,-59.24982 z"
         style="opacity:0.15;fill:#ffffff;fill-opacity:1;stroke:none"
         inkscape:connector-curvature="0" />
    </clipPath>
  </defs>
  <sodipodi:namedview
     id="base"
     pagecolor="#ffffff"
     bordercolor="#666666"
     borderopacity="1.0"
     inkscape:pageopacity="0.0"
     inkscape:pageshadow="2"
     inkscape:zoom="3.959798"
     inkscape:cx="33.538031"
     inkscape:cy="59.964634"
     inkscape:document-units="px"
     inkscape:current-layer="layer1"
     showgrid="false"
     inkscape:window-width="1280"
     inkscape:window-height="750"
     inkscape:window-x="0"
     inkscape:window-y="22"
     inkscape:window-maximized="1"
     showguides="true"
     inkscape:guide-bbox="true">
    <sodipodi:guide
       orientation="0,1"
       position="-24.748737,0"
       id="guide11064" />
    <sodipodi:guide
       orientation="0,1"
       position="-23.233509,96"
       id="guide11066" />
    <sodipodi:guide
       orientation="1,0"
       position="0,54.800776"
       id="guide11068" />
    <sodipodi:guide
       orientation="1,0"
       position="96,51.012704"
       id="guide11070" />
    <sodipodi:guide
       orientation="0,1"
       position="-18.94036,48"
       id="guide11072" />
    <sodipodi:guide
       orientation="1,0"
       position="48,79.296975"
       id="guide11074" />
    <sodipodi:guide
       orientation="1,0"
       position="2,75.508903"
       id="guide11076" />
    <sodipodi:guide
       orientation="0,1"
       position="-77.27667,2"
       id="guide11078" />
    <sodipodi:guide
       orientation="1,0"
       position="94,77.781746"
       id="guide11080" />
    <sodipodi:guide
       orientation="0,1"
       position="-65.912454,94"
       id="guide11082" />
  </sodipodi:namedview>
  <metadata
     id="metadata11042">
    <rdf:RDF>
      <cc:Work
         rdf:about="">
        <dc:format>image/svg+xml</dc:format>
        <dc:type
           rdf:resource="http://purl.org/dc/dcmitype/StillImage" />
        <dc:title />
      </cc:Work>
    </rdf:RDF>
  </metadata>
  <g
     inkscape:label="Layer 1"
     inkscape:groupmode="layer"
     id="layer1"
     transform="translate(0,-956.36218)">
    <rect
       x="2"
       y="958.36218"
       width="92"
       height="92"
       style="fill:url(#linearGradient11642);fill-opacity:1.0"
       id="rect3867"
       rx="25"
       ry="25" />
    <g
       transform="translate(0,956.36218)"
       style="display:inline"
       id="layer5">
      <path
         d="m 61.407314,32.926135 c 0.04371,1.173285 -0.34237,1.743417 -0.691539,2.751588 l -0.627921,0.312261 c -0.513313,0.997487 0.05099,0.633263 -0.316633,1.4263 -0.802263,0.712421 -2.431071,2.228563 -2.952639,2.367453 -0.381221,-0.0083 0.25787,-0.449695 0.341399,-0.622094 -1.07276,0.736218 -0.861024,1.105298 -2.501974,1.553535 l -0.04759,-0.107325 c -4.045311,1.903676 -9.665037,-1.868224 -9.591222,-7.013975 -0.04274,0.326344 -0.122866,0.244758 -0.212221,0.375879 -0.208821,-2.647177 1.222821,-5.30601 3.63738,-6.393338 2.361625,-1.16843 5.13021,-0.689597 6.820694,0.888219 -0.928527,-1.216992 -2.778297,-2.507315 -4.968982,-2.38785 -2.146975,0.03497 -4.156034,1.399105 -4.826206,2.880766 -1.099469,0.692025 -1.227676,2.669031 -1.706509,3.031312 -0.645403,4.739764 1.212623,6.7867 4.356115,9.195918 0.493402,0.333143 0.138891,0.384134 0.204936,0.637634 -1.044107,-0.488545 -1.99983,-1.226705 -2.786553,-2.130465 0.417644,0.610439 0.867825,1.20388 1.450097,1.670087 -0.985347,-0.332658 -2.300923,-2.385908 -2.684087,-2.469436 1.697284,3.039081 6.885283,5.329805 9.603363,4.192942 -1.257786,0.04662 -2.855026,0.02574 -4.267244,-0.496316 -0.594898,-0.305462 -1.400561,-0.937269 -1.256328,-1.055277 3.708283,1.384535 7.537973,1.047993 10.746053,-1.523426 0.816833,-0.636177 1.708453,-1.717679 1.966322,-1.732248 -0.38802,0.583729 0.06653,0.280696 -0.231646,0.795951 0.811977,-1.311691 -0.354026,-0.534195 0.840142,-2.264986 l 0.440955,0.60704 c -0.165115,-1.089757 1.352483,-2.411647 1.198052,-4.133696 0.348198,-0.526425 0.38802,0.567218 0.01894,1.778383 0.512342,-1.343743 0.135491,-1.559849 0.266611,-2.669031 0.141319,0.372965 0.329259,0.768755 0.424927,1.162602 -0.334113,-1.299064 0.3414,-2.186799 0.509429,-2.941956 -0.166087,-0.07285 -0.515255,0.574017 -0.595871,-0.959608 0.01214,-0.666286 0.185997,-0.349169 0.252529,-0.513312 -0.13015,-0.07527 -0.473492,-0.586157 -0.681826,-1.565676 0.150059,-0.230675 0.404044,0.596842 0.609952,0.63035 -0.132577,-0.778467 -0.360338,-1.372395 -0.370051,-1.970207 -0.602183,-1.257786 -0.213193,0.168029 -0.700767,-0.540022 -0.641033,-1.997888 0.531281,-0.463778 0.610925,-1.370938 0.970293,1.405903 1.523427,3.586389 1.778384,4.489177 -0.194253,-1.100926 -0.507486,-2.167858 -0.89065,-3.199825 0.29575,0.124807 -0.475433,-2.2645 0.384136,-0.682312 -0.917358,-3.372711 -3.922931,-6.524459 -6.688604,-8.002722 0.337514,0.309348 0.764384,0.697853 0.611897,0.759042 -1.376281,-0.818289 -1.134436,-0.882878 -1.331602,-1.228647 -1.119381,-0.456008 -1.194168,0.03739 -1.934756,9.71e-4 -2.112497,-1.120838 -2.519457,-1.001858 -4.463438,-1.70311 l 0.08838,0.413758 c -1.399103,-0.466206 -1.630265,0.175799 -3.142035,9.72e-4 -0.09179,-0.07139 0.48466,-0.260299 0.959607,-0.328773 -1.352969,0.178712 -1.289837,-0.267097 -2.613667,0.04905 0.325858,-0.228733 0.671627,-0.380735 1.01934,-0.574988 -1.10287,0.06702 -2.634065,0.642005 -2.161547,0.118494 -1.799264,0.803235 -4.995205,1.930385 -6.788641,3.612127 l -0.05633,-0.37685 c -0.82169,0.986318 -3.583475,2.945841 -3.803466,4.224508 l -0.219992,0.05099 c -0.42687,0.724076 -0.704166,1.544308 -1.043137,2.288781 -0.558962,0.953295 -0.819745,0.367137 -0.740102,0.516712 -1.099955,2.23002 -1.647261,4.103586 -2.118811,5.641095 0.336058,0.502628 0.0083,3.026456 0.135006,5.046197 -0.551676,9.976813 7.001835,19.662733 15.258542,21.898581 1.210193,0.433669 3.009459,0.418129 4.540169,0.460864 -1.805578,-0.516712 -2.038681,-0.27341 -3.79861,-0.886763 -1.268955,-0.598298 -1.546736,-1.280611 -2.446125,-2.06102 l 0.355967,0.628892 C 42.815399,54.854338 43.553073,54.70622 42.118519,54.252155 l 0.380249,-0.49583 c -0.57159,-0.04371 -1.513714,-0.962522 -1.771099,-1.47292 l -0.625494,0.02477 c -0.750786,-0.925614 -1.15143,-1.594328 -1.121807,-2.112497 l -0.202023,0.360339 c -0.228732,-0.392876 -2.763729,-3.47615 -1.44864,-2.758387 -0.244272,-0.22242 -0.56916,-0.362767 -0.921242,-1.003315 l 0.267582,-0.305462 c -0.631806,-0.814404 -1.164543,-1.858026 -1.12375,-2.205739 0.337513,0.455523 0.571587,0.540994 0.80372,0.619181 -1.598213,-3.964695 -1.688056,-0.218048 -2.897764,-4.035598 l 0.255443,-0.0204 c -0.19571,-0.296721 -0.315661,-0.616752 -0.473006,-0.931927 l 0.111695,-1.109668 c -1.149975,-1.328688 -0.321487,-5.655179 -0.154916,-8.027489 0.114124,-0.964464 0.960093,-1.991574 1.602584,-3.602414 l -0.391419,-0.06702 c 0.748844,-1.305377 4.274529,-5.244334 5.908192,-5.042312 0.791094,-0.993602 -0.157343,-0.0039 -0.31226,-0.253499 1.738074,-1.798294 2.284411,-1.270412 3.457211,-1.594328 1.264099,-0.750301 -1.085387,0.293321 -0.486117,-0.286037 2.186798,-0.557991 1.549165,-1.269441 4.401279,-1.552564 0.301091,0.170942 -0.697854,0.264183 -0.948439,0.486117 1.821117,-0.891619 5.763959,-0.68814 8.326151,0.494373 2.970609,1.389392 6.310296,5.494434 6.442387,9.356661 l 0.150061,0.04031 c -0.07576,1.535566 0.235045,3.311521 -0.304492,4.942271 l 0.36471,-0.772639"
         inkscape:connector-curvature="0"
         id="path2536"
         style="fill:#d70751;display:inline" />
      <g
         transform="matrix(0.4856315,0,0,0.4856315,21.591845,14.004961)"
         id="g2608"
         style="display:inline">
        <path
           d="m 13.437,125.506 c -0.045,0.047 -0.045,7.506 -0.138,9.453 -0.092,1.574 -0.232,4.957 -3.568,4.957 -3.429,0 -4.263,-3.939 -4.541,-5.652 -0.324,-1.9 -0.324,-3.477 -0.324,-4.17 0,-2.225 0.139,-8.436 5.375,-8.436 1.576,0 2.456,0.465 3.151,0.834 l 0.045,3.014 z M 0,130.975 c 0,13.066 6.951,13.066 7.97,13.066 2.873,0 4.727,-1.576 5.514,-4.309 l 0.093,4.123 c 0.881,-0.047 1.761,-0.139 3.197,-0.139 0.51,0 0.926,0 1.298,0.047 0.371,0 0.741,0.045 1.158,0.092 -0.741,-1.482 -1.297,-4.818 -1.297,-12.049 0,-7.043 0,-18.951 0.602,-22.566 -1.667,0.789 -3.105,1.299 -6.256,1.576 1.251,1.344 1.251,2.039 1.251,8.154 -0.879,-0.277 -1.992,-0.602 -3.892,-0.602 C 1.344,118.369 0,125.598 0,130.975"
           inkscape:connector-curvature="0"
           id="path2550" />
        <path
           d="m 25.13,128.609 c 0.047,-3.846 0.835,-7.275 4.124,-7.275 3.615,0 3.891,3.984 3.799,7.275 l -7.923,0 z m 12.51,0.465 c 0,-5.422 -1.065,-10.752 -7.923,-10.752 -9.452,0 -9.452,10.475 -9.452,12.697 0,9.406 4.216,13.113 11.306,13.113 3.149,0 4.68,-0.461 5.514,-0.695 -0.046,-1.668 0.185,-2.734 0.465,-4.17 -0.975,0.604 -2.226,1.391 -5.006,1.391 -7.229,0 -7.322,-6.582 -7.322,-8.852 l 12.328,0 0.09,-2.732"
           inkscape:connector-curvature="0"
           id="path2552" />
        <path
           d="m 52.715,131.066 c 0,4.309 -0.787,10.102 -6.162,10.102 -0.742,0 -1.668,-0.141 -2.27,-0.279 -0.093,-1.668 -0.093,-4.541 -0.093,-7.877 0,-3.986 0.416,-6.068 0.742,-7.09 0.972,-3.289 3.15,-3.334 3.566,-3.334 3.522,0 4.217,4.865 4.217,8.478 z m -13.298,5.051 c 0,3.43 0,5.375 -0.556,6.857 1.9,0.742 4.262,1.158 7.09,1.158 1.807,0 7.043,0 9.869,-5.791 1.344,-2.688 1.807,-6.303 1.807,-9.037 0,-1.668 -0.186,-5.328 -1.529,-7.646 -1.296,-2.176 -3.382,-3.289 -5.605,-3.289 -4.449,0 -5.746,3.707 -6.44,5.607 0,-2.363 0.045,-10.611 0.415,-14.828 -3.011,1.391 -4.866,1.621 -6.857,1.807 1.807,0.74 1.807,3.801 1.807,13.764 l 0,11.398"
           inkscape:connector-curvature="0"
           id="path2554" />
        <path
           d="m 66.535,143.855 c -0.928,-0.139 -1.578,-0.232 -2.922,-0.232 -1.48,0 -2.502,0.094 -3.566,0.232 0.463,-0.881 0.648,-1.299 0.787,-4.309 0.186,-4.125 0.232,-15.154 -0.092,-17.471 -0.232,-1.762 -0.648,-2.039 -1.297,-2.502 3.799,-0.371 4.865,-0.648 6.625,-1.482 -0.369,2.037 -0.418,3.059 -0.418,6.162 -0.091,15.989 -0.138,17.702 0.883,19.602"
           inkscape:connector-curvature="0"
           id="path2556" />
        <path
           d="m 81.373,130.74 c -0.092,2.92 -0.139,4.959 -0.928,6.58 -0.973,2.086 -2.594,2.688 -3.799,2.688 -2.783,0 -3.383,-2.316 -3.383,-4.586 0,-4.355 3.893,-4.682 5.652,-4.682 l 2.458,0 z m -12.744,5.701 c 0,2.92 0.881,5.838 3.477,7.09 1.158,0.51 2.316,0.51 2.688,0.51 4.264,0 5.699,-3.152 6.58,-5.098 -0.047,2.039 0,3.289 0.139,4.912 0.834,-0.047 1.668,-0.139 3.059,-0.139 0.787,0 1.529,0.092 2.316,0.139 -0.51,-0.787 -0.787,-1.252 -0.928,-3.059 -0.092,-1.76 -0.092,-3.521 -0.092,-5.977 l 0.047,-9.453 c 0,-3.523 -0.928,-6.998 -7.879,-6.998 -4.586,0 -7.273,1.391 -8.617,2.086 0.557,1.02 1.02,1.898 1.436,3.893 1.809,-1.576 4.172,-2.41 6.58,-2.41 3.848,0 3.848,2.549 3.848,6.162 -0.881,-0.045 -1.623,-0.137 -2.875,-0.137 -5.887,10e-4 -9.779,2.268 -9.779,8.479"
           inkscape:connector-curvature="0"
           id="path2558" />
        <path
           d="m 108.063,139.268 c 0.047,1.576 0.047,3.244 0.695,4.588 -1.021,-0.092 -1.623,-0.232 -3.521,-0.232 -1.113,0 -1.715,0.094 -2.596,0.232 0.184,-0.602 0.279,-0.834 0.371,-1.623 0.139,-1.064 0.232,-4.633 0.232,-5.885 l 0,-5.004 c 0,-2.178 0,-5.33 -0.141,-6.441 -0.092,-0.787 -0.322,-2.918 -3.012,-2.918 -2.641,0 -3.521,1.945 -3.846,3.521 -0.369,1.621 -0.369,3.383 -0.369,10.24 0.045,5.932 0.045,6.486 0.508,8.109 -0.787,-0.092 -1.76,-0.184 -3.15,-0.184 -1.113,0 -1.854,0.045 -2.779,0.184 0.324,-0.742 0.51,-1.113 0.602,-3.707 0.094,-2.549 0.279,-15.061 -0.141,-18.025 -0.23,-1.809 -0.695,-2.225 -1.203,-2.688 3.754,-0.186 4.957,-0.789 6.117,-1.389 l 0,4.91 c 0.555,-1.438 1.713,-4.635 6.348,-4.635 5.793,0 5.838,4.217 5.885,6.996 l 0,13.951"
           inkscape:connector-curvature="0"
           id="path2560" />
        <path
           d="m 66.926,111.533 -3.838,3.836 -3.836,-3.836 3.836,-3.836 3.838,3.836"
           inkscape:connector-curvature="0"
           id="path2562"
           style="fill:#d70751" />
      </g>
    </g>
    <rect
       ry="25"
       rx="25"
       id="rect3003"
       style="opacity:0.15;fill:#ffffff;fill-opacity:1"
       height="92"
       width="92"
       y="958.36218"
       x="-96"
       clip-path="url(#clipPath3009)"
       transform="translate(98,3.8281269e-7)" />
  </g>
</svg>
