<?xml version="1.0" encoding="UTF-8" standalone="no"?>
<!-- Created with Inkscape (http://www.inkscape.org/) -->

<svg
   xmlns:dc="http://purl.org/dc/elements/1.1/"
   xmlns:cc="http://creativecommons.org/ns#"
   xmlns:rdf="http://www.w3.org/1999/02/22-rdf-syntax-ns#"
   xmlns:svg="http://www.w3.org/2000/svg"
   xmlns="http://www.w3.org/2000/svg"
   xmlns:xlink="http://www.w3.org/1999/xlink"
   xmlns:sodipodi="http://sodipodi.sourceforge.net/DTD/sodipodi-0.dtd"
   xmlns:inkscape="http://www.inkscape.org/namespaces/inkscape"
   width="96"
   height="96"
   id="svg11037"
   version="1.1"
   inkscape:version="0.48.3.1 r9886"
   sodipodi:docname="extension.svg">
  <defs
     id="defs11039">
    <linearGradient
       y2="1046.1001"
       x2="47.999954"
       y1="962.62189"
       x1="47.999954"
       gradientTransform="matrix(1.15,0,0,1.15,-7.1999462,-150.65291)"
       gradientUnits="userSpaceOnUse"
       id="linearGradient3886"
       xlink:href="#linearGradient3795"
       inkscape:collect="always" />
    <linearGradient
       id="linearGradient3795">
      <stop
         style="stop-color:#13a6fd;stop-opacity:1;"
         offset="0"
         id="stop3797" />
      <stop
         style="stop-color:#2975b6;stop-opacity:1;"
         offset="1"
         id="stop3799" />
    </linearGradient>
    <linearGradient
       y2="1046.1001"
       x2="47.999954"
       y1="962.62189"
       x1="47.999954"
       gradientTransform="matrix(1.15,0,0,1.15,-7.1999462,-150.65292)"
       gradientUnits="userSpaceOnUse"
       id="linearGradient11642"
       xlink:href="#linearGradient3700-7"
       inkscape:collect="always" />
    <linearGradient
       x1="48"
       y1="90"
       x2="48"
       y2="5.9877172"
       id="linearGradient3100"
       xlink:href="#linearGradient3700-7"
       gradientUnits="userSpaceOnUse" />
    <linearGradient
       id="linearGradient3700-7">
      <stop
         id="stop3702-2"
         style="stop-color:#e6e6e6;stop-opacity:1"
         offset="0" />
      <stop
         id="stop3704-9"
         style="stop-color:#f5f5f5;stop-opacity:1"
         offset="1" />
    </linearGradient>
    <linearGradient
       gradientTransform="translate(-79.819805,994.51319)"
       y2="5.9877172"
       x2="48"
       y1="90"
       x1="48"
       gradientUnits="userSpaceOnUse"
       id="linearGradient3060"
       xlink:href="#linearGradient3700-7"
       inkscape:collect="always" />
    <linearGradient
       x1="48"
       y1="64"
       x2="48"
       y2="24"
       id="linearGradient4142"
       xlink:href="#linearGradient3317"
       gradientUnits="userSpaceOnUse" />
    <linearGradient
       id="linearGradient3317">
      <stop
         id="stop3319"
         style="stop-color:#6ab300;stop-opacity:1"
         offset="0" />
      <stop
         id="stop3321"
         style="stop-color:#9dcf00;stop-opacity:1"
         offset="1" />
    </linearGradient>
    <clipPath
       clipPathUnits="userSpaceOnUse"
       id="clipPath3009">
      <path
         id="path3011"
         d="m -2,956.36218 -96,0 0,33.5624 96,25.68742 0,-59.24982 z"
         style="opacity:0.15;fill:#ffffff;fill-opacity:1;stroke:none"
         inkscape:connector-curvature="0" />
    </clipPath>
  </defs>
  <sodipodi:namedview
     id="base"
     pagecolor="#ffffff"
     bordercolor="#666666"
     borderopacity="1.0"
     inkscape:pageopacity="0.0"
     inkscape:pageshadow="2"
     inkscape:zoom="3.959798"
     inkscape:cx="33.538031"
     inkscape:cy="59.964634"
     inkscape:document-units="px"
     inkscape:current-layer="layer1"
     showgrid="false"
     inkscape:window-width="1280"
     inkscape:window-height="750"
     inkscape:window-x="0"
     inkscape:window-y="22"
     inkscape:window-maximized="1"
     showguides="true"
     inkscape:guide-bbox="true">
    <sodipodi:guide
       orientation="0,1"
       position="-24.748737,0"
       id="guide11064" />
    <sodipodi:guide
       orientation="0,1"
       position="-23.233509,96"
       id="guide11066" />
    <sodipodi:guide
       orientation="1,0"
       position="0,54.800776"
       id="guide11068" />
    <sodipodi:guide
       orientation="1,0"
       position="96,51.012704"
       id="guide11070" />
    <sodipodi:guide
       orientation="0,1"
       position="-18.94036,48"
       id="guide11072" />
    <sodipodi:guide
       orientation="1,0"
       position="48,79.296975"
       id="guide11074" />
    <sodipodi:guide
       orientation="1,0"
       position="2,75.508903"
       id="guide11076" />
    <sodipodi:guide
       orientation="0,1"
       position="-77.27667,2"
       id="guide11078" />
    <sodipodi:guide
       orientation="1,0"
       position="94,77.781746"
       id="guide11080" />
    <sodipodi:guide
       orientation="0,1"
       position="-65.912454,94"
       id="guide11082" />
  </sodipodi:namedview>
  <metadata
     id="metadata11042">
    <rdf:RDF>
      <cc:Work
         rdf:about="">
        <dc:format>image/svg+xml</dc:format>
        <dc:type
           rdf:resource="http://purl.org/dc/dcmitype/StillImage" />
        <dc:title />
      </cc:Work>
    </rdf:RDF>
  </metadata>
  <g
     inkscape:label="Layer 1"
     inkscape:groupmode="layer"
     id="layer1"
     transform="translate(0,-956.36218)">
    <rect
       x="2"
       y="958.36218"
       width="92"
       height="92"
       style="fill:url(#linearGradient11642);fill-opacity:1.0"
       id="rect3867"
       rx="25"
       ry="25" />
    <g
       transform="translate(0,956.36218)"
       style="display:inline"
       id="layer4">
      <path
         d="m 48.5,17 c -3.589851,0 -6.5,2.014719 -6.5,4.5 0.10443,0.9272 0.690589,2.098034 1,2.5 1.5,2 1.5,3.25 1.125,4 L 32,28 c -2.216,0 -4,1.784 -4,4 l 0,10.125 C 28.75,42.5 30,42.5 32,41 c 0.401966,-0.309411 1.5728,-0.89557 2.5,-1 2.485281,0 4.5,2.910149 4.5,6.5 C 39,50.089851 36.985281,53 34.5,53 33.737238,52.98708 32.577629,52.304895 32,52 30,50.5 28.75,50.5 28,50.875 L 28,64 c 0,2.216 1.784,4 4,4 l 16.125,0 C 48.5,67.25 48.5,66 47,64 46.690589,63.598034 46.10443,62.4272 46,61.5 46,59.014719 48.910149,57 52.5,57 c 3.589851,0 6.5,2.014719 6.5,4.5 -0.01292,0.762762 -0.695105,1.922371 -1,2.5 -1.5,2 -1.5,3.25 -1.125,4 L 64,68 c 2.216,0 4,-1.784 4,-4 L 68,52.875 C 68.75,52.5 70,52.5 72,54 c 0.577629,0.304895 1.737238,0.987081 2.5,1 2.485281,0 4.5,-2.910149 4.5,-6.5 0,-3.589851 -2.014719,-6.5 -4.5,-6.5 -0.9272,0.10443 -2.098034,0.690589 -2.5,1 -2,1.5 -3.25,1.5 -4,1.125 L 68,32 c 0,-2.216 -1.784,-4 -4,-4 L 52.875,28 C 52.5,27.25 52.5,26 54,24 54.304895,23.422371 54.987081,22.262762 55,21.5 55,19.014719 52.089851,17 48.5,17 z"
         inkscape:connector-curvature="0"
         id="rect4096"
         style="color:#000000;fill:url(#linearGradient4142);fill-opacity:1;fill-rule:nonzero;stroke:none;stroke-width:2;marker:none;visibility:visible;display:inline;overflow:visible;enable-background:accumulate" />
      <path
         d="m 48.5,17 c -3.589851,0 -6.5,2.014719 -6.5,4.5 0.10443,0.9272 0.690589,2.098034 1,2.5 1.5,2 1.5,3.25 1.125,4 L 32,28 c -2.216,0 -4,1.784 -4,4 l 0,10.125 C 28.75,42.5 30,42.5 32,41 c 0.401966,-0.309411 1.5728,-0.89557 2.5,-1 2.485281,0 4.5,2.910149 4.5,6.5 C 39,50.089851 36.985281,53 34.5,53 33.737238,52.98708 32.577629,52.304895 32,52 30,50.5 28.75,50.5 28,50.875 L 28,64 c 0,2.216 1.784,4 4,4 l 16.125,0 C 48.5,67.25 48.5,66 47,64 46.690589,63.598034 46.10443,62.4272 46,61.5 46,59.014719 48.910149,57 52.5,57 c 3.589851,0 6.5,2.014719 6.5,4.5 -0.01292,0.762762 -0.695105,1.922371 -1,2.5 -1.5,2 -1.5,3.25 -1.125,4 L 64,68 c 2.216,0 4,-1.784 4,-4 L 68,52.875 C 68.75,52.5 70,52.5 72,54 c 0.577629,0.304895 1.737238,0.987081 2.5,1 2.485281,0 4.5,-2.910149 4.5,-6.5 0,-3.589851 -2.014719,-6.5 -4.5,-6.5 -0.9272,0.10443 -2.098034,0.690589 -2.5,1 -2,1.5 -3.25,1.5 -4,1.125 L 68,32 c 0,-2.216 -1.784,-4 -4,-4 L 52.875,28 C 52.5,27.25 52.5,26 54,24 54.304895,23.422371 54.987081,22.262762 55,21.5 55,19.014719 52.089851,17 48.5,17 z m 0,1.9375 c 1.429906,0 2.705621,0.450045 3.5,1 0.779485,0.539643 1.052518,1.05682 1.0625,1.53125 0.0084,-0.01462 -6.02e-4,4.63e-4 0,0.03125 -0.02887,0.06517 -0.110883,0.265334 -0.21875,0.5 -0.16406,0.356913 -0.381236,0.750343 -0.5625,1.09375 l 0.03125,0 c -1.566515,2.215694 -1.921324,4.313602 -1.1875,5.78125 a 1.9513862,1.9513862 0 0 0 1.75,1.0625 l 11.125,0 c 1.16879,0 2.0625,0.89371 2.0625,2.0625 l 0,12.125 a 1.9513862,1.9513862 0 0 0 1.0625,1.75 c 1.525644,0.762822 3.719059,0.421643 6.03125,-1.3125 a 1.9513862,1.9513862 0 0 0 0.03125,-0.03125 c -0.09907,0.07626 1.045842,-0.465063 1.4375,-0.5625 0.451394,0.0417 0.932229,0.301414 1.4375,1.03125 0.549955,0.794379 1,2.070094 1,3.5 0,1.429906 -0.450045,2.705621 -1,3.5 -0.539643,0.779485 -1.05682,1.052518 -1.53125,1.0625 0.0092,1.56e-4 -0.03777,1.28e-4 -0.03125,0 -0.06517,-0.02887 -0.265334,-0.110883 -0.5,-0.21875 -0.356913,-0.16406 -0.750343,-0.381236 -1.09375,-0.5625 l 0,0.03125 C 70.690556,50.745985 68.592648,50.391176 67.125,51.125 a 1.9513862,1.9513862 0 0 0 -1.0625,1.75 l 0,11.125 c 0,1.16879 -0.89371,2.0625 -2.0625,2.0625 l -4.96875,0 c 0.145875,-0.277664 0.176852,-0.43372 0.53125,-0.90625 a 1.9513862,1.9513862 0 0 0 0.15625,-0.25 c 0.123632,-0.234223 0.399764,-0.723261 0.65625,-1.28125 0.256486,-0.557989 0.546475,-1.14767 0.5625,-2.09375 a 1.9513862,1.9513862 0 0 0 0,-0.03125 c 0,-2.004225 -1.160592,-3.702525 -2.71875,-4.78125 C 56.660592,55.640025 54.659945,55.0625 52.5,55.0625 c -2.159945,0 -4.160592,0.577525 -5.71875,1.65625 C 45.223092,57.797475 44.0625,59.495775 44.0625,61.5 a 1.9513862,1.9513862 0 0 0 0,0.21875 c 0.172727,1.53359 0.688039,2.536801 1.375,3.4375 0.0085,0.01116 0.02268,0.02012 0.03125,0.03125 0.330264,0.444852 0.360052,0.608619 0.5,0.875 L 32,66.0625 c -1.16879,0 -2.0625,-0.89371 -2.0625,-2.0625 l 0,-10.96875 c 0.277664,0.145875 0.43372,0.176852 0.90625,0.53125 a 1.9513862,1.9513862 0 0 0 0.25,0.15625 c 0.234223,0.123632 0.723261,0.399764 1.28125,0.65625 0.557989,0.256486 1.14767,0.546475 2.09375,0.5625 a 1.9513862,1.9513862 0 0 0 0.03125,0 c 2.004225,0 3.702525,-1.160592 4.78125,-2.71875 1.078725,-1.558158 1.65625,-3.558805 1.65625,-5.71875 0,-2.159945 -0.577525,-4.160592 -1.65625,-5.71875 C 38.202525,39.223092 36.504225,38.0625 34.5,38.0625 a 1.9513862,1.9513862 0 0 0 -0.21875,0 c -1.53359,0.172727 -2.536801,0.688039 -3.4375,1.375 -0.01116,0.0085 -0.02012,0.02268 -0.03125,0.03125 -0.444852,0.330264 -0.608619,0.360052 -0.875,0.5 l 0,-7.96875 c 0,-1.16879 0.89371,-2.0625 2.0625,-2.0625 l 12.125,0 a 1.9513862,1.9513862 0 0 0 1.75,-1.0625 c 0.762822,-1.525644 0.421643,-3.719059 -1.3125,-6.03125 A 1.9513862,1.9513862 0 0 0 44.53125,22.8125 c 0.07626,0.09907 -0.465063,-1.045842 -0.5625,-1.4375 0.0417,-0.451394 0.301414,-0.932229 1.03125,-1.4375 0.794379,-0.549955 2.070094,-1 3.5,-1 z"
         inkscape:connector-curvature="0"
         id="path4157"
         style="opacity:0.07999998;color:#000000;fill:#000000;fill-opacity:1;fill-rule:nonzero;stroke:none;stroke-width:2;marker:none;visibility:visible;display:inline;overflow:visible;enable-background:accumulate" />
      <path
         d="m 48.5,17 c -3.589851,0 -6.5,2.014719 -6.5,4.5 0.01239,0.110042 0.0378,0.228537 0.0625,0.34375 C 42.518417,19.667192 45.229733,18 48.5,18 c 3.270267,0 5.981583,1.667192 6.4375,3.84375 C 54.961708,21.726854 54.99823,21.604513 55,21.5 55,19.014719 52.089851,17 48.5,17 z M 44.28125,27.5625 C 44.244681,27.721241 44.189125,27.87175 44.125,28 L 32,28 c -2.216,0 -4,1.784 -4,4 l 0,1 c 0,-2.216 1.784,-4 4,-4 l 12.125,0 c 0.177885,-0.355769 0.267209,-0.83003 0.15625,-1.4375 z m 8.4375,0 C 52.607791,28.16997 52.697115,28.644231 52.875,29 L 64,29 c 2.216,0 4,1.784 4,4 l 0,-1 c 0,-2.216 -1.784,-4 -4,-4 L 52.875,28 C 52.81088,27.87175 52.755319,27.721241 52.71875,27.5625 z M 74.5,42 c -0.9272,0.10443 -2.098034,0.690589 -2.5,1 -2,1.5 -3.25,1.5 -4,1.125 l 0,1 C 68.75,45.5 70,45.5 72,44 c 0.401966,-0.309411 1.5728,-0.89557 2.5,-1 2.367009,0 4.28945,2.647411 4.46875,6 C 78.977709,48.832482 79,48.670837 79,48.5 79,44.910149 76.985281,42 74.5,42 z M 38.96875,47 C 38.78945,50.352589 36.867009,53 34.5,53 33.737238,52.98708 32.577629,52.304895 32,52 30,50.5 28.75,50.5 28,50.875 l 0,1 C 28.75,51.5 30,51.5 32,53 c 0.577629,0.304895 1.737238,0.98708 2.5,1 2.485281,0 4.5,-2.910149 4.5,-6.5 0,-0.170837 -0.02229,-0.332482 -0.03125,-0.5 z M 46.0625,61.84375 C 46.017946,62.056452 46,62.278749 46,62.5 c 0.10443,0.9272 0.690589,2.098034 1,2.5 0.788462,1.051282 1.158296,1.889357 1.28125,2.5625 C 48.458535,66.792931 48.2435,65.658 47,64 46.727311,63.64574 46.245895,62.699305 46.0625,61.84375 z m 12.875,0 C 58.785032,62.57999 58.263119,63.501517 58,64 56.7565,65.658 56.541465,66.792931 56.71875,67.5625 56.841704,66.889357 57.211538,66.051282 58,65 c 0.304895,-0.577629 0.98708,-1.737238 1,-2.5 0,-0.221251 -0.01795,-0.443548 -0.0625,-0.65625 z"
         inkscape:connector-curvature="0"
         id="path4144"
         style="opacity:0.3;color:#000000;fill:#000000;fill-opacity:1;fill-rule:nonzero;stroke:none;stroke-width:2;marker:none;visibility:visible;display:inline;overflow:visible;enable-background:accumulate" />
      <path
         d="m 48.5,17 c -3.589851,0 -6.5,2.014719 -6.5,4.5 0.10443,0.9272 0.690589,2.098034 1,2.5 1.5,2 1.5,3.25 1.125,4 L 32,28 c -2.216,0 -4,1.784 -4,4 l 0,10.125 C 28.75,42.5 30,42.5 32,41 c 0.401966,-0.309411 1.5728,-0.89557 2.5,-1 2.485281,0 4.5,2.910149 4.5,6.5 C 39,50.089851 36.985281,53 34.5,53 33.737238,52.98708 32.577629,52.304895 32,52 30,50.5 28.75,50.5 28,50.875 L 28,64 c 0,2.216 1.784,4 4,4 l 16.125,0 C 48.5,67.25 48.5,66 47,64 46.690589,63.598034 46.10443,62.4272 46,61.5 46,59.014719 48.910149,57 52.5,57 c 3.589851,0 6.5,2.014719 6.5,4.5 -0.01292,0.762762 -0.695105,1.922371 -1,2.5 -1.5,2 -1.5,3.25 -1.125,4 L 64,68 c 2.216,0 4,-1.784 4,-4 L 68,52.875 C 68.75,52.5 70,52.5 72,54 c 0.577629,0.304895 1.737238,0.987081 2.5,1 2.485281,0 4.5,-2.910149 4.5,-6.5 0,-3.589851 -2.014719,-6.5 -4.5,-6.5 -0.9272,0.10443 -2.098034,0.690589 -2.5,1 -2,1.5 -3.25,1.5 -4,1.125 L 68,32 c 0,-2.216 -1.784,-4 -4,-4 L 52.875,28 C 52.5,27.25 52.5,26 54,24 54.304895,23.422371 54.987081,22.262762 55,21.5 55,19.014719 52.089851,17 48.5,17 z m 0,1 c 1.60931,0 3.049175,0.445102 4.03125,1.125 0.970813,0.672101 1.457544,1.498761 1.46875,2.34375 1.3e-4,0.0098 0,0.02144 0,0.03125 -0.008,0.110426 -0.100188,0.512349 -0.28125,0.90625 -0.186773,0.406327 -0.426649,0.808425 -0.59375,1.125 l 0.03125,0 C 51.632795,25.625566 51.440121,27.317743 52,28.4375 A 0.99229518,0.99229518 0 0 0 52.875,29 L 64,29 c 1.683486,0 3,1.316514 3,3 l 0,12.125 A 0.99229518,0.99229518 0 0 0 67.5625,45 c 1.144421,0.57221 2.872499,0.400314 5.03125,-1.21875 0.139364,-0.107275 1.340953,-0.650461 1.96875,-0.75 0.831467,0.02538 1.650535,0.481328 2.3125,1.4375 C 77.554898,45.450825 78,46.89069 78,48.5 c 0,1.60931 -0.445102,3.049175 -1.125,4.03125 -0.672101,0.970813 -1.498761,1.457544 -2.34375,1.46875 -0.0029,-4.9e-5 -0.02777,2.54e-4 -0.03125,0 -0.110426,-0.008 -0.512349,-0.100188 -0.90625,-0.28125 -0.406327,-0.186773 -0.808425,-0.426649 -1.125,-0.59375 l 0,0.03125 C 70.374434,51.632795 68.682257,51.440121 67.5625,52 A 0.99229518,0.99229518 0 0 0 67,52.875 L 67,64 c 0,1.683486 -1.316514,3 -3,3 l -6.28125,0 c -0.02466,-0.462574 0.09554,-1.116969 1.0625,-2.40625 a 0.99229518,0.99229518 0 0 0 0.09375,-0.125 c 0.137794,-0.261054 0.391227,-0.741425 0.625,-1.25 0.233773,-0.508575 0.488676,-1.018965 0.5,-1.6875 A 0.99229518,0.99229518 0 0 0 60,61.5 c 0,-1.629912 -0.973288,-3.051218 -2.34375,-4 C 56.285788,56.551218 54.480541,56 52.5,56 50.519459,56 48.714212,56.551218 47.34375,57.5 45.973288,58.448782 45,59.870088 45,61.5 a 0.99229518,0.99229518 0 0 0 0,0.125 c 0.140248,1.245219 0.710744,2.308783 1.21875,2.96875 0.966961,1.289281 1.087156,1.943676 1.0625,2.40625 L 32,67 c -1.683486,0 -3,-1.316514 -3,-3 l 0,-12.28125 c 0.462574,-0.02466 1.116969,0.09554 2.40625,1.0625 a 0.99229518,0.99229518 0 0 0 0.125,0.09375 c 0.261054,0.137794 0.741425,0.391227 1.25,0.625 0.508575,0.233773 1.018965,0.488676 1.6875,0.5 A 0.99229518,0.99229518 0 0 0 34.5,54 c 1.629912,0 3.051218,-0.973288 4,-2.34375 C 39.448782,50.285788 40,48.480541 40,46.5 40,44.519459 39.448782,42.714212 38.5,41.34375 37.551218,39.973288 36.129912,39 34.5,39 a 0.99229518,0.99229518 0 0 0 -0.125,0 c -1.245219,0.140248 -2.308783,0.710744 -2.96875,1.21875 C 30.116969,41.185711 29.462574,41.305906 29,41.28125 L 29,32 c 0,-1.683486 1.316514,-3 3,-3 l 12.125,0 A 0.99229518,0.99229518 0 0 0 45,28.4375 c 0.57221,-1.144421 0.400314,-2.872499 -1.21875,-5.03125 -0.107275,-0.139364 -0.650461,-1.340953 -0.75,-1.96875 0.02538,-0.831467 0.481328,-1.650535 1.4375,-2.3125 C 45.450825,18.445102 46.89069,18 48.5,18 z"
         inkscape:connector-curvature="0"
         id="path4153"
         style="opacity:0.15;color:#000000;fill:#000000;fill-opacity:1;fill-rule:nonzero;stroke:none;stroke-width:2;marker:none;visibility:visible;display:inline;overflow:visible;enable-background:accumulate" />
      <path
         d="M 42.0625,21.84375 C 42.017946,22.056452 42,22.278749 42,22.5 c 0.10443,0.9272 0.690589,2.098034 1,2.5 0.788462,1.051282 1.158296,1.889357 1.28125,2.5625 C 44.458535,26.792931 44.2435,25.658 43,24 42.727311,23.64574 42.245895,22.699305 42.0625,21.84375 z m 12.875,0 C 54.785032,22.57999 54.263119,23.501517 54,24 52.7565,25.658 52.541465,26.792931 52.71875,27.5625 52.841704,26.889357 53.211538,26.051282 54,25 c 0.304895,-0.577629 0.987081,-1.737238 1,-2.5 0,-0.221251 -0.01795,-0.443548 -0.0625,-0.65625 z M 34.5,40 c -0.9272,0.10443 -2.098034,0.690589 -2.5,1 -2,1.5 -3.25,1.5 -4,1.125 l 0,1 C 28.75,43.5 30,43.5 32,42 c 0.401966,-0.309411 1.5728,-0.89557 2.5,-1 2.367009,0 4.28945,2.647411 4.46875,6 C 38.977709,46.832482 39,46.670837 39,46.5 39,42.910149 36.985281,40 34.5,40 z m 44.46875,9 C 78.78945,52.352589 76.867009,55 74.5,55 73.737238,54.987081 72.577629,54.304895 72,54 70,52.5 68.75,52.5 68,52.875 l 0,1 C 68.75,53.5 70,53.5 72,55 c 0.577629,0.304895 1.737238,0.987081 2.5,1 2.485281,0 4.5,-2.910149 4.5,-6.5 0,-0.170837 -0.02229,-0.332482 -0.03125,-0.5 z M 52.5,57 c -3.589851,0 -6.5,2.014719 -6.5,4.5 0.01239,0.110042 0.0378,0.228537 0.0625,0.34375 C 46.518417,59.667192 49.229733,58 52.5,58 c 3.270267,0 5.981583,1.667192 6.4375,3.84375 C 58.961708,61.726854 58.99823,61.604513 59,61.5 59,59.014719 56.089851,57 52.5,57 z m -24.5,7 0,1 c 0,2.216 1.784,4 4,4 l 16.125,0 c 0.177885,-0.355769 0.267209,-0.83003 0.15625,-1.4375 C 48.244681,67.721241 48.189125,67.87175 48.125,68 L 32,68 c -2.216,0 -4,-1.784 -4,-4 z m 40,0 c 0,2.216 -1.784,4 -4,4 l -7.125,0 C 56.810875,67.87175 56.755319,67.721241 56.71875,67.5625 56.607791,68.16997 56.697115,68.644231 56.875,69 L 64,69 c 2.216,0 4,-1.784 4,-4 l 0,-1 z"
         inkscape:connector-curvature="0"
         id="path4167"
         style="opacity:0.75;color:#000000;fill:#ffffff;fill-opacity:1;fill-rule:nonzero;stroke:none;stroke-width:2;marker:none;visibility:visible;display:inline;overflow:visible;enable-background:accumulate" />
    </g>
    <rect
       ry="25"
       rx="25"
       id="rect3003"
       style="opacity:0.15;fill:#ffffff;fill-opacity:1"
       height="92"
       width="92"
       y="958.36218"
       x="-96"
       clip-path="url(#clipPath3009)"
       transform="translate(98,3.8281269e-7)" />
  </g>
</svg>
