<?xml version="1.0" encoding="UTF-8" standalone="no"?>
<!-- Created with Inkscape (http://www.inkscape.org/) -->

<svg
   xmlns:dc="http://purl.org/dc/elements/1.1/"
   xmlns:cc="http://creativecommons.org/ns#"
   xmlns:rdf="http://www.w3.org/1999/02/22-rdf-syntax-ns#"
   xmlns:svg="http://www.w3.org/2000/svg"
   xmlns="http://www.w3.org/2000/svg"
   xmlns:xlink="http://www.w3.org/1999/xlink"
   xmlns:sodipodi="http://sodipodi.sourceforge.net/DTD/sodipodi-0.dtd"
   xmlns:inkscape="http://www.inkscape.org/namespaces/inkscape"
   width="96"
   height="96"
   id="svg11037"
   version="1.1"
   inkscape:version="0.48.3.1 r9886"
   sodipodi:docname="image-x-eps.svg">
  <defs
     id="defs11039">
    <linearGradient
       y2="1046.1001"
       x2="47.999954"
       y1="962.62189"
       x1="47.999954"
       gradientTransform="matrix(1.15,0,0,1.15,-7.1999462,-150.65291)"
       gradientUnits="userSpaceOnUse"
       id="linearGradient3886"
       xlink:href="#linearGradient3795"
       inkscape:collect="always" />
    <linearGradient
       id="linearGradient3795">
      <stop
         style="stop-color:#13a6fd;stop-opacity:1;"
         offset="0"
         id="stop3797" />
      <stop
         style="stop-color:#2975b6;stop-opacity:1;"
         offset="1"
         id="stop3799" />
    </linearGradient>
    <linearGradient
       y2="1046.1001"
       x2="47.999954"
       y1="962.62189"
       x1="47.999954"
       gradientTransform="matrix(1.15,0,0,1.15,-7.1999462,-150.65292)"
       gradientUnits="userSpaceOnUse"
       id="linearGradient11642"
       xlink:href="#linearGradient3700"
       inkscape:collect="always" />
    <linearGradient
       x1="48"
       y1="90"
       x2="48"
       y2="5.9877172"
       id="linearGradient3706"
       xlink:href="#linearGradient3700"
       gradientUnits="userSpaceOnUse" />
    <linearGradient
       id="linearGradient3700">
      <stop
         id="stop3702"
         style="stop-color:#e6e6e6;stop-opacity:1"
         offset="0" />
      <stop
         id="stop3704"
         style="stop-color:#f5f5f5;stop-opacity:1"
         offset="1" />
    </linearGradient>
    <linearGradient
       gradientTransform="translate(-103.55839,982.13882)"
       y2="5.9877172"
       x2="48"
       y1="90"
       x1="48"
       gradientUnits="userSpaceOnUse"
       id="linearGradient3094"
       xlink:href="#linearGradient3700"
       inkscape:collect="always" />
    <linearGradient
       x1="46.882267"
       y1="75.753494"
       x2="46.882267"
       y2="35.372066"
       id="linearGradient3827"
       xlink:href="#linearGradient3821"
       gradientUnits="userSpaceOnUse"
       gradientTransform="translate(-4,0)" />
    <linearGradient
       id="linearGradient3821">
      <stop
         id="stop3823"
         style="stop-color:#de6a07;stop-opacity:1"
         offset="0" />
      <stop
         id="stop3825"
         style="stop-color:#f8a425;stop-opacity:1"
         offset="1" />
    </linearGradient>
    <clipPath
       clipPathUnits="userSpaceOnUse"
       id="clipPath3009">
      <path
         id="path3011"
         d="m -2,956.36218 -96,0 0,33.5624 96,25.68742 0,-59.24982 z"
         style="opacity:0.15;fill:#ffffff;fill-opacity:1;stroke:none"
         inkscape:connector-curvature="0" />
    </clipPath>
  </defs>
  <sodipodi:namedview
     id="base"
     pagecolor="#ffffff"
     bordercolor="#666666"
     borderopacity="1.0"
     inkscape:pageopacity="0.0"
     inkscape:pageshadow="2"
     inkscape:zoom="3.959798"
     inkscape:cx="33.538031"
     inkscape:cy="59.964634"
     inkscape:document-units="px"
     inkscape:current-layer="layer1"
     showgrid="false"
     inkscape:window-width="1280"
     inkscape:window-height="750"
     inkscape:window-x="0"
     inkscape:window-y="22"
     inkscape:window-maximized="1"
     showguides="true"
     inkscape:guide-bbox="true">
    <sodipodi:guide
       orientation="0,1"
       position="-24.748737,0"
       id="guide11064" />
    <sodipodi:guide
       orientation="0,1"
       position="-23.233509,96"
       id="guide11066" />
    <sodipodi:guide
       orientation="1,0"
       position="0,54.800776"
       id="guide11068" />
    <sodipodi:guide
       orientation="1,0"
       position="96,51.012704"
       id="guide11070" />
    <sodipodi:guide
       orientation="0,1"
       position="-18.94036,48"
       id="guide11072" />
    <sodipodi:guide
       orientation="1,0"
       position="48,79.296975"
       id="guide11074" />
    <sodipodi:guide
       orientation="1,0"
       position="2,75.508903"
       id="guide11076" />
    <sodipodi:guide
       orientation="0,1"
       position="-77.27667,2"
       id="guide11078" />
    <sodipodi:guide
       orientation="1,0"
       position="94,77.781746"
       id="guide11080" />
    <sodipodi:guide
       orientation="0,1"
       position="-65.912454,94"
       id="guide11082" />
  </sodipodi:namedview>
  <metadata
     id="metadata11042">
    <rdf:RDF>
      <cc:Work
         rdf:about="">
        <dc:format>image/svg+xml</dc:format>
        <dc:type
           rdf:resource="http://purl.org/dc/dcmitype/StillImage" />
        <dc:title />
      </cc:Work>
    </rdf:RDF>
  </metadata>
  <g
     inkscape:label="Layer 1"
     inkscape:groupmode="layer"
     id="layer1"
     transform="translate(0,-956.36218)">
    <rect
       x="2"
       y="958.36218"
       width="92"
       height="92"
       style="fill:url(#linearGradient11642);fill-opacity:1.0"
       id="rect3867"
       rx="25"
       ry="25" />
    <g
       transform="translate(0,956.36218)"
       id="layer4">
      <path
         d="M 12,12 12,29.9375 20.09375,12 12,12 z M 21.90625,12 30,29.9375 30,12 21.90625,12 z M 21,19.03125 l -3.03125,7 2.928571,0 1.71875,3.96875 3.227679,0 -2.375,-5.28125 -0.0625,-0.125 L 21,19.03125 z"
         inkscape:connector-curvature="0"
         id="rect3362"
         style="opacity:0.5;fill:#999999;fill-opacity:1;fill-rule:nonzero;stroke:none" />
      <path
         d="M 34.875,36 22,76 l 8.46875,0 2.75,-9.46875 13.65625,0 2.6875,9.46875 8.5,0 L 45.125,36 34.875,36 z M 66,36.03125 c -0.59444,4.2e-5 -1.176774,0.06115 -1.71875,0.1875 -0.524506,0.126436 -0.97289,0.362529 -1.375,0.6875 -0.384638,0.306997 -0.710221,0.726409 -0.9375,1.25 -0.227286,0.505615 -0.312504,1.16112 -0.3125,1.9375 -4e-6,0.7584 0.08521,1.382655 0.3125,1.90625 0.227279,0.523667 0.552862,0.956272 0.9375,1.28125 0.40211,0.306991 0.850494,0.511835 1.375,0.65625 0.541976,0.126431 1.12431,0.218784 1.71875,0.21875 0.594424,3.4e-5 1.131742,-0.09232 1.65625,-0.21875 0.524489,-0.144415 0.990357,-0.349259 1.375,-0.65625 C 69.433354,42.956272 69.772705,42.523667 70,42 c 0.244753,-0.523595 0.343737,-1.14785 0.34375,-1.90625 -1.3e-5,-0.77638 -0.099,-1.431885 -0.34375,-1.9375 -0.227295,-0.523591 -0.566646,-0.943003 -0.96875,-1.25 -0.384643,-0.324971 -0.850511,-0.561064 -1.375,-0.6875 C 67.131742,36.092399 66.594424,36.031292 66,36.03125 z m -25.96875,5.59375 4.875,17.8125 -9.65625,0 c 1.557914,-5.939686 3.614347,-11.772346 4.78125,-17.8125 z m 21.9375,6.40625 0,27.96875 8.03125,0 0,-27.96875 -8.03125,0 z"
         inkscape:connector-curvature="0"
         id="path3799"
         style="font-size:55.46882629px;font-style:normal;font-variant:normal;font-weight:bold;font-stretch:normal;text-align:start;line-height:125%;writing-mode:lr-tb;text-anchor:start;fill:url(#linearGradient3827);fill-opacity:1;stroke:none;font-family:Droid Sans;-inkscape-font-specification:Abandoned Bitplane Bold" />
      <path
         d="m 61.6875,40.59375 c -0.01018,0.168949 -0.03125,0.317283 -0.03125,0.5 -4e-6,0.7584 0.08521,1.382655 0.3125,1.90625 0.227279,0.523667 0.552862,0.956272 0.9375,1.28125 0.40211,0.306991 0.850494,0.511835 1.375,0.65625 0.541976,0.126431 1.12431,0.218784 1.71875,0.21875 0.594424,3.4e-5 1.131742,-0.09232 1.65625,-0.21875 0.524489,-0.144415 0.990357,-0.349259 1.375,-0.65625 C 69.433354,43.956272 69.772705,43.523667 70,43 c 0.244753,-0.523595 0.343737,-1.14785 0.34375,-1.90625 -3e-6,-0.182266 -0.01973,-0.331433 -0.03125,-0.5 C 70.274126,41.121064 70.185571,41.603012 70,42 c -0.227295,0.523667 -0.566646,0.956272 -0.96875,1.28125 -0.384643,0.306991 -0.850511,0.511835 -1.375,0.65625 -0.524508,0.12643 -1.061826,0.218784 -1.65625,0.21875 -0.59444,3.4e-5 -1.176774,-0.09232 -1.71875,-0.21875 -0.524506,-0.144415 -0.97289,-0.349259 -1.375,-0.65625 C 62.521612,42.956272 62.196029,42.523667 61.96875,42 61.796567,41.603352 61.721333,41.120489 61.6875,40.59375 z M 40.03125,41.625 c -0.07224,0.399671 -0.154876,0.861324 -0.28125,1.40625 -0.108356,0.544991 -0.243762,1.132412 -0.40625,1.75 -0.144466,0.599486 -0.306261,1.19491 -0.46875,1.8125 -0.162521,0.61765 -0.324318,1.205069 -0.46875,1.75 -0.144465,0.544987 -0.279874,1.019725 -0.40625,1.4375 -0.108353,0.417828 -0.19585,0.737706 -0.25,0.9375 l -2.5,8.71875 0.28125,0 2.21875,-7.71875 c 0.05415,-0.199794 0.141647,-0.519672 0.25,-0.9375 0.126376,-0.417775 0.261785,-0.892513 0.40625,-1.4375 0.144432,-0.544931 0.306229,-1.13235 0.46875,-1.75 0.162489,-0.61759 0.324284,-1.213014 0.46875,-1.8125 0.162488,-0.617588 0.297894,-1.205009 0.40625,-1.75 0.126374,-0.544926 0.20901,-1.006579 0.28125,-1.40625 0.09026,0.63582 0.252058,1.404268 0.46875,2.3125 0.216654,0.908297 0.452752,1.810515 0.6875,2.71875 0.252766,0.890129 0.470807,1.692751 0.6875,2.4375 0.216653,0.744803 0.391643,1.29805 0.5,1.625 l 2.25,7.71875 0.28125,0 -2.53125,-8.71875 c -0.108357,-0.32695 -0.283347,-0.880197 -0.5,-1.625 -0.216693,-0.744749 -0.434734,-1.547371 -0.6875,-2.4375 C 40.952752,45.748015 40.716654,44.845797 40.5,43.9375 40.283308,43.029268 40.12151,42.26082 40.03125,41.625 z M 33.21875,66.53125 30.46875,76 22.3125,76 22,77 l 8.46875,0 2.75,-9.46875 13.65625,0 2.6875,9.46875 8.5,0 -0.3125,-1 -8.1875,0 -2.6875,-9.46875 -13.65625,0 z m 28.75,9.46875 0,1 8.03125,0 0,-1 -8.03125,0 z"
         inkscape:connector-curvature="0"
         id="path3816"
         style="font-size:55.46882629px;font-style:normal;font-variant:normal;font-weight:bold;font-stretch:normal;text-align:start;line-height:125%;writing-mode:lr-tb;text-anchor:start;opacity:0.8;fill:#ffffff;fill-opacity:1;stroke:none;font-family:Droid Sans;-inkscape-font-specification:Abandoned Bitplane Bold" />
      <path
         d="M 34.875,36 22,76 22.3125,76 34.875,37 45.125,37 57.75,76 58.0625,76 45.125,36 34.875,36 z M 66,36.03125 c -0.59444,4.2e-5 -1.176774,0.06115 -1.71875,0.1875 -0.524506,0.126436 -0.97289,0.362529 -1.375,0.6875 -0.384638,0.306997 -0.710221,0.726409 -0.9375,1.25 -0.227286,0.505615 -0.312504,1.16112 -0.3125,1.9375 -10e-7,0.183876 0.02042,0.331418 0.03125,0.5 0.03308,-0.548929 0.107455,-1.050879 0.28125,-1.4375 0.227279,-0.523591 0.552862,-0.943003 0.9375,-1.25 0.40211,-0.324971 0.850494,-0.561064 1.375,-0.6875 0.541976,-0.12635 1.12431,-0.187458 1.71875,-0.1875 0.594424,4.2e-5 1.131742,0.06115 1.65625,0.1875 0.524489,0.126436 0.990357,0.362529 1.375,0.6875 0.402104,0.306997 0.741455,0.726409 0.96875,1.25 0.187292,0.386915 0.274955,0.88804 0.3125,1.4375 0.01224,-0.16817 0.03125,-0.316616 0.03125,-0.5 -1.3e-5,-0.77638 -0.099,-1.431885 -0.34375,-1.9375 -0.227295,-0.523591 -0.566646,-0.943003 -0.96875,-1.25 -0.384643,-0.324971 -0.850511,-0.561064 -1.375,-0.6875 C 67.131742,36.092399 66.594424,36.031292 66,36.03125 z m -4.03125,12 0,1 8.03125,0 0,-1 -8.03125,0 z M 35.53125,59.4375 c -0.09067,0.333969 -0.19349,0.665408 -0.28125,1 l 9.65625,0 -0.28125,-1 -9.09375,0 z"
         inkscape:connector-curvature="0"
         id="path3829"
         style="font-size:55.46882629px;font-style:normal;font-variant:normal;font-weight:bold;font-stretch:normal;text-align:start;line-height:125%;writing-mode:lr-tb;text-anchor:start;opacity:0.4;fill:#803300;fill-opacity:1;stroke:none;font-family:Droid Sans;-inkscape-font-specification:Abandoned Bitplane Bold" />
      <path
         d="M 34.875,36 22,76 l 8.46875,0 2.75,-9.46875 13.65625,0 2.6875,9.46875 8.5,0 L 45.125,36 34.875,36 z M 66,36.03125 c -0.59444,4.2e-5 -1.176774,0.06115 -1.71875,0.1875 -0.524506,0.126436 -0.97289,0.362529 -1.375,0.6875 -0.384638,0.306997 -0.710221,0.726409 -0.9375,1.25 -0.227286,0.505615 -0.312504,1.16112 -0.3125,1.9375 -4e-6,0.7584 0.08521,1.382655 0.3125,1.90625 0.227279,0.523667 0.552862,0.956272 0.9375,1.28125 0.40211,0.306991 0.850494,0.511835 1.375,0.65625 0.541976,0.126431 1.12431,0.218784 1.71875,0.21875 0.594424,3.4e-5 1.131742,-0.09232 1.65625,-0.21875 0.524489,-0.144415 0.990357,-0.349259 1.375,-0.65625 C 69.433354,42.956272 69.772705,42.523667 70,42 c 0.244753,-0.523595 0.343737,-1.14785 0.34375,-1.90625 -1.3e-5,-0.77638 -0.099,-1.431885 -0.34375,-1.9375 -0.227295,-0.523591 -0.566646,-0.943003 -0.96875,-1.25 -0.384643,-0.324971 -0.850511,-0.561064 -1.375,-0.6875 C 67.131742,36.092399 66.594424,36.031292 66,36.03125 z M 35.625,37 l 8.75,0 12.28125,38 -6.34375,0 -2.46875,-8.75 A 1.0067741,1.0067741 0 0 0 46.875,65.53125 l -13.65625,0 A 1.0067741,1.0067741 0 0 0 32.25,66.25 L 29.71875,75 23.40625,75 35.625,37 z M 66,37.03125 c 0.525476,3.7e-5 0.962078,0.04925 1.40625,0.15625 0.378962,0.09136 0.706593,0.278513 0.96875,0.5 a 1.0067741,1.0067741 0 0 0 0.03125,0.03125 c 0.26774,0.204413 0.496502,0.475759 0.65625,0.84375 a 1.0067741,1.0067741 0 0 0 0.03125,0.03125 c 0.14246,0.294301 0.249988,0.809177 0.25,1.5 -1.1e-5,0.670818 -0.09114,1.128901 -0.25,1.46875 a 1.0067741,1.0067741 0 0 0 -0.03125,0.03125 c -0.16221,0.373717 -0.378477,0.681756 -0.65625,0.90625 -0.239379,0.191053 -0.579395,0.349764 -1,0.46875 -0.0105,0.0025 -0.02078,-0.0025 -0.03125,0 -0.46901,0.111599 -0.895581,0.187527 -1.375,0.1875 -0.470029,2.7e-5 -0.964301,-0.08038 -1.4375,-0.1875 -0.415471,-0.114394 -0.721588,-0.262628 -1,-0.46875 -0.01022,-0.0086 -0.02111,-0.02236 -0.03125,-0.03125 -0.249715,-0.219049 -0.463454,-0.502787 -0.625,-0.875 -0.147509,-0.339807 -0.250004,-0.81701 -0.25,-1.5 -4e-6,-0.702713 0.08629,-1.236574 0.21875,-1.53125 a 1.0067741,1.0067741 0 0 0 0.03125,0 c 0.165641,-0.381594 0.373271,-0.674083 0.625,-0.875 0.295382,-0.238717 0.607583,-0.408831 0.96875,-0.5 0.0094,-0.0022 0.0218,0.0022 0.03125,0 C 64.9805,37.085338 65.485334,37.031286 66,37.03125 z m -25.96875,3.5625 a 1.0067741,1.0067741 0 0 0 -0.1875,0.03125 1.0067741,1.0067741 0 0 0 -0.8125,0.8125 c -1.148016,5.942389 -3.177962,11.756467 -4.75,17.75 a 1.0067741,1.0067741 0 0 0 0.96875,1.25 l 9.65625,0 A 1.0067741,1.0067741 0 0 0 45.875,59.15625 L 41,41.34375 a 1.0067741,1.0067741 0 0 0 -0.96875,-0.75 z m 0,1.03125 4.875,17.8125 -9.65625,0 c 1.557914,-5.939686 3.614347,-11.772346 4.78125,-17.8125 z m 21.9375,6.40625 0,27.96875 8.03125,0 0,-27.96875 -8.03125,0 z m 1,1 6.03125,0 L 69,75 l -6.03125,0 0,-25.96875 z"
         inkscape:connector-curvature="0"
         id="path3838"
         style="font-size:55.46882629px;font-style:normal;font-variant:normal;font-weight:bold;font-stretch:normal;text-align:start;line-height:125%;writing-mode:lr-tb;text-anchor:start;opacity:0.3;fill:#803300;fill-opacity:1;stroke:none;font-family:Droid Sans;-inkscape-font-specification:Abandoned Bitplane Bold" />
    </g>
    <rect
       ry="25"
       rx="25"
       id="rect3003"
       style="opacity:0.15;fill:#ffffff;fill-opacity:1"
       height="92"
       width="92"
       y="958.36218"
       x="-96"
       clip-path="url(#clipPath3009)"
       transform="translate(98,3.8281269e-7)" />
  </g>
</svg>
