<?xml version="1.0" encoding="UTF-8" standalone="no"?>
<!-- Created with Inkscape (http://www.inkscape.org/) -->

<svg
   xmlns:dc="http://purl.org/dc/elements/1.1/"
   xmlns:cc="http://creativecommons.org/ns#"
   xmlns:rdf="http://www.w3.org/1999/02/22-rdf-syntax-ns#"
   xmlns:svg="http://www.w3.org/2000/svg"
   xmlns="http://www.w3.org/2000/svg"
   xmlns:xlink="http://www.w3.org/1999/xlink"
   xmlns:sodipodi="http://sodipodi.sourceforge.net/DTD/sodipodi-0.dtd"
   xmlns:inkscape="http://www.inkscape.org/namespaces/inkscape"
   width="96"
   height="96"
   id="svg11037"
   version="1.1"
   inkscape:version="0.48.3.1 r9886"
   sodipodi:docname="image-x-psd.svg">
  <defs
     id="defs11039">
    <linearGradient
       y2="1046.1001"
       x2="47.999954"
       y1="962.62189"
       x1="47.999954"
       gradientTransform="matrix(1.15,0,0,1.15,-7.1999462,-150.65291)"
       gradientUnits="userSpaceOnUse"
       id="linearGradient3886"
       xlink:href="#linearGradient3795"
       inkscape:collect="always" />
    <linearGradient
       id="linearGradient3795">
      <stop
         style="stop-color:#13a6fd;stop-opacity:1;"
         offset="0"
         id="stop3797" />
      <stop
         style="stop-color:#2975b6;stop-opacity:1;"
         offset="1"
         id="stop3799" />
    </linearGradient>
    <linearGradient
       y2="1046.1001"
       x2="47.999954"
       y1="962.62189"
       x1="47.999954"
       gradientTransform="matrix(1.15,0,0,1.15,-7.1999462,-150.65292)"
       gradientUnits="userSpaceOnUse"
       id="linearGradient11642"
       xlink:href="#linearGradient3700"
       inkscape:collect="always" />
    <linearGradient
       x1="48"
       y1="90"
       x2="48"
       y2="5.9877172"
       id="linearGradient3706"
       xlink:href="#linearGradient3700"
       gradientUnits="userSpaceOnUse" />
    <linearGradient
       id="linearGradient3700">
      <stop
         id="stop3702"
         style="stop-color:#e6e6e6;stop-opacity:1"
         offset="0" />
      <stop
         id="stop3704"
         style="stop-color:#f5f5f5;stop-opacity:1"
         offset="1" />
    </linearGradient>
    <linearGradient
       gradientTransform="translate(85.340135,937.94465)"
       y2="5.9877172"
       x2="48"
       y1="90"
       x1="48"
       gradientUnits="userSpaceOnUse"
       id="linearGradient3094"
       xlink:href="#linearGradient3700"
       inkscape:collect="always" />
    <linearGradient
       x1="46.906918"
       y1="75.471306"
       x2="46.906918"
       y2="36.246487"
       id="linearGradient3745"
       xlink:href="#linearGradient3729"
       gradientUnits="userSpaceOnUse"
       gradientTransform="translate(-2,0)" />
    <linearGradient
       id="linearGradient3729">
      <stop
         id="stop3731"
         style="stop-color:#1c59ad;stop-opacity:1"
         offset="0" />
      <stop
         id="stop3733"
         style="stop-color:#377ad6;stop-opacity:1"
         offset="1" />
    </linearGradient>
    <clipPath
       clipPathUnits="userSpaceOnUse"
       id="clipPath3009">
      <path
         id="path3011"
         d="m -2,956.36218 -96,0 0,33.5624 96,25.68742 0,-59.24982 z"
         style="opacity:0.15;fill:#ffffff;fill-opacity:1;stroke:none"
         inkscape:connector-curvature="0" />
    </clipPath>
  </defs>
  <sodipodi:namedview
     id="base"
     pagecolor="#ffffff"
     bordercolor="#666666"
     borderopacity="1.0"
     inkscape:pageopacity="0.0"
     inkscape:pageshadow="2"
     inkscape:zoom="3.959798"
     inkscape:cx="33.538031"
     inkscape:cy="59.964634"
     inkscape:document-units="px"
     inkscape:current-layer="layer1"
     showgrid="false"
     inkscape:window-width="1280"
     inkscape:window-height="750"
     inkscape:window-x="0"
     inkscape:window-y="22"
     inkscape:window-maximized="1"
     showguides="true"
     inkscape:guide-bbox="true">
    <sodipodi:guide
       orientation="0,1"
       position="-24.748737,0"
       id="guide11064" />
    <sodipodi:guide
       orientation="0,1"
       position="-23.233509,96"
       id="guide11066" />
    <sodipodi:guide
       orientation="1,0"
       position="0,54.800776"
       id="guide11068" />
    <sodipodi:guide
       orientation="1,0"
       position="96,51.012704"
       id="guide11070" />
    <sodipodi:guide
       orientation="0,1"
       position="-18.94036,48"
       id="guide11072" />
    <sodipodi:guide
       orientation="1,0"
       position="48,79.296975"
       id="guide11074" />
    <sodipodi:guide
       orientation="1,0"
       position="2,75.508903"
       id="guide11076" />
    <sodipodi:guide
       orientation="0,1"
       position="-77.27667,2"
       id="guide11078" />
    <sodipodi:guide
       orientation="1,0"
       position="94,77.781746"
       id="guide11080" />
    <sodipodi:guide
       orientation="0,1"
       position="-65.912454,94"
       id="guide11082" />
  </sodipodi:namedview>
  <metadata
     id="metadata11042">
    <rdf:RDF>
      <cc:Work
         rdf:about="">
        <dc:format>image/svg+xml</dc:format>
        <dc:type
           rdf:resource="http://purl.org/dc/dcmitype/StillImage" />
        <dc:title />
      </cc:Work>
    </rdf:RDF>
  </metadata>
  <g
     inkscape:label="Layer 1"
     inkscape:groupmode="layer"
     id="layer1"
     transform="translate(0,-956.36218)">
    <rect
       x="2"
       y="958.36218"
       width="92"
       height="92"
       style="fill:url(#linearGradient11642);fill-opacity:1.0"
       id="rect3867"
       rx="25"
       ry="25" />
    <g
       transform="translate(0,956.36218)"
       id="layer4">
      <path
         d="M 12,12 12,29.9375 20.09375,12 12,12 z M 21.90625,12 30,29.9375 30,12 21.90625,12 z M 21,19.03125 l -3.03125,7 2.928571,0 1.71875,3.96875 3.227679,0 -2.375,-5.28125 -0.0625,-0.125 L 21,19.03125 z"
         inkscape:connector-curvature="0"
         id="rect3362"
         style="opacity:0.5;fill:#999999;fill-opacity:1;fill-rule:nonzero;stroke:none" />
      <path
         d="m 26,36 0,40 7.65625,0 0,-14.65625 2.65625,0 c 3.007821,1.4e-5 5.496289,-0.376132 7.46875,-1.09375 2.017576,-0.727286 3.626148,-1.691995 4.8125,-2.875 1.217362,-1.19583 2.068695,-2.559991 2.59375,-4.125 0.533685,-1.590867 0.812468,-3.25766 0.8125,-5 -3.2e-5,-1.949457 -0.294026,-3.658067 -0.875,-5.15625 C 50.54664,41.584779 49.642992,40.337651 48.4375,39.3125 47.253899,38.273214 45.713567,37.468336 43.8125,36.90625 41.939289,36.329021 39.649294,36.000039 37,36 l -11,0 z m 7.65625,5.96875 2.90625,0 c 2.511415,3.5e-5 4.427443,0.5071 5.71875,1.625 1.306893,1.112657 1.906224,2.84282 1.90625,5 -2.6e-5,2.311914 -0.668573,4.108399 -2.125,5.21875 -1.416336,1.09616 -3.445909,1.562523 -6.03125,1.5625 l -2.375,0 0,-13.40625 z M 63.875,48 c -1.49113,3e-5 -2.838222,0.14666 -4.0625,0.46875 -1.208598,0.306038 -2.230474,0.778148 -3.09375,1.40625 -0.863283,0.628154 -1.529123,1.42478 -2,2.375 -0.470881,0.93416 -0.718751,2.025016 -0.71875,3.28125 -10e-7,1.143534 0.139416,2.131263 0.40625,2.96875 0.26683,0.821415 0.653834,1.574532 1.1875,2.21875 0.549356,0.644249 1.261859,1.21852 2.09375,1.75 0.847577,0.515399 1.822934,1.03102 2.96875,1.5625 1.177189,0.54761 2.121866,1.019721 2.8125,1.40625 0.706307,0.370445 1.232729,0.725246 1.59375,1.03125 0.360992,0.289915 0.59332,0.56996 0.6875,0.84375 0.109858,0.257703 0.156235,0.536787 0.15625,0.875 -1.5e-5,0.33823 -0.0775,0.662745 -0.21875,0.96875 -0.125583,0.289909 -0.32679,0.555775 -0.625,0.78125 -0.282541,0.209383 -0.63858,0.371156 -1.09375,0.5 -0.455197,0.112752 -1.012727,0.187505 -1.65625,0.1875 -0.580762,5e-6 -1.215634,-0.07475 -1.90625,-0.1875 C 59.731313,70.324765 59.034509,70.193276 58.3125,70 57.590479,69.79063 56.862706,69.523804 56.125,69.25 55.402981,68.976207 54.721728,68.681982 54.0625,68.34375 l 0,6.09375 c 0.627837,0.289907 1.231601,0.525482 1.84375,0.71875 0.612138,0.19327 1.247014,0.339906 1.90625,0.46875 0.659225,0.128847 1.356031,0.23293 2.09375,0.28125 C 60.643953,75.97067 61.44921,76 62.3125,76 c 1.632369,-10e-7 3.119023,-0.176921 4.4375,-0.53125 1.318447,-0.354327 2.417668,-0.885091 3.34375,-1.59375 C 71.019794,73.166346 71.747706,72.281738 72.25,71.21875 72.752251,70.15577 72.999978,68.917319 73,67.5 72.999978,66.308177 72.814041,65.275014 72.46875,64.4375 72.123418,63.600008 71.643516,62.878139 71,62.25 c -0.643554,-0.628113 -1.417848,-1.173059 -2.3125,-1.65625 -0.894689,-0.499266 -1.885599,-1.000704 -3,-1.5 -0.957468,-0.450947 -1.747315,-0.81897 -2.34375,-1.125 -0.596459,-0.322097 -1.045395,-0.617286 -1.375,-0.875 -0.329627,-0.27378 -0.546384,-0.539642 -0.65625,-0.78125 -0.109876,-0.257673 -0.18751,-0.552864 -0.1875,-0.875 -1e-5,-0.612002 0.232448,-1.083149 0.65625,-1.4375 0.43948,-0.354304 1.120588,-0.531228 2.09375,-0.53125 1.08301,2.2e-5 2.166962,0.160838 3.25,0.53125 1.083006,0.370454 2.244588,0.857711 3.4375,1.4375 l 2.15625,-5.21875 C 71.227612,49.477907 69.787621,48.932961 68.375,48.5625 66.962347,48.192091 65.444585,48.00003 63.875,48 z"
         inkscape:connector-curvature="0"
         id="path3715"
         style="font-size:48px;font-style:normal;font-variant:normal;font-weight:bold;font-stretch:normal;text-align:start;line-height:100%;writing-mode:lr-tb;text-anchor:start;fill:url(#linearGradient3745);fill-opacity:1;stroke:none;font-family:Droid Sans;-inkscape-font-specification:Droid Sans Bold" />
      <path
         d="m 26,36 0,1 11,0 c 2.649294,3.9e-5 4.939289,0.329021 6.8125,0.90625 1.901067,0.562086 3.441399,1.366964 4.625,2.40625 1.205492,1.025151 2.10914,2.272279 2.6875,3.78125 0.526069,1.356598 0.793467,2.90075 0.84375,4.625 C 51.973407,48.560517 51.999997,48.409499 52,48.25 51.999968,46.300543 51.705974,44.591933 51.125,43.09375 50.54664,41.584779 49.642992,40.337651 48.4375,39.3125 47.253899,38.273214 45.713567,37.468336 43.8125,36.90625 41.939289,36.329021 39.649294,36.000039 37,36 l -11,0 z m 37.875,12 c -1.49113,3e-5 -2.838222,0.14666 -4.0625,0.46875 -1.208598,0.306038 -2.230474,0.778148 -3.09375,1.40625 -0.863283,0.628154 -1.529123,1.42478 -2,2.375 -0.470881,0.93416 -0.718751,2.025016 -0.71875,3.28125 0,0.158998 0.02589,0.315761 0.03125,0.46875 0.06159,-1.030738 0.285685,-1.952858 0.6875,-2.75 0.470877,-0.95022 1.136717,-1.746846 2,-2.375 0.863276,-0.628102 1.885152,-1.100212 3.09375,-1.40625 1.224278,-0.32209 2.57137,-0.46872 4.0625,-0.46875 1.569585,3e-5 3.087347,0.192091 4.5,0.5625 1.302989,0.34171 2.631778,0.844581 4,1.5 l 0.34375,-0.84375 C 71.227612,49.477907 69.787621,48.932961 68.375,48.5625 66.962347,48.192091 65.444585,48.00003 63.875,48 z m -19.71875,1.125 c -0.09773,2.054034 -0.752042,3.664608 -2.09375,4.6875 -1.416336,1.09616 -3.445909,1.562523 -6.03125,1.5625 l -2.375,0 0,1 2.375,0 c 2.585341,2.3e-5 4.614914,-0.46634 6.03125,-1.5625 1.456427,-1.110351 2.124974,-2.906836 2.125,-5.21875 -2e-6,-0.161961 -0.02445,-0.311684 -0.03125,-0.46875 z m 17.03125,6.78125 c -0.04415,0.164474 -0.0625,0.339999 -0.0625,0.53125 -1e-5,0.322136 0.07762,0.617327 0.1875,0.875 0.109866,0.241608 0.326623,0.50747 0.65625,0.78125 0.329605,0.257714 0.778541,0.552903 1.375,0.875 0.596435,0.30603 1.386282,0.674053 2.34375,1.125 1.114401,0.499296 2.105311,1.000734 3,1.5 0.894652,0.483191 1.668946,1.028137 2.3125,1.65625 0.643516,0.628139 1.123418,1.350008 1.46875,2.1875 0.298996,0.725223 0.457225,1.599139 0.5,2.59375 C 72.976999,67.854495 72.999997,67.682691 73,67.5 72.999978,66.308177 72.814041,65.275014 72.46875,64.4375 72.123418,63.600008 71.643516,62.878139 71,62.25 c -0.643554,-0.628113 -1.417848,-1.173059 -2.3125,-1.65625 -0.894689,-0.499266 -1.885599,-1.000704 -3,-1.5 -0.957468,-0.450947 -1.747315,-0.81897 -2.34375,-1.125 -0.596459,-0.322097 -1.045395,-0.617286 -1.375,-0.875 -0.329627,-0.27378 -0.546384,-0.539642 -0.65625,-0.78125 -0.05494,-0.128836 -0.09186,-0.259976 -0.125,-0.40625 z m -7.125,12.4375 0,1 c 0.659228,0.338232 1.340481,0.632457 2.0625,0.90625 0.737706,0.273804 1.465479,0.54063 2.1875,0.75 0.722009,0.193276 1.418813,0.324765 2.09375,0.4375 0.690616,0.11275 1.325488,0.187505 1.90625,0.1875 0.643523,5e-6 1.201053,-0.07475 1.65625,-0.1875 0.45517,-0.128844 0.811209,-0.290617 1.09375,-0.5 0.29821,-0.225475 0.499417,-0.491341 0.625,-0.78125 0.14125,-0.306005 0.218735,-0.63052 0.21875,-0.96875 -9e-6,-0.208412 -0.02328,-0.39016 -0.0625,-0.5625 -0.03668,0.182658 -0.07693,0.359416 -0.15625,0.53125 -0.125583,0.289909 -0.32679,0.555775 -0.625,0.78125 -0.282541,0.209383 -0.63858,0.371156 -1.09375,0.5 -0.455197,0.112752 -1.012727,0.187505 -1.65625,0.1875 -0.580762,5e-6 -1.215634,-0.07475 -1.90625,-0.1875 C 59.731313,70.324765 59.034509,70.193276 58.3125,70 57.590479,69.79063 56.862706,69.523804 56.125,69.25 55.402981,68.976207 54.721728,68.681982 54.0625,68.34375 z"
         inkscape:connector-curvature="0"
         id="path3747"
         style="font-size:48px;font-style:normal;font-variant:normal;font-weight:bold;font-stretch:normal;text-align:start;line-height:100%;writing-mode:lr-tb;text-anchor:start;opacity:0.6;fill:#123b72;fill-opacity:1;stroke:none;font-family:Droid Sans;-inkscape-font-specification:Droid Sans Bold" />
      <path
         d="m 26,36 0,40 7.65625,0 0,-14.65625 2.65625,0 c 3.007821,1.4e-5 5.496289,-0.376132 7.46875,-1.09375 2.017576,-0.727286 3.626148,-1.691995 4.8125,-2.875 1.217362,-1.19583 2.068695,-2.559991 2.59375,-4.125 0.533685,-1.590867 0.812468,-3.25766 0.8125,-5 -3.2e-5,-1.949457 -0.294026,-3.658067 -0.875,-5.15625 C 50.54664,41.584779 49.642992,40.337651 48.4375,39.3125 47.253899,38.273214 45.713567,37.468336 43.8125,36.90625 41.939289,36.329021 39.649294,36.000039 37,36 l -11,0 z m 1.0625,1.0625 9.9375,0 c 2.560646,3.8e-5 4.752091,0.336383 6.5,0.875 1.785333,0.527867 3.175311,1.271286 4.21875,2.1875 a 1.0710363,1.0710363 0 0 0 0.03125,0 c 1.080166,0.918574 1.859484,1.998743 2.375,3.34375 0.52577,1.355827 0.81247,2.939453 0.8125,4.78125 -3e-5,1.628117 -0.252286,3.172609 -0.75,4.65625 -0.473712,1.411974 -1.238788,2.633332 -2.34375,3.71875 -1.049746,1.046784 -2.533309,1.938587 -4.4375,2.625 -1.813494,0.659783 -4.175216,1.031264 -7.09375,1.03125 l -2.65625,0 a 1.0710363,1.0710363 0 0 0 -1.0625,1.0625 l 0,13.59375 -5.53125,0 0,-37.875 z m 6.40625,3.84375 a 1.0710363,1.0710363 0 0 0 -0.875,1.0625 l 0,13.40625 a 1.0710363,1.0710363 0 0 0 1.0625,1.0625 l 2.375,0 c 2.714134,2.4e-5 4.995826,-0.471995 6.6875,-1.78125 1.773677,-1.352216 2.531222,-3.544135 2.53125,-6.0625 -2.8e-5,-2.355531 -0.680164,-4.449374 -2.28125,-5.8125 -1.566483,-1.356123 -3.750693,-1.874963 -6.40625,-1.875 l -2.90625,0 a 1.0710363,1.0710363 0 0 0 -0.1875,0 z m 0.1875,1.0625 2.90625,0 c 2.511415,3.5e-5 4.427443,0.5071 5.71875,1.625 1.306893,1.112657 1.906224,2.84282 1.90625,5 -2.6e-5,2.311914 -0.668573,4.108399 -2.125,5.21875 -1.416336,1.09616 -3.445909,1.562523 -6.03125,1.5625 l -2.375,0 0,-13.40625 z M 63.875,48 c -1.49113,3e-5 -2.838222,0.14666 -4.0625,0.46875 -1.208598,0.306038 -2.230474,0.778148 -3.09375,1.40625 -0.863283,0.628154 -1.529123,1.42478 -2,2.375 -0.470881,0.93416 -0.718751,2.025016 -0.71875,3.28125 -10e-7,1.143534 0.139416,2.131263 0.40625,2.96875 0.26683,0.821415 0.653834,1.574532 1.1875,2.21875 0.549356,0.644249 1.261859,1.21852 2.09375,1.75 0.847577,0.515399 1.822934,1.03102 2.96875,1.5625 1.177189,0.54761 2.121866,1.019721 2.8125,1.40625 0.706307,0.370445 1.232729,0.725246 1.59375,1.03125 0.360992,0.289915 0.59332,0.56996 0.6875,0.84375 0.109858,0.257703 0.156235,0.536787 0.15625,0.875 -1.5e-5,0.33823 -0.0775,0.662745 -0.21875,0.96875 -0.125583,0.289909 -0.32679,0.555775 -0.625,0.78125 -0.282541,0.209383 -0.63858,0.371156 -1.09375,0.5 -0.455197,0.112752 -1.012727,0.187505 -1.65625,0.1875 -0.580762,5e-6 -1.215634,-0.07475 -1.90625,-0.1875 C 59.731313,70.324765 59.034509,70.193276 58.3125,70 57.590479,69.79063 56.862706,69.523804 56.125,69.25 55.402981,68.976207 54.721728,68.681982 54.0625,68.34375 l 0,6.09375 c 0.627837,0.289907 1.231601,0.525482 1.84375,0.71875 0.612138,0.19327 1.247014,0.339906 1.90625,0.46875 0.659225,0.128847 1.356031,0.23293 2.09375,0.28125 C 60.643953,75.97067 61.44921,76 62.3125,76 c 1.632369,-10e-7 3.119023,-0.176921 4.4375,-0.53125 1.318447,-0.354327 2.417668,-0.885091 3.34375,-1.59375 C 71.019794,73.166346 71.747706,72.281738 72.25,71.21875 72.752251,70.15577 72.999978,68.917319 73,67.5 72.999978,66.308177 72.814041,65.275014 72.46875,64.4375 72.123418,63.600008 71.643516,62.878139 71,62.25 c -0.643554,-0.628113 -1.417848,-1.173059 -2.3125,-1.65625 -0.894689,-0.499266 -1.885599,-1.000704 -3,-1.5 -0.957468,-0.450947 -1.747315,-0.81897 -2.34375,-1.125 -0.596459,-0.322097 -1.045395,-0.617286 -1.375,-0.875 -0.329627,-0.27378 -0.546384,-0.539642 -0.65625,-0.78125 -0.109876,-0.257673 -0.18751,-0.552864 -0.1875,-0.875 -1e-5,-0.612002 0.232448,-1.083149 0.65625,-1.4375 0.43948,-0.354304 1.120588,-0.531228 2.09375,-0.53125 1.08301,2.2e-5 2.166962,0.160838 3.25,0.53125 1.083006,0.370454 2.244588,0.857711 3.4375,1.4375 l 2.15625,-5.21875 C 71.227612,49.477907 69.787621,48.932961 68.375,48.5625 66.962347,48.192091 65.444585,48.00003 63.875,48 z m 0,1.0625 c 1.482236,2.8e-5 2.900284,0.185538 4.21875,0.53125 1.033051,0.270918 2.131852,0.735547 3.21875,1.21875 l -1.34375,3.21875 C 69.121786,53.653001 68.264055,53.272043 67.46875,53 66.268494,52.589498 65.06401,52.406274 63.875,52.40625 c -1.10295,2.5e-5 -2.056485,0.165703 -2.78125,0.75 a 1.0710363,1.0710363 0 0 0 0,0.03125 c -0.634333,0.530381 -1.031264,1.366807 -1.03125,2.25 -1.5e-5,0.494217 0.09576,0.919542 0.25,1.28125 A 1.0710363,1.0710363 0 0 0 60.34375,56.75 c 0.207032,0.455288 0.523246,0.812181 0.9375,1.15625 a 1.0710363,1.0710363 0 0 0 0.03125,0.03125 c 0.388727,0.303941 0.891771,0.623422 1.53125,0.96875 0.627836,0.322142 1.419728,0.706337 2.375,1.15625 a 1.0710363,1.0710363 0 0 0 0.03125,0 c 1.086417,0.486758 2.038938,0.984761 2.90625,1.46875 a 1.0710363,1.0710363 0 0 0 0.03125,0 c 0.825747,0.445976 1.504645,0.95553 2.0625,1.5 0.540478,0.527564 0.924037,1.097767 1.21875,1.8125 0.278634,0.675835 0.46873,1.5758 0.46875,2.65625 -2e-5,1.29254 -0.23315,2.354537 -0.65625,3.25 -0.429598,0.909143 -1.044196,1.669392 -1.84375,2.28125 -0.80623,0.616946 -1.765091,1.082772 -2.96875,1.40625 -1.209908,0.325152 -2.60126,0.499999 -4.15625,0.5 -0.839034,0 -1.614017,-0.03275 -2.3125,-0.09375 a 1.0710363,1.0710363 0 0 0 -0.03125,0 C 59.287229,74.799111 58.657602,74.684922 58.03125,74.5625 57.395103,74.438169 56.776462,74.301086 56.21875,74.125 55.859382,74.01154 55.488465,73.867673 55.125,73.71875 l 0,-3.75 c 0.210255,0.08631 0.409852,0.199665 0.625,0.28125 0.740331,0.274778 1.479106,0.557708 2.25,0.78125 a 1.0710363,1.0710363 0 0 0 0.03125,0 c 0.771068,0.206409 1.497234,0.353455 2.1875,0.46875 0.719331,0.117438 1.421082,0.187506 2.09375,0.1875 0.726462,6e-6 1.360186,-0.08349 1.90625,-0.21875 a 1.0710363,1.0710363 0 0 0 0.03125,0 c 0.54039,-0.152967 1.021188,-0.347733 1.4375,-0.65625 a 1.0710363,1.0710363 0 0 0 0.03125,-0.03125 c 0.436405,-0.329964 0.741001,-0.733882 0.9375,-1.1875 0.199536,-0.432277 0.312478,-0.904491 0.3125,-1.40625 -1.8e-5,-0.415417 -0.06046,-0.821468 -0.21875,-1.21875 -0.0079,-0.01977 0.0084,-0.04286 0,-0.0625 l -0.03125,0 C 66.52061,66.383855 66.165617,65.99445 65.75,65.65625 65.741,65.64865 65.72785,65.63263 65.71875,65.625 65.28621,65.262618 64.73247,64.886121 64,64.5 c -0.0093,-0.0049 -0.02185,0.0049 -0.03125,0 -0.727199,-0.405989 -1.693343,-0.887811 -2.875,-1.4375 -1.116414,-0.517842 -2.036883,-1.009356 -2.84375,-1.5 -0.770739,-0.492411 -1.387159,-0.99579 -1.84375,-1.53125 -0.428638,-0.517433 -0.737091,-1.140473 -0.96875,-1.84375 -0.0026,-0.0082 0.0026,-0.02304 0,-0.03125 -0.220864,-0.703954 -0.375001,-1.580696 -0.375,-2.625 -10e-7,-1.115362 0.236961,-2.042686 0.625,-2.8125 0.398271,-0.803704 0.929444,-1.439901 1.65625,-1.96875 0.744607,-0.541761 1.624968,-0.973035 2.71875,-1.25 a 1.0710363,1.0710363 0 0 0 0.03125,0 c 1.114687,-0.293258 2.360313,-0.437471 3.78125,-0.4375 z"
         inkscape:connector-curvature="0"
         id="path3757"
         style="font-size:48px;font-style:normal;font-variant:normal;font-weight:bold;font-stretch:normal;text-align:start;line-height:100%;writing-mode:lr-tb;text-anchor:start;opacity:0.2;fill:#0c2548;fill-opacity:1;stroke:none;font-family:Droid Sans;-inkscape-font-specification:Droid Sans Bold" />
      <path
         d="m 33.65625,41.96875 0,1 2.90625,0 c 2.511415,3.5e-5 4.427443,0.5071 5.71875,1.625 1.208772,1.029119 1.791177,2.596331 1.875,4.53125 0.0084,-0.175624 0.03125,-0.349147 0.03125,-0.53125 -2.6e-5,-2.15718 -0.599357,-3.887343 -1.90625,-5 -1.291307,-1.1179 -3.207335,-1.624965 -5.71875,-1.625 l -2.90625,0 z m 18.3125,6.75 c -0.04621,1.570273 -0.29642,3.086016 -0.78125,4.53125 -0.525055,1.565009 -1.376388,2.92917 -2.59375,4.125 -1.186352,1.183005 -2.794924,2.147714 -4.8125,2.875 -1.972461,0.717618 -4.460929,1.093764 -7.46875,1.09375 l -2.65625,0 0,1 2.65625,0 c 3.007821,1.4e-5 5.496289,-0.376132 7.46875,-1.09375 2.017576,-0.727286 3.626148,-1.691995 4.8125,-2.875 1.217362,-1.19583 2.068695,-2.559991 2.59375,-4.125 0.533685,-1.590867 0.812468,-3.25766 0.8125,-5 -3e-6,-0.184233 -0.026,-0.351294 -0.03125,-0.53125 z M 72.375,51.0625 70.5625,55.4375 C 69.369588,54.857711 68.208006,54.370454 67.125,54 c -1.083038,-0.370412 -2.16699,-0.531228 -3.25,-0.53125 -0.973162,2.2e-5 -1.65427,0.176946 -2.09375,0.53125 -0.423802,0.354351 -0.65626,0.825498 -0.65625,1.4375 -5e-6,0.161068 0.02936,0.322476 0.0625,0.46875 0.09712,-0.361843 0.302386,-0.662634 0.59375,-0.90625 0.43948,-0.354304 1.120588,-0.531228 2.09375,-0.53125 1.08301,2.2e-5 2.166962,0.160838 3.25,0.53125 1.083006,0.370454 2.244588,0.857711 3.4375,1.4375 l 2.15625,-5.21875 C 72.603024,51.161254 72.490121,51.117646 72.375,51.0625 z M 54.03125,56 C 54.020663,56.177169 54,56.346992 54,56.53125 c -10e-7,1.143534 0.139416,2.131263 0.40625,2.96875 0.26683,0.821415 0.653834,1.574532 1.1875,2.21875 0.549356,0.644249 1.261859,1.21852 2.09375,1.75 0.847577,0.515399 1.822934,1.03102 2.96875,1.5625 1.177189,0.54761 2.121866,1.019721 2.8125,1.40625 0.706307,0.370445 1.232729,0.725246 1.59375,1.03125 0.360992,0.289915 0.59332,0.56996 0.6875,0.84375 0.04216,0.0989 0.06932,0.205166 0.09375,0.3125 0.02864,-0.142623 0.06249,-0.289199 0.0625,-0.4375 -1.5e-5,-0.338213 -0.04639,-0.617297 -0.15625,-0.875 -0.09418,-0.27379 -0.326508,-0.553835 -0.6875,-0.84375 -0.361021,-0.306004 -0.887443,-0.660805 -1.59375,-1.03125 -0.690634,-0.386529 -1.635311,-0.85864 -2.8125,-1.40625 -1.145816,-0.53148 -2.121173,-1.047101 -2.96875,-1.5625 -0.831891,-0.53148 -1.544394,-1.105751 -2.09375,-1.75 C 55.060084,60.074532 54.67308,59.321415 54.40625,58.5 54.176517,57.778958 54.064428,56.947326 54.03125,56 z m 18.9375,12.03125 C 72.913,69.225759 72.687511,70.292787 72.25,71.21875 71.747706,72.281738 71.019794,73.166346 70.09375,73.875 69.167668,74.583659 68.068447,75.114423 66.75,75.46875 65.431523,75.823079 63.944869,75.999999 62.3125,76 61.44921,76 60.643953,75.97067 59.90625,75.90625 59.168531,75.85793 58.471725,75.753847 57.8125,75.625 57.153264,75.496156 56.518388,75.34952 55.90625,75.15625 55.294101,74.962982 54.690337,74.727407 54.0625,74.4375 l 0,1 c 0.627837,0.289907 1.231601,0.525482 1.84375,0.71875 0.612138,0.19327 1.247014,0.339906 1.90625,0.46875 0.659225,0.128847 1.356031,0.23293 2.09375,0.28125 C 60.643953,76.97067 61.44921,77 62.3125,77 c 1.632369,-10e-7 3.119023,-0.176921 4.4375,-0.53125 1.318447,-0.354327 2.417668,-0.885091 3.34375,-1.59375 0.926044,-0.708654 1.653956,-1.593262 2.15625,-2.65625 0.502251,-1.06298 0.749978,-2.301431 0.75,-3.71875 -3e-6,-0.159795 -0.02463,-0.314748 -0.03125,-0.46875 z M 26,76 l 0,1 7.65625,0 0,-1 L 26,76 z"
         inkscape:connector-curvature="0"
         id="path3764"
         style="font-size:48px;font-style:normal;font-variant:normal;font-weight:bold;font-stretch:normal;text-align:start;line-height:100%;writing-mode:lr-tb;text-anchor:start;opacity:0.8;fill:#ffffff;fill-opacity:1;stroke:none;font-family:Droid Sans;-inkscape-font-specification:Droid Sans Bold" />
    </g>
    <rect
       ry="25"
       rx="25"
       id="rect3003"
       style="opacity:0.15;fill:#ffffff;fill-opacity:1"
       height="92"
       width="92"
       y="958.36218"
       x="-96"
       clip-path="url(#clipPath3009)"
       transform="translate(98,3.8281269e-7)" />
  </g>
</svg>
