<?xml version="1.0" encoding="UTF-8" standalone="no"?>
<!-- Created with Inkscape (http://www.inkscape.org/) -->

<svg
   xmlns:dc="http://purl.org/dc/elements/1.1/"
   xmlns:cc="http://creativecommons.org/ns#"
   xmlns:rdf="http://www.w3.org/1999/02/22-rdf-syntax-ns#"
   xmlns:svg="http://www.w3.org/2000/svg"
   xmlns="http://www.w3.org/2000/svg"
   xmlns:xlink="http://www.w3.org/1999/xlink"
   xmlns:sodipodi="http://sodipodi.sourceforge.net/DTD/sodipodi-0.dtd"
   xmlns:inkscape="http://www.inkscape.org/namespaces/inkscape"
   width="96"
   height="96"
   id="svg11037"
   version="1.1"
   inkscape:version="0.48.3.1 r9886"
   sodipodi:docname="multipart-encrypted.svg">
  <defs
     id="defs11039">
    <linearGradient
       y2="1046.1001"
       x2="47.999954"
       y1="962.62189"
       x1="47.999954"
       gradientTransform="matrix(1.15,0,0,1.15,-7.1999462,-150.65291)"
       gradientUnits="userSpaceOnUse"
       id="linearGradient3886"
       xlink:href="#linearGradient3795"
       inkscape:collect="always" />
    <linearGradient
       id="linearGradient3795">
      <stop
         style="stop-color:#13a6fd;stop-opacity:1;"
         offset="0"
         id="stop3797" />
      <stop
         style="stop-color:#2975b6;stop-opacity:1;"
         offset="1"
         id="stop3799" />
    </linearGradient>
    <linearGradient
       y2="1046.1001"
       x2="47.999954"
       y1="962.62189"
       x1="47.999954"
       gradientTransform="matrix(1.15,0,0,1.15,-7.1999462,-150.65292)"
       gradientUnits="userSpaceOnUse"
       id="linearGradient11642"
       xlink:href="#linearGradient3700"
       inkscape:collect="always" />
    <linearGradient
       x1="48"
       y1="90"
       x2="48"
       y2="5.9877172"
       id="linearGradient3706"
       xlink:href="#linearGradient3700"
       gradientUnits="userSpaceOnUse" />
    <linearGradient
       id="linearGradient3700">
      <stop
         id="stop3702"
         style="stop-color:#e6e6e6;stop-opacity:1"
         offset="0" />
      <stop
         id="stop3704"
         style="stop-color:#f5f5f5;stop-opacity:1"
         offset="1" />
    </linearGradient>
    <linearGradient
       gradientTransform="translate(-88.911178,978.60329)"
       y2="5.9877172"
       x2="48"
       y1="90"
       x1="48"
       gradientUnits="userSpaceOnUse"
       id="linearGradient3078"
       xlink:href="#linearGradient3700"
       inkscape:collect="always" />
    <linearGradient
       x1="42"
       y1="72"
       x2="42"
       y2="24"
       id="linearGradient3795-1"
       xlink:href="#linearGradient3789"
       gradientUnits="userSpaceOnUse" />
    <linearGradient
       id="linearGradient3789">
      <stop
         id="stop3791"
         style="stop-color:#949494;stop-opacity:1"
         offset="0" />
      <stop
         id="stop3793"
         style="stop-color:#b3b3b3;stop-opacity:1"
         offset="1" />
    </linearGradient>
    <linearGradient
       x1="42"
       y1="72"
       x2="42"
       y2="24"
       id="linearGradient3243"
       xlink:href="#linearGradient3789"
       gradientUnits="userSpaceOnUse" />
    <linearGradient
       id="linearGradient3245">
      <stop
         id="stop3247"
         style="stop-color:#949494;stop-opacity:1"
         offset="0" />
      <stop
         id="stop3249"
         style="stop-color:#b3b3b3;stop-opacity:1"
         offset="1" />
    </linearGradient>
    <linearGradient
       x1="42"
       y1="72"
       x2="42"
       y2="24"
       id="linearGradient3251"
       xlink:href="#linearGradient3789"
       gradientUnits="userSpaceOnUse" />
    <linearGradient
       id="linearGradient3253">
      <stop
         id="stop3255"
         style="stop-color:#949494;stop-opacity:1"
         offset="0" />
      <stop
         id="stop3257"
         style="stop-color:#b3b3b3;stop-opacity:1"
         offset="1" />
    </linearGradient>
    <linearGradient
       x1="42"
       y1="72"
       x2="42"
       y2="24"
       id="linearGradient3259"
       xlink:href="#linearGradient3789"
       gradientUnits="userSpaceOnUse" />
    <linearGradient
       id="linearGradient3261">
      <stop
         id="stop3263"
         style="stop-color:#949494;stop-opacity:1"
         offset="0" />
      <stop
         id="stop3265"
         style="stop-color:#b3b3b3;stop-opacity:1"
         offset="1" />
    </linearGradient>
    <linearGradient
       x1="42"
       y1="72"
       x2="42"
       y2="24"
       id="linearGradient3267"
       xlink:href="#linearGradient3789"
       gradientUnits="userSpaceOnUse" />
    <linearGradient
       id="linearGradient3269">
      <stop
         id="stop3271"
         style="stop-color:#949494;stop-opacity:1"
         offset="0" />
      <stop
         id="stop3273"
         style="stop-color:#b3b3b3;stop-opacity:1"
         offset="1" />
    </linearGradient>
    <linearGradient
       x1="42"
       y1="72"
       x2="42"
       y2="24"
       id="linearGradient3275"
       xlink:href="#linearGradient3789"
       gradientUnits="userSpaceOnUse" />
    <linearGradient
       id="linearGradient3277">
      <stop
         id="stop3279"
         style="stop-color:#949494;stop-opacity:1"
         offset="0" />
      <stop
         id="stop3281"
         style="stop-color:#b3b3b3;stop-opacity:1"
         offset="1" />
    </linearGradient>
    <linearGradient
       x1="42"
       y1="72"
       x2="42"
       y2="24"
       id="linearGradient3283"
       xlink:href="#linearGradient3789"
       gradientUnits="userSpaceOnUse" />
    <linearGradient
       id="linearGradient3285">
      <stop
         id="stop3287"
         style="stop-color:#949494;stop-opacity:1"
         offset="0" />
      <stop
         id="stop3289"
         style="stop-color:#b3b3b3;stop-opacity:1"
         offset="1" />
    </linearGradient>
    <linearGradient
       x1="42"
       y1="72"
       x2="42"
       y2="24"
       id="linearGradient3291"
       xlink:href="#linearGradient3789"
       gradientUnits="userSpaceOnUse" />
    <linearGradient
       id="linearGradient3293">
      <stop
         id="stop3295"
         style="stop-color:#949494;stop-opacity:1"
         offset="0" />
      <stop
         id="stop3297"
         style="stop-color:#b3b3b3;stop-opacity:1"
         offset="1" />
    </linearGradient>
    <linearGradient
       x1="42"
       y1="72"
       x2="42"
       y2="24"
       id="linearGradient3299"
       xlink:href="#linearGradient3789"
       gradientUnits="userSpaceOnUse" />
    <linearGradient
       id="linearGradient3301">
      <stop
         id="stop3303"
         style="stop-color:#949494;stop-opacity:1"
         offset="0" />
      <stop
         id="stop3305"
         style="stop-color:#b3b3b3;stop-opacity:1"
         offset="1" />
    </linearGradient>
    <linearGradient
       x1="42"
       y1="72"
       x2="42"
       y2="24"
       id="linearGradient3307"
       xlink:href="#linearGradient3789"
       gradientUnits="userSpaceOnUse" />
    <linearGradient
       id="linearGradient3309">
      <stop
         id="stop3311"
         style="stop-color:#949494;stop-opacity:1"
         offset="0" />
      <stop
         id="stop3313"
         style="stop-color:#b3b3b3;stop-opacity:1"
         offset="1" />
    </linearGradient>
    <linearGradient
       x1="42"
       y1="72"
       x2="42"
       y2="24"
       id="linearGradient3315"
       xlink:href="#linearGradient3789"
       gradientUnits="userSpaceOnUse" />
    <linearGradient
       id="linearGradient3317">
      <stop
         id="stop3319"
         style="stop-color:#949494;stop-opacity:1"
         offset="0" />
      <stop
         id="stop3321"
         style="stop-color:#b3b3b3;stop-opacity:1"
         offset="1" />
    </linearGradient>
    <linearGradient
       x1="42"
       y1="72"
       x2="42"
       y2="24"
       id="linearGradient3323"
       xlink:href="#linearGradient3789"
       gradientUnits="userSpaceOnUse" />
    <linearGradient
       id="linearGradient3325">
      <stop
         id="stop3327"
         style="stop-color:#949494;stop-opacity:1"
         offset="0" />
      <stop
         id="stop3329"
         style="stop-color:#b3b3b3;stop-opacity:1"
         offset="1" />
    </linearGradient>
    <linearGradient
       x1="42"
       y1="72"
       x2="42"
       y2="24"
       id="linearGradient3331"
       xlink:href="#linearGradient3789"
       gradientUnits="userSpaceOnUse" />
    <linearGradient
       id="linearGradient3333">
      <stop
         id="stop3335"
         style="stop-color:#949494;stop-opacity:1"
         offset="0" />
      <stop
         id="stop3337"
         style="stop-color:#b3b3b3;stop-opacity:1"
         offset="1" />
    </linearGradient>
    <clipPath
       id="clipPath3776">
      <path
         d="m -88,6 c -3.324,0 -6,2.676 -6,6 l 0,72 c 0,3.324 2.676,6 6,6 l 72,0 c 3.324,0 6,-2.676 6,-6 l 0,-72 c 0,-3.324 -2.676,-6 -6,-6 l -72,0 z m 14.78125,18 4.40625,0 c 0.944132,1.3e-5 1.646705,0.342872 2.15625,1.09375 0.404619,0.605567 0.656238,1.330757 0.65625,2.09375 l 0,5.6875 c -1.2e-5,0.763003 -0.25163,1.449916 -0.65625,2.03125 C -67.165796,35.645027 -67.868369,36 -68.8125,36 l -4.40625,0 c -0.929155,0 -1.677969,-0.35497 -2.1875,-1.09375 C -75.810883,34.324914 -76,33.638004 -76,32.875 l 0,-5.6875 c 10e-7,-0.762992 0.189117,-1.488183 0.59375,-2.09375 0.509531,-0.750878 1.258345,-1.093738 2.1875,-1.09375 z m 11.25,0 4.09375,0 0,11 3.875,0 0,1 -10,0 0,-1 3.875,0 0,-10 -1.84375,0 0,-1 z m 12.75,0 4.40625,0 c 0.944132,1.3e-5 1.646705,0.342872 2.15625,1.09375 0.404619,0.605567 0.656238,1.330757 0.65625,2.09375 l 0,5.6875 c -1.2e-5,0.763003 -0.25163,1.449916 -0.65625,2.03125 C -43.165796,35.645027 -43.868369,36 -44.8125,36 l -4.40625,0 c -0.929155,0 -1.677969,-0.35497 -2.1875,-1.09375 C -51.810883,34.324914 -52,33.638004 -52,32.875 l 0,-5.6875 c 10e-7,-0.762992 0.189117,-1.488183 0.59375,-2.09375 0.509531,-0.750878 1.258345,-1.093738 2.1875,-1.09375 z m 12,0 4.40625,0 c 0.944132,1.3e-5 1.646705,0.342872 2.15625,1.09375 0.404619,0.605567 0.656238,1.330757 0.65625,2.09375 l 0,5.6875 c -1.2e-5,0.763003 -0.25163,1.449916 -0.65625,2.03125 C -31.165796,35.645027 -31.868369,36 -32.8125,36 l -4.40625,0 c -0.929155,0 -1.677969,-0.35497 -2.1875,-1.09375 C -39.810883,34.324914 -40,33.638004 -40,32.875 l 0,-5.6875 c 10e-7,-0.762992 0.189117,-1.488183 0.59375,-2.09375 0.509531,-0.750878 1.258345,-1.093738 2.1875,-1.09375 z m -34.875,1 c -0.614442,1.2e-5 -1.107805,0.260482 -1.4375,0.78125 -0.254769,0.411788 -0.406252,0.897591 -0.40625,1.40625 l 0,5.6875 c -2e-6,0.363335 0.100134,0.704251 0.25,1.03125 l 4.53125,-8.78125 c -0.209815,-0.08476 -0.432739,-0.124989 -0.6875,-0.125 l -2.25,0 z m 24,0 c -0.614442,1.2e-5 -1.107805,0.260482 -1.4375,0.78125 -0.254769,0.411788 -0.406252,0.897591 -0.40625,1.40625 l 0,5.6875 c -2e-6,0.363335 0.100134,0.704251 0.25,1.03125 l 4.53125,-8.78125 c -0.209815,-0.08476 -0.432739,-0.124989 -0.6875,-0.125 l -2.25,0 z m 12,0 c -0.614442,1.2e-5 -1.107805,0.260482 -1.4375,0.78125 -0.254769,0.411788 -0.406252,0.897591 -0.40625,1.40625 l 0,5.6875 c -2e-6,0.363335 0.100134,0.704251 0.25,1.03125 l 4.53125,-8.78125 c -0.209815,-0.08476 -0.432739,-0.124989 -0.6875,-0.125 l -2.25,0 z m -32.15625,1.15625 -4.5,8.75 c 0.194818,0.07266 0.43145,0.125001 0.65625,0.125 l 2.25,0 c 0.614432,2e-6 1.06028,-0.260469 1.375,-0.78125 0.254761,-0.399664 0.406243,-0.878441 0.40625,-1.375 l 0,-5.6875 c -7e-6,-0.351212 -0.05263,-0.692128 -0.1875,-1.03125 z m 24,0 -4.5,8.75 c 0.194818,0.07266 0.43145,0.125001 0.65625,0.125 l 2.25,0 c 0.614432,2e-6 1.06028,-0.260469 1.375,-0.78125 0.254761,-0.399664 0.406243,-0.878441 0.40625,-1.375 l 0,-5.6875 c -7e-6,-0.351212 -0.05263,-0.692128 -0.1875,-1.03125 z m 12,0 -4.5,8.75 c 0.194818,0.07266 0.43145,0.125001 0.65625,0.125 l 2.25,0 c 0.614432,2e-6 1.06028,-0.260469 1.375,-0.78125 0.254761,-0.399664 0.406243,-0.878441 0.40625,-1.375 l 0,-5.6875 c -7e-6,-0.351212 -0.05263,-0.692128 -0.1875,-1.03125 z M -73.96875,42 l 4.09375,0 0,11 3.875,0 0,1 -10,0 0,-1 3.875,0 0,-10 -1.84375,0 0,-1 z m 12,0 4.09375,0 0,11 3.875,0 0,1 -10,0 0,-1 3.875,0 0,-10 -1.84375,0 0,-1 z m 12.75,0 4.40625,0 c 0.944132,1.3e-5 1.646705,0.342872 2.15625,1.09375 0.404619,0.605567 0.656238,1.330757 0.65625,2.09375 l 0,5.6875 c -1.2e-5,0.763003 -0.25163,1.449916 -0.65625,2.03125 C -43.165796,53.645027 -43.868369,54 -44.8125,54 l -4.40625,0 c -0.929155,0 -1.677969,-0.35497 -2.1875,-1.09375 C -51.810883,52.324914 -52,51.638004 -52,50.875 l 0,-5.6875 c 10e-7,-0.762992 0.189117,-1.488183 0.59375,-2.09375 0.509531,-0.750878 1.258345,-1.093738 2.1875,-1.09375 z m 11.25,0 4.09375,0 0,11 3.875,0 0,1 -10,0 0,-1 3.875,0 0,-10 -1.84375,0 0,-1 z m -10.125,1 c -0.614442,1.2e-5 -1.107805,0.260482 -1.4375,0.78125 -0.254769,0.411788 -0.406252,0.897591 -0.40625,1.40625 l 0,5.6875 c -2e-6,0.363335 0.100134,0.704251 0.25,1.03125 l 4.53125,-8.78125 c -0.209815,-0.08476 -0.432739,-0.124989 -0.6875,-0.125 l -2.25,0 z m 3.84375,1.15625 -4.5,8.75 c 0.194818,0.07266 0.43145,0.125001 0.65625,0.125 l 2.25,0 c 0.614432,2e-6 1.06028,-0.260469 1.375,-0.78125 0.254761,-0.399664 0.406243,-0.878441 0.40625,-1.375 l 0,-5.6875 c -7e-6,-0.351212 -0.05263,-0.692128 -0.1875,-1.03125 z M -73.96875,60 l 4.09375,0 0,11 3.875,0 0,1 -10,0 0,-1 3.875,0 0,-10 -1.84375,0 0,-1 z m 12.75,0 4.40625,0 c 0.944132,1.3e-5 1.646705,0.342872 2.15625,1.09375 0.404619,0.605567 0.656238,1.330757 0.65625,2.09375 l 0,5.6875 c -1.2e-5,0.763003 -0.25163,1.449916 -0.65625,2.03125 C -55.165796,71.645027 -55.868369,72 -56.8125,72 l -4.40625,0 c -0.929155,0 -1.677969,-0.35497 -2.1875,-1.09375 C -63.810883,70.324914 -64,69.638004 -64,68.875 l 0,-5.6875 c 10e-7,-0.762992 0.189117,-1.488183 0.59375,-2.09375 0.509531,-0.750878 1.258345,-1.093738 2.1875,-1.09375 z m 12,0 4.40625,0 c 0.944132,1.3e-5 1.646705,0.342872 2.15625,1.09375 0.404619,0.605567 0.656238,1.330757 0.65625,2.09375 l 0,5.6875 c -1.2e-5,0.763003 -0.25163,1.449916 -0.65625,2.03125 C -43.165796,71.645027 -43.868369,72 -44.8125,72 l -4.40625,0 c -0.929155,0 -1.677969,-0.35497 -2.1875,-1.09375 C -51.810883,70.324914 -52,69.638004 -52,68.875 l 0,-5.6875 c 10e-7,-0.762992 0.189117,-1.488183 0.59375,-2.09375 0.509531,-0.750878 1.258345,-1.093738 2.1875,-1.09375 z m 11.25,0 4.09375,0 0,11 3.875,0 0,1 -10,0 0,-1 3.875,0 0,-10 -1.84375,0 0,-1 z m -22.125,1 c -0.614442,1.2e-5 -1.107805,0.260482 -1.4375,0.78125 -0.254769,0.411788 -0.406252,0.897591 -0.40625,1.40625 l 0,5.6875 c -2e-6,0.363335 0.100134,0.704251 0.25,1.03125 l 4.53125,-8.78125 c -0.209815,-0.08476 -0.432739,-0.124989 -0.6875,-0.125 l -2.25,0 z m 12,0 c -0.614442,1.2e-5 -1.107805,0.260482 -1.4375,0.78125 -0.254769,0.411788 -0.406252,0.897591 -0.40625,1.40625 l 0,5.6875 c -2e-6,0.363335 0.100134,0.704251 0.25,1.03125 l 4.53125,-8.78125 c -0.209815,-0.08476 -0.432739,-0.124989 -0.6875,-0.125 l -2.25,0 z m -8.15625,1.15625 -4.5,8.75 c 0.194818,0.07266 0.43145,0.125001 0.65625,0.125 l 2.25,0 c 0.614432,2e-6 1.06028,-0.260469 1.375,-0.78125 0.254761,-0.399664 0.406243,-0.878441 0.40625,-1.375 l 0,-5.6875 c -7e-6,-0.351212 -0.05263,-0.692128 -0.1875,-1.03125 z m 12,0 -4.5,8.75 c 0.194818,0.07266 0.43145,0.125001 0.65625,0.125 l 2.25,0 c 0.614432,2e-6 1.06028,-0.260469 1.375,-0.78125 0.254761,-0.399664 0.406243,-0.878441 0.40625,-1.375 l 0,-5.6875 c -7e-6,-0.351212 -0.05263,-0.692128 -0.1875,-1.03125 z"
         inkscape:connector-curvature="0"
         id="path3779"
         style="fill:#ff00ff;fill-opacity:1;fill-rule:nonzero;stroke:none" />
    </clipPath>
    <filter
       x="-0.14713043"
       y="-0.141"
       width="1.2942609"
       height="1.2819999"
       color-interpolation-filters="sRGB"
       id="filter3785">
      <feGaussianBlur
         id="feGaussianBlur3787"
         stdDeviation="2.82" />
    </filter>
    <linearGradient
       y2="24"
       x2="42"
       y1="72"
       x1="42"
       gradientUnits="userSpaceOnUse"
       id="linearGradient3357"
       xlink:href="#linearGradient3789"
       inkscape:collect="always" />
    <linearGradient
       y2="24"
       x2="42"
       y1="72"
       x1="42"
       gradientUnits="userSpaceOnUse"
       id="linearGradient3359"
       xlink:href="#linearGradient3789"
       inkscape:collect="always" />
    <linearGradient
       y2="24"
       x2="42"
       y1="72"
       x1="42"
       gradientUnits="userSpaceOnUse"
       id="linearGradient3361"
       xlink:href="#linearGradient3789"
       inkscape:collect="always" />
    <linearGradient
       y2="24"
       x2="42"
       y1="72"
       x1="42"
       gradientUnits="userSpaceOnUse"
       id="linearGradient3363"
       xlink:href="#linearGradient3789"
       inkscape:collect="always" />
    <linearGradient
       y2="24"
       x2="42"
       y1="72"
       x1="42"
       gradientUnits="userSpaceOnUse"
       id="linearGradient3365"
       xlink:href="#linearGradient3789"
       inkscape:collect="always" />
    <linearGradient
       y2="24"
       x2="42"
       y1="72"
       x1="42"
       gradientUnits="userSpaceOnUse"
       id="linearGradient3367"
       xlink:href="#linearGradient3789"
       inkscape:collect="always" />
    <linearGradient
       y2="24"
       x2="42"
       y1="72"
       x1="42"
       gradientUnits="userSpaceOnUse"
       id="linearGradient3369"
       xlink:href="#linearGradient3789"
       inkscape:collect="always" />
    <linearGradient
       y2="24"
       x2="42"
       y1="72"
       x1="42"
       gradientUnits="userSpaceOnUse"
       id="linearGradient3371"
       xlink:href="#linearGradient3789"
       inkscape:collect="always" />
    <linearGradient
       y2="24"
       x2="42"
       y1="72"
       x1="42"
       gradientUnits="userSpaceOnUse"
       id="linearGradient3373"
       xlink:href="#linearGradient3789"
       inkscape:collect="always" />
    <linearGradient
       y2="24"
       x2="42"
       y1="72"
       x1="42"
       gradientUnits="userSpaceOnUse"
       id="linearGradient3375"
       xlink:href="#linearGradient3789"
       inkscape:collect="always" />
    <linearGradient
       y2="24"
       x2="42"
       y1="72"
       x1="42"
       gradientUnits="userSpaceOnUse"
       id="linearGradient3377"
       xlink:href="#linearGradient3789"
       inkscape:collect="always" />
    <linearGradient
       y2="24"
       x2="42"
       y1="72"
       x1="42"
       gradientUnits="userSpaceOnUse"
       id="linearGradient3379"
       xlink:href="#linearGradient3789"
       inkscape:collect="always" />
    <clipPath
       clipPathUnits="userSpaceOnUse"
       id="clipPath3009">
      <path
         id="path3011"
         d="m -2,956.36218 -96,0 0,33.5624 96,25.68742 0,-59.24982 z"
         style="opacity:0.15;fill:#ffffff;fill-opacity:1;stroke:none"
         inkscape:connector-curvature="0" />
    </clipPath>
  </defs>
  <sodipodi:namedview
     id="base"
     pagecolor="#ffffff"
     bordercolor="#666666"
     borderopacity="1.0"
     inkscape:pageopacity="0.0"
     inkscape:pageshadow="2"
     inkscape:zoom="3.959798"
     inkscape:cx="33.538031"
     inkscape:cy="59.964634"
     inkscape:document-units="px"
     inkscape:current-layer="layer1"
     showgrid="false"
     inkscape:window-width="1280"
     inkscape:window-height="750"
     inkscape:window-x="0"
     inkscape:window-y="22"
     inkscape:window-maximized="1"
     showguides="true"
     inkscape:guide-bbox="true">
    <sodipodi:guide
       orientation="0,1"
       position="-24.748737,0"
       id="guide11064" />
    <sodipodi:guide
       orientation="0,1"
       position="-23.233509,96"
       id="guide11066" />
    <sodipodi:guide
       orientation="1,0"
       position="0,54.800776"
       id="guide11068" />
    <sodipodi:guide
       orientation="1,0"
       position="96,51.012704"
       id="guide11070" />
    <sodipodi:guide
       orientation="0,1"
       position="-18.94036,48"
       id="guide11072" />
    <sodipodi:guide
       orientation="1,0"
       position="48,79.296975"
       id="guide11074" />
    <sodipodi:guide
       orientation="1,0"
       position="2,75.508903"
       id="guide11076" />
    <sodipodi:guide
       orientation="0,1"
       position="-77.27667,2"
       id="guide11078" />
    <sodipodi:guide
       orientation="1,0"
       position="94,77.781746"
       id="guide11080" />
    <sodipodi:guide
       orientation="0,1"
       position="-65.912454,94"
       id="guide11082" />
  </sodipodi:namedview>
  <metadata
     id="metadata11042">
    <rdf:RDF>
      <cc:Work
         rdf:about="">
        <dc:format>image/svg+xml</dc:format>
        <dc:type
           rdf:resource="http://purl.org/dc/dcmitype/StillImage" />
        <dc:title />
      </cc:Work>
    </rdf:RDF>
  </metadata>
  <g
     inkscape:label="Layer 1"
     inkscape:groupmode="layer"
     id="layer1"
     transform="translate(0,-956.36218)">
    <rect
       x="2"
       y="958.36218"
       width="92"
       height="92"
       style="fill:url(#linearGradient11642);fill-opacity:1.0"
       id="rect3867"
       rx="25"
       ry="25" />
    <path
       d="m -73.21875,24 c -0.929155,1.2e-5 -1.677969,0.342872 -2.1875,1.09375 -0.404633,0.605567 -0.593749,1.330758 -0.59375,2.09375 l 0,5.6875 c 0,0.763004 0.189117,1.449914 0.59375,2.03125 0.509531,0.73878 1.258345,1.09375 2.1875,1.09375 l 4.40625,0 c 0.944131,0 1.646704,-0.354973 2.15625,-1.09375 0.40462,-0.581334 0.656238,-1.268247 0.65625,-2.03125 l 0,-5.6875 c -1.2e-5,-0.762993 -0.251631,-1.488183 -0.65625,-2.09375 C -67.165795,24.342872 -67.868368,24.000013 -68.8125,24 l -4.40625,0 z m 11.25,0 0,1 1.84375,0 0,10 -3.875,0 0,1 10,0 0,-1 -3.875,0 0,-11 -4.09375,0 z m 12.75,0 c -0.929155,1.2e-5 -1.677969,0.342872 -2.1875,1.09375 -0.404633,0.605567 -0.593749,1.330758 -0.59375,2.09375 l 0,5.6875 c 0,0.763004 0.189117,1.449914 0.59375,2.03125 0.509531,0.73878 1.258345,1.09375 2.1875,1.09375 l 4.40625,0 c 0.944131,0 1.646704,-0.354973 2.15625,-1.09375 0.40462,-0.581334 0.656238,-1.268247 0.65625,-2.03125 l 0,-5.6875 c -1.2e-5,-0.762993 -0.251631,-1.488183 -0.65625,-2.09375 C -43.165795,24.342872 -43.868368,24.000013 -44.8125,24 l -4.40625,0 z m 12,0 c -0.929155,1.2e-5 -1.677969,0.342872 -2.1875,1.09375 -0.404633,0.605567 -0.593749,1.330758 -0.59375,2.09375 l 0,5.6875 c 0,0.763004 0.189117,1.449914 0.59375,2.03125 0.509531,0.73878 1.258345,1.09375 2.1875,1.09375 l 4.40625,0 c 0.944131,0 1.646704,-0.354973 2.15625,-1.09375 0.40462,-0.581334 0.656238,-1.268247 0.65625,-2.03125 l 0,-5.6875 c -1.2e-5,-0.762993 -0.251631,-1.488183 -0.65625,-2.09375 C -31.165795,24.342872 -31.868368,24.000013 -32.8125,24 l -4.40625,0 z m -34.875,1 2.25,0 c 0.254761,1.1e-5 0.477685,0.04024 0.6875,0.125 l -4.53125,8.78125 c -0.149866,-0.326999 -0.250002,-0.667915 -0.25,-1.03125 l 0,-5.6875 c -2e-6,-0.508659 0.151481,-0.994462 0.40625,-1.40625 0.329695,-0.520768 0.823058,-0.781238 1.4375,-0.78125 z m 24,0 2.25,0 c 0.254761,1.1e-5 0.477685,0.04024 0.6875,0.125 l -4.53125,8.78125 c -0.149866,-0.326999 -0.250002,-0.667915 -0.25,-1.03125 l 0,-5.6875 c -2e-6,-0.508659 0.151481,-0.994462 0.40625,-1.40625 0.329695,-0.520768 0.823058,-0.781238 1.4375,-0.78125 z m 12,0 2.25,0 c 0.254761,1.1e-5 0.477685,0.04024 0.6875,0.125 l -4.53125,8.78125 c -0.149866,-0.326999 -0.250002,-0.667915 -0.25,-1.03125 l 0,-5.6875 c -2e-6,-0.508659 0.151481,-0.994462 0.40625,-1.40625 0.329695,-0.520768 0.823058,-0.781238 1.4375,-0.78125 z M -68.25,26.15625 c 0.134869,0.339122 0.187493,0.680038 0.1875,1.03125 l 0,5.6875 c -7e-6,0.496559 -0.151489,0.975336 -0.40625,1.375 -0.31472,0.520781 -0.760568,0.781252 -1.375,0.78125 l -2.25,0 c -0.2248,10e-7 -0.461432,-0.05234 -0.65625,-0.125 l 4.5,-8.75 z m 24,0 c 0.134869,0.339122 0.187493,0.680038 0.1875,1.03125 l 0,5.6875 c -7e-6,0.496559 -0.151489,0.975336 -0.40625,1.375 -0.31472,0.520781 -0.760568,0.781252 -1.375,0.78125 l -2.25,0 c -0.2248,10e-7 -0.461432,-0.05234 -0.65625,-0.125 l 4.5,-8.75 z m 12,0 c 0.134869,0.339122 0.187493,0.680038 0.1875,1.03125 l 0,5.6875 c -7e-6,0.496559 -0.151489,0.975336 -0.40625,1.375 -0.31472,0.520781 -0.760568,0.781252 -1.375,0.78125 l -2.25,0 c -0.2248,10e-7 -0.461432,-0.05234 -0.65625,-0.125 l 4.5,-8.75 z M -73.96875,42 l 0,1 1.84375,0 0,10 -3.875,0 0,1 10,0 0,-1 -3.875,0 0,-11 -4.09375,0 z m 12,0 0,1 1.84375,0 0,10 -3.875,0 0,1 10,0 0,-1 -3.875,0 0,-11 -4.09375,0 z m 12.75,0 c -0.929155,1.2e-5 -1.677969,0.342872 -2.1875,1.09375 -0.404633,0.605567 -0.593749,1.330758 -0.59375,2.09375 l 0,5.6875 c 0,0.763004 0.189117,1.449914 0.59375,2.03125 0.509531,0.73878 1.258345,1.09375 2.1875,1.09375 l 4.40625,0 c 0.944131,0 1.646704,-0.354973 2.15625,-1.09375 0.40462,-0.581334 0.656238,-1.268247 0.65625,-2.03125 l 0,-5.6875 c -1.2e-5,-0.762993 -0.251631,-1.488183 -0.65625,-2.09375 C -43.165795,42.342872 -43.868368,42.000013 -44.8125,42 l -4.40625,0 z m 11.25,0 0,1 1.84375,0 0,10 -3.875,0 0,1 10,0 0,-1 -3.875,0 0,-11 -4.09375,0 z m -10.125,1 2.25,0 c 0.254761,1.1e-5 0.477685,0.04024 0.6875,0.125 l -4.53125,8.78125 c -0.149866,-0.326999 -0.250002,-0.667915 -0.25,-1.03125 l 0,-5.6875 c -2e-6,-0.508659 0.151481,-0.994462 0.40625,-1.40625 0.329695,-0.520768 0.823058,-0.781238 1.4375,-0.78125 z m 3.84375,1.15625 c 0.134869,0.339122 0.187493,0.680038 0.1875,1.03125 l 0,5.6875 c -7e-6,0.496559 -0.151489,0.975336 -0.40625,1.375 -0.31472,0.520781 -0.760568,0.781252 -1.375,0.78125 l -2.25,0 c -0.2248,10e-7 -0.461432,-0.05234 -0.65625,-0.125 l 4.5,-8.75 z M -73.96875,60 l 0,1 1.84375,0 0,10 -3.875,0 0,1 10,0 0,-1 -3.875,0 0,-11 -4.09375,0 z m 12.75,0 c -0.929155,1.2e-5 -1.677969,0.342872 -2.1875,1.09375 -0.404633,0.605567 -0.593749,1.330758 -0.59375,2.09375 l 0,5.6875 c 0,0.763004 0.189117,1.449914 0.59375,2.03125 0.509531,0.73878 1.258345,1.09375 2.1875,1.09375 l 4.40625,0 c 0.944131,0 1.646704,-0.354973 2.15625,-1.09375 0.40462,-0.581334 0.656238,-1.268247 0.65625,-2.03125 l 0,-5.6875 c -1.2e-5,-0.762993 -0.251631,-1.488183 -0.65625,-2.09375 C -55.165795,60.342872 -55.868368,60.000013 -56.8125,60 l -4.40625,0 z m 12,0 c -0.929155,1.2e-5 -1.677969,0.342872 -2.1875,1.09375 -0.404633,0.605567 -0.593749,1.330758 -0.59375,2.09375 l 0,5.6875 c 0,0.763004 0.189117,1.449914 0.59375,2.03125 0.509531,0.73878 1.258345,1.09375 2.1875,1.09375 l 4.40625,0 c 0.944131,0 1.646704,-0.354973 2.15625,-1.09375 0.40462,-0.581334 0.656238,-1.268247 0.65625,-2.03125 l 0,-5.6875 c -1.2e-5,-0.762993 -0.251631,-1.488183 -0.65625,-2.09375 C -43.165795,60.342872 -43.868368,60.000013 -44.8125,60 l -4.40625,0 z m 11.25,0 0,1 1.84375,0 0,10 -3.875,0 0,1 10,0 0,-1 -3.875,0 0,-11 -4.09375,0 z m -22.125,1 2.25,0 c 0.254761,1.1e-5 0.477685,0.04024 0.6875,0.125 l -4.53125,8.78125 c -0.149866,-0.326999 -0.250002,-0.667915 -0.25,-1.03125 l 0,-5.6875 c -2e-6,-0.508659 0.151481,-0.994462 0.40625,-1.40625 0.329695,-0.520768 0.823058,-0.781238 1.4375,-0.78125 z m 12,0 2.25,0 c 0.254761,1.1e-5 0.477685,0.04024 0.6875,0.125 l -4.53125,8.78125 c -0.149866,-0.326999 -0.250002,-0.667915 -0.25,-1.03125 l 0,-5.6875 c -2e-6,-0.508659 0.151481,-0.994462 0.40625,-1.40625 0.329695,-0.520768 0.823058,-0.781238 1.4375,-0.78125 z M -56.25,62.15625 c 0.134869,0.339122 0.187493,0.680038 0.1875,1.03125 l 0,5.6875 c -7e-6,0.496559 -0.151489,0.975336 -0.40625,1.375 -0.31472,0.520781 -0.760568,0.781252 -1.375,0.78125 l -2.25,0 c -0.2248,10e-7 -0.461432,-0.05234 -0.65625,-0.125 l 4.5,-8.75 z m 12,0 c 0.134869,0.339122 0.187493,0.680038 0.1875,1.03125 l 0,5.6875 c -7e-6,0.496559 -0.151489,0.975336 -0.40625,1.375 -0.31472,0.520781 -0.760568,0.781252 -1.375,0.78125 l -2.25,0 c -0.2248,10e-7 -0.461432,-0.05234 -0.65625,-0.125 l 4.5,-8.75 z"
       inkscape:connector-curvature="0"
       transform="translate(100,956.36218)"
       clip-path="url(#clipPath3776)"
       id="path3699"
       style="font-size:16px;font-style:normal;font-variant:normal;font-weight:normal;font-stretch:normal;text-align:start;line-height:100%;writing-mode:lr-tb;text-anchor:start;opacity:0.6;fill:none;stroke:#ffffff;stroke-width:2;stroke-miterlimit:4;stroke-dasharray:none;display:inline;filter:url(#filter3785);font-family:Unispace;-inkscape-font-specification:Unispace" />
    <g
       transform="translate(5.9999998,956.36218)"
       id="g2467"
       style="fill:url(#linearGradient3795-1);fill-opacity:1;display:inline">
      <path
         d="m 20.782258,24 c -0.929155,1.2e-5 -1.667888,0.351484 -2.177419,1.102362 C 18.200206,25.707929 18.000001,26.41811 18,27.181102 l 0,5.700788 c 0,0.763004 0.200206,1.434412 0.604839,2.015748 C 19.11437,35.636418 19.853103,36 20.782258,36 l 4.395161,0 c 0.944131,0 1.667874,-0.363585 2.17742,-1.102362 C 27.759459,34.316304 27.999988,33.644893 28,32.88189 l 0,-5.700788 c -1.2e-5,-0.762993 -0.240542,-1.473173 -0.645161,-2.07874 C 26.845294,24.351484 26.121551,24.000013 25.177419,24 l -4.395161,0 z m 1.109674,1.007874 2.27927,0 c 0.254761,1.1e-5 0.475669,0.04122 0.685484,0.125984 l -4.537334,8.787402 c -0.149866,-0.326999 -0.241938,-0.676035 -0.241936,-1.03937 l 0,-5.700788 c -2e-6,-0.508659 0.148457,-0.974038 0.403226,-1.385826 0.329695,-0.520768 0.796848,-0.78739 1.41129,-0.787402 z m 3.85185,1.133858 c 0.134869,0.339122 0.201606,0.688158 0.201613,1.03937 l 0,5.700788 c -7e-6,0.496559 -0.148464,0.954666 -0.403225,1.35433 -0.31472,0.520781 -0.756536,0.787404 -1.370968,0.787402 l -2.27927,0 c -0.2248,10e-7 -0.450343,-0.05332 -0.645161,-0.125984 l 4.497011,-8.755906 z"
         inkscape:connector-curvature="0"
         id="path2439"
         style="font-size:16px;font-style:normal;font-variant:normal;font-weight:normal;font-stretch:normal;text-align:start;line-height:100%;writing-mode:lr-tb;text-anchor:start;fill:url(#linearGradient3357);fill-opacity:1;stroke:none;font-family:Unispace;-inkscape-font-specification:Unispace" />
      <path
         d="m 40,36 -10,0 0,-0.996979 3.860465,0 0,-9.987915 -1.825459,0 0,-1.015106 4.076237,0 0,11.003021 3.888757,0 L 40,36"
         inkscape:connector-curvature="0"
         id="flowRoot2412"
         style="font-size:16px;font-style:normal;font-variant:normal;font-weight:normal;font-stretch:normal;text-align:start;line-height:100%;writing-mode:lr-tb;text-anchor:start;fill:url(#linearGradient3359);fill-opacity:1;stroke:none;font-family:Unispace;-inkscape-font-specification:Unispace" />
      <path
         d="m 44.782258,24 c -0.929155,1.2e-5 -1.667888,0.351484 -2.177419,1.102362 C 42.200206,25.707929 42.000001,26.41811 42,27.181102 l 0,5.700788 c 0,0.763004 0.200206,1.434412 0.604839,2.015748 C 43.11437,35.636418 43.853103,36 44.782258,36 l 4.395161,0 c 0.944131,0 1.667874,-0.363585 2.17742,-1.102362 C 51.759459,34.316304 51.999988,33.644893 52,32.88189 l 0,-5.700788 c -1.2e-5,-0.762993 -0.240542,-1.473173 -0.645161,-2.07874 C 50.845294,24.351484 50.121551,24.000013 49.177419,24 l -4.395161,0 z m 1.109674,1.007874 2.27927,0 c 0.254761,1.1e-5 0.475669,0.04122 0.685484,0.125984 l -4.537334,8.787402 c -0.149866,-0.326999 -0.241938,-0.676035 -0.241936,-1.03937 l 0,-5.700788 c -2e-6,-0.508659 0.148457,-0.974038 0.403226,-1.385826 0.329695,-0.520768 0.796848,-0.78739 1.41129,-0.787402 z m 3.85185,1.133858 c 0.134869,0.339122 0.201606,0.688158 0.201613,1.03937 l 0,5.700788 c -7e-6,0.496559 -0.148464,0.954666 -0.403225,1.35433 -0.31472,0.520781 -0.756536,0.787404 -1.370968,0.787402 l -2.27927,0 c -0.2248,10e-7 -0.450343,-0.05332 -0.645161,-0.125984 l 4.497011,-8.755906 z"
         inkscape:connector-curvature="0"
         id="path2447"
         style="font-size:16px;font-style:normal;font-variant:normal;font-weight:normal;font-stretch:normal;text-align:start;line-height:100%;writing-mode:lr-tb;text-anchor:start;fill:url(#linearGradient3361);fill-opacity:1;stroke:none;font-family:Unispace;-inkscape-font-specification:Unispace" />
      <path
         d="m 56.782258,24 c -0.929155,1.2e-5 -1.667888,0.351484 -2.177419,1.102362 C 54.200206,25.707929 54.000001,26.41811 54,27.181102 l 0,5.700788 c 0,0.763004 0.200206,1.434412 0.604839,2.015748 C 55.11437,35.636418 55.853103,36 56.782258,36 l 4.395161,0 c 0.944131,0 1.667874,-0.363585 2.17742,-1.102362 C 63.759459,34.316304 63.999988,33.644893 64,32.88189 l 0,-5.700788 c -1.2e-5,-0.762993 -0.240542,-1.473173 -0.645161,-2.07874 C 62.845294,24.351484 62.121551,24.000013 61.177419,24 l -4.395161,0 z m 1.109674,1.007874 2.27927,0 c 0.254761,1.1e-5 0.475669,0.04122 0.685484,0.125984 l -4.537334,8.787402 c -0.149866,-0.326999 -0.241938,-0.676035 -0.241936,-1.03937 l 0,-5.700788 c -2e-6,-0.508659 0.148457,-0.974038 0.403226,-1.385826 0.329695,-0.520768 0.796848,-0.78739 1.41129,-0.787402 z m 3.85185,1.133858 c 0.134869,0.339122 0.201606,0.688158 0.201613,1.03937 l 0,5.700788 c -7e-6,0.496559 -0.148464,0.954666 -0.403225,1.35433 -0.31472,0.520781 -0.756536,0.787404 -1.370968,0.787402 l -2.27927,0 c -0.2248,10e-7 -0.450343,-0.05332 -0.645161,-0.125984 l 4.497011,-8.755906 z"
         inkscape:connector-curvature="0"
         id="path2449"
         style="font-size:16px;font-style:normal;font-variant:normal;font-weight:normal;font-stretch:normal;text-align:start;line-height:100%;writing-mode:lr-tb;text-anchor:start;fill:url(#linearGradient3363);fill-opacity:1;stroke:none;font-family:Unispace;-inkscape-font-specification:Unispace" />
      <path
         d="m 28,54 -10,0 0,-0.996979 3.860465,0 0,-9.987915 -1.825459,0 0,-1.015106 4.076237,0 0,11.003021 3.888757,0 L 28,54"
         inkscape:connector-curvature="0"
         id="path2451"
         style="font-size:16px;font-style:normal;font-variant:normal;font-weight:normal;font-stretch:normal;text-align:start;line-height:100%;writing-mode:lr-tb;text-anchor:start;fill:url(#linearGradient3365);fill-opacity:1;stroke:none;font-family:Unispace;-inkscape-font-specification:Unispace" />
      <path
         d="m 40,54 -10,0 0,-0.996979 3.860465,0 0,-9.987915 -1.825459,0 0,-1.015106 4.076237,0 0,11.003021 3.888757,0 L 40,54"
         inkscape:connector-curvature="0"
         id="path2453"
         style="font-size:16px;font-style:normal;font-variant:normal;font-weight:normal;font-stretch:normal;text-align:start;line-height:100%;writing-mode:lr-tb;text-anchor:start;fill:url(#linearGradient3367);fill-opacity:1;stroke:none;font-family:Unispace;-inkscape-font-specification:Unispace" />
      <path
         d="m 44.782258,42 c -0.929155,1.2e-5 -1.667888,0.351484 -2.177419,1.102362 C 42.200206,43.707929 42.000001,44.41811 42,45.181102 l 0,5.700788 c 0,0.763004 0.200206,1.434412 0.604839,2.015748 C 43.11437,53.636418 43.853103,54 44.782258,54 l 4.395161,0 c 0.944131,0 1.667874,-0.363585 2.17742,-1.102362 C 51.759459,52.316304 51.999988,51.644893 52,50.88189 l 0,-5.700788 c -1.2e-5,-0.762993 -0.240542,-1.473173 -0.645161,-2.07874 C 50.845294,42.351484 50.121551,42.000013 49.177419,42 l -4.395161,0 z m 1.109674,1.007874 2.27927,0 c 0.254761,1.1e-5 0.475669,0.04122 0.685484,0.125984 l -4.537334,8.787402 c -0.149866,-0.326999 -0.241938,-0.676035 -0.241936,-1.03937 l 0,-5.700788 c -2e-6,-0.508659 0.148457,-0.974038 0.403226,-1.385826 0.329695,-0.520768 0.796848,-0.78739 1.41129,-0.787402 z m 3.85185,1.133858 c 0.134869,0.339122 0.201606,0.688158 0.201613,1.03937 l 0,5.700788 c -7e-6,0.496559 -0.148464,0.954666 -0.403225,1.35433 -0.31472,0.520781 -0.756536,0.787404 -1.370968,0.787402 l -2.27927,0 c -0.2248,10e-7 -0.450343,-0.05332 -0.645161,-0.125984 l 4.497011,-8.755906 z"
         inkscape:connector-curvature="0"
         id="path2455"
         style="font-size:16px;font-style:normal;font-variant:normal;font-weight:normal;font-stretch:normal;text-align:start;line-height:100%;writing-mode:lr-tb;text-anchor:start;fill:url(#linearGradient3369);fill-opacity:1;stroke:none;font-family:Unispace;-inkscape-font-specification:Unispace" />
      <path
         d="m 64,54 -10,0 0,-0.996979 3.860465,0 0,-9.987915 -1.825459,0 0,-1.015106 4.076237,0 0,11.003021 3.888757,0 L 64,54"
         inkscape:connector-curvature="0"
         id="path2457"
         style="font-size:16px;font-style:normal;font-variant:normal;font-weight:normal;font-stretch:normal;text-align:start;line-height:100%;writing-mode:lr-tb;text-anchor:start;fill:url(#linearGradient3371);fill-opacity:1;stroke:none;font-family:Unispace;-inkscape-font-specification:Unispace" />
      <path
         d="m 28,72 -10,0 0,-0.996979 3.860465,0 0,-9.987915 -1.825459,0 0,-1.015106 4.076237,0 0,11.003021 3.888757,0 L 28,72"
         inkscape:connector-curvature="0"
         id="path2459"
         style="font-size:16px;font-style:normal;font-variant:normal;font-weight:normal;font-stretch:normal;text-align:start;line-height:100%;writing-mode:lr-tb;text-anchor:start;fill:url(#linearGradient3373);fill-opacity:1;stroke:none;font-family:Unispace;-inkscape-font-specification:Unispace" />
      <path
         d="m 32.782258,60 c -0.929155,1.2e-5 -1.667888,0.351484 -2.177419,1.102362 C 30.200206,61.707929 30.000001,62.41811 30,63.181102 l 0,5.700788 c 0,0.763004 0.200206,1.434412 0.604839,2.015748 C 31.11437,71.636418 31.853103,72 32.782258,72 l 4.395161,0 c 0.944131,0 1.667874,-0.363585 2.17742,-1.102362 C 39.759459,70.316304 39.999988,69.644893 40,68.88189 l 0,-5.700788 c -1.2e-5,-0.762993 -0.240542,-1.473173 -0.645161,-2.07874 C 38.845294,60.351484 38.121551,60.000013 37.177419,60 l -4.395161,0 z m 1.109674,1.007874 2.27927,0 c 0.254761,1.1e-5 0.475669,0.04122 0.685484,0.125984 l -4.537334,8.787402 c -0.149866,-0.326999 -0.241938,-0.676035 -0.241936,-1.03937 l 0,-5.700788 c -2e-6,-0.508659 0.148457,-0.974038 0.403226,-1.385826 0.329695,-0.520768 0.796848,-0.78739 1.41129,-0.787402 z m 3.85185,1.133858 c 0.134869,0.339122 0.201606,0.688158 0.201613,1.03937 l 0,5.700788 c -7e-6,0.496559 -0.148464,0.954666 -0.403225,1.35433 -0.31472,0.520781 -0.756536,0.787404 -1.370968,0.787402 l -2.27927,0 c -0.2248,10e-7 -0.450343,-0.05332 -0.645161,-0.125984 l 4.497011,-8.755906 z"
         inkscape:connector-curvature="0"
         id="path2461"
         style="font-size:16px;font-style:normal;font-variant:normal;font-weight:normal;font-stretch:normal;text-align:start;line-height:100%;writing-mode:lr-tb;text-anchor:start;fill:url(#linearGradient3375);fill-opacity:1;stroke:none;font-family:Unispace;-inkscape-font-specification:Unispace" />
      <path
         d="m 44.782258,60 c -0.929155,1.2e-5 -1.667888,0.351484 -2.177419,1.102362 C 42.200206,61.707929 42.000001,62.41811 42,63.181102 l 0,5.700788 c 0,0.763004 0.200206,1.434412 0.604839,2.015748 C 43.11437,71.636418 43.853103,72 44.782258,72 l 4.395161,0 c 0.944131,0 1.667874,-0.363585 2.17742,-1.102362 C 51.759459,70.316304 51.999988,69.644893 52,68.88189 l 0,-5.700788 c -1.2e-5,-0.762993 -0.240542,-1.473173 -0.645161,-2.07874 C 50.845294,60.351484 50.121551,60.000013 49.177419,60 l -4.395161,0 z m 1.109674,1.007874 2.27927,0 c 0.254761,1.1e-5 0.475669,0.04122 0.685484,0.125984 l -4.537334,8.787402 c -0.149866,-0.326999 -0.241938,-0.676035 -0.241936,-1.03937 l 0,-5.700788 c -2e-6,-0.508659 0.148457,-0.974038 0.403226,-1.385826 0.329695,-0.520768 0.796848,-0.78739 1.41129,-0.787402 z m 3.85185,1.133858 c 0.134869,0.339122 0.201606,0.688158 0.201613,1.03937 l 0,5.700788 c -7e-6,0.496559 -0.148464,0.954666 -0.403225,1.35433 -0.31472,0.520781 -0.756536,0.787404 -1.370968,0.787402 l -2.27927,0 c -0.2248,10e-7 -0.450343,-0.05332 -0.645161,-0.125984 l 4.497011,-8.755906 z"
         inkscape:connector-curvature="0"
         id="path2463"
         style="font-size:16px;font-style:normal;font-variant:normal;font-weight:normal;font-stretch:normal;text-align:start;line-height:100%;writing-mode:lr-tb;text-anchor:start;fill:url(#linearGradient3377);fill-opacity:1;stroke:none;font-family:Unispace;-inkscape-font-specification:Unispace" />
      <path
         d="m 64,72 -10,0 0,-0.996979 3.860465,0 0,-9.987915 -1.825459,0 0,-1.015106 4.076237,0 0,11.003021 3.888757,0 L 64,72"
         inkscape:connector-curvature="0"
         id="path2465"
         style="font-size:16px;font-style:normal;font-variant:normal;font-weight:normal;font-stretch:normal;text-align:start;line-height:100%;writing-mode:lr-tb;text-anchor:start;fill:url(#linearGradient3379);fill-opacity:1;stroke:none;font-family:Unispace;-inkscape-font-specification:Unispace" />
    </g>
    <rect
       ry="25"
       rx="25"
       id="rect3003"
       style="opacity:0.15;fill:#ffffff;fill-opacity:1"
       height="92"
       width="92"
       y="958.36218"
       x="-96"
       clip-path="url(#clipPath3009)"
       transform="translate(98,3.8281269e-7)" />
  </g>
</svg>
