<?xml version="1.0" encoding="UTF-8" standalone="no"?>
<!-- Created with Inkscape (http://www.inkscape.org/) -->

<svg
   xmlns:dc="http://purl.org/dc/elements/1.1/"
   xmlns:cc="http://creativecommons.org/ns#"
   xmlns:rdf="http://www.w3.org/1999/02/22-rdf-syntax-ns#"
   xmlns:svg="http://www.w3.org/2000/svg"
   xmlns="http://www.w3.org/2000/svg"
   xmlns:xlink="http://www.w3.org/1999/xlink"
   xmlns:sodipodi="http://sodipodi.sourceforge.net/DTD/sodipodi-0.dtd"
   xmlns:inkscape="http://www.inkscape.org/namespaces/inkscape"
   width="96"
   height="96"
   id="svg11037"
   version="1.1"
   inkscape:version="0.48.3.1 r9886"
   sodipodi:docname="opera-unite-application.svg">
  <defs
     id="defs11039">
    <linearGradient
       y2="1046.1001"
       x2="47.999954"
       y1="962.62189"
       x1="47.999954"
       gradientTransform="matrix(1.15,0,0,1.15,-7.1999462,-150.65291)"
       gradientUnits="userSpaceOnUse"
       id="linearGradient3886"
       xlink:href="#linearGradient3795"
       inkscape:collect="always" />
    <linearGradient
       id="linearGradient3795">
      <stop
         style="stop-color:#13a6fd;stop-opacity:1;"
         offset="0"
         id="stop3797" />
      <stop
         style="stop-color:#2975b6;stop-opacity:1;"
         offset="1"
         id="stop3799" />
    </linearGradient>
    <linearGradient
       y2="1046.1001"
       x2="47.999954"
       y1="962.62189"
       x1="47.999954"
       gradientTransform="matrix(1.15,0,0,1.15,-7.1999462,-150.65292)"
       gradientUnits="userSpaceOnUse"
       id="linearGradient11642"
       xlink:href="#linearGradient3700"
       inkscape:collect="always" />
    <linearGradient
       x1="48"
       y1="90"
       x2="48"
       y2="5.9877172"
       id="linearGradient3706"
       xlink:href="#linearGradient3700"
       gradientUnits="userSpaceOnUse" />
    <linearGradient
       id="linearGradient3700">
      <stop
         id="stop3702"
         style="stop-color:#e6e6e6;stop-opacity:1"
         offset="0" />
      <stop
         id="stop3704"
         style="stop-color:#f5f5f5;stop-opacity:1"
         offset="1" />
    </linearGradient>
    <linearGradient
       gradientTransform="translate(-86.638335,977.59314)"
       y2="5.9877172"
       x2="48"
       y1="90"
       x1="48"
       gradientUnits="userSpaceOnUse"
       id="linearGradient3062"
       xlink:href="#linearGradient3700"
       inkscape:collect="always" />
    <linearGradient
       x1="-253.91658"
       y1="-47.862404"
       x2="-132.57481"
       y2="-47.862404"
       id="linearGradient3891"
       xlink:href="#SVGID_4_"
       gradientUnits="userSpaceOnUse"
       gradientTransform="matrix(0,0.68401839,-0.68401839,0,15.261235,165.68361)" />
    <linearGradient
       x1="211.5"
       y1="-150"
       x2="211.5"
       y2="-262.00049"
       id="SVGID_4_"
       gradientUnits="userSpaceOnUse"
       gradientTransform="matrix(1,0,0,-1,-147.5,-142)">
      <stop
         id="stop32"
         style="stop-color:#e1a075;stop-opacity:1"
         offset="0" />
      <stop
         id="stop34"
         style="stop-color:#81422a;stop-opacity:1"
         offset="0.76340002" />
    </linearGradient>
    <clipPath
       clipPathUnits="userSpaceOnUse"
       id="clipPath3009">
      <path
         id="path3011"
         d="m -2,956.36218 -96,0 0,33.5624 96,25.68742 0,-59.24982 z"
         style="opacity:0.15;fill:#ffffff;fill-opacity:1;stroke:none"
         inkscape:connector-curvature="0" />
    </clipPath>
  </defs>
  <sodipodi:namedview
     id="base"
     pagecolor="#ffffff"
     bordercolor="#666666"
     borderopacity="1.0"
     inkscape:pageopacity="0.0"
     inkscape:pageshadow="2"
     inkscape:zoom="3.959798"
     inkscape:cx="33.538031"
     inkscape:cy="59.964634"
     inkscape:document-units="px"
     inkscape:current-layer="layer1"
     showgrid="false"
     inkscape:window-width="1280"
     inkscape:window-height="750"
     inkscape:window-x="0"
     inkscape:window-y="22"
     inkscape:window-maximized="1"
     showguides="true"
     inkscape:guide-bbox="true">
    <sodipodi:guide
       orientation="0,1"
       position="-24.748737,0"
       id="guide11064" />
    <sodipodi:guide
       orientation="0,1"
       position="-23.233509,96"
       id="guide11066" />
    <sodipodi:guide
       orientation="1,0"
       position="0,54.800776"
       id="guide11068" />
    <sodipodi:guide
       orientation="1,0"
       position="96,51.012704"
       id="guide11070" />
    <sodipodi:guide
       orientation="0,1"
       position="-18.94036,48"
       id="guide11072" />
    <sodipodi:guide
       orientation="1,0"
       position="48,79.296975"
       id="guide11074" />
    <sodipodi:guide
       orientation="1,0"
       position="2,75.508903"
       id="guide11076" />
    <sodipodi:guide
       orientation="0,1"
       position="-77.27667,2"
       id="guide11078" />
    <sodipodi:guide
       orientation="1,0"
       position="94,77.781746"
       id="guide11080" />
    <sodipodi:guide
       orientation="0,1"
       position="-65.912454,94"
       id="guide11082" />
  </sodipodi:namedview>
  <metadata
     id="metadata11042">
    <rdf:RDF>
      <cc:Work
         rdf:about="">
        <dc:format>image/svg+xml</dc:format>
        <dc:type
           rdf:resource="http://purl.org/dc/dcmitype/StillImage" />
        <dc:title />
      </cc:Work>
    </rdf:RDF>
  </metadata>
  <g
     inkscape:label="Layer 1"
     inkscape:groupmode="layer"
     id="layer1"
     transform="translate(0,-956.36218)">
    <rect
       x="2"
       y="958.36218"
       width="92"
       height="92"
       style="fill:url(#linearGradient11642);fill-opacity:1.0"
       id="rect3867"
       rx="25"
       ry="25" />
    <g
       transform="translate(-1.9969642e-7,956.36218)"
       style="display:inline"
       id="g3064">
      <path
         style="fill:url(#linearGradient3891);fill-opacity:1"
         id="path3884"
         inkscape:connector-curvature="0"
         d="m 77.998546,63.059472 c 0.08467,-6.161624 -3.523335,-13.483261 -12.26958,-18.511248 -10.116631,-5.87093 -17.763102,-0.812271 -17.763102,-0.812271 0,0 8.510043,-1.858479 11.820692,4.10411 3.309966,5.963956 0.604502,9.467669 -0.705393,11.735191 -4.385926,7.597391 -0.189302,12.039236 3.355965,14.086503 3.545268,2.047267 10.049598,2.479567 13.851372,-4.104111 1.069056,-1.852041 1.676916,-4.087105 1.710046,-6.498174 z M 65.493836,26.207981 c 0,-4.09385 -2.892543,-9.939642 -10.495408,-9.939642 -7.603548,0 -16.399683,7.596024 -16.37369,21.632082 -0.02599,11.696713 8.186845,15.796549 8.186845,15.796549 0,0 -5.860327,-6.421223 -2.351313,-12.26958 3.509014,-5.848357 7.897676,-5.279766 10.516783,-5.279766 8.772535,0 10.516783,-5.845793 10.516783,-9.939643 z m -9.362502,23.662762 c 0,0 -2.6504,8.299707 -9.46938,8.186844 -6.820348,-0.114914 -8.502178,-4.209962 -9.811389,-6.476799 -4.385926,-7.598076 -10.32748,-6.193444 -13.872748,-4.146861 -3.545267,2.046583 -7.157739,7.480083 -3.355965,14.065127 3.799723,6.583678 14.79053,10.396568 26.933224,3.355966 10.142625,-5.824416 9.576258,-14.984277 9.576258,-14.984277 z" />
      <path
         style="opacity:0.1;fill:#000000;fill-opacity:1"
         id="path3915"
         inkscape:connector-curvature="0"
         d="m 55,16.28125 c -7.603548,0 -16.400993,7.588942 -16.375,21.625 -0.02599,11.696713 8.1875,15.78125 8.1875,15.78125 0,0 -5.852764,-6.401643 -2.34375,-12.25 3.509014,-5.848357 7.880893,-5.28125 10.5,-5.28125 8.772535,0 10.53125,-5.84365 10.53125,-9.9375 0,-4.09385 -2.897135,-9.9375 -10.5,-9.9375 z m 0,2 c 3.292575,0 5.26871,1.157919 6.59375,2.71875 1.32504,1.560831 1.90625,3.640343 1.90625,5.21875 0,1.76251 -0.378829,3.801464 -1.53125,5.28125 -1.152421,1.479786 -3.054743,2.65625 -7,2.65625 -1.166202,0 -3.24298,-0.162844 -5.53125,0.5625 -2.28827,0.725344 -4.699945,2.426991 -6.65625,5.6875 -0.706578,1.177629 -1.04376,2.382856 -1.21875,3.5625 -0.562652,-1.688043 -0.942832,-3.662923 -0.9375,-6.0625 -0.02445,-13.204826 8.093005,-19.625 14.375,-19.625 z m 0.65625,23.4375 c -4.710058,0.0487 -7.6875,2.03125 -7.6875,2.03125 0,0 8.501851,-1.868839 11.8125,4.09375 3.309966,5.963956 0.622395,9.451228 -0.6875,11.71875 -4.385926,7.597391 -0.201517,12.046483 3.34375,14.09375 3.545268,2.047267 10.041976,2.489928 13.84375,-4.09375 1.069056,-1.852041 1.68562,-4.088931 1.71875,-6.5 0.08467,-6.161624 -3.535005,-13.472013 -12.28125,-18.5 -3.793737,-2.201599 -7.236465,-2.872968 -10.0625,-2.84375 z m 3.5,2.40625 c 1.707248,0.364632 3.536746,0.980655 5.5625,2.15625 8.230365,4.731421 11.354938,11.387584 11.28125,16.75 -0.02871,2.089439 -0.549307,3.992537 -1.4375,5.53125 -1.646248,2.850871 -3.646581,3.983017 -5.65625,4.34375 -2.009669,0.360733 -4.097407,-0.176848 -5.46875,-0.96875 -1.526114,-0.881277 -3.106337,-2.260628 -3.8125,-4 -0.706163,-1.739372 -0.784799,-3.958544 1.1875,-7.375 0.581245,-1.006177 1.761537,-2.689739 2.28125,-5.03125 0.519713,-2.341511 0.282874,-5.331222 -1.5625,-8.65625 -0.643008,-1.158078 -1.479433,-2.021098 -2.375,-2.75 z M 28.6875,45.8125 C 26.550051,45.762 24.519805,46.54212 22.96875,47.4375 19.423483,49.484083 15.823226,54.914956 19.625,61.5 23.424723,68.083678 34.419806,71.884352 46.5625,64.84375 56.705125,59.019334 56.125,49.875 56.125,49.875 c 0,0 -2.64977,8.300363 -9.46875,8.1875 -6.820348,-0.114914 -8.503289,-4.201913 -9.8125,-6.46875 -2.467083,-4.273918 -5.408102,-5.716323 -8.15625,-5.78125 z m -0.0625,1.96875 c 0.233445,0.0041 0.456541,0.03054 0.6875,0.0625 1.842958,0.255059 3.837794,1.329065 5.8125,4.75 0.580398,1.004931 1.449828,2.875678 3.21875,4.5 1.768922,1.624322 4.477273,2.904658 8.28125,2.96875 1.348443,0.02232 2.530478,-0.293757 3.625,-0.71875 -1.17083,1.302311 -2.649411,2.610875 -4.6875,3.78125 -11.424285,6.624052 -21.082774,2.808622 -24.21875,-2.625 -1.646941,-2.852663 -1.624192,-5.134804 -0.9375,-7.0625 0.686692,-1.927696 2.196545,-3.492723 3.5625,-4.28125 1.343287,-0.775442 3.022137,-1.403653 4.65625,-1.375 z" />
      <path
         style="opacity:0.3;fill:#000000;fill-opacity:1"
         id="path3893"
         inkscape:connector-curvature="0"
         d="m 55,16.28125 c -7.603548,0 -16.400993,7.588942 -16.375,21.625 -2.66e-4,0.119782 -0.0014,0.225558 0,0.34375 C 38.868241,24.631405 47.51519,17.28125 55,17.28125 c 7.25543,0 10.212842,5.299319 10.46875,9.34375 C 65.47245,26.491102 65.5,26.34933 65.5,26.21875 65.5,22.1249 62.602865,16.28125 55,16.28125 z m 0.65625,25.4375 c -4.710058,0.0487 -7.6875,2.03125 -7.6875,2.03125 0,0 1.191397,-0.265677 2.84375,-0.28125 0.01154,-1.09e-4 0.01967,8.5e-5 0.03125,0 3.11874,-0.978947 8.503292,-1.603909 14.875,2.09375 C 74.199256,50.437721 77.863231,57.460329 78,63.5 c 0.0061,-0.143999 -0.002,-0.292177 0,-0.4375 0.08467,-6.161624 -3.535005,-13.472013 -12.28125,-18.5 -3.793737,-2.201599 -7.236465,-2.872968 -10.0625,-2.84375 z M 28.6875,45.8125 c -2.137449,-0.0505 -4.167695,0.72962 -5.71875,1.625 -2.589368,1.494769 -5.191309,4.793945 -4.9375,9.03125 0.170826,-3.758355 2.55401,-6.655328 4.9375,-8.03125 3.545268,-2.046583 9.489074,-3.441826 13.875,4.15625 1.309211,2.266837 2.992152,6.353836 9.8125,6.46875 6.588777,0.109053 9.262919,-7.57069 9.4375,-8.09375 C 56.13987,50.328058 56.125,49.875 56.125,49.875 c 0,0 -2.64977,8.300363 -9.46875,8.1875 -6.820348,-0.114914 -8.503289,-4.201913 -9.8125,-6.46875 -2.467083,-4.273918 -5.408102,-5.716323 -8.15625,-5.78125 z m 14.6875,0.25 c -0.130495,2.685805 1.037951,5.141358 2.0625,6.75 0.8148,0.609638 1.375,0.875 1.375,0.875 0,0 -3.154724,-3.462439 -3.4375,-7.625 z m 17.96875,7.8125 c -0.190104,2.514705 -1.464115,4.327077 -2.25,5.6875 -1.475309,2.55556 -1.990432,4.754559 -1.875,6.625 0.08934,-1.64315 0.653168,-3.508518 1.875,-5.625 0.887976,-1.53715 2.388086,-3.63285 2.25,-6.6875 z" />
      <path
         style="opacity:0.15;fill:#000000;fill-opacity:1"
         id="path3911"
         inkscape:connector-curvature="0"
         d="m 55,16.28125 c -7.603548,0 -16.400993,7.588942 -16.375,21.625 -0.02599,11.696713 8.1875,15.78125 8.1875,15.78125 0,0 -5.852764,-6.401643 -2.34375,-12.25 3.509014,-5.848357 7.880893,-5.28125 10.5,-5.28125 8.772535,0 10.53125,-5.84365 10.53125,-9.9375 0,-4.09385 -2.897135,-9.9375 -10.5,-9.9375 z m 0,1 c 3.549045,0 5.842506,1.294111 7.34375,3.0625 1.501244,1.768389 2.15625,4.060455 2.15625,5.875 0,1.905858 -0.404127,4.178058 -1.75,5.90625 -1.345873,1.728192 -3.613718,3.03125 -7.78125,3.03125 -1.238453,0 -3.146845,-0.15676 -5.21875,0.5 -2.071905,0.65676 -4.270403,2.190256 -6.125,5.28125 -1.732924,2.888208 -1.291844,5.828915 -0.4375,8.21875 -1.829067,-2.349886 -3.574358,-5.913354 -3.5625,-11.25 -0.02523,-13.623777 8.426927,-20.625 15.375,-20.625 z m 0.65625,24.4375 c -4.710058,0.0487 -7.6875,2.03125 -7.6875,2.03125 0,0 8.501851,-1.868839 11.8125,4.09375 3.309966,5.963956 0.622395,9.451228 -0.6875,11.71875 -4.385926,7.597391 -0.201517,12.046483 3.34375,14.09375 3.545268,2.047267 10.041976,2.489928 13.84375,-4.09375 1.069056,-1.852041 1.68562,-4.088931 1.71875,-6.5 0.08467,-6.161624 -3.535005,-13.472013 -12.28125,-18.5 -3.793737,-2.201599 -7.236465,-2.872968 -10.0625,-2.84375 z m 0,1 c 2.661772,-0.02752 5.91734,0.572124 9.5625,2.6875 C 73.709125,50.287144 77.079223,57.297274 77,63.0625 c -0.03094,2.251544 -0.58315,4.303366 -1.5625,6 -1.774589,3.073124 -4.065499,4.403557 -6.34375,4.8125 -2.278251,0.408943 -4.582652,-0.153802 -6.15625,-1.0625 -1.650363,-0.953027 -3.394216,-2.469065 -4.21875,-4.5 -0.824534,-2.030935 -0.864766,-4.640891 1.21875,-8.25 0.618392,-1.070481 1.717094,-2.630637 2.1875,-4.75 0.470406,-2.119363 0.280665,-4.785373 -1.46875,-7.9375 -1.626749,-2.929829 -4.381944,-4.00825 -6.875,-4.46875 0.611119,-0.08164 1.173923,-0.180252 1.875,-0.1875 z M 28.6875,45.8125 C 26.550051,45.762 24.519805,46.54212 22.96875,47.4375 19.423483,49.484083 15.823226,54.914956 19.625,61.5 23.424723,68.083678 34.419806,71.884352 46.5625,64.84375 56.705125,59.019334 56.125,49.875 56.125,49.875 c 0,0 -2.64977,8.300363 -9.46875,8.1875 -6.820348,-0.114914 -8.503289,-4.201913 -9.8125,-6.46875 -2.467083,-4.273918 -5.408102,-5.716323 -8.15625,-5.78125 z m -0.03125,0.96875 c 0.270026,0.0054 0.541906,0.02505 0.8125,0.0625 2.162416,0.299271 4.44654,1.638497 6.53125,5.25 0.617799,1.06969 1.429656,2.810578 3.03125,4.28125 1.601594,1.470672 3.988254,2.626752 7.59375,2.6875 3.377022,0.05589 5.726179,-1.834623 7.375,-3.78125 -1.117888,2.755918 -3.309647,6.061199 -7.9375,8.71875 -11.786371,6.833998 -22.123238,3.013263 -25.59375,-3 -1.774933,-3.074357 -1.778074,-5.722024 -1,-7.90625 0.778074,-2.184226 2.429074,-3.905649 4,-4.8125 1.448004,-0.835892 3.297319,-1.538005 5.1875,-1.5 z" />
      <path
         style="opacity:0.8;fill:#ffffff;fill-opacity:1"
         id="path3902"
         inkscape:connector-curvature="0"
         d="m 65.46875,26.625 c -0.112926,4.063984 -2.007279,9.53125 -10.5,9.53125 -2.619107,0 -6.990986,-0.567107 -10.5,5.28125 -0.929023,1.548371 -1.195574,3.126113 -1.09375,4.625 0.05823,-1.198355 0.366939,-2.413648 1.09375,-3.625 3.509014,-5.848357 7.880893,-5.28125 10.5,-5.28125 8.772535,0 10.53125,-5.84365 10.53125,-9.9375 0,-0.18708 -0.019,-0.400077 -0.03125,-0.59375 z M 38.625,38.25 c -0.0039,0.216044 -4.06e-4,0.437061 0,0.65625 -0.02599,11.696713 8.1875,15.78125 8.1875,15.78125 0,0 -0.649657,-0.736141 -1.375,-1.875 C 43.135747,51.090314 38.72809,46.686758 38.625,38.25 z m 12.1875,5.21875 C 48.99816,44.042219 47.96875,44.75 47.96875,44.75 c 0,0 8.501851,-1.868839 11.8125,4.09375 1.034364,1.863736 1.476859,3.485675 1.5625,4.90625 0.09967,-1.650424 -0.271271,-3.579691 -1.5625,-5.90625 -2.069156,-3.726618 -6.153348,-4.395421 -8.9375,-4.375 -0.01158,8.5e-5 -0.01971,-1.09e-4 -0.03125,0 z M 56.125,50.875 c 0,0 -0.02515,0.07547 -0.03125,0.09375 -0.182919,2.54135 -1.430804,9.223308 -9.53125,13.875 C 34.419806,71.884352 23.424723,68.083678 19.625,61.5 18.59994,59.724495 18.124947,58.033007 18.03125,56.46875 17.947985,58.300674 18.379166,60.342094 19.625,62.5 23.424723,69.083678 34.419806,72.884352 46.5625,65.84375 56.705125,60.019334 56.125,50.875 56.125,50.875 z M 78,63.5 c -0.09585,2.245102 -0.714129,4.322087 -1.71875,6.0625 -3.801774,6.583678 -10.298482,6.141017 -13.84375,4.09375 -2.352734,-1.358621 -4.991015,-3.778582 -5.21875,-7.46875 -0.231348,4.255152 2.661124,6.991811 5.21875,8.46875 3.545268,2.047267 10.041976,2.489928 13.84375,-4.09375 1.069056,-1.852041 1.68562,-4.088931 1.71875,-6.5 0.0026,-0.18721 0.0043,-0.373245 0,-0.5625 z" />
    </g>
    <rect
       ry="25"
       rx="25"
       id="rect3003"
       style="opacity:0.15;fill:#ffffff;fill-opacity:1"
       height="92"
       width="92"
       y="958.36218"
       x="-96"
       clip-path="url(#clipPath3009)"
       transform="translate(98,3.8281269e-7)" />
  </g>
</svg>
