<?xml version="1.0" encoding="UTF-8" standalone="no"?>
<!-- Created with Inkscape (http://www.inkscape.org/) -->

<svg
   xmlns:dc="http://purl.org/dc/elements/1.1/"
   xmlns:cc="http://creativecommons.org/ns#"
   xmlns:rdf="http://www.w3.org/1999/02/22-rdf-syntax-ns#"
   xmlns:svg="http://www.w3.org/2000/svg"
   xmlns="http://www.w3.org/2000/svg"
   xmlns:xlink="http://www.w3.org/1999/xlink"
   xmlns:sodipodi="http://sodipodi.sourceforge.net/DTD/sodipodi-0.dtd"
   xmlns:inkscape="http://www.inkscape.org/namespaces/inkscape"
   width="96"
   height="96"
   id="svg11037"
   version="1.1"
   inkscape:version="0.48.3.1 r9886"
   sodipodi:docname="rpm.svg">
  <defs
     id="defs11039">
    <linearGradient
       y2="1046.1001"
       x2="47.999954"
       y1="962.62189"
       x1="47.999954"
       gradientTransform="matrix(1.15,0,0,1.15,-7.1999462,-150.65291)"
       gradientUnits="userSpaceOnUse"
       id="linearGradient3886"
       xlink:href="#linearGradient3795"
       inkscape:collect="always" />
    <linearGradient
       id="linearGradient3795">
      <stop
         style="stop-color:#13a6fd;stop-opacity:1;"
         offset="0"
         id="stop3797" />
      <stop
         style="stop-color:#2975b6;stop-opacity:1;"
         offset="1"
         id="stop3799" />
    </linearGradient>
    <linearGradient
       y2="1046.1001"
       x2="47.999954"
       y1="962.62189"
       x1="47.999954"
       gradientTransform="matrix(1.15,0,0,1.15,-7.1999462,-150.65292)"
       gradientUnits="userSpaceOnUse"
       id="linearGradient11642"
       xlink:href="#linearGradient3700"
       inkscape:collect="always" />
    <linearGradient
       x1="48"
       y1="90"
       x2="48"
       y2="5.9877172"
       id="linearGradient3706"
       xlink:href="#linearGradient3700"
       gradientUnits="userSpaceOnUse" />
    <linearGradient
       id="linearGradient3700">
      <stop
         id="stop3702"
         style="stop-color:#e6e6e6;stop-opacity:1"
         offset="0" />
      <stop
         id="stop3704"
         style="stop-color:#f5f5f5;stop-opacity:1"
         offset="1" />
    </linearGradient>
    <linearGradient
       gradientTransform="translate(-98.507627,950.3622)"
       y2="5.9877172"
       x2="48"
       y1="90"
       x1="48"
       gradientUnits="userSpaceOnUse"
       id="linearGradient3051"
       xlink:href="#linearGradient3700"
       inkscape:collect="always" />
    <clipPath
       clipPathUnits="userSpaceOnUse"
       id="clipPath3009">
      <path
         id="path3011"
         d="m -2,956.36218 -96,0 0,33.5624 96,25.68742 0,-59.24982 z"
         style="opacity:0.15;fill:#ffffff;fill-opacity:1;stroke:none"
         inkscape:connector-curvature="0" />
    </clipPath>
  </defs>
  <sodipodi:namedview
     id="base"
     pagecolor="#ffffff"
     bordercolor="#666666"
     borderopacity="1.0"
     inkscape:pageopacity="0.0"
     inkscape:pageshadow="2"
     inkscape:zoom="3.959798"
     inkscape:cx="33.538031"
     inkscape:cy="59.964634"
     inkscape:document-units="px"
     inkscape:current-layer="layer1"
     showgrid="false"
     inkscape:window-width="1280"
     inkscape:window-height="750"
     inkscape:window-x="0"
     inkscape:window-y="22"
     inkscape:window-maximized="1"
     showguides="true"
     inkscape:guide-bbox="true">
    <sodipodi:guide
       orientation="0,1"
       position="-24.748737,0"
       id="guide11064" />
    <sodipodi:guide
       orientation="0,1"
       position="-23.233509,96"
       id="guide11066" />
    <sodipodi:guide
       orientation="1,0"
       position="0,54.800776"
       id="guide11068" />
    <sodipodi:guide
       orientation="1,0"
       position="96,51.012704"
       id="guide11070" />
    <sodipodi:guide
       orientation="0,1"
       position="-18.94036,48"
       id="guide11072" />
    <sodipodi:guide
       orientation="1,0"
       position="48,79.296975"
       id="guide11074" />
    <sodipodi:guide
       orientation="1,0"
       position="2,75.508903"
       id="guide11076" />
    <sodipodi:guide
       orientation="0,1"
       position="-77.27667,2"
       id="guide11078" />
    <sodipodi:guide
       orientation="1,0"
       position="94,77.781746"
       id="guide11080" />
    <sodipodi:guide
       orientation="0,1"
       position="-65.912454,94"
       id="guide11082" />
  </sodipodi:namedview>
  <metadata
     id="metadata11042">
    <rdf:RDF>
      <cc:Work
         rdf:about="">
        <dc:format>image/svg+xml</dc:format>
        <dc:type
           rdf:resource="http://purl.org/dc/dcmitype/StillImage" />
        <dc:title />
      </cc:Work>
    </rdf:RDF>
  </metadata>
  <g
     inkscape:label="Layer 1"
     inkscape:groupmode="layer"
     id="layer1"
     transform="translate(0,-956.36218)">
    <rect
       x="2"
       y="958.36218"
       width="92"
       height="92"
       style="fill:url(#linearGradient11642);fill-opacity:1.0"
       id="rect3867"
       rx="25"
       ry="25" />
    <g
       transform="translate(3.4570793e-7,956.36218)"
       style="display:inline"
       id="layer4">
      <path
         d="m 40.626132,28.862503 c 1.355295,-0.208246 2.722231,-0.36048 4.092389,-0.432624 0.243413,-0.05799 0.49519,-0.04614 0.743864,-0.05503 1.9441,-0.06201 3.89088,-0.05921 5.834161,0.02835 3.50743,0.24807 6.997097,0.830751 10.380597,1.802059 l -0.01433,0.019 c -0.496044,0.670856 -0.993538,1.340662 -1.479966,2.018418 -0.145749,0.02689 -0.273329,-0.0653 -0.403142,-0.111721 -2.567041,-1.059281 -5.299603,-1.674176 -8.049932,-2.00692 -4.52386,-0.463264 -9.155298,-0.09105 -13.495183,1.301005 -3.195262,1.033441 -6.280914,2.626987 -8.663622,5.030082 -1.688558,1.726794 -2.984995,3.960634 -3.160967,6.408199 -0.163743,1.166425 0.115535,2.330833 0.362579,3.462746 -0.943605,0.09626 -1.868002,0.327625 -2.804994,0.471725 -2.636938,0.472885 -5.273437,0.948726 -7.911115,1.417355 -0.0259,-1.890772 0.467516,-3.761444 1.252748,-5.471967 1.561837,-3.330526 4.270192,-5.991523 7.287957,-8.028921 2.040551,-1.370062 4.246292,-2.487778 6.537279,-3.37406 3.052118,-1.193248 6.249975,-2.008537 9.491673,-2.477692 z"
         inkscape:connector-curvature="0"
         id="path16"
         style="fill:#000000;fill-rule:nonzero;stroke:none" />
      <path
         d="m 60.182851,32.242672 c 0.486428,-0.677756 0.983922,-1.347562 1.479965,-2.018422 4.542955,1.330558 8.930027,3.431617 12.513613,6.562329 1.465313,1.312133 2.790616,2.796546 3.808483,4.485429 1.205347,1.987538 1.969158,4.263667 2.050885,6.595542 -3.563088,-0.622754 -7.125183,-1.250819 -10.687785,-1.875693 0.438472,-1.394578 0.442216,-2.912955 0.141961,-4.336094 -0.55647,-2.459554 -2.133283,-4.571284 -4.035282,-6.17431 -1.585554,-1.33414 -3.394428,-2.403354 -5.310912,-3.185843 l 0.03907,-0.05294 z"
         inkscape:connector-curvature="0"
         id="path20"
         style="fill:#d72123;fill-rule:nonzero;stroke:none" />
      <path
         d="m 47.96875,40.96875 c -0.672083,0 -1.23259,0.412384 -1.46875,1 -0.517221,-0.09102 -1.042115,-0.179204 -1.5625,-0.25 -0.03529,0.192578 -0.06594,0.368409 -0.09375,0.5625 0.491548,0.08436 0.980787,0.176675 1.46875,0.28125 0.02026,0.0031 0.0422,-0.003 0.0625,0 0,0.882615 0.711135,1.59375 1.59375,1.59375 0.698737,0 1.314077,-0.437731 1.53125,-1.0625 0.589976,0.102142 1.190507,0.216076 1.78125,0.3125 1.59152,0.270898 3.157265,0.579275 4.75,0.84375 1.676725,0.305159 3.353308,0.576815 5.03125,0.875 2.419383,0.41714 4.859061,0.8828 7.28125,1.28125 3.873497,0.709247 7.748821,1.36648 11.625,2.0625 0.801875,0.12812 1.603371,0.28093 2.40625,0.40625 0.02479,-0.189539 0.0443,-0.378082 0.09375,-0.5625 -0.809242,-0.178447 -1.624592,-0.279525 -2.4375,-0.4375 -3.563088,-0.622754 -7.124898,-1.250126 -10.6875,-1.875 -0.81883,-0.133731 -1.616867,-0.317326 -2.4375,-0.4375 -2.44047,-0.447696 -4.899709,-0.852836 -7.34375,-1.28125 -0.238045,-0.06244 -0.479831,-0.07109 -0.71875,-0.125 -0.58434,-0.09803 -1.163346,-0.23077 -1.75,-0.3125 -2.441924,-0.44201 -4.897663,-0.86141 -7.34375,-1.28125 -0.04751,-0.01881 -0.104055,-0.02242 -0.15625,-0.03125 -0.01741,-0.867523 -0.753309,-1.5625 -1.625,-1.5625 z"
         inkscape:connector-curvature="0"
         id="path24"
         style="fill:#000000;fill-rule:nonzero;stroke:none" />
      <path
         d="m 16.082882,50.899286 c 1.968464,-0.01321 3.937085,-0.0024 5.905627,-0.0055 0.0019,0.07294 0.0058,0.218818 0.0078,0.291757 1.43034,-0.311482 2.900399,-0.44395 4.363321,-0.363198 1.065219,0.09752 2.043242,0.554021 2.995867,1.00718 -1.073882,0.664159 -2.166633,1.303785 -3.214601,2.006493 -1.167792,-0.901814 -2.754961,-0.902612 -4.116828,-0.508041 -0.017,0.145715 -0.03298,0.291932 -0.03443,0.439467 6.9e-4,3.388805 0.0016,6.777672 -4.31e-4,10.166544 -1.967753,-6.03e-4 -3.93548,0.0018 -5.903218,-0.0012 -0.0042,-4.344508 0.0021,-8.688995 -0.0032,-13.033464 z"
         inkscape:connector-curvature="0"
         id="path28"
         style="fill:#000000;fill-rule:nonzero;stroke:none" />
      <path
         d="m 37.174463,50.880708 c -1.733364,0.0035 -3.447389,0.01534 -5.180612,0.02995 0.0016,5.549678 0.0036,11.100126 0,16.649827 0.292807,-0.01762 0.582647,-0.04549 0.868426,-0.119783 1.681006,-0.22437 3.348575,-0.475957 5.030883,-0.688751 0.01294,-0.895772 -4.66e-4,-1.799476 0,-2.695116 0.160946,-0.0067 0.34764,-0.02056 0.509078,-0.02995 2.540991,-0.172813 5.064597,-0.843459 7.306758,-2.066256 1.311345,-0.738066 2.602602,-1.720019 3.204193,-3.144301 0.512486,-1.187201 0.263547,-2.568355 -0.389294,-3.65338 -0.859634,-1.396778 -2.290399,-2.336782 -3.773162,-2.964627 -2.387405,-0.988047 -5.007479,-1.332197 -7.57627,-1.317612 z m 0.748643,1.437395 c 1.514083,0.151934 2.858728,1.01359 3.892945,2.096201 0.891891,0.938032 1.535422,2.245222 1.317612,3.563542 -0.238078,1.320707 -1.152666,2.405552 -2.186038,3.204193 -0.897519,0.658871 -1.9356,1.228417 -3.054465,1.377504 -0.0038,-3.408115 0.02527,-6.833372 0.02995,-10.24144 z"
         inkscape:connector-curvature="0"
         id="path32"
         style="fill:#000000;fill-rule:nonzero;stroke:none" />
      <path
         d="m 52.332679,50.902266 c 6.764468,-0.02066 13.52936,-0.0025 20.294028,-0.0091 1.979047,0.0081 3.991016,0.02072 5.91617,0.532681 0.55406,0.182505 1.292977,0.399532 1.438712,1.043571 0.01445,3.821277 0.0054,7.643437 0.0044,11.465078 -1.968869,-4.31e-4 -3.937636,-0.0012 -5.906349,4.31e-4 -4.31e-4,-3.79186 -0.0081,-7.583853 0.0038,-11.375578 -0.357666,-0.310311 -0.867556,-0.297073 -1.311636,-0.351264 -1.214252,-0.03161 -2.429478,-0.0091 -3.643933,-0.01248 2.59e-4,3.913029 0.0044,7.826086 -0.002,11.739135 -1.971654,-0.0018 -3.943221,5.18e-4 -5.914751,-0.0012 -0.0058,-3.134368 -8.7e-4,-6.268721 -0.0025,-9.403052 -0.01577,-0.684906 0.03433,-1.372382 -0.02983,-2.05507 -0.554715,-0.233154 -1.162381,-0.278835 -1.757171,-0.281687 -1.056079,-0.0017 -2.112037,7.5e-4 -3.167915,-0.0011 -0.0052,3.914352 0.0064,7.828788 -0.0057,11.743127 -1.856481,-0.0024 -3.712928,-0.0036 -5.569289,7.76e-4 -0.127871,0.01004 -0.247067,-0.01457 -0.357588,-0.07386 0.03054,-4.319638 0.0073,-8.640381 0.01164,-12.960416 l -8.8e-5,8e-6 z"
         inkscape:connector-curvature="0"
         id="path36"
         style="fill:#000000;fill-rule:nonzero;stroke:none" />
    </g>
    <rect
       ry="25"
       rx="25"
       id="rect3003"
       style="opacity:0.15;fill:#ffffff;fill-opacity:1"
       height="92"
       width="92"
       y="958.36218"
       x="-96"
       clip-path="url(#clipPath3009)"
       transform="translate(98,3.8281269e-7)" />
  </g>
</svg>
