<?xml version="1.0" encoding="UTF-8" standalone="no"?>
<!-- Created with Inkscape (http://www.inkscape.org/) -->

<svg
   xmlns:dc="http://purl.org/dc/elements/1.1/"
   xmlns:cc="http://creativecommons.org/ns#"
   xmlns:rdf="http://www.w3.org/1999/02/22-rdf-syntax-ns#"
   xmlns:svg="http://www.w3.org/2000/svg"
   xmlns="http://www.w3.org/2000/svg"
   xmlns:xlink="http://www.w3.org/1999/xlink"
   xmlns:sodipodi="http://sodipodi.sourceforge.net/DTD/sodipodi-0.dtd"
   xmlns:inkscape="http://www.inkscape.org/namespaces/inkscape"
   width="96"
   height="96"
   id="svg11037"
   version="1.1"
   inkscape:version="0.48.3.1 r9886"
   sodipodi:docname="text-x-copying.svg">
  <defs
     id="defs11039">
    <linearGradient
       y2="1046.1001"
       x2="47.999954"
       y1="962.62189"
       x1="47.999954"
       gradientTransform="matrix(1.15,0,0,1.15,-7.1999462,-150.65291)"
       gradientUnits="userSpaceOnUse"
       id="linearGradient3886"
       xlink:href="#linearGradient3795"
       inkscape:collect="always" />
    <linearGradient
       id="linearGradient3795">
      <stop
         style="stop-color:#13a6fd;stop-opacity:1;"
         offset="0"
         id="stop3797" />
      <stop
         style="stop-color:#2975b6;stop-opacity:1;"
         offset="1"
         id="stop3799" />
    </linearGradient>
    <linearGradient
       y2="1046.1001"
       x2="47.999954"
       y1="962.62189"
       x1="47.999954"
       gradientTransform="matrix(1.15,0,0,1.15,-7.1999462,-150.65292)"
       gradientUnits="userSpaceOnUse"
       id="linearGradient11642"
       xlink:href="#linearGradient3700"
       inkscape:collect="always" />
    <linearGradient
       x1="48"
       y1="90"
       x2="48"
       y2="5.9877172"
       id="linearGradient3706"
       xlink:href="#linearGradient3700"
       gradientUnits="userSpaceOnUse" />
    <linearGradient
       id="linearGradient3700">
      <stop
         id="stop3702"
         style="stop-color:#ebebeb;stop-opacity:1"
         offset="0" />
      <stop
         id="stop3704"
         style="stop-color:#fafafa;stop-opacity:1"
         offset="1" />
    </linearGradient>
    <linearGradient
       gradientTransform="translate(-96.487322,952.36218)"
       y2="5.9877172"
       x2="48"
       y1="90"
       x1="48"
       gradientUnits="userSpaceOnUse"
       id="linearGradient3062"
       xlink:href="#linearGradient3700"
       inkscape:collect="always" />
    <clipPath
       id="clipPath3875">
      <path
         d="m -88,6 c -3.324,0 -6,2.676 -6,6 l 0,72 c 0,3.324 2.676,6 6,6 l 72,0 c 3.324,0 6,-2.676 6,-6 l 0,-72 c 0,-3.324 -2.676,-6 -6,-6 l -72,0 z m 36,18 c 13.254834,0 24,10.745166 24,24 0,13.254834 -10.745166,24 -24,24 -13.254834,0 -24,-10.745166 -24,-24 0,-13.254834 10.745166,-24 24,-24 z m 0,6 c -9.941126,0 -18,8.058874 -18,18 0,9.941125 8.058874,18 18,18 9.941125,0 18,-8.058875 18,-18 0,-9.941126 -8.058875,-18 -18,-18 z m 0.46875,4 c 1.776535,2.8e-5 3.330255,0.189194 4.65625,0.5625 1.338829,0.37336 2.503211,0.911477 3.46875,1.59375 0.978367,0.66945 1.77542,1.448127 2.40625,2.375 0.643652,0.914045 1.139513,1.924145 1.5,3.03125 l -5,1.375 c -0.180252,-0.579291 -0.470438,-1.128414 -0.84375,-1.65625 -0.373354,-0.540669 -0.85821,-1.025525 -1.4375,-1.4375 -0.566456,-0.411932 -1.227605,-0.72413 -2,-0.96875 -0.772431,-0.257448 -1.646625,-0.406227 -2.625,-0.40625 -1.377485,2.3e-5 -2.571248,0.236948 -3.5625,0.6875 -0.991275,0.437723 -1.793832,1.082363 -2.4375,1.90625 -0.630813,0.823928 -1.097293,1.810148 -1.40625,2.96875 -0.296099,1.145764 -0.437507,2.4148 -0.4375,3.84375 -7e-6,1.416104 0.141401,2.721893 0.4375,3.90625 0.308957,1.171503 0.762563,2.181603 1.40625,3.03125 0.643668,0.849661 1.495851,1.523683 2.5,2 1.016999,0.476326 2.208894,0.718754 3.625,0.71875 1.068489,4e-6 2.008819,-0.172654 2.78125,-0.46875 0.785268,-0.308961 1.464794,-0.698299 2.03125,-1.1875 0.57929,-0.489189 1.032895,-1.038312 1.40625,-1.65625 0.386185,-0.617923 0.72413,-1.244187 0.96875,-1.875 l 4.9375,1.875 c -0.399108,0.978397 -0.918848,1.935235 -1.5625,2.875 -0.643703,0.939774 -1.440757,1.779083 -2.40625,2.5 -0.96554,0.720921 -2.098671,1.299426 -3.4375,1.75 C -47.888496,61.781451 -49.478968,62 -51.28125,62 c -2.355875,0 -4.399954,-0.336078 -6.125,-1.03125 -1.725065,-0.708045 -3.148383,-1.688762 -4.28125,-2.9375 -1.120004,-1.261604 -1.94644,-2.774936 -2.5,-4.5 -0.540692,-1.725048 -0.812502,-3.609342 -0.8125,-5.65625 -2e-6,-2.124122 0.271808,-4.037798 0.8125,-5.75 0.55356,-1.712163 1.39287,-3.177736 2.5,-4.375 1.10712,-1.21009 2.501056,-2.106296 4.1875,-2.75 1.699299,-0.656524 3.677243,-0.999972 5.96875,-1 z"
         inkscape:connector-curvature="0"
         id="path3877"
         style="fill:#ff00ff;fill-opacity:1;fill-rule:nonzero;stroke:none" />
    </clipPath>
    <filter
       x="-0.14399999"
       y="-0.14399999"
       width="1.288"
       height="1.288"
       color-interpolation-filters="sRGB"
       id="filter3879">
      <feGaussianBlur
         id="feGaussianBlur3881"
         stdDeviation="2.88" />
    </filter>
    <linearGradient
       x1="48"
       y1="72"
       x2="48"
       y2="23.989584"
       id="linearGradient3845"
       xlink:href="#linearGradient3697"
       gradientUnits="userSpaceOnUse" />
    <linearGradient
       id="linearGradient3697">
      <stop
         id="stop3699"
         style="stop-color:#bababa;stop-opacity:1"
         offset="0" />
      <stop
         id="stop3701"
         style="stop-color:#d2d2d2;stop-opacity:1"
         offset="1" />
    </linearGradient>
    <clipPath
       clipPathUnits="userSpaceOnUse"
       id="clipPath3009">
      <path
         id="path3011"
         d="m -2,956.36218 -96,0 0,33.5624 96,25.68742 0,-59.24982 z"
         style="opacity:0.15;fill:#ffffff;fill-opacity:1;stroke:none"
         inkscape:connector-curvature="0" />
    </clipPath>
  </defs>
  <sodipodi:namedview
     id="base"
     pagecolor="#ffffff"
     bordercolor="#666666"
     borderopacity="1.0"
     inkscape:pageopacity="0.0"
     inkscape:pageshadow="2"
     inkscape:zoom="3.959798"
     inkscape:cx="33.538031"
     inkscape:cy="59.964634"
     inkscape:document-units="px"
     inkscape:current-layer="layer1"
     showgrid="false"
     inkscape:window-width="1280"
     inkscape:window-height="750"
     inkscape:window-x="0"
     inkscape:window-y="22"
     inkscape:window-maximized="1"
     showguides="true"
     inkscape:guide-bbox="true">
    <sodipodi:guide
       orientation="0,1"
       position="-24.748737,0"
       id="guide11064" />
    <sodipodi:guide
       orientation="0,1"
       position="-23.233509,96"
       id="guide11066" />
    <sodipodi:guide
       orientation="1,0"
       position="0,54.800776"
       id="guide11068" />
    <sodipodi:guide
       orientation="1,0"
       position="96,51.012704"
       id="guide11070" />
    <sodipodi:guide
       orientation="0,1"
       position="-18.94036,48"
       id="guide11072" />
    <sodipodi:guide
       orientation="1,0"
       position="48,79.296975"
       id="guide11074" />
    <sodipodi:guide
       orientation="1,0"
       position="2,75.508903"
       id="guide11076" />
    <sodipodi:guide
       orientation="0,1"
       position="-77.27667,2"
       id="guide11078" />
    <sodipodi:guide
       orientation="1,0"
       position="94,77.781746"
       id="guide11080" />
    <sodipodi:guide
       orientation="0,1"
       position="-65.912454,94"
       id="guide11082" />
  </sodipodi:namedview>
  <metadata
     id="metadata11042">
    <rdf:RDF>
      <cc:Work
         rdf:about="">
        <dc:format>image/svg+xml</dc:format>
        <dc:type
           rdf:resource="http://purl.org/dc/dcmitype/StillImage" />
        <dc:title />
      </cc:Work>
    </rdf:RDF>
  </metadata>
  <g
     inkscape:label="Layer 1"
     inkscape:groupmode="layer"
     id="layer1"
     transform="translate(0,-956.36218)">
    <rect
       x="2"
       y="958.36218"
       width="92"
       height="92"
       style="fill:url(#linearGradient11642);fill-opacity:1.0"
       id="rect3867"
       rx="25"
       ry="25" />
    <g
       transform="translate(2.746582e-7,956.36218)"
       style="display:inline"
       id="g3064">
      <path
         style="opacity:0.6;color:#000000;fill:none;stroke:#ffffff;stroke-width:2;stroke-miterlimit:4;stroke-dasharray:none;marker:none;visibility:visible;display:inline;overflow:visible;filter:url(#filter3879);enable-background:accumulate"
         id="path3866"
         clip-path="url(#clipPath3875)"
         transform="translate(100,0)"
         inkscape:connector-curvature="0"
         d="m -52,24 c -13.254834,0 -24,10.745166 -24,24 0,13.254834 10.745166,24 24,24 13.254834,0 24,-10.745166 24,-24 0,-13.254834 -10.745166,-24 -24,-24 z m 0,6 c 9.941125,0 18,8.058874 18,18 0,9.941125 -8.058875,18 -18,18 -9.941126,0 -18,-8.058875 -18,-18 0,-9.941126 8.058874,-18 18,-18 z m 0.46875,4 c -2.291507,2.8e-5 -4.269451,0.343476 -5.96875,1 -1.686444,0.643704 -3.08038,1.53991 -4.1875,2.75 -1.10713,1.197264 -1.94644,2.662837 -2.5,4.375 -0.540692,1.712202 -0.812502,3.625878 -0.8125,5.75 -2e-6,2.046908 0.271808,3.931202 0.8125,5.65625 0.55356,1.725064 1.379996,3.238396 2.5,4.5 1.132867,1.248738 2.556185,2.229455 4.28125,2.9375 1.725046,0.695172 3.769125,1.03125 6.125,1.03125 1.802282,0 3.392754,-0.218549 4.71875,-0.65625 1.338829,-0.450574 2.47196,-1.029079 3.4375,-1.75 0.965493,-0.720917 1.762547,-1.560226 2.40625,-2.5 0.643652,-0.939765 1.163392,-1.896603 1.5625,-2.875 l -4.9375,-1.875 c -0.24462,0.630813 -0.582565,1.257077 -0.96875,1.875 -0.373355,0.617938 -0.82696,1.167061 -1.40625,1.65625 -0.566456,0.489201 -1.245982,0.878539 -2.03125,1.1875 -0.772431,0.296096 -1.712761,0.468754 -2.78125,0.46875 -1.416106,4e-6 -2.608001,-0.242424 -3.625,-0.71875 -1.004149,-0.476317 -1.856332,-1.150339 -2.5,-2 -0.643687,-0.849647 -1.097293,-1.859747 -1.40625,-3.03125 -0.296099,-1.184357 -0.437507,-2.490146 -0.4375,-3.90625 -7e-6,-1.42895 0.141401,-2.697986 0.4375,-3.84375 0.308957,-1.158602 0.775437,-2.144822 1.40625,-2.96875 0.643668,-0.823887 1.446225,-1.468527 2.4375,-1.90625 0.991252,-0.450552 2.185015,-0.687477 3.5625,-0.6875 0.978375,2.3e-5 1.852569,0.148802 2.625,0.40625 0.772395,0.24462 1.433544,0.556818 2,0.96875 0.57929,0.411975 1.064146,0.896831 1.4375,1.4375 0.373312,0.527836 0.663498,1.076959 0.84375,1.65625 l 5,-1.375 c -0.360487,-1.107105 -0.856348,-2.117205 -1.5,-3.03125 -0.63083,-0.926873 -1.427883,-1.70555 -2.40625,-2.375 -0.965539,-0.682273 -2.129921,-1.22039 -3.46875,-1.59375 -1.325995,-0.373306 -2.879715,-0.562472 -4.65625,-0.5625 z" />
      <path
         style="color:#000000;fill:url(#linearGradient3845);fill-opacity:1;fill-rule:nonzero;stroke:none;stroke-width:1;marker:none;visibility:visible;display:inline;overflow:visible;enable-background:accumulate"
         id="path3836"
         inkscape:connector-curvature="0"
         d="M 48,24 C 34.745166,24 24,34.745166 24,48 24,61.254834 34.745166,72 48,72 61.254834,72 72,61.254834 72,48 72,34.745166 61.254834,24 48,24 z m 0,6 c 9.941125,0 18,8.058874 18,18 0,9.941125 -8.058875,18 -18,18 -9.941126,0 -18,-8.058875 -18,-18 0,-9.941126 8.058874,-18 18,-18 z m 0.46875,4 c -2.291507,2.8e-5 -4.269451,0.343476 -5.96875,1 -1.686444,0.643704 -3.08038,1.53991 -4.1875,2.75 -1.10713,1.197264 -1.94644,2.662837 -2.5,4.375 -0.540692,1.712202 -0.812502,3.625878 -0.8125,5.75 -2e-6,2.046908 0.271808,3.931202 0.8125,5.65625 0.55356,1.725064 1.379996,3.238396 2.5,4.5 1.132867,1.248738 2.556185,2.229455 4.28125,2.9375 1.725046,0.695172 3.769125,1.03125 6.125,1.03125 1.802282,0 3.392754,-0.218549 4.71875,-0.65625 1.338829,-0.450574 2.47196,-1.029079 3.4375,-1.75 0.965493,-0.720917 1.762547,-1.560226 2.40625,-2.5 0.643652,-0.939765 1.163392,-1.896603 1.5625,-2.875 l -4.9375,-1.875 c -0.24462,0.630813 -0.582565,1.257077 -0.96875,1.875 -0.373355,0.617938 -0.82696,1.167061 -1.40625,1.65625 -0.566456,0.489201 -1.245982,0.878539 -2.03125,1.1875 -0.772431,0.296096 -1.712761,0.468754 -2.78125,0.46875 -1.416106,4e-6 -2.608001,-0.242424 -3.625,-0.71875 -1.004149,-0.476317 -1.856332,-1.150339 -2.5,-2 C 41.950063,53.962853 41.496457,52.952753 41.1875,51.78125 40.891401,50.596893 40.749993,49.291104 40.75,47.875 c -7e-6,-1.42895 0.141401,-2.697986 0.4375,-3.84375 0.308957,-1.158602 0.775437,-2.144822 1.40625,-2.96875 0.643668,-0.823887 1.446225,-1.468527 2.4375,-1.90625 0.991252,-0.450552 2.185015,-0.687477 3.5625,-0.6875 0.978375,2.3e-5 1.852569,0.148802 2.625,0.40625 0.772395,0.24462 1.433544,0.556818 2,0.96875 0.57929,0.411975 1.064146,0.896831 1.4375,1.4375 0.373312,0.527836 0.663498,1.076959 0.84375,1.65625 l 5,-1.375 C 60.139513,40.455395 59.643652,39.445295 59,38.53125 58.36917,37.604377 57.572117,36.8257 56.59375,36.15625 55.628211,35.473977 54.463829,34.93586 53.125,34.5625 51.799005,34.189194 50.245285,34.000028 48.46875,34 z" />
      <path
         style="opacity:0.2;color:#000000;fill:#000000;fill-opacity:1;fill-rule:nonzero;stroke:none;stroke-width:1;marker:none;visibility:visible;display:inline;overflow:visible;enable-background:accumulate"
         id="path3848"
         inkscape:connector-curvature="0"
         d="m 48,24 c -13.254834,0 -24,10.745166 -24,24 0,0.165582 -0.0033,0.335217 0,0.5 C 24.263839,35.473936 34.910748,25 48,25 61.089252,25 71.736161,35.473936 72,48.5 72.003338,48.335217 72,48.165582 72,48 72,34.745166 61.254834,24 48,24 z m 0.46875,10 c -2.291507,2.8e-5 -4.269451,0.343476 -5.96875,1 -1.686444,0.643704 -3.08038,1.53991 -4.1875,2.75 -1.10713,1.197264 -1.94644,2.662837 -2.5,4.375 -0.540692,1.712202 -0.812502,3.625878 -0.8125,5.75 0,0.170723 0.02747,0.331537 0.03125,0.5 0.04002,-1.923089 0.283852,-3.674897 0.78125,-5.25 0.55356,-1.712163 1.39287,-3.177736 2.5,-4.375 1.10712,-1.21009 2.501056,-2.106296 4.1875,-2.75 1.699299,-0.656524 3.677243,-0.999972 5.96875,-1 1.776535,2.8e-5 3.330255,0.189194 4.65625,0.5625 1.338829,0.37336 2.503211,0.911477 3.46875,1.59375 0.978367,0.66945 1.77542,1.448127 2.40625,2.375 0.464534,0.659681 0.872259,1.364896 1.1875,2.125 L 60.5,41.5625 C 60.139513,40.455395 59.643652,39.445295 59,38.53125 58.36917,37.604377 57.572117,36.8257 56.59375,36.15625 55.628211,35.473977 54.463829,34.93586 53.125,34.5625 51.799005,34.189194 50.245285,34.000028 48.46875,34 z M 40.75,48.375 c -0.0042,0.168422 -10e-7,0.326953 0,0.5 -7e-6,1.416104 0.141401,2.721893 0.4375,3.90625 0.308957,1.171503 0.762563,2.181603 1.40625,3.03125 0.643668,0.849661 1.495851,1.523683 2.5,2 1.016999,0.476326 2.208894,0.718754 3.625,0.71875 1.068489,4e-6 2.008819,-0.172654 2.78125,-0.46875 0.785268,-0.308961 1.464794,-0.698299 2.03125,-1.1875 0.57929,-0.489189 1.032895,-1.038312 1.40625,-1.65625 0.386185,-0.617923 0.72413,-1.244187 0.96875,-1.875 l 4.53125,1.71875 c 0.138192,-0.283889 0.288974,-0.556252 0.40625,-0.84375 l -4.9375,-1.875 c -0.24462,0.630813 -0.582565,1.257077 -0.96875,1.875 -0.373355,0.617938 -0.82696,1.167061 -1.40625,1.65625 -0.566456,0.489201 -1.245982,0.878539 -2.03125,1.1875 -0.772431,0.296096 -1.712761,0.468754 -2.78125,0.46875 -1.416106,4e-6 -2.608001,-0.242424 -3.625,-0.71875 -1.004149,-0.476317 -1.856332,-1.150339 -2.5,-2 C 41.950063,53.962853 41.496457,52.952753 41.1875,51.78125 40.927259,50.74032 40.780268,49.595986 40.75,48.375 z M 30.03125,48.5 C 30.026644,48.66748 30,48.831407 30,49 c 0,9.941125 8.058874,18 18,18 9.941125,0 18,-8.058875 18,-18 0,-0.168593 -0.02664,-0.33252 -0.03125,-0.5 C 65.701788,58.208025 57.772532,66 48,66 38.227467,66 30.298212,58.208025 30.03125,48.5 z" />
      <path
         style="color:#000000;fill:#ffffff;fill-opacity:1;fill-rule:nonzero;stroke:none;stroke-width:1;marker:none;visibility:visible;display:inline;overflow:visible;enable-background:accumulate"
         id="path3857"
         inkscape:connector-curvature="0"
         d="m 48,30 c -9.941126,0 -18,8.058874 -18,18 0,0.168593 0.02664,0.33252 0.03125,0.5 C 30.298212,38.791974 38.227467,31 48,31 57.772532,31 65.701788,38.791974 65.96875,48.5 65.973356,48.33252 66,48.168593 66,48 66,38.058874 57.941125,30 48,30 z m 0.59375,8.46875 c -1.377485,2.3e-5 -2.571248,0.236948 -3.5625,0.6875 -0.991275,0.437723 -1.793832,1.082363 -2.4375,1.90625 -0.630813,0.823928 -1.097293,1.810148 -1.40625,2.96875 -0.296099,1.145764 -0.437507,2.4148 -0.4375,3.84375 -10e-7,0.171491 -0.0042,0.331764 0,0.5 0.03027,-1.222334 0.177259,-2.336739 0.4375,-3.34375 0.308957,-1.158602 0.775437,-2.144822 1.40625,-2.96875 0.643668,-0.823887 1.446225,-1.468527 2.4375,-1.90625 0.991252,-0.450552 2.185015,-0.687477 3.5625,-0.6875 0.978375,2.3e-5 1.852569,0.148802 2.625,0.40625 0.772395,0.24462 1.433544,0.556818 2,0.96875 0.57929,0.411975 1.064146,0.896831 1.4375,1.4375 0.373312,0.527836 0.663498,1.076959 0.84375,1.65625 l 5,-1.375 C 60.399682,42.254411 60.309052,41.949335 60.1875,41.65625 L 55.5,42.9375 c -0.180252,-0.579291 -0.470438,-1.128414 -0.84375,-1.65625 -0.373354,-0.540669 -0.85821,-1.025525 -1.4375,-1.4375 -0.566456,-0.411932 -1.227605,-0.72413 -2,-0.96875 -0.772431,-0.257448 -1.646625,-0.406227 -2.625,-0.40625 z M 35.03125,48.375 C 35.027766,48.542389 35,48.704918 35,48.875 c -2e-6,2.046908 0.271808,3.931202 0.8125,5.65625 0.55356,1.725064 1.379996,3.238396 2.5,4.5 1.132867,1.248738 2.556185,2.229455 4.28125,2.9375 1.725046,0.695172 3.769125,1.03125 6.125,1.03125 1.802282,0 3.392754,-0.218549 4.71875,-0.65625 1.338829,-0.450574 2.47196,-1.029079 3.4375,-1.75 0.965493,-0.720917 1.762547,-1.560226 2.40625,-2.5 0.643652,-0.939765 1.163392,-1.896603 1.5625,-2.875 L 60.4375,55.0625 c -0.332094,0.682225 -0.701733,1.367631 -1.15625,2.03125 -0.643703,0.939774 -1.440757,1.779083 -2.40625,2.5 -0.96554,0.720921 -2.098671,1.299426 -3.4375,1.75 C 52.111504,61.781451 50.521032,62 48.71875,62 c -2.355875,0 -4.399954,-0.336078 -6.125,-1.03125 -1.725065,-0.708045 -3.148383,-1.688762 -4.28125,-2.9375 -1.120004,-1.261604 -1.94644,-2.774936 -2.5,-4.5 C 35.316905,51.950081 35.072789,50.226343 35.03125,48.375 z M 24,48.5 c -0.0033,0.164783 0,0.334418 0,0.5 0,13.254834 10.745166,24 24,24 13.254834,0 24,-10.745166 24,-24 0,-0.165582 0.0033,-0.335217 0,-0.5 C 71.736161,61.526064 61.089252,72 48,72 34.910748,72 24.263839,61.526064 24,48.5 z" />
    </g>
    <rect
       ry="25"
       rx="25"
       id="rect3003"
       style="opacity:0.15;fill:#ffffff;fill-opacity:1"
       height="92"
       width="92"
       y="958.36218"
       x="-96"
       clip-path="url(#clipPath3009)"
       transform="translate(98,3.8281269e-7)" />
  </g>
</svg>
