<?xml version="1.0" encoding="UTF-8" standalone="no"?>
<!-- Created with Inkscape (http://www.inkscape.org/) -->

<svg
   xmlns:dc="http://purl.org/dc/elements/1.1/"
   xmlns:cc="http://creativecommons.org/ns#"
   xmlns:rdf="http://www.w3.org/1999/02/22-rdf-syntax-ns#"
   xmlns:svg="http://www.w3.org/2000/svg"
   xmlns="http://www.w3.org/2000/svg"
   xmlns:xlink="http://www.w3.org/1999/xlink"
   xmlns:sodipodi="http://sodipodi.sourceforge.net/DTD/sodipodi-0.dtd"
   xmlns:inkscape="http://www.inkscape.org/namespaces/inkscape"
   width="96"
   height="96"
   id="svg11037"
   version="1.1"
   inkscape:version="0.48.3.1 r9886"
   sodipodi:docname="text-x-readme.svg">
  <defs
     id="defs11039">
    <linearGradient
       y2="1046.1001"
       x2="47.999954"
       y1="962.62189"
       x1="47.999954"
       gradientTransform="matrix(1.15,0,0,1.15,-7.1999462,-150.65291)"
       gradientUnits="userSpaceOnUse"
       id="linearGradient3886"
       xlink:href="#linearGradient3795"
       inkscape:collect="always" />
    <linearGradient
       id="linearGradient3795">
      <stop
         style="stop-color:#13a6fd;stop-opacity:1;"
         offset="0"
         id="stop3797" />
      <stop
         style="stop-color:#2975b6;stop-opacity:1;"
         offset="1"
         id="stop3799" />
    </linearGradient>
    <linearGradient
       y2="1046.1001"
       x2="47.999954"
       y1="962.62189"
       x1="47.999954"
       gradientTransform="matrix(1.15,0,0,1.15,-7.1999462,-150.65292)"
       gradientUnits="userSpaceOnUse"
       id="linearGradient11642"
       xlink:href="#linearGradient3700"
       inkscape:collect="always" />
    <linearGradient
       x1="48"
       y1="90"
       x2="48"
       y2="5.9877172"
       id="linearGradient3706"
       xlink:href="#linearGradient3700"
       gradientUnits="userSpaceOnUse" />
    <linearGradient
       id="linearGradient3700">
      <stop
         id="stop3702"
         style="stop-color:#ebebeb;stop-opacity:1"
         offset="0" />
      <stop
         id="stop3704"
         style="stop-color:#fafafa;stop-opacity:1"
         offset="1" />
    </linearGradient>
    <linearGradient
       gradientTransform="translate(-96.992398,962.36219)"
       y2="5.9877172"
       x2="48"
       y1="90"
       x1="48"
       gradientUnits="userSpaceOnUse"
       id="linearGradient3062"
       xlink:href="#linearGradient3700"
       inkscape:collect="always" />
    <linearGradient
       x1="71.671646"
       y1="62.025059"
       x2="71.671646"
       y2="26.413651"
       id="linearGradient2937"
       xlink:href="#linearGradient3697"
       gradientUnits="userSpaceOnUse"
       gradientTransform="matrix(1.3333333,0,0,1.3333333,-50.401545,-11.129853)" />
    <linearGradient
       id="linearGradient3697">
      <stop
         id="stop3699"
         style="stop-color:#bababa;stop-opacity:1"
         offset="0" />
      <stop
         id="stop3701"
         style="stop-color:#d2d2d2;stop-opacity:1"
         offset="1" />
    </linearGradient>
    <clipPath
       id="clipPath3730">
      <path
         d="m -88,6 c -3.324,0 -6,2.676 -6,6 l 0,72 c 0,3.324 2.676,6 6,6 l 72,0 c 3.324,0 6,-2.676 6,-6 l 0,-72 c 0,-3.324 -2.676,-6 -6,-6 l -72,0 z m 38.65625,18 c 1.645696,4.7e-5 3.029386,0.559154 4.1875,1.65625 1.178391,1.097186 1.74998,2.424666 1.75,3.96875 -2e-5,1.544168 -0.571609,2.871646 -1.75,3.96875 -1.158114,1.076862 -2.541804,1.625035 -4.1875,1.625 -1.645727,3.5e-5 -3.071601,-0.548138 -4.25,-1.625 -1.178423,-1.097104 -1.750011,-2.424582 -1.75,-3.96875 -1.1e-5,-1.544084 0.571577,-2.871564 1.75,-3.96875 1.178399,-1.097096 2.604273,-1.656203 4.25,-1.65625 z m -5.59375,16.25 c 2.417762,3.1e-5 4.293416,0.602866 5.59375,1.78125 1.320617,1.158121 1.93748,2.693322 1.9375,4.5625 -2.6e-5,0.386058 -0.02343,1.056035 -0.125,2.03125 -0.08128,0.975259 -0.256208,1.843571 -0.5,2.65625 l -2.5,8.875 c -0.203189,0.711117 -0.368725,1.523222 -0.53125,2.4375 -0.16256,0.914292 -0.250015,1.595204 -0.25,2.0625 -1.5e-5,1.178425 0.252982,2.01084 0.78125,2.4375 0.528239,0.426674 1.449666,0.625 2.75,0.625 0.609506,0 1.321667,-0.109304 2.09375,-0.3125 0.772042,-0.223499 1.31083,-0.399946 1.65625,-0.5625 l -0.65625,2.75 c -2.011448,0.792375 -3.645038,1.374901 -4.84375,1.78125 -1.198745,0.426673 -2.571501,0.625 -4.15625,0.625 -2.438104,0 -4.357487,-0.571587 -5.71875,-1.75 -1.340957,-1.198724 -2.000004,-2.702678 -2,-4.53125 -5e-6,-0.711104 0.0859,-1.456059 0.1875,-2.1875 0.101587,-0.751727 0.214004,-1.596634 0.4375,-2.53125 l 2.5,-8.875 c 0.223484,-0.853313 0.420271,-1.654483 0.5625,-2.40625 0.16253,-0.772041 0.249993,-1.463886 0.25,-2.09375 -8e-6,-1.137753 -0.251457,-1.927989 -0.71875,-2.375 -0.467307,-0.446959 -1.335622,-0.718724 -2.65625,-0.71875 -0.650163,2.6e-5 -1.30921,0.140615 -2,0.34375 -0.670477,0.203201 -1.262383,0.41092 -1.75,0.59375 l 0.65625,-2.75 c 1.645711,-0.670448 3.246504,-1.251419 4.75,-1.71875 1.503484,-0.487589 2.909037,-0.749969 4.25,-0.75 z"
         inkscape:connector-curvature="0"
         id="path3732"
         style="fill:#ff00ff;fill-opacity:1;fill-rule:nonzero;stroke:none" />
    </clipPath>
    <filter
       x="-0.23495482"
       y="-0.1038125"
       width="1.4699095"
       height="1.207625"
       color-interpolation-filters="sRGB"
       id="filter3738">
      <feGaussianBlur
         id="feGaussianBlur3740"
         stdDeviation="2.07625" />
    </filter>
    <clipPath
       clipPathUnits="userSpaceOnUse"
       id="clipPath3009">
      <path
         id="path3011"
         d="m -2,956.36218 -96,0 0,33.5624 96,25.68742 0,-59.24982 z"
         style="opacity:0.15;fill:#ffffff;fill-opacity:1;stroke:none"
         inkscape:connector-curvature="0" />
    </clipPath>
  </defs>
  <sodipodi:namedview
     id="base"
     pagecolor="#ffffff"
     bordercolor="#666666"
     borderopacity="1.0"
     inkscape:pageopacity="0.0"
     inkscape:pageshadow="2"
     inkscape:zoom="3.959798"
     inkscape:cx="37.957448"
     inkscape:cy="59.964634"
     inkscape:document-units="px"
     inkscape:current-layer="layer1"
     showgrid="false"
     inkscape:window-width="1280"
     inkscape:window-height="750"
     inkscape:window-x="0"
     inkscape:window-y="22"
     inkscape:window-maximized="1"
     showguides="true"
     inkscape:guide-bbox="true">
    <sodipodi:guide
       orientation="0,1"
       position="-24.748737,0"
       id="guide11064" />
    <sodipodi:guide
       orientation="0,1"
       position="-23.233509,96"
       id="guide11066" />
    <sodipodi:guide
       orientation="1,0"
       position="0,54.800776"
       id="guide11068" />
    <sodipodi:guide
       orientation="1,0"
       position="96,51.012704"
       id="guide11070" />
    <sodipodi:guide
       orientation="0,1"
       position="-18.94036,48"
       id="guide11072" />
    <sodipodi:guide
       orientation="1,0"
       position="48,79.296975"
       id="guide11074" />
    <sodipodi:guide
       orientation="1,0"
       position="2,75.508903"
       id="guide11076" />
    <sodipodi:guide
       orientation="0,1"
       position="-77.27667,2"
       id="guide11078" />
    <sodipodi:guide
       orientation="1,0"
       position="94,77.781746"
       id="guide11080" />
    <sodipodi:guide
       orientation="0,1"
       position="-65.912454,94"
       id="guide11082" />
  </sodipodi:namedview>
  <metadata
     id="metadata11042">
    <rdf:RDF>
      <cc:Work
         rdf:about="">
        <dc:format>image/svg+xml</dc:format>
        <dc:type
           rdf:resource="http://purl.org/dc/dcmitype/StillImage" />
        <dc:title />
      </cc:Work>
    </rdf:RDF>
  </metadata>
  <g
     inkscape:label="Layer 1"
     inkscape:groupmode="layer"
     id="layer1"
     transform="translate(0,-956.36218)">
    <rect
       x="2"
       y="958.36218"
       width="92"
       height="92"
       style="fill:url(#linearGradient11642);fill-opacity:1.0"
       id="rect3867"
       rx="25"
       ry="25" />
    <g
       transform="translate(1.8310548e-7,956.36218)"
       style="display:inline"
       id="g3079">
      <path
         style="font-size:48px;font-style:italic;font-variant:normal;font-weight:bold;font-stretch:normal;text-align:start;line-height:100%;writing-mode:tb-rl;text-anchor:start;fill:url(#linearGradient2937);fill-opacity:1;stroke:none;display:inline;font-family:Georgia;-inkscape-font-specification:Georgia Bold Italic"
         id="path3659"
         inkscape:connector-curvature="0"
         d="m 50.645833,24 c -1.645727,4.7e-5 -3.071601,0.569571 -4.25,1.666667 -1.178423,1.097186 -1.750011,2.414249 -1.75,3.958333 -1.1e-5,1.544168 0.571577,2.861229 1.75,3.958333 1.178399,1.076862 2.604273,1.625035 4.25,1.625 1.645696,3.5e-5 3.050219,-0.548138 4.208333,-1.625 1.178391,-1.097104 1.74998,-2.414165 1.75,-3.958333 -2e-5,-1.544084 -0.571609,-2.861147 -1.75,-3.958333 C 53.696052,24.569571 52.291529,24.000047 50.645833,24 z M 45.0625,40.25 c -1.340963,3.1e-5 -2.746516,0.262411 -4.25,0.75 -1.503496,0.467331 -3.104289,1.037885 -4.75,1.708333 l -0.666666,2.75 c 0.487617,-0.18283 1.079523,-0.380132 1.75,-0.583333 0.69079,-0.203135 1.349837,-0.333307 2,-0.333333 1.320628,2.6e-5 2.199359,0.261374 2.666666,0.708333 0.467293,0.447011 0.708326,1.237247 0.708334,2.375 -7e-6,0.629864 -0.08747,1.311292 -0.25,2.083333 -0.142229,0.751767 -0.318183,1.563354 -0.541667,2.416667 l -2.5,8.875 c -0.223496,0.934616 -0.356746,1.78994 -0.458333,2.541667 -0.1016,0.731441 -0.166672,1.455562 -0.166667,2.166666 -4e-6,1.828572 0.659043,3.342943 2,4.541667 1.361263,1.178413 3.27023,1.75 5.708334,1.75 1.584749,0 2.967921,-0.198327 4.166666,-0.625 1.198712,-0.406349 2.821886,-0.999292 4.833334,-1.791667 l 0.666666,-2.75 c -0.34542,0.162554 -0.894624,0.359835 -1.666666,0.583334 -0.772083,0.203196 -1.473828,0.291666 -2.083334,0.291666 -1.300334,0 -2.221761,-0.198326 -2.75,-0.625 -0.528268,-0.42666 -0.791681,-1.238241 -0.791666,-2.416666 -1.5e-5,-0.467296 0.08744,-1.169042 0.25,-2.083334 0.162525,-0.914278 0.338477,-1.705549 0.541666,-2.416666 l 2.5,-8.875 c 0.243792,-0.812679 0.41872,-1.691408 0.5,-2.666667 0.101574,-0.975215 0.124974,-1.655609 0.125,-2.041667 -2e-5,-1.869178 -0.637716,-3.383545 -1.958333,-4.541666 C 49.3455,40.863283 47.480262,40.250031 45.0625,40.25 z" />
      <path
         style="font-size:48px;font-style:italic;font-variant:normal;font-weight:bold;font-stretch:normal;text-align:start;line-height:100%;writing-mode:tb-rl;text-anchor:start;opacity:0.2;fill:#000000;fill-opacity:1;stroke:none;display:inline;font-family:Georgia;-inkscape-font-specification:Georgia Bold Italic"
         id="path3702"
         inkscape:connector-curvature="0"
         d="m 50.65625,24 c -1.645727,4.7e-5 -3.071601,0.559154 -4.25,1.65625 -1.178423,1.097186 -1.750011,2.424666 -1.75,3.96875 -10e-7,0.150259 0.02039,0.291535 0.03125,0.4375 0.125509,-1.30151 0.68763,-2.446212 1.71875,-3.40625 1.178399,-1.097096 2.604273,-1.656203 4.25,-1.65625 1.645696,4.7e-5 3.029386,0.559154 4.1875,1.65625 1.031092,0.960038 1.59322,2.10474 1.71875,3.40625 0.01086,-0.145965 0.03125,-0.287241 0.03125,-0.4375 -2e-5,-1.544084 -0.571609,-2.871564 -1.75,-3.96875 C 53.685636,24.559154 52.301946,24.000047 50.65625,24 z M 45.0625,40.25 c -1.340963,3.1e-5 -2.746516,0.262411 -4.25,0.75 -1.503496,0.467331 -3.104289,1.048302 -4.75,1.71875 l -0.65625,2.75 c 0.07042,-0.0264 0.175311,-0.06677 0.25,-0.09375 l 0.40625,-1.65625 c 1.645711,-0.670448 3.246504,-1.251419 4.75,-1.71875 1.503484,-0.487589 2.909037,-0.749969 4.25,-0.75 2.417762,3.1e-5 4.293416,0.602866 5.59375,1.78125 1.268201,1.112154 1.888802,2.575811 1.9375,4.34375 0.01855,-0.340258 -1.3e-5,-0.588221 0,-0.78125 -2e-5,-1.869178 -0.616883,-3.404379 -1.9375,-4.5625 C 49.355916,40.852866 47.480262,40.250031 45.0625,40.25 z M 42.5,48.1875 c -0.03465,0.475852 -0.101912,0.976252 -0.21875,1.53125 -0.142229,0.751767 -0.339016,1.552937 -0.5625,2.40625 l -2.5,8.875 c -0.223496,0.934616 -0.335913,1.779523 -0.4375,2.53125 -0.1016,0.731441 -0.187505,1.476396 -0.1875,2.1875 0,0.185133 0.01772,0.35256 0.03125,0.53125 0.02089,-0.562821 0.07643,-1.144131 0.15625,-1.71875 0.101587,-0.751727 0.214004,-1.596634 0.4375,-2.53125 l 2.5,-8.875 c 0.223484,-0.853313 0.420271,-1.654483 0.5625,-2.40625 0.16253,-0.772041 0.249993,-1.463886 0.25,-2.09375 -10e-7,-0.159177 -0.02185,-0.291915 -0.03125,-0.4375 z m 6.21875,16.9375 c -0.01574,0.184254 -0.03126,0.389519 -0.03125,0.53125 -1.5e-5,1.178425 0.252982,2.01084 0.78125,2.4375 0.528239,0.426674 1.449666,0.625 2.75,0.625 0.609506,0 1.321667,-0.109304 2.09375,-0.3125 0.625278,-0.181012 1.063187,-0.326653 1.40625,-0.46875 l 0.25,-1.09375 c -0.34542,0.162554 -0.884208,0.339001 -1.65625,0.5625 -0.772083,0.203196 -1.484244,0.3125 -2.09375,0.3125 -1.300334,0 -2.221761,-0.198326 -2.75,-0.625 -0.452135,-0.365171 -0.685001,-1.050977 -0.75,-1.96875 z" />
      <path
         style="font-size:48px;font-style:italic;font-variant:normal;font-weight:bold;font-stretch:normal;text-align:start;line-height:100%;writing-mode:tb-rl;text-anchor:start;fill:#ffffff;fill-opacity:1;stroke:none;display:inline;font-family:Georgia;-inkscape-font-specification:Georgia Bold Italic"
         id="path3712"
         inkscape:connector-curvature="0"
         d="m 44.6875,30.1875 c -0.01086,0.145959 -0.03125,0.287249 -0.03125,0.4375 -1.1e-5,1.544168 0.571577,2.871646 1.75,3.96875 1.178399,1.076862 2.604273,1.625035 4.25,1.625 1.645696,3.5e-5 3.029386,-0.548138 4.1875,-1.625 1.178391,-1.097104 1.74998,-2.424582 1.75,-3.96875 -2e-6,-0.150251 -0.02039,-0.291541 -0.03125,-0.4375 -0.12553,1.301565 -0.687658,2.446284 -1.71875,3.40625 -1.158114,1.076862 -2.541804,1.625035 -4.1875,1.625 -1.645727,3.5e-5 -3.071601,-0.548138 -4.25,-1.625 -1.03112,-0.959966 -1.593241,-2.104685 -1.71875,-3.40625 z m -5.53125,14.34375 c -0.650163,2.6e-5 -1.30921,0.140615 -2,0.34375 -0.573654,0.173857 -1.057487,0.340149 -1.5,0.5 l -0.25,1.09375 c 0.487617,-0.18283 1.079523,-0.390549 1.75,-0.59375 0.69079,-0.203135 1.349837,-0.343724 2,-0.34375 1.320628,2.6e-5 2.188943,0.271791 2.65625,0.71875 0.401917,0.384472 0.629736,1.042486 0.6875,1.9375 0.01355,-0.186091 0.03125,-0.385427 0.03125,-0.5625 -8e-6,-1.137753 -0.251457,-1.927989 -0.71875,-2.375 -0.467307,-0.446959 -1.335622,-0.718724 -2.65625,-0.71875 z m 13.4375,2.90625 c -0.01884,0.330344 -0.07673,0.724031 -0.125,1.1875 -0.08128,0.975259 -0.256208,1.843571 -0.5,2.65625 l -2.5,8.875 c -0.203189,0.711117 -0.368725,1.523222 -0.53125,2.4375 -0.16256,0.914292 -0.250015,1.595204 -0.25,2.0625 -2e-6,0.169832 0.02031,0.314211 0.03125,0.46875 0.03616,-0.423244 0.105494,-0.894262 0.21875,-1.53125 0.162525,-0.914278 0.328061,-1.726383 0.53125,-2.4375 l 2.5,-8.875 c 0.243792,-0.812679 0.41872,-1.680991 0.5,-2.65625 0.101574,-0.975215 0.124974,-1.645192 0.125,-2.03125 -10e-7,-0.05299 10e-4,-0.103828 0,-0.15625 z M 38.625,66.375 c -0.0031,0.112583 -0.03125,0.23179 -0.03125,0.34375 -4e-6,1.828572 0.659043,3.332526 2,4.53125 1.361263,1.178413 3.280646,1.75 5.71875,1.75 1.584749,0 2.957505,-0.198327 4.15625,-0.625 1.198712,-0.406349 2.832302,-0.988875 4.84375,-1.78125 l 0.65625,-2.75 c -0.06566,0.0309 -0.169477,0.0604 -0.25,0.09375 L 55.3125,69.59375 C 53.301052,70.386125 51.667462,70.968651 50.46875,71.375 49.270005,71.801673 47.897249,72 46.3125,72 43.874396,72 41.955013,71.428413 40.59375,70.25 39.420413,69.201116 38.769476,67.906249 38.625,66.375 z" />
      <path
         style="font-size:48px;font-style:italic;font-variant:normal;font-weight:bold;font-stretch:normal;text-align:start;line-height:100%;writing-mode:tb-rl;text-anchor:start;opacity:0.6;fill:none;stroke:#ffffff;stroke-width:2;stroke-miterlimit:4;stroke-dasharray:none;display:inline;filter:url(#filter3738);font-family:Georgia;-inkscape-font-specification:Georgia Bold Italic"
         id="path3721"
         clip-path="url(#clipPath3730)"
         transform="translate(100,0)"
         inkscape:connector-curvature="0"
         d="m -49.354167,24 c -1.645727,4.7e-5 -3.071601,0.569571 -4.25,1.666667 -1.178423,1.097186 -1.750011,2.414249 -1.75,3.958333 -1.1e-5,1.544168 0.571577,2.861229 1.75,3.958333 1.178399,1.076862 2.604273,1.625035 4.25,1.625 1.645696,3.5e-5 3.050219,-0.548138 4.208333,-1.625 1.178391,-1.097104 1.74998,-2.414165 1.75,-3.958333 -2e-5,-1.544084 -0.571609,-2.861147 -1.75,-3.958333 C -46.303948,24.569571 -47.708471,24.000047 -49.354167,24 z M -54.9375,40.25 c -1.340963,3.1e-5 -2.746516,0.262411 -4.25,0.75 -1.503496,0.467331 -3.104289,1.037885 -4.75,1.708333 l -0.666666,2.75 c 0.487617,-0.18283 1.079523,-0.380132 1.75,-0.583333 0.69079,-0.203135 1.349837,-0.333307 2,-0.333333 1.320628,2.6e-5 2.199359,0.261374 2.666666,0.708333 0.467293,0.447011 0.708326,1.237247 0.708334,2.375 -7e-6,0.629864 -0.08747,1.311292 -0.25,2.083333 -0.142229,0.751767 -0.318183,1.563354 -0.541667,2.416667 l -2.5,8.875 c -0.223496,0.934616 -0.356746,1.78994 -0.458333,2.541667 -0.1016,0.731441 -0.166672,1.455562 -0.166667,2.166666 -4e-6,1.828572 0.659043,3.342943 2,4.541667 1.361263,1.178413 3.27023,1.75 5.708334,1.75 1.584749,0 2.967921,-0.198327 4.166666,-0.625 1.198712,-0.406349 2.821886,-0.999292 4.833334,-1.791667 l 0.666666,-2.75 c -0.34542,0.162554 -0.894624,0.359835 -1.666666,0.583334 -0.772083,0.203196 -1.473828,0.291666 -2.083334,0.291666 -1.300334,0 -2.221761,-0.198326 -2.75,-0.625 -0.528268,-0.42666 -0.791681,-1.238241 -0.791666,-2.416666 -1.5e-5,-0.467296 0.08744,-1.169042 0.25,-2.083334 0.162525,-0.914278 0.338477,-1.705549 0.541666,-2.416666 l 2.5,-8.875 c 0.243792,-0.812679 0.41872,-1.691408 0.5,-2.666667 0.101574,-0.975215 0.124974,-1.655609 0.125,-2.041667 -2e-5,-1.869178 -0.637716,-3.383545 -1.958333,-4.541666 C -50.6545,40.863283 -52.519738,40.250031 -54.9375,40.25 z" />
    </g>
    <rect
       ry="25"
       rx="25"
       id="rect3003"
       style="opacity:0.15;fill:#ffffff;fill-opacity:1"
       height="92"
       width="92"
       y="958.36218"
       x="-96"
       clip-path="url(#clipPath3009)"
       transform="translate(98,3.8281269e-7)" />
  </g>
</svg>
