<?xml version="1.0" encoding="UTF-8" standalone="no"?>
<!-- Created with Inkscape (http://www.inkscape.org/) -->

<svg
   xmlns:dc="http://purl.org/dc/elements/1.1/"
   xmlns:cc="http://creativecommons.org/ns#"
   xmlns:rdf="http://www.w3.org/1999/02/22-rdf-syntax-ns#"
   xmlns:svg="http://www.w3.org/2000/svg"
   xmlns="http://www.w3.org/2000/svg"
   xmlns:xlink="http://www.w3.org/1999/xlink"
   xmlns:sodipodi="http://sodipodi.sourceforge.net/DTD/sodipodi-0.dtd"
   xmlns:inkscape="http://www.inkscape.org/namespaces/inkscape"
   width="96"
   height="96"
   id="svg11037"
   version="1.1"
   inkscape:version="0.48.3.1 r9886"
   sodipodi:docname="text-css.svg">
  <defs
     id="defs11039">
    <linearGradient
       y2="1046.1001"
       x2="47.999954"
       y1="962.62189"
       x1="47.999954"
       gradientTransform="matrix(1.15,0,0,1.15,-7.1999462,-150.65291)"
       gradientUnits="userSpaceOnUse"
       id="linearGradient3886"
       xlink:href="#linearGradient3795"
       inkscape:collect="always" />
    <linearGradient
       id="linearGradient3795">
      <stop
         style="stop-color:#13a6fd;stop-opacity:1;"
         offset="0"
         id="stop3797" />
      <stop
         style="stop-color:#2975b6;stop-opacity:1;"
         offset="1"
         id="stop3799" />
    </linearGradient>
    <linearGradient
       y2="1046.1001"
       x2="47.999954"
       y1="962.62189"
       x1="47.999954"
       gradientTransform="matrix(1.15,0,0,1.15,-7.1999462,-150.65292)"
       gradientUnits="userSpaceOnUse"
       id="linearGradient11642"
       xlink:href="#linearGradient3700"
       inkscape:collect="always" />
    <linearGradient
       x1="48"
       y1="90"
       x2="48"
       y2="5.9877172"
       id="linearGradient3706"
       xlink:href="#linearGradient3700"
       gradientUnits="userSpaceOnUse" />
    <linearGradient
       id="linearGradient3700">
      <stop
         id="stop3702"
         style="stop-color:#e6e6e6;stop-opacity:1"
         offset="0" />
      <stop
         id="stop3704"
         style="stop-color:#f5f5f5;stop-opacity:1"
         offset="1" />
    </linearGradient>
    <linearGradient
       gradientTransform="translate(-101.28555,960.36219)"
       y2="5.9877172"
       x2="48"
       y1="90"
       x1="48"
       gradientUnits="userSpaceOnUse"
       id="linearGradient3137"
       xlink:href="#linearGradient3700"
       inkscape:collect="always" />
    <linearGradient
       x1="14"
       y1="72"
       x2="34"
       y2="72"
       id="linearGradient3705"
       xlink:href="#linearGradient3699"
       gradientUnits="userSpaceOnUse"
       gradientTransform="translate(-96,-48)" />
    <linearGradient
       id="linearGradient3699">
      <stop
         id="stop3701"
         style="stop-color:#45c13d;stop-opacity:1"
         offset="0" />
      <stop
         id="stop3703"
         style="stop-color:#76d56f;stop-opacity:1"
         offset="1" />
    </linearGradient>
    <linearGradient
       x1="38"
       y1="72"
       x2="58"
       y2="72"
       id="linearGradient3713"
       xlink:href="#linearGradient3707"
       gradientUnits="userSpaceOnUse"
       gradientTransform="translate(-120,-24)" />
    <linearGradient
       id="linearGradient3707">
      <stop
         id="stop3709"
         style="stop-color:#1bb3c6;stop-opacity:1"
         offset="0" />
      <stop
         id="stop3711"
         style="stop-color:#32cfe3;stop-opacity:1"
         offset="1" />
    </linearGradient>
    <linearGradient
       x1="62"
       y1="72"
       x2="82"
       y2="72"
       id="linearGradient3722"
       xlink:href="#linearGradient3715"
       gradientUnits="userSpaceOnUse"
       gradientTransform="translate(-144,0)" />
    <linearGradient
       id="linearGradient3715">
      <stop
         id="stop3717"
         style="stop-color:#3c64dc;stop-opacity:1"
         offset="0" />
      <stop
         id="stop3719"
         style="stop-color:#6b89e5;stop-opacity:1"
         offset="1" />
    </linearGradient>
    <linearGradient
       x1="14"
       y1="48"
       x2="34"
       y2="48"
       id="linearGradient3800"
       xlink:href="#linearGradient3794"
       gradientUnits="userSpaceOnUse"
       gradientTransform="translate(-72,-24)" />
    <linearGradient
       id="linearGradient3794">
      <stop
         id="stop3796"
         style="stop-color:#dfa716;stop-opacity:1"
         offset="0" />
      <stop
         id="stop3798"
         style="stop-color:#ecbb3d;stop-opacity:1"
         offset="1" />
    </linearGradient>
    <linearGradient
       x1="38"
       y1="48"
       x2="58"
       y2="48"
       id="linearGradient3792"
       xlink:href="#linearGradient3786"
       gradientUnits="userSpaceOnUse"
       gradientTransform="translate(-96,0)" />
    <linearGradient
       id="linearGradient3786">
      <stop
         id="stop3788"
         style="stop-color:#d652aa;stop-opacity:1"
         offset="0" />
      <stop
         id="stop3790"
         style="stop-color:#e17fc0;stop-opacity:1"
         offset="1" />
    </linearGradient>
    <linearGradient
       x1="14"
       y1="24"
       x2="34"
       y2="24"
       id="linearGradient3808"
       xlink:href="#linearGradient3802"
       gradientUnits="userSpaceOnUse"
       gradientTransform="translate(-48,0)" />
    <linearGradient
       id="linearGradient3802">
      <stop
         id="stop3804"
         style="stop-color:#ed702d;stop-opacity:1"
         offset="0" />
      <stop
         id="stop3806"
         style="stop-color:#f4915c;stop-opacity:1"
         offset="1" />
    </linearGradient>
    <clipPath
       clipPathUnits="userSpaceOnUse"
       id="clipPath3009">
      <path
         id="path3011"
         d="m -2,956.36218 -96,0 0,33.5624 96,25.68742 0,-59.24982 z"
         style="opacity:0.15;fill:#ffffff;fill-opacity:1;stroke:none"
         inkscape:connector-curvature="0" />
    </clipPath>
  </defs>
  <sodipodi:namedview
     id="base"
     pagecolor="#ffffff"
     bordercolor="#666666"
     borderopacity="1.0"
     inkscape:pageopacity="0.0"
     inkscape:pageshadow="2"
     inkscape:zoom="3.959798"
     inkscape:cx="33.538031"
     inkscape:cy="59.964634"
     inkscape:document-units="px"
     inkscape:current-layer="layer1"
     showgrid="false"
     inkscape:window-width="1280"
     inkscape:window-height="750"
     inkscape:window-x="0"
     inkscape:window-y="22"
     inkscape:window-maximized="1"
     showguides="true"
     inkscape:guide-bbox="true">
    <sodipodi:guide
       orientation="0,1"
       position="-24.748737,0"
       id="guide11064" />
    <sodipodi:guide
       orientation="0,1"
       position="-23.233509,96"
       id="guide11066" />
    <sodipodi:guide
       orientation="1,0"
       position="0,54.800776"
       id="guide11068" />
    <sodipodi:guide
       orientation="1,0"
       position="96,51.012704"
       id="guide11070" />
    <sodipodi:guide
       orientation="0,1"
       position="-18.94036,48"
       id="guide11072" />
    <sodipodi:guide
       orientation="1,0"
       position="48,79.296975"
       id="guide11074" />
    <sodipodi:guide
       orientation="1,0"
       position="2,75.508903"
       id="guide11076" />
    <sodipodi:guide
       orientation="0,1"
       position="-77.27667,2"
       id="guide11078" />
    <sodipodi:guide
       orientation="1,0"
       position="94,77.781746"
       id="guide11080" />
    <sodipodi:guide
       orientation="0,1"
       position="-65.912454,94"
       id="guide11082" />
  </sodipodi:namedview>
  <metadata
     id="metadata11042">
    <rdf:RDF>
      <cc:Work
         rdf:about="">
        <dc:format>image/svg+xml</dc:format>
        <dc:type
           rdf:resource="http://purl.org/dc/dcmitype/StillImage" />
        <dc:title />
      </cc:Work>
    </rdf:RDF>
  </metadata>
  <g
     inkscape:label="Layer 1"
     inkscape:groupmode="layer"
     id="layer1"
     transform="translate(0,-956.36218)">
    <rect
       x="2"
       y="958.36218"
       width="92"
       height="92"
       style="fill:url(#linearGradient11642);fill-opacity:1.0"
       id="rect3867"
       rx="25"
       ry="25" />
    <g
       transform="translate(0,956.36218)"
       style="display:inline"
       id="layer4">
      <rect
         width="20"
         height="20"
         rx="3"
         ry="3"
         x="-82"
         y="14"
         transform="matrix(0,-1,1,0,0,0)"
         id="rect3888"
         style="color:#000000;fill:url(#linearGradient3705);fill-opacity:1;fill-rule:nonzero;stroke:none;stroke-width:1;marker:none;visibility:visible;display:inline;overflow:visible;enable-background:accumulate" />
      <rect
         width="20"
         height="20"
         rx="3"
         ry="3"
         x="-82"
         y="38"
         transform="matrix(0,-1,1,0,0,0)"
         id="rect3890"
         style="color:#000000;fill:url(#linearGradient3713);fill-opacity:1;fill-rule:nonzero;stroke:none;stroke-width:1;marker:none;visibility:visible;display:inline;overflow:visible;enable-background:accumulate" />
      <rect
         width="20"
         height="20"
         rx="3"
         ry="3"
         x="-82"
         y="62"
         transform="matrix(0,-1,1,0,0,0)"
         id="rect3892"
         style="color:#000000;fill:url(#linearGradient3722);fill-opacity:1;fill-rule:nonzero;stroke:none;stroke-width:1;marker:none;visibility:visible;display:inline;overflow:visible;enable-background:accumulate" />
      <rect
         width="20"
         height="20"
         rx="3"
         ry="3"
         x="-58"
         y="14"
         transform="matrix(0,-1,1,0,0,0)"
         id="rect3894"
         style="color:#000000;fill:url(#linearGradient3800);fill-opacity:1;fill-rule:nonzero;stroke:none;stroke-width:1;marker:none;visibility:visible;display:inline;overflow:visible;enable-background:accumulate" />
      <rect
         width="20"
         height="20"
         rx="3"
         ry="3"
         x="-58"
         y="38"
         transform="matrix(0,-1,1,0,0,0)"
         id="rect3896"
         style="color:#000000;fill:url(#linearGradient3792);fill-opacity:1;fill-rule:nonzero;stroke:none;stroke-width:1;marker:none;visibility:visible;display:inline;overflow:visible;enable-background:accumulate" />
      <rect
         width="20"
         height="20"
         rx="3"
         ry="3"
         x="-34"
         y="14"
         transform="matrix(0,-1,1,0,0,0)"
         id="rect3898"
         style="color:#000000;fill:url(#linearGradient3808);fill-opacity:1;fill-rule:nonzero;stroke:none;stroke-width:1;marker:none;visibility:visible;display:inline;overflow:visible;enable-background:accumulate" />
      <path
         d="m 17,62 c -1.662,0 -3,1.338 -3,3 l 0,1 c 0,-1.662 1.338,-3 3,-3 l 14,0 c 1.662,0 3,1.338 3,3 l 0,-1 c 0,-1.662 -1.338,-3 -3,-3 l -14,0 z"
         inkscape:connector-curvature="0"
         id="path3900"
         style="opacity:0.15;color:#000000;fill:#000000;fill-opacity:1;fill-rule:nonzero;stroke:none;stroke-width:1;marker:none;visibility:visible;display:inline;overflow:visible;enable-background:accumulate" />
      <path
         d="m 41,62 c -1.662,0 -3,1.338 -3,3 l 0,1 c 0,-1.662 1.338,-3 3,-3 l 14,0 c 1.662,0 3,1.338 3,3 l 0,-1 c 0,-1.662 -1.338,-3 -3,-3 l -14,0 z"
         inkscape:connector-curvature="0"
         id="path3902"
         style="opacity:0.15;color:#000000;fill:#000000;fill-opacity:1;fill-rule:nonzero;stroke:none;stroke-width:1;marker:none;visibility:visible;display:inline;overflow:visible;enable-background:accumulate" />
      <path
         d="m 65,62 c -1.662,0 -3,1.338 -3,3 l 0,1 c 0,-1.662 1.338,-3 3,-3 l 14,0 c 1.662,0 3,1.338 3,3 l 0,-1 c 0,-1.662 -1.338,-3 -3,-3 l -14,0 z"
         inkscape:connector-curvature="0"
         id="path3904"
         style="opacity:0.15;color:#000000;fill:#000000;fill-opacity:1;fill-rule:nonzero;stroke:none;stroke-width:1;marker:none;visibility:visible;display:inline;overflow:visible;enable-background:accumulate" />
      <path
         d="m 17,38 c -1.662,0 -3,1.338 -3,3 l 0,1 c 0,-1.662 1.338,-3 3,-3 l 14,0 c 1.662,0 3,1.338 3,3 l 0,-1 c 0,-1.662 -1.338,-3 -3,-3 l -14,0 z"
         inkscape:connector-curvature="0"
         id="path3906"
         style="opacity:0.15;color:#000000;fill:#000000;fill-opacity:1;fill-rule:nonzero;stroke:none;stroke-width:1;marker:none;visibility:visible;display:inline;overflow:visible;enable-background:accumulate" />
      <path
         d="m 41,38 c -1.662,0 -3,1.338 -3,3 l 0,1 c 0,-1.662 1.338,-3 3,-3 l 14,0 c 1.662,0 3,1.338 3,3 l 0,-1 c 0,-1.662 -1.338,-3 -3,-3 l -14,0 z"
         inkscape:connector-curvature="0"
         id="path3908"
         style="opacity:0.15;color:#000000;fill:#000000;fill-opacity:1;fill-rule:nonzero;stroke:none;stroke-width:1;marker:none;visibility:visible;display:inline;overflow:visible;enable-background:accumulate" />
      <path
         d="m 17,14 c -1.662,0 -3,1.338 -3,3 l 0,1 c 0,-1.662 1.338,-3 3,-3 l 14,0 c 1.662,0 3,1.338 3,3 l 0,-1 c 0,-1.662 -1.338,-3 -3,-3 l -14,0 z"
         inkscape:connector-curvature="0"
         id="path3910"
         style="opacity:0.15;color:#000000;fill:#000000;fill-opacity:1;fill-rule:nonzero;stroke:none;stroke-width:1;marker:none;visibility:visible;display:inline;overflow:visible;enable-background:accumulate" />
      <path
         d="m 14,79 0,1 c 0,1.662 1.338,3 3,3 l 14,0 c 1.662,0 3,-1.338 3,-3 l 0,-1 c 0,1.662 -1.338,3 -3,3 l -14,0 c -1.662,0 -3,-1.338 -3,-3 z"
         inkscape:connector-curvature="0"
         id="path3912"
         style="opacity:0.6;color:#000000;fill:#ffffff;fill-opacity:1;fill-rule:nonzero;stroke:none;stroke-width:1;marker:none;visibility:visible;display:inline;overflow:visible;enable-background:accumulate" />
      <path
         d="m 38,79 0,1 c 0,1.662 1.338,3 3,3 l 14,0 c 1.662,0 3,-1.338 3,-3 l 0,-1 c 0,1.662 -1.338,3 -3,3 l -14,0 c -1.662,0 -3,-1.338 -3,-3 z"
         inkscape:connector-curvature="0"
         id="path3914"
         style="opacity:0.6;color:#000000;fill:#ffffff;fill-opacity:1;fill-rule:nonzero;stroke:none;stroke-width:1;marker:none;visibility:visible;display:inline;overflow:visible;enable-background:accumulate" />
      <path
         d="m 62,79 0,1 c 0,1.662 1.338,3 3,3 l 14,0 c 1.662,0 3,-1.338 3,-3 l 0,-1 c 0,1.662 -1.338,3 -3,3 l -14,0 c -1.662,0 -3,-1.338 -3,-3 z"
         inkscape:connector-curvature="0"
         id="path3916"
         style="opacity:0.6;color:#000000;fill:#ffffff;fill-opacity:1;fill-rule:nonzero;stroke:none;stroke-width:1;marker:none;visibility:visible;display:inline;overflow:visible;enable-background:accumulate" />
      <path
         d="m 14,55 0,1 c 0,1.662 1.338,3 3,3 l 14,0 c 1.662,0 3,-1.338 3,-3 l 0,-1 c 0,1.662 -1.338,3 -3,3 l -14,0 c -1.662,0 -3,-1.338 -3,-3 z"
         inkscape:connector-curvature="0"
         id="path3918"
         style="opacity:0.6;color:#000000;fill:#ffffff;fill-opacity:1;fill-rule:nonzero;stroke:none;stroke-width:1;marker:none;visibility:visible;display:inline;overflow:visible;enable-background:accumulate" />
      <path
         d="m 38,55 0,1 c 0,1.662 1.338,3 3,3 l 14,0 c 1.662,0 3,-1.338 3,-3 l 0,-1 c 0,1.662 -1.338,3 -3,3 l -14,0 c -1.662,0 -3,-1.338 -3,-3 z"
         inkscape:connector-curvature="0"
         id="path3920"
         style="opacity:0.6;color:#000000;fill:#ffffff;fill-opacity:1;fill-rule:nonzero;stroke:none;stroke-width:1;marker:none;visibility:visible;display:inline;overflow:visible;enable-background:accumulate" />
      <path
         d="m 14,31 0,1 c 0,1.662 1.338,3 3,3 l 14,0 c 1.662,0 3,-1.338 3,-3 l 0,-1 c 0,1.662 -1.338,3 -3,3 l -14,0 c -1.662,0 -3,-1.338 -3,-3 z"
         inkscape:connector-curvature="0"
         id="path3922"
         style="opacity:0.6;color:#000000;fill:#ffffff;fill-opacity:1;fill-rule:nonzero;stroke:none;stroke-width:1;marker:none;visibility:visible;display:inline;overflow:visible;enable-background:accumulate" />
      <path
         d="m 17,14 c -1.662,0 -3,1.338 -3,3 l 0,14 c 0,1.662 1.338,3 3,3 l 14,0 c 1.662,0 3,-1.338 3,-3 l 0,-14 c 0,-1.662 -1.338,-3 -3,-3 l -14,0 z m 0,1.03125 14,0 c 1.105546,0 1.96875,0.863204 1.96875,1.96875 l 0,14 c 0,1.105546 -0.863204,1.96875 -1.96875,1.96875 l -14,0 c -1.105546,0 -1.96875,-0.863204 -1.96875,-1.96875 l 0,-14 c 0,-1.105546 0.863204,-1.96875 1.96875,-1.96875 z M 17,38 c -1.662,0 -3,1.338 -3,3 l 0,14 c 0,1.662 1.338,3 3,3 l 14,0 c 1.662,0 3,-1.338 3,-3 l 0,-14 c 0,-1.662 -1.338,-3 -3,-3 l -14,0 z m 24,0 c -1.662,0 -3,1.338 -3,3 l 0,14 c 0,1.662 1.338,3 3,3 l 14,0 c 1.662,0 3,-1.338 3,-3 l 0,-14 c 0,-1.662 -1.338,-3 -3,-3 l -14,0 z m -24,1.03125 14,0 c 1.105546,0 1.96875,0.863204 1.96875,1.96875 l 0,14 c 0,1.105546 -0.863204,1.96875 -1.96875,1.96875 l -14,0 c -1.105546,0 -1.96875,-0.863204 -1.96875,-1.96875 l 0,-14 c 0,-1.105546 0.863204,-1.96875 1.96875,-1.96875 z m 24,0 14,0 c 1.105546,0 1.96875,0.863204 1.96875,1.96875 l 0,14 c 0,1.105546 -0.863204,1.96875 -1.96875,1.96875 l -14,0 c -1.105546,0 -1.96875,-0.863204 -1.96875,-1.96875 l 0,-14 c 0,-1.105546 0.863204,-1.96875 1.96875,-1.96875 z M 17,62 c -1.662,0 -3,1.338 -3,3 l 0,14 c 0,1.662 1.338,3 3,3 l 14,0 c 1.662,0 3,-1.338 3,-3 l 0,-14 c 0,-1.662 -1.338,-3 -3,-3 l -14,0 z m 24,0 c -1.662,0 -3,1.338 -3,3 l 0,14 c 0,1.662 1.338,3 3,3 l 14,0 c 1.662,0 3,-1.338 3,-3 l 0,-14 c 0,-1.662 -1.338,-3 -3,-3 l -14,0 z m 24,0 c -1.662,0 -3,1.338 -3,3 l 0,14 c 0,1.662 1.338,3 3,3 l 14,0 c 1.662,0 3,-1.338 3,-3 l 0,-14 c 0,-1.662 -1.338,-3 -3,-3 l -14,0 z m -48,1.03125 14,0 c 1.105546,0 1.96875,0.863204 1.96875,1.96875 l 0,14 c 0,1.105546 -0.863204,1.96875 -1.96875,1.96875 l -14,0 c -1.105546,0 -1.96875,-0.863204 -1.96875,-1.96875 l 0,-14 c 0,-1.105546 0.863204,-1.96875 1.96875,-1.96875 z m 24,0 14,0 c 1.105546,0 1.96875,0.863204 1.96875,1.96875 l 0,14 c 0,1.105546 -0.863204,1.96875 -1.96875,1.96875 l -14,0 c -1.105546,0 -1.96875,-0.863204 -1.96875,-1.96875 l 0,-14 c 0,-1.105546 0.863204,-1.96875 1.96875,-1.96875 z m 24,0 14,0 c 1.105546,0 1.96875,0.863204 1.96875,1.96875 l 0,14 c 0,1.105546 -0.863204,1.96875 -1.96875,1.96875 l -14,0 c -1.105546,0 -1.96875,-0.863204 -1.96875,-1.96875 l 0,-14 c 0,-1.105546 0.863204,-1.96875 1.96875,-1.96875 z"
         inkscape:connector-curvature="0"
         id="rect3944"
         style="opacity:0.1;color:#000000;fill:#000000;fill-opacity:1;fill-rule:nonzero;stroke:none;stroke-width:1;marker:none;visibility:visible;display:inline;overflow:visible;enable-background:accumulate" />
    </g>
    <rect
       ry="25"
       rx="25"
       id="rect3003"
       style="opacity:0.15;fill:#ffffff;fill-opacity:1"
       height="92"
       width="92"
       y="958.36218"
       x="-96"
       clip-path="url(#clipPath3009)"
       transform="translate(98,3.8281269e-7)" />
  </g>
</svg>
