<?xml version="1.0" encoding="UTF-8" standalone="no"?>
<!-- Created with Inkscape (http://www.inkscape.org/) -->

<svg
   xmlns:dc="http://purl.org/dc/elements/1.1/"
   xmlns:cc="http://creativecommons.org/ns#"
   xmlns:rdf="http://www.w3.org/1999/02/22-rdf-syntax-ns#"
   xmlns:svg="http://www.w3.org/2000/svg"
   xmlns="http://www.w3.org/2000/svg"
   xmlns:xlink="http://www.w3.org/1999/xlink"
   xmlns:sodipodi="http://sodipodi.sourceforge.net/DTD/sodipodi-0.dtd"
   xmlns:inkscape="http://www.inkscape.org/namespaces/inkscape"
   width="96"
   height="96"
   id="svg11037"
   version="1.1"
   inkscape:version="0.48.3.1 r9886"
   sodipodi:docname="text-x-makefile.svg">
  <defs
     id="defs11039">
    <linearGradient
       y2="1046.1001"
       x2="47.999954"
       y1="962.62189"
       x1="47.999954"
       gradientTransform="matrix(1.15,0,0,1.15,-7.1999462,-150.65291)"
       gradientUnits="userSpaceOnUse"
       id="linearGradient3886"
       xlink:href="#linearGradient3795"
       inkscape:collect="always" />
    <linearGradient
       id="linearGradient3795">
      <stop
         style="stop-color:#13a6fd;stop-opacity:1;"
         offset="0"
         id="stop3797" />
      <stop
         style="stop-color:#2975b6;stop-opacity:1;"
         offset="1"
         id="stop3799" />
    </linearGradient>
    <linearGradient
       y2="1046.1001"
       x2="47.999954"
       y1="962.62189"
       x1="47.999954"
       gradientTransform="matrix(1.15,0,0,1.15,-7.1999462,-150.65292)"
       gradientUnits="userSpaceOnUse"
       id="linearGradient11642"
       xlink:href="#linearGradient3700"
       inkscape:collect="always" />
    <linearGradient
       x1="48"
       y1="90"
       x2="48"
       y2="5.9877172"
       id="linearGradient3706"
       xlink:href="#linearGradient3700"
       gradientUnits="userSpaceOnUse" />
    <linearGradient
       id="linearGradient3700">
      <stop
         id="stop3702"
         style="stop-color:#ebebeb;stop-opacity:1"
         offset="0" />
      <stop
         id="stop3704"
         style="stop-color:#fafafa;stop-opacity:1"
         offset="1" />
    </linearGradient>
    <linearGradient
       gradientTransform="translate(-89.999999,950.36219)"
       y2="5.9877172"
       x2="48"
       y1="90"
       x1="48"
       gradientUnits="userSpaceOnUse"
       id="linearGradient3062"
       xlink:href="#linearGradient3700"
       inkscape:collect="always" />
    <clipPath
       id="clipPath3948">
      <path
         d="m -88,6 c -3.324,0 -6,2.676 -6,6 l 0,72 c 0,3.324 2.676,6 6,6 l 72,0 c 3.324,0 6,-2.676 6,-6 l 0,-72 c 0,-3.324 -2.676,-6 -6,-6 l -72,0 z m 31.84375,12 8.3125,0 c 1.180648,0 2.125,0.986683 2.125,2.1875 l 0,4.21875 c 2.111082,0.562476 4.123141,1.426616 5.96875,2.5 l 3,-3.03125 c 0.849111,-0.849025 2.196406,-0.866085 3.03125,-0.03125 l 5.875,5.875 c 0.834848,0.834847 0.817863,2.18214 -0.03125,3.03125 l -3.03125,3 c 1.073391,1.845617 1.937528,3.857672 2.5,5.96875 l 4.21875,0 c 1.200827,0 2.1875,0.944356 2.1875,2.125 l 0,8.3125 c 0,1.180653 -0.986672,2.125 -2.1875,2.125 l -4.21875,0 c -0.562472,2.111079 -1.426609,4.123134 -2.5,5.96875 l 3.03125,3 c 0.849106,0.849111 0.866094,2.196416 0.03125,3.03125 l -5.875,5.875 c -0.834844,0.834921 -2.182138,0.81786 -3.03125,-0.03125 l -3,-3.03125 c -1.84561,1.073389 -3.857669,1.937515 -5.96875,2.5 l 0,4.21875 c 0,1.200828 -0.944354,2.1875 -2.125,2.1875 l -8.3125,0 c -1.180646,0 -2.125,-0.986673 -2.125,-2.1875 l 0,-4.21875 c -2.111081,-0.562485 -4.123141,-1.426613 -5.96875,-2.5 l -3,3.03125 c -0.849114,0.849022 -2.196407,0.866084 -3.03125,0.03125 l -5.875,-5.875 c -0.417421,-0.417418 -0.6298,-0.981833 -0.625,-1.53125 0.0047,-0.549422 0.231693,-1.075441 0.65625,-1.5 l 3.03125,-3 c -1.073391,-1.845614 -1.937528,-3.857673 -2.5,-5.96875 l -4.21875,0 c -1.200828,0 -2.1875,-0.944347 -2.1875,-2.125 l 0,-8.3125 c 0,-1.180643 0.986672,-2.125 2.1875,-2.125 l 4.21875,0 c 0.562472,-2.111076 1.426609,-4.123135 2.5,-5.96875 l -3.03125,-3 c -0.849107,-0.84911 -0.866093,-2.196403 -0.03125,-3.03125 l 5.875,-5.875 c 0.834843,-0.834932 2.182137,-0.817858 3.03125,0.03125 l 3,3.03125 c 1.845609,-1.073383 3.85767,-1.937533 5.96875,-2.5 l 0,-4.21875 c 0,-1.200817 0.944355,-2.1875 2.125,-2.1875 z M -52,38.9375 c -5.006511,0 -9.0625,4.055982 -9.0625,9.0625 0,5.006505 4.055989,9.0625 9.0625,9.0625 5.00651,0 9.0625,-4.055995 9.0625,-9.0625 0,-5.00652 -4.05599,-9.0625 -9.0625,-9.0625 z"
         inkscape:connector-curvature="0"
         id="path3950"
         style="fill:#ff00ff;fill-opacity:1;fill-rule:nonzero;stroke:none" />
    </clipPath>
    <filter
       x="-0.14400022"
       y="-0.14399979"
       width="1.2880003"
       height="1.2879996"
       color-interpolation-filters="sRGB"
       id="filter3952">
      <feGaussianBlur
         id="feGaussianBlur3954"
         stdDeviation="3.6000051" />
    </filter>
    <linearGradient
       x1="18.000002"
       y1="47.999897"
       x2="78.000175"
       y2="47.999897"
       id="linearGradient3919"
       xlink:href="#linearGradient3697"
       gradientUnits="userSpaceOnUse"
       gradientTransform="matrix(0,-1,1,0,1.905e-4,95.999983)" />
    <linearGradient
       id="linearGradient3697">
      <stop
         id="stop3699"
         style="stop-color:#bababa;stop-opacity:1"
         offset="0" />
      <stop
         id="stop3701"
         style="stop-color:#d2d2d2;stop-opacity:1"
         offset="1" />
    </linearGradient>
    <clipPath
       clipPathUnits="userSpaceOnUse"
       id="clipPath3009">
      <path
         id="path3011"
         d="m -2,956.36218 -96,0 0,33.5624 96,25.68742 0,-59.24982 z"
         style="opacity:0.15;fill:#ffffff;fill-opacity:1;stroke:none"
         inkscape:connector-curvature="0" />
    </clipPath>
  </defs>
  <sodipodi:namedview
     id="base"
     pagecolor="#ffffff"
     bordercolor="#666666"
     borderopacity="1.0"
     inkscape:pageopacity="0.0"
     inkscape:pageshadow="2"
     inkscape:zoom="3.959798"
     inkscape:cx="33.538031"
     inkscape:cy="59.964634"
     inkscape:document-units="px"
     inkscape:current-layer="layer1"
     showgrid="false"
     inkscape:window-width="1280"
     inkscape:window-height="750"
     inkscape:window-x="0"
     inkscape:window-y="22"
     inkscape:window-maximized="1"
     showguides="true"
     inkscape:guide-bbox="true">
    <sodipodi:guide
       orientation="0,1"
       position="-24.748737,0"
       id="guide11064" />
    <sodipodi:guide
       orientation="0,1"
       position="-23.233509,96"
       id="guide11066" />
    <sodipodi:guide
       orientation="1,0"
       position="0,54.800776"
       id="guide11068" />
    <sodipodi:guide
       orientation="1,0"
       position="96,51.012704"
       id="guide11070" />
    <sodipodi:guide
       orientation="0,1"
       position="-18.94036,48"
       id="guide11072" />
    <sodipodi:guide
       orientation="1,0"
       position="48,79.296975"
       id="guide11074" />
    <sodipodi:guide
       orientation="1,0"
       position="2,75.508903"
       id="guide11076" />
    <sodipodi:guide
       orientation="0,1"
       position="-77.27667,2"
       id="guide11078" />
    <sodipodi:guide
       orientation="1,0"
       position="94,77.781746"
       id="guide11080" />
    <sodipodi:guide
       orientation="0,1"
       position="-65.912454,94"
       id="guide11082" />
  </sodipodi:namedview>
  <metadata
     id="metadata11042">
    <rdf:RDF>
      <cc:Work
         rdf:about="">
        <dc:format>image/svg+xml</dc:format>
        <dc:type
           rdf:resource="http://purl.org/dc/dcmitype/StillImage" />
        <dc:title />
      </cc:Work>
    </rdf:RDF>
  </metadata>
  <g
     inkscape:label="Layer 1"
     inkscape:groupmode="layer"
     id="layer1"
     transform="translate(0,-956.36218)">
    <rect
       x="2"
       y="958.36218"
       width="92"
       height="92"
       style="fill:url(#linearGradient11642);fill-opacity:1.0"
       id="rect3867"
       rx="25"
       ry="25" />
    <g
       transform="translate(-4.0380863e-8,956.36218)"
       style="display:inline"
       id="g3106">
      <path
         style="opacity:0.6;fill:none;stroke:#ffffff;stroke-width:2;stroke-miterlimit:4;stroke-dasharray:none;marker:none;visibility:visible;display:block;overflow:visible;filter:url(#filter3952);enable-background:accumulate"
         id="path3939"
         clip-path="url(#clipPath3948)"
         transform="translate(100,0)"
         inkscape:connector-curvature="0"
         d="m -81.999911,52.142336 c 0,1.180653 0.979404,2.136636 2.180232,2.136636 l 4.22965,0 c 0.562472,2.111077 1.412074,4.128219 2.485465,5.973833 l -3.00872,3.008727 c -0.424557,0.424559 -0.649414,0.933132 -0.654072,1.482554 -0.0048,0.549417 0.193045,1.10874 0.610466,1.526158 l 5.886628,5.886633 c 0.834843,0.834834 2.159607,0.805502 3.008721,-0.04352 l 3.008721,-3.008725 c 1.845609,1.073387 3.862754,1.922985 5.973835,2.48547 l 0,4.229646 c 0,1.200827 0.955981,2.180234 2.136627,2.180234 l 8.284884,0 c 1.180646,0 2.136628,-0.979407 2.136628,-2.180235 l 0,-4.229645 c 2.111081,-0.562485 4.128226,-1.412083 5.973836,-2.485472 l 3.008721,3.008727 c 0.849112,0.84911 2.173875,0.878441 3.008719,0.04352 l 5.886628,-5.886633 c 0.834844,-0.834834 0.805506,-2.159603 -0.0436,-3.008714 l -3.00872,-3.008725 c 1.073391,-1.845616 1.922992,-3.862756 2.485464,-5.973835 l 4.229651,0 c 1.200828,0 2.180233,-0.955981 2.180233,-2.136634 l 0,-8.284881 c 0,-1.180644 -0.979405,-2.136624 -2.180232,-2.136624 l -4.229651,0 c -0.562472,-2.111078 -1.412073,-4.128218 -2.485464,-5.973835 l 3.00872,-3.008725 c 0.849113,-0.84911 0.878448,-2.173877 0.0436,-3.008724 l -5.886627,-5.886621 c -0.834844,-0.834835 -2.159609,-0.805505 -3.00872,0.04352 l -3.008721,3.008711 c -1.845609,-1.073384 -3.862754,-1.922981 -5.973836,-2.485457 l 0,-4.229657 c 0,-1.200817 -0.95598,-2.180232 -2.136628,-2.180232 l -8.284884,0 c -1.180645,0 -2.136628,0.979415 -2.136628,2.180232 l 0,4.229657 c -2.11108,0.562467 -4.128225,1.412068 -5.973834,2.485451 l -3.008722,-3.008713 c -0.849113,-0.849108 -2.173877,-0.878452 -3.00872,-0.04352 l -5.886628,5.886625 c -0.834843,0.834847 -0.805507,2.159615 0.0436,3.008725 l 3.008722,3.008725 c -1.073391,1.845615 -1.922994,3.862756 -2.485466,5.973832 l -4.22965,0 c -1.200828,0 -2.180231,0.955982 -2.180231,2.136625 l 0,8.284881 z m 20.930229,-4.142435 c 0,-5.006518 4.063256,-9.069769 9.069767,-9.069769 5.00651,0 9.069766,4.063249 9.069766,9.069769 0,5.006505 -4.063256,9.069769 -9.069766,9.069769 -5.006511,0 -9.069767,-4.063263 -9.069767,-9.069768 z" />
      <g
         id="g3081">
        <path
           d="m 18.000089,52.142336 c 0,1.180653 0.979404,2.136636 2.180232,2.136636 l 4.22965,0 c 0.562472,2.111077 1.412074,4.128219 2.485465,5.973833 l -3.00872,3.008727 c -0.424557,0.424559 -0.649414,0.933132 -0.654072,1.482554 -0.0048,0.549417 0.193045,1.10874 0.610466,1.526158 l 5.886628,5.886633 c 0.834843,0.834834 2.159607,0.805502 3.008721,-0.04352 l 3.008721,-3.008725 c 1.845609,1.073387 3.862754,1.922985 5.973835,2.48547 l 0,4.229646 c 0,1.200827 0.955981,2.180234 2.136627,2.180234 l 8.284884,0 c 1.180646,0 2.136628,-0.979407 2.136628,-2.180235 l 0,-4.229645 c 2.111081,-0.562485 4.128226,-1.412083 5.973836,-2.485472 l 3.008721,3.008727 c 0.849112,0.84911 2.173875,0.878441 3.008719,0.04352 l 5.886628,-5.886633 c 0.834844,-0.834834 0.805506,-2.159603 -0.0436,-3.008714 l -3.00872,-3.008725 c 1.073391,-1.845616 1.922992,-3.862756 2.485464,-5.973835 l 4.229651,0 c 1.200828,0 2.180233,-0.955981 2.180233,-2.136634 l 0,-8.284881 c 0,-1.180644 -0.979405,-2.136624 -2.180232,-2.136624 l -4.229651,0 C 71.027731,39.609753 70.17813,37.592613 69.104739,35.746996 l 3.00872,-3.008725 c 0.849113,-0.84911 0.878448,-2.173877 0.0436,-3.008724 l -5.886627,-5.886621 c -0.834844,-0.834835 -2.159609,-0.805505 -3.00872,0.04352 l -3.008721,3.008711 C 58.407382,25.821773 56.390237,24.972176 54.279155,24.4097 l 0,-4.229657 c 0,-1.200817 -0.95598,-2.180232 -2.136628,-2.180232 l -8.284884,0 c -1.180645,0 -2.136628,0.979415 -2.136628,2.180232 l 0,4.229657 c -2.11108,0.562467 -4.128225,1.412068 -5.973834,2.485451 l -3.008722,-3.008713 c -0.849113,-0.849108 -2.173877,-0.878452 -3.00872,-0.04352 l -5.886628,5.886625 c -0.834843,0.834847 -0.805507,2.159615 0.0436,3.008725 l 3.008722,3.008725 c -1.073391,1.845615 -1.922994,3.862756 -2.485466,5.973832 l -4.22965,0 c -1.200828,0 -2.180231,0.955982 -2.180231,2.136625 l 0,8.284881 z m 20.930229,-4.142435 c 0,-5.006518 4.063256,-9.069769 9.069767,-9.069769 5.00651,0 9.069766,4.063249 9.069766,9.069769 0,5.006505 -4.063256,9.069769 -9.069766,9.069769 -5.006511,0 -9.069767,-4.063263 -9.069767,-9.069768 z"
           inkscape:connector-curvature="0"
           id="rect3267"
           style="fill:url(#linearGradient3919);fill-opacity:1;fill-rule:nonzero;stroke:none;stroke-width:1;marker:none;visibility:visible;display:block;overflow:visible;enable-background:accumulate" />
        <path
           d="m 43.84375,18 c -1.180645,0 -2.125,0.986683 -2.125,2.1875 l 0,1 c 0,-1.200817 0.944355,-2.1875 2.125,-2.1875 l 8.3125,0 c 1.180648,0 2.125,0.986683 2.125,2.1875 l 0,-1 C 54.28125,18.986683 53.336898,18 52.15625,18 l -8.3125,0 z m -12.625,5.21875 c -0.541685,-0.0091 -1.082579,0.207534 -1.5,0.625 l -5.875,5.875 c -0.546032,0.546035 -0.712161,1.304966 -0.53125,2 0.08476,-0.362825 0.244784,-0.713533 0.53125,-1 l 5.875,-5.875 C 30.553593,24.008818 31.900887,24.025892 32.75,24.875 l 3,3.03125 c 1.845609,-1.073383 3.85767,-1.937533 5.96875,-2.5 l 0,-1 c -2.11108,0.562467 -4.123141,1.426617 -5.96875,2.5 l -3,-3.03125 c -0.424557,-0.424554 -0.989565,-0.647142 -1.53125,-0.65625 z m 33.5625,0 C 64.239564,23.22785 63.674555,23.450488 63.25,23.875 l -3,3.03125 c -1.845609,-1.073384 -3.857668,-1.937524 -5.96875,-2.5 l 0,1 c 2.111082,0.562476 4.123141,1.426616 5.96875,2.5 l 3,-3.03125 c 0.849111,-0.849025 2.196406,-0.866085 3.03125,-0.03125 l 5.875,5.875 c 0.286467,0.286467 0.446492,0.637175 0.53125,1 0.180912,-0.695033 0.01479,-1.453965 -0.53125,-2 l -5.875,-5.875 c -0.417422,-0.417417 -0.958314,-0.634106 -1.5,-0.625 z M 26.5625,36.40625 c -0.903523,1.667225 -1.658515,3.444397 -2.15625,5.3125 l -4.21875,0 c -1.200828,0 -2.1875,0.944357 -2.1875,2.125 l 0,1 c 0,-1.180643 0.986672,-2.125 2.1875,-2.125 l 4.21875,0 c 0.562472,-2.111076 1.426609,-4.123135 2.5,-5.96875 L 26.5625,36.40625 z m 42.875,0 -0.34375,0.34375 c 1.073391,1.845617 1.937528,3.857672 2.5,5.96875 l 4.21875,0 c 1.200827,0 2.1875,0.944356 2.1875,2.125 l 0,-1 c 0,-1.180644 -0.986673,-2.125 -2.1875,-2.125 l -4.21875,0 C 71.096015,39.850645 70.341022,38.073476 69.4375,36.40625 z M 38.96875,48.5 c -0.0089,0.16483 -0.03125,0.332954 -0.03125,0.5 0,5.006505 4.055989,9.0625 9.0625,9.0625 5.00651,0 9.0625,-4.055995 9.0625,-9.0625 0,-0.167046 -0.02232,-0.33517 -0.03125,-0.5 -0.258742,4.775258 -4.191786,8.5625 -9.03125,8.5625 -4.839465,0 -8.772508,-3.787242 -9.03125,-8.5625 z M 26.5625,60.59375 23.875,63.25 c -0.424557,0.424559 -0.651592,0.950578 -0.65625,1.5 -0.0016,0.179795 0.05132,0.354653 0.09375,0.53125 0.09341,-0.36845 0.262657,-0.731405 0.5625,-1.03125 l 3.03125,-3 C 26.782709,61.03758 26.680016,60.810596 26.5625,60.59375 z m 42.875,0 c -0.117516,0.216846 -0.220209,0.44383 -0.34375,0.65625 l 3.03125,3 c 0.293745,0.293747 0.466811,0.663629 0.5625,1.03125 C 72.84975,64.586702 72.6827,63.807749 72.125,63.25 l -2.6875,-2.65625 z"
           inkscape:connector-curvature="0"
           id="path3921"
           style="opacity:0.2;fill:#000000;fill-opacity:1;fill-rule:nonzero;stroke:none;stroke-width:1;marker:none;visibility:visible;display:block;overflow:visible;enable-background:accumulate" />
        <path
           d="m 23.3125,31.71875 c -0.16225,0.694552 0.0048,1.473501 0.5625,2.03125 l 2.6875,2.65625 c 0.117516,-0.216846 0.220209,-0.44383 0.34375,-0.65625 l -3.03125,-3 c -0.293745,-0.293746 -0.466812,-0.663629 -0.5625,-1.03125 z m 49.375,0 C 72.59181,32.086371 72.418747,32.456254 72.125,32.75 l -3.03125,3 c 0.123541,0.21242 0.226234,0.439404 0.34375,0.65625 L 72.125,33.75 c 0.557751,-0.557749 0.724751,-1.336699 0.5625,-2.03125 z M 48,38.9375 c -5.006511,0 -9.0625,4.055982 -9.0625,9.0625 0,0.167046 0.02232,0.33517 0.03125,0.5 0.258742,-4.775269 4.191785,-8.5625 9.03125,-8.5625 4.839464,0 8.772508,3.787229 9.03125,8.5625 0.0089,-0.16483 0.03125,-0.332954 0.03125,-0.5 0,-5.00652 -4.05599,-9.0625 -9.0625,-9.0625 z m -30,13.21875 0,1 c 0,1.180653 0.986672,2.125 2.1875,2.125 l 4.21875,0 c 0.497735,1.868104 1.252727,3.645276 2.15625,5.3125 L 26.90625,60.25 c -1.073391,-1.845614 -1.937528,-3.857673 -2.5,-5.96875 l -4.21875,0 C 18.986672,54.28125 18,53.336903 18,52.15625 z m 60,0 c 0,1.180653 -0.986672,2.125 -2.1875,2.125 l -4.21875,0 c -0.562472,2.111079 -1.426609,4.123134 -2.5,5.96875 l 0.34375,0.34375 c 0.903522,-1.667225 1.658515,-3.444394 2.15625,-5.3125 l 4.21875,0 c 1.200828,0 2.1875,-0.944347 2.1875,-2.125 l 0,-1 z m -54.6875,13.125 c -0.03885,0.153249 -0.09238,0.307357 -0.09375,0.46875 -0.0048,0.549417 0.207579,1.113832 0.625,1.53125 l 5.875,5.875 c 0.834843,0.834834 2.182136,0.817772 3.03125,-0.03125 l 3,-3.03125 c 1.845609,1.073387 3.857669,1.937515 5.96875,2.5 l 0,-1 c -2.111081,-0.562485 -4.123141,-1.426613 -5.96875,-2.5 l -3,3.03125 c -0.849114,0.849022 -2.196407,0.866084 -3.03125,0.03125 l -5.875,-5.875 c -0.280821,-0.280819 -0.444032,-0.636954 -0.53125,-1 z m 49.375,0 c -0.08476,0.362824 -0.244784,0.713537 -0.53125,1 l -5.875,5.875 C 65.446406,72.991171 64.099112,72.97411 63.25,72.125 l -3,-3.03125 c -1.84561,1.073389 -3.857669,1.937515 -5.96875,2.5 l 0,1 c 2.111081,-0.562485 4.12314,-1.426611 5.96875,-2.5 l 3,3.03125 c 0.849112,0.84911 2.196406,0.866171 3.03125,0.03125 l 5.875,-5.875 c 0.546033,-0.546027 0.712161,-1.304967 0.53125,-2 z m -30.96875,10.53125 0,1 c 0,1.200827 0.944354,2.1875 2.125,2.1875 l 8.3125,0 c 1.180646,0 2.125,-0.986672 2.125,-2.1875 l 0,-1 c 0,1.200828 -0.944354,2.1875 -2.125,2.1875 l -8.3125,0 c -1.180646,0 -2.125,-0.986673 -2.125,-2.1875 z"
           inkscape:connector-curvature="0"
           id="path3930"
           style="fill:#ffffff;fill-opacity:1;fill-rule:nonzero;stroke:none;stroke-width:1;marker:none;visibility:visible;display:block;overflow:visible;enable-background:accumulate" />
      </g>
    </g>
    <rect
       ry="25"
       rx="25"
       id="rect3003"
       style="opacity:0.15;fill:#ffffff;fill-opacity:1"
       height="92"
       width="92"
       y="958.36218"
       x="-96"
       clip-path="url(#clipPath3009)"
       transform="translate(98,3.8281269e-7)" />
  </g>
</svg>
