<?xml version="1.0" encoding="UTF-8" standalone="no"?>
<!-- Created with Inkscape (http://www.inkscape.org/) -->

<svg
   xmlns:dc="http://purl.org/dc/elements/1.1/"
   xmlns:cc="http://creativecommons.org/ns#"
   xmlns:rdf="http://www.w3.org/1999/02/22-rdf-syntax-ns#"
   xmlns:svg="http://www.w3.org/2000/svg"
   xmlns="http://www.w3.org/2000/svg"
   xmlns:xlink="http://www.w3.org/1999/xlink"
   xmlns:sodipodi="http://sodipodi.sourceforge.net/DTD/sodipodi-0.dtd"
   xmlns:inkscape="http://www.inkscape.org/namespaces/inkscape"
   width="96"
   height="96"
   id="svg11037"
   version="1.1"
   inkscape:version="0.48.3.1 r9886"
   sodipodi:docname="text-x-bibtex.svg">
  <defs
     id="defs11039">
    <linearGradient
       y2="1046.1001"
       x2="47.999954"
       y1="962.62189"
       x1="47.999954"
       gradientTransform="matrix(1.15,0,0,1.15,-7.1999462,-150.65291)"
       gradientUnits="userSpaceOnUse"
       id="linearGradient3886"
       xlink:href="#linearGradient3795"
       inkscape:collect="always" />
    <linearGradient
       id="linearGradient3795">
      <stop
         style="stop-color:#13a6fd;stop-opacity:1;"
         offset="0"
         id="stop3797" />
      <stop
         style="stop-color:#2975b6;stop-opacity:1;"
         offset="1"
         id="stop3799" />
    </linearGradient>
    <linearGradient
       y2="1046.1001"
       x2="47.999954"
       y1="962.62189"
       x1="47.999954"
       gradientTransform="matrix(1.15,0,0,1.15,-7.1999462,-150.65292)"
       gradientUnits="userSpaceOnUse"
       id="linearGradient11642"
       xlink:href="#linearGradient3700"
       inkscape:collect="always" />
    <linearGradient
       x1="48"
       y1="90"
       x2="48"
       y2="5.9877172"
       id="linearGradient3706"
       xlink:href="#linearGradient3700"
       gradientUnits="userSpaceOnUse"
       gradientTransform="translate(0.38268553,-0.19134276)" />
    <linearGradient
       id="linearGradient3700">
      <stop
         id="stop3702"
         style="stop-color:#ebebeb;stop-opacity:1"
         offset="0" />
      <stop
         id="stop3704"
         style="stop-color:#fafafa;stop-opacity:1"
         offset="1" />
    </linearGradient>
    <linearGradient
       y2="5.9877172"
       x2="48"
       y1="90"
       x1="48"
       gradientTransform="translate(-98.255088,952.36215)"
       gradientUnits="userSpaceOnUse"
       id="linearGradient3495"
       xlink:href="#linearGradient3700"
       inkscape:collect="always" />
    <clipPath
       clipPathUnits="userSpaceOnUse"
       id="clipPath3009">
      <path
         id="path3011"
         d="m -2,956.36218 -96,0 0,33.5624 96,25.68742 0,-59.24982 z"
         style="opacity:0.15;fill:#ffffff;fill-opacity:1;stroke:none"
         inkscape:connector-curvature="0" />
    </clipPath>
  </defs>
  <sodipodi:namedview
     id="base"
     pagecolor="#ffffff"
     bordercolor="#666666"
     borderopacity="1.0"
     inkscape:pageopacity="0.0"
     inkscape:pageshadow="2"
     inkscape:zoom="3.959798"
     inkscape:cx="39.826039"
     inkscape:cy="52.706248"
     inkscape:document-units="px"
     inkscape:current-layer="layer1"
     showgrid="false"
     inkscape:window-width="1280"
     inkscape:window-height="750"
     inkscape:window-x="0"
     inkscape:window-y="22"
     inkscape:window-maximized="1"
     showguides="true"
     inkscape:guide-bbox="true">
    <sodipodi:guide
       orientation="0,1"
       position="-24.748737,0"
       id="guide11064" />
    <sodipodi:guide
       orientation="0,1"
       position="-23.233509,96"
       id="guide11066" />
    <sodipodi:guide
       orientation="1,0"
       position="0,54.800776"
       id="guide11068" />
    <sodipodi:guide
       orientation="1,0"
       position="96,51.012704"
       id="guide11070" />
    <sodipodi:guide
       orientation="0,1"
       position="-18.94036,48"
       id="guide11072" />
    <sodipodi:guide
       orientation="1,0"
       position="48,79.296975"
       id="guide11074" />
    <sodipodi:guide
       orientation="1,0"
       position="2,75.508903"
       id="guide11076" />
    <sodipodi:guide
       orientation="0,1"
       position="-77.27667,2"
       id="guide11078" />
    <sodipodi:guide
       orientation="1,0"
       position="94,77.781746"
       id="guide11080" />
    <sodipodi:guide
       orientation="0,1"
       position="-65.912454,94"
       id="guide11082" />
  </sodipodi:namedview>
  <metadata
     id="metadata11042">
    <rdf:RDF>
      <cc:Work
         rdf:about="">
        <dc:format>image/svg+xml</dc:format>
        <dc:type
           rdf:resource="http://purl.org/dc/dcmitype/StillImage" />
        <dc:title />
      </cc:Work>
    </rdf:RDF>
  </metadata>
  <g
     inkscape:label="Layer 1"
     inkscape:groupmode="layer"
     id="layer1"
     transform="translate(0,-956.36218)">
    <rect
       x="2"
       y="958.36218"
       width="92"
       height="92"
       style="fill:url(#linearGradient11642);fill-opacity:1.0"
       id="rect3867"
       rx="25"
       ry="25" />
    <g
       transform="translate(-1.9218674e-7,956.36218)"
       style="display:inline"
       id="g3511">
      <g
         style="opacity:0.12000002;display:inline"
         id="g5615"
         transform="matrix(1.6829755,0,0,1.6829755,13,29.506672)">
        <path
           style="fill:#000000;stroke:none"
           id="path5617"
           inkscape:connector-curvature="0"
           d="m 14.718,0.0350342 -14.300001,0 L 0,5.51202 l 0.445,0 C 0.764999,1.41003 1.117,0.692017 4.957,0.692017 c 0.445,0 1.168,0 1.367,0 0.473,0.074035 0.473,0.375003 0.473,0.945003 l 0,13.47998 c 0,0.895 -0.075,1.168 -2.161,1.168 l -0.703,0 0,0.5981 C 5.121,16.86 6.359,16.836 7.574,16.836 c 1.211,0 2.453,0.024 3.64,0.0471 l 0,-0.5981 -0.691,0 c -2.05501,0 -2.129,-0.273 -2.129,-1.168 l 0,-13.47998 c 0,-0.54699 0,-0.84399 0.446,-0.945003 0.195,0 0.91401,0 1.359,0 3.789,0 4.16,0.713993 4.48,4.820003 l 0.446,0" />
        <path
           style="fill:#000000;stroke:none"
           id="path5619"
           inkscape:connector-curvature="0"
           d="m 27.144,16.02 -0.445,0 c -0.543,3.672 -0.863,5.668 -5.219,5.668 l -3.437,0 c -0.989,0 -1.036,-0.125 -1.036,-0.977 l 0,-6.922 2.336,0 c 2.336,0 2.559,0.856 2.559,2.946 l 0.398,0 0,-6.442 -0.398,0 c 0,2.055 -0.223,2.895 -2.559,2.895 l -2.336,0 0,-6.13697 c 0,-0.836 0.047,-0.961 1.036,-0.961 l 3.386,0 c 3.832,0 4.278,1.52301 4.625,4.79697 l 0.446,0 -0.594,-5.47697 -12.539,0 0,0.68 c 1.754,0 2.035,0 2.035,1.11297 l 0,13.364 c 0,1.1131 -0.277,1.1131 -2.035,1.1131 l 0,0.5979 12.887,0" />
        <path
           style="fill:#000000;stroke:none"
           id="path5621"
           inkscape:connector-curvature="0"
           d="M 33.82,7.51202 37.484,2.21503 C 37.851,1.69501 38.597,0.625 40.629,0.598022 L 40.629,0 c -0.567,0.0469971 -1.508,0.0469971 -2.102,0.0469971 -0.816,0 -1.832,0 -2.449,-0.0469971 l 0,0.598022 c 0.793,0.073975 0.988,0.570008 0.988,0.968998 0,0.29602 -0.121,0.49603 -0.297,0.742 L 33.5,7.05103 29.836,1.68805 C 29.664,1.41803 29.64,1.34003 29.64,1.26605 c 0,-0.22302 0.27,-0.645017 1.09,-0.668028 L 30.73,0 c -0.793,0.0469971 -2.004,0.0469971 -2.82,0.0469971 -0.641,0 -1.879,0 -2.477,-0.0469971 l 0,0.598022 c 1.36,0 1.805,0.051026 2.352,0.820008 l 4.777,7.01599 -4.308,6.29308 c -1.063,1.539 -2.672,1.5659 -3.145,1.5659 l 0,0.5981 c 0.566,-0.047 1.508,-0.047 2.102,-0.047 0.668,0 1.832,0 2.449,0.047 l 0,-0.5981 c -0.766,-0.0739 -0.988,-0.57 -0.988,-0.969 0,-0.32 0.121,-0.496 0.246,-0.672 l 3.961,-5.78097 4.308,6.33197 c 0.195,0.2741 0.195,0.348 0.195,0.422 0,0.195 -0.222,0.621 -1.089,0.672 l 0,0.598 c 0.793,-0.047 2.004,-0.047 2.82,-0.047 0.641,0 1.879,0 2.48,0.047 l 0,-0.598 c -1.586,0 -1.836,-0.121 -2.328,-0.8199" />
      </g>
      <g
         style="fill:#333333;display:inline"
         id="g12"
         transform="matrix(1.6829755,0,0,1.6829755,13,28.506672)">
        <path
           style="fill:#333333;stroke:none"
           id="path14"
           inkscape:connector-curvature="0"
           d="m 14.718,0.0350342 -14.300001,0 L 0,5.51202 l 0.445,0 C 0.764999,1.41003 1.117,0.692017 4.957,0.692017 c 0.445,0 1.168,0 1.367,0 0.473,0.074035 0.473,0.375003 0.473,0.945003 l 0,13.47998 c 0,0.895 -0.075,1.168 -2.161,1.168 l -0.703,0 0,0.5981 C 5.121,16.86 6.359,16.836 7.574,16.836 c 1.211,0 2.453,0.024 3.64,0.0471 l 0,-0.5981 -0.691,0 c -2.05501,0 -2.129,-0.273 -2.129,-1.168 l 0,-13.47998 c 0,-0.54699 0,-0.84399 0.446,-0.945003 0.195,0 0.91401,0 1.359,0 3.789,0 4.16,0.713993 4.48,4.820003 l 0.446,0" />
        <path
           style="fill:#333333;stroke:none"
           id="path16"
           inkscape:connector-curvature="0"
           d="m 27.144,16.02 -0.445,0 c -0.543,3.672 -0.863,5.668 -5.219,5.668 l -3.437,0 c -0.989,0 -1.036,-0.125 -1.036,-0.977 l 0,-6.922 2.336,0 c 2.336,0 2.559,0.856 2.559,2.946 l 0.398,0 0,-6.442 -0.398,0 c 0,2.055 -0.223,2.895 -2.559,2.895 l -2.336,0 0,-6.13697 c 0,-0.836 0.047,-0.961 1.036,-0.961 l 3.386,0 c 3.832,0 4.278,1.52301 4.625,4.79697 l 0.446,0 -0.594,-5.47697 -12.539,0 0,0.68 c 1.754,0 2.035,0 2.035,1.11297 l 0,13.364 c 0,1.1131 -0.277,1.1131 -2.035,1.1131 l 0,0.5979 12.887,0" />
        <path
           style="fill:#333333;stroke:none"
           id="path18"
           inkscape:connector-curvature="0"
           d="M 33.82,7.51202 37.484,2.21503 C 37.851,1.69501 38.597,0.625 40.629,0.598022 L 40.629,0 c -0.567,0.0469971 -1.508,0.0469971 -2.102,0.0469971 -0.816,0 -1.832,0 -2.449,-0.0469971 l 0,0.598022 c 0.793,0.073975 0.988,0.570008 0.988,0.968998 0,0.29602 -0.121,0.49603 -0.297,0.742 L 33.5,7.05103 29.836,1.68805 C 29.664,1.41803 29.64,1.34003 29.64,1.26605 c 0,-0.22302 0.27,-0.645017 1.09,-0.668028 L 30.73,0 c -0.793,0.0469971 -2.004,0.0469971 -2.82,0.0469971 -0.641,0 -1.879,0 -2.477,-0.0469971 l 0,0.598022 c 1.36,0 1.805,0.051026 2.352,0.820008 l 4.777,7.01599 -4.308,6.29308 c -1.063,1.539 -2.672,1.5659 -3.145,1.5659 l 0,0.5981 c 0.566,-0.047 1.508,-0.047 2.102,-0.047 0.668,0 1.832,0 2.449,0.047 l 0,-0.5981 c -0.766,-0.0739 -0.988,-0.57 -0.988,-0.969 0,-0.32 0.121,-0.496 0.246,-0.672 l 3.961,-5.78097 4.308,6.33197 c 0.195,0.2741 0.195,0.348 0.195,0.422 0,0.195 -0.222,0.621 -1.089,0.672 l 0,0.598 c 0.793,-0.047 2.004,-0.047 2.82,-0.047 0.641,0 1.879,0 2.48,0.047 l 0,-0.598 c -1.586,0 -1.836,-0.121 -2.328,-0.8199" />
      </g>
    </g>
    <rect
       ry="25"
       rx="25"
       id="rect3003"
       style="opacity:0.15;fill:#ffffff;fill-opacity:1"
       height="92"
       width="92"
       y="958.36218"
       x="-96"
       clip-path="url(#clipPath3009)"
       transform="translate(98,3.8281269e-7)" />
  </g>
</svg>
