<?xml version="1.0" encoding="UTF-8" standalone="no"?>
<!-- Created with Inkscape (http://www.inkscape.org/) -->

<svg
   xmlns:dc="http://purl.org/dc/elements/1.1/"
   xmlns:cc="http://creativecommons.org/ns#"
   xmlns:rdf="http://www.w3.org/1999/02/22-rdf-syntax-ns#"
   xmlns:svg="http://www.w3.org/2000/svg"
   xmlns="http://www.w3.org/2000/svg"
   xmlns:xlink="http://www.w3.org/1999/xlink"
   xmlns:sodipodi="http://sodipodi.sourceforge.net/DTD/sodipodi-0.dtd"
   xmlns:inkscape="http://www.inkscape.org/namespaces/inkscape"
   width="96"
   height="96"
   id="svg11037"
   version="1.1"
   inkscape:version="0.48.3.1 r9886"
   sodipodi:docname="unknown.svg">
  <defs
     id="defs11039">
    <linearGradient
       y2="1046.1001"
       x2="47.999954"
       y1="962.62189"
       x1="47.999954"
       gradientTransform="matrix(1.15,0,0,1.15,-7.1999462,-150.65291)"
       gradientUnits="userSpaceOnUse"
       id="linearGradient3886"
       xlink:href="#linearGradient3795"
       inkscape:collect="always" />
    <linearGradient
       id="linearGradient3795">
      <stop
         style="stop-color:#13a6fd;stop-opacity:1;"
         offset="0"
         id="stop3797" />
      <stop
         style="stop-color:#2975b6;stop-opacity:1;"
         offset="1"
         id="stop3799" />
    </linearGradient>
    <linearGradient
       y2="1046.1001"
       x2="47.999954"
       y1="962.62189"
       x1="47.999954"
       gradientTransform="matrix(1.15,0,0,1.15,-7.1999462,-150.65292)"
       gradientUnits="userSpaceOnUse"
       id="linearGradient11642"
       xlink:href="#linearGradient3700"
       inkscape:collect="always" />
    <linearGradient
       x1="48"
       y1="90"
       x2="48"
       y2="5.9877172"
       id="linearGradient3706"
       xlink:href="#linearGradient3700"
       gradientUnits="userSpaceOnUse" />
    <linearGradient
       id="linearGradient3700">
      <stop
         id="stop3702"
         style="stop-color:#ebebeb;stop-opacity:1"
         offset="0" />
      <stop
         id="stop3704"
         style="stop-color:#fafafa;stop-opacity:1"
         offset="1" />
    </linearGradient>
    <linearGradient
       gradientTransform="translate(-89.999999,952.3622)"
       y2="5.9877172"
       x2="48"
       y1="90"
       x1="48"
       gradientUnits="userSpaceOnUse"
       id="linearGradient3062"
       xlink:href="#linearGradient3700"
       inkscape:collect="always" />
    <linearGradient
       x1="-50.29887"
       y1="53.903732"
       x2="-50.29887"
       y2="17.807734"
       id="linearGradient3744"
       xlink:href="#linearGradient3697"
       gradientUnits="userSpaceOnUse"
       gradientTransform="matrix(1.3297872,0,0,1.3297872,113.73124,0.70768339)" />
    <linearGradient
       id="linearGradient3697">
      <stop
         id="stop3699"
         style="stop-color:#bababa;stop-opacity:1"
         offset="0" />
      <stop
         id="stop3701"
         style="stop-color:#d2d2d2;stop-opacity:1"
         offset="1" />
    </linearGradient>
    <clipPath
       id="clipPath3774">
      <path
         d="m -88,6 c -3.324,0 -6,2.676 -6,6 l 0,72 c 0,3.324 2.676,6 6,6 l 72,0 c 3.324,0 6,-2.676 6,-6 l 0,-72 c 0,-3.324 -2.676,-6 -6,-6 l -72,0 z m 35.90625,18 c 8.936161,0 14.5625,4.41756 14.5625,11.375 0,3.063827 -1.29721,5.991358 -3.53125,7.90625 -0.446809,0.382979 -1.022612,0.827797 -5.9375,4.59375 -3.957443,3.063827 -4.527262,4.156919 -4.71875,8.625 l -3.4375,0 c -0.12766,-1.021275 -0.1875,-2.049203 -0.1875,-2.6875 0,-2.872337 0.489365,-4.150937 4,-10.40625 1.595742,-2.872337 2.5625,-6.132982 2.5625,-8.75 0,-4.468081 -2.170217,-7.03125 -6,-7.03125 -1.978722,0 -3.375,0.700133 -3.375,1.59375 0,0.446807 0.06981,0.512633 1.21875,1.40625 1.340424,1.021276 2.03125,2.432847 2.03125,4.15625 0,2.999998 -2.244685,5.125 -5.5,5.125 -3.510636,0 -6.0625,-2.490695 -6.0625,-5.9375 0,-5.872335 5.949476,-9.96875 14.375,-9.96875 z m -1.21875,36 c 3.319145,0 6,2.680853 6,6 0,3.319144 -2.679525,6 -6.0625,6 -3.255316,0 -5.9375,-2.744685 -5.9375,-6 0,-3.319147 2.680854,-6 6,-6 z"
         inkscape:connector-curvature="0"
         id="path3776"
         style="fill:#ff00ff;fill-opacity:1;fill-rule:nonzero;stroke:none" />
    </clipPath>
    <filter
       x="-0.19142981"
       y="-0.11540625"
       width="1.3828596"
       height="1.2308125"
       color-interpolation-filters="sRGB"
       id="filter3778">
      <feGaussianBlur
         id="feGaussianBlur3780"
         stdDeviation="2.308125" />
    </filter>
    <clipPath
       clipPathUnits="userSpaceOnUse"
       id="clipPath3009">
      <path
         id="path3011"
         d="m -2,956.36218 -96,0 0,33.5624 96,25.68742 0,-59.24982 z"
         style="opacity:0.15;fill:#ffffff;fill-opacity:1;stroke:none"
         inkscape:connector-curvature="0" />
    </clipPath>
  </defs>
  <sodipodi:namedview
     id="base"
     pagecolor="#ffffff"
     bordercolor="#666666"
     borderopacity="1.0"
     inkscape:pageopacity="0.0"
     inkscape:pageshadow="2"
     inkscape:zoom="3.959798"
     inkscape:cx="33.538031"
     inkscape:cy="59.964634"
     inkscape:document-units="px"
     inkscape:current-layer="layer1"
     showgrid="false"
     inkscape:window-width="1280"
     inkscape:window-height="750"
     inkscape:window-x="0"
     inkscape:window-y="22"
     inkscape:window-maximized="1"
     showguides="true"
     inkscape:guide-bbox="true">
    <sodipodi:guide
       orientation="0,1"
       position="-24.748737,0"
       id="guide11064" />
    <sodipodi:guide
       orientation="0,1"
       position="-23.233509,96"
       id="guide11066" />
    <sodipodi:guide
       orientation="1,0"
       position="0,54.800776"
       id="guide11068" />
    <sodipodi:guide
       orientation="1,0"
       position="96,51.012704"
       id="guide11070" />
    <sodipodi:guide
       orientation="0,1"
       position="-18.94036,48"
       id="guide11072" />
    <sodipodi:guide
       orientation="1,0"
       position="48,79.296975"
       id="guide11074" />
    <sodipodi:guide
       orientation="1,0"
       position="2,75.508903"
       id="guide11076" />
    <sodipodi:guide
       orientation="0,1"
       position="-77.27667,2"
       id="guide11078" />
    <sodipodi:guide
       orientation="1,0"
       position="94,77.781746"
       id="guide11080" />
    <sodipodi:guide
       orientation="0,1"
       position="-65.912454,94"
       id="guide11082" />
  </sodipodi:namedview>
  <metadata
     id="metadata11042">
    <rdf:RDF>
      <cc:Work
         rdf:about="">
        <dc:format>image/svg+xml</dc:format>
        <dc:type
           rdf:resource="http://purl.org/dc/dcmitype/StillImage" />
        <dc:title />
      </cc:Work>
    </rdf:RDF>
  </metadata>
  <g
     inkscape:label="Layer 1"
     inkscape:groupmode="layer"
     id="layer1"
     transform="translate(0,-956.36218)">
    <rect
       x="2"
       y="958.36218"
       width="92"
       height="92"
       style="fill:url(#linearGradient11642);fill-opacity:1.0"
       id="rect3867"
       rx="25"
       ry="25" />
    <g
       transform="translate(4.5776364e-8,956.36218)"
       style="display:inline"
       id="g3064">
      <path
         style="font-size:48px;font-style:normal;font-variant:normal;font-weight:bold;font-stretch:normal;text-align:start;line-height:100%;writing-mode:lr-tb;text-anchor:start;fill:url(#linearGradient3744);fill-opacity:1;stroke:none;font-family:Century Schoolbook L;-inkscape-font-specification:Century Schoolbook L Bold"
         id="path3738"
         inkscape:connector-curvature="0"
         d="m 47.90625,24 c -8.425524,0 -14.375,4.096415 -14.375,9.96875 0,3.446805 2.551864,5.9375 6.0625,5.9375 3.255315,0 5.5,-2.125002 5.5,-5.125 0,-1.723403 -0.690826,-3.134974 -2.03125,-4.15625 -1.148936,-0.893617 -1.21875,-0.959443 -1.21875,-1.40625 0,-0.893617 1.396278,-1.59375 3.375,-1.59375 3.829783,0 6,2.563169 6,7.03125 0,2.617018 -0.966758,5.877663 -2.5625,8.75 -3.510635,6.255313 -4,7.533913 -4,10.40625 0,0.638297 0.05984,1.666225 0.1875,2.6875 l 3.4375,0 C 48.472738,52.031919 49.042557,50.938827 53,47.875 57.914888,44.109047 58.490691,43.664229 58.9375,43.28125 61.17154,41.366358 62.46875,38.438827 62.46875,35.375 62.46875,28.41756 56.842411,24 47.90625,24 z M 46.6875,60 c -3.319146,0 -6,2.680853 -6,6 0,3.255315 2.682184,6 5.9375,6 3.382975,0 6.0625,-2.680856 6.0625,-6 0,-3.319147 -2.680855,-6 -6,-6 z" />
      <path
         style="font-size:48px;font-style:normal;font-variant:normal;font-weight:bold;font-stretch:normal;text-align:start;line-height:100%;writing-mode:lr-tb;text-anchor:start;opacity:0.2;fill:#000000;fill-opacity:1;stroke:none;font-family:Century Schoolbook L;-inkscape-font-specification:Century Schoolbook L Bold"
         id="path3747"
         inkscape:connector-curvature="0"
         d="m 47.90625,24 c -8.425524,0 -14.375,4.096415 -14.375,9.96875 0,0.183192 0.01707,0.35369 0.03125,0.53125 0.30792,-5.620694 6.144032,-9.5 14.34375,-9.5 8.70447,0 14.24858,4.196217 14.53125,10.84375 0.0066,-0.154552 0.03125,-0.313383 0.03125,-0.46875 C 62.46875,28.41756 56.842411,24 47.90625,24 z M 42,29.71875 c -0.101844,0.15694 -0.15625,0.324233 -0.15625,0.5 0,0.446807 0.06981,0.512633 1.21875,1.40625 1.172871,0.893617 1.849445,2.092558 2,3.53125 0.0077,-0.122054 0.03125,-0.249808 0.03125,-0.375 0,-1.723403 -0.690826,-3.134974 -2.03125,-4.15625 C 42.446076,30.145559 42.151046,29.908309 42,29.71875 z m 9.1875,5.5 c -0.124925,2.512324 -1.047794,5.517277 -2.53125,8.1875 -3.510635,6.255313 -4,7.533913 -4,10.40625 0,0.142678 -0.0061,0.354062 0,0.53125 0.06211,-2.549734 0.694866,-4.048352 4,-9.9375 1.595742,-2.872337 2.5625,-6.132982 2.5625,-8.75 0,-0.150558 -0.02634,-0.291293 -0.03125,-0.4375 z M 46.6875,60 c -3.319146,0 -6,2.680853 -6,6 0,0.128706 0.023,0.248028 0.03125,0.375 C 41.025432,63.34558 43.575801,61 46.6875,61 c 3.111698,0 5.662067,2.34558 5.96875,5.375 0.0075,-0.122765 0.03125,-0.250325 0.03125,-0.375 0,-3.319147 -2.680855,-6 -6,-6 z" />
      <path
         style="font-size:48px;font-style:normal;font-variant:normal;font-weight:bold;font-stretch:normal;text-align:start;line-height:100%;writing-mode:lr-tb;text-anchor:start;fill:#ffffff;fill-opacity:1;stroke:none;font-family:Century Schoolbook L;-inkscape-font-specification:Century Schoolbook L Bold"
         id="path3756"
         inkscape:connector-curvature="0"
         d="m 45.21875,27.625 c -1.978722,0 -3.375,0.700133 -3.375,1.59375 0,0.207088 0.02576,0.336245 0.15625,0.5 0.415942,-0.640962 1.629225,-1.09375 3.21875,-1.09375 3.700733,0 5.827981,2.401001 5.96875,6.59375 0.0095,-0.190163 0.03125,-0.378351 0.03125,-0.5625 0,-4.468081 -2.170217,-7.03125 -6,-7.03125 z M 33.5625,34.59375 c -0.0054,0.124365 -0.03125,0.248977 -0.03125,0.375 0,3.446805 2.551864,5.9375 6.0625,5.9375 3.255315,0 5.5,-2.125002 5.5,-5.125 0,-0.150959 -0.02068,-0.291379 -0.03125,-0.4375 -0.25853,2.705382 -2.416892,4.5625 -5.46875,4.5625 -3.291221,0 -5.738038,-2.198784 -6.03125,-5.3125 z m 28.875,1.25 c -0.124012,2.893199 -1.379248,5.619712 -3.5,7.4375 C 58.490691,43.664229 57.914888,44.109047 53,47.875 49.042557,50.938827 48.472738,52.031919 48.28125,56.5 l -3.4375,0 c -0.09912,-0.79299 -0.166418,-1.540754 -0.1875,-2.15625 -0.0039,0.158533 0,0.300613 0,0.46875 0,0.638297 0.05984,1.666225 0.1875,2.6875 l 3.4375,0 C 48.472738,53.031919 49.042557,51.938827 53,48.875 c 4.914888,-3.765953 5.490691,-4.210771 5.9375,-4.59375 2.23404,-1.914892 3.53125,-4.842423 3.53125,-7.90625 0,-0.180388 -0.02373,-0.35431 -0.03125,-0.53125 z m -21.71875,30.75 C 40.710015,66.726521 40.6875,66.864979 40.6875,67 c 0,3.255315 2.682184,6 5.9375,6 3.382975,0 6.0625,-2.680856 6.0625,-6 0,-0.124675 -0.02379,-0.252234 -0.03125,-0.375 C 52.34948,69.654418 49.796539,72 46.625,72 43.573141,72 41.025345,69.577587 40.71875,66.59375 z" />
      <path
         style="font-size:48px;font-style:normal;font-variant:normal;font-weight:bold;font-stretch:normal;text-align:start;line-height:100%;writing-mode:lr-tb;text-anchor:start;opacity:0.6;fill:none;stroke:#ffffff;stroke-width:2;stroke-miterlimit:4;stroke-dasharray:none;filter:url(#filter3778);font-family:Century Schoolbook L;-inkscape-font-specification:Century Schoolbook L Bold"
         id="path3765"
         clip-path="url(#clipPath3774)"
         transform="translate(100,0)"
         inkscape:connector-curvature="0"
         d="m -52.09375,24 c -8.425524,0 -14.375,4.096415 -14.375,9.96875 0,3.446805 2.551864,5.9375 6.0625,5.9375 3.255315,0 5.5,-2.125002 5.5,-5.125 0,-1.723403 -0.690826,-3.134974 -2.03125,-4.15625 -1.148936,-0.893617 -1.21875,-0.959443 -1.21875,-1.40625 0,-0.893617 1.396278,-1.59375 3.375,-1.59375 3.829783,0 6,2.563169 6,7.03125 0,2.617018 -0.966758,5.877663 -2.5625,8.75 -3.510635,6.255313 -4,7.533913 -4,10.40625 0,0.638297 0.05984,1.666225 0.1875,2.6875 l 3.4375,0 c 0.191488,-4.468081 0.761307,-5.561173 4.71875,-8.625 4.914888,-3.765953 5.490691,-4.210771 5.9375,-4.59375 2.23404,-1.914892 3.53125,-4.842423 3.53125,-7.90625 0,-6.95744 -5.626339,-11.375 -14.5625,-11.375 z m -1.21875,36 c -3.319146,0 -6,2.680853 -6,6 0,3.255315 2.682184,6 5.9375,6 3.382975,0 6.0625,-2.680856 6.0625,-6 0,-3.319147 -2.680855,-6 -6,-6 z" />
    </g>
    <rect
       ry="25"
       rx="25"
       id="rect3003"
       style="opacity:0.15;fill:#ffffff;fill-opacity:1"
       height="92"
       width="92"
       y="958.36218"
       x="-96"
       clip-path="url(#clipPath3009)"
       transform="translate(98,3.8281269e-7)" />
  </g>
</svg>
