<?xml version="1.0" encoding="UTF-8" standalone="no"?>
<!-- Created with Inkscape (http://www.inkscape.org/) -->

<svg
   xmlns:dc="http://purl.org/dc/elements/1.1/"
   xmlns:cc="http://creativecommons.org/ns#"
   xmlns:rdf="http://www.w3.org/1999/02/22-rdf-syntax-ns#"
   xmlns:svg="http://www.w3.org/2000/svg"
   xmlns="http://www.w3.org/2000/svg"
   xmlns:xlink="http://www.w3.org/1999/xlink"
   xmlns:sodipodi="http://sodipodi.sourceforge.net/DTD/sodipodi-0.dtd"
   xmlns:inkscape="http://www.inkscape.org/namespaces/inkscape"
   width="96"
   height="96"
   id="svg11037"
   version="1.1"
   inkscape:version="0.48.3.1 r9886"
   sodipodi:docname="templat.svg">
  <defs
     id="defs11039">
    <linearGradient
       y2="1046.1001"
       x2="47.999954"
       y1="962.62189"
       x1="47.999954"
       gradientTransform="matrix(1.15,0,0,1.15,-7.1999462,-150.65291)"
       gradientUnits="userSpaceOnUse"
       id="linearGradient3886"
       xlink:href="#linearGradient3795"
       inkscape:collect="always" />
    <linearGradient
       id="linearGradient3795">
      <stop
         style="stop-color:#13a6fd;stop-opacity:1;"
         offset="0"
         id="stop3797" />
      <stop
         style="stop-color:#2975b6;stop-opacity:1;"
         offset="1"
         id="stop3799" />
    </linearGradient>
    <linearGradient
       y2="1046.1001"
       x2="47.999954"
       y1="962.62189"
       x1="47.999954"
       gradientTransform="matrix(1.15,0,0,1.15,-7.1999462,-150.65292)"
       gradientUnits="userSpaceOnUse"
       id="linearGradient11642"
       xlink:href="#linearGradient3717"
       inkscape:collect="always" />
    <clipPath
       clipPathUnits="userSpaceOnUse"
       id="clipPath3009">
      <path
         id="path3011"
         d="m -2,956.36218 -96,0 0,33.5624 96,25.68742 0,-59.24982 z"
         style="opacity:0.15;fill:#ffffff;fill-opacity:1;stroke:none"
         inkscape:connector-curvature="0" />
    </clipPath>
    <linearGradient
       x1="48"
       y1="90"
       x2="48"
       y2="5.9877172"
       id="linearGradient3617"
       xlink:href="#linearGradient3717"
       gradientUnits="userSpaceOnUse" />
    <linearGradient
       id="linearGradient3717">
      <stop
         id="stop3719"
         style="stop-color:#989898;stop-opacity:1"
         offset="0" />
      <stop
         id="stop3725"
         style="stop-color:#cccccc;stop-opacity:1"
         offset="1" />
    </linearGradient>
    <linearGradient
       gradientTransform="translate(-98.00255,952.36217)"
       y2="5.9877172"
       x2="48"
       y1="90"
       x1="48"
       gradientUnits="userSpaceOnUse"
       id="linearGradient3080"
       xlink:href="#linearGradient3717"
       inkscape:collect="always" />
    <linearGradient
       x1="60.210926"
       y1="85.223503"
       x2="46.653503"
       y2="34.626514"
       id="linearGradient3746"
       xlink:href="#linearGradient3242-6-4-378"
       gradientUnits="userSpaceOnUse" />
    <linearGradient
       id="linearGradient3242-6-4-378">
      <stop
         id="stop2852"
         style="stop-color:#bbbbbb;stop-opacity:1"
         offset="0" />
      <stop
         id="stop2854"
         style="stop-color:#999999;stop-opacity:1"
         offset="0.26238" />
      <stop
         id="stop2856"
         style="stop-color:#6d6d6d;stop-opacity:1"
         offset="0.66093999" />
      <stop
         id="stop2858"
         style="stop-color:#454545;stop-opacity:1"
         offset="1" />
    </linearGradient>
    <linearGradient
       x1="32"
       y1="24"
       x2="64"
       y2="64"
       id="linearGradient3738"
       xlink:href="#linearGradient4873-533"
       gradientUnits="userSpaceOnUse" />
    <linearGradient
       id="linearGradient4873-533">
      <stop
         id="stop2874"
         style="stop-color:#ffffff;stop-opacity:1"
         offset="0" />
      <stop
         id="stop2876"
         style="stop-color:#ffffff;stop-opacity:0"
         offset="1" />
    </linearGradient>
    <linearGradient
       x1="16"
       y1="16"
       x2="48"
       y2="48"
       id="linearGradient3781"
       xlink:href="#linearGradient3737"
       gradientUnits="userSpaceOnUse" />
    <linearGradient
       id="linearGradient3737">
      <stop
         id="stop3739"
         style="stop-color:#ffffff;stop-opacity:1"
         offset="0" />
      <stop
         id="stop3741"
         style="stop-color:#ffffff;stop-opacity:0"
         offset="1" />
    </linearGradient>
    <linearGradient
       x1="80"
       y1="80"
       x2="48"
       y2="48"
       id="linearGradient3773"
       xlink:href="#linearGradient3737"
       gradientUnits="userSpaceOnUse" />
    <linearGradient
       id="linearGradient3117">
      <stop
         id="stop3119"
         style="stop-color:#ffffff;stop-opacity:1"
         offset="0" />
      <stop
         id="stop3121"
         style="stop-color:#ffffff;stop-opacity:0"
         offset="1" />
    </linearGradient>
  </defs>
  <sodipodi:namedview
     id="base"
     pagecolor="#ffffff"
     bordercolor="#666666"
     borderopacity="1.0"
     inkscape:pageopacity="0.0"
     inkscape:pageshadow="2"
     inkscape:zoom="3.959798"
     inkscape:cx="29.118614"
     inkscape:cy="59.964634"
     inkscape:document-units="px"
     inkscape:current-layer="layer1"
     showgrid="false"
     inkscape:window-width="1280"
     inkscape:window-height="750"
     inkscape:window-x="0"
     inkscape:window-y="22"
     inkscape:window-maximized="1"
     showguides="true"
     inkscape:guide-bbox="true">
    <sodipodi:guide
       orientation="0,1"
       position="-24.748737,0"
       id="guide11064" />
    <sodipodi:guide
       orientation="0,1"
       position="-23.233509,96"
       id="guide11066" />
    <sodipodi:guide
       orientation="1,0"
       position="0,54.800776"
       id="guide11068" />
    <sodipodi:guide
       orientation="1,0"
       position="96,51.012704"
       id="guide11070" />
    <sodipodi:guide
       orientation="0,1"
       position="-18.94036,48"
       id="guide11072" />
    <sodipodi:guide
       orientation="1,0"
       position="48,79.296975"
       id="guide11074" />
    <sodipodi:guide
       orientation="1,0"
       position="2,75.508903"
       id="guide11076" />
    <sodipodi:guide
       orientation="0,1"
       position="-77.27667,2"
       id="guide11078" />
    <sodipodi:guide
       orientation="1,0"
       position="94,77.781746"
       id="guide11080" />
    <sodipodi:guide
       orientation="0,1"
       position="-65.912454,94"
       id="guide11082" />
  </sodipodi:namedview>
  <metadata
     id="metadata11042">
    <rdf:RDF>
      <cc:Work
         rdf:about="">
        <dc:format>image/svg+xml</dc:format>
        <dc:type
           rdf:resource="http://purl.org/dc/dcmitype/StillImage" />
        <dc:title></dc:title>
      </cc:Work>
    </rdf:RDF>
  </metadata>
  <g
     inkscape:label="Layer 1"
     inkscape:groupmode="layer"
     id="layer1"
     transform="translate(0,-956.36218)">
    <rect
       x="2"
       y="958.36218"
       width="92"
       height="92"
       style="fill:url(#linearGradient11642);fill-opacity:1.0"
       id="rect3867"
       rx="25"
       ry="25" />
    <g
       transform="translate(0,956.36218)"
       id="g3082">
      <path
         style="fill:url(#linearGradient3746);fill-opacity:1;fill-rule:nonzero;stroke:none;display:inline"
         id="path3818"
         inkscape:connector-curvature="0"
         d="M 33.40625,16 C 23.80625,16 16,23.806251 16,33.40625 c 0,2.965159 0.720934,5.743732 2.03125,8.1875 -0.437454,2.059271 -0.625,4.217215 -0.625,6.40625 0,16.896003 13.69775,30.59375 30.59375,30.59375 2.189037,0 4.346981,-0.187546 6.40625,-0.625 C 56.85838,79.290809 59.614358,80 62.59375,80 72.19375,80 80,72.19375 80,62.59375 80,59.614355 79.29082,56.858383 77.96875,54.40625 78.4062,52.346981 78.59375,50.189038 78.59375,48 78.59375,31.104 64.896,17.40625 48,17.40625 c -2.189557,0 -4.346527,0.249843 -6.40625,0.6875 C 39.149766,16.78314 36.371771,16 33.40625,16 z" />
      <path
         style="opacity:0.6;fill:url(#linearGradient3738);fill-opacity:1;stroke:none"
         id="path3727"
         inkscape:connector-curvature="0"
         d="M 33.40625,16 C 23.80625,16 16,23.806251 16,33.40625 c 0,2.965159 0.720934,5.743732 2.03125,8.1875 -0.437454,2.059271 -0.625,4.217215 -0.625,6.40625 0,4.381688 0.93294,8.542633 2.59375,12.3125 C 36.555467,46.60081 63.222085,42.163385 77.75,40.71875 74.481487,27.332234 62.388599,17.40625 48,17.40625 c -2.189557,0 -4.346527,0.249843 -6.40625,0.6875 C 39.149766,16.78314 36.371771,16 33.40625,16 z" />
      <path
         style="fill:#666666;fill-opacity:1;fill-rule:nonzero;stroke:none;display:inline"
         id="path3781"
         inkscape:connector-curvature="0"
         d="m 33.40625,15.0625 c -10.10362,0 -18.34375,8.24013 -18.34375,18.34375 0,2.997182 0.747733,5.807557 2.03125,8.3125 -0.408641,2.041944 -0.625,4.145418 -0.625,6.28125 0,17.398112 14.13314,31.53125 31.53125,31.53125 2.13583,0 4.23931,-0.216359 6.28125,-0.625 2.51099,1.293054 5.30546,2.03125 8.3125,2.03125 10.10362,0 18.34375,-8.240129 18.34375,-18.34375 0,-3.007041 -0.73818,-5.801509 -2.03125,-8.3125 0.40864,-2.04194 0.625,-4.145414 0.625,-6.28125 0,-17.398109 -14.13314,-31.53125 -31.53125,-31.53125 -2.15321,0 -4.25406,0.27619 -6.28125,0.6875 -2.49503,-1.283033 -5.30298,-2.09375 -8.3125,-2.09375 z m 0,0.9375 c -0.6,0 -1.19673,0.03423 -1.78125,0.09375 -0.49975,0.05089 -0.98231,0.126348 -1.46875,0.21875 0.48778,-0.0922 0.96772,-0.168039 1.46875,-0.21875 C 32.2099,16.03455 32.80607,16 33.40625,16 z m 3.40625,0.34375 c 0.64612,0.131388 1.28592,0.297862 1.90625,0.5 -0.61832,-0.203276 -1.25989,-0.366551 -1.90625,-0.5 z m -7.15625,0.0625 c -0.47838,0.105653 -0.94344,0.230785 -1.40625,0.375 0.45955,-0.142013 0.93146,-0.27078 1.40625,-0.375 z m -1.625,0.4375 c -0.47068,0.153408 -0.95405,0.339706 -1.40625,0.53125 0.46235,-0.195463 0.92461,-0.375509 1.40625,-0.53125 z M 46.375,17.4375 c -0.54231,0.03026 -1.0898,0.09767 -1.625,0.15625 0.54057,-0.0614 1.08014,-0.124998 1.625,-0.15625 z m -12.96875,0.5 c 2.62285,0 5.09404,0.702088 7.28125,1.875 A 1.9466111,1.9466111 0 0 0 42,20 c 1.9368,-0.411538 3.95851,-0.65625 6,-0.65625 15.84401,0 28.65625,12.812236 28.65625,28.65625 0,2.077863 -0.19023,4.100475 -0.59375,6 a 1.9466111,1.9466111 0 0 0 0.1875,1.34375 c 1.17095,2.171831 1.8125,4.579473 1.8125,7.25 0,8.544846 -6.9239,15.46875 -15.46875,15.46875 -2.67052,0 -5.07817,-0.641563 -7.25,-1.8125 A 1.9466111,1.9466111 0 0 0 54,76.0625 c -1.89952,0.403518 -3.92214,0.59375 -6,0.59375 -15.84401,0 -28.65625,-12.812233 -28.65625,-28.65625 0,-2.077862 0.190232,-4.100478 0.59375,-6 A 1.9466111,1.9466111 0 0 0 19.75,40.6875 c -1.160468,-2.164298 -1.8125,-4.631586 -1.8125,-7.28125 0,-8.544845 6.9239,-15.46875 15.46875,-15.46875 z M 25.125,18.09375 c -0.49323,0.268234 -0.97443,0.561926 -1.4375,0.875 -0.40779,0.275697 -0.80524,0.566672 -1.1875,0.875 0.38072,-0.305624 0.78143,-0.601722 1.1875,-0.875 0.46302,-0.311604 0.94431,-0.608132 1.4375,-0.875 z m 34.78125,1.71875 c 0.91539,0.387391 1.82011,0.809864 2.6875,1.28125 -0.86698,-0.470984 -1.77246,-0.894209 -2.6875,-1.28125 z m -37.5625,0.15625 c -0.42998,0.354977 -0.85605,0.731055 -1.25,1.125 C 20.80373,21.383768 20.51911,21.690244 20.25,22 c 0.27183,-0.313223 0.55037,-0.613325 0.84375,-0.90625 0.39793,-0.397305 0.8151,-0.767605 1.25,-1.125 z m 43.96875,3.5 c 0.78574,0.587738 1.52512,1.216121 2.25,1.875 -0.72441,-0.658414 -1.46471,-1.287713 -2.25,-1.875 z m 4.34375,3.96875 c 0.65888,0.724879 1.28726,1.464262 1.875,2.25 -0.58729,-0.785287 -1.21659,-1.525586 -1.875,-2.25 z m -53.875,0.8125 c -0.166754,0.53514 -0.322492,1.069228 -0.4375,1.625 0.113853,-0.555916 0.271929,-1.089743 0.4375,-1.625 z m 58.125,5.15625 c 0.47139,0.867386 0.89386,1.772109 1.28125,2.6875 -0.38704,-0.915041 -0.81027,-1.820516 -1.28125,-2.6875 z m -55.09375,26.5 c 0.38704,0.915041 0.81027,1.820515 1.28125,2.6875 -0.47139,-0.867386 -0.89386,-1.772109 -1.28125,-2.6875 z M 79.90625,64.375 c -0.0595,0.584518 -0.1339,1.152649 -0.25,1.71875 0.1161,-0.566101 0.19048,-1.134232 0.25,-1.71875 z m -0.25,1.75 c -0.11501,0.555772 -0.27075,1.08986 -0.4375,1.625 0.16675,-0.53514 0.32249,-1.069228 0.4375,-1.625 z m -56.1875,0.1875 c 0.58729,0.785287 1.21659,1.525586 1.875,2.25 -0.65888,-0.724879 -1.28726,-1.464262 -1.875,-2.25 z m 3.96875,4.34375 c 0.72441,0.658414 1.46471,1.287713 2.25,1.875 -0.78574,-0.587738 -1.52512,-1.216121 -2.25,-1.875 z m 5.96875,4.25 c 0.86698,0.470984 1.77246,0.894209 2.6875,1.28125 -0.91539,-0.387391 -1.82011,-0.809864 -2.6875,-1.28125 z" />
      <path
         style="opacity:0.6;fill:url(#linearGradient3781);fill-opacity:1;fill-rule:nonzero;stroke:none;display:inline"
         id="path3760"
         inkscape:connector-curvature="0"
         d="M 33.40625,16 C 23.804515,16 16,23.804515 16,33.40625 c 0,2.843656 0.684161,5.521192 1.90625,7.90625 0.09573,0.180245 0.129285,0.392779 0.09375,0.59375 -0.397007,1.983812 -0.59375,4.020256 -0.59375,6.09375 0,8.425348 3.428761,16.030071 8.9375,21.5625 C 21.405934,64.12962 18.40625,56.921036 18.40625,49 c 0,-0.165813 -0.0025,-0.334669 0,-0.5 -0.0027,-0.166028 0,-0.333318 0,-0.5 0,-1.924137 0.191267,-3.796874 0.53125,-5.59375 1.76e-4,-0.01042 1.76e-4,-0.02083 0,-0.03125 C 18.9279,42.35378 18.91745,42.33293 18.90625,42.3125 17.684161,39.927442 17,37.249906 17,34.40625 c 0,-0.126542 0.02855,-0.249096 0.03125,-0.375 C 17.023205,33.821033 17,33.618581 17,33.40625 17,24.362757 24.362752,17 33.40625,17 c 0.211306,0 0.415641,0.02261 0.625,0.03125 C 34.157154,17.028553 34.279708,17 34.40625,17 c 2.843745,0 5.489817,0.742204 7.875,1.96875 0.02043,0.0112 0.04128,0.02163 0.0625,0.03125 0.01042,1.76e-4 0.02083,1.76e-4 0.03125,0 1.643065,-0.321279 3.336931,-0.524983 5.0625,-0.5625 0.18618,-0.004 0.37574,-0.03125 0.5625,-0.03125 0.166682,0 0.333972,-0.0027 0.5,0 0.165369,-0.0032 0.334124,0 0.5,0 7.921035,0 15.12962,2.999684 20.5625,7.9375 C 64.03007,20.835011 56.425347,17.40625 48,17.40625 c -2.074275,0 -4.10944,0.25364 -6.09375,0.65625 -0.210705,0.04282 -0.43613,0.009 -0.625,-0.09375 C 38.896067,16.742204 36.249995,16 33.40625,16 z" />
      <path
         style="opacity:0.6;fill:url(#linearGradient3773);fill-opacity:1;fill-rule:nonzero;stroke:none;display:inline"
         id="path3765"
         inkscape:connector-curvature="0"
         d="M 62.59375,80 C 72.195485,80 80,72.195485 80,62.59375 80,59.750094 79.315839,57.072558 78.09375,54.6875 77.99802,54.507255 77.964465,54.294721 78,54.09375 78.397007,52.109938 78.59375,50.073494 78.59375,48 c 0,-8.425348 -3.428761,-16.030071 -8.9375,-21.5625 4.937816,5.43288 7.9375,12.641464 7.9375,20.5625 0,0.165813 0.0025,0.334669 0,0.5 0.0027,0.166028 0,0.333318 0,0.5 0,1.924137 -0.191267,3.796874 -0.53125,5.59375 -1.76e-4,0.01042 -1.76e-4,0.02083 0,0.03125 0.0096,0.02122 0.02005,0.04207 0.03125,0.0625 C 78.315839,56.072558 79,58.750094 79,61.59375 c 0,0.126542 -0.02855,0.249096 -0.03125,0.375 C 78.976795,62.178967 79,62.381419 79,62.59375 79,71.637243 71.637248,79 62.59375,79 62.382444,79 62.178109,78.97739 61.96875,78.96875 61.842846,78.971447 61.720292,79 61.59375,79 58.750005,79 56.103933,78.257796 53.71875,77.03125 53.69832,77.02005 53.67747,77.00962 53.65625,77 c -0.01042,-1.76e-4 -0.02083,-1.76e-4 -0.03125,0 -1.643065,0.321279 -3.336931,0.524983 -5.0625,0.5625 -0.18618,0.004 -0.37574,0.03125 -0.5625,0.03125 -0.166682,0 -0.333972,0.0027 -0.5,0 -0.165369,0.0032 -0.334124,0 -0.5,0 -7.921035,0 -15.12962,-2.999684 -20.5625,-7.9375 5.53243,5.508739 13.137153,8.9375 21.5625,8.9375 2.074275,0 4.10944,-0.25364 6.09375,-0.65625 0.210705,-0.04282 0.43613,-0.009 0.625,0.09375 C 57.103933,79.257796 59.750005,80 62.59375,80 z" />
      <path
         style="fill:#666666;fill-opacity:1;fill-rule:nonzero;stroke:none;display:inline"
         id="path3783"
         inkscape:connector-curvature="0"
         d="m 33.40625,16.9375 c -8.54485,0 -15.46875,6.923905 -15.46875,15.46875 0,0.217466 0.02255,0.441307 0.03125,0.65625 0.183545,-8.385294 7.008055,-15.125 15.4375,-15.125 2.62285,0 5.09404,0.702088 7.28125,1.875 A 1.9466111,1.9466111 0 0 0 42,20 c 1.9368,-0.411538 3.95851,-0.65625 6,-0.65625 15.675533,0 28.387764,12.545598 28.65625,28.15625 0.0024,-0.165421 0,-0.333837 0,-0.5 0,-15.844014 -12.81224,-28.65625 -28.65625,-28.65625 -2.04149,0 -4.0632,0.244712 -6,0.65625 a 1.9466111,1.9466111 0 0 1 -1.3125,-0.1875 c -2.18721,-1.172912 -4.6584,-1.875 -7.28125,-1.875 z m -18.3125,16.125 c -0.0022,0.115506 -0.03125,0.227743 -0.03125,0.34375 0,2.890095 0.705772,5.594907 1.90625,8.03125 0.04255,-0.240842 0.07713,-0.47955 0.125,-0.71875 -1.189876,-2.32219 -1.899901,-4.903587 -2,-7.65625 z m 4.8125,8.03125 c -0.389746,1.871752 -0.5625,3.863178 -0.5625,5.90625 0,0.168477 -0.0029,0.33222 0,0.5 0.02813,-1.903171 0.222501,-3.752379 0.59375,-5.5 A 1.9466111,1.9466111 0 0 0 19.90625,41.09375 z M 16.46875,47.5 c -0.0026,0.16704 0,0.332548 0,0.5 0,17.398112 14.13314,31.53125 31.53125,31.53125 2.13583,0 4.23931,-0.216359 6.28125,-0.625 2.51099,1.293054 5.30546,2.03125 8.3125,2.03125 10.10362,0 18.34375,-8.240129 18.34375,-18.34375 0,-0.219384 -0.02346,-0.439156 -0.03125,-0.65625 -0.186218,9.944482 -8.324887,18 -18.3125,18 -3.00704,0 -5.80151,-0.738196 -8.3125,-2.03125 -2.04194,0.408641 -4.14542,0.625 -6.28125,0.625 -17.230882,0 -31.263165,-13.863522 -31.53125,-31.03125 z m 63.0625,0 c -0.03113,1.963542 -0.248398,3.899401 -0.625,5.78125 0.0462,0.08972 0.08022,0.190813 0.125,0.28125 0.320707,-1.815115 0.5,-3.676863 0.5,-5.5625 0,-0.167228 0.0026,-0.333385 0,-0.5 z m -3.4375,6.40625 C 76.08715,53.93812 76.06926,53.9682 76.0625,54 a 1.9466111,1.9466111 0 0 0 0.1875,1.34375 c 1.074846,1.993582 1.685278,4.181844 1.78125,6.59375 0.0025,-0.1148 0.03125,-0.228345 0.03125,-0.34375 0,-2.670527 -0.64155,-5.078169 -1.8125,-7.25 a 1.9466111,1.9466111 0 0 1 -0.15625,-0.4375 z" />
      <path
         inkscape:connector-curvature="0"
         style="opacity:0.6;color:#000000;fill:#4d4d4d;fill-opacity:1;fill-rule:nonzero;stroke:none;stroke-width:1;marker:none;visibility:visible;display:inline;overflow:visible;enable-background:accumulate"
         id="path3741"
         d="m 35.53125,31.46875 c -1.034586,0 -2.081896,0.394396 -2.875,1.1875 -1.583357,1.583356 -1.583357,4.166645 0,5.75 L 42.25,48 32.65625,57.59375 c -1.583357,1.583356 -1.583357,4.166645 0,5.75 1.583355,1.583349 4.166644,1.583349 5.75,0 L 48,53.75 l 9.59375,9.59375 c 1.583355,1.583349 4.166644,1.583349 5.75,0 1.583356,-1.583355 1.583356,-4.166644 0,-5.75 L 53.75,48 63.34375,38.40625 c 1.583356,-1.583355 1.583356,-4.166644 0,-5.75 -1.583356,-1.583355 -4.166645,-1.583355 -5.75,0 L 48,42.25 38.40625,32.65625 c -0.793104,-0.793103 -1.840414,-1.1875 -2.875,-1.1875 z" />
      <path
         style="color:#000000;fill:#ffffff;fill-opacity:1;fill-rule:nonzero;stroke:none;stroke-width:1;marker:none;visibility:visible;display:inline;overflow:visible;enable-background:accumulate"
         id="path3737"
         inkscape:connector-curvature="0"
         d="m 35.538131,31.995298 c -0.901932,0 -1.810362,0.354962 -2.501469,1.046069 -1.382216,1.382215 -1.382216,3.620726 0,5.00294 l 9.960398,9.960399 -9.960398,9.960399 c -1.382216,1.382215 -1.382216,3.620726 0,5.00294 1.382214,1.382209 3.620725,1.382209 5.00294,0 l 9.960399,-9.960399 9.960398,9.960399 c 1.382214,1.382209 3.620725,1.382209 5.00294,0 1.382215,-1.382214 1.382215,-3.620725 0,-5.00294 l -9.960398,-9.960399 9.960398,-9.960399 c 1.382215,-1.382214 1.382215,-3.620725 0,-5.00294 -1.382215,-1.382214 -3.620726,-1.382214 -5.00294,0 l -9.960398,9.960399 -9.960399,-9.960399 C 37.348494,32.35026 36.440063,31.995298 35.538131,31.995298 z" />
    </g>
    <rect
       ry="25"
       rx="25"
       id="rect3003"
       style="opacity:0.15;fill:#ffffff;fill-opacity:1"
       height="92"
       width="92"
       y="958.36218"
       x="-96"
       clip-path="url(#clipPath3009)"
       transform="translate(98,0)" />
  </g>
</svg>
