<?xml version="1.0" encoding="UTF-8" standalone="no"?>
<!-- Created with Inkscape (http://www.inkscape.org/) -->

<svg
   xmlns:dc="http://purl.org/dc/elements/1.1/"
   xmlns:cc="http://creativecommons.org/ns#"
   xmlns:rdf="http://www.w3.org/1999/02/22-rdf-syntax-ns#"
   xmlns:svg="http://www.w3.org/2000/svg"
   xmlns="http://www.w3.org/2000/svg"
   xmlns:xlink="http://www.w3.org/1999/xlink"
   xmlns:sodipodi="http://sodipodi.sourceforge.net/DTD/sodipodi-0.dtd"
   xmlns:inkscape="http://www.inkscape.org/namespaces/inkscape"
   width="96"
   height="96"
   id="svg11037"
   version="1.1"
   inkscape:version="0.48.3.1 r9886"
   sodipodi:docname="templat.svg">
  <defs
     id="defs11039">
    <linearGradient
       y2="1046.1001"
       x2="47.999954"
       y1="962.62189"
       x1="47.999954"
       gradientTransform="matrix(1.15,0,0,1.15,-7.1999462,-150.65291)"
       gradientUnits="userSpaceOnUse"
       id="linearGradient3886"
       xlink:href="#linearGradient3795"
       inkscape:collect="always" />
    <linearGradient
       id="linearGradient3795">
      <stop
         style="stop-color:#13a6fd;stop-opacity:1;"
         offset="0"
         id="stop3797" />
      <stop
         style="stop-color:#2975b6;stop-opacity:1;"
         offset="1"
         id="stop3799" />
    </linearGradient>
    <linearGradient
       y2="1046.1001"
       x2="47.999954"
       y1="962.62189"
       x1="47.999954"
       gradientTransform="matrix(1.15,0,0,1.15,-7.1999462,-150.65292)"
       gradientUnits="userSpaceOnUse"
       id="linearGradient11642"
       xlink:href="#linearGradient3795"
       inkscape:collect="always" />
    <clipPath
       clipPathUnits="userSpaceOnUse"
       id="clipPath3009">
      <path
         id="path3011"
         d="m -2,956.36218 -96,0 0,33.5624 96,25.68742 0,-59.24982 z"
         style="opacity:0.15;fill:#ffffff;fill-opacity:1;stroke:none"
         inkscape:connector-curvature="0" />
    </clipPath>
    <linearGradient
       x1="48"
       y1="90"
       x2="48"
       y2="5.9877172"
       id="linearGradient3617"
       xlink:href="#linearGradient3700"
       gradientUnits="userSpaceOnUse" />
    <linearGradient
       id="linearGradient3700">
      <stop
         id="stop3702"
         style="stop-color:#808080;stop-opacity:1"
         offset="0" />
      <stop
         id="stop3704"
         style="stop-color:#cecece;stop-opacity:1"
         offset="1" />
    </linearGradient>
    <clipPath
       id="clipPath4076">
      <rect
         width="84"
         height="84"
         rx="6"
         ry="6"
         x="6"
         y="6"
         id="rect4078"
         style="fill:#ff00ff;fill-opacity:1;fill-rule:nonzero;stroke:none" />
    </clipPath>
    <radialGradient
       cx="46.916653"
       cy="37.729855"
       r="57.435329"
       fx="46.916653"
       fy="37.729855"
       id="radialGradient3763"
       xlink:href="#linearGradient3729"
       gradientUnits="userSpaceOnUse"
       gradientTransform="matrix(1,0,0,0.29360468,0,26.652193)" />
    <linearGradient
       id="linearGradient3729">
      <stop
         id="stop3731"
         style="stop-color:#ffffff;stop-opacity:1"
         offset="0" />
      <stop
         id="stop3733"
         style="stop-color:#ffffff;stop-opacity:0"
         offset="1" />
    </linearGradient>
    <radialGradient
       cx="46.916653"
       cy="37.729855"
       r="57.435329"
       fx="46.916653"
       fy="37.729855"
       id="radialGradient3735"
       xlink:href="#linearGradient3729"
       gradientUnits="userSpaceOnUse"
       gradientTransform="matrix(1,0,0,0.29360468,0,26.652193)" />
    <linearGradient
       id="linearGradient3105">
      <stop
         id="stop3107"
         style="stop-color:#ffffff;stop-opacity:1"
         offset="0" />
      <stop
         id="stop3109"
         style="stop-color:#ffffff;stop-opacity:0"
         offset="1" />
    </linearGradient>
    <radialGradient
       cx="46.916653"
       cy="37.729855"
       r="57.435329"
       fx="46.916653"
       fy="37.729855"
       id="radialGradient3739"
       xlink:href="#linearGradient3729"
       gradientUnits="userSpaceOnUse"
       gradientTransform="matrix(1,0,0,0.29360468,0,26.652193)" />
    <linearGradient
       id="linearGradient3112">
      <stop
         id="stop3114"
         style="stop-color:#ffffff;stop-opacity:1"
         offset="0" />
      <stop
         id="stop3116"
         style="stop-color:#ffffff;stop-opacity:0"
         offset="1" />
    </linearGradient>
    <radialGradient
       cx="46.916653"
       cy="37.729855"
       r="57.435329"
       fx="46.916653"
       fy="37.729855"
       id="radialGradient3751"
       xlink:href="#linearGradient3729"
       gradientUnits="userSpaceOnUse"
       gradientTransform="matrix(1,0,0,0.29360468,0,26.652193)" />
    <linearGradient
       id="linearGradient3119">
      <stop
         id="stop3121"
         style="stop-color:#ffffff;stop-opacity:1"
         offset="0" />
      <stop
         id="stop3123"
         style="stop-color:#ffffff;stop-opacity:0"
         offset="1" />
    </linearGradient>
    <radialGradient
       cx="46.916653"
       cy="37.729855"
       r="57.435329"
       fx="46.916653"
       fy="37.729855"
       id="radialGradient3755"
       xlink:href="#linearGradient3729"
       gradientUnits="userSpaceOnUse"
       gradientTransform="matrix(1,0,0,0.29360468,0,26.652193)" />
    <linearGradient
       id="linearGradient3126">
      <stop
         id="stop3128"
         style="stop-color:#ffffff;stop-opacity:1"
         offset="0" />
      <stop
         id="stop3130"
         style="stop-color:#ffffff;stop-opacity:0"
         offset="1" />
    </linearGradient>
    <radialGradient
       cx="46.916653"
       cy="37.729855"
       r="57.435329"
       fx="46.916653"
       fy="37.729855"
       id="radialGradient3759"
       xlink:href="#linearGradient3729"
       gradientUnits="userSpaceOnUse"
       gradientTransform="matrix(1,0,0,0.29360468,0,26.652193)" />
    <linearGradient
       id="linearGradient3133">
      <stop
         id="stop3135"
         style="stop-color:#ffffff;stop-opacity:1"
         offset="0" />
      <stop
         id="stop3137"
         style="stop-color:#ffffff;stop-opacity:0"
         offset="1" />
    </linearGradient>
    <filter
       x="-0.14674477"
       y="-0.65842283"
       width="1.2934896"
       height="2.3168457"
       color-interpolation-filters="sRGB"
       id="filter3850">
      <feGaussianBlur
         id="feGaussianBlur3852"
         stdDeviation="6.333489" />
    </filter>
    <filter
       x="-0.12863521"
       y="-0.29965332"
       width="1.2572705"
       height="1.5993066"
       color-interpolation-filters="sRGB"
       id="filter3866">
      <feGaussianBlur
         id="feGaussianBlur3868"
         stdDeviation="3.5967545" />
    </filter>
    <filter
       x="-0.091875888"
       y="-0.17293803"
       width="1.1837518"
       height="1.3458761"
       color-interpolation-filters="sRGB"
       id="filter3886">
      <feGaussianBlur
         id="feGaussianBlur3888"
         stdDeviation="2.6148777" />
    </filter>
    <filter
       x="-0.071156599"
       y="-0.38267896"
       width="1.1423132"
       height="1.7653579"
       color-interpolation-filters="sRGB"
       id="filter3895">
      <feGaussianBlur
         id="feGaussianBlur3897"
         stdDeviation="1.9987577" />
    </filter>
    <filter
       x="-0.15230533"
       y="-0.5657469"
       width="1.3046107"
       height="2.1314938"
       color-interpolation-filters="sRGB"
       id="filter3966">
      <feGaussianBlur
         id="feGaussianBlur3968"
         stdDeviation="3.3648619" />
    </filter>
    <linearGradient
       x1="48"
       y1="20.220806"
       x2="48"
       y2="138.66119"
       id="linearGradient3613"
       xlink:href="#linearGradient3737"
       gradientUnits="userSpaceOnUse" />
    <linearGradient
       id="linearGradient3737">
      <stop
         id="stop3739"
         style="stop-color:#ffffff;stop-opacity:1"
         offset="0" />
      <stop
         id="stop3741"
         style="stop-color:#ffffff;stop-opacity:0"
         offset="1" />
    </linearGradient>
    <clipPath
       id="clipPath3613">
      <rect
         width="84"
         height="84"
         rx="6"
         ry="6"
         x="6"
         y="6"
         id="rect3615"
         style="fill:#ffffff;fill-opacity:1;fill-rule:nonzero;stroke:none" />
    </clipPath>
    <filter
       x="-0.192"
       y="-0.192"
       width="1.3839999"
       height="1.3839999"
       color-interpolation-filters="sRGB"
       id="filter3794">
      <feGaussianBlur
         id="feGaussianBlur3796"
         stdDeviation="5.28" />
    </filter>
    <clipPath
       clipPathUnits="userSpaceOnUse"
       id="clipPath3138">
      <rect
         x="6"
         y="6.0000038"
         width="84"
         height="84"
         style="fill:url(#linearGradient3142);fill-opacity:1"
         id="rect3140"
         rx="22.826086"
         ry="22.826086" />
    </clipPath>
    <linearGradient
       inkscape:collect="always"
       xlink:href="#linearGradient3795"
       id="linearGradient3142"
       gradientUnits="userSpaceOnUse"
       gradientTransform="matrix(1.05,0,0,1.05,-2.3999508,-1006.579)"
       x1="47.999954"
       y1="962.62189"
       x2="47.999954"
       y2="1046.1001" />
  </defs>
  <sodipodi:namedview
     id="base"
     pagecolor="#ffffff"
     bordercolor="#666666"
     borderopacity="1.0"
     inkscape:pageopacity="0.0"
     inkscape:pageshadow="2"
     inkscape:zoom="3.959798"
     inkscape:cx="33.538031"
     inkscape:cy="59.964634"
     inkscape:document-units="px"
     inkscape:current-layer="layer1"
     showgrid="false"
     inkscape:window-width="1280"
     inkscape:window-height="750"
     inkscape:window-x="0"
     inkscape:window-y="22"
     inkscape:window-maximized="1"
     showguides="true"
     inkscape:guide-bbox="true">
    <sodipodi:guide
       orientation="0,1"
       position="-24.748737,0"
       id="guide11064" />
    <sodipodi:guide
       orientation="0,1"
       position="-23.233509,96"
       id="guide11066" />
    <sodipodi:guide
       orientation="1,0"
       position="0,54.800776"
       id="guide11068" />
    <sodipodi:guide
       orientation="1,0"
       position="96,51.012704"
       id="guide11070" />
    <sodipodi:guide
       orientation="0,1"
       position="-18.94036,48"
       id="guide11072" />
    <sodipodi:guide
       orientation="1,0"
       position="48,79.296975"
       id="guide11074" />
    <sodipodi:guide
       orientation="1,0"
       position="2,75.508903"
       id="guide11076" />
    <sodipodi:guide
       orientation="0,1"
       position="-77.27667,2"
       id="guide11078" />
    <sodipodi:guide
       orientation="1,0"
       position="94,77.781746"
       id="guide11080" />
    <sodipodi:guide
       orientation="0,1"
       position="-65.912454,94"
       id="guide11082" />
  </sodipodi:namedview>
  <metadata
     id="metadata11042">
    <rdf:RDF>
      <cc:Work
         rdf:about="">
        <dc:format>image/svg+xml</dc:format>
        <dc:type
           rdf:resource="http://purl.org/dc/dcmitype/StillImage" />
        <dc:title></dc:title>
      </cc:Work>
    </rdf:RDF>
  </metadata>
  <g
     inkscape:label="Layer 1"
     inkscape:groupmode="layer"
     id="layer1"
     transform="translate(0,-956.36218)">
    <g
       transform="matrix(1.0952381,0,0,1.0952381,-4.5714286,951.79075)"
       id="g3065"
       clip-path="url(#clipPath3138)">
      <g
         id="layer1-8">
        <rect
           style="fill:url(#linearGradient3617);fill-opacity:1;fill-rule:nonzero;stroke:none"
           id="rect2419"
           y="6"
           x="6"
           ry="6"
           rx="6"
           height="84"
           width="84" />
      </g>
      <g
         id="layer4">
        <g
           id="g4062"
           clip-path="url(#clipPath4076)">
          <path
             inkscape:connector-curvature="0"
             style="opacity:0.4;color:#000000;fill:url(#radialGradient3763);fill-opacity:1;fill-rule:nonzero;stroke:none;stroke-width:1.5;marker:none;visibility:visible;display:inline;overflow:visible;enable-background:accumulate"
             id="path3761"
             transform="matrix(1.2790698,0,0,1.4083583,-17.934951,22.541241)"
             d="m 104.35198,37.729855 a 57.435329,16.863281 0 1 1 -114.870657,0 57.435329,16.863281 0 1 1 114.870657,0 z" />
          <path
             inkscape:connector-curvature="0"
             style="opacity:0.3;color:#000000;fill:url(#radialGradient3735);fill-opacity:1;fill-rule:nonzero;stroke:none;stroke-width:1.5;marker:none;visibility:visible;display:inline;overflow:visible;enable-background:accumulate"
             id="path2955"
             transform="matrix(1,0,0,0.83663367,0,8.9186801)"
             d="m 104.35198,37.729855 a 57.435329,16.863281 0 1 1 -114.870657,0 57.435329,16.863281 0 1 1 114.870657,0 z" />
          <path
             inkscape:connector-curvature="0"
             style="opacity:0.4;color:#000000;fill:url(#radialGradient3739);fill-opacity:1;fill-rule:nonzero;stroke:none;stroke-width:1.5;marker:none;visibility:visible;display:inline;overflow:visible;enable-background:accumulate"
             id="path3737"
             transform="matrix(1,0,0,1.019802,-20.870396,19.954528)"
             d="m 104.35198,37.729855 a 57.435329,16.863281 0 1 1 -114.870657,0 57.435329,16.863281 0 1 1 114.870657,0 z" />
          <path
             inkscape:connector-curvature="0"
             style="opacity:0.3;color:#000000;fill:url(#radialGradient3751);fill-opacity:1;fill-rule:nonzero;stroke:none;stroke-width:1.5;marker:none;visibility:visible;display:inline;overflow:visible;enable-background:accumulate"
             id="path3749"
             transform="matrix(1,0,0,0.83663367,-9.683864,56.336221)"
             d="m 104.35198,37.729855 a 57.435329,16.863281 0 1 1 -114.870657,0 57.435329,16.863281 0 1 1 114.870657,0 z" />
          <path
             inkscape:connector-curvature="0"
             style="opacity:0.4;color:#000000;fill:url(#radialGradient3755);fill-opacity:1;fill-rule:nonzero;stroke:none;stroke-width:1.5;marker:none;visibility:visible;display:inline;overflow:visible;enable-background:accumulate"
             id="path3753"
             transform="matrix(0.70388352,0,0,0.71782182,36.744054,-14.149269)"
             d="m 104.35198,37.729855 a 57.435329,16.863281 0 1 1 -114.870657,0 57.435329,16.863281 0 1 1 114.870657,0 z" />
          <path
             inkscape:connector-curvature="0"
             style="opacity:0.2;color:#000000;fill:url(#radialGradient3759);fill-opacity:1;fill-rule:nonzero;stroke:none;stroke-width:1.5;marker:none;visibility:visible;display:inline;overflow:visible;enable-background:accumulate"
             id="path3757"
             transform="matrix(0.94048557,0,0,0.30888072,19.075642,41.019033)"
             d="m 104.35198,37.729855 a 57.435329,16.863281 0 1 1 -114.870657,0 57.435329,16.863281 0 1 1 114.870657,0 z" />
          <path
             style="opacity:0.2;fill:#ffffff;stroke:none;filter:url(#filter3850)"
             id="path3789"
             inkscape:connector-curvature="0"
             d="M 60.106742,22.536204 C 47.662268,21.56782 35.112214,22.422077 22.720141,20.705407 c -1.087209,2.847996 7.207295,5.124133 1.963071,6.565104 -6.663016,0.299567 -13.570393,-1.699892 -20.0289655,0.720229 -3.0092777,-1.916193 -12.0225924,0.314627 -7.3488787,4.222664 4.2477502,1.691261 8.4881879,-1.544265 12.8055782,-0.680582 7.559959,-0.02414 15.43809,-1.299245 22.695256,1.47983 3.575939,2.875946 5.452038,9.822684 11.21548,8.355705 13.124249,-1.817315 26.393021,-1.245426 39.56382,-0.36128 4.535405,0.255129 9.075786,0.4672 13.619439,0.46099 3.826899,1.961739 2.520271,-5.648732 -0.459135,-2.711892 -7.977674,0.03327 -15.794815,-3.692047 -23.786252,-1.843257 -3.724286,-1.59139 0.7425,-11.039806 -5.642682,-7.865393 -5.275462,0.846481 -4.642212,-8.35804 0.654123,-5.677699 3.555598,0.605862 10.82452,3.037793 11.15981,-2.555326 -2.9854,-4.468071 -8.389914,-0.448887 -12.44559,-0.349853 -2.272494,0.365185 -4.60065,0.829212 -6.578473,2.071557 z" />
          <path
             style="opacity:0.1;fill:#ffffff;stroke:none;filter:url(#filter3866)"
             id="path3854"
             inkscape:connector-curvature="0"
             d="M -1.3357054,52.088686 C 5.3967925,50.877579 12.254623,51.60276 19.046576,51.420833 c -0.391916,2.171178 -6.585501,1.072086 -4.342946,3.49481 4.264015,0.861182 8.65448,0.319303 12.955142,0.600788 1.673543,-0.712331 6.140279,1.481649 2.659809,2.397649 -1.025263,-0.20768 -4.345525,-0.264565 -3.290915,1.076257 3.979682,0.459241 7.991993,0.683184 11.985195,0.310938 8.717618,0.05365 17.432876,-0.206335 26.14958,-0.158531 2.457352,2.080094 -3.232438,2.252796 -4.686803,2.114995 -1.212344,-0.296031 -5.735068,-0.254167 -3.987995,1.511215 1.311478,0.181989 5.562932,-0.09401 3.88306,1.930164 -5.422836,1.38082 -11.101529,-0.204085 -16.537375,1.183034 -5.337955,0.806432 -10.831467,0.998721 -15.959617,2.8339 -2.135087,3.259554 3.447166,3.422056 5.463172,2.898102 3.46682,0.142153 6.976507,-0.214099 10.415657,0.160429 1.365461,0.02787 5.320618,1.08595 2.496823,2.458178 -5.029543,1.051807 -10.20826,0.335609 -15.284187,0.961206 -5.80979,0.256455 -11.626605,0.290839 -17.441159,0.269576 -0.158923,3.282564 5.932216,0.509616 5.134352,3.882583 C 13.60152,80.728705 8.3282648,79.913526 3.1686387,80.133492 0.38732599,79.457151 0.8799314,76.025249 1.8674125,74.054454 4.6559246,68.86584 4.2086683,62.785967 4.2253915,57.091426 4.2133971,53.788113 0.44641037,53.143612 -1.3357054,52.088686 z" />
          <path
             style="opacity:0.1;fill:#ffffff;stroke:none;filter:url(#filter3886)"
             id="path3870"
             inkscape:connector-curvature="0"
             d="m 61.60941,37.56289 c -11.631767,5.2e-5 -23.263535,-6.9e-5 -34.895302,0 -1.159225,0.394159 -5.974344,1.187391 -2.436164,1.896731 1.314288,-0.439796 5.899728,0.506553 3.056754,1.86314 -4.409241,1.356286 -9.348586,-0.05556 -13.53314,2.21394 -1.060928,2.35808 3.851335,1.455671 5.242343,1.823114 5.303461,0.117361 10.615571,-0.537032 15.90716,-0.28829 2.138933,-0.888292 5.973778,2.488526 2.580711,3.106519 -2.002247,-1.16588 -5.836635,2.553022 -2.076687,2.429889 3.275814,0.22068 2.747146,3.882536 -0.415957,3.540779 -3.17592,0.702783 -7.158478,0.180803 -9.44162,2.95043 -1.65987,4.01752 4.441234,3.858701 6.790687,2.818427 4.015364,-0.511342 8.084654,-0.158094 12.096826,-0.234079 2.71718,0.155158 2.578419,2.988347 0.540026,3.716229 0.203666,3.371411 4.729058,1.956029 6.934359,1.854772 5.685282,-0.70677 11.387989,-1.274929 17.081674,-1.914 3.144328,-2.152077 -2.586589,-2.430194 -3.885838,-3.137782 -2.173172,-1.121992 -8.852172,-1.560759 -5.556667,-5.051851 2.187849,-1.297481 4.930818,-0.970598 7.143857,-2.225251 2.335392,-0.703158 6.975493,0.45947 7.080112,-3.082542 -1.038701,-2.054043 -8.301858,-0.508779 -5.033911,-3.788952 2.951976,-1.588613 6.398315,-1.589766 9.552706,-2.544678 2.910516,0.645081 5.656172,-4.084057 1.490575,-4.210892 -3.380997,-0.876745 -7.327512,1.546487 -10.338493,-0.582326 -1.636953,-4.026849 4.09438,-3.748515 6.444713,-4.704695 3.577774,-1.032833 1.513794,-4.480948 -1.351166,-4.157943 -5.857971,-0.691363 -11.777219,-0.03738 -17.659672,-0.325967 -2.252464,-0.922165 -4.414688,1.916014 -1.565197,2.948241 2.77138,0.879598 6.595554,-0.363391 8.583673,2.555811 1.399099,2.020415 -0.156234,4.041819 -2.336362,2.531226 z" />
          <path
             style="opacity:0.1;fill:#ffffff;stroke:none;filter:url(#filter3895)"
             id="path3890"
             inkscape:connector-curvature="0"
             d="m 101.34665,70.514856 c -6.84651,1.103667 -13.797459,0.519456 -20.695789,0.673193 -7.695895,0.05407 -15.405693,-0.127397 -23.092915,0.07721 -1.334795,1.120416 3.028361,1.281765 3.996663,1.83024 1.165124,0.581944 3.498345,-0.208395 3.995991,0.776338 -3.493596,1.025 -7.235831,0.513184 -10.83664,0.658662 -3.850539,0.115904 -7.76758,-0.42478 -11.534267,0.588089 -2.397023,0.571561 -5.081224,0.672582 -7.388115,0.851407 2.591011,0.794255 5.383366,0.640818 7.942177,1.559928 0.784933,1.808787 -4.159854,1.177803 -1.206397,1.958897 5.323507,0.303316 10.69483,-0.612902 15.986905,0.160365 2.446272,1.40716 -2.962472,2.155976 -0.168646,2.853102 2.853115,0.537571 5.768352,-0.461728 8.670141,-0.266572 5.026171,-0.0535 10.058961,-0.07789 15.082621,0.02261 3.466996,0.784432 7.03224,0.587904 10.56169,0.668444 2.949512,0.18298 5.917713,0.12236 8.869801,0.07116 2.86373,-0.630136 1.28376,-4.036643 0.85863,-5.930354 -0.72639,-2.124287 0.15351,-4.590261 -1.04185,-6.552723 z" />
          <path
             style="opacity:0.3;fill:#ffffff;stroke:none;filter:url(#filter3966)"
             id="path3956"
             inkscape:connector-curvature="0"
             d="m 25.710549,35.710284 c 3.914062,0.536072 7.93943,-0.361101 11.796181,0.658619 2.136167,0.266509 4.416129,-0.455513 6.438299,0.52899 -0.907785,1.646564 -3.352615,0.878689 -4.908933,1.453441 -3.097089,0.434879 -6.273718,-0.03452 -9.34374,0.576762 -1.731799,1.530048 2.599727,2.112459 3.787962,1.785117 2.847632,-0.02599 5.679219,-0.56714 8.530144,-0.325373 6.081896,-0.209013 12.15196,0.503427 18.098311,1.745814 1.807116,-0.202971 4.339144,2.856147 1.454329,3.288333 -3.485184,-0.013 -6.967793,0.312065 -10.451056,0.01957 -7.254304,-0.132585 -14.510362,0.0075 -21.765592,-0.04741 -3.438144,1e-6 -6.876287,1e-6 -10.314431,2e-6 -0.172149,2.360506 3.471069,0.488963 4.827119,1.484096 1.395939,0.02418 5.439481,0.01145 3.789703,2.277559 -1.747913,1.420965 -4.086665,0.523383 -6.109548,0.53658 -2.752918,-0.769622 -5.559833,-1.322189 -8.327947,-2.031619 -2.163213,0.714548 -5.255471,-2.518615 -1.842057,-3.136364 2.240412,-0.964489 4.699288,-1.467878 7.141175,-1.314723 1.878921,-0.617089 4.313839,0.106933 5.772653,-1.504367 0.458924,-2.930085 -4.242126,-2.227162 -5.915049,-3.599128 0.704026,-2.510801 4.176569,-1.154332 6.023706,-2.240201 0.650781,-0.138635 1.3212,-0.225518 1.986626,-0.155712" />
        </g>
      </g>
      <g
         style="display:inline"
         id="layer5">
        <rect
           style="opacity:0.1;fill:url(#linearGradient3613);fill-opacity:1;fill-rule:nonzero;stroke:#ffffff;stroke-width:0.5;stroke-linecap:round;stroke-linejoin:miter;stroke-miterlimit:4;stroke-opacity:1;stroke-dasharray:none;stroke-dashoffset:0;filter:url(#filter3794)"
           id="rect3171"
           clip-path="url(#clipPath3613)"
           y="15"
           x="15"
           ry="12"
           rx="12"
           height="66"
           width="66" />
      </g>
    </g>
    <rect
       ry="25"
       rx="25"
       id="rect3003"
       style="opacity:0.15;fill:#ffffff;fill-opacity:1"
       height="92"
       width="92"
       y="958.36218"
       x="-96"
       clip-path="url(#clipPath3009)"
       transform="translate(98,0)" />
  </g>
</svg>
