<?xml version="1.0" encoding="UTF-8" standalone="no"?>
<!-- Created with Inkscape (http://www.inkscape.org/) -->

<svg
   xmlns:dc="http://purl.org/dc/elements/1.1/"
   xmlns:cc="http://creativecommons.org/ns#"
   xmlns:rdf="http://www.w3.org/1999/02/22-rdf-syntax-ns#"
   xmlns:svg="http://www.w3.org/2000/svg"
   xmlns="http://www.w3.org/2000/svg"
   xmlns:xlink="http://www.w3.org/1999/xlink"
   xmlns:sodipodi="http://sodipodi.sourceforge.net/DTD/sodipodi-0.dtd"
   xmlns:inkscape="http://www.inkscape.org/namespaces/inkscape"
   width="96"
   height="96"
   id="svg11037"
   version="1.1"
   inkscape:version="0.48.3.1 r9886"
   sodipodi:docname="templat.svg">
  <defs
     id="defs11039">
    <linearGradient
       y2="1046.1001"
       x2="47.999954"
       y1="962.62189"
       x1="47.999954"
       gradientTransform="matrix(1.15,0,0,1.15,-7.1999462,-150.65291)"
       gradientUnits="userSpaceOnUse"
       id="linearGradient3886"
       xlink:href="#linearGradient3795"
       inkscape:collect="always" />
    <linearGradient
       id="linearGradient3795">
      <stop
         style="stop-color:#13a6fd;stop-opacity:1;"
         offset="0"
         id="stop3797" />
      <stop
         style="stop-color:#2975b6;stop-opacity:1;"
         offset="1"
         id="stop3799" />
    </linearGradient>
    <linearGradient
       y2="1046.1001"
       x2="47.999954"
       y1="962.62189"
       x1="47.999954"
       gradientTransform="matrix(1.15,0,0,1.15,-7.1999462,-150.65292)"
       gradientUnits="userSpaceOnUse"
       id="linearGradient11642"
       xlink:href="#linearGradient3806-0"
       inkscape:collect="always" />
    <clipPath
       clipPathUnits="userSpaceOnUse"
       id="clipPath3009">
      <path
         id="path3011"
         d="m -2,956.36218 -96,0 0,33.5624 96,25.68742 0,-59.24982 z"
         style="opacity:0.15;fill:#ffffff;fill-opacity:1;stroke:none"
         inkscape:connector-curvature="0" />
    </clipPath>
    <linearGradient
       x1="48"
       y1="90"
       x2="48"
       y2="6.9368291"
       id="linearGradient4134"
       xlink:href="#linearGradient3806-0"
       gradientUnits="userSpaceOnUse"
       gradientTransform="translate(-97.016949,-0.40677966)" />
    <linearGradient
       id="linearGradient3806-0">
      <stop
         id="stop3808-0"
         style="stop-color:#656290;stop-opacity:1"
         offset="0" />
      <stop
         id="stop3810-4"
         style="stop-color:#484373;stop-opacity:1"
         offset="1" />
    </linearGradient>
    <linearGradient
       y2="6.9368291"
       x2="48"
       y1="90"
       x1="48"
       gradientTransform="translate(-133.86296,930.87358)"
       gradientUnits="userSpaceOnUse"
       id="linearGradient3162"
       xlink:href="#linearGradient3806-0"
       inkscape:collect="always" />
    <radialGradient
       cx="64"
       cy="32"
       r="32"
       fx="64"
       fy="32"
       id="radialGradient3891"
       xlink:href="#linearGradient3752-3"
       gradientUnits="userSpaceOnUse" />
    <linearGradient
       id="linearGradient3752-3">
      <stop
         id="stop3754-6"
         style="stop-color:#ffffff;stop-opacity:1"
         offset="0" />
      <stop
         id="stop3756-2"
         style="stop-color:#ffffff;stop-opacity:1"
         offset="0.77642262" />
      <stop
         id="stop3758-7"
         style="stop-color:#bebdc7;stop-opacity:0"
         offset="1" />
    </linearGradient>
    <radialGradient
       cx="52.148148"
       cy="43.851852"
       r="32"
       fx="52.148148"
       fy="43.851852"
       id="radialGradient3897"
       xlink:href="#linearGradient3899"
       gradientUnits="userSpaceOnUse"
       gradientTransform="matrix(1.2641518,-5.24248e-8,5.304999e-8,1.2792274,-13.775027,-12.244636)" />
    <linearGradient
       id="linearGradient3899">
      <stop
         id="stop3901"
         style="stop-color:#f7edc4;stop-opacity:1"
         offset="0" />
      <stop
         id="stop3903"
         style="stop-color:#c7b586;stop-opacity:1"
         offset="0.80000001" />
      <stop
         id="stop3905"
         style="stop-color:#9d8c64;stop-opacity:1"
         offset="1" />
    </linearGradient>
    <linearGradient
       x1="21"
       y1="43.000004"
       x2="75"
       y2="43.000004"
       id="linearGradient3818"
       xlink:href="#linearGradient3812"
       gradientUnits="userSpaceOnUse"
       gradientTransform="matrix(0,1,-1,0,91.000004,-4.999996)" />
    <linearGradient
       id="linearGradient3812">
      <stop
         id="stop3814"
         style="stop-color:#a49265;stop-opacity:1"
         offset="0" />
      <stop
         id="stop3816"
         style="stop-color:#ece8df;stop-opacity:1"
         offset="1" />
    </linearGradient>
    <linearGradient
       x1="59.578266"
       y1="22.91832"
       x2="28.571617"
       y2="87.367798"
       id="linearGradient4031"
       xlink:href="#linearGradient4025"
       gradientUnits="userSpaceOnUse" />
    <linearGradient
       id="linearGradient4025">
      <stop
         id="stop4027"
         style="stop-color:#a18a56;stop-opacity:1"
         offset="0" />
      <stop
         id="stop4029"
         style="stop-color:#a18a56;stop-opacity:0"
         offset="1" />
    </linearGradient>
    <filter
       color-interpolation-filters="sRGB"
       id="filter4045">
      <feGaussianBlur
         id="feGaussianBlur4047"
         stdDeviation="0.46710064" />
    </filter>
    <filter
       color-interpolation-filters="sRGB"
       id="filter4057">
      <feGaussianBlur
         id="feGaussianBlur4059"
         stdDeviation="0.4121875" />
    </filter>
    <filter
       color-interpolation-filters="sRGB"
       id="filter4082">
      <feGaussianBlur
         id="feGaussianBlur4084"
         stdDeviation="0.3846875" />
    </filter>
    <linearGradient
       x1="64.995598"
       y1="-0.90906203"
       x2="64.995598"
       y2="55.535763"
       id="linearGradient3034"
       xlink:href="#linearGradient4090"
       gradientUnits="userSpaceOnUse" />
    <linearGradient
       id="linearGradient4090">
      <stop
         id="stop4092"
         style="stop-color:#ffffff;stop-opacity:1"
         offset="0" />
      <stop
         id="stop4094"
         style="stop-color:#ffffff;stop-opacity:0"
         offset="1" />
    </linearGradient>
    <radialGradient
       cx="18"
       cy="18"
       r="2"
       fx="18"
       fy="18"
       id="radialGradient4269"
       xlink:href="#linearGradient4263"
       gradientUnits="userSpaceOnUse" />
    <linearGradient
       id="linearGradient4263">
      <stop
         id="stop4265"
         style="stop-color:#ffffff;stop-opacity:1"
         offset="0" />
      <stop
         id="stop4279"
         style="stop-color:#ffffff;stop-opacity:0.24031007"
         offset="0.5" />
      <stop
         id="stop4267"
         style="stop-color:#ffffff;stop-opacity:0"
         offset="1" />
    </linearGradient>
    <radialGradient
       cx="18"
       cy="18"
       r="2"
       fx="18"
       fy="18"
       id="radialGradient4273"
       xlink:href="#linearGradient4263"
       gradientUnits="userSpaceOnUse" />
    <linearGradient
       id="linearGradient3314">
      <stop
         id="stop3316"
         style="stop-color:#ffffff;stop-opacity:1"
         offset="0" />
      <stop
         id="stop3318"
         style="stop-color:#ffffff;stop-opacity:0.24031007"
         offset="0.5" />
      <stop
         id="stop3320"
         style="stop-color:#ffffff;stop-opacity:0"
         offset="1" />
    </linearGradient>
    <radialGradient
       cx="18"
       cy="18"
       r="2"
       fx="18"
       fy="18"
       id="radialGradient4277"
       xlink:href="#linearGradient4263"
       gradientUnits="userSpaceOnUse" />
    <linearGradient
       id="linearGradient3323">
      <stop
         id="stop3325"
         style="stop-color:#ffffff;stop-opacity:1"
         offset="0" />
      <stop
         id="stop3327"
         style="stop-color:#ffffff;stop-opacity:0.24031007"
         offset="0.5" />
      <stop
         id="stop3329"
         style="stop-color:#ffffff;stop-opacity:0"
         offset="1" />
    </linearGradient>
    <radialGradient
       cx="18"
       cy="18"
       r="2"
       fx="18"
       fy="18"
       id="radialGradient4283"
       xlink:href="#linearGradient4263"
       gradientUnits="userSpaceOnUse" />
    <linearGradient
       id="linearGradient3332">
      <stop
         id="stop3334"
         style="stop-color:#ffffff;stop-opacity:1"
         offset="0" />
      <stop
         id="stop3336"
         style="stop-color:#ffffff;stop-opacity:0.24031007"
         offset="0.5" />
      <stop
         id="stop3338"
         style="stop-color:#ffffff;stop-opacity:0"
         offset="1" />
    </linearGradient>
    <radialGradient
       cx="18"
       cy="18"
       r="2"
       fx="18"
       fy="18"
       id="radialGradient4287"
       xlink:href="#linearGradient4263"
       gradientUnits="userSpaceOnUse" />
    <linearGradient
       id="linearGradient3341">
      <stop
         id="stop3343"
         style="stop-color:#ffffff;stop-opacity:1"
         offset="0" />
      <stop
         id="stop3345"
         style="stop-color:#ffffff;stop-opacity:0.24031007"
         offset="0.5" />
      <stop
         id="stop3347"
         style="stop-color:#ffffff;stop-opacity:0"
         offset="1" />
    </linearGradient>
    <radialGradient
       cx="18"
       cy="18"
       r="2"
       fx="18"
       fy="18"
       id="radialGradient4291"
       xlink:href="#linearGradient4263"
       gradientUnits="userSpaceOnUse" />
    <linearGradient
       id="linearGradient3350">
      <stop
         id="stop3352"
         style="stop-color:#ffffff;stop-opacity:1"
         offset="0" />
      <stop
         id="stop3354"
         style="stop-color:#ffffff;stop-opacity:0.24031007"
         offset="0.5" />
      <stop
         id="stop3356"
         style="stop-color:#ffffff;stop-opacity:0"
         offset="1" />
    </linearGradient>
    <radialGradient
       cx="18"
       cy="18"
       r="2"
       fx="18"
       fy="18"
       id="radialGradient4295"
       xlink:href="#linearGradient4263"
       gradientUnits="userSpaceOnUse" />
    <linearGradient
       id="linearGradient3359">
      <stop
         id="stop3361"
         style="stop-color:#ffffff;stop-opacity:1"
         offset="0" />
      <stop
         id="stop3363"
         style="stop-color:#ffffff;stop-opacity:0.24031007"
         offset="0.5" />
      <stop
         id="stop3365"
         style="stop-color:#ffffff;stop-opacity:0"
         offset="1" />
    </linearGradient>
    <radialGradient
       cx="18"
       cy="18"
       r="2"
       fx="18"
       fy="18"
       id="radialGradient4299"
       xlink:href="#linearGradient4263"
       gradientUnits="userSpaceOnUse" />
    <linearGradient
       id="linearGradient3368">
      <stop
         id="stop3370"
         style="stop-color:#ffffff;stop-opacity:1"
         offset="0" />
      <stop
         id="stop3372"
         style="stop-color:#ffffff;stop-opacity:0.24031007"
         offset="0.5" />
      <stop
         id="stop3374"
         style="stop-color:#ffffff;stop-opacity:0"
         offset="1" />
    </linearGradient>
    <radialGradient
       cx="18"
       cy="18"
       r="2"
       fx="18"
       fy="18"
       id="radialGradient4303"
       xlink:href="#linearGradient4263"
       gradientUnits="userSpaceOnUse" />
    <linearGradient
       id="linearGradient3377">
      <stop
         id="stop3379"
         style="stop-color:#ffffff;stop-opacity:1"
         offset="0" />
      <stop
         id="stop3381"
         style="stop-color:#ffffff;stop-opacity:0.24031007"
         offset="0.5" />
      <stop
         id="stop3383"
         style="stop-color:#ffffff;stop-opacity:0"
         offset="1" />
    </linearGradient>
    <radialGradient
       cx="18"
       cy="18"
       r="2"
       fx="18"
       fy="18"
       id="radialGradient4308"
       xlink:href="#linearGradient4263"
       gradientUnits="userSpaceOnUse" />
    <linearGradient
       id="linearGradient3386">
      <stop
         id="stop3388"
         style="stop-color:#ffffff;stop-opacity:1"
         offset="0" />
      <stop
         id="stop3390"
         style="stop-color:#ffffff;stop-opacity:0.24031007"
         offset="0.5" />
      <stop
         id="stop3392"
         style="stop-color:#ffffff;stop-opacity:0"
         offset="1" />
    </linearGradient>
    <radialGradient
       cx="18"
       cy="18"
       r="2"
       fx="18"
       fy="18"
       id="radialGradient4316"
       xlink:href="#linearGradient4263"
       gradientUnits="userSpaceOnUse" />
    <linearGradient
       id="linearGradient3395">
      <stop
         id="stop3397"
         style="stop-color:#ffffff;stop-opacity:1"
         offset="0" />
      <stop
         id="stop3399"
         style="stop-color:#ffffff;stop-opacity:0.24031007"
         offset="0.5" />
      <stop
         id="stop3401"
         style="stop-color:#ffffff;stop-opacity:0"
         offset="1" />
    </linearGradient>
    <linearGradient
       x1="36.357143"
       y1="6"
       x2="36.357143"
       y2="63.893143"
       id="linearGradient3188"
       xlink:href="#linearGradient3737"
       gradientUnits="userSpaceOnUse" />
    <linearGradient
       id="linearGradient3737">
      <stop
         id="stop3739"
         style="stop-color:#ffffff;stop-opacity:1"
         offset="0" />
      <stop
         id="stop3741"
         style="stop-color:#ffffff;stop-opacity:0"
         offset="1" />
    </linearGradient>
    <radialGradient
       cx="48"
       cy="90.171875"
       r="42"
       fx="48"
       fy="90.171875"
       id="radialGradient3619"
       xlink:href="#linearGradient3737"
       gradientUnits="userSpaceOnUse"
       gradientTransform="matrix(1.1573129,0,0,0.99590774,-7.5510206,0.19713193)" />
    <linearGradient
       id="linearGradient3408">
      <stop
         id="stop3410"
         style="stop-color:#ffffff;stop-opacity:1"
         offset="0" />
      <stop
         id="stop3412"
         style="stop-color:#ffffff;stop-opacity:0"
         offset="1" />
    </linearGradient>
  </defs>
  <sodipodi:namedview
     id="base"
     pagecolor="#ffffff"
     bordercolor="#666666"
     borderopacity="1.0"
     inkscape:pageopacity="0.0"
     inkscape:pageshadow="2"
     inkscape:zoom="3.959798"
     inkscape:cx="29.118614"
     inkscape:cy="59.964634"
     inkscape:document-units="px"
     inkscape:current-layer="layer1"
     showgrid="false"
     inkscape:window-width="1280"
     inkscape:window-height="750"
     inkscape:window-x="0"
     inkscape:window-y="22"
     inkscape:window-maximized="1"
     showguides="true"
     inkscape:guide-bbox="true">
    <sodipodi:guide
       orientation="0,1"
       position="-24.748737,0"
       id="guide11064" />
    <sodipodi:guide
       orientation="0,1"
       position="-23.233509,96"
       id="guide11066" />
    <sodipodi:guide
       orientation="1,0"
       position="0,54.800776"
       id="guide11068" />
    <sodipodi:guide
       orientation="1,0"
       position="96,51.012704"
       id="guide11070" />
    <sodipodi:guide
       orientation="0,1"
       position="-18.94036,48"
       id="guide11072" />
    <sodipodi:guide
       orientation="1,0"
       position="48,79.296975"
       id="guide11074" />
    <sodipodi:guide
       orientation="1,0"
       position="2,75.508903"
       id="guide11076" />
    <sodipodi:guide
       orientation="0,1"
       position="-77.27667,2"
       id="guide11078" />
    <sodipodi:guide
       orientation="1,0"
       position="94,77.781746"
       id="guide11080" />
    <sodipodi:guide
       orientation="0,1"
       position="-65.912454,94"
       id="guide11082" />
  </sodipodi:namedview>
  <metadata
     id="metadata11042">
    <rdf:RDF>
      <cc:Work
         rdf:about="">
        <dc:format>image/svg+xml</dc:format>
        <dc:type
           rdf:resource="http://purl.org/dc/dcmitype/StillImage" />
        <dc:title></dc:title>
      </cc:Work>
    </rdf:RDF>
  </metadata>
  <g
     inkscape:label="Layer 1"
     inkscape:groupmode="layer"
     id="layer1"
     transform="translate(0,-956.36218)">
    <rect
       x="2"
       y="958.36218"
       width="92"
       height="92"
       style="fill:url(#linearGradient11642);fill-opacity:1.0"
       id="rect3867"
       rx="25"
       ry="25" />
    <g
       transform="translate(0,956.36218)"
       id="g3244">
      <g
         transform="translate(-0.81355932,0)"
         style="display:inline"
         id="layer1-0" />
      <g
         id="layer6">
        <g
           id="g4105">
          <path
             inkscape:connector-curvature="0"
             style="opacity:0.25;color:#000000;fill:url(#radialGradient3891);fill-opacity:1;fill-rule:nonzero;stroke:none;stroke-width:1.5;marker:none;visibility:visible;display:inline;overflow:visible;enable-background:accumulate"
             id="path3651"
             transform="matrix(1.03125,0,0,1.03125,-17.999996,10.000006)"
             d="m 96,32 a 32,32 0 1 1 -64,0 32,32 0 1 1 64,0 z" />
          <path
             inkscape:connector-curvature="0"
             style="color:#000000;fill:url(#radialGradient3897);fill-opacity:1;fill-rule:nonzero;stroke:none;stroke-width:1.5;marker:none;visibility:visible;display:inline;overflow:visible;enable-background:accumulate"
             id="path3695"
             transform="matrix(0.84375003,0,0,0.84375003,-6.000004,16.000003)"
             d="m 96,32 a 32,32 0 1 1 -64,0 32,32 0 1 1 64,0 z" />
          <path
             style="opacity:0.6;color:#000000;fill:url(#linearGradient3818);fill-opacity:1;fill-rule:nonzero;stroke:none;stroke-width:1.5;marker:none;visibility:visible;display:inline;overflow:visible;enable-background:accumulate"
             id="path3695-8"
             inkscape:connector-curvature="0"
             d="m 75,43.000004 c 0,-14.911689 -12.088311,-27 -27,-27 -14.911689,0 -27,12.088311 -27,27 0,14.911689 12.088311,27 27,27 14.911689,0 27,-12.088311 27,-27 z m -1,0 c 0,14.359403 -11.640597,26 -26,26 -14.359403,0 -26,-11.640597 -26,-26 0,-14.359403 11.640597,-26 26,-26 14.359403,0 26,11.640597 26,26 z" />
          <path
             style="opacity:0.4;fill:url(#linearGradient4031);fill-opacity:1;stroke:none;filter:url(#filter4045)"
             id="path3907"
             inkscape:connector-curvature="0"
             d="m 41.125,16.875 c -2.630101,0.690191 -5.091436,1.788247 -7.34375,3.1875 -0.685588,0.944015 -1.324069,1.909274 -2,2.8125 -0.448353,0.974739 -1.840597,0.834982 -3,1.1875 -0.06669,0.06767 -0.152773,0.119135 -0.21875,0.1875 -1.587159,2.086129 -3.499806,4.030995 -4.5,6.46875 -1.285455,2.533351 4.17355,2.003438 1.4375,4.5 -1.040132,1.50918 -0.613715,4.813765 1.25,5.875 1.601016,1.56141 -3.18156,3.170417 -1,5.15625 2.037804,0.735887 4.28976,-0.988193 6.21875,-0.25 1.305401,1.421772 -0.798205,3.011322 0.59375,4.34375 -1.770141,-0.07326 -3.575367,0.430797 -2.96875,2.65625 -0.291967,2.750305 4.47922,2.620909 3.875,-0.3125 0.109805,-1.372076 1.504925,-2.798878 2.34375,-0.84375 -0.121232,2.071337 3.797242,0.923911 2.03125,3.25 -3.679952,0.0401 -1.412164,5.562321 0.84375,3.625 0.197855,-2.179228 2.263653,-1.916895 3.53125,-1.0625 3.159889,-0.747172 -0.339503,-4.40457 0.78125,-6.0625 1.160505,0.02707 1.328428,2.549015 2.375,0.3125 1.465887,-2.6601 -0.733259,-4.89604 -3.15625,-5.625 -2.39905,-0.835181 -0.764095,-3.148469 -1,-4.5625 -2.174892,-1.68835 -3.151208,0.849775 -2.96875,2.59375 -2.624287,0.401248 -1.980251,-3.000432 -3.9375,-4.09375 -1.35872,-0.98452 -4.425029,-0.966831 -2.5625,-3.5625 1.882879,-0.8553 4.158864,-1.600028 3.46875,-4.25 0.902932,-2.521754 -4.201748,-1.529453 -2.0625,-3.8125 2.726854,-0.04313 4.493802,-2.20369 3.78125,-4.90625 0.618601,-1.876155 3.381203,-1.415663 4.28125,-2.9375 0.24257,0.339366 0.515761,0.675485 0.875,0.90625 0.517494,0.488587 1.331487,0.07499 1.84375,-0.25 0.03671,-0.5471 0.08066,-1.44506 0.9375,-1.25 0.894583,0.08748 1.805269,0.04968 2.65625,-0.1875 0.132435,-0.626976 -0.828572,-1.41793 -1.59375,-1.34375 -0.690888,0.2469 -1.575433,-0.278904 -2.125,0.25 -0.683608,5.91e-4 -1.378892,1.85e-4 -2.0625,0 0.03031,-0.719645 -0.215572,-1.434032 -0.625,-2 z m 12.15625,2.875 c -0.49783,0.141269 -0.77761,0.558057 -0.6875,1.09375 0.281817,0.502926 0.655379,0.804761 1,1.46875 0.725532,0.77285 1.171906,1.606179 1.5625,2.5625 0.679147,0.636154 0.924962,2.058217 2.125,1.78125 0.892259,-0.137057 1.751122,0.04415 2.625,0.1875 0.817318,-0.115946 1.519086,1.011445 2.34375,0.5625 1.218771,0.20939 1.179599,-1.245059 0.53125,-1.875 -0.727645,-0.829026 -2.018925,-0.218679 -3,-0.40625 -0.674295,0.40594 -2.768203,0.259163 -1.96875,-0.8125 0.06822,-1.344825 -0.958201,-2.078481 -2.21875,-2.21875 C 54.8782,21.754621 55.38299,21.472207 55.8125,21.25 55.966804,19.946504 54.177616,20.00739 53.28125,19.75 z M 50.375,22.5625 c -1.769141,0.208149 -1.56966,3.320817 -2.53125,4.46875 -1.781415,0.710714 -2.789571,-1.270952 -2.53125,-2.625 -0.953571,-0.686659 -1.393914,-0.983804 -1.625,0.28125 -1.481128,0.995809 -2.779537,-1.901827 -4.40625,-1.28125 1.650433,-0.293359 -2.379296,1.441133 -0.96875,2.65625 0.882566,1.33371 0.547806,2.809625 -1.21875,2.78125 -1.7682,0.779809 -0.9348,2.371552 0.625,2.375 1.927772,2.271602 -2.146198,3.93859 -0.96875,6.40625 0.829099,2.813717 4.293621,-0.08276 2.75,-2.125 -0.63476,-3.10378 3.516721,-2.051905 3.1875,0.46875 1.097519,0.714628 4.24373,0.757575 2.8125,3.125 -1.989848,0.413595 -1.634938,3.006853 0,3.65625 -1.273387,0.81022 -1.070396,4.5212 0.6875,2.59375 2.55027,-2.293965 2.238448,3.344948 5.03125,1.8125 1.476046,-2.155094 -1.922476,-3.293673 -2.9375,-4.71875 -1.695694,-2.320236 3.513393,-1.258113 1.46875,-3.21875 -2.216777,-1.074422 -0.915227,-3.662476 1.28125,-2.625 2.597876,0.488165 -1.249792,-3.775239 1.46875,-2.65625 0.214769,1.835369 3.629602,1.425826 1.59375,-0.375 -0.552584,-2.038676 2.837465,-3.72511 0.75,-5.875 C 52.34479,26.944576 52.890566,24.054146 51.25,22.65625 50.907174,22.552954 50.627734,22.532764 50.375,22.5625 z m 14.5,9.1875 c -0.159178,0.0062 -0.352477,0.04505 -0.53125,0.09375 -1.136166,1.200973 -2.450606,1.577632 -4.0625,1.125 -0.453339,-0.253393 -1.492458,-0.720511 -1.90625,-0.5625 -1.601394,-0.157183 -1.201009,1.584828 -1.375,2.40625 -1.083557,0.169035 -1.858615,0.989385 -0.90625,1.96875 0.594657,1.888 -1.750095,0.547452 -2.5625,0.75 -1.542901,0.590516 0.945234,1.323628 -0.34375,2.1875 -1.148895,0.115664 -3.084109,1.538809 -1.625,2.46875 1.059642,0.318947 3.365937,-0.856163 3,1.28125 -0.631074,1.457681 2.555896,3.103532 1.90625,0.90625 -0.553648,-1.030964 -1.964814,-3.649478 0.34375,-3.125 0.43383,0.710752 0.811435,1.161934 1.875,0.78125 0.294337,-1.511991 2.424562,-1.123197 3.4375,-0.40625 1.814834,0.381382 0.407292,-2.753929 2.3125,-2.9375 1.284082,-1.052793 0.568742,-3.004553 -0.75,-3.625 0.192352,-1.517215 2.591074,-1.418626 3.6875,-1.6875 -0.73147,-0.757193 -1.385752,-1.668208 -2.5,-1.625 z m 9.78125,7 c -0.25994,0.02868 -0.53625,0.300121 -0.6875,0.5 -0.290975,0.598198 -1.000971,0.52622 -1.21875,0.9375 -0.141526,0.378034 -0.495053,0.103173 -0.6875,0.46875 -0.190992,-0.139558 -1.307323,-0.02574 -0.8125,0.25 -0.686197,0.343353 -0.160287,1.299026 -0.3125,1.90625 -0.173032,0.703538 0.449682,1.058172 0.65625,1.625 0.164894,0.176371 0.424371,-0.04738 0.53125,0.3125 0.0051,0.324459 0.591153,0.02429 0.625,0.375 -0.435588,0.208293 0.822731,0.487097 0.875,0 0.285348,-0.363186 0.636657,-1.014653 0.96875,-1.40625 C 74.657,43.572231 74.822821,43.516955 75,43.46875 75.0027,43.310623 75,43.158778 75,43 75,41.557164 74.874205,40.131577 74.65625,38.75 z m -8.1875,0.875 c -0.379961,0.04703 -0.733594,0.293261 -0.875,0.75 -0.497161,0.769009 -0.637857,2.066548 -1.75,2.09375 -0.565353,0.263697 -1.069569,0.833672 -1.75,0.75 -0.853113,-0.527825 -2.050569,-0.578786 -2.90625,-0.03125 -0.979637,0.626591 0.920951,1.64524 -0.28125,2 -1.181569,0.04876 -1.29007,1.363851 -0.53125,2.03125 0.782696,0.698177 2.146893,0.712795 2.5625,1.8125 0.276152,0.729315 0.987013,1.463438 0.65625,2.3125 -0.472508,0.902539 -1.536122,0.133068 -2.25,0.4375 -1.029882,0.430939 -0.523316,1.833188 0.53125,1.5 1.213637,0.138306 1.873078,1.52494 1.53125,2.625 -0.05927,0.961604 -1.450639,1.480801 -0.96875,2.5 0.355822,0.698291 1.623059,1.131583 2.03125,0.28125 0.0049,-0.93472 0.773269,-1.64856 0.875,-2.59375 0.161083,-0.882589 0.162057,-1.909684 -0.3125,-2.6875 -0.954862,-0.70967 -0.233236,-1.917683 0.46875,-2.5 0.579353,-0.410831 1.08788,-1.286263 1.625,-1.5 0.57674,0.354217 1.476139,1.663795 1.8125,0.34375 0.423086,-1.033062 0.172364,-2.301686 0.9375,-3.1875 0.510831,-0.513588 2.083862,-0.107235 1.65625,-1.25 C 69.005246,44.579198 67.688633,45.172395 67.6875,44.03125 67.443477,42.743005 68.043921,41.371278 67.5,40.125 c -0.247692,-0.407483 -0.651289,-0.547031 -1.03125,-0.5 z m 8.21875,7.4375 c -0.09061,0.0746 -0.09338,0.09269 -0.3125,0.25 L 74.5625,47.25 c -0.07924,0.07122 -0.07566,0.05184 -0.1875,0.15625 -1.076962,0.994669 -1.656361,2.529228 -2.84375,3.1875 -1.889048,0.0592 -0.738358,-2.535049 -2,-3 -1.647316,0.06331 -0.882766,2.233296 -1.8125,3.03125 -1.08203,0.629022 -2.498698,1.726224 -1.15625,2.9375 0.876005,1.046739 0.495851,2.491589 0.34375,3.71875 -0.571705,0.717294 -0.305346,2.418257 0.84375,1.5625 0.395003,-1.24068 -0.227373,-2.968437 1,-3.90625 0.759731,-1.188761 2.482549,-0.540261 3.59375,-1.15625 0.141322,0.04149 0.251629,0.04979 0.375,0.0625 0.922843,-2.099956 1.605799,-4.317103 1.96875,-6.65625 l -0.09375,0.03125 c 0.0398,-0.03553 0.05177,-0.05233 0.09375,-0.09375 0.003,-0.01994 -0.003,-0.04254 0,-0.0625 z" />
          <path
             style="opacity:0.4;color:#000000;fill:#a18a56;fill-opacity:1;fill-rule:nonzero;stroke:none;stroke-width:1.5;marker:none;visibility:visible;display:inline;overflow:visible;filter:url(#filter4057);enable-background:accumulate"
             id="path3986"
             inkscape:connector-curvature="0"
             d="m 62.25,24.09375 c -0.762098,0 -1.375,0.612902 -1.375,1.375 0,0.762098 0.612902,1.375 1.375,1.375 0.762098,0 1.375,-0.612902 1.375,-1.375 0,-0.762098 -0.612902,-1.375 -1.375,-1.375 z m -20.40625,1.625 c -0.628797,0.128671 -1.09375,0.708164 -1.09375,1.375 0,0.762098 0.612902,1.375 1.375,1.375 0.762098,0 1.375,-0.612902 1.375,-1.375 0,-0.762098 -0.612902,-1.375 -1.375,-1.375 -0.09526,0 -0.191422,-0.01838 -0.28125,0 z M 31.90625,25.875 C 31.413128,25.875 31,26.256878 31,26.75 c 0,0.493122 0.413128,0.90625 0.90625,0.90625 0.493122,0 0.875,-0.413128 0.875,-0.90625 0,-0.493122 -0.381878,-0.875 -0.875,-0.875 z m 28,2.59375 c -0.806927,0 -1.46875,0.661823 -1.46875,1.46875 0,0.806927 0.661823,1.4375 1.46875,1.4375 0.806927,0 1.46875,-0.630573 1.46875,-1.4375 0,-0.806927 -0.661823,-1.46875 -1.46875,-1.46875 z m -3.96875,2.75 c -0.403464,0 -0.75,0.346536 -0.75,0.75 0,0.403464 0.346536,0.71875 0.75,0.71875 0.403464,0 0.71875,-0.315286 0.71875,-0.71875 0,-0.403464 -0.315286,-0.75 -0.71875,-0.75 z M 45.875,31.375 c -0.403464,0 -0.75,0.346536 -0.75,0.75 0,0.403464 0.346536,0.71875 0.75,0.71875 0.403464,0 0.71875,-0.315286 0.71875,-0.71875 0,-0.403464 -0.315286,-0.75 -0.71875,-0.75 z m -15.4375,0.5 c -1.031074,0 -1.875,0.843926 -1.875,1.875 0,1.031074 0.843926,1.84375 1.875,1.84375 1.031074,0 1.875,-0.812676 1.875,-1.84375 0,-1.031074 -0.843926,-1.875 -1.875,-1.875 z m 38,4.875 c -0.582781,0 -1.0625,0.479719 -1.0625,1.0625 0,0.582781 0.479719,1.03125 1.0625,1.03125 0.582781,0 1.03125,-0.448469 1.03125,-1.03125 0,-0.582781 -0.448469,-1.0625 -1.03125,-1.0625 z M 37.34375,39.5 c -0.62761,0 -1.15625,0.52864 -1.15625,1.15625 0,0.62761 0.52864,1.125 1.15625,1.125 0.62761,0 1.125,-0.49739 1.125,-1.125 0,-0.62761 -0.49739,-1.15625 -1.125,-1.15625 z m 26.375,0.65625 c -0.851757,0 -1.53125,0.679493 -1.53125,1.53125 0,0.851757 0.679493,1.5625 1.53125,1.5625 0.851757,0 1.53125,-0.710743 1.53125,-1.5625 0,-0.851757 -0.679493,-1.53125 -1.53125,-1.53125 z m -34.6875,3.25 c -0.435212,0 -0.78125,0.199774 -0.78125,0.46875 0,0.268976 0.346038,0.5 0.78125,0.5 0.435212,0 0.78125,-0.231024 0.78125,-0.5 0,-0.268976 -0.346038,-0.46875 -0.78125,-0.46875 z m 9.59375,2.75 c -0.717269,0 -1.28125,0.595231 -1.28125,1.3125 0,0.717269 0.563981,1.28125 1.28125,1.28125 0.717269,0 1.3125,-0.563981 1.3125,-1.28125 0,-0.717269 -0.595231,-1.3125 -1.3125,-1.3125 z M 28.5,47.9375 c -0.493122,0 -0.90625,0.413128 -0.90625,0.90625 0,0.493122 0.413128,0.875 0.90625,0.875 0.493122,0 0.875,-0.381878 0.875,-0.875 0,-0.493122 -0.381878,-0.90625 -0.875,-0.90625 z m 29.375,0 c -0.493122,0 -0.90625,0.413128 -0.90625,0.90625 0,0.493122 0.413128,0.875 0.90625,0.875 0.493122,0 0.90625,-0.381878 0.90625,-0.875 0,-0.493122 -0.413128,-0.90625 -0.90625,-0.90625 z m -4.3125,0.5 c -0.806927,0 -1.4375,0.661823 -1.4375,1.46875 0,0.806927 0.630573,1.4375 1.4375,1.4375 0.806927,0 1.46875,-0.630573 1.46875,-1.4375 0,-0.806927 -0.661823,-1.46875 -1.46875,-1.46875 z m 4.0625,6.15625 c -0.448293,0 -0.8125,0.364207 -0.8125,0.8125 0,0.448293 0.364207,0.8125 0.8125,0.8125 0.448293,0 0.8125,-0.364207 0.8125,-0.8125 0,-0.448293 -0.364207,-0.8125 -0.8125,-0.8125 z M 29.78125,55.25 c -0.851757,0 -1.53125,0.679493 -1.53125,1.53125 0,0.851757 0.679493,1.5625 1.53125,1.5625 0.851757,0 1.5625,-0.710743 1.5625,-1.5625 0,-0.851757 -0.710743,-1.53125 -1.5625,-1.53125 z m 5.375,3.09375 c -0.403464,0 -0.75,0.315286 -0.75,0.71875 0,0.403464 0.346536,0.75 0.75,0.75 0.403464,0 0.71875,-0.346536 0.71875,-0.75 0,-0.403464 -0.315286,-0.71875 -0.71875,-0.71875 z m 17.6875,3.875 c -0.672439,0 -1.21875,0.546311 -1.21875,1.21875 0,0.672439 0.546311,1.21875 1.21875,1.21875 0.672439,0 1.21875,-0.546311 1.21875,-1.21875 0,-0.672439 -0.546311,-1.21875 -1.21875,-1.21875 z" />
          <path
             style="opacity:0.5;color:#000000;fill:#ffffff;fill-opacity:1;fill-rule:nonzero;stroke:none;stroke-width:1.5;marker:none;visibility:visible;display:inline;overflow:visible;filter:url(#filter4082);enable-background:accumulate"
             id="path4061"
             inkscape:connector-curvature="0"
             d="m 57.46875,28.46875 c -0.537952,0 -0.96875,0.430798 -0.96875,0.96875 0,0.537952 0.430798,0.96875 0.96875,0.96875 0.537952,0 0.96875,-0.430798 0.96875,-0.96875 0,-0.537952 -0.430798,-0.96875 -0.96875,-0.96875 z M 42.4375,36.25 c -1.210391,0 -2.1875,0.977109 -2.1875,2.1875 0,1.210391 0.977109,2.21875 2.1875,2.21875 1.210391,0 2.21875,-1.008359 2.21875,-2.21875 0,-1.210391 -1.008359,-2.1875 -2.21875,-2.1875 z M 34.5,36.75 c -0.582781,0 -1.0625,0.479719 -1.0625,1.0625 0,0.582781 0.479719,1.03125 1.0625,1.03125 0.582781,0 1.0625,-0.448469 1.0625,-1.03125 0,-0.582781 -0.479719,-1.0625 -1.0625,-1.0625 z m -10.40625,3.09375 c -1.031074,0 -1.84375,0.812676 -1.84375,1.84375 0,1.031074 0.812676,1.875 1.84375,1.875 1.031074,0 1.875,-0.843926 1.875,-1.875 0,-1.031074 -0.843926,-1.84375 -1.875,-1.84375 z M 24.75,45.1875 c -0.672439,0 -1.21875,0.546311 -1.21875,1.21875 0,0.672439 0.546311,1.21875 1.21875,1.21875 0.672439,0 1.21875,-0.546311 1.21875,-1.21875 0,-0.672439 -0.546311,-1.21875 -1.21875,-1.21875 z m 30.4375,0.15625 c -0.537952,0 -0.96875,0.430798 -0.96875,0.96875 0,0.537952 0.430798,1 0.96875,1 0.537952,0 0.96875,-0.462048 0.96875,-1 0,-0.537952 -0.430798,-0.96875 -0.96875,-0.96875 z m -5.84375,7 c -0.806927,0 -1.4375,0.630573 -1.4375,1.4375 0,0.806927 0.630573,1.46875 1.4375,1.46875 0.806927,0 1.46875,-0.661823 1.46875,-1.46875 0,-0.806927 -0.661823,-1.4375 -1.46875,-1.4375 z m -3.96875,6.8125 c -1.389708,0 -2.53125,1.110292 -2.53125,2.5 0,1.389708 1.141542,2.53125 2.53125,2.53125 1.389708,0 2.53125,-1.141542 2.53125,-2.53125 0,-1.389708 -1.141542,-2.5 -2.53125,-2.5 z m 15.5,0.46875 c -0.806927,0 -1.46875,0.661823 -1.46875,1.46875 0,0.806927 0.661823,1.46875 1.46875,1.46875 0.806927,0 1.46875,-0.661823 1.46875,-1.46875 0,-0.806927 -0.661823,-1.46875 -1.46875,-1.46875 z m -21.09375,1.78125 c -1.075903,0 -1.96875,0.892847 -1.96875,1.96875 0,1.075903 0.892847,1.9375 1.96875,1.9375 1.075903,0 1.9375,-0.861597 1.9375,-1.9375 0,-1.075903 -0.861597,-1.96875 -1.9375,-1.96875 z" />
          <path
             inkscape:connector-curvature="0"
             style="opacity:0.5;color:#000000;fill:url(#linearGradient3034);fill-opacity:1;fill-rule:nonzero;stroke:none;stroke-width:1.5;marker:none;visibility:visible;display:inline;overflow:visible;enable-background:accumulate"
             id="path4086"
             transform="matrix(0.58747152,0,0,0.37002308,10.401824,18.73364)"
             d="m 96,32 a 32,32 0 1 1 -64,0 32,32 0 1 1 64,0 z" />
        </g>
        <path
           inkscape:connector-curvature="0"
           style="color:#000000;fill:url(#radialGradient4269);fill-opacity:1;fill-rule:nonzero;stroke:none;stroke-width:1.5;marker:none;visibility:visible;display:inline;overflow:visible;enable-background:accumulate"
           id="path4261"
           transform="translate(-0.40828239,-0.57159535)"
           d="m 20,18 a 2,2 0 1 1 -4,0 2,2 0 1 1 4,0 z" />
        <path
           inkscape:connector-curvature="0"
           style="color:#000000;fill:url(#radialGradient4273);fill-opacity:1;fill-rule:nonzero;stroke:none;stroke-width:1.5;marker:none;visibility:visible;display:inline;overflow:visible;enable-background:accumulate"
           id="path4271"
           transform="matrix(1.5,0,0,1.5,-14.102946,50.244969)"
           d="m 20,18 a 2,2 0 1 1 -4,0 2,2 0 1 1 4,0 z" />
        <path
           inkscape:connector-curvature="0"
           style="color:#000000;fill:url(#radialGradient4277);fill-opacity:1;fill-rule:nonzero;stroke:none;stroke-width:1.5;marker:none;visibility:visible;display:inline;overflow:visible;enable-background:accumulate"
           id="path4275"
           transform="matrix(2,0,0,2,45,41)"
           d="m 20,18 a 2,2 0 1 1 -4,0 2,2 0 1 1 4,0 z" />
        <path
           inkscape:connector-curvature="0"
           style="color:#000000;fill:url(#radialGradient4283);fill-opacity:1;fill-rule:nonzero;stroke:none;stroke-width:1.5;marker:none;visibility:visible;display:inline;overflow:visible;enable-background:accumulate"
           id="path4281"
           transform="matrix(1.5,0,0,1.5,54.022681,0.09823349)"
           d="m 20,18 a 2,2 0 1 1 -4,0 2,2 0 1 1 4,0 z" />
        <path
           inkscape:connector-curvature="0"
           style="color:#000000;fill:url(#radialGradient4287);fill-opacity:1;fill-rule:nonzero;stroke:none;stroke-width:1.5;marker:none;visibility:visible;display:inline;overflow:visible;enable-background:accumulate"
           id="path4285"
           transform="translate(-5.2647265,10.300552)"
           d="m 20,18 a 2,2 0 1 1 -4,0 2,2 0 1 1 4,0 z" />
        <path
           inkscape:connector-curvature="0"
           style="color:#000000;fill:url(#radialGradient4291);fill-opacity:1;fill-rule:nonzero;stroke:none;stroke-width:1.5;marker:none;visibility:visible;display:inline;overflow:visible;enable-background:accumulate"
           id="path4289"
           transform="translate(10.987255,66.610236)"
           d="m 20,18 a 2,2 0 1 1 -4,0 2,2 0 1 1 4,0 z" />
        <path
           inkscape:connector-curvature="0"
           style="color:#000000;fill:url(#radialGradient4295);fill-opacity:1;fill-rule:nonzero;stroke:none;stroke-width:1.5;marker:none;visibility:visible;display:inline;overflow:visible;enable-background:accumulate"
           id="path4293"
           transform="translate(59.285398,44.734765)"
           d="m 20,18 a 2,2 0 1 1 -4,0 2,2 0 1 1 4,0 z" />
        <path
           inkscape:connector-curvature="0"
           style="color:#000000;fill:url(#radialGradient4299);fill-opacity:1;fill-rule:nonzero;stroke:none;stroke-width:1.5;marker:none;visibility:visible;display:inline;overflow:visible;enable-background:accumulate"
           id="path4297"
           transform="translate(43.590258,63.667973)"
           d="m 20,18 a 2,2 0 1 1 -4,0 2,2 0 1 1 4,0 z" />
        <path
           inkscape:connector-curvature="0"
           style="color:#000000;fill:url(#radialGradient4303);fill-opacity:1;fill-rule:nonzero;stroke:none;stroke-width:1.5;marker:none;visibility:visible;display:inline;overflow:visible;enable-background:accumulate"
           id="path4301"
           transform="matrix(2,0,0,2,-17.021623,30.890735)"
           d="m 20,18 a 2,2 0 1 1 -4,0 2,2 0 1 1 4,0 z" />
        <path
           inkscape:connector-curvature="0"
           style="color:#000000;fill:url(#radialGradient4308);fill-opacity:1;fill-rule:nonzero;stroke:none;stroke-width:1.5;marker:none;visibility:visible;display:inline;overflow:visible;enable-background:accumulate"
           id="path4306"
           transform="matrix(1.5,0,0,1.5,23.98974,55.966183)"
           d="m 20,18 a 2,2 0 1 1 -4,0 2,2 0 1 1 4,0 z" />
        <path
           inkscape:connector-curvature="0"
           style="color:#000000;fill:url(#radialGradient4316);fill-opacity:1;fill-rule:nonzero;stroke:none;stroke-width:1.5;marker:none;visibility:visible;display:inline;overflow:visible;enable-background:accumulate"
           id="path4314"
           transform="translate(39.486106,-7.4560129)"
           d="m 20,18 a 2,2 0 1 1 -4,0 2,2 0 1 1 4,0 z" />
      </g>
    </g>
    <rect
       ry="25"
       rx="25"
       id="rect3003"
       style="opacity:0.15;fill:#ffffff;fill-opacity:1"
       height="92"
       width="92"
       y="958.36218"
       x="-96"
       clip-path="url(#clipPath3009)"
       transform="translate(98,0)" />
  </g>
</svg>
