<?xml version="1.0" encoding="UTF-8" standalone="no"?>
<!-- Created with Inkscape (http://www.inkscape.org/) -->

<svg
   xmlns:dc="http://purl.org/dc/elements/1.1/"
   xmlns:cc="http://creativecommons.org/ns#"
   xmlns:rdf="http://www.w3.org/1999/02/22-rdf-syntax-ns#"
   xmlns:svg="http://www.w3.org/2000/svg"
   xmlns="http://www.w3.org/2000/svg"
   xmlns:xlink="http://www.w3.org/1999/xlink"
   xmlns:sodipodi="http://sodipodi.sourceforge.net/DTD/sodipodi-0.dtd"
   xmlns:inkscape="http://www.inkscape.org/namespaces/inkscape"
   width="96"
   height="96"
   id="svg11037"
   version="1.1"
   inkscape:version="0.48.3.1 r9886"
   sodipodi:docname="abiword.svg">
  <defs
     id="defs11039">
    <linearGradient
       y2="1046.1001"
       x2="47.999954"
       y1="962.62189"
       x1="47.999954"
       gradientTransform="matrix(1.15,0,0,1.15,-7.1999462,-150.65291)"
       gradientUnits="userSpaceOnUse"
       id="linearGradient3886"
       xlink:href="#linearGradient3795"
       inkscape:collect="always" />
    <linearGradient
       id="linearGradient3795">
      <stop
         style="stop-color:#13a6fd;stop-opacity:1;"
         offset="0"
         id="stop3797" />
      <stop
         style="stop-color:#2975b6;stop-opacity:1;"
         offset="1"
         id="stop3799" />
    </linearGradient>
    <linearGradient
       y2="1046.1001"
       x2="47.999954"
       y1="962.62189"
       x1="47.999954"
       gradientTransform="matrix(1.15,0,0,1.15,-7.1999462,-150.65292)"
       gradientUnits="userSpaceOnUse"
       id="linearGradient11642"
       xlink:href="#linearGradient3795-6"
       inkscape:collect="always" />
    <linearGradient
       inkscape:collect="always"
       xlink:href="#linearGradient3795-6"
       id="linearGradient3801"
       x1="23.204165"
       y1="1053.158"
       x2="23.204165"
       y2="1004.8474"
       gradientUnits="userSpaceOnUse"
       gradientTransform="translate(0,-2056.7244)" />
    <linearGradient
       id="linearGradient3795-6">
      <stop
         style="stop-color:#68b8d8;stop-opacity:1;"
         offset="0"
         id="stop3797-5" />
      <stop
         style="stop-color:#3097bd;stop-opacity:1;"
         offset="1"
         id="stop3799-6" />
    </linearGradient>
    <linearGradient
       y2="1004.8474"
       x2="23.204165"
       y1="1053.158"
       x1="23.204165"
       gradientTransform="translate(-66.426407,-1974.1533)"
       gradientUnits="userSpaceOnUse"
       id="linearGradient3028"
       xlink:href="#linearGradient3795-6"
       inkscape:collect="always" />
    <linearGradient
       id="linearGradient3118"
       y2="44.5"
       gradientUnits="userSpaceOnUse"
       x2="35.095001"
       gradientTransform="matrix(1.0467,0,0,1.0581,18.744,23.428)"
       y1="4.7143002"
       x1="25.070999">
      <stop
         id="stop3721-7"
         style="stop-color:#eaedf1"
         offset="0" />
      <stop
         id="stop3723-6"
         style="stop-color:#c1ccdb"
         offset="1" />
    </linearGradient>
    <linearGradient
       id="linearGradient3113"
       y2="16.212"
       xlink:href="#linearGradient11508-5"
       gradientUnits="userSpaceOnUse"
       x2="77.924004"
       gradientTransform="matrix(0.60359,0.12621,-0.19245,0.39585,37.159,35.303)"
       y1="82.473999"
       x1="43.700001" />
    <linearGradient
       id="linearGradient11508-5">
      <stop
         id="stop11510-6"
         offset="0" />
      <stop
         id="stop11512-9"
         style="stop-opacity:0"
         offset="1" />
    </linearGradient>
    <linearGradient
       id="linearGradient3109"
       y2="6.2082"
       xlink:href="#linearGradient11508-5"
       gradientUnits="userSpaceOnUse"
       x2="87.732002"
       gradientTransform="matrix(0.58818,0.084498,-0.090154,0.55127,29.339,24.147)"
       y1="82.473999"
       x1="43.700001" />
    <linearGradient
       id="linearGradient3059">
      <stop
         id="stop3061"
         offset="0" />
      <stop
         id="stop3063"
         style="stop-opacity:0"
         offset="1" />
    </linearGradient>
    <linearGradient
       id="linearGradient3106"
       y2="39.534"
       gradientUnits="userSpaceOnUse"
       x2="68.223"
       gradientTransform="matrix(0.56715,0,0,0.56715,22.759,26.415)"
       y1="35.605999"
       x1="60.898998">
      <stop
         id="stop10396-7"
         style="stop-color:#1a1a1a"
         offset="0" />
      <stop
         id="stop10404-4"
         style="stop-color:#636363"
         offset=".35185" />
      <stop
         id="stop10402-5"
         style="stop-color:#c7c7c7"
         offset=".5" />
      <stop
         id="stop10406-2"
         style="stop-color:#636363"
         offset=".65" />
      <stop
         id="stop10398-5"
         offset="1" />
    </linearGradient>
    <linearGradient
       id="linearGradient3102"
       y2="67.674004"
       gradientUnits="userSpaceOnUse"
       x2="13.406"
       gradientTransform="matrix(0.41146,-0.11021,0.11049,0.41217,37.649,36.776)"
       y1="77.501999"
       x1="24.249001">
      <stop
         id="stop6533-4"
         style="stop-color:#c38125"
         offset="0" />
      <stop
         id="stop10377-7"
         style="stop-color:#c68d31"
         offset=".62963" />
      <stop
         id="stop6535-4"
         style="stop-color:#fffce6"
         offset="1" />
    </linearGradient>
    <linearGradient
       id="linearGradient3097"
       y2="57.993"
       gradientUnits="userSpaceOnUse"
       x2="47.451"
       gradientTransform="matrix(0.56715,0,0,0.56715,22.759,26.415)"
       y1="68.171997"
       x1="58.652">
      <stop
         id="stop10388-3"
         style="stop-color:#fff"
         offset="0" />
      <stop
         id="stop10390-0"
         style="stop-color:#fff;stop-opacity:0"
         offset="1" />
    </linearGradient>
    <radialGradient
       id="radialGradient3205"
       gradientUnits="userSpaceOnUse"
       cy="41.703999"
       cx="59.852001"
       gradientTransform="matrix(0.26265,-0.50267,0.062834,0.032831,41.658,75.346)"
       r="18.183001">
      <stop
         id="stop10412-8"
         style="stop-color:#fff"
         offset="0" />
      <stop
         id="stop10414-4"
         style="stop-color:#fff;stop-opacity:0"
         offset="1" />
    </radialGradient>
    <radialGradient
       r="18.183001"
       cy="41.703999"
       cx="59.852001"
       gradientTransform="matrix(0.26265,-0.50267,0.062834,0.032831,41.658,75.346)"
       gradientUnits="userSpaceOnUse"
       id="radialGradient3094"
       xlink:href="#radialGradient3205"
       inkscape:collect="always" />
    <clipPath
       clipPathUnits="userSpaceOnUse"
       id="clipPath3009">
      <path
         id="path3011"
         d="m -2,956.36218 -96,0 0,33.5624 96,25.68742 0,-59.24982 z"
         style="opacity:0.15;fill:#ffffff;fill-opacity:1;stroke:none"
         inkscape:connector-curvature="0" />
    </clipPath>
  </defs>
  <sodipodi:namedview
     id="base"
     pagecolor="#ffffff"
     bordercolor="#666666"
     borderopacity="1.0"
     inkscape:pageopacity="0.0"
     inkscape:pageshadow="2"
     inkscape:zoom="3.959798"
     inkscape:cx="33.538031"
     inkscape:cy="49.863109"
     inkscape:document-units="px"
     inkscape:current-layer="layer1"
     showgrid="false"
     inkscape:window-width="1280"
     inkscape:window-height="750"
     inkscape:window-x="0"
     inkscape:window-y="22"
     inkscape:window-maximized="1"
     showguides="true"
     inkscape:guide-bbox="true">
    <sodipodi:guide
       orientation="0,1"
       position="-24.748737,0"
       id="guide11064" />
    <sodipodi:guide
       orientation="0,1"
       position="-23.233509,96"
       id="guide11066" />
    <sodipodi:guide
       orientation="1,0"
       position="0,54.800776"
       id="guide11068" />
    <sodipodi:guide
       orientation="1,0"
       position="96,51.012704"
       id="guide11070" />
    <sodipodi:guide
       orientation="0,1"
       position="-18.94036,48"
       id="guide11072" />
    <sodipodi:guide
       orientation="1,0"
       position="48,79.296975"
       id="guide11074" />
    <sodipodi:guide
       orientation="1,0"
       position="2,75.508903"
       id="guide11076" />
    <sodipodi:guide
       orientation="0,1"
       position="-77.27667,2"
       id="guide11078" />
    <sodipodi:guide
       orientation="1,0"
       position="94,77.781746"
       id="guide11080" />
    <sodipodi:guide
       orientation="0,1"
       position="-65.912454,94"
       id="guide11082" />
  </sodipodi:namedview>
  <metadata
     id="metadata11042">
    <rdf:RDF>
      <cc:Work
         rdf:about="">
        <dc:format>image/svg+xml</dc:format>
        <dc:type
           rdf:resource="http://purl.org/dc/dcmitype/StillImage" />
        <dc:title />
      </cc:Work>
    </rdf:RDF>
  </metadata>
  <g
     inkscape:label="Layer 1"
     inkscape:groupmode="layer"
     id="layer1"
     transform="translate(0,-956.36218)">
    <rect
       x="2"
       y="958.36218"
       width="92"
       height="92"
       style="fill:url(#linearGradient11642);fill-opacity:1.0"
       id="rect3867"
       rx="25"
       ry="25" />
    <g
       transform="translate(-5.2061606e-7,956.36218)"
       id="g3027">
      <path
         inkscape:connector-curvature="0"
         d="M 23.529,67.337 C 23.50392,57.311 38.01,28.342 44.762,28.19 c 3.3769,-0.07592 8.4359,6.3351 12.691,14.623 4.2552,8.2875 7.7066,18.453 7.8689,25.884 0,0 -16.336,-31.911 -20.41,-32.006 -4.1493,-0.09473 -15.412,22.482 -14.072,24.998 1.3081,2.456 25.586,-5.4623 25.586,-5.4623 -0.52311,0.8066 -16.373,11.286 -28.26,13.755 -1.7943,-0.05015 -4.4858,-0.02508 -4.6355,-2.6448 z"
         style="fill:url(#linearGradient3118);fill-rule:evenodd"
         id="path5556" />
      <path
         inkscape:connector-curvature="0"
         d="m 44.077,29.603 c -0.34138,0.0077 -1.0678,0.29965 -1.9808,1.0231 -0.91303,0.72336 -1.981,1.8303 -3.0909,3.2215 -2.22,2.7825 -4.6328,6.6636 -6.8349,10.862 -2.2021,4.1982 -4.2043,8.7277 -5.6377,12.777 -1.4226,4.0185 -2.2781,7.6056 -2.2855,9.7732 0.04896,0.7919 0.19436,0.81858 0.76188,1.0231 0.53513,0.19283 1.4647,0.23373 2.3291,0.2612 0.08689,-0.0185 0.17379,-0.04589 0.2612,-0.0653 -0.46553,-0.03704 -0.89799,-0.08808 -1.1972,-0.1959 -0.56749,-0.20449 -0.71292,-0.23114 -0.76188,-1.0231 0.0075,-2.1675 0.86302,-5.7549 2.2855,-9.7732 1.4334,-4.0492 3.4356,-8.5794 5.6377,-12.777 2.2021,-4.1982 4.6149,-8.0792 6.8349,-10.862 1.1099,-1.3912 2.1779,-2.4982 3.0909,-3.2215 0.5112,-0.40503 0.94668,-0.66679 1.306,-0.82715 -0.29742,-0.12677 -0.53913,-0.19991 -0.71814,-0.19573 z m 1.5455,5.6812 c -0.26141,-0.0059 -0.51007,0.01494 -0.74008,0.0653 1.0143,0.2282 1.6217,0.94932 2.3944,1.7631 0.92181,0.97085 1.9285,2.2746 3.0039,3.8093 2.1508,3.0694 4.5914,7.088 6.9001,11.102 2.5357,4.4078 3.1595,5.7232 4.7888,8.7939 -0.44147,-1.843 -1.0023,-3.7433 -1.6326,-5.6594 -0.4836,-0.87382 -1.031,-1.8617 -1.7631,-3.1345 -2.309,-4.0135 -4.7497,-8.0319 -6.9007,-11.102 -1.0755,-1.5345 -2.082,-2.8384 -3.0035,-3.8094 -0.92223,-0.97029 -1.5993,-1.795 -3.0258,-1.8277 a 1.4235,1.4235 0 0 0 -0.02177,0 z m 0.84895,25.163 c -1.2832,0.37051 -1.3165,0.43999 -2.6774,0.80535 -3.1393,0.84289 -6.329,1.6123 -8.881,2.0243 -0.84491,0.13643 -1.6078,0.23803 -2.3073,0.28297 0.12422,0.0095 0.24009,0.01872 0.37004,0.02177 0.94821,0.02225 2.0544,-0.09871 3.3303,-0.30474 2.5173,-0.40647 5.6524,-1.1731 8.75,-2.0026 0.03334,-0.01828 0.0756,-0.02526 0.10884,-0.04353 0.52327,-0.28762 0.81064,-0.50163 1.306,-0.78361 z"
         style="opacity:0.6;fill:#ffffff;fill-rule:evenodd"
         id="path3738" />
      <path
         inkscape:connector-curvature="0"
         d="M 44.752,28.189 C 37.9997,28.34154 23.504,57.3 23.529,67.327 c 0.14953,2.6198 2.842,2.6052 4.6363,2.6556 11.887,-2.4687 27.73,-12.951 28.253,-13.757 0,0 -24.268,7.9197 -25.576,5.4636 -1.3388,-2.5152 9.9125,-25.083 14.063,-24.989 4.0741,0.09403 20.417,31.997 20.417,31.997 -0.163,-7.432 -3.625,-17.593 -7.88,-25.882 -4.256,-8.288 -9.314,-14.703 -12.69,-14.627 z m 0.02159,0.65336 c 1.2725,-0.0287 3.3361,1.3659 5.507,3.9398 2.171,2.5739 4.4843,6.2276 6.5955,10.34 3.6147,7.04 6.5036,15.374 7.4008,22.202 -1.5087,-2.8816 -3.8874,-7.3681 -7.0741,-12.908 -2.3028,-4.0024 -4.7309,-8.0019 -6.8568,-11.035 -1.0629,-1.5169 -2.0414,-2.8002 -2.9168,-3.7222 -0.87535,-0.92195 -1.578,-1.5893 -2.5032,-1.6108 -0.81433,-0.01854 -1.5508,0.44972 -2.3073,1.1102 -0.75652,0.6604 -1.5473,1.5628 -2.3726,2.6556 -1.6505,2.1856 -3.4129,5.1037 -5.0064,8.0973 -1.5935,2.9937 -3.0164,6.0714 -3.9616,8.5759 -0.47261,1.2524 -0.82443,2.357 -1.0231,3.2651 -0.19861,0.90809 -0.328,1.5854 0.02177,2.242 0.19601,0.36796 0.53057,0.54821 0.87068,0.65301 0.34012,0.1048 0.72308,0.14227 1.1536,0.15237 0.86107,0.0202 1.9491,-0.08104 3.1998,-0.28297 2.5012,-0.40387 5.6677,-1.185 8.7939,-2.0243 4.4063,-1.1831 6.5183,-1.8835 8.6852,-2.5685 -1.7216,1.1159 -4.0606,2.5062 -6.7478,3.9834 -5.4496,2.9955 -12.288,6.1973 -18.089,7.4224 -0.89848,-0.02518 -1.9495,-0.0564 -2.6991,-0.32651 -0.74872,-0.26978 -1.1884,-0.62872 -1.2625,-1.676 -1.4e-5,-0.0057 3e-6,-0.01604 0,-0.02177 -5.8e-4,-0.0091 5.23e-4,-0.01259 0,-0.02177 0.0027,-2.3515 0.86588,-5.9844 2.3073,-10.057 1.4485,-4.0919 3.4625,-8.6344 5.6812,-12.865 2.2186,-4.2298 4.6538,-8.1496 6.9219,-10.992 1.134,-1.4214 2.216,-2.5727 3.1998,-3.3521 0.9838,-0.77944 1.8654,-1.1616 2.4814,-1.1754 z"
         style="opacity:0.1;fill-rule:evenodd"
         id="path3743" />
      <path
         inkscape:connector-curvature="0"
         d="m 73.802,52.982 c -2.5673,1.3935 -5.0741,2.778 -7.3374,4.3245 -3.0404,2.0774 -5.1714,4.1575 -6.15,5.7424 -0.0045,0.0073 -0.0133,0.0105 -0.01772,0.01772 -0.59572,0.35713 -4.867,2.9342 -7.0365,4.4309 -2.3683,1.634 -6.3627,5.8133 -6.3627,5.8133 l 0.46081,0.28358 c 3.9255,-1.8303 11.822,-3.651 11.822,-3.651 l 0.26585,-0.07089 -0.07089,-0.17724 c 0,0 -0.03458,-0.07396 0,-0.3013 0.03458,-0.22734 0.15158,-0.58493 0.44309,-1.0634 0.63341,-1.0397 2.2338,-2.1369 3.3143,-2.8003 2.4922,-0.6152 6.0179,-2.2559 9.3052,-4.5018 0.46687,-0.31899 0.9147,-0.6446 1.3647,-0.97482 v -7.0713 z"
         style="opacity:0.3;fill:url(#linearGradient3113)"
         id="path10456" />
      <path
         inkscape:connector-curvature="0"
         d="m 73.802,35.277 c -4.0607,5.0656 -8.7612,9.1617 -12.371,14.019 -2.357,3.1718 -3.8591,6.236 -4.4132,8.4721 -0.0025,0.01021 -0.01523,0.02526 -0.01773,0.03545 -0.47295,0.55529 -3.8513,4.5236 -5.5297,6.8058 -1.8326,2.4908 -4.6083,8.5773 -4.6083,8.5773 l 0.49625,0.31902 c 3.2334,-2.9652 10.138,-6.4514 10.138,-6.4514 l 0.2304,-0.12406 -0.08861,-0.2304 c 0,0 -0.05222,-0.10146 -0.07089,-0.40764 -0.01868,-0.30618 -0.0041,-0.79664 0.15951,-1.471 0.3555,-1.4655 1.6092,-3.1372 2.4635,-4.165 2.1748,-1.1578 5.073,-3.8022 7.6209,-7.2308 2.1902,-2.9474 4.0164,-6.1485 5.9905,-9.4466 v -8.7019 z"
         style="opacity:0.2;fill:url(#linearGradient3109)"
         id="path10430" />
      <path
         inkscape:connector-curvature="0"
         d="m 63.277,50.163 c -2.8207,5.7471 -6.8011,9.8345 -8.2506,9.0558 -1.5457,-0.83042 -0.79845,-6.1271 2.0958,-12.024 2.8936,-5.8956 7.4022,-11.005 10.366,-17.588 0.56475,-1.2545 1.6584,-3.1078 3.2111,-2.3206 1.6094,0.81593 1.1728,2.3428 0.32246,4.0772 -3.2837,6.6976 -4.9242,13.053 -7.7449,18.8 z"
         style="fill:url(#linearGradient3106);stroke:#000000;stroke-width:0.69655001"
         id="path10375" />
      <path
         inkscape:connector-curvature="0"
         d="M 58.247,56.017 A 2.324,1.8276 29.389 1 1 54.3121,57.0709 2.324,1.8276 29.389 1 1 58.247,56.017 z"
         style="fill:none;stroke:#2e3436;stroke-width:1.37150002;stroke-linecap:round"
         id="path4343" />
      <path
         inkscape:connector-curvature="0"
         d="m 47.115,73.25 c 0,0 1.6769,-6.5405 2.9822,-9.2327 1.3052,-2.6924 4.3911,-8.0486 4.3911,-8.0486 0,0 0.89032,-1.3318 2.3276,-0.62342 1.43728,0.70838 1.0224,2.069 1.0224,2.069 0,0 -2.1674,3.2643 -2.3478,5.7831 -0.10394,1.4519 0.23641,2.0452 0.23641,2.0452 0,0 -5.9691,4.4883 -8.6121,8.0075 z"
         style="fill:url(#linearGradient3102);fill-rule:evenodd;stroke:#c17d11;stroke-width:0.69655001"
         id="path4341" />
      <path
         inkscape:connector-curvature="0"
         d="M 51.484,63.968 A 0.37942,0.86546 27.633 0 1 50.78476,63.66849 0.37942,0.86546 27.633 1 1 51.484,63.968 z"
         style="fill-opacity:0.6;stroke:#c17d11;stroke-width:0.23311;stroke-linecap:round"
         id="path6537" />
      <path
         inkscape:connector-curvature="0"
         d="m 47.148,73.085 c 1.1833,-3.0502 2.0279,-5.6192 3.5075,-8.4366"
         style="fill:#c17d11;fill-rule:evenodd;stroke:#c17d11;stroke-width:0.23890001"
         id="path8007" />
      <path
         inkscape:connector-curvature="0"
         d="m 56.611,56.279 c -0.12413,0.10079 -0.20676,0.2056 -0.21268,0.21268 -3.5e-5,6.1e-5 -0.01769,-7e-5 -0.01772,0 -0.04279,0.07427 -3.0683,5.3487 -4.3245,7.9399 -0.42804,0.88294 -0.9372,2.3081 -1.4001,3.7751 1.9151,-1.7237 3.558,-2.9591 4.0055,-3.2965 -0.08545,-0.42018 -0.14464,-1.0076 -0.08862,-1.7901 0.10696,-1.494 0.74071,-3.0004 1.3293,-4.1828 0.53275,-1.0702 0.95218,-1.6998 1.0457,-1.8433 0.0063,-0.02499 0.03079,-0.11975 0,-0.3013 -0.02854,-0.16828 -0.06003,-0.33266 -0.33674,-0.51398 z"
         style="fill:url(#linearGradient3097);fill-rule:evenodd"
         id="path10381" />
      <path
         inkscape:connector-curvature="0"
         d="M 64.773,37.49 A 1.2890493,10.312394 27.587 1 1 55.2219,55.77 1.2890493,10.312394 27.587 1 1 64.773,37.49 z"
         style="fill:url(#radialGradient3094)"
         id="path10408" />
    </g>
    <rect
       ry="25"
       rx="25"
       id="rect3003"
       style="opacity:0.15;fill:#ffffff;fill-opacity:1"
       height="92"
       width="92"
       y="958.36218"
       x="-96"
       clip-path="url(#clipPath3009)"
       transform="translate(98,3.8281269e-7)" />
  </g>
</svg>
