<?xml version="1.0" encoding="UTF-8" standalone="no"?>
<!-- Created with Inkscape (http://www.inkscape.org/) -->

<svg
   xmlns:dc="http://purl.org/dc/elements/1.1/"
   xmlns:cc="http://creativecommons.org/ns#"
   xmlns:rdf="http://www.w3.org/1999/02/22-rdf-syntax-ns#"
   xmlns:svg="http://www.w3.org/2000/svg"
   xmlns="http://www.w3.org/2000/svg"
   xmlns:xlink="http://www.w3.org/1999/xlink"
   xmlns:sodipodi="http://sodipodi.sourceforge.net/DTD/sodipodi-0.dtd"
   xmlns:inkscape="http://www.inkscape.org/namespaces/inkscape"
   width="96"
   height="96"
   id="svg11037"
   version="1.1"
   inkscape:version="0.48.3.1 r9886"
   sodipodi:docname="accessories-dictionary.svg">
  <defs
     id="defs11039">
    <linearGradient
       y2="1046.1001"
       x2="47.999954"
       y1="962.62189"
       x1="47.999954"
       gradientTransform="matrix(1.15,0,0,1.15,-7.1999462,-150.65291)"
       gradientUnits="userSpaceOnUse"
       id="linearGradient3886"
       xlink:href="#linearGradient3795"
       inkscape:collect="always" />
    <linearGradient
       id="linearGradient3795">
      <stop
         style="stop-color:#13a6fd;stop-opacity:1;"
         offset="0"
         id="stop3797" />
      <stop
         style="stop-color:#2975b6;stop-opacity:1;"
         offset="1"
         id="stop3799" />
    </linearGradient>
    <linearGradient
       y2="1046.1001"
       x2="47.999954"
       y1="962.62189"
       x1="47.999954"
       gradientTransform="matrix(1.15,0,0,1.15,-7.1999462,-150.65292)"
       gradientUnits="userSpaceOnUse"
       id="linearGradient11642"
       xlink:href="#linearGradient3795"
       inkscape:collect="always" />
    <linearGradient
       x1="48"
       y1="90"
       x2="48"
       y2="5.9877172"
       id="linearGradient3617"
       xlink:href="#ButtonColor"
       gradientUnits="userSpaceOnUse"
       gradientTransform="translate(183.24597,3.931915e-6)" />
    <linearGradient
       x1="58.650177"
       y1="122"
       x2="58.650177"
       y2="5.4252338"
       id="ButtonColor"
       gradientUnits="userSpaceOnUse"
       gradientTransform="matrix(1.0172414,0,0,1.0172414,-1.1034483,-1.1034483)">
      <stop
         id="stop3189"
         style="stop-color:#cda060;stop-opacity:1"
         offset="0" />
      <stop
         id="stop3191"
         style="stop-color:#dbbb8e;stop-opacity:1"
         offset="1" />
    </linearGradient>
    <linearGradient
       x1="6"
       y1="67"
       x2="24"
       y2="67"
       id="linearGradient3979"
       xlink:href="#linearGradient3250"
       gradientUnits="userSpaceOnUse"
       gradientTransform="translate(0,-1)" />
    <linearGradient
       id="linearGradient3250">
      <stop
         id="stop3252"
         style="stop-color:#c4875e;stop-opacity:1"
         offset="0" />
      <stop
         id="stop3254"
         style="stop-color:#c4875e;stop-opacity:0"
         offset="1" />
    </linearGradient>
    <linearGradient
       x1="6"
       y1="67"
       x2="24"
       y2="67"
       id="linearGradient3982"
       xlink:href="#linearGradient3250"
       gradientUnits="userSpaceOnUse"
       gradientTransform="translate(0,-2)" />
    <linearGradient
       id="linearGradient3112">
      <stop
         id="stop3114"
         style="stop-color:#c4875e;stop-opacity:1"
         offset="0" />
      <stop
         id="stop3116"
         style="stop-color:#c4875e;stop-opacity:0"
         offset="1" />
    </linearGradient>
    <linearGradient
       x1="6"
       y1="67"
       x2="24"
       y2="67"
       id="linearGradient3984"
       xlink:href="#linearGradient3238"
       gradientUnits="userSpaceOnUse"
       gradientTransform="translate(0,1)" />
    <linearGradient
       id="linearGradient3238">
      <stop
         id="stop3240"
         style="stop-color:#784421;stop-opacity:1"
         offset="0" />
      <stop
         id="stop3242"
         style="stop-color:#784421;stop-opacity:0"
         offset="1" />
    </linearGradient>
    <linearGradient
       x1="6"
       y1="67"
       x2="24"
       y2="67"
       id="linearGradient3986"
       xlink:href="#linearGradient3238"
       gradientUnits="userSpaceOnUse" />
    <linearGradient
       id="linearGradient3123">
      <stop
         id="stop3125"
         style="stop-color:#784421;stop-opacity:1"
         offset="0" />
      <stop
         id="stop3127"
         style="stop-color:#784421;stop-opacity:0"
         offset="1" />
    </linearGradient>
    <linearGradient
       x1="6"
       y1="67"
       x2="24"
       y2="67"
       id="linearGradient4000"
       xlink:href="#linearGradient3250"
       gradientUnits="userSpaceOnUse"
       gradientTransform="translate(0,-1)" />
    <linearGradient
       id="linearGradient3130">
      <stop
         id="stop3132"
         style="stop-color:#c4875e;stop-opacity:1"
         offset="0" />
      <stop
         id="stop3134"
         style="stop-color:#c4875e;stop-opacity:0"
         offset="1" />
    </linearGradient>
    <linearGradient
       x1="6"
       y1="67"
       x2="24"
       y2="67"
       id="linearGradient4002"
       xlink:href="#linearGradient3250"
       gradientUnits="userSpaceOnUse"
       gradientTransform="translate(0,-2)" />
    <linearGradient
       id="linearGradient3137">
      <stop
         id="stop3139"
         style="stop-color:#c4875e;stop-opacity:1"
         offset="0" />
      <stop
         id="stop3141"
         style="stop-color:#c4875e;stop-opacity:0"
         offset="1" />
    </linearGradient>
    <linearGradient
       x1="6"
       y1="67"
       x2="24"
       y2="67"
       id="linearGradient4004"
       xlink:href="#linearGradient3238"
       gradientUnits="userSpaceOnUse"
       gradientTransform="translate(0,1)" />
    <linearGradient
       id="linearGradient3144">
      <stop
         id="stop3146"
         style="stop-color:#784421;stop-opacity:1"
         offset="0" />
      <stop
         id="stop3148"
         style="stop-color:#784421;stop-opacity:0"
         offset="1" />
    </linearGradient>
    <linearGradient
       x1="6"
       y1="67"
       x2="24"
       y2="67"
       id="linearGradient4006"
       xlink:href="#linearGradient3238"
       gradientUnits="userSpaceOnUse" />
    <linearGradient
       id="linearGradient3151">
      <stop
         id="stop3153"
         style="stop-color:#784421;stop-opacity:1"
         offset="0" />
      <stop
         id="stop3155"
         style="stop-color:#784421;stop-opacity:0"
         offset="1" />
    </linearGradient>
    <linearGradient
       x1="6"
       y1="67"
       x2="24"
       y2="67"
       id="linearGradient4020"
       xlink:href="#linearGradient3250"
       gradientUnits="userSpaceOnUse"
       gradientTransform="translate(0,-1)" />
    <linearGradient
       id="linearGradient3158">
      <stop
         id="stop3160"
         style="stop-color:#c4875e;stop-opacity:1"
         offset="0" />
      <stop
         id="stop3162"
         style="stop-color:#c4875e;stop-opacity:0"
         offset="1" />
    </linearGradient>
    <linearGradient
       x1="6"
       y1="67"
       x2="24"
       y2="67"
       id="linearGradient4022"
       xlink:href="#linearGradient3250"
       gradientUnits="userSpaceOnUse"
       gradientTransform="translate(0,-2)" />
    <linearGradient
       id="linearGradient3165">
      <stop
         id="stop3167"
         style="stop-color:#c4875e;stop-opacity:1"
         offset="0" />
      <stop
         id="stop3169"
         style="stop-color:#c4875e;stop-opacity:0"
         offset="1" />
    </linearGradient>
    <linearGradient
       x1="6"
       y1="67"
       x2="24"
       y2="67"
       id="linearGradient4024"
       xlink:href="#linearGradient3238"
       gradientUnits="userSpaceOnUse"
       gradientTransform="translate(0,1)" />
    <linearGradient
       id="linearGradient3172">
      <stop
         id="stop3174"
         style="stop-color:#784421;stop-opacity:1"
         offset="0" />
      <stop
         id="stop3176"
         style="stop-color:#784421;stop-opacity:0"
         offset="1" />
    </linearGradient>
    <linearGradient
       x1="6"
       y1="67"
       x2="24"
       y2="67"
       id="linearGradient4026"
       xlink:href="#linearGradient3238"
       gradientUnits="userSpaceOnUse" />
    <linearGradient
       id="linearGradient3179">
      <stop
         id="stop3181"
         style="stop-color:#784421;stop-opacity:1"
         offset="0" />
      <stop
         id="stop3183"
         style="stop-color:#784421;stop-opacity:0"
         offset="1" />
    </linearGradient>
    <radialGradient
       cx="48"
       cy="90.171875"
       r="42"
       fx="48"
       fy="90.171875"
       id="radialGradient3619"
       xlink:href="#linearGradient3737"
       gradientUnits="userSpaceOnUse"
       gradientTransform="matrix(1.1573129,0,0,0.99590774,-7.5510206,0.19713193)" />
    <linearGradient
       id="linearGradient3737">
      <stop
         id="stop3739"
         style="stop-color:#ffffff;stop-opacity:1"
         offset="0" />
      <stop
         id="stop3741"
         style="stop-color:#ffffff;stop-opacity:0"
         offset="1" />
    </linearGradient>
    <linearGradient
       x1="5"
       y1="64"
       x2="11.227473"
       y2="64"
       id="linearGradient3300"
       xlink:href="#linearGradient3294"
       gradientUnits="userSpaceOnUse"
       gradientTransform="translate(1,-15.321429)" />
    <linearGradient
       id="linearGradient3294">
      <stop
         id="stop3296"
         style="stop-color:#72401f;stop-opacity:1"
         offset="0" />
      <stop
         id="stop3298"
         style="stop-color:#72401f;stop-opacity:0"
         offset="1" />
    </linearGradient>
    <linearGradient
       x1="36.357143"
       y1="6"
       x2="36.357143"
       y2="63.893143"
       id="linearGradient3188"
       xlink:href="#linearGradient3737"
       gradientUnits="userSpaceOnUse" />
    <linearGradient
       id="linearGradient3194">
      <stop
         id="stop3196"
         style="stop-color:#ffffff;stop-opacity:1"
         offset="0" />
      <stop
         id="stop3198"
         style="stop-color:#ffffff;stop-opacity:0"
         offset="1" />
    </linearGradient>
    <linearGradient
       x1="88"
       y1="80"
       x2="88"
       y2="88"
       id="linearGradient3118"
       xlink:href="#linearGradient3914"
       gradientUnits="userSpaceOnUse" />
    <linearGradient
       id="linearGradient3914">
      <stop
         id="stop3916"
         style="stop-color:#9f7043;stop-opacity:1"
         offset="0" />
      <stop
         id="stop3918"
         style="stop-color:#9f7043;stop-opacity:0.53488374"
         offset="1" />
    </linearGradient>
    <linearGradient
       x1="40"
       y1="88"
       x2="40"
       y2="80"
       id="linearGradient3896"
       xlink:href="#linearGradient3890"
       gradientUnits="userSpaceOnUse" />
    <linearGradient
       id="linearGradient3890">
      <stop
         id="stop3892"
         style="stop-color:#ffffff;stop-opacity:1"
         offset="0" />
      <stop
         id="stop3898"
         style="stop-color:#eceadb;stop-opacity:1"
         offset="0.5" />
      <stop
         id="stop3894"
         style="stop-color:#d8d3a6;stop-opacity:1"
         offset="1" />
    </linearGradient>
    <linearGradient
       x1="32"
       y1="80"
       x2="16"
       y2="80"
       id="linearGradient4089"
       xlink:href="#linearGradient4075"
       gradientUnits="userSpaceOnUse" />
    <linearGradient
       id="linearGradient4075">
      <stop
         id="stop4077"
         style="stop-color:#ffffff;stop-opacity:1"
         offset="0" />
      <stop
         id="stop4079"
         style="stop-color:#ffffff;stop-opacity:0"
         offset="1" />
    </linearGradient>
    <linearGradient
       inkscape:collect="always"
       xlink:href="#ButtonColor"
       id="linearGradient4010"
       gradientUnits="userSpaceOnUse"
       gradientTransform="matrix(1.15,0,0,1.15,-7.1999462,-150.65292)"
       x1="47.999954"
       y1="962.62189"
       x2="47.999954"
       y2="1046.1001" />
    <clipPath
       clipPathUnits="userSpaceOnUse"
       id="clipPath3009">
      <path
         id="path3011"
         d="m -2,956.36218 -96,0 0,33.5624 96,25.68742 0,-59.24982 z"
         style="opacity:0.15;fill:#ffffff;fill-opacity:1;stroke:none"
         inkscape:connector-curvature="0" />
    </clipPath>
  </defs>
  <sodipodi:namedview
     id="base"
     pagecolor="#ffffff"
     bordercolor="#666666"
     borderopacity="1.0"
     inkscape:pageopacity="0.0"
     inkscape:pageshadow="2"
     inkscape:zoom="3.959798"
     inkscape:cx="55.635227"
     inkscape:cy="46.015564"
     inkscape:document-units="px"
     inkscape:current-layer="layer1"
     showgrid="false"
     inkscape:window-width="1280"
     inkscape:window-height="750"
     inkscape:window-x="0"
     inkscape:window-y="22"
     inkscape:window-maximized="1"
     showguides="true"
     inkscape:guide-bbox="true">
    <sodipodi:guide
       orientation="0,1"
       position="-24.748737,0"
       id="guide11064" />
    <sodipodi:guide
       orientation="0,1"
       position="-23.233509,96"
       id="guide11066" />
    <sodipodi:guide
       orientation="1,0"
       position="0,54.800776"
       id="guide11068" />
    <sodipodi:guide
       orientation="1,0"
       position="96,51.012704"
       id="guide11070" />
    <sodipodi:guide
       orientation="0,1"
       position="-18.94036,48"
       id="guide11072" />
    <sodipodi:guide
       orientation="1,0"
       position="48,79.296975"
       id="guide11074" />
    <sodipodi:guide
       orientation="1,0"
       position="2,75.508903"
       id="guide11076" />
    <sodipodi:guide
       orientation="0,1"
       position="-77.27667,2"
       id="guide11078" />
    <sodipodi:guide
       orientation="1,0"
       position="94,77.781746"
       id="guide11080" />
    <sodipodi:guide
       orientation="0,1"
       position="-65.912454,94"
       id="guide11082" />
  </sodipodi:namedview>
  <metadata
     id="metadata11042">
    <rdf:RDF>
      <cc:Work
         rdf:about="">
        <dc:format>image/svg+xml</dc:format>
        <dc:type
           rdf:resource="http://purl.org/dc/dcmitype/StillImage" />
        <dc:title />
      </cc:Work>
    </rdf:RDF>
  </metadata>
  <g
     inkscape:label="Layer 1"
     inkscape:groupmode="layer"
     id="layer1"
     transform="translate(0,-956.36218)">
    <rect
       x="2"
       y="958.36218"
       width="92"
       height="92"
       style="fill:url(#linearGradient4010);fill-opacity:1"
       id="rect3867"
       rx="25"
       ry="25" />
    <g
       transform="matrix(1.1190476,0,0,1.1190476,-113.04807,949.64789)"
       id="layer1-9">
      <g
         id="g4012"
         transform="translate(87.319554,5.5106435)">
        <path
           style="opacity:0.55870445;fill:#784421;fill-opacity:1;fill-rule:evenodd;stroke:none;display:inline"
           id="path3189"
           inkscape:connector-curvature="0"
           d="m 28,10 0,0.498361 0,5.201639 0,0.498361 0.49948,0 4.557752,0 0,4.142623 -1.498439,0 0,-2.118033 0,-0.498361 -0.49948,0 -2.559833,0 -0.49948,0 0,0.498361 0,2.616393 0,0.498361 0.49948,0 2.060354,0 0,43.32459 -2.060354,0 -0.49948,0 0,0.498361 0,2.647541 0,0.49836 0.49948,0 2.559833,0 0.49948,0 0,-0.49836 0,-2.149181 1.498439,0 0,4.142623 -4.557752,0 -0.49948,0 L 28,70.3 28,75.501639 28,76 l 0.49948,0 5.057232,0 0.499479,0 0,-0.498361 0,-4.703278 4.245578,0 0,1.650819 -2.154006,0 -0.49948,0 0,0.498361 0,2.554098 0,0.498361 0.49948,0 2.653486,0 0.499479,0 0,-0.498361 0,-2.055737 35.398544,0 0,2.055737 0,0.498361 0.499479,0 2.684704,0 0.499479,0 0,-0.498361 0,-2.554098 0,-0.498361 -0.499479,0 -2.185224,0 0,-1.650819 4.245578,0 0,4.703278 0,0.498361 0.499479,0 5.057232,0 L 86,76 86,75.501639 86,70.3 l 0,-0.498361 -0.49948,0 -4.557752,0 0,-4.142623 1.529657,0 0,2.149181 0,0.49836 0.499479,0 2.528616,0 0.49948,0 0,-0.49836 0,-2.647541 0,-0.498361 -0.49948,0 -2.029136,0 0,-43.32459 2.029136,0 0.49948,0 0,-0.498361 0,-2.616393 0,-0.498361 -0.49948,0 -2.528616,0 -0.499479,0 0,0.498361 0,2.118033 -1.529657,0 0,-4.142623 4.557752,0 0.49948,0 L 86,15.7 86,10.498361 86,10 l -0.49948,0 -5.057232,0 -0.499479,0 0,0.498361 0,4.703278 -4.245578,0 0,-1.650819 2.185224,0 0.499479,0 0,-0.467213 0,-2.585246 0,-0.498361 -0.499479,0 -2.684704,0 -0.499479,0 0,0.498361 0,2.086885 -35.398544,0 0,-2.086885 0,-0.498361 -0.499479,0 -2.653486,0 -0.49948,0 0,0.498361 0,2.585246 0,0.467213 0.49948,0 2.154006,0 0,1.650819 -4.245578,0 0,-4.703278 0,-0.498361 -0.499479,0 -5.057232,0 z m 0.998959,0.996721 4.058273,0 0,4.204918 -4.058273,0 z m 7.648283,0 1.654527,0 0,1.588525 -1.654527,0 z m 39.050989,0 1.685744,0 0,1.588525 -1.685744,0 z m 5.244537,0 4.058273,0 0,4.204918 -4.058273,0 z m -41.64204,2.554099 35.398544,0 0,1.650819 -2.091572,0 -0.499479,0 0,0.498361 0,2.585246 0,0.467213 0.499479,0 2.591051,0 0.49948,0 0,-0.467213 0,-2.086885 4.245578,0 0,4.142623 -2.154007,0 -0.499479,0 0,0.49836 0,2.585246 0,0.467213 0.499479,0 2.653486,0 0.49948,0 0,-0.467213 0,-2.086885 1.529657,0 0,43.32459 -1.529657,0 0,-2.055738 0,-0.49836 -0.49948,0 -2.653486,0 -0.499479,0 0,0.49836 0,2.554099 0,0.49836 0.499479,0 2.154007,0 0,4.142623 -4.245578,0 0,-2.055737 0,-0.498361 -0.49948,0 -2.591051,0 -0.499479,0 0,0.498361 0,2.554098 0,0.498361 0.499479,0 2.091572,0 0,1.650819 -35.398544,0 0,-1.650819 2.122789,0 0.49948,0 0,-0.498361 0,-2.554098 0,-0.498361 -0.49948,0 -2.622268,0 -0.49948,0 0,0.498361 0,2.055737 -4.245578,0 0,-4.142623 2.185224,0 0.49948,0 0,-0.49836 0,-2.554099 0,-0.49836 -0.49948,0 -2.684703,0 -0.49948,0 0,0.49836 0,2.055738 -1.498439,0 0,-43.32459 1.498439,0 0,2.086885 0,0.467213 0.49948,0 2.684703,0 0.49948,0 0,-0.467213 0,-2.585246 0,-0.49836 -0.49948,0 -2.185224,0 0,-4.142623 4.245578,0 0,2.086885 0,0.467213 0.49948,0 2.622268,0 0.49948,0 0,-0.467213 0,-2.585246 0,-0.498361 -0.49948,0 -2.122789,0 z m 0,2.647541 1.623309,0 0,1.588524 -1.623309,0 z m 33.806452,0 1.592092,0 0,1.588524 -1.592092,0 z m -44.108221,2.491803 1.560875,0 0,1.65082 -1.560875,0 z m 54.472425,0 1.529657,0 0,1.65082 -1.529657,0 z m -49.415193,2.647541 1.685744,0 0,1.588525 -1.685744,0 z m 44.233091,0 1.654527,0 0,1.588525 -1.654527,0 z m -44.233091,41.767213 1.685744,0 0,1.557377 -1.685744,0 z m 44.233091,0 1.654527,0 0,1.557377 -1.654527,0 z m -49.290323,2.554098 1.560875,0 0,1.65082 -1.560875,0 z m 54.472425,0 1.529657,0 0,1.65082 -1.529657,0 z m -44.170656,2.585246 1.623309,0 0,1.557377 -1.623309,0 z m 33.806452,0 1.592092,0 0,1.557377 -1.592092,0 z m -44.108221,2.554099 4.058273,0 0,4.204918 -4.058273,0 z m 51.943809,0 4.058273,0 0,4.204918 -4.058273,0 z m -44.295526,2.647541 1.654527,0 0,1.557377 -1.654527,0 z m 39.050989,0 1.685744,0 0,1.557377 -1.685744,0 z" />
        <path
           style="font-size:36px;font-style:normal;font-variant:normal;font-weight:normal;font-stretch:normal;text-align:start;line-height:100%;writing-mode:lr-tb;text-anchor:start;fill:#784421;fill-opacity:1;stroke:none;display:inline;font-family:Century Schoolbook L;-inkscape-font-specification:Century Schoolbook L"
           id="text3202"
           inkscape:connector-curvature="0"
           d="m 45.605903,25.720536 -1.016793,0 -5.568154,14.11406 c -0.484187,1.258885 -0.581026,1.428353 -0.944166,1.815702 -0.38735,0.459978 -1.065213,0.75049 -1.718865,0.75049 l -0.09684,0 0,1.137841 6.415481,0 0,-1.137841 -0.484187,0 c -1.307304,0 -1.960959,-0.459978 -1.960959,-1.379934 0,-0.290512 0.07263,-0.629444 0.217884,-1.016792 l 0.79891,-2.130425 6.415481,0 1.307306,3.244055 c 0.145256,0.36314 0.193674,0.532606 0.193674,0.653653 0,0.387349 -0.605234,0.629443 -1.50098,0.629443 l -1.016793,0 0,1.137841 7.504904,0 0,-1.137841 -0.338933,0 c -1.210466,0 -1.47677,-0.193676 -2.033585,-1.549399 L 45.605903,25.720536 m -1.186259,3.970335 2.735658,6.87546 -5.422898,0 2.68724,-6.87546 m 13.887855,-3.994546 -4.164011,0.266304 0,1.041002 0.847327,0 c 0.895746,0 1.041003,0.169468 1.041003,1.210469 l 0,9.417444 c 0,3.244051 -0.121047,4.817664 -0.435769,6.246016 l 0.919956,0 1.186257,-1.888331 c 0.992584,1.307304 2.130427,1.91254 3.631406,1.91254 2.977749,0 5.205014,-2.590405 5.205014,-6.076551 0,-3.486145 -2.03359,-5.931294 -4.93871,-5.931294 -1.476771,0 -2.372519,0.508398 -3.292474,1.88833 l 0,-8.085929 m 2.856705,7.432276 c 1.815701,0 2.832496,1.767287 2.832496,4.938711 0,3.050377 -0.992586,4.793454 -2.759868,4.793454 -1.912538,0 -3.05038,-1.767287 -3.05038,-4.745035 0,-3.219843 1.041004,-4.98713 2.977752,-4.98713 m 15.630545,6.851251 c -0.774697,1.743072 -1.597817,2.445146 -2.8567,2.445146 -1.936749,0 -3.147219,-1.767287 -3.147219,-4.59978 0,-2.92933 1.186261,-4.890292 2.977755,-4.890292 0.726276,0 1.35572,0.338933 1.35572,0.726281 0,0.07263 -0.0484,0.145257 -0.145258,0.290513 -0.387343,0.459977 -0.484185,0.702072 -0.484185,1.11363 0,0.798909 0.605239,1.355725 1.452563,1.355725 0.847324,0 1.476769,-0.677863 1.476769,-1.646237 0,-1.622026 -1.622028,-2.880914 -3.776657,-2.880914 -3.147216,0 -5.39869,2.590405 -5.39869,6.197597 0,3.437726 2.0578,5.810248 5.059758,5.810248 2.154635,0 3.389308,-0.992587 4.430312,-3.558777 l -0.944167,-0.36314" />
        <path
           style="font-size:6px;font-style:normal;font-variant:normal;font-weight:normal;font-stretch:normal;text-align:start;line-height:100%;writing-mode:lr-tb;text-anchor:start;fill:#784421;fill-opacity:1;stroke:none;display:inline;font-family:Century Schoolbook L;-inkscape-font-specification:Century Schoolbook L"
           id="text3210"
           inkscape:connector-curvature="0"
           d="m 44.30695,47.399599 -0.134406,0 -0.137943,0.215757 c -0.229906,-0.183924 -0.385534,-0.244053 -0.643735,-0.244053 -0.279423,0 -0.498717,0.07782 -0.721548,0.258202 -0.350163,0.282959 -0.512866,0.640197 -0.512866,1.117691 0,0.360775 0.106111,0.66142 0.311256,0.891325 0.219294,0.24759 0.544698,0.392607 0.884251,0.392607 0.297108,0 0.505791,-0.09196 0.735695,-0.321867 l 0.13087,0.31833 0.148554,0 0,-0.77814 c 0,-0.190997 0,-0.194536 0.02123,-0.219295 0.03184,-0.03537 0.106111,-0.04952 0.297109,-0.04952 l 0.05305,0 0,-0.166239 -1.124766,0 0,0.166239 0.0672,0 c 0.297108,0 0.321868,0.01769 0.321868,0.21222 0,0.152092 -0.0283,0.293572 -0.07074,0.378459 -0.08843,0.173313 -0.314793,0.293572 -0.544697,0.293572 -0.226369,0 -0.456274,-0.116721 -0.576532,-0.293572 -0.130869,-0.194534 -0.187461,-0.445662 -0.187461,-0.824121 0,-0.78875 0.261739,-1.209655 0.753381,-1.209655 0.403217,0 0.682642,0.290035 0.827658,0.855955 l 0.152091,0 -0.04952,-0.993897 m 1.157815,0.930231 -0.611901,0.0389 0,0.152091 0.127333,0 c 0.130868,0 0.15209,0.02476 0.15209,0.176851 l 0,0.845343 0,0.14148 c 0,0.14148 -0.0389,0.166239 -0.265274,0.166239 l -0.01415,0 0,0.127332 0.894861,0 0,-0.127332 -0.01415,0 c -0.229904,0 -0.268812,-0.02476 -0.268812,-0.166239 l 0,-0.14148 0,-0.367849 c 0,-0.173312 0.02476,-0.332478 0.06367,-0.413829 0.07428,-0.159164 0.233442,-0.268812 0.385533,-0.268812 0.09196,0 0.198073,0.05305 0.251127,0.123795 0.05305,0.07428 0.07782,0.183925 0.07782,0.3537 l 0,0.572995 0,0.14148 c 0,0.14148 -0.0389,0.166239 -0.268813,0.166239 l -0.01415,0 0,0.127332 0.894862,0 0,-0.127332 -0.01415,0 c -0.226367,0 -0.265274,-0.02476 -0.265274,-0.166239 l 0,-0.14148 0,-0.555309 c 0,-0.254664 -0.01061,-0.318331 -0.07428,-0.438589 -0.08843,-0.169776 -0.268811,-0.272349 -0.477495,-0.272349 -0.226365,0 -0.403218,0.106111 -0.558846,0.339552 l 0,-0.286497 m 2.346193,-0.05305 c -0.431514,0 -0.771067,0.385534 -0.771067,0.880713 0,0.484569 0.339553,0.87364 0.763992,0.87364 0.424441,0 0.763993,-0.389071 0.763993,-0.877177 0,-0.484568 -0.339552,-0.877176 -0.756918,-0.877176 m 0,0.15209 c 0.24759,0 0.385533,0.258202 0.385533,0.725086 0,0.470421 -0.137943,0.725085 -0.392608,0.725085 -0.254663,0 -0.392607,-0.254664 -0.392607,-0.721548 0,-0.481031 0.134408,-0.728623 0.399682,-0.728623 m 1.588113,-0.09904 -0.629586,0.0389 0,0.152091 0.145017,0 c 0.130869,0 0.152091,0.02476 0.152091,0.176851 l 0,0.845343 0,0.137943 c 0,0.145017 -0.0389,0.169776 -0.265275,0.169776 l -0.01415,0 0,0.127332 0.891324,0 0,-0.127332 -0.01415,0 c -0.226369,0 -0.265276,-0.02476 -0.265276,-0.169776 l 0,-0.137943 0,-0.502255 c 0,-0.314792 0.173313,-0.548235 0.403218,-0.548235 0.09196,0 0.190999,0.04952 0.233443,0.116722 0.04952,0.0672 0.07074,0.169776 0.07074,0.314793 l 0,0.618975 0,0.14148 c 0,0.14148 -0.0389,0.166239 -0.268811,0.166239 l -0.01415,0 0,0.127332 0.894861,0 0,-0.127332 -0.01415,0 c -0.226369,0 -0.265276,-0.02476 -0.265276,-0.166239 l 0,-0.14148 0,-0.470422 c 0,-0.353699 0.159165,-0.580068 0.406757,-0.580068 0.11672,0 0.212219,0.06721 0.2582,0.17685 0.03183,0.07782 0.04244,0.155629 0.04244,0.293571 l 0,0.580069 0,0.14148 c 0,0.14148 -0.0389,0.166239 -0.268811,0.166239 l -0.01415,0 0,0.127332 0.894861,0 0,-0.127332 -0.01415,0 c -0.226369,0 -0.265276,-0.02476 -0.265276,-0.169776 l 0,-0.137943 0,-0.650809 c 0,-0.219293 -0.02123,-0.293571 -0.113184,-0.413829 -0.102553,-0.13086 -0.247572,-0.2016 -0.417346,-0.2016 -0.229906,0 -0.399683,0.109648 -0.551773,0.3537 -0.06013,-0.21222 -0.251128,-0.3537 -0.488107,-0.3537 -0.212219,0 -0.371384,0.102573 -0.509328,0.325405 l 0,-0.27235 m 4.077002,0.852417 c 0.0035,-0.530549 -0.297107,-0.905472 -0.728621,-0.905472 -0.452736,0 -0.792289,0.392608 -0.792289,0.923158 0,0.495179 0.321868,0.831195 0.799363,0.831195 0.336015,0 0.576532,-0.166239 0.721548,-0.502255 l -0.123794,-0.0672 c -0.145017,0.272349 -0.293572,0.378459 -0.530552,0.378459 -0.180386,0 -0.311255,-0.07782 -0.403217,-0.233441 -0.06367,-0.10611 -0.09196,-0.229905 -0.08843,-0.424441 l 1.145989,0 m -1.142451,-0.152091 c 0,-0.109646 0.01415,-0.187461 0.04952,-0.286497 0.07428,-0.21222 0.187462,-0.314794 0.357238,-0.314794 0.215757,0 0.357238,0.187462 0.357238,0.470422 0,0.102573 -0.03184,0.130869 -0.145018,0.130869 l -0.618975,0 m 2.73178,0.512866 0,0.102573 c 0,0.148554 -0.03184,0.166239 -0.314792,0.166239 l -0.0672,0 0,0.166239 1.188433,0 c 0.314792,0 0.555309,-0.04952 0.74277,-0.155629 0.357237,-0.201608 0.55531,-0.604827 0.55531,-1.135377 0,-0.484568 -0.176852,-0.870102 -0.502255,-1.082322 -0.194535,-0.123795 -0.456274,-0.180388 -0.859491,-0.180388 l -1.124767,0 0,0.166239 0.0672,0 c 0.282959,0 0.314792,0.01769 0.314792,0.166239 l 0,0.102573 0,1.683614 m 0.597755,0.268812 c -0.176851,0 -0.20161,-0.02123 -0.20161,-0.194536 l 0,-1.82863 c 0,-0.173312 0.02476,-0.198072 0.20161,-0.198072 l 0.183923,0 c 0.604827,0 0.855954,0.328943 0.855954,1.110619 0,0.792288 -0.229904,1.110619 -0.799362,1.110619 l -0.240515,0 m 2.395765,-1.482004 -0.664956,0.0389 0,0.152091 0.180386,0 c 0.130869,0 0.152092,0.02476 0.152092,0.176851 l 0,0.845343 0,0.14148 c 0,0.14148 -0.0389,0.166239 -0.265275,0.166239 l -0.02476,0 0,0.127332 0.916084,0 0,-0.127332 -0.02476,0 c -0.229904,0 -0.268812,-0.02476 -0.268812,-0.166239 l 0,-0.14148 0,-1.213192 m -0.166239,-0.880713 c -0.113184,0 -0.205146,0.09196 -0.205146,0.205146 0,0.109647 0.09196,0.205146 0.201609,0.205146 0.116721,0 0.208683,-0.09196 0.208683,-0.205146 0,-0.113184 -0.09196,-0.205146 -0.205146,-0.205146 m 1.918658,2.009016 c -0.113184,0.254665 -0.233442,0.357238 -0.417366,0.357238 -0.282959,0 -0.459811,-0.258201 -0.459811,-0.672031 0,-0.427976 0.173313,-0.714474 0.435052,-0.714474 0.10611,0 0.198072,0.04952 0.198072,0.10611 0,0.01061 -0.007,0.02123 -0.02123,0.04244 -0.05659,0.0672 -0.07074,0.102573 -0.07074,0.162701 0,0.116721 0.08843,0.198072 0.21222,0.198072 0.123795,0 0.215758,-0.09904 0.215758,-0.240515 0,-0.236979 -0.23698,-0.420903 -0.551772,-0.420903 -0.459811,0 -0.788752,0.378459 -0.788752,0.905471 0,0.502255 0.300646,0.848881 0.739233,0.848881 0.314792,0 0.49518,-0.145017 0.647272,-0.519939 l -0.137944,-0.05305 m 0.885521,-1.128303 0,-0.700326 -0.145017,0 c -0.03537,0.459809 -0.190997,0.693252 -0.477495,0.714474 l 0,0.137943 0.290034,0 0,0.901936 c 0,0.247589 0.007,0.336015 0.04244,0.417365 0.05659,0.148554 0.198072,0.229906 0.403218,0.229906 0.137942,0 0.258201,-0.04244 0.339552,-0.120259 0.116721,-0.113183 0.183924,-0.300645 0.183924,-0.495179 0,-0.02123 0,-0.04598 -0.0035,-0.08135 l -0.148554,0 c -0.01061,0.31833 -0.102572,0.481032 -0.275886,0.481032 -0.08135,0 -0.15209,-0.04244 -0.17685,-0.102573 -0.02123,-0.04952 -0.03184,-0.137943 -0.03184,-0.265275 l 0,-0.965601 0.519939,0 0,-0.152091 -0.519939,0 m 1.417177,0 -0.664956,0.0389 0,0.152091 0.180387,0 c 0.130869,0 0.152091,0.02476 0.152091,0.17685 l 0,0.845344 0,0.14148 c 0,0.141479 -0.0389,0.166239 -0.265274,0.166239 l -0.02476,0 0,0.127332 0.916083,0 0,-0.127332 -0.02476,0 c -0.229904,0 -0.268812,-0.02476 -0.268812,-0.166239 l 0,-0.14148 0,-1.213192 m -0.166239,-0.880714 c -0.113183,0 -0.205146,0.09196 -0.205146,0.205146 0,0.109648 0.09196,0.205146 0.20161,0.205146 0.11672,0 0.208683,-0.09196 0.208683,-0.205146 0,-0.113183 -0.09196,-0.205146 -0.205147,-0.205146 m 1.441162,0.827659 c -0.431514,0 -0.771066,0.385534 -0.771066,0.880713 0,0.484569 0.339552,0.87364 0.763992,0.87364 0.42444,0 0.763992,-0.389071 0.763992,-0.877177 0,-0.484568 -0.339552,-0.877176 -0.756918,-0.877176 m 0,0.15209 c 0.247591,0 0.385533,0.258202 0.385533,0.725086 0,0.470421 -0.137942,0.725085 -0.392607,0.725085 -0.254663,0 -0.392607,-0.254664 -0.392607,-0.721548 0,-0.481031 0.134407,-0.728623 0.399681,-0.728623 m 1.584577,-0.09904 -0.611901,0.0389 0,0.152091 0.127332,0 c 0.130869,0 0.152091,0.02476 0.152091,0.176851 l 0,0.845343 0,0.14148 c 0,0.14148 -0.0389,0.166239 -0.265276,0.166239 l -0.01415,0 0,0.127332 0.89486,0 0,-0.127332 -0.01415,0 c -0.229904,0 -0.268811,-0.02476 -0.268811,-0.166239 l 0,-0.14148 0,-0.367849 c 0,-0.173312 0.02476,-0.332478 0.06367,-0.413829 0.07428,-0.159164 0.233442,-0.268812 0.385533,-0.268812 0.09196,0 0.198072,0.05305 0.251127,0.123795 0.05305,0.07428 0.07782,0.183925 0.07782,0.3537 l 0,0.572995 0,0.14148 c 0,0.14148 -0.0389,0.166239 -0.268812,0.166239 l -0.01415,0 0,0.127332 0.894861,0 0,-0.127332 -0.01415,0 c -0.226368,0 -0.265275,-0.02476 -0.265275,-0.166239 l 0,-0.14148 0,-0.55531 c 0,-0.254663 -0.01061,-0.31833 -0.07428,-0.438588 -0.08843,-0.169776 -0.268812,-0.272349 -0.477495,-0.272349 -0.226367,0 -0.403219,0.106111 -0.558847,0.339552 l 0,-0.286497 m 3.053593,0.509329 c 0,-0.222832 -0.0389,-0.336016 -0.141479,-0.420904 -0.116721,-0.09196 -0.290035,-0.14148 -0.516404,-0.14148 -0.396143,0 -0.689714,0.187462 -0.689714,0.442125 0,0.134406 0.08135,0.219294 0.205146,0.219294 0.109647,0 0.190998,-0.07428 0.190998,-0.180387 0,-0.04598 -0.01769,-0.0955 -0.05305,-0.145017 -0.02123,-0.02476 -0.02476,-0.03537 -0.02476,-0.04598 0,-0.07428 0.145016,-0.137943 0.314792,-0.137943 0.109647,0 0.233442,0.03537 0.290034,0.08843 0.0672,0.05659 0.09196,0.141481 0.09196,0.300645 l 0,0.137944 c -0.371385,0.06367 -0.48457,0.09196 -0.657883,0.159165 -0.304181,0.113183 -0.452735,0.279423 -0.452735,0.502253 0,0.251127 0.201609,0.41383 0.512864,0.41383 0.244052,0 0.463348,-0.09904 0.615438,-0.279424 0.05659,0.180387 0.145017,0.251128 0.311256,0.251128 0.159166,0 0.325406,-0.102574 0.325406,-0.205147 0,-0.02476 -0.01769,-0.04244 -0.03537,-0.04244 -0.01415,0 -0.0283,0.0035 -0.05305,0.01415 -0.05659,0.02123 -0.07074,0.02476 -0.09904,0.02476 -0.09904,0 -0.134407,-0.0672 -0.134407,-0.244053 l 0,-0.710937 m -0.332478,0.431514 c 0,0.21222 -0.01061,0.261739 -0.07074,0.3537 -0.08843,0.130869 -0.251127,0.219294 -0.403217,0.219294 -0.159165,0 -0.279424,-0.116721 -0.279424,-0.275886 0,-0.148553 0.07428,-0.254664 0.229905,-0.328941 0.109647,-0.04952 0.24759,-0.08489 0.523476,-0.130869 l 0,0.162702 m 1.402919,-0.940843 -0.62605,0.0389 0,0.152091 0.145017,0 c 0.130869,0 0.152091,0.02476 0.152091,0.17685 l 0,0.845344 0,0.14148 c 0,0.141479 -0.0389,0.166239 -0.268812,0.166239 l -0.01415,0 0,0.127332 0.944382,0 0,-0.127332 -0.0672,0 c -0.226368,0 -0.265275,-0.02476 -0.265275,-0.166239 l 0,-0.14148 0,-0.03537 c 0,-0.265275 0.04952,-0.534087 0.137944,-0.735697 0.08489,-0.198071 0.205146,-0.307719 0.353699,-0.325404 -0.04952,0.05659 -0.06367,0.09196 -0.06367,0.159165 0,0.113184 0.08135,0.194536 0.194534,0.194536 0.127333,0 0.215758,-0.0955 0.215758,-0.240517 0,-0.169775 -0.120258,-0.28296 -0.307719,-0.28296 -0.222832,0 -0.417366,0.180388 -0.530552,0.491644 l 0,-0.438589 m 1.928939,1.199043 -0.389071,-0.909009 c -0.01415,-0.03184 -0.02123,-0.05659 -0.02123,-0.07428 0,-0.06367 0.04244,-0.08843 0.162703,-0.08843 l 0.07428,0 0,-0.127333 -0.841806,0 0,0.127333 0.0389,0 c 0.113184,0 0.17685,0.04952 0.240516,0.190998 l 0.576531,1.305153 -0.06013,0.123795 c -0.127331,0.268812 -0.29357,0.456273 -0.406755,0.456273 -0.03183,0 -0.05659,-0.01415 -0.05659,-0.03537 0,-0.007 0.0035,-0.01769 0.007,-0.03184 0.01061,-0.03184 0.01769,-0.06367 0.01769,-0.09196 0,-0.09196 -0.07782,-0.159165 -0.180387,-0.159165 -0.123795,0 -0.21222,0.09196 -0.21222,0.219294 0,0.155628 0.137943,0.272349 0.321867,0.272349 0.187461,0 0.346626,-0.09196 0.488106,-0.28296 0.109647,-0.148553 0.180387,-0.290034 0.336015,-0.682641 l 0.403218,-0.997434 c 0.08843,-0.215757 0.162703,-0.286498 0.297109,-0.286498 l 0.02123,0 0,-0.127332 -0.707401,0 0,0.127332 0.05659,0 c 0.134407,0 0.190998,0.0389 0.190998,0.130869 0,0.03537 -0.01061,0.08136 -0.03537,0.14148 l -0.321867,0.799362" />
      </g>
    </g>
    <rect
       ry="25"
       rx="25"
       id="rect3003"
       style="opacity:0.15;fill:#ffffff;fill-opacity:1"
       height="92"
       width="92"
       y="958.36218"
       x="-96"
       clip-path="url(#clipPath3009)"
       transform="translate(98,3.8281269e-7)" />
  </g>
</svg>
