<?xml version="1.0" encoding="UTF-8" standalone="no"?>
<!-- Created with Inkscape (http://www.inkscape.org/) -->

<svg
   xmlns:dc="http://purl.org/dc/elements/1.1/"
   xmlns:cc="http://creativecommons.org/ns#"
   xmlns:rdf="http://www.w3.org/1999/02/22-rdf-syntax-ns#"
   xmlns:svg="http://www.w3.org/2000/svg"
   xmlns="http://www.w3.org/2000/svg"
   xmlns:xlink="http://www.w3.org/1999/xlink"
   xmlns:sodipodi="http://sodipodi.sourceforge.net/DTD/sodipodi-0.dtd"
   xmlns:inkscape="http://www.inkscape.org/namespaces/inkscape"
   width="96"
   height="96"
   id="svg11037"
   version="1.1"
   inkscape:version="0.48.3.1 r9886"
   sodipodi:docname="adobe-air.svg">
  <defs
     id="defs11039">
    <linearGradient
       y2="1046.1001"
       x2="47.999954"
       y1="962.62189"
       x1="47.999954"
       gradientTransform="matrix(1.15,0,0,1.15,-7.1999462,-150.65291)"
       gradientUnits="userSpaceOnUse"
       id="linearGradient3886"
       xlink:href="#linearGradient3795"
       inkscape:collect="always" />
    <linearGradient
       id="linearGradient3795">
      <stop
         style="stop-color:#13a6fd;stop-opacity:1;"
         offset="0"
         id="stop3797" />
      <stop
         style="stop-color:#2975b6;stop-opacity:1;"
         offset="1"
         id="stop3799" />
    </linearGradient>
    <linearGradient
       y2="1046.1001"
       x2="47.999954"
       y1="962.62189"
       x1="47.999954"
       gradientTransform="matrix(1.15,0,0,1.15,-7.1999462,-150.65292)"
       gradientUnits="userSpaceOnUse"
       id="linearGradient11642"
       xlink:href="#linearGradient5387"
       inkscape:collect="always" />
    <linearGradient
       inkscape:collect="always"
       xlink:href="#linearGradient5387"
       id="linearGradient3062"
       gradientUnits="userSpaceOnUse"
       gradientTransform="matrix(0.95238,0,0,0.95238,-147.40922,980.20932)"
       x1="48"
       y1="90"
       x2="47.999001"
       y2="-59.097" />
    <linearGradient
       id="linearGradient5387"
       y2="-59.097"
       gradientUnits="userSpaceOnUse"
       x2="47.999001"
       gradientTransform="matrix(0.95238,0,0,0.95238,2.2857,958.65)"
       y1="90"
       x1="48">
      <stop
         id="stop3690-0"
         style="stop-color:#ad0d0d"
         offset="0" />
      <stop
         id="stop3692-9"
         style="stop-color:#e02f11"
         offset="1" />
    </linearGradient>
    <linearGradient
       y2="-59.097"
       x2="47.999001"
       y1="90"
       x1="48"
       gradientTransform="matrix(0.95238,0,0,0.95238,-96.979546,933.16359)"
       gradientUnits="userSpaceOnUse"
       id="linearGradient3079"
       xlink:href="#linearGradient5387"
       inkscape:collect="always" />
    <linearGradient
       id="linearGradient5502"
       y2="159.48"
       xlink:href="#linearGradient3694-0"
       gradientUnits="userSpaceOnUse"
       x2="-50.243999"
       gradientTransform="matrix(0.59136,-0.15845,-0.15845,-0.59136,-32.612,954.44)"
       y1="72.698997"
       x1="-73.494003" />
    <linearGradient
       id="linearGradient3694-0">
      <stop
         id="stop3696-7"
         style="stop-color:#e6e6e6"
         offset="0" />
      <stop
         id="stop3698-2"
         style="stop-color:#f5f5f5"
         offset="1" />
    </linearGradient>
    <linearGradient
       id="linearGradient5504"
       y2="159.48"
       xlink:href="#linearGradient3694-0"
       gradientUnits="userSpaceOnUse"
       x2="-50.243999"
       gradientTransform="matrix(0.59136,-0.15845,-0.15845,-0.59136,-32.612,955.44)"
       y1="72.698997"
       x1="-73.494003" />
    <linearGradient
       id="linearGradient3096">
      <stop
         id="stop3098"
         style="stop-color:#e6e6e6"
         offset="0" />
      <stop
         id="stop3100"
         style="stop-color:#f5f5f5"
         offset="1" />
    </linearGradient>
    <linearGradient
       id="linearGradient5506"
       y2="120"
       gradientUnits="userSpaceOnUse"
       x2="58"
       gradientTransform="translate(-135.97,846.14)"
       y1="19"
       x1="58">
      <stop
         id="stop4087-8"
         style="stop-color:#782121"
         offset="0" />
      <stop
         id="stop4089-4"
         style="stop-color:#782121;stop-opacity:0"
         offset="1" />
    </linearGradient>
    <clipPath
       clipPathUnits="userSpaceOnUse"
       id="clipPath3009">
      <path
         id="path3011"
         d="m -2,956.36218 -96,0 0,33.5624 96,25.68742 0,-59.24982 z"
         style="opacity:0.15;fill:#ffffff;fill-opacity:1;stroke:none"
         inkscape:connector-curvature="0" />
    </clipPath>
  </defs>
  <sodipodi:namedview
     id="base"
     pagecolor="#ffffff"
     bordercolor="#666666"
     borderopacity="1.0"
     inkscape:pageopacity="0.0"
     inkscape:pageshadow="2"
     inkscape:zoom="3.959798"
     inkscape:cx="33.538031"
     inkscape:cy="59.964634"
     inkscape:document-units="px"
     inkscape:current-layer="layer1"
     showgrid="false"
     inkscape:window-width="1280"
     inkscape:window-height="750"
     inkscape:window-x="0"
     inkscape:window-y="22"
     inkscape:window-maximized="1"
     showguides="true"
     inkscape:guide-bbox="true">
    <sodipodi:guide
       orientation="0,1"
       position="-24.748737,0"
       id="guide11064" />
    <sodipodi:guide
       orientation="0,1"
       position="-23.233509,96"
       id="guide11066" />
    <sodipodi:guide
       orientation="1,0"
       position="0,54.800776"
       id="guide11068" />
    <sodipodi:guide
       orientation="1,0"
       position="96,51.012704"
       id="guide11070" />
    <sodipodi:guide
       orientation="0,1"
       position="-18.94036,48"
       id="guide11072" />
    <sodipodi:guide
       orientation="1,0"
       position="48,79.296975"
       id="guide11074" />
    <sodipodi:guide
       orientation="1,0"
       position="2,75.508903"
       id="guide11076" />
    <sodipodi:guide
       orientation="0,1"
       position="-77.27667,2"
       id="guide11078" />
    <sodipodi:guide
       orientation="1,0"
       position="94,77.781746"
       id="guide11080" />
    <sodipodi:guide
       orientation="0,1"
       position="-65.912454,94"
       id="guide11082" />
  </sodipodi:namedview>
  <metadata
     id="metadata11042">
    <rdf:RDF>
      <cc:Work
         rdf:about="">
        <dc:format>image/svg+xml</dc:format>
        <dc:type
           rdf:resource="http://purl.org/dc/dcmitype/StillImage" />
        <dc:title />
      </cc:Work>
    </rdf:RDF>
  </metadata>
  <g
     inkscape:label="Layer 1"
     inkscape:groupmode="layer"
     id="layer1"
     transform="translate(0,-956.36218)">
    <rect
       x="2"
       y="958.36218"
       width="92"
       height="92"
       style="fill:url(#linearGradient11642);fill-opacity:1.0"
       id="rect3867"
       rx="25"
       ry="25" />
    <g
       id="g5495"
       transform="translate(-167.45,25.15517)">
      <g
         id="g9987"
         transform="matrix(0.833,0,0,0.833,288.63,234.31)">
        <path
           inkscape:connector-curvature="0"
           id="path3860-6"
           style="fill:url(#linearGradient5502)"
           d="m -60.502,905.72 c -0.1751,-0.23693 -0.45245,-0.56999 -0.76469,-0.89019 -3.2485,-3.3336 -5.6748,-7.2697 -6.982,-11.629 -0.06,-0.20265 -0.12,-0.4053 -0.17388,-0.60856 -0.05633,-0.20449 -0.1053,-0.41326 -0.15551,-0.62081 -1.0463,-4.4265 -0.91836,-9.0507 0.23326,-13.56 0,0 0.17571,-0.74448 0.22102,-1.0512 0.96795,-5.6975 -2.5396,-11.298 -8.2303,-12.824 -5.8022,-1.5545 -11.749,1.699 -13.646,7.3107 -0.07837,0.20938 -0.23816,0.73836 -0.24,0.74631 -1.2471,4.4204 -3.4138,8.4336 -6.475,11.719 -3.4775,3.6502 -7.8985,6.2454 -12.855,7.5734 -6.0379,1.6175 -9.625,7.8348 -8.0068,13.875 1.6206,6.0391 7.8281,9.6262 13.87,8.0062 4.5085,-1.151 9.1328,-1.2814 13.561,-0.23571 0.20632,0.0514 0.41387,0.10224 0.61958,0.15796 0.20632,0.0551 0.41081,0.1151 0.6153,0.17326 4.3579,1.3084 8.2983,3.7328 11.627,6.9832 0.40898,0.40959 0.76224,0.69795 1.0922,0.93121 4.4748,3.4102 10.842,3.1487 14.922,-0.93121 4.1412,-4.1387 4.3812,-10.678 0.76775,-15.125 z m -27.437,2.0467 c -5.9112,-1.5839 -9.4205,-7.6622 -7.8366,-13.573 1.5851,-5.9118 7.6622,-9.4211 13.573,-7.8373 5.9136,1.5851 9.4217,7.6616 7.8373,13.573 -1.5845,5.9118 -7.6603,9.4217 -13.574,7.8373 z" />
        <path
           inkscape:connector-curvature="0"
           id="path4060-4"
           style="opacity:0.3"
           d="m -79.591,863.14 c -4.6385,0.13193 -8.8647,3.1592 -10.406,7.7188 -0.07837,0.20939 -0.24816,0.71079 -0.25,0.71875 -1.2471,4.4204 -3.4076,8.4335 -6.4688,11.719 -3.4775,3.6502 -7.8871,6.2658 -12.844,7.5938 -5.1575,1.3817 -8.5105,6.1019 -8.375,11.219 0.29599,-4.7229 3.5558,-8.9277 8.375,-10.219 4.9567,-1.3279 9.3662,-3.9436 12.844,-7.5938 3.0612,-3.2853 5.2216,-7.2984 6.4688,-11.719 0.0018,-0.008 0.17163,-0.50936 0.25,-0.71875 1.8973,-5.6118 7.8541,-8.867 13.656,-7.3125 4.8714,1.306 8.1098,5.5923 8.3438,10.375 0.20838,-5.1748 -3.1341,-9.9783 -8.3438,-11.375 -1.0879,-0.29146 -2.1796,-0.43669 -3.25,-0.40625 z m 10.312,22.781 c 0.0099,2.0392 0.21763,4.0747 0.6875,6.0625 0.0502,0.20755 0.09992,0.38926 0.15625,0.59375 0.05388,0.20326 0.1275,0.42235 0.1875,0.625 1.3071,4.3598 3.7202,8.2914 6.9688,11.625 0.31224,0.3202 0.60615,0.63806 0.78125,0.875 1.5809,1.9457 2.4295,4.3172 2.5312,6.6875 0.12597,-2.7081 -0.72454,-5.4638 -2.5312,-7.6875 -0.1751,-0.23694 -0.46901,-0.5548 -0.78125,-0.875 -3.2485,-3.3336 -5.6616,-7.2652 -6.9688,-11.625 -0.06,-0.20265 -0.13362,-0.42174 -0.1875,-0.625 -0.05633,-0.20449 -0.10605,-0.3862 -0.15625,-0.59375 -0.39237,-1.6599 -0.61745,-3.3634 -0.6875,-5.0625 z m -4.7188,10.781 c -0.04416,0.73502 -0.17694,1.4798 -0.375,2.2188 -1.5845,5.9118 -7.6489,9.4282 -13.562,7.8438 -4.7156,-1.2635 -7.8953,-5.3826 -8.1875,-10 -0.14278,5.0142 3.1313,9.6452 8.1875,11 5.9136,1.5845 11.978,-1.932 13.562,-7.8438 0.2886,-1.0768 0.40807,-2.1592 0.375,-3.2188 z" />
        <path
           inkscape:connector-curvature="0"
           id="path4069-5"
           style="opacity:0.4;fill:url(#linearGradient5504)"
           d="m -67.997,875.92 c -0.01924,0.47788 -0.04317,0.95584 -0.125,1.4375 -0.04531,0.30673 -0.21875,1.0625 -0.21875,1.0625 -0.66112,2.5886 -0.9796,5.2072 -0.9375,7.8125 0.04515,-2.273 0.36169,-4.5579 0.9375,-6.8125 0,0 0.17344,-0.75577 0.21875,-1.0625 0.13937,-0.82035 0.16435,-1.633 0.125,-2.4375 z m -17.531,10.062 c -4.7203,0.18809 -8.9621,3.4154 -10.25,8.2188 -0.32034,1.1956 -0.41783,2.3918 -0.34375,3.5625 0.02414,-0.8478 0.11468,-1.7076 0.34375,-2.5625 1.5851,-5.9118 7.6513,-9.4276 13.562,-7.8438 4.8048,1.2879 8.0312,5.5295 8.2188,10.25 0.263,-5.1097 -3.076,-9.8715 -8.2188,-11.25 -1.1083,-0.29697 -2.2232,-0.4184 -3.3125,-0.375 z m -32.406,17.125 c -0.0748,1.1943 0.0172,2.4371 0.34375,3.6562 1.6206,6.0391 7.8328,9.62 13.875,8 4.5085,-1.151 9.1342,-1.2957 13.562,-0.25 0.20632,0.0514 0.41929,0.10054 0.625,0.15625 0.20632,0.0551 0.42051,0.12934 0.625,0.1875 4.3579,1.3084 8.2963,3.7184 11.625,6.9688 0.40898,0.40959 0.76375,0.70424 1.0938,0.9375 4.4748,3.4102 10.826,3.1424 14.906,-0.9375 2.3294,-2.328 3.4433,-5.3899 3.3125,-8.4375 -0.12597,2.7081 -1.2419,5.3681 -3.3125,7.4375 -4.08,4.08 -10.431,4.3477 -14.906,0.9375 -0.33,-0.23326 -0.68478,-0.52791 -1.0938,-0.9375 -3.3287,-3.2504 -7.2671,-5.6604 -11.625,-6.9688 -0.20449,-0.0582 -0.41868,-0.1324 -0.625,-0.1875 -0.20571,-0.0557 -0.41868,-0.10482 -0.625,-0.15625 -4.4283,-1.0457 -9.054,-0.90101 -13.562,0.25 -6.0422,1.62 -12.254,-1.9609 -13.875,-8 -0.23595,-0.88079 -0.32061,-1.7828 -0.34375,-2.6562 z" />
        <path
           inkscape:connector-curvature="0"
           id="path4078-1"
           style="opacity:0.25;fill:url(#linearGradient5506)"
           d="m -79.591,864.14 c -4.6385,0.13193 -8.8647,3.1592 -10.406,7.7188 -0.07837,0.20939 -0.24816,0.71079 -0.25,0.71875 -1.2471,4.4204 -3.4076,8.4335 -6.4688,11.719 -3.4775,3.6502 -7.8871,6.2658 -12.844,7.5938 -6.0379,1.6175 -9.6494,7.8347 -8.0312,13.875 1.6206,6.0391 7.8328,9.62 13.875,8 4.5085,-1.151 9.1342,-1.2957 13.562,-0.25 0.20632,0.0514 0.41929,0.10054 0.625,0.15625 0.20632,0.0551 0.42051,0.12934 0.625,0.1875 4.3579,1.3084 8.2963,3.7184 11.625,6.9688 0.40898,0.40959 0.76375,0.70424 1.0938,0.9375 4.4748,3.4102 10.826,3.1424 14.906,-0.9375 4.1412,-4.1387 4.3947,-10.678 0.78125,-15.125 -0.1751,-0.23694 -0.46901,-0.5548 -0.78125,-0.875 -3.2485,-3.3336 -5.6616,-7.2652 -6.9688,-11.625 -0.06,-0.20265 -0.13362,-0.42174 -0.1875,-0.625 -0.05633,-0.20449 -0.10605,-0.3862 -0.15625,-0.59375 -1.0463,-4.4265 -0.90162,-9.0534 0.25,-13.562 0,0 0.17344,-0.75577 0.21875,-1.0625 0.96795,-5.6975 -2.528,-11.287 -8.2188,-12.812 -1.0879,-0.29146 -2.1796,-0.43669 -3.25,-0.40625 z m 0.03125,1.0625 c 0.96646,-0.0263 1.9431,0.0773 2.9375,0.34375 5.186,1.3904 8.3809,6.4398 7.5,11.625 a 1.0279,1.0279 0 0 0 -0.03125,0.0312 c -0.02479,0.16783 -0.17736,0.92261 -0.1875,0.96875 -3.16e-4,10e-4 0,0.0312 0,0.0312 -1.1811,4.643 -1.3357,9.4381 -0.25,14.031 0.05187,0.21443 0.10259,0.39881 0.15625,0.59375 0.0029,0.011 -0.003,0.0203 0,0.0312 0.06431,0.23748 0.13753,0.45622 0.1875,0.625 1.3582,4.5302 3.8659,8.6218 7.2188,12.062 0.29995,0.30759 0.60924,0.63306 0.71875,0.78125 a 1.0279,1.0279 0 0 0 0,0.0312 c 3.2877,4.0464 3.0857,9.9791 -0.6875,13.75 -3.7187,3.7187 -9.4812,3.954 -13.562,0.84375 a 1.0279,1.0279 0 0 0 -0.03125,-0.0312 c -0.28039,-0.1982 -0.59563,-0.43881 -0.96875,-0.8125 a 1.0279,1.0279 0 0 0 0,-0.0312 c -3.437,-3.3561 -7.535,-5.8282 -12.062,-7.1875 a 1.0279,1.0279 0 0 0 0,-0.0312 c -0.15753,-0.0448 -0.38225,-0.12123 -0.625,-0.1875 -0.01118,-0.003 -0.01992,0.003 -0.03125,0 -0.21991,-0.0588 -0.4395,-0.11001 -0.625,-0.15625 -4.6048,-1.0874 -9.4107,-0.93758 -14.062,0.25 a 1.0279,1.0279 0 0 0 -0.0312,0 c -5.5061,1.4762 -11.117,-1.7789 -12.594,-7.2812 -1.4736,-5.5009 1.8115,-11.12 7.3125,-12.594 5.1354,-1.3758 9.7048,-4.0882 13.312,-7.875 a 1.0279,1.0279 0 0 0 0,-0.0312 c 3.1814,-3.4142 5.4315,-7.5626 6.7188,-12.125 a 1.0279,1.0279 0 0 0 0,-0.0625 c 9.18e-4,-0.004 0.01121,-0.007 0.0625,-0.15625 0.05129,-0.14908 0.12606,-0.32559 0.15625,-0.40625 a 1.0279,1.0279 0 0 0 0,-0.0312 c 1.2951,-3.8306 4.6779,-6.4632 8.5,-6.9375 0.31748,-0.0394 0.6466,-0.0537 0.96875,-0.0625 z m -6,19.75 c -0.39874,0.0145 -0.79734,0.0394 -1.1875,0.0937 -4.6783,0.6518 -8.7345,4.0385 -10.031,8.875 -1.7278,6.4483 2.1159,13.116 8.5625,14.844 6.4505,1.7283 13.116,-2.1158 14.844,-8.5625 1.7284,-6.4487 -2.1139,-13.115 -8.5625,-14.844 -1.2056,-0.32303 -2.4288,-0.44988 -3.625,-0.40625 z m 0.03125,1.0312 c 1.0893,-0.0434 2.2042,0.078 3.3125,0.375 5.9136,1.5851 9.4282,7.6507 7.8438,13.562 -1.5845,5.9118 -7.6489,9.4282 -13.562,7.8438 -5.9112,-1.5839 -9.4276,-7.6513 -7.8438,-13.562 1.2879,-4.8033 5.5297,-8.0307 10.25,-8.2188 z" />
      </g>
    </g>
    <rect
       ry="25"
       rx="25"
       id="rect3003"
       style="opacity:0.15;fill:#ffffff;fill-opacity:1"
       height="92"
       width="92"
       y="958.36218"
       x="-96"
       clip-path="url(#clipPath3009)"
       transform="translate(98,3.8281269e-7)" />
  </g>
</svg>
