<?xml version="1.0" encoding="UTF-8" standalone="no"?>
<!-- Created with Inkscape (http://www.inkscape.org/) -->

<svg
   xmlns:dc="http://purl.org/dc/elements/1.1/"
   xmlns:cc="http://creativecommons.org/ns#"
   xmlns:rdf="http://www.w3.org/1999/02/22-rdf-syntax-ns#"
   xmlns:svg="http://www.w3.org/2000/svg"
   xmlns="http://www.w3.org/2000/svg"
   xmlns:xlink="http://www.w3.org/1999/xlink"
   xmlns:sodipodi="http://sodipodi.sourceforge.net/DTD/sodipodi-0.dtd"
   xmlns:inkscape="http://www.inkscape.org/namespaces/inkscape"
   width="96"
   height="96"
   id="svg11037"
   version="1.1"
   inkscape:version="0.48.3.1 r9886"
   sodipodi:docname="amule.svg">
  <defs
     id="defs11039">
    <linearGradient
       y2="1046.1001"
       x2="47.999954"
       y1="962.62189"
       x1="47.999954"
       gradientTransform="matrix(1.15,0,0,1.15,-7.1999462,-150.65291)"
       gradientUnits="userSpaceOnUse"
       id="linearGradient3886"
       xlink:href="#linearGradient3795"
       inkscape:collect="always" />
    <linearGradient
       id="linearGradient3795">
      <stop
         style="stop-color:#13a6fd;stop-opacity:1;"
         offset="0"
         id="stop3797" />
      <stop
         style="stop-color:#2975b6;stop-opacity:1;"
         offset="1"
         id="stop3799" />
    </linearGradient>
    <linearGradient
       y2="1046.1001"
       x2="47.999954"
       y1="962.62189"
       x1="47.999954"
       gradientTransform="matrix(1.15,0,0,1.15,-7.1999462,-150.65292)"
       gradientUnits="userSpaceOnUse"
       id="linearGradient11642"
       xlink:href="#linearGradient5801"
       inkscape:collect="always" />
    <linearGradient
       id="linearGradient5801"
       y2="902.35999"
       gradientUnits="userSpaceOnUse"
       x2="48"
       gradientTransform="translate(0,-7.8516e-6)"
       y1="1052.4"
       x1="48">
      <stop
         id="stop3702-85"
         style="stop-color:#84cf18"
         offset="0" />
      <stop
         id="stop3704-06"
         style="stop-color:#bff571"
         offset="1" />
    </linearGradient>
    <linearGradient
       y2="902.35999"
       x2="48"
       y1="1052.4"
       x1="48"
       gradientTransform="translate(-79.567267,10.879082)"
       gradientUnits="userSpaceOnUse"
       id="linearGradient3028"
       xlink:href="#linearGradient5801"
       inkscape:collect="always" />
    <linearGradient
       id="linearGradient2890-4"
       y2="306.34"
       gradientUnits="userSpaceOnUse"
       x2="96.073997"
       gradientTransform="matrix(0.66134,0,0,0.66134,-26.27,-129.44)"
       y1="239.55"
       x1="114.71">
      <stop
         id="stop3595-0"
         style="stop-color:#0362b2"
         offset="0" />
      <stop
         id="stop3597-5"
         style="stop-color:#66bbfb"
         offset="1" />
    </linearGradient>
    <linearGradient
       id="linearGradient2892-7"
       y2="246.08"
       gradientUnits="userSpaceOnUse"
       x2="105.47"
       gradientTransform="matrix(0.66134,0,0,0.66134,-26.27,-129.44)"
       y1="268.57001"
       x1="100.54">
      <stop
         id="stop4003-2"
         style="stop-color:#fff"
         offset="0" />
      <stop
         id="stop4005-7"
         style="stop-color:#c7c7c7"
         offset="1" />
    </linearGradient>
    <clipPath
       clipPathUnits="userSpaceOnUse"
       id="clipPath3009">
      <path
         id="path3011"
         d="m -2,956.36218 -96,0 0,33.5624 96,25.68742 0,-59.24982 z"
         style="opacity:0.15;fill:#ffffff;fill-opacity:1;stroke:none"
         inkscape:connector-curvature="0" />
    </clipPath>
  </defs>
  <sodipodi:namedview
     id="base"
     pagecolor="#ffffff"
     bordercolor="#666666"
     borderopacity="1.0"
     inkscape:pageopacity="0.0"
     inkscape:pageshadow="2"
     inkscape:zoom="3.959798"
     inkscape:cx="33.538031"
     inkscape:cy="59.964634"
     inkscape:document-units="px"
     inkscape:current-layer="layer1"
     showgrid="false"
     inkscape:window-width="1280"
     inkscape:window-height="750"
     inkscape:window-x="0"
     inkscape:window-y="22"
     inkscape:window-maximized="1"
     showguides="true"
     inkscape:guide-bbox="true">
    <sodipodi:guide
       orientation="0,1"
       position="-24.748737,0"
       id="guide11064" />
    <sodipodi:guide
       orientation="0,1"
       position="-23.233509,96"
       id="guide11066" />
    <sodipodi:guide
       orientation="1,0"
       position="0,54.800776"
       id="guide11068" />
    <sodipodi:guide
       orientation="1,0"
       position="96,51.012704"
       id="guide11070" />
    <sodipodi:guide
       orientation="0,1"
       position="-18.94036,48"
       id="guide11072" />
    <sodipodi:guide
       orientation="1,0"
       position="48,79.296975"
       id="guide11074" />
    <sodipodi:guide
       orientation="1,0"
       position="2,75.508903"
       id="guide11076" />
    <sodipodi:guide
       orientation="0,1"
       position="-77.27667,2"
       id="guide11078" />
    <sodipodi:guide
       orientation="1,0"
       position="94,77.781746"
       id="guide11080" />
    <sodipodi:guide
       orientation="0,1"
       position="-65.912454,94"
       id="guide11082" />
  </sodipodi:namedview>
  <metadata
     id="metadata11042">
    <rdf:RDF>
      <cc:Work
         rdf:about="">
        <dc:format>image/svg+xml</dc:format>
        <dc:type
           rdf:resource="http://purl.org/dc/dcmitype/StillImage" />
        <dc:title />
      </cc:Work>
    </rdf:RDF>
  </metadata>
  <g
     inkscape:label="Layer 1"
     inkscape:groupmode="layer"
     id="layer1"
     transform="translate(0,-956.36218)">
    <rect
       x="2"
       y="958.36218"
       width="92"
       height="92"
       style="fill:url(#linearGradient11642);fill-opacity:1.0"
       id="rect3867"
       rx="25"
       ry="25" />
    <g
       id="g2877"
       transform="matrix(0.72789,0,0,0.72789,12.234,968.19217)">
      <path
         inkscape:connector-curvature="0"
         id="path3596"
         style="fill:#024c88"
         d="m 59.27,13.805 c -3.006,0.10133 -5.7576,1.2166 -7.13,3.41 -0.4153,0.66371 -0.73541,1.3628 -1.0156,2.0245 -0.60517,1.4291 -0.60895,3.0121 -0.1004,4.4442 0.33083,0.93158 0.95772,1.7834 1.736,2.5627 l -2.356,2.5213 c -1.63,-0.933 -3.378,-1.746 -5.271,-2.376 -4.311,-1.435 -8.675,-1.787 -12.73,-1.261 l -0.39267,-0.72334 c 0.28095,-0.23848 0.52483,-0.50942 0.72333,-0.82667 0.36846,-0.59488 0.69889,-1.0501 0.9861,-1.6297 0.65413,-1.32 0.3451,-3.1636 -0.38676,-4.405 -0.73186,-1.2414 -2.0083,-2.2667 -3.6787,-2.914 -1.6704,-0.64728 -3.4524,-0.81149 -5.022,-0.53734 -1.5696,0.27416 -2.9899,1.0074 -3.782,2.2733 -0.36917,0.59746 -0.54774,1.3072 -0.83848,1.8954 -0.65334,1.322 -0.49179,2.8931 0.23914,4.1393 0.73093,1.2461 2.0065,2.2867 3.6787,2.9347 0.90761,0.3517 1.848,0.46463 2.7693,0.53734 l 0.33067,0.62 c -6.3046,2.1832 -10.951,7.3285 -12.828,13.274 -3.3463,10.6 4.3229,22.007 16.982,26.22 8.5083,2.8315 17.248,1.5643 23.271,-2.7487 l 3.4307,3.286 c -0.0026,0.0051 0.0026,0.0153 0,0.02061 -0.38463,0.75848 -0.857,1.5535 -1.1607,2.3143 -1.1426,2.8624 -0.73318,6.0551 0.62336,8.9078 1.4155,2.9767 4.0504,5.6153 7.564,7.2954 7.0265,3.3598 15.199,1.6967 18.145,-4.1127 0.38463,-0.75848 0.81525,-1.3865 1.1189,-2.1472 1.1426,-2.8624 0.77494,-6.2221 -0.58161,-9.0748 -1.4155,-2.9767 -4.0504,-5.6153 -7.564,-7.2954 -4.8701,-2.3286 -10.17,-2.1695 -14.033,0.0413 L 58.54598,59.21 c 0.98904,-1.3032 1.815,-2.734 2.3767,-4.3194 0.1634,-0.46118 0.31387,-0.91905 0.43401,-1.3847 0.0068,-0.02787 0.01359,-0.05472 0.02061,-0.08268 0.06909,-0.17366 0.14381,-0.33929 0.20666,-0.51667 2.68,-7.566 -0.545,-15.829 -7.255,-21.41 l 2.3974,-2.542 c 0.05677,0.02249 0.10884,0.06078 0.16533,0.08266 5.2299,1.8709 11.968,0.78538 13.726,-3.5446 1.0763,-2.592 0.57274,-4.7932 -0.43694,-6.5201 -1.033,-1.7668 -2.8864,-3.2683 -5.332,-4.216 -1.8351,-0.71112 -3.7779,-1.0114 -5.58,-0.95067 v -3.2e-5 z" />
      <path
         inkscape:connector-curvature="0"
         id="path3650"
         style="fill:url(#linearGradient2890-4)"
         d="m 59.311,14.756 c -2.7888,0.09401 -5.229,1.1394 -6.3654,2.9553 -1.4395,2.3006 -0.3441,5.143 2.4387,7.1094 l -4.795,5.125 c -1.756,-1.067 -3.665,-1.974 -5.745,-2.666 -4.408,-1.467 -8.891,-1.795 -12.979,-1.158 l -1.777,-3.327 c 1.0904,-0.30993 1.9967,-0.88931 2.5007,-1.6947 1.2019,-1.9207 -0.27032,-4.4114 -3.286,-5.58 -3.01568,-1.1686 -6.4448,-0.57739 -7.6467,1.3433 -1.2019,1.92069 0.27032,4.4321 3.286,5.6007 0.99824,0.38683 2.0464,0.58527 3.038,0.59934 l 1.8393,3.4513 c -6.3568,1.552 -11.504,5.5483 -13.537,11.284 -3.5072,9.8986 3.5858,21.235 15.851,25.317 8.5469,2.8443 17.348,1.4174 23.085,-3.0587 l 5.0634,4.8153 c -0.60958,0.62618 -1.1464,1.3122 -1.55,2.108 -2.6545,5.2347 0.59333,12.067 7.254,15.252 6.6607,3.1848 14.23,1.5353 16.885,-3.6994 2.655,-5.234 -0.592,-12.067 -7.253,-15.252 -4.882,-2.334 -10.245,-2.062 -13.805,0.31 l -5.105,-4.836 c 1.7707,-1.7268 3.1484,-3.7872 3.9887,-6.1587 2.7154,-7.6639 -0.93541,-16.203 -8.4114,-21.555 l 4.8774,-5.1874 c 0.24084,0.11134 0.48816,0.21086 0.744,0.31 4.562,1.7678 9.7346,0.85958 11.553,-2.046 1.8181,-2.9056 -0.39803,-6.7056 -4.96,-8.4734 -1.7107,-0.66292 -3.5141,-0.94508 -5.1874,-0.88867 z" />
      <path
         inkscape:connector-curvature="0"
         id="path4016"
         d="m 94.938,243.81 c -2.0346,0.0427 -4.0439,0.16751 -6.0625,0.375 a 1.7928,1.7928 0 0 0 -1.4375,1 l -2.438,5.1 a 1.7928,1.7928 0 0 0 2.0938,2.5 c 1.5724,-0.43144 3.2267,-0.70738 4.9375,-0.84375 1.7438,-0.13901 3.5662,-0.14476 5.5312,0.0312 2.4914,0.2232 4.1855,0.7225 4.8438,1.125 a 1.7928,1.7928 0 0 0 0.0312,0 c 0.0503,0.03 0.024,0.036 0.0625,0.0625 l -4.25,-0.46875 c -5.5444,-0.62518 -9.8071,-0.4465 -13.156,0.71875 -3.3309,1.1681 -5.934,3.5232 -7.625,6.875 -1.489,2.9513 -1.7733,6.0766 -0.4375,8.8125 a 1.7928,1.7928 0 0 0 0.03125,0.0312 c 1.4502,2.8812 4.3485,4.7953 8.2188,5.6875 2.9252,0.67435 5.7714,0.77751 8.4062,0.1875 1.2044,-0.27974 2.372,-0.75683 3.5312,-1.3125 l -0.25,0.84375 a 1.7928,1.7928 0 0 0 1.3125,2.25 l 13.875,3.125 a 1.7928,1.7928 0 0 0 2.1875,-1.4688 l 3.27,-19.68 c 0.80369,-4.8407 -0.38716,-8.8178 -3.4688,-11.188 -2.8716,-2.2444 -7.1749,-3.2595 -12.906,-3.625 -2.0814,-0.13266 -4.1988,-0.17898 -6.2812,-0.125 -0.01036,2.7e-4 -0.02089,-2.7e-4 -0.03125,0 z m -0.78125,17.312 c 0.74132,-0.0297 1.6546,0.0415 2.6875,0.1875 l 3.5625,0.5 c -0.48948,1.0336 -1.2028,1.9302 -2.4062,2.625 -0.0078,0.005 -0.0234,-0.005 -0.03125,0 -1.5831,0.88763 -3.1369,1.169 -4.875,0.84375 -1.395,-0.26107 -2.0977,-0.72172 -2.375,-1.0625 -0.24613,-0.3413 -0.3187,-0.46673 0,-1.25 0.31976,-0.78593 0.74178,-1.2185 1.625,-1.5312 0.0082,-0.003 0.02299,0.003 0.03125,0 0.48528,-0.16242 1.0623,-0.28366 1.7812,-0.3125 z"
         style="fill:#024c88"
         transform="matrix(0.66134,0,0,0.66134,-26.27,-129.44)" />
      <path
         inkscape:connector-curvature="0"
         id="path3601"
         style="opacity:0"
         d="m 59.311,14.756 c -2.7888,0.09401 -5.229,1.1394 -6.3654,2.9553 -0.55627,0.88899 -0.73054,1.8623 -0.57867,2.8313 0.08645,-0.51828 0.27608,-1.0251 0.57867,-1.5087 1.1363,-1.816 3.5765,-2.8613 6.3654,-2.9553 1.6733,-0.05641 3.4766,0.22575 5.1874,0.88867 3.1364,1.2154 5.1685,3.3946 5.5387,5.58 0.39441,-2.5877 -1.7636,-5.4398 -5.5387,-6.9027 -1.7107,-0.66292 -3.5141,-0.94508 -5.1874,-0.88867 z m -33.439,0.16533 c -1.8465,0.05674 -3.4649,0.74222 -4.216,1.9427 -0.40367,0.64513 -0.48748,1.3615 -0.33067,2.0667 0.06888,-0.25477 0.18044,-0.50391 0.33067,-0.744 1.2018,-1.9207 4.631,-2.5119 7.6467,-1.3433 1.9838,0.76873 3.2906,2.1183 3.6167,3.4927 0.4662,-1.7748 -0.98763,-3.7966 -3.6167,-4.8154 -1.1309,-0.43822 -2.3228,-0.63337 -3.4307,-0.59934 z m 4.8153,8.9694 c -0.19373,0.07879 -0.39057,0.16799 -0.59934,0.22733 l 1.7773,3.3273 c 4.0876,-0.63768 8.5708,-0.30958 12.979,1.1573 2.0799,0.69218 3.9891,1.5992 5.7454,2.666 l 4.7947,-5.1254 c -0.251,-0.176 -0.48,-0.367 -0.702,-0.557 l -4.093,4.361 c -1.756,-1.067 -3.665,-1.974 -5.745,-2.666 -4.408,-1.467 -8.891,-1.795 -12.979,-1.158 l -1.178,-2.232 z m -1.488,2.79 c -6.0685,1.6558 -10.951,5.5718 -12.917,11.119 -0.67911,1.9167 -0.94437,3.8873 -0.868,5.8487 0.06709,-1.5213 0.34151,-3.0401 0.868,-4.526 2.0323,-5.7357 7.18,-9.7321 13.537,-11.284 l -0.62,-1.158 z m 23.809,4.919 -0.724,0.765 c 5.5613,3.9818 8.9976,9.7257 9.2794,15.562 0.208,-6.019 -3.022,-12.064 -8.555,-16.327 z m 4.3607,27.797 c -0.21486,0.2336 -0.4331,0.45944 -0.66134,0.682 l 5.1047,4.836 c 3.5601,-2.3719 8.9231,-2.6445 13.805,-0.31 4.8433,2.3158 7.8656,6.5696 8.1427,10.726 0.36,-4.556 -2.781,-9.484 -8.144,-12.049 -4.882,-2.334 -10.245,-2.062 -13.805,0.31 l -4.4433,-4.1953 z m 2.2733,6.2 c -0.34361,0.42557 -0.65588,0.88486 -0.90934,1.3847 -0.7243,1.4283 -0.99266,2.9663 -0.88867,4.526 0.08749,-1.1025 0.37146,-2.1834 0.88867,-3.2034 0.40356,-0.79581 0.94043,-1.4818 1.55,-2.108 l -0.64067,-0.59934 z" />
      <path
         inkscape:connector-curvature="0"
         id="path3607"
         style="opacity:0.2;fill:#ffffff"
         d="m 21.325,17.628 c -0.4662,1.7788 0.98763,3.8173 3.6167,4.836 0.99824,0.38683 2.0464,0.58527 3.038,0.59934 l 1.2193,2.294 c 0.20659,-0.05635 0.41072,-0.11424 0.62,-0.16533 l -1.8393,-3.4513 c -0.99159,-0.01408 -2.0398,-0.21251 -3.038,-0.59934 -1.9933,-0.77241 -3.2985,-2.126 -3.6167,-3.5133 z m 11.594,1.4053 c -0.06892,0.2542 -0.18044,0.50391 -0.33068,0.744 -0.50393,0.80536 -1.4103,1.3847 -2.5007,1.6947 l 0.59934,1.0953 c 0.81817,-0.33272 1.4939,-0.81618 1.9013,-1.4673 0.40747,-0.65118 0.49386,-1.3582 0.33068,-2.0667 z m 19.447,0.186 c -0.2878,1.7253 0.58503,3.5644 2.3147,5.0427 l 0.70267,-0.76467 c -1.7074,-1.2065 -2.7762,-2.7394 -3.0173,-4.278 z m 17.67,2.0047 c -0.08217,0.53938 -0.26507,1.0695 -0.57867,1.5707 -1.8181,2.9056 -6.9907,3.8138 -11.553,2.046 -0.25584,-0.09914 -0.50316,-0.19867 -0.744,-0.31 l -4.8774,5.1874 c 0.24944,0.17859 0.48251,0.37247 0.72334,0.558 l 4.154,-4.4227 c 0.24084,0.11134 0.48816,0.21086 0.744,0.31 4.562,1.7678 9.7346,0.85958 11.553,-2.046 0.56816,-0.90799 0.74693,-1.9 0.57867,-2.8933 z M 15.414,42.325 c -0.37986,8.613 6.2951,17.322 16.719,20.791 8.5469,2.8443 17.348,1.4174 23.085,-3.0587 l 4.4227,4.216 c 0.2035,-0.25203 0.41394,-0.49042 0.64067,-0.72333 l -5.063,-4.815 c -5.737,4.476 -14.538,5.903 -23.085,3.058 -9.89,-3.291 -16.401,-11.3 -16.719,-19.468 z m 46.149,4.278 c -0.05412,1.5702 -0.32495,3.138 -0.86801,4.6707 -0.84027,2.3715 -2.2179,4.4319 -3.9887,6.1587 l 0.66134,0.64067 c 1.4522,-1.5788 2.5954,-3.4108 3.3273,-5.4767 0.69543,-1.9628 0.96502,-3.984 0.86801,-5.9934 z m -3.72,23.581 c -0.36149,4.5558 2.7798,9.4844 8.1427,12.049 6.6607,3.1848 14.23,1.5353 16.885,-3.6994 0.7243,-1.4283 0.99267,-2.9663 0.88867,-4.526 -0.08748,1.1024 -0.37146,2.1834 -0.88867,3.2033 -2.6545,5.2347 -10.224,6.8842 -16.885,3.6994 -4.8433,-2.3158 -7.8656,-6.5696 -8.1427,-10.726 z" />
      <path
         inkscape:connector-curvature="0"
         id="path3999"
         style="fill:url(#linearGradient2892-7)"
         d="m 37.938,42.206 c -1.4713,-0.208 -2.6342,-0.1601 -3.5151,0.13975 -0.86764,0.3015 -1.4639,0.85185 -1.7947,1.6649 -0.31076,0.76377 -0.26988,1.4274 0.13442,1.988 0.43154,0.56398 1.1971,0.95305 2.3049,1.1604 1.4113,0.26413 2.7715,0.03591 4.0477,-0.68541 1.27,-0.7281 2.0882,-1.7465 2.452,-3.0248 L 41.7669,42.7473 c 0,0 -3.8289,-0.54136 -3.8289,-0.54136 m 12.402,-0.69821 -2.1615,13.018 -9.1764,-2.0636 0.99115,-3.4823 c -1.4954,1.1621 -3.0319,1.9317 -4.5825,2.2919 -1.5363,0.34402 -3.2215,0.30291 -5.0196,-0.1116 -2.3375,-0.53887 -3.8746,-1.6033 -4.6488,-3.1416 -0.71413,-1.4626 -0.60465,-3.0599 0.2671,-4.7878 1.0059,-1.9937 2.4525,-3.2875 4.3834,-3.9646 1.9448,-0.67664 4.6257,-0.82279 8.1968,-0.42012 0,0 4.1547,0.46849 4.1547,0.46849 l 0.12143,-0.42661 c 0.24105,-0.847 -0.02941,-1.4944 -0.79212,-1.9495 -0.74072,-0.45293 -1.9895,-0.75445 -3.7225,-0.90971 -1.3679,-0.12252 -2.6541,-0.13382 -3.8699,-0.0369 -1.2001,0.09566 -2.354,0.29657 -3.4699,0.60276 l 1.609,-3.3604 c 1.3138,-0.13504 2.6274,-0.21663 3.9446,-0.24368 1.3442,-0.03551 2.6901,-0.01111 4.0419,0.07505 3.6773,0.23452 6.3425,0.93749 7.8984,2.1536 1.6741,1.2874 2.3238,3.3439 1.8348,6.2889" />
      <path
         inkscape:connector-curvature="0"
         id="path4018"
         style="fill:#ffffff"
         d="m 36.35,34.596 c -0.64452,-0.006 -1.2521,0.03419 -1.86,0.08266 -0.94489,0.07532 -1.8571,0.22818 -2.7487,0.434 l -0.72334,1.488 c 1.1159,-0.30619 2.2719,-0.50368 3.472,-0.59934 1.2158,-0.09692 2.4968,-0.10186 3.8647,0.02063 1.733,0.15526 2.9793,0.45641 3.72,0.90934 0.36434,0.21738 0.60641,0.47937 0.744,0.78533 l 0.0413,-0.14466 c 0.24105,-0.84699 -0.02266,-1.5083 -0.78533,-1.9633 -0.74072,-0.45293 -1.987,-0.75407 -3.72,-0.90934 -0.68393,-0.06124 -1.3602,-0.09731 -2.0047,-0.10333 z m 14.115,4.5467 c -0.02591,0.33453 -0.06413,0.67233 -0.12401,1.0333 l -2.17,13.02 -8.8247,-1.984 -0.35133,1.24 9.176,2.0667 2.17,-13.02 c 0.14446,-0.87008 0.17537,-1.638 0.12401,-2.356 z m -14.508,1.612 c -0.58475,0.02351 -1.0889,0.11875 -1.5293,0.26867 -0.86764,0.30149 -1.4672,0.86092 -1.798,1.674 -0.24318,0.59767 -0.27579,1.1177 -0.08268,1.5913 0.02787,-0.09233 0.04386,-0.1732 0.08268,-0.26866 0.3308,-0.81309 0.93036,-1.3725 1.798,-1.674 0.88092,-0.29985 2.0421,-0.35268 3.5134,-0.14466 l 3.4307,0.47533 c 0.07439,-0.17886 0.13178,-0.3675 0.186,-0.558 l 0.20667,-0.70267 -3.8233,-0.53734 c -0.735,-0.105 -1.399,-0.148 -1.984,-0.125 z m -10.643,4.587 c -0.12491,0.93336 0.0218,1.8216 0.43401,2.666 0.77428,1.5383 2.3125,2.6025 4.65,3.1413 1.7981,0.41451 3.4858,0.46802 5.022,0.12401 1.3841,-0.32148 2.7495,-0.98072 4.092,-1.9427 l 0.47533,-1.674 c -1.4954,1.1621 -3.0168,1.9339 -4.5673,2.294 -1.5363,0.34402 -3.2239,0.29051 -5.022,-0.12401 -2.3375,-0.53887 -3.8757,-1.603 -4.65,-3.1413 -0.21379,-0.43787 -0.36619,-0.88144 -0.43401,-1.3433 z" />
    </g>
    <rect
       ry="25"
       rx="25"
       id="rect3003"
       style="opacity:0.15;fill:#ffffff;fill-opacity:1"
       height="92"
       width="92"
       y="958.36218"
       x="-96"
       clip-path="url(#clipPath3009)"
       transform="translate(98,3.8281269e-7)" />
  </g>
</svg>
