<?xml version="1.0" encoding="UTF-8" standalone="no"?>
<!-- Created with Inkscape (http://www.inkscape.org/) -->

<svg
   xmlns:dc="http://purl.org/dc/elements/1.1/"
   xmlns:cc="http://creativecommons.org/ns#"
   xmlns:rdf="http://www.w3.org/1999/02/22-rdf-syntax-ns#"
   xmlns:svg="http://www.w3.org/2000/svg"
   xmlns="http://www.w3.org/2000/svg"
   xmlns:xlink="http://www.w3.org/1999/xlink"
   xmlns:sodipodi="http://sodipodi.sourceforge.net/DTD/sodipodi-0.dtd"
   xmlns:inkscape="http://www.inkscape.org/namespaces/inkscape"
   width="96"
   height="96"
   id="svg11037"
   version="1.1"
   inkscape:version="0.48.3.1 r9886"
   sodipodi:docname="audacious.svg">
  <defs
     id="defs11039">
    <linearGradient
       y2="1046.1001"
       x2="47.999954"
       y1="962.62189"
       x1="47.999954"
       gradientTransform="matrix(1.15,0,0,1.15,-7.1999462,-150.65291)"
       gradientUnits="userSpaceOnUse"
       id="linearGradient3886"
       xlink:href="#linearGradient3795"
       inkscape:collect="always" />
    <linearGradient
       id="linearGradient3795">
      <stop
         style="stop-color:#13a6fd;stop-opacity:1;"
         offset="0"
         id="stop3797" />
      <stop
         style="stop-color:#2975b6;stop-opacity:1;"
         offset="1"
         id="stop3799" />
    </linearGradient>
    <linearGradient
       y2="1046.1001"
       x2="47.999954"
       y1="962.62189"
       x1="47.999954"
       gradientTransform="matrix(1.15,0,0,1.15,-7.1999462,-150.65292)"
       gradientUnits="userSpaceOnUse"
       id="linearGradient11642"
       xlink:href="#linearGradient5801"
       inkscape:collect="always" />
    <linearGradient
       id="linearGradient5801"
       y2="902.35999"
       gradientUnits="userSpaceOnUse"
       x2="48"
       gradientTransform="translate(59.79661,-7.8516e-6)"
       y1="1052.4"
       x1="48">
      <stop
         id="stop3791-5"
         style="stop-color:#656565"
         offset="0" />
      <stop
         id="stop3793-4"
         style="stop-color:#c1c1c1"
         offset="1" />
    </linearGradient>
    <linearGradient
       y2="902.35999"
       x2="48"
       y1="1052.4"
       x1="48"
       gradientTransform="translate(-96.739858,-7.9978262)"
       gradientUnits="userSpaceOnUse"
       id="linearGradient3051"
       xlink:href="#linearGradient5801"
       inkscape:collect="always" />
    <linearGradient
       id="linearGradient3863-3"
       y2="48"
       gradientUnits="userSpaceOnUse"
       x2="80"
       y1="48"
       x1="16">
      <stop
         id="stop3797-6"
         style="stop-color:#050505"
         offset="0" />
      <stop
         id="stop3799-5"
         style="stop-color:#191919"
         offset="1" />
    </linearGradient>
    <linearGradient
       id="linearGradient3814-2"
       y2="47.820999"
       gradientUnits="userSpaceOnUse"
       x2="108.86"
       gradientTransform="matrix(0,-1.0303,1.0303,0,-1.4545,97.455)"
       y1="48"
       x1="15">
      <stop
         id="stop3810-5"
         style="stop-color:#fff"
         offset="0" />
      <stop
         id="stop3812-8"
         style="stop-color:#fff;stop-opacity:0"
         offset="1" />
    </linearGradient>
    <linearGradient
       id="linearGradient3836-7"
       y2="34.946999"
       gradientUnits="userSpaceOnUse"
       x2="49.714001"
       gradientTransform="matrix(1.0036,0,0,0.98469,-0.22247,0.50531)"
       y1="69.963997"
       x1="49.714001">
      <stop
         id="stop3840-60"
         style="stop-color:#737373"
         offset="0" />
      <stop
         id="stop3842-4"
         style="stop-color:#cecece"
         offset="1" />
    </linearGradient>
    <linearGradient
       id="linearGradient3207-7"
       y2="12.88"
       gradientUnits="userSpaceOnUse"
       y1="63.175999"
       x2="50.596001"
       x1="50.596001">
      <stop
         id="stop3728-4"
         style="stop-color:#fff"
         offset="0" />
      <stop
         id="stop3730-8"
         style="stop-color:#fff;stop-opacity:0"
         offset="1" />
    </linearGradient>
    <linearGradient
       y2="12.88"
       x2="50.596001"
       y1="63.175999"
       x1="50.596001"
       gradientUnits="userSpaceOnUse"
       id="linearGradient3083"
       xlink:href="#linearGradient3207-7"
       inkscape:collect="always" />
    <clipPath
       clipPathUnits="userSpaceOnUse"
       id="clipPath3009">
      <path
         id="path3011"
         d="m -2,956.36218 -96,0 0,33.5624 96,25.68742 0,-59.24982 z"
         style="opacity:0.15;fill:#ffffff;fill-opacity:1;stroke:none"
         inkscape:connector-curvature="0" />
    </clipPath>
  </defs>
  <sodipodi:namedview
     id="base"
     pagecolor="#ffffff"
     bordercolor="#666666"
     borderopacity="1.0"
     inkscape:pageopacity="0.0"
     inkscape:pageshadow="2"
     inkscape:zoom="3.959798"
     inkscape:cx="33.538031"
     inkscape:cy="59.964634"
     inkscape:document-units="px"
     inkscape:current-layer="layer1"
     showgrid="false"
     inkscape:window-width="1280"
     inkscape:window-height="750"
     inkscape:window-x="0"
     inkscape:window-y="22"
     inkscape:window-maximized="1"
     showguides="true"
     inkscape:guide-bbox="true">
    <sodipodi:guide
       orientation="0,1"
       position="-24.748737,0"
       id="guide11064" />
    <sodipodi:guide
       orientation="0,1"
       position="-23.233509,96"
       id="guide11066" />
    <sodipodi:guide
       orientation="1,0"
       position="0,54.800776"
       id="guide11068" />
    <sodipodi:guide
       orientation="1,0"
       position="96,51.012704"
       id="guide11070" />
    <sodipodi:guide
       orientation="0,1"
       position="-18.94036,48"
       id="guide11072" />
    <sodipodi:guide
       orientation="1,0"
       position="48,79.296975"
       id="guide11074" />
    <sodipodi:guide
       orientation="1,0"
       position="2,75.508903"
       id="guide11076" />
    <sodipodi:guide
       orientation="0,1"
       position="-77.27667,2"
       id="guide11078" />
    <sodipodi:guide
       orientation="1,0"
       position="94,77.781746"
       id="guide11080" />
    <sodipodi:guide
       orientation="0,1"
       position="-65.912454,94"
       id="guide11082" />
  </sodipodi:namedview>
  <metadata
     id="metadata11042">
    <rdf:RDF>
      <cc:Work
         rdf:about="">
        <dc:format>image/svg+xml</dc:format>
        <dc:type
           rdf:resource="http://purl.org/dc/dcmitype/StillImage" />
        <dc:title />
      </cc:Work>
    </rdf:RDF>
  </metadata>
  <g
     inkscape:label="Layer 1"
     inkscape:groupmode="layer"
     id="layer1"
     transform="translate(0,-956.36218)">
    <rect
       x="2"
       y="958.36218"
       width="92"
       height="92"
       style="fill:url(#linearGradient11642);fill-opacity:1.0"
       id="rect3867"
       rx="25"
       ry="25" />
    <g
       id="layer4"
       transform="matrix(0.80882,0,0,0.80882,9.0765,965.54217)">
      <path
         inkscape:connector-curvature="0"
         id="path3663"
         style="color:#000000;fill:url(#linearGradient3863-3)"
         transform="matrix(0,-1.0312,1.0312,0,-1.5,97.5)"
         d="m 80,48 a 32,32 0 1 1 -64,0 32,32 0 1 1 64,0 z" />
      <path
         inkscape:connector-curvature="0"
         id="path3801"
         style="opacity:0.3;color:#000000;fill:url(#linearGradient3814-2)"
         d="M 14,48 C 14,66.778 29.222,82 48,82 66.778,82 82,66.778 82,48 82,29.222 66.778,14 48,14 29.222,14 14,29.222 14,48 z m 1.0303,0 c 0,-18.209 14.761,-32.97 32.97,-32.97 18.209,0 32.97,14.761 32.97,32.97 0,18.209 -14.761,32.97 -32.97,32.97 -18.209,0 -32.97,-14.761 -32.97,-32.97 z" />
      <path
         inkscape:connector-curvature="0"
         id="path3816"
         style="opacity:0.6;color:#000000"
         d="M 48,16 C 30.327,16 16,30.327 16,48 16,65.673 30.327,80 48,80 65.673,80 80,65.673 80,48 80,30.327 65.673,16 48,16 z m 0,1 C 65.121,17 79,30.879 79,48 79,65.121 65.121,79 48,79 30.879,79 17,65.121 17,48 17,30.879 30.879,17 48,17 z" />
      <path
         inkscape:connector-curvature="0"
         id="path3857"
         style="opacity:0.2;color:#000000"
         d="M 48,16 C 30.327,16 16,30.327 16,48 16,65.673 30.327,80 48,80 65.673,80 80,65.673 80,48 80,30.327 65.673,16 48,16 z m 0,2 C 64.585,18 78,31.415 78,48 78,64.585 64.585,78 48,78 31.415,78 18,64.585 18,48 18,31.415 31.415,18 48,18 z m -0.0625,13.031 c -1.4734,0.06395 -3.7583,0.06897 -6,0.40625 -2.2253,0.33481 -4.6138,0.94955 -6.2188,2.8438 -1.2113,1.4296 -1.3684,3.3373 -1.0312,4.9375 0.34244,1.6251 1.3896,3.4882 3.4688,3.875 0.75916,0.14125 1.5329,0.14946 2.3125,0.125 -3.1904,1.082 -5.7084,2.7211 -7.125,5.0625 -1.5261,2.5225 -1.7124,5.611 -0.8125,8.7812 1.2984,4.5742 5.7264,7.7517 10.562,7.9375 a 0.9922,0.9922 0 0 0 0.03125,0 h 0.03125 c 4.195,-0.0092 6.44,-1.2854 7.5938,-2.0625 0.36926,-0.24872 0.56791,-0.36961 0.625,-0.40625 -0.01911,0.003 0.08026,-0.05332 0.8125,0.34375 0.87344,0.78911 1.8974,1.3284 3.0312,1.5312 1.3288,0.23768 2.8627,0.11228 4.0938,-0.84375 0.74789,-0.5808 2.1621,-1.191 3.3125,-2.4375 0.6119,-0.663 1.1567,-1.6125 1.1875,-2.75 0.02849,-1.0519 -0.39751,-2.0748 -1.0312,-3.0625 -0.0026,-0.01406 0.0049,-0.01628 0,-0.03125 0.0029,0.0187 -0.01639,0.02573 0,-0.09375 0.03114,-0.22698 0.24991,-0.88806 0.46875,-1.7812 0.43477,-1.7745 0.94637,-4.5132 0.65625,-8.625 -0.289,-4.102 -1.889,-7.737 -4.687,-10.218 -2.797,-2.479 -6.68,-3.73 -11.281,-3.531 z m 0.59375,20.656 c 0.83339,0 1.0938,0.42688 1.0938,0.71875 0,0.28301 -0.29313,0.75 -1.0938,0.75 -0.78593,0 -1.1562,-0.56165 -1.1562,-0.75 0,-0.19749 0.33741,-0.71875 1.1562,-0.71875 z" />
      <path
         inkscape:connector-curvature="0"
         id="path3848"
         style="opacity:0.6"
         d="m 47.969,32.031 c -1.5206,0.066 -3.7369,0.0533 -5.875,0.375 -2.1381,0.3217 -4.2717,0.934 -5.625,2.5312 -0.95471,1.1268 -1.1049,2.6751 -0.8125,4.0625 0.29236,1.3874 1.1295,2.8351 2.6875,3.125 1.5009,0.27926 3.2474,0.07132 4.9688,-0.125 1.7214,-0.19632 3.4282,-0.40318 4.5938,-0.28125 0.69321,0.07252 0.85943,0.32909 0.875,0.375 0.01557,0.04591 0.10283,0.22327 -0.4375,0.59375 -0.48614,0.33332 -1.7313,0.56523 -3.0625,0.6875 -1.3312,0.12227 -2.7101,0.15001 -3.875,0.5 -3.3938,1.0197 -5.8605,2.6612 -7.2188,4.9062 -1.3582,2.245 -1.5334,5.02 -0.6875,8 1.1684,4.1161 5.2035,7.0489 9.625,7.2188 a 1.0036,1.0036 0 0 0 0.03125,0 c 4.0096,-0.0088 5.9358,-1.1371 7.0312,-1.875 0.54774,-0.36894 0.81584,-0.52866 1.0312,-0.5625 0.21541,-0.03384 0.60231,-0.0154 1.4375,0.4375 0.77009,0.75799 1.7286,1.2548 2.75,1.4375 1.1367,0.20332 2.3678,0.07741 3.3125,-0.65625 0.90322,-0.70143 2.2135,-1.2884 3.1875,-2.3438 0.48702,-0.52769 0.88345,-1.252 0.90625,-2.0938 0.0228,-0.84176 -0.2875,-1.7005 -0.90625,-2.625 -0.10579,-0.15807 -0.14966,-0.24876 -0.09375,-0.65625 0.05591,-0.4075 0.25778,-1.0452 0.46875,-1.9062 0.42195,-1.7222 0.90739,-4.3103 0.625,-8.3125 -0.275,-3.892 -1.764,-7.244 -4.345,-9.532 -2.58,-2.287 -6.193,-3.472 -10.593,-3.281 z m 0.5625,18.656 c 1.2616,0 2.0938,0.8167 2.0938,1.7188 0,0.90205 -0.84428,1.75 -2.0938,1.75 -1.24952,0 -2.1562,-0.87569 -2.1562,-1.75 0,-0.87431 0.89469,-1.7188 2.1562,-1.7188 z" />
      <path
         inkscape:connector-curvature="0"
         id="path3821"
         style="fill:url(#linearGradient3836-7)"
         d="m 48.008,33.019 c -3.1161,0.13524 -8.6518,0.02585 -10.802,2.5638 -1.314,1.5508 -0.69942,5.1644 1.3142,5.539 2.5085,0.46674 6.7472,-0.69589 9.4658,-0.41147 1.8956,0.19832 2.4733,1.7269 0.92957,2.7853 -1.6345,1.1207 -5.3487,0.79813 -7.2221,1.361 -6.477,1.9461 -8.7981,6.0571 -7.2122,11.644 1.0341,3.6432 4.6731,6.3457 8.6662,6.4991 7.6814,-0.01688 6.2699,-3.8914 9.9892,-1.8745 1.224,1.4127 3.6901,1.8789 4.9684,0.88624 2.0551,-1.596 5.135,-2.4626 2.949,-5.7289 -1.0469,-1.5642 1.4147,-3.5788 0.86546,-11.363 -0.52,-7.365 -5.515,-12.264 -13.911,-11.9 z m 0.52278,16.68 c 1.73,0 3.1092,1.2147 3.1092,2.722 0,1.5073 -1.3792,2.722 -3.1092,2.722 -1.73,0 -3.1413,-1.2147 -3.1413,-2.722 0,-1.5073 1.4113,-2.722 3.1413,-2.722 z" />
      <path
         inkscape:connector-curvature="0"
         id="path3865"
         style="opacity:0.3;fill:url(#linearGradient3083)"
         d="m 49.531,33 c -0.498,-0.018 -1.006,0.008 -1.531,0.031 -3.1161,0.13524 -8.6309,0.02458 -10.781,2.5625 -1.314,1.5508 -0.70113,5.1566 1.3125,5.5312 2.5085,0.46674 6.7501,-0.69067 9.4688,-0.40625 1.8956,0.19832 2.45,1.7228 0.90625,2.7812 -1.6345,1.1207 -5.3453,0.78087 -7.2188,1.3438 -6.477,1.9461 -8.8047,6.0691 -7.2188,11.656 1.0341,3.6432 4.6944,6.3466 8.6875,6.5 7.6814,-0.01688 6.2494,-3.8919 9.9688,-1.875 1.224,1.4127 3.6905,1.8677 4.9688,0.875 2.0551,-1.596 5.1548,-2.4524 2.9688,-5.7188 -1.0469,-1.5642 1.393,-3.591 0.84375,-11.375 -0.488,-6.905 -4.907,-11.641 -12.376,-11.906 z m -1.5,1 c 4.0019,-0.17368 7.0686,0.90673 9.2188,2.8125 2.1501,1.9058 3.442,4.6768 3.6875,8.1562 0.26707,3.7851 -0.19447,6.0891 -0.59375,7.7188 -0.19964,0.81483 -0.37928,1.4729 -0.46875,2.125 -0.08947,0.65209 -0.0381,1.3828 0.375,2 0.47638,0.71178 0.60175,1.2046 0.59375,1.5 -0.008,0.29542 -0.13158,0.48364 -0.40625,0.78125 -0.54934,0.59522 -1.7892,1.2333 -2.9375,2.125 -0.34244,0.26594 -1.0218,0.4115 -1.75,0.28125 -0.72817,-0.13025 -1.4412,-0.49928 -1.875,-1 a 0.97433,0.97433 0 0 0 -0.28125,-0.21875 c -1.0217,-0.55406 -1.8626,-0.81216 -2.6562,-0.6875 -0.79366,0.12466 -1.324,0.55615 -1.8438,0.90625 -1.0355,0.69746 -2.263,1.5169 -5.9062,1.5312 -0.01034,-3.97e-4 -0.02091,4.36e-4 -0.03125,0 -3.5653,-0.15045 -6.8488,-2.6377 -7.75,-5.8125 -0.74158,-2.6126 -0.56444,-4.6985 0.46875,-6.4062 1.0332,-1.7078 3.0061,-3.1035 6.0938,-4.0312 0.71519,-0.21488 2.0998,-0.30889 3.5,-0.4375 1.4002,-0.12861 2.8613,-0.25047 4,-1.0312 0.99663,-0.68334 1.5322,-1.8276 1.1875,-2.8438 -0.34472,-1.0162 -1.3675,-1.5937 -2.5625,-1.7188 -1.5475,-0.1619 -3.3248,0.08663 -5.0312,0.28125 -1.7064,0.19462 -3.3289,0.31382 -4.3438,0.125 -0.47172,-0.08777 -0.9345,-0.6585 -1.125,-1.5625 -0.1905,-0.904 0.007,-1.9407 0.375,-2.375 0.80513,-0.95024 2.4987,-1.552 4.4375,-1.8438 1.9388,-0.2917 4.0306,-0.3058 5.625,-0.375 z m 0.5,14.719 c -2.1848,0 -4.125,1.5656 -4.125,3.6875 0,2.1219 1.9285,3.7188 4.125,3.7188 2.1965,0 4.0625,-1.6238 4.0625,-3.7188 0,-2.0949 -1.8777,-3.6875 -4.0625,-3.6875 z m 0,0.96875 c 1.73,0 3.0938,1.2114 3.0938,2.7188 0,1.5073 -1.3637,2.75 -3.0938,2.75 -1.73,0 -3.1562,-1.2427 -3.1562,-2.75 0,-1.5073 1.4262,-2.7188 3.1562,-2.7188 z" />
    </g>
    <rect
       ry="25"
       rx="25"
       id="rect3003"
       style="opacity:0.15;fill:#ffffff;fill-opacity:1"
       height="92"
       width="92"
       y="958.36218"
       x="-96"
       clip-path="url(#clipPath3009)"
       transform="translate(98,3.8281269e-7)" />
  </g>
</svg>
