<?xml version="1.0" encoding="UTF-8" standalone="no"?>
<!-- Created with Inkscape (http://www.inkscape.org/) -->

<svg
   xmlns:dc="http://purl.org/dc/elements/1.1/"
   xmlns:cc="http://creativecommons.org/ns#"
   xmlns:rdf="http://www.w3.org/1999/02/22-rdf-syntax-ns#"
   xmlns:svg="http://www.w3.org/2000/svg"
   xmlns="http://www.w3.org/2000/svg"
   xmlns:xlink="http://www.w3.org/1999/xlink"
   xmlns:sodipodi="http://sodipodi.sourceforge.net/DTD/sodipodi-0.dtd"
   xmlns:inkscape="http://www.inkscape.org/namespaces/inkscape"
   width="96"
   height="96"
   id="svg11037"
   version="1.1"
   inkscape:version="0.48.3.1 r9886"
   sodipodi:docname="autoplus.svg">
  <defs
     id="defs11039">
    <linearGradient
       y2="1046.1001"
       x2="47.999954"
       y1="962.62189"
       x1="47.999954"
       gradientTransform="matrix(1.15,0,0,1.15,-7.1999462,-150.65291)"
       gradientUnits="userSpaceOnUse"
       id="linearGradient3886"
       xlink:href="#linearGradient3795"
       inkscape:collect="always" />
    <linearGradient
       id="linearGradient3795">
      <stop
         style="stop-color:#13a6fd;stop-opacity:1;"
         offset="0"
         id="stop3797" />
      <stop
         style="stop-color:#2975b6;stop-opacity:1;"
         offset="1"
         id="stop3799" />
    </linearGradient>
    <radialGradient
       id="radialGradient3891"
       gradientUnits="userSpaceOnUse"
       cy="48"
       cx="48"
       r="35.25">
      <stop
         id="stop3899"
         style="stop-color:#294172;stop-opacity:.37405"
         offset="0" />
      <stop
         id="stop3901"
         style="stop-color:#294172"
         offset="1" />
    </radialGradient>
    <clipPath
       clipPathUnits="userSpaceOnUse"
       id="clipPath3009">
      <path
         id="path3011"
         d="m -2,956.36218 -96,0 0,33.5624 96,25.68742 0,-59.24982 z"
         style="opacity:0.15;fill:#ffffff;fill-opacity:1;stroke:none"
         inkscape:connector-curvature="0" />
    </clipPath>
  </defs>
  <sodipodi:namedview
     id="base"
     pagecolor="#ffffff"
     bordercolor="#666666"
     borderopacity="1.0"
     inkscape:pageopacity="0.0"
     inkscape:pageshadow="2"
     inkscape:zoom="3.959798"
     inkscape:cx="33.538031"
     inkscape:cy="59.964634"
     inkscape:document-units="px"
     inkscape:current-layer="layer1"
     showgrid="false"
     inkscape:window-width="1280"
     inkscape:window-height="750"
     inkscape:window-x="0"
     inkscape:window-y="22"
     inkscape:window-maximized="1"
     showguides="true"
     inkscape:guide-bbox="true">
    <sodipodi:guide
       orientation="0,1"
       position="-24.748737,0"
       id="guide11064" />
    <sodipodi:guide
       orientation="0,1"
       position="-23.233509,96"
       id="guide11066" />
    <sodipodi:guide
       orientation="1,0"
       position="0,54.800776"
       id="guide11068" />
    <sodipodi:guide
       orientation="1,0"
       position="96,51.012704"
       id="guide11070" />
    <sodipodi:guide
       orientation="0,1"
       position="-18.94036,48"
       id="guide11072" />
    <sodipodi:guide
       orientation="1,0"
       position="48,79.296975"
       id="guide11074" />
    <sodipodi:guide
       orientation="1,0"
       position="2,75.508903"
       id="guide11076" />
    <sodipodi:guide
       orientation="0,1"
       position="-77.27667,2"
       id="guide11078" />
    <sodipodi:guide
       orientation="1,0"
       position="94,77.781746"
       id="guide11080" />
    <sodipodi:guide
       orientation="0,1"
       position="-65.912454,94"
       id="guide11082" />
  </sodipodi:namedview>
  <metadata
     id="metadata11042">
    <rdf:RDF>
      <cc:Work
         rdf:about="">
        <dc:format>image/svg+xml</dc:format>
        <dc:type
           rdf:resource="http://purl.org/dc/dcmitype/StillImage" />
        <dc:title />
      </cc:Work>
    </rdf:RDF>
  </metadata>
  <g
     inkscape:label="Layer 1"
     inkscape:groupmode="layer"
     id="layer1"
     transform="translate(0,-956.36218)">
    <rect
       x="2"
       y="958.36218"
       width="92"
       height="92"
       style="fill:#3c6eb4;fill-opacity:1"
       id="rect3867"
       rx="25"
       ry="25" />
    <g
       transform="translate(0,956.36218)"
       id="g3058">
      <path
         inkscape:connector-curvature="0"
         d="m 40.625,12.75 c -4.4789,0.9333 -8.6446,2.7274 -12.344,5.1562 0.10781,2.6954 -0.85119,5.4137 -2.9062,7.4688 -2.0551,2.0551 -4.7733,3.0141 -7.4688,2.9062 -2.429,3.699 -4.223,7.865 -5.156,12.344 1.998,1.828 3.25,4.453 3.25,7.375 0,2.9219 -1.2518,5.5466 -3.25,7.375 0.9333,4.4789 2.7274,8.6446 5.1562,12.344 2.6954,-0.10781 5.4137,0.85119 7.4688,2.9062 2.0551,2.0551 3.0141,4.7733 2.9062,7.4688 3.699,2.429 7.865,4.223 12.344,5.156 1.828,-1.998 4.453,-3.25 7.375,-3.25 2.9219,0 5.5466,1.2518 7.375,3.25 4.4644,-0.93028 8.6222,-2.7083 12.312,-5.125 -0.0063,-0.14435 0,-0.29318 0,-0.4375 0,-2.5592 0.98488,-5.1099 2.9375,-7.0625 2.0551,-2.0551 4.7733,-3.0141 7.4688,-2.9062 2.43,-3.699 4.224,-7.865 5.157,-12.344 -1.998,-1.828 -3.25,-4.453 -3.25,-7.375 0,-2.922 1.252,-5.547 3.25,-7.375 -0.933,-4.479 -2.727,-8.645 -5.156,-12.344 -2.696,0.108 -5.414,-0.851 -7.469,-2.906 -1.9526,-1.9526 -2.9375,-4.5033 -2.9375,-7.0625 0,-0.14432 -0.0063,-0.29315 0,-0.4375 C 63.997,15.458 59.839,13.68 55.375,12.75 53.547,14.748 50.922,16 48,16 45.078,16 42.453,14.748 40.625,12.75 z"
         style="color:#000000;fill:url(#radialGradient3891)"
         id="path3683" />
      <path
         inkscape:connector-curvature="0"
         d="m 40.625,12.75 c -4.479,0.933 -8.645,2.727 -12.344,5.156 0.108,2.696 -0.851,5.414 -2.906,7.469 -2.055,2.055 -4.773,3.014 -7.469,2.906 -2.429,3.699 -4.223,7.865 -5.156,12.344 1.998,1.828 3.25,4.453 3.25,7.375 0,2.922 -1.252,5.547 -3.25,7.375 0.933,4.479 2.727,8.645 5.156,12.344 2.696,-0.108 5.414,0.851 7.469,2.906 2.055,2.055 3.014,4.773 2.906,7.469 3.699,2.429 7.865,4.223 12.344,5.156 C 42.453,81.252 45.078,80 48,80 c 2.922,0 5.547,1.252 7.375,3.25 4.464,-0.93 8.622,-2.708 12.313,-5.125 -0.007,-0.144 0,-0.293 0,-0.437 0,-2.56 0.984,-5.11 2.937,-7.063 2.055,-2.055 4.773,-3.014 7.469,-2.906 C 80.523,64.02 82.317,59.854 83.25,55.375 81.252,53.547 80,50.922 80,48 c 0,-2.922 1.252,-5.547 3.25,-7.375 -0.933,-4.479 -2.727,-8.645 -5.156,-12.344 -2.696,0.108 -5.414,-0.851 -7.469,-2.906 -1.953,-1.953 -2.937,-4.503 -2.937,-7.063 0,-0.144 -0.007,-0.293 0,-0.437 C 63.997,15.458 59.839,13.68 55.375,12.75 53.547,14.748 50.922,16 48,16 45.078,16 42.453,14.748 40.625,12.75 z M 40,15.594 c 2.177,1.817 4.956,2.937 8,2.937 3.044,0 5.823,-1.12 8,-2.937 3.349,0.83 6.531,2.144 9.406,3.906 0.274,2.795 1.313,5.531 3.438,7.656 2.141,2.142 4.883,3.302 7.687,3.563 1.738,2.852 3.052,5.969 3.875,9.281 -1.817,2.177 -2.937,4.956 -2.937,8 0,3.044 1.12,5.823 2.937,8 -0.823,3.312 -2.137,6.429 -3.875,9.281 -2.804,0.261 -5.546,1.421 -7.687,3.563 -2.125,2.125 -3.164,4.861 -3.438,7.656 -2.875,1.762 -6.057,3.076 -9.406,3.906 -2.177,-1.817 -4.956,-2.937 -8,-2.937 -3.044,0 -5.823,1.12 -8,2.937 -3.312,-0.823 -6.429,-2.137 -9.281,-3.875 -0.261,-2.804 -1.421,-5.546 -3.563,-7.687 -2.141,-2.142 -4.883,-3.302 -7.687,-3.563 -1.738,-2.852 -3.052,-5.969 -3.875,-9.281 1.817,-2.177 2.937,-4.956 2.937,-8 0,-3.044 -1.12,-5.823 -2.937,-8 0.823,-3.312 2.137,-6.429 3.875,-9.281 2.804,-0.261 5.546,-1.421 7.687,-3.563 2.142,-2.141 3.302,-4.883 3.563,-7.687 2.852,-1.738 5.969,-3.052 9.281,-3.875 z"
         style="opacity:0.05;color:#000000"
         id="path3937" />
      <path
         inkscape:connector-curvature="0"
         d="m 58.406,24.156 c -7.9756,0 -14.469,6.46 -14.469,14.438 v 0.03125 6.3438 h -6.3438 c -7.9754,0 -14.438,6.4628 -14.438,14.438 0,7.9758 6.4624,14.438 14.438,14.438 7.9745,0 14.469,-6.4593 14.469,-14.438 v -0.03125 -6.375 h 6.3438 c 7.9722,0 14.438,-6.4315 14.438,-14.406 0,-7.9752 -6.463,-14.438 -14.438,-14.438 z m 0,8.125 c 3.5081,0 6.3438,2.8082 6.3438,6.3125 0,3.5038 -2.8446,6.375 -6.3438,6.375 h -0.03125 -6.1562 c -0.11384,0 -0.15625,-0.04206 -0.15625,-0.15625 v -6.2188 c 0.0059,-3.5001 2.8407,-6.3125 6.3438,-6.3125 z M 37.594,53 h 0.03125 6.1562 c 0.11244,0 0.15625,0.04453 0.15625,0.15625 v 6.25 c -0.005,3.4973 -2.8412,6.3125 -6.3438,6.3125 -3.508,0 -6.3438,-2.8089 -6.3438,-6.3125 0.001,-3.505 2.85,-6.406 6.345,-6.406 z"
         style="opacity:0.1;fill:#0a57a4"
         id="path3903" />
      <path
         inkscape:connector-curvature="0"
         d="m 58.394,25 c -7.5151,0 -13.607,6.0918 -13.607,13.606 v 0.0094 7.2014 h -7.1794 -0.0018 c -7.5149,0 -13.606,6.0621 -13.606,13.576 0,7.5153 6.0918,13.607 13.606,13.607 7.514,0 13.606,-6.0915 13.606,-13.607 v -0.0094 -7.2313 h 7.1791 0.003 c 7.514,0 13.606,-6.0323 13.606,-13.546 0,-7.5146 -6.0918,-13.606 -13.606,-13.606 z M 44.788,59.406 c -0.0057,3.9595 -3.2194,7.1695 -7.1812,7.1695 -3.966,0 -7.2109,-3.2152 -7.2109,-7.1812 0,-3.9674 3.2449,-7.2421 7.2109,-7.2421 h 0.0094 6.1536 0.0046 c 0.56023,0 1.0145,0.45338 1.0145,1.0127 0,0.0011 -6.89e-4,0.0011 -6.89e-4,0.0025 v 6.2386 h -2.3e-4 z M 58.394,45.817 h -0.0067 -6.1577 -0.0037 c -0.56023,0 -1.0134,-0.45315 -1.0134,-1.0138 v -2.3e-4 -6.2085 c 0.0067,-3.9618 3.2194,-7.1706 7.1814,-7.1706 3.966,0 7.2115,3.2155 7.2115,7.1821 0,3.9662 -3.2456,7.2111 -7.2115,7.2111 z"
         style="opacity:0.3;fill:#0a57a4"
         id="path3898" />
      <g
         transform="matrix(0.22979,0,0,0.22979,20.892,17.128)"
         style="fill:#5484c6"
         id="f-script">
        <path
           inkscape:connector-curvature="0"
           d="m 163.2,29.904 c -32.704,0 -59.213,26.51 -59.213,59.212 v 0.041 31.339 H 72.744 72.736 c -32.703,0 -59.212,26.381 -59.212,59.081 0,32.705 26.51,59.214 59.212,59.214 32.699,0 59.209,-26.509 59.209,-59.214 v -0.041 -31.469 h 31.242 0.013 c 32.699,0 59.209,-26.251 59.209,-58.951 0,-32.702 -26.51,-59.212 -59.209,-59.212 z m -59.213,149.73 c -0.025,17.231 -14.01,31.2 -31.251,31.2 -17.259,0 -31.38,-13.992 -31.38,-31.251 0,-17.265 14.121,-31.516 31.38,-31.516 h 0.041 26.779 0.02 c 2.438,0 4.415,1.973 4.415,4.407 0,0.005 -0.003,0.005 -0.003,0.011 v 27.149 h -0.001 z m 59.21,-59.137 h -0.029 -26.797 -0.016 c -2.438,0 -4.41,-1.972 -4.41,-4.412 v -10e-4 -27.018 c 0.029,-17.241 14.01,-31.205 31.252,-31.205 17.259,0 31.383,13.993 31.383,31.255 0,17.26 -14.124,31.381 -31.383,31.381 z"
           style="fill:#5484c6"
           id="f-script-path" />
      </g>
      <path
         inkscape:connector-curvature="0"
         d="m 44.788,44.817 v -7.2017 -0.0094 c 0,-7.5146 6.0915,-13.606 13.607,-13.606 1.14,0 1.95,0.12845 3.0052,0.40466 1.5389,0.40351 2.7956,1.6642 2.7963,3.1316 6.9e-4,1.774 -1.2871,3.0636 -3.2116,3.0636 -0.91687,0 -1.2482,-0.17556 -2.5907,-0.17556 -3.9621,0 -7.1748,3.2088 -7.1814,7.1706 v 6.2083 2.3e-4 c 0,0.56069 0.45315,1.0138 1.0134,1.0138 h 0.0037 4.7158 c 1.7574,0 3.1766,1.407 3.178,3.1691 0,1.7627 -1.4213,3.1665 -3.178,3.1665 h -5.7328 v 7.2313 0.0108 c 0,7.514 -6.0918,13.605 -13.606,13.605 -1.1402,0 -1.9502,-0.12845 -3.0054,-0.40489 -1.5389,-0.40328 -2.7961,-1.6646 -2.7968,-3.1316 0,-1.7735 1.2868,-3.0636 3.2123,-3.0636 0.91595,0 1.2482,0.17579 2.59,0.17579 3.9621,0 7.1757,-3.209 7.1819,-7.1695 v -6.2409 c 0,-0.55954 -0.4543,-1.0127 -1.0145,-1.0127 h -0.0025 -4.7156 c -1.7579,0 -3.1782,-1.4024 -3.1782,-3.1656 -4.6e-4,-1.7731 1.435,-3.1697 3.2116,-3.1697 h 5.6986 v -2.29e-4 z"
         style="fill:#ffffff"
         id="blue-inifity-connectors" />
      <path
         inkscape:connector-curvature="0"
         d="m 40.625,12.75 c -4.479,0.933 -8.645,2.727 -12.344,5.156 0.108,2.696 -0.851,5.414 -2.906,7.469 -2.055,2.055 -4.773,3.014 -7.469,2.906 -2.429,3.699 -4.223,7.865 -5.156,12.344 1.998,1.828 3.25,4.453 3.25,7.375 0,2.922 -1.252,5.547 -3.25,7.375 0.933,4.479 2.727,8.645 5.156,12.344 2.696,-0.108 5.414,0.851 7.469,2.906 2.055,2.055 3.014,4.773 2.906,7.469 3.699,2.429 7.865,4.223 12.344,5.156 C 42.453,81.252 45.078,80 48,80 c 2.922,0 5.547,1.252 7.375,3.25 4.464,-0.93 8.622,-2.708 12.313,-5.125 -0.007,-0.144 0,-0.293 0,-0.437 0,-2.56 0.984,-5.11 2.937,-7.063 2.055,-2.055 4.773,-3.014 7.469,-2.906 C 80.523,64.02 82.317,59.854 83.25,55.375 81.252,53.547 80,50.922 80,48 c 0,-2.922 1.252,-5.547 3.25,-7.375 -0.933,-4.479 -2.727,-8.645 -5.156,-12.344 -2.696,0.108 -5.414,-0.851 -7.469,-2.906 -1.953,-1.953 -2.937,-4.503 -2.937,-7.063 0,-0.144 -0.007,-0.293 0,-0.437 C 63.997,15.458 59.839,13.68 55.375,12.75 53.547,14.748 50.922,16 48,16 45.078,16 42.453,14.748 40.625,12.75 z m -0.281,2 c 2.079,1.817 4.687,3.062 7.656,3.062 2.969,0 5.577,-1.245 7.656,-3.062 3.727,0.859 7.217,2.338 10.375,4.312 0.182,2.767 1.21,5.491 3.313,7.594 2.093,2.093 4.788,3.061 7.531,3.25 1.998,3.178 3.509,6.685 4.375,10.438 -1.817,2.079 -3.062,4.687 -3.062,7.656 0,2.969 1.245,5.577 3.062,7.656 -0.866,3.753 -2.377,7.26 -4.375,10.438 -2.743,0.189 -5.438,1.157 -7.531,3.25 -2.103,2.103 -3.131,4.827 -3.313,7.594 -3.158,1.974 -6.648,3.453 -10.375,4.312 -2.079,-1.817 -4.687,-3.062 -7.656,-3.062 -2.969,0 -5.577,1.245 -7.656,3.062 -3.753,-0.866 -7.26,-2.377 -10.438,-4.375 -0.189,-2.743 -1.157,-5.438 -3.25,-7.531 -2.093,-2.093 -4.788,-3.061 -7.531,-3.25 -1.998,-3.178 -3.509,-6.685 -4.375,-10.438 1.817,-2.079 3.062,-4.687 3.062,-7.656 0,-2.969 -1.245,-5.577 -3.062,-7.656 0.866,-3.753 2.377,-7.26 4.375,-10.438 2.743,-0.189 5.438,-1.157 7.531,-3.25 2.093,-2.093 3.061,-4.788 3.25,-7.531 3.178,-1.998 6.685,-3.509 10.438,-4.375 z"
         style="opacity:0.1;color:#000000"
         id="path3927" />
      <path
         inkscape:connector-curvature="0"
         d="m 40.625,12.75 c -4.479,0.933 -8.645,2.727 -12.344,5.156 0.014,0.337 0.02,0.664 0,1 3.699,-2.429 7.865,-4.223 12.344,-5.156 1.828,1.998 4.453,3.25 7.375,3.25 2.922,0 5.547,-1.252 7.375,-3.25 4.464,0.93 8.622,2.708 12.313,5.125 -0.007,0.144 0,0.293 0,0.437 0,2.56 0.984,5.11 2.937,7.063 2.055,2.055 4.773,3.014 7.469,2.906 2.28,3.472 3.994,7.364 4.968,11.531 0.064,-0.061 0.123,-0.127 0.188,-0.187 -0.933,-4.479 -2.727,-8.645 -5.156,-12.344 -2.696,0.108 -5.414,-0.851 -7.469,-2.906 -1.953,-1.953 -2.937,-4.503 -2.937,-7.063 0,-0.144 -0.007,-0.293 0,-0.437 C 63.997,15.458 59.839,13.68 55.375,12.75 53.547,14.748 50.922,16 48,16 45.078,16 42.453,14.748 40.625,12.75 z m -12.344,6.156 c -0.139,2.354 -1.108,4.671 -2.906,6.469 -2.055,2.055 -4.773,3.014 -7.469,2.906 -2.429,3.699 -4.223,7.865 -5.156,12.344 0.065,0.06 0.124,0.126 0.188,0.187 0.974,-4.167 2.688,-8.059 4.968,-11.531 2.696,0.108 5.414,-0.851 7.469,-2.906 2.055,-2.055 3.014,-4.773 2.906,-7.469 z M 15.969,48.5 c -0.134,2.721 -1.335,5.151 -3.219,6.875 0.057,0.275 0.124,0.54 0.188,0.813 C 14.823,54.369 16,51.827 16,49 16,48.833 15.977,48.665 15.969,48.5 z m 64.062,0 C 80.023,48.665 80,48.833 80,49 c 0,2.827 1.177,5.369 3.062,7.188 0.064,-0.273 0.131,-0.538 0.188,-0.813 -1.884,-1.724 -3.085,-4.154 -3.219,-6.875 z"
         style="opacity:0.3;color:#000000"
         id="path3914" />
      <path
         inkscape:connector-curvature="0"
         d="m 40.625,12.75 c -4.479,0.933 -8.645,2.727 -12.344,5.156 0.108,2.696 -0.851,5.414 -2.906,7.469 -2.055,2.055 -4.773,3.014 -7.469,2.906 -2.429,3.699 -4.223,7.865 -5.156,12.344 1.998,1.828 3.25,4.453 3.25,7.375 0,2.922 -1.252,5.547 -3.25,7.375 0.933,4.479 2.727,8.645 5.156,12.344 2.696,-0.108 5.414,0.851 7.469,2.906 2.055,2.055 3.014,4.773 2.906,7.469 3.699,2.429 7.865,4.223 12.344,5.156 C 42.453,81.252 45.078,80 48,80 c 2.922,0 5.547,1.252 7.375,3.25 4.464,-0.93 8.622,-2.708 12.313,-5.125 -0.007,-0.144 0,-0.293 0,-0.437 0,-2.56 0.984,-5.11 2.937,-7.063 2.055,-2.055 4.773,-3.014 7.469,-2.906 C 80.523,64.02 82.317,59.854 83.25,55.375 81.252,53.547 80,50.922 80,48 c 0,-2.922 1.252,-5.547 3.25,-7.375 -0.933,-4.479 -2.727,-8.645 -5.156,-12.344 -2.696,0.108 -5.414,-0.851 -7.469,-2.906 -1.953,-1.953 -2.937,-4.503 -2.937,-7.063 0,-0.144 -0.007,-0.293 0,-0.437 C 63.997,15.458 59.839,13.68 55.375,12.75 53.547,14.748 50.922,16 48,16 45.078,16 42.453,14.748 40.625,12.75 z m -0.187,1 c 1.962,1.914 4.608,3.156 7.562,3.156 2.962,0 5.63,-1.232 7.594,-3.156 4.046,0.897 7.826,2.492 11.218,4.656 0.026,2.755 1.092,5.498 3.188,7.594 2.083,2.083 4.798,3.087 7.531,3.125 2.193,3.42 3.817,7.228 4.719,11.313 -1.914,1.962 -3.156,4.608 -3.156,7.562 0,2.954 1.242,5.6 3.156,7.562 -0.902,4.085 -2.526,7.893 -4.719,11.313 C 74.798,66.913 72.083,67.917 70,70 67.904,72.096 66.838,74.839 66.812,77.594 63.42,79.758 59.64,81.353 55.594,82.25 53.63,80.326 50.962,79.094 48,79.094 c -2.954,0 -5.6,1.242 -7.562,3.156 C 36.353,81.348 32.545,79.724 29.125,77.531 29.087,74.798 28.083,72.083 26,70 23.917,67.917 21.202,66.913 18.469,66.875 16.276,63.455 14.652,59.647 13.75,55.562 15.664,53.6 16.906,50.954 16.906,48 c 0,-2.954 -1.242,-5.6 -3.156,-7.562 0.902,-4.085 2.526,-7.893 4.719,-11.313 C 21.202,29.087 23.917,28.083 26,26 c 2.083,-2.083 3.087,-4.798 3.125,-7.531 3.42,-2.193 7.228,-3.817 11.313,-4.719 z"
         style="opacity:0.15;color:#000000"
         id="path3923" />
      <path
         inkscape:connector-curvature="0"
         d="m 12.938,40.812 c -0.064,0.273 -0.131,0.538 -0.188,0.813 1.884,1.724 3.085,4.154 3.219,6.875 C 15.977,48.335 16,48.167 16,48 16,45.173 14.823,42.631 12.938,40.812 z m 70.124,0 C 81.177,42.631 80,45.173 80,48 c 0,0.167 0.023,0.335 0.031,0.5 0.134,-2.721 1.335,-5.151 3.219,-6.875 -0.057,-0.275 -0.124,-0.54 -0.188,-0.813 z M 12.938,56.188 c -0.064,0.061 -0.123,0.127 -0.188,0.187 0.933,4.479 2.727,8.645 5.156,12.344 2.696,-0.108 5.414,0.851 7.469,2.906 1.798,1.798 2.767,4.115 2.906,6.469 C 28.389,75.398 27.43,72.68 25.375,70.625 23.32,68.57 20.602,67.611 17.906,67.719 15.626,64.247 13.912,60.355 12.938,56.188 z m 15.343,21.906 c 0.02,0.336 0.014,0.663 0,1 3.699,2.429 7.865,4.223 12.344,5.156 C 42.453,82.252 45.078,81 48,81 c 2.922,0 5.547,1.252 7.375,3.25 4.464,-0.93 8.622,-2.708 12.313,-5.125 -0.007,-0.144 0,-0.293 0,-0.437 0,-2.56 0.984,-5.11 2.937,-7.063 2.055,-2.055 4.773,-3.014 7.469,-2.906 2.429,-3.699 4.223,-7.865 5.156,-12.344 -0.065,-0.06 -0.124,-0.126 -0.188,-0.187 -0.974,4.167 -2.688,8.059 -4.968,11.531 -2.696,-0.108 -5.414,0.851 -7.469,2.906 -1.953,1.953 -2.937,4.503 -2.937,7.063 0,0.144 -0.007,0.293 0,0.437 C 63.997,80.542 59.839,82.32 55.375,83.25 53.547,81.252 50.922,80 48,80 45.078,80 42.453,81.252 40.625,83.25 36.146,82.317 31.98,80.523 28.281,78.094 z"
         style="opacity:0.2;color:#000000;fill:#ffffff"
         id="path3950" />
    </g>
    <rect
       ry="25"
       rx="25"
       id="rect3003"
       style="opacity:0.15;fill:#ffffff;fill-opacity:1"
       height="92"
       width="92"
       y="958.36218"
       x="-96"
       clip-path="url(#clipPath3009)"
       transform="translate(98,3.8281269e-7)" />
  </g>
</svg>
