<?xml version="1.0" encoding="UTF-8" standalone="no"?>
<!-- Created with Inkscape (http://www.inkscape.org/) -->

<svg
   xmlns:dc="http://purl.org/dc/elements/1.1/"
   xmlns:cc="http://creativecommons.org/ns#"
   xmlns:rdf="http://www.w3.org/1999/02/22-rdf-syntax-ns#"
   xmlns:svg="http://www.w3.org/2000/svg"
   xmlns="http://www.w3.org/2000/svg"
   xmlns:xlink="http://www.w3.org/1999/xlink"
   xmlns:sodipodi="http://sodipodi.sourceforge.net/DTD/sodipodi-0.dtd"
   xmlns:inkscape="http://www.inkscape.org/namespaces/inkscape"
   width="96"
   height="96"
   id="svg11037"
   version="1.1"
   inkscape:version="0.48.3.1 r9886"
   sodipodi:docname="banshee.svg">
  <defs
     id="defs11039">
    <linearGradient
       y2="1046.1001"
       x2="47.999954"
       y1="962.62189"
       x1="47.999954"
       gradientTransform="matrix(1.15,0,0,1.15,-7.1999462,-150.65291)"
       gradientUnits="userSpaceOnUse"
       id="linearGradient3886"
       xlink:href="#linearGradient3795"
       inkscape:collect="always" />
    <linearGradient
       id="linearGradient3795">
      <stop
         style="stop-color:#13a6fd;stop-opacity:1;"
         offset="0"
         id="stop3797" />
      <stop
         style="stop-color:#2975b6;stop-opacity:1;"
         offset="1"
         id="stop3799" />
    </linearGradient>
    <linearGradient
       y2="1046.1001"
       x2="47.999954"
       y1="962.62189"
       x1="47.999954"
       gradientTransform="matrix(1.15,0,0,1.15,-7.1999462,-150.65292)"
       gradientUnits="userSpaceOnUse"
       id="linearGradient11642"
       xlink:href="#linearGradient5451"
       inkscape:collect="always" />
    <linearGradient
       id="linearGradient5451"
       y2="-59.097"
       gradientUnits="userSpaceOnUse"
       x2="47.999001"
       gradientTransform="matrix(0.95238,0,0,0.95238,163.37045,929.76864)"
       y1="90"
       x1="48">
      <stop
         id="stop3189-1"
         style="stop-color:#e0880b"
         offset="0" />
      <stop
         id="stop3191-2"
         style="stop-color:#f7ce50"
         offset="1" />
    </linearGradient>
    <linearGradient
       x1="48"
       y1="90"
       x2="48"
       y2="5.9877172"
       id="linearGradient3706"
       xlink:href="#linearGradient3187"
       gradientUnits="userSpaceOnUse" />
    <linearGradient
       id="linearGradient3187">
      <stop
         id="stop3189"
         style="stop-color:#e0880b;stop-opacity:1"
         offset="0" />
      <stop
         id="stop3191"
         style="stop-color:#f7ce50;stop-opacity:1"
         offset="1" />
    </linearGradient>
    <clipPath
       id="clipPath3672">
      <rect
         width="111.24031"
         height="111.20501"
         rx="7.9457364"
         ry="7.9432149"
         x="11.498101"
         y="11.194011"
         id="rect3674"
         style="fill:#ffffff;fill-opacity:1;fill-rule:nonzero;stroke:none" />
    </clipPath>
    <filter
       color-interpolation-filters="sRGB"
       id="filter3666">
      <feGaussianBlur
         id="feGaussianBlur3668"
         stdDeviation="1.83514" />
    </filter>
    <linearGradient
       x1="48"
       y1="20.220806"
       x2="48"
       y2="138.66119"
       id="linearGradient2908"
       xlink:href="#linearGradient3737-6"
       gradientUnits="userSpaceOnUse" />
    <linearGradient
       id="linearGradient3737-6">
      <stop
         id="stop3739-1"
         style="stop-color:#ffffff;stop-opacity:1"
         offset="0" />
      <stop
         id="stop3741-5"
         style="stop-color:#ffffff;stop-opacity:0"
         offset="1" />
    </linearGradient>
    <clipPath
       id="clipPath3613">
      <rect
         width="84"
         height="84"
         rx="6"
         ry="6"
         x="6"
         y="6"
         id="rect3615"
         style="fill:#ffffff;fill-opacity:1;fill-rule:nonzero;stroke:none" />
    </clipPath>
    <filter
       x="-0.192"
       y="-0.192"
       width="1.3839999"
       height="1.3839999"
       color-interpolation-filters="sRGB"
       id="filter3794-9">
      <feGaussianBlur
         id="feGaussianBlur3796-4"
         stdDeviation="5.28" />
    </filter>
    <linearGradient
       x1="48"
       y1="87"
       x2="48"
       y2="-17"
       id="linearGradient3783"
       xlink:href="#linearGradient3770"
       gradientUnits="userSpaceOnUse" />
    <linearGradient
       id="linearGradient3770">
      <stop
         id="stop3772"
         style="stop-color:#000000;stop-opacity:1"
         offset="0" />
      <stop
         id="stop3774"
         style="stop-color:#000000;stop-opacity:0"
         offset="1" />
    </linearGradient>
    <linearGradient
       x1="48"
       y1="88"
       x2="48"
       y2="-16"
       id="linearGradient3778"
       xlink:href="#linearGradient3770"
       gradientUnits="userSpaceOnUse" />
    <linearGradient
       id="linearGradient3130">
      <stop
         id="stop3132"
         style="stop-color:#000000;stop-opacity:1"
         offset="0" />
      <stop
         id="stop3134"
         style="stop-color:#000000;stop-opacity:0"
         offset="1" />
    </linearGradient>
    <linearGradient
       x1="48"
       y1="87"
       x2="48"
       y2="-17"
       id="linearGradient3781"
       xlink:href="#linearGradient3770"
       gradientUnits="userSpaceOnUse" />
    <linearGradient
       id="linearGradient3137">
      <stop
         id="stop3139"
         style="stop-color:#000000;stop-opacity:1"
         offset="0" />
      <stop
         id="stop3141"
         style="stop-color:#000000;stop-opacity:0"
         offset="1" />
    </linearGradient>
    <linearGradient
       x1="48"
       y1="88"
       x2="48"
       y2="-16"
       id="linearGradient3776"
       xlink:href="#linearGradient3770"
       gradientUnits="userSpaceOnUse" />
    <linearGradient
       id="linearGradient3144">
      <stop
         id="stop3146"
         style="stop-color:#000000;stop-opacity:1"
         offset="0" />
      <stop
         id="stop3148"
         style="stop-color:#000000;stop-opacity:0"
         offset="1" />
    </linearGradient>
    <radialGradient
       cx="63.75"
       cy="57.679382"
       r="34"
       fx="63.75"
       fy="57.679382"
       id="radialGradient3777"
       xlink:href="#linearGradient7985"
       gradientUnits="userSpaceOnUse"
       gradientTransform="matrix(-1.5581724,1.4064304e-7,-1.2408086e-7,-1.3643811,163.0835,137.55769)" />
    <linearGradient
       id="linearGradient7985">
      <stop
         id="stop7987"
         style="stop-color:#ffffff;stop-opacity:1"
         offset="0" />
      <stop
         id="stop7997"
         style="stop-color:#ffffff;stop-opacity:1"
         offset="0.1" />
      <stop
         id="stop7993"
         style="stop-color:#e6e6e6;stop-opacity:1"
         offset="0.30000001" />
      <stop
         id="stop7995"
         style="stop-color:#bebebe;stop-opacity:1"
         offset="0.80000001" />
      <stop
         id="stop7989"
         style="stop-color:#e6e6e6;stop-opacity:1"
         offset="1" />
    </linearGradient>
    <linearGradient
       x1="46.80846"
       y1="16.687328"
       x2="65.76947"
       y2="87.928337"
       id="linearGradient3811"
       xlink:href="#linearGradient8005"
       gradientUnits="userSpaceOnUse"
       gradientTransform="matrix(0.76488859,0,0,0.76488859,1.7349463,1.5614309)" />
    <linearGradient
       id="linearGradient8005">
      <stop
         id="stop8007"
         style="stop-color:#2f70b4;stop-opacity:1"
         offset="0" />
      <stop
         id="stop8009"
         style="stop-color:#4588ce;stop-opacity:1"
         offset="1" />
    </linearGradient>
    <filter
       x="-0.037872378"
       y="-0.1443238"
       width="1.0757447"
       height="1.2886477"
       color-interpolation-filters="sRGB"
       id="filter8019">
      <feGaussianBlur
         id="feGaussianBlur8021"
         stdDeviation="0.37938072" />
    </filter>
    <radialGradient
       cx="48.17165"
       cy="77.798073"
       r="15.495689"
       fx="48.17165"
       fy="77.798073"
       id="radialGradient3798"
       xlink:href="#linearGradient8033"
       gradientUnits="userSpaceOnUse"
       gradientTransform="matrix(1.6338787,1.7473377e-7,-3.0351881e-7,2.8381058,-30.534959,-134.76277)" />
    <linearGradient
       id="linearGradient8033">
      <stop
         id="stop8035"
         style="stop-color:#ffffff;stop-opacity:1"
         offset="0" />
      <stop
         id="stop8037"
         style="stop-color:#ffffff;stop-opacity:0"
         offset="1" />
    </linearGradient>
    <filter
       color-interpolation-filters="sRGB"
       id="filter8041">
      <feGaussianBlur
         id="feGaussianBlur8043"
         stdDeviation="0.78995058" />
    </filter>
    <filter
       color-interpolation-filters="sRGB"
       id="filter8047">
      <feGaussianBlur
         id="feGaussianBlur8049"
         stdDeviation="0.22026213" />
    </filter>
    <radialGradient
       cx="76.367531"
       cy="78"
       r="2.767844"
       fx="76.367531"
       fy="78"
       id="radialGradient3800"
       xlink:href="#linearGradient8053"
       gradientUnits="userSpaceOnUse" />
    <linearGradient
       id="linearGradient8053">
      <stop
         id="stop8055"
         style="stop-color:#ffffff;stop-opacity:1"
         offset="0" />
      <stop
         id="stop8057"
         style="stop-color:#ffffff;stop-opacity:0"
         offset="1" />
    </linearGradient>
    <filter
       x="-0.037872378"
       y="-0.1443238"
       width="1.0757447"
       height="1.2886477"
       color-interpolation-filters="sRGB"
       id="filter3175">
      <feGaussianBlur
         id="feGaussianBlur3177"
         stdDeviation="0.37938072" />
    </filter>
    <radialGradient
       cx="76.367531"
       cy="78"
       r="2.767844"
       fx="76.367531"
       fy="78"
       id="radialGradient3802"
       xlink:href="#linearGradient8053"
       gradientUnits="userSpaceOnUse" />
    <linearGradient
       id="linearGradient3180">
      <stop
         id="stop3182"
         style="stop-color:#ffffff;stop-opacity:1"
         offset="0" />
      <stop
         id="stop3184"
         style="stop-color:#ffffff;stop-opacity:0"
         offset="1" />
    </linearGradient>
    <clipPath
       clipPathUnits="userSpaceOnUse"
       id="clipPath3953">
      <rect
         x="5.9999995"
         y="6.0000038"
         width="84"
         height="84"
         style="fill:url(#linearGradient3957);fill-opacity:1"
         id="rect3955"
         rx="22.826086"
         ry="22.826086" />
    </clipPath>
    <linearGradient
       inkscape:collect="always"
       xlink:href="#linearGradient5451"
       id="linearGradient3957"
       gradientUnits="userSpaceOnUse"
       gradientTransform="matrix(1.05,0,0,1.05,-2.3999511,-1006.579)"
       x1="47.999954"
       y1="962.62189"
       x2="47.999954"
       y2="1046.1001" />
    <clipPath
       clipPathUnits="userSpaceOnUse"
       id="clipPath3009">
      <path
         id="path3011"
         d="m -2,956.36218 -96,0 0,33.5624 96,25.68742 0,-59.24982 z"
         style="opacity:0.15;fill:#ffffff;fill-opacity:1;stroke:none"
         inkscape:connector-curvature="0" />
    </clipPath>
  </defs>
  <sodipodi:namedview
     id="base"
     pagecolor="#ffffff"
     bordercolor="#666666"
     borderopacity="1.0"
     inkscape:pageopacity="0.0"
     inkscape:pageshadow="2"
     inkscape:zoom="4"
     inkscape:cx="53.483267"
     inkscape:cy="57.405037"
     inkscape:document-units="px"
     inkscape:current-layer="layer1"
     showgrid="false"
     inkscape:window-width="1280"
     inkscape:window-height="750"
     inkscape:window-x="0"
     inkscape:window-y="22"
     inkscape:window-maximized="1"
     showguides="true"
     inkscape:guide-bbox="true">
    <sodipodi:guide
       orientation="0,1"
       position="-24.748737,0"
       id="guide11064" />
    <sodipodi:guide
       orientation="0,1"
       position="-23.233509,96"
       id="guide11066" />
    <sodipodi:guide
       orientation="1,0"
       position="0,54.800776"
       id="guide11068" />
    <sodipodi:guide
       orientation="1,0"
       position="96,51.012704"
       id="guide11070" />
    <sodipodi:guide
       orientation="0,1"
       position="-18.94036,48"
       id="guide11072" />
    <sodipodi:guide
       orientation="1,0"
       position="48,79.296975"
       id="guide11074" />
    <sodipodi:guide
       orientation="1,0"
       position="2,75.508903"
       id="guide11076" />
    <sodipodi:guide
       orientation="0,1"
       position="-77.27667,2"
       id="guide11078" />
    <sodipodi:guide
       orientation="1,0"
       position="94,77.781746"
       id="guide11080" />
    <sodipodi:guide
       orientation="0,1"
       position="-65.912454,94"
       id="guide11082" />
  </sodipodi:namedview>
  <metadata
     id="metadata11042">
    <rdf:RDF>
      <cc:Work
         rdf:about="">
        <dc:format>image/svg+xml</dc:format>
        <dc:type
           rdf:resource="http://purl.org/dc/dcmitype/StillImage" />
        <dc:title />
      </cc:Work>
    </rdf:RDF>
  </metadata>
  <g
     inkscape:label="Layer 1"
     inkscape:groupmode="layer"
     id="layer1"
     transform="translate(0,-956.36218)">
    <g
       transform="matrix(1.0952381,0,0,1.0952381,-4.5714283,951.79075)"
       id="g3078"
       clip-path="url(#clipPath3953)">
      <g
         id="layer1-2">
        <rect
           style="fill:url(#linearGradient3706);fill-opacity:1;fill-rule:nonzero;stroke:none"
           id="rect2419"
           y="6"
           x="6"
           ry="6"
           rx="6"
           height="84"
           width="84" />
        <path
           style="opacity:0.2;fill:none;stroke:#ffffff;stroke-width:5.38845873;stroke-linecap:butt;stroke-linejoin:miter;stroke-miterlimit:4;stroke-opacity:1;stroke-dasharray:none;display:inline;filter:url(#filter3666)"
           id="path6999"
           clip-path="url(#clipPath3672)"
           transform="matrix(0.75512196,0,0,0.75536166,-2.682469,-2.4555262)"
           inkscape:connector-curvature="0"
           d="m 3.27163,125.00129 c 36.59871,-2.97448 74.20742,0.75124 109.80799,-10.08018 C 130.13287,110.98472 147.0644,97 154.87123,76.60989 M 1.0173,118.39504 c 36.04196,-4.24752 73.2745,-2.08361 108.25601,-13.79625 16.87197,-4.54806 33.51852,-18.496451 41.52972,-38.583512 M -1.23702,111.78879 c 35.4852,-5.52056 72.34158,-4.91847 106.70401,-17.51233 16.6907,-5.159717 33.05228,-19.071783 41.26784,-38.855794 M -3.49135,105.18255 C 31.4371,98.38894 67.91731,97.42922 101.66068,83.954141 118.1701,78.182754 134.2467,64.307016 142.66663,44.826054 M -5.74567,98.5763 C 28.62602,90.509651 64.73006,87.988117 97.85437,73.631818 114.1825,67.248766 129.97414,53.409355 138.59842,34.231442 M -8,91.97005 C 25.81494,82.630361 61.54282,78.547014 94.04805,63.309495 110.19491,56.314777 125.70157,42.511693 134.53022,23.63683 M -10.25432,85.363802 C 23.00386,74.751071 58.35557,69.105911 90.24174,52.987172 106.20732,45.380789 121.429,31.614032 130.46202,13.042218 M -12.50864,78.757553 C 20.19278,66.871781 55.16832,59.664808 86.43543,42.664849 102.21973,34.4468 117.15644,20.716371 126.39382,2.4476054 M -14.76297,72.151305 C 17.3817,58.992491 51.98108,50.223705 82.62912,32.342526 98.23214,23.512811 112.88387,9.8187089 122.32562,-8.1470067 M -17.01729,65.545057 C 14.57062,51.113201 48.79383,40.782602 78.8228,22.020203 94.24455,12.578823 108.61131,-1.078952 118.25742,-18.741619 M -19.27162,58.938809 C 11.75954,43.233911 45.60658,31.341499 75.01649,11.69788 90.25695,1.6448341 104.33874,-11.976613 114.18921,-29.336231 M -21.52594,52.332561 C 8.94846,35.354622 42.41934,21.900395 71.21018,1.3755573 86.26936,-9.2891545 100.06617,-22.874275 110.12101,-39.930843 M -23.78027,45.726313 C 6.13738,27.475332 39.23209,12.459292 67.40386,-8.9467657 82.28177,-20.223143 95.79361,-33.771936 106.05281,-50.525455 m -132.0874,89.64552 C 3.3263,19.596042 36.04484,3.0181889 63.59755,-19.269089 78.29418,-31.157132 91.52104,-44.669597 101.98461,-61.120067" />
      </g>
      <g
         id="layer5">
        <rect
           style="opacity:0.15;fill:url(#linearGradient2908);fill-opacity:1;fill-rule:nonzero;stroke:#ffffff;stroke-width:0.5;stroke-linecap:round;stroke-linejoin:miter;stroke-miterlimit:4;stroke-opacity:1;stroke-dasharray:none;stroke-dashoffset:0;filter:url(#filter3794-9)"
           id="rect3171"
           clip-path="url(#clipPath3613)"
           y="15"
           x="15"
           ry="12"
           rx="12"
           height="66"
           width="66" />
      </g>
      <g
         id="layer3">
        <path
           inkscape:connector-curvature="0"
           style="font-size:medium;font-style:normal;font-variant:normal;font-weight:normal;font-stretch:normal;text-indent:0;text-align:start;text-decoration:none;line-height:normal;letter-spacing:normal;word-spacing:normal;text-transform:none;direction:ltr;block-progression:tb;writing-mode:lr-tb;text-anchor:start;opacity:0.05;color:#000000;fill:url(#linearGradient3783);fill-opacity:1;fill-rule:evenodd;stroke:none;stroke-width:1.99999988;marker:none;visibility:visible;display:inline;overflow:visible;enable-background:accumulate;font-family:Abandoned Bitplane;-inkscape-font-specification:Abandoned Bitplane"
           id="path3768"
           transform="translate(0,1)"
           d="m 45.40625,11.28125 c -7.398742,0.09251 -15.773823,1.471074 -21.0625,7.625 a 1.0093352,1.0093352 0 0 0 -0.03125,0 c -2.768546,3.343594 -6.041246,6.221155 -9.78125,8.375 l 0.03125,0.03125 c -1.208773,0.511269 -1.889659,1.703304 -1.875,2.84375 0.01545,1.201889 0.80962,2.529539 2.21875,2.84375 a 1.0093352,1.0093352 0 0 0 0.125,0 c 5.498289,0.595233 11.471465,0.0988 16.34375,-3.21875 A 1.0093352,1.0093352 0 0 0 31.40625,29.75 c 0.756738,-0.541487 1.425692,-0.766582 1.6875,-0.84375 0.0066,0.144191 0.04089,0.251143 -0.0625,0.6875 A 1.0093352,1.0093352 0 0 0 33,29.8125 l 0,9.125 c -8.247672,6.443414 -12.2992,17.890052 -9.03125,28 0.0028,0.0094 -0.0028,0.02188 0,0.03125 3.77351,12.714125 17.254329,20.806792 30.1875,19.65625 0.01032,-5.45e-4 0.02093,5.57e-4 0.03125,0 12.608269,-0.679817 24.525489,-10.224007 26.5,-23 0.0016,-0.01014 -0.0016,-0.02111 0,-0.03125 C 82.710844,52.380002 76.311442,40.867288 66.34375,35.78125 60.932231,32.924637 54.601925,31.654987 48.46875,32.59375 48.4453,26.357413 48.54599,20.080346 48.40625,13.8125 a 1.0093352,1.0093352 0 0 0 0,-0.15625 c -0.271754,-1.421995 -1.55769,-2.387421 -2.96875,-2.375 -0.01038,9.1e-5 -0.02085,-1.98e-4 -0.03125,0 z" />
        <path
           style="font-size:medium;font-style:normal;font-variant:normal;font-weight:normal;font-stretch:normal;text-indent:0;text-align:start;text-decoration:none;line-height:normal;letter-spacing:normal;word-spacing:normal;text-transform:none;direction:ltr;block-progression:tb;writing-mode:lr-tb;text-anchor:start;opacity:0.1;color:#000000;fill:url(#linearGradient3778);fill-opacity:1;fill-rule:evenodd;stroke:none;stroke-width:1.99999988;marker:none;visibility:visible;display:inline;overflow:visible;enable-background:accumulate;font-family:Abandoned Bitplane;-inkscape-font-specification:Abandoned Bitplane"
           id="path3762"
           inkscape:connector-curvature="0"
           d="m 45.4375,13.28125 c -7.287928,0.08767 -15.33925,1.480854 -20.337039,7.296302 -2.837656,3.427059 -6.203675,6.352886 -10.057953,8.572541 C 13.268766,29.751106 13.249469,32.58179 15.125,33 c 5.357957,0.580041 11.095819,0.06399 15.6875,-3.0625 1.87729,-1.343304 3.881308,-2.053963 3.1875,0.87416 0,3.198197 0,6.396393 0,9.59459 -8.192411,6.123172 -12.2471,17.40292 -9.053916,27.236607 3.610727,12.218464 16.669542,20.09214 29.139214,18.96844 C 66.236862,85.970169 77.794992,76.712052 79.674535,64.447591 81.626186,53.713966 75.446304,42.56577 65.865128,37.676953 60.288302,34.733078 53.694734,33.455246 47.46875,34.71875 47.4259,28.095445 47.55374,21.459007 47.40625,14.84375 47.232802,13.936157 46.357146,13.263711 45.4375,13.28125 z" />
        <path
           inkscape:connector-curvature="0"
           style="font-size:medium;font-style:normal;font-variant:normal;font-weight:normal;font-stretch:normal;text-indent:0;text-align:start;text-decoration:none;line-height:normal;letter-spacing:normal;word-spacing:normal;text-transform:none;direction:ltr;block-progression:tb;writing-mode:lr-tb;text-anchor:start;opacity:0.15;color:#000000;fill:url(#linearGradient3781);fill-opacity:1;fill-rule:evenodd;stroke:none;stroke-width:1.99999988;marker:none;visibility:visible;display:inline;overflow:visible;enable-background:accumulate;font-family:Abandoned Bitplane;-inkscape-font-specification:Abandoned Bitplane"
           id="path3757"
           transform="translate(0,1)"
           d="M 45.46875,13.28125 44.4375,13.3125 c -9.194554,0.338062 -13.765334,2.455842 -16.96875,5.34375 -3.181562,2.868206 -4.870923,5.8915 -9.5625,8.84375 L 15.125,29.28125 a 0.98422826,0.98422826 0 0 0 0.5,1.8125 l 3.28125,0.09375 c 5.436981,0.155978 8.854901,-1.555124 11.375,-3.09375 C 32.086497,26.99157 33.433874,26.234178 35,25.875 l 0,13.9375 c -6.144545,4.618246 -10.125,11.669713 -10.125,19.625 0,13.977509 12.151905,25.25 27.0625,25.25 C 66.848095,84.6875 79,73.415009 79,59.4375 79,45.459991 66.846672,34.21875 51.9375,34.21875 c -1.879332,0 -3.684467,0.256409 -5.46875,0.59375 l 0,-19.53125 0,-1.03125 a 0.98422826,0.98422826 0 0 0 -1,-0.96875 z" />
        <path
           style="font-size:medium;font-style:normal;font-variant:normal;font-weight:normal;font-stretch:normal;text-indent:0;text-align:start;text-decoration:none;line-height:normal;letter-spacing:normal;word-spacing:normal;text-transform:none;direction:ltr;block-progression:tb;writing-mode:lr-tb;text-anchor:start;opacity:0.3;color:#000000;fill:url(#linearGradient3776);fill-opacity:1;fill-rule:evenodd;stroke:none;stroke-width:1.99999988;marker:none;visibility:visible;display:inline;overflow:visible;enable-background:accumulate;font-family:Abandoned Bitplane;-inkscape-font-specification:Abandoned Bitplane"
           id="path3813"
           inkscape:connector-curvature="0"
           d="m 45.5,15.25 -1.03125,0.03125 c -9.060092,0.333118 -13.299797,2.3496 -16.34375,5.09375 -3.043953,2.74415 -4.828585,5.9112 -9.6875,8.96875 l -2.78125,1.78125 3.28125,0.09375 c 5.223472,0.149853 8.375345,-1.461685 10.84375,-2.96875 2.179396,-1.330613 3.8059,-2.451874 6.1875,-2.625 l 0,15.625 c -6.168543,4.439736 -10.125,11.372288 -10.125,19.1875 0,13.405984 11.678112,24.28125 26.09375,24.28125 14.415638,0 26.09375,-10.875266 26.09375,-24.28125 0,-13.405984 -11.678112,-24.25 -26.09375,-24.25 -2.217873,0 -4.38146,0.234598 -6.4375,0.71875 l 0,-20.625 0,-1.03125 z" />
        <path
           inkscape:connector-curvature="0"
           style="fill:url(#radialGradient3777);fill-opacity:1;fill-rule:nonzero;stroke:none;display:inline"
           id="path7975"
           transform="matrix(0.76770063,0,0,0.77059305,2.9898417,1.6187846)"
           d="m 97.75,73.75 a 34,31.5 0 1 1 -68,0 34,31.5 0 1 1 68,0 z" />
        <g
           id="g3817">
          <path
             style="fill:url(#linearGradient3811);fill-opacity:1;fill-rule:evenodd;stroke:#28609b;stroke-width:1.99999988;stroke-linecap:butt;stroke-linejoin:miter;stroke-miterlimit:4;stroke-opacity:1;stroke-dasharray:none"
             id="path8000"
             inkscape:connector-curvature="0"
             d="m 44.501337,14.276296 c -17.858239,0.656604 -15.4768,7.600079 -25.533915,13.92868 10.033404,0.287843 11.424275,-5.903756 17.989803,-5.641115 l 0,46.080716 C 46.89224,69.573156 71.259201,69.875512 68.503217,53.810533 66.391802,41.502832 44.501335,50.25872 44.501337,50.25872 l 0,-35.982424 z m 10.143928,38.118155 c 2.741551,0.01475 5.077896,0.606677 5.501398,3.342883 1.286413,8.31138 -15.784601,8.357208 -15.784602,8.357208 l 0,-9.657218 c 0,0 5.713952,-2.067459 10.283204,-2.042873 z" />
          <path
             style="opacity:0.4;fill:#ffffff;fill-opacity:1;fill-rule:evenodd;stroke:none;filter:url(#filter8019)"
             id="path8013"
             transform="matrix(0.76488859,0,0,0.76488859,1.7349463,1.5614309)"
             inkscape:connector-curvature="0"
             d="M 55.154329,65.597826 C 77.339804,57.819651 81.31728,63 81.31728,63 c 0,0 -9.693358,-2.617086 -26.074563,5.0727 l -0.08839,-2.474874 z" />
          <path
             style="opacity:0.5;fill:none;stroke:url(#radialGradient3798);stroke-width:2.61475968;stroke-linecap:butt;stroke-linejoin:miter;stroke-miterlimit:4;stroke-opacity:1;stroke-dasharray:none;filter:url(#filter8041)"
             id="path8023"
             transform="matrix(0.76488859,0,0,0.76488859,1.7349463,1.5614309)"
             inkscape:connector-curvature="0"
             d="m 48.70198,39.788428 0,45.696776 c 0,0 13.788582,1.767768 28.991378,-3.18198" />
          <path
             style="opacity:0.4;fill:#ffffff;fill-opacity:1;fill-rule:evenodd;stroke:none;filter:url(#filter8047)"
             id="path8045"
             transform="matrix(0.76488859,0,0,0.76488859,1.7349463,1.5614309)"
             inkscape:connector-curvature="0"
             d="m 77.263755,78.958454 c -5.588635,4.29895 -11.178321,3.145988 -11.178321,3.145988 0,0 6.487758,-0.586458 10.310934,-5.465569 0,0 3.165485,0.551814 0.867387,2.319581 z" />
          <path
             inkscape:connector-curvature="0"
             style="fill:url(#radialGradient3800);fill-opacity:1;fill-rule:nonzero;stroke:none"
             id="path8051"
             transform="matrix(1.1259937,-0.74675346,0.54425166,0.82065096,-67.832995,54.307293)"
             d="m 79.135375,78 a 2.767844,2.767844 0 1 1 -5.535688,0 2.767844,2.767844 0 1 1 5.535688,0 z" />
          <path
             style="opacity:0.4;fill:#ffffff;fill-opacity:1;fill-rule:evenodd;stroke:none;filter:url(#filter8019)"
             id="path8061"
             transform="matrix(-0.65020701,0.40284663,0.40284663,0.65020701,48.406966,-15.249414)"
             inkscape:connector-curvature="0"
             d="M 27.904329,29.972826 C 45.772473,21.634488 44.896934,27.597947 57.82329,29.165221 49.685274,29.795851 42.449716,22.126863 27.992717,32.4477 l -0.08839,-2.474874 z" />
          <path
             inkscape:connector-curvature="0"
             style="opacity:0.8;fill:url(#radialGradient3802);fill-opacity:1;fill-rule:nonzero;stroke:none"
             id="path8063"
             transform="matrix(0.81502459,-0.5405203,0.39394401,0.59400927,-63.243429,14.645007)"
             d="m 79.135375,78 a 2.767844,2.767844 0 1 1 -5.535688,0 2.767844,2.767844 0 1 1 5.535688,0 z" />
        </g>
      </g>
    </g>
    <rect
       ry="25"
       rx="25"
       id="rect3003"
       style="opacity:0.15;fill:#ffffff;fill-opacity:1"
       height="92"
       width="92"
       y="958.36218"
       x="-96"
       clip-path="url(#clipPath3009)"
       transform="translate(98,3.8281269e-7)" />
  </g>
</svg>
