<?xml version="1.0" encoding="UTF-8" standalone="no"?>
<!-- Created with Inkscape (http://www.inkscape.org/) -->

<svg
   xmlns:dc="http://purl.org/dc/elements/1.1/"
   xmlns:cc="http://creativecommons.org/ns#"
   xmlns:rdf="http://www.w3.org/1999/02/22-rdf-syntax-ns#"
   xmlns:svg="http://www.w3.org/2000/svg"
   xmlns="http://www.w3.org/2000/svg"
   xmlns:xlink="http://www.w3.org/1999/xlink"
   xmlns:sodipodi="http://sodipodi.sourceforge.net/DTD/sodipodi-0.dtd"
   xmlns:inkscape="http://www.inkscape.org/namespaces/inkscape"
   width="96"
   height="96"
   id="svg11037"
   version="1.1"
   inkscape:version="0.48.3.1 r9886"
   sodipodi:docname="baobab.svg">
  <defs
     id="defs11039">
    <linearGradient
       y2="1046.1001"
       x2="47.999954"
       y1="962.62189"
       x1="47.999954"
       gradientTransform="matrix(1.15,0,0,1.15,-7.1999462,-150.65291)"
       gradientUnits="userSpaceOnUse"
       id="linearGradient3886"
       xlink:href="#linearGradient3795"
       inkscape:collect="always" />
    <linearGradient
       id="linearGradient3795">
      <stop
         style="stop-color:#13a6fd;stop-opacity:1;"
         offset="0"
         id="stop3797" />
      <stop
         style="stop-color:#2975b6;stop-opacity:1;"
         offset="1"
         id="stop3799" />
    </linearGradient>
    <linearGradient
       y2="1046.1001"
       x2="47.999954"
       y1="962.62189"
       x1="47.999954"
       gradientTransform="matrix(1.15,0,0,1.15,-7.1999462,-150.65292)"
       gradientUnits="userSpaceOnUse"
       id="linearGradient11642"
       xlink:href="#linearGradient3187"
       inkscape:collect="always" />
    <linearGradient
       x1="48"
       y1="78"
       x2="48"
       y2="5.9877172"
       id="linearGradient3706"
       xlink:href="#linearGradient3187"
       gradientUnits="userSpaceOnUse"
       gradientTransform="translate(17.85154,18.354064)" />
    <linearGradient
       id="linearGradient3187">
      <stop
         id="stop3189"
         style="stop-color:#c29656;stop-opacity:1"
         offset="0" />
      <stop
         id="stop3191"
         style="stop-color:#ddc08b;stop-opacity:1"
         offset="1" />
    </linearGradient>
    <linearGradient
       x1="36.357143"
       y1="16"
       x2="36.357143"
       y2="73.994667"
       id="linearGradient3080"
       xlink:href="#linearGradient3737"
       gradientUnits="userSpaceOnUse" />
    <linearGradient
       id="linearGradient3737">
      <stop
         id="stop3739"
         style="stop-color:#ffffff;stop-opacity:1"
         offset="0" />
      <stop
         id="stop3741"
         style="stop-color:#ffffff;stop-opacity:0"
         offset="1" />
    </linearGradient>
    <radialGradient
       cx="48"
       cy="90.171875"
       r="42"
       fx="48"
       fy="90.171875"
       id="radialGradient2874"
       xlink:href="#linearGradient3737-5"
       gradientUnits="userSpaceOnUse"
       gradientTransform="matrix(1.1573129,0,0,0.99590774,-7.551021,0.197132)" />
    <linearGradient
       id="linearGradient3737-5">
      <stop
         id="stop3739-0"
         style="stop-color:#ffffff;stop-opacity:1"
         offset="0" />
      <stop
         id="stop3741-4"
         style="stop-color:#ffffff;stop-opacity:0"
         offset="1" />
    </linearGradient>
    <radialGradient
       r="42"
       fy="90.171875"
       fx="48"
       cy="90.171875"
       cx="48"
       gradientTransform="matrix(1.1573129,0,0,0.99590774,-7.551021,0.197132)"
       gradientUnits="userSpaceOnUse"
       id="radialGradient3093"
       xlink:href="#linearGradient3737-5"
       inkscape:collect="always" />
    <linearGradient
       x1="-26.43412"
       y1="14.381306"
       x2="-15.630386"
       y2="30.013348"
       id="linearGradient4154"
       xlink:href="#linearGradient6699-3"
       gradientUnits="userSpaceOnUse"
       gradientTransform="matrix(1.9955406,0,0,1.9955406,95.19107,14.107146)" />
    <linearGradient
       id="linearGradient6699-3">
      <stop
         id="stop6701-7"
         style="stop-color:#f7a164;stop-opacity:1"
         offset="0" />
      <stop
         id="stop6295"
         style="stop-color:#e11c26;stop-opacity:1"
         offset="1" />
    </linearGradient>
    <linearGradient
       x1="-19.536037"
       y1="21.99547"
       x2="-8.7596264"
       y2="30.070206"
       id="linearGradient4156"
       xlink:href="#linearGradient6711-3"
       gradientUnits="userSpaceOnUse"
       gradientTransform="matrix(1.9955406,0,0,1.9955406,95.19107,14.107146)" />
    <linearGradient
       id="linearGradient6711-3">
      <stop
         id="stop6713-9"
         style="stop-color:#8badea;stop-opacity:1"
         offset="0" />
      <stop
         id="stop6715-2"
         style="stop-color:#3b7caf;stop-opacity:1"
         offset="1" />
    </linearGradient>
    <linearGradient
       x1="-17.863041"
       y1="30.827509"
       x2="-20.821646"
       y2="25.015009"
       id="linearGradient4158"
       xlink:href="#linearGradient6719-4"
       gradientUnits="userSpaceOnUse"
       gradientTransform="matrix(1.9955406,0,0,1.9955406,95.19107,14.107146)" />
    <linearGradient
       id="linearGradient6719-4">
      <stop
         id="stop6721-4"
         style="stop-color:#8cab2a;stop-opacity:1"
         offset="0" />
      <stop
         id="stop6723-4"
         style="stop-color:#d7e866;stop-opacity:1"
         offset="1" />
    </linearGradient>
    <linearGradient
       x1="-20.75"
       y1="29"
       x2="-19.5"
       y2="18.75"
       id="linearGradient4160"
       xlink:href="#linearGradient6687-4"
       gradientUnits="userSpaceOnUse" />
    <linearGradient
       id="linearGradient6687-4">
      <stop
         id="stop6689-7"
         style="stop-color:#ffffff;stop-opacity:1"
         offset="0" />
      <stop
         id="stop6691-6"
         style="stop-color:#ffffff;stop-opacity:0"
         offset="1" />
    </linearGradient>
    <linearGradient
       y2="18.75"
       x2="-19.5"
       y1="29"
       x1="-20.75"
       gradientUnits="userSpaceOnUse"
       id="linearGradient3132"
       xlink:href="#linearGradient6687-4"
       inkscape:collect="always" />
    <clipPath
       clipPathUnits="userSpaceOnUse"
       id="clipPath3009">
      <path
         id="path3011"
         d="m -2,956.36218 -96,0 0,33.5624 96,25.68742 0,-59.24982 z"
         style="opacity:0.15;fill:#ffffff;fill-opacity:1;stroke:none"
         inkscape:connector-curvature="0" />
    </clipPath>
  </defs>
  <sodipodi:namedview
     id="base"
     pagecolor="#ffffff"
     bordercolor="#666666"
     borderopacity="1.0"
     inkscape:pageopacity="0.0"
     inkscape:pageshadow="2"
     inkscape:zoom="3.959798"
     inkscape:cx="33.538031"
     inkscape:cy="59.964634"
     inkscape:document-units="px"
     inkscape:current-layer="layer1"
     showgrid="false"
     inkscape:window-width="1280"
     inkscape:window-height="750"
     inkscape:window-x="0"
     inkscape:window-y="22"
     inkscape:window-maximized="1"
     showguides="true"
     inkscape:guide-bbox="true">
    <sodipodi:guide
       orientation="0,1"
       position="-24.748737,0"
       id="guide11064" />
    <sodipodi:guide
       orientation="0,1"
       position="-23.233509,96"
       id="guide11066" />
    <sodipodi:guide
       orientation="1,0"
       position="0,54.800776"
       id="guide11068" />
    <sodipodi:guide
       orientation="1,0"
       position="96,51.012704"
       id="guide11070" />
    <sodipodi:guide
       orientation="0,1"
       position="-18.94036,48"
       id="guide11072" />
    <sodipodi:guide
       orientation="1,0"
       position="48,79.296975"
       id="guide11074" />
    <sodipodi:guide
       orientation="1,0"
       position="2,75.508903"
       id="guide11076" />
    <sodipodi:guide
       orientation="0,1"
       position="-77.27667,2"
       id="guide11078" />
    <sodipodi:guide
       orientation="1,0"
       position="94,77.781746"
       id="guide11080" />
    <sodipodi:guide
       orientation="0,1"
       position="-65.912454,94"
       id="guide11082" />
  </sodipodi:namedview>
  <metadata
     id="metadata11042">
    <rdf:RDF>
      <cc:Work
         rdf:about="">
        <dc:format>image/svg+xml</dc:format>
        <dc:type
           rdf:resource="http://purl.org/dc/dcmitype/StillImage" />
        <dc:title />
      </cc:Work>
    </rdf:RDF>
  </metadata>
  <g
     inkscape:label="Layer 1"
     inkscape:groupmode="layer"
     id="layer1"
     transform="translate(0,-956.36218)">
    <rect
       x="2"
       y="958.36218"
       width="92"
       height="92"
       style="fill:url(#linearGradient11642);fill-opacity:1.0"
       id="rect3867"
       rx="25"
       ry="25" />
    <g
       transform="translate(0,956.36218)"
       id="layer6">
      <path
         inkscape:connector-curvature="0"
         d="m 64,50.9375 c -7.000548,0 -13.373065,1.856117 -18.125,5 -4.756273,3.146753 -7.96875,7.731317 -7.96875,12.96875 l 0,4.125 c 0,4.556051 2.435859,8.630863 6.1875,11.65625 3.583851,2.890079 8.459045,4.83871 13.875,5.71875 0.04558,0.02528 0.09512,0.06319 0.09375,0.0625 -0.0022,-0.0011 0.158556,0.06342 0.15625,0.0625 -0.0023,-9.22e-4 0.158625,0.06323 0.15625,0.0625 -0.0024,-7.25e-4 0.189928,0.03177 0.1875,0.03125 3.927304,0.7684 9.69752,0.719648 14,-0.625 0.03724,-0.01164 0.08798,0.01184 0.125,0 0.03384,-0.0059 0.0226,0.01003 0.0625,0 0.384463,-0.09667 0.759224,-0.19863 1.15625,-0.3125 0.01186,-0.0033 0.01987,0.0033 0.03125,0 0.102449,-0.02949 0.187718,-0.07119 0.25,-0.09375 0.0346,-0.01253 0.07731,-0.0248 0.09375,-0.03125 0.02947,-0.0083 0.0675,-0.02302 0.09375,-0.03125 0.0525,-0.01647 0.09228,-0.0188 0.1875,-0.0625 0.336829,-0.103018 0.661105,-0.227831 1,-0.34375 a 1.093524,1.093524 0 0 0 0.09375,-0.03125 C 75.68799,89.08284 75.71819,89.07349 75.75,89.0625 a 1.093524,1.093524 0 0 0 0.03125,0 c 0.160588,-0.05553 0.29599,-0.09667 0.375,-0.125 0.373376,-0.134051 0.730171,-0.277666 1.125,-0.4375 0.341631,-0.136732 0.662193,-0.271571 0.96875,-0.40625 0.16346,-0.07299 0.312978,-0.128443 0.4375,-0.1875 0.01826,-0.0087 0.04527,-0.02313 0.0625,-0.03125 0.0036,-0.0013 0.03116,4.4e-5 0.03125,0 0.494505,-0.228294 0.979794,-0.488705 1.46875,-0.75 a 1.093524,1.093524 0 0 0 0.03125,0 c 0.05017,-0.02736 0.0851,-0.07047 0.125,-0.09375 0.01773,-0.01035 0.04567,-0.021 0.0625,-0.03125 2.837695,-1.548945 5.353023,-3.583051 7.125,-6.21875 l 0.03125,0 c 0.0043,-0.0065 -0.0043,-0.02476 0,-0.03125 0.2158,-0.316657 0.380854,-0.582272 0.5,-0.78125 a 1.093524,1.093524 0 0 0 0,-0.03125 c 0.0067,-0.01161 0.05248,-0.04582 0.0625,-0.0625 a 1.093524,1.093524 0 0 0 0.03125,-0.09375 c 0.04494,-0.07483 0.09223,-0.132789 0.15625,-0.25 0.0089,-0.01623 -0.0078,-0.01517 0,-0.03125 0.161271,-0.293289 0.322529,-0.590846 0.46875,-0.90625 a 1.093524,1.093524 0 0 0 0,-0.0625 1.093524,1.093524 0 0 0 0.03125,-0.0625 c 0.0035,-0.0075 -0.0035,-0.02372 0,-0.03125 0.0026,-0.007 -0.0027,-0.02357 0,-0.03125 A 1.093524,1.093524 0 0 0 88.90625,78.375 c 0.0033,-0.01174 -0.0032,-0.0183 0,-0.03125 0.0021,-0.0083 -0.002,-0.0224 0,-0.03125 0.0051,-0.01093 0.02606,-0.02022 0.03125,-0.03125 0.167525,-0.355854 0.34324,-0.741755 0.5,-1.21875 -0.0027,0.0084 0.03117,-0.08923 0.0625,-0.1875 0.0089,-0.02807 -0.0061,-0.03406 0,-0.0625 0.0042,-0.01375 -0.0035,-0.0172 0,-0.03125 0.253864,-0.832263 0.447867,-1.713241 0.53125,-2.625 0.0098,-0.03676 0.02506,-0.06247 0.03125,-0.09375 0.01631,-0.197251 0.01162,-0.213998 0,-0.0625 0.0075,-0.04796 0.02637,-0.106065 0.03125,-0.15625 a 1.093524,1.093524 0 0 0 0,-0.03125 c -9.2e-5,0.002 -3.9e-5,-0.09874 0,-0.15625 l 0,-0.0625 0,-0.5625 0,-4.125 c 0,-5.237411 -3.212636,-9.821986 -7.96875,-12.96875 -4.751774,-3.143893 -11.123849,-5 -18.125,-5 z m 24.75,26.5 c 0.02018,0.028 0.03146,0.06284 0.03125,0.0625 C 88.76552,77.47615 88.76817,77.46479 88.75,77.4375 z"
         transform="translate(-6,-5)"
         id="path4134"
         style="opacity:0.07999998;fill:#000000;fill-rule:nonzero;stroke:none;display:inline" />
      <path
         inkscape:connector-curvature="0"
         d="m 64,52.03125 c -6.806788,0 -12.991966,1.809307 -17.53125,4.8125 C 41.929466,59.846943 39,64.114457 39,68.90625 l 0,4.125 c 0,4.16756 2.221108,7.941541 5.78125,10.8125 3.466225,2.795223 8.262119,4.734233 13.65625,5.5625 0.01315,0.002 0.01809,0.02925 0.03125,0.03125 a 1.004851,1.004851 0 0 0 0.3125,0.125 c 3.761417,0.735943 9.590383,0.68157 13.625,-0.625 0.01926,-0.0048 0.04323,0.0048 0.0625,0 0.381257,-0.09586 0.75847,-0.198104 1.15625,-0.3125 0.184255,-0.0515 0.267213,-0.08968 0.28125,-0.09375 0.229042,-0.06794 0.275552,-0.0985 0.15625,-0.0625 0.438501,-0.129689 0.882579,-0.278229 1.34375,-0.4375 a 1.004851,1.004851 0 0 0 0.03125,0 c 0.139147,-0.04812 0.243437,-0.08903 0.34375,-0.125 0.378374,-0.135845 0.72951,-0.258799 1.09375,-0.40625 0.306175,-0.122541 0.619762,-0.266659 0.9375,-0.40625 0.16792,-0.07498 0.326597,-0.151741 0.46875,-0.21875 0.0082,-0.0038 0.02303,0.0038 0.03125,0 0.470479,-0.217202 0.964642,-0.466058 1.4375,-0.71875 0.248686,-0.135628 0.233311,-0.148007 0.125,-0.09375 0.0077,-0.0042 0.02353,0.0042 0.03125,0 2.754616,-1.498002 5.157056,-3.428658 6.8125,-5.90625 0.199588,-0.29066 0.338714,-0.532835 0.46875,-0.75 a 1.004851,1.004851 0 0 0 0,-0.03125 c 0.05571,-0.09597 0.133534,-0.218973 0.21875,-0.375 0.0054,-0.0099 -0.0055,-0.02108 0,-0.03125 0.158519,-0.288285 0.311158,-0.571226 0.4375,-0.84375 a 1.004851,1.004851 0 0 0 0,-0.03125 c 0.0095,-0.02126 -0.008,-0.01122 0,-0.03125 0.0098,-0.02191 -0.0082,-0.01072 0,-0.03125 0.195206,-0.425446 0.411235,-0.852226 0.5625,-1.3125 0.01041,-0.03204 0.03769,-0.109697 0.0625,-0.1875 0.0038,-0.01184 -0.004,-0.01838 0,-0.03125 0.247333,-0.804945 0.428416,-1.665617 0.5,-2.53125 0.0017,-0.0206 -0.0016,-0.04187 0,-0.0625 C 88.97355,73.89565 88.98685,73.88533 89,73.75 a 1.004851,1.004851 0 0 0 0,-0.09375 l 0,-0.625 0,-4.125 C 89,64.114506 86.070388,59.846957 81.53125,56.84375 76.992112,53.840543 70.80741,52.03125 64,52.03125 z"
         transform="translate(-6,-5)"
         id="path4136"
         style="opacity:0.15;fill:#000000;fill-rule:nonzero;stroke:none;display:inline" />
      <path
         d="m 58,48.03125 c -13.25411,0 -24,7.112902 -24,15.875 l 0,4.125 c 0,7.620636 8.12862,13.972416 18.96875,15.5 l 0,0.03125 c 3.56339,0.697197 9.43704,0.636443 13.1875,-0.59375 0.40102,-0.100854 0.79143,-0.198596 1.1875,-0.3125 0.0966,-0.02699 0.18533,-0.06595 0.28125,-0.09375 0.0533,-0.01582 0.10303,-0.04644 0.15625,-0.0625 0.44272,-0.130937 0.88447,-0.258424 1.3125,-0.40625 0.1166,-0.04032 0.22788,-0.08345 0.34375,-0.125 0.36522,-0.131124 0.70904,-0.263164 1.0625,-0.40625 0.30508,-0.122104 0.60783,-0.243895 0.90625,-0.375 0.15855,-0.0708 0.31293,-0.145536 0.46875,-0.21875 0.47171,-0.217573 0.95517,-0.446448 1.40625,-0.6875 0.0466,-0.02542 0.0787,-0.0681 0.125,-0.09375 2.66001,-1.44315 4.92389,-3.281658 6.46875,-5.59375 0.16134,-0.234966 0.29324,-0.47783 0.4375,-0.71875 0.0726,-0.125057 0.15028,-0.247467 0.21875,-0.375 0.14597,-0.263512 0.28115,-0.542651 0.40625,-0.8125 0.004,-0.0087 -0.004,-0.02255 0,-0.03125 0.18814,-0.408305 0.36146,-0.828456 0.5,-1.25 0.0201,-0.0618 0.0433,-0.125207 0.0625,-0.1875 0.23975,-0.774453 0.40655,-1.563902 0.46875,-2.375 0.007,-0.06419 0.025,-0.122864 0.0313,-0.1875 l 0,-0.625 0,-4.125 c 0,-8.762098 -10.74462,-15.875 -24,-15.875 z"
         inkscape:connector-curvature="0"
         id="path4138"
         style="opacity:0.3;fill:#000000;fill-rule:nonzero;stroke:none;display:inline" />
      <path
         d="M 81.17354,62.905192 C 78.42252,56.147206 69.09442,51.171249 58.00065,51.171249 c -11.09378,0 -20.42189,4.975957 -23.17291,11.733943 l -0.82774,0 0,4.130703 c 0,8.76075 10.74654,15.861951 24.00064,15.861951 C 71.25603,82.897846 82,75.796645 82,67.035895 l 0,-4.130703 -0.82646,0 0,0 z"
         inkscape:connector-curvature="0"
         id="path4140"
         style="fill:#b82525;fill-opacity:1;fill-rule:nonzero;stroke:none;display:inline" />
      <path
         d="M 82,62.905192 C 82,71.667288 71.25603,78.76849 58.00064,78.76849 44.74526,78.76849 34,71.667288 34,62.905192 34,54.143094 44.74654,47.041894 58.00064,47.041894 71.25603,47.041894 82,54.143094 82,62.905192 l 0,0 z"
         inkscape:connector-curvature="0"
         id="path4142"
         style="fill:url(#linearGradient4154);fill-opacity:1;fill-rule:nonzero;stroke:none;display:inline" />
      <path
         d="m 82,67.653683 -0.0307,-4.323174 c -2.60238,8.981485 -8.45423,12.78647 -15.81164,14.649259 l 0,3.979955 c 7.96348,-2.002764 15.09025,-6.562825 15.8424,-14.30604 l 0,0 z"
         inkscape:connector-curvature="0"
         id="path4144"
         style="fill:#39619a;fill-opacity:1;fill-rule:nonzero;stroke:none;display:inline" />
      <path
         d="M 82,62.905192 C 81.45031,73.041496 68.91375,77.66347 66.11276,77.839788 l -8.1134,-14.934596 23.99936,0 10e-4,0 z"
         inkscape:connector-curvature="0"
         id="path4146"
         style="fill:url(#linearGradient4156);fill-opacity:1;fill-rule:nonzero;stroke:none;display:inline" />
      <path
         d="m 52.97654,82.550592 0,-4.129356 c 4.5167,0.588178 8.66053,0.691817 13.13622,-0.426664 l 0.0448,3.966498 c -3.75046,1.230193 -9.61768,1.288067 -13.18107,0.59087 l 0,-0.0013 z"
         inkscape:connector-curvature="0"
         id="path4148"
         style="fill:#70851f;fill-opacity:1;fill-rule:nonzero;stroke:none;display:inline" />
      <path
         d="m 57.99936,62.906536 8.1134,14.933252 c -4.96773,1.893744 -13.13622,0.581448 -13.13622,0.581448 l 5.02282,-15.5147 z"
         inkscape:connector-curvature="0"
         id="path4150"
         style="fill:url(#linearGradient4158);fill-opacity:1;fill-rule:nonzero;stroke:none;display:inline" />
      <path
         inkscape:connector-curvature="0"
         d="m -6.875,24.375 a 11.75,7.75 0 1 1 -23.5,0 11.75,7.75 0 1 1 23.5,0 z"
         transform="matrix(2.0142824,0,0,2.0159357,95.54013,13.610022)"
         id="path4152"
         style="opacity:0.25;color:#000000;fill:none;stroke:url(#linearGradient3132);stroke-width:0.49625126;stroke-linecap:butt;stroke-linejoin:miter;stroke-miterlimit:4;stroke-opacity:1;stroke-dasharray:none;stroke-dashoffset:0;marker:none;visibility:visible;display:block;overflow:visible" />
    </g>
    <rect
       ry="25"
       rx="25"
       id="rect3003"
       style="opacity:0.15;fill:#ffffff;fill-opacity:1"
       height="92"
       width="92"
       y="958.36218"
       x="-96"
       clip-path="url(#clipPath3009)"
       transform="translate(98,3.8281269e-7)" />
  </g>
</svg>
