<?xml version="1.0" encoding="UTF-8" standalone="no"?>
<!-- Created with Inkscape (http://www.inkscape.org/) -->

<svg
   xmlns:dc="http://purl.org/dc/elements/1.1/"
   xmlns:cc="http://creativecommons.org/ns#"
   xmlns:rdf="http://www.w3.org/1999/02/22-rdf-syntax-ns#"
   xmlns:svg="http://www.w3.org/2000/svg"
   xmlns="http://www.w3.org/2000/svg"
   xmlns:xlink="http://www.w3.org/1999/xlink"
   xmlns:sodipodi="http://sodipodi.sourceforge.net/DTD/sodipodi-0.dtd"
   xmlns:inkscape="http://www.inkscape.org/namespaces/inkscape"
   width="96"
   height="96"
   id="svg11037"
   version="1.1"
   inkscape:version="0.48.3.1 r9886"
   sodipodi:docname="bluegriffon.svg">
  <defs
     id="defs11039">
    <linearGradient
       y2="1046.1001"
       x2="47.999954"
       y1="962.62189"
       x1="47.999954"
       gradientTransform="matrix(1.15,0,0,1.15,-7.1999462,-150.65291)"
       gradientUnits="userSpaceOnUse"
       id="linearGradient3886"
       xlink:href="#linearGradient3795"
       inkscape:collect="always" />
    <linearGradient
       id="linearGradient3795">
      <stop
         style="stop-color:#13a6fd;stop-opacity:1;"
         offset="0"
         id="stop3797" />
      <stop
         style="stop-color:#2975b6;stop-opacity:1;"
         offset="1"
         id="stop3799" />
    </linearGradient>
    <linearGradient
       y2="1046.1001"
       x2="47.999954"
       y1="962.62189"
       x1="47.999954"
       gradientTransform="matrix(1.15,0,0,1.15,-7.1999462,-150.65292)"
       gradientUnits="userSpaceOnUse"
       id="linearGradient11642"
       xlink:href="#linearGradient10902-1"
       inkscape:collect="always" />
    <linearGradient
       id="linearGradient10902-1"
       y2="902.35999"
       gradientUnits="userSpaceOnUse"
       x2="48"
       gradientTransform="translate(74.39339,44.473787)"
       y1="1052.4"
       x1="48">
      <stop
         id="stop3702-9"
         style="stop-color:#dad7ed"
         offset="0" />
      <stop
         id="stop3704-35"
         style="stop-color:#9e99c2"
         offset="1" />
    </linearGradient>
    <linearGradient
       y2="902.35999"
       x2="48"
       y1="1052.4"
       x1="48"
       gradientTransform="translate(-87.999997,-7.997809)"
       gradientUnits="userSpaceOnUse"
       id="linearGradient3030"
       xlink:href="#linearGradient10902-1"
       inkscape:collect="always" />
    <linearGradient
       id="linearGradient3090-8"
       y2="38.741001"
       gradientUnits="userSpaceOnUse"
       x2="-67.417999"
       y1="64"
       x1="-128">
      <stop
         id="stop4337"
         offset="0" />
      <stop
         id="stop4339-0"
         style="stop-color:#19007b;stop-opacity:.84706"
         offset="1" />
    </linearGradient>
    <linearGradient
       id="linearGradient3188-69"
       y2="138.66"
       gradientUnits="userSpaceOnUse"
       y1="20.221001"
       x2="48"
       x1="48">
      <stop
         id="stop3739-15"
         style="stop-color:#fff"
         offset="0" />
      <stop
         id="stop3741-33"
         style="stop-color:#fff;stop-opacity:0"
         offset="1" />
    </linearGradient>
    <clipPath
       id="clipPath3613-82">
      <rect
         id="rect3615-8"
         style="fill:#ffffff"
         rx="6"
         ry="6"
         height="84"
         width="84"
         y="6"
         x="6" />
    </clipPath>
    <filter
       id="filter3794-58"
       height="1.3839999"
       width="1.3839999"
       color-interpolation-filters="sRGB"
       y="-0.192"
       x="-0.192">
      <feGaussianBlur
         id="feGaussianBlur3796-08"
         stdDeviation="5.28" />
    </filter>
    <clipPath
       clipPathUnits="userSpaceOnUse"
       id="clipPath3009">
      <path
         id="path3011"
         d="m -2,956.36218 -96,0 0,33.5624 96,25.68742 0,-59.24982 z"
         style="opacity:0.15;fill:#ffffff;fill-opacity:1;stroke:none"
         inkscape:connector-curvature="0" />
    </clipPath>
  </defs>
  <sodipodi:namedview
     id="base"
     pagecolor="#ffffff"
     bordercolor="#666666"
     borderopacity="1.0"
     inkscape:pageopacity="0.0"
     inkscape:pageshadow="2"
     inkscape:zoom="3.959798"
     inkscape:cx="33.538031"
     inkscape:cy="59.964634"
     inkscape:document-units="px"
     inkscape:current-layer="layer1"
     showgrid="false"
     inkscape:window-width="1280"
     inkscape:window-height="750"
     inkscape:window-x="0"
     inkscape:window-y="22"
     inkscape:window-maximized="1"
     showguides="true"
     inkscape:guide-bbox="true">
    <sodipodi:guide
       orientation="0,1"
       position="-24.748737,0"
       id="guide11064" />
    <sodipodi:guide
       orientation="0,1"
       position="-23.233509,96"
       id="guide11066" />
    <sodipodi:guide
       orientation="1,0"
       position="0,54.800776"
       id="guide11068" />
    <sodipodi:guide
       orientation="1,0"
       position="96,51.012704"
       id="guide11070" />
    <sodipodi:guide
       orientation="0,1"
       position="-18.94036,48"
       id="guide11072" />
    <sodipodi:guide
       orientation="1,0"
       position="48,79.296975"
       id="guide11074" />
    <sodipodi:guide
       orientation="1,0"
       position="2,75.508903"
       id="guide11076" />
    <sodipodi:guide
       orientation="0,1"
       position="-77.27667,2"
       id="guide11078" />
    <sodipodi:guide
       orientation="1,0"
       position="94,77.781746"
       id="guide11080" />
    <sodipodi:guide
       orientation="0,1"
       position="-65.912454,94"
       id="guide11082" />
  </sodipodi:namedview>
  <metadata
     id="metadata11042">
    <rdf:RDF>
      <cc:Work
         rdf:about="">
        <dc:format>image/svg+xml</dc:format>
        <dc:type
           rdf:resource="http://purl.org/dc/dcmitype/StillImage" />
        <dc:title />
      </cc:Work>
    </rdf:RDF>
  </metadata>
  <g
     inkscape:label="Layer 1"
     inkscape:groupmode="layer"
     id="layer1"
     transform="translate(0,-956.36218)">
    <rect
       x="2"
       y="958.36218"
       width="92"
       height="92"
       style="fill:url(#linearGradient11642);fill-opacity:1.0"
       id="rect3867"
       rx="25"
       ry="25" />
    <g
       transform="translate(-182.19,-40.40382)"
       id="g6845">
      <g
         id="g3107"
         transform="matrix(0.74928,0,0,0.74928,195.48,1009)">
        <g
           id="g4345"
           transform="matrix(0.7061,0,0,0.7061,130.63,20.244)">
          <path
             inkscape:connector-curvature="0"
             id="path4333"
             style="fill:url(#linearGradient3090-8)"
             d="m -93.219,-5 c -0.70174,0.05093 -1.3239,0.399 -1.875,1.0625 -0.62238,0.74927 -0.93515,1.7594 -0.84375,2.6562 0.13502,1.3253 0.52701,2.4176 2.125,5.5938 0.87829,1.7457 1.166,2.4449 1.4688,3.8438 0.42751,1.9756 0.59675,3.7063 0.59375,6 -0.0032,2.1122 -0.1327,3.6502 -0.46875,5.6562 -0.29504,1.7613 -0.8001,3.8791 -0.90625,3.8438 -0.162,-0.054 -0.35435,-1.6972 -0.5,-4.0938 -0.17149,-2.8217 -0.31607,-3.9504 -0.5625,-5.0625 -0.65564,-2.9589 -2.1138,-4.2095 -4.5312,-3.8438 -0.67827,0.10261 -1.7732,0.43541 -1.875,0.5625 -0.0436,0.05437 0.20036,0.91353 0.875,2.8438 0.53005,1.5166 0.96871,2.785 0.96875,2.8125 1.3e-4,0.09547 -0.38595,0.22495 -0.46875,0.15625 -0.04265,-0.03539 -0.42522,-0.57956 -0.84375,-1.1875 -0.88323,-1.2829 -1.3326,-1.9068 -1.9375,-2.625 -1.6272,-1.9321 -3.3892,-2.8562 -5.2188,-2.75 -0.66765,0.03877 -1.6721,0.25852 -1.8438,0.40625 -0.11903,0.10246 -0.0899,0.27602 2.1875,8.5625 l 2.3438,8.4688 -0.53125,5.1875 c -0.28764,2.8608 -0.56605,5.2662 -0.59375,5.3438 -0.0493,0.1379 -0.059,0.15625 -1,0.15625 -0.52915,0 -1.6022,-0.0384 -2.375,-0.0937 -1.7077,-0.12234 -3.8367,-0.13626 -4.5625,-0.0313 -0.73777,0.10675 -1.8106,0.37512 -2.8125,0.71875 -3.1292,1.0732 -5.868,2.9702 -8.1562,5.6875 -2.1091,2.5046 -3.8974,5.6939 -5.6562,10.094 -0.5279,1.3206 -1.6685,4.4862 -1.9375,5.3438 -0.66555,2.1216 -1.0338,4.3736 -1.0938,6.8125 -0.0533,2.1722 0.11172,3.9596 0.5625,5.7812 0.52879,2.1368 1.3165,3.7917 2.4062,5.1875 0.26089,0.33415 0.54197,0.62928 0.84375,0.9375 0.0104,0.0107 0.0208,0.0206 0.0313,0.0313 0.009,0.01 0.0218,0.0217 0.0313,0.0313 0.006,0.006 -0.006,0.0249 0,0.0313 1.4029,1.4066 2.9296,2.2286 4.875,2.625 1.3904,0.28335 3.8125,0.32956 3.8125,0.0625 0,-0.0446 -0.4207,-1.3013 -0.9375,-2.7812 -0.5168,-1.4799 -0.93732,-2.7124 -0.9375,-2.75 -3.7e-4,-0.0657 0.25943,-0.21875 0.375,-0.21875 0.0308,0 0.3575,0.45089 0.71875,1 1.4542,2.2105 2.5723,3.4766 3.8438,4.3438 0.75495,0.51491 1.7446,0.9106 2.5312,1.0312 0.48581,0.0745 1.6463,0.0693 2.125,-0.0313 0.59097,-0.12407 1.1774,-0.31874 1.25,-0.40625 0.009,-0.0114 -0.0412,-0.0716 -0.0625,-0.125 0.0103,0.0393 -0.0454,0.0625 -0.0937,0.0937 -0.0621,0.0401 -0.14877,0.0937 -0.375,0.15625 -0.12845,0.0355 -0.23844,0.0592 -0.375,0.0937 0.0198,-0.005 0.0434,-0.0263 0.0625,-0.0313 0.33517,-0.0878 0.6359,-0.18988 0.6875,-0.21875 0.0543,-0.0304 -0.29763,-0.65861 -1,-1.7812 0.32996,0.52658 0.78819,1.1929 0.875,1.3438 -0.0172,0 -0.006,0.0561 0.0313,0.125 0.0369,0.0689 0.0765,0.125 0.0937,0.125 0.0131,0 -0.011,-0.0474 -0.0313,-0.0937 0.007,0.0136 0.12404,0.1838 0.125,0.1875 -0.10052,-0.2518 -0.53852,-0.99519 -1.7188,-2.8438 -1.9276,-3.0191 -2.009,-3.1473 -1.9688,-3.1875 0.0136,-0.0136 0.34184,0.20661 0.71875,0.5 2.46,1.915 4.9683,3.2655 7.25,3.9062 2.8576,0.80238 5.5502,0.41305 7.5938,-1.125 0.64668,-0.48671 1.3152,-1.1471 1.2812,-1.25 -0.01558,-0.0473 -2.3896,-1.0552 -5.2812,-2.25 -2.8916,-1.1948 -5.2678,-2.2094 -5.2812,-2.25 -0.0388,-0.11642 2.2426,0.0174 4.7188,0.28125 0.79274,0.0845 2.0822,0.22765 2.875,0.3125 2.5492,0.27286 3.1204,0.31344 4.875,0.3125 1.8627,-0.001 2.6785,-0.0769 4.0938,-0.375 2.2045,-0.46438 4.5669,-1.5762 6.5,-3.0312 0.78703,-0.59241 1.1712,-0.95647 1.125,-1.0312 -0.02533,-0.041 -3.1242,-0.0302 -9.125,0 -6.1777,0.0311 -8.9891,0.0118 -9.0938,-0.0313 -0.0173,-0.003 -0.0526,0.004 -0.0625,0 -0.0398,-0.0644 0.61915,-1.866 0.71875,-1.9688 0.0285,-0.0294 0.25964,0.0447 0.5,0.1875 4.1612,2.4722 13.125,1.8353 19.625,-1.4062 1.8652,-0.93016 3.0936,-1.8078 4.3125,-3.0312 1.458,-1.4634 2.3184,-3.0623 2.4375,-4.5938 0.0351,-0.45169 0.0192,-0.46875 -0.09375,-0.46875 -0.13878,0 -2.41,0.62255 -3.625,1 -0.44807,0.1392 -1.5974,0.50712 -2.5625,0.8125 -6.3038,1.9947 -8.9192,2.5298 -12.344,2.5938 -1.9574,0.0366 -3.7126,-0.0812 -3.6562,-0.25 0.06364,-0.19092 2.7257,-1.1054 4.5312,-1.5625 1.5414,-0.39022 2.3526,-0.55732 5.9375,-1.2812 5.2994,-1.0702 7.2199,-1.5667 9.5625,-2.5 4.9406,-1.9683 7.7428,-5.1755 8.625,-9.8438 0.22963,-1.2145 0.36615,-3.3438 0.21875,-3.3438 -0.03081,0 -2.5667,1.4317 -5.6562,3.1562 -3.0898,1.7246 -5.6501,3.1169 -5.6875,3.0938 -0.08551,-0.0528 -0.44835,-0.86418 -0.40625,-0.90625 0.01709,-0.0171 0.41292,-0.23446 0.90625,-0.5 2.3694,-1.2754 4.1704,-2.6149 6.125,-4.5625 3.653,-3.6398 5.7908,-7.8432 6.3125,-12.344 0.14038,-1.2115 0.09561,-3.4212 -0.09375,-4.5312 -0.22428,-1.3148 -0.74788,-3.2597 -0.90625,-3.3125 -0.03585,-0.0119 -2.2447,3.175 -4.875,7.0625 -5.5388,8.1861 -5.8314,8.6061 -5.875,8.5625 -0.09954,-0.0995 1.2198,-2.4351 3.4375,-6.125 0.96007,-1.5974 1.9925,-3.3267 2.2812,-3.8438 0.71049,-1.272 1.7117,-3.3815 2.0938,-4.375 1.3423,-3.4903 1.5307,-6.4529 0.59375,-9.2812 -0.27208,-0.82131 -0.92696,-2.1595 -1.4375,-2.9375 -0.50619,-0.77133 -1.265,-1.745 -1.3438,-1.7188 -0.0356,0.01187 -1.554,3.5985 -3.375,7.9688 l -3.3125,7.9375 -4.5938,7.8438 c -4.5942,7.854 -4.796,8.2352 -4.8438,8.1875 -0.03824,-0.0382 0.38166,-1.2152 0.8125,-2.2812 1.0777,-2.6668 2.1846,-4.7907 5.2188,-10 1.9378,-3.327 2.8102,-4.8852 3.5938,-6.4375 2.4409,-4.8357 3.6161,-8.7387 3.9062,-13 0.0587,-0.86609 0.0588,-1.2797 0,-1.8438 -0.30668,-2.9421 -1.3426,-6.6061 -2.4375,-8.6562 -0.63612,-1.1911 -1.4597,-2.1427 -2.1875,-2.5 -0.32935,-0.16171 -0.43875,-0.1875 -0.96875,-0.1875 -0.54631,0 -0.64466,0.02292 -1.0625,0.21875 -1.0197,0.47793 -1.3131,1.2276 -1.3125,3.1562 3e-4,1.0343 0.07975,1.8429 0.40625,4.1562 l 0.21875,1.625 -0.03125,1.8438 c -0.03501,1.8291 -0.06126,2.4181 -0.25,4.125 -0.41512,3.7542 -1.433,8.0728 -2.9375,12.656 -0.56757,1.7291 -1.4068,4.136 -1.5,4.2812 -0.21774,0.33933 0.31949,-2.1406 1.4062,-6.5938 1.7823,-7.3033 2.2074,-9.9099 2.2812,-13.594 0.05097,-2.5493 -0.12028,-4.3104 -0.59385,-6.375 -0.28388,-1.2375 -0.39564,-1.5605 -0.8125,-2.4061 -1.1686,-2.3706 -3.2083,-4.8802 -4.875,-5.9688 -0.85916,-0.56115 -1.642,-0.80093 -2.3438,-0.75 z" />
          <path
             inkscape:connector-curvature="0"
             id="path4323"
             d="m -115.75,14.938 c -0.60515,0.0073 -1.2526,0.06179 -1.625,0.125 -2.3442,0.39793 -4.2137,1.2608 -5.1875,2.4375 -0.76254,0.92144 -0.97744,2.0738 -0.59375,3.1875 0.0507,0.14793 0.0872,0.28775 0.0625,0.3125 -0.0247,0.0247 -2.3242,0.27112 -5.0938,0.5625 -2.2608,0.23785 -3.4998,0.40815 -4.1562,0.5 -0.0888,0.0124 -0.5232,0.0551 -0.5625,0.0625 -0.0261,0.005 -0.37249,0.0287 -0.375,0.0313 -0.006,0.006 0.0302,0.0996 0.0313,0.125 0.002,0.0365 -0.007,0.0559 0,0.0625 0.0251,0.2065 0.12314,0.65051 0.375,1.5312 0.44575,1.558 0.53765,1.875 0.46875,1.875 -0.0151,0 -0.24774,-0.1628 -0.5,-0.34375 -1.0423,-0.7477 -1.986,-1.1089 -3,-1.1562 -1.1196,-0.0523 -1.828,0.25224 -2.625,1.0312 -0.0172,0.0168 -0.0452,0.0139 -0.0625,0.0313 -0.39978,0.40032 -0.55043,0.58654 -0.8125,1.125 -0.38185,0.78456 -0.5728,1.4813 -0.625,2.4062 -0.061,1.0804 0.17689,2.4474 0.5625,3.3438 l 0.125,0.3125 h 0.53125 c 0.3303,0 0.44513,0.005 0.5625,-0.0937 h -0.0625 c 0.0231,-0.0152 0.0629,-0.0253 0.0937,-0.0625 0.0427,-0.0517 0.0485,-0.0937 0.0313,-0.0937 l 0.125,-0.21875 c 0.074,-0.11331 0.16894,-0.20899 0.25,-0.3125 -0.0918,0.12036 -0.16975,0.24194 -0.25,0.375 l -0.15625,0.25 c 0.075,-0.08 0.17634,-0.16631 0.3125,-0.375 0.54896,-0.84138 1.5367,-1.4894 2.7188,-1.7812 0.8044,-0.19858 2.2832,-0.19799 3.2812,0 3.5964,0.71343 6.2921,3.1547 6.1562,5.5938 -0.0362,0.65037 -0.2671,1.0768 -0.84375,1.6562 -0.48068,0.48301 -1.1087,0.91121 -2.1875,1.5 -0.37913,0.20692 -1.0099,0.5642 -1.4062,0.78125 -0.39637,0.21705 -0.96184,0.55918 -1.25,0.75 -0.57094,0.3781 -1.2812,1.0059 -1.2812,1.1562 0,0.12954 0.35434,0.12462 1.875,-0.0313 0.65221,-0.0669 1.1878,-0.16975 1.75,-0.25 2.7268,-0.38926 4.5465,-0.91729 5.9688,-1.8438 1.3518,-0.88058 2.3684,-2.2788 2.75,-3.75 0.0619,-0.23879 0.11895,-0.40625 0.15625,-0.40625 0.0373,0 0.2839,0.12732 0.53125,0.28125 1.6053,0.99903 2.9254,1.359 4.0312,1.125 0.98834,-0.20912 1.9396,-0.8042 3.6875,-2.3125 0.4635,-0.39996 0.86605,-0.75 0.90625,-0.75 0.0402,0 0.40438,0.79722 0.8125,1.75 0.40812,0.95278 0.79055,1.78 0.84375,1.8438 0.0937,0.11214 0.1701,0.12346 1.6562,-0.125 0.84445,-0.14118 1.5598,-0.31161 1.5938,-0.34375 0.0868,-0.082 -0.2362,-1.1758 -0.53125,-1.875 -0.47544,-1.1267 -1.2957,-2.1437 -2.2812,-2.7812 -0.59067,-0.3821 -1.4781,-0.79803 -2.9062,-1.3438 -1.5548,-0.59412 -2.3584,-0.97604 -3.0938,-1.4688 -0.72849,-0.4881 -1.4332,-1.135 -1.3438,-1.2188 0.0345,-0.0323 0.28676,-0.12307 0.5625,-0.21875 2.1963,-0.76212 3.7005,-2.2074 4.6875,-4.5312 0.40613,-0.95622 0.73627,-2.1784 1.2812,-4.5938 0.24726,-1.0958 0.56754,-2.3333 0.6875,-2.75 0.11999,-0.41668 0.2058,-0.79614 0.1875,-0.84375 -0.002,-0.0054 -0.0734,0.02682 -0.0937,0.03125 -0.21834,0.04752 -1.4688,0.62493 -4.5312,2.1562 -2.5204,1.2603 -4.623,2.2924 -4.6562,2.2812 -0.0333,-0.0111 0.77086,-0.74104 1.7812,-1.625 1.0104,-0.88396 1.9224,-1.6769 2,-1.75 0.0499,-0.04702 0.0414,-0.09447 0.0625,-0.15625 0.0316,-0.09267 0.0625,-0.21781 0.0625,-0.5 0,-0.5209 -0.0187,-0.5545 -0.1875,-0.625 -0.1367,-0.05709 -0.6761,-0.06978 -1.2812,-0.0625 z" />
          <path
             inkscape:connector-curvature="0"
             id="path4223"
             style="fill:#ff0000"
             d="m -126.62,34.219 c -0.49727,0.0386 -1.5415,0.20981 -2.6562,0.4375 -5.075,1.0366 -9.1357,2.8267 -11.5,5.0938 -0.47774,0.45809 -1.125,1.2197 -1.125,1.3125 0,0.021 0.0194,0.0303 0.0625,0.0313 0.18406,0.004 15.248,-4.2051 15.438,-4.3125 -0.018,0 -3.3906,0.92787 -7.5,2.0625 -4.1094,1.13463 -7.5554,2.0685 -7.6562,2.0938 -0.004,-0.004 -0.0188,0.005 -0.0313,0 -0.0339,-0.0136 -0.0676,-0.009 -0.0937,0 0.008,0.0113 0.0162,0.0331 0.0625,0.0313 l -0.125,0.0313 0.0625,-0.0625 0.0937,-0.15625 c 0.0124,0 0.0625,-0.0309 0.0937,-0.0625 l -0.1875,0.21875 0.21875,-0.0625 c 0.11964,-0.0236 3.5406,-0.9655 7.625,-2.0938 l 7.4375,-2.0312 c -4.5e-4,7e-4 4.5e-4,0.0313 0,0.0313 7.2e-4,-4.1e-4 0.0622,2.9e-4 0.0625,0 0.11728,-0.11762 0.11709,-2.4655 0,-2.5625 -0.0228,-0.0189 -0.11549,-0.0129 -0.28125,0 z" />
          <path
             inkscape:connector-curvature="0"
             id="path4217"
             style="fill-opacity:0.48235001"
             d="m -158.72,34.781 c -0.0582,-0.0581 -1.2606,0.0962 -1.75,0.21875 -1.3906,0.34821 -2.2265,1.1796 -2.7188,2.6875 -0.0883,0.2706 -0.15625,0.52922 -0.15625,0.59375 0,0.14672 0.0492,0.1509 0.59375,0 1.1339,-0.31422 2.0276,-0.84435 2.75,-1.5938 0.591,-0.61313 1.3941,-1.7934 1.2812,-1.9062 z" />
          <path
             inkscape:connector-curvature="0"
             id="path4209"
             style="fill:#240000;fill-opacity:0.87843"
             d="m -154.31,35.281 c -0.74609,0.0464 -1.7077,0.27527 -2.3125,0.5625 -1.726,0.81965 -2.74,2.3072 -3.2188,4.6562 -0.28011,1.3745 -0.32735,2.1279 -0.34375,5.7812 -0.009,1.9059 -0.0377,3.4757 -0.0625,3.5 -0.0248,0.0243 -0.11474,-0.0356 -0.21875,-0.15625 -0.38961,-0.45189 -0.89025,-1.2575 -1.5938,-2.6562 -0.25913,-0.51521 -0.46831,-0.85723 -0.6875,-1.25 -0.11807,-0.21158 -0.2821,-0.59409 -0.34375,-0.6875 -0.38174,-0.57838 -1.085,-1.3056 -1.5625,-1.625 -0.40834,-0.27318 -1.0242,-0.5 -1.4375,-0.5 -1.1936,0 -2.2458,1.0935 -2.5625,2.6562 -0.30433,1.5019 0.28778,2.7474 1.5312,3.2188 0.20356,0.0772 0.51917,0.11303 1.125,0.125 0.46161,0.009 0.88215,0.0347 0.90625,0.0625 0.0241,0.0278 0.12415,0.28676 0.21875,0.5625 0.27666,0.8066 0.94767,2.1308 1.9688,3.8438 1.0789,1.81 1.7678,3.1279 2.0625,3.9375 0.316,0.86805 1.7984,6.5928 2,7.7188 0.17541,0.97978 0.2211,1.8742 0.125,2.3438 -0.0423,0.2068 -0.23588,0.79723 -0.4375,1.2812 -0.55938,1.3429 -0.6017,1.8461 -0.21875,2.9062 0.7618,2.109 2.1016,3.5418 4.0312,4.3438 0.48816,0.20288 0.5702,0.21465 0.6875,-0.0625 0.26277,-0.62089 0.60257,-1.9712 0.71875,-2.9062 0.1902,-1.5308 0.0505,-2.6198 -0.75,-6.1562 -0.37037,-1.6362 -0.66131,-3.625 -0.53125,-3.625 0.0303,4e-5 0.27293,0.16386 0.53125,0.375 0.25832,0.21114 1.1133,0.89548 1.9062,1.5 2.0694,1.5777 2.3257,1.7914 4.6875,4.125 0.89253,0.88187 1.5376,1.4766 2.0938,1.9688 1.106,0.97886 1.7673,1.4015 2.6875,1.7188 0.49581,0.17093 0.70061,0.21812 1.125,0.21875 1.0358,0.001 1.5078,-0.43173 1.5625,-1.4375 0.0386,-0.70995 -0.17809,-1.527 -0.75,-2.6875 -0.55922,-1.1347 -1.0075,-1.7298 -1.875,-2.5625 -1.0095,-0.96905 -1.9462,-1.6547 -4.9688,-3.5938 -2.5734,-1.6509 -3.7205,-2.4979 -4.7188,-3.5 -1.3156,-1.3207 -1.8744,-2.4164 -1.9375,-3.8438 -0.052,-1.175 0.2404,-1.9246 1,-2.6875 0.77881,-0.78214 1.6383,-1.2174 4.1562,-2.0938 2.6604,-0.92589 3.6524,-1.5076 4.0938,-2.4062 0.15358,-0.31278 0.15638,-0.41302 0.15625,-0.9375 -1.5e-4,-0.504 2.2e-4,-0.63626 -0.125,-0.875 -0.57961,-1.105 -2.324,-1.7706 -5.1562,-1.9375 l -0.71875,-0.0313 -2.4062,2.4062 c -1.3223,1.3206 -2.4176,2.3636 -2.4375,2.3438 -0.0199,-0.0199 0.55592,-3.1035 1.2812,-6.875 0.72532,-3.7715 1.3438,-6.9049 1.3438,-6.9688 0,-0.10758 -0.0584,-0.12901 -0.625,-0.0937 z" />
          <path
             inkscape:connector-curvature="0"
             id="path4147"
             style="fill-opacity:0.48235001"
             d="m -149.22,39.688 0.0313,0.21875 c 0.0393,0.42143 0.26001,1.4193 0.4375,1.9062 0.56027,1.5371 1.5323,2.478 3.125,3 0.37851,0.12405 0.55235,0.13425 0.59375,0.0625 0.0592,-0.10259 -0.0952,-1.5674 -0.21875,-2.0938 -0.36618,-1.5597 -1.3038,-2.5008 -2.9062,-2.9062 -0.31261,-0.0791 -0.67463,-0.14414 -0.8125,-0.15625 l -0.25,-0.0313 z" />
          <path
             inkscape:connector-curvature="0"
             id="path4099"
             style="fill-opacity:0.48235001"
             d="m -170.97,46.188 c -0.0657,0.0256 -0.0832,0.0863 -0.125,0.1875 -0.113,0.27347 -0.28125,1.3152 -0.28125,1.7188 0,1.0613 0.48448,1.9394 1.4062,2.5625 0.35695,0.24128 0.40825,0.24638 0.40625,0.0937 -0.003,-0.27215 -0.49595,-4.4429 -0.53125,-4.5 -0.0218,-0.0353 -0.22776,-0.0625 -0.46875,-0.0625 -0.21767,0 -0.34053,-0.0256 -0.40625,0 z" />
          <path
             inkscape:connector-curvature="0"
             id="path4027"
             style="fill-opacity:0.48235001"
             d="m -137.53,59.969 c -0.10793,0 -0.67024,0.57495 -0.9375,0.96875 -0.73699,1.0859 -1.3116,2.7021 -1.6562,4.6875 -0.12234,0.70458 -0.123,1.0335 -0.125,2.5625 -0.002,1.9328 0.0407,2.3703 0.40625,3.4688 0.40281,1.2105 1.0712,2.0172 1.875,2.3125 0.12882,0.0473 0.35892,0.0921 0.53125,0.0937 1.0091,0.01 1.9432,-1.1102 2.375,-2.8125 0.36712,-1.4472 0.0929,-2.665 -1.25,-5.5 -0.85945,-1.8145 -1.0841,-2.5303 -1.2188,-3.625 -0.0651,-0.52951 -0.0674,-1.0547 0.0313,-1.8438 0.0276,-0.22108 0.0147,-0.3125 -0.0313,-0.3125 z" />
          <path
             inkscape:connector-curvature="0"
             id="path3937"
             style="fill-opacity:0.48235001"
             d="m -162.78,71.875 c -0.0841,0 -0.0793,0.17879 0.0625,0.875 0.23134,1.1356 0.6423,1.8191 1.4062,2.2188 0.46923,0.24548 0.7653,0.31765 1.4688,0.4375 0.2585,0.044 0.50435,0.0902 0.53125,0.0937 0.1836,0.0241 0.0365,-0.71138 -0.28125,-1.375 -0.29389,-0.61387 -0.99444,-1.2855 -1.7188,-1.6562 -0.52708,-0.26981 -1.3439,-0.59375 -1.4688,-0.59375 z" />
          <path
             inkscape:connector-curvature="0"
             id="path4343"
             style="fill:#ff0000"
             d="m -129.25,25.511 c 0,0 1.3913,-0.97005 2.6488,-0.91895 1.4656,0.05956 2.4325,1.3514 2.4325,1.3514 -3.2434,2.0001 -5.0813,-0.43245 -5.0813,-0.43245 z" />
        </g>
      </g>
      <g
         id="layer5"
         transform="translate(182.19,996.77)">
        <rect
           id="rect3171"
           style="opacity:0.1;fill:url(#linearGradient3188-69);stroke:#ffffff;stroke-width:0.5;stroke-linecap:round;filter:url(#filter3794-58)"
           clip-path="url(#clipPath3613-82)"
           rx="12"
           ry="12"
           height="66"
           width="66"
           y="15"
           x="15" />
      </g>
    </g>
    <rect
       ry="25"
       rx="25"
       id="rect3003"
       style="opacity:0.15;fill:#ffffff;fill-opacity:1"
       height="92"
       width="92"
       y="958.36218"
       x="-96"
       clip-path="url(#clipPath3009)"
       transform="translate(98,3.8281269e-7)" />
  </g>
</svg>
