<?xml version="1.0" encoding="UTF-8" standalone="no"?>
<!-- Created with Inkscape (http://www.inkscape.org/) -->

<svg
   xmlns:dc="http://purl.org/dc/elements/1.1/"
   xmlns:cc="http://creativecommons.org/ns#"
   xmlns:rdf="http://www.w3.org/1999/02/22-rdf-syntax-ns#"
   xmlns:svg="http://www.w3.org/2000/svg"
   xmlns="http://www.w3.org/2000/svg"
   xmlns:xlink="http://www.w3.org/1999/xlink"
   xmlns:sodipodi="http://sodipodi.sourceforge.net/DTD/sodipodi-0.dtd"
   xmlns:inkscape="http://www.inkscape.org/namespaces/inkscape"
   width="96"
   height="96"
   id="svg11037"
   version="1.1"
   inkscape:version="0.48.3.1 r9886"
   sodipodi:docname="bluefish.svg">
  <defs
     id="defs11039">
    <linearGradient
       y2="1046.1001"
       x2="47.999954"
       y1="962.62189"
       x1="47.999954"
       gradientTransform="matrix(1.15,0,0,1.15,-7.1999462,-150.65291)"
       gradientUnits="userSpaceOnUse"
       id="linearGradient3886"
       xlink:href="#linearGradient3795"
       inkscape:collect="always" />
    <linearGradient
       id="linearGradient3795">
      <stop
         style="stop-color:#13a6fd;stop-opacity:1;"
         offset="0"
         id="stop3797" />
      <stop
         style="stop-color:#2975b6;stop-opacity:1;"
         offset="1"
         id="stop3799" />
    </linearGradient>
    <linearGradient
       y2="1046.1001"
       x2="47.999954"
       y1="962.62189"
       x1="47.999954"
       gradientTransform="matrix(1.15,0,0,1.15,-7.1999462,-150.65292)"
       gradientUnits="userSpaceOnUse"
       id="linearGradient11642"
       xlink:href="#linearGradient5801"
       inkscape:collect="always" />
    <linearGradient
       id="linearGradient5801"
       y2="902.35999"
       gradientUnits="userSpaceOnUse"
       x2="48"
       gradientTransform="translate(0,-7.8516e-6)"
       y1="1052.4"
       x1="48">
      <stop
         id="stop4086"
         style="stop-color:#537d6b"
         offset="0" />
      <stop
         id="stop4088"
         style="stop-color:#92bbaa"
         offset="1" />
    </linearGradient>
    <linearGradient
       y2="902.35999"
       x2="48"
       y1="1052.4"
       x1="48"
       gradientTransform="translate(-105.83123,-27.001639)"
       gradientUnits="userSpaceOnUse"
       id="linearGradient3063"
       xlink:href="#linearGradient5801"
       inkscape:collect="always" />
    <radialGradient
       id="radialGradient5826"
       xlink:href="#linearGradient556"
       gradientUnits="userSpaceOnUse"
       cy="13.492"
       cx="24.218"
       gradientTransform="scale(0.88763,1.1266)"
       r="10.214" />
    <linearGradient
       id="linearGradient556">
      <stop
         id="stop557"
         style="stop-color:#fff"
         offset="0" />
      <stop
         id="stop558"
         style="stop-color:#8f8f8f"
         offset="1" />
    </linearGradient>
    <radialGradient
       id="radialGradient5828"
       xlink:href="#linearGradient561"
       gradientUnits="userSpaceOnUse"
       cy="4.2912002"
       cx="31.638"
       gradientTransform="scale(1.0613,0.94223)"
       r="6.1138" />
    <linearGradient
       id="linearGradient561">
      <stop
         id="stop562"
         style="stop-color:#72a6db"
         offset="0" />
      <stop
         id="stop563"
         style="stop-color:#4974aa"
         offset="1" />
    </linearGradient>
    <linearGradient
       id="linearGradient5830"
       y2="18.198999"
       xlink:href="#linearGradient561"
       gradientUnits="userSpaceOnUse"
       x2="68.417"
       gradientTransform="scale(0.57791,1.7304)"
       y1="9.7093"
       x1="66.897003" />
    <linearGradient
       id="linearGradient3084">
      <stop
         id="stop3086"
         style="stop-color:#72a6db"
         offset="0" />
      <stop
         id="stop3088"
         style="stop-color:#4974aa"
         offset="1" />
    </linearGradient>
    <linearGradient
       id="linearGradient5832"
       y2="14.642"
       xlink:href="#linearGradient635"
       gradientUnits="userSpaceOnUse"
       x2="56.889"
       gradientTransform="scale(0.65313,1.5311)"
       y1="5.4559999"
       x1="42.007999" />
    <linearGradient
       id="linearGradient635">
      <stop
         id="stop636"
         style="stop-color:#fff"
         offset="0" />
      <stop
         id="stop637"
         style="stop-color:#fff;stop-opacity:.17647"
         offset="1" />
    </linearGradient>
    <radialGradient
       id="radialGradient5834"
       gradientUnits="userSpaceOnUse"
       cy="16.135"
       cx="15.486"
       gradientTransform="scale(0.99284,1.0072)"
       r="27.532">
      <stop
         id="stop565"
         style="stop-color:#3278c6"
         offset="0" />
      <stop
         id="stop566"
         style="stop-color:#264980"
         offset="1" />
    </radialGradient>
    <linearGradient
       id="linearGradient5836"
       y2="21.709"
       gradientUnits="userSpaceOnUse"
       x2="23.981001"
       gradientTransform="scale(0.99284,1.0072)"
       y1="41.884998"
       x1="40.971001">
      <stop
         id="stop605"
         style="stop-opacity:.23922"
         offset="0" />
      <stop
         id="stop606"
         style="stop-opacity:0"
         offset="1" />
    </linearGradient>
    <radialGradient
       id="radialGradient5838"
       xlink:href="#linearGradient561"
       gradientUnits="userSpaceOnUse"
       cy="25.591"
       cx="56.924999"
       gradientTransform="scale(1.122,0.89128)"
       r="5.3431001" />
    <linearGradient
       id="linearGradient3101">
      <stop
         id="stop3103"
         style="stop-color:#72a6db"
         offset="0" />
      <stop
         id="stop3105"
         style="stop-color:#4974aa"
         offset="1" />
    </linearGradient>
    <linearGradient
       id="linearGradient5840"
       y2="24.687"
       xlink:href="#linearGradient635"
       gradientUnits="userSpaceOnUse"
       x2="25.337999"
       gradientTransform="scale(0.95998,1.0417)"
       y1="15.336"
       x1="25.033001" />
    <linearGradient
       id="linearGradient3108">
      <stop
         id="stop3110"
         style="stop-color:#fff"
         offset="0" />
      <stop
         id="stop3112"
         style="stop-color:#fff;stop-opacity:.17647"
         offset="1" />
    </linearGradient>
    <linearGradient
       id="linearGradient5842"
       y2="24.093"
       xlink:href="#linearGradient556"
       gradientUnits="userSpaceOnUse"
       x2="28.115"
       gradientTransform="scale(0.88763,1.1266)"
       y1="16.386999"
       x1="27.607" />
    <linearGradient
       id="linearGradient3115">
      <stop
         id="stop3117"
         style="stop-color:#fff"
         offset="0" />
      <stop
         id="stop3119"
         style="stop-color:#8f8f8f"
         offset="1" />
    </linearGradient>
    <radialGradient
       id="radialGradient5844"
       xlink:href="#linearGradient561"
       gradientUnits="userSpaceOnUse"
       cy="3.3555"
       cx="32.368999"
       gradientTransform="scale(1.0404,0.96117)"
       r="6.0570002" />
    <linearGradient
       id="linearGradient3122">
      <stop
         id="stop3124"
         style="stop-color:#72a6db"
         offset="0" />
      <stop
         id="stop3126"
         style="stop-color:#4974aa"
         offset="1" />
    </linearGradient>
    <linearGradient
       id="linearGradient5846"
       y2="54.863998"
       xlink:href="#linearGradient561"
       gradientUnits="userSpaceOnUse"
       x2="37.259998"
       gradientTransform="scale(1.5175,0.65899)"
       y1="47.909"
       x1="36.830002" />
    <linearGradient
       id="linearGradient3129">
      <stop
         id="stop3131"
         style="stop-color:#72a6db"
         offset="0" />
      <stop
         id="stop3133"
         style="stop-color:#4974aa"
         offset="1" />
    </linearGradient>
    <linearGradient
       id="linearGradient5848"
       y2="63.223999"
       gradientUnits="userSpaceOnUse"
       x2="30.472"
       gradientTransform="scale(1.8472,0.54137)"
       y1="68.696999"
       x1="29.954">
      <stop
         id="stop642"
         style="stop-opacity:.41569"
         offset="0" />
      <stop
         id="stop643"
         style="stop-opacity:0"
         offset="1" />
    </linearGradient>
    <linearGradient
       id="linearGradient5850"
       y2="68.898003"
       xlink:href="#linearGradient561"
       gradientUnits="userSpaceOnUse"
       x2="29.396"
       gradientTransform="scale(1.9257,0.5193)"
       y1="63.282001"
       x1="29.049" />
    <linearGradient
       id="linearGradient3139">
      <stop
         id="stop3141"
         style="stop-color:#72a6db"
         offset="0" />
      <stop
         id="stop3143"
         style="stop-color:#4974aa"
         offset="1" />
    </linearGradient>
    <linearGradient
       y2="68.898003"
       x2="29.396"
       y1="63.282001"
       x1="29.049"
       gradientTransform="scale(1.9257,0.5193)"
       gradientUnits="userSpaceOnUse"
       id="linearGradient3166"
       xlink:href="#linearGradient561"
       inkscape:collect="always" />
    <clipPath
       clipPathUnits="userSpaceOnUse"
       id="clipPath3009">
      <path
         id="path3011"
         d="m -2,956.36218 -96,0 0,33.5624 96,25.68742 0,-59.24982 z"
         style="opacity:0.15;fill:#ffffff;fill-opacity:1;stroke:none"
         inkscape:connector-curvature="0" />
    </clipPath>
  </defs>
  <sodipodi:namedview
     id="base"
     pagecolor="#ffffff"
     bordercolor="#666666"
     borderopacity="1.0"
     inkscape:pageopacity="0.0"
     inkscape:pageshadow="2"
     inkscape:zoom="3.959798"
     inkscape:cx="33.538031"
     inkscape:cy="59.964634"
     inkscape:document-units="px"
     inkscape:current-layer="layer1"
     showgrid="false"
     inkscape:window-width="1280"
     inkscape:window-height="750"
     inkscape:window-x="0"
     inkscape:window-y="22"
     inkscape:window-maximized="1"
     showguides="true"
     inkscape:guide-bbox="true">
    <sodipodi:guide
       orientation="0,1"
       position="-24.748737,0"
       id="guide11064" />
    <sodipodi:guide
       orientation="0,1"
       position="-23.233509,96"
       id="guide11066" />
    <sodipodi:guide
       orientation="1,0"
       position="0,54.800776"
       id="guide11068" />
    <sodipodi:guide
       orientation="1,0"
       position="96,51.012704"
       id="guide11070" />
    <sodipodi:guide
       orientation="0,1"
       position="-18.94036,48"
       id="guide11072" />
    <sodipodi:guide
       orientation="1,0"
       position="48,79.296975"
       id="guide11074" />
    <sodipodi:guide
       orientation="1,0"
       position="2,75.508903"
       id="guide11076" />
    <sodipodi:guide
       orientation="0,1"
       position="-77.27667,2"
       id="guide11078" />
    <sodipodi:guide
       orientation="1,0"
       position="94,77.781746"
       id="guide11080" />
    <sodipodi:guide
       orientation="0,1"
       position="-65.912454,94"
       id="guide11082" />
  </sodipodi:namedview>
  <metadata
     id="metadata11042">
    <rdf:RDF>
      <cc:Work
         rdf:about="">
        <dc:format>image/svg+xml</dc:format>
        <dc:type
           rdf:resource="http://purl.org/dc/dcmitype/StillImage" />
        <dc:title />
      </cc:Work>
    </rdf:RDF>
  </metadata>
  <g
     inkscape:label="Layer 1"
     inkscape:groupmode="layer"
     id="layer1"
     transform="translate(0,-956.36218)">
    <rect
       x="2"
       y="958.36218"
       width="92"
       height="92"
       style="fill:url(#linearGradient11642);fill-opacity:1.0"
       id="rect3867"
       rx="25"
       ry="25" />
    <g
       id="g2335"
       transform="matrix(1.384,0,0,1.384,-41.249,880.44217)">
      <path
         inkscape:connector-curvature="0"
         id="path617"
         d="m 30.267,20.252 a 5.6615,7.1857 0 1 1 -11.323,0 5.6615,7.1857 0 1 1 11.323,0 z"
         style="fill:url(#radialGradient5826);fill-rule:evenodd"
         transform="translate(25.684,64.782)" />
      <path
         inkscape:connector-curvature="0"
         id="path618"
         d="m 40.968,10.542 c 0,3.3396 -6.81,-5.8722 -12.1,-2.7657 0,-3.3396 3.0212,-7.2688 7.344,-7.2688 5.5328,0.17288 4.7562,6.6949 4.7562,10.034 z"
         style="fill:url(#radialGradient5828);fill-rule:evenodd;stroke-width:1pt"
         transform="translate(15.858,74.436)" />
      <path
         inkscape:connector-curvature="0"
         id="path619"
         d="m 34.713,23.554 c -0.0815,-3.9113 0.8148,-8.1894 2.689,-12.467 1.3038,-2.3224 2.9743,-4.278 6.4782,-5.1336 -2.6891,4.6855 -1.589,8.6376 -2.0779,13.201 -0.8149,1.9149 -1.5075,3.2189 -1.8335,6.2338 0.1223,5.6633 1.9557,7.0487 4.4003,9.2895 -3.2187,0.8964 -5.4595,-1.3853 -7.3337,-2.689 -0.9779,-3.3817 -1.3446,-5.0522 -2.3224,-8.434 z"
         style="fill:url(#linearGradient5830);fill-rule:evenodd"
         transform="translate(40,65)" />
      <g
         id="g595"
         transform="matrix(0.71859,0,0,0.71858,2.1673,69.947)">
        <path
           inkscape:connector-curvature="0"
           id="path596"
           d="m 64.476,21.173 a 2.0743,2.1607 0 1 1 -4.1486,0 2.0743,2.1607 0 1 1 4.1486,0 z"
           style="fill-rule:evenodd"
           transform="translate(0,-0.12225)" />
        <path
           inkscape:connector-curvature="0"
           id="path597"
           style="fill:#808080;fill-rule:evenodd"
           d="m 63.958,20.395 a 0.77786,1.0372 0 1 1 -1.5557,0 0.77786,1.0372 0 1 1 1.5557,0 z" />
      </g>
      <path
         inkscape:connector-curvature="0"
         id="path630"
         d="m 35.691,19.887 c 1.263,-5.9486 1.5483,-6.7634 2.3224,-8.6783 0.8555,-1.589 1.3445,-2.9335 5.1336,-4.7669 -2.0372,1.7112 -3.0965,3.6668 -3.9113,6.2337 -0.4075,2.1186 -1.1816,4.2373 -0.7334,11.245 -0.6519,-1.0593 -2.1594,-2.9743 -2.8113,-4.0336 z"
         style="fill:url(#linearGradient5832);fill-opacity:0.47183;fill-rule:evenodd"
         transform="translate(40,65)" />
      <path
         inkscape:connector-curvature="0"
         id="path615"
         d="M 39.358,25.754 C 39.114,31.71 29.469,43.111 20.657,42.989 12.578,42.866 5.623,35.01 5.623,25.632 5.6226,16.254 11.722,9.009 20.535,8.764 29.958,8.8865 39.48,21.998 39.358,25.754 z"
         style="fill:url(#radialGradient5834);fill-rule:evenodd;stroke-width:1pt"
         transform="translate(40,65)" />
      <path
         inkscape:connector-curvature="0"
         id="path599"
         d="M 39.358,25.754 C 39.114,31.71 29.469,43.111 20.657,42.989 12.578,42.866 5.623,35.01 5.623,25.632 5.6226,16.254 11.722,9.009 20.535,8.764 29.958,8.8865 39.48,21.998 39.358,25.754 z"
         style="fill:url(#linearGradient5836);fill-rule:evenodd;stroke-width:1pt"
         transform="translate(40,65)" />
      <path
         inkscape:connector-curvature="0"
         id="path632"
         d="m 30.557,20.498 c 2.0779,3.1331 1.3797,5.7609 0.2514,7.5749 -1.1283,1.8142 -4.2791,2.7994 -5.9962,2.6924 -6.0078,-0.3667 -5.1336,-3.0235 -5.1336,-8.5562 0,-5.5326 3.6483,-10.878 7.0893,-10.878 2.5854,0.6112 3.7891,3.6347 3.7891,9.1673 z"
         style="fill-opacity:0.19718;fill-rule:evenodd;stroke-width:1pt"
         transform="translate(40,65)" />
      <path
         inkscape:connector-curvature="0"
         id="path624"
         d="m 72.36,25.082 a 6.5395,5.1949 0 1 1 -13.079,0 6.5395,5.1949 0 1 1 13.079,0 z"
         style="fill:url(#radialGradient5838);fill-rule:evenodd"
         transform="matrix(0.95249,0,0,1.1466,1.8795,60.007)" />
      <path
         inkscape:connector-curvature="0"
         id="path633"
         d="m 30.069,22.209 a 5.745,6.2339 0 1 1 -11.49,0 5.745,6.2339 0 1 1 11.49,0 z"
         style="fill:url(#linearGradient5840);fill-rule:evenodd"
         transform="matrix(1,0,0,0.93264,39.878,66.198)" />
      <path
         inkscape:connector-curvature="0"
         id="path552"
         d="m 30.267,20.252 a 5.6615,7.1857 0 1 1 -11.323,0 5.6615,7.1857 0 1 1 11.323,0 z"
         style="fill:url(#linearGradient5842);fill-rule:evenodd"
         transform="matrix(1.0324,0,0,1.0595,38.516,63.149)" />
      <path
         inkscape:connector-curvature="0"
         id="path600"
         d="M 40.89,10.542 C 39.913,9.6629 36.936,4.787 29.102,7.7454 c 0,-3.3396 1.32,-8.0934 5.6428,-8.0934 5.5328,0.17288 6.1449,7.5504 6.1449,10.89 z"
         style="fill:url(#radialGradient5844);fill-rule:evenodd;stroke-width:1pt"
         transform="translate(28.937,74.68)" />
      <g
         id="g611"
         transform="matrix(0.71859,0,0,0.71858,21.479,70.386)">
        <path
           inkscape:connector-curvature="0"
           id="path604"
           d="m 64.476,21.173 a 2.0743,2.1607 0 1 1 -4.1486,0 2.0743,2.1607 0 1 1 4.1486,0 z"
           style="fill-rule:evenodd"
           transform="translate(0,-0.12225)" />
        <path
           inkscape:connector-curvature="0"
           id="path605"
           style="fill:#808080;fill-rule:evenodd"
           d="m 63.958,20.395 a 0.77786,1.0372 0 1 1 -1.5557,0 0.77786,1.0372 0 1 1 1.5557,0 z" />
      </g>
      <path
         inkscape:connector-curvature="0"
         id="path623"
         d="m 47.792,31.621 c 0.2038,0.8556 6.2745,3.4224 15.89,-0.2445 0.387,-0.0408 2.2985,-2.1103 2.2908,-1.7026 -0.0187,1.1104 -0.8848,2.5877 -2.0123,3.8196 -2.404,2.9334 -6.5529,4.7278 -11.279,4.239 -2.2816,-0.2037 -4.0423,-1.3851 -5.1016,-3.178 -0.9051,-1.6907 -0.3172,-1.9963 0.2124,-2.9335 z"
         style="fill:url(#linearGradient5846);fill-rule:evenodd"
         transform="translate(-1.1915,67.2)" />
      <path
         inkscape:connector-curvature="0"
         id="path631"
         d="m 48.158,31.621 c 0.2038,0.8556 5.9078,3.7891 15.523,0.1222 1.2892,-0.662 2.1738,-0.0872 0.8556,1.9556 -2.4039,2.4446 -9.6969,3.4225 -11.978,3.0558 -2.2816,-0.2037 -5.0521,-1.0186 -5.5003,-2.4446 -0.3391,-1.2267 0.0815,-1.9963 1.1,-2.689 z"
         style="fill:url(#linearGradient5848);fill-rule:evenodd"
         transform="translate(-1.6541,65.384)" />
      <path
         inkscape:connector-curvature="0"
         id="path621"
         d="m 48.158,31.621 c 0.2038,0.8556 5.5953,4.9609 15.836,0.9816 0.6836,-0.2919 1.9301,-0.8606 2.1868,-0.8178 0.3767,0.0741 -0.4768,0.9707 -1.4874,1.9922 -2.4039,2.4445 -9.8532,3.3443 -12.135,2.9776 -2.2816,-0.2037 -5.0521,-1.0186 -5.5003,-2.4446 -0.3391,-1.2267 0.0815,-1.9963 1.1,-2.689 z"
         style="fill:url(#linearGradient3166);fill-rule:evenodd"
         transform="translate(-1.5582,65)" />
    </g>
    <rect
       ry="25"
       rx="25"
       id="rect3003"
       style="opacity:0.15;fill:#ffffff;fill-opacity:1"
       height="92"
       width="92"
       y="958.36218"
       x="-96"
       clip-path="url(#clipPath3009)"
       transform="translate(98,3.8281269e-7)" />
  </g>
</svg>
