<?xml version="1.0" encoding="UTF-8" standalone="no"?>
<!-- Created with Inkscape (http://www.inkscape.org/) -->

<svg
   xmlns:dc="http://purl.org/dc/elements/1.1/"
   xmlns:cc="http://creativecommons.org/ns#"
   xmlns:rdf="http://www.w3.org/1999/02/22-rdf-syntax-ns#"
   xmlns:svg="http://www.w3.org/2000/svg"
   xmlns="http://www.w3.org/2000/svg"
   xmlns:xlink="http://www.w3.org/1999/xlink"
   xmlns:sodipodi="http://sodipodi.sourceforge.net/DTD/sodipodi-0.dtd"
   xmlns:inkscape="http://www.inkscape.org/namespaces/inkscape"
   width="96"
   height="96"
   id="svg11037"
   version="1.1"
   inkscape:version="0.48.3.1 r9886"
   sodipodi:docname="defcon.svg">
  <defs
     id="defs11039">
    <linearGradient
       y2="1046.1001"
       x2="47.999954"
       y1="962.62189"
       x1="47.999954"
       gradientTransform="matrix(1.15,0,0,1.15,-7.1999462,-150.65291)"
       gradientUnits="userSpaceOnUse"
       id="linearGradient3886"
       xlink:href="#linearGradient3795"
       inkscape:collect="always" />
    <linearGradient
       id="linearGradient3795">
      <stop
         style="stop-color:#13a6fd;stop-opacity:1;"
         offset="0"
         id="stop3797" />
      <stop
         style="stop-color:#2975b6;stop-opacity:1;"
         offset="1"
         id="stop3799" />
    </linearGradient>
    <linearGradient
       y2="1046.1001"
       x2="47.999954"
       y1="962.62189"
       x1="47.999954"
       gradientTransform="matrix(1.15,0,0,1.15,-7.1999462,-150.65292)"
       gradientUnits="userSpaceOnUse"
       id="linearGradient11642"
       xlink:href="#linearGradient5801"
       inkscape:collect="always" />
    <linearGradient
       id="linearGradient5801"
       y2="902.35999"
       gradientUnits="userSpaceOnUse"
       x2="48"
       gradientTransform="translate(-124.47458,4.0677888)"
       y1="1052.4"
       x1="48">
      <stop
         id="stop3702-08"
         style="stop-color:#2d2d2d"
         offset="0" />
      <stop
         id="stop3704-1"
         style="stop-color:#6b6b6b"
         offset="1" />
    </linearGradient>
    <linearGradient
       y2="902.35999"
       x2="48"
       y1="1052.4"
       x1="48"
       gradientTransform="translate(-111.13453,-68.922989)"
       gradientUnits="userSpaceOnUse"
       id="linearGradient3036"
       xlink:href="#linearGradient5801"
       inkscape:collect="always" />
    <clipPath
       id="clipPath3613-97">
      <rect
         id="rect3615-7"
         style="fill:#ffffff"
         rx="6"
         ry="6"
         height="84"
         width="84"
         y="6"
         x="6" />
    </clipPath>
    <filter
       id="filter3794-64"
       height="1.3839999"
       width="1.3839999"
       y="-0.192"
       x="-0.192"
       color-interpolation-filters="sRGB">
      <feGaussianBlur
         id="feGaussianBlur3796-30"
         stdDeviation="5.28" />
    </filter>
    <radialGradient
       id="radialGradient3080"
       gradientUnits="userSpaceOnUse"
       cy="48.000999"
       cx="47.745998"
       gradientTransform="matrix(1.9072,0,0,1.9072,-43.06,-43.547)"
       r="16.254">
      <stop
         id="stop3718"
         style="stop-color:#ee8a0c"
         offset="0" />
      <stop
         id="stop3751"
         style="stop-color:#ca0005"
         offset=".33021" />
      <stop
         id="stop3748-0"
         style="stop-color:#530111"
         offset=".77064" />
      <stop
         id="stop3720"
         offset="1" />
    </radialGradient>
    <radialGradient
       id="radialGradient3076"
       gradientUnits="userSpaceOnUse"
       cy="47.875999"
       cx="48"
       gradientTransform="matrix(1,0,0,0.92308,0,3.8067)"
       r="26">
      <stop
         id="stop3755-9"
         style="stop-color:#fff814"
         offset="0" />
      <stop
         id="stop3763"
         style="stop-color:#ffc516"
         offset=".5" />
      <stop
         id="stop3757"
         style="stop-color:#da8600;stop-opacity:.66667"
         offset="1" />
    </radialGradient>
    <radialGradient
       id="radialGradient3066"
       gradientUnits="userSpaceOnUse"
       cy="48.000999"
       cx="47.745998"
       gradientTransform="matrix(1.9072,0,0,1.9072,-43.06,-43.547)"
       r="16.254">
      <stop
         id="stop3785"
         style="stop-opacity:0"
         offset="0" />
      <stop
         id="stop3814"
         style="stop-color:#ca0000;stop-opacity:0"
         offset=".7" />
      <stop
         id="stop3791-4"
         style="stop-color:#6b0000;stop-opacity:.12403"
         offset=".8" />
      <stop
         id="stop3787"
         offset="1" />
    </radialGradient>
    <radialGradient
       id="radialGradient3221"
       gradientUnits="userSpaceOnUse"
       cy="13.64"
       cx="48"
       gradientTransform="matrix(1.5168,0,0,0.91009,-24.807,10.787)"
       r="27.25">
      <stop
         id="stop3804"
         style="stop-color:#fff"
         offset="0" />
      <stop
         id="stop3810"
         style="stop-color:#fff;stop-opacity:.35659"
         offset=".5" />
      <stop
         id="stop3806"
         style="stop-color:#fff;stop-opacity:0"
         offset="1" />
    </radialGradient>
    <radialGradient
       r="27.25"
       cy="13.64"
       cx="48"
       gradientTransform="matrix(1.5168,0,0,0.91009,-24.807,10.787)"
       gradientUnits="userSpaceOnUse"
       id="radialGradient3079"
       xlink:href="#radialGradient3221"
       inkscape:collect="always" />
    <clipPath
       clipPathUnits="userSpaceOnUse"
       id="clipPath3009">
      <path
         id="path3011"
         d="m -2,956.36218 -96,0 0,33.5624 96,25.68742 0,-59.24982 z"
         style="opacity:0.15;fill:#ffffff;fill-opacity:1;stroke:none"
         inkscape:connector-curvature="0" />
    </clipPath>
  </defs>
  <sodipodi:namedview
     id="base"
     pagecolor="#ffffff"
     bordercolor="#666666"
     borderopacity="1.0"
     inkscape:pageopacity="0.0"
     inkscape:pageshadow="2"
     inkscape:zoom="3.959798"
     inkscape:cx="33.538031"
     inkscape:cy="59.964634"
     inkscape:document-units="px"
     inkscape:current-layer="layer1"
     showgrid="false"
     inkscape:window-width="1280"
     inkscape:window-height="750"
     inkscape:window-x="0"
     inkscape:window-y="22"
     inkscape:window-maximized="1"
     showguides="true"
     inkscape:guide-bbox="true">
    <sodipodi:guide
       orientation="0,1"
       position="-24.748737,0"
       id="guide11064" />
    <sodipodi:guide
       orientation="0,1"
       position="-23.233509,96"
       id="guide11066" />
    <sodipodi:guide
       orientation="1,0"
       position="0,54.800776"
       id="guide11068" />
    <sodipodi:guide
       orientation="1,0"
       position="96,51.012704"
       id="guide11070" />
    <sodipodi:guide
       orientation="0,1"
       position="-18.94036,48"
       id="guide11072" />
    <sodipodi:guide
       orientation="1,0"
       position="48,79.296975"
       id="guide11074" />
    <sodipodi:guide
       orientation="1,0"
       position="2,75.508903"
       id="guide11076" />
    <sodipodi:guide
       orientation="0,1"
       position="-77.27667,2"
       id="guide11078" />
    <sodipodi:guide
       orientation="1,0"
       position="94,77.781746"
       id="guide11080" />
    <sodipodi:guide
       orientation="0,1"
       position="-65.912454,94"
       id="guide11082" />
  </sodipodi:namedview>
  <metadata
     id="metadata11042">
    <rdf:RDF>
      <cc:Work
         rdf:about="">
        <dc:format>image/svg+xml</dc:format>
        <dc:type
           rdf:resource="http://purl.org/dc/dcmitype/StillImage" />
        <dc:title />
      </cc:Work>
    </rdf:RDF>
  </metadata>
  <g
     inkscape:label="Layer 1"
     inkscape:groupmode="layer"
     id="layer1"
     transform="translate(0,-956.36218)">
    <rect
       x="2"
       y="958.36218"
       width="92"
       height="92"
       style="fill:url(#linearGradient11642);fill-opacity:1.0"
       id="rect3867"
       rx="25"
       ry="25" />
    <g
       id="g3166"
       transform="matrix(0.77381,0,0,0.77381,10.857,967.42217)">
      <g
         id="layer5">
        <rect
           id="rect3171"
           style="opacity:0.1;fill:#ff0000;stroke:#ffffff;stroke-width:0.5;stroke-linecap:round;filter:url(#filter3794-64)"
           clip-path="url(#clipPath3613-97)"
           rx="12"
           ry="12"
           height="66"
           width="66"
           y="15"
           x="15" />
      </g>
      <path
         inkscape:connector-curvature="0"
         id="path3685"
         style="color:#000000;fill:url(#radialGradient3080)"
         d="m 79,48 a 31,31 0 0 1 -62,0 31,31 0 1 1 62,0 z" />
      <path
         inkscape:connector-curvature="0"
         id="path3775"
         style="opacity:0.15;color:#000000;fill:#ffcb16"
         d="m 34.719,23.469 c 0.006,-8.93e-4 -0.19342,0.064 -0.1875,0.0625 0.0059,-0.0015 -0.22448,0.06459 -0.21875,0.0625 0.0057,-0.0021 -0.193,0.06515 -0.1875,0.0625 0.0047,-0.0023 -0.08805,0.07376 -0.125,0.09375 -0.0064,0.0034 -0.03202,4.7e-4 -0.03125,0 V 23.7815 C 25.328,28.7895 20,38.0145 20,48.0005 c -3.8e-5,-0.0059 6.1e-4,0.19336 0,0.1875 -6.1e-4,-0.0059 0.03243,0.22452 0.03125,0.21875 -0.0012,-0.0058 0.06423,0.19313 0.0625,0.1875 -0.0017,-0.0056 0.06477,0.19293 0.0625,0.1875 -0.0023,-0.0054 0.09654,0.16144 0.09375,0.15625 -0.0028,-0.0052 0.09703,0.19239 0.09375,0.1875 -0.0033,-0.0049 0.12874,0.1608 0.125,0.15625 -0.0037,-0.0045 0.12916,0.12916 0.125,0.125 -0.0042,-0.0042 0.12955,0.12874 0.125,0.125 -0.0045,-0.0037 0.16114,0.12828 0.15625,0.125 -0.0049,-0.0033 0.19268,0.09654 0.1875,0.09375 -0.0052,-0.0028 0.16168,0.09602 0.15625,0.09375 -0.0054,-0.0023 0.19313,0.06423 0.1875,0.0625 -0.0056,-0.0017 0.19327,0.06368 0.1875,0.0625 -0.0058,-0.0012 0.22461,0.03186 0.21875,0.03125 -0.0059,-6.1e-4 0.19339,3.8e-5 0.1875,0 h 18 c -0.0059,3.8e-5 0.19336,-6.1e-4 0.1875,0 -0.0059,6.1e-4 0.22452,-0.03243 0.21875,-0.03125 -0.0058,0.0012 0.19313,-0.06423 0.1875,-0.0625 -0.0056,0.0017 0.19293,-0.06477 0.1875,-0.0625 -0.0054,0.0023 0.16144,-0.09654 0.15625,-0.09375 -0.0052,0.0028 0.19239,-0.09703 0.1875,-0.09375 -0.0049,0.0033 0.1608,-0.12874 0.15625,-0.125 -0.0011,9.35e-4 0.01758,-0.0188 0.03125,-0.03125 0.31188,1.368 0.91988,2.5944 1.9062,3.5312 -0.02515,0.01134 -0.0961,0.06363 -0.09375,0.0625 0.0029,-0.0014 -0.09661,0.03282 -0.09375,0.03125 0.0029,-0.0016 -0.09652,0.06422 -0.09375,0.0625 0.0028,-0.0017 -0.09642,0.06437 -0.09375,0.0625 0.0027,-0.0019 -0.06507,0.06451 -0.0625,0.0625 0.0026,-0.002 -0.0962,0.06465 -0.09375,0.0625 0.0025,-0.0021 -0.09609,0.09603 -0.09375,0.09375 0.0023,-0.0023 -0.06471,0.0649 -0.0625,0.0625 0.0022,-0.0024 -0.06458,0.09626 -0.0625,0.09375 0.0021,-0.0025 -0.06444,0.09637 -0.0625,0.09375 0.0019,-0.0026 -0.06429,0.06522 -0.0625,0.0625 0.0018,-0.0027 -0.06415,0.09657 -0.0625,0.09375 a 1.0937,1.0937 0 0 0 0,0.03125 l -9,15.594 v 0.03125 c -0.01763,0.03343 -0.09594,0.1609 -0.09375,0.15625 0.0025,-0.0054 -0.06449,0.16183 -0.0625,0.15625 0.002,-0.0056 -0.06394,0.19325 -0.0625,0.1875 0.0014,-0.0058 -0.03212,0.22461 -0.03125,0.21875 8.69e-4,-0.0059 -0.03154,0.19342 -0.03125,0.1875 2.91e-4,-0.0059 2.9e-4,0.19342 0,0.1875 -2.9e-4,-0.0059 0.03212,0.19336 0.03125,0.1875 -8.68e-4,-0.0059 0.03269,0.2245 0.03125,0.21875 -0.0014,-0.0058 0.06449,0.19308 0.0625,0.1875 -0.002,-0.0056 0.06503,0.16161 0.0625,0.15625 -0.0025,-0.0054 0.09679,0.19259 0.09375,0.1875 -0.003,-0.0051 0.09728,0.16102 0.09375,0.15625 -0.0035,-0.0048 0.12898,0.16065 0.125,0.15625 -0.004,-0.0044 0.16064,0.12899 0.15625,0.125 -0.0044,-0.004 0.16101,0.12854 0.15625,0.125 -0.0048,-0.0035 0.16133,0.12806 0.15625,0.125 a 1.0937,1.0937 0 0 0 0.032,0 c 8.6632,5.0017 19.337,5.0017 28,0 a 1.0937,1.0937 0 0 0 0.03125,0 c -0.0051,0.0031 0.16101,-0.12854 0.15625,-0.125 -0.0048,0.0035 0.16064,-0.12899 0.15625,-0.125 -0.0044,0.004 0.16022,-0.1294 0.15625,-0.125 -0.004,0.0044 0.12853,-0.16102 0.125,-0.15625 -0.0035,0.0048 0.09679,-0.16134 0.09375,-0.15625 -0.003,0.0051 0.09628,-0.19286 0.09375,-0.1875 -0.0025,0.0054 0.06449,-0.16183 0.0625,-0.15625 -0.002,0.0056 0.06394,-0.19325 0.0625,-0.1875 -0.0014,0.0058 0.03212,-0.22461 0.03125,-0.21875 -8.68e-4,0.0059 0.03154,-0.19342 0.03125,-0.1875 -2.9e-4,0.0059 -2.91e-4,-0.19342 0,-0.1875 2.91e-4,0.0059 -0.03212,-0.19336 -0.03125,-0.1875 8.69e-4,0.0059 -0.03269,-0.2245 -0.03125,-0.21875 0.0014,0.0058 -0.06449,-0.19308 -0.0625,-0.1875 0.002,0.0056 -0.06503,-0.16161 -0.0625,-0.15625 0.0022,0.0046 -0.07612,-0.12282 -0.09375,-0.15625 V 69.5007 l -9,-15.594 a 1.0937,1.0937 0 0 0 0,-0.03125 c 0.0031,0.0051 -0.12854,-0.16101 -0.125,-0.15625 0.0035,0.0048 -0.12899,-0.16064 -0.125,-0.15625 0.004,0.0044 -0.1294,-0.16022 -0.125,-0.15625 0.0044,0.004 -0.16102,-0.12853 -0.15625,-0.125 0.0048,0.0035 -0.16134,-0.09679 -0.15625,-0.09375 0.0051,0.003 -0.19286,-0.09628 -0.1875,-0.09375 0.0031,0.0015 -0.04065,-0.0093 -0.09375,-0.03125 1.0027,-0.94072 1.6223,-2.1799 1.9375,-3.5625 0.01367,0.01245 0.03239,0.03218 0.03125,0.03125 -0.0045,-0.0037 0.16114,0.12828 0.15625,0.125 -0.0049,-0.0033 0.19268,0.09654 0.1875,0.09375 -0.0052,-0.0028 0.16168,0.09602 0.15625,0.09375 -0.0054,-0.0023 0.19313,0.06423 0.1875,0.0625 -0.0056,-0.0017 0.19327,0.06368 0.1875,0.0625 -0.0058,-0.0012 0.22461,0.03186 0.21875,0.03125 -0.0059,-6.1e-4 0.19339,3.8e-5 0.1875,0 h 18 c -0.0059,3.8e-5 0.19336,-6.1e-4 0.1875,0 -0.0059,6.1e-4 0.22452,-0.03243 0.21875,-0.03125 -0.0058,0.0012 0.19313,-0.06423 0.1875,-0.0625 -0.0056,0.0017 0.19293,-0.06477 0.1875,-0.0625 -0.0054,0.0023 0.16144,-0.09654 0.15625,-0.09375 -0.0052,0.0028 0.19239,-0.09703 0.1875,-0.09375 -0.0049,0.0033 0.1608,-0.12874 0.15625,-0.125 -0.0045,0.0037 0.12916,-0.12916 0.125,-0.125 -0.0042,0.0042 0.12874,-0.12955 0.125,-0.125 -0.0037,0.0045 0.12828,-0.16114 0.125,-0.15625 -0.0033,0.0049 0.09654,-0.19268 0.09375,-0.1875 -0.0028,0.0052 0.09602,-0.16168 0.09375,-0.15625 -0.0023,0.0054 0.06423,-0.19313 0.0625,-0.1875 -0.0017,0.0056 0.06368,-0.19327 0.0625,-0.1875 -0.0012,0.0058 0.03186,-0.22461 0.03125,-0.21875 -6.1e-4,0.0059 3.8e-5,-0.19339 0,-0.1875 0,-9.9861 -5.3276,-19.211 -13.969,-24.219 -0.0056,-0.0032 0.0056,-0.02801 0,-0.03125 6.75e-4,4.18e-4 -0.02565,0.0031 -0.03125,0 -0.03249,-0.018 -0.12911,-0.09581 -0.125,-0.09375 0.0048,0.0024 -0.16127,-0.06448 -0.15625,-0.0625 0.005,0.002 -0.16142,-0.06403 -0.15625,-0.0625 0.0052,0.0015 -0.19279,-0.03231 -0.1875,-0.03125 0.0053,0.0011 -0.16161,-0.03183 -0.15625,-0.03125 0.0054,5.82e-4 -0.19289,-1.02e-4 -0.1875,0 0.0054,1.02e-4 -0.19288,3.79e-4 -0.1875,0 0.0054,-3.79e-4 -0.19283,8.57e-4 -0.1875,0 a 1.0937,1.0937 0 0 0 0,0.03125 c 0.0032,-5.81e-4 -0.12817,7.54e-4 -0.125,0 0.0032,-7.54e-4 -0.09688,0.03217 -0.09375,0.03125 0.0031,-9.24e-4 -0.09682,0.03234 -0.09375,0.03125 0.0031,-0.0011 -0.09676,0.03251 -0.09375,0.03125 0.003,-0.0013 -0.12794,0.06392 -0.125,0.0625 0.0029,-0.0014 -0.09661,0.03282 -0.09375,0.03125 0.0029,-0.0016 -0.09652,0.06422 -0.09375,0.0625 0.0028,-0.0017 -0.09642,0.06437 -0.09375,0.0625 0.0027,-0.0019 -0.06507,0.06451 -0.0625,0.0625 0.0026,-0.002 -0.0962,0.06465 -0.09375,0.0625 0.0025,-0.0021 -0.09609,0.09603 -0.09375,0.09375 0.0023,-0.0023 -0.06471,0.0649 -0.0625,0.0625 0.0022,-0.0024 -0.06458,0.09626 -0.0625,0.09375 0.0021,-0.0025 -0.06444,0.09637 -0.0625,0.09375 0.0019,-0.0026 -0.06429,0.06522 -0.0625,0.0625 0.0018,-0.0027 -0.06415,0.09657 -0.0625,0.09375 a 1.0937,1.0937 0 0 0 0,0.03125 l -9,15.594 c 4.06e-4,-6.78e-4 0.0027,0.02611 0,0.03125 -0.01763,0.03343 -0.09594,0.1609 -0.09375,0.15625 0.0025,-0.0054 -0.06449,0.16183 -0.0625,0.15625 0.002,-0.0056 -0.06394,0.19325 -0.0625,0.1875 0.0014,-0.0057 -0.03212,0.22461 -0.03125,0.21875 0.002,-0.006 -0.03,0.193 -0.03,0.187 2.91e-4,-0.0059 2.9e-4,0.19342 0,0.1875 -2.9e-4,-0.0059 0.03212,0.19336 0.03125,0.1875 -1.22e-4,-8.21e-4 -0.0013,0.02498 0,0.03125 -0.653,-0.203 -1.313,-0.406 -2.031,-0.406 -0.71783,0 -1.3778,0.20289 -2.0312,0.40625 0.0013,-0.0063 1.22e-4,-0.03207 0,-0.03125 -8.68e-4,0.0059 0.03154,-0.19342 0.03125,-0.1875 -2.9e-4,0.0059 -2.91e-4,-0.19342 0,-0.1875 2.91e-4,0.0059 -0.03212,-0.19336 -0.03125,-0.1875 8.69e-4,0.0059 -0.03269,-0.2245 -0.03125,-0.21875 0.0014,0.0057 -0.06449,-0.19308 -0.0625,-0.1875 0.002,0.0056 -0.06503,-0.16161 -0.0625,-0.15625 0.0022,0.0046 -0.07612,-0.12282 -0.09375,-0.15625 V 40.0627 l -9,-15.594 a 1.0937,1.0937 0 0 0 0,-0.03125 c 0.0023,0.0038 -0.06503,-0.12862 -0.0625,-0.125 0.0025,0.0036 -0.09654,-0.12843 -0.09375,-0.125 0.0028,0.0034 -0.09678,-0.09696 -0.09375,-0.09375 0.003,0.0032 -0.12826,-0.09673 -0.125,-0.09375 0.0033,0.003 -0.09721,-0.09649 -0.09375,-0.09375 0.0035,0.0027 -0.12866,-0.09623 -0.125,-0.09375 0.0037,0.0025 -0.12883,-0.09596 -0.125,-0.09375 0.0038,0.0022 -0.12898,-0.06442 -0.125,-0.0625 0.004,0.0019 -0.12911,-0.06413 -0.125,-0.0625 0.0041,0.0016 -0.16046,-0.03257 -0.15625,-0.03125 0.0042,0.0013 -0.1293,-0.06351 -0.125,-0.0625 0.0043,0.001 -0.16061,-6.93e-4 -0.15625,0 0.0044,6.93e-4 -0.16065,-0.03162 -0.15625,-0.03125 0.0044,3.73e-4 -0.12942,-5.1e-5 -0.125,0 0.0044,5.1e-5 -0.16066,2.71e-4 -0.15625,0 0.0044,-2.71e-4 -0.16063,5.92e-4 -0.15625,0 z" />
      <path
         inkscape:connector-curvature="0"
         id="path3689"
         style="color:#000000;fill:url(#radialGradient3076)"
         d="M 35,25.469 C 26.956,30.113 22,38.711 22,48 h 18 c 0,-2.957 1.6143,-5.5216 4,-6.9062 l -9,-15.625 z m 26,0 -9,15.625 c 2.3857,1.3847 4,3.9493 4,6.9062 h 18 c 0,-9.289 -4.956,-17.887 -13,-22.531 z M 48,43 c -2.7614,0 -5,2.2386 -5,5 0,2.7614 2.2386,5 5,5 2.7614,0 5,-2.2386 5,-5 0,-2.7614 -2.2386,-5 -5,-5 z m -4,11.906 -9,15.625 c 8.0444,4.6445 17.956,4.6445 26,0 L 52,54.906 C 50.821,55.591 49.461,56 48,56 46.539,56 45.179,55.591 44,54.906 z" />
      <path
         inkscape:connector-curvature="0"
         id="path3769"
         style="opacity:0.3;color:#000000;fill:#ffcb16"
         d="m 34.875,24.562 a 0.91217,0.91217 0 0 0 -0.34375,0.125 c -8.326,4.808 -13.437,13.7 -13.437,23.313 a 0.91217,0.91217 0 0 0 0.906,0.906 h 18 A 0.91217,0.91217 0 0 0 40.90625,48 c 0,-2.625 1.4452,-4.8961 3.5625,-6.125 a 0.91217,0.91217 0 0 0 0.3125,-1.25 l -9,-15.625 a 0.91217,0.91217 0 0 0 -0.905,-0.438 z m 25.969,0 A 0.91217,0.91217 0 0 0 60.219,25 l -9,15.625 a 0.91217,0.91217 0 0 0 0.3125,1.25 c 2.1173,1.2289 3.5625,3.5 3.5625,6.125 A 0.91217,0.91217 0 0 0 56,48.906 H 74 A 0.91217,0.91217 0 0 0 74.906,48 c 0,-9.6133 -5.1114,-18.505 -13.438,-23.312 A 0.91217,0.91217 0 0 0 60.843,24.563 z M 48,42.094 c -3.2543,0 -5.9062,2.6519 -5.9062,5.9062 0,3.2543 2.6519,5.9062 5.9062,5.9062 3.2543,0 5.9062,-2.6519 5.9062,-5.9062 0,-3.2543 -2.6519,-5.9062 -5.9062,-5.9062 z M 43.844,54 a 0.91217,0.91217 0 0 0 -0.625,0.4375 l -9,15.625 a 0.91217,0.91217 0 0 0 0.3125,1.25 c 8.3254,4.8066 18.612,4.8066 26.938,0 a 0.91217,0.91217 0 0 0 0.3125,-1.25 l -9,-15.625 a 0.91217,0.91217 0 0 0 -1.25,-0.3125 c -1.053,0.61 -2.241,0.968 -3.532,0.968 -1.2909,0 -2.479,-0.35801 -3.5312,-0.96875 a 0.91217,0.91217 0 0 0 -0.625,-0.125 z" />
      <path
         inkscape:connector-curvature="0"
         id="path3777"
         style="color:#000000;fill:url(#radialGradient3066)"
         d="m 79,48 a 31,31 0 0 1 -62,0 31,31 0 1 1 62,0 z" />
      <path
         inkscape:connector-curvature="0"
         id="path3795"
         style="opacity:0.8;color:#000000;fill:url(#radialGradient3079)"
         d="m 48,19.067 c -13.669,0 -25.132,9.4734 -28.158,22.217 7.3801,-4.8079 17.281,-7.75 28.158,-7.75 10.877,0 20.778,2.9421 28.158,7.75 C 73.132,28.54 61.669,19.067 48,19.067 z" />
    </g>
    <rect
       ry="25"
       rx="25"
       id="rect3003"
       style="opacity:0.15;fill:#ffffff;fill-opacity:1"
       height="92"
       width="92"
       y="958.36218"
       x="-96"
       clip-path="url(#clipPath3009)"
       transform="translate(98,3.8281269e-7)" />
  </g>
</svg>
