<?xml version="1.0" encoding="UTF-8" standalone="no"?>
<!-- Created with Inkscape (http://www.inkscape.org/) -->

<svg
   xmlns:dc="http://purl.org/dc/elements/1.1/"
   xmlns:cc="http://creativecommons.org/ns#"
   xmlns:rdf="http://www.w3.org/1999/02/22-rdf-syntax-ns#"
   xmlns:svg="http://www.w3.org/2000/svg"
   xmlns="http://www.w3.org/2000/svg"
   xmlns:xlink="http://www.w3.org/1999/xlink"
   xmlns:sodipodi="http://sodipodi.sourceforge.net/DTD/sodipodi-0.dtd"
   xmlns:inkscape="http://www.inkscape.org/namespaces/inkscape"
   width="96"
   height="96"
   id="svg11037"
   version="1.1"
   inkscape:version="0.48.3.1 r9886"
   sodipodi:docname="devede.svg">
  <defs
     id="defs11039">
    <linearGradient
       y2="1046.1001"
       x2="47.999954"
       y1="962.62189"
       x1="47.999954"
       gradientTransform="matrix(1.15,0,0,1.15,-7.1999462,-150.65291)"
       gradientUnits="userSpaceOnUse"
       id="linearGradient3886"
       xlink:href="#linearGradient3795"
       inkscape:collect="always" />
    <linearGradient
       id="linearGradient3795">
      <stop
         style="stop-color:#13a6fd;stop-opacity:1;"
         offset="0"
         id="stop3797" />
      <stop
         style="stop-color:#2975b6;stop-opacity:1;"
         offset="1"
         id="stop3799" />
    </linearGradient>
    <linearGradient
       y2="1046.1001"
       x2="47.999954"
       y1="962.62189"
       x1="47.999954"
       gradientTransform="matrix(1.15,0,0,1.15,-7.1999462,-150.65292)"
       gradientUnits="userSpaceOnUse"
       id="linearGradient11642"
       xlink:href="#linearGradient3853"
       inkscape:collect="always" />
    <linearGradient
       x1="48"
       y1="90"
       x2="48"
       y2="5.9877172"
       id="linearGradient3617"
       xlink:href="#linearGradient3853"
       gradientUnits="userSpaceOnUse"
       gradientTransform="translate(-78.508474,-26.440678)" />
    <linearGradient
       x1="10.31979"
       y1="21"
       x2="10.31979"
       y2="0.99929649"
       id="linearGradient3853"
       gradientUnits="userSpaceOnUse">
      <stop
         id="stop3855"
         style="stop-color:#672178;stop-opacity:1"
         offset="0" />
      <stop
         id="stop3857"
         style="stop-color:#ad77bb;stop-opacity:1"
         offset="1" />
    </linearGradient>
    <linearGradient
       y2="5.9877172"
       x2="48"
       y1="90"
       x1="48"
       gradientTransform="translate(-69.718277,935.6718)"
       gradientUnits="userSpaceOnUse"
       id="linearGradient3104"
       xlink:href="#linearGradient3853"
       inkscape:collect="always" />
    <radialGradient
       cx="59.893993"
       cy="61.92226"
       r="33.71384"
       fx="59.893993"
       fy="61.92226"
       id="radialGradient3949"
       xlink:href="#linearGradient3342"
       gradientUnits="userSpaceOnUse"
       gradientTransform="matrix(1,0,0,0.8375435,0,10.059672)" />
    <linearGradient
       id="linearGradient3342">
      <stop
         id="stop3344"
         style="stop-color:#000000;stop-opacity:0"
         offset="0" />
      <stop
         id="stop3350"
         style="stop-color:#000000;stop-opacity:0"
         offset="0.85000002" />
      <stop
         id="stop3346"
         style="stop-color:#000000;stop-opacity:1"
         offset="1" />
    </linearGradient>
    <clipPath
       id="clipPath3999">
      <path
         d="m 18,14.8125 c -18.21479,0 -33,14.784477 -33,33 0,18.215529 14.78521,33 33,33 18.2148,0 33,-14.784471 33,-33 0,-0.27935 0.007,-0.566055 0,-0.84375 l -21.28125,0 c 0.0194,0.275437 0.0312,0.563419 0.0312,0.84375 0,6.483487 -5.26677,11.75 -11.75,11.75 -6.48323,0 -11.75,-5.266513 -11.75,-11.75 0,-6.483491 5.26677,-11.75 11.75,-11.75 0.0213,0 0.0413,-1.13e-4 0.0625,0 l 0,-21.25 c -0.0211,-4e-5 -0.0414,0 -0.0625,0 z"
         inkscape:connector-curvature="0"
         id="path4001"
         style="fill:#ff00ff;fill-opacity:1;fill-rule:evenodd;stroke:none;display:inline" />
    </clipPath>
    <linearGradient
       x1="5"
       y1="64"
       x2="123"
       y2="64"
       id="linearGradient3997"
       xlink:href="#linearGradient3233"
       gradientUnits="userSpaceOnUse"
       gradientTransform="matrix(0.48435496,0.27965371,-0.27964247,0.48437444,4.897859,-0.89859081)" />
    <linearGradient
       id="linearGradient3233">
      <stop
         id="stop3235"
         style="stop-color:#ffffff;stop-opacity:0"
         offset="0" />
      <stop
         id="stop3297"
         style="stop-color:#ffffff;stop-opacity:0"
         offset="0.15000001" />
      <stop
         id="stop3241"
         style="stop-color:#ffffff;stop-opacity:1"
         offset="0.5" />
      <stop
         id="stop3299"
         style="stop-color:#ffffff;stop-opacity:0"
         offset="0.85000002" />
      <stop
         id="stop3237"
         style="stop-color:#ffffff;stop-opacity:0"
         offset="1" />
    </linearGradient>
    <clipPath
       id="clipPath4187">
      <path
         d="m 48,102 c -19.88225,0 -36,16.11775 -36,36 0,19.88225 16.11775,36 36,36 19.88225,0 36,-16.11775 36,-36 0,-19.88225 -16.11775,-36 -36,-36 z m 0,24 c 6.62742,0 12,5.37258 12,12 0,6.62742 -5.37258,12 -12,12 -6.62742,0 -12,-5.37258 -12,-12 0,-6.62742 5.37258,-12 12,-12 z"
         inkscape:connector-curvature="0"
         id="path4189"
         style="fill:#bbb1bf;fill-opacity:1;stroke:none" />
    </clipPath>
    <filter
       x="-0.18000001"
       y="-0.18000001"
       width="1.36"
       height="1.36"
       color-interpolation-filters="sRGB"
       id="filter4195">
      <feGaussianBlur
         id="feGaussianBlur4197"
         stdDeviation="5.2159999" />
    </filter>
    <linearGradient
       x1="25.220379"
       y1="61.92226"
       x2="94.567612"
       y2="61.92226"
       id="linearGradient3951"
       xlink:href="#linearGradient3362"
       gradientUnits="userSpaceOnUse" />
    <linearGradient
       id="linearGradient3362">
      <stop
         id="stop3364"
         style="stop-color:#4d4d4d;stop-opacity:1"
         offset="0" />
      <stop
         id="stop3366"
         style="stop-color:#ffffff;stop-opacity:1"
         offset="1" />
    </linearGradient>
    <linearGradient
       x1="26.180153"
       y1="61.92226"
       x2="93.607834"
       y2="61.92226"
       id="linearGradient3970"
       xlink:href="#linearGradient3330"
       gradientUnits="userSpaceOnUse"
       gradientTransform="matrix(0,0.28234448,-0.33916637,0,69.001413,30.890837)" />
    <linearGradient
       id="linearGradient3330">
      <stop
         id="stop3332"
         style="stop-color:#ffffff;stop-opacity:0.203125"
         offset="0" />
      <stop
         id="stop3334"
         style="stop-color:#ffffff;stop-opacity:0.6796875"
         offset="1" />
    </linearGradient>
    <clipPath
       clipPathUnits="userSpaceOnUse"
       id="clipPath3009">
      <path
         id="path3011"
         d="m -2,956.36218 -96,0 0,33.5624 96,25.68742 0,-59.24982 z"
         style="opacity:0.15;fill:#ffffff;fill-opacity:1;stroke:none"
         inkscape:connector-curvature="0" />
    </clipPath>
  </defs>
  <sodipodi:namedview
     id="base"
     pagecolor="#ffffff"
     bordercolor="#666666"
     borderopacity="1.0"
     inkscape:pageopacity="0.0"
     inkscape:pageshadow="2"
     inkscape:zoom="3.959798"
     inkscape:cx="33.538031"
     inkscape:cy="59.964634"
     inkscape:document-units="px"
     inkscape:current-layer="layer1"
     showgrid="false"
     inkscape:window-width="1280"
     inkscape:window-height="750"
     inkscape:window-x="0"
     inkscape:window-y="22"
     inkscape:window-maximized="1"
     showguides="true"
     inkscape:guide-bbox="true">
    <sodipodi:guide
       orientation="0,1"
       position="-24.748737,0"
       id="guide11064" />
    <sodipodi:guide
       orientation="0,1"
       position="-23.233509,96"
       id="guide11066" />
    <sodipodi:guide
       orientation="1,0"
       position="0,54.800776"
       id="guide11068" />
    <sodipodi:guide
       orientation="1,0"
       position="96,51.012704"
       id="guide11070" />
    <sodipodi:guide
       orientation="0,1"
       position="-18.94036,48"
       id="guide11072" />
    <sodipodi:guide
       orientation="1,0"
       position="48,79.296975"
       id="guide11074" />
    <sodipodi:guide
       orientation="1,0"
       position="2,75.508903"
       id="guide11076" />
    <sodipodi:guide
       orientation="0,1"
       position="-77.27667,2"
       id="guide11078" />
    <sodipodi:guide
       orientation="1,0"
       position="94,77.781746"
       id="guide11080" />
    <sodipodi:guide
       orientation="0,1"
       position="-65.912454,94"
       id="guide11082" />
  </sodipodi:namedview>
  <metadata
     id="metadata11042">
    <rdf:RDF>
      <cc:Work
         rdf:about="">
        <dc:format>image/svg+xml</dc:format>
        <dc:type
           rdf:resource="http://purl.org/dc/dcmitype/StillImage" />
        <dc:title />
      </cc:Work>
    </rdf:RDF>
  </metadata>
  <g
     inkscape:label="Layer 1"
     inkscape:groupmode="layer"
     id="layer1"
     transform="translate(0,-956.36218)">
    <rect
       x="2"
       y="958.36218"
       width="92"
       height="92"
       style="fill:url(#linearGradient11642);fill-opacity:1.0"
       id="rect3867"
       rx="25"
       ry="25" />
    <g
       transform="translate(3.3333333e-7,956.36218)"
       id="g3106">
      <path
         style="opacity:0.2;color:#000000;fill:#ffffff;fill-opacity:1;fill-rule:nonzero;stroke:none;stroke-width:1;marker:none;visibility:visible;display:inline;overflow:visible;enable-background:accumulate"
         id="rect4005"
         inkscape:connector-curvature="0"
         d="m 48,14.8125 0,21.25 C 54.21327,36.062499 59.30552,40.890682 59.71875,47 L 81,47 C 80.57226,29.155787 65.94581,14.8125 48,14.8125 z" />
      <path
         style="opacity:0.3;fill:#ffffff;fill-opacity:1;fill-rule:evenodd;stroke:none;display:inline"
         id="path3307"
         inkscape:connector-curvature="0"
         d="m 47.999459,36 c -6.513378,0 -11.801101,5.287938 -11.801101,11.801576 0,6.513637 5.287723,11.801574 11.801101,11.801574 6.513378,0 11.801105,-5.28793 11.801105,-11.801574 0,-6.513638 -5.287727,-11.801575 -11.801105,-11.801576 z m 0,8.336893 c 1.91243,-1e-6 3.464544,1.552178 3.464544,3.464683 0,1.912505 -1.552114,3.464677 -3.464544,3.464677 -1.912431,0 -3.464542,-1.552172 -3.464542,-3.464677 0,-1.912505 1.552115,-3.464683 3.464542,-3.464683 z" />
      <path
         inkscape:connector-curvature="0"
         style="opacity:0.3;fill:url(#radialGradient3949);fill-opacity:1;fill-rule:evenodd;stroke:none;display:inline"
         id="path3328"
         transform="matrix(0,0.26689125,-0.32060318,0,67.851938,31.816392)"
         d="m 92.579506,61.92226 a 32.685513,27.208481 0 1 1 -65.371025,0 32.685513,27.208481 0 1 1 65.371025,0 z" />
      <g
         id="g3981"
         clip-path="url(#clipPath3999)"
         transform="translate(30,0)">
        <path
           style="fill:#ccbb98;fill-opacity:1;fill-rule:evenodd;stroke:none;display:inline"
           id="path3170"
           inkscape:connector-curvature="0"
           d="m 17.999459,14.802438 c -18.214793,0 -32.997812,14.783615 -32.997812,32.999138 0,18.215529 14.78302,32.999144 32.997812,32.999144 18.214799,0 32.997811,-14.783615 32.997811,-32.999144 0,-18.215523 -14.783012,-32.999138 -32.997811,-32.999138 z m 0,21.253683 c 6.483232,-10e-7 11.744979,5.261964 11.744979,11.745455 0,6.483487 -5.261747,11.745448 -11.744979,11.745448 -6.48323,0 -11.744983,-5.261961 -11.744983,-11.745448 0,-6.483491 5.261753,-11.745455 11.744983,-11.745455 z" />
        <path
           style="opacity:0.8;fill:url(#linearGradient3997);fill-opacity:1;fill-rule:evenodd;stroke:none;display:inline"
           id="path3230"
           inkscape:connector-curvature="0"
           d="M 34.498367,19.421119 C 18.723891,10.313356 -1.470089,15.724536 -10.577484,31.499643 -19.68488,47.274749 -14.273919,67.46954 1.500553,76.577309 17.275024,85.685069 37.469009,80.273884 46.576406,64.498783 55.683803,48.723675 50.272841,28.528883 34.498367,19.421119 z M 23.871952,37.827347 c 5.614646,3.241747 7.540577,10.429725 4.298964,16.044593 -3.24162,5.61487 -10.429308,7.54088 -16.043948,4.299132 -5.614643,-3.241739 -7.54058,-10.429721 -4.298963,-16.044589 3.241612,-5.614868 10.429303,-7.54088 16.043947,-4.299136 z" />
        <g
           style="opacity:0.6;display:inline;filter:url(#filter4195)"
           id="g4175"
           clip-path="url(#clipPath4187)"
           transform="matrix(0.91666667,0,0,0.91666667,-26,-78.5)">
          <path
             inkscape:connector-curvature="0"
             style="fill:#7137c8;fill-opacity:1;stroke:none"
             id="path4039"
             transform="matrix(1.5055399,0.86922388,-0.95672979,1.6571045,27.560302,21.500167)"
             d="m 60.947452,57.784124 a 20.708128,18.814091 0 0 1 -2.615496,2.905857 L 43.689098,47.38641 z" />
          <path
             inkscape:connector-curvature="0"
             style="fill:#00ccff;fill-opacity:1;stroke:none"
             id="path4041"
             transform="matrix(1.6792116,0.4499434,-0.49523981,1.8482599,-1.8956092,30.759984)"
             d="m 60.779363,58.010828 a 20.708128,18.814091 0 0 1 -3.384016,3.478847 L 43.689098,47.38641 z" />
          <path
             inkscape:connector-curvature="0"
             style="fill:#ffcc00;fill-opacity:1;stroke:none"
             id="path4043"
             transform="matrix(1.7384478,0,-6.0266211e-8,1.9134595,-27.951218,47.328031)"
             d="m 62.72377,54.795738 a 20.708128,18.814091 0 0 1 -2.259683,3.622054 L 43.689098,47.38641 z" />
          <path
             inkscape:connector-curvature="0"
             style="fill:#ff0000;fill-opacity:1;stroke:none"
             id="path4045"
             transform="matrix(1.6792116,-0.4499434,0.4952397,1.84826,-48.830877,70.075223)"
             d="m 61.622863,56.793455 a 20.708128,18.814091 0 0 1 -1.699251,2.272761 L 43.689098,47.38641 z" />
          <path
             inkscape:connector-curvature="0"
             style="fill:#00ff00;fill-opacity:1;stroke:none"
             id="path4144"
             transform="matrix(1.6792116,0.4499434,-0.49523981,1.8482599,-1.8956092,30.759984)"
             d="m 63.123303,53.883448 a 20.708128,18.814091 0 0 1 -2.370014,4.161918 L 43.689098,47.38641 z" />
          <path
             inkscape:connector-curvature="0"
             style="fill:#7137c8;fill-opacity:1;stroke:none"
             id="path4155"
             transform="matrix(-1.5055399,-0.86922388,0.95672979,-1.6571045,68.439684,254.49984)"
             d="m 60.947452,57.784124 a 20.708128,18.814091 0 0 1 -2.615496,2.905857 L 43.689098,47.38641 z" />
          <path
             inkscape:connector-curvature="0"
             style="fill:#00ccff;fill-opacity:1;stroke:none"
             id="path4157"
             transform="matrix(-1.6792116,-0.4499434,0.49523981,-1.8482599,97.895595,245.24003)"
             d="m 60.779363,58.010828 a 20.708128,18.814091 0 0 1 -3.384016,3.478847 L 43.689098,47.38641 z" />
          <path
             inkscape:connector-curvature="0"
             style="fill:#ffcc00;fill-opacity:1;stroke:none"
             id="path4159"
             transform="matrix(-1.7384478,0,6.0266211e-8,-1.9134595,123.9512,228.67198)"
             d="m 62.72377,54.795738 a 20.708128,18.814091 0 0 1 -2.259683,3.622054 L 43.689098,47.38641 z" />
          <path
             inkscape:connector-curvature="0"
             style="fill:#ff0000;fill-opacity:1;stroke:none"
             id="path4161"
             transform="matrix(-1.6792116,0.4499434,-0.4952397,-1.84826,144.83086,205.92479)"
             d="m 61.622863,56.793455 a 20.708128,18.814091 0 0 1 -1.699251,2.272761 L 43.689098,47.38641 z" />
          <path
             inkscape:connector-curvature="0"
             style="fill:#00ff00;fill-opacity:1;stroke:none"
             id="path4163"
             transform="matrix(-1.6792116,-0.4499434,0.49523981,-1.8482599,97.895595,245.24003)"
             d="m 63.123303,53.883448 a 20.708128,18.814091 0 0 1 -2.370014,4.161918 L 43.689098,47.38641 z" />
        </g>
      </g>
      <path
         inkscape:connector-curvature="0"
         style="opacity:0.6;fill:none;stroke:url(#linearGradient3951);stroke-width:7.32994747;stroke-linecap:round;stroke-linejoin:miter;stroke-miterlimit:4;stroke-opacity:1;stroke-dasharray:none;stroke-dashoffset:0;display:inline"
         id="path3352"
         transform="matrix(0,0.12447512,-0.14952564,0,57.258424,40.346265)"
         d="m 92.579506,61.92226 a 32.685513,27.208481 0 1 1 -65.371025,0 32.685513,27.208481 0 1 1 65.371025,0 z" />
      <path
         style="font-size:medium;font-style:normal;font-variant:normal;font-weight:normal;font-stretch:normal;text-indent:0;text-align:start;text-decoration:none;line-height:normal;letter-spacing:normal;word-spacing:normal;text-transform:none;direction:ltr;block-progression:tb;writing-mode:lr-tb;text-anchor:start;opacity:0.5;color:#000000;fill:url(#linearGradient3970);fill-opacity:1;stroke:none;stroke-width:3.23149872;marker:none;visibility:visible;display:inline;overflow:visible;enable-background:accumulate;font-family:Abandoned Bitplane;-inkscape-font-specification:Abandoned Bitplane"
         id="path3942"
         inkscape:connector-curvature="0"
         d="m 57.777126,47.805036 c 0,-5.302035 -4.330452,-9.687945 -9.78283,-9.687945 -5.452378,0 -9.772231,4.38591 -9.772231,9.687945 0,5.302035 4.319853,9.679122 9.772231,9.679122 5.452378,0 9.78283,-4.377087 9.78283,-9.679122 z m -1.102291,0 c 0,4.891566 -3.939727,8.770325 -8.680539,8.770325 -4.740812,0 -8.66994,-3.878759 -8.66994,-8.770325 0,-4.891566 3.929128,-8.779149 8.66994,-8.779149 4.740812,0 8.680539,3.887583 8.680539,8.779149 z" />
      <path
         style="opacity:0.6;fill-rule:evenodd;display:inline"
         id="path3745"
         inkscape:connector-curvature="0"
         d="m 44.751956,65 -4.76434,0.01045 -3.583985,0 -0.364836,1.477808 2.714814,0.01045 0.627734,0 c 1.742722,0 2.807566,0.684922 2.510936,1.885116 -0.320137,1.315271 -1.848745,1.89034 -3.460585,1.89034 l -0.600907,0 0.77796,-3.232377 -2.69872,0 -1.153528,4.720627 3.841517,0 c 2.880431,0 5.631325,-1.474953 6.105654,-3.37859 0.09462,-0.346388 0.08602,-1.214727 -0.139497,-1.733683 0,-0.02317 -0.01508,-0.03217 -0.02682,-0.07834 -0.0122,-0.01147 -0.02059,-0.09319 0.02682,-0.104435 0.02391,-0.01161 0.06873,0.03536 0.08049,0.047 0.02351,0.05768 0.03755,0.09922 0.03755,0.09922 l 2.441188,6.715414 6.223687,-6.830288 2.628972,0 0.633099,0 c 1.742721,0 2.806542,0.684921 2.521665,1.885115 -0.331888,1.315272 -1.859276,1.890341 -3.471313,1.890341 l -0.606274,0 0.783326,-3.232378 -2.704085,0 -1.148163,4.720628 3.841517,0 c 2.880831,0 5.643477,-1.474953 6.105651,-3.378591 0.47413,-1.892292 -1.565933,-3.373367 -4.458519,-3.373367 l -5.724719,0 c 0,0 -1.518048,1.743671 -1.802723,2.07833 -1.50526,1.765003 -1.781741,2.238536 -1.829549,2.365535 0.01192,-0.127004 -0.04668,-0.597959 -0.686753,-2.386422 -0.1775,-0.484636 -0.718944,-2.057443 -0.718944,-2.057443 l -1.958314,0 0,-0.01045 z m 2.468013,8.355092 C 39.917389,73.355092 34,74.173959 34,75.177547 34,76.192958 39.917389,77 47.219969,77 c 7.302381,0 13.225336,-0.807042 13.225336,-1.822453 0,-1.003588 -5.922955,-1.822455 -13.225336,-1.822455 z m -0.477506,1.258486 c 1.671599,0 3.026001,0.266249 3.026001,0.600521 0,0.33466 -1.354402,0.610966 -3.026001,0.610966 -1.671803,0 -3.020635,-0.276306 -3.020635,-0.610966 0,-0.334272 1.348832,-0.600521 3.020635,-0.600521 z" />
      <path
         inkscape:connector-curvature="0"
         style="opacity:0.15;fill:none;stroke:#000000;stroke-width:6.06950235;stroke-linecap:round;stroke-linejoin:miter;stroke-miterlimit:4;stroke-opacity:1;stroke-dasharray:none;stroke-dashoffset:0;display:inline"
         id="path3304"
         transform="matrix(0.45095579,0,0,0.54175426,20.989915,14.354928)"
         d="m 92.579506,61.92226 a 32.685513,27.208481 0 1 1 -65.371025,0 32.685513,27.208481 0 1 1 65.371025,0 z" />
      <rect
         style="opacity:0.1;color:#000000;fill:#000000;fill-opacity:1;fill-rule:nonzero;stroke:none;stroke-width:1;marker:none;visibility:visible;display:inline;overflow:visible;enable-background:accumulate"
         id="rect4042"
         y="15"
         x="48"
         height="21"
         width="1" />
      <rect
         style="opacity:0.1;color:#000000;fill:#000000;fill-opacity:1;fill-rule:nonzero;stroke:none;stroke-width:1;marker:none;visibility:visible;display:inline;overflow:visible;enable-background:accumulate"
         id="rect4044"
         transform="matrix(0,-1,-1,0,0,0)"
         y="-81"
         x="-47"
         height="21"
         width="1" />
      <path
         style="opacity:0.5;fill:#ffffff;fill-opacity:1;fill-rule:evenodd;stroke:none;display:inline"
         id="path4046"
         inkscape:connector-curvature="0"
         d="m 48,14.8125 c -18.21479,0 -33,14.784477 -33,33 0,0.168604 -0.003,0.331993 0,0.5 0.26532,-17.987242 14.95074,-32.5 33,-32.5 18.04927,0 32.73468,14.512758 33,32.5 0.003,-0.168007 0,-0.331396 0,-0.5 0,-18.215523 -14.7852,-33 -33,-33 z" />
    </g>
    <rect
       ry="25"
       rx="25"
       id="rect3003"
       style="opacity:0.15;fill:#ffffff;fill-opacity:1"
       height="92"
       width="92"
       y="958.36218"
       x="-96"
       clip-path="url(#clipPath3009)"
       transform="translate(98,3.8281269e-7)" />
  </g>
</svg>
