<?xml version="1.0" encoding="UTF-8" standalone="no"?>
<!-- Created with Inkscape (http://www.inkscape.org/) -->

<svg
   xmlns:dc="http://purl.org/dc/elements/1.1/"
   xmlns:cc="http://creativecommons.org/ns#"
   xmlns:rdf="http://www.w3.org/1999/02/22-rdf-syntax-ns#"
   xmlns:svg="http://www.w3.org/2000/svg"
   xmlns="http://www.w3.org/2000/svg"
   xmlns:xlink="http://www.w3.org/1999/xlink"
   xmlns:sodipodi="http://sodipodi.sourceforge.net/DTD/sodipodi-0.dtd"
   xmlns:inkscape="http://www.inkscape.org/namespaces/inkscape"
   width="96"
   height="96"
   id="svg11037"
   version="1.1"
   inkscape:version="0.48.3.1 r9886"
   sodipodi:docname="devhelp.svg">
  <defs
     id="defs11039">
    <linearGradient
       y2="1046.1001"
       x2="47.999954"
       y1="962.62189"
       x1="47.999954"
       gradientTransform="matrix(1.15,0,0,1.15,-7.1999462,-150.65291)"
       gradientUnits="userSpaceOnUse"
       id="linearGradient3886"
       xlink:href="#linearGradient3795"
       inkscape:collect="always" />
    <linearGradient
       id="linearGradient3795">
      <stop
         style="stop-color:#13a6fd;stop-opacity:1;"
         offset="0"
         id="stop3797" />
      <stop
         style="stop-color:#2975b6;stop-opacity:1;"
         offset="1"
         id="stop3799" />
    </linearGradient>
    <linearGradient
       y2="1046.1001"
       x2="47.999954"
       y1="962.62189"
       x1="47.999954"
       gradientTransform="matrix(1.15,0,0,1.15,-7.1999462,-150.65292)"
       gradientUnits="userSpaceOnUse"
       id="linearGradient11642"
       xlink:href="#linearGradient5801"
       inkscape:collect="always" />
    <linearGradient
       id="linearGradient5801"
       y2="902.35999"
       gradientUnits="userSpaceOnUse"
       x2="48"
       gradientTransform="translate(0,-7.8516e-6)"
       y1="1052.4"
       x1="48">
      <stop
         id="stop3629"
         style="stop-color:#a91c1c"
         offset="0" />
      <stop
         id="stop3631"
         style="stop-color:#dd2c2c"
         offset="1" />
    </linearGradient>
    <linearGradient
       y2="902.35999"
       x2="48"
       y1="1052.4"
       x1="48"
       gradientTransform="translate(-82.345186,14.414615)"
       gradientUnits="userSpaceOnUse"
       id="linearGradient3039"
       xlink:href="#linearGradient5801"
       inkscape:collect="always" />
    <filter
       id="filter3850"
       color-interpolation-filters="sRGB">
      <feGaussianBlur
         id="feGaussianBlur3852"
         stdDeviation="0.46499996" />
    </filter>
    <linearGradient
       id="linearGradient6583"
       y2="8"
       gradientUnits="userSpaceOnUse"
       x2="16"
       gradientTransform="matrix(0.55816,0,0,0.65469,17.151,972.93)"
       y1="88"
       x1="16">
      <stop
         id="stop3642"
         style="stop-color:#1a1a1a"
         offset="0" />
      <stop
         id="stop3644"
         style="stop-color:#2a2a2a"
         offset="1" />
    </linearGradient>
    <linearGradient
       id="linearGradient6585"
       y2="45.969002"
       gradientUnits="userSpaceOnUse"
       x2="84"
       gradientTransform="translate(-57.375,968.11)"
       y1="62"
       x1="84">
      <stop
         id="stop3816"
         style="stop-color:#2499b6"
         offset="0" />
      <stop
         id="stop3818"
         style="stop-color:#57c3de"
         offset="1" />
    </linearGradient>
    <linearGradient
       id="linearGradient6587"
       y2="9.9687996"
       gradientUnits="userSpaceOnUse"
       x2="83"
       gradientTransform="translate(-57.375,968.11)"
       y1="26"
       x1="83">
      <stop
         id="stop3787"
         style="stop-color:#ff8e00"
         offset="0" />
      <stop
         id="stop3789-0"
         style="stop-color:#ffcc0a"
         offset="1" />
    </linearGradient>
    <linearGradient
       id="linearGradient6589"
       y2="28"
       gradientUnits="userSpaceOnUse"
       x2="84"
       gradientTransform="translate(-57.375,968.11)"
       y1="44"
       x1="84">
      <stop
         id="stop3808"
         style="stop-color:#4baa0c"
         offset="0" />
      <stop
         id="stop3810"
         style="stop-color:#66d819"
         offset="1" />
    </linearGradient>
    <clipPath
       clipPathUnits="userSpaceOnUse"
       id="clipPath3009">
      <path
         id="path3011"
         d="m -2,956.36218 -96,0 0,33.5624 96,25.68742 0,-59.24982 z"
         style="opacity:0.15;fill:#ffffff;fill-opacity:1;stroke:none"
         inkscape:connector-curvature="0" />
    </clipPath>
  </defs>
  <sodipodi:namedview
     id="base"
     pagecolor="#ffffff"
     bordercolor="#666666"
     borderopacity="1.0"
     inkscape:pageopacity="0.0"
     inkscape:pageshadow="2"
     inkscape:zoom="3.959798"
     inkscape:cx="33.538031"
     inkscape:cy="59.964634"
     inkscape:document-units="px"
     inkscape:current-layer="layer1"
     showgrid="false"
     inkscape:window-width="1280"
     inkscape:window-height="750"
     inkscape:window-x="0"
     inkscape:window-y="22"
     inkscape:window-maximized="1"
     showguides="true"
     inkscape:guide-bbox="true">
    <sodipodi:guide
       orientation="0,1"
       position="-24.748737,0"
       id="guide11064" />
    <sodipodi:guide
       orientation="0,1"
       position="-23.233509,96"
       id="guide11066" />
    <sodipodi:guide
       orientation="1,0"
       position="0,54.800776"
       id="guide11068" />
    <sodipodi:guide
       orientation="1,0"
       position="96,51.012704"
       id="guide11070" />
    <sodipodi:guide
       orientation="0,1"
       position="-18.94036,48"
       id="guide11072" />
    <sodipodi:guide
       orientation="1,0"
       position="48,79.296975"
       id="guide11074" />
    <sodipodi:guide
       orientation="1,0"
       position="2,75.508903"
       id="guide11076" />
    <sodipodi:guide
       orientation="0,1"
       position="-77.27667,2"
       id="guide11078" />
    <sodipodi:guide
       orientation="1,0"
       position="94,77.781746"
       id="guide11080" />
    <sodipodi:guide
       orientation="0,1"
       position="-65.912454,94"
       id="guide11082" />
  </sodipodi:namedview>
  <metadata
     id="metadata11042">
    <rdf:RDF>
      <cc:Work
         rdf:about="">
        <dc:format>image/svg+xml</dc:format>
        <dc:type
           rdf:resource="http://purl.org/dc/dcmitype/StillImage" />
        <dc:title />
      </cc:Work>
    </rdf:RDF>
  </metadata>
  <g
     inkscape:label="Layer 1"
     inkscape:groupmode="layer"
     id="layer1"
     transform="translate(0,-956.36218)">
    <rect
       x="2"
       y="958.36218"
       width="92"
       height="92"
       style="fill:url(#linearGradient11642);fill-opacity:1.0"
       id="rect3867"
       rx="25"
       ry="25" />
    <g
       transform="translate(4.499541,0.17224568)"
       id="g3041">
      <g
         transform="matrix(1.3398,0,0,1.3398,-23.036,940.18)"
         id="g3098">
        <path
           inkscape:connector-curvature="0"
           d="M 39.844,29.188 A 0.82494,0.82494 0 0 0 39.188,30 V 66 A 0.82494,0.82494 0 0 0 40,66.812 h 11.812 c 2.1121,0 4.0777,-0.41946 5.9062,-1.25 1.8505,-0.83386 3.4657,-2.0613 4.8125,-3.6875 1.3464,-1.6257 2.3985,-3.6219 3.1562,-5.9688 0.76401,-2.3842 1.125,-5.1232 1.125,-8.1875 -3.3e-5,-3.1316 -0.35941,-5.8448 -1.1562,-8.1875 a 0.82494,0.82494 0 0 0 0,-0.03125 c -0.79055,-2.3239 -1.9183,-4.2375 -3.375,-5.7812 -1.4541,-1.5409 -3.2169,-2.698 -5.2188,-3.4375 -1.9864,-0.73366 -4.1483,-1.0937 -6.5,-1.0938 h -10.562 a 0.82494,0.82494 0 0 0 -0.15625,0 z m 7.0625,7.4375 h 3.5312 c 1.304,2.8e-5 2.4633,0.20881 3.5,0.625 a 0.82494,0.82494 0 0 0 0,0.03125 c 1.0312,0.40914 1.9054,1.0259 2.6562,1.9062 0.73799,0.85019 1.353,1.997 1.7812,3.4062 0.43535,1.3908 0.65623,3.0872 0.65625,5.125 -2e-5,1.9863 -0.21053,3.7327 -0.625,5.1875 -0.40564,1.4696 -0.9827,2.6619 -1.6875,3.625 -0.69548,0.95203 -1.4822,1.6285 -2.4062,2.0938 -0.92289,0.47084 -1.9304,0.75001 -3.0312,0.75 h -4.375 v -22.75 z"
           style="opacity:0.3;fill:#ffaaaa;filter:url(#filter3850)"
           id="path3854" />
        <path
           inkscape:connector-curvature="0"
           d="m 66,47.732 c -3.2e-5,2.9979 -0.36574,5.638 -1.0971,7.9205 -0.73145,2.2654 -1.732,4.1647 -3.0016,5.6977 -1.2697,1.533 -2.7739,2.6913 -4.5127,3.4748 -1.7251,0.78353 -3.5881,1.1753 -5.5892,1.1753 h -11.799 v -36 h 10.557 c 2.2633,3.9e-5 4.3402,0.34924 6.2309,1.0476 1.8906,0.6984 3.5191,1.7715 4.8853,3.2193 1.3662,1.4479 2.4288,3.2875 3.1879,5.5188 0.759,2.231 1.139,4.88 1.139,7.946 m -6.1481,0 c -2.1e-5,-2.0951 -0.23462,-3.8921 -0.70382,-5.3911 -0.45543,-1.4989 -1.0972,-2.7253 -1.9252,-3.6792 -0.82805,-0.97087 -1.8217,-1.6863 -2.9809,-2.1462 -1.1455,-0.45987 -2.4151,-0.68982 -3.8089,-0.68985 h -4.3264 v 24.349 h 5.1752 c 1.2282,9e-6 2.3599,-0.26399 3.3949,-0.79205 1.0488,-0.52803 1.9527,-1.3116 2.7118,-2.3506 0.7728,-1.0561 1.3731,-2.3591 1.801,-3.9092 0.44159,-1.55 0.6624,-3.347 0.66242,-5.3911"
           style="fill:#ffffff"
           id="path3827" />
      </g>
      <g
         transform="matrix(1.0008,0,0,0.87758,-0.015941,123.1)"
         id="g6574">
        <path
           inkscape:connector-curvature="0"
           d="m 23.849,976.86 c -1.8553,0 -3.349,1.7518 -3.349,3.9281 v 47.138 c 0,2.176 1.4936,3.9281 3.349,3.9281 h 6.6979 v -54.994 H 23.849 z"
           style="fill:url(#linearGradient6583)"
           id="rect3635" />
        <rect
           x="21.625"
           y="1014.1"
           width="8"
           height="16"
           ry="2"
           rx="2"
           style="color:#000000;fill:url(#linearGradient6585)"
           id="rect3779" />
        <path
           inkscape:connector-curvature="0"
           d="m 21.625,1027.1 v 1 c 0,1.108 0.892,2 2,2 h 4 c 1.108,0 2,-0.892 2,-2 v -1 c 0,1.108 -0.892,2 -2,2 h -4 c -1.108,0 -2,-0.892 -2,-2 z"
           style="opacity:0.2;color:#000000"
           id="path3804" />
        <rect
           x="21.625"
           y="978.10999"
           width="8"
           height="16"
           ry="2"
           rx="2"
           style="color:#000000;fill:url(#linearGradient6587)"
           id="rect3775" />
        <path
           inkscape:connector-curvature="0"
           d="m 21.625,991.11 v 1 c 0,1.108 0.892,2 2,2 h 4 c 1.108,0 2,-0.892 2,-2 v -1 c 0,1.108 -0.892,2 -2,2 h -4 c -1.108,0 -2,-0.892 -2,-2 z"
           style="opacity:0.2;color:#000000"
           id="rect3793" />
        <rect
           x="21.625"
           y="996.10999"
           width="8"
           height="16"
           ry="2"
           rx="2"
           style="color:#000000;fill:url(#linearGradient6589)"
           id="rect3777" />
        <path
           inkscape:connector-curvature="0"
           d="m 21.625,1009.1 v 1 c 0,1.108 0.892,2 2,2 h 4 c 1.108,0 2,-0.892 2,-2 v -1 c 0,1.108 -0.892,2 -2,2 h -4 c -1.108,0 -2,-0.892 -2,-2 z"
           style="opacity:0.2;color:#000000"
           id="path3802" />
      </g>
    </g>
    <rect
       ry="25"
       rx="25"
       id="rect3003"
       style="opacity:0.15;fill:#ffffff;fill-opacity:1"
       height="92"
       width="92"
       y="958.36218"
       x="-96"
       clip-path="url(#clipPath3009)"
       transform="translate(98,3.8281269e-7)" />
  </g>
</svg>
