<?xml version="1.0" encoding="UTF-8" standalone="no"?>
<!-- Created with Inkscape (http://www.inkscape.org/) -->

<svg
   xmlns:dc="http://purl.org/dc/elements/1.1/"
   xmlns:cc="http://creativecommons.org/ns#"
   xmlns:rdf="http://www.w3.org/1999/02/22-rdf-syntax-ns#"
   xmlns:svg="http://www.w3.org/2000/svg"
   xmlns="http://www.w3.org/2000/svg"
   xmlns:xlink="http://www.w3.org/1999/xlink"
   xmlns:sodipodi="http://sodipodi.sourceforge.net/DTD/sodipodi-0.dtd"
   xmlns:inkscape="http://www.inkscape.org/namespaces/inkscape"
   width="96"
   height="96"
   id="svg11037"
   version="1.1"
   inkscape:version="0.48.3.1 r9886"
   sodipodi:docname="easytag.svg">
  <defs
     id="defs11039">
    <linearGradient
       y2="1046.1001"
       x2="47.999954"
       y1="962.62189"
       x1="47.999954"
       gradientTransform="matrix(1.15,0,0,1.15,-7.1999462,-150.65291)"
       gradientUnits="userSpaceOnUse"
       id="linearGradient3886"
       xlink:href="#linearGradient3795"
       inkscape:collect="always" />
    <linearGradient
       id="linearGradient3795">
      <stop
         style="stop-color:#13a6fd;stop-opacity:1;"
         offset="0"
         id="stop3797" />
      <stop
         style="stop-color:#2975b6;stop-opacity:1;"
         offset="1"
         id="stop3799" />
    </linearGradient>
    <linearGradient
       y2="1046.1001"
       x2="47.999954"
       y1="962.62189"
       x1="47.999954"
       gradientTransform="matrix(1.15,0,0,1.15,-7.1999462,-150.65292)"
       gradientUnits="userSpaceOnUse"
       id="linearGradient11642"
       xlink:href="#linearGradient3953"
       inkscape:collect="always" />
    <linearGradient
       x1="48"
       y1="90"
       x2="48"
       y2="5.9877172"
       id="linearGradient3812"
       xlink:href="#linearGradient3953"
       gradientUnits="userSpaceOnUse" />
    <linearGradient
       id="linearGradient3953">
      <stop
         id="stop3955"
         style="stop-color:#d78a26;stop-opacity:1"
         offset="0" />
      <stop
         id="stop3957"
         style="stop-color:#eaac5e;stop-opacity:1"
         offset="1" />
    </linearGradient>
    <linearGradient
       x1="36.357143"
       y1="6"
       x2="36.357143"
       y2="63.893143"
       id="linearGradient3188"
       xlink:href="#linearGradient3737"
       gradientUnits="userSpaceOnUse" />
    <linearGradient
       id="linearGradient3737">
      <stop
         id="stop3739"
         style="stop-color:#ffffff;stop-opacity:1"
         offset="0" />
      <stop
         id="stop3741"
         style="stop-color:#ffffff;stop-opacity:0"
         offset="1" />
    </linearGradient>
    <radialGradient
       cx="48"
       cy="90.171875"
       r="42"
       fx="48"
       fy="90.171875"
       id="radialGradient3619"
       xlink:href="#linearGradient3737"
       gradientUnits="userSpaceOnUse"
       gradientTransform="matrix(1.1573129,0,0,0.99590774,-7.5510206,0.19713193)" />
    <linearGradient
       id="linearGradient3142">
      <stop
         id="stop3144"
         style="stop-color:#ffffff;stop-opacity:1"
         offset="0" />
      <stop
         id="stop3146"
         style="stop-color:#ffffff;stop-opacity:0"
         offset="1" />
    </linearGradient>
    <linearGradient
       x1="59.445351"
       y1="69.246223"
       x2="59.445351"
       y2="13.154833"
       id="linearGradient3686"
       xlink:href="#linearGradient3680"
       gradientUnits="userSpaceOnUse"
       gradientTransform="matrix(0.97368421,0,0,0.9736825,1.2631579,1.2633047)" />
    <linearGradient
       id="linearGradient3680">
      <stop
         id="stop3682"
         style="stop-color:#ebebeb;stop-opacity:1"
         offset="0" />
      <stop
         id="stop3684"
         style="stop-color:#ffffff;stop-opacity:1"
         offset="1" />
    </linearGradient>
    <linearGradient
       x1="35.951328"
       y1="9.965951"
       x2="35.951328"
       y2="85.237114"
       id="linearGradient4430"
       xlink:href="#linearGradient4432"
       gradientUnits="userSpaceOnUse"
       gradientTransform="matrix(0.97368421,0,0,0.9736825,1.2631579,1.2633047)" />
    <linearGradient
       id="linearGradient4432">
      <stop
         id="stop4434"
         style="stop-color:#e7b67d;stop-opacity:0.71372551"
         offset="0" />
      <stop
         id="stop4436"
         style="stop-color:#e2ac6e;stop-opacity:1"
         offset="1" />
    </linearGradient>
    <linearGradient
       x1="48"
       y1="40"
       x2="60.594677"
       y2="87.003983"
       id="linearGradient3791"
       xlink:href="#linearGradient3785"
       gradientUnits="userSpaceOnUse"
       gradientTransform="matrix(0.97368421,0,0,0.9736825,1.2631579,1.2633047)" />
    <linearGradient
       id="linearGradient3785">
      <stop
         id="stop3787"
         style="stop-color:#b77223;stop-opacity:1"
         offset="0" />
      <stop
         id="stop3789"
         style="stop-color:#b27024;stop-opacity:1"
         offset="1" />
    </linearGradient>
    <linearGradient
       x1="10"
       y1="16.5"
       x2="23"
       y2="16.5"
       id="linearGradient3822"
       xlink:href="#linearGradient3816"
       gradientUnits="userSpaceOnUse"
       gradientTransform="matrix(0,-1,-1,0,33,33)" />
    <linearGradient
       id="linearGradient3816">
      <stop
         id="stop3818"
         style="stop-color:#e9e9e9;stop-opacity:1"
         offset="0" />
      <stop
         id="stop3820"
         style="stop-color:#828282;stop-opacity:1"
         offset="1" />
    </linearGradient>
    <linearGradient
       x1="10"
       y1="16.5"
       x2="23"
       y2="16.5"
       id="linearGradient3830"
       xlink:href="#linearGradient3816"
       gradientUnits="userSpaceOnUse"
       gradientTransform="matrix(0,1,-1,0,33,0)" />
    <linearGradient
       id="linearGradient3165">
      <stop
         id="stop3167"
         style="stop-color:#e9e9e9;stop-opacity:1"
         offset="0" />
      <stop
         id="stop3169"
         style="stop-color:#828282;stop-opacity:1"
         offset="1" />
    </linearGradient>
    <linearGradient
       x1="48"
       y1="20.220806"
       x2="48"
       y2="138.66119"
       id="linearGradient3613"
       xlink:href="#linearGradient3737"
       gradientUnits="userSpaceOnUse" />
    <linearGradient
       id="linearGradient3172">
      <stop
         id="stop3174"
         style="stop-color:#ffffff;stop-opacity:1"
         offset="0" />
      <stop
         id="stop3176"
         style="stop-color:#ffffff;stop-opacity:0"
         offset="1" />
    </linearGradient>
    <clipPath
       id="clipPath3613">
      <rect
         width="84"
         height="84"
         rx="6"
         ry="6"
         x="6"
         y="6"
         id="rect3615"
         style="fill:#ffffff;fill-opacity:1;fill-rule:nonzero;stroke:none" />
    </clipPath>
    <filter
       x="-0.192"
       y="-0.192"
       width="1.3839999"
       height="1.3839999"
       color-interpolation-filters="sRGB"
       id="filter3794">
      <feGaussianBlur
         id="feGaussianBlur3796"
         stdDeviation="5.28" />
    </filter>
    <clipPath
       clipPathUnits="userSpaceOnUse"
       id="clipPath3009">
      <path
         id="path3011"
         d="m -2,956.36218 -96,0 0,33.5624 96,25.68742 0,-59.24982 z"
         style="opacity:0.15;fill:#ffffff;fill-opacity:1;stroke:none"
         inkscape:connector-curvature="0" />
    </clipPath>
  </defs>
  <sodipodi:namedview
     id="base"
     pagecolor="#ffffff"
     bordercolor="#666666"
     borderopacity="1.0"
     inkscape:pageopacity="0.0"
     inkscape:pageshadow="2"
     inkscape:zoom="3.959798"
     inkscape:cx="33.538031"
     inkscape:cy="59.964634"
     inkscape:document-units="px"
     inkscape:current-layer="layer1"
     showgrid="false"
     inkscape:window-width="1280"
     inkscape:window-height="750"
     inkscape:window-x="0"
     inkscape:window-y="22"
     inkscape:window-maximized="1"
     showguides="true"
     inkscape:guide-bbox="true">
    <sodipodi:guide
       orientation="0,1"
       position="-24.748737,0"
       id="guide11064" />
    <sodipodi:guide
       orientation="0,1"
       position="-23.233509,96"
       id="guide11066" />
    <sodipodi:guide
       orientation="1,0"
       position="0,54.800776"
       id="guide11068" />
    <sodipodi:guide
       orientation="1,0"
       position="96,51.012704"
       id="guide11070" />
    <sodipodi:guide
       orientation="0,1"
       position="-18.94036,48"
       id="guide11072" />
    <sodipodi:guide
       orientation="1,0"
       position="48,79.296975"
       id="guide11074" />
    <sodipodi:guide
       orientation="1,0"
       position="2,75.508903"
       id="guide11076" />
    <sodipodi:guide
       orientation="0,1"
       position="-77.27667,2"
       id="guide11078" />
    <sodipodi:guide
       orientation="1,0"
       position="94,77.781746"
       id="guide11080" />
    <sodipodi:guide
       orientation="0,1"
       position="-65.912454,94"
       id="guide11082" />
  </sodipodi:namedview>
  <metadata
     id="metadata11042">
    <rdf:RDF>
      <cc:Work
         rdf:about="">
        <dc:format>image/svg+xml</dc:format>
        <dc:type
           rdf:resource="http://purl.org/dc/dcmitype/StillImage" />
        <dc:title />
      </cc:Work>
    </rdf:RDF>
  </metadata>
  <g
     inkscape:label="Layer 1"
     inkscape:groupmode="layer"
     id="layer1"
     transform="translate(0,-956.36218)">
    <rect
       x="2"
       y="958.36218"
       width="92"
       height="92"
       style="fill:url(#linearGradient11642);fill-opacity:1.0"
       id="rect3867"
       rx="25"
       ry="25" />
    <g
       id="layer4"
       transform="matrix(0.93237,0,0,0.93237,3.1758001,956.42217)">
      <path
         inkscape:connector-curvature="0"
         id="path4038"
         style="fill:#333333"
         d="m 20.062,42.688 c -0.36619,-0.0022 -0.5608,0.1466 -0.5625,0.4375 -4.08e-4,0.11633 0.04664,0.2018 0.125,0.28125 0.07837,0.07945 0.16778,0.12428 0.28125,0.125 0.0962,5e-4 0.20383,-0.0086 0.34375,-0.03125 0.06121,-0.01518 0.15876,-0.0321 0.28125,-0.03125 0.44591,0.0023 0.65985,0.32296 0.65625,0.9375 l -0.031,4.968 c -0.004,0.623 -0.21,0.94 -0.656,0.937 -0.087,0 -0.185,-0.006 -0.281,-0.031 -0.192,-0.017 -0.3,-0.031 -0.344,-0.031 -0.27104,-0.0015 -0.40455,0.13986 -0.40625,0.40625 -0.0018,0.30017 0.16352,0.4352 0.53125,0.4375 0.0088,1.18e-4 0.05015,-5.5e-5 0.09375,0 0.04384,-0.01053 0.08993,-2.13e-4 0.125,0 0.78798,-0.04367 1.5834,-0.0675 2.4062,-0.0625 0.54258,0.0033 1.1934,0.01025 1.9375,0.03125 0.74378,0.02171 1.0614,0.03181 1,0.03125 0.28006,0.0017 0.48863,0.02215 0.59375,0.03125 0.21002,0.01776 0.37232,0.03047 0.46875,0.03125 0.40255,0.0025 0.59135,-0.20332 0.59375,-0.59375 9.3e-4,-0.11629 0.0093,-0.30302 0,-0.53125 -0.0095,-0.2285 -0.03221,-0.3832 -0.03125,-0.5 9.7e-4,-0.14905 0.01858,-0.38011 0.03125,-0.6875 0.01269,-0.30713 -7.47e-4,-0.53792 0,-0.6875 0.0023,-0.38192 -0.13944,-0.5604 -0.46875,-0.5625 -0.31204,-0.0019 -0.46655,0.15809 -0.46875,0.53125 -7.6e-4,0.12481 -0.01353,0.31772 0,0.5625 0.01382,0.2448 0.03199,0.43794 0.03125,0.5625 -0.0022,0.39819 -0.11894,0.66885 -0.3125,0.8125 -0.19361,0.14442 -0.54595,0.22175 -1.0625,0.21875 l -1.781,-0.031 c -0.359,-0.002 -0.591,-0.035 -0.687,-0.094 -0.131,-0.083 -0.181,-0.261 -0.188,-0.594 0.001,-0.091 -0.024,-0.288 -0.031,-0.562 -0.0073,-0.22421 -5.69e-4,-0.39842 0,-0.53125 v -0.781 c 0.0014,-0.27337 0.03646,-0.44896 0.09375,-0.53125 0.05732,-0.0828 0.215,-0.1266 0.46875,-0.125 h 0.59375 c 0.49849,0.003 0.7521,0.20507 0.75,0.5625 -6.8e-4,0.09154 -0.0088,0.20015 -0.03125,0.375 -0.02268,0.17457 -0.03083,0.31469 -0.03125,0.40625 -0.0023,0.34916 0.13113,0.52945 0.4375,0.53125 0.31514,0.0019 0.46695,-0.13784 0.46875,-0.4375 5.8e-4,-0.10806 -0.0063,-0.25433 -0.03125,-0.4375 -0.03355,-0.22482 -0.0542,-0.37085 -0.0625,-0.4375 -0.03433,-0.42456 -0.03218,-0.73991 -0.03125,-0.90625 0.0017,-0.29116 0.0109,-0.61803 0.0625,-1 0.06005,-0.44896 0.09357,-0.71444 0.09375,-0.78125 0.0021,-0.35769 -0.15772,-0.52965 -0.46875,-0.53125 -0.31074,-0.0021 -0.46665,0.1676 -0.46875,0.5 -7.5e-4,0.12456 0.0107,0.2479 0.03125,0.40625 0.02038,0.15756 0.03174,0.3067 0.03125,0.40625 -0.0018,0.35745 -0.26887,0.53445 -0.8125,0.53125 h -0.53125 c -0.146,-10e-4 -0.252,-0.015 -0.312,-0.031 -0.155,-0.051 -0.221,-0.263 -0.219,-0.594 v -0.156 c 3e-4,-0.04978 -6.28e-4,-0.1342 0,-0.25 8.72e-4,-0.11603 -4.03e-4,-0.18372 0,-0.25 v -0.563 c 0.0024,-0.40875 0.18584,-0.66086 0.5625,-0.75 0.11374,-0.02451 0.47224,-0.03485 1.0938,-0.03125 0.94462,0.0058 1.5542,0.03223 1.7812,0.125 0.30508,0.12679 0.4418,0.55192 0.4375,1.25 v 0.656 c -0.0024,0.44074 0.15774,0.65445 0.46875,0.65625 0.31101,0.0018 0.46685,-0.1531 0.46875,-0.46875 6.8e-4,-0.11656 -0.03557,-0.28988 -0.0625,-0.53125 -0.01357,-0.1163 -0.0017,-0.3341 0,-0.625 9.7e-4,-0.22413 0.01152,-0.45289 0.03125,-0.71875 0.02655,-0.3567 0.0311,-0.58996 0.03125,-0.65625 0.0021,-0.38271 -0.20288,-0.5599 -0.65625,-0.5625 -0.11323,-4.3e-4 -0.26667,-0.0072 -0.40625,0 -0.39241,0.02144 -0.59515,0.0318 -0.65625,0.03125 l -3.1562,0.0625 h -0.125 c 0.08743,3.84e-4 -0.53633,-0.03439 -1.8438,-0.125 -0.12213,-0.0093 -0.179,9.9e-5 -0.1875,0 z m 51.532,0.062 c -1.1948,-0.0071 -2.1322,0.40073 -2.8438,1.2188 -0.71138,0.81881 -1.0854,1.9331 -1.0938,3.3125 -0.0079,1.2876 0.34486,2.3233 1.0312,3.125 0.68637,0.80191 1.5895,1.2122 2.7188,1.2188 0.90104,0.0055 1.6149,-0.22743 2.125,-0.65625 0.11447,-0.0988 0.26525,-0.27506 0.46875,-0.53125 -0.0106,0.18241 -0.02175,0.3316 -0.03125,0.40625 l -0.031,0.281 c -0.0016,0.29013 0.16238,0.4357 0.46875,0.4375 0.3159,0.0019 0.46655,-0.16193 0.46875,-0.5 7e-4,-0.09902 -0.01616,-0.23308 -0.03125,-0.40625 -0.0151,-0.17317 -0.03255,-0.37919 -0.03125,-0.59375 l 0.03125,-0.96875 c 0.005,-0.8082 0.17878,-1.2209 0.5625,-1.2188 0.02657,1.14e-4 0.08115,-7.3e-5 0.125,0 0.04309,1.7e-5 0.07621,2.2e-5 0.09375,0 0.05236,2e-4 0.11405,-6e-4 0.21875,0 0.12197,8.16e-4 0.21985,-0.04243 0.3125,-0.125 0.09163,-0.08264 0.15582,-0.16467 0.15625,-0.28125 0.0015,-0.27491 -0.18181,-0.4355 -0.53125,-0.4375 -0.13154,-4.7e-4 -0.23837,0.01539 -0.34375,0.03125 -0.48099,0.07257 -0.94638,0.1273 -1.375,0.125 -0.3324,-0.0021 -0.76186,-0.04754 -1.3125,-0.125 -0.14002,-0.01889 -0.26177,-0.03081 -0.375,-0.03125 -0.35871,-0.0022 -0.5606,0.14662 -0.5625,0.4375 -0.0016,0.28265 0.20439,0.40375 0.625,0.40625 0.07014,4.3e-4 0.18145,0.007 0.3125,0 0.1316,-0.0075 0.24259,-1.49e-4 0.3125,0 0.25326,0.0013 0.43106,0.04323 0.53125,0.15625 0.10015,0.11353 0.1269,0.31061 0.125,0.59375 -0.0039,0.69244 -0.1924,1.2206 -0.5625,1.5938 -0.36957,0.37293 -0.88812,0.5663 -1.5625,0.5625 -0.8755,-0.0055 -1.5406,-0.31798 -2.0312,-0.96875 -0.4906,-0.65129 -0.7569,-1.5634 -0.75,-2.7188 0.0062,-1.0888 0.26526,-1.9417 0.75,-2.5625 0.4837,-0.62061 1.1528,-0.9425 2,-0.9375 0.67306,0.0043 1.1982,0.19566 1.5938,0.53125 0.39553,0.33534 0.59705,0.76943 0.59375,1.3438 v 0.375 c -0.0024,0.40746 0.1611,0.6232 0.46875,0.625 0.32544,0.0021 0.46645,-0.18806 0.46875,-0.5625 -5.43e-4,-0.0746 0,-0.125 0,-0.125 -0.03935,-0.51574 -0.06335,-0.84191 -0.0625,-1 7.4e-4,-0.19938 0.03132,-0.38803 0.0625,-0.5625 l 0.093,-0.593 c 0.0096,-0.05813 0.03031,-0.13345 0.03125,-0.25 0.0016,-0.35747 -0.15284,-0.5606 -0.46875,-0.5625 -0.2896,-0.0018 -0.4357,0.13161 -0.4375,0.40625 3.4e-4,0.01679 0.01619,0.11479 0.03125,0.28125 -1.8e-4,0.01676 -0.0057,0.10204 0.03125,0.21875 -0.707,-0.628 -1.496,-0.964 -2.374,-0.969 z m -20.906,0.125 c -0.33191,-0.0018 -0.4977,0.1511 -0.5,0.5 4.2e-4,-0.06653 0.0053,0.12203 0.03125,0.5625 0.01343,0.22465 0.0013,0.44866 0,0.65625 -3.3e-4,0.10808 -0.0073,0.35132 -0.03125,0.75 -0.02334,0.26585 -0.03068,0.4547 -0.03125,0.5625 -0.0026,0.38242 0.17636,0.59175 0.5,0.59375 0.34119,0.002 0.497,-0.25774 0.5,-0.78125 8.4e-4,-0.13306 0.0088,-0.23756 0,-0.3125 l -0.0625,-0.46875 c -0.0083,-0.0749 -0.0011,-0.22938 0,-0.4375 0.0036,-0.58126 0.30774,-0.8787 0.9375,-0.875 l 0.40625,0.03125 c 0.63773,0.004 0.97215,0.28495 0.96875,0.875 l -0.03125,2.0312 v 3.0313 c -0.004,0.62303 -0.2509,0.9402 -0.6875,0.9375 -0.07016,-1.7e-4 -0.17241,-0.0098 -0.3125,-0.03125 -0.13987,-0.02094 -0.24261,-0.03084 -0.3125,-0.03125 -0.27955,-0.0016 -0.40425,0.10863 -0.40625,0.375 -0.0017,0.29064 0.17746,0.4355 0.5625,0.4375 0.01753,2.34e-4 0.05017,0.03094 0.09375,0.03125 0.03466,-0.0083 0.0672,-0.03162 0.09375,-0.03125 l 0.655,-0.092 c 0.25413,-0.03221 0.54234,-0.03335 0.875,-0.03125 0.30613,0.0015 0.59912,0.02754 0.84375,0.0625 l 0.625,0.09375 c 0.01753,2.4e-4 0.0495,-0.0089 0.09375,0 0.03456,1.75e-4 0.07622,-2.34e-4 0.09375,0 0.39404,0.0024 0.59185,-0.14662 0.59375,-0.4375 3.28e-4,-0.10808 -0.04227,-0.20148 -0.125,-0.28125 -0.08302,-0.07927 -0.19903,-0.12428 -0.3125,-0.125 -0.07042,-1.9e-4 -0.17229,0.01171 -0.3125,0.03125 -0.14049,0.0198 -0.24263,0.03191 -0.3125,0.03125 -0.447,-0.002 -0.661,-0.313 -0.657,-0.936 l 0.032,-4.219 0.062,-0.875 c 0.01904,-0.29919 0.07817,-0.52812 0.21875,-0.65625 0.14056,-0.12787 0.39536,-0.1895 0.71875,-0.1875 h 0.34375 c 0.68985,0.0039 1.0344,0.29887 1.0312,0.875 -0.0011,0.15033 -0.0047,0.35993 -0.03125,0.65625 -0.02632,0.29634 -0.03015,0.53716 -0.03125,0.6875 -0.0026,0.41776 0.13789,0.623 0.46875,0.625 0.34,0.002 0.53,-0.159 0.531,-0.5 0.001,-0.083 -0.031,-0.307 -0.062,-0.656 -0.025,-0.266 -0.032,-0.469 -0.031,-0.594 v -0.125 c 0.02686,-0.25734 0.07107,-0.49413 0.09375,-0.71875 0.02314,-0.22382 0.03065,-0.38546 0.03125,-0.46875 v -0.03125 c 0.0022,-0.3404 -0.21966,-0.4973 -0.65625,-0.5 -0.2009,-0.0011 -0.48577,0.01145 -0.84375,0.03125 -0.40158,0.01976 -0.67792,0.03214 -0.84375,0.03125 -0.7595,0.01014 -1.2314,10e-4 -1.4062,0 h -1.5 c -0.672,-0.038 -1.019,-0.063 -1.063,-0.064 -0.445,-0.029 -0.722,-0.03 -0.843,-0.031 z m 11.844,0 c -0.41082,-0.0023 -0.67038,0.18187 -0.8125,0.53125 l -2.5,6.2812 c -0.12433,0.3246 -0.19747,0.49612 -0.25,0.5625 -0.12404,0.17421 -0.29477,0.28265 -0.53125,0.28125 h -0.1875 c -0.03508,-0.0322 -0.08559,-0.06204 -0.15625,-0.0625 -0.33189,-0.0021 -0.4981,0.14739 -0.5,0.4375 -0.0017,0.2731 0.15909,0.40405 0.5,0.40625 0.11372,7.4e-4 0.3174,-0.0061 0.5625,-0.03125 l 0.53125,-0.0625 c 0.12165,-0.0126 0.34988,-0.0018 0.65625,0 0.27979,0.0019 0.47128,-0.0153 0.59375,0 l 0.65625,0.09375 c 0.12185,0.0168 0.21085,0.03081 0.28125,0.03125 0.39406,0.0022 0.59155,-0.13319 0.59375,-0.40625 0.0013,-0.28963 -0.17254,-0.4353 -0.53125,-0.4375 -0.07865,-5.3e-4 -0.18192,-0.01514 -0.34375,0 -0.16182,0.01511 -0.28784,0.03187 -0.375,0.03125 -0.34142,-0.0022 -0.53315,-0.14065 -0.53125,-0.40625 5.8e-4,-0.08303 0.02653,-0.15921 0.0625,-0.25 l 0.406,-0.968 c 0.10629,-0.25702 0.18443,-0.41105 0.25,-0.46875 0.0661,-0.05791 0.16892,-0.09505 0.34375,-0.09375 l 2.3438,0.03125 c 0.17457,0.0013 0.28711,0.02874 0.34375,0.0625 0.05589,0.03345 0.10497,0.11704 0.15625,0.25 l 0.46875,1.2188 c 0.06911,0.1825 0.12576,0.28056 0.125,0.3125 -0.0012,0.22411 -0.14946,0.34575 -0.4375,0.34375 -0.07893,-2.9e-4 -0.19072,-0.014 -0.34375,-0.03125 -0.15333,-0.01676 -0.29635,-0.03073 -0.375,-0.03125 -0.38478,-0.002 -0.561,0.12488 -0.5625,0.40625 -0.0015,0.28136 0.1813,0.4354 0.53125,0.4375 0.09566,7.2e-4 0.22226,-0.01642 0.40625,-0.03125 0.72696,-0.0597 1.2698,-0.0642 1.5938,-0.0625 0.27156,0.0016 0.66832,0.02766 1.2188,0.09375 0.15734,0.01834 0.2788,0.03075 0.375,0.03125 0.33345,0.0019 0.4986,-0.14735 0.5,-0.4375 0.0011,-0.27288 -0.16706,-0.40435 -0.5,-0.40625 l -0.345,0.032 c -0.03484,0.01093 -0.11787,3.88e-4 -0.1875,0 -0.22772,-0.0012 -0.378,-0.06207 -0.5,-0.1875 -0.121,-0.126 -0.259,-0.39 -0.406,-0.782 l -2.313,-6.187 c -0.13,-0.349 -0.41,-0.528 -0.813,-0.531 z m -0.0625,1.0312 1.1875,3.4375 c 0.01655,0.04995 1.61e-4,0.07725 0,0.09375 -6.6e-4,0.06625 -0.05153,0.09409 -0.15625,0.09375 h -2.0625 c -0.131,-9.52e-4 -0.219,-0.0502 -0.21875,-0.125 6.1e-4,-0.0085 0.01344,-0.01244 0.03125,-0.0625 l 1.2188,-3.4375 z m -31.062,0.75 c -0.69112,-0.0043 -1.2626,0.17093 -1.75,0.5 -0.48767,0.32931 -0.7471,0.72229 -0.75,1.1875 -0.0012,0.21586 0.0663,0.41217 0.21875,0.5625 0.15247,0.15008 0.3663,0.21725 0.59375,0.21875 0.19263,0.0013 0.34132,-0.04936 0.46875,-0.15625 0.12799,-0.10736 0.18656,-0.23965 0.1875,-0.40625 9.53e-4,-0.19885 -0.06532,-0.35385 -0.1875,-0.4375 -0.07867,-0.05031 -0.09381,-0.09198 -0.09375,-0.125 4.06e-4,-0.0913 0.05591,-0.16766 0.1875,-0.25 0.34224,-0.2054 0.7002,-0.3146 1.0938,-0.3125 0.44587,0.0028 0.81434,0.11578 1.0625,0.3125 0.24791,0.1967 0.34595,0.44085 0.34375,0.78125 -0.0021,0.35743 -0.08861,0.6186 -0.3125,0.75 -0.22363,0.13141 -0.70256,0.24229 -1.4375,0.3125 -0.51663,0.05529 -0.86068,0.08882 -1.0312,0.125 -0.17086,0.03667 -0.38805,0.12703 -0.625,0.25 -0.62298,0.3203 -0.9334,0.81119 -0.9375,1.5 -0.0033,0.55626 0.20234,1.009 0.625,1.3438 0.42242,0.33444 0.97858,0.4957 1.6875,0.5 0.9534,0.0057 1.675,-0.28759 2.125,-0.90625 0.16272,0.59018 0.59507,0.8706 1.3125,0.875 0.87524,0.0055 1.3215,-0.39061 1.3438,-1.1875 v -0.782 C 35.53515,48.91358 35.41112,48.7195 35.1264,48.718 34.85924,48.7162 34.72155,48.86171 34.72015,49.12425 V 49.718 c -0.004,0.524 -0.163,0.782 -0.47,0.78 -0.24525,-0.0015 -0.41799,-0.14746 -0.46875,-0.4375 -0.01679,-0.07449 -0.0024,-0.29036 0,-0.6875 v -2.5312 c 0.0087,-1.4483 -0.78308,-2.178 -2.375,-2.1875 z m 9.0312,0 c -0.15775,0.05709 -0.21748,0.20559 -0.21875,0.4375 v 0.0625 c -0.39072,-0.29113 -0.88439,-0.434 -1.4688,-0.4375 -0.74141,-0.0046 -1.348,0.17318 -1.8125,0.53125 -0.46447,0.35807 -0.71525,0.82576 -0.71875,1.4062 -0.0036,0.61351 0.24747,1.0338 0.71875,1.2812 0.47126,0.24767 1.1611,0.43464 2.0625,0.53125 0.945,0.09692 1.4096,0.40501 1.4062,0.96875 -0.0019,0.31488 -0.15615,0.57584 -0.4375,0.78125 -0.28113,0.20595 -0.63364,0.3151 -1.0625,0.3125 -0.59546,-0.0036 -1.0849,-0.11787 -1.4688,-0.34375 -0.38386,-0.22536 -0.58725,-0.51927 -0.59375,-0.875 -0.0068,-0.35601 -0.01485,-0.57309 -0.0625,-0.65625 -0.04791,-0.08318 -0.16014,-0.1239 -0.34375,-0.125 -0.2803,-0.0019 -0.4358,0.1466 -0.4375,0.4375 -7.4e-4,0.09953 0.02869,0.23147 0.0625,0.40625 0.03381,0.17478 0.03245,0.36316 0.03125,0.5625 -6.8e-4,0.11656 -0.01328,0.22714 -0.03125,0.34375 -0.05553,0.49005 -0.06284,0.71453 -0.0625,0.65625 -0.002,0.34119 0.1446,0.498 0.46875,0.5 0.2981,0.0019 0.46695,-0.13758 0.46875,-0.4375 4.95e-4,-0.07504 -6.01e-4,-0.13546 0,-0.21875 0.52976,0.39148 1.1508,0.58965 1.875,0.59375 0.77622,0.0048 1.3929,-0.19641 1.875,-0.5625 0.48207,-0.36609 0.7468,-0.84047 0.75,-1.4375 0.0059,-0.9784 -0.76289,-1.5817 -2.25,-1.7812 l -0.751,-0.094 c -0.77007,-0.10415 -1.1596,-0.40678 -1.1562,-0.9375 0.0016,-0.29038 0.16477,-0.55686 0.4375,-0.75 0.27274,-0.1934 0.59718,-0.28355 1,-0.28125 0.39404,0.0024 0.73902,0.10172 1.0312,0.28125 0.29222,0.17978 0.4302,0.40804 0.4375,0.65625 v 0.40625 c 0.0067,0.26493 0.16208,0.3734 0.4375,0.375 0.28393,0.0017 0.40455,-0.15231 0.40625,-0.46875 7.8e-4,-0.10004 0.02021,-0.2459 0,-0.4375 -0.021,-0.192 -0.033,-0.338 -0.032,-0.438 9.4e-4,-0.1666 0.0014,-0.33394 0.03125,-0.5 0.01549,-0.1996 0.03101,-0.32522 0.03125,-0.375 0.0017,-0.26639 -0.14893,-0.3732 -0.4375,-0.375 -0.06995,-4.11e-4 -0.13492,-0.01903 -0.1875,0 z m 2,0.28125 c -0.40257,-0.0023 -0.59225,0.15304 -0.59375,0.4375 -0.0015,0.26769 0.16236,0.40475 0.46875,0.40625 0.04356,5.7e-4 0.11428,-0.0096 0.25,-0.03125 0.13572,-0.02167 0.22863,-0.03144 0.28125,-0.03125 0.19263,0.0013 0.35342,0.18814 0.5,0.5625 l 0.15625,0.375 1.4375,3.4688 c 0.23306,0.56637 0.34505,0.98017 0.34375,1.1875 -0.0026,0.40667 -0.1891,0.7678 -0.5625,1.0938 -0.37389,0.32566 -0.78658,0.47155 -1.25,0.46875 -0.36748,-0.0023 -0.6203,-0.09825 -0.75,-0.28125 0.25631,-0.07307 0.3734,-0.23464 0.375,-0.5 8.7e-4,-0.16557 -0.05682,-0.29387 -0.1875,-0.40625 -0.1309,-0.11291 -0.29808,-0.1863 -0.5,-0.1875 -0.25401,-0.0016 -0.46654,0.08859 -0.625,0.25 -0.15844,0.16115 -0.21685,0.36714 -0.21875,0.625 -0.0019,0.36596 0.17029,0.67716 0.53125,0.9375 0.36151,0.25987 0.81019,0.40305 1.3438,0.40625 0.89176,0.0054 1.6198,-0.34289 2.2188,-1.0625 0.35248,-0.42215 0.72628,-1.1254 1.125,-2.0625 l 1.8125,-4.2188 c 0.17762,-0.42292 0.36491,-0.62593 0.53125,-0.625 0.04358,3.1e-4 0.10518,0.0034 0.21875,0.03125 0.04329,0.01858 0.13132,0.03086 0.21875,0.03125 0.28855,0.002 0.4357,-0.13446 0.4375,-0.40625 0.0017,-0.28032 -0.18626,-0.4351 -0.5625,-0.4375 -0.14856,-6.7e-4 -0.36726,0.02637 -0.65625,0.0625 -0.28893,0.03537 -0.50769,0.06317 -0.65625,0.0625 -0.14003,-8.3e-4 -0.28392,-0.0139 -0.40625,-0.03125 l -0.471,-0.063 c -0.122,-0.017 -0.197,-0.031 -0.25,-0.031 -0.37648,-0.0027 -0.59225,0.15304 -0.59375,0.4375 -0.0018,0.26793 0.14737,0.3734 0.4375,0.375 0.04358,3.1e-4 0.14065,0.0177 0.28125,0 0.06169,-0.01824 0.14453,-0.03191 0.25,-0.03125 0.20191,0.0014 0.31317,0.07742 0.3125,0.21875 -7e-4,0.06677 -0.01796,0.13351 -0.0625,0.25 l -1.625,4.156 -1.5,-4.219 c -0.03455,-0.10028 -0.06243,-0.18317 -0.0625,-0.25 9.58e-4,-0.1168 0.0645,-0.18839 0.1875,-0.1875 0.05262,1.9e-4 0.13607,0.01192 0.25,0.03125 0.11395,0.01908 0.19738,0.03106 0.25,0.03125 0.33319,0.0019 0.4984,-0.13006 0.5,-0.40625 0.0016,-0.27568 -0.16377,-0.40395 -0.53125,-0.40625 -0.08769,-4e-4 -0.25996,0.0044 -0.53125,0.03125 -0.35939,0.03569 -0.71584,0.0641 -1.0312,0.0625 -0.04358,-3.1e-4 -0.09497,-0.02245 -0.15625,-0.03125 -0.06087,-2.7e-4 -0.08525,9.9e-5 -0.09375,0 l -0.531,-0.062 c -0.07,-0.01 -0.181,-0.031 -0.312,-0.031 z m -9.6875,2.9688 v 0.875 c -0.01172,0.52985 -0.19244,0.94915 -0.53125,1.25 -0.341,0.3 -0.823,0.472 -1.409,0.469 -0.411,-0.002 -0.729,-0.097 -0.968,-0.281 -0.239,-0.184 -0.346,-0.436 -0.344,-0.75 0.0035,-0.60475 0.5065,-0.94618 1.5,-1.0312 0.54928,-0.04648 0.91107,-0.12247 1.125,-0.1875 0.21366,-0.0648 0.43227,-0.1794 0.625,-0.34375 z m -6.346,10.719 c -0.20159,-9.37e-4 -0.2803,0.06539 -0.28125,0.21875 -5.9e-4,0.06147 0.02185,0.11417 0.0625,0.15625 0.0407,0.04139 0.06527,0.06203 0.125,0.0625 0.05032,1.4e-4 0.1142,0.01323 0.1875,0 0.03207,-0.0085 0.09198,-0.0317 0.15625,-0.03125 0.23408,0.0012 0.34545,0.17718 0.34375,0.5 v 2.625 c -0.002,0.32699 -0.14164,0.47025 -0.375,0.46875 -0.04577,-1.7e-4 -0.07432,0.0145 -0.125,0 -0.10036,-0.009 -0.16477,-0.03135 -0.1875,-0.03125 -0.14181,-0.0012 -0.21804,0.0783 -0.21875,0.21875 -0.0012,0.15754 0.08455,0.24907 0.28125,0.25 0.01363,-6.3e-5 0.03945,-2.68e-4 0.0625,0 0.02303,-0.0042 0.0531,-0.03158 0.0625,-0.03125 l 0.312,-0.031 c 0.15077,-0.02122 0.30752,-0.03255 0.5,-0.03125 0.13275,8.5e-4 0.25573,0.01319 0.375,0.03125 l 0.375,0.0625 c 0.01364,-1e-4 0.01342,-0.0048 0.03125,0 0.02305,2.67e-4 0.0527,-8e-6 0.0625,0 0.20122,0.0013 0.31162,-0.09279 0.3125,-0.25 0.001,-0.14008 -0.07691,-0.18669 -0.21875,-0.1875 -0.03703,-2.3e-4 -0.10022,-0.01326 -0.1875,0 -0.05972,0.0089 -0.11994,0.03178 -0.15625,0.03125 -0.23408,-0.0012 -0.34575,-0.17266 -0.34375,-0.5 l 0.03125,-2.625 c 0.0017,-0.32282 0.11039,-0.47025 0.34375,-0.46875 0.0643,10e-5 0.09317,-0.0093 0.125,0 0.0773,0.01361 0.1421,0.03077 0.1875,0.03125 0.05974,4.7e-4 0.11449,-0.02148 0.15625,-0.0625 0.04109,-0.04142 0.06225,-0.09476 0.0625,-0.15625 9.47e-4,-0.15337 -0.07966,-0.24906 -0.28125,-0.25 -0.02727,10e-5 -0.05709,0.02695 -0.09375,0.03125 l -0.313,0.032 c -0.1696,0.02059 -0.32689,0.03171 -0.46875,0.03125 -0.14671,-0.0012 -0.30044,-0.01261 -0.4375,-0.03125 l -0.374,-0.062 c -0.037,-0.0055 -0.06651,2.21e-4 -0.09375,0 z m 2.6562,0.03125 c -0.20649,-9.41e-4 -0.31168,0.06713 -0.3125,0.21875 -0.0013,0.13866 0.07691,0.18669 0.21875,0.1875 0.0412,5.3e-4 0.10558,0.01156 0.1875,0 0.05542,-0.0076 0.08377,-1.83e-4 0.125,0 0.23405,0.0015 0.34575,0.14141 0.34375,0.46875 v 2.625 c -0.002,0.32699 -0.11004,0.5015 -0.34375,0.5 -0.0639,-7.8e-4 -0.12444,-0.02165 -0.15625,-0.03125 -0.0734,-0.01439 -0.13718,1.41e-4 -0.1875,0 -0.06008,-5e-4 -0.11481,0.02111 -0.15625,0.0625 -0.04112,0.04176 -0.06228,0.0951 -0.0625,0.15625 -5.99e-4,0.15338 0.11545,0.21779 0.3125,0.21875 0.01398,-3.8e-5 0.0082,-2.68e-4 0.03125,0 0.02303,-0.0043 0.0534,4.2e-5 0.0625,0 l 0.345,-0.062 c 0.0963,-0.01228 0.19213,-8.21e-4 0.34375,0 0.17432,0.0011 0.3392,0.01718 0.5,0.03125 l 0.5,0.03125 c 0.10522,0.0094 0.21154,-6.55e-4 0.3125,0 0.49955,0.0032 0.92678,-0.08668 1.2812,-0.28125 0.29496,-0.15938 0.5164,-0.40867 0.6875,-0.75 0.17249,-0.34123 0.2471,-0.72867 0.25,-1.1562 0.0021,-0.4839 -0.10137,-0.91405 -0.3125,-1.2812 -0.21145,-0.36758 -0.47786,-0.59949 -0.84375,-0.75 -0.27934,-0.1149 -0.64503,-0.1849 -1.0625,-0.1875 -0.14221,-4.9e-4 -0.25647,-0.0084 -0.34375,0 l -0.4375,0.0625 c -0.12884,0.01271 -0.24677,5.29e-4 -0.375,0 -0.157,0 -0.332,-0.012 -0.469,-0.03 l -0.344,-0.03 c -0.03703,-0.0051 -0.07105,2.43e-4 -0.09375,0 z m 5.5625,0.03125 c -0.1824,-6e-4 -0.29803,0.0031 -0.34375,0.03125 -0.04607,0.02813 -0.06166,0.10068 -0.0625,0.21875 -10e-5,0.07409 5.72e-4,0.15763 0,0.21875 1e-4,0.06152 7.97e-4,0.15898 0,0.28125 -3.2e-4,0.05275 0.0077,0.11201 0,0.21875 -0.0081,0.10706 -0.03096,0.1976 -0.03125,0.25 -9.75e-4,0.18762 0.0942,0.28015 0.25,0.28125 0.15999,0.0011 0.21735,-0.11598 0.21875,-0.34375 3.9e-4,-0.04401 0.0086,-0.10404 0,-0.1875 -0.0087,-0.08311 -1.1e-5,-0.14381 0,-0.1875 7.33e-4,-0.1359 0.04155,-0.2153 0.15625,-0.25 0.05992,-0.02152 0.19613,-0.03225 0.375,-0.03125 h 1.5938 l -1.4375,1.3438 c -0.07387,0.06945 -0.12506,0.13507 -0.125,0.1875 -8.64e-4,0.11353 0.04657,0.15532 0.15625,0.15625 0.03706,-1.2e-4 0.08312,0.0089 0.125,0 0.19264,-0.03955 0.38361,-0.0632 0.5625,-0.0625 0.67877,0.0043 1.0029,0.27637 1,0.84375 -0.002,0.3221 -0.09927,0.60684 -0.34375,0.8125 -0.24414,0.20569 -0.55709,0.28395 -0.9375,0.28125 -0.33993,-0.0018 -0.65725,-0.06131 -0.90625,-0.21875 -0.24932,-0.15782 -0.34515,-0.3501 -0.34375,-0.5625 v -0.0625 h 0.0625 c 0.26935,0.0016 0.40485,-0.09521 0.40625,-0.3125 5.37e-4,-0.109 -0.05057,-0.18206 -0.125,-0.25 -0.07549,-0.06766 -0.16214,-0.12408 -0.28125,-0.125 -0.18307,-9.96e-4 -0.34398,0.07853 -0.46875,0.21875 -0.12445,0.14059 -0.186,0.3269 -0.1875,0.53125 -0.002,0.35669 0.18856,0.63564 0.53125,0.875 0.34274,0.23866 0.76769,0.3721 1.2812,0.375 0.55965,0.0034 1.0178,-0.14771 1.375,-0.4375 0.35753,-0.29011 0.52825,-0.66283 0.53125,-1.125 0.0016,-0.3707 -0.12666,-0.66707 -0.375,-0.90625 -0.24834,-0.23918 -0.54797,-0.3727 -0.9375,-0.375 -0.01818,8.5e-5 -0.05287,1.58e-4 -0.09375,0 -0.0454,-4.84e-4 -0.09775,2.21e-4 -0.125,0 l 1.2812,-1.1562 c 0.1151,-0.10317 0.15535,-0.18171 0.15625,-0.28125 8.25e-4,-0.15651 -0.10493,-0.2487 -0.375,-0.25 -0.14601,-0.0011 -0.29632,-0.0025 -0.40625,0 -0.21961,0.0065 -0.37723,6.71e-4 -0.46875,0 h -1.6875 z m 15.781,0.03125 c -0.22986,-0.0016 -0.34301,0.07306 -0.34375,0.21875 -7.62e-4,0.14114 0.08022,0.1864 0.25,0.1875 0.03671,-1.5e-4 0.08916,0.01437 0.15625,0 0.0667,-0.01368 0.11959,-0.0318 0.15625,-0.03125 0.10585,6.59e-4 0.16511,0.08362 0.1875,0.21875 0.0097,0.03984 0.0011,0.13818 0,0.3125 v 0.65625 c -0.22275,-0.33694 -0.5455,-0.4972 -1,-0.5 -0.46744,-0.0027 -0.84362,0.15391 -1.125,0.46875 -0.2817,0.31446 -0.4351,0.72278 -0.4375,1.25 -0.0035,0.5226 0.12423,0.95681 0.40625,1.2812 0.28207,0.32375 0.65791,0.46615 1.125,0.46875 0.46252,0.003 0.8184,-0.1308 1.0625,-0.4375 v 0.125 c -0.0012,0.15753 0.06382,0.24945 0.1875,0.25 0.04158,2.1e-4 0.10008,-0.01818 0.15625,-0.03125 0.09145,-0.0081 0.14264,-2.84e-4 0.15625,0 0.04543,1.4e-4 0.12416,0.01987 0.21875,0.03125 0.09352,0.01166 0.14106,-5.6e-4 0.1875,0 0.20683,9.66e-4 0.3113,-0.071 0.3125,-0.21875 1.93e-4,-0.14294 -0.07672,-0.21776 -0.25,-0.21875 -0.02864,-3.2e-4 -0.07992,0.02455 -0.15625,0.03125 -0.03232,0.0071 -0.09545,2e-4 -0.15625,0 -0.087,10e-4 -0.131,-0.022 -0.154,-0.092 -0.024,-0.07 -0.029,-0.275 -0.032,-0.563 v -1.7188 c 5.4e-4,-0.1139 0.01964,-0.28135 0.03125,-0.5 0.01643,-0.30987 0.03145,-0.47377 0.03125,-0.5 0.005,-0.21843 -0.0037,-0.33074 0,-0.34375 v -0.09375 c 0.0014,-0.17464 -0.05863,-0.2487 -0.1875,-0.25 -0.04158,-2.1e-4 -0.10881,-0.01039 -0.1875,0 -0.07797,0.01005 -0.14593,0.03146 -0.1875,0.03125 -0.0045,-3.2e-4 -0.07141,-0.01955 -0.21875,-0.03125 -0.09598,-0.01145 -0.15082,2.04e-4 -0.1875,0 z m -19.405,0.376 c 0.28437,0.0017 0.51705,0.03619 0.71875,0.09375 0.31582,0.08888 0.57056,0.2598 0.75,0.5625 0.17971,0.30377 0.28365,0.69005 0.28125,1.125 -0.0035,0.5558 -0.16828,1.0065 -0.46875,1.3438 -0.24889,0.28119 -0.63694,0.40965 -1.1875,0.40625 -0.31686,-0.0019 -0.52512,-0.01371 -0.59375,-0.03125 -0.20613,-0.0446 -0.314,-0.1752 -0.3125,-0.375 l 0.03125,-2.75 c 9.46e-4,-0.18237 0.0446,-0.27357 0.125,-0.3125 0.08105,-0.03818 0.29362,-0.0646 0.65625,-0.0625 z m 10.469,0.625 c -0.36263,-0.0021 -0.65049,0.07695 -0.90625,0.25 -0.25543,0.17342 -0.40505,0.38079 -0.40625,0.625 -8.64e-4,0.11352 0.04472,0.23365 0.125,0.3125 0.07958,0.0788 0.19269,0.09278 0.3125,0.09375 0.10136,-2e-5 0.18304,-0.0065 0.25,-0.0625 0.06703,-0.05702 0.09338,-0.1314 0.09375,-0.21875 5.9e-4,-0.10481 -0.02911,-0.17494 -0.09375,-0.21875 -0.04108,-0.02638 -0.06306,-0.04507 -0.0625,-0.0625 -9e-6,-0.04824 0.02492,-0.11299 0.09375,-0.15625 0.18013,-0.10826 0.38729,-0.15755 0.59375,-0.15625 0.23338,0.0011 0.40137,0.05285 0.53125,0.15625 0.1299,0.10305 0.21947,0.25826 0.21875,0.4375 -0.0016,0.18721 -0.06994,0.30556 -0.1875,0.375 -0.11681,0.0688 -0.36392,0.11914 -0.75,0.15625 -0.27049,0.02868 -0.47273,0.04382 -0.5625,0.0625 -0.08948,0.0194 -0.18829,0.06023 -0.3125,0.125 -0.32634,0.16794 -0.4976,0.45059 -0.5,0.8125 -0.0016,0.29242 0.12191,0.5121 0.34375,0.6875 0.22147,0.17572 0.50328,0.27925 0.875,0.28125 0.50062,0.003 0.88909,-0.17594 1.125,-0.5 0.0855,0.31129 0.31089,0.46665 0.6875,0.46875 0.45902,0.0031 0.67687,-0.17582 0.6875,-0.59375 l 0.031,-0.374 v -0.03125 c 0.0015,-0.20924 -0.10014,-0.34275 -0.25,-0.34375 -0.14079,-7.37e-4 -0.18662,0.08076 -0.1875,0.21875 v 0.3125 c -0.0017,0.27563 -0.08896,0.40745 -0.25,0.40625 -0.12892,-5.79e-4 -0.22363,-0.06621 -0.25,-0.21875 -0.0087,-0.03907 -0.0011,-0.16573 0,-0.375 v -1.3125 c 0.0043,-0.76125 -0.41541,-1.1512 -1.25,-1.1562 z m 4.5625,0.03125 c -0.45971,-0.0032 -0.81511,0.16994 -1.0938,0.5 v -0.1875 c 6.08e-4,-0.13416 -0.086,-0.2179 -0.21875,-0.21875 -0.0045,-3.3e-4 -0.0686,0.02062 -0.1875,0.03125 -0.05502,0.01171 -0.11448,3.83e-4 -0.1875,0 l -0.25,-0.03125 c -0.01817,-0.0048 -0.03419,-5.1e-5 -0.0625,0 -0.20539,-0.0016 -0.3114,0.07309 -0.3125,0.21875 -4.15e-4,0.14117 0.08231,0.21782 0.25,0.21875 0.03283,2.8e-4 0.09251,-0.01978 0.15625,-0.03125 0.06299,-0.01082 0.09179,4.7e-5 0.125,0 0.07438,8.3e-4 0.12632,0.0076 0.15625,0.0625 0.02991,0.05528 0.054,0.16405 0.0625,0.3125 v 1.75 c -0.0064,0.25258 -0.07902,0.376 -0.21875,0.375 -0.0608,-2e-4 -0.1241,0.01262 -0.1875,0 -0.06342,-0.01226 -0.10195,-0.03098 -0.125,-0.03125 -0.14986,-10e-4 -0.24904,0.07972 -0.25,0.21875 -8.93e-4,0.14778 0.11933,0.21735 0.3125,0.21875 0.02725,2.3e-4 0.14162,-0.01021 0.34375,-0.03125 0.16023,-0.01672 0.27821,-0.0316 0.375,-0.03125 0.12366,8.9e-4 0.2427,0.01731 0.34375,0.03125 0.20175,0.02786 0.30707,0.03105 0.34375,0.03125 0.18339,0.0014 0.28015,-0.07763 0.28125,-0.21875 0.0011,-0.14566 -0.07656,-0.21791 -0.21875,-0.21875 -0.04088,-1.5e-4 -0.09196,0.01702 -0.15625,0.03125 -0.06426,0.01391 -0.11954,0.03111 -0.15625,0.03125 -0.07337,-4.08e-4 -0.09823,-0.05526 -0.125,-0.125 -0.02743,-0.07014 -0.0638,-0.18322 -0.0625,-0.375 v -0.875 c 0.0023,-0.4091 0.07672,-0.70581 0.1875,-0.875 0.16117,-0.24733 0.41512,-0.377 0.78125,-0.375 0.19178,0.0013 0.38127,0.05524 0.53125,0.15625 0.13697,0.09238 0.21062,0.24019 0.25,0.40625 0.02302,0.08729 0.03325,0.23788 0.03125,0.46875 v 1.2188 c -0.01068,0.23968 -0.07606,0.37571 -0.1875,0.375 -0.02342,5e-5 -0.06762,-0.01471 -0.15625,-0.03125 -0.04621,-0.0086 -0.088,-0.03067 -0.125,-0.03125 -0.15897,-6.54e-4 -0.249,0.08391 -0.25,0.21875 -8.47e-4,0.15197 0.09853,0.21778 0.28125,0.21875 0.01433,-2e-5 0.11437,-0.0055 0.34375,-0.03125 0.07784,-0.0084 0.19304,-9.44e-4 0.3125,0 0.12858,5.5e-4 0.25941,0.0126 0.40625,0.03125 0.14614,0.01863 0.2482,-1.02e-4 0.3125,0 0.07722,3.4e-4 0.16355,-0.01931 0.21875,-0.0625 0.0548,-0.04252 0.06235,-0.09125 0.0625,-0.15625 5.9e-4,-0.05658 -0.0189,-0.08515 -0.0625,-0.125 -0.043,-0.038 -0.097,-0.061 -0.156,-0.061 -0.02727,1.3e-4 -0.05826,-0.0095 -0.125,0 -0.06677,0.0098 -0.11537,0.03141 -0.15625,0.03125 -0.10026,-6.04e-4 -0.16537,-0.10161 -0.1875,-0.25 -0.0044,-0.03527 -0.03255,-0.12491 -0.03125,-0.3125 l 0.03125,-1.25 c 0.002,-0.24 -0.031,-0.445 -0.093,-0.594 -0.078,-0.179 -0.249,-0.316 -0.469,-0.437 -0.221,-0.122 -0.439,-0.186 -0.688,-0.188 z m 10.125,0.0625 c -0.22047,-9.02e-4 -0.38352,0.02264 -0.53125,0.09375 -0.14736,0.07079 -0.30217,0.21942 -0.46875,0.40625 v -0.1875 c 3.52e-4,-0.1258 -0.07815,-0.18694 -0.1875,-0.1875 h -0.1875 c -0.0049,-4e-6 -0.004,2.22e-4 -0.03125,0 -0.02724,-2.21e-4 -0.07068,-8e-5 -0.09375,0 -0.06393,-4.3e-4 -0.13126,0.0081 -0.21875,0 -0.08682,-0.0076 -0.13686,-0.03074 -0.1875,-0.03125 -0.1883,-10e-4 -0.2807,0.07095 -0.28125,0.21875 -9.85e-4,0.13938 0.08022,0.21765 0.25,0.21875 0.02797,-8e-5 0.04735,0.0085 0.09375,0 0.10964,-0.02283 0.169,-0.03154 0.1875,-0.03125 0.09152,6.72e-4 0.16823,0.03379 0.1875,0.125 0.02056,0.09201 0.03285,0.31714 0.03125,0.6875 l -0.03125,1 v 0.375 c -0.01088,0.21346 -0.0621,0.3135 -0.1875,0.3125 -0.01433,0 -0.02665,0.0038 -0.03125,0 l -0.189,-0.03 c -0.0094,-3e-4 -0.01302,0.0041 -0.03125,0 -0.01853,6e-5 -0.02185,-1.7e-5 -0.03125,0 -0.17748,-9.42e-4 -0.27935,0.05063 -0.28125,0.1875 -0.0014,0.15018 0.09853,0.24903 0.28125,0.25 0.04192,2.4e-4 0.14718,-0.0147 0.34375,-0.03125 0.14766,-0.012 0.25732,-0.03174 0.3125,-0.03125 0.1097,5.9e-4 0.25,0.01227 0.40625,0.03125 0.11433,0.01385 0.20267,0.03046 0.28125,0.03125 0.20614,9.16e-4 0.311,-0.07766 0.3125,-0.21875 2.1e-5,-0.14539 -0.10241,-0.21735 -0.28125,-0.21875 -0.01364,6.3e-5 -0.01272,-5.9e-5 -0.03125,0 -0.01823,0.0057 -0.0538,2.8e-4 -0.0625,0 -0.07331,0.02301 -0.10195,0.06277 -0.125,0.0625 -0.08208,-6.89e-4 -0.13904,-0.10127 -0.15625,-0.25 -0.0037,-0.03033 -3.93e-4,-0.13778 0,-0.3125 V 61.44 c 0.002,-0.4238 0.08487,-0.73663 0.21875,-0.90625 0.16116,-0.20854 0.3853,-0.3141 0.6875,-0.3125 0.27598,0.0018 0.45518,0.0691 0.5625,0.21875 0.10667,0.14891 0.15855,0.43241 0.15625,0.8125 v 0.53125 c 3.53e-4,0.0042 8.1e-4,0.04607 0,0.125 -3e-4,0.09155 6.76e-4,0.18484 0,0.28125 l -0.032,0.313 c -0.0059,0.22255 -0.04655,0.34434 -0.15625,0.34375 -0.032,0 -0.092,-0.014 -0.156,-0.032 -0.026,-0.011 -0.074,-0.03 -0.125,-0.031 -0.137,-10e-4 -0.187,0.082 -0.187,0.219 -10e-4,0.14986 0.09364,0.21778 0.28125,0.21875 0.08735,3.7e-4 0.16679,-0.01436 0.28125,-0.03125 0.11448,-0.01727 0.24699,-7.01e-4 0.34375,0 0.06813,3.8e-4 0.14732,-0.01842 0.28125,0 0.13532,0.01854 0.24368,0.03082 0.3125,0.03125 0.215,10e-4 0.312,-0.075 0.312,-0.219 8.7e-4,-0.0604 -0.019,-0.08376 -0.0625,-0.125 -0.0435,-0.04124 -0.09197,-0.06205 -0.15625,-0.0625 -0.02727,1.2e-4 -0.07259,-0.0095 -0.125,0 -0.05281,0.01021 -0.06653,5.69e-4 -0.09375,0 -0.08734,-3.71e-4 -0.16764,-0.02256 -0.1875,-0.125 -0.01976,-0.10314 -0.0023,-0.3718 0,-0.78125 V 61.44 c 0.0026,-0.42306 0.05525,-0.7058 0.15625,-0.875 0.1293,-0.21259 0.33134,-0.3143 0.65625,-0.3125 0.16839,9.84e-4 0.33644,0.01429 0.46875,0.09375 0.13162,0.07941 0.23385,0.20647 0.28125,0.34375 0.04737,0.13763 0.0643,0.35581 0.0625,0.65625 v 0.8125 c -0.0064,0.29626 -0.04143,0.48853 -0.0625,0.5625 -0.02107,0.07397 -0.07834,0.12539 -0.15625,0.125 -0.04543,-1.4e-4 -0.06723,-0.02095 -0.09375,-0.03125 -0.07299,-0.01053 -0.1065,2.89e-4 -0.125,0 -0.14534,-7.16e-4 -0.21787,0.0544 -0.21875,0.1875 -9.72e-4,0.15371 0.08875,0.21777 0.28125,0.21875 0.07789,7.4e-4 0.19522,0.01443 0.34375,0 0.14928,-0.0151 0.26584,-0.03164 0.34375,-0.03125 0.07374,8e-5 0.17318,0.01489 0.3125,0.03125 0.13999,0.01679 0.2437,0.03047 0.3125,0.03125 0.18344,6.73e-4 0.27955,-0.09599 0.28125,-0.25 4.83e-4,-0.13242 -0.08966,-0.1864 -0.25,-0.1875 -0.03214,-2.3e-4 -0.09164,0.0174 -0.15625,0.03125 -0.06359,0.01424 -0.09286,2.26e-4 -0.125,0 -0.09571,-6.25e-4 -0.1653,-0.06162 -0.1875,-0.21875 -0.0038,-0.03942 -0.0014,-0.16456 0,-0.34375 v -1.123 c 0.0018,-0.31023 -0.0041,-0.54348 -0.0625,-0.6875 -0.08623,-0.21418 -0.27163,-0.38109 -0.5,-0.5 -0.2066,-0.1058 -0.42551,-0.15445 -0.6875,-0.15625 -0.25258,-0.0015 -0.46487,0.05164 -0.625,0.125 -0.16082,0.07331 -0.31156,0.19239 -0.46875,0.375 -0.208,-0.33308 -0.55109,-0.4973 -1,-0.5 z m 5.9375,0.03125 c -0.49121,-0.0026 -0.8627,0.15479 -1.1562,0.46875 -0.29392,0.31428 -0.4341,0.74991 -0.4375,1.2812 -0.0025,0.53211 0.11921,0.93218 0.40625,1.25 0.28741,0.3175 0.67448,0.4973 1.1562,0.5 0.49535,0.0033 0.88642,-0.17855 1.1875,-0.5 0.30034,-0.32081 0.46595,-0.71826 0.46875,-1.25 0.0045,-0.53196 -0.14926,-0.97034 -0.4375,-1.2812 -0.287,-0.309 -0.687,-0.464 -1.188,-0.467 z m 4.156,0.032 c -0.39862,-0.0022 -0.69752,0.15127 -0.9375,0.46875 v -0.1875 c 0.002,-0.125 -0.068,-0.189 -0.187,-0.187 -0.05,-10e-4 -0.088,0.019 -0.125,0.031 -0.08293,0.01114 -0.15082,2.04e-4 -0.1875,0 -0.04577,-1.7e-4 -0.12669,0.01259 -0.21875,0 -0.09211,-0.01185 -0.14173,-0.03109 -0.1875,-0.03125 -0.1974,-9.84e-4 -0.31237,0.06708 -0.3125,0.21875 -9.09e-4,0.13834 0.06782,0.21798 0.21875,0.21875 0.03703,2.3e-4 0.09045,-0.02028 0.15625,-0.03125 0.06369,-0.01082 0.11957,-2.04e-4 0.15625,0 0.12334,5.24e-4 0.20729,0.11764 0.21875,0.375 v 1.8438 c -0.01065,0.20054 -0.07221,0.28189 -0.1875,0.28125 -0.01885,-3.2e-4 -0.04722,0.009 -0.09375,0 l -0.094,-0.029 c -0.02307,-0.0048 -0.07851,-1.36e-4 -0.125,0 -0.17606,-0.0012 -0.24969,0.05262 -0.25,0.1875 -0.0012,0.1523 0.09225,0.2489 0.28125,0.25 l 0.375,-0.032 c 0.10479,-0.0088 0.25481,-0.03255 0.4375,-0.03125 0.06952,4.8e-4 0.17388,0.01494 0.3125,0.03125 0.14001,0.0164 0.24365,0.03117 0.3125,0.03125 h 0.03125 c 0.189,0.0011 0.28125,-0.06881 0.28125,-0.21875 8.09e-4,-0.13695 -0.07063,-0.21783 -0.21875,-0.21875 -0.03669,-2.1e-4 -0.07425,0.02059 -0.125,0.03125 -0.06431,0.01453 -0.12742,4.97e-4 -0.1875,0 -0.12018,-6.46e-4 -0.19653,-0.1263 -0.21875,-0.375 -0.0034,-0.0352 -0.0019,-0.17705 0,-0.46875 v -0.4375 c 0.0019,-0.37942 0.01944,-0.6569 0.09375,-0.84375 0.12163,-0.30471 0.36206,-0.47075 0.71875,-0.46875 0.17467,0.0011 0.32084,0.03688 0.4375,0.125 0.11564,0.08769 0.1886,0.21766 0.1875,0.34375 -3.6e-4,0.04366 -0.003,0.07321 -0.03125,0.125 -0.04547,-0.01408 -0.08014,-0.03097 -0.09375,-0.03125 -0.07443,-1.4e-4 -0.16382,0.0397 -0.21875,0.09375 -0.05634,0.05429 -0.06234,0.11761 -0.0625,0.1875 -3.46e-4,0.087 0.02098,0.15687 0.09375,0.21875 0.07351,0.06123 0.1754,0.09309 0.28125,0.09375 0.16561,7.83e-4 0.30467,-0.06832 0.40625,-0.1875 0.10227,-0.11913 0.15602,-0.24564 0.15625,-0.4375 0.002,-0.27002 -0.11428,-0.51415 -0.3125,-0.6875 -0.19822,-0.17334 -0.45915,-0.248 -0.78125,-0.25 z m 3.0312,0 c -0.48733,-0.0031 -0.88236,0.1708 -1.1875,0.5 -0.30449,0.32994 -0.46525,0.74956 -0.46875,1.2812 -0.0025,0.51848 0.15539,0.94128 0.4375,1.25 0.28278,0.30912 0.64323,0.46605 1.125,0.46875 0.3857,0.002 0.7275,-0.09434 1.0312,-0.3125 0.30512,-0.21771 0.46685,-0.46704 0.46875,-0.75 4.36e-4,-0.16564 -0.08022,-0.2489 -0.25,-0.25 -0.11949,-5.96e-4 -0.18675,0.05197 -0.21875,0.15625 l -0.0625,0.1875 c -0.05115,0.16127 -0.17515,0.2715 -0.34375,0.375 -0.1686,0.1035 -0.36058,0.15755 -0.5625,0.15625 -0.30744,-0.0016 -0.54397,-0.09246 -0.75,-0.3125 -0.20464,-0.21994 -0.3138,-0.51567 -0.3125,-0.84375 4.2e-4,-0.03492 0.01306,-0.04774 0.03125,-0.0625 0.01894,-0.01546 0.06492,-0.03175 0.125,-0.03125 l 2.1875,0.03125 c 0.1104,6.4e-4 0.1642,-0.02539 0.1875,-0.0625 0.02258,-0.03681 0.03015,-0.14692 0.03125,-0.3125 0.0032,-0.42196 -0.12836,-0.75604 -0.40625,-1.0312 -0.27853,-0.27596 -0.6314,-0.435 -1.0625,-0.4375 z m -19.438,0.3125 c 0.24002,0.0013 0.44076,0.10562 0.625,0.25 0.15639,0.12349 0.27202,0.28143 0.3125,0.5 0.0225,0.10508 0.03315,0.3017 0.03125,0.59375 -0.0014,0.22708 -0.01211,0.41849 -0.03125,0.5625 -0.02932,0.2268 -0.11478,0.39439 -0.28125,0.53125 -0.16748,0.13643 -0.37522,0.22035 -0.625,0.21875 -0.32803,-0.002 -0.59304,-0.13562 -0.78125,-0.375 -0.188,-0.239 -0.283,-0.554 -0.281,-0.969 0.0017,-0.40145 0.09722,-0.7388 0.28125,-0.96875 0.18368,-0.22998 0.42582,-0.34585 0.75,-0.34375 z m 12.282,0.093 c 0.69735,0.0036 1.0374,0.44024 1.0312,1.3125 -0.002,0.41436 -0.08972,0.73654 -0.28125,0.96875 -0.19292,0.23211 -0.44621,0.34555 -0.78125,0.34375 -0.3263,-0.0019 -0.60106,-0.1095 -0.78125,-0.34375 -0.17982,-0.23458 -0.2524,-0.55861 -0.25,-0.96875 5.93e-4,-0.05658 0,-0.09375 0,-0.09375 0.01995,-0.3921 0.12727,-0.69351 0.3125,-0.90625 0.18454,-0.21279 0.4286,-0.3144 0.75,-0.3125 z m 7.1562,0.03125 c 0.24838,0.0015 0.47325,0.0788 0.65625,0.25 0.18198,0.17077 0.28295,0.3941 0.28125,0.625 -2.25e-4,0.06115 -0.06019,0.0944 -0.15625,0.09375 l -1.656,-0.031 c -0.10165,-7.1e-4 -0.15647,-0.0326 -0.15625,-0.09375 0.0014,-0.21764 0.13088,-0.3881 0.34375,-0.5625 0.2119,-0.17552 0.43037,-0.28275 0.6875,-0.28125 z m -27.094,1.125 v 0.46875 c -0.0062,0.27915 -0.10384,0.49851 -0.28125,0.65625 -0.17739,0.15739 -0.41168,0.22065 -0.71875,0.21875 -0.2159,-0.0013 -0.40541,-0.05978 -0.53125,-0.15625 -0.12582,-0.09682 -0.18831,-0.20905 -0.1875,-0.375 0.002,-0.3179 0.2604,-0.51765 0.78125,-0.5625 0.28765,-0.0243 0.48186,-0.0592 0.59375,-0.09375 0.11254,-0.03381 0.24279,-0.06988 0.34375,-0.15625 z" />
      <rect
         id="rect4190"
         style="opacity:0.15;color:#000000"
         height="1.0881"
         width="56"
         y="38.911999"
         x="20" />
      <rect
         id="rect3877"
         style="opacity:0.15;color:#000000"
         height="1.0881"
         width="56"
         y="50.911999"
         x="20" />
      <rect
         id="rect3905"
         style="opacity:0.15;color:#000000"
         height="1.0881"
         width="56"
         y="62.911999"
         x="20" />
      <rect
         id="rect4188"
         style="opacity:0.15;color:#000000"
         height="1.0881"
         width="56"
         y="74.912003"
         x="20" />
      <rect
         id="rect4207"
         style="opacity:0.15;color:#000000"
         height="1.0881"
         width="43.978001"
         y="26.912001"
         x="32.021999" />
    </g>
    <rect
       ry="25"
       rx="25"
       id="rect3003"
       style="opacity:0.15;fill:#ffffff;fill-opacity:1"
       height="92"
       width="92"
       y="958.36218"
       x="-96"
       clip-path="url(#clipPath3009)"
       transform="translate(98,3.8281269e-7)" />
  </g>
</svg>
