<?xml version="1.0" encoding="UTF-8" standalone="no"?>
<!-- Created with Inkscape (http://www.inkscape.org/) -->

<svg
   xmlns:dc="http://purl.org/dc/elements/1.1/"
   xmlns:cc="http://creativecommons.org/ns#"
   xmlns:rdf="http://www.w3.org/1999/02/22-rdf-syntax-ns#"
   xmlns:svg="http://www.w3.org/2000/svg"
   xmlns="http://www.w3.org/2000/svg"
   xmlns:xlink="http://www.w3.org/1999/xlink"
   xmlns:sodipodi="http://sodipodi.sourceforge.net/DTD/sodipodi-0.dtd"
   xmlns:inkscape="http://www.inkscape.org/namespaces/inkscape"
   width="96"
   height="96"
   id="svg11037"
   version="1.1"
   inkscape:version="0.48.3.1 r9886"
   sodipodi:docname="evernote.svg">
  <defs
     id="defs11039">
    <linearGradient
       y2="1046.1001"
       x2="47.999954"
       y1="962.62189"
       x1="47.999954"
       gradientTransform="matrix(1.15,0,0,1.15,-7.1999462,-150.65291)"
       gradientUnits="userSpaceOnUse"
       id="linearGradient3886"
       xlink:href="#linearGradient3795"
       inkscape:collect="always" />
    <linearGradient
       id="linearGradient3795">
      <stop
         style="stop-color:#13a6fd;stop-opacity:1;"
         offset="0"
         id="stop3797" />
      <stop
         style="stop-color:#2975b6;stop-opacity:1;"
         offset="1"
         id="stop3799" />
    </linearGradient>
    <linearGradient
       y2="1046.1001"
       x2="47.999954"
       y1="962.62189"
       x1="47.999954"
       gradientTransform="matrix(1.15,0,0,1.15,-7.1999462,-150.65292)"
       gradientUnits="userSpaceOnUse"
       id="linearGradient11642"
       xlink:href="#linearGradient3700"
       inkscape:collect="always" />
    <linearGradient
       x1="48"
       y1="90"
       x2="48"
       y2="5.9877172"
       id="linearGradient3617"
       xlink:href="#linearGradient3700"
       gradientUnits="userSpaceOnUse"
       gradientTransform="translate(117.9661,15.864407)" />
    <linearGradient
       id="linearGradient3700">
      <stop
         id="stop3702"
         style="stop-color:#5eb71f;stop-opacity:1"
         offset="0" />
      <stop
         id="stop3704"
         style="stop-color:#4e9425;stop-opacity:1"
         offset="1" />
    </linearGradient>
    <linearGradient
       y2="5.9877172"
       x2="48"
       y1="90"
       x1="48"
       gradientTransform="translate(-103.55839,952.36215)"
       gradientUnits="userSpaceOnUse"
       id="linearGradient3076"
       xlink:href="#linearGradient3700"
       inkscape:collect="always" />
    <filter
       color-interpolation-filters="sRGB"
       id="filter4314">
      <feGaussianBlur
         id="feGaussianBlur4316"
         stdDeviation="0.82668854" />
    </filter>
    <linearGradient
       x1="48"
       y1="64"
       x2="48"
       y2="112"
       id="linearGradient4281"
       xlink:href="#linearGradient4275"
       gradientUnits="userSpaceOnUse"
       spreadMethod="reflect" />
    <linearGradient
       id="linearGradient4275">
      <stop
         id="stop4277"
         style="stop-color:#e8f8c8;stop-opacity:1"
         offset="0" />
      <stop
         id="stop4279"
         style="stop-color:#e8f8c8;stop-opacity:0"
         offset="1" />
    </linearGradient>
    <filter
       color-interpolation-filters="sRGB"
       id="filter4271">
      <feGaussianBlur
         id="feGaussianBlur4273"
         stdDeviation="0.33067541" />
    </filter>
    <linearGradient
       x1="32"
       y1="26"
       x2="25"
       y2="20"
       id="linearGradient4202"
       xlink:href="#linearGradient4171"
       gradientUnits="userSpaceOnUse" />
    <linearGradient
       id="linearGradient4171">
      <stop
         id="stop4173"
         style="stop-color:#8c8c8c;stop-opacity:1"
         offset="0" />
      <stop
         id="stop4175"
         style="stop-color:#303032;stop-opacity:1"
         offset="1" />
    </linearGradient>
    <radialGradient
       cx="56"
       cy="50.518402"
       r="30.119238"
       fx="56"
       fy="50.518402"
       id="radialGradient4191"
       xlink:href="#linearGradient4171"
       gradientUnits="userSpaceOnUse"
       gradientTransform="matrix(1.5936658,0,0,1.2948535,-33.245286,-14.413928)" />
    <linearGradient
       id="linearGradient3101">
      <stop
         id="stop3103"
         style="stop-color:#8c8c8c;stop-opacity:1"
         offset="0" />
      <stop
         id="stop3105"
         style="stop-color:#303032;stop-opacity:1"
         offset="1" />
    </linearGradient>
    <clipPath
       clipPathUnits="userSpaceOnUse"
       id="clipPath3009">
      <path
         id="path3011"
         d="m -2,956.36218 -96,0 0,33.5624 96,25.68742 0,-59.24982 z"
         style="opacity:0.15;fill:#ffffff;fill-opacity:1;stroke:none"
         inkscape:connector-curvature="0" />
    </clipPath>
  </defs>
  <sodipodi:namedview
     id="base"
     pagecolor="#ffffff"
     bordercolor="#666666"
     borderopacity="1.0"
     inkscape:pageopacity="0.0"
     inkscape:pageshadow="2"
     inkscape:zoom="3.959798"
     inkscape:cx="33.538031"
     inkscape:cy="59.964634"
     inkscape:document-units="px"
     inkscape:current-layer="layer1"
     showgrid="false"
     inkscape:window-width="1280"
     inkscape:window-height="750"
     inkscape:window-x="0"
     inkscape:window-y="22"
     inkscape:window-maximized="1"
     showguides="true"
     inkscape:guide-bbox="true">
    <sodipodi:guide
       orientation="0,1"
       position="-24.748737,0"
       id="guide11064" />
    <sodipodi:guide
       orientation="0,1"
       position="-23.233509,96"
       id="guide11066" />
    <sodipodi:guide
       orientation="1,0"
       position="0,54.800776"
       id="guide11068" />
    <sodipodi:guide
       orientation="1,0"
       position="96,51.012704"
       id="guide11070" />
    <sodipodi:guide
       orientation="0,1"
       position="-18.94036,48"
       id="guide11072" />
    <sodipodi:guide
       orientation="1,0"
       position="48,79.296975"
       id="guide11074" />
    <sodipodi:guide
       orientation="1,0"
       position="2,75.508903"
       id="guide11076" />
    <sodipodi:guide
       orientation="0,1"
       position="-77.27667,2"
       id="guide11078" />
    <sodipodi:guide
       orientation="1,0"
       position="94,77.781746"
       id="guide11080" />
    <sodipodi:guide
       orientation="0,1"
       position="-65.912454,94"
       id="guide11082" />
  </sodipodi:namedview>
  <metadata
     id="metadata11042">
    <rdf:RDF>
      <cc:Work
         rdf:about="">
        <dc:format>image/svg+xml</dc:format>
        <dc:type
           rdf:resource="http://purl.org/dc/dcmitype/StillImage" />
        <dc:title />
      </cc:Work>
    </rdf:RDF>
  </metadata>
  <g
     inkscape:label="Layer 1"
     inkscape:groupmode="layer"
     id="layer1"
     transform="translate(0,-956.36218)">
    <rect
       x="2"
       y="958.36218"
       width="92"
       height="92"
       style="fill:url(#linearGradient11642);fill-opacity:1.0"
       id="rect3867"
       rx="25"
       ry="25" />
    <g
       transform="translate(-4.2410518e-8,956.36218)"
       id="layer4">
      <path
         d="m 41.53125,11.5 c -1.594102,0.05066 -2.879908,0.232472 -3.5,0.40625 -1.313902,0.36723 -2.784333,1.121484 -3.59375,2.28125 -0.542837,0.774663 -0.872271,1.769745 -0.875,3.15625 0,0.784718 0.01126,2.607593 0.03125,4.25 0.0199,1.647498 0.03125,3.146202 0.03125,3.15625 -9.34e-4,1.466803 -1.182998,2.65439 -2.65625,2.65625 l -6.75,0 c -1.441598,0 -2.533565,0.242754 -3.375,0.625 -0.842677,0.382615 -1.452768,0.889773 -1.90625,1.5 -0.90262,1.211765 -1.066227,2.69275 -1.0625,4.21875 0,0 0.01204,1.273902 0.3125,3.6875 0.249818,1.867537 2.295126,14.907229 4.21875,18.875 0.745877,1.543743 1.222189,2.194534 2.6875,2.875 3.264834,1.397799 10.723569,2.929715 14.21875,3.375 3.488848,0.446408 5.69503,1.392398 7,-1.34375 0.0046,-0.0068 0.240179,-0.667631 0.59375,-1.65625 1.132958,-3.433126 1.3125,-6.483142 1.3125,-8.6875 0,-0.224133 0.3125,-0.234435 0.3125,0 0,1.55628 -0.285121,7.053774 3.875,8.53125 1.642293,0.582425 5.038332,1.094299 8.5,1.5 3.130055,0.359657 5.40625,1.59465 5.40625,9.625 0,4.885653 -1.041679,5.5625 -6.40625,5.5625 -4.34864,0 -6,0.111085 -6,-3.34375 0,-2.792244 2.765765,-2.5 4.8125,-2.5 0.914168,0 0.25,-0.683542 0.25,-2.40625 0,-1.713643 1.076151,-2.693685 0.0625,-2.71875 -7.077476,-0.194724 -11.25,-0.0075 -11.25,8.84375 0,8.035443 3.080165,9.53125 13.125,9.53125 7.875718,0 10.654318,-0.253618 13.90625,-10.34375 0.643731,-1.991882 2.214418,-8.074833 3.15625,-18.28125 0.595577,-6.45335 -0.582376,-25.92769 -1.5,-30.84375 -0.536764,-2.873283 -2.236758,-4.318263 -3.78125,-4.875 -1.666351,-0.602281 -5.035857,-1.218359 -9.28125,-1.71875 -3.415497,-0.402225 -7.450095,-0.35621 -9.875,-0.28125 -0.291019,-1.993377 -1.685534,-3.807045 -3.25,-4.4375 -2.605202,-1.048611 -6.093163,-1.303174 -8.75,-1.21875 z m -9.25,1.9375 c -0.02588,0.0044 -0.06805,0.0054 -0.09375,0.03125 L 19.0625,26.5 c -0.02569,0.02112 -0.05512,0.03432 -0.0625,0.0625 0.271539,-0.134407 0.666253,-0.320664 0.71875,-0.34375 1.143385,-0.515906 2.527849,-0.78125 4.1875,-0.78125 l 6.75,0 c 0.387213,0 0.686753,-0.303268 0.6875,-0.6875 0,-0.0025 -0.0625,-5.79574 -0.0625,-7.40625 l 0,-0.03125 c 0,-1.322714 0.26648,-2.471093 0.75,-3.4375 l 0.25,-0.4375 z m 31.125,27.96875 c 0.165377,-0.01271 0.349979,-0.0064 0.53125,0 3.210608,0.110454 3.644833,3.13207 3.65625,5.1875 -1.353739,-0.603648 -3.018414,-0.998339 -4.84375,-1.0625 -0.972991,-0.03402 -1.908537,0.04726 -2.78125,0.1875 0.230255,-1.859598 0.956845,-4.121789 3.4375,-4.3125 z"
         inkscape:connector-curvature="0"
         id="path4318"
         style="opacity:0.1;fill:#000000;fill-opacity:1" />
      <path
         d="m 41.53125,11.0625 c -1.594102,0.05066 -2.879908,0.232472 -3.5,0.40625 -1.313902,0.36723 -2.784333,1.121484 -3.59375,2.28125 -0.542837,0.774663 -0.872271,1.769745 -0.875,3.15625 0,0.784718 0.01126,2.607593 0.03125,4.25 0.0199,1.647498 0.03125,3.146202 0.03125,3.15625 -9.34e-4,1.466803 -1.182998,2.65439 -2.65625,2.65625 l -6.75,0 c -1.441598,0 -2.533565,0.242754 -3.375,0.625 -0.842677,0.382615 -1.452768,0.889773 -1.90625,1.5 -0.90262,1.211765 -1.066227,2.69275 -1.0625,4.21875 0,0 0.01204,1.273902 0.3125,3.6875 0.249818,1.867537 2.295126,14.907229 4.21875,18.875 0.745877,1.543743 1.222189,2.194534 2.6875,2.875 3.264834,1.397799 10.723569,2.929715 14.21875,3.375 3.488848,0.446408 5.69503,1.392398 7,-1.34375 0.0046,-0.0068 0.240179,-0.667631 0.59375,-1.65625 1.132958,-3.433126 1.3125,-6.483142 1.3125,-8.6875 0,-0.224133 0.3125,-0.234435 0.3125,0 0,1.55628 -0.285121,7.053774 3.875,8.53125 1.642293,0.582425 5.038332,1.094299 8.5,1.5 3.130055,0.359657 5.40625,1.59465 5.40625,9.625 0,4.885653 -1.041679,5.5625 -6.40625,5.5625 -4.34864,0 -6,0.111085 -6,-3.34375 0,-2.792244 2.765765,-2.5 4.8125,-2.5 0.914168,0 0.25,-0.683542 0.25,-2.40625 0,-1.713643 1.076151,-2.693685 0.0625,-2.71875 -7.077476,-0.194724 -11.25,-0.0075 -11.25,8.84375 0,8.035443 3.080165,9.53125 13.125,9.53125 7.875718,0 10.654318,-0.253618 13.90625,-10.34375 0.643731,-1.991882 2.214418,-8.074833 3.15625,-18.28125 0.595577,-6.45335 -0.582376,-25.92769 -1.5,-30.84375 -0.536764,-2.873283 -2.236758,-4.318263 -3.78125,-4.875 C 71.021149,18.116469 67.651643,17.500391 63.40625,17 c -3.415497,-0.402225 -7.450095,-0.35621 -9.875,-0.28125 -0.291019,-1.993377 -1.685534,-3.807045 -3.25,-4.4375 -2.605202,-1.048611 -6.093163,-1.303174 -8.75,-1.21875 z M 32.28125,13 c -0.02588,0.0044 -0.06805,0.0054 -0.09375,0.03125 L 19.0625,26.0625 C 19.03681,26.08362 19.00738,26.09682 19,26.125 19.271539,25.990593 19.666253,25.804336 19.71875,25.78125 20.862135,25.265344 22.246599,25 23.90625,25 l 6.75,0 c 0.387213,0 0.686753,-0.303268 0.6875,-0.6875 0,-0.0025 -0.0625,-5.79574 -0.0625,-7.40625 l 0,-0.03125 c 0,-1.322714 0.26648,-2.471093 0.75,-3.4375 L 32.28125,13 z m 31.125,27.96875 c 0.165377,-0.01271 0.349979,-0.0064 0.53125,0 3.210608,0.110454 3.644833,3.13207 3.65625,5.1875 -1.353739,-0.603648 -3.018414,-0.998339 -4.84375,-1.0625 -0.972991,-0.03402 -1.908537,0.04726 -2.78125,0.1875 0.230255,-1.859598 0.956845,-4.121789 3.4375,-4.3125 z"
         inkscape:connector-curvature="0"
         id="path4301"
         style="opacity:0.8;fill:#37820f;fill-opacity:1;filter:url(#filter4314)" />
      <path
         d="m 41.53125,13.0625 c -1.594102,0.05066 -2.879908,0.232472 -3.5,0.40625 -1.313902,0.36723 -2.784333,1.121484 -3.59375,2.28125 -0.542837,0.774663 -0.872271,1.769745 -0.875,3.15625 0,0.784718 0.01126,2.607593 0.03125,4.25 0.0199,1.647498 0.03125,3.146202 0.03125,3.15625 -9.34e-4,1.466803 -1.182998,2.65439 -2.65625,2.65625 l -6.75,0 c -1.441598,0 -2.533565,0.242754 -3.375,0.625 -0.842677,0.382615 -1.452768,0.889773 -1.90625,1.5 -0.90262,1.211765 -1.066227,2.69275 -1.0625,4.21875 0,0 0.01204,1.273902 0.3125,3.6875 0.249818,1.867537 2.295126,14.907229 4.21875,18.875 0.745877,1.543743 1.222189,2.194534 2.6875,2.875 3.264834,1.397799 10.723569,2.929715 14.21875,3.375 3.488848,0.446408 5.69503,1.392398 7,-1.34375 0.0046,-0.0068 0.240179,-0.667631 0.59375,-1.65625 1.132958,-3.433126 1.3125,-6.483142 1.3125,-8.6875 0,-0.224133 0.3125,-0.234435 0.3125,0 0,1.55628 -0.285121,7.053774 3.875,8.53125 1.642293,0.582425 5.038332,1.094299 8.5,1.5 3.130055,0.359657 5.40625,1.59465 5.40625,9.625 0,4.885653 -1.041679,5.5625 -6.40625,5.5625 -4.34864,0 -6,0.111085 -6,-3.34375 0,-2.792244 2.765765,-2.5 4.8125,-2.5 0.914168,0 0.25,-0.683542 0.25,-2.40625 0,-1.713643 1.076151,-2.693685 0.0625,-2.71875 -7.077476,-0.194724 -11.25,-0.0075 -11.25,8.84375 0,8.035443 3.080165,9.53125 13.125,9.53125 7.875718,0 10.654318,-0.253618 13.90625,-10.34375 0.643731,-1.991882 2.214418,-8.074833 3.15625,-18.28125 0.595577,-6.45335 -0.582376,-25.92769 -1.5,-30.84375 -0.536764,-2.873283 -2.236758,-4.318263 -3.78125,-4.875 C 71.021149,20.116469 67.651643,19.500391 63.40625,19 c -3.415497,-0.402225 -7.450095,-0.35621 -9.875,-0.28125 -0.291019,-1.993377 -1.685534,-3.807045 -3.25,-4.4375 -2.605202,-1.048611 -6.093163,-1.303174 -8.75,-1.21875 z M 32.28125,15 c -0.02588,0.0044 -0.06805,0.0054 -0.09375,0.03125 L 19.0625,28.0625 C 19.03681,28.08362 19.00738,28.09682 19,28.125 19.271539,27.990593 19.666253,27.804336 19.71875,27.78125 20.862135,27.265344 22.246599,27 23.90625,27 l 6.75,0 c 0.387213,0 0.686753,-0.303268 0.6875,-0.6875 0,-0.0025 -0.0625,-5.79574 -0.0625,-7.40625 l 0,-0.03125 c 0,-1.322714 0.26648,-2.471093 0.75,-3.4375 L 32.28125,15 z m 31.125,27.96875 c 0.165377,-0.01271 0.349979,-0.0064 0.53125,0 3.210608,0.110454 3.644833,3.13207 3.65625,5.1875 -1.353739,-0.603648 -3.018414,-0.998339 -4.84375,-1.0625 -0.972991,-0.03402 -1.908537,0.04726 -2.78125,0.1875 0.230255,-1.859598 0.956845,-4.121789 3.4375,-4.3125 z"
         inkscape:connector-curvature="0"
         id="path4254"
         style="fill:url(#linearGradient4281);fill-opacity:1;filter:url(#filter4271)" />
      <path
         d="m 23.897518,25.997122 c 0,0 0,0 0.0046,0 h 6.757157 c 0.387213,0 0.698591,-0.315351 0.699338,-0.699583 0,-0.0025 -0.08203,-5.793853 -0.08203,-7.404363 v -0.01911 c 0,-1.322714 0.277613,-2.475901 0.761133,-3.442308 l 0.231086,-0.433995 c -0.02588,0.0044 -0.05175,0.01699 -0.07745,0.04282 L 19.062078,27.06022 c -0.02569,0.02112 -0.04176,0.04852 -0.04914,0.0767 0.271539,-0.134407 0.642862,-0.318082 0.695359,-0.341168 1.143385,-0.515906 2.529769,-0.798617 4.18942,-0.798617 z"
         inkscape:connector-curvature="0"
         id="path4185"
         style="fill:url(#linearGradient4202);fill-opacity:1" />
      <path
         d="m 41.53125,12.0625 c -1.594102,0.05066 -2.879908,0.232472 -3.5,0.40625 -1.313902,0.36723 -2.784333,1.121484 -3.59375,2.28125 -0.542837,0.774663 -0.872271,1.769745 -0.875,3.15625 0,0.784718 0.01126,2.607593 0.03125,4.25 0.0199,1.647498 0.03125,3.146202 0.03125,3.15625 -9.34e-4,1.466803 -1.182998,2.65439 -2.65625,2.65625 l -6.75,0 c -1.441598,0 -2.533565,0.242754 -3.375,0.625 -0.842677,0.382615 -1.452768,0.889773 -1.90625,1.5 -0.90262,1.211765 -1.066227,2.69275 -1.0625,4.21875 0,0 0.01204,1.273902 0.3125,3.6875 0.249818,1.867537 2.295126,14.907229 4.21875,18.875 0.745877,1.543743 1.222189,2.194534 2.6875,2.875 3.264834,1.397799 10.723569,2.929715 14.21875,3.375 3.488848,0.446408 5.69503,1.392398 7,-1.34375 0.0046,-0.0068 0.240179,-0.667631 0.59375,-1.65625 1.132958,-3.433126 1.3125,-6.483142 1.3125,-8.6875 0,-0.224133 0.3125,-0.234435 0.3125,0 0,1.55628 -0.285121,7.053774 3.875,8.53125 1.642293,0.582425 5.038332,1.094299 8.5,1.5 3.130055,0.359657 5.40625,1.59465 5.40625,9.625 0,4.885653 -1.041679,5.5625 -6.40625,5.5625 -4.34864,0 -6,0.111085 -6,-3.34375 0,-2.792244 2.765765,-2.5 4.8125,-2.5 0.914168,0 0.25,-0.683542 0.25,-2.40625 0,-1.713643 1.076151,-2.693685 0.0625,-2.71875 -7.077476,-0.194724 -11.25,-0.0075 -11.25,8.84375 0,8.035443 3.080165,9.53125 13.125,9.53125 7.875718,0 10.654318,-0.253618 13.90625,-10.34375 0.643731,-1.991882 2.214418,-8.074833 3.15625,-18.28125 0.595577,-6.45335 -0.582376,-25.92769 -1.5,-30.84375 -0.536764,-2.873283 -2.236758,-4.318263 -3.78125,-4.875 C 71.021149,19.116469 67.651643,18.500391 63.40625,18 c -3.415497,-0.402225 -7.450095,-0.35621 -9.875,-0.28125 -0.291019,-1.993377 -1.685534,-3.807045 -3.25,-4.4375 -2.605202,-1.048611 -6.093163,-1.303174 -8.75,-1.21875 z m 21.875,29.90625 c 0.165377,-0.01271 0.349979,-0.0064 0.53125,0 3.210608,0.110454 3.644833,3.13207 3.65625,5.1875 -1.353739,-0.603648 -3.018414,-0.998339 -4.84375,-1.0625 -0.972991,-0.03402 -1.908537,0.04726 -2.78125,0.1875 0.230255,-1.859598 0.956845,-4.121789 3.4375,-4.3125 z"
         inkscape:connector-curvature="0"
         id="path4183"
         style="fill:url(#radialGradient4191);fill-opacity:1" />
      <path
         d="m 41.53125,12.0625 c -1.594102,0.05066 -2.879908,0.232472 -3.5,0.40625 -1.313902,0.36723 -2.784333,1.121484 -3.59375,2.28125 -0.542837,0.774663 -0.872271,1.769745 -0.875,3.15625 0,0.784718 0.01126,2.607593 0.03125,4.25 0.0199,1.647498 0.03125,3.146202 0.03125,3.15625 -9.34e-4,1.466803 -1.182998,2.65439 -2.65625,2.65625 l -6.75,0 c -1.441598,0 -2.533565,0.242754 -3.375,0.625 -0.842677,0.382615 -1.452768,0.889773 -1.90625,1.5 -0.90262,1.211765 -1.066227,2.69275 -1.0625,4.21875 0,0 0.01204,1.273902 0.3125,3.6875 0.249818,1.867537 2.295126,14.907229 4.21875,18.875 0.745877,1.543743 1.222189,2.194534 2.6875,2.875 3.264834,1.397799 10.723569,2.929715 14.21875,3.375 3.488848,0.446408 5.69503,1.392398 7,-1.34375 0.0046,-0.0068 0.240179,-0.667631 0.59375,-1.65625 1.132958,-3.433126 1.3125,-6.483142 1.3125,-8.6875 0,-0.224133 0.3125,-0.234435 0.3125,0 0,1.55628 -0.285121,7.053774 3.875,8.53125 1.642293,0.582425 5.038332,1.094299 8.5,1.5 3.130055,0.359657 5.40625,1.59465 5.40625,9.625 0,4.885653 -1.041679,5.5625 -6.40625,5.5625 -4.34864,0 -6,0.111085 -6,-3.34375 0,-2.792244 2.765765,-2.5 4.8125,-2.5 0.914168,0 0.25,-0.683542 0.25,-2.40625 0,-1.713643 1.076151,-2.693685 0.0625,-2.71875 -7.077476,-0.194724 -11.25,-0.0075 -11.25,8.84375 0,8.035443 3.080165,9.53125 13.125,9.53125 7.875718,0 10.654318,-0.253618 13.90625,-10.34375 0.643731,-1.991882 2.214418,-8.074833 3.15625,-18.28125 0.595577,-6.45335 -0.582376,-25.92769 -1.5,-30.84375 -0.536764,-2.873283 -2.236758,-4.318263 -3.78125,-4.875 C 71.021149,19.116469 67.651643,18.500391 63.40625,18 c -3.415497,-0.402225 -7.450095,-0.35621 -9.875,-0.28125 -0.291019,-1.993377 -1.685534,-3.807045 -3.25,-4.4375 -2.605202,-1.048611 -6.093163,-1.303174 -8.75,-1.21875 z m 0.03125,0.96875 c 2.567395,-0.08158 5.967952,0.199975 8.34375,1.15625 1.148649,0.462887 2.417444,2.051763 2.65625,3.6875 a 0.97708905,0.97708905 0 0 0 1,0.8125 c 2.403795,-0.07431 6.400603,-0.109511 9.71875,0.28125 4.212494,0.496513 7.591804,1.124686 9.0625,1.65625 1.252309,0.451415 2.677008,1.590879 3.15625,4.15625 0.859902,4.606821 2.068214,24.40564 1.5,30.5625 -0.935963,10.142818 -2.517249,16.18195 -3.125,18.0625 -1.601778,4.970015 -3.032766,7.307104 -4.8125,8.4375 -1.779734,1.130396 -4.228878,1.25 -8.15625,1.25 -4.973922,0 -8.093353,-0.445194 -9.78125,-1.59375 C 50.281051,80.925722 49.733689,80.205012 49.34375,79.09375 48.953811,77.982488 48.75,76.477694 48.75,74.53125 c 0,-2.136053 0.25269,-3.690049 0.6875,-4.78125 0.43481,-1.091201 1.027574,-1.72787 1.8125,-2.1875 1.457741,-0.85361 3.935929,-0.970456 7.09375,-0.90625 C 58.198014,67.102951 58,67.591375 58,68.40625 c 0,0.735884 0.08785,1.108154 0.15625,1.46875 -0.88818,-0.01713 -1.867067,-0.106139 -2.875,0.1875 -0.602508,0.175527 -1.239876,0.501167 -1.6875,1.0625 -0.447624,0.561333 -0.65625,1.328151 -0.65625,2.1875 0,0.94154 0.08956,1.730371 0.40625,2.40625 0.316688,0.675879 0.908228,1.192323 1.5625,1.46875 1.308543,0.552854 2.833999,0.4375 5,0.4375 2.723374,0 4.543276,-0.06681 5.84375,-1.15625 0.650237,-0.544722 1.036408,-1.335449 1.25,-2.21875 0.213592,-0.883301 0.28125,-1.900119 0.28125,-3.15625 0,-4.107484 -0.529676,-6.613287 -1.6875,-8.25 C 64.435926,61.207037 62.695586,60.691239 61.03125,60.5 57.590572,60.096759 54.131113,59.563382 52.71875,59.0625 51.00544,58.454014 50.247328,57.077124 49.84375,55.5 49.440172,53.922876 49.5,52.275304 49.5,51.4375 c 0,-0.275662 -0.115386,-0.621601 -0.34375,-0.84375 -0.228364,-0.222149 -0.534592,-0.317081 -0.8125,-0.3125 -0.555815,0.0092 -1.09375,0.590123 -1.09375,1.15625 0,2.151308 -0.192631,5.076233 -1.28125,8.375 -0.169621,0.474309 -0.305982,0.90736 -0.40625,1.1875 -0.04549,0.127088 -0.06665,0.205974 -0.09375,0.28125 -0.0037,0.01033 -0.02791,0.02199 -0.03125,0.03125 -0.0045,0.0078 -1.3e-5,0.03128 0,0.03125 a 0.97708905,0.97708905 0 0 0 0,0.03125 c -0.0039,0.0106 -0.0287,0.0243 -0.03125,0.03125 -0.0035,0.0088 1.15e-4,0.03095 0,0.03125 -0.519683,1.055553 -0.916927,1.180056 -1.8125,1.21875 -0.919582,0.03973 -2.351364,-0.26906 -4.15625,-0.5 C 36.048128,61.724445 28.476081,60.131302 25.46875,58.84375 24.193983,58.245667 23.993306,57.911245 23.28125,56.4375 22.443421,54.709348 21.403232,50.433759 20.625,46.46875 19.846768,42.503741 19.274322,38.757657 19.15625,37.875 c -0.295649,-2.374954 -0.3125,-3.5625 -0.3125,-3.5625 -0.0036,-1.454626 0.166404,-2.673712 0.875,-3.625 0.357836,-0.481521 0.822861,-0.897108 1.53125,-1.21875 0.693456,-0.315022 1.636831,-0.53125 2.96875,-0.53125 l 6.75,0 c 1.997625,-0.0025 3.623732,-1.633643 3.625,-3.625 0,-0.09322 3.51e-4,-0.04841 0,-0.09375 -3.51e-4,-0.04534 6.89e-4,-0.103526 0,-0.1875 -0.0014,-0.167947 0.0027,-0.396222 0,-0.6875 -0.0053,-0.582557 -0.02128,-1.362416 -0.03125,-2.1875 -0.01994,-1.638075 -0.03125,-3.474628 -0.03125,-4.25 0.0024,-1.23267 0.294953,-1.988965 0.71875,-2.59375 0.605379,-0.867411 1.86936,-1.581507 3.03125,-1.90625 0.452675,-0.12686 1.744651,-0.326167 3.28125,-0.375 z M 32.28125,14 c -0.02588,0.0044 -0.06805,0.0054 -0.09375,0.03125 L 19.0625,27.0625 C 19.03681,27.08362 19.00738,27.09682 19,27.125 19.271539,26.990593 19.666253,26.804336 19.71875,26.78125 20.862135,26.265344 22.246599,26 23.90625,26 l 6.75,0 c 0.387213,0 0.686753,-0.303268 0.6875,-0.6875 0,-0.0025 -0.0625,-5.79574 -0.0625,-7.40625 l 0,-0.03125 c 0,-1.322714 0.26648,-2.471093 0.75,-3.4375 L 32.28125,14 z m -1.8125,3.09375 C 30.445177,17.3735 30.3125,17.582949 30.3125,17.875 l 0,0.03125 c 0,1.573672 0.05811,6.715098 0.0625,7.125 l -6.46875,0 c -0.557737,0 -1.05184,0.06793 -1.5625,0.125 l 8.125,-8.0625 z M 63.34375,41 c -1.527429,0.117428 -2.666866,0.949358 -3.3125,1.96875 C 59.385616,43.988142 59.124591,45.150024 59,46.15625 A 0.97708905,0.97708905 0 0 0 60.125,47.25 c 0.823108,-0.132269 1.696926,-0.218857 2.59375,-0.1875 1.705601,0.05995 3.242424,0.453167 4.46875,1 a 0.97708905,0.97708905 0 0 0 1.375,-0.90625 c -0.0061,-1.093852 -0.08928,-2.486726 -0.71875,-3.75 -0.62947,-1.263274 -1.965258,-2.340549 -3.875,-2.40625 -0.182016,-0.0064 -0.379605,-0.01886 -0.625,0 z m 0.0625,0.96875 c 0.165377,-0.01271 0.349979,-0.0064 0.53125,0 3.210608,0.110454 3.644833,3.13207 3.65625,5.1875 -1.353739,-0.603648 -3.018414,-0.998339 -4.84375,-1.0625 -0.972991,-0.03402 -1.908537,0.04726 -2.78125,0.1875 0.230255,-1.859598 0.956845,-4.121789 3.4375,-4.3125 z"
         inkscape:connector-curvature="0"
         id="path4329"
         style="opacity:0.1;fill:#000000;fill-opacity:1" />
      <path
         d="m 32.28125,14 c -0.02588,0.0044 -0.06805,0.0054 -0.09375,0.03125 l -0.375,0.375 c -0.333604,0.848337 -0.53125,1.817359 -0.53125,2.90625 l 0,0.03125 c 0,0.101924 -4.69e-4,0.335849 0,0.46875 0.0084,-1.295956 0.274246,-2.424116 0.75,-3.375 L 32.28125,14 z m -0.9375,10.78125 c -0.01598,0.369737 -0.310537,0.65625 -0.6875,0.65625 l -6.75,0 c -1.515596,0 -2.792406,0.224947 -3.875,0.65625 L 19.0625,27.0625 C 19.03681,27.08362 19.00738,27.09682 19,27.125 19.271539,26.990593 19.666253,26.804336 19.71875,26.78125 20.862135,26.265344 22.246599,26 23.90625,26 l 6.75,0 c 0.387213,0 0.686753,-0.303268 0.6875,-0.6875 0,-1.79e-4 5.97e-4,-0.47517 0,-0.53125 z M 17.875,34 c -0.0015,0.105382 -2.59e-4,0.206609 0,0.3125 0,0 0.01204,1.273902 0.3125,3.6875 0.249818,1.867537 2.295126,14.907229 4.21875,18.875 0.745877,1.543743 1.222189,2.194534 2.6875,2.875 3.264834,1.397799 10.723569,2.929715 14.21875,3.375 3.488848,0.446408 5.69503,1.392398 7,-1.34375 0.0046,-0.0068 0.240179,-0.667631 0.59375,-1.65625 0.937594,-2.841129 1.210965,-5.383282 1.28125,-7.4375 -0.103604,1.948708 -0.431531,4.300156 -1.28125,6.875 -0.353571,0.988619 -0.58915,1.64945 -0.59375,1.65625 -1.30497,2.736148 -3.511152,1.790158 -7,1.34375 -3.495181,-0.445285 -10.953916,-1.977201 -14.21875,-3.375 -1.465311,-0.680466 -1.941623,-1.331257 -2.6875,-2.875 C 20.482626,52.344729 18.437318,39.305037 18.1875,37.4375 17.927057,35.345358 17.88203,34.292073 17.875,34 z m 45.53125,7.40625 c -2.480655,0.190711 -3.207245,2.452902 -3.4375,4.3125 0.03004,-0.0048 0.06356,0.0047 0.09375,0 0.306105,-1.727577 1.105471,-3.577923 3.34375,-3.75 0.165377,-0.01271 0.349979,-0.0064 0.53125,0 2.932585,0.100889 3.531566,2.621274 3.625,4.625 0.0087,0.0039 0.02257,-0.0039 0.03125,0 -0.01142,-2.05543 -0.445642,-5.077046 -3.65625,-5.1875 -0.181271,-0.0064 -0.365873,-0.01271 -0.53125,0 z M 48.375,50.6875 c -0.07813,0.0013 -0.15625,0.07543 -0.15625,0.1875 0,0.170977 0.0025,0.381564 0,0.5625 0,-0.224133 0.3125,-0.234435 0.3125,0 0.0012,-0.168011 0,-0.439674 0,-0.5625 0,-0.117217 -0.07813,-0.188788 -0.15625,-0.1875 z m 29.75,1.21875 C 78.102,53.065959 78.0432,54.068331 77.96875,54.875 77.026918,65.081417 75.456231,71.164368 74.8125,73.15625 71.560568,83.246382 68.781968,83.5 60.90625,83.5 c -9.417033,0 -12.718568,-1.308415 -13.09375,-8.09375 0.230922,7.25789 3.431172,8.65625 13.09375,8.65625 7.875718,0 10.654318,-0.253618 13.90625,-10.34375 0.643731,-1.991882 2.214418,-8.074833 3.15625,-18.28125 0.08525,-0.923766 0.137712,-2.154763 0.15625,-3.53125 z m -29.5625,0.75 c 0.03389,2.214698 0.39533,6.087786 3.84375,7.3125 1.642293,0.582425 5.038332,1.094299 8.5,1.5 2.934427,0.337178 5.113467,1.433698 5.375,8.1875 -0.164667,-7.235489 -2.364059,-8.40403 -5.375,-8.75 -3.461668,-0.405701 -6.857707,-0.917575 -8.5,-1.5 -3.120091,-1.108107 -3.728935,-4.478017 -3.84375,-6.75 z m 10.8125,13.1875 c -0.142331,0.462349 -0.40625,1.143179 -0.40625,2 0,0.101721 -0.0042,0.186702 0,0.28125 0.08562,-1.199884 0.624127,-1.983248 0.40625,-2.28125 z M 59.15625,70.125 c -0.06629,0.091 -0.208958,0.125 -0.4375,0.125 -2.046735,0 -4.8125,-0.292244 -4.8125,2.5 0,0.0963 0.02866,0.159163 0.03125,0.25 0.202967,-2.45581 2.814652,-2.1875 4.78125,-2.1875 0.495689,0 0.512408,-0.228865 0.4375,-0.6875 z"
         inkscape:connector-curvature="0"
         id="path4204"
         style="opacity:0.6;fill:#000000;fill-opacity:1" />
      <path
         d="m 41.5625,13.03125 c -1.536447,0.04883 -2.829019,0.248264 -3.28125,0.375 -1.161487,0.324631 -2.426412,1.039613 -3.03125,1.90625 -0.423482,0.604335 -0.716325,1.361487 -0.71875,2.59375 0,0.08551 -2.72e-4,0.359112 0,0.46875 0.0077,-1.212273 0.299168,-1.96373 0.71875,-2.5625 0.604838,-0.866637 1.869763,-1.581619 3.03125,-1.90625 0.452231,-0.126736 1.744803,-0.326172 3.28125,-0.375 2.567158,-0.08157 5.968559,0.20022 8.34375,1.15625 1.147547,0.462443 2.417582,2.052711 2.65625,3.6875 a 0.97967735,0.97967735 0 0 0 1,0.8125 c 2.403739,-0.07431 6.400861,-0.10948 9.71875,0.28125 4.212406,0.496503 7.592322,1.124873 9.0625,1.65625 1.251535,0.451136 2.67716,1.591695 3.15625,4.15625 0.537343,2.878751 1.209121,11.697572 1.5,19.40625 C 76.720461,36.859796 76.049443,27.724823 75.5,24.78125 75.02091,22.216695 73.595285,21.076136 72.34375,20.625 70.873572,20.093623 67.493656,19.465253 63.28125,18.96875 59.963361,18.57802 55.966239,18.613194 53.5625,18.6875 a 0.97967735,0.97967735 0 0 1 -1,-0.8125 C 52.323832,16.240211 51.053797,14.649943 49.90625,14.1875 47.531059,13.23147 44.129658,12.949676 41.5625,13.03125 z m -11.09375,4.0625 -8.125,8.0625 c 0.19121,-0.02137 0.371777,-0.04222 0.5625,-0.0625 l 7.4375,-7.375 c 0.03412,-0.214327 0.105987,-0.399361 0.125,-0.625 z m 4.125,8.21875 c -0.0013,1.992747 -1.625985,3.622476 -3.625,3.625 l -6.75,0 c -1.331629,0 -2.275686,0.247656 -2.96875,0.5625 -0.708033,0.32148 -1.173668,0.70632 -1.53125,1.1875 -0.616811,0.828067 -0.802502,1.879949 -0.84375,3.09375 0.07964,-1.001265 0.312689,-1.880802 0.84375,-2.59375 C 20.076332,30.70632 20.541967,30.32148 21.25,30 c 0.693064,-0.314844 1.637121,-0.5625 2.96875,-0.5625 l 6.75,0 c 1.999015,-0.0025 3.623731,-1.632253 3.625,-3.625 0,-0.09346 3.51e-4,-0.04841 0,-0.09375 -3.51e-4,-0.04534 6.89e-4,-0.103526 0,-0.1875 -4.38e-4,-0.05344 -2.69e-4,-0.153011 0,-0.21875 z M 59.03125,46.5 C 59.02426,46.551381 59.00627,46.605615 59,46.65625 A 0.97967735,0.97967735 0 0 0 60.125,47.75 c 0.822976,-0.132248 1.697127,-0.21885 2.59375,-0.1875 1.705284,0.05994 3.242761,0.453317 4.46875,1 a 0.97967735,0.97967735 0 0 0 1.375,-0.90625 c -6.5e-4,-0.117068 0.003,-0.251629 0,-0.375 a 0.97967735,0.97967735 0 0 1 -1.375,0.78125 c -1.225989,-0.546683 -2.763466,-0.940059 -4.46875,-1 C 61.822127,47.03115 60.947976,47.11775 60.125,47.25 A 0.97967735,0.97967735 0 0 1 59.03125,46.5 z m -2.9375,20.15625 C 53.996028,66.70216 52.342646,66.922679 51.25,67.5625 50.465548,68.021852 49.903383,68.659244 49.46875,69.75 49.034117,70.840756 48.75,72.395401 48.75,74.53125 c 0,0.110527 -0.0013,0.204808 0,0.3125 0.01705,-2.034199 0.297676,-3.537021 0.71875,-4.59375 0.434633,-1.090756 0.996798,-1.728148 1.78125,-2.1875 1.431568,-0.838284 3.857838,-0.962961 6.9375,-0.90625 0.05117,-0.169787 0.107392,-0.35025 0.15625,-0.5 -0.789435,-0.01605 -1.550759,-0.0153 -2.25,0 z M 58,68.625 c -0.0057,0.09198 0,0.179652 0,0.28125 0,0.424768 0.02461,0.718687 0.0625,0.96875 0.02979,7.14e-4 0.06416,-5.71e-4 0.09375,0 C 58.096357,69.559276 58.01768,69.195062 58,68.625 z m 9.25,4.1875 c -0.03579,0.521578 -0.111911,0.995674 -0.21875,1.4375 -0.213677,0.883653 -0.630524,1.673618 -1.28125,2.21875 -1.301453,1.090265 -3.120267,1.15625 -5.84375,1.15625 -2.165979,0 -3.690524,0.115748 -5,-0.4375 -0.654738,-0.276624 -1.245563,-0.79234 -1.5625,-1.46875 -0.288184,-0.615045 -0.39048,-1.324977 -0.40625,-2.15625 -0.0042,0.08379 0,0.164237 0,0.25 0,0.941746 0.08931,1.72984 0.40625,2.40625 0.316937,0.67641 0.907762,1.192126 1.5625,1.46875 1.309476,0.553248 2.834021,0.4375 5,0.4375 2.723483,0 4.542297,-0.06598 5.84375,-1.15625 0.650726,-0.545132 1.067573,-1.335097 1.28125,-2.21875 0.137909,-0.570315 0.19068,-1.227814 0.21875,-1.9375 z"
         inkscape:connector-curvature="0"
         id="path4348"
         style="opacity:0.1;fill:#ffffff;fill-opacity:1" />
    </g>
    <rect
       ry="25"
       rx="25"
       id="rect3003"
       style="opacity:0.15;fill:#ffffff;fill-opacity:1"
       height="92"
       width="92"
       y="958.36218"
       x="-96"
       clip-path="url(#clipPath3009)"
       transform="translate(98,3.8281269e-7)" />
  </g>
</svg>
