<?xml version="1.0" encoding="UTF-8" standalone="no"?>
<!-- Created with Inkscape (http://www.inkscape.org/) -->

<svg
   xmlns:dc="http://purl.org/dc/elements/1.1/"
   xmlns:cc="http://creativecommons.org/ns#"
   xmlns:rdf="http://www.w3.org/1999/02/22-rdf-syntax-ns#"
   xmlns:svg="http://www.w3.org/2000/svg"
   xmlns="http://www.w3.org/2000/svg"
   xmlns:xlink="http://www.w3.org/1999/xlink"
   xmlns:sodipodi="http://sodipodi.sourceforge.net/DTD/sodipodi-0.dtd"
   xmlns:inkscape="http://www.inkscape.org/namespaces/inkscape"
   width="96"
   height="96"
   id="svg11037"
   version="1.1"
   inkscape:version="0.48.3.1 r9886"
   sodipodi:docname="fedora-release-notes.svg">
  <defs
     id="defs11039">
    <linearGradient
       y2="1046.1001"
       x2="47.999954"
       y1="962.62189"
       x1="47.999954"
       gradientTransform="matrix(1.15,0,0,1.15,-7.1999462,-150.65291)"
       gradientUnits="userSpaceOnUse"
       id="linearGradient3886"
       xlink:href="#linearGradient3795"
       inkscape:collect="always" />
    <linearGradient
       id="linearGradient3795">
      <stop
         style="stop-color:#13a6fd;stop-opacity:1;"
         offset="0"
         id="stop3797" />
      <stop
         style="stop-color:#2975b6;stop-opacity:1;"
         offset="1"
         id="stop3799" />
    </linearGradient>
    <radialGradient
       id="radialGradient3122"
       gradientUnits="userSpaceOnUse"
       cx="115.9"
       cy="133.10001"
       r="154.62"
       gradientTransform="matrix(0.19023,0,0,0.19024,30,18)">
      <stop
         id="stop3899-4"
         style="stop-color:#294172;stop-opacity:.37405"
         offset="0" />
      <stop
         id="stop3901-7"
         style="stop-color:#294172"
         offset="1" />
    </radialGradient>
    <radialGradient
       id="radialGradient2877-3"
       gradientUnits="userSpaceOnUse"
       cx="115.9"
       cy="133.10001"
       r="154.62"
       gradientTransform="matrix(0.19023,0,0,0.19024,30,18)">
      <stop
         id="stop3899-0"
         style="stop-color:#294172;stop-opacity:0"
         offset="0" />
      <stop
         id="stop3901-3"
         style="stop-color:#294172"
         offset="1" />
    </radialGradient>
    <clipPath
       clipPathUnits="userSpaceOnUse"
       id="clipPath3009">
      <path
         id="path3011"
         d="m -2,956.36218 -96,0 0,33.5624 96,25.68742 0,-59.24982 z"
         style="opacity:0.15;fill:#ffffff;fill-opacity:1;stroke:none"
         inkscape:connector-curvature="0" />
    </clipPath>
  </defs>
  <sodipodi:namedview
     id="base"
     pagecolor="#ffffff"
     bordercolor="#666666"
     borderopacity="1.0"
     inkscape:pageopacity="0.0"
     inkscape:pageshadow="2"
     inkscape:zoom="3.959798"
     inkscape:cx="33.538031"
     inkscape:cy="59.964634"
     inkscape:document-units="px"
     inkscape:current-layer="layer1"
     showgrid="false"
     inkscape:window-width="1280"
     inkscape:window-height="750"
     inkscape:window-x="0"
     inkscape:window-y="22"
     inkscape:window-maximized="1"
     showguides="true"
     inkscape:guide-bbox="true">
    <sodipodi:guide
       orientation="0,1"
       position="-24.748737,0"
       id="guide11064" />
    <sodipodi:guide
       orientation="0,1"
       position="-23.233509,96"
       id="guide11066" />
    <sodipodi:guide
       orientation="1,0"
       position="0,54.800776"
       id="guide11068" />
    <sodipodi:guide
       orientation="1,0"
       position="96,51.012704"
       id="guide11070" />
    <sodipodi:guide
       orientation="0,1"
       position="-18.94036,48"
       id="guide11072" />
    <sodipodi:guide
       orientation="1,0"
       position="48,79.296975"
       id="guide11074" />
    <sodipodi:guide
       orientation="1,0"
       position="2,75.508903"
       id="guide11076" />
    <sodipodi:guide
       orientation="0,1"
       position="-77.27667,2"
       id="guide11078" />
    <sodipodi:guide
       orientation="1,0"
       position="94,77.781746"
       id="guide11080" />
    <sodipodi:guide
       orientation="0,1"
       position="-65.912454,94"
       id="guide11082" />
  </sodipodi:namedview>
  <metadata
     id="metadata11042">
    <rdf:RDF>
      <cc:Work
         rdf:about="">
        <dc:format>image/svg+xml</dc:format>
        <dc:type
           rdf:resource="http://purl.org/dc/dcmitype/StillImage" />
        <dc:title />
      </cc:Work>
    </rdf:RDF>
  </metadata>
  <g
     inkscape:label="Layer 1"
     inkscape:groupmode="layer"
     id="layer1"
     transform="translate(0,-956.36218)">
    <rect
       x="2"
       y="958.36218"
       width="92"
       height="92"
       style="fill:#3c6eb4;fill-opacity:1"
       id="rect3867"
       rx="25"
       ry="25" />
    <g
       transform="translate(-6,961.36218)"
       id="g3087">
      <path
         inkscape:connector-curvature="0"
         d="M 54,18 C 40.751,18 30.009,28.74 30,41.987 v 15.267 3.3051 1.7161 c 0,2.064 1.661,3.725 3.725,3.725 h 1.7288 12.025 6.5338 c 13.25,-0.0055 23.987,-10.748 23.987,-24 0,-13.256 -10.745,-24 -24,-24 z"
         style="fill:url(#radialGradient3122)"
         id="speech-bubble-7" />
      <path
         inkscape:connector-curvature="0"
         d="M 54,18 C 40.751,18 30.009,28.74 30,41.987 v 15.267 3.3051 1.7161 c 0,2.064 1.661,3.725 3.725,3.725 h 1.7288 12.025 6.5338 c 13.25,-0.0055 23.987,-10.748 23.987,-24 0,-13.256 -10.745,-24 -24,-24 z"
         style="fill:url(#radialGradient2877-3)"
         id="speech-bubble" />
      <path
         inkscape:connector-curvature="0"
         d="m 61.233,23.259 c -6.356,0 -11.508,5.1524 -11.508,11.508 v 0.008 6.091 h -6.072 -0.0015 c -6.3558,0 -11.508,5.1273 -11.508,11.483 0,6.3564 5.1522,11.509 11.508,11.509 6.355,0 11.507,-5.1522 11.507,-11.509 v -0.008 -6.1162 h 6.0718 0.0025 c 6.355,0 11.507,-5.1021 11.507,-11.458 0,-6.3559 -5.1522,-11.508 -11.507,-11.508 z M 49.725,52.36 c -0.0048,3.349 -2.7228,6.0639 -6.0736,6.0639 -3.3543,0 -6.0986,-2.7194 -6.0986,-6.0738 0,-3.3556 2.7444,-6.1254 6.0986,-6.1254 h 0.008 5.2045 0.0039 c 0.47382,0 0.85805,0.38347 0.85805,0.85653 0,9e-4 -5.84e-4,9e-4 -5.84e-4,0.0022 v 5.2766 h -1.93e-4 z M 61.232,40.866 h -0.0057 -5.2079 -0.0031 c -0.47382,0 -0.85708,-0.38327 -0.85708,-0.8575 v -1.94e-4 -5.2511 c 0.0057,-3.3509 2.7228,-6.0649 6.0738,-6.0649 3.3543,0 6.0992,2.7196 6.0992,6.0746 0,3.3546 -2.745,6.0991 -6.0992,6.0991 z"
         style="fill:#5484c6"
         id="f-script-path-6" />
      <path
         inkscape:connector-curvature="0"
         d="m 49.725,40.866 v -6.0911 -0.008 c 0,-6.3559 5.152,-11.508 11.508,-11.508 0.96416,0 1.6492,0.10865 2.5417,0.34226 1.3016,0.34129 2.3644,1.4075 2.365,2.6487 5.81e-4,1.5004 -1.0885,2.5912 -2.7162,2.5912 -0.77545,0 -1.0557,-0.14849 -2.1911,-0.14849 -3.351,0 -6.0681,2.714 -6.0738,6.0649 v 5.2509 1.95e-4 c 0,0.47423 0.38325,0.8575 0.85708,0.8575 h 0.0031 3.9884 c 1.4864,0 2.6867,1.19 2.6878,2.6804 0,1.4909 -1.202,2.6782 -2.6878,2.6782 h -4.8486 v 6.1162 0.0091 c 0,6.3553 -5.1522,11.507 -11.507,11.507 -0.96436,0 -1.6494,-0.10865 -2.5419,-0.34246 -1.3016,-0.3411 -2.3648,-1.4079 -2.3654,-2.6487 0,-1.5 1.0884,-2.5912 2.7168,-2.5912 0.77467,0 1.0557,0.14868 2.1905,0.14868 3.351,0 6.0689,-2.7142 6.0742,-6.0639 v -5.2785 c 0,-0.47326 -0.38423,-0.85653 -0.85805,-0.85653 h -0.0022 -3.9882 c -1.4868,0 -2.688,-1.1862 -2.688,-2.6775 -3.9e-4,-1.4997 1.2137,-2.681 2.7162,-2.681 h 4.8196 v -1.94e-4 z"
         style="fill:#ffffff"
         id="blue-inifity-connectors-2" />
      <path
         inkscape:connector-curvature="0"
         d="M 54,18 C 40.751,18 30.009,28.729 30,41.977 v 0.75 C 30.009,29.479 40.751,18.75 54,18.75 67.13,18.75 77.8,29.292 78,42.375 78.0019,42.25048 78,42.12497 78,42 78,28.744 67.255,18 54,18 z"
         style="opacity:0.15"
         id="path3933" />
      <path
         inkscape:connector-curvature="0"
         d="M 78,42.5 C 77.736,55.523 67.084,65.995 54,66 h -6.5312 -12 -1.75 c -2.063,0 -3.719,-1.656 -3.719,-3.719 v 1 c 0,2.063 1.656,3.719 3.719,3.719 h 1.75 12 6.531 c 13.25,-0.0055 24,-10.748 24,-24 0,-0.16559 0.0033,-0.33521 0,-0.5 z"
         style="opacity:0.15;fill:#ffffff"
         id="path4066" />
    </g>
    <rect
       ry="25"
       rx="25"
       id="rect3003"
       style="opacity:0.15;fill:#ffffff;fill-opacity:1"
       height="92"
       width="92"
       y="958.36218"
       x="-96"
       clip-path="url(#clipPath3009)"
       transform="translate(98,3.8281269e-7)" />
  </g>
</svg>
