<?xml version="1.0" encoding="UTF-8" standalone="no"?>
<!-- Created with Inkscape (http://www.inkscape.org/) -->

<svg
   xmlns:dc="http://purl.org/dc/elements/1.1/"
   xmlns:cc="http://creativecommons.org/ns#"
   xmlns:rdf="http://www.w3.org/1999/02/22-rdf-syntax-ns#"
   xmlns:svg="http://www.w3.org/2000/svg"
   xmlns="http://www.w3.org/2000/svg"
   xmlns:xlink="http://www.w3.org/1999/xlink"
   xmlns:sodipodi="http://sodipodi.sourceforge.net/DTD/sodipodi-0.dtd"
   xmlns:inkscape="http://www.inkscape.org/namespaces/inkscape"
   width="96"
   height="96"
   id="svg11037"
   version="1.1"
   inkscape:version="0.48.3.1 r9886"
   sodipodi:docname="flash.svg">
  <defs
     id="defs11039">
    <linearGradient
       y2="1046.1001"
       x2="47.999954"
       y1="962.62189"
       x1="47.999954"
       gradientTransform="matrix(1.15,0,0,1.15,-7.1999462,-150.65291)"
       gradientUnits="userSpaceOnUse"
       id="linearGradient3886"
       xlink:href="#linearGradient3795"
       inkscape:collect="always" />
    <linearGradient
       id="linearGradient3795">
      <stop
         style="stop-color:#13a6fd;stop-opacity:1;"
         offset="0"
         id="stop3797" />
      <stop
         style="stop-color:#2975b6;stop-opacity:1;"
         offset="1"
         id="stop3799" />
    </linearGradient>
    <linearGradient
       y2="1046.1001"
       x2="47.999954"
       y1="962.62189"
       x1="47.999954"
       gradientTransform="matrix(1.15,0,0,1.15,-7.1999462,-150.65292)"
       gradientUnits="userSpaceOnUse"
       id="linearGradient11642"
       xlink:href="#linearGradient5391"
       inkscape:collect="always" />
    <linearGradient
       id="linearGradient5391"
       y2="-59.097"
       gradientUnits="userSpaceOnUse"
       x2="47.999001"
       gradientTransform="matrix(0.95238,0,0,0.95238,2.2857,958.65)"
       y1="90"
       x1="48">
      <stop
         id="stop3690-3-7"
         style="stop-color:#b30707"
         offset="0" />
      <stop
         id="stop3692-40"
         style="stop-color:#e42c0d"
         offset="1" />
    </linearGradient>
    <linearGradient
       y2="-59.097"
       x2="47.999001"
       y1="90"
       x1="48"
       gradientTransform="matrix(0.95238,0,0,0.95238,-95.640123,950.65221)"
       gradientUnits="userSpaceOnUse"
       id="linearGradient3021"
       xlink:href="#linearGradient5391"
       inkscape:collect="always" />
    <linearGradient
       id="linearGradient5443"
       y2="112"
       gradientUnits="userSpaceOnUse"
       x2="55"
       gradientTransform="matrix(0.83333,0,0,0.83333,8,964.37217)"
       y1="18"
       x1="55">
      <stop
         id="stop3827-5"
         style="stop-color:#501616"
         offset="0" />
      <stop
         id="stop3829-1"
         style="stop-color:#501616;stop-opacity:0"
         offset="1" />
    </linearGradient>
    <linearGradient
       id="linearGradient5409"
       y2="12.798"
       gradientUnits="userSpaceOnUse"
       x2="62.337002"
       gradientTransform="matrix(0.72905,0,0,0.75582,10.195,969.61)"
       y1="79.014999"
       x1="62.337002">
      <stop
         id="stop3696-5"
         style="stop-color:#e6e6e6"
         offset="0" />
      <stop
         id="stop3698-23"
         style="stop-color:#f5f5f5"
         offset="1" />
    </linearGradient>
    <linearGradient
       y2="12.798"
       x2="62.337002"
       y1="79.014999"
       x1="62.337002"
       gradientTransform="matrix(0.72905,0,0,0.75582,10.195,969.61217)"
       gradientUnits="userSpaceOnUse"
       id="linearGradient3041"
       xlink:href="#linearGradient5409"
       inkscape:collect="always" />
    <clipPath
       clipPathUnits="userSpaceOnUse"
       id="clipPath3009">
      <path
         id="path3011"
         d="m -2,956.36218 -96,0 0,33.5624 96,25.68742 0,-59.24982 z"
         style="opacity:0.15;fill:#ffffff;fill-opacity:1;stroke:none"
         inkscape:connector-curvature="0" />
    </clipPath>
  </defs>
  <sodipodi:namedview
     id="base"
     pagecolor="#ffffff"
     bordercolor="#666666"
     borderopacity="1.0"
     inkscape:pageopacity="0.0"
     inkscape:pageshadow="2"
     inkscape:zoom="3.959798"
     inkscape:cx="33.538031"
     inkscape:cy="59.964634"
     inkscape:document-units="px"
     inkscape:current-layer="layer1"
     showgrid="false"
     inkscape:window-width="1280"
     inkscape:window-height="750"
     inkscape:window-x="0"
     inkscape:window-y="22"
     inkscape:window-maximized="1"
     showguides="true"
     inkscape:guide-bbox="true">
    <sodipodi:guide
       orientation="0,1"
       position="-24.748737,0"
       id="guide11064" />
    <sodipodi:guide
       orientation="0,1"
       position="-23.233509,96"
       id="guide11066" />
    <sodipodi:guide
       orientation="1,0"
       position="0,54.800776"
       id="guide11068" />
    <sodipodi:guide
       orientation="1,0"
       position="96,51.012704"
       id="guide11070" />
    <sodipodi:guide
       orientation="0,1"
       position="-18.94036,48"
       id="guide11072" />
    <sodipodi:guide
       orientation="1,0"
       position="48,79.296975"
       id="guide11074" />
    <sodipodi:guide
       orientation="1,0"
       position="2,75.508903"
       id="guide11076" />
    <sodipodi:guide
       orientation="0,1"
       position="-77.27667,2"
       id="guide11078" />
    <sodipodi:guide
       orientation="1,0"
       position="94,77.781746"
       id="guide11080" />
    <sodipodi:guide
       orientation="0,1"
       position="123.49115,94"
       id="guide3011" />
  </sodipodi:namedview>
  <metadata
     id="metadata11042">
    <rdf:RDF>
      <cc:Work
         rdf:about="">
        <dc:format>image/svg+xml</dc:format>
        <dc:type
           rdf:resource="http://purl.org/dc/dcmitype/StillImage" />
        <dc:title />
      </cc:Work>
    </rdf:RDF>
  </metadata>
  <g
     inkscape:label="Layer 1"
     inkscape:groupmode="layer"
     id="layer1"
     transform="translate(0,-956.36218)">
    <rect
       x="2"
       y="958.36218"
       width="92"
       height="92"
       style="fill:url(#linearGradient11642);fill-opacity:1.0"
       id="rect3867"
       rx="25"
       ry="25" />
    <path
       inkscape:connector-curvature="0"
       id="path3727"
       style="fill:url(#linearGradient3041)"
       d="m 67.893,979.35217 v 10.058 c -10.043,0.17646 -12.511,9.9702 -12.511,9.9702 h 7.5745 v 10.05803 h -11.745 c -7.064,21.8 -23.319,19.9 -23.319,19.9 v -10.058 c 0,0 10.315,1.9135 15.574,-17.293 6.58,-23.99003 24.426,-22.55003 24.426,-22.55003 z" />
    <path
       inkscape:connector-curvature="0"
       id="path2902"
       style="opacity:0.25;fill:url(#linearGradient5443)"
       d="m 67.219,979.37217 c -3.5059,0.0531 -17.889,1.5813 -23.646,22.60403 -5.26,19.2 -15.573,17.3 -15.573,17.3 v 10.052 c 0,0 16.243,1.9495 23.307,-19.844 h 11.745 v -10.05203 h -7.5521 c 0,0 2.4574,-9.7975 12.5,-9.974 v -10.052 c 0,0 -0.28041,-0.0336 -0.78125,-0.026 z m -0.05208,0.88542 v 8.4635 c -4.7972,0.35153 -7.9779,2.8201 -9.8438,5.2865 -1.9757,2.6116 -2.6302,5.2083 -2.6302,5.2083 a 0.82732,0.82732 0 0 0 0.80729,1.04161 h 6.7188 v 8.3855 h -10.911 a 0.82732,0.82732 0 0 0 -0.78125,0.5729 c -3.4723,10.713 -9.1064,15.456 -13.854,17.604 -4.0554,1.8349 -6.94,1.7269 -7.8385,1.6667 v -8.3854 c 0.34038,0.018 0.39683,0.065 0.96354,0 1.1489,-0.132 2.7003,-0.5368 4.4271,-1.5625 3.4535,-2.0514 7.4883,-6.6111 10.156,-16.354 3.2381,-11.82501 9.154,-17.22101 14.245,-19.76601 4.3882,-2.1933 7.5928,-2.1914 8.5417,-2.1614 z" />
    <rect
       ry="25"
       rx="25"
       id="rect3003"
       style="opacity:0.15;fill:#ffffff;fill-opacity:1"
       height="92"
       width="92"
       y="958.36218"
       x="-96"
       clip-path="url(#clipPath3009)"
       transform="translate(98,3.8281269e-7)" />
  </g>
</svg>
