<?xml version="1.0" encoding="UTF-8" standalone="no"?>
<!-- Created with Inkscape (http://www.inkscape.org/) -->

<svg
   xmlns:dc="http://purl.org/dc/elements/1.1/"
   xmlns:cc="http://creativecommons.org/ns#"
   xmlns:rdf="http://www.w3.org/1999/02/22-rdf-syntax-ns#"
   xmlns:svg="http://www.w3.org/2000/svg"
   xmlns="http://www.w3.org/2000/svg"
   xmlns:xlink="http://www.w3.org/1999/xlink"
   xmlns:sodipodi="http://sodipodi.sourceforge.net/DTD/sodipodi-0.dtd"
   xmlns:inkscape="http://www.inkscape.org/namespaces/inkscape"
   width="96"
   height="96"
   id="svg11037"
   version="1.1"
   inkscape:version="0.48.3.1 r9886"
   sodipodi:docname="flickr.svg">
  <defs
     id="defs11039">
    <linearGradient
       y2="1046.1001"
       x2="47.999954"
       y1="962.62189"
       x1="47.999954"
       gradientTransform="matrix(1.15,0,0,1.15,-7.1999462,-150.65291)"
       gradientUnits="userSpaceOnUse"
       id="linearGradient3886"
       xlink:href="#linearGradient3795"
       inkscape:collect="always" />
    <linearGradient
       id="linearGradient3795">
      <stop
         style="stop-color:#13a6fd;stop-opacity:1;"
         offset="0"
         id="stop3797" />
      <stop
         style="stop-color:#2975b6;stop-opacity:1;"
         offset="1"
         id="stop3799" />
    </linearGradient>
    <linearGradient
       y2="1046.1001"
       x2="47.999954"
       y1="962.62189"
       x1="47.999954"
       gradientTransform="matrix(1.15,0,0,1.15,-7.1999462,-150.65292)"
       gradientUnits="userSpaceOnUse"
       id="linearGradient11642"
       xlink:href="#linearGradient5801"
       inkscape:collect="always" />
    <linearGradient
       id="linearGradient5801"
       y2="902.35999"
       gradientUnits="userSpaceOnUse"
       x2="48"
       gradientTransform="translate(151.32203,0.81355147)"
       y1="1052.4"
       x1="48">
      <stop
         id="stop3702-9"
         style="stop-color:#e1e1e1"
         offset="0" />
      <stop
         id="stop3704-22"
         style="stop-color:#f5f5f5"
         offset="1" />
    </linearGradient>
    <linearGradient
       y2="902.35999"
       x2="48"
       y1="1052.4"
       x1="48"
       gradientTransform="translate(-94.642834,-5.997769)"
       gradientUnits="userSpaceOnUse"
       id="linearGradient3030"
       xlink:href="#linearGradient5801"
       inkscape:collect="always" />
    <linearGradient
       id="linearGradient6553"
       y2="40"
       gradientUnits="userSpaceOnUse"
       x2="48"
       y1="40"
       x1="16">
      <stop
         id="stop3746-5"
         style="stop-color:#167fff"
         offset="0" />
      <stop
         id="stop3748-5"
         style="stop-color:#0063db"
         offset="1" />
    </linearGradient>
    <linearGradient
       id="linearGradient3144"
       y2="40"
       gradientUnits="userSpaceOnUse"
       y1="40"
       x2="48"
       x1="16">
      <stop
         id="stop3738-2"
         style="stop-color:#ff41a3"
         offset="0" />
      <stop
         id="stop3740-9"
         style="stop-color:#ff0084"
         offset="1" />
    </linearGradient>
    <linearGradient
       y2="40"
       x2="48"
       y1="40"
       x1="16"
       gradientUnits="userSpaceOnUse"
       id="linearGradient3058"
       xlink:href="#linearGradient3144"
       inkscape:collect="always" />
    <clipPath
       clipPathUnits="userSpaceOnUse"
       id="clipPath3009">
      <path
         id="path3011"
         d="m -2,956.36218 -96,0 0,33.5624 96,25.68742 0,-59.24982 z"
         style="opacity:0.15;fill:#ffffff;fill-opacity:1;stroke:none"
         inkscape:connector-curvature="0" />
    </clipPath>
  </defs>
  <sodipodi:namedview
     id="base"
     pagecolor="#ffffff"
     bordercolor="#666666"
     borderopacity="1.0"
     inkscape:pageopacity="0.0"
     inkscape:pageshadow="2"
     inkscape:zoom="3.959798"
     inkscape:cx="33.538031"
     inkscape:cy="59.964634"
     inkscape:document-units="px"
     inkscape:current-layer="layer1"
     showgrid="false"
     inkscape:window-width="1280"
     inkscape:window-height="750"
     inkscape:window-x="0"
     inkscape:window-y="22"
     inkscape:window-maximized="1"
     showguides="true"
     inkscape:guide-bbox="true">
    <sodipodi:guide
       orientation="0,1"
       position="-24.748737,0"
       id="guide11064" />
    <sodipodi:guide
       orientation="0,1"
       position="-23.233509,96"
       id="guide11066" />
    <sodipodi:guide
       orientation="1,0"
       position="0,54.800776"
       id="guide11068" />
    <sodipodi:guide
       orientation="1,0"
       position="96,51.012704"
       id="guide11070" />
    <sodipodi:guide
       orientation="0,1"
       position="-18.94036,48"
       id="guide11072" />
    <sodipodi:guide
       orientation="1,0"
       position="48,79.296975"
       id="guide11074" />
    <sodipodi:guide
       orientation="1,0"
       position="2,75.508903"
       id="guide11076" />
    <sodipodi:guide
       orientation="0,1"
       position="-77.27667,2"
       id="guide11078" />
    <sodipodi:guide
       orientation="1,0"
       position="94,77.781746"
       id="guide11080" />
    <sodipodi:guide
       orientation="0,1"
       position="-65.912454,94"
       id="guide11082" />
  </sodipodi:namedview>
  <metadata
     id="metadata11042">
    <rdf:RDF>
      <cc:Work
         rdf:about="">
        <dc:format>image/svg+xml</dc:format>
        <dc:type
           rdf:resource="http://purl.org/dc/dcmitype/StillImage" />
        <dc:title />
      </cc:Work>
    </rdf:RDF>
  </metadata>
  <g
     inkscape:label="Layer 1"
     inkscape:groupmode="layer"
     id="layer1"
     transform="translate(0,-956.36218)">
    <rect
       x="2"
       y="958.36218"
       width="92"
       height="92"
       style="fill:url(#linearGradient11642);fill-opacity:1.0"
       id="rect3867"
       rx="25"
       ry="25" />
    <g
       id="g3107"
       transform="matrix(0.80182,0,0,0.80182,9.6726,965.18217)">
      <path
         inkscape:connector-curvature="0"
         id="path2407"
         style="fill:#0063db"
         d="M 17.986,67.983 H 15 v -3.6828 h 3.0536 v -0.73846 c 0,-4.0433 1.6473,-5.452 4.8967,-5.452 0.88012,0 1.854,0.15649 2.3729,0.26099 l -0.24814,3.2345 c -0.33841,-0.13043 -0.9739,-0.20874 -1.5831,-0.20874 -1.038,0 -1.4442,0.83472 -1.4442,2.1652 v 0.73858 h 3.1853 v 3.6828 h -3.1853 v 10.003 h -4.0618 v -10.003 z" />
      <rect
         id="rect2409"
         style="fill:#0063db"
         height="20.061001"
         width="4.0921001"
         y="57.924999"
         x="28.062" />
      <rect
         id="rect2411"
         style="fill:#0063db"
         height="3.8048999"
         width="4.0922999"
         y="58.136002"
         x="35.993999" />
      <rect
         id="rect2413"
         style="fill:#0063db"
         height="13.752"
         width="3.9933"
         y="64.235001"
         x="35.993999" />
      <path
         inkscape:connector-curvature="0"
         id="path2415"
         style="fill:#0063db"
         d="m 53.005,68.38 c -0.75748,-0.51615 -1.515,-0.74874 -2.502,-0.74874 -1.7904,0 -3.1677,1.3945 -3.1677,3.7189 0,2.1435 1.6069,3.5378 3.3973,3.5378 0.94123,0 1.8825,-0.23221 2.5709,-0.64554 l 0.09182,3.4605 c -1.0331,0.38766 -2.2724,0.59419 -3.3743,0.59419 -3.9483,0 -6.9552,-2.5825 -6.9552,-7.0244 0,-4.4678 3.0069,-7.0502 6.9552,-7.0502 1.2396,0 2.3412,0.23246 3.2824,0.74887 l -0.2985,3.4086 z" />
      <path
         inkscape:connector-curvature="0"
         id="polygon2417"
         style="fill:#0063db"
         d="m 69.739,64.136 -5.0736,6.568 5.4613,7.2827 h -5.337 l -4.413,-6.663 h -0.05176 v 6.6627 h -4.0578 v -19.863 h 4.0578 v 12.065 h 0.05176 l 4.5694,-6.0519 h 4.7942 z" />
      <path
         inkscape:connector-curvature="0"
         id="path2419"
         style="fill:#ff0084"
         d="m 80.884,67.855 c -0.4779,-0.15468 -0.95593,-0.15468 -1.4575,-0.15468 -2.0071,0 -3.1303,1.5751 -3.1303,4.2094 v 6.0773 h -4.3009 v -13.851 h 3.9186 v 2.4792 h 0.04785 c 0.74054,-1.7045 1.8159,-2.7891 3.6798,-2.7891 0.5014,0 1.0272,0.0774 1.4577,0.15481 l -0.21527,3.8737 z" />
      <path
         inkscape:connector-curvature="0"
         id="path3732"
         style="color:#000000;fill:url(#linearGradient6553)"
         transform="matrix(0,0.9375,-0.9375,0,68.5,4)"
         d="m 48,40 a 16,16 0 1 1 -32,0 16,16 0 1 1 32,0 z" />
      <path
         inkscape:connector-curvature="0"
         id="path3734"
         style="color:#000000;fill:url(#linearGradient3058)"
         transform="matrix(0,0.9375,-0.9375,0,102.5,4)"
         d="m 48,40 a 16,16 0 1 1 -32,0 16,16 0 1 1 32,0 z" />
    </g>
    <rect
       ry="25"
       rx="25"
       id="rect3003"
       style="opacity:0.15;fill:#ffffff;fill-opacity:1"
       height="92"
       width="92"
       y="958.36218"
       x="-96"
       clip-path="url(#clipPath3009)"
       transform="translate(98,3.8281269e-7)" />
  </g>
</svg>
