<?xml version="1.0" encoding="UTF-8" standalone="no"?>
<!-- Created with Inkscape (http://www.inkscape.org/) -->

<svg
   xmlns:dc="http://purl.org/dc/elements/1.1/"
   xmlns:cc="http://creativecommons.org/ns#"
   xmlns:rdf="http://www.w3.org/1999/02/22-rdf-syntax-ns#"
   xmlns:svg="http://www.w3.org/2000/svg"
   xmlns="http://www.w3.org/2000/svg"
   xmlns:xlink="http://www.w3.org/1999/xlink"
   xmlns:sodipodi="http://sodipodi.sourceforge.net/DTD/sodipodi-0.dtd"
   xmlns:inkscape="http://www.inkscape.org/namespaces/inkscape"
   width="96"
   height="96"
   id="svg11037"
   version="1.1"
   inkscape:version="0.48.3.1 r9886"
   sodipodi:docname="gimp.svg">
  <defs
     id="defs11039">
    <linearGradient
       y2="1046.1001"
       x2="47.999954"
       y1="962.62189"
       x1="47.999954"
       gradientTransform="matrix(1.15,0,0,1.15,-7.1999462,-150.65291)"
       gradientUnits="userSpaceOnUse"
       id="linearGradient3886"
       xlink:href="#linearGradient3795"
       inkscape:collect="always" />
    <linearGradient
       id="linearGradient3795">
      <stop
         style="stop-color:#13a6fd;stop-opacity:1;"
         offset="0"
         id="stop3797" />
      <stop
         style="stop-color:#2975b6;stop-opacity:1;"
         offset="1"
         id="stop3799" />
    </linearGradient>
    <linearGradient
       y2="1046.1001"
       x2="47.999954"
       y1="962.62189"
       x1="47.999954"
       gradientTransform="matrix(1.15,0,0,1.15,-7.1999462,-150.65292)"
       gradientUnits="userSpaceOnUse"
       id="linearGradient11642"
       xlink:href="#ButtonColor"
       inkscape:collect="always" />
    <linearGradient
       x1="48"
       y1="90"
       x2="48"
       y2="5.9877172"
       id="linearGradient3706"
       xlink:href="#ButtonColor"
       gradientUnits="userSpaceOnUse"
       gradientTransform="translate(-60.20339,29.694915)" />
    <linearGradient
       x1="58.650177"
       y1="122"
       x2="58.650177"
       y2="5.4252338"
       id="ButtonColor"
       gradientUnits="userSpaceOnUse"
       gradientTransform="matrix(1.0172414,0,0,1.0172414,-1.1034483,-1.1034483)">
      <stop
         id="stop3189"
         style="stop-color:#c8a764;stop-opacity:1"
         offset="0" />
      <stop
         id="stop3191"
         style="stop-color:#e3d0ae;stop-opacity:1"
         offset="1" />
    </linearGradient>
    <linearGradient
       y2="5.9877172"
       x2="48"
       y1="90"
       x1="48"
       gradientTransform="translate(-132.60028,926.07535)"
       gradientUnits="userSpaceOnUse"
       id="linearGradient3109"
       xlink:href="#ButtonColor"
       inkscape:collect="always" />
    <linearGradient
       id="linearGradient7060"
       y2="110.45"
       gradientUnits="userSpaceOnUse"
       x2="25.784"
       gradientTransform="matrix(0.96471,0,0,1.0388,88.192,967.52)"
       y1="92.072998"
       x1="36.43">
      <stop
         id="stop3590"
         style="stop-color:#ff9b00"
         offset="0" />
      <stop
         id="stop3592"
         style="stop-color:#ff5f00"
         offset="1" />
    </linearGradient>
    <linearGradient
       id="linearGradient7056"
       y2="102.29"
       gradientUnits="userSpaceOnUse"
       x2="54.242001"
       gradientTransform="matrix(1.0043,0,0,1.0936,69.47,969.75)"
       y1="76.959999"
       x1="54.602001">
      <stop
         id="stop3582"
         style="stop-color:#f2e051"
         offset="0" />
      <stop
         id="stop3584-3"
         style="stop-color:#ffb31f"
         offset="1" />
    </linearGradient>
    <linearGradient
       id="linearGradient7052"
       y2="77.651001"
       gradientUnits="userSpaceOnUse"
       x2="50.362999"
       gradientTransform="matrix(0.86047,0,0,0.86047,90.321,1000.5)"
       y1="42.477001"
       x1="36.987999">
      <stop
         id="stop3574"
         style="stop-color:#61ae50"
         offset="0" />
      <stop
         id="stop3576"
         style="stop-color:#9ac837"
         offset="1" />
    </linearGradient>
    <linearGradient
       id="linearGradient7048"
       y2="26.721001"
       gradientUnits="userSpaceOnUse"
       x2="61.391998"
       gradientTransform="matrix(1.0271,0,0,1.0271,92.076,1005.5)"
       y1="26.721001"
       x1="26.812">
      <stop
         id="stop3566"
         style="stop-color:#3792c8"
         offset="0" />
      <stop
         id="stop3568"
         style="stop-color:#3769c8"
         offset="1" />
    </linearGradient>
    <linearGradient
       id="linearGradient7044"
       y2="54.118"
       gradientUnits="userSpaceOnUse"
       x2="98.93"
       gradientTransform="matrix(0.74975,0,0,0.74975,85.591,1006.5)"
       y1="33.633999"
       x1="69.973">
      <stop
         id="stop3558-9"
         style="stop-color:#e273be"
         offset="0" />
      <stop
         id="stop3560"
         style="stop-color:#e84058"
         offset="1" />
    </linearGradient>
    <filter
       id="filter3756"
       height="1.2625999"
       width="1.221"
       color-interpolation-filters="sRGB"
       y="-0.1313"
       x="-0.11049">
      <feGaussianBlur
         id="feGaussianBlur3758"
         stdDeviation="1.6743347" />
    </filter>
    <linearGradient
       id="linearGradient7039"
       y2="34.789001"
       gradientUnits="userSpaceOnUse"
       x2="57.334999"
       gradientTransform="matrix(0.70358,0,0,0.70358,90.921,1007.3)"
       y1="24"
       x1="52.563999">
      <stop
         id="stop3838-9"
         style="stop-color:#a5eaf6"
         offset="0" />
      <stop
         id="stop3840-5"
         style="stop-color:#35d3ed;stop-opacity:0"
         offset="1" />
    </linearGradient>
    <linearGradient
       id="linearGradient7036"
       y2="53.124001"
       xlink:href="#linearGradient3875-5"
       gradientUnits="userSpaceOnUse"
       x2="73.677002"
       gradientTransform="matrix(0.70358,0,0,0.70358,91.8,1007.2)"
       y1="46.877998"
       x1="67.278999" />
    <linearGradient
       id="linearGradient3875-5">
      <stop
         id="stop3877-73"
         style="stop-color:#ff9cf6"
         offset="0" />
      <stop
         id="stop3879"
         style="stop-color:#ff9cf6;stop-opacity:0"
         offset="1" />
    </linearGradient>
    <linearGradient
       id="linearGradient7033"
       y2="44.146"
       xlink:href="#linearGradient3875-5"
       gradientUnits="userSpaceOnUse"
       x2="84.375"
       gradientTransform="matrix(0.70358,0,0,0.70358,90.042,1007.2)"
       y1="37.528"
       x1="84.203003" />
    <linearGradient
       id="linearGradient3195">
      <stop
         id="stop3197"
         style="stop-color:#ff9cf6"
         offset="0" />
      <stop
         id="stop3199"
         style="stop-color:#ff9cf6;stop-opacity:0"
         offset="1" />
    </linearGradient>
    <linearGradient
       id="linearGradient7030"
       y2="64.408997"
       gradientUnits="userSpaceOnUse"
       x2="41.266998"
       gradientTransform="matrix(0.70358,0,0,0.70358,91.8,1007.2)"
       y1="53.165001"
       x1="30.309">
      <stop
         id="stop3923"
         style="stop-color:#b5e64e"
         offset="0" />
      <stop
         id="stop3925"
         style="stop-color:#b5e64e;stop-opacity:0"
         offset="1" />
    </linearGradient>
    <linearGradient
       id="linearGradient7027"
       y2="90.385002"
       gradientUnits="userSpaceOnUse"
       x2="64.962997"
       gradientTransform="matrix(0.70358,0,0,0.70358,91.8,1007.2)"
       y1="76.813004"
       x1="64">
      <stop
         id="stop3942-2"
         style="stop-color:#fdf49c"
         offset="0" />
      <stop
         id="stop3944-9"
         style="stop-color:#fdf49c;stop-opacity:0"
         offset="1" />
    </linearGradient>
    <linearGradient
       id="linearGradient7024"
       y2="104.59"
       gradientUnits="userSpaceOnUse"
       x2="31.351"
       gradientTransform="matrix(0.70358,0,0,0.70358,90.745,1007.2)"
       y1="87.353996"
       x1="24">
      <stop
         id="stop3972"
         style="stop-color:#ffaf44"
         offset="0" />
      <stop
         id="stop3974"
         style="stop-color:#ffaf44;stop-opacity:0"
         offset="1" />
    </linearGradient>
    <radialGradient
       id="radialGradient6498"
       gradientUnits="userSpaceOnUse"
       cy="33.938"
       cx="23"
       gradientTransform="matrix(1,0,0,0.28425,0,24.291)"
       r="18.25">
      <stop
         id="stop6494"
         offset="0" />
      <stop
         id="stop6496"
         style="stop-opacity:0"
         offset="1" />
    </radialGradient>
    <radialGradient
       id="radialGradient4354"
       gradientUnits="userSpaceOnUse"
       cy="22.299999"
       cx="18.558001"
       gradientTransform="matrix(1.7728,0,0,1.2967,-16.34,-6.616)"
       r="19.229">
      <stop
         id="stop6502"
         style="stop-color:#857c63"
         offset="0" />
      <stop
         id="stop6504"
         style="stop-color:#221f19"
         offset="1" />
    </radialGradient>
    <linearGradient
       id="linearGradient4351"
       y2="30.292999"
       gradientUnits="userSpaceOnUse"
       x2="21.212999"
       gradientTransform="translate(-3.8365,0.34597)"
       y1="28.083"
       x1="32.349998">
      <stop
         id="stop6484"
         offset="0" />
      <stop
         id="stop6486"
         style="stop-opacity:0"
         offset="1" />
    </linearGradient>
    <linearGradient
       id="linearGradient8530"
       y2="46.986"
       gradientUnits="userSpaceOnUse"
       x2="39.525002"
       y1="19.111"
       x1="14.969">
      <stop
         id="stop8526"
         style="stop-color:#fff"
         offset="0" />
      <stop
         id="stop8528"
         style="stop-color:#fff;stop-opacity:0"
         offset="1" />
    </linearGradient>
    <radialGradient
       id="radialGradient4363"
       xlink:href="#linearGradient6468"
       gradientUnits="userSpaceOnUse"
       cy="19.598"
       cx="69.473"
       gradientTransform="matrix(1.3185,0,0,1.3185,-22.126,-6.2417)"
       r="3.5153" />
    <linearGradient
       id="linearGradient6468">
      <stop
         id="stop6470"
         style="stop-color:#fff"
         offset="0" />
      <stop
         id="stop6472"
         style="stop-color:#b9b9b0"
         offset="1" />
    </linearGradient>
    <radialGradient
       id="radialGradient8548"
       gradientUnits="userSpaceOnUse"
       cy="25.271"
       cx="6.0242"
       gradientTransform="matrix(0.91616,0.093187,-0.10876,1.0693,3.2537,-3.0293)"
       r="4.8309999">
      <stop
         id="stop8544"
         style="stop-color:#5b676b"
         offset="0" />
      <stop
         id="stop8546"
         style="stop-color:#141718"
         offset="1" />
    </radialGradient>
    <linearGradient
       id="linearGradient6458"
       y2="31.57"
       gradientUnits="userSpaceOnUse"
       x2="5.9846001"
       y1="23.362"
       x1="6.3052001">
      <stop
         id="stop6454"
         style="stop-color:#fff"
         offset="0" />
      <stop
         id="stop6456"
         style="stop-color:#fff;stop-opacity:0"
         offset="1" />
    </linearGradient>
    <radialGradient
       id="radialGradient3232"
       xlink:href="#linearGradient6468"
       gradientUnits="userSpaceOnUse"
       cy="19.598"
       cx="69.473"
       gradientTransform="matrix(1.3185,0,0,1.3185,-22.126,-6.2417)"
       r="3.5153" />
    <linearGradient
       id="linearGradient3234">
      <stop
         id="stop3236"
         style="stop-color:#fff"
         offset="0" />
      <stop
         id="stop3238"
         style="stop-color:#b9b9b0"
         offset="1" />
    </linearGradient>
    <linearGradient
       id="linearGradient6957"
       y2="11.182"
       gradientUnits="userSpaceOnUse"
       x2="27.754"
       gradientTransform="translate(-49.305,1.8777)"
       y1="19.24"
       x1="37.018002">
      <stop
         id="stop6953"
         style="stop-color:#6e3d09"
         offset="0" />
      <stop
         id="stop6959"
         style="stop-color:#ea8113"
         offset=".24242" />
      <stop
         id="stop6961"
         style="stop-color:#5c3307"
         offset=".62121" />
      <stop
         id="stop6955"
         style="stop-color:#e07c12"
         offset="1" />
    </linearGradient>
    <linearGradient
       id="linearGradient6945"
       y2="33.438999"
       gradientUnits="userSpaceOnUse"
       x2="23.108999"
       gradientTransform="translate(-46.407,-1.8029)"
       y1="30.000999"
       x1="19.395">
      <stop
         id="stop6941"
         style="stop-color:#bdbdbd"
         offset="0" />
      <stop
         id="stop6947"
         style="stop-color:#e2e2e2"
         offset=".33333" />
      <stop
         id="stop6949"
         style="stop-color:#a3a3a3"
         offset=".66667" />
      <stop
         id="stop6943"
         style="stop-color:#ddd"
         offset="1" />
    </linearGradient>
    <radialGradient
       id="radialGradient6969"
       gradientUnits="userSpaceOnUse"
       cy="35.356998"
       cx="15.415"
       gradientTransform="matrix(1.5727,0,0,1.5326,-55.367,-21.358)"
       r="7.5791998">
      <stop
         id="stop6965"
         style="stop-color:#696969"
         offset="0" />
      <stop
         id="stop6967"
         offset="1" />
    </radialGradient>
    <linearGradient
       id="linearGradient2452"
       y2="42.282001"
       gradientUnits="userSpaceOnUse"
       x2="7.7521"
       gradientTransform="matrix(0.75516,0.39514,-0.39514,0.75516,-25.912,6.5326)"
       y1="37.751999"
       x1="13.236">
      <stop
         id="stop2448"
         style="stop-color:#fff"
         offset="0" />
      <stop
         id="stop2450"
         style="stop-color:#fff;stop-opacity:0"
         offset="1" />
    </linearGradient>
    <linearGradient
       id="linearGradient3151"
       y2="30.985001"
       gradientUnits="userSpaceOnUse"
       y1="30.542999"
       x2="24.329"
       x1="26.163">
      <stop
         id="stop8536"
         offset="0" />
      <stop
         id="stop8538"
         style="stop-opacity:0"
         offset="1" />
    </linearGradient>
    <radialGradient
       r="3.5153"
       cy="19.598"
       cx="69.473"
       gradientTransform="matrix(1.3185,0,0,1.3185,-22.126,-6.2417)"
       gradientUnits="userSpaceOnUse"
       id="radialGradient3301"
       xlink:href="#linearGradient6468"
       inkscape:collect="always" />
    <clipPath
       clipPathUnits="userSpaceOnUse"
       id="clipPath3009">
      <path
         id="path3011"
         d="m -2,956.36218 -96,0 0,33.5624 96,25.68742 0,-59.24982 z"
         style="opacity:0.15;fill:#ffffff;fill-opacity:1;stroke:none"
         inkscape:connector-curvature="0" />
    </clipPath>
  </defs>
  <sodipodi:namedview
     id="base"
     pagecolor="#ffffff"
     bordercolor="#666666"
     borderopacity="1.0"
     inkscape:pageopacity="0.0"
     inkscape:pageshadow="2"
     inkscape:zoom="3.959798"
     inkscape:cx="33.538031"
     inkscape:cy="59.964634"
     inkscape:document-units="px"
     inkscape:current-layer="layer1"
     showgrid="false"
     inkscape:window-width="1280"
     inkscape:window-height="750"
     inkscape:window-x="0"
     inkscape:window-y="22"
     inkscape:window-maximized="1"
     showguides="true"
     inkscape:guide-bbox="true">
    <sodipodi:guide
       orientation="0,1"
       position="-24.748737,0"
       id="guide11064" />
    <sodipodi:guide
       orientation="0,1"
       position="-23.233509,96"
       id="guide11066" />
    <sodipodi:guide
       orientation="1,0"
       position="0,54.800776"
       id="guide11068" />
    <sodipodi:guide
       orientation="1,0"
       position="96,51.012704"
       id="guide11070" />
    <sodipodi:guide
       orientation="0,1"
       position="-18.94036,48"
       id="guide11072" />
    <sodipodi:guide
       orientation="1,0"
       position="48,79.296975"
       id="guide11074" />
    <sodipodi:guide
       orientation="1,0"
       position="2,75.508903"
       id="guide11076" />
    <sodipodi:guide
       orientation="0,1"
       position="-77.27667,2"
       id="guide11078" />
    <sodipodi:guide
       orientation="1,0"
       position="94,77.781746"
       id="guide11080" />
    <sodipodi:guide
       orientation="0,1"
       position="-65.912454,94"
       id="guide11082" />
  </sodipodi:namedview>
  <metadata
     id="metadata11042">
    <rdf:RDF>
      <cc:Work
         rdf:about="">
        <dc:format>image/svg+xml</dc:format>
        <dc:type
           rdf:resource="http://purl.org/dc/dcmitype/StillImage" />
        <dc:title />
      </cc:Work>
    </rdf:RDF>
  </metadata>
  <g
     inkscape:label="Layer 1"
     inkscape:groupmode="layer"
     id="layer1"
     transform="translate(0,-956.36218)">
    <rect
       x="2"
       y="958.36218"
       width="92"
       height="92"
       style="fill:url(#linearGradient11642);fill-opacity:1.0"
       id="rect3867"
       rx="25"
       ry="25" />
    <g
       transform="translate(-182.19,-40.40382)"
       id="g3117">
      <g
         transform="matrix(0,-0.49139,-0.49139,0,757.47,1120.6)"
         id="g7065">
        <path
           inkscape:connector-curvature="0"
           d="m 118.33,1058.8 c -1.9736,0.5952 -4.3173,0.1075 -5.7182,2.1487 -1.7846,1.4257 -3.7141,3.9345 -6.1948,2.9906 -1.0572,-0.5049 -4.4763,-2.7274 -3.3878,0.032 1.5586,0.9326 4.8985,1.3 4.2142,4.1452 -0.7198,1.9312 -2.3186,4.0654 -1.2806,6.1975 1.4993,1.336 3.0349,3.8375 0.83391,5.3799 -1.4883,1.3952 -3.1818,2.4625 -4.7875,3.664 -1.6468,1.9781 1.2812,3.0546 2.2113,1.0984 1.3375,-1.604 3.6593,-3.3596 5.5991,-1.8039 2.2418,1.7432 1.2648,4.9164 -0.0893,6.7668 1.1395,2.7607 1.8763,-1.1598 2.539,-2.1968 1.2832,-2.101 3.7289,-0.8051 5.4576,-0.2726 2.2466,0.7746 3.6733,-2.0995 5.8672,-2.0525 2.0844,-0.3521 0.93466,-4.208 3.5367,-4.2012 2.1506,-0.8497 4.8815,-2.3963 4.6684,-5.2916 -0.30164,-2.8393 -2.6843,-4.843 -2.8293,-7.7531 0.1409,-2.3129 -0.46069,-5.359 -3.2686,-4.6502 -2.6187,-0.1236 -5.3438,-1.0924 -6.5968,-3.7522 l -0.34994,-0.2646 -0.42441,-0.1844 z m 10.573,22.497 c -0.0597,0 -0.12286,0 -0.18615,0.01 -0.65103,0.058 -1.4712,0.558 -1.9805,1.3951 -0.35749,0.5875 -0.36188,0.711 -0.007,1.5153 0.21155,0.4801 0.38717,0.9872 0.38717,1.1305 0,0.1433 0.13402,0.3217 0.29782,0.3928 0.60278,0.2619 0.86521,0.151 1.4594,-0.6093 0.63201,-0.8088 0.96413,-2.0545 0.82646,-3.1028 -0.0626,-0.4764 -0.37897,-0.7099 -0.79668,-0.7296 z"
           style="fill:url(#linearGradient7060)"
           id="path2617" />
        <path
           inkscape:connector-curvature="0"
           d="m 103.12,1062.6 c -0.33059,0.094 -0.42812,0.4789 -0.0879,1.3412 1.2594,0.7536 3.677,1.1494 4.1995,2.7704 0.006,-0.015 0.0165,-0.029 0.022,-0.044 0.66712,-2.774 -2.4866,-3.184 -4.0896,-4.0676 h -0.044 z m 2.5725,9.4764 c -0.12847,0.7327 -0.0968,1.458 0.26384,2.1987 0.77699,0.6924 1.5536,1.7038 1.8249,2.7264 0.46563,-1.4268 -0.68826,-3.1207 -1.8249,-4.1335 -0.12975,-0.2665 -0.20963,-0.5254 -0.26384,-0.7916 z m 26.055,2.9243 c -0.40934,2.2473 -2.7355,3.522 -4.6173,4.2655 -2.602,-0.01 -1.4555,3.8474 -3.5399,4.1995 -2.1938,-0.047 -3.6239,2.8194 -5.8705,2.0448 -1.7287,-0.5325 -4.1696,-1.8371 -5.4528,0.2639 -0.57493,0.8997 -1.2095,3.9746 -2.1108,2.9682 -0.13279,0.2249 -0.27284,0.4396 -0.41775,0.6376 1.1396,2.7607 1.8659,-1.1617 2.5285,-2.1987 1.2832,-2.101 3.7241,-0.7963 5.4528,-0.2638 2.2466,0.7746 3.6767,-2.0918 5.8705,-2.0448 2.0844,-0.3521 0.9379,-4.2062 3.5399,-4.1995 0.0411,-0.016 0.0904,-0.027 0.13192,-0.044 0.46021,-0.4471 0.99012,-0.7283 1.4511,-0.7695 h 0.13192 c 1.6482,-0.9295 3.1048,-2.3324 2.9463,-4.4854 -0.0133,-0.1256 -0.0229,-0.2513 -0.044,-0.3738 z m -23.438,5.6067 c -1.5341,-0.087 -3.0865,1.2155 -4.0896,2.4186 -0.57091,1.2007 -1.8842,1.2292 -2.4406,0.6376 -1.071,1.7576 1.5645,2.612 2.4406,0.7695 1.3375,-1.604 3.6669,-3.3586 5.6067,-1.8029 0.76095,0.5918 1.1449,1.3411 1.2752,2.1547 0.1962,-1.3164 -0.088,-2.6386 -1.2752,-3.5619 -0.48495,-0.3889 -1.0058,-0.5865 -1.5171,-0.6156 z m 21.349,1.2313 c -0.12119,0.6846 -0.4005,1.3465 -0.79153,1.8469 -0.59413,0.7603 -0.84836,0.8775 -1.4511,0.6156 -0.16381,-0.071 -0.30782,-0.2524 -0.30782,-0.3957 0,-0.1433 -0.16223,-0.6413 -0.37378,-1.1214 -0.0113,-0.026 -0.0114,-0.042 -0.022,-0.066 -0.32718,0.5452 -0.32216,0.6922 0.022,1.4731 0.21155,0.4801 0.37378,0.978 0.37378,1.1213 0,0.1434 0.14401,0.3246 0.30782,0.3958 0.60278,0.2619 0.85701,0.1447 1.4511,-0.6156 0.63201,-0.8088 0.97317,-2.0519 0.83551,-3.1002 -0.008,-0.06 -0.0285,-0.1019 -0.044,-0.1539 z"
           style="opacity:0.3"
           id="path3779" />
        <path
           inkscape:connector-curvature="0"
           d="m 141.78,1050.9 c -1.6515,2.3369 -1.2266,6.1053 -3.5839,7.8274 -1.7017,1.0907 -3.7198,-2.3262 -3.7158,0.3078 -2.1049,1.0254 -4.3573,-1.4227 -6.3982,0.3518 -1.5927,1.3524 -2.8379,-2.0887 -2.6824,0.5497 -1.7132,1.5148 -1.6822,4.0498 -3.1661,5.6067 -2.7523,1.5101 -5.9798,0.3039 -8.9267,0.7695 1.9431,1.2329 4.3524,-0.2573 6.3982,0.8355 2.1588,1.0757 3.5915,3.4187 4.4414,5.7167 1.1056,2.4938 -1.985,4.3372 -1.9568,6.2882 1.2161,-1.8848 2.0298,-4.8715 4.6393,-4.7492 1.1007,1.1625 1.8112,2.8234 3.43,1.5611 1.7436,-0.6742 4.1588,1.8751 4.7712,1.3632 1.0785,-0.8911 1.8272,2.1904 1.737,-0.2858 1.7541,-1.5916 5.3126,-0.6997 6.2663,1.627 1.3942,1.3419 -1.2975,-2.0669 -0.96743,-3.1881 -0.0606,-2.77 3.05,-4.5533 5.3648,-3.8037 3.4198,0.7138 -2.8807,-0.8821 -2.1108,-3.2541 -0.003,-1.5606 1.9945,-3.2428 -0.37378,-3.6059 -1.6316,-0.8911 -3.2496,-2.5239 -3.298,-4.2435 -2.9818,0.06 -1.7866,-4.3805 -0.92346,-6.2223 0.37946,-1.1095 1.0238,-2.2984 1.0554,-3.452 z m -18.271,3.7598 c -0.30458,0 -0.16914,0.3553 0.48372,1.4072 0.70384,1.134 0.84143,1.2688 0.59364,0.5716 -0.33072,-0.9305 -0.90988,-1.9788 -1.0774,-1.9788 z m 30.254,8.509 c -1.3772,0.1186 -4.5925,1.7115 -1.5171,0.6596 0.51792,-0.1744 1.0407,-0.3783 1.5171,-0.6596 z m -5.4968,4.0896 c -0.11132,0 -0.22338,0.02 -0.30782,0.044 -0.16888,0.047 -0.0299,0.088 0.30782,0.088 0.33777,0 0.47671,-0.041 0.30782,-0.088 -0.0845,-0.024 -0.19651,-0.044 -0.30782,-0.044 z m 0.79153,0.1759 c 0.94844,0.4754 4.9441,0.6457 2.0888,0.1099 -0.69698,-0.024 -1.3978,0.015 -2.0888,-0.1099 z m -28.957,9.5423 -0.87948,0.8575 c -0.12334,-0.3725 -0.61394,-0.3102 -0.8355,-0.066 -0.84892,0.661 -1.4132,1.6261 -2.2647,2.2866 -0.2749,0.2668 -0.0733,0.6943 0.1759,0.9015 0.35537,0.3437 0.78103,0.6217 1.2533,0.7695 0.46733,0.022 0.68394,-0.4735 0.83551,-0.8355 0.18748,-0.4827 0.35651,-0.9725 0.54967,-1.4511 0.0701,-0.4874 0.0842,-0.9985 0.3518,-1.4292 0.21217,-0.3881 0.50356,-0.7206 0.81351,-1.0334 z m 14.182,2.3087 c -0.0359,0.014 -0.0497,0.1154 -0.044,0.2638 0.008,0.2187 0.0539,0.2597 0.10993,0.1099 0.0507,-0.1355 0.0363,-0.2894 -0.022,-0.3518 -0.0146,-0.016 -0.032,-0.027 -0.044,-0.022 z m -0.088,0.8135 c -1.1167,1.1777 -0.27344,2.6672 0,0 z m 3.0782,0.3078 c -0.0359,0.014 -0.0497,0.1154 -0.044,0.2638 0.008,0.2187 0.0319,0.2597 0.088,0.11 0.0507,-0.1355 0.0583,-0.2895 0,-0.3518 -0.0146,-0.016 -0.032,-0.027 -0.044,-0.022 z"
           style="fill:url(#linearGradient7056)"
           id="path2639" />
        <path
           inkscape:connector-curvature="0"
           d="m 141.78,1050.9 c -1.1261,1.5935 -1.2872,3.8507 -2.0228,5.6727 -0.02,0.3405 -0.002,0.6655 0.044,0.9674 0.14386,-1.1688 0.55939,-2.4113 0.92346,-3.1881 0.37945,-1.1095 1.0238,-2.2984 1.0554,-3.452 z m -18.271,3.7598 c -0.30459,0 -0.16914,0.3553 0.48371,1.4072 0.70384,1.134 0.84143,1.2688 0.59365,0.5716 -0.33072,-0.9305 -0.90988,-1.9788 -1.0774,-1.9788 z m 30.254,8.509 c -1.3772,0.1186 -4.5925,1.7115 -1.5171,0.6596 0.51791,-0.1744 1.0407,-0.3783 1.5171,-0.6596 z m -7.8933,1.9788 c -0.23232,0.5783 -0.55081,1.2338 -0.54967,1.8689 -0.10908,0.336 -0.083,0.6669 0.044,0.9674 0.22654,-1.1296 1.1925,-2.2558 0.5057,-2.8363 z m -25.439,1.0334 c -2.2992,0.4356 -4.8035,-0.2347 -7.1238,0.1319 1.9431,1.2329 4.3524,-0.2573 6.3982,0.8355 2.1588,1.0757 3.5915,3.4187 4.4414,5.7167 0.0622,0.1402 0.095,0.2814 0.13193,0.4177 0.15115,-0.5736 0.15543,-1.1767 -0.13193,-1.8249 -0.74942,-2.0264 -1.9617,-4.0804 -3.7158,-5.2769 z m 27.836,1.0774 c -0.11132,0 -0.22338,0.02 -0.30782,0.044 -0.16889,0.047 -0.0299,0.088 0.30782,0.088 0.33776,0 0.4767,-0.041 0.30782,-0.088 -0.0845,-0.024 -0.19651,-0.044 -0.30782,-0.044 z m 0.79153,0.1759 c 0.94843,0.4754 4.9441,0.6457 2.0888,0.1099 -0.69699,-0.024 -1.3978,0.015 -2.0888,-0.1099 z m -3.1441,2.7044 c -1.9585,0.1892 -3.8957,1.743 -3.8477,3.9356 -0.0538,0.1826 -0.01,0.4301 0.066,0.7036 0.42692,-2.3558 3.1883,-3.7836 5.2989,-3.1001 2.4981,0.5214 -0.18643,-0.1934 -1.5171,-1.5391 z m -19.085,2.8583 c -1.0775,-0.05 -1.8427,0.4301 -2.4626,1.1433 -0.12931,1.8789 -2.1998,3.4096 -2.1767,5.013 1.2161,-1.8848 2.0298,-4.8715 4.6393,-4.7492 1.1007,1.1625 1.8112,2.8234 3.43,1.5611 1.7436,-0.6742 4.1588,1.8751 4.7712,1.3632 1.0785,-0.8911 1.8272,2.1904 1.737,-0.2858 1.7541,-1.5916 5.3126,-0.6997 6.2663,1.627 1.2272,1.1811 -0.71036,-1.3239 -0.96743,-2.7044 -1.4706,-1.2881 -3.9285,-1.5732 -5.2989,-0.3298 0.0903,2.4762 -0.65848,-0.6053 -1.737,0.2858 -0.61243,0.5119 -3.0276,-2.0373 -4.7712,-1.3631 -1.6188,1.2622 -2.3293,-0.3986 -3.43,-1.5611 z m -6.728,3.9796 -0.87948,0.8575 c -0.0399,-0.1204 -0.12473,-0.1818 -0.21987,-0.2199 -0.0183,0.1419 -0.0458,0.2774 -0.066,0.4178 -0.19316,0.4787 -0.36219,0.9685 -0.54967,1.4511 -0.15157,0.362 -0.36818,0.8575 -0.83551,0.8356 -0.39326,-0.1232 -0.74041,-0.3493 -1.0554,-0.6157 -0.12287,0.1177 -0.23874,0.247 -0.37378,0.3518 -0.27491,0.2668 -0.0733,0.6943 0.1759,0.9015 0.35537,0.3437 0.78103,0.6217 1.2533,0.7695 0.46733,0.022 0.68394,-0.4735 0.83551,-0.8355 0.18748,-0.4827 0.35651,-0.9725 0.54967,-1.4511 0.0701,-0.4874 0.0842,-0.9985 0.35179,-1.4292 0.21217,-0.3881 0.50357,-0.7206 0.81352,-1.0334 z m 14.182,2.3087 c -0.0359,0.014 -0.0497,0.1154 -0.044,0.2638 0.008,0.2187 0.0539,0.2597 0.10993,0.1099 0.0507,-0.1355 0.0363,-0.2894 -0.022,-0.3518 -0.0146,-0.016 -0.032,-0.027 -0.044,-0.022 z m -0.088,0.8135 c -1.1167,1.1777 -0.27344,2.6672 0,0 z m 3.0782,0.3078 c -0.0359,0.014 -0.0497,0.1154 -0.044,0.2638 0.008,0.2187 0.0319,0.2597 0.088,0.11 0.0507,-0.1355 0.0583,-0.2895 0,-0.3518 -0.0146,-0.016 -0.032,-0.027 -0.044,-0.022 z"
           style="opacity:0.5;fill:#794200"
           id="path3774" />
        <path
           inkscape:connector-curvature="0"
           d="m 120.4,1073.4 c 0,-0.4036 0.21182,-0.7338 0.47072,-0.7338 0.2589,0 0.47072,0.1993 0.47072,0.4429 0,0.2436 -0.21182,0.5739 -0.47072,0.7339 -0.2589,0.16 -0.47072,-0.039 -0.47072,-0.443 z m 2.3536,-4.8387 c -1.0976,-0.442 -1.8515,-1.6595 -1.8679,-3.0165 -0.0111,-0.9135 -0.37111,-1.3849 -1.376,-1.8011 -1.7525,-0.7259 -2.9883,-0.017 -3.7781,2.167 -0.39475,1.0917 -0.86791,1.5776 -1.5363,1.5776 -1.1245,0 -1.0487,-0.6845 0.50833,-4.5895 0.54193,-1.3592 0.77437,-2.4713 0.51653,-2.4713 -0.25783,0 -0.4688,-0.3111 -0.4688,-0.6913 0,-0.4211 -0.27597,-0.5854 -0.70607,-0.4203 -0.39024,0.1497 -0.70607,0.014 -0.70607,-0.3043 0,-0.4031 -0.34716,-0.3478 -1.1602,0.185 -1.5001,0.9829 -1.6641,0.9601 -1.6641,-0.2316 0,-0.6575 -0.2225,-0.9064 -0.66006,-0.7385 -1.2242,0.4698 -1.1714,-0.2417 0.10169,-1.3693 1.0082,-0.8929 1.133,-1.2064 0.61574,-1.5465 -0.35679,-0.2346 -0.5122,-0.6474 -0.34536,-0.9174 0.41343,-0.6689 -0.52981,-1.1799 -2.7334,-1.4808 -2.4995,-0.3413 -2.8098,-1.4109 -0.43058,-1.4843 2.6516,-0.082 4.5245,-0.5707 4.7468,-1.2388 0.10766,-0.3236 -0.11494,-0.5884 -0.49466,-0.5884 -0.9466,0 -1.2773,-1.5718 -0.71805,-3.4127 0.61444,-2.0226 -0.14207,-3.9977 -1.679,-4.3835 -1.3497,-0.3387 -1.8097,-1.2454 -1.42,-2.7983 0.63048,-2.512 3.478,-1.9655 4.4529,0.8546 l 0.68209,1.9731 2.7562,0.1 c 1.6978,0.061 3.5758,0.4965 4.8906,1.133 2.694,1.3041 3.2513,0.9821 4.8088,-2.7787 1.1912,-2.8765 1.9886,-3.5317 3.7407,-3.0735 1.241,0.3245 1.5352,1.8706 0.72492,3.8098 -1.0887,2.6056 -0.9106,3.8694 0.54534,3.8694 0.6747,0 2.0484,0.6508 3.0526,1.4461 1.2402,0.9823 2.1224,1.352 2.7503,1.1528 1.0335,-0.3281 2.8554,1.1673 2.8554,2.3437 0,1.0218 -1.8391,2.7064 -2.6253,2.4047 -0.91878,-0.3525 -0.84232,0.6254 0.13318,1.7033 0.66181,0.7313 0.70128,1.0498 0.22469,1.813 -0.64682,1.0357 -0.12149,1.4723 1.5794,1.3126 2.4062,-0.2259 3.2818,0.6899 2.7187,2.8433 -0.44233,1.6915 -3.9135,1.6683 -3.9135,-0.026 0,-0.4957 -0.29595,-1.0148 -0.65766,-1.1536 -0.86284,-0.3311 -7.9047,0.6537 -8.4299,1.1789 -0.22876,0.2288 -0.0913,1.0173 0.31387,1.8008 0.5573,1.0777 1.0579,1.4035 2.2066,1.4362 1.6835,0.048 1.733,0.075 1.8709,1.0439 0.26408,1.855 -0.0555,2.7225 -1.0701,2.9053 -1.5477,0.2787 -2.7066,-0.059 -2.7066,-0.788 0,-0.7128 -1.2547,-2.1173 -1.8916,-2.1173 -0.22669,0 -0.37874,0.8379 -0.3379,1.8621 0.0408,1.0242 -0.0238,1.9601 -0.14358,2.08 -0.42566,0.4256 -2.5805,0.7059 -3.2756,0.4259 z m -5.6486,-1.2739 c 0,-0.4366 0.40246,-0.7406 0.98065,-0.7406 1.1472,0 0.98502,1.1 -0.19591,1.329 -0.46448,0.09 -0.78474,-0.15 -0.78474,-0.5884 z m -16.995,-2.4695 c -0.41562,-0.1082 -1.0373,-0.7229 -1.3814,-1.366 -0.70839,-1.3237 -0.15749,-2.1884 1.76,-2.7626 1.4353,-0.4298 3.1353,1.2751 2.6963,2.7043 -0.17484,0.5692 -0.34455,1.0617 -0.37712,1.0942 -0.26418,0.2642 -2.0919,0.4879 -2.6977,0.3301 z m 5.6982,-2.2722 c 0,-0.9414 0.23536,-1.1768 1.1768,-1.1768 0.94143,0 1.1768,0.2354 1.1768,1.1768 0,0.9415 -0.23536,1.1768 -1.1768,1.1768 -0.94144,0 -1.1768,-0.2353 -1.1768,-1.1768 z"
           style="fill:url(#linearGradient7052)"
           id="path2707" />
        <path
           inkscape:connector-curvature="0"
           d="m 129.93,1038.3 c -0.0722,0.3873 -0.19134,0.8166 -0.37378,1.2532 -0.64958,1.5547 -0.84836,2.6163 -0.59365,3.2321 0.10756,-0.5152 0.29425,-1.1084 0.59365,-1.8249 0.43407,-1.0389 0.5494,-1.9746 0.37378,-2.6604 z m -22.471,0.8355 c -0.29873,1.4271 0.18447,2.271 1.4731,2.5944 0.99182,0.249 1.6418,1.1723 1.8249,2.3307 0.29338,-1.782 -0.45211,-3.3933 -1.8249,-3.7378 -0.78564,-0.1972 -1.2825,-0.5898 -1.4731,-1.1873 z m 2.9463,7.8933 c -0.1726,1.1305 0.0206,2.0301 0.5057,2.3526 0.50162,-0.1881 0.81812,-0.431 0.90147,-0.6816 0.10765,-0.3236 -0.104,-0.5716 -0.48372,-0.5716 -0.48848,0 -0.80065,-0.4413 -0.92345,-1.0994 z m 28.143,2.0008 c -0.49598,0.9448 -1.7896,1.9784 -2.4186,1.737 -0.82513,-0.3166 -0.82052,0.4249 -0.10993,1.3632 0.0405,0.011 0.0646,0.027 0.10993,0.044 0.78621,0.3017 2.6384,-1.3968 2.6384,-2.4186 0,-0.2376 -0.0928,-0.4796 -0.21987,-0.7256 z m -31.485,2.3307 c -2.3792,0.073 -2.0598,1.1318 0.43974,1.4731 2.2036,0.3008 3.1398,0.8262 2.7264,1.4951 -0.12513,0.2025 -0.0765,0.4758 0.10994,0.7036 0.62389,-0.614 0.67854,-0.9222 0.24185,-1.2093 -0.35678,-0.2346 -0.51863,-0.6315 -0.35179,-0.9015 0.41342,-0.6689 -0.52284,-1.1942 -2.7264,-1.4951 -0.13958,-0.019 -0.24794,-0.043 -0.37378,-0.066 -0.0224,7e-4 -0.0434,-7e-4 -0.066,0 z m 29.485,2.8363 c -0.0189,0.032 -0.0231,0.055 -0.044,0.088 -0.3854,0.6171 -0.35964,1.017 0.088,1.2093 0.27405,-0.4995 0.28248,-0.8501 -0.044,-1.2972 z m -26.406,2.5065 c -0.0319,0 -0.074,0.018 -0.10993,0.022 -0.0271,0.024 -0.0374,0.041 -0.066,0.066 -1.2731,1.1276 -1.3342,1.833 -0.10994,1.3632 0.43755,-0.1679 0.65961,0.09 0.65961,0.7476 0,1.1917 0.17093,1.2028 1.671,0.2199 0.81308,-0.5328 1.1653,-0.579 1.1653,-0.1759 0,0.3179 0.31335,0.4575 0.70358,0.3078 0.4301,-0.1651 0.70359,0 0.70359,0.4177 0,0.3076 0.1406,0.5486 0.3298,0.6377 0.23908,-0.7956 0.31274,-1.3632 0.13193,-1.3632 -0.25784,0 -0.46173,-0.3014 -0.46173,-0.6816 0,-0.4211 -0.27349,-0.5828 -0.70359,-0.4178 -0.39023,0.1498 -0.70358,0.01 -0.70358,-0.3078 0,-0.4031 -0.35223,-0.3568 -1.1653,0.1759 -1.5001,0.9829 -1.671,0.9718 -1.671,-0.2199 0,-0.4931 -0.1266,-0.7615 -0.37377,-0.7915 z m 25.483,0.4837 c -1.9331,-0.026 -7.3678,0.7937 -7.8274,1.2533 -0.18395,0.1839 -0.12851,0.727 0.10993,1.3412 0.97068,-0.5365 7.4816,-1.4397 8.3111,-1.1214 0.36171,0.1388 0.65961,0.6476 0.65961,1.1434 0,1.6944 3.4714,1.7354 3.9137,0.044 0.18934,-0.724 0.20541,-1.3111 0.066,-1.7589 -0.0231,0.1177 -0.033,0.2256 -0.066,0.3518 -0.44234,1.6915 -3.9137,1.6505 -3.9137,-0.044 0,-0.4957 -0.2979,-1.0045 -0.65961,-1.1433 -0.10785,-0.041 -0.3175,-0.062 -0.59365,-0.066 z m -37.004,4.5293 c -0.28886,0.4534 -0.24426,1.0092 0.10994,1.671 0.34418,0.6432 0.96956,1.255 1.3852,1.3632 0.60579,0.1578 2.4402,-0.066 2.7044,-0.3298 0.0326,-0.033 0.19893,-0.5301 0.37378,-1.0993 0.11903,-0.3875 0.0596,-0.7853 -0.088,-1.1653 -0.12929,0.4019 -0.26048,0.8321 -0.28583,0.8575 -0.26419,0.2642 -2.0986,0.4875 -2.7044,0.3298 -0.41561,-0.1083 -1.041,-0.7201 -1.3852,-1.3632 -0.04843,-0.091 -0.07331,-0.1776 -0.10994,-0.2639 z m 7.2777,0.066 c -0.0629,0.1718 -0.0879,0.3819 -0.0879,0.6816 0,0.9414 0.24586,1.1873 1.1873,1.1873 0.94143,0 1.1653,-0.2459 1.1653,-1.1873 0,-0.302 -0.0239,-0.5094 -0.088,-0.6816 -0.13947,0.3487 -0.44974,0.4617 -1.0774,0.4617 -0.63086,0 -0.96096,-0.1087 -1.0994,-0.4617 z m 12.401,0.1979 c -1.1239,0 -1.9802,0.8025 -2.5725,2.4405 -0.39475,1.0917 -0.84873,1.5831 -1.5171,1.5831 -0.26458,0 -0.46563,-0.023 -0.59365,-0.1319 -0.34988,1.2523 -0.13217,1.5391 0.59365,1.5391 0.66838,0 1.1224,-0.4914 1.5171,-1.5831 0.78977,-2.1841 2.0293,-2.8806 3.7818,-2.1547 1.0049,0.4162 1.3741,0.8893 1.3852,1.8029 0.0164,1.357 0.77134,2.5702 1.8689,3.0122 0.69506,0.2799 2.8504,0.01 3.2761,-0.4177 0.1198,-0.1198 0.17276,-1.0646 0.13192,-2.0888 -0.0263,0.363 -0.0734,0.6231 -0.13192,0.6816 -0.42567,0.4257 -2.581,0.6977 -3.2761,0.4178 -1.0976,-0.442 -1.8525,-1.6553 -1.8689,-3.0123 -0.0111,-0.9135 -0.38031,-1.3867 -1.3852,-1.8029 -0.43812,-0.1815 -0.83464,-0.2843 -1.2093,-0.2858 z m 8.2231,0.7255 c -0.22669,10e-5 -0.39263,0.8448 -0.35179,1.8689 0.009,0.2335 0.023,0.466 0.022,0.6816 0.0362,-0.6677 0.15978,-1.1433 0.3298,-1.1433 0.63681,0 1.8909,1.4199 1.8909,2.1328 0,0.7292 1.1567,1.0482 2.7044,0.7695 0.95145,-0.1714 1.2784,-0.9473 1.0994,-2.5725 -0.12677,0.6905 -0.48009,1.0538 -1.0994,1.1653 -1.5477,0.2787 -2.7044,-0.04 -2.7044,-0.7695 0,-0.7128 -1.2541,-2.1328 -1.8909,-2.1328 z m -8.421,3.7598 c -0.57819,0 -0.98941,0.3109 -0.98941,0.7476 0,0.4383 0.32705,0.6837 0.79153,0.5936 1.1809,-0.229 1.345,-1.3412 0.19788,-1.3412 z m 2.7704,6.1344 c -0.2589,0 -0.46173,0.322 -0.46173,0.7256 0,0.4036 0.20283,0.5997 0.46173,0.4397 0.25889,-0.16 0.48371,-0.4819 0.48371,-0.7256 0,-0.2436 -0.22482,-0.4397 -0.48371,-0.4397 z"
           style="opacity:0.3"
           id="path3767" />
        <path
           inkscape:connector-curvature="0"
           d="m 120.41,1016.6 c -0.30175,-2e-4 -0.64224,0.086 -1.0114,0.2638 -1.302,0.9835 -3.0183,-0.881 -4.3095,0.2859 -1.3556,2.1741 1.798,2.4501 3.1661,2.9242 1.6674,0.38 2.2943,1.7765 3.0122,2.9023 2.1493,0.4934 2.014,-2.2873 1.4951,-3.6058 -0.34603,-1.2796 -1.045,-2.7695 -2.3526,-2.7704 z m 12.533,0.4177 c -1.901,1.5436 1.1527,4.6058 -1.5171,6.0025 -1.9659,1.4264 -4.8702,0.1822 -6.4642,2.3526 -1.6423,2.2459 -3.7591,-0.8032 -5.3428,0.1759 1.3547,1.6551 4.773,2.0373 4.4634,5.035 0.41208,2.7563 -2.2992,4.8108 -1.9348,7.4756 0.53696,1.981 3.027,4.1714 0.43973,5.8266 -1.3228,1.187 -0.47173,2.2556 0.57167,0.5936 0.67731,-2.1119 4.266,-3.4514 4.4634,-0.3738 0.40667,1.4426 -1.0596,4.2668 0.39577,4.7932 0.2218,-2.5673 0.33618,-5.8402 3.1222,-7.0798 2.3224,-1.2198 3.6874,2.2247 5.9585,1.4731 2.6093,-1.1029 3.4583,1.7014 5.2109,2.7924 3.4027,0.1334 2.0057,-5.075 3.1002,-7.2337 1.8326,-1.7483 2.0679,-4.1045 2.5725,-6.4642 1.693,-2.6793 5.1111,-0.2887 7.1458,-1.3632 -0.26755,-2.4404 -4.3112,-0.4704 -6.0904,-1.3632 -2.2111,-0.1694 -4.8707,-2.3065 -3.474,-4.6613 0.67457,-1.1495 4.1697,-4.0768 1.5611,-4.3974 -1.715,1.3299 -2.6143,3.7749 -5.167,3.9137 -2.2789,1.0221 -5.026,0.7808 -6.5961,-1.3632 -2.1522,-1.4206 -0.91438,-4.0525 -1.9568,-5.8925 -0.0816,-0.2529 -0.28242,-0.2184 -0.46173,-0.2419 z m 5.9145,1.693 c -0.36591,0 -0.72169,0.194 -1.0994,0.5717 -1.1309,1.1309 -0.43371,2.9956 0.98942,2.6385 0.29406,-0.074 0.83152,0.037 1.2093,0.2418 0.877,0.4752 1.277,0.4759 1.4511,0.022 0.23958,-0.6243 -0.13548,-1.5346 -1.0334,-2.5285 -0.57188,-0.633 -1.0466,-0.949 -1.5171,-0.9454 z m -21.415,9.4105 c -0.45683,-0.018 -0.89401,0.022 -1.0114,0.1979 -0.98672,1.4755 -0.1739,1.6896 0.74756,2.4185 1.1996,0.9489 2.9308,-0.8943 3.1441,-0.7255 -0.62218,-1.0403 -1.0057,-1.3368 -1.781,-1.715 -0.17206,-0.084 -0.64251,-0.1582 -1.0994,-0.1759 z m 1.4731,5.3648 c -0.49397,0.081 -0.52935,0.609 -0.39576,1.1433 0.29146,1.1659 0.54018,0.5842 1.0554,0.3518 0.72244,-0.3258 0.42094,-0.3996 0,-1.4071 -0.27656,-0.087 -0.49495,-0.1148 -0.65961,-0.088 z m 29.375,3.342 c -0.24543,0.047 0.17387,0.5216 1.1873,1.3852 0.85196,0.7261 1.7617,1.5838 2.0228,1.8909 0.66733,0.7848 1.4249,0.6125 1.5171,-0.3298 0.067,-0.6842 -0.006,-0.7803 -1.2533,-1.2972 -0.73618,-0.3052 -1.7413,-0.818 -2.2207,-1.1434 -0.47941,-0.3253 -1.0469,-0.5455 -1.2533,-0.5057 z"
           style="fill:url(#linearGradient7048)"
           id="path2627" />
        <path
           inkscape:connector-curvature="0"
           d="m 115,1017.3 c -1.0791,2.0127 1.9239,2.2874 3.2541,2.7483 1.6674,0.38 2.2943,1.7765 3.0122,2.9023 1.6585,0.3807 1.9477,-1.1863 1.759,-2.5285 -0.16998,0.7983 -0.68433,1.368 -1.759,1.1214 -0.71791,-1.1259 -1.3448,-2.5224 -3.0122,-2.9023 -0.92185,-0.3195 -2.6366,-0.5604 -3.2541,-1.3412 z m 17.348,0.6156 c -0.18558,0.7232 0.0303,1.5702 0.15391,2.3966 0.19012,-0.7332 -0.0282,-1.5801 -0.15391,-2.3966 z m 5.013,1.9568 c -0.46766,1.0799 0.19599,2.3213 1.3852,2.0229 0.29406,-0.074 0.83152,0.037 1.2093,0.2418 0.877,0.4752 1.277,0.4759 1.4511,0.022 0.12624,-0.329 0.0697,-0.7291 -0.13192,-1.1873 -0.21964,0.217 -0.61762,0.1383 -1.3192,-0.2419 -0.37777,-0.2047 -0.91523,-0.3156 -1.2093,-0.2418 -0.64869,0.1628 -1.1425,-0.1351 -1.3852,-0.6157 z m 10.4,0.9015 c -0.58659,0.9835 -1.8244,2.1546 -2.1987,2.7924 -0.42621,0.7185 -0.48703,1.4165 -0.28583,2.0448 0.0633,-0.2091 0.15889,-0.4237 0.28583,-0.6377 0.6005,-1.0233 3.4234,-3.4516 2.1987,-4.1995 z m -27.528,4.5513 c -0.21265,0.015 -0.41767,0.075 -0.61563,0.1979 1.2701,1.5516 4.36,1.9892 4.4854,4.5073 0.0211,-0.2847 0.0228,-0.5798 -0.022,-0.8794 0.18679,-1.8083 -0.98771,-2.6497 -2.2427,-3.408 -0.55079,-0.2259 -1.0997,-0.4527 -1.605,-0.4178 z m -3.9796,3.2541 c -0.68268,1.2087 0.0685,1.4564 0.92346,2.1327 1.1996,0.9489 2.9308,-0.8943 3.1441,-0.7255 -0.2823,-0.472 -0.52662,-0.7686 -0.76954,-1.0114 -0.6659,0.4201 -1.609,0.9354 -2.3746,0.3298 -0.35764,-0.2829 -0.69741,-0.4939 -0.92346,-0.7256 z m 36.015,1.1873 c -0.97467,0.079 -2.0074,0.2103 -2.7924,0.022 -0.57091,0.1747 -1.0835,0.5139 -1.4951,1.1653 -0.50458,2.3598 -0.73988,4.716 -2.5725,6.4642 -1.0945,2.1588 0.30252,7.3671 -3.1002,7.2337 -1.7526,-1.091 -2.6017,-3.8953 -5.2109,-2.7923 -2.2711,0.7515 -3.6361,-2.693 -5.9585,-1.4732 -2.786,1.2397 -2.9004,4.5125 -3.1222,7.0799 -0.31925,-0.1155 -0.50497,-0.3399 -0.59365,-0.6377 -0.13382,0.9522 -0.13404,1.7816 0.59365,2.0448 0.2218,-2.5673 0.33618,-5.8402 3.1222,-7.0798 2.3224,-1.2198 3.6874,2.2247 5.9585,1.4731 2.6093,-1.1029 3.4583,1.7014 5.2109,2.7924 3.4027,0.1334 2.0057,-5.075 3.1002,-7.2337 1.8326,-1.7483 2.0679,-4.1045 2.5725,-6.4642 1.693,-2.6793 5.1111,-0.2887 7.1458,-1.3632 -0.0701,-0.6393 -0.39975,-0.9786 -0.87948,-1.1433 -0.61228,0.078 -1.2902,0 -1.9788,-0.088 z m -32.695,3.7818 c -0.43791,0.1975 -0.68069,0.6294 -0.92345,0.044 -0.22472,0.2042 -0.23404,0.603 -0.13192,1.0114 0.29146,1.1659 0.54018,0.5842 1.0554,0.3518 0.72244,-0.3258 0.42094,-0.3996 0,-1.4071 z m 2.6165,3.2101 c -0.0789,0.4111 -0.1039,0.8369 -0.044,1.2752 0.29027,1.0709 1.152,2.2004 1.4731,3.2761 0.54444,-1.4103 -0.95833,-3.0365 -1.4292,-4.5513 z m 26.099,0.044 c -0.24543,0.047 0.17387,0.5216 1.1873,1.3852 0.85196,0.7261 1.7617,1.5838 2.0228,1.8909 0.66733,0.7848 1.4249,0.6125 1.5171,-0.3298 0.0393,-0.4015 0.0242,-0.5912 -0.24186,-0.7915 -0.29578,0.3295 -0.80603,0.266 -1.2752,-0.2859 -0.1088,-0.1279 -0.3767,-0.3898 -0.65961,-0.6596 -0.50998,-0.2509 -1.0011,-0.5026 -1.2972,-0.7036 -0.47941,-0.3253 -1.0469,-0.5455 -1.2533,-0.5057 z m -22.339,4.0676 c -0.76625,0.035 -1.6379,0.5063 -2.2207,1.1873 0.003,0.6404 -0.28427,1.2534 -1.1433,1.803 -1.3228,1.187 -0.47173,2.2556 0.57167,0.5936 0.67731,-2.1119 4.266,-3.4514 4.4634,-0.3738 0.0703,-0.5237 0.11079,-1.0141 0,-1.4071 -0.0863,-1.3465 -0.81421,-1.8422 -1.671,-1.803 z"
           style="opacity:0.3;fill:#241c1c"
           id="path3762" />
        <path
           inkscape:connector-curvature="0"
           d="m 159.18,1017.8 c -1.2055,0.082 -1.4946,1.0457 -0.82003,2.7412 0.32273,0.8112 1.7257,0.7297 2.179,-0.1171 0.20228,-0.378 0.3152,-1.0952 0.25773,-1.5932 -0.0822,-0.7121 -0.28987,-0.9225 -1.0309,-1.0075 -0.20916,-0.024 -0.41352,-0.035 -0.58574,-0.023 z m -5.9511,5.4825 c -0.14587,0.018 -0.18744,0.1866 -0.18744,0.4686 0,0.2999 -0.20907,0.3987 -0.51545,0.2811 -0.35881,-0.1377 -0.51218,0.045 -0.51545,0.6092 -0.002,0.4347 -0.0842,1.1148 -0.18744,1.4995 -0.12472,0.4645 0.10989,1.0525 0.70289,1.7572 0.98606,1.1719 1.2266,1.2424 2.2961,0.6795 1.7157,-0.9031 1.6945,-2.6203 -0.0234,-4.1939 -0.84722,-0.7761 -1.3267,-1.1309 -1.5698,-1.1012 z m 18.299,1.0777 c -0.48552,0.028 -0.94825,0.1497 -1.2652,0.3983 -1.1056,0.8673 -0.91176,3.853 0.35144,5.3654 1.2599,1.5085 3.246,-0.045 3.6316,-2.8584 0.17076,-1.2459 0.0759,-1.611 -0.51546,-2.2024 -0.50099,-0.501 -1.3932,-0.7495 -2.2024,-0.7029 z m -5.7402,3.9128 c -0.67075,0 -0.9198,0.65 -0.44516,1.1246 0.3594,0.3594 0.91121,0.055 1.0309,-0.5623 0.0731,-0.3769 -0.11698,-0.5623 -0.58574,-0.5623 z m -11.926,1.0075 c -0.27943,0 -0.49202,0.3068 -0.49203,0.6794 0,0.3726 0.2126,0.6795 0.49203,0.6795 0.27942,0 0.51545,-0.3069 0.51545,-0.6795 0,-0.3726 -0.23603,-0.6794 -0.51545,-0.6794 z m 6.8883,0.5154 c -0.46105,0.047 -1.0393,0.094 -1.2652,0.1172 -0.53137,0.055 -1.7572,2.7789 -1.7572,3.8893 0,0.7243 -0.15102,0.8434 -0.98404,0.8434 -0.86657,0 -0.99271,-0.1027 -0.93718,-0.9137 0.0562,-0.8203 -0.0245,-0.9158 -0.84347,-0.8201 -0.68114,0.08 -0.88405,0 -0.74975,-0.3514 0.0998,-0.2602 -0.049,-0.6862 -0.35144,-0.9372 -0.47474,-0.394 -0.63836,-0.3635 -1.1246,0.2812 -0.44469,0.5895 -0.636,0.676 -0.96061,0.3514 -0.30384,-0.3038 -0.51858,-0.3249 -0.7966,-0.047 -0.2069,0.2068 -0.572,0.297 -0.79661,0.2108 -0.22461,-0.086 -0.59258,0.077 -0.82003,0.3515 -0.22746,0.274 -0.6396,0.4098 -0.91376,0.3045 -0.31353,-0.1203 -0.54775,0.055 -0.65603,0.4686 -0.29357,1.1227 -1.9075,0.8508 -2.8116,-0.4686 -0.42123,-0.6147 -0.96548,-1.1011 -1.2183,-1.1011 -0.8881,0 -0.43968,0.9575 1.0543,2.2726 1.1712,1.031 1.4995,1.5687 1.4995,2.3664 0,1.1681 -0.56548,1.7134 -0.89033,0.8669 -0.17172,-0.4475 -0.49449,-0.5255 -1.5932,-0.3749 -0.76004,0.1042 -1.6061,0.049 -1.8744,-0.1171 -0.60919,-0.3765 -1.6635,0.5231 -1.6635,1.4058 0,0.8769 -0.55806,0.7734 -1.2183,-0.2343 -0.5572,-0.8504 -0.57667,-0.8526 -1.2183,-0.2109 -0.61592,0.6159 -0.62061,0.6915 -0.0937,1.7104 0.41486,0.8022 0.46643,1.1867 0.18744,1.5229 -0.20532,0.2474 -0.44866,0.8614 -0.53888,1.3589 -0.0902,0.4975 -0.37592,1.1023 -0.6326,1.3589 -0.25667,0.2567 -0.43213,0.8992 -0.37487,1.4058 0.14294,1.2647 -0.34456,2.0855 -1.1949,1.9915 -0.91929,-0.1016 -1.1857,0.6415 -0.32801,0.9138 0.85951,0.2728 1.1398,1.0763 0.65602,1.8509 -0.81735,1.3088 1.3616,4.1266 4.1705,5.3888 1.6504,0.7416 4.8398,0.6724 6.0448,-0.1171 0.56993,-0.3735 1.1966,-0.5097 1.7338,-0.3749 0.72203,0.1812 0.84347,0.1086 0.84346,-0.5858 0,-1.0103 0.59456,-1.6166 1.5698,-1.6166 0.41328,0 0.84663,-0.1436 0.96061,-0.328 0.11398,-0.1844 0.56379,-0.3515 1.0075,-0.3515 0.45438,0 0.95254,-0.2672 1.148,-0.6326 0.49623,-0.9272 0.47414,-0.9847 -0.72632,-1.1011 -0.94698,-0.092 -1.0983,-0.226 -1.1715,-1.1481 -0.0486,-0.6117 0.11054,-1.2372 0.39831,-1.4761 0.64227,-0.533 0.64986,-1.2969 0,-1.5463 -0.28111,-0.1079 -0.79723,-0.8309 -1.1481,-1.5932 l -0.6326,-1.3824 1.0543,-0.3514 c 0.98998,-0.3405 1.1113,-0.3189 1.6635,0.5857 0.32677,0.5353 0.50543,1.1153 0.3983,1.2887 -0.10712,0.1733 0.0962,0.328 0.44516,0.328 0.34899,0 0.72541,0.093 0.84347,0.2108 0.11806,0.1181 0.88113,0.2822 1.6869,0.3515 1.2307,0.1057 1.649,-0.041 2.7178,-0.8903 0.71983,-0.5721 1.6472,-1.7688 2.1087,-2.7647 0.44858,-0.9683 0.78605,-1.8049 0.77318,-1.851 -0.18918,-0.6773 0.11577,-1.1012 0.7966,-1.1012 0.46573,0 1.3232,-0.4721 2.015,-1.1246 1.1678,-1.1013 1.2298,-1.2309 1.1715,-3.3504 -0.052,-1.8914 -0.18434,-2.2956 -0.93718,-2.999 -1.2096,-1.1302 -2.7294,-1.8362 -3.7253,-1.7338 z m -26.71,7.3569 c -0.0253,0 -0.0585,0.012 -0.0703,0.023 -0.25557,0.2556 1.3265,2.4845 2.2258,3.1396 1.1124,0.8103 1.3432,0.6628 0.6326,-0.4217 -0.60722,-0.9268 -2.4092,-2.6824 -2.7881,-2.7413 z m 19.4,8.7158 c -0.059,0.01 -0.12922,0.015 -0.21086,0.047 -0.29205,0.112 -0.53888,0.3588 -0.53889,0.5388 0,0.4408 0.77011,0.1733 0.93719,-0.328 0.0613,-0.1837 -0.0104,-0.278 -0.18744,-0.2577 z m 0.96062,3.2099 c -0.37973,0 -0.70289,0.1436 -0.70289,0.328 0,0.1844 0.22627,0.328 0.49202,0.328 0.26575,0 0.56548,-0.1436 0.67945,-0.328 0.11399,-0.1844 -0.0889,-0.328 -0.46858,-0.328 z m 3.7253,0.023 c -0.15711,0 -0.35311,0 -0.58574,0.023 -0.69679,0.058 -1.326,0.3195 -1.4058,0.5623 -0.10661,0.3243 0.17065,0.406 1.1012,0.328 0.69679,-0.058 1.3494,-0.296 1.4292,-0.5388 0.0799,-0.2432 -0.0675,-0.3676 -0.53888,-0.3749 z m 0,5.0139 c -0.1844,0 -0.35494,0.023 -0.53888,0.094 -0.53828,0.2066 -0.74384,2.2903 -0.32801,3.3739 0.13065,0.3405 0.62322,0.5389 1.3589,0.5389 0.91388,0 1.1985,-0.175 1.4526,-0.8435 0.53869,-1.4169 -0.65382,-3.1329 -1.9447,-3.163 z m -2.6475,0.4218 c -0.0747,0.011 -0.0937,0.1066 -0.0937,0.3045 0,0.2685 0.0879,0.58 0.21086,0.7029 0.31844,0.3185 0.79661,0.277 0.79661,-0.07 0,-0.1618 -0.23882,-0.4733 -0.51545,-0.7028 -0.20396,-0.1693 -0.32355,-0.2449 -0.39831,-0.2343 z"
           style="fill:url(#linearGradient7044)"
           id="path2783" />
        <path
           inkscape:connector-curvature="0"
           d="m 158.13,1018.5 c -0.20919,0.4647 -0.15358,1.1721 0.21987,2.1107 0.32273,0.8112 1.7235,0.715 2.1767,-0.1319 0.20228,-0.3779 0.32132,-1.085 0.26384,-1.583 -0.0164,-0.1421 -0.0363,-0.2467 -0.066,-0.3518 -0.0462,0.2036 -0.1233,0.3883 -0.19788,0.5277 -0.45323,0.8468 -1.854,0.943 -2.1767,0.1319 -0.0985,-0.2476 -0.16232,-0.4877 -0.21987,-0.7036 z m -6.2003,7.1238 c -0.0305,0.2106 -0.0692,0.4198 -0.10994,0.5716 -0.12472,0.4646 0.11059,1.0543 0.70359,1.759 0.36977,0.4395 0.63635,0.7251 0.87948,0.8795 -0.0173,-0.07 -0.044,-0.1418 -0.044,-0.2199 0,-0.3726 0.22628,-0.6816 0.5057,-0.6816 0.27943,0 0.5057,0.309 0.5057,0.6816 0,0.093 -0.0175,0.1827 -0.044,0.2639 0.14795,-0.058 0.29125,-0.1406 0.48372,-0.2419 1.121,-0.59 1.516,-1.5325 1.1653,-2.5505 -0.18569,0.4513 -0.58844,0.8397 -1.1653,1.1433 -1.0695,0.563 -1.3006,0.4903 -2.2866,-0.6816 -0.28252,-0.3357 -0.47393,-0.6414 -0.59365,-0.9234 z m 22.317,0.3078 c -0.38557,2.813 -2.368,4.3668 -3.6279,2.8583 -0.5457,-0.6534 -0.88339,-1.5928 -1.0114,-2.5065 -0.17451,1.2529 0.17065,2.9071 1.0114,3.9137 1.2599,1.5084 3.2423,-0.045 3.6279,-2.8583 0.0899,-0.6558 0.091,-1.078 0,-1.4072 z m -8.465,2.3966 c -0.67075,0 -0.91438,0.6467 -0.43974,1.1213 0.35939,0.3594 0.91369,0.067 1.0334,-0.5497 0.0731,-0.3769 -0.1249,-0.5716 -0.59365,-0.5716 z m -11.917,1.0114 c -0.27942,0 -0.50569,0.309 -0.5057,0.6816 0.14167,-0.01 0.29801,0.091 0.5057,0.2638 0.10787,0.09 0.17738,0.2112 0.24186,0.3298 0.15718,-0.1169 0.26385,-0.3408 0.26385,-0.5936 -1e-5,-0.3726 -0.22628,-0.6816 -0.50571,-0.6816 z m -10.092,2.7044 c -0.88811,0 -0.46063,0.9496 1.0334,2.2647 0.83083,0.7313 1.241,1.2111 1.4072,1.7149 0.0581,-0.2021 0.10994,-0.4555 0.10994,-0.7475 0,-0.4597 -0.1233,-0.8442 -0.43974,-1.2753 -0.32902,-0.1979 -0.64156,-0.4781 -0.90147,-0.8575 -0.0573,-0.084 -0.1151,-0.1639 -0.17589,-0.2418 -0.008,-0.01 -0.0138,-0.015 -0.022,-0.022 -0.26715,-0.2363 -0.48418,-0.4503 -0.6816,-0.6596 -0.13853,-0.1 -0.2431,-0.1759 -0.32981,-0.1759 z m 21.635,2.4625 c -0.0566,0.9248 -0.31116,1.2173 -1.1653,2.0228 -0.6918,0.6525 -1.5571,1.1214 -2.0228,1.1214 -0.68083,0 -0.98071,0.422 -0.79153,1.0993 0.0129,0.046 -0.32096,0.9007 -0.76955,1.8689 -0.46142,0.9959 -1.3909,2.1764 -2.1108,2.7484 -1.0688,0.8494 -1.4957,1.0072 -2.7264,0.9015 -0.8058,-0.069 -1.553,-0.2338 -1.671,-0.3518 -0.11806,-0.1181 -0.5085,-0.2199 -0.8575,-0.2199 -0.34899,0 -0.54686,-0.1565 -0.43974,-0.3298 0.10713,-0.1733 -0.069,-0.7399 -0.39576,-1.2752 -0.55222,-0.9047 -0.68103,-0.9342 -1.671,-0.5937 l -1.0554,0.3518 0.57166,1.2093 0.48371,-0.1539 c 0.98999,-0.3405 1.1188,-0.311 1.671,0.5936 0.32677,0.5353 0.50289,1.1019 0.39576,1.2753 -0.009,0.014 0.005,0.03 0,0.044 0.0982,-0.098 0.22776,-0.1858 0.37378,-0.2418 0.0816,-0.031 0.16085,-0.037 0.21987,-0.044 0.17706,-0.02 0.23715,0.058 0.1759,0.2419 -0.0452,0.1354 -0.13571,0.2598 -0.24186,0.3518 0.32056,0.014 0.66191,0.09 0.76955,0.1978 0.11805,0.1181 0.86521,0.2826 1.671,0.3518 1.2307,0.1058 1.6575,-0.052 2.7264,-0.9014 0.71983,-0.5721 1.6493,-1.7525 2.1108,-2.7484 0.44859,-0.9682 0.78242,-1.8228 0.76955,-1.8689 -0.18918,-0.6774 0.1107,-1.0994 0.79153,-1.0994 0.46573,0 1.331,-0.4688 2.0228,-1.1213 1.1678,-1.1014 1.2236,-1.2225 1.1653,-3.342 -9.8e-4,-0.036 0.001,-0.053 0,-0.088 z m -31.375,2.7044 c -0.0253,0 -0.0541,0.01 -0.066,0.022 -0.25558,0.2556 1.3214,2.4891 2.2207,3.1442 1.1124,0.8103 1.3482,0.6668 0.63762,-0.4178 -0.60723,-0.9267 -2.4134,-2.6895 -2.7924,-2.7484 z m 3.6718,0.9675 c -0.42881,0.4579 -0.40279,0.6326 0.066,1.5391 0.0439,0.085 0.0741,0.1439 0.10993,0.2198 0.0222,-0.033 0.0444,-0.084 0.066,-0.1099 0.27899,-0.3362 0.23896,-0.7149 -0.17589,-1.5171 -0.0282,-0.055 -0.0408,-0.082 -0.066,-0.1319 z m 15.743,7.7614 c -0.059,0.01 -0.13823,0.013 -0.21987,0.044 -0.29204,0.112 -0.52768,0.3476 -0.52769,0.5276 1e-5,0.4408 0.75638,0.1715 0.92346,-0.3298 0.0613,-0.1837 0.001,-0.2621 -0.1759,-0.2418 z m -1.8469,0.3518 c -0.0289,0.028 -0.0558,0.061 -0.088,0.088 -0.28776,0.2388 -0.44432,0.8614 -0.39576,1.4732 0.0169,0.2125 0.054,0.3677 0.088,0.5057 0.0701,-0.2494 0.16936,-0.4568 0.30781,-0.5717 0.60804,-0.5046 0.63688,-1.2091 0.088,-1.4951 z m -16.051,1.0334 c -0.10839,0.024 -0.20491,0.058 -0.3298,0.044 -0.91929,-0.1016 -1.1875,0.6293 -0.32981,0.9015 0.28453,0.09 0.48675,0.2534 0.63763,0.4397 0.31653,-0.5068 0.30789,-1.0103 0.022,-1.3851 z m 18.843,1.8249 c -0.37972,0 -0.70358,0.1454 -0.70358,0.3298 0,0.1844 0.23995,0.3078 0.5057,0.3078 0.26575,0 0.56762,-0.1234 0.6816,-0.3078 0.11398,-0.1844 -0.10399,-0.3298 -0.48372,-0.3298 z m 3.7378,0.022 c -0.15712,0 -0.36102,0 -0.59365,0.022 -0.69679,0.058 -1.3273,0.3068 -1.4072,0.5496 -0.10661,0.3243 0.16881,0.4078 1.0994,0.3299 0.69679,-0.058 1.3493,-0.2849 1.4292,-0.5277 0.0799,-0.2432 -0.0564,-0.3665 -0.52768,-0.3738 z m -22.625,0.9674 c -0.77487,1.3193 1.4083,4.1106 4.1995,5.3648 1.6504,0.7417 4.8414,0.6796 6.0464,-0.1099 0.56993,-0.3734 1.1998,-0.5086 1.737,-0.3738 0.72203,0.1812 0.83551,0.1007 0.83551,-0.5936 -1e-5,-1.0104 0.60784,-1.6051 1.5831,-1.6051 0.41329,0 0.83147,-0.1454 0.94544,-0.3298 0.11399,-0.1844 0.56773,-0.3518 1.0114,-0.3518 0.45438,0 0.94781,-0.2723 1.1433,-0.6376 0.42657,-0.7971 0.42891,-0.9538 -0.3298,-1.0554 -0.23439,0.1699 -0.52726,0.2859 -0.81352,0.2859 -0.44368,0 -0.89742,0.1673 -1.0114,0.3517 -0.11397,0.1845 -0.53215,0.3299 -0.94544,0.3299 -0.97522,0 -1.5831,0.5946 -1.5831,1.605 0,0.6944 -0.11348,0.7749 -0.83551,0.5937 -0.53722,-0.1349 -1.167,3e-4 -1.737,0.3737 -1.205,0.7896 -4.396,0.8516 -6.0464,0.11 -2.0093,-0.9029 -3.7011,-2.5846 -4.1995,-3.9577 z m 19.964,4.4634 c -0.0748,0.01 -0.088,0.1098 -0.088,0.3078 0,0.2685 0.0969,0.5806 0.21987,0.7036 0.31844,0.3184 0.79153,0.2812 0.79153,-0.066 0,-0.1618 -0.25105,-0.474 -0.52769,-0.7036 -0.20396,-0.1692 -0.32101,-0.2523 -0.39576,-0.2418 z m 1.605,0.8575 c -0.0958,0.7189 -0.0507,1.5861 0.1759,2.1767 0.13065,0.3405 0.6275,0.5497 1.3632,0.5497 0.91389,0 1.197,-0.1671 1.4511,-0.8356 0.17982,-0.4729 0.14525,-0.9853 0,-1.4511 -0.005,0.013 0.005,0.032 0,0.044 -0.25415,0.6685 -0.53725,0.8355 -1.4511,0.8355 -0.73569,0 -1.2325,-0.2092 -1.3632,-0.5497 -0.086,-0.2242 -0.14051,-0.4852 -0.1759,-0.7695 z"
           style="opacity:0.2"
           id="path3638" />
        <path
           inkscape:connector-curvature="0"
           transform="matrix(0.70358,0,0,0.70358,35.513,1007.2)"
           d="m 179.03,38.031 c -0.10802,0.62241 -0.43407,1.3638 -0.875,2.375 0.5542,-0.35509 1.2369,-0.74477 1.4062,-0.96875 0.2433,-0.32186 0.25746,-0.38894 0.25,-0.34375 -0.007,0.04519 0.0292,0.0147 -0.15625,-0.40625 a 1.9104,1.9104 0 0 1 -0.03,-0.062 c -0.0421,-0.10638 -0.0617,-0.23413 -0.0937,-0.34375 -0.007,-0.02178 -0.41039,-0.17531 -0.5,-0.25 z m -13.094,2.6875 c -1.1926,0.2719 -2.4465,0.56848 -3,0.84375 -0.36697,0.18252 -0.40002,0.2235 -0.40625,0.21875 a 1.9104,1.9104 0 0 1 -0.0937,0.5625 c -0.003,1.3048 -0.33661,2.6051 -1.2188,3.7188 1.2817,-0.61345 2.7012,-0.84291 4.0938,-0.59375 3.3828,0.63075 5.1894,3.2917 5.9062,3.9688 0.18066,0.17065 0.0541,0.0959 0.15625,0.15625 0.10919,-0.06238 0.1974,-0.13652 0.3125,-0.1875 a 1.9104,1.9104 0 0 1 0.0313,0 c 0.6184,-0.26462 0.73699,-0.47973 1.3125,-1.8438 0.36387,-0.86241 0.89621,-2.2276 1.6875,-3.6562 -1.0624,0.43218 -2.2143,0.65426 -3.375,0.40625 -1.7946,-0.38344 -2.9811,-1.4409 -3.7188,-2.0938 -0.76409,-0.67628 -1.3868,-1.2807 -1.6875,-1.5 z m -6.69,6.907 c -0.90656,0.41078 -1.8141,0.64273 -2.5625,0.6875 -1.5284,0.09143 -2.8188,-0.13394 -3.875,-0.375 -0.18454,0.17132 -0.18945,0.16352 -0.53125,0.5 -0.40805,0.4017 -1.1582,0.95474 -2.0625,1.4062 -0.62366,2.7741 -1.6498,5.1192 -2.0938,6.7812 -0.008,0.03961 -0.0215,0.08562 -0.0313,0.125 a 1.9104,1.9104 0 0 1 -0.0625,0.1875 c -0.47149,1.2669 -0.79653,2.755 -0.78125,3.75 0.0166,1.0819 0.12431,1.3835 0.6875,1.875 a 1.9104,1.9104 0 0 1 0.0937,0.0625 c 0.006,0.0055 -0.006,0.02582 0,0.03125 0.0165,0.0163 0.0469,0.01524 0.0625,0.03125 1.7362,1.5915 5.1037,2.0174 7.0938,0.875 0.12545,-0.07223 0.24199,-0.13049 0.375,-0.1875 2.2825,-0.97236 3.3422,-1.984 3.7812,-2.8438 0.46188,-0.90454 0.59654,-1.9403 -0.1875,-4.1875 h 0.0313 c -1.1857,-1.7666 -1.814,-3.8957 -1.3438,-6.0312 0.20395,-0.92611 0.72546,-1.8408 1.4062,-2.6875 z"
           style="opacity:0;filter:url(#filter3756)"
           id="path3760" />
        <path
           inkscape:connector-curvature="0"
           d="m 132.59,1024.2 c -2.2155,0.4298 -4.1716,1.6188 -6.1528,2.6358 -0.91375,0.6601 -0.92755,1.9022 -0.87009,2.9183 -0.0973,1.0126 -0.45115,2.0362 -0.11405,3.0454 0.26178,0.7567 -0.13537,1.3952 -0.5319,1.9295 -0.0241,0.8667 1.1963,1.2398 1.4332,0.3031 0.80637,-1.2519 1.2104,-2.7248 2.1114,-3.9218 0.59854,-0.9892 1.3308,-2.1637 2.5744,-2.3468 1.3119,-0.1207 2.5723,0.3962 3.7633,0.8703 0.97459,0.365 1.5553,-0.4709 2.0437,-1.0927 0.90456,-0.4514 1.8097,0.7662 2.6829,0.1685 0.69491,-0.4357 1.6774,-0.8307 1.932,-1.6399 -0.25186,-0.9691 -1.4552,-0.2029 -2.1404,-0.3299 -1.1426,0 -2.2866,-0.046 -3.4274,-0.077 -0.97075,-0.1271 -1.3578,-1.0983 -1.8217,-1.8169 -0.32371,-0.4621 -0.8971,-0.877 -1.4826,-0.6463 z"
           style="opacity:0.6;fill:url(#linearGradient7039);fill-rule:evenodd"
           id="path3812" />
        <path
           inkscape:connector-curvature="0"
           d="m 144.54,1039.4 c -0.76934,-0.3684 -1.5932,-0.6848 -2.4576,-0.6919 -1.0699,0.3116 -1.5103,1.436 -1.9839,2.3323 -0.65406,1.1112 -1.8585,1.9753 -1.9557,3.353 -0.14693,0.8256 0.17068,1.6465 0.11441,2.4688 -0.22454,0.8705 -0.91782,1.5263 -1.155,2.3931 -0.33609,0.7128 0.53079,1.5845 1.1395,0.9021 0.67588,-0.4258 1.4013,-1.1295 1.2455,-2.0053 -0.11532,-0.7091 -0.38309,-1.4647 -0.0196,-2.1529 0.28698,-0.507 0.39374,-1.0991 0.72106,-1.5815 0.46773,-0.6216 1.2482,-0.9074 1.9816,-1.0595 0.6118,-0.1174 1.1787,0.229 1.7888,0.1499 0.54819,-0.032 1.1244,-0.021 1.6148,0.2508 0.828,0.083 1.0778,-0.9904 0.71624,-1.5719 -0.0727,-0.6453 0.24577,-1.4006 -0.26329,-1.9376 -0.38189,-0.4588 -1.0497,-0.4685 -1.4869,-0.8494 z"
           style="opacity:0.8;fill:url(#linearGradient7036);fill-rule:evenodd"
           id="path3844" />
        <path
           inkscape:connector-curvature="0"
           d="m 147.18,1037.3 c 0.51593,-0.7715 0.73338,-1.716 0.7032,-2.637 0.64201,-0.5932 1.4598,-1.1626 2.379,-1.0584 0.55315,-0.02 1.227,-0.065 1.6165,0.4101 0.24033,0.4524 0.30273,1.2656 0.98879,1.2167 1.5029,0.1126 3.0003,0.3276 4.507,0.3679 0.5514,0.1308 1.0866,0.5475 1.1774,1.1334 -0.14167,0.6439 -0.9176,0.6407 -1.4012,0.8849 -0.84314,0.3679 -1.7882,0.8566 -2.7221,0.5167 -1.0435,-0.3817 -1.9273,-1.087 -2.9484,-1.5168 -0.48087,-0.2747 -1.1694,-0.4279 -1.611,0 -0.43419,0.3679 -0.96171,0.7593 -1.5664,0.6403 -0.37418,0 -0.75347,-0.04 -1.1228,0.04 z"
           style="opacity:0.8;fill:url(#linearGradient7033);fill-rule:evenodd"
           id="path3883" />
        <path
           inkscape:connector-curvature="0"
           d="m 123.97,1045.4 c -1.1638,1.0618 -3.0417,0.9021 -4.2505,0 -1.6285,-0.6778 -3.2634,-1.3431 -4.9296,-1.9237 -1.2933,-0.242 -2.6156,1.1718 -2.1092,2.44 0.32448,1.785 0.94767,3.628 0.45202,5.4427 -0.40245,1.0394 -1.3696,1.9304 -1.2248,3.1274 0.38576,1.0149 1.9237,0.9775 2.5122,0.1746 0.92849,-1.0581 1.2684,-2.5604 0.95694,-3.9253 -0.12264,-0.8431 0.0863,-1.8352 0.87229,-2.2965 0.98623,-0.6902 2.2574,-0.5764 3.3784,-0.3835 0.80526,0.012 1.7774,-0.2703 2.4056,0.3995 0.70454,0.6508 1.8816,0.8936 2.6634,0.2341 0.63079,-0.5844 1.7828,-0.9898 1.9382,-1.8511 -0.2528,-0.7573 -1.1747,-0.9058 -1.6914,-1.4398 -0.28483,-0.207 -0.71201,-0.3014 -0.97362,-3e-4 z"
           style="opacity:0.8;fill:url(#linearGradient7030);fill-rule:evenodd"
           id="path3905" />
        <path
           inkscape:connector-curvature="0"
           d="m 139.09,1063.1 c -1.4329,-0.3122 -2.7847,-0.9142 -4.0561,-1.6322 -0.42537,-0.1656 -0.93352,-0.5078 -1.3776,-0.2246 -0.42419,0.5797 0.11102,1.3229 0.14802,1.9568 0.0846,0.7196 0.68638,1.3759 0.44792,2.1306 -0.3064,0.7681 -1.1138,1.1254 -1.7614,1.555 -0.57988,0.1729 -1.3117,0.5493 -1.2755,1.2554 -0.0106,0.6699 -0.0817,1.3532 0.0868,2.0105 0.46457,0.5854 1.2853,0.3738 1.9164,0.5795 1.7203,0.1013 3.2998,-0.7236 4.7717,-1.5091 0.66493,-0.2912 1.3768,-0.5436 1.8751,-1.1 1.0974,-1.0635 1.7685,-2.6861 1.4139,-4.2099 -0.24745,-0.6669 -1.1924,-0.6325 -1.4241,-0.011 -0.44019,0.1055 -0.50297,-0.5954 -0.76525,-0.8009 z"
           style="fill:url(#linearGradient7027);fill-rule:evenodd"
           id="path3929" />
        <path
           inkscape:connector-curvature="0"
           d="m 109.38,1068 c -0.46674,0.5965 -0.69151,1.3579 -0.70319,2.1095 -0.22356,0.6552 -1.1609,0.9144 -1.0815,1.6935 0.19521,0.7839 0.51019,1.5737 1.0973,2.1488 0.40837,0.7811 -0.0424,1.6578 0.12209,2.4771 -0.008,1.3177 0.2181,2.8701 1.3997,3.6636 0.87507,0.5616 1.7252,1.1861 2.4061,1.979 0.67101,0.4133 1.4193,-0.4596 1.1884,-1.1247 -0.13756,-1.2501 -0.3556,-2.4993 -0.35314,-3.7598 -0.0254,-0.8025 0.37689,-1.524 0.88057,-2.119 0.46259,-0.6141 1.122,-1.3128 0.87396,-2.1498 -0.27121,-0.7601 -1.0088,-1.2958 -1.7405,-1.5734 -0.67753,-0.1056 -1.4054,0.053 -2.0447,-0.2959 -0.68091,-0.2725 -1.1949,-0.8922 -1.3098,-1.62 -0.15442,-0.5154 -0.37986,-1.0195 -0.73525,-1.4289 z"
           style="opacity:0.8;fill:url(#linearGradient7024);fill-rule:evenodd"
           id="path3948" />
      </g>
      <g
         transform="matrix(1.0868,0,0,1.0868,202.04,1008.6)"
         id="layer1-9">
        <path
           inkscape:connector-curvature="0"
           d="m 41.25,33.938 a 18.25,5.1875 0 1 1 -36.5,0 18.25,5.1875 0 1 1 36.5,0 z"
           transform="matrix(1,0,0,1.5301,0.125,-19.991)"
           style="color:#000000;fill:url(#radialGradient6498);fill-rule:evenodd"
           id="path6490" />
        <path
           inkscape:connector-curvature="0"
           d="m 10.374,12.468 c 0,0 2.8745,5.9276 9.5992,5.7604 14.093,-0.353 16.564,-7.705 16.918,-8.7653 0.353,-1.0607 0.894,-0.9 1.019,0.0802 4.597,41.719 -31.896,23.819 -33.192,16.713 7.247,-2.121 5.48,-6.187 5.48,-6.187 l 0.17678,-7.6014 z"
           style="color:#000000;fill:url(#radialGradient4354);fill-rule:evenodd;stroke:#2e3436;stroke-miterlimit:10"
           id="path4323" />
        <path
           inkscape:connector-curvature="0"
           d="m 15.738,30.066 c 6.7389,1.3478 10.171,0.09809 12.179,-1.4528 -0.53033,-0.68501 -1.4363,-1.4363 -1.4363,-1.4363 0,0 2.3533,0.65394 3.182,1.7236 0.82629,1.0666 0.30681,1.7237 0.09056,3.0884 -0.48141,-1.1986 -1.38,-1.6481 -1.5016,-2.1243 -1.8063,2.4969 -6.3064,2.3932 -12.514,0.20148 z"
           style="color:#000000;fill:url(#linearGradient4351);fill-rule:evenodd"
           id="path6480" />
        <path
           inkscape:connector-curvature="0"
           d="m 36.969,11.844 c -0.56198,0.9269 -1.4065,2.0332 -2.6875,3.0938 -2.6319,2.179 -7.0506,4.1623 -14.281,4.3438 -4.2244,0.10505 -6.9527,-1.9341 -8.625,-3.75 l -0.126,4.468 c 0.13611,0.4188 0.41546,1.3905 -0.0625,2.7188 -0.51431,1.4293 -2.1545,2.8914 -4.9688,4 0.25033,0.52203 0.49548,1.0436 1.25,1.7812 1.028,1.0049 2.457,2.088 4.1562,3.0625 3.3984,1.9489 7.8016,3.4932 11.906,3.5625 4.1047,0.06929 7.8571,-1.2346 10.438,-5 2.3787,-3.4712 3.6825,-9.3479 3,-18.281 z"
           style="opacity:0.18538998;color:#000000;fill:none;stroke:url(#linearGradient8530);stroke-miterlimit:10"
           id="path8520" />
        <path
           inkscape:connector-curvature="0"
           d="m 72.655,21.837 a 3.182,3.182 0 1 1 -6.364,0 3.182,3.182 0 1 1 6.364,0 z"
           transform="matrix(1.2778,0,0,1.2778,-75.127,-6.5078)"
           style="color:#000000;fill:url(#radialGradient3301);fill-rule:evenodd;stroke:#888a85;stroke-width:0.78261;stroke-miterlimit:10"
           id="path4357" />
        <path
           inkscape:connector-curvature="0"
           d="m 10.43,27.229 a 4.33105,6.0988704 0 1 1 -8.6621,0 4.33105,6.0988704 0 1 1 8.6621,0 z"
           transform="matrix(0.81098,-0.58507,0.58507,0.81098,-14.778,6.9471)"
           style="color:#000000;fill:url(#radialGradient8548);fill-rule:evenodd;stroke:#000000;stroke-miterlimit:10"
           id="path5198" />
        <path
           inkscape:connector-curvature="0"
           d="m 24.042,21.837 a 2.2981,2.2981 0 1 1 -4.5962,0 2.2981,2.2981 0 1 1 4.5962,0 z"
           transform="matrix(0.85185,0,0,0.85185,-3.9268,3.3955)"
           style="color:#000000;fill:#2e3436;fill-rule:evenodd;stroke:#000000;stroke-width:1.17390001;stroke-miterlimit:10"
           id="path4359" />
        <path
           inkscape:connector-curvature="0"
           d="m 6.0938,22.156 c -0.79825,0 -1.5531,0.44617 -2.1875,1.3438 -0.63437,0.89758 -1.0938,2.2342 -1.0938,3.7188 0,1.4845 0.45938,2.8212 1.0938,3.7188 0.63437,0.89758 1.3893,1.3438 2.1875,1.3438 0.79825,0 1.5773,-0.47639 2.2188,-1.375 0.64147,-0.89861 1.0938,-2.2062 1.0938,-3.6875 0,-1.4813 -0.45228,-2.7889 -1.0938,-3.6875 -0.64147,-0.89861 -1.4205,-1.375 -2.2188,-1.375 z"
           transform="matrix(0.80039,-0.59948,0.59948,0.80039,-15.274,7.3278)"
           style="opacity:0.28090001;color:#000000;fill:none;stroke:url(#linearGradient6458);stroke-miterlimit:10"
           id="path6450" />
        <path
           inkscape:connector-curvature="0"
           d="m 5.8336,23.251 a 1.7678,2.1213 0 1 1 -3.5355,0 1.7678,2.1213 0 1 1 3.5355,0 z"
           style="color:#000000;fill:#ffffff;fill-rule:evenodd"
           id="path6446" />
        <path
           inkscape:connector-curvature="0"
           d="m 23.158,20.953 a 1.7678,1.7678 0 1 1 -3.5355,0 1.7678,1.7678 0 1 1 3.5355,0 z"
           transform="matrix(0.76667,0,0,0.76667,-2.5564,5.0298)"
           style="color:#000000;fill:#ffffff;fill-rule:evenodd"
           id="path4361" />
        <path
           inkscape:connector-curvature="0"
           d="m 72.655,21.837 a 3.182,3.182 0 1 1 -6.364,0 3.182,3.182 0 1 1 6.364,0 z"
           transform="matrix(1.5,0,0,1.5,-82.168,-10.919)"
           style="color:#000000;fill:url(#radialGradient4363);fill-rule:evenodd;stroke:#888a85;stroke-width:0.66667002;stroke-miterlimit:10"
           id="path6462" />
        <path
           inkscape:connector-curvature="0"
           d="m 24.042,21.837 a 2.2981,2.2981 0 1 1 -4.5962,0 2.2981,2.2981 0 1 1 4.5962,0 z"
           transform="translate(1.4142,0.70711)"
           style="color:#000000;fill:#2e3436;fill-rule:evenodd;stroke:#000000;stroke-miterlimit:10"
           id="path6464" />
        <path
           inkscape:connector-curvature="0"
           d="m 23.158,20.953 a 1.7678,1.7678 0 1 1 -3.5355,0 1.7678,1.7678 0 1 1 3.5355,0 z"
           transform="matrix(0.9,0,0,0.9,3.0229,2.6256)"
           style="color:#000000;fill:#ffffff;fill-rule:evenodd"
           id="path6466" />
        <g
           transform="matrix(-0.11485,-0.38986,0.38986,-0.11485,24.715,29.689)"
           id="g8463">
          <path
             inkscape:connector-curvature="0"
             d="m -23.364,23.568 3.7101,3.4692 c 8.347,-6.38 17.094,-20.099 17.094,-20.099 1.9763,-2.2423 -0.117,-3.7503 -2.1649,-2.3978 0,0 -12.97,10.115 -18.639,19.028 z"
             style="color:#000000;fill:url(#linearGradient6957);stroke:#673907;stroke-width:2.4605;stroke-linecap:round"
             id="path6937" />
          <path
             inkscape:connector-curvature="0"
             d="m -30.45,32.814 2.2463,1.9338 8.4928,-7.367 0.27506,-0.70583 1.0944,-0.01782 c -0.4375,-1.5625 -2.9415,-4.3835 -4.8165,-4.3835 l 0.08202,1.0901 -0.66999,0.38003 -6.7041,9.0702 z"
             style="color:#000000;fill:url(#linearGradient6945);stroke:#888a85;stroke-width:2.4605;stroke-linecap:round"
             id="path6935" />
          <path
             inkscape:connector-curvature="0"
             d="m -23.801,28.377 -4.3649,5.2665"
             style="color:#000000;fill:none;stroke:#ffffff;stroke-width:2.4605;stroke-linecap:round;stroke-linejoin:round"
             id="path6985" />
          <path
             inkscape:connector-curvature="0"
             d="m -45.341,42.77 c 10.444,0 18.37,1.2437 19.871,-6.3547 1.2092,-6.1233 -7.2105,-9.0574 -11.383,-3.5909 -4.0193,5.266 -8.4877,9.9456 -8.4877,9.9456 z"
             style="color:#000000;fill:url(#radialGradient6969)"
             id="path6933" />
          <path
             inkscape:connector-curvature="0"
             d="m 8.875,37.75 a 1.25,1.25 0 1 1 -2.5,0 1.25,1.25 0 1 1 2.5,0 z"
             transform="matrix(2.0699,0,0,2.0699,-44.75,-41.51)"
             style="opacity:0.52777997;color:#000000;fill:#ffffff"
             id="path6971" />
          <path
             inkscape:connector-curvature="0"
             d="m 8.875,37.75 a 1.25,1.25 0 1 1 -2.5,0 1.25,1.25 0 1 1 2.5,0 z"
             transform="matrix(1.3967,0,0,1.3967,-32.055,-25.877)"
             style="color:#000000;fill:#ffffff"
             id="path6983" />
          <path
             inkscape:connector-curvature="0"
             d="m -38.544,40.909 c 0,0 3.7215,0.0943 6.1165,-1.412 0.84735,-0.53292 1.5158,0.64998 0.49382,1.0874 -2.2074,0.94473 -6.6104,0.32463 -6.6104,0.32463 z"
             style="opacity:0.42778003;color:#000000;fill:url(#linearGradient2452)"
             id="path1571" />
        </g>
        <path
           inkscape:connector-curvature="0"
           d="m 23.003,31.737 c 1.4974,0.14309 2.8496,-0.27221 3.4119,-0.47405 0.09822,-0.55539 0.53655,-1.6213 2.0461,-1.6915 l -0.53033,-0.92808 c 0,0 -1.9666,1.3479 -4.0659,1.7457 l -0.86179,1.3479 z"
           style="color:#000000;fill:url(#linearGradient3151);fill-rule:evenodd"
           id="path8532" />
      </g>
    </g>
    <rect
       ry="25"
       rx="25"
       id="rect3003"
       style="opacity:0.15;fill:#ffffff;fill-opacity:1"
       height="92"
       width="92"
       y="958.36218"
       x="-96"
       clip-path="url(#clipPath3009)"
       transform="translate(98,3.8281269e-7)" />
  </g>
</svg>
