<?xml version="1.0" encoding="UTF-8" standalone="no"?>
<!-- Created with Inkscape (http://www.inkscape.org/) -->

<svg
   xmlns:dc="http://purl.org/dc/elements/1.1/"
   xmlns:cc="http://creativecommons.org/ns#"
   xmlns:rdf="http://www.w3.org/1999/02/22-rdf-syntax-ns#"
   xmlns:svg="http://www.w3.org/2000/svg"
   xmlns="http://www.w3.org/2000/svg"
   xmlns:xlink="http://www.w3.org/1999/xlink"
   xmlns:sodipodi="http://sodipodi.sourceforge.net/DTD/sodipodi-0.dtd"
   xmlns:inkscape="http://www.inkscape.org/namespaces/inkscape"
   width="96"
   height="96"
   id="svg11037"
   version="1.1"
   inkscape:version="0.48.3.1 r9886"
   sodipodi:docname="gnome-lightsoff.svg">
  <defs
     id="defs11039">
    <linearGradient
       y2="1046.1001"
       x2="47.999954"
       y1="962.62189"
       x1="47.999954"
       gradientTransform="matrix(1.15,0,0,1.15,-7.1999462,-150.65291)"
       gradientUnits="userSpaceOnUse"
       id="linearGradient3886"
       xlink:href="#linearGradient3795"
       inkscape:collect="always" />
    <linearGradient
       id="linearGradient3795">
      <stop
         style="stop-color:#13a6fd;stop-opacity:1;"
         offset="0"
         id="stop3797" />
      <stop
         style="stop-color:#2975b6;stop-opacity:1;"
         offset="1"
         id="stop3799" />
    </linearGradient>
    <linearGradient
       y2="1046.1001"
       x2="47.999954"
       y1="962.62189"
       x1="47.999954"
       gradientTransform="matrix(1.15,0,0,1.15,-7.1999462,-150.65292)"
       gradientUnits="userSpaceOnUse"
       id="linearGradient11642"
       xlink:href="#linearGradient8668"
       inkscape:collect="always" />
    <linearGradient
       id="linearGradient8668"
       y2="902.35999"
       gradientUnits="userSpaceOnUse"
       x2="48"
       gradientTransform="translate(0,-7.8516e-6)"
       y1="1052.4"
       x1="48">
      <stop
         id="stop3771"
         style="stop-color:#ea880b"
         offset="0" />
      <stop
         id="stop3773"
         style="stop-color:#f7cc2e"
         offset="1" />
    </linearGradient>
    <linearGradient
       y2="902.35999"
       x2="48"
       y1="1052.4"
       x1="48"
       gradientTransform="translate(-78.052038,-67.660278)"
       gradientUnits="userSpaceOnUse"
       id="linearGradient3036"
       xlink:href="#linearGradient8668"
       inkscape:collect="always" />
    <linearGradient
       id="linearGradient8096"
       x1="48"
       xlink:href="#linearGradient3977"
       gradientUnits="userSpaceOnUse"
       y1="90"
       gradientTransform="matrix(0.5,0,0,0.5,45,-51)"
       x2="48"
       y2="5.9877" />
    <linearGradient
       id="linearGradient3977">
      <stop
         id="stop3979-8"
         style="stop-color:#366598"
         offset="0" />
      <stop
         id="stop3981-3"
         style="stop-color:#6593c3"
         offset="1" />
    </linearGradient>
    <linearGradient
       id="linearGradient3975"
       x1="48"
       xlink:href="#linearGradient4941"
       gradientUnits="userSpaceOnUse"
       y1="90"
       gradientTransform="matrix(0.5,0,0,0.5,45,-93)"
       x2="48"
       y2="5.9877" />
    <linearGradient
       id="linearGradient4941">
      <stop
         id="stop4943"
         style="stop-color:#2a2a2a"
         offset="0" />
      <stop
         id="stop4945"
         style="stop-color:#4b4b4b"
         offset="1" />
    </linearGradient>
    <linearGradient
       id="linearGradient3987"
       x1="48"
       xlink:href="#linearGradient3977"
       gradientUnits="userSpaceOnUse"
       y1="90"
       gradientTransform="matrix(0.5,0,0,0.5,3,-93)"
       x2="48"
       y2="5.9877" />
    <linearGradient
       id="linearGradient3057">
      <stop
         id="stop3059"
         style="stop-color:#366598"
         offset="0" />
      <stop
         id="stop3061"
         style="stop-color:#6593c3"
         offset="1" />
    </linearGradient>
    <linearGradient
       id="linearGradient3993"
       x1="48"
       xlink:href="#linearGradient4941"
       gradientUnits="userSpaceOnUse"
       y1="90"
       gradientTransform="matrix(0.5,0,0,0.5,3,-51)"
       x2="48"
       y2="5.9877" />
    <linearGradient
       id="linearGradient3064">
      <stop
         id="stop3066"
         style="stop-color:#2a2a2a"
         offset="0" />
      <stop
         id="stop3068"
         style="stop-color:#4b4b4b"
         offset="1" />
    </linearGradient>
    <linearGradient
       id="linearGradient4003"
       x1="24"
       xlink:href="#linearGradient3997"
       gradientUnits="userSpaceOnUse"
       x2="24"
       y1="48"
       y2="88" />
    <linearGradient
       id="linearGradient3997">
      <stop
         id="stop3999"
         style="stop-color:#fff"
         offset="0" />
      <stop
         id="stop4001"
         style="stop-color:#fff;stop-opacity:0"
         offset="1" />
    </linearGradient>
    <linearGradient
       id="linearGradient4007-3"
       x1="24"
       xlink:href="#linearGradient3997"
       gradientUnits="userSpaceOnUse"
       y1="48"
       gradientTransform="translate(42,-42)"
       x2="24"
       y2="88" />
    <linearGradient
       id="linearGradient3075">
      <stop
         id="stop3077"
         style="stop-color:#fff"
         offset="0" />
      <stop
         id="stop3079"
         style="stop-color:#fff;stop-opacity:0"
         offset="1" />
    </linearGradient>
    <linearGradient
       id="linearGradient4011"
       x1="24"
       xlink:href="#linearGradient3997"
       gradientUnits="userSpaceOnUse"
       y1="48"
       gradientTransform="translate(0,-42)"
       x2="24"
       y2="88" />
    <linearGradient
       id="linearGradient3082">
      <stop
         id="stop3084"
         style="stop-color:#fff"
         offset="0" />
      <stop
         id="stop3086"
         style="stop-color:#fff;stop-opacity:0"
         offset="1" />
    </linearGradient>
    <linearGradient
       id="linearGradient3121"
       y2="88"
       xlink:href="#linearGradient3997"
       gradientUnits="userSpaceOnUse"
       y1="48"
       gradientTransform="translate(42,0)"
       x2="24"
       x1="24" />
    <linearGradient
       id="linearGradient3089">
      <stop
         id="stop3091"
         style="stop-color:#fff"
         offset="0" />
      <stop
         id="stop3093"
         style="stop-color:#fff;stop-opacity:0"
         offset="1" />
    </linearGradient>
    <clipPath
       clipPathUnits="userSpaceOnUse"
       id="clipPath3009">
      <path
         id="path3011"
         d="m -2,956.36218 -96,0 0,33.5624 96,25.68742 0,-59.24982 z"
         style="opacity:0.15;fill:#ffffff;fill-opacity:1;stroke:none"
         inkscape:connector-curvature="0" />
    </clipPath>
  </defs>
  <sodipodi:namedview
     id="base"
     pagecolor="#ffffff"
     bordercolor="#666666"
     borderopacity="1.0"
     inkscape:pageopacity="0.0"
     inkscape:pageshadow="2"
     inkscape:zoom="3.959798"
     inkscape:cx="33.538031"
     inkscape:cy="59.964634"
     inkscape:document-units="px"
     inkscape:current-layer="layer1"
     showgrid="false"
     inkscape:window-width="1280"
     inkscape:window-height="750"
     inkscape:window-x="0"
     inkscape:window-y="22"
     inkscape:window-maximized="1"
     showguides="true"
     inkscape:guide-bbox="true">
    <sodipodi:guide
       orientation="0,1"
       position="-24.748737,0"
       id="guide11064" />
    <sodipodi:guide
       orientation="0,1"
       position="-23.233509,96"
       id="guide11066" />
    <sodipodi:guide
       orientation="1,0"
       position="0,54.800776"
       id="guide11068" />
    <sodipodi:guide
       orientation="1,0"
       position="96,51.012704"
       id="guide11070" />
    <sodipodi:guide
       orientation="0,1"
       position="-18.94036,48"
       id="guide11072" />
    <sodipodi:guide
       orientation="1,0"
       position="48,79.296975"
       id="guide11074" />
    <sodipodi:guide
       orientation="1,0"
       position="2,75.508903"
       id="guide11076" />
    <sodipodi:guide
       orientation="0,1"
       position="-77.27667,2"
       id="guide11078" />
    <sodipodi:guide
       orientation="1,0"
       position="94,77.781746"
       id="guide11080" />
    <sodipodi:guide
       orientation="0,1"
       position="-65.912454,94"
       id="guide11082" />
  </sodipodi:namedview>
  <metadata
     id="metadata11042">
    <rdf:RDF>
      <cc:Work
         rdf:about="">
        <dc:format>image/svg+xml</dc:format>
        <dc:type
           rdf:resource="http://purl.org/dc/dcmitype/StillImage" />
        <dc:title />
      </cc:Work>
    </rdf:RDF>
  </metadata>
  <g
     inkscape:label="Layer 1"
     inkscape:groupmode="layer"
     id="layer1"
     transform="translate(0,-956.36218)">
    <rect
       x="2"
       y="958.36218"
       width="92"
       height="92"
       style="fill:url(#linearGradient11642);fill-opacity:1.0"
       id="rect3867"
       rx="25"
       ry="25" />
    <g
       id="g26594"
       transform="translate(-182.19,-40.40383)">
      <g
         id="g3037"
         transform="matrix(0.65476,0,0,0.65476,198.76,1013.3)">
        <rect
           id="rect8039"
           style="fill:url(#linearGradient8096)"
           transform="matrix(0,1,-1,0,0,0)"
           rx="6"
           ry="6"
           height="42"
           width="42"
           y="-48"
           x="48" />
        <path
           inkscape:connector-curvature="0"
           id="rect8166"
           style="opacity:0.3;fill:#ffffff"
           d="m 12,48 c -3.324,0 -6,2.676 -6,6 v 30 c 0,3.324 2.676,6 6,6 h 30 c 3.324,0 6,-2.676 6,-6 V 54 c 0,-3.324 -2.676,-6 -6,-6 H 12 z m 0,1 h 30 c 2.7789,0 5,2.2211 5,5 v 30 c 0,2.7789 -2.2211,5 -5,5 H 12 c -2.7789,3e-6 -5,-2.2211 -5,-5 V 54 c 0,-2.7789 2.2211,-5 5,-5 z" />
        <rect
           id="rect3971"
           style="fill:url(#linearGradient3975)"
           transform="matrix(0,1,-1,0,0,0)"
           rx="6"
           ry="6"
           height="42"
           width="42"
           y="-90"
           x="48" />
        <path
           inkscape:connector-curvature="0"
           id="path3973"
           style="opacity:0.2;fill:#ffffff"
           d="m 54,48 c -3.324,0 -6,2.676 -6,6 v 30 c 0,3.324 2.676,6 6,6 h 30 c 3.324,0 6,-2.676 6,-6 V 54 c 0,-3.324 -2.676,-6 -6,-6 H 54 z m 0,1 h 30 c 2.7789,0 5,2.2211 5,5 v 30 c 0,2.7789 -2.2211,5 -5,5 H 54 c -2.7789,3e-6 -5,-2.2211 -5,-5 V 54 c 0,-2.7789 2.2211,-5 5,-5 z" />
        <rect
           id="rect3983"
           style="fill:url(#linearGradient3987)"
           transform="matrix(0,1,-1,0,0,0)"
           rx="6"
           ry="6"
           height="42"
           width="42"
           y="-90"
           x="6" />
        <path
           inkscape:connector-curvature="0"
           id="path3985"
           style="opacity:0.3;fill:#ffffff"
           d="m 54,6 c -3.324,0 -6,2.676 -6,6 v 30 c 0,3.324 2.676,6 6,6 h 30 c 3.324,0 6,-2.676 6,-6 V 12 C 90,8.676 87.324,6 84,6 H 54 z m 0,1 h 30 c 2.7789,0 5,2.2211 5,5 v 30 c 0,2.7789 -2.2211,5 -5,5 H 54 c -2.7789,3e-6 -5,-2.2211 -5,-5 V 12 c 0,-2.7789 2.2211,-5 5,-5 z" />
        <rect
           id="rect3989"
           style="fill:url(#linearGradient3993)"
           transform="matrix(0,1,-1,0,0,0)"
           rx="6"
           ry="6"
           height="42"
           width="42"
           y="-48"
           x="6" />
        <path
           inkscape:connector-curvature="0"
           id="path3991"
           style="opacity:0.2;fill:#ffffff"
           d="M 12,6 C 8.676,6 6,8.676 6,12 v 30 c 0,3.324 2.676,6 6,6 h 30 c 3.324,0 6,-2.676 6,-6 V 12 C 48,8.676 45.324,6 42,6 H 12 z m 0,1 h 30 c 2.7789,0 5,2.2211 5,5 v 30 c 0,2.7789 -2.2211,5 -5,5 H 12 c -2.7789,3e-6 -5,-2.2211 -5,-5 V 12 C 7,9.2211 9.2211,7 12,7 z" />
        <path
           inkscape:connector-curvature="0"
           id="path3995"
           style="opacity:0.1;fill:url(#linearGradient4003)"
           d="m 12,48 c -3.324,0 -6,2.676 -6,6 v 30 c 0,2.9849 2.1528,5.4349 5,5.9062 -2.2868,-0.463 -4,-2.474 -4,-4.906 v -30 c 0,-2.7789 2.2211,-5 5,-5 h 30 c 2.7789,0 5,2.2211 5,5 v 30 c 0,2.4316 -1.7132,4.4431 -4,4.9062 2.847,-0.471 5,-2.921 5,-5.906 v -30 c 0,-3.324 -2.676,-6 -6,-6 H 12 z" />
        <path
           inkscape:connector-curvature="0"
           id="path4005"
           style="opacity:0.1;fill:url(#linearGradient4007-3)"
           d="m 54,6 c -3.324,0 -6,2.676 -6,6 v 30 c 0,2.9849 2.1528,5.4349 5,5.9062 -2.287,-0.463 -4,-2.474 -4,-4.906 v -30 c 0,-2.7789 2.2211,-5 5,-5 h 30 c 2.7789,0 5,2.2211 5,5 v 30 c 0,2.4316 -1.7132,4.4431 -4,4.9062 2.847,-0.471 5,-2.921 5,-5.906 v -30 c 0,-3.324 -2.676,-6 -6,-6 H 54 z" />
        <path
           inkscape:connector-curvature="0"
           id="path4009"
           style="opacity:0.1;fill:url(#linearGradient4011)"
           d="M 12,6 C 8.676,6 6,8.676 6,12 v 30 c 0,2.9849 2.1528,5.4349 5,5.9062 -2.2868,-0.463 -4,-2.474 -4,-4.906 v -30 c 0,-2.779 2.2211,-5 5,-5 h 30 c 2.7789,0 5,2.2211 5,5 v 30 c 0,2.4316 -1.7132,4.4431 -4,4.9062 2.847,-0.471 5,-2.921 5,-5.906 v -30 c 0,-3.324 -2.676,-6 -6,-6 H 12 z" />
        <path
           inkscape:connector-curvature="0"
           id="path4013"
           style="opacity:0.1;fill:url(#linearGradient3121)"
           d="m 54,48 c -3.324,0 -6,2.676 -6,6 v 30 c 0,2.9849 2.1528,5.4349 5,5.9062 -2.287,-0.463 -4,-2.474 -4,-4.906 v -30 c 0,-2.7789 2.2211,-5 5,-5 h 30 c 2.7789,0 5,2.2211 5,5 v 30 c 0,2.4316 -1.7132,4.4431 -4,4.9062 2.847,-0.471 5,-2.921 5,-5.906 v -30 c 0,-3.324 -2.676,-6 -6,-6 H 54 z" />
      </g>
    </g>
    <rect
       ry="25"
       rx="25"
       id="rect3003"
       style="opacity:0.15;fill:#ffffff;fill-opacity:1"
       height="92"
       width="92"
       y="958.36218"
       x="-96"
       clip-path="url(#clipPath3009)"
       transform="translate(98,3.8281269e-7)" />
  </g>
</svg>
