<?xml version="1.0" encoding="UTF-8" standalone="no"?>
<!-- Created with Inkscape (http://www.inkscape.org/) -->

<svg
   xmlns:dc="http://purl.org/dc/elements/1.1/"
   xmlns:cc="http://creativecommons.org/ns#"
   xmlns:rdf="http://www.w3.org/1999/02/22-rdf-syntax-ns#"
   xmlns:svg="http://www.w3.org/2000/svg"
   xmlns="http://www.w3.org/2000/svg"
   xmlns:xlink="http://www.w3.org/1999/xlink"
   xmlns:sodipodi="http://sodipodi.sourceforge.net/DTD/sodipodi-0.dtd"
   xmlns:inkscape="http://www.inkscape.org/namespaces/inkscape"
   width="96"
   height="96"
   id="svg11037"
   version="1.1"
   inkscape:version="0.48.3.1 r9886"
   sodipodi:docname="gnome-session-hibernate.svg">
  <defs
     id="defs11039">
    <linearGradient
       y2="1046.1001"
       x2="47.999954"
       y1="962.62189"
       x1="47.999954"
       gradientTransform="matrix(1.15,0,0,1.15,-7.1999462,-150.65291)"
       gradientUnits="userSpaceOnUse"
       id="linearGradient3886"
       xlink:href="#linearGradient3795"
       inkscape:collect="always" />
    <linearGradient
       id="linearGradient3795">
      <stop
         style="stop-color:#13a6fd;stop-opacity:1;"
         offset="0"
         id="stop3797" />
      <stop
         style="stop-color:#2975b6;stop-opacity:1;"
         offset="1"
         id="stop3799" />
    </linearGradient>
    <linearGradient
       y2="1046.1001"
       x2="47.999954"
       y1="962.62189"
       x1="47.999954"
       gradientTransform="matrix(1.15,0,0,1.15,-7.1999462,-150.65292)"
       gradientUnits="userSpaceOnUse"
       id="linearGradient11642"
       xlink:href="#linearGradient3795"
       inkscape:collect="always" />
    <linearGradient
       x1="48"
       y1="90"
       x2="48"
       y2="5.9877172"
       id="linearGradient3617"
       xlink:href="#linearGradient4081"
       gradientUnits="userSpaceOnUse" />
    <linearGradient
       id="linearGradient4081">
      <stop
         id="stop4083"
         style="stop-color:#8c8c8c;stop-opacity:1"
         offset="0" />
      <stop
         id="stop4085"
         style="stop-color:#dcdcdc;stop-opacity:1"
         offset="1" />
    </linearGradient>
    <linearGradient
       x1="48"
       y1="20.220806"
       x2="48"
       y2="138.66119"
       id="linearGradient3613"
       xlink:href="#linearGradient3737"
       gradientUnits="userSpaceOnUse" />
    <linearGradient
       id="linearGradient3737">
      <stop
         id="stop3739"
         style="stop-color:#ffffff;stop-opacity:1"
         offset="0" />
      <stop
         id="stop3741"
         style="stop-color:#ffffff;stop-opacity:0"
         offset="1" />
    </linearGradient>
    <clipPath
       id="clipPath3613">
      <rect
         width="84"
         height="84"
         rx="6"
         ry="6"
         x="6"
         y="6"
         id="rect3615"
         style="fill:#ffffff;fill-opacity:1;fill-rule:nonzero;stroke:none" />
    </clipPath>
    <filter
       x="-0.192"
       y="-0.192"
       width="1.3839999"
       height="1.3839999"
       color-interpolation-filters="sRGB"
       id="filter3794">
      <feGaussianBlur
         id="feGaussianBlur3796"
         stdDeviation="5.28" />
    </filter>
    <clipPath
       id="clipPath4194-1">
      <rect
         width="84"
         height="84"
         rx="6"
         ry="6"
         x="6"
         y="6"
         id="rect4196-1"
         style="fill:#ff00ff;fill-opacity:1;fill-rule:nonzero;stroke:none" />
    </clipPath>
    <linearGradient
       x1="48.233639"
       y1="48.047016"
       x2="126.13924"
       y2="66.232674"
       id="linearGradient4077-0"
       xlink:href="#linearGradient4071-3"
       gradientUnits="userSpaceOnUse" />
    <linearGradient
       id="linearGradient4071-3">
      <stop
         id="stop4073-8"
         style="stop-color:#000000;stop-opacity:1"
         offset="0" />
      <stop
         id="stop4075-4"
         style="stop-color:#000000;stop-opacity:0"
         offset="1" />
    </linearGradient>
    <linearGradient
       x1="48.055065"
       y1="48.031517"
       x2="126.67282"
       y2="62.838562"
       id="linearGradient4069-9"
       xlink:href="#linearGradient4047-2"
       gradientUnits="userSpaceOnUse" />
    <linearGradient
       id="linearGradient4047-2">
      <stop
         id="stop4049-0"
         style="stop-color:#000000;stop-opacity:1"
         offset="0" />
      <stop
         id="stop4051-5"
         style="stop-color:#000000;stop-opacity:0"
         offset="1" />
    </linearGradient>
    <linearGradient
       x1="47.997307"
       y1="48.028725"
       x2="127.05216"
       y2="60.289631"
       id="linearGradient4061-6"
       xlink:href="#linearGradient4047-2"
       gradientUnits="userSpaceOnUse" />
    <linearGradient
       id="linearGradient3186">
      <stop
         id="stop3188"
         style="stop-color:#000000;stop-opacity:1"
         offset="0" />
      <stop
         id="stop3190"
         style="stop-color:#000000;stop-opacity:0"
         offset="1" />
    </linearGradient>
    <linearGradient
       x1="47.99826"
       y1="48.028797"
       x2="127.41583"
       y2="57.664623"
       id="linearGradient4053-2"
       xlink:href="#linearGradient4047-2"
       gradientUnits="userSpaceOnUse" />
    <linearGradient
       id="linearGradient3193">
      <stop
         id="stop3195"
         style="stop-color:#000000;stop-opacity:1"
         offset="0" />
      <stop
         id="stop3197"
         style="stop-color:#000000;stop-opacity:0"
         offset="1" />
    </linearGradient>
    <radialGradient
       cx="48.410488"
       cy="47.59774"
       r="30.640047"
       fx="48.410488"
       fy="47.59774"
       id="radialGradient3814-9"
       xlink:href="#linearGradient3796-9"
       gradientUnits="userSpaceOnUse"
       gradientTransform="matrix(1,0,0,0.98495914,-30,0.71591078)" />
    <linearGradient
       id="linearGradient3796-9">
      <stop
         id="stop3798-4"
         style="stop-color:#ffffff;stop-opacity:0"
         offset="0" />
      <stop
         id="stop3800-9"
         style="stop-color:#ffffff;stop-opacity:1"
         offset="1" />
    </linearGradient>
    <radialGradient
       cx="48.265148"
       cy="47.886696"
       r="28.878813"
       fx="48.265148"
       fy="47.886696"
       id="radialGradient5008"
       xlink:href="#linearGradient3780-6-5"
       gradientUnits="userSpaceOnUse"
       gradientTransform="matrix(1,0,0,1.013812,-30,-0.66140908)" />
    <linearGradient
       id="linearGradient3780-6-5">
      <stop
         id="stop3782-4"
         style="stop-color:#000000;stop-opacity:0"
         offset="0" />
      <stop
         id="stop3784-9"
         style="stop-color:#000000;stop-opacity:1"
         offset="1" />
    </linearGradient>
    <linearGradient
       x1="48.233643"
       y1="48.04702"
       x2="126.13924"
       y2="66.232674"
       id="linearGradient4145-0"
       xlink:href="#linearGradient4115-2"
       gradientUnits="userSpaceOnUse" />
    <linearGradient
       id="linearGradient4115-2">
      <stop
         id="stop4117-3"
         style="stop-color:#ffffff;stop-opacity:1"
         offset="0" />
      <stop
         id="stop4119-6"
         style="stop-color:#ffffff;stop-opacity:0"
         offset="1" />
    </linearGradient>
    <linearGradient
       x1="48.055069"
       y1="48.031521"
       x2="126.67282"
       y2="62.838566"
       id="linearGradient4137-7"
       xlink:href="#linearGradient4115-2"
       gradientUnits="userSpaceOnUse" />
    <linearGradient
       id="linearGradient3212">
      <stop
         id="stop3214"
         style="stop-color:#ffffff;stop-opacity:1"
         offset="0" />
      <stop
         id="stop3216"
         style="stop-color:#ffffff;stop-opacity:0"
         offset="1" />
    </linearGradient>
    <linearGradient
       x1="47.997311"
       y1="48.028728"
       x2="127.05216"
       y2="60.289635"
       id="linearGradient4129-8"
       xlink:href="#linearGradient4115-2"
       gradientUnits="userSpaceOnUse" />
    <linearGradient
       id="linearGradient3219">
      <stop
         id="stop3221"
         style="stop-color:#ffffff;stop-opacity:1"
         offset="0" />
      <stop
         id="stop3223"
         style="stop-color:#ffffff;stop-opacity:0"
         offset="1" />
    </linearGradient>
    <linearGradient
       x1="47.998264"
       y1="48.028801"
       x2="127.41583"
       y2="57.664627"
       id="linearGradient4121-6"
       xlink:href="#linearGradient4115-2"
       gradientUnits="userSpaceOnUse" />
    <linearGradient
       id="linearGradient3226">
      <stop
         id="stop3228"
         style="stop-color:#ffffff;stop-opacity:1"
         offset="0" />
      <stop
         id="stop3230"
         style="stop-color:#ffffff;stop-opacity:0"
         offset="1" />
    </linearGradient>
    <linearGradient
       x1="48.233639"
       y1="48.047016"
       x2="126.13924"
       y2="66.232674"
       id="linearGradient4089-7"
       xlink:href="#linearGradient4071-3"
       gradientUnits="userSpaceOnUse" />
    <linearGradient
       id="linearGradient3233">
      <stop
         id="stop3235"
         style="stop-color:#000000;stop-opacity:1"
         offset="0" />
      <stop
         id="stop3237"
         style="stop-color:#000000;stop-opacity:0"
         offset="1" />
    </linearGradient>
    <linearGradient
       x1="48.055065"
       y1="48.031517"
       x2="126.67282"
       y2="62.838562"
       id="linearGradient4091-0"
       xlink:href="#linearGradient4047-2"
       gradientUnits="userSpaceOnUse" />
    <linearGradient
       id="linearGradient3240">
      <stop
         id="stop3242"
         style="stop-color:#000000;stop-opacity:1"
         offset="0" />
      <stop
         id="stop3244"
         style="stop-color:#000000;stop-opacity:0"
         offset="1" />
    </linearGradient>
    <linearGradient
       x1="47.997307"
       y1="48.028725"
       x2="127.05216"
       y2="60.289631"
       id="linearGradient4093-5"
       xlink:href="#linearGradient4047-2"
       gradientUnits="userSpaceOnUse" />
    <linearGradient
       id="linearGradient3247">
      <stop
         id="stop3249"
         style="stop-color:#000000;stop-opacity:1"
         offset="0" />
      <stop
         id="stop3251"
         style="stop-color:#000000;stop-opacity:0"
         offset="1" />
    </linearGradient>
    <linearGradient
       x1="47.99826"
       y1="48.028797"
       x2="127.41583"
       y2="57.664623"
       id="linearGradient4095-8"
       xlink:href="#linearGradient4047-2"
       gradientUnits="userSpaceOnUse" />
    <linearGradient
       id="linearGradient3254">
      <stop
         id="stop3256"
         style="stop-color:#000000;stop-opacity:1"
         offset="0" />
      <stop
         id="stop3258"
         style="stop-color:#000000;stop-opacity:0"
         offset="1" />
    </linearGradient>
    <linearGradient
       x1="48.233639"
       y1="48.047016"
       x2="126.13924"
       y2="66.232674"
       id="linearGradient4107-8"
       xlink:href="#linearGradient4071-3"
       gradientUnits="userSpaceOnUse" />
    <linearGradient
       id="linearGradient3261">
      <stop
         id="stop3263"
         style="stop-color:#000000;stop-opacity:1"
         offset="0" />
      <stop
         id="stop3265"
         style="stop-color:#000000;stop-opacity:0"
         offset="1" />
    </linearGradient>
    <linearGradient
       x1="48.055065"
       y1="48.031517"
       x2="126.67282"
       y2="62.838562"
       id="linearGradient4109-3"
       xlink:href="#linearGradient4047-2"
       gradientUnits="userSpaceOnUse" />
    <linearGradient
       id="linearGradient3268">
      <stop
         id="stop3270"
         style="stop-color:#000000;stop-opacity:1"
         offset="0" />
      <stop
         id="stop3272"
         style="stop-color:#000000;stop-opacity:0"
         offset="1" />
    </linearGradient>
    <linearGradient
       x1="47.997307"
       y1="48.028725"
       x2="127.05216"
       y2="60.289631"
       id="linearGradient4111-3"
       xlink:href="#linearGradient4047-2"
       gradientUnits="userSpaceOnUse" />
    <linearGradient
       id="linearGradient3275">
      <stop
         id="stop3277"
         style="stop-color:#000000;stop-opacity:1"
         offset="0" />
      <stop
         id="stop3279"
         style="stop-color:#000000;stop-opacity:0"
         offset="1" />
    </linearGradient>
    <linearGradient
       x1="47.99826"
       y1="48.028797"
       x2="127.41583"
       y2="57.664623"
       id="linearGradient4113-5"
       xlink:href="#linearGradient4047-2"
       gradientUnits="userSpaceOnUse" />
    <linearGradient
       id="linearGradient3282">
      <stop
         id="stop3284"
         style="stop-color:#000000;stop-opacity:1"
         offset="0" />
      <stop
         id="stop3286"
         style="stop-color:#000000;stop-opacity:0"
         offset="1" />
    </linearGradient>
    <linearGradient
       x1="48.233643"
       y1="48.04702"
       x2="126.13924"
       y2="66.232674"
       id="linearGradient4157-8"
       xlink:href="#linearGradient4115-2"
       gradientUnits="userSpaceOnUse" />
    <linearGradient
       id="linearGradient3289">
      <stop
         id="stop3291"
         style="stop-color:#ffffff;stop-opacity:1"
         offset="0" />
      <stop
         id="stop3293"
         style="stop-color:#ffffff;stop-opacity:0"
         offset="1" />
    </linearGradient>
    <linearGradient
       x1="48.055069"
       y1="48.031521"
       x2="126.67282"
       y2="62.838566"
       id="linearGradient4159-8"
       xlink:href="#linearGradient4115-2"
       gradientUnits="userSpaceOnUse" />
    <linearGradient
       id="linearGradient3296">
      <stop
         id="stop3298"
         style="stop-color:#ffffff;stop-opacity:1"
         offset="0" />
      <stop
         id="stop3300"
         style="stop-color:#ffffff;stop-opacity:0"
         offset="1" />
    </linearGradient>
    <linearGradient
       x1="47.997311"
       y1="48.028728"
       x2="127.05216"
       y2="60.289635"
       id="linearGradient4161-2"
       xlink:href="#linearGradient4115-2"
       gradientUnits="userSpaceOnUse" />
    <linearGradient
       id="linearGradient3303">
      <stop
         id="stop3305"
         style="stop-color:#ffffff;stop-opacity:1"
         offset="0" />
      <stop
         id="stop3307"
         style="stop-color:#ffffff;stop-opacity:0"
         offset="1" />
    </linearGradient>
    <linearGradient
       x1="47.998264"
       y1="48.028801"
       x2="127.41583"
       y2="57.664627"
       id="linearGradient4163-3"
       xlink:href="#linearGradient4115-2"
       gradientUnits="userSpaceOnUse" />
    <linearGradient
       id="linearGradient3310">
      <stop
         id="stop3312"
         style="stop-color:#ffffff;stop-opacity:1"
         offset="0" />
      <stop
         id="stop3314"
         style="stop-color:#ffffff;stop-opacity:0"
         offset="1" />
    </linearGradient>
    <linearGradient
       x1="45.995781"
       y1="79.995781"
       x2="45.995781"
       y2="15.99578"
       id="linearGradient3967"
       xlink:href="#linearGradient4281-6"
       gradientUnits="userSpaceOnUse"
       gradientTransform="matrix(-1,0,0,-1,95.99578,95.99578)" />
    <linearGradient
       id="linearGradient4281-6">
      <stop
         id="stop4283-9"
         style="stop-color:#1e1e1e;stop-opacity:1"
         offset="0" />
      <stop
         id="stop4285-8"
         style="stop-color:#505050;stop-opacity:1"
         offset="1" />
    </linearGradient>
    <clipPath
       clipPathUnits="userSpaceOnUse"
       id="clipPath3298">
      <rect
         x="6"
         y="6.0000038"
         width="84"
         height="84"
         style="fill:url(#linearGradient3302);fill-opacity:1"
         id="rect3300"
         rx="22.826086"
         ry="22.826086" />
    </clipPath>
    <linearGradient
       inkscape:collect="always"
       xlink:href="#linearGradient3795"
       id="linearGradient3302"
       gradientUnits="userSpaceOnUse"
       gradientTransform="matrix(1.05,0,0,1.05,-2.3999508,-1006.579)"
       x1="47.999954"
       y1="962.62189"
       x2="47.999954"
       y2="1046.1001" />
    <clipPath
       clipPathUnits="userSpaceOnUse"
       id="clipPath3009">
      <path
         id="path3011"
         d="m -2,956.36218 -96,0 0,33.5624 96,25.68742 0,-59.24982 z"
         style="opacity:0.15;fill:#ffffff;fill-opacity:1;stroke:none"
         inkscape:connector-curvature="0" />
    </clipPath>
  </defs>
  <sodipodi:namedview
     id="base"
     pagecolor="#ffffff"
     bordercolor="#666666"
     borderopacity="1.0"
     inkscape:pageopacity="0.0"
     inkscape:pageshadow="2"
     inkscape:zoom="3.959798"
     inkscape:cx="37.957448"
     inkscape:cy="59.964634"
     inkscape:document-units="px"
     inkscape:current-layer="layer1"
     showgrid="false"
     inkscape:window-width="1280"
     inkscape:window-height="750"
     inkscape:window-x="0"
     inkscape:window-y="22"
     inkscape:window-maximized="1"
     showguides="true"
     inkscape:guide-bbox="true">
    <sodipodi:guide
       orientation="0,1"
       position="-24.748737,0"
       id="guide11064" />
    <sodipodi:guide
       orientation="0,1"
       position="-23.233509,96"
       id="guide11066" />
    <sodipodi:guide
       orientation="1,0"
       position="0,54.800776"
       id="guide11068" />
    <sodipodi:guide
       orientation="1,0"
       position="96,51.012704"
       id="guide11070" />
    <sodipodi:guide
       orientation="0,1"
       position="-18.94036,48"
       id="guide11072" />
    <sodipodi:guide
       orientation="1,0"
       position="48,79.296975"
       id="guide11074" />
    <sodipodi:guide
       orientation="1,0"
       position="2,75.508903"
       id="guide11076" />
    <sodipodi:guide
       orientation="0,1"
       position="-77.27667,2"
       id="guide11078" />
    <sodipodi:guide
       orientation="1,0"
       position="94,77.781746"
       id="guide11080" />
    <sodipodi:guide
       orientation="0,1"
       position="-65.912454,94"
       id="guide11082" />
  </sodipodi:namedview>
  <metadata
     id="metadata11042">
    <rdf:RDF>
      <cc:Work
         rdf:about="">
        <dc:format>image/svg+xml</dc:format>
        <dc:type
           rdf:resource="http://purl.org/dc/dcmitype/StillImage" />
        <dc:title />
      </cc:Work>
    </rdf:RDF>
  </metadata>
  <g
     inkscape:label="Layer 1"
     inkscape:groupmode="layer"
     id="layer1"
     transform="translate(0,-956.36218)">
    <g
       transform="matrix(1.0952381,0,0,1.0952381,-4.5714286,951.79075)"
       id="g3111"
       clip-path="url(#clipPath3298)">
      <g
         style="opacity:0.9;display:inline"
         id="layer1-4">
        <rect
           style="fill:url(#linearGradient3617);fill-opacity:1;fill-rule:nonzero;stroke:none"
           id="rect2419"
           y="6"
           x="6"
           ry="6"
           rx="6"
           height="84"
           width="84" />
      </g>
      <g
         style="display:inline"
         id="layer5">
        <rect
           style="opacity:0.3;fill:url(#linearGradient3613);fill-opacity:1;fill-rule:nonzero;stroke:#ffffff;stroke-width:0.5;stroke-linecap:round;stroke-linejoin:miter;stroke-miterlimit:4;stroke-opacity:1;stroke-dasharray:none;stroke-dashoffset:0;filter:url(#filter3794)"
           id="rect3171"
           clip-path="url(#clipPath3613)"
           y="15"
           x="15"
           ry="12"
           rx="12"
           height="66"
           width="66" />
      </g>
      <g
         style="display:inline"
         id="layer7">
        <g
           id="g4165"
           clip-path="url(#clipPath4194-1)">
          <g
             style="opacity:0.9"
             id="g4011"
             transform="matrix(0.1413721,0.99271966,-1.1651755,0.12044784,96.937266,-5.1946837)">
            <path
               inkscape:connector-curvature="0"
               style="opacity:0.05;color:#000000;fill:url(#linearGradient4077-0);fill-opacity:1;fill-rule:nonzero;stroke:none;stroke-width:2;marker:none;visibility:visible;display:inline;overflow:visible;enable-background:accumulate"
               id="path4009"
               transform="matrix(0.99411049,-0.1083712,0.1083712,0.99411049,-5.1582185,5.4918915)"
               d="m 108.8959,48 a 60.895905,60.895905 0 0 1 -6.54616,27.466658 L 48,48 z" />
            <path
               inkscape:connector-curvature="0"
               style="opacity:0.07000002;color:#000000;fill:url(#linearGradient4069-9);fill-opacity:1;fill-rule:nonzero;stroke:none;stroke-width:2;marker:none;visibility:visible;display:inline;overflow:visible;enable-background:accumulate"
               id="path4007"
               transform="matrix(0.99786084,-0.06537382,0.06537382,0.99786084,-3.0940115,3.2415713)"
               d="m 108.8959,48 a 60.895905,60.895905 0 0 1 -4.45721,22.86887 L 48,48 z" />
            <path
               inkscape:connector-curvature="0"
               style="opacity:0.1;color:#000000;fill:url(#linearGradient4061-6);fill-opacity:1;fill-rule:nonzero;stroke:none;stroke-width:2;marker:none;visibility:visible;display:inline;overflow:visible;enable-background:accumulate"
               id="path4005"
               transform="matrix(0.99945136,-0.0331207,0.0331207,0.99945136,-1.5634586,1.6161281)"
               d="m 108.8959,48 a 60.895905,60.895905 0 0 1 -3.12994,19.271878 L 48,48 z" />
            <path
               inkscape:connector-curvature="0"
               style="opacity:0.1;color:#000000;fill:url(#linearGradient4053-2);fill-opacity:1;fill-rule:nonzero;stroke:none;stroke-width:2;marker:none;visibility:visible;display:inline;overflow:visible;enable-background:accumulate"
               id="path4003"
               d="m 108.8959,48 a 60.895905,60.895905 0 0 1 -2.07497,15.76102 L 48,48 z" />
          </g>
          <g
             style="display:inline"
             id="g3802"
             transform="matrix(1.8327427,0,0,1.8327427,14.258316,-39.234412)">
            <path
               style="opacity:0.2;fill:none;stroke:url(#radialGradient3814-9);stroke-width:0.47875074;stroke-linecap:butt;stroke-linejoin:miter;stroke-miterlimit:4;stroke-opacity:1;stroke-dasharray:none"
               id="path2875"
               inkscape:connector-curvature="0"
               d="m 19.196345,49.867051 c -3.738265,2.562962 -5.605177,-4.899096 -1.154974,-4.811997 4.387142,-0.236076 3.979146,6.80144 -0.14484,6.614579 -3.173748,0.242635 -5.09871,-3.898691 -3.103604,-6.28528 2.027686,-2.980787 7.171211,-1.684158 7.738852,1.817453 0.968958,3.636165 -3.157198,7.038605 -6.567267,5.522909 -3.946222,-1.269714 -4.48984,-7.147021 -1.107149,-9.366244 3.569732,-2.795822 9.391656,0.237279 9.205832,4.758257 0.256767,4.350812 -4.689261,7.672183 -8.648236,5.934817 -4.719427,-1.551169 -5.691985,-8.420221 -1.909414,-11.472668 3.658906,-3.435008 10.362961,-1.458224 11.674531,3.358788 1.593108,4.559419 -2.064292,9.921397 -6.919377,10.009261 -4.934051,0.46502 -9.383474,-4.338798 -8.522574,-9.226302 0.480479,-5.045837 6.04397,-8.597229 10.838865,-7.042849 5.1784,1.246192 7.964231,7.581112 5.661928,12.315394 -2.070284,5.179524 -9.065521,7.066028 -13.621189,4.001758 C 7.424311,52.974618 6.691724,45.101154 10.86947,40.924263 15.165407,36.095492 23.773883,37.139042 26.998584,42.664618 30.58674,48.101276 27.744117,56.314514 21.553387,58.35975 15.46747,60.756196 7.906078,56.617317 6.81501,50.123425 5.34029,43.713067 10.328048,36.760898 16.940044,36.314613 23.487404,35.466926 29.995015,40.908568 30.123743,47.552814 30.647278,54.136819 25.107934,60.440072 18.464686,60.577977 11.669268,61.115926 5.164462,55.397447 5.024582,48.540282 4.472186,41.532358 10.370345,34.824958 17.442071,34.683103 24.66497,34.112562 31.571299,40.201404 31.717502,47.482327 32.261527,54.5531 26.639293,61.392472 19.567107,62.088193 12.506556,63.107347 5.157505,58.125948 3.75402,51.076328 1.988348,43.843498 6.54485,35.711895 13.76939,33.696801 21.164576,31.301406 29.973677,35.569118 32.454424,42.989908 35.283072,50.44745 31.339725,59.682116 23.876503,62.614561 16.252559,65.960228 6.418708,62.163433 3.166022,54.460386 -0.460677,46.73027 3.193552,36.558153 10.997688,33.021039 18.82455,29.10366 29.333904,32.601966 33.163654,40.497601 37.380936,48.411784 34.052463,59.257606 26.075805,63.388192 18.084772,67.914672 6.904432,64.770022 2.465338,56.722662 -2.3791,48.665231 0.567179,37.152082 8.674015,32.396769 16.646023,27.323544 28.235397,29.850105 33.441397,37.715231 39.06385,45.591587 37.04047,57.558366 29.289653,63.288465 21.671547,69.341197 9.63076,68.020226 3.297684,60.713708 -3.239068,53.668826 -3.050394,41.865619 3.303584,34.770507 9.272825,27.629169 20.397635,26.076583 28.315846,30.782782 36.185506,35.070105 40.094,45.001749 37.640404,53.557449 35.536967,62.211074 27.24013,68.797901 18.324149,68.819371 8.97298,69.194434 -0.191259,62.643413 -2.500705,53.506455 -5.341332,43.680473 -0.124703,32.229448 9.356333,28.223707 19.155827,23.693354 31.93586,27.784588 37.162944,37.26447 42.789387,46.72108 39.87111,60.054899 30.865902,66.353962 22.019424,72.970624 8.507105,71.477204 1.102802,63.362119 -6.341386,55.695116 -6.885903,42.806473 -0.631601,34.262885 5.0606,25.930536 16.515151,22.560296 25.92533,25.974441 35.26606,28.979358 41.9654,38.384321 41.762522,48.19335 41.906082,58.482225 34.780338,68.44676 24.805876,71.241542 13.885322,74.667794 0.953279,69.321177 -4.070078,58.967248 -9.666937,48.284333 -5.970775,33.868505 4.097694,27.218693 13.975245,20.253564 28.655611,22.05766 36.761841,30.94387 44.881854,39.331612 45.633312,53.326287 39.026242,62.823852 33.154466,71.852547 21.238489,76.018338 10.949015,73.085142 0.615493,70.524097 -7.504412,61.056765 -8.311604,50.418275 -9.559429,38.880739 -2.469393,26.941601 8.508072,22.946112 20.270481,18.274573 34.934134,23.160118 41.359271,34.112802 48.322248,45.22282 45.613647,61.051693 35.510744,69.352771 26.493267,77.160606 12.387989,77.789013 2.485316,71.256878 -6.825165,65.484188 -11.784926,53.82063 -9.779737,43.088463 -8.135633,32.303809 0.28228,22.917795 10.906023,20.332233 22.733464,17.16242 36.299386,22.381522 42.685854,32.892291 49.471849,43.486021 48.065091,58.327124 39.734958,67.674972 32.529312,76.136853 20.262656,79.496936 9.6632,76.384758 -0.916474,73.578219 -9.49146,64.441103 -11.417262,53.637295 c -2.468307,-12.1985 3.355421,-25.652156 14.214149,-31.8639 11.254823,-6.788152 26.723545,-4.953857 36.275015,3.999132 8.648345,7.755808 11.835188,20.655975 8.326714,31.654229 -2.022046,6.678916 -6.325835,12.653212 -12.119166,16.565345" />
            <path
               style="opacity:0.1;fill:none;stroke:url(#radialGradient5008);stroke-width:0.47875074;stroke-linecap:butt;stroke-linejoin:miter;stroke-miterlimit:4;stroke-opacity:1;stroke-dasharray:none"
               id="path3650"
               inkscape:connector-curvature="0"
               d="m 16.908938,49.337251 c -3.885859,-1.858917 1.368699,-6.941434 3.411713,-3.237252 2.27904,3.498707 -3.707115,6.507095 -5.513003,3.024002 -1.707843,-2.496891 0.785978,-6.049192 3.698336,-5.541192 3.416899,0.252456 4.793862,5.102047 2.181575,7.233199 -2.532331,2.525401 -7.29345,0.746141 -7.666384,-2.780808 -0.830168,-3.851348 3.748869,-7.091646 7.182845,-5.362045 3.99743,1.609549 4.267549,7.842669 0.458223,9.838071 -3.458953,2.278819 -8.542946,-0.213769 -8.994268,-4.297839 -0.965935,-4.621489 4.225535,-8.686104 8.535322,-7.023322 4.565892,1.379208 6.124601,7.836419 2.783172,11.204943 -2.995629,3.47784 -9.146812,3.015559 -11.526228,-0.938725 -2.727361,-3.840055 -0.887875,-9.784956 3.543912,-11.3989 4.381333,-2.002293 9.948059,0.889201 10.947213,5.574331 1.435048,4.854329 -2.455147,10.157563 -7.445769,10.512333 -5.246827,0.757312 -10.12361,-4.103745 -9.76636,-9.309468 0.01802,-5.709742 6.150207,-10.054138 11.57326,-8.600431 6.015751,1.241214 9.24753,8.822414 6.232018,14.102269 -2.769616,5.536748 -10.880373,7.099984 -15.505506,2.976515 -4.864393,-3.870308 -5.050974,-12.060578 -0.224597,-16.04446 4.575316,-4.259956 12.667493,-3.458359 16.17678,1.771651 3.80895,4.986067 2.422534,12.928076 -2.98489,16.19134 C 18.83607,60.791052 11.015878,59.227103 7.745554,53.82483 4.073662,48.48741 5.689263,40.416158 11.266632,37.042537 c 5.505428,-3.784787 13.828761,-2.11756 17.305945,3.635501 3.901854,5.673775 2.172224,14.2515 -3.750918,17.831693 C 19.260525,62.317493 10.959688,60.940083 7.026422,55.449838 2.83248,50.122863 3.440245,41.707002 8.57556,37.201902 c 5.113999,-4.890263 13.971988,-5.004077 19.06357,-0.0154 5.485683,4.948417 6.159129,14.226849 1.230226,19.794981 -4.793832,5.87194 -14.268338,7.014588 -20.228373,2.265378 C 2.264469,54.561726 0.716478,44.663639 5.510874,38.326026 c 4.638949,-6.658312 14.747644,-8.484394 21.367356,-3.741925 6.943491,4.580474 9.058149,14.892702 4.379458,21.796791 -4.509806,7.231865 -15.018202,9.646206 -22.208356,5.043756 -7.522829,-4.426155 -10.247414,-15.12259 -5.7334,-22.600306 4.329687,-7.816124 15.205716,-10.862146 22.971917,-6.449418 7.96379,4.150685 11.391467,14.890068 7.391869,22.912398 C 29.868774,63.65776 19.057936,67.678948 10.658608,64.02246 2.056799,60.628514 -2.577656,50.090481 0.426598,41.405945 3.118724,32.678099 12.923095,27.224564 21.782139,29.08272 c 8.714266,1.519526 15.278557,9.938154 15.167759,18.691695 0.21089,8.514533 -6.106135,16.450934 -14.313894,18.4971 C 14.514038,68.652416 5.15011,64.953633 0.895634,57.625429 -3.856667,50.107065 -2.819578,39.451315 3.603229,33.20866 10.34073,26.20139 22.24448,25.053527 30.046749,30.9535 38.432132,36.86629 41.137786,49.329185 35.819171,58.136192 30.709482,67.260839 18.348245,71.19508 8.88455,66.77652 -0.765119,62.639525 -5.956898,50.808382 -2.796187,40.857932 -0.023226,31.087582 10.326114,24.514791 20.329971,25.602598 29.892861,26.328142 38.109875,34.154427 39.771483,43.521972 41.736908,52.637894 37.17956,62.621059 29.009762,67.11528 20.609649,72.122662 9.022168,70.992831 1.982115,64.111296 -6.027249,56.751141 -7.771885,43.566581 -1.63707,34.511911 4.495996,24.82888 18.117434,21.02072 28.375069,26.147736 38.801504,30.967779 44.292627,43.907928 40.830785,54.802542 37.785762,65.471629 26.624431,72.740326 15.667763,71.815494 5.446409,71.27305 -3.644656,63.445025 -6.119946,53.58231 -8.92247,43.860185 -4.98883,32.678169 3.383683,26.958442 c 8.903096,-6.509618 22.098819,-6.347498 30.603741,0.789 9.43435,7.461299 12.381322,21.851982 6.419813,32.344931 C 34.571809,71.10276 20.256636,76.395216 8.623553,72.024532 -2.087777,68.312834 -9.307712,57.001931 -8.637065,45.747378 -8.31008,35.341121 -1.067145,25.716465 8.718892,22.266986 18.376544,18.495371 30.101898,20.963649 37.278284,28.479002 45.50753,36.70744 47.658333,50.353127 42.042169,60.604252 36.547576,71.223635 23.664019,77.118205 12.011791,74.70404 1.623111,72.794391 -6.971449,64.294867 -9.446729,54.091965 -12.164166,44.050584 -8.718564,32.650926 -0.741539,25.931955 8.125603,18.103718 21.966122,16.503896 32.238726,22.489513 43.173969,28.527234 49.014857,42.130599 46.184819,54.246468 43.910973,65.050114 34.807761,73.80318 24.08837,76.141804 17.630379,77.651323 10.668065,76.947994 4.695209,74.03875" />
          </g>
          <g
             style="opacity:0.9;fill:#ffffff"
             id="g4027"
             transform="matrix(1.062807,-0.13087531,-0.74010065,3.227468,32.525111,-100.66774)">
            <path
               inkscape:connector-curvature="0"
               style="opacity:0.2;color:#000000;fill:url(#linearGradient4145-0);fill-opacity:1;fill-rule:nonzero;stroke:none;stroke-width:2;marker:none;visibility:visible;display:inline;overflow:visible;enable-background:accumulate"
               id="path4029"
               transform="matrix(0.99411049,-0.1083712,0.1083712,0.99411049,-5.1582185,5.4918915)"
               d="m 108.8959,48 a 60.895905,60.895905 0 0 1 -6.54616,27.466658 L 48,48 z" />
            <path
               inkscape:connector-curvature="0"
               style="opacity:0.4;color:#000000;fill:url(#linearGradient4137-7);fill-opacity:1;fill-rule:nonzero;stroke:none;stroke-width:2;marker:none;visibility:visible;display:inline;overflow:visible;enable-background:accumulate"
               id="path4031"
               transform="matrix(0.99786084,-0.06537382,0.06537382,0.99786084,-3.0940115,3.2415713)"
               d="m 108.8959,48 a 60.895905,60.895905 0 0 1 -4.45721,22.86887 L 48,48 z" />
            <path
               inkscape:connector-curvature="0"
               style="opacity:0.6;color:#000000;fill:url(#linearGradient4129-8);fill-opacity:1;fill-rule:nonzero;stroke:none;stroke-width:2;marker:none;visibility:visible;display:inline;overflow:visible;enable-background:accumulate"
               id="path4033"
               transform="matrix(0.99945136,-0.0331207,0.0331207,0.99945136,-1.5634586,1.6161281)"
               d="m 108.8959,48 a 60.895905,60.895905 0 0 1 -3.12994,19.271878 L 48,48 z" />
            <path
               inkscape:connector-curvature="0"
               style="opacity:0.8;color:#000000;fill:url(#linearGradient4121-6);fill-opacity:1;fill-rule:nonzero;stroke:none;stroke-width:2;marker:none;visibility:visible;display:inline;overflow:visible;enable-background:accumulate"
               id="path4035"
               d="m 108.8959,48 a 60.895905,60.895905 0 0 1 -2.07497,15.76102 L 48,48 z" />
          </g>
          <g
             style="opacity:0.5"
             id="g4079"
             transform="matrix(-0.61678932,0.78712829,-0.78712829,-0.61678932,115.00148,40.011929)">
            <path
               inkscape:connector-curvature="0"
               style="opacity:0.05;color:#000000;fill:url(#linearGradient4089-7);fill-opacity:1;fill-rule:nonzero;stroke:none;stroke-width:2;marker:none;visibility:visible;display:inline;overflow:visible;enable-background:accumulate"
               id="path4081"
               transform="matrix(0.99411049,-0.1083712,0.1083712,0.99411049,-5.1582185,5.4918915)"
               d="m 108.8959,48 a 60.895905,60.895905 0 0 1 -6.54616,27.466658 L 48,48 z" />
            <path
               inkscape:connector-curvature="0"
               style="opacity:0.07000002;color:#000000;fill:url(#linearGradient4091-0);fill-opacity:1;fill-rule:nonzero;stroke:none;stroke-width:2;marker:none;visibility:visible;display:inline;overflow:visible;enable-background:accumulate"
               id="path4083"
               transform="matrix(0.99786084,-0.06537382,0.06537382,0.99786084,-3.0940115,3.2415713)"
               d="m 108.8959,48 a 60.895905,60.895905 0 0 1 -4.45721,22.86887 L 48,48 z" />
            <path
               inkscape:connector-curvature="0"
               style="opacity:0.1;color:#000000;fill:url(#linearGradient4093-5);fill-opacity:1;fill-rule:nonzero;stroke:none;stroke-width:2;marker:none;visibility:visible;display:inline;overflow:visible;enable-background:accumulate"
               id="path4085"
               transform="matrix(0.99945136,-0.0331207,0.0331207,0.99945136,-1.5634586,1.6161281)"
               d="m 108.8959,48 a 60.895905,60.895905 0 0 1 -3.12994,19.271878 L 48,48 z" />
            <path
               inkscape:connector-curvature="0"
               style="opacity:0.1;color:#000000;fill:url(#linearGradient4095-8);fill-opacity:1;fill-rule:nonzero;stroke:none;stroke-width:2;marker:none;visibility:visible;display:inline;overflow:visible;enable-background:accumulate"
               id="path4087"
               d="m 108.8959,48 a 60.895905,60.895905 0 0 1 -2.07497,15.76102 L 48,48 z" />
          </g>
          <g
             style="opacity:0.8"
             id="g4097"
             transform="matrix(-0.06817198,-1.0460056,2.710673,0.60162586,-79.095447,69.080129)">
            <path
               inkscape:connector-curvature="0"
               style="opacity:0.05;color:#000000;fill:url(#linearGradient4107-8);fill-opacity:1;fill-rule:nonzero;stroke:none;stroke-width:2;marker:none;visibility:visible;display:inline;overflow:visible;enable-background:accumulate"
               id="path4099"
               transform="matrix(0.99411049,-0.1083712,0.1083712,0.99411049,-5.1582185,5.4918915)"
               d="m 108.8959,48 a 60.895905,60.895905 0 0 1 -6.54616,27.466658 L 48,48 z" />
            <path
               inkscape:connector-curvature="0"
               style="opacity:0.07000002;color:#000000;fill:url(#linearGradient4109-3);fill-opacity:1;fill-rule:nonzero;stroke:none;stroke-width:2;marker:none;visibility:visible;display:inline;overflow:visible;enable-background:accumulate"
               id="path4101"
               transform="matrix(0.99786084,-0.06537382,0.06537382,0.99786084,-3.0940115,3.2415713)"
               d="m 108.8959,48 a 60.895905,60.895905 0 0 1 -4.45721,22.86887 L 48,48 z" />
            <path
               inkscape:connector-curvature="0"
               style="opacity:0.1;color:#000000;fill:url(#linearGradient4111-3);fill-opacity:1;fill-rule:nonzero;stroke:none;stroke-width:2;marker:none;visibility:visible;display:inline;overflow:visible;enable-background:accumulate"
               id="path4103"
               transform="matrix(0.99945136,-0.0331207,0.0331207,0.99945136,-1.5634586,1.6161281)"
               d="m 108.8959,48 a 60.895905,60.895905 0 0 1 -3.12994,19.271878 L 48,48 z" />
            <path
               inkscape:connector-curvature="0"
               style="opacity:0.1;color:#000000;fill:url(#linearGradient4113-5);fill-opacity:1;fill-rule:nonzero;stroke:none;stroke-width:2;marker:none;visibility:visible;display:inline;overflow:visible;enable-background:accumulate"
               id="path4105"
               d="m 108.8959,48 a 60.895905,60.895905 0 0 1 -2.07497,15.76102 L 48,48 z" />
          </g>
          <g
             style="opacity:0.9;fill:#ffffff"
             id="g4147"
             transform="matrix(-1.062807,0.1308753,0.74010064,-3.227468,62.996694,196.66774)">
            <path
               inkscape:connector-curvature="0"
               style="opacity:0.2;color:#000000;fill:url(#linearGradient4157-8);fill-opacity:1;fill-rule:nonzero;stroke:none;stroke-width:2;marker:none;visibility:visible;display:inline;overflow:visible;enable-background:accumulate"
               id="path4149"
               transform="matrix(0.99411049,-0.1083712,0.1083712,0.99411049,-5.1582185,5.4918915)"
               d="m 108.8959,48 a 60.895905,60.895905 0 0 1 -6.54616,27.466658 L 48,48 z" />
            <path
               inkscape:connector-curvature="0"
               style="opacity:0.4;color:#000000;fill:url(#linearGradient4159-8);fill-opacity:1;fill-rule:nonzero;stroke:none;stroke-width:2;marker:none;visibility:visible;display:inline;overflow:visible;enable-background:accumulate"
               id="path4151"
               transform="matrix(0.99786084,-0.06537382,0.06537382,0.99786084,-3.0940115,3.2415713)"
               d="m 108.8959,48 a 60.895905,60.895905 0 0 1 -4.45721,22.86887 L 48,48 z" />
            <path
               inkscape:connector-curvature="0"
               style="opacity:0.6;color:#000000;fill:url(#linearGradient4161-2);fill-opacity:1;fill-rule:nonzero;stroke:none;stroke-width:2;marker:none;visibility:visible;display:inline;overflow:visible;enable-background:accumulate"
               id="path4153"
               transform="matrix(0.99945136,-0.0331207,0.0331207,0.99945136,-1.5634586,1.6161281)"
               d="m 108.8959,48 a 60.895905,60.895905 0 0 1 -3.12994,19.271878 L 48,48 z" />
            <path
               inkscape:connector-curvature="0"
               style="opacity:0.8;color:#000000;fill:url(#linearGradient4163-3);fill-opacity:1;fill-rule:nonzero;stroke:none;stroke-width:2;marker:none;visibility:visible;display:inline;overflow:visible;enable-background:accumulate"
               id="path4155"
               d="m 108.8959,48 a 60.895905,60.895905 0 0 1 -2.07497,15.76102 L 48,48 z" />
          </g>
        </g>
      </g>
      <g
         style="display:inline"
         id="layer4">
        <path
           style="color:#000000;fill:url(#linearGradient3967);fill-opacity:1;stroke:none;stroke-width:6;marker:none;visibility:visible;display:inline;overflow:visible;enable-background:accumulate"
           id="path3174"
           inkscape:connector-curvature="0"
           d="m 48,16 c -2.216,0 -4,1.784 -4,4 L 44,41.0625 25.75,30.53125 C 23.830888,29.42325 21.389251,30.080887 20.28125,32 c -1.108,1.919112 -0.450363,4.360749 1.46875,5.46875 L 40,48 21.75,58.53125 c -1.919113,1.108 -2.57675,3.549637 -1.46875,5.46875 1.108,1.919112 3.549637,2.576751 5.46875,1.46875 L 44,54.9375 44,76 c 0,2.216 1.784,4 4,4 2.216,0 4,-1.784 4,-4 l 0,-21.0625 18.25,10.53125 c 1.919112,1.108 4.36075,0.450362 5.46875,-1.46875 1.108,-1.919112 0.450363,-4.360749 -1.46875,-5.46875 L 56,48 74.25,37.46875 C 76.169112,36.36075 76.82675,33.919112 75.71875,32 74.61075,30.080888 72.169113,29.42325 70.25,30.53125 L 52,41.0625 52,20 c 0,-2.216 -1.783999,-4 -4,-4 z" />
        <path
           style="opacity:0.2;color:#000000;fill:#000000;fill-opacity:1;stroke:none;stroke-width:6;marker:none;visibility:visible;display:inline;overflow:visible;enable-background:accumulate"
           id="path3987"
           inkscape:connector-curvature="0"
           d="m 48,16 c -2.216,0 -4,1.784 -4,4 L 44,41.0625 25.75,30.53125 C 23.830888,29.42325 21.389251,30.080887 20.28125,32 c -1.108,1.919112 -0.450363,4.360749 1.46875,5.46875 L 40,48 21.75,58.53125 c -1.919113,1.108 -2.57675,3.549637 -1.46875,5.46875 1.108,1.919112 3.549637,2.576751 5.46875,1.46875 L 44,54.9375 44,76 c 0,2.216 1.784,4 4,4 2.216,0 4,-1.784 4,-4 l 0,-21.0625 18.25,10.53125 c 1.919112,1.108 4.36075,0.450362 5.46875,-1.46875 1.108,-1.919112 0.450363,-4.360749 -1.46875,-5.46875 L 56,48 74.25,37.46875 C 76.169112,36.36075 76.82675,33.919112 75.71875,32 74.61075,30.080888 72.169113,29.42325 70.25,30.53125 L 52,41.0625 52,20 c 0,-2.216 -1.783999,-4 -4,-4 z m 0,1 c 1.679174,0 3,1.320827 3,3 l 0,21.0625 a 1.0003322,1.0003322 0 0 0 1.5,0.875 L 70.75,31.40625 c 1.452552,-0.838631 3.25442,-0.360013 4.09375,1.09375 0.838631,1.452551 0.360012,3.25442 -1.09375,4.09375 L 55.5,47.125 a 1.0003322,1.0003322 0 0 0 0,1.75 l 18.25,10.53125 c 1.453764,0.839331 1.932381,2.641199 1.09375,4.09375 -0.83933,1.453762 -2.641199,1.932381 -4.09375,1.09375 L 52.5,54.0625 A 1.0003322,1.0003322 0 0 0 51,54.9375 L 51,76 c 0,1.679173 -1.320827,3 -3,3 -1.679173,0 -3,-1.320827 -3,-3 l 0,-21.0625 a 1.0003322,1.0003322 0 0 0 -1.5,-0.875 L 25.25,64.59375 C 23.797448,65.432382 21.99558,64.953763 21.15625,63.5 20.317619,62.047448 20.796236,60.24558 22.25,59.40625 L 40.5,48.875 a 1.0003322,1.0003322 0 0 0 0,-1.75 L 22.25,36.59375 C 20.796236,35.754419 20.317619,33.952551 21.15625,32.5 21.995581,31.046236 23.797449,30.567619 25.25,31.40625 L 43.5,41.9375 A 1.0003322,1.0003322 0 0 0 45,41.0625 L 45,20 c 0,-1.679173 1.320827,-3 3,-3 z" />
        <path
           style="opacity:0.05;color:#000000;fill:#000000;fill-opacity:1;stroke:none;stroke-width:6;marker:none;visibility:visible;display:inline;overflow:visible;enable-background:accumulate"
           id="path3994"
           inkscape:connector-curvature="0"
           d="m 48,16 c -2.216,0 -4,1.784 -4,4 L 44,41.0625 25.75,30.53125 C 23.830888,29.42325 21.389251,30.080887 20.28125,32 c -1.108,1.919112 -0.450363,4.360749 1.46875,5.46875 L 40,48 21.75,58.53125 c -1.919113,1.108 -2.57675,3.549637 -1.46875,5.46875 1.108,1.919112 3.549637,2.576751 5.46875,1.46875 L 44,54.9375 44,76 c 0,2.216 1.784,4 4,4 2.216,0 4,-1.784 4,-4 l 0,-21.0625 18.25,10.53125 c 1.919112,1.108 4.36075,0.450362 5.46875,-1.46875 1.108,-1.919112 0.450363,-4.360749 -1.46875,-5.46875 L 56,48 74.25,37.46875 C 76.169112,36.36075 76.82675,33.919112 75.71875,32 74.61075,30.080888 72.169113,29.42325 70.25,30.53125 L 52,41.0625 52,20 c 0,-2.216 -1.783999,-4 -4,-4 z m 0,2 c 1.142347,0 2,0.857654 2,2 l 0,21.0625 a 2.0006645,2.0006645 0 0 0 3,1.71875 L 71.25,32.25 c 0.985992,-0.569262 2.179339,-0.238413 2.75,0.75 0.569262,0.98599 0.238413,2.17934 -0.75,2.75 L 55,46.28125 a 2.0006645,2.0006645 0 0 0 0,3.4375 L 73.25,60.25 c 0.988415,0.570662 1.319262,1.764009 0.75,2.75 -0.57066,0.988413 -1.76401,1.319262 -2.75,0.75 L 53,53.21875 A 2.0006645,2.0006645 0 0 0 50,54.9375 L 50,76 c 0,1.142345 -0.857655,2 -2,2 -1.142345,0 -2,-0.857655 -2,-2 L 46,54.9375 A 2.0006645,2.0006645 0 0 0 43,53.21875 L 24.75,63.75 C 23.764009,64.319263 22.570661,63.988414 22,63 21.430737,62.014008 21.761586,60.820661 22.75,60.25 L 41,49.71875 a 2.0006645,2.0006645 0 0 0 0,-3.4375 L 22.75,35.75 C 21.761585,35.179338 21.430738,33.985991 22,33 c 0.570662,-0.988415 1.764009,-1.319262 2.75,-0.75 L 43,42.78125 A 2.0006645,2.0006645 0 0 0 46,41.0625 L 46,20 c 0,-1.142345 0.857655,-2 2,-2 z" />
        <path
           style="opacity:0.6;color:#000000;fill:#000000;fill-opacity:1;stroke:none;stroke-width:6;marker:none;visibility:visible;display:inline;overflow:visible;enable-background:accumulate"
           id="path3969"
           inkscape:connector-curvature="0"
           d="m 48,16 c -2.216,0 -4,1.784 -4,4 l 0,1 c 0,-2.216 1.784,-4 4,-4 2.216001,0 4,1.784 4,4 l 0,-1 c 0,-2.216 -1.783999,-4 -4,-4 z M 23.46875,30 c -1.281239,0.09083 -2.494999,0.800554 -3.1875,2 -0.45574,0.789364 -0.606605,1.662997 -0.5,2.5 0.06417,-0.516091 0.223,-1.020222 0.5,-1.5 1.108001,-1.919113 3.549638,-2.57675 5.46875,-1.46875 L 44,42.0625 l 0,-1 L 25.75,30.53125 C 25.030333,30.11575 24.237494,29.945501 23.46875,30 z m 49.0625,0 C 71.762506,29.9455 70.969667,30.11575 70.25,30.53125 L 52,41.0625 l 0,1 18.25,-10.53125 c 1.919113,-1.108 4.36075,-0.450362 5.46875,1.46875 0.277,0.479778 0.435827,0.983909 0.5,1.5 0.106605,-0.837003 -0.04426,-1.710636 -0.5,-2.5 -0.6925,-1.199445 -1.90626,-1.909168 -3.1875,-2 z M 39.125,48.5 21.75,58.53125 c -1.439335,0.831 -2.161269,2.420476 -1.96875,3.96875 0.152575,-1.197928 0.839002,-2.31649 1.96875,-2.96875 L 40,49 39.125,48.5 z m 17.75,0 L 56,49 74.25,59.53125 C 75.379748,60.183511 76.066175,61.302072 76.21875,62.5 76.411269,60.951727 75.689335,59.362251 74.25,58.53125 L 56.875,48.5 z" />
        <path
           style="opacity:0.6;color:#000000;fill:#ffffff;fill-opacity:1;stroke:none;stroke-width:6;marker:none;visibility:visible;display:inline;overflow:visible;enable-background:accumulate"
           id="path3978"
           inkscape:connector-curvature="0"
           d="m 19.78125,34.5 c -0.192519,1.548273 0.529415,3.137749 1.96875,3.96875 L 39.125,48.5 40,48 21.75,37.46875 C 20.620252,36.816489 19.933825,35.697928 19.78125,34.5 z m 56.4375,0 C 76.066175,35.697928 75.379748,36.81649 74.25,37.46875 L 56,48 56.875,48.5 74.25,38.46875 c 1.439334,-0.831 2.161268,-2.420476 1.96875,-3.96875 z M 44,54.9375 25.75,65.46875 C 23.830887,66.576751 21.38925,65.919112 20.28125,64 c -0.277,-0.479778 -0.435827,-0.983909 -0.5,-1.5 -0.106605,0.837003 0.04426,1.710635 0.5,2.5 1.108,1.919112 3.549637,2.576751 5.46875,1.46875 L 44,55.9375 l 0,-1 z m 8,0 0,1 18.25,10.53125 c 1.919112,1.108 4.36075,0.450362 5.46875,-1.46875 0.45574,-0.789364 0.606605,-1.662997 0.5,-2.5 -0.06417,0.516091 -0.223,1.020222 -0.5,1.5 -1.108,1.919112 -3.549638,2.57675 -5.46875,1.46875 L 52,54.9375 z M 44,76 l 0,1 c 0,2.216 1.784,4 4,4 2.216,0 4,-1.784 4,-4 l 0,-1 c 0,2.216 -1.784,4 -4,4 -2.216,0 -4,-1.784 -4,-4 z" />
      </g>
    </g>
    <rect
       ry="25"
       rx="25"
       id="rect3003"
       style="opacity:0.15;fill:#ffffff;fill-opacity:1"
       height="92"
       width="92"
       y="958.36218"
       x="-96"
       clip-path="url(#clipPath3009)"
       transform="translate(98,3.8281269e-7)" />
  </g>
</svg>
