<?xml version="1.0" encoding="UTF-8" standalone="no"?>
<!-- Created with Inkscape (http://www.inkscape.org/) -->

<svg
   xmlns:dc="http://purl.org/dc/elements/1.1/"
   xmlns:cc="http://creativecommons.org/ns#"
   xmlns:rdf="http://www.w3.org/1999/02/22-rdf-syntax-ns#"
   xmlns:svg="http://www.w3.org/2000/svg"
   xmlns="http://www.w3.org/2000/svg"
   xmlns:xlink="http://www.w3.org/1999/xlink"
   xmlns:sodipodi="http://sodipodi.sourceforge.net/DTD/sodipodi-0.dtd"
   xmlns:inkscape="http://www.inkscape.org/namespaces/inkscape"
   width="96"
   height="96"
   id="svg11037"
   version="1.1"
   inkscape:version="0.48.3.1 r9886"
   sodipodi:docname="gnome-tetravex.svg">
  <defs
     id="defs11039">
    <linearGradient
       y2="1046.1001"
       x2="47.999954"
       y1="962.62189"
       x1="47.999954"
       gradientTransform="matrix(1.15,0,0,1.15,-7.1999462,-150.65291)"
       gradientUnits="userSpaceOnUse"
       id="linearGradient3886"
       xlink:href="#linearGradient3795"
       inkscape:collect="always" />
    <linearGradient
       id="linearGradient3795">
      <stop
         style="stop-color:#13a6fd;stop-opacity:1;"
         offset="0"
         id="stop3797" />
      <stop
         style="stop-color:#2975b6;stop-opacity:1;"
         offset="1"
         id="stop3799" />
    </linearGradient>
    <linearGradient
       y2="1046.1001"
       x2="47.999954"
       y1="962.62189"
       x1="47.999954"
       gradientTransform="matrix(1.15,0,0,1.15,-7.1999462,-150.65292)"
       gradientUnits="userSpaceOnUse"
       id="linearGradient11642"
       xlink:href="#ButtonShadow"
       inkscape:collect="always" />
    <linearGradient
       x1="57"
       y1="91"
       x2="57"
       y2="6.9761939"
       id="linearGradient3696"
       xlink:href="#ButtonShadow"
       gradientUnits="userSpaceOnUse" />
    <linearGradient
       x1="45.447727"
       y1="92.539597"
       x2="45.447727"
       y2="7.0165396"
       id="ButtonShadow"
       gradientUnits="userSpaceOnUse"
       gradientTransform="scale(1.0058652,0.994169)">
      <stop
         id="stop3750"
         style="stop-color:#000000;stop-opacity:1"
         offset="0" />
      <stop
         id="stop3752"
         style="stop-color:#000000;stop-opacity:0.58823532"
         offset="1" />
    </linearGradient>
    <linearGradient
       x1="39"
       y1="6"
       x2="39"
       y2="43.215588"
       id="linearGradient3833"
       xlink:href="#linearGradient3927"
       gradientUnits="userSpaceOnUse" />
    <linearGradient
       id="linearGradient3927">
      <stop
         id="stop3929"
         style="stop-color:#5a9eeb;stop-opacity:1"
         offset="0" />
      <stop
         id="stop3933"
         style="stop-color:#145aaa;stop-opacity:1"
         offset="1" />
    </linearGradient>
    <linearGradient
       x1="7"
       y1="9.8934088"
       x2="7"
       y2="85"
       id="linearGradient3835"
       xlink:href="#linearGradient3957"
       gradientUnits="userSpaceOnUse" />
    <linearGradient
       id="linearGradient3957">
      <stop
         id="stop3959"
         style="stop-color:#ed5114;stop-opacity:1"
         offset="0" />
      <stop
         id="stop3963"
         style="stop-color:#c21313;stop-opacity:1"
         offset="1" />
    </linearGradient>
    <linearGradient
       x1="91"
       y1="10"
       x2="91"
       y2="86"
       id="linearGradient3837"
       xlink:href="#linearGradient4035"
       gradientUnits="userSpaceOnUse" />
    <linearGradient
       id="linearGradient4035">
      <stop
         id="stop4037"
         style="stop-color:#93d928;stop-opacity:1"
         offset="0" />
      <stop
         id="stop4041"
         style="stop-color:#2f9e1c;stop-opacity:1"
         offset="1" />
    </linearGradient>
    <linearGradient
       x1="48"
       y1="90"
       x2="48"
       y2="56"
       id="linearGradient3989"
       xlink:href="#linearGradient3991"
       gradientUnits="userSpaceOnUse" />
    <linearGradient
       id="linearGradient3991">
      <stop
         id="stop3993"
         style="stop-color:#803293;stop-opacity:1"
         offset="0" />
      <stop
         id="stop3995"
         style="stop-color:#c077d2;stop-opacity:1"
         offset="1" />
    </linearGradient>
    <linearGradient
       x1="48"
       y1="8"
       x2="48"
       y2="72"
       id="linearGradient3753"
       xlink:href="#linearGradient3737"
       gradientUnits="userSpaceOnUse" />
    <linearGradient
       id="linearGradient3737">
      <stop
         id="stop3739"
         style="stop-color:#ffffff;stop-opacity:1"
         offset="0" />
      <stop
         id="stop3741"
         style="stop-color:#ffffff;stop-opacity:0"
         offset="1" />
    </linearGradient>
    <radialGradient
       cx="48"
       cy="90.171875"
       r="42"
       fx="48"
       fy="90.171875"
       id="radialGradient3764"
       xlink:href="#linearGradient3737"
       gradientUnits="userSpaceOnUse"
       gradientTransform="matrix(1.1573129,0,0,0.99590774,-7.55102,0.19713193)" />
    <linearGradient
       id="linearGradient3151">
      <stop
         id="stop3153"
         style="stop-color:#ffffff;stop-opacity:1"
         offset="0" />
      <stop
         id="stop3155"
         style="stop-color:#ffffff;stop-opacity:0"
         offset="1" />
    </linearGradient>
    <linearGradient
       x1="48"
       y1="20.220806"
       x2="48"
       y2="138.66119"
       id="linearGradient3613"
       xlink:href="#linearGradient3737"
       gradientUnits="userSpaceOnUse" />
    <linearGradient
       id="linearGradient3158">
      <stop
         id="stop3160"
         style="stop-color:#ffffff;stop-opacity:1"
         offset="0" />
      <stop
         id="stop3162"
         style="stop-color:#ffffff;stop-opacity:0"
         offset="1" />
    </linearGradient>
    <clipPath
       id="clipPath3613">
      <rect
         width="84"
         height="84"
         rx="6"
         ry="6"
         x="6"
         y="6"
         id="rect3615"
         style="fill:#ffffff;fill-opacity:1;fill-rule:nonzero;stroke:none" />
    </clipPath>
    <filter
       x="-0.192"
       y="-0.192"
       width="1.3839999"
       height="1.3839999"
       color-interpolation-filters="sRGB"
       id="filter3794">
      <feGaussianBlur
         id="feGaussianBlur3796"
         stdDeviation="5.28" />
    </filter>
    <clipPath
       clipPathUnits="userSpaceOnUse"
       id="clipPath3890">
      <rect
         x="5.5384617"
         y="6.0769224"
         width="84.92308"
         height="84.92308"
         style="fill:url(#linearGradient3894);fill-opacity:1"
         id="rect3892"
         rx="23.076923"
         ry="23.076923" />
    </clipPath>
    <linearGradient
       inkscape:collect="always"
       xlink:href="#ButtonShadow"
       id="linearGradient3894"
       gradientUnits="userSpaceOnUse"
       gradientTransform="matrix(1.0615385,0,0,1.0615385,-2.9537968,-1017.6294)"
       x1="47.999954"
       y1="962.62189"
       x2="47.999954"
       y2="1046.1001" />
    <clipPath
       clipPathUnits="userSpaceOnUse"
       id="clipPath3009">
      <path
         id="path3011"
         d="m -2,956.36218 -96,0 0,33.5624 96,25.68742 0,-59.24982 z"
         style="opacity:0.15;fill:#ffffff;fill-opacity:1;stroke:none"
         inkscape:connector-curvature="0" />
    </clipPath>
  </defs>
  <sodipodi:namedview
     id="base"
     pagecolor="#ffffff"
     bordercolor="#666666"
     borderopacity="1.0"
     inkscape:pageopacity="0.0"
     inkscape:pageshadow="2"
     inkscape:zoom="3.959798"
     inkscape:cx="37.957448"
     inkscape:cy="59.964634"
     inkscape:document-units="px"
     inkscape:current-layer="layer1"
     showgrid="false"
     inkscape:window-width="1280"
     inkscape:window-height="750"
     inkscape:window-x="0"
     inkscape:window-y="22"
     inkscape:window-maximized="1"
     showguides="true"
     inkscape:guide-bbox="true">
    <sodipodi:guide
       orientation="0,1"
       position="-24.748737,0"
       id="guide11064" />
    <sodipodi:guide
       orientation="0,1"
       position="-23.233509,96"
       id="guide11066" />
    <sodipodi:guide
       orientation="1,0"
       position="0,54.800776"
       id="guide11068" />
    <sodipodi:guide
       orientation="1,0"
       position="96,51.012704"
       id="guide11070" />
    <sodipodi:guide
       orientation="0,1"
       position="-18.94036,48"
       id="guide11072" />
    <sodipodi:guide
       orientation="1,0"
       position="48,79.296975"
       id="guide11074" />
    <sodipodi:guide
       orientation="1,0"
       position="2,75.508903"
       id="guide11076" />
    <sodipodi:guide
       orientation="0,1"
       position="-77.27667,2"
       id="guide11078" />
    <sodipodi:guide
       orientation="1,0"
       position="94,77.781746"
       id="guide11080" />
    <sodipodi:guide
       orientation="0,1"
       position="-65.912454,94"
       id="guide11082" />
  </sodipodi:namedview>
  <metadata
     id="metadata11042">
    <rdf:RDF>
      <cc:Work
         rdf:about="">
        <dc:format>image/svg+xml</dc:format>
        <dc:type
           rdf:resource="http://purl.org/dc/dcmitype/StillImage" />
        <dc:title />
      </cc:Work>
    </rdf:RDF>
  </metadata>
  <g
     inkscape:label="Layer 1"
     inkscape:groupmode="layer"
     id="layer1"
     transform="translate(0,-956.36218)">
    <g
       transform="matrix(1.0833333,0,0,1.0833333,-3.9999998,951.77885)"
       id="g3092"
       clip-path="url(#clipPath3890)">
      <g
         id="g3069">
        <path
           d="M 12,7 C 11.39818,7 10.828551,7.1178465 10.28125,7.28125 L 48,45 85.71875,7.28125 C 85.171449,7.1178465 84.60182,7 84,7 L 12,7 z M 6.28125,11.28125 C 6.1178465,11.828551 6,12.39818 6,13 l 0,72 c 0,0.60182 0.1178465,1.171449 0.28125,1.71875 L 44,49 6.28125,11.28125 z m 83.4375,0 L 52,49 89.71875,86.71875 C 89.882154,86.171449 90,85.60182 90,85 l 0,-72 c 0,-0.60182 -0.117846,-1.171449 -0.28125,-1.71875 z M 48,53 10.28125,90.71875 C 10.828551,90.882154 11.39818,91 12,91 l 72,0 c 0.60182,0 1.171449,-0.117846 1.71875,-0.28125 L 48,53 z"
           inkscape:connector-curvature="0"
           id="rect3683"
           style="opacity:0.45;fill:url(#linearGradient3696);fill-opacity:1;fill-rule:nonzero;stroke:none" />
      </g>
      <g
         style="display:inline"
         id="layer1-2">
        <path
           style="fill:url(#linearGradient3833);fill-opacity:1;fill-rule:nonzero;stroke:none"
           id="path3831"
           inkscape:connector-curvature="0"
           d="M 12,6 C 11.39818,6 10.828551,6.1178465 10.28125,6.28125 L 48,44 85.71875,6.28125 C 85.171449,6.1178465 84.60182,6 84,6 L 12,6 z" />
        <path
           style="fill:url(#linearGradient3835);fill-opacity:1;fill-rule:nonzero;stroke:none"
           id="path3829"
           inkscape:connector-curvature="0"
           d="M 6.28125,10.28125 C 6.1178465,10.828551 6,11.39818 6,12 l 0,72 c 0,0.60182 0.1178465,1.171449 0.28125,1.71875 L 44,48 6.28125,10.28125 z" />
        <path
           style="fill:url(#linearGradient3837);fill-opacity:1;fill-rule:nonzero;stroke:none"
           id="path3827"
           inkscape:connector-curvature="0"
           d="M 89.71875,10.28125 52,48 89.71875,85.71875 C 89.882154,85.171449 90,84.60182 90,84 l 0,-72 c 0,-0.60182 -0.117846,-1.171449 -0.28125,-1.71875 z" />
        <path
           style="fill:url(#linearGradient3989);fill-opacity:1;fill-rule:nonzero;stroke:none"
           id="rect2419"
           inkscape:connector-curvature="0"
           d="M 48,52 10.28125,89.71875 C 10.828551,89.882154 11.39818,90 12,90 l 72,0 c 0.60182,0 1.171449,-0.117846 1.71875,-0.28125 L 48,52 z" />
        <path
           style="opacity:0.4;fill:url(#linearGradient3753);fill-opacity:1;fill-rule:nonzero;stroke:none"
           id="path3740"
           inkscape:connector-curvature="0"
           d="M 12,6 C 11.39818,6 10.828551,6.1178465 10.28125,6.28125 L 48,44 85.71875,6.28125 C 85.171449,6.1178465 84.60182,6 84,6 L 12,6 z m 0.65625,2.09375 70.6875,0 L 48,43.4375 12.65625,8.09375 z m -6.375,2.1875 C 6.1178465,10.828551 6,11.39818 6,12 l 0,72 c 0,0.60182 0.1178465,1.171449 0.28125,1.71875 L 44,48 6.28125,10.28125 z m 83.4375,0 L 52,48 89.71875,85.71875 C 89.882154,85.171449 90,84.60182 90,84 l 0,-72 c 0,-0.60182 -0.117846,-1.171449 -0.28125,-1.71875 z m -82.625,3.375 L 42.4375,49 7.09375,84.34375 l 0,-70.6875 z m 81.8125,0 0,70.6875 L 53.5625,49 88.90625,13.65625 z M 48,52 10.28125,89.71875 C 10.828551,89.882154 11.39818,90 12,90 l 72,0 c 0.60182,0 1.171449,-0.117846 1.71875,-0.28125 L 48,52 z m 0,2.5625 35.34375,35.34375 -70.6875,0 L 48,54.5625 z" />
        <path
           style="opacity:0.2;fill:url(#radialGradient3764);fill-opacity:1;fill-rule:nonzero;stroke:none"
           id="path3755"
           inkscape:connector-curvature="0"
           d="M 6.28125,10.28125 C 6.19955,10.5549 6.143637,10.838953 6.09375,11.125 6.043863,11.411047 6,11.69909 6,12 l 0,2 0,68 0,2 c 0,0.60182 0.117847,1.171449 0.28125,1.71875 L 7.3125,84.6875 C 7.124928,84.15926 7,83.596349 7,83 L 7,81 7,13 7,11 6.28125,10.28125 z m 83.4375,0 L 89,11 l 0,2 0,68 0,2 c 0,0.596349 -0.124928,1.15926 -0.3125,1.6875 l 1.03125,1.03125 C 89.882154,85.171449 90,84.60182 90,84 l 0,-2 0,-68 0,-2 c 0,-0.30091 -0.04386,-0.588953 -0.09375,-0.875 -0.04989,-0.286047 -0.105798,-0.570099 -0.1875,-0.84375 z M 12,88 10.28125,89.71875 C 10.828551,89.882154 11.39818,90 12,90 l 72,0 c 0.60182,0 1.171449,-0.117846 1.71875,-0.28125 L 84,88 l -2,0 -68,0 -2,0 z" />
      </g>
      <g
         id="layer5">
        <rect
           style="opacity:0.1;fill:url(#linearGradient3613);fill-opacity:1;fill-rule:nonzero;stroke:#ffffff;stroke-width:0.5;stroke-linecap:round;stroke-linejoin:miter;stroke-miterlimit:4;stroke-opacity:1;stroke-dasharray:none;stroke-dashoffset:0;filter:url(#filter3794)"
           id="rect3171"
           clip-path="url(#clipPath3613)"
           y="15"
           x="15"
           ry="12"
           rx="12"
           height="66"
           width="66" />
      </g>
      <g
         id="layer4">
        <g
           style="font-size:24px;font-style:normal;font-variant:normal;font-weight:bold;font-stretch:normal;text-align:center;line-height:125%;writing-mode:lr-tb;text-anchor:middle;fill:#ffffff;fill-opacity:1;stroke:none;font-family:Liberation Sans;-inkscape-font-specification:Abandoned Bitplane Bold"
           id="text3852">
          <path
             id="path3878"
             inkscape:connector-curvature="0"
             d="m 14.222656,56.378906 0,-2.285156 c 0.374999,-0.820309 0.83203,-1.55859 1.371094,-2.214844 0.53906,-0.664057 1.101559,-1.269525 1.6875,-1.816406 0.593746,-0.554681 1.179682,-1.066399 1.757812,-1.535156 0.585932,-0.476554 1.109369,-0.933585 1.570313,-1.371094 0.468742,-0.445303 0.847648,-0.890615 1.136719,-1.335938 0.289054,-0.445301 0.433585,-0.917957 0.433593,-1.417968 -8e-6,-0.734363 -0.183602,-1.277331 -0.550781,-1.628907 -0.367195,-0.351548 -0.906257,-0.527329 -1.617187,-0.527343 -0.703131,1.4e-5 -1.242193,0.19142 -1.617188,0.574218 -0.367192,0.375014 -0.605473,0.941419 -0.714844,1.699219 l -3.316406,-0.1875 c 0.07812,-0.648425 0.23828,-1.257799 0.480469,-1.828125 0.242186,-0.570298 0.585935,-1.070297 1.03125,-1.5 0.453122,-0.429671 1.015621,-0.765609 1.6875,-1.007812 0.679683,-0.249984 1.488276,-0.374983 2.425781,-0.375 0.890618,1.7e-5 1.679679,0.105485 2.367188,0.316406 0.68749,0.203141 1.265615,0.503922 1.734375,0.902344 0.468739,0.398452 0.824207,0.886733 1.066406,1.464843 0.242175,0.570327 0.363269,1.22267 0.363281,1.957032 -1.2e-5,0.773449 -0.152355,1.472667 -0.457031,2.097656 -0.304699,0.625009 -0.695323,1.203134 -1.171875,1.734375 -0.476573,0.523445 -1.007822,1.015632 -1.59375,1.476562 -0.578133,0.460944 -1.140633,0.910163 -1.6875,1.347657 -0.546882,0.437505 -1.046881,0.878911 -1.5,1.324218 -0.445318,0.445317 -0.777349,0.921879 -0.996094,1.429688 l 7.664063,0 0,2.707031 -11.554688,0" />
        </g>
        <g
           style="font-size:24px;font-style:normal;font-variant:normal;font-weight:bold;font-stretch:normal;text-align:center;line-height:125%;writing-mode:lr-tb;text-anchor:middle;fill:#ffffff;fill-opacity:1;stroke:none;font-family:Liberation Sans;-inkscape-font-specification:Abandoned Bitplane Bold"
           id="text3856">
          <path
             id="path3872"
             inkscape:connector-curvature="0"
             d="m 81.970703,50.882812 c -1.3e-5,0.82813 -0.132825,1.593754 -0.398437,2.296875 -0.257825,0.695316 -0.644543,1.300784 -1.160157,1.816407 -0.515635,0.507813 -1.15626,0.90625 -1.921875,1.195312 -0.757821,0.28125 -1.636726,0.421875 -2.636718,0.421875 -0.921881,0 -1.726568,-0.109375 -2.414063,-0.328125 -0.687503,-0.226562 -1.269534,-0.535155 -1.746094,-0.925781 -0.468752,-0.398436 -0.839845,-0.863279 -1.113281,-1.394531 -0.265626,-0.531247 -0.449219,-1.101559 -0.550781,-1.710938 l 3.292969,-0.269531 c 0.0625,0.257817 0.148433,0.507816 0.257812,0.75 0.117183,0.242191 0.277339,0.457034 0.480469,0.644531 0.20312,0.187503 0.45312,0.339847 0.75,0.457031 0.296869,0.109378 0.656244,0.164065 1.078125,0.164063 0.820305,2e-6 1.472648,-0.261716 1.957031,-0.785156 0.492179,-0.523434 0.738272,-1.27734 0.738281,-2.261719 -9e-6,-0.437494 -0.06251,-0.832025 -0.1875,-1.183594 -0.117196,-0.351555 -0.289071,-0.652336 -0.515625,-0.902344 -0.218758,-0.249992 -0.492195,-0.441398 -0.820312,-0.574218 -0.32032,-0.132805 -0.687507,-0.199211 -1.101563,-0.199219 -0.546881,8e-6 -0.996099,0.105477 -1.347656,0.316406 -0.351567,0.203133 -0.648442,0.453133 -0.890625,0.75 l -3.210937,0 0.574218,-9.292969 9.925782,0 0,2.449219 -6.9375,0 -0.269532,4.171875 c 0.328121,-0.289052 0.742183,-0.535146 1.242188,-0.738281 0.499994,-0.210927 1.082024,-0.316395 1.746094,-0.316406 0.812491,1.1e-5 1.539053,0.132823 2.179687,0.398437 0.640615,0.265636 1.183583,0.636729 1.628906,1.113281 0.445301,0.476572 0.785145,1.05079 1.019532,1.722657 0.234362,0.664069 0.351549,1.40235 0.351562,2.214843" />
        </g>
        <g
           style="font-size:24px;font-style:normal;font-variant:normal;font-weight:bold;font-stretch:normal;text-align:center;line-height:125%;writing-mode:lr-tb;text-anchor:middle;fill:#ffffff;fill-opacity:1;stroke:none;font-family:Liberation Sans;-inkscape-font-specification:Abandoned Bitplane Bold"
           id="text3860">
          <path
             id="path3875"
             inkscape:connector-curvature="0"
             d="m 53.871094,24.976562 c -1.3e-5,0.82813 -0.1172,1.589848 -0.351563,2.285157 -0.234387,0.687502 -0.585949,1.281252 -1.054687,1.78125 -0.460948,0.492188 -1.039073,0.878906 -1.734375,1.160156 -0.695321,0.273437 -1.500008,0.410156 -2.414063,0.410156 -1.945317,0 -3.441409,-0.679687 -4.488281,-2.039062 -1.039064,-1.367185 -1.558595,-3.39062 -1.558594,-6.070313 -10e-7,-2.945301 0.527343,-5.160143 1.582031,-6.644531 1.062497,-1.492171 2.57812,-2.238264 4.546875,-2.238281 0.656243,1.7e-5 1.253898,0.07033 1.792969,0.210937 0.539053,0.132829 1.019522,0.351579 1.441406,0.65625 0.421865,0.304703 0.781239,0.699234 1.078125,1.183594 0.296864,0.476577 0.535145,1.058607 0.714844,1.746094 l -3.105469,0.433593 c -0.156258,-0.578111 -0.410164,-0.992173 -0.761718,-1.242187 -0.351571,-0.257798 -0.761726,-0.386705 -1.230469,-0.386719 -0.882819,1.4e-5 -1.57813,0.44142 -2.085938,1.324219 -0.500004,0.882824 -0.750004,2.222667 -0.75,4.019531 0.351559,-0.585928 0.839839,-1.035146 1.464844,-1.347656 0.624994,-0.31249 1.332025,-0.468739 2.121094,-0.46875 0.726554,1.1e-5 1.382803,0.121104 1.96875,0.363281 0.59374,0.234385 1.097645,0.578135 1.511719,1.03125 0.421863,0.445322 0.746082,0.992196 0.972656,1.640625 0.22655,0.648445 0.339831,1.378913 0.339844,2.191406 m -3.304688,0.09375 c -9e-6,-0.445306 -0.05079,-0.843743 -0.152344,-1.195312 -0.101571,-0.359368 -0.257821,-0.664055 -0.46875,-0.914063 -0.203133,-0.249992 -0.457039,-0.441398 -0.761718,-0.574218 -0.304695,-0.140617 -0.656257,-0.21093 -1.054688,-0.210938 -0.289069,8e-6 -0.578131,0.04688 -0.867187,0.140625 -0.289068,0.09376 -0.546881,0.246102 -0.773438,0.457031 -0.226567,0.203133 -0.410161,0.464851 -0.550781,0.785157 -0.140629,0.320319 -0.210942,0.707037 -0.210938,1.160156 -4e-6,0.468755 0.05859,0.906255 0.175782,1.3125 0.117183,0.406254 0.281245,0.761722 0.492187,1.066406 0.218745,0.296878 0.480464,0.531253 0.785156,0.703125 0.304682,0.164065 0.648432,0.246096 1.03125,0.246094 0.74218,2e-6 1.320305,-0.261716 1.734375,-0.785156 0.414054,-0.531247 0.621085,-1.261715 0.621094,-2.191407" />
        </g>
        <g
           style="font-size:24px;font-style:normal;font-variant:normal;font-weight:bold;font-stretch:normal;text-align:center;line-height:125%;writing-mode:lr-tb;text-anchor:middle;fill:#ffffff;fill-opacity:1;stroke:none;font-family:Liberation Sans;-inkscape-font-specification:Abandoned Bitplane Bold"
           id="text3864">
          <path
             id="path3869"
             inkscape:connector-curvature="0"
             d="m 53.683594,68.363281 c -0.742199,1.171888 -1.445324,2.308606 -2.109375,3.410156 -0.65626,1.101572 -1.230478,2.210946 -1.722657,3.328125 -0.492195,1.109382 -0.88282,2.253912 -1.171875,3.433594 -0.281257,1.171878 -0.421881,2.414064 -0.421875,3.726563 l -3.433593,0 c -4e-6,-1.304686 0.15234,-2.542966 0.457031,-3.714844 0.312496,-1.179683 0.73437,-2.328119 1.265625,-3.445313 0.531244,-1.117179 1.148431,-2.21874 1.851562,-3.304687 0.703118,-1.093738 1.445305,-2.207019 2.226563,-3.339844 l -8.203125,0 0,-2.707031 11.261719,0 0,2.613281" />
        </g>
        <path
           style="font-size:24px;font-style:normal;font-variant:normal;font-weight:bold;font-stretch:normal;text-align:center;line-height:125%;writing-mode:lr-tb;text-anchor:middle;opacity:0.4;fill:#000000;fill-opacity:1;stroke:none;font-family:Liberation Sans;-inkscape-font-specification:Abandoned Bitplane Bold"
           id="path3882"
           inkscape:connector-curvature="0"
           d="m 48.40625,12.625 c -1.968755,1.7e-5 -3.500003,0.757829 -4.5625,2.25 -1.054688,1.484388 -1.562501,3.679699 -1.5625,6.625 0,0.134207 0.02877,0.244122 0.03125,0.375 0.06942,-2.62656 0.55416,-4.624824 1.53125,-6 1.062497,-1.492171 2.593745,-2.249983 4.5625,-2.25 0.656243,1.7e-5 1.242179,0.07814 1.78125,0.21875 0.539053,0.132829 1.015616,0.351579 1.4375,0.65625 0.421865,0.304703 0.796864,0.70314 1.09375,1.1875 0.143758,0.230786 0.289023,0.47637 0.40625,0.75 l 0.3125,-0.03125 c -0.179699,-0.687487 -0.421886,-1.273423 -0.71875,-1.75 C 52.421864,14.17189 52.046865,13.804703 51.625,13.5 51.203116,13.195329 50.726553,12.976579 50.1875,12.84375 49.648429,12.703143 49.062493,12.625017 48.40625,12.625 z m 0.65625,6.125 c -0.789069,1.1e-5 -1.468756,0.15626 -2.09375,0.46875 -0.611255,0.305635 -1.087628,0.74551 -1.4375,1.3125 C 45.50997,20.863801 45.5,21.191848 45.5,21.5625 c 0.351559,-0.585928 0.843745,-1.03124 1.46875,-1.34375 0.624994,-0.31249 1.304681,-0.468739 2.09375,-0.46875 0.726554,1.1e-5 1.414053,0.132823 2,0.375 0.59374,0.234385 1.085926,0.578135 1.5,1.03125 0.421863,0.445322 0.742176,0.976571 0.96875,1.625 0.17764,0.508451 0.273104,1.079226 0.3125,1.6875 0.0098,-0.167974 0.03125,-0.325882 0.03125,-0.5 -1.3e-5,-0.812493 -0.1172,-1.539055 -0.34375,-2.1875 -0.226574,-0.648429 -0.546887,-1.179678 -0.96875,-1.625 -0.414074,-0.453115 -0.90626,-0.796865 -1.5,-1.03125 -0.585947,-0.242177 -1.273446,-0.374989 -2,-0.375 z m -3.28125,5.5 c -0.02128,0.150992 -0.0625,0.29827 -0.0625,0.46875 -4e-6,0.468755 0.07031,0.906255 0.1875,1.3125 0.117183,0.406254 0.289058,0.757816 0.5,1.0625 0.218745,0.296878 0.476558,0.546878 0.78125,0.71875 0.304682,0.164065 0.648432,0.250002 1.03125,0.25 0.74218,2e-6 1.30468,-0.28906 1.71875,-0.8125 0.414054,-0.531247 0.624991,-1.257808 0.625,-2.1875 -2e-6,-0.122709 -0.02311,-0.229018 -0.03125,-0.34375 -0.07874,0.621461 -0.283209,1.132815 -0.59375,1.53125 -0.41407,0.52344 -0.97657,0.812502 -1.71875,0.8125 -0.382818,2e-6 -0.726568,-0.08593 -1.03125,-0.25 -0.304692,-0.171872 -0.562505,-0.421872 -0.78125,-0.71875 -0.210942,-0.304684 -0.382817,-0.656246 -0.5,-1.0625 -0.0718,-0.248908 -0.09378,-0.508875 -0.125,-0.78125 z M 20,38.625 c -0.937505,1.7e-5 -1.757817,0.125016 -2.4375,0.375 -0.671879,0.242203 -1.234378,0.570329 -1.6875,1 -0.445315,0.429703 -0.789064,0.929702 -1.03125,1.5 -0.242189,0.570326 -0.39063,1.195325 -0.46875,1.84375 l 0.21875,0 c 0.07432,-0.284834 0.137705,-0.579309 0.25,-0.84375 0.242186,-0.570298 0.585935,-1.070297 1.03125,-1.5 0.453122,-0.429671 1.015621,-0.757797 1.6875,-1 0.679683,-0.249984 1.499995,-0.374983 2.4375,-0.375 0.890618,1.7e-5 1.656241,0.101579 2.34375,0.3125 0.68749,0.203141 1.28124,0.507828 1.75,0.90625 0.468739,0.398452 0.820301,0.89064 1.0625,1.46875 0.181631,0.427745 0.295039,0.891729 0.34375,1.40625 0.01405,-0.156664 0.03125,-0.307516 0.03125,-0.46875 -1.2e-5,-0.734362 -0.132825,-1.367173 -0.375,-1.9375 -0.242199,-0.57811 -0.593761,-1.070298 -1.0625,-1.46875 -0.46876,-0.398422 -1.06251,-0.703109 -1.75,-0.90625 C 21.656241,38.726579 20.890618,38.625017 20,38.625 z m 51.09375,0.25 -0.59375,9.28125 0.0625,0 0.53125,-8.28125 9.90625,0 0,-1 -9.90625,0 z M 22.125,43.84375 c -0.06163,0.336081 -0.172106,0.656183 -0.375,0.96875 -0.289071,0.445323 -0.656258,0.898447 -1.125,1.34375 -0.460944,0.437509 -1.007818,0.898446 -1.59375,1.375 -0.57813,0.468757 -1.156254,0.976569 -1.75,1.53125 -0.585941,0.546881 -1.14844,1.148443 -1.6875,1.8125 -0.539064,0.656254 -1.000001,1.398441 -1.375,2.21875 l 0,1 c 0.374999,-0.820309 0.835936,-1.562496 1.375,-2.21875 0.53906,-0.664057 1.101559,-1.265619 1.6875,-1.8125 0.593746,-0.554681 1.17187,-1.062493 1.75,-1.53125 0.585932,-0.476554 1.132806,-0.937491 1.59375,-1.375 0.468742,-0.445303 0.835929,-0.898427 1.125,-1.34375 0.289054,-0.445301 0.437492,-0.906239 0.4375,-1.40625 -2e-6,-0.209492 -0.03125,-0.384614 -0.0625,-0.5625 z m 54.65625,0.59375 c -0.66407,1.1e-5 -1.250006,0.101573 -1.75,0.3125 -0.467254,0.189829 -0.841782,0.4213 -1.15625,0.6875 L 73.8125,46.5 c 0.328121,-0.289052 0.718745,-0.546865 1.21875,-0.75 0.499994,-0.210927 1.08593,-0.312489 1.75,-0.3125 0.812491,1.1e-5 1.546866,0.140636 2.1875,0.40625 0.640615,0.265636 1.179677,0.617198 1.625,1.09375 0.445301,0.476572 0.796863,1.046883 1.03125,1.71875 0.19635,0.556363 0.282423,1.182316 0.3125,1.84375 0.01734,-0.200684 0.03125,-0.417968 0.03125,-0.625 -1.3e-5,-0.812493 -0.109388,-1.554681 -0.34375,-2.21875 -0.234387,-0.671867 -0.585949,-1.242178 -1.03125,-1.71875 -0.445323,-0.476552 -0.984385,-0.828114 -1.625,-1.09375 -0.640634,-0.265614 -1.375009,-0.406239 -2.1875,-0.40625 z m 1.75,6.03125 c -0.07981,0.726699 -0.29063,1.327928 -0.6875,1.75 C 77.359367,52.74219 76.695305,53.000002 75.875,53 c -0.421881,2e-6 -0.765631,-0.04687 -1.0625,-0.15625 C 74.51562,52.726566 74.26562,52.562503 74.0625,52.375 73.85937,52.187503 73.710933,51.992191 73.59375,51.75 73.484371,51.507816 73.375,51.257817 73.3125,51 l -3.28125,0.25 c 0.05628,0.337668 0.140139,0.652934 0.25,0.96875 L 73.3125,52 c 0.0625,0.257817 0.171871,0.507816 0.28125,0.75 0.117183,0.242191 0.26562,0.437503 0.46875,0.625 0.20312,0.187503 0.45312,0.351566 0.75,0.46875 0.296869,0.109378 0.640619,0.156252 1.0625,0.15625 0.820305,2e-6 1.484367,-0.25781 1.96875,-0.78125 0.492179,-0.523434 0.749991,-1.296871 0.75,-2.28125 -3e-6,-0.164602 -0.0448,-0.32114 -0.0625,-0.46875 z M 18.75,52.6875 c -0.249071,0.321628 -0.474748,0.651196 -0.625,1 l 7.65625,0 0,-1 -7.03125,0 z m 23.6875,12.0625 0,1 11.25,0 0,-1 -11.25,0 z m 7.53125,3.71875 c -0.529753,0.788145 -1.068953,1.576011 -1.5625,2.34375 -0.703131,1.085947 -1.312506,2.164071 -1.84375,3.28125 -0.531255,1.117194 -0.968754,2.289067 -1.28125,3.46875 -0.304691,1.171878 -0.468754,2.382814 -0.46875,3.6875 l 0.03125,0 c 0.06169,-0.934538 0.211496,-1.81826 0.4375,-2.6875 0.312496,-1.179683 0.749995,-2.351556 1.28125,-3.46875 0.531244,-1.117179 1.140619,-2.195303 1.84375,-3.28125 0.703118,-1.093738 1.437492,-2.210925 2.21875,-3.34375 l -0.65625,0 z" />
        <path
           style="font-size:24px;font-style:normal;font-variant:normal;font-weight:bold;font-stretch:normal;text-align:center;line-height:125%;writing-mode:lr-tb;text-anchor:middle;opacity:0.4;fill:#ffffff;fill-opacity:1;stroke:none;font-family:Liberation Sans;-inkscape-font-specification:Abandoned Bitplane Bold"
           id="path3925"
           inkscape:connector-curvature="0"
           d="m 48.3125,16.21875 c -0.882819,1.4e-5 -1.554692,0.429701 -2.0625,1.3125 -0.500004,0.882824 -0.750004,2.234386 -0.75,4.03125 0.0077,-0.01289 0.02338,-0.0185 0.03125,-0.03125 0.08186,-1.279604 0.321885,-2.299283 0.71875,-3 0.507808,-0.882799 1.179681,-1.312486 2.0625,-1.3125 0.468743,1.4e-5 0.898429,0.117202 1.25,0.375 0.351554,0.250014 0.593742,0.671889 0.75,1.25 l 3.125,-0.4375 C 53.347651,18.062506 53.245117,17.729492 53.125,17.4375 l -2.8125,0.40625 c -0.156258,-0.578111 -0.398446,-0.999986 -0.75,-1.25 -0.351571,-0.257798 -0.781257,-0.374986 -1.25,-0.375 z M 48.125,22.1875 c -0.289069,8e-6 -0.585944,0.03126 -0.875,0.125 -0.289068,0.09376 -0.523443,0.257821 -0.75,0.46875 -0.226567,0.203133 -0.42188,0.460944 -0.5625,0.78125 -0.14063,0.320319 -0.218754,0.703131 -0.21875,1.15625 -2e-6,0.181547 0.04277,0.35908 0.0625,0.53125 0.03529,-0.250329 0.06853,-0.487697 0.15625,-0.6875 0.14062,-0.320306 0.335933,-0.578117 0.5625,-0.78125 0.226557,-0.210929 0.460932,-0.37499 0.75,-0.46875 0.289056,-0.09374 0.585931,-0.124992 0.875,-0.125 0.398431,8e-6 0.757805,0.04688 1.0625,0.1875 0.304679,0.13282 0.546867,0.343758 0.75,0.59375 0.210929,0.250008 0.367179,0.546882 0.46875,0.90625 0.05078,0.175784 0.09863,0.365234 0.125,0.5625 0.0086,-0.124742 0.03125,-0.241961 0.03125,-0.375 -9e-6,-0.445306 -0.0547,-0.835931 -0.15625,-1.1875 -0.101571,-0.359368 -0.257821,-0.656242 -0.46875,-0.90625 -0.203133,-0.249992 -0.445321,-0.46093 -0.75,-0.59375 -0.304695,-0.14062 -0.664069,-0.187492 -1.0625,-0.1875 z m -5.8125,0.6875 c -0.0055,0.208593 -0.03125,0.408303 -0.03125,0.625 -10e-7,2.679693 0.492186,4.695315 1.53125,6.0625 1.046872,1.359375 2.554683,2.0625 4.5,2.0625 0.914055,0 1.710929,-0.164063 2.40625,-0.4375 0.695302,-0.28125 1.289052,-0.664062 1.75,-1.15625 0.468738,-0.499998 0.828113,-1.093748 1.0625,-1.78125 0.234363,-0.695309 0.343737,-1.45312 0.34375,-2.28125 -3e-6,-0.175411 -0.0204,-0.332521 -0.03125,-0.5 -0.03687,0.630932 -0.127413,1.232133 -0.3125,1.78125 -0.234387,0.687502 -0.593762,1.281252 -1.0625,1.78125 -0.460948,0.492188 -1.054698,0.875 -1.75,1.15625 -0.695321,0.273437 -1.492195,0.4375 -2.40625,0.4375 -1.945317,0 -3.453128,-0.703125 -4.5,-2.0625 -0.987024,-1.298712 -1.453039,-3.205163 -1.5,-5.6875 z M 20,42.25 c -0.703131,1.4e-5 -1.218755,0.179702 -1.59375,0.5625 -0.367192,0.375014 -0.609379,0.96095 -0.71875,1.71875 l -3.09375,-0.1875 c -0.08597,0.329474 -0.176852,0.652228 -0.21875,1 l 3.3125,0.1875 c 0.109371,-0.7578 0.351558,-1.343736 0.71875,-1.71875 C 18.781245,43.429702 19.296869,43.250014 20,43.25 c 0.71093,1.4e-5 1.257805,0.179702 1.625,0.53125 0.262434,0.251282 0.421716,0.616814 0.5,1.0625 0.02617,-0.142719 0.0625,-0.288458 0.0625,-0.4375 -8e-6,-0.734363 -0.195321,-1.273424 -0.5625,-1.625 C 21.257805,42.429702 20.71093,42.250014 20,42.25 z m 54.0625,0.0625 -0.25,4.1875 c 0.02149,-0.01893 0.04046,-0.04384 0.0625,-0.0625 l 0.1875,-3.125 6.9375,0 0,-1 -6.9375,0 z m -48.5625,2.5 c -0.06043,0.559941 -0.208993,1.093758 -0.4375,1.5625 -0.304699,0.625009 -0.710948,1.187509 -1.1875,1.71875 -0.476573,0.523445 -1.007822,1.00782 -1.59375,1.46875 -0.578133,0.460944 -1.140633,0.906256 -1.6875,1.34375 -0.546882,0.437505 -1.046881,0.898443 -1.5,1.34375 -0.445318,0.445317 -0.750005,0.929691 -0.96875,1.4375 l 0.625,0 c 0.11354,-0.146616 0.204313,-0.298063 0.34375,-0.4375 0.453119,-0.445307 0.953118,-0.906245 1.5,-1.34375 0.546867,-0.437494 1.109367,-0.882806 1.6875,-1.34375 0.585928,-0.46093 1.117177,-0.945305 1.59375,-1.46875 0.476552,-0.531241 0.882801,-1.093741 1.1875,-1.71875 0.304676,-0.624989 0.468738,-1.351551 0.46875,-2.125 -2e-6,-0.151304 -0.02018,-0.294476 -0.03125,-0.4375 z m 50.46875,3.28125 c -0.546881,8e-6 -0.992193,0.101571 -1.34375,0.3125 -0.351567,0.203133 -0.664067,0.453133 -0.90625,0.75 l -3.15625,0 -0.0625,1 3.21875,0 c 0.242183,-0.296867 0.554683,-0.546867 0.90625,-0.75 0.351557,-0.210929 0.796869,-0.312492 1.34375,-0.3125 0.414056,8e-6 0.77343,0.0547 1.09375,0.1875 0.328117,0.13282 0.593742,0.343758 0.8125,0.59375 0.226554,0.250008 0.414054,0.554695 0.53125,0.90625 0.07796,0.219296 0.09566,0.442779 0.125,0.6875 0.01917,-0.174519 0.0625,-0.340627 0.0625,-0.53125 -9e-6,-0.437494 -0.06251,-0.804681 -0.1875,-1.15625 C 78.289054,49.429695 78.101554,49.125008 77.875,48.875 77.656242,48.625008 77.390617,48.41407 77.0625,48.28125 76.74218,48.14845 76.382806,48.093758 75.96875,48.09375 z M 81.9375,51.5 c -0.05201,0.602052 -0.175791,1.160159 -0.375,1.6875 -0.257825,0.695316 -0.640636,1.296877 -1.15625,1.8125 -0.515635,0.507813 -1.140635,0.898438 -1.90625,1.1875 -0.757821,0.28125 -1.656258,0.4375 -2.65625,0.4375 -0.921881,0 -1.718755,-0.125 -2.40625,-0.34375 -0.687503,-0.226562 -1.27344,-0.515624 -1.75,-0.90625 -0.468752,-0.398436 -0.820314,-0.874998 -1.09375,-1.40625 -0.118438,-0.236874 -0.224098,-0.495872 -0.3125,-0.75 l -0.25,0.03125 c 0.101562,0.609379 0.296874,1.187503 0.5625,1.71875 0.273436,0.531252 0.624998,1.007814 1.09375,1.40625 0.47656,0.390626 1.062497,0.679688 1.75,0.90625 0.687495,0.21875 1.484369,0.34375 2.40625,0.34375 0.999992,0 1.898429,-0.15625 2.65625,-0.4375 0.765615,-0.289062 1.390615,-0.679687 1.90625,-1.1875 0.515614,-0.515623 0.898425,-1.117184 1.15625,-1.8125 0.265612,-0.703121 0.406237,-1.48437 0.40625,-2.3125 -2e-6,-0.13178 -0.02543,-0.246953 -0.03125,-0.375 z m -67.71875,4.875 0,1 11.5625,0 0,-1 -11.5625,0 z m 39.46875,12 c -0.742199,1.171888 -1.460949,2.3047 -2.125,3.40625 -0.65626,1.101572 -1.226571,2.195321 -1.71875,3.3125 -0.492195,1.109382 -0.867195,2.257818 -1.15625,3.4375 -0.281257,1.171878 -0.437506,2.406251 -0.4375,3.71875 l -3.40625,0 c -0.02148,0.325373 -0.03125,0.663064 -0.03125,1 l 3.4375,0 c -6e-6,-1.312499 0.156243,-2.546872 0.4375,-3.71875 0.289055,-1.179682 0.664055,-2.328118 1.15625,-3.4375 0.492179,-1.117179 1.06249,-2.210928 1.71875,-3.3125 0.664051,-1.10155 1.382801,-2.234362 2.125,-3.40625 l 0,-1 z m -11.25,0.09375 0,1 7.53125,0 c 0.224945,-0.334664 0.423389,-0.662351 0.65625,-1 l -8.1875,0 z" />
      </g>
    </g>
    <rect
       ry="25"
       rx="25"
       id="rect3003"
       style="opacity:0.15;fill:#ffffff;fill-opacity:1"
       height="92"
       width="92"
       y="958.36218"
       x="-96"
       clip-path="url(#clipPath3009)"
       transform="translate(98,3.8281269e-7)" />
  </g>
</svg>
