<?xml version="1.0" encoding="UTF-8" standalone="no"?>
<!-- Created with Inkscape (http://www.inkscape.org/) -->

<svg
   xmlns:dc="http://purl.org/dc/elements/1.1/"
   xmlns:cc="http://creativecommons.org/ns#"
   xmlns:rdf="http://www.w3.org/1999/02/22-rdf-syntax-ns#"
   xmlns:svg="http://www.w3.org/2000/svg"
   xmlns="http://www.w3.org/2000/svg"
   xmlns:xlink="http://www.w3.org/1999/xlink"
   xmlns:sodipodi="http://sodipodi.sourceforge.net/DTD/sodipodi-0.dtd"
   xmlns:inkscape="http://www.inkscape.org/namespaces/inkscape"
   width="96"
   height="96"
   id="svg11037"
   version="1.1"
   inkscape:version="0.48.3.1 r9886"
   sodipodi:docname="gnome-do.svg">
  <defs
     id="defs11039">
    <linearGradient
       y2="1046.1001"
       x2="47.999954"
       y1="962.62189"
       x1="47.999954"
       gradientTransform="matrix(1.15,0,0,1.15,-7.1999462,-150.65291)"
       gradientUnits="userSpaceOnUse"
       id="linearGradient3886"
       xlink:href="#linearGradient3795"
       inkscape:collect="always" />
    <linearGradient
       id="linearGradient3795">
      <stop
         style="stop-color:#13a6fd;stop-opacity:1;"
         offset="0"
         id="stop3797" />
      <stop
         style="stop-color:#2975b6;stop-opacity:1;"
         offset="1"
         id="stop3799" />
    </linearGradient>
    <linearGradient
       y2="1046.1001"
       x2="47.999954"
       y1="962.62189"
       x1="47.999954"
       gradientTransform="matrix(1.15,0,0,1.15,-7.1999462,-150.65292)"
       gradientUnits="userSpaceOnUse"
       id="linearGradient11642"
       xlink:href="#linearGradient5979"
       inkscape:collect="always" />
    <linearGradient
       id="linearGradient5979"
       y2="902.35999"
       gradientUnits="userSpaceOnUse"
       x2="48"
       gradientTransform="translate(25.173051,27.389043)"
       y1="1052.4"
       x1="48">
      <stop
         id="stop3189-5"
         style="stop-color:#623b6b"
         offset="0" />
      <stop
         id="stop3191-3"
         style="stop-color:#ad7fa8"
         offset="1" />
    </linearGradient>
    <linearGradient
       y2="902.35999"
       x2="48"
       y1="1052.4"
       x1="48"
       gradientTransform="translate(-98.00255,-5.0308109)"
       gradientUnits="userSpaceOnUse"
       id="linearGradient3028"
       xlink:href="#linearGradient5979"
       inkscape:collect="always" />
    <linearGradient
       id="linearGradient6667"
       y2="45.016998"
       gradientUnits="userSpaceOnUse"
       x2="20.759001"
       gradientTransform="matrix(1.1347,0,0,1.1347,203.46,1018.3)"
       y1="1"
       x1="20.759001">
      <stop
         id="stop3311-37"
         style="stop-color:#f6f6f6"
         offset="0" />
      <stop
         id="stop3313-3"
         style="stop-color:#d2d2d2"
         offset="1" />
    </linearGradient>
    <linearGradient
       id="linearGradient6669"
       y2="45"
       gradientUnits="userSpaceOnUse"
       x2="37.201"
       gradientTransform="matrix(1.1347,0,0,1.1347,203.46,1018.3)"
       y1="1"
       x1="37.201">
      <stop
         id="stop3399-2"
         style="stop-color:#aaa"
         offset="0" />
      <stop
         id="stop3401-6"
         style="stop-color:#8c8c8c"
         offset="1" />
    </linearGradient>
    <linearGradient
       id="linearGradient6671"
       y2="20.895"
       gradientUnits="userSpaceOnUse"
       x2="84.639"
       gradientTransform="matrix(0.36817,0,0,0.36817,207.12,1021.2)"
       y1="105.1"
       x1="86.133003">
      <stop
         id="stop5130-5"
         style="stop-color:#e5e5e5"
         offset="0" />
      <stop
         id="stop5132-2"
         style="stop-color:#ababab"
         offset="1" />
    </linearGradient>
    <clipPath
       clipPathUnits="userSpaceOnUse"
       id="clipPath3009">
      <path
         id="path3011"
         d="m -2,956.36218 -96,0 0,33.5624 96,25.68742 0,-59.24982 z"
         style="opacity:0.15;fill:#ffffff;fill-opacity:1;stroke:none"
         inkscape:connector-curvature="0" />
    </clipPath>
  </defs>
  <sodipodi:namedview
     id="base"
     pagecolor="#ffffff"
     bordercolor="#666666"
     borderopacity="1.0"
     inkscape:pageopacity="0.0"
     inkscape:pageshadow="2"
     inkscape:zoom="3.959798"
     inkscape:cx="33.538031"
     inkscape:cy="59.964634"
     inkscape:document-units="px"
     inkscape:current-layer="layer1"
     showgrid="false"
     inkscape:window-width="1280"
     inkscape:window-height="750"
     inkscape:window-x="0"
     inkscape:window-y="22"
     inkscape:window-maximized="1"
     showguides="true"
     inkscape:guide-bbox="true">
    <sodipodi:guide
       orientation="0,1"
       position="-24.748737,0"
       id="guide11064" />
    <sodipodi:guide
       orientation="0,1"
       position="-23.233509,96"
       id="guide11066" />
    <sodipodi:guide
       orientation="1,0"
       position="0,54.800776"
       id="guide11068" />
    <sodipodi:guide
       orientation="1,0"
       position="96,51.012704"
       id="guide11070" />
    <sodipodi:guide
       orientation="0,1"
       position="-18.94036,48"
       id="guide11072" />
    <sodipodi:guide
       orientation="1,0"
       position="48,79.296975"
       id="guide11074" />
    <sodipodi:guide
       orientation="1,0"
       position="2,75.508903"
       id="guide11076" />
    <sodipodi:guide
       orientation="0,1"
       position="-77.27667,2"
       id="guide11078" />
    <sodipodi:guide
       orientation="1,0"
       position="94,77.781746"
       id="guide11080" />
    <sodipodi:guide
       orientation="0,1"
       position="-65.912454,94"
       id="guide11082" />
  </sodipodi:namedview>
  <metadata
     id="metadata11042">
    <rdf:RDF>
      <cc:Work
         rdf:about="">
        <dc:format>image/svg+xml</dc:format>
        <dc:type
           rdf:resource="http://purl.org/dc/dcmitype/StillImage" />
        <dc:title />
      </cc:Work>
    </rdf:RDF>
  </metadata>
  <g
     inkscape:label="Layer 1"
     inkscape:groupmode="layer"
     id="layer1"
     transform="translate(0,-956.36218)">
    <rect
       x="2"
       y="958.36218"
       width="92"
       height="92"
       style="fill:url(#linearGradient11642);fill-opacity:1.0"
       id="rect3867"
       rx="25"
       ry="25" />
    <g
       id="g6661"
       transform="matrix(1.0468,0,0,1.0468,-193.475,-88.84382)">
      <path
         inkscape:connector-curvature="0"
         id="rect3267"
         d="m 227.32,1020 c -0.96011,0 -1.7375,0.7964 -1.7375,1.7729 v 3.4394 c -1.7166,0.4574 -3.357,1.1483 -4.8577,2.0211 l -2.4466,-2.4466 c -0.34524,-0.3453 -0.7588,-0.5281 -1.2056,-0.5319 -0.44676,0 -0.90155,0.157 -1.241,0.4964 l -4.7869,4.7869 c -0.67886,0.6789 -0.65502,1.7561 0.0354,2.4466 l 2.4466,2.4466 c -0.87284,1.5008 -1.5637,3.1411 -2.0211,4.8578 h -3.4395 c -0.97652,0 -1.7729,0.7773 -1.7729,1.7374 v 6.737 c 0,0.9601 0.79642,1.7375 1.7729,1.7375 h 3.4395 c 0.45739,1.7167 1.1482,3.3569 2.0211,4.8577 l -2.4466,2.4466 c -0.69048,0.6905 -0.71432,1.7678 -0.0354,2.4466 l 4.7869,4.7869 c 0.67886,0.6789 1.7561,0.655 2.4466,-0.035 l 2.4466,-2.4467 c 1.5008,0.8729 3.141,1.5637 4.8577,2.0211 v 3.4395 c 0,0.9765 0.77738,1.7728 1.7375,1.7728 h 6.737 c 0.96011,0 1.7375,-0.7964 1.7375,-1.7728 v -3.4395 c 1.7166,-0.4574 3.357,-1.1482 4.8578,-2.0211 l 2.4466,2.4467 c 0.69048,0.6904 1.7677,0.7143 2.4466,0.035 l 4.7869,-4.7869 c 0.67886,-0.6788 0.65501,-1.756 -0.0354,-2.4466 l -2.4466,-2.4466 c 0.87285,-1.5008 1.5637,-3.141 2.0211,-4.8577 h 3.4394 c 0.97643,0 1.7729,-0.7774 1.7729,-1.7375 v -6.737 c 0,-0.9601 -0.79643,-1.7374 -1.7729,-1.7374 h -3.4394 c -0.45597,-1.7157 -1.147,-3.3559 -2.0199,-4.8569 l 2.4466,-2.4466 c 0.69047,-0.6905 0.71433,-1.7677 0.0354,-2.4466 l -4.7869,-4.7869 c -0.67887,-0.6789 -1.7561,-0.655 -2.4466,0.035 l -2.4466,2.4466 c -1.5008,-0.8729 -3.141,-1.5637 -4.8577,-2.0211 v -3.4395 c 0,-0.9765 -0.77738,-1.7728 -1.7375,-1.7728 h -6.737 z m 3.3685,17.02 c 4.0712,0 7.3752,3.304 7.3752,7.3752 0,4.0711 -3.3041,7.3752 -7.3752,7.3752 -4.0712,0 -7.3752,-3.3041 -7.3752,-7.3752 0,-4.0712 3.3041,-7.3752 7.3752,-7.3752 z"
         style="fill:url(#linearGradient6667);stroke:url(#linearGradient6669);stroke-width:0.88709998;stroke-linejoin:round;display:block" />
      <path
         inkscape:connector-curvature="0"
         id="path28"
         d="m 230.69,1029.1 c -8.4462,0 -15.318,6.8715 -15.318,15.318 0,8.4462 6.8715,15.318 15.318,15.318 8.4462,0 15.318,-6.8716 15.318,-15.318 0,-8.4463 -6.8716,-15.318 -15.318,-15.318 z"
         style="fill:none;stroke:url(#linearGradient6671);stroke-width:1.77419996" />
      <path
         inkscape:connector-curvature="0"
         id="path3315"
         d="m 230.69,1029.6 c -8.1336,0 -14.751,6.617 -14.751,14.751 0,8.1335 6.617,14.751 14.751,14.751 8.1336,0 14.751,-6.6169 14.751,-14.751 0,-8.1336 -6.617,-14.751 -14.751,-14.751 z m 0,6.808 c 4.3843,0 7.9426,3.5582 7.9426,7.9426 0,4.3843 -3.5583,7.9426 -7.9426,7.9426 -4.3843,0 -7.9426,-3.5582 -7.9426,-7.9426 0,-4.3843 3.5583,-7.9426 7.9426,-7.9426 z"
         style="opacity:0.05" />
    </g>
    <rect
       ry="25"
       rx="25"
       id="rect3003"
       style="opacity:0.15;fill:#ffffff;fill-opacity:1"
       height="92"
       width="92"
       y="958.36218"
       x="-96"
       clip-path="url(#clipPath3009)"
       transform="translate(98,3.8281269e-7)" />
  </g>
</svg>
