<?xml version="1.0" encoding="UTF-8" standalone="no"?>
<!-- Created with Inkscape (http://www.inkscape.org/) -->

<svg
   xmlns:dc="http://purl.org/dc/elements/1.1/"
   xmlns:cc="http://creativecommons.org/ns#"
   xmlns:rdf="http://www.w3.org/1999/02/22-rdf-syntax-ns#"
   xmlns:svg="http://www.w3.org/2000/svg"
   xmlns="http://www.w3.org/2000/svg"
   xmlns:xlink="http://www.w3.org/1999/xlink"
   xmlns:sodipodi="http://sodipodi.sourceforge.net/DTD/sodipodi-0.dtd"
   xmlns:inkscape="http://www.inkscape.org/namespaces/inkscape"
   width="96"
   height="96"
   id="svg11037"
   version="1.1"
   inkscape:version="0.48.3.1 r9886"
   sodipodi:docname="gnome-aisleriot.svg">
  <defs
     id="defs11039">
    <linearGradient
       y2="1046.1001"
       x2="47.999954"
       y1="962.62189"
       x1="47.999954"
       gradientTransform="matrix(1.15,0,0,1.15,-7.1999462,-150.65291)"
       gradientUnits="userSpaceOnUse"
       id="linearGradient3886"
       xlink:href="#linearGradient3795"
       inkscape:collect="always" />
    <linearGradient
       id="linearGradient3795">
      <stop
         style="stop-color:#13a6fd;stop-opacity:1;"
         offset="0"
         id="stop3797" />
      <stop
         style="stop-color:#2975b6;stop-opacity:1;"
         offset="1"
         id="stop3799" />
    </linearGradient>
    <linearGradient
       y2="1046.1001"
       x2="47.999954"
       y1="962.62189"
       x1="47.999954"
       gradientTransform="matrix(1.15,0,0,1.15,-7.1999462,-150.65292)"
       gradientUnits="userSpaceOnUse"
       id="linearGradient11642"
       xlink:href="#linearGradient5871"
       inkscape:collect="always" />
    <linearGradient
       id="linearGradient5871"
       y2="902.35999"
       gradientUnits="userSpaceOnUse"
       x2="48"
       gradientTransform="translate(0,-7.8516e-6)"
       y1="1052.4"
       x1="48">
      <stop
         id="stop3702-48-3"
         style="stop-color:#2276c5"
         offset="0" />
      <stop
         id="stop3704-88-1"
         style="stop-color:#68baf4"
         offset="1" />
    </linearGradient>
    <linearGradient
       y2="902.35999"
       x2="48"
       y1="1052.4"
       x1="48"
       gradientTransform="translate(-91.184021,22.748374)"
       gradientUnits="userSpaceOnUse"
       id="linearGradient3047"
       xlink:href="#linearGradient5871"
       inkscape:collect="always" />
    <linearGradient
       id="linearGradient5977"
       y2="88"
       xlink:href="#linearGradient3670-1"
       gradientUnits="userSpaceOnUse"
       x2="64"
       y1="8"
       x1="64" />
    <linearGradient
       id="linearGradient3670-1">
      <stop
         id="stop3672-6-0"
         style="stop-color:#f0f0f0"
         offset="0" />
      <stop
         id="stop3674-9-3"
         style="stop-color:#dcdcdc"
         offset="1" />
    </linearGradient>
    <linearGradient
       id="linearGradient5980"
       y2="8"
       xlink:href="#linearGradient3711-4-4"
       gradientUnits="userSpaceOnUse"
       x2="42"
       y1="88"
       x1="42" />
    <linearGradient
       id="linearGradient3711-4-4">
      <stop
         id="stop3713-2-0"
         style="stop-color:#224478"
         offset="0" />
      <stop
         id="stop3715-2-3"
         style="stop-color:#376ec2"
         offset="1" />
    </linearGradient>
    <linearGradient
       id="linearGradient6039"
       y2="88"
       xlink:href="#linearGradient3670-1"
       gradientUnits="userSpaceOnUse"
       x2="64"
       gradientTransform="matrix(0.64285,0,0,0.64285,4.2858,973.71)"
       y1="8"
       x1="64" />
    <linearGradient
       id="linearGradient3093">
      <stop
         id="stop3095"
         style="stop-color:#f0f0f0"
         offset="0" />
      <stop
         id="stop3097"
         style="stop-color:#dcdcdc"
         offset="1" />
    </linearGradient>
    <linearGradient
       id="linearGradient6036"
       y2="8"
       xlink:href="#linearGradient3711-4-4"
       gradientUnits="userSpaceOnUse"
       x2="42"
       gradientTransform="matrix(0.64285,0,0,0.64285,4.2858,973.71)"
       y1="88"
       x1="42" />
    <linearGradient
       id="linearGradient3100">
      <stop
         id="stop3102"
         style="stop-color:#224478"
         offset="0" />
      <stop
         id="stop3104"
         style="stop-color:#376ec2"
         offset="1" />
    </linearGradient>
    <linearGradient
       id="linearGradient6031"
       y2="88"
       xlink:href="#linearGradient3670-1"
       gradientUnits="userSpaceOnUse"
       x2="64"
       gradientTransform="matrix(0.64285,0,0,0.64285,10.714,973.71)"
       y1="8"
       x1="64" />
    <linearGradient
       id="linearGradient3107">
      <stop
         id="stop3109"
         style="stop-color:#f0f0f0"
         offset="0" />
      <stop
         id="stop3111"
         style="stop-color:#dcdcdc"
         offset="1" />
    </linearGradient>
    <linearGradient
       id="linearGradient6028"
       y2="8"
       xlink:href="#linearGradient3711-4-4"
       gradientUnits="userSpaceOnUse"
       x2="42"
       gradientTransform="matrix(0.64285,0,0,0.64285,10.714,973.71)"
       y1="88"
       x1="42" />
    <linearGradient
       id="linearGradient3114">
      <stop
         id="stop3116"
         style="stop-color:#224478"
         offset="0" />
      <stop
         id="stop3118"
         style="stop-color:#376ec2"
         offset="1" />
    </linearGradient>
    <linearGradient
       id="linearGradient6023"
       y2="88"
       xlink:href="#linearGradient3670-1"
       gradientUnits="userSpaceOnUse"
       x2="64"
       gradientTransform="matrix(0.64285,0,0,0.64285,17.143,973.71)"
       y1="8"
       x1="64" />
    <linearGradient
       id="linearGradient3121">
      <stop
         id="stop3123"
         style="stop-color:#f0f0f0"
         offset="0" />
      <stop
         id="stop3125"
         style="stop-color:#dcdcdc"
         offset="1" />
    </linearGradient>
    <radialGradient
       id="radialGradient6020"
       gradientUnits="userSpaceOnUse"
       cy="90.171997"
       cx="48"
       gradientTransform="matrix(0.74397,0,0,0.64022,12.289,973.83)"
       r="42">
      <stop
         id="stop3739-33-8"
         style="stop-color:#fff"
         offset="0" />
      <stop
         id="stop3741-38-0"
         style="stop-color:#fff;stop-opacity:0"
         offset="1" />
    </radialGradient>
    <linearGradient
       id="linearGradient6017"
       y2="36.596001"
       gradientUnits="userSpaceOnUse"
       x2="69.086998"
       gradientTransform="matrix(0.64285,0,0,0.64285,17.143,973.71)"
       y1="60.327"
       x1="69.086998">
      <stop
         id="stop3836-0-6"
         style="stop-color:#d40000"
         offset="0" />
      <stop
         id="stop3838-4-6"
         style="stop-color:#d41400"
         offset="1" />
    </linearGradient>
    <clipPath
       clipPathUnits="userSpaceOnUse"
       id="clipPath3009">
      <path
         id="path3011"
         d="m -2,956.36218 -96,0 0,33.5624 96,25.68742 0,-59.24982 z"
         style="opacity:0.15;fill:#ffffff;fill-opacity:1;stroke:none"
         inkscape:connector-curvature="0" />
    </clipPath>
  </defs>
  <sodipodi:namedview
     id="base"
     pagecolor="#ffffff"
     bordercolor="#666666"
     borderopacity="1.0"
     inkscape:pageopacity="0.0"
     inkscape:pageshadow="2"
     inkscape:zoom="3.959798"
     inkscape:cx="33.538031"
     inkscape:cy="59.964634"
     inkscape:document-units="px"
     inkscape:current-layer="layer1"
     showgrid="false"
     inkscape:window-width="1280"
     inkscape:window-height="750"
     inkscape:window-x="0"
     inkscape:window-y="22"
     inkscape:window-maximized="1"
     showguides="true"
     inkscape:guide-bbox="true">
    <sodipodi:guide
       orientation="0,1"
       position="-24.748737,0"
       id="guide11064" />
    <sodipodi:guide
       orientation="0,1"
       position="-23.233509,96"
       id="guide11066" />
    <sodipodi:guide
       orientation="1,0"
       position="0,54.800776"
       id="guide11068" />
    <sodipodi:guide
       orientation="1,0"
       position="96,51.012704"
       id="guide11070" />
    <sodipodi:guide
       orientation="0,1"
       position="-18.94036,48"
       id="guide11072" />
    <sodipodi:guide
       orientation="1,0"
       position="48,79.296975"
       id="guide11074" />
    <sodipodi:guide
       orientation="1,0"
       position="2,75.508903"
       id="guide11076" />
    <sodipodi:guide
       orientation="0,1"
       position="-77.27667,2"
       id="guide11078" />
    <sodipodi:guide
       orientation="1,0"
       position="94,77.781746"
       id="guide11080" />
    <sodipodi:guide
       orientation="0,1"
       position="-65.912454,94"
       id="guide11082" />
  </sodipodi:namedview>
  <metadata
     id="metadata11042">
    <rdf:RDF>
      <cc:Work
         rdf:about="">
        <dc:format>image/svg+xml</dc:format>
        <dc:type
           rdf:resource="http://purl.org/dc/dcmitype/StillImage" />
        <dc:title />
      </cc:Work>
    </rdf:RDF>
  </metadata>
  <g
     inkscape:label="Layer 1"
     inkscape:groupmode="layer"
     id="layer1"
     transform="translate(0,-956.36218)">
    <rect
       x="2"
       y="958.36218"
       width="92"
       height="92"
       style="fill:url(#linearGradient11642);fill-opacity:1.0"
       id="rect3867"
       rx="25"
       ry="25" />
    <g
       transform="translate(0,0.00218044)"
       id="g3049">
      <g
         transform="matrix(0.64285,0,0,0.64285,-2.1427,973.71)"
         id="g3777">
        <rect
           x="36"
           y="6"
           width="54"
           height="84"
           ry="6"
           rx="6"
           style="color:#000000;fill:url(#linearGradient5977)"
           id="rect3785" />
        <path
           inkscape:connector-curvature="0"
           d="m 42,7.9688 c -2.2635,0 -4.0312,1.7678 -4.0312,4.0312 v 72 c 0,2.2635 1.7678,4.0312 4.0312,4.0312 h 42 c 2.2635,0 4.0312,-1.7678 4.0312,-4.0312 V 12 c 0,-2.2635 -1.768,-4.0312 -4.031,-4.0312 h -42 z"
           style="color:#000000;fill:url(#linearGradient5980)"
           id="path3787" />
        <path
           inkscape:connector-curvature="0"
           d="m 32,7.9688 c -2.2635,0 -4.0312,1.7678 -4.0312,4.0312 v 72 c 0,2.2635 1.7678,4.0312 4.0312,4.0312 h 42 c 2.2635,0 4.0312,-1.7678 4.0312,-4.0312 V 12 c 0,-2.2635 -1.768,-4.0312 -4.031,-4.0312 h -42 z m 0,0.9375 h 42 c 1.7676,0 3.0938,1.3261 3.0938,3.0938 v 72 c 0,1.7676 -1.3261,3.0938 -3.0938,3.0938 H 32 c -1.7676,0 -3.0938,-1.3261 -3.0938,-3.0938 v -72 c 0,-1.7676 1.3261,-3.0938 3.0938,-3.0938 z"
           transform="translate(10,0)"
           style="color:#000000;fill:#214478"
           id="path3789" />
        <path
           inkscape:connector-curvature="0"
           d="m 32,8 -4,8 4,8 4,-8 -4,-8 z m 0,16 -4,8 4,8 4,-8 -4,-8 z m 0,16 -4,8 4,8 4,-8 -4,-8 z m 0,16 -4,8 4,8 4,-8 -4,-8 z m 0,16 -4,8 4,8 4,-8 -4,-8 z m 0,-60 2,4 -2,4 -2,-4 2,-4 z m 0,2 -1,2 1,2 1,-2 -1,-2 z m 0,12 3,6 -3,6 -3,-6 3,-6 z m 0,4 -1,2 1,2 1,-2 -1,-2 z m 0,14 2,4 -2,4 -2,-4 2,-4 z m 0,2 -1,2 1,2 1,-2 -1,-2 z m 0,12 3,6 -3,6 -3,-6 3,-6 z m 0,4 -1,2 1,2 1,-2 -1,-2 z m 0,14 2,4 -2,4 -2,-4 2,-4 z m 0,2 -1,2 1,2 1,-2 -1,-2 z"
           transform="translate(10,0)"
           style="opacity:0.3;fill:#162d50"
           id="path3791" />
      </g>
      <rect
         x="27.429001"
         y="977.56"
         width="34.714001"
         height="54"
         ry="3.8571"
         rx="3.8571"
         style="color:#000000;fill:url(#linearGradient6039)"
         id="rect3765" />
      <path
         inkscape:connector-curvature="0"
         d="m 31.286,978.83 c -1.4551,0 -2.5915,1.1364 -2.5915,2.5915 v 46.285 c 0,1.4551 1.1364,2.5914 2.5915,2.5914 h 27 c 1.4551,0 2.5915,-1.1364 2.5915,-2.5914 v -46.285 c 0,-1.4551 -1.1366,-2.5915 -2.5913,-2.5915 h -27.001 z"
         style="color:#000000;fill:url(#linearGradient6036)"
         id="path3767" />
      <path
         inkscape:connector-curvature="0"
         d="m 31.286,978.83 c -1.4551,0 -2.5915,1.1364 -2.5915,2.5915 v 46.285 c 0,1.4551 1.1364,2.5914 2.5915,2.5914 h 27 c 1.4551,0 2.5915,-1.1364 2.5915,-2.5914 v -46.285 c 0,-1.4551 -1.1366,-2.5915 -2.5913,-2.5915 h -27.001 z m 0,0.60268 h 27 c 1.1363,0 1.9889,0.85248 1.9889,1.9888 v 46.28502 c 0,1.1363 -0.85249,1.9889 -1.9889,1.9889 h -27 c -1.1363,0 -1.9889,-0.8525 -1.9889,-1.9889 v -46.28502 c 0,-1.1363 0.85249,-1.9888 1.9889,-1.9888 z"
         style="color:#000000;fill:#214478"
         id="path3769" />
      <path
         inkscape:connector-curvature="0"
         d="m 31.286,978.85 -2.5714,5.1428 2.5714,5.1428 2.5714,-5.1428 -2.5714,-5.1428 z m 0,10.286 -2.5714,5.1428 2.5714,5.1428 2.5714,-5.1428 -2.5714,-5.1428 z m 0,10.286 -2.5714,5.1428 2.5714,5.1428 2.5714,-5.1428 -2.5714,-5.1428 z m 0,10.286 -2.5714,5.1428 2.5714,5.1428 2.5714,-5.1428 -2.5714,-5.1428 z m 0,10.286 -2.5714,5.1429 2.5714,5.1428 2.5714,-5.1428 -2.5714,-5.1429 z m 0,-38.571 1.2857,2.5714 -1.2857,2.5714 -1.2857,-2.5714 1.2857,-2.5714 z m 0,1.2857 -0.64285,1.2857 0.64285,1.2857 0.64285,-1.2857 -0.64285,-1.2857 z m 0,7.7142 1.9286,3.8571 -1.9286,3.8571 -1.9286,-3.8571 1.9286,-3.8571 z m 0,2.5714 -0.64285,1.2857 0.64285,1.2857 0.64285,-1.2857 -0.64285,-1.2857 z m 0,9 1.2857,2.5714 -1.2857,2.5714 -1.2857,-2.5714 1.2857,-2.5714 z m 0,1.2857 -0.64285,1.2857 0.64285,1.2857 0.64285,-1.2857 -0.64285,-1.2857 z m 0,7.7142 1.9286,3.8571 -1.9286,3.8571 -1.9286,-3.8571 1.9286,-3.8571 z m 0,2.5714 -0.64285,1.2857 0.64285,1.2857 0.64285,-1.2857 -0.64285,-1.2857 z m 0,8.9999 1.2857,2.5715 -1.2857,2.5714 -1.2857,-2.5714 1.2857,-2.5715 z m 0,1.2857 -0.64285,1.2858 0.64285,1.2857 0.64285,-1.2857 -0.64285,-1.2858 z"
         style="opacity:0.3;fill:#162d50"
         id="path3771" />
      <rect
         x="33.856998"
         y="977.56"
         width="34.714001"
         height="54"
         ry="3.8571"
         rx="3.8571"
         style="color:#000000;fill:url(#linearGradient6031)"
         id="rect3698" />
      <path
         inkscape:connector-curvature="0"
         d="m 37.714,978.83 c -1.4551,0 -2.5915,1.1364 -2.5915,2.5915 v 46.285 c 0,1.4551 1.1364,2.5914 2.5915,2.5914 h 27 c 1.4551,0 2.5915,-1.1364 2.5915,-2.5914 v -46.285 c 0,-1.4551 -1.1366,-2.5915 -2.5913,-2.5915 h -27.001 z"
         style="color:#000000;fill:url(#linearGradient6028)"
         id="path3707" />
      <path
         inkscape:connector-curvature="0"
         d="m 37.714,978.83 c -1.4551,0 -2.5915,1.1364 -2.5915,2.5915 v 46.285 c 0,1.4551 1.1364,2.5914 2.5915,2.5914 h 27 c 1.4551,0 2.5915,-1.1364 2.5915,-2.5914 v -46.285 c 0,-1.4551 -1.1366,-2.5915 -2.5913,-2.5915 h -27.001 z m 0,0.60268 h 27 c 1.1363,0 1.9889,0.85248 1.9889,1.9888 v 46.28502 c 0,1.1363 -0.85249,1.9889 -1.9889,1.9889 h -27 c -1.1363,0 -1.9889,-0.8525 -1.9889,-1.9889 v -46.28502 c 0,-1.1363 0.85249,-1.9888 1.9889,-1.9888 z"
         style="color:#000000;fill:#214478"
         id="path3719" />
      <path
         inkscape:connector-curvature="0"
         d="m 37.714,978.85 -2.5714,5.1428 2.5714,5.1428 2.5714,-5.1428 -2.5714,-5.1428 z m 0,10.286 -2.5714,5.1428 2.5714,5.1428 2.5714,-5.1428 -2.5714,-5.1428 z m 0,10.286 -2.5714,5.1428 2.5714,5.1428 2.5714,-5.1428 -2.5714,-5.1428 z m 0,10.286 -2.5714,5.1428 2.5714,5.1428 2.5714,-5.1428 -2.5714,-5.1428 z m 0,10.286 -2.5714,5.1429 2.5714,5.1428 2.5714,-5.1428 -2.5714,-5.1429 z m 0,-38.571 1.2857,2.5714 -1.2857,2.5714 -1.2857,-2.5714 1.2857,-2.5714 z m 0,1.2857 -0.64285,1.2857 0.64285,1.2857 0.64285,-1.2857 -0.64285,-1.2857 z m 0,7.7142 1.9286,3.8571 -1.9286,3.8571 -1.9286,-3.8571 1.9286,-3.8571 z m 0,2.5714 -0.64285,1.2857 0.64285,1.2857 0.64285,-1.2857 -0.64285,-1.2857 z m 0,9 1.2857,2.5714 -1.2857,2.5714 -1.2857,-2.5714 1.2857,-2.5714 z m 0,1.2857 -0.64285,1.2857 0.64285,1.2857 0.64285,-1.2857 -0.64285,-1.2857 z m 0,7.7142 1.9286,3.8571 -1.9286,3.8571 -1.9286,-3.8571 1.9286,-3.8571 z m 0,2.5714 -0.64285,1.2857 0.64285,1.2857 0.64285,-1.2857 -0.64285,-1.2857 z m 0,8.9999 1.2857,2.5715 -1.2857,2.5714 -1.2857,-2.5714 1.2857,-2.5715 z m 0,1.2857 -0.64285,1.2858 0.64285,1.2857 0.64285,-1.2857 -0.64285,-1.2858 z"
         style="opacity:0.3;fill:#162d50"
         id="path3732" />
      <rect
         x="40.285999"
         y="977.56"
         width="34.714001"
         height="54"
         ry="3.8571"
         rx="3.8571"
         style="color:#000000;fill:url(#linearGradient6023)"
         id="rect3666" />
      <path
         inkscape:connector-curvature="0"
         d="m 24.857,1031.6 c -2.1368,0 -3.8571,-1.7203 -3.8571,-3.8571 v -46.286 c 0,-0.21518 0.02658,-0.4183 0.06027,-0.62276 0.03131,-0.19003 0.06238,-0.38373 0.12054,-0.5625 0.0064,-0.0193 0.01344,-0.0405 0.02012,-0.0604 0.06358,-0.18469 0.15101,-0.35164 0.24107,-0.52199 0.09296,-0.17582 0.20288,-0.34432 0.32143,-0.5022 0.11854,-0.15795 0.2403,-0.30439 0.38166,-0.44203 0.28286,-0.27514 0.60621,-0.5236 0.96428,-0.70308 0.1791,-0.0897 0.36868,-0.15872 0.56237,-0.22095 -0.16457,0.0644 -0.31275,0.15184 -0.46189,0.24107 -0.0048,0.003 -0.01534,-0.003 -0.02009,0 -0.02053,0.0124 -0.04005,0.0273 -0.06027,0.0402 -0.0774,0.0493 -0.14851,0.10511 -0.22098,0.16071 -0.06825,0.0519 -0.13711,0.10357 -0.20089,0.16071 -0.11436,0.10376 -0.22333,0.22198 -0.32143,0.34149 -0.06911,0.0838 -0.14033,0.17055 -0.20083,0.26119 -0.01614,0.0246 -0.02475,0.0552 -0.04024,0.0803 -0.04159,0.0662 -0.0837,0.13147 -0.12047,0.20083 -0.06499,0.12523 -0.13224,0.2673 -0.18083,0.40178 -0.0051,0.0141 -0.01517,0.0261 -0.02012,0.0403 -0.02044,0.0591 -0.02301,0.12008 -0.04011,0.18077 -0.01954,0.0685 -0.04526,0.1305 -0.0603,0.20089 -0.04686,0.21953 -0.08036,0.44903 -0.08036,0.68303 v 46.28604 c 0,1.7883 1.426,3.2142 3.2143,3.2142 h 46.286 c 1.7883,0 3.2143,-1.4259 3.2143,-3.2142 v -46.28604 c 0,-0.234 -0.03343,-0.4635 -0.08036,-0.68303 -0.02829,-0.13301 -0.05657,-0.25566 -0.10028,-0.38166 -0.0051,-0.0141 -0.01543,-0.0262 -0.01993,-0.0403 -0.0405,-0.11166 -0.08936,-0.23618 -0.14078,-0.34148 -0.027,-0.0532 -0.05079,-0.10928 -0.08036,-0.16071 -0.03536,-0.0625 -0.08164,-0.12112 -0.12086,-0.18077 -0.06043,-0.0906 -0.13178,-0.17743 -0.20057,-0.26119 -0.09193,-0.11218 -0.19478,-0.22307 -0.3015,-0.32143 -0.0071,-0.007 -0.01286,-0.0136 -0.01993,-0.0201 -0.08936,-0.0807 -0.18321,-0.15069 -0.28157,-0.22095 -0.06557,-0.047 -0.13114,-0.0986 -0.20057,-0.14059 -0.0048,-0.003 -0.01533,0.003 -0.02009,0 -0.14917,-0.0892 -0.29735,-0.17664 -0.46205,-0.24107 0.19384,0.0622 0.38344,0.13123 0.5625,0.22098 0.35813,0.1795 0.68149,0.42794 0.96428,0.70315 0.14141,0.13759 0.26316,0.28405 0.38169,0.44196 0.11853,0.15791 0.22848,0.3264 0.32143,0.50223 0.09008,0.17039 0.17752,0.33733 0.24107,0.52232 0.0067,0.0198 0.01371,0.0403 0.02009,0.0603 0.05815,0.17876 0.08923,0.37246 0.12054,0.56249 0.03407,0.20443 0.06043,0.40757 0.06043,0.62293 v 46.28596 c 0,2.1369 -1.7203,3.8572 -3.8571,3.8572 h -46.286 z"
         style="opacity:0.2;fill:url(#radialGradient6020)"
         id="path3615" />
      <path
         inkscape:connector-curvature="0"
         d="m 53.785,996.85 c -2.1302,0 -3.8571,1.7269 -3.8571,3.8572 0,0.1331 0.0019,0.262 0.01507,0.3917 0.333,5.7137 7.6994,11.18 7.6994,11.18 0,0 7.3574,-5.6943 7.6994,-11.18 0.01286,-0.1292 0.01479,-0.2584 0.01479,-0.3915 0,-2.1302 -1.7269,-3.8571 -3.8571,-3.8571 -2.1302,0 -3.8571,1.7269 -3.8571,3.8571 0,-2.1302 -1.7269,-3.8571 -3.8571,-3.8571 z"
         style="color:#000000;fill:url(#linearGradient6017)"
         id="path3805" />
      <g
         transform="matrix(0.64581,0,0,0.64922,14.897,973.27)"
         style="fill:#d40000"
         id="text3814">
        <path
           inkscape:connector-curvature="0"
           d="m 45.38,18.189 v 0.31055 h -2.584 v -0.311 l 0.89062,-0.1582 2.6777,-7.4531 h 1.1133 l 2.7832,7.4531 0.99609,0.1582 v 0.31055 h -3.3223 v -0.311 l 1.0547,-0.1582 -0.7793,-2.2676 h -3.0938 l -0.79102,2.2676 1.0547,0.1582 m 1.2598,-6.7676 -1.3477,3.8145 h 2.7363 l -1.3887,-3.8145"
           id="path3819" />
      </g>
      <path
         inkscape:connector-curvature="0"
         d="m 44.143,986.56 c -0.7101,0 -1.2857,0.57563 -1.2857,1.2857 0,0.0444 6.43e-4,0.0874 0.005,0.13057 0.11057,1.9048 2.5663,3.7266 2.5663,3.7266 0,0 2.4525,-1.8984 2.5663,-3.7266 0.0045,-0.0431 0.0051,-0.0861 0.0051,-0.1305 0,-0.71009 -0.57563,-1.2857 -1.2857,-1.2857 -0.71008,0 -1.2857,0.57563 -1.2857,1.2857 0,-0.71009 -0.57563,-1.2857 -1.2857,-1.2857 z"
         style="color:#000000;fill:#d40000"
         id="path3821" />
      <path
         inkscape:connector-curvature="0"
         d="m 49.948,1000.5 c -0.0045,0.079 -0.01993,0.1613 -0.01993,0.2411 0,0.1331 0.0069,0.2721 0.02009,0.4017 0.333,5.7137 7.6943,11.17 7.6943,11.17 0,0 7.3523,-5.6841 7.6943,-11.17 0.01286,-0.1298 0.01993,-0.2687 0.01993,-0.4017 0,-0.08 -0.01543,-0.162 -0.01993,-0.2411 -0.342,5.4854 -7.6943,11.17 -7.6943,11.17 0,0 -7.3613,-5.4559 -7.6943,-11.17 z"
         style="color:#000000;fill:#9d0000"
         id="path3858" />
      <g
         transform="matrix(0.64581,0,0,-0.64922,39.326,1035.9)"
         style="fill:#c40000"
         id="g3823">
        <path
           inkscape:connector-curvature="0"
           d="m 45.38,18.189 v 0.31055 h -2.584 v -0.311 l 0.89062,-0.1582 2.6777,-7.4531 h 1.1133 l 2.7832,7.4531 0.99609,0.1582 v 0.31055 h -3.3223 v -0.311 l 1.0547,-0.1582 -0.7793,-2.2676 h -3.0938 l -0.79102,2.2676 1.0547,0.1582 m 1.2598,-6.7676 -1.3477,3.8145 h 2.7363 l -1.3887,-3.8145"
           style="fill:#c40000"
           id="path3825" />
      </g>
      <path
         inkscape:connector-curvature="0"
         d="m 68.571,1022.6 c -0.7101,0 -1.2857,-0.5756 -1.2857,-1.2857 0,-0.044 6.43e-4,-0.087 0.005,-0.1305 0.11057,-1.9048 2.5663,-3.7267 2.5663,-3.7267 0,0 2.4524,1.8981 2.5664,3.7266 0.0045,0.043 0.0051,0.086 0.0051,0.1305 0,0.7101 -0.57563,1.2857 -1.2857,1.2857 -0.71008,0 -1.2857,-0.5756 -1.2857,-1.2857 0,0.7101 -0.57563,1.2857 -1.2857,1.2857 z"
         style="color:#000000;fill:#c40000"
         id="path3827" />
    </g>
    <rect
       ry="25"
       rx="25"
       id="rect3003"
       style="opacity:0.15;fill:#ffffff;fill-opacity:1"
       height="92"
       width="92"
       y="958.36218"
       x="-96"
       clip-path="url(#clipPath3009)"
       transform="translate(98,3.8281269e-7)" />
  </g>
</svg>
