<?xml version="1.0" encoding="UTF-8" standalone="no"?>
<!-- Created with Inkscape (http://www.inkscape.org/) -->

<svg
   xmlns:dc="http://purl.org/dc/elements/1.1/"
   xmlns:cc="http://creativecommons.org/ns#"
   xmlns:rdf="http://www.w3.org/1999/02/22-rdf-syntax-ns#"
   xmlns:svg="http://www.w3.org/2000/svg"
   xmlns="http://www.w3.org/2000/svg"
   xmlns:xlink="http://www.w3.org/1999/xlink"
   xmlns:sodipodi="http://sodipodi.sourceforge.net/DTD/sodipodi-0.dtd"
   xmlns:inkscape="http://www.inkscape.org/namespaces/inkscape"
   width="96"
   height="96"
   id="svg11037"
   version="1.1"
   inkscape:version="0.48.3.1 r9886"
   sodipodi:docname="gnome-klotski.svg">
  <defs
     id="defs11039">
    <linearGradient
       y2="1046.1001"
       x2="47.999954"
       y1="962.62189"
       x1="47.999954"
       gradientTransform="matrix(1.15,0,0,1.15,-7.1999462,-150.65291)"
       gradientUnits="userSpaceOnUse"
       id="linearGradient3886"
       xlink:href="#linearGradient3795"
       inkscape:collect="always" />
    <linearGradient
       id="linearGradient3795">
      <stop
         style="stop-color:#13a6fd;stop-opacity:1;"
         offset="0"
         id="stop3797" />
      <stop
         style="stop-color:#2975b6;stop-opacity:1;"
         offset="1"
         id="stop3799" />
    </linearGradient>
    <linearGradient
       y2="1046.1001"
       x2="47.999954"
       y1="962.62189"
       x1="47.999954"
       gradientTransform="matrix(1.15,0,0,1.15,-7.1999462,-150.65292)"
       gradientUnits="userSpaceOnUse"
       id="linearGradient11642"
       xlink:href="#linearGradient5979"
       inkscape:collect="always" />
    <linearGradient
       id="linearGradient5979"
       y2="902.35999"
       gradientUnits="userSpaceOnUse"
       x2="48"
       gradientTransform="translate(0,-7.8516e-6)"
       y1="1052.4"
       x1="48">
      <stop
         id="stop3079-4"
         style="stop-color:#2a2a2a"
         offset="0" />
      <stop
         id="stop3081-3"
         style="stop-color:#4b4b4b"
         offset="1" />
    </linearGradient>
    <linearGradient
       y2="902.35999"
       x2="48"
       y1="1052.4"
       x1="48"
       gradientTransform="translate(-101.28555,17.445073)"
       gradientUnits="userSpaceOnUse"
       id="linearGradient3050"
       xlink:href="#linearGradient5979"
       inkscape:collect="always" />
    <linearGradient
       id="linearGradient3814"
       x1="48"
       xlink:href="#linearGradient3769"
       gradientUnits="userSpaceOnUse"
       x2="48"
       y1="90"
       y2="48" />
    <linearGradient
       id="linearGradient3769">
      <stop
         id="stop3771"
         style="stop-color:#ea880b"
         offset="0" />
      <stop
         id="stop3773"
         style="stop-color:#f7cc2e"
         offset="1" />
    </linearGradient>
    <linearGradient
       id="linearGradient3812"
       x1="48"
       xlink:href="#linearGradient3769"
       gradientUnits="userSpaceOnUse"
       y1="90"
       gradientTransform="translate(42,-42)"
       x2="48"
       y2="48" />
    <linearGradient
       id="linearGradient3067">
      <stop
         id="stop3069"
         style="stop-color:#ea880b"
         offset="0" />
      <stop
         id="stop3071"
         style="stop-color:#f7cc2e"
         offset="1" />
    </linearGradient>
    <linearGradient
       id="linearGradient3858-8"
       x1="48"
       xlink:href="#linearGradient3700-73"
       gradientUnits="userSpaceOnUse"
       y1="90"
       gradientTransform="matrix(0.57143,0,0,0.57143,12.571,-11.429)"
       x2="48"
       y2="48" />
    <linearGradient
       id="linearGradient3700-73">
      <stop
         id="stop3702-350"
         style="stop-color:#1d56a5"
         offset="0" />
      <stop
         id="stop3704-1"
         style="stop-color:#5e97ea"
         offset="1" />
    </linearGradient>
    <linearGradient
       id="linearGradient3860"
       x1="48"
       xlink:href="#linearGradient3700-73"
       gradientUnits="userSpaceOnUse"
       y1="90"
       gradientTransform="matrix(0.57143,0,0,0.57143,52.571,28.571)"
       x2="48"
       y2="48" />
    <linearGradient
       id="linearGradient3078">
      <stop
         id="stop3080"
         style="stop-color:#1d56a5"
         offset="0" />
      <stop
         id="stop3082"
         style="stop-color:#5e97ea"
         offset="1" />
    </linearGradient>
    <linearGradient
       id="linearGradient3783-4"
       x1="16"
       xlink:href="#linearGradient3777-5"
       gradientUnits="userSpaceOnUse"
       y1="69"
       gradientTransform="translate(42,-96)"
       x2="38"
       y2="69" />
    <linearGradient
       id="linearGradient3777-5">
      <stop
         id="stop3779-7"
         style="stop-color:#fff"
         offset="0" />
      <stop
         id="stop3781-0"
         style="stop-color:#fff;stop-opacity:0"
         offset="1" />
    </linearGradient>
    <linearGradient
       id="linearGradient3824"
       x1="16"
       xlink:href="#linearGradient3777-5"
       gradientUnits="userSpaceOnUse"
       y1="69"
       gradientTransform="translate(0,-138)"
       x2="38"
       y2="69" />
    <linearGradient
       id="linearGradient3089">
      <stop
         id="stop3091"
         style="stop-color:#fff"
         offset="0" />
      <stop
         id="stop3093"
         style="stop-color:#fff;stop-opacity:0"
         offset="1" />
    </linearGradient>
    <linearGradient
       id="linearGradient3849"
       x1="40"
       xlink:href="#linearGradient3777-5"
       gradientUnits="userSpaceOnUse"
       x2="40"
       y1="8"
       y2="72.498001" />
    <linearGradient
       id="linearGradient3096">
      <stop
         id="stop3098"
         style="stop-color:#fff"
         offset="0" />
      <stop
         id="stop3100"
         style="stop-color:#fff;stop-opacity:0"
         offset="1" />
    </linearGradient>
    <radialGradient
       id="radialGradient3853"
       xlink:href="#linearGradient3777-5"
       gradientUnits="userSpaceOnUse"
       cy="90.171997"
       cx="48"
       gradientTransform="matrix(1.1573,0,0,0.99591,-7.551,0.19713)"
       r="42" />
    <linearGradient
       id="linearGradient3103">
      <stop
         id="stop3105"
         style="stop-color:#fff"
         offset="0" />
      <stop
         id="stop3107"
         style="stop-color:#fff;stop-opacity:0"
         offset="1" />
    </linearGradient>
    <linearGradient
       id="linearGradient3875-6"
       x1="27"
       xlink:href="#linearGradient3777-5"
       gradientUnits="userSpaceOnUse"
       x2="27"
       y1="16"
       y2="36.099998" />
    <linearGradient
       id="linearGradient3110">
      <stop
         id="stop3112"
         style="stop-color:#fff"
         offset="0" />
      <stop
         id="stop3114"
         style="stop-color:#fff;stop-opacity:0"
         offset="1" />
    </linearGradient>
    <linearGradient
       id="linearGradient3260"
       y2="36.099998"
       xlink:href="#linearGradient3777-5"
       gradientUnits="userSpaceOnUse"
       y1="16"
       gradientTransform="translate(40,40)"
       x2="27"
       x1="27" />
    <linearGradient
       id="linearGradient3117">
      <stop
         id="stop3119"
         style="stop-color:#fff"
         offset="0" />
      <stop
         id="stop3121"
         style="stop-color:#fff;stop-opacity:0"
         offset="1" />
    </linearGradient>
    <clipPath
       clipPathUnits="userSpaceOnUse"
       id="clipPath3009">
      <path
         id="path3011"
         d="m -2,956.36218 -96,0 0,33.5624 96,25.68742 0,-59.24982 z"
         style="opacity:0.15;fill:#ffffff;fill-opacity:1;stroke:none"
         inkscape:connector-curvature="0" />
    </clipPath>
  </defs>
  <sodipodi:namedview
     id="base"
     pagecolor="#ffffff"
     bordercolor="#666666"
     borderopacity="1.0"
     inkscape:pageopacity="0.0"
     inkscape:pageshadow="2"
     inkscape:zoom="3.959798"
     inkscape:cx="33.538031"
     inkscape:cy="59.964634"
     inkscape:document-units="px"
     inkscape:current-layer="layer1"
     showgrid="false"
     inkscape:window-width="1280"
     inkscape:window-height="750"
     inkscape:window-x="0"
     inkscape:window-y="22"
     inkscape:window-maximized="1"
     showguides="true"
     inkscape:guide-bbox="true">
    <sodipodi:guide
       orientation="0,1"
       position="-24.748737,0"
       id="guide11064" />
    <sodipodi:guide
       orientation="0,1"
       position="-23.233509,96"
       id="guide11066" />
    <sodipodi:guide
       orientation="1,0"
       position="0,54.800776"
       id="guide11068" />
    <sodipodi:guide
       orientation="1,0"
       position="96,51.012704"
       id="guide11070" />
    <sodipodi:guide
       orientation="0,1"
       position="-18.94036,48"
       id="guide11072" />
    <sodipodi:guide
       orientation="1,0"
       position="48,79.296975"
       id="guide11074" />
    <sodipodi:guide
       orientation="1,0"
       position="2,75.508903"
       id="guide11076" />
    <sodipodi:guide
       orientation="0,1"
       position="-77.27667,2"
       id="guide11078" />
    <sodipodi:guide
       orientation="1,0"
       position="94,77.781746"
       id="guide11080" />
    <sodipodi:guide
       orientation="0,1"
       position="-65.912454,94"
       id="guide11082" />
  </sodipodi:namedview>
  <metadata
     id="metadata11042">
    <rdf:RDF>
      <cc:Work
         rdf:about="">
        <dc:format>image/svg+xml</dc:format>
        <dc:type
           rdf:resource="http://purl.org/dc/dcmitype/StillImage" />
        <dc:title />
      </cc:Work>
    </rdf:RDF>
  </metadata>
  <g
     inkscape:label="Layer 1"
     inkscape:groupmode="layer"
     id="layer1"
     transform="translate(0,-956.36218)">
    <rect
       x="2"
       y="958.36218"
       width="92"
       height="92"
       style="fill:url(#linearGradient11642);fill-opacity:1.0"
       id="rect3867"
       rx="25"
       ry="25" />
    <g
       transform="translate(-182.19,-40.40382)"
       id="g9918">
      <g
         id="g3154"
         transform="matrix(0.65476,0,0,0.65476,198.76,1013.5)">
        <rect
           id="rect2419"
           style="fill:url(#linearGradient3814)"
           rx="6"
           ry="6"
           height="42"
           width="42"
           y="48"
           x="6" />
        <rect
           id="rect2894"
           style="fill:url(#linearGradient3812)"
           rx="6"
           ry="6"
           height="42"
           width="42"
           y="6"
           x="48" />
        <rect
           id="rect2898"
           style="fill:url(#linearGradient3858-8)"
           rx="3"
           ry="3"
           height="24"
           width="24"
           y="16"
           x="16" />
        <rect
           id="rect2902"
           style="fill:url(#linearGradient3860)"
           rx="3"
           ry="3"
           height="24"
           width="24"
           y="56"
           x="56" />
        <rect
           id="rect3767"
           style="opacity:0.4;color:#000000;fill:url(#linearGradient3783-4)"
           transform="matrix(0,1,-1,0,0,0)"
           height="22"
           width="22"
           y="-38"
           x="58" />
        <path
           inkscape:connector-curvature="0"
           id="path3785"
           style="opacity:0.15;fill:#ffffff"
           d="m 12,48 c -1.662,0 -3.1655,0.6655 -4.25,1.75 L 16,58 h 22 l 8.25,-8.25 C 45.166,48.666 43.662,48 42,48 H 12 z" />
        <path
           inkscape:connector-curvature="0"
           id="path3798"
           style="opacity:0.2;fill:#803300"
           d="M 12,90 C 10.338,90 8.8345,89.334 7.75,88.25 L 16,80 h 22 l 8.25,8.25 C 45.166,89.334 43.662,90 42,90 H 12 z" />
        <path
           inkscape:connector-curvature="0"
           id="path3810"
           style="opacity:0.1;fill:#803300"
           d="m 48,84 c 0,1.662 -0.6655,3.1655 -1.75,4.25 L 38,80 V 58 l 8.25,-8.25 C 47.334,50.834 48,52.338 48,54 v 30 z" />
        <rect
           id="rect3816"
           style="opacity:0.4;color:#000000;fill:url(#linearGradient3824)"
           transform="matrix(0,1,-1,0,0,0)"
           height="22"
           width="22"
           y="-80"
           x="16" />
        <path
           inkscape:connector-curvature="0"
           id="path3818"
           style="opacity:0.15;fill:#ffffff"
           d="M 54,6 C 52.338,6 50.834,6.6655 49.75,7.75 L 58,16 H 80 L 88.25,7.75 C 87.166,6.6655 85.662,6 84,6 H 54 z" />
        <path
           inkscape:connector-curvature="0"
           id="path3820"
           style="opacity:0.2;fill:#803300"
           d="m 54,48 c -1.662,0 -3.1655,-0.6655 -4.25,-1.75 L 58,38 h 22 l 8.25,8.25 C 87.166,47.334 85.662,48 84,48 H 54 z" />
        <path
           inkscape:connector-curvature="0"
           id="path3822"
           style="opacity:0.1;fill:#803300"
           d="m 90,42 c 0,1.662 -0.6655,3.1655 -1.75,4.25 L 80,38 V 16 L 88.25,7.75 C 89.334,8.8345 90,10.338 90,12 v 30 z" />
        <path
           inkscape:connector-curvature="0"
           id="rect3826"
           style="opacity:0.4;fill:url(#linearGradient3849)"
           d="m 54,6 c -3.324,0 -6,2.676 -6,6 v 30 c 0,2.4683 1.473,4.5767 3.5938,5.5 -1.615,-0.858 -2.719,-2.526 -2.719,-4.5 V 13 c 0,-2.8525 2.2725,-5.125 5.125,-5.125 h 30 c 2.8525,0 5.125,2.2725 5.125,5.125 v 30 c 0,1.9736 -1.1036,3.6423 -2.7188,4.5 C 88.527,46.577 90,44.468 90,42 V 12 C 90,8.676 87.324,6 84,6 H 54 z M 12,48 c -3.324,0 -6,2.676 -6,6 v 30 c 0,2.4683 1.473,4.5767 3.5938,5.5 C 7.9786,88.642 6.875,86.974 6.875,85 V 55 c 0,-2.8525 2.2725,-5.125 5.125,-5.125 h 30 c 2.8525,0 5.125,2.2725 5.125,5.125 v 30 c 0,1.9736 -1.1036,3.6423 -2.7188,4.5 2.121,-0.923 3.594,-3.032 3.594,-5.5 V 54 c 0,-3.324 -2.676,-6 -6,-6 h -30 z" />
        <path
           inkscape:connector-curvature="0"
           id="path3851"
           style="opacity:0.2;fill:url(#radialGradient3853)"
           d="M 7,50.688 C 6.3694,51.638 6,52.769 6,54 v 30 c 0,3.324 2.676,6 6,6 h 30 c 1.7818,0 3.3717,-0.77457 4.4688,-2 h -34.469 c -2.7818,0 -5,-2.218 -5,-5 V 50.688 z" />
        <path
           inkscape:connector-curvature="0"
           id="rect3862"
           style="opacity:0.3;fill:url(#linearGradient3875-6)"
           d="m 19,16 c -1.662,0 -3,1.338 -3,3 v 18 c 0,1.385 0.94722,2.5268 2.2188,2.875 -0.73095,-0.30518 -1.25,-1.0235 -1.25,-1.875 V 20 c 0,-1.1354 0.89586,-2.0312 2.0312,-2.0312 h 18 c 1.1354,0 2.0312,0.89586 2.0312,2.0312 v 18 c 0,0.85154 -0.51905,1.5698 -1.25,1.875 1.272,-0.348 2.219,-1.49 2.219,-2.875 V 19 c 0,-1.662 -1.338,-3 -3,-3 h -18 z" />
        <path
           inkscape:connector-curvature="0"
           id="path3877"
           style="opacity:0.3;fill:url(#linearGradient3260)"
           d="m 59,56 c -1.662,0 -3,1.338 -3,3 v 18 c 0,1.385 0.94722,2.5268 2.2188,2.875 -0.73095,-0.30518 -1.25,-1.0235 -1.25,-1.875 V 60 c 0,-1.1354 0.89586,-2.0312 2.0312,-2.0312 h 18 c 1.1354,0 2.0312,0.89586 2.0312,2.0312 v 18 c 0,0.85154 -0.51905,1.5698 -1.25,1.875 1.272,-0.348 2.219,-1.49 2.219,-2.875 V 59 c 0,-1.662 -1.338,-3 -3,-3 h -18 z" />
      </g>
    </g>
    <rect
       ry="25"
       rx="25"
       id="rect3003"
       style="opacity:0.15;fill:#ffffff;fill-opacity:1"
       height="92"
       width="92"
       y="958.36218"
       x="-96"
       clip-path="url(#clipPath3009)"
       transform="translate(98,3.8281269e-7)" />
  </g>
</svg>
