<?xml version="1.0" encoding="UTF-8" standalone="no"?>
<!-- Created with Inkscape (http://www.inkscape.org/) -->

<svg
   xmlns:dc="http://purl.org/dc/elements/1.1/"
   xmlns:cc="http://creativecommons.org/ns#"
   xmlns:rdf="http://www.w3.org/1999/02/22-rdf-syntax-ns#"
   xmlns:svg="http://www.w3.org/2000/svg"
   xmlns="http://www.w3.org/2000/svg"
   xmlns:xlink="http://www.w3.org/1999/xlink"
   xmlns:sodipodi="http://sodipodi.sourceforge.net/DTD/sodipodi-0.dtd"
   xmlns:inkscape="http://www.inkscape.org/namespaces/inkscape"
   width="96"
   height="96"
   id="svg11037"
   version="1.1"
   inkscape:version="0.48.3.1 r9886"
   sodipodi:docname="gnome-activity-journal.svg">
  <defs
     id="defs11039">
    <linearGradient
       y2="1046.1001"
       x2="47.999954"
       y1="962.62189"
       x1="47.999954"
       gradientTransform="matrix(1.15,0,0,1.15,-7.1999462,-150.65291)"
       gradientUnits="userSpaceOnUse"
       id="linearGradient3886"
       xlink:href="#linearGradient3795"
       inkscape:collect="always" />
    <linearGradient
       id="linearGradient3795">
      <stop
         style="stop-color:#13a6fd;stop-opacity:1;"
         offset="0"
         id="stop3797" />
      <stop
         style="stop-color:#2975b6;stop-opacity:1;"
         offset="1"
         id="stop3799" />
    </linearGradient>
    <linearGradient
       y2="1046.1001"
       x2="47.999954"
       y1="962.62189"
       x1="47.999954"
       gradientTransform="matrix(1.15,0,0,1.15,-7.1999462,-150.65292)"
       gradientUnits="userSpaceOnUse"
       id="linearGradient11642"
       xlink:href="#linearGradient5979"
       inkscape:collect="always" />
    <linearGradient
       id="linearGradient5979"
       y2="902.35999"
       gradientUnits="userSpaceOnUse"
       x2="48"
       gradientTransform="translate(110.59678,37.151755)"
       y1="1052.4"
       x1="48">
      <stop
         id="stop4919"
         style="stop-color:#2684a3"
         offset="0" />
      <stop
         id="stop4921"
         style="stop-color:#46b0d4"
         offset="1" />
    </linearGradient>
    <linearGradient
       y2="902.35999"
       x2="48"
       y1="1052.4"
       x1="48"
       gradientTransform="translate(-121.4886,-48.46735)"
       gradientUnits="userSpaceOnUse"
       id="linearGradient3018"
       xlink:href="#linearGradient5979"
       inkscape:collect="always" />
    <linearGradient
       id="linearGradient3061-5"
       y2="15.502"
       gradientUnits="userSpaceOnUse"
       y1="80"
       gradientTransform="matrix(0.82346,0,0,0.82346,190.66,1005.3)"
       x2="48"
       x1="48">
      <stop
         id="stop4935"
         style="stop-color:#ebebeb"
         offset="0" />
      <stop
         id="stop4937"
         style="stop-color:#fafafa"
         offset="1" />
    </linearGradient>
    <linearGradient
       y2="15.502"
       x2="48"
       y1="80"
       x1="48"
       gradientTransform="matrix(0.82346,0,0,0.82346,8.47,964.89618)"
       gradientUnits="userSpaceOnUse"
       id="linearGradient3054"
       xlink:href="#linearGradient3061-5"
       inkscape:collect="always" />
    <clipPath
       clipPathUnits="userSpaceOnUse"
       id="clipPath3009">
      <path
         id="path3011"
         d="m -2,956.36218 -96,0 0,33.5624 96,25.68742 0,-59.24982 z"
         style="opacity:0.15;fill:#ffffff;fill-opacity:1;stroke:none"
         inkscape:connector-curvature="0" />
    </clipPath>
  </defs>
  <sodipodi:namedview
     id="base"
     pagecolor="#ffffff"
     bordercolor="#666666"
     borderopacity="1.0"
     inkscape:pageopacity="0.0"
     inkscape:pageshadow="2"
     inkscape:zoom="3.959798"
     inkscape:cx="33.538031"
     inkscape:cy="59.964634"
     inkscape:document-units="px"
     inkscape:current-layer="layer1"
     showgrid="false"
     inkscape:window-width="1280"
     inkscape:window-height="750"
     inkscape:window-x="0"
     inkscape:window-y="22"
     inkscape:window-maximized="1"
     showguides="true"
     inkscape:guide-bbox="true">
    <sodipodi:guide
       orientation="0,1"
       position="-24.748737,0"
       id="guide11064" />
    <sodipodi:guide
       orientation="0,1"
       position="-23.233509,96"
       id="guide11066" />
    <sodipodi:guide
       orientation="1,0"
       position="0,54.800776"
       id="guide11068" />
    <sodipodi:guide
       orientation="1,0"
       position="96,51.012704"
       id="guide11070" />
    <sodipodi:guide
       orientation="0,1"
       position="-18.94036,48"
       id="guide11072" />
    <sodipodi:guide
       orientation="1,0"
       position="48,79.296975"
       id="guide11074" />
    <sodipodi:guide
       orientation="1,0"
       position="2,75.508903"
       id="guide11076" />
    <sodipodi:guide
       orientation="0,1"
       position="-77.27667,2"
       id="guide11078" />
    <sodipodi:guide
       orientation="1,0"
       position="94,77.781746"
       id="guide11080" />
    <sodipodi:guide
       orientation="0,1"
       position="-65.912454,94"
       id="guide11082" />
  </sodipodi:namedview>
  <metadata
     id="metadata11042">
    <rdf:RDF>
      <cc:Work
         rdf:about="">
        <dc:format>image/svg+xml</dc:format>
        <dc:type
           rdf:resource="http://purl.org/dc/dcmitype/StillImage" />
        <dc:title />
      </cc:Work>
    </rdf:RDF>
  </metadata>
  <g
     inkscape:label="Layer 1"
     inkscape:groupmode="layer"
     id="layer1"
     transform="translate(0,-956.36218)">
    <rect
       x="2"
       y="958.36218"
       width="92"
       height="92"
       style="fill:url(#linearGradient11642);fill-opacity:1.0"
       id="rect3867"
       rx="25"
       ry="25" />
    <path
       inkscape:connector-curvature="0"
       id="path4931"
       style="fill:url(#linearGradient3054)"
       d="m 47.6,977.19618 c -12.032,0 -21.879,9.8858 -22.598,22.372 -1.9846,2.38892 -3.9496,4.06832 -3.411,7.66162 0.52112,3.4772 3.724,4.0919 5.6096,4.1438 0.16921,0.37 0.34658,0.7337 0.53298,1.0927 3.8231,14.088 -8.2857,16.447 1.5723,18.427 8.8267,1.7735 22.973,0.6993 34.483,-13.191 4.1022,-4.9504 5.9584,-10.382 6.4357,-16.616 0.59498,-0.4013 4.632,-3.26962 4.2505,-7.07512 -0.65366,-3.5882 -4.0702,-4.6162 -7.2618,-4.8503 -3.9065,-7.1516 -11.217,-11.965 -19.612,-11.965 z m 3.0512,4.8235 c 8.345,0 15.11,6.9878 15.11,15.616 0,8.62842 -6.7648,15.63002 -15.11,15.63002 -8.3449,0 -15.11,-7.0013 -15.11,-15.63002 0,-8.628 6.7648,-15.616 15.11,-15.616 z m 2.2652,5.8628 c -0.74679,0.099 -2.2462,1.9481 -2.9048,2.7981 0.20981,-0.024 0.42355,-0.039 0.63958,-0.039 1.4207,0 2.7171,0.5393 3.7175,1.4258 -0.12793,-1.1978 -0.50524,-3.8746 -1.2792,-4.1704 -0.0516,-0.019 -0.10875,-0.023 -0.17321,-0.014 z m -2.2652,4.5434 c -2.2042,0 -3.9973,1.8515 -3.9973,4.1307 0,2.279 1.7931,4.13062 3.9973,4.13062 2.2043,0 3.984,-1.85162 3.984,-4.13062 0,-2.2792 -1.7797,-4.1307 -3.984,-4.1307 z m 4.024,8.32782 c -1.0336,1.0575 -2.455,1.7188 -4.024,1.7188 -0.19929,0 -0.40554,-0.01 -0.5996,-0.025 0.0821,0.1064 5.6542,7.3214 5.996,7.1684 0.37239,-0.1668 -1.1449,-7.735 -1.3724,-8.8604 z" />
    <rect
       ry="25"
       rx="25"
       id="rect3003"
       style="opacity:0.15;fill:#ffffff;fill-opacity:1"
       height="92"
       width="92"
       y="958.36218"
       x="-96"
       clip-path="url(#clipPath3009)"
       transform="translate(98,3.8281269e-7)" />
  </g>
</svg>
