<?xml version="1.0" encoding="UTF-8" standalone="no"?>
<!-- Created with Inkscape (http://www.inkscape.org/) -->

<svg
   xmlns:dc="http://purl.org/dc/elements/1.1/"
   xmlns:cc="http://creativecommons.org/ns#"
   xmlns:rdf="http://www.w3.org/1999/02/22-rdf-syntax-ns#"
   xmlns:svg="http://www.w3.org/2000/svg"
   xmlns="http://www.w3.org/2000/svg"
   xmlns:xlink="http://www.w3.org/1999/xlink"
   xmlns:sodipodi="http://sodipodi.sourceforge.net/DTD/sodipodi-0.dtd"
   xmlns:inkscape="http://www.inkscape.org/namespaces/inkscape"
   width="96"
   height="96"
   id="svg11037"
   version="1.1"
   inkscape:version="0.48.3.1 r9886"
   sodipodi:docname="googlemusicframe.svg">
  <defs
     id="defs11039">
    <linearGradient
       y2="1046.1001"
       x2="47.999954"
       y1="962.62189"
       x1="47.999954"
       gradientTransform="matrix(1.15,0,0,1.15,-7.1999462,-150.65291)"
       gradientUnits="userSpaceOnUse"
       id="linearGradient3886"
       xlink:href="#linearGradient3795"
       inkscape:collect="always" />
    <linearGradient
       id="linearGradient3795">
      <stop
         style="stop-color:#13a6fd;stop-opacity:1;"
         offset="0"
         id="stop3797" />
      <stop
         style="stop-color:#2975b6;stop-opacity:1;"
         offset="1"
         id="stop3799" />
    </linearGradient>
    <linearGradient
       y2="1046.1001"
       x2="47.999954"
       y1="962.62189"
       x1="47.999954"
       gradientTransform="matrix(1.15,0,0,1.15,-7.1999462,-150.65292)"
       gradientUnits="userSpaceOnUse"
       id="linearGradient11642"
       xlink:href="#linearGradient3700"
       inkscape:collect="always" />
    <linearGradient
       x1="48"
       y1="90"
       x2="48"
       y2="5.9877172"
       id="linearGradient3617"
       xlink:href="#linearGradient3700"
       gradientUnits="userSpaceOnUse" />
    <linearGradient
       id="linearGradient3700">
      <stop
         id="stop3702"
         style="stop-color:#53aec2;stop-opacity:1"
         offset="0" />
      <stop
         id="stop3704"
         style="stop-color:#80c3d2;stop-opacity:1"
         offset="1" />
    </linearGradient>
    <linearGradient
       x1="48"
       y1="20.220806"
       x2="48"
       y2="138.66119"
       id="linearGradient3613"
       xlink:href="#linearGradient3737"
       gradientUnits="userSpaceOnUse" />
    <linearGradient
       id="linearGradient3737">
      <stop
         id="stop3739"
         style="stop-color:#ffffff;stop-opacity:1"
         offset="0" />
      <stop
         id="stop3741"
         style="stop-color:#ffffff;stop-opacity:0"
         offset="1" />
    </linearGradient>
    <clipPath
       id="clipPath3613">
      <rect
         width="84"
         height="84"
         rx="6"
         ry="6"
         x="6"
         y="6"
         id="rect3615"
         style="fill:#ffffff;fill-opacity:1;fill-rule:nonzero;stroke:none" />
    </clipPath>
    <filter
       x="-0.192"
       y="-0.192"
       width="1.3839999"
       height="1.3839999"
       color-interpolation-filters="sRGB"
       id="filter3794">
      <feGaussianBlur
         id="feGaussianBlur3796"
         stdDeviation="5.28" />
    </filter>
    <radialGradient
       cx="-55.999996"
       cy="29"
       r="17.5"
       fx="-55.999996"
       fy="29"
       id="radialGradient3847"
       xlink:href="#linearGradient3849"
       gradientUnits="userSpaceOnUse"
       gradientTransform="matrix(1.2571429,0,0,0.97142857,14.4,0.82857156)" />
    <linearGradient
       id="linearGradient3849">
      <stop
         id="stop3851"
         style="stop-color:#e5e5e5;stop-opacity:1"
         offset="0" />
      <stop
         id="stop3853"
         style="stop-color:#ffffff;stop-opacity:1"
         offset="1" />
    </linearGradient>
    <radialGradient
       cx="-67.361107"
       cy="30.722223"
       r="17.5"
       fx="-67.361107"
       fy="30.722223"
       id="radialGradient3839"
       xlink:href="#linearGradient3833"
       gradientUnits="userSpaceOnUse"
       gradientTransform="matrix(1.2777774,-1.5934198e-8,1.3855826e-8,1.1111109,18.711391,-3.4135747)" />
    <linearGradient
       id="linearGradient3833">
      <stop
         id="stop3835"
         style="stop-color:#d9d9d9;stop-opacity:1"
         offset="0" />
      <stop
         id="stop3837"
         style="stop-color:#ffffff;stop-opacity:1"
         offset="1" />
    </linearGradient>
    <radialGradient
       cx="-69.643715"
       cy="31.597223"
       r="17.5"
       fx="-69.643715"
       fy="31.597223"
       id="radialGradient3857"
       xlink:href="#linearGradient3833"
       gradientUnits="userSpaceOnUse"
       gradientTransform="matrix(1.2777774,-1.5934198e-8,1.3855826e-8,1.1111109,18.711391,-3.4135747)" />
    <linearGradient
       id="linearGradient3194">
      <stop
         id="stop3196"
         style="stop-color:#d9d9d9;stop-opacity:1"
         offset="0" />
      <stop
         id="stop3198"
         style="stop-color:#ffffff;stop-opacity:1"
         offset="1" />
    </linearGradient>
    <clipPath
       id="clipPath4882">
      <path
         d="m 44,58 0,-16 13,8 z"
         inkscape:connector-curvature="0"
         id="path4884"
         style="fill:#ff00ff;fill-opacity:1;stroke:none" />
    </clipPath>
    <filter
       color-interpolation-filters="sRGB"
       id="filter4890">
      <feGaussianBlur
         id="feGaussianBlur4892"
         stdDeviation="0.2175" />
    </filter>
    <clipPath
       clipPathUnits="userSpaceOnUse"
       id="clipPath3864">
      <rect
         x="6"
         y="6.0000038"
         width="84"
         height="84"
         style="fill:url(#linearGradient3868);fill-opacity:1"
         id="rect3866"
         rx="22.826086"
         ry="22.826086" />
    </clipPath>
    <linearGradient
       inkscape:collect="always"
       xlink:href="#linearGradient3700"
       id="linearGradient3868"
       gradientUnits="userSpaceOnUse"
       gradientTransform="matrix(1.05,0,0,1.05,-2.3999508,-1006.579)"
       x1="47.999954"
       y1="962.62189"
       x2="47.999954"
       y2="1046.1001" />
    <clipPath
       clipPathUnits="userSpaceOnUse"
       id="clipPath3009">
      <path
         id="path3011"
         d="m -2,956.36218 -96,0 0,33.5624 96,25.68742 0,-59.24982 z"
         style="opacity:0.15;fill:#ffffff;fill-opacity:1;stroke:none"
         inkscape:connector-curvature="0" />
    </clipPath>
  </defs>
  <sodipodi:namedview
     id="base"
     pagecolor="#ffffff"
     bordercolor="#666666"
     borderopacity="1.0"
     inkscape:pageopacity="0.0"
     inkscape:pageshadow="2"
     inkscape:zoom="3.959798"
     inkscape:cx="33.538031"
     inkscape:cy="59.964634"
     inkscape:document-units="px"
     inkscape:current-layer="layer1"
     showgrid="false"
     inkscape:window-width="1280"
     inkscape:window-height="750"
     inkscape:window-x="0"
     inkscape:window-y="22"
     inkscape:window-maximized="1"
     showguides="true"
     inkscape:guide-bbox="true">
    <sodipodi:guide
       orientation="0,1"
       position="-24.748737,0"
       id="guide11064" />
    <sodipodi:guide
       orientation="0,1"
       position="-23.233509,96"
       id="guide11066" />
    <sodipodi:guide
       orientation="1,0"
       position="0,54.800776"
       id="guide11068" />
    <sodipodi:guide
       orientation="1,0"
       position="96,51.012704"
       id="guide11070" />
    <sodipodi:guide
       orientation="0,1"
       position="-18.94036,48"
       id="guide11072" />
    <sodipodi:guide
       orientation="1,0"
       position="48,79.296975"
       id="guide11074" />
    <sodipodi:guide
       orientation="1,0"
       position="2,75.508903"
       id="guide11076" />
    <sodipodi:guide
       orientation="0,1"
       position="-77.27667,2"
       id="guide11078" />
    <sodipodi:guide
       orientation="1,0"
       position="94,77.781746"
       id="guide11080" />
    <sodipodi:guide
       orientation="0,1"
       position="-65.912454,94"
       id="guide11082" />
  </sodipodi:namedview>
  <metadata
     id="metadata11042">
    <rdf:RDF>
      <cc:Work
         rdf:about="">
        <dc:format>image/svg+xml</dc:format>
        <dc:type
           rdf:resource="http://purl.org/dc/dcmitype/StillImage" />
        <dc:title />
      </cc:Work>
    </rdf:RDF>
  </metadata>
  <g
     inkscape:label="Layer 1"
     inkscape:groupmode="layer"
     id="layer1"
     transform="translate(0,-956.36218)">
    <g
       transform="matrix(1.0952381,0,0,1.0952381,-4.5714286,951.79075)"
       id="g3144"
       clip-path="url(#clipPath3864)">
      <g
         id="g3050">
        <g
           id="layer1-0">
          <rect
             width="84"
             height="84"
             rx="6"
             ry="6"
             x="6"
             y="6"
             id="rect2419"
             style="fill:url(#linearGradient3617);fill-opacity:1;fill-rule:nonzero;stroke:none" />
        </g>
        <g
           id="layer5">
          <rect
             width="66"
             height="66"
             rx="12"
             ry="12"
             x="15"
             y="15"
             clip-path="url(#clipPath3613)"
             id="rect3171"
             style="opacity:0.1;fill:url(#linearGradient3613);fill-opacity:1;fill-rule:nonzero;stroke:#ffffff;stroke-width:0.5;stroke-linecap:round;stroke-linejoin:miter;stroke-miterlimit:4;stroke-opacity:1;stroke-dasharray:none;stroke-dashoffset:0;filter:url(#filter3794)" />
        </g>
      </g>
      <path
         d="m 38,61.96875 c -5.163712,0 -9.807038,0.45712 -13.375,1.25 -1.786319,0.396959 -3.338473,0.884319 -4.625,1.5625 -0.602703,0.317709 -1.254128,0.73143 -1.84375,1.375 -0.60617,0.661632 -1.1875,1.627267 -1.1875,2.84375 0,1.216483 0.58133,2.182118 1.1875,2.84375 0.589622,0.64357 1.241047,1.057291 1.84375,1.375 1.286527,0.678181 2.838681,1.165541 4.625,1.5625 3.567962,0.79288 8.211288,1.25 13.375,1.25 l 22,0 c 5.163712,0 9.807038,-0.45712 13.375,-1.25 1.786319,-0.396959 3.338473,-0.884319 4.625,-1.5625 0.602703,-0.317709 1.254128,-0.73143 1.84375,-1.375 0.60617,-0.661632 1.1875,-1.627267 1.1875,-2.84375 0,-1.216483 -0.58133,-2.182118 -1.1875,-2.84375 -0.589622,-0.64357 -1.241047,-1.057291 -1.84375,-1.375 -1.286527,-0.678181 -2.838681,-1.165541 -4.625,-1.5625 -3.567962,-0.79288 -8.211288,-1.25 -13.375,-1.25 l -22,0 z"
         inkscape:connector-curvature="0"
         id="path3834"
         style="opacity:0.05;color:#000000;fill:#000000;fill-opacity:1;fill-rule:nonzero;stroke:none;stroke-width:1.5;marker:none;visibility:visible;display:inline;overflow:visible;enable-background:accumulate" />
      <path
         inkscape:connector-curvature="0"
         d="m 38,62.96875 c -5.105708,0 -9.689364,0.448331 -13.15625,1.21875 -1.736389,0.385864 -3.209309,0.854267 -4.375,1.46875 -0.564443,0.297541 -1.117288,0.636194 -1.59375,1.15625 -0.486861,0.531407 -0.90625,1.274424 -0.90625,2.1875 0,0.913076 0.419389,1.656093 0.90625,2.1875 0.476462,0.520056 1.029307,0.858709 1.59375,1.15625 1.165691,0.614483 2.638611,1.082886 4.375,1.46875 3.466886,0.770419 8.050542,1.21875 13.15625,1.21875 l 22,0 c 5.105708,0 9.689364,-0.448331 13.15625,-1.21875 1.736389,-0.385864 3.209309,-0.854267 4.375,-1.46875 0.564443,-0.297541 1.117288,-0.636194 1.59375,-1.15625 0.486861,-0.531407 0.90625,-1.274424 0.90625,-2.1875 0,-0.913076 -0.419389,-1.656093 -0.90625,-2.1875 -0.476462,-0.520056 -1.029307,-0.858709 -1.59375,-1.15625 -1.165691,-0.614483 -2.638611,-1.082886 -4.375,-1.46875 C 69.689364,63.417081 65.105708,62.96875 60,62.96875 l -22,0 z"
         id="path3830"
         style="opacity:0.1;color:#000000;fill:#000000;fill-opacity:1;fill-rule:nonzero;stroke:none;stroke-width:1.5;marker:none;visibility:visible;display:inline;overflow:visible;enable-background:accumulate" />
      <path
         inkscape:connector-curvature="0"
         d="m 38,64.03125 c -5.043374,0 -9.5824,0.441922 -12.9375,1.1875 -1.67755,0.372789 -3.057006,0.82849 -4.09375,1.375 -0.518372,0.273255 -0.963195,0.556235 -1.3125,0.9375 -0.349305,0.381265 -0.625,0.901292 -0.625,1.46875 0,0.567458 0.275695,1.087485 0.625,1.46875 0.349305,0.381265 0.794128,0.664245 1.3125,0.9375 1.036744,0.54651 2.4162,1.002211 4.09375,1.375 3.3551,0.745578 7.894126,1.1875 12.9375,1.1875 l 22,0 c 5.043374,0 9.5824,-0.441922 12.9375,-1.1875 1.67755,-0.372789 3.057006,-0.82849 4.09375,-1.375 0.518372,-0.273255 0.963195,-0.556235 1.3125,-0.9375 0.349305,-0.381265 0.625,-0.901292 0.625,-1.46875 0,-0.567458 -0.275695,-1.087485 -0.625,-1.46875 -0.349305,-0.381265 -0.794128,-0.664245 -1.3125,-0.9375 -1.036744,-0.54651 -2.4162,-1.002211 -4.09375,-1.375 C 69.5824,64.473172 65.043374,64.03125 60,64.03125 l -22,0 z"
         id="path3826"
         style="opacity:0.15;color:#000000;fill:#000000;fill-opacity:1;fill-rule:nonzero;stroke:none;stroke-width:1.5;marker:none;visibility:visible;display:inline;overflow:visible;enable-background:accumulate" />
      <rect
         width="58"
         height="8"
         rx="18"
         ry="4"
         x="20"
         y="65"
         id="rect3869"
         style="opacity:0.3;color:#000000;fill:#000000;fill-opacity:1;fill-rule:nonzero;stroke:none;stroke-width:1.5;marker:none;visibility:visible;display:inline;overflow:visible;enable-background:accumulate" />
      <rect
         width="36"
         height="14.000006"
         x="31"
         y="56"
         id="rect3831"
         style="color:#000000;fill:#ffffff;fill-opacity:1;fill-rule:nonzero;stroke:none;stroke-width:1.5;marker:none;visibility:visible;display:inline;overflow:visible;enable-background:accumulate" />
      <path
         inkscape:connector-curvature="0"
         d="m -45,38.5 a 17.5,17.5 0 1 1 -35,0 17.5,17.5 0 1 1 35,0 z"
         transform="translate(110,1)"
         id="path3823"
         style="color:#000000;fill:url(#radialGradient3847);fill-opacity:1;fill-rule:nonzero;stroke:none;stroke-width:1.5;marker:none;visibility:visible;display:inline;overflow:visible;enable-background:accumulate" />
      <path
         inkscape:connector-curvature="0"
         d="m -45,38.5 a 17.5,17.5 0 1 1 -35,0 17.5,17.5 0 1 1 35,0 z"
         transform="matrix(1.0285716,0,0,1.0285716,94.285725,12.399993)"
         id="path3825"
         style="color:#000000;fill:url(#radialGradient3839);fill-opacity:1;fill-rule:nonzero;stroke:none;stroke-width:1.5;marker:none;visibility:visible;display:inline;overflow:visible;enable-background:accumulate" />
      <path
         inkscape:connector-curvature="0"
         d="m -45,38.5 a 17.5,17.5 0 1 1 -35,0 17.5,17.5 0 1 1 35,0 z"
         transform="matrix(-1.0285716,0,0,1.0285716,3.71428,12.399993)"
         id="path3855"
         style="color:#000000;fill:url(#radialGradient3857);fill-opacity:1;fill-rule:nonzero;stroke:none;stroke-width:1.5;marker:none;visibility:visible;display:inline;overflow:visible;enable-background:accumulate" />
      <path
         d="m 12,6 -6,6 0,1 7,-7 -1,0 z M 15,6 6,15 6,16 16,6 15,6 z M 18,6 6,18 6,19 19,6 18,6 z M 21,6 6,21 6,22 22,6 21,6 z M 24,6 6,24 6,25 25,6 24,6 z M 27,6 6,27 6,28 28,6 27,6 z M 30,6 6,30 6,31 31,6 30,6 z M 33,6 6,33 6,34 34,6 33,6 z M 36,6 6,36 6,37 37,6 36,6 z M 39,6 6,39 6,40 40,6 39,6 z M 42,6 6,42 6,43 43,6 42,6 z M 45,6 6,45 6,46 46,6 45,6 z M 48,6 6,48 6,49 49,6 48,6 z M 51,6 19.90625,37.09375 C 20.65207,36.585488 21.42944,36.143025 22.25,35.75 L 52,6 51,6 z m 3,0 -28.5625,28.5625 c 0.4033,-0.105278 0.83612,-0.172591 1.25,-0.25 L 55,6 54,6 z m 3,0 -18.46875,18.46875 c 0.66351,-0.396702 1.34575,-0.75502 2.0625,-1.0625 L 40.65625,23.375 58,6 57,6 z m 3,0 -16.4375,16.4375 c 0.41093,-0.09447 0.82854,-0.185016 1.25,-0.25 L 61,6 60,6 z M 63,6 46.96875,22.03125 C 47.14676,22.025903 47.32069,22 47.5,22 c 0.15769,0 0.31206,0.02711 0.46875,0.03125 L 64,6 63,6 z m 3,0 -16.1875,16.1875 c 0.29393,0.03872 0.58586,0.0719 0.875,0.125 L 67,6 66,6 z m 3,0 -16.6875,16.6875 c 0.25579,0.07298 0.5304,0.134583 0.78125,0.21875 L 70,6 69,6 z m 3,0 -17.46875,17.46875 c 0.22713,0.09969 0.43429,0.234814 0.65625,0.34375 L 73,6 72,6 z m 3,0 -18.5,18.5 c 0.20787,0.125064 0.42288,0.241659 0.625,0.375 L 76,6 75,6 z m 3,0 -19.71875,19.71875 c 0.18661,0.146011 0.38209,0.284183 0.5625,0.4375 L 79,6 78,6 z m 3,0 -21.125,21.125 c 0.16589,0.166061 0.34086,0.327402 0.5,0.5 L 82,6 81,6 z m 3,0 -22.71875,22.71875 c 0.14764,0.188446 0.29755,0.367944 0.4375,0.5625 L 84.9375,6.0625 C 84.63485,6.015839 84.31612,6 84,6 z M 86.46875,6.53125 62.5,30.5 c 0.12689,0.211275 0.22566,0.43928 0.34375,0.65625 L 87.125,6.875 C 86.91336,6.746021 86.69673,6.633683 86.46875,6.53125 z M 9.40625,6.59375 C 8.17161,7.183368 7.18337,8.171613 6.59375,9.40625 l 2.8125,-2.8125 z M 88.25,7.75 63.5,32.5 c 0.10048,0.229517 0.22172,0.452943 0.3125,0.6875 L 88.71875,8.28125 C 88.57304,8.09654 88.41612,7.916123 88.25,7.75 z m 1.21875,1.78125 -24.8125,24.8125 C 65.0601,34.26667 65.4626,34.17595 65.875,34.125 L 89.71875,10.28125 c -0.0756,-0.253376 -0.1431,-0.512083 -0.25,-0.75 z M 90,12 68,34 c 0.32522,0 0.64783,0.01419 0.96875,0.03125 L 90,13 90,12 z m 0,3 -19.21875,19.21875 c 0.28251,0.04407 0.56579,0.09917 0.84375,0.15625 L 90,16 90,15 z m 0,3 -16.78125,16.78125 c 0.25445,0.07715 0.50048,0.161989 0.75,0.25 L 90,19 90,18 z m 0,3 -14.59375,14.59375 c 0.22875,0.103693 0.46399,0.199613 0.6875,0.3125 L 90,22 90,21 z m 0,3 -12.625,12.625 c 0.20717,0.126977 0.39223,0.271215 0.59375,0.40625 L 90,25 90,24 z m 0,3 -10.875,10.875 c 0.18536,0.146788 0.35191,0.314905 0.53125,0.46875 L 90,28 90,27 z m 0,3 -9.28125,9.28125 c 0.16483,0.165428 0.31041,0.359536 0.46875,0.53125 L 90,31 90,30 z m -57.53125,0.53125 -3.5,3.5 C 29.31004,34.011937 29.65382,34 30,34 l 1.4375,-1.4375 c 0.30077,-0.6957 0.64633,-1.38595 1.03125,-2.03125 z M 90,33 82.125,40.875 c 0.14727,0.187489 0.29761,0.36912 0.4375,0.5625 L 90,34 90,33 z m 0,3 -6.65625,6.65625 c 0.12725,0.209119 0.25613,0.4104 0.375,0.625 L 90,37 90,36 z m 0,3 -5.625,5.625 c 0.10254,0.228071 0.21927,0.454513 0.3125,0.6875 L 90,40 90,39 z M 15.25,41.75 6,51 6,52 13.8125,44.1875 C 14.22484,43.331555 14.7131,42.5242 15.25,41.75 z M 90,42 85.1875,46.8125 c 0.0783,0.259404 0.15198,0.517068 0.21875,0.78125 L 90,43 90,42 z m 0,3 -5.125,5.125 c -0.2069,0.570406 -0.42642,1.145556 -0.6875,1.6875 L 90,46 90,45 z M 12.65625,47.34375 6,54 l 0,1 6.59375,-6.59375 c -0.035,-0.138351 -0.0932,-0.26665 -0.125,-0.40625 0.051,-0.224245 0.12824,-0.435262 0.1875,-0.65625 z M 90,48 48,90 49,90 90,49 90,48 z M 13.0625,49.9375 6,57 l 0,1 7.3125,-7.3125 c -0.0966,-0.241431 -0.16364,-0.503551 -0.25,-0.75 z M 90,51 51,90 52,90 90,52 90,51 z M 13.9375,52.0625 6,60 6,61 14.28125,52.71875 C 14.16092,52.501524 14.04901,52.285106 13.9375,52.0625 z M 15.03125,53.96875 6,63 6,64 15.4375,54.5625 C 15.29853,54.370389 15.16273,54.166464 15.03125,53.96875 z M 90,54 54,90 55,90 90,55 90,54 z M 16.34375,55.65625 6,66 6,67 16.8125,56.1875 C 16.65174,56.013156 16.49761,55.836865 16.34375,55.65625 z M 90,57 57,90 58,90 90,58 90,57 z M 17.78125,57.21875 6,69 6,70 18.34375,57.65625 c -0.18047,-0.154811 -0.38834,-0.275756 -0.5625,-0.4375 z M 19.4375,58.5625 6,72 6,73 20.03125,58.96875 C 19.83147,58.834878 19.63151,58.704072 19.4375,58.5625 z M 21.25,59.75 6,75 6,76 21.90625,60.09375 C 21.68695,59.982987 21.46403,59.869382 21.25,59.75 z M 90,60 60,90 l 1,0 29,-29 0,-1 z m -14.25,0.25 c -0.53586,0.256664 -1.09253,0.484061 -1.65625,0.6875 l -0.0312,0 L 45,90 46,90 75.75,60.25 z M 23.3125,60.6875 6,78 6,79 24.03125,60.96875 C 23.78772,60.88285 23.55107,60.783477 23.3125,60.6875 z m 2.25,0.75 L 6,81 6,82 26.375,61.625 c -0.26898,-0.05524 -0.54808,-0.120377 -0.8125,-0.1875 z m 45.75,0.25 c -0.39367,0.07363 -0.78518,0.140013 -1.1875,0.1875 L 42,90 43,90 71.3125,61.6875 z M 28.09375,61.90625 6,84 c 0,0.31612 0.01584,0.63485 0.0625,0.9375 L 29.03125,61.96875 c -0.31432,-0.01671 -0.62771,-0.02984 -0.9375,-0.0625 z M 31,62 6.53125,86.46875 C 6.63368,86.69673 6.74602,86.91336 6.875,87.125 L 32,62 31,62 z m 3,0 -26.25,26.25 c 0.16612,0.16612 0.34654,0.32304 0.53125,0.46875 L 35,62 34,62 z m 3,0 -27.46875,27.46875 c 0.23792,0.1069 0.49662,0.17435 0.75,0.25 L 38,62 37,62 z m 3,0 -28,28 1,0 28,-28 -1,0 z m 3,0 -28,28 1,0 28,-28 -1,0 z m 3,0 -28,28 1,0 28,-28 -1,0 z m 3,0 -28,28 1,0 28,-28 -1,0 z m 3,0 -28,28 1,0 28,-28 -1,0 z m 3,0 -28,28 1,0 28,-28 -1,0 z m 3,0 -28,28 1,0 28,-28 -1,0 z m 3,0 -28,28 1,0 28,-28 -1,0 z m 3,0 -28,28 1,0 28,-28 -1,0 z m 3,0 -28,28 1,0 28,-28 -1,0 z m 23,1 -27,27 1,0 26,-26 0,-1 z m 0,3 -24,24 1,0 23,-23 0,-1 z m 0,3 -21,21 1,0 20,-20 0,-1 z m 0,3 -18,18 1,0 17,-17 0,-1 z m 0,3 -15,15 1,0 14,-14 0,-1 z m 0,3 -12,12 1,0 11,-11 0,-1 z m 0,3 -9,9 1,0 8,-8 0,-1 z m 0,3 -6,6 c 0.37114,0 0.74159,-0.0298 1.09375,-0.0937 l 4.8125,-4.8125 C 89.97015,84.74159 90,84.37114 90,84 z"
         inkscape:connector-curvature="0"
         id="path4823"
         style="opacity:0.1;fill:#000000;stroke:none" />
      <path
         inkscape:connector-curvature="0"
         d="M 43.84375,41.03125 A 0.97909614,0.97909614 0 0 0 43.03125,42 l 0,16 A 0.97909614,0.97909614 0 0 0 44.5,58.84375 l 13,-8 a 0.97909614,0.97909614 0 0 0 0,-1.6875 l -13,-8 a 0.97909614,0.97909614 0 0 0 -0.65625,-0.125 z"
         id="path4872"
         style="fill:#ffffff;fill-opacity:1;stroke:none" />
      <path
         d="m 44,58 0,-16 13,8 z"
         inkscape:connector-curvature="0"
         id="path4868"
         style="fill:#f5954e;fill-opacity:1;stroke:none" />
      <path
         d="m 44,58 0,-16 13,8 z"
         inkscape:connector-curvature="0"
         clip-path="url(#clipPath4882)"
         id="path4874"
         style="opacity:0.4;fill:none;stroke:#000000;filter:url(#filter4890)" />
    </g>
    <rect
       ry="25"
       rx="25"
       id="rect3003"
       style="opacity:0.15;fill:#ffffff;fill-opacity:1"
       height="92"
       width="92"
       y="958.36218"
       x="-96"
       clip-path="url(#clipPath3009)"
       transform="translate(98,3.8281269e-7)" />
  </g>
</svg>
