<?xml version="1.0" encoding="UTF-8" standalone="no"?>
<!-- Created with Inkscape (http://www.inkscape.org/) -->

<svg
   xmlns:dc="http://purl.org/dc/elements/1.1/"
   xmlns:cc="http://creativecommons.org/ns#"
   xmlns:rdf="http://www.w3.org/1999/02/22-rdf-syntax-ns#"
   xmlns:svg="http://www.w3.org/2000/svg"
   xmlns="http://www.w3.org/2000/svg"
   xmlns:xlink="http://www.w3.org/1999/xlink"
   xmlns:sodipodi="http://sodipodi.sourceforge.net/DTD/sodipodi-0.dtd"
   xmlns:inkscape="http://www.inkscape.org/namespaces/inkscape"
   width="96"
   height="96"
   id="svg11037"
   version="1.1"
   inkscape:version="0.48.3.1 r9886"
   sodipodi:docname="gtk-recordmydesktop.svg">
  <defs
     id="defs11039">
    <linearGradient
       y2="1046.1001"
       x2="47.999954"
       y1="962.62189"
       x1="47.999954"
       gradientTransform="matrix(1.15,0,0,1.15,-7.1999462,-150.65291)"
       gradientUnits="userSpaceOnUse"
       id="linearGradient3886"
       xlink:href="#linearGradient3795"
       inkscape:collect="always" />
    <linearGradient
       id="linearGradient3795">
      <stop
         style="stop-color:#13a6fd;stop-opacity:1;"
         offset="0"
         id="stop3797" />
      <stop
         style="stop-color:#2975b6;stop-opacity:1;"
         offset="1"
         id="stop3799" />
    </linearGradient>
    <linearGradient
       y2="1046.1001"
       x2="47.999954"
       y1="962.62189"
       x1="47.999954"
       gradientTransform="matrix(1.15,0,0,1.15,-7.1999462,-150.65292)"
       gradientUnits="userSpaceOnUse"
       id="linearGradient11642"
       xlink:href="#linearGradient3676"
       inkscape:collect="always" />
    <linearGradient
       x1="48"
       y1="90"
       x2="48"
       y2="5.9877172"
       id="linearGradient3774"
       xlink:href="#linearGradient3676"
       gradientUnits="userSpaceOnUse"
       gradientTransform="translate(-140,-96)" />
    <linearGradient
       id="linearGradient3676">
      <stop
         id="stop3678"
         style="stop-color:#abc669;stop-opacity:1"
         offset="0" />
      <stop
         id="stop3680"
         style="stop-color:#abc622;stop-opacity:1"
         offset="1" />
    </linearGradient>
    <linearGradient
       y2="5.9877172"
       x2="48"
       y1="90"
       x1="48"
       gradientTransform="translate(-93.456864,-1054.1477)"
       gradientUnits="userSpaceOnUse"
       id="linearGradient3056"
       xlink:href="#linearGradient3676"
       inkscape:collect="always" />
    <linearGradient
       x1="48"
       y1="8"
       x2="48"
       y2="80"
       id="linearGradient3784"
       xlink:href="#linearGradient3844"
       gradientUnits="userSpaceOnUse" />
    <linearGradient
       id="linearGradient3844">
      <stop
         id="stop3846"
         style="stop-color:#9cbc4d;stop-opacity:1"
         offset="0" />
      <stop
         id="stop3848"
         style="stop-color:#869b1b;stop-opacity:1"
         offset="1" />
    </linearGradient>
    <linearGradient
       gradientTransform="translate(0,956.36218)"
       y2="80"
       x2="48"
       y1="8"
       x1="48"
       gradientUnits="userSpaceOnUse"
       id="linearGradient3128"
       xlink:href="#linearGradient3844"
       inkscape:collect="always" />
    <clipPath
       clipPathUnits="userSpaceOnUse"
       id="clipPath3009">
      <path
         id="path3011"
         d="m -2,956.36218 -96,0 0,33.5624 96,25.68742 0,-59.24982 z"
         style="opacity:0.15;fill:#ffffff;fill-opacity:1;stroke:none"
         inkscape:connector-curvature="0" />
    </clipPath>
  </defs>
  <sodipodi:namedview
     id="base"
     pagecolor="#ffffff"
     bordercolor="#666666"
     borderopacity="1.0"
     inkscape:pageopacity="0.0"
     inkscape:pageshadow="2"
     inkscape:zoom="3.959798"
     inkscape:cx="33.538031"
     inkscape:cy="59.964634"
     inkscape:document-units="px"
     inkscape:current-layer="layer1"
     showgrid="false"
     inkscape:window-width="1280"
     inkscape:window-height="750"
     inkscape:window-x="0"
     inkscape:window-y="22"
     inkscape:window-maximized="1"
     showguides="true"
     inkscape:guide-bbox="true">
    <sodipodi:guide
       orientation="0,1"
       position="-24.748737,0"
       id="guide11064" />
    <sodipodi:guide
       orientation="0,1"
       position="-23.233509,96"
       id="guide11066" />
    <sodipodi:guide
       orientation="1,0"
       position="0,54.800776"
       id="guide11068" />
    <sodipodi:guide
       orientation="1,0"
       position="96,51.012704"
       id="guide11070" />
    <sodipodi:guide
       orientation="0,1"
       position="-18.94036,48"
       id="guide11072" />
    <sodipodi:guide
       orientation="1,0"
       position="48,79.296975"
       id="guide11074" />
    <sodipodi:guide
       orientation="1,0"
       position="2,75.508903"
       id="guide11076" />
    <sodipodi:guide
       orientation="0,1"
       position="-77.27667,2"
       id="guide11078" />
    <sodipodi:guide
       orientation="1,0"
       position="94,77.781746"
       id="guide11080" />
    <sodipodi:guide
       orientation="0,1"
       position="-65.912454,94"
       id="guide11082" />
  </sodipodi:namedview>
  <metadata
     id="metadata11042">
    <rdf:RDF>
      <cc:Work
         rdf:about="">
        <dc:format>image/svg+xml</dc:format>
        <dc:type
           rdf:resource="http://purl.org/dc/dcmitype/StillImage" />
        <dc:title />
      </cc:Work>
    </rdf:RDF>
  </metadata>
  <g
     inkscape:label="Layer 1"
     inkscape:groupmode="layer"
     id="layer1"
     transform="translate(0,-956.36218)">
    <rect
       x="2"
       y="958.36218"
       width="92"
       height="92"
       style="fill:url(#linearGradient11642);fill-opacity:1.0"
       id="rect3867"
       rx="25"
       ry="25" />
    <path
       d="M 55.84375,965.54968 C 31.636958,965.54968 12,982.08253 12,1002.4872 c 1.150794,-15.38871 14.996182,-27.53127 31.90625,-27.53127 17.663819,0 32,13.2363 32,29.59377 0,16.3574 -14.336181,29.625 -32,29.625 -7.987523,0 -15.270047,-2.7043 -20.875,-7.1875 8.029547,7.6327 19.758338,12.4375 32.8125,12.4375 13.816367,0 26.122621,-5.3898 34.15625,-13.8125 l 0,-2.5938 -1.9375,1.5 0,0.1875 c -7.645837,7.7303 -19.177783,12.7813 -32.21875,12.7813 -3.925315,0 -7.651734,-0.595 -11.25,-1.4375 18.315076,-0.3489 33.25,-14.23 33.25,-31.5 0,-17.49066 -15.304813,-31.53127 -33.9375,-31.53127 -6.378063,0 -12.322484,1.69755 -17.4375,4.5625 7.537482,-6.21375 17.860939,-10.09375 29.375,-10.09375 13.042952,0 24.572712,5.05443 32.21875,12.78125 l 0,0.21875 1.9375,2 0,-3.125 c -8.033536,-8.41826 -20.337525,-13.8125 -34.15625,-13.8125 z m -18.28125,15.8125 c -13.481712,0 -24.40625,10.25873 -24.40625,22.90622 0,12.6476 10.924538,22.875 24.40625,22.875 13.481712,0 24.4375,-10.2274 24.4375,-22.875 0,-12.64749 -10.955788,-22.90622 -24.4375,-22.90622 z m 0,1.9375 c 12.497857,0 22.5,9.44124 22.5,20.96872 0,11.5275 -9.999146,20.9375 -22.5,20.9375 -12.500854,0 -22.46875,-9.4068 -22.46875,-20.9375 0,-11.53068 9.970893,-20.96872 22.46875,-20.96872 z m 0,0.5 c -12.148865,0 -22.1875,9.10305 -22.1875,20.46872 0,11.3657 10.042247,20.4375 22.1875,20.4375 12.145253,0 22.21875,-9.0678 22.21875,-20.4375 0,-11.36963 -10.069885,-20.46872 -22.21875,-20.46872 z m 0,1.9375 c 11.1883,0 20.28125,8.31205 20.28125,18.53122 0,10.2192 -9.09295,18.5 -20.28125,18.5 -11.1883,0 -20.25,-8.2808 -20.25,-18.5 0,-10.21917 9.0617,-18.53122 20.25,-18.53122 z m -1.6875,7.875 c -6.53402,0 -11.84375,4.78339 -11.84375,10.65622 0,5.8729 5.30973,10.625 11.84375,10.625 6.53402,0 11.8125,-4.7521 11.8125,-10.625 0,-5.87283 -5.27848,-10.65622 -11.8125,-10.65622 z m 0,3.1875 c 4.577873,0 8.28125,3.35412 8.28125,7.46872 0,4.1147 -3.703377,7.4375 -8.28125,7.4375 -4.577873,0 -8.3125,-3.3228 -8.3125,-7.4375 0,-4.1146 3.734627,-7.46872 8.3125,-7.46872 z"
       inkscape:connector-curvature="0"
       id="path3814"
       style="opacity:0.1;color:#000000;fill:#000000;fill-opacity:1;fill-rule:nonzero;stroke:none;stroke-width:0.5;marker:none;visibility:visible;display:inline;overflow:visible;enable-background:accumulate" />
    <path
       d="M 55.84375,965.54988 C 31.636958,965.54988 12,982.08273 12,1002.4874 c 1.150794,-15.38871 14.996182,-27.53127 31.90625,-27.53127 17.663819,0 32,13.2363 32,29.59377 0,16.3574 -14.336181,29.625 -32,29.625 -7.987523,0 -15.270047,-2.7043 -20.875,-7.1875 8.029547,7.6327 19.758338,12.4375 32.8125,12.4375 13.816367,0 26.122621,-5.3898 34.15625,-13.8125 l 0,-0.8125 -3,2.5625 0,-0.094 c -7.813988,6.9289 -18.856628,11.2813 -31.15625,11.2813 -7.722417,0 -14.836848,-1.8558 -21.09375,-4.8438 2.91794,0.7887 5.962558,1.3438 9.15625,1.3438 18.094849,0 32.875,-13.6396 32.875,-30.5 0,-16.86042 -14.781167,-30.46877 -32.875,-30.46877 -10.743733,0 -20.283279,4.82336 -26.28125,12.25 7.072059,-11.73858 21.407596,-19.90625 38.21875,-19.90625 12.301622,0 23.34254,4.35488 31.15625,11.28125 l 0,-0.34375 1.75,2 c 0.119616,0.11987 0.257217,0.22257 0.375,0.34375 l 0,0.0625 0.875,1 0,-1.40625 c -8.033536,-8.41826 -20.337525,-13.8125 -34.15625,-13.8125 z m -18.28125,15.8125 c -13.481712,0 -24.40625,10.25873 -24.40625,22.90622 0,12.6476 10.924538,22.875 24.40625,22.875 13.481712,0 24.4375,-10.2274 24.4375,-22.875 0,-12.64749 -10.955788,-22.90622 -24.4375,-22.90622 z m 0,0.875 c 13.045046,0 23.5625,9.88082 23.5625,22.03122 0,12.1505 -10.516124,22 -23.5625,22 -13.046376,0 -23.53125,-9.8481 -23.53125,-22 0,-12.15181 10.486204,-22.03122 23.53125,-22.03122 z m 0,2.625 c -11.614629,0 -21.125,8.67819 -21.125,19.40622 0,10.7281 9.511974,19.375 21.125,19.375 11.613026,0 21.15625,-8.6452 21.15625,-19.375 0,-10.72978 -9.541621,-19.40622 -21.15625,-19.40622 z m 0,0.875 c 11.1883,0 20.28125,8.31205 20.28125,18.53122 0,10.2192 -9.09295,18.5 -20.28125,18.5 -11.1883,0 -20.25,-8.2808 -20.25,-18.5 0,-10.21917 9.0617,-18.53122 20.25,-18.53122 z m -1.6875,7.875 c -6.53402,0 -11.84375,4.78339 -11.84375,10.65622 0,5.8729 5.30973,10.625 11.84375,10.625 6.53402,0 11.8125,-4.7521 11.8125,-10.625 0,-5.87283 -5.27848,-10.65622 -11.8125,-10.65622 z m 0,0.875 c 6.113917,0 10.9375,4.42416 10.9375,9.78122 0,5.3571 -4.820839,9.75 -10.9375,9.75 -6.116661,0 -10.96875,-4.3959 -10.96875,-9.75 0,-5.354 4.854833,-9.78122 10.96875,-9.78122 z m 0,1.4375 c -4.998322,0 -9.1875,3.70824 -9.1875,8.34372 0,4.6355 4.193096,8.3125 9.1875,8.3125 4.994404,0 9.15625,-3.6813 9.15625,-8.3125 0,-4.63112 -4.157928,-8.34372 -9.15625,-8.34372 z m 0,0.875 c 4.577873,0 8.28125,3.35412 8.28125,7.46872 0,4.1147 -3.703377,7.4375 -8.28125,7.4375 -4.577873,0 -8.3125,-3.3228 -8.3125,-7.4375 0,-4.1146 3.734627,-7.46872 8.3125,-7.46872 z"
       inkscape:connector-curvature="0"
       id="path3807"
       style="opacity:0.15;color:#000000;fill:#000000;fill-opacity:1;fill-rule:nonzero;stroke:none;stroke-width:0.5;marker:none;visibility:visible;display:inline;overflow:visible;enable-background:accumulate" />
    <path
       d="M 55.84375,965.54968 C 31.636958,965.54968 12,982.08253 12,1002.4872 c 1.150794,-15.38871 14.996182,-27.53127 31.90625,-27.53127 17.663819,0 32,13.2363 32,29.59377 0,16.3574 -14.336181,29.625 -32,29.625 -7.987523,0 -15.270047,-2.7043 -20.875,-7.1875 8.029547,7.6327 19.758338,12.4375 32.8125,12.4375 13.816367,0 26.122621,-5.3898 34.15625,-13.8125 l 0,-3.5 -2.8125,2.125 0,0.094 c -7.469309,7.4122 -18.664483,12.2813 -31.34375,12.2813 -1.534091,0 -2.9796,-0.2695 -4.46875,-0.4063 15.541485,-3.1913 27.34375,-16.0715 27.34375,-31.6562 0,-18.00609 -15.739115,-32.40627 -34.8125,-32.40627 -3.275749,0 -6.390716,0.54948 -9.40625,1.34375 6.2058,-3.17021 13.453894,-5.125 21.34375,-5.125 12.574342,0 23.687493,4.78946 31.15625,12.09375 l 0,-0.0937 3,3 0,-4 c -8.033536,-8.41826 -20.337525,-13.8125 -34.15625,-13.8125 z m -18.28125,15.8125 c -13.481712,0 -24.40625,10.25873 -24.40625,22.90622 0,12.6476 10.924538,22.875 24.40625,22.875 13.481712,0 24.4375,-10.2274 24.4375,-22.875 0,-12.64749 -10.955788,-22.90622 -24.4375,-22.90622 z m 0,4.375 c 11.1883,0 20.28125,8.31205 20.28125,18.53122 0,10.2192 -9.09295,18.5 -20.28125,18.5 -11.1883,0 -20.25,-8.2808 -20.25,-18.5 0,-10.21917 9.0617,-18.53122 20.25,-18.53122 z m -1.6875,7.875 c -6.53402,0 -11.84375,4.78339 -11.84375,10.65622 0,5.8729 5.30973,10.625 11.84375,10.625 6.53402,0 11.8125,-4.7521 11.8125,-10.625 0,-5.87283 -5.27848,-10.65622 -11.8125,-10.65622 z m 0,3.1875 c 4.577873,0 8.28125,3.35412 8.28125,7.46872 0,4.1147 -3.703377,7.4375 -8.28125,7.4375 -4.577873,0 -8.3125,-3.3228 -8.3125,-7.4375 0,-4.1146 3.734627,-7.46872 8.3125,-7.46872 z"
       inkscape:connector-curvature="0"
       id="path3821"
       style="opacity:0.05;color:#000000;fill:#000000;fill-opacity:1;fill-rule:nonzero;stroke:none;stroke-width:0.5;marker:none;visibility:visible;display:inline;overflow:visible;enable-background:accumulate" />
    <path
       d="M 55.84375,965.54968 C 31.636958,965.54968 12,982.08253 12,1002.4872 c 0.01098,-0.1469 0.04921,-0.2912 0.0625,-0.4375 0.895835,-19.73854 20.145105,-35.50002 43.78125,-35.50002 13.818725,0 26.122714,5.39424 34.15625,13.8125 l 0,-1 c -8.033536,-8.41826 -20.337525,-13.8125 -34.15625,-13.8125 z m -18.28125,15.8125 c -13.481712,0 -24.40625,10.25873 -24.40625,22.90622 0,0.1663 -0.0038,0.3346 0,0.5 0.282084,-12.41785 11.101806,-22.40622 24.40625,-22.40622 13.304444,0 24.154616,9.98837 24.4375,22.40622 0.0038,-0.1654 0,-0.3337 0,-0.5 0,-12.64749 -10.955788,-22.90622 -24.4375,-22.90622 z m -1.6875,12.25 c -6.53402,0 -11.84375,4.78339 -11.84375,10.65622 0,0.1679 0.02267,0.3341 0.03125,0.5 0.29159,-5.64156 5.465223,-10.15622 11.8125,-10.15622 6.347277,0 11.491346,4.51466 11.78125,10.15622 0.0085,-0.1659 0.03125,-0.3321 0.03125,-0.5 0,-5.87283 -5.27848,-10.65622 -11.8125,-10.65622 z m -18.53125,11.15622 c -0.005,0.1694 -0.03125,0.3295 -0.03125,0.5 0,10.2192 9.0617,18.5 20.25,18.5 11.1883,0 20.28125,-8.2808 20.28125,-18.5 0,-0.1705 -0.02622,-0.3306 -0.03125,-0.5 -0.296416,9.9834 -9.248353,18 -20.25,18 -11.001647,0 -19.923342,-8.0166 -20.21875,-18 z m 10.25,0 c -0.01278,0.1688 -0.03125,0.3284 -0.03125,0.5 0,4.1147 3.734627,7.4375 8.3125,7.4375 4.577873,0 8.28125,-3.3228 8.28125,-7.4375 0,-0.1716 -0.01857,-0.3312 -0.03125,-0.5 -0.291286,3.8756 -3.863037,6.9375 -8.25,6.9375 -4.386963,0 -7.98757,-3.0619 -8.28125,-6.9375 z m 48.3125,0.2813 c -0.288337,16.1272 -14.516349,29.125 -32,29.125 -7.987523,0 -15.270047,-2.7043 -20.875,-7.1875 1.948465,1.8522 4.118546,3.5404 6.46875,5.0312 4.327285,2.0289 9.217262,3.1563 14.40625,3.1563 17.663819,0 32,-13.2676 32,-29.625 0,-0.1669 0.003,-0.3338 0,-0.5 z"
       inkscape:connector-curvature="0"
       id="path3796"
       style="opacity:0.2;color:#000000;fill:#000000;fill-opacity:1;fill-rule:nonzero;stroke:none;stroke-width:0.5;marker:none;visibility:visible;display:inline;overflow:visible;enable-background:accumulate" />
    <path
       d="M 55.84375,964.54968 C 31.636958,964.54968 12,981.08253 12,1001.4872 c 0.01098,-0.1469 0.04921,-0.2912 0.0625,-0.4375 0.895835,-19.73854 20.145105,-35.50002 43.78125,-35.50002 13.818725,0 26.122714,5.39424 34.15625,13.8125 l 0,-1 c -8.033536,-8.41826 -20.337525,-13.8125 -34.15625,-13.8125 z m -18.28125,15.8125 c -13.481712,0 -24.40625,10.25873 -24.40625,22.90622 0,0.1663 -0.0038,0.3346 0,0.5 0.282084,-12.41785 11.101806,-22.40622 24.40625,-22.40622 13.304444,0 24.154616,9.98837 24.4375,22.40622 0.0038,-0.1654 0,-0.3337 0,-0.5 0,-12.64749 -10.955788,-22.90622 -24.4375,-22.90622 z m -1.6875,12.25 c -6.53402,0 -11.84375,4.78339 -11.84375,10.65622 0,0.1679 0.02267,0.3341 0.03125,0.5 0.29159,-5.64156 5.465223,-10.15622 11.8125,-10.15622 6.347277,0 11.491346,4.51466 11.78125,10.15622 0.0085,-0.1659 0.03125,-0.3321 0.03125,-0.5 0,-5.87283 -5.27848,-10.65622 -11.8125,-10.65622 z m -18.53125,11.15622 c -0.005,0.1694 -0.03125,0.3295 -0.03125,0.5 0,10.2192 9.0617,18.5 20.25,18.5 11.1883,0 20.28125,-8.2808 20.28125,-18.5 0,-0.1705 -0.02622,-0.3306 -0.03125,-0.5 -0.296416,9.9834 -9.248353,18 -20.25,18 -11.001647,0 -19.923342,-8.0166 -20.21875,-18 z m 10.25,0 c -0.01278,0.1688 -0.03125,0.3284 -0.03125,0.5 0,4.1147 3.734627,7.4375 8.3125,7.4375 4.577873,0 8.28125,-3.3228 8.28125,-7.4375 0,-0.1716 -0.01857,-0.3312 -0.03125,-0.5 -0.291286,3.8756 -3.863037,6.9375 -8.25,6.9375 -4.386963,0 -7.98757,-3.0619 -8.28125,-6.9375 z m 48.3125,0.2813 c -0.288337,16.1272 -14.516349,29.125 -32,29.125 -7.987523,0 -15.270047,-2.7043 -20.875,-7.1875 1.948465,1.8522 4.118546,3.5404 6.46875,5.0312 4.327285,2.0289 9.217262,3.1563 14.40625,3.1563 17.663819,0 32,-13.2676 32,-29.625 0,-0.1669 0.003,-0.3338 0,-0.5 z"
       inkscape:connector-curvature="0"
       id="path3787"
       style="opacity:0.2;color:#000000;fill:#000000;fill-opacity:1;fill-rule:nonzero;stroke:none;stroke-width:0.5;marker:none;visibility:visible;display:inline;overflow:visible;enable-background:accumulate" />
    <path
       d="M 55.84375,965.54968 C 31.636958,965.54968 12,982.08253 12,1002.4872 c 1.150794,-15.38871 14.996182,-27.53127 31.90625,-27.53127 17.663819,0 32,13.2363 32,29.59377 0,16.3574 -14.336181,29.625 -32,29.625 -7.987523,0 -15.270047,-2.7043 -20.875,-7.1875 8.029547,7.6327 19.758338,12.4375 32.8125,12.4375 13.816367,0 26.122621,-5.3898 34.15625,-13.8125 l 0,-46.25002 c -8.033536,-8.41826 -20.337525,-13.8125 -34.15625,-13.8125 z m -18.28125,15.8125 c -13.481712,0 -24.40625,10.25873 -24.40625,22.90622 0,12.6476 10.924538,22.875 24.40625,22.875 13.481712,0 24.4375,-10.2274 24.4375,-22.875 0,-12.64749 -10.955788,-22.90622 -24.4375,-22.90622 z m 0,4.375 c 11.1883,0 20.28125,8.31205 20.28125,18.53122 0,10.2192 -9.09295,18.5 -20.28125,18.5 -11.1883,0 -20.25,-8.2808 -20.25,-18.5 0,-10.21917 9.0617,-18.53122 20.25,-18.53122 z m -1.6875,7.875 c -6.53402,0 -11.84375,4.78339 -11.84375,10.65622 0,5.8729 5.30973,10.625 11.84375,10.625 6.53402,0 11.8125,-4.7521 11.8125,-10.625 0,-5.87283 -5.27848,-10.65622 -11.8125,-10.65622 z m 0,3.1875 c 4.577873,0 8.28125,3.35412 8.28125,7.46872 0,4.1147 -3.703377,7.4375 -8.28125,7.4375 -4.577873,0 -8.3125,-3.3228 -8.3125,-7.4375 0,-4.1146 3.734627,-7.46872 8.3125,-7.46872 z"
       inkscape:connector-curvature="0"
       id="path3749"
       style="color:#000000;fill:url(#linearGradient3128);fill-opacity:1;fill-rule:nonzero;stroke:none;stroke-width:0.5;marker:none;visibility:visible;display:inline;overflow:visible;enable-background:accumulate" />
    <path
       d="m 43.90625,974.95593 c -16.748648,0 -30.464764,11.91414 -31.84375,27.09377 -0.02163,0.4765 -0.0625,0.9565 -0.0625,1.4375 1.150794,-15.38871 14.996182,-27.53127 31.90625,-27.53127 17.483651,0 31.711663,12.9672 32,29.09377 0.003,-0.1662 0,-0.3332 0,-0.5 0,-16.35747 -14.336181,-29.59377 -32,-29.59377 z m -6.34375,10.78125 c -11.1883,0 -20.25,8.31205 -20.25,18.53122 0,0.1705 0.02624,0.3306 0.03125,0.5 0.295408,-9.98436 9.217103,-18.03122 20.21875,-18.03122 11.001647,0 19.953584,8.04686 20.25,18.03122 0.005,-0.1694 0.03125,-0.3295 0.03125,-0.5 0,-10.21917 -9.09295,-18.53122 -20.28125,-18.53122 z m -1.6875,11.0625 c -4.577873,0 -8.3125,3.35412 -8.3125,7.46872 0,0.1716 0.01847,0.3314 0.03125,0.5 0.29368,-3.8779 3.894287,-6.96872 8.28125,-6.96872 4.386963,0 7.958714,3.09082 8.25,6.96872 0.01268,-0.1686 0.03125,-0.3284 0.03125,-0.5 0,-4.1146 -3.703377,-7.46872 -8.28125,-7.46872 z m -22.71875,7.96872 c -0.0038,0.1655 0,0.3337 0,0.5 0,12.6475 10.924538,22.8751 24.40625,22.8751 13.481712,0 24.4375,-10.2276 24.4375,-22.8751 0,-0.1663 0.0038,-0.3345 0,-0.5 -0.282884,12.4171 -11.133056,22.3751 -24.4375,22.3751 -13.304444,0 -24.124166,-9.958 -24.40625,-22.3751 z m 10.90625,0 c -0.0086,0.166 -0.03125,0.3322 -0.03125,0.5 0,5.8729 5.30973,10.625 11.84375,10.625 6.53402,0 11.8125,-4.7521 11.8125,-10.625 0,-0.1678 -0.02272,-0.334 -0.03125,-0.5 -0.289904,5.6399 -5.433973,10.125 -11.78125,10.125 -6.347277,0 -11.52091,-4.4851 -11.8125,-10.125 z M 90,1025.6122 c -8.033629,8.4228 -20.339883,13.8125 -34.15625,13.8125 -9.886414,0 -19.00886,-2.7532 -26.34375,-7.4062 -2.3338,-1.0942 -4.50498,-2.4606 -6.46875,-4.0313 8.029547,7.6328 19.758338,12.4375 32.8125,12.4375 13.816367,0 26.122621,-5.3897 34.15625,-13.8125 l 0,-1 z"
       inkscape:connector-curvature="0"
       id="path3798"
       style="opacity:0.4;color:#000000;fill:#ffffff;fill-opacity:1;fill-rule:nonzero;stroke:none;stroke-width:0.5;marker:none;visibility:visible;display:inline;overflow:visible;enable-background:accumulate" />
    <rect
       ry="25"
       rx="25"
       id="rect3003"
       style="opacity:0.15;fill:#ffffff;fill-opacity:1"
       height="92"
       width="92"
       y="958.36218"
       x="-96"
       clip-path="url(#clipPath3009)"
       transform="translate(98,3.8281269e-7)" />
  </g>
</svg>
