<?xml version="1.0" encoding="UTF-8" standalone="no"?>
<!-- Created with Inkscape (http://www.inkscape.org/) -->

<svg
   xmlns:dc="http://purl.org/dc/elements/1.1/"
   xmlns:cc="http://creativecommons.org/ns#"
   xmlns:rdf="http://www.w3.org/1999/02/22-rdf-syntax-ns#"
   xmlns:svg="http://www.w3.org/2000/svg"
   xmlns="http://www.w3.org/2000/svg"
   xmlns:xlink="http://www.w3.org/1999/xlink"
   xmlns:sodipodi="http://sodipodi.sourceforge.net/DTD/sodipodi-0.dtd"
   xmlns:inkscape="http://www.inkscape.org/namespaces/inkscape"
   width="96"
   height="96"
   id="svg11037"
   version="1.1"
   inkscape:version="0.48.3.1 r9886"
   sodipodi:docname="guayadeque.svg">
  <defs
     id="defs11039">
    <linearGradient
       y2="1046.1001"
       x2="47.999954"
       y1="962.62189"
       x1="47.999954"
       gradientTransform="matrix(1.15,0,0,1.15,-7.1999462,-150.65291)"
       gradientUnits="userSpaceOnUse"
       id="linearGradient3886"
       xlink:href="#linearGradient3795"
       inkscape:collect="always" />
    <linearGradient
       id="linearGradient3795">
      <stop
         style="stop-color:#13a6fd;stop-opacity:1;"
         offset="0"
         id="stop3797" />
      <stop
         style="stop-color:#2975b6;stop-opacity:1;"
         offset="1"
         id="stop3799" />
    </linearGradient>
    <linearGradient
       y2="1046.1001"
       x2="47.999954"
       y1="962.62189"
       x1="47.999954"
       gradientTransform="matrix(1.15,0,0,1.15,-7.1999462,-150.65292)"
       gradientUnits="userSpaceOnUse"
       id="linearGradient11642"
       xlink:href="#linearGradient2883"
       inkscape:collect="always" />
    <linearGradient
       x1="48"
       y1="90"
       x2="48"
       y2="5.9877172"
       id="linearGradient3617"
       xlink:href="#linearGradient2883"
       gradientUnits="userSpaceOnUse" />
    <linearGradient
       id="linearGradient2883">
      <stop
         id="stop2885"
         style="stop-color:#0075ab;stop-opacity:1"
         offset="0" />
      <stop
         id="stop2887"
         style="stop-color:#08b1ff;stop-opacity:1"
         offset="1" />
    </linearGradient>
    <linearGradient
       gradientTransform="translate(-94.719555,976.83552)"
       y2="5.9877172"
       x2="48"
       y1="90"
       x1="48"
       gradientUnits="userSpaceOnUse"
       id="linearGradient3062"
       xlink:href="#linearGradient2883"
       inkscape:collect="always" />
    <linearGradient
       x1="56"
       y1="80"
       x2="56"
       y2="32"
       id="linearGradient3798"
       xlink:href="#linearGradient3792"
       gradientUnits="userSpaceOnUse"
       gradientTransform="translate(-1,-1)" />
    <linearGradient
       id="linearGradient3792">
      <stop
         id="stop3794"
         style="stop-color:#b9da5b;stop-opacity:1"
         offset="0" />
      <stop
         id="stop3796"
         style="stop-color:#a3ce27;stop-opacity:1"
         offset="1" />
    </linearGradient>
    <radialGradient
       cx="64"
       cy="28.078852"
       r="14.484375"
       fx="64"
       fy="28.078852"
       id="radialGradient3740"
       xlink:href="#linearGradient3707"
       gradientUnits="userSpaceOnUse"
       gradientTransform="matrix(1.1046386,4.1739132e-8,-8.2847895e-8,2.1925943,-6.6968693,-37.565534)" />
    <linearGradient
       id="linearGradient3707">
      <stop
         id="stop3709"
         style="stop-color:#595553;stop-opacity:1"
         offset="0" />
      <stop
         id="stop3711"
         style="stop-color:#2f2a27;stop-opacity:1"
         offset="1" />
    </linearGradient>
    <radialGradient
       cx="44"
       cy="44"
       r="2"
       fx="44"
       fy="44"
       id="radialGradient3742"
       xlink:href="#linearGradient3719"
       gradientUnits="userSpaceOnUse" />
    <linearGradient
       id="linearGradient3719">
      <stop
         id="stop3721"
         style="stop-color:#ffffff;stop-opacity:1"
         offset="0" />
      <stop
         id="stop3727"
         style="stop-color:#ffffff;stop-opacity:1"
         offset="0.78125" />
      <stop
         id="stop3723"
         style="stop-color:#ffffff;stop-opacity:0"
         offset="1" />
    </linearGradient>
    <clipPath
       clipPathUnits="userSpaceOnUse"
       id="clipPath3009">
      <path
         id="path3011"
         d="m -2,956.36218 -96,0 0,33.5624 96,25.68742 0,-59.24982 z"
         style="opacity:0.15;fill:#ffffff;fill-opacity:1;stroke:none"
         inkscape:connector-curvature="0" />
    </clipPath>
  </defs>
  <sodipodi:namedview
     id="base"
     pagecolor="#ffffff"
     bordercolor="#666666"
     borderopacity="1.0"
     inkscape:pageopacity="0.0"
     inkscape:pageshadow="2"
     inkscape:zoom="3.959798"
     inkscape:cx="33.538031"
     inkscape:cy="59.964634"
     inkscape:document-units="px"
     inkscape:current-layer="layer1"
     showgrid="false"
     inkscape:window-width="1280"
     inkscape:window-height="750"
     inkscape:window-x="0"
     inkscape:window-y="22"
     inkscape:window-maximized="1"
     showguides="true"
     inkscape:guide-bbox="true">
    <sodipodi:guide
       orientation="0,1"
       position="-24.748737,0"
       id="guide11064" />
    <sodipodi:guide
       orientation="0,1"
       position="-23.233509,96"
       id="guide11066" />
    <sodipodi:guide
       orientation="1,0"
       position="0,54.800776"
       id="guide11068" />
    <sodipodi:guide
       orientation="1,0"
       position="96,51.012704"
       id="guide11070" />
    <sodipodi:guide
       orientation="0,1"
       position="-18.94036,48"
       id="guide11072" />
    <sodipodi:guide
       orientation="1,0"
       position="48,79.296975"
       id="guide11074" />
    <sodipodi:guide
       orientation="1,0"
       position="2,75.508903"
       id="guide11076" />
    <sodipodi:guide
       orientation="0,1"
       position="-77.27667,2"
       id="guide11078" />
    <sodipodi:guide
       orientation="1,0"
       position="94,77.781746"
       id="guide11080" />
    <sodipodi:guide
       orientation="0,1"
       position="-65.912454,94"
       id="guide11082" />
  </sodipodi:namedview>
  <metadata
     id="metadata11042">
    <rdf:RDF>
      <cc:Work
         rdf:about="">
        <dc:format>image/svg+xml</dc:format>
        <dc:type
           rdf:resource="http://purl.org/dc/dcmitype/StillImage" />
        <dc:title />
      </cc:Work>
    </rdf:RDF>
  </metadata>
  <g
     inkscape:label="Layer 1"
     inkscape:groupmode="layer"
     id="layer1"
     transform="translate(0,-956.36218)">
    <rect
       x="2"
       y="958.36218"
       width="92"
       height="92"
       style="fill:url(#linearGradient11642);fill-opacity:1.0"
       id="rect3867"
       rx="25"
       ry="25" />
    <g
       transform="translate(0,956.36218)"
       id="g3064">
      <path
         style="color:#000000;fill:#ffffff;fill-opacity:1;fill-rule:nonzero;stroke:none;stroke-width:1.5;marker:none;visibility:visible;display:inline;overflow:visible;enable-background:accumulate"
         id="path3688"
         inkscape:connector-curvature="0"
         d="m 46,12.000006 0,1.158765 0,3.852109 0,9.050892 c -0.562075,0.02611 -1.106567,0.05573 -1.65625,0.125272 -0.134634,0.01696 -0.272425,0.04314 -0.40625,0.06264 -0.04283,0.0063 -0.08225,0.02477 -0.125,0.03132 -0.09534,0.01449 -0.186338,0.04686 -0.28125,0.06264 -0.25099,0.042 -0.502108,0.07444 -0.75,0.125272 -0.281225,0.05731 -0.566747,0.11946 -0.84375,0.187907 -0.614167,0.152479 -1.220998,0.327087 -1.8125,0.532406 -0.06249,0.02169 -0.125283,0.04037 -0.1875,0.06264 -0.05281,0.0189 -0.103634,0.04333 -0.15625,0.06264 -0.442291,0.162297 -0.884712,0.341716 -1.3125,0.532405 -0.298975,0.133414 -0.583609,0.291638 -0.875,0.438451 -0.285195,0.143723 -0.566174,0.28227 -0.84375,0.438452 -0.289202,0.162627 -0.563238,0.356655 -0.84375,0.532405 -0.358897,0.224813 -0.718566,0.44349 -1.0625,0.688996 -0.08043,0.05734 -0.170417,0.09815 -0.25,0.156589 -0.399397,0.293739 -0.779046,0.587559 -1.15625,0.908221 -0.06267,0.05322 -0.12546,0.102652 -0.1875,0.15659 -0.374907,0.326175 -0.742854,0.681834 -1.09375,1.033493 -0.388548,0.389417 -0.767766,0.802529 -1.125,1.221401 -0.124755,0.14616 -0.254213,0.288865 -0.375,0.438451 -0.15477,0.191771 -0.28941,0.397787 -0.4375,0.595041 -0.285736,0.380749 -0.552568,0.758577 -0.8125,1.158765 -0.345977,0.532664 -0.67105,1.095312 -0.96875,1.659852 -0.0873,0.165795 -0.167023,0.332705 -0.25,0.501088 -0.200302,0.406011 -0.388088,0.801095 -0.5625,1.2214 -0.04305,0.103762 -0.08357,0.208584 -0.125,0.31318 -0.429143,1.08241 -0.784826,2.220338 -1.03125,3.38234 -0.01095,0.05163 -0.02068,0.104823 -0.03125,0.15659 -0.0067,0.03279 -0.02474,0.06111 -0.03125,0.09395 -0.062,0.31105 -0.108096,0.623704 -0.15625,0.939539 -0.03876,0.254087 -0.09538,0.494629 -0.125,0.751631 -0.011,0.09551 -0.02153,0.185962 -0.03125,0.281862 -0.0021,0.02114 0.0021,0.04147 0,0.06264 -0.03278,0.333296 -0.04542,0.664496 -0.0625,1.002175 C 26.013102,46.338954 26,46.712626 26,47.076126 c 0,11.623204 9.40202,21.045672 21,21.045672 0.47061,0 0.943203,-0.03233 1.40625,-0.06264 0.125395,-0.0083 0.250216,0.01045 0.375,0 0.360313,-0.02989 0.707543,-0.07746 1.0625,-0.125272 0.117004,-0.0159 0.227366,-0.04481 0.34375,-0.06264 0.347857,-0.05278 0.689225,-0.118251 1.03125,-0.187907 0.319839,-0.06559 0.654388,-0.107925 0.96875,-0.187908 0.0224,-0.0057 0.04013,-0.02557 0.0625,-0.03132 0.156665,-0.0404 0.313522,-0.08137 0.46875,-0.125272 0.282959,-0.07988 0.565838,-0.15911 0.84375,-0.250544 0.08481,-0.02791 0.165669,-0.065 0.25,-0.09395 C 52.744478,68.780719 51.025957,70.129048 49,70.752501 L 49,84 C 59.693021,82.755573 68,73.659952 68,62.60983 68,62.4397 67.97267,62.277925 67.96875,62.108743 l 0.03125,0 0,-15.032623 0,-19.041322 C 68,19.179029 60.836556,12.000006 52,12.000006 l -6,0 z" />
      <path
         style="color:#000000;fill:url(#linearGradient3798);fill-opacity:1;fill-rule:nonzero;stroke:none;stroke-width:1.5;marker:none;visibility:visible;display:inline;overflow:visible;enable-background:accumulate"
         id="rect3784"
         inkscape:connector-curvature="0"
         d="M 46.875,28 C 36.439829,28.068061 28,36.548803 28,47 c 0,10.49341 8.50659,19 19,19 3.65969,0 7.06896,-1.05094 9.96875,-2.84375 -0.24093,3.903513 -2.61182,7.214217 -5.96875,8.8125 l 0,9.46875 C 59.4427,79.442347 65.74138,71.996123 65.96875,63 l 0.0312,0 0,-0.5 0,-15.5 L 66,28 46.875,28 z" />
      <g
         id="g3735"
         transform="translate(-21,-1)">
        <path
           style="color:#000000;fill:url(#radialGradient3740);fill-opacity:1;fill-rule:nonzero;stroke:none;stroke-width:1.5;marker:none;visibility:visible;display:inline;overflow:visible;enable-background:accumulate"
           id="path3684"
           inkscape:connector-curvature="0"
           d="M 69,15 69,15.3125 69,29 69,38.0625 C 68.673691,38.030367 68.334756,38 68,38 c -5.522848,0 -10,4.477152 -10,10 0,5.522848 4.477152,10 10,10 5.522848,0 10,-4.477152 10,-10 l 0,-19 8.96875,0 C 86.451319,21.184721 79.94627,15 72,15 l -3,0 z" />
        <path
           inkscape:connector-curvature="0"
           style="color:#000000;fill:url(#radialGradient3742);fill-opacity:1;fill-rule:nonzero;stroke:none;stroke-width:1.5;marker:none;visibility:visible;display:inline;overflow:visible;enable-background:accumulate"
           id="path3717"
           transform="matrix(1.25,0,0,1.25,9.5,-10.5)"
           d="m 46,44 a 2,2 0 1 1 -4,0 2,2 0 1 1 4,0 z" />
        <path
           style="opacity:0.1;color:#000000;fill:#ffffff;fill-opacity:1;fill-rule:nonzero;stroke:none;stroke-width:1.5;marker:none;visibility:visible;display:inline;overflow:visible;enable-background:accumulate"
           id="path3729"
           inkscape:connector-curvature="0"
           d="m 64.625714,41.5 c 1.597146,0.06742 2.875,1.386269 2.875,3 0,1.656854 -1.343146,3 -3,3 -1.613731,0 -2.932582,-1.277854 -3,-2.875 -0.0016,0.04196 0,0.08265 0,0.125 0,1.794925 1.455075,3.25 3.25,3.25 1.794925,0 3.25,-1.455075 3.25,-3.25 0,-1.794925 -1.455075,-3.25 -3.25,-3.25 -0.04235,0 -0.08304,-0.0016 -0.125,0 z" />
      </g>
    </g>
    <rect
       ry="25"
       rx="25"
       id="rect3003"
       style="opacity:0.15;fill:#ffffff;fill-opacity:1"
       height="92"
       width="92"
       y="958.36218"
       x="-96"
       clip-path="url(#clipPath3009)"
       transform="translate(98,3.8281269e-7)" />
  </g>
</svg>
