<?xml version="1.0" encoding="UTF-8" standalone="no"?>
<!-- Created with Inkscape (http://www.inkscape.org/) -->

<svg
   xmlns:dc="http://purl.org/dc/elements/1.1/"
   xmlns:cc="http://creativecommons.org/ns#"
   xmlns:rdf="http://www.w3.org/1999/02/22-rdf-syntax-ns#"
   xmlns:svg="http://www.w3.org/2000/svg"
   xmlns="http://www.w3.org/2000/svg"
   xmlns:xlink="http://www.w3.org/1999/xlink"
   xmlns:sodipodi="http://sodipodi.sourceforge.net/DTD/sodipodi-0.dtd"
   xmlns:inkscape="http://www.inkscape.org/namespaces/inkscape"
   width="96"
   height="96"
   id="svg11037"
   version="1.1"
   inkscape:version="0.48.3.1 r9886"
   sodipodi:docname="haguichi.svg">
  <defs
     id="defs11039">
    <linearGradient
       y2="1046.1001"
       x2="47.999954"
       y1="962.62189"
       x1="47.999954"
       gradientTransform="matrix(1.15,0,0,1.15,-7.1999462,-150.65291)"
       gradientUnits="userSpaceOnUse"
       id="linearGradient3886"
       xlink:href="#linearGradient3795"
       inkscape:collect="always" />
    <linearGradient
       id="linearGradient3795">
      <stop
         style="stop-color:#13a6fd;stop-opacity:1;"
         offset="0"
         id="stop3797" />
      <stop
         style="stop-color:#2975b6;stop-opacity:1;"
         offset="1"
         id="stop3799" />
    </linearGradient>
    <linearGradient
       y2="1046.1001"
       x2="47.999954"
       y1="962.62189"
       x1="47.999954"
       gradientTransform="matrix(1.15,0,0,1.15,-7.1999462,-150.65292)"
       gradientUnits="userSpaceOnUse"
       id="linearGradient11642"
       xlink:href="#linearGradient4626"
       inkscape:collect="always" />
    <linearGradient
       x1="48"
       y1="168"
       x2="48"
       y2="5.9877172"
       id="linearGradient3617"
       xlink:href="#linearGradient4626"
       gradientUnits="userSpaceOnUse" />
    <linearGradient
       id="linearGradient4626">
      <stop
         id="stop4628"
         style="stop-color:#e51d00;stop-opacity:1"
         offset="0" />
      <stop
         id="stop4630"
         style="stop-color:#ffb982;stop-opacity:1"
         offset="1" />
    </linearGradient>
    <linearGradient
       gradientTransform="translate(-110.98097,944.33681)"
       y2="5.9877172"
       x2="48"
       y1="168"
       x1="48"
       gradientUnits="userSpaceOnUse"
       id="linearGradient3203"
       xlink:href="#linearGradient4626"
       inkscape:collect="always" />
    <clipPath
       id="clipPath3048">
      <path
         d="m 183.125,39.999997 c -8.96279,0.194681 -17.93104,3.375233 -25.25,9.6875 -23.53757,20.3001 -5.2557,41.39142 -25.78125,59.093753 -20.52553,17.70235 -38.712424,-3.45634 -62.25,16.84375 l 0,0.0312 c -5.227828,4.50877 -9.000122,10.09182 -11.28125,16.125 -0.01509,0.0396 -0.01629,0.0853 -0.03125,0.125 -0.459382,1.22692 -0.851924,2.45857 -1.1875,3.71875 -0.148988,0.55949 -0.31302,1.12286 -0.4375,1.6875 -0.01373,0.0617 -0.01782,0.12571 -0.03125,0.1875 -0.256611,1.1909 -0.44644,2.38641 -0.59375,3.59375 -0.0013,0.0103 0.0012,0.0209 0,0.0312 -0.0077,0.0629 -0.02383,0.12461 -0.03125,0.1875 -0.06548,0.56236 -0.114559,1.12297 -0.15625,1.6875 -0.03193,0.42446 -0.07534,0.85633 -0.09375,1.28125 -0.0091,0.2163 -0.02562,0.4398 -0.03125,0.65625 -0.002,0.0721 0.0016,0.14664 0,0.21875 -0.01164,0.56641 -0.01231,1.12077 0,1.6875 0.006,0.28991 0.01903,0.58534 0.03125,0.875 0.01841,0.42492 0.06182,0.85679 0.09375,1.28125 0.04729,0.62871 0.110483,1.24824 0.1875,1.875 0.0012,0.0103 -0.0013,0.0209 0,0.0312 0.14731,1.20734 0.337139,2.40285 0.59375,3.59375 0.01342,0.0623 0.01754,0.1253 0.03125,0.1875 0.126314,0.56806 0.285968,1.12391 0.4375,1.6875 0.335576,1.26018 0.728118,2.49183 1.1875,3.71875 0.01503,0.0402 0.01608,0.0849 0.03125,0.125 2.281128,6.03318 6.053422,11.61623 11.28125,16.125 l 0,0.0312 c 23.537576,20.30009 41.72447,-0.8586 62.25,16.84375 20.52555,17.70233 2.24368,38.79365 25.78125,59.09375 16.72906,14.42804 41.97821,12.54155 56.40625,-4.1875 14.42805,-16.72905 12.57279,-41.9782 -4.15625,-56.40625 -23.53758,-20.30008 -41.72445,0.88984 -62.25,-16.8125 -10.3687,-8.94254 -10.82293,-18.7728 -11.78125,-28.90625 0.95832,-10.13345 1.41255,-19.96371 11.78125,-28.90625 20.52555,-17.70234 38.71242,3.48758 62.25,-16.8125 16.72904,-14.427853 18.5843,-39.677003 4.15625,-56.406053 -8.11577,-9.410091 -19.63266,-14.125304 -31.15625,-13.875 z"
         inkscape:connector-curvature="0"
         id="path3050"
         style="color:#000000;fill:#808080;fill-opacity:1;fill-rule:evenodd;stroke:none;stroke-width:1;marker:none;visibility:visible;display:inline;overflow:visible;enable-background:accumulate" />
    </clipPath>
    <linearGradient
       x1="127.99561"
       y1="241.00548"
       x2="127.99561"
       y2="85.001923"
       id="linearGradient3698"
       xlink:href="#linearGradient6204"
       gradientUnits="userSpaceOnUse" />
    <linearGradient
       id="linearGradient6204">
      <stop
         id="stop6206"
         style="stop-color:#e51d00;stop-opacity:1"
         offset="0" />
      <stop
         id="stop6208"
         style="stop-color:#ffb276;stop-opacity:1"
         offset="1" />
    </linearGradient>
    <linearGradient
       x1="163.98305"
       y1="237.51372"
       x2="163.98305"
       y2="71.56794"
       id="linearGradient3701"
       xlink:href="#linearGradient7079"
       gradientUnits="userSpaceOnUse" />
    <linearGradient
       id="linearGradient7079">
      <stop
         id="stop7081"
         style="stop-color:#830000;stop-opacity:1"
         offset="0" />
      <stop
         id="stop7083"
         style="stop-color:#830000;stop-opacity:0.53418803"
         offset="1" />
    </linearGradient>
    <filter
       color-interpolation-filters="sRGB"
       id="filter3887">
      <feGaussianBlur
         id="feGaussianBlur3889"
         stdDeviation="5.0007327" />
    </filter>
    <linearGradient
       x1="151.12161"
       y1="181.93436"
       x2="158.48705"
       y2="216.4223"
       id="linearGradient3703"
       xlink:href="#linearGradient6339-5"
       gradientUnits="userSpaceOnUse" />
    <linearGradient
       id="linearGradient6339-5">
      <stop
         id="stop6341-6"
         style="stop-color:#ffffff;stop-opacity:0.5614754"
         offset="0" />
      <stop
         id="stop6343-5"
         style="stop-color:#ffffff;stop-opacity:0.06967213"
         offset="1" />
    </linearGradient>
    <filter
       x="-0.064854279"
       y="-0.10983773"
       width="1.1297086"
       height="1.2196755"
       color-interpolation-filters="sRGB"
       id="filter6949">
      <feGaussianBlur
         id="feGaussianBlur6951"
         stdDeviation="1.6398196" />
    </filter>
    <linearGradient
       x1="151.12161"
       y1="181.93436"
       x2="158.48705"
       y2="216.4223"
       id="linearGradient3705"
       xlink:href="#linearGradient6339"
       gradientUnits="userSpaceOnUse"
       gradientTransform="matrix(0.9948112,0,0,1.3480804,26.818769,-49.113795)" />
    <linearGradient
       id="linearGradient6339">
      <stop
         id="stop6341"
         style="stop-color:#ffffff;stop-opacity:0.34836066"
         offset="0" />
      <stop
         id="stop6343"
         style="stop-color:#ffffff;stop-opacity:0.05327869"
         offset="1" />
    </linearGradient>
    <radialGradient
       cx="48.517979"
       cy="147.86067"
       r="6.4842696"
       fx="48.517979"
       fy="147.86067"
       id="radialGradient3707"
       xlink:href="#linearGradient4531-4-9-8-6"
       gradientUnits="userSpaceOnUse"
       gradientTransform="matrix(1,0,0,1.0251256,0,-3.7150941)" />
    <linearGradient
       id="linearGradient4531-4-9-8-6">
      <stop
         id="stop4533-3-2-61-5"
         style="stop-color:#ffffff;stop-opacity:1"
         offset="0" />
      <stop
         id="stop4535-5-7-3-4"
         style="stop-color:#ffffff;stop-opacity:0"
         offset="1" />
    </linearGradient>
    <linearGradient
       x1="148.6245"
       y1="257.95572"
       x2="148.6245"
       y2="211.63667"
       id="linearGradient3709"
       xlink:href="#linearGradient4196"
       gradientUnits="userSpaceOnUse" />
    <linearGradient
       id="linearGradient4196">
      <stop
         id="stop4198"
         style="stop-color:#ffffff;stop-opacity:1"
         offset="0" />
      <stop
         id="stop4200"
         style="stop-color:#ffffff;stop-opacity:0"
         offset="1" />
    </linearGradient>
    <filter
       x="-0.24217039"
       y="-0.24217039"
       width="1.4843408"
       height="1.4843408"
       color-interpolation-filters="sRGB"
       id="filter4228">
      <feGaussianBlur
         id="feGaussianBlur4230"
         stdDeviation="7.2651119" />
    </filter>
    <linearGradient
       x1="151.12161"
       y1="181.93436"
       x2="158.48705"
       y2="216.4223"
       id="linearGradient3711"
       xlink:href="#linearGradient6339-5"
       gradientUnits="userSpaceOnUse" />
    <linearGradient
       id="linearGradient3248">
      <stop
         id="stop3250"
         style="stop-color:#ffffff;stop-opacity:0.5614754"
         offset="0" />
      <stop
         id="stop3252"
         style="stop-color:#ffffff;stop-opacity:0.06967213"
         offset="1" />
    </linearGradient>
    <filter
       x="-0.071736291"
       y="-0.13192882"
       width="1.1434726"
       height="1.2638576"
       color-interpolation-filters="sRGB"
       id="filter4150">
      <feGaussianBlur
         id="feGaussianBlur4152"
         stdDeviation="1.7126233" />
    </filter>
    <radialGradient
       cx="48.517979"
       cy="147.86067"
       r="6.4842696"
       fx="48.517979"
       fy="147.86067"
       id="radialGradient3713"
       xlink:href="#linearGradient4531-4-9-8-6"
       gradientUnits="userSpaceOnUse"
       gradientTransform="matrix(1,0,0,1.0251256,0,-3.7150941)" />
    <linearGradient
       id="linearGradient3257">
      <stop
         id="stop3259"
         style="stop-color:#ffffff;stop-opacity:1"
         offset="0" />
      <stop
         id="stop3261"
         style="stop-color:#ffffff;stop-opacity:0"
         offset="1" />
    </linearGradient>
    <radialGradient
       cx="48.517979"
       cy="147.86067"
       r="6.4842696"
       fx="48.517979"
       fy="147.86067"
       id="radialGradient3715"
       xlink:href="#linearGradient4531-7-3"
       gradientUnits="userSpaceOnUse"
       gradientTransform="matrix(1,0,0,1.0251256,0,-3.7150941)" />
    <linearGradient
       id="linearGradient4531-7-3">
      <stop
         id="stop4533-6-0"
         style="stop-color:#ffffff;stop-opacity:1"
         offset="0" />
      <stop
         id="stop4535-9-5"
         style="stop-color:#ffffff;stop-opacity:0"
         offset="1" />
    </linearGradient>
    <linearGradient
       x1="151.12161"
       y1="181.93436"
       x2="158.48705"
       y2="216.4223"
       id="linearGradient3717"
       xlink:href="#linearGradient6339"
       gradientUnits="userSpaceOnUse" />
    <linearGradient
       id="linearGradient3268">
      <stop
         id="stop3270"
         style="stop-color:#ffffff;stop-opacity:0.34836066"
         offset="0" />
      <stop
         id="stop3272"
         style="stop-color:#ffffff;stop-opacity:0.05327869"
         offset="1" />
    </linearGradient>
    <linearGradient
       x1="148.6245"
       y1="257.95572"
       x2="148.6245"
       y2="211.63667"
       id="linearGradient3719"
       xlink:href="#linearGradient4196"
       gradientUnits="userSpaceOnUse" />
    <linearGradient
       id="linearGradient3275">
      <stop
         id="stop3277"
         style="stop-color:#ffffff;stop-opacity:1"
         offset="0" />
      <stop
         id="stop3279"
         style="stop-color:#ffffff;stop-opacity:0"
         offset="1" />
    </linearGradient>
    <filter
       x="-0.24217039"
       y="-0.24217039"
       width="1.4843408"
       height="1.4843408"
       color-interpolation-filters="sRGB"
       id="filter3281">
      <feGaussianBlur
         id="feGaussianBlur3283"
         stdDeviation="7.2651119" />
    </filter>
    <linearGradient
       x1="151.12161"
       y1="181.93436"
       x2="158.48705"
       y2="216.4223"
       id="linearGradient3722"
       xlink:href="#linearGradient6339-5-3"
       gradientUnits="userSpaceOnUse" />
    <linearGradient
       id="linearGradient6339-5-3">
      <stop
         id="stop6341-6-5"
         style="stop-color:#ffffff;stop-opacity:0.5614754"
         offset="0" />
      <stop
         id="stop6343-5-1"
         style="stop-color:#ffffff;stop-opacity:0.06967213"
         offset="1" />
    </linearGradient>
    <filter
       x="-0.064707279"
       y="-0.11014189"
       width="1.1294146"
       height="1.2202837"
       color-interpolation-filters="sRGB"
       id="filter6953-2">
      <feGaussianBlur
         id="feGaussianBlur6955-9"
         stdDeviation="1.8985975" />
    </filter>
    <linearGradient
       x1="151.12161"
       y1="181.93436"
       x2="158.48705"
       y2="216.4223"
       id="linearGradient3724"
       xlink:href="#linearGradient6339-8"
       gradientUnits="userSpaceOnUse"
       gradientTransform="matrix(0.9948112,0,0,1.3480804,-57.181231,-125.1138)" />
    <linearGradient
       id="linearGradient6339-8">
      <stop
         id="stop6341-8"
         style="stop-color:#ffffff;stop-opacity:0.34836066"
         offset="0" />
      <stop
         id="stop6343-6"
         style="stop-color:#ffffff;stop-opacity:0.05327869"
         offset="1" />
    </linearGradient>
    <radialGradient
       cx="48.517979"
       cy="147.86067"
       r="6.4842696"
       fx="48.517979"
       fy="147.86067"
       id="radialGradient3726"
       xlink:href="#linearGradient4531-4-9-8-6-1"
       gradientUnits="userSpaceOnUse"
       gradientTransform="matrix(1,0,0,1.0251256,0,-3.7150941)" />
    <linearGradient
       id="linearGradient4531-4-9-8-6-1">
      <stop
         id="stop4533-3-2-61-5-3"
         style="stop-color:#ffffff;stop-opacity:1"
         offset="0" />
      <stop
         id="stop4535-5-7-3-4-1"
         style="stop-color:#ffffff;stop-opacity:0"
         offset="1" />
    </linearGradient>
    <radialGradient
       cx="48.517979"
       cy="147.86067"
       r="6.4842696"
       fx="48.517979"
       fy="147.86067"
       id="radialGradient3728"
       xlink:href="#linearGradient4531-7-3-5"
       gradientUnits="userSpaceOnUse"
       gradientTransform="matrix(1,0,0,1.0251256,0,-3.7150941)" />
    <linearGradient
       id="linearGradient4531-7-3-5">
      <stop
         id="stop4533-6-0-3"
         style="stop-color:#ffffff;stop-opacity:1"
         offset="0" />
      <stop
         id="stop4535-9-5-1"
         style="stop-color:#ffffff;stop-opacity:0"
         offset="1" />
    </linearGradient>
    <radialGradient
       cx="127.46043"
       cy="213.20551"
       r="50.235741"
       fx="127.46043"
       fy="213.20551"
       id="radialGradient3730"
       xlink:href="#linearGradient4542-1"
       gradientUnits="userSpaceOnUse"
       gradientTransform="matrix(0.92064317,0,0,0.9206435,11.626249,24.41241)" />
    <linearGradient
       id="linearGradient4542-1">
      <stop
         id="stop4544-4"
         style="stop-color:#ce3100;stop-opacity:0"
         offset="0" />
      <stop
         id="stop4546-5"
         style="stop-color:#ce2b00;stop-opacity:0"
         offset="0.48237395" />
      <stop
         id="stop4548-7"
         style="stop-color:#ce2b00;stop-opacity:1"
         offset="0.77066672" />
      <stop
         id="stop4550-2"
         style="stop-color:#ce3100;stop-opacity:0"
         offset="1" />
    </linearGradient>
    <filter
       x="-0.108"
       y="-0.108"
       width="1.216"
       height="1.216"
       color-interpolation-filters="sRGB"
       id="filter4568-6">
      <feGaussianBlur
         id="feGaussianBlur4570-4"
         stdDeviation="3.24" />
    </filter>
    <linearGradient
       x1="148.6245"
       y1="257.95572"
       x2="148.6245"
       y2="211.63667"
       id="linearGradient3732"
       xlink:href="#linearGradient4196-6"
       gradientUnits="userSpaceOnUse" />
    <linearGradient
       id="linearGradient4196-6">
      <stop
         id="stop4198-4"
         style="stop-color:#ffffff;stop-opacity:1"
         offset="0" />
      <stop
         id="stop4200-9"
         style="stop-color:#ffffff;stop-opacity:0"
         offset="1" />
    </linearGradient>
    <filter
       x="-0.31724551"
       y="-0.31724551"
       width="1.634491"
       height="1.634491"
       color-interpolation-filters="sRGB"
       id="filter7119-7">
      <feGaussianBlur
         id="feGaussianBlur7121-7"
         stdDeviation="9.5173656" />
    </filter>
    <radialGradient
       cx="127.46043"
       cy="213.20551"
       r="50.235741"
       fx="127.46043"
       fy="213.20551"
       id="radialGradient3734"
       xlink:href="#linearGradient7069-1"
       gradientUnits="userSpaceOnUse"
       gradientTransform="matrix(0.92064317,0,0,0.9206435,11.626249,24.41241)" />
    <linearGradient
       id="linearGradient7069-1">
      <stop
         id="stop7071-5"
         style="stop-color:#ed4700;stop-opacity:0"
         offset="0" />
      <stop
         id="stop7073-1"
         style="stop-color:#ff540d;stop-opacity:0"
         offset="0.48237395" />
      <stop
         id="stop7075-8"
         style="stop-color:#dc4100;stop-opacity:0.22277227"
         offset="0.77066672" />
      <stop
         id="stop7077-9"
         style="stop-color:#ff6a0d;stop-opacity:0"
         offset="1" />
    </linearGradient>
    <filter
       x="-0.108"
       y="-0.108"
       width="1.216"
       height="1.216"
       color-interpolation-filters="sRGB"
       id="filter4568-8-3">
      <feGaussianBlur
         id="feGaussianBlur4570-2-1"
         stdDeviation="3.24" />
    </filter>
    <linearGradient
       x1="138.39597"
       y1="239.3078"
       x2="138.39597"
       y2="81.001907"
       id="linearGradient3736"
       xlink:href="#linearGradient6212"
       gradientUnits="userSpaceOnUse" />
    <linearGradient
       id="linearGradient6212">
      <stop
         id="stop6214"
         style="stop-color:#721800;stop-opacity:1"
         offset="0" />
      <stop
         id="stop6216"
         style="stop-color:#b75924;stop-opacity:1"
         offset="1" />
    </linearGradient>
    <filter
       color-interpolation-filters="sRGB"
       id="filter3824">
      <feGaussianBlur
         id="feGaussianBlur3826"
         stdDeviation="1.0001465" />
    </filter>
    <linearGradient
       y2="81.001907"
       x2="138.39597"
       y1="239.3078"
       x1="138.39597"
       gradientUnits="userSpaceOnUse"
       id="linearGradient3352"
       xlink:href="#linearGradient6212"
       inkscape:collect="always" />
    <clipPath
       clipPathUnits="userSpaceOnUse"
       id="clipPath3009">
      <path
         id="path3011"
         d="m -2,956.36218 -96,0 0,33.5624 96,25.68742 0,-59.24982 z"
         style="opacity:0.15;fill:#ffffff;fill-opacity:1;stroke:none"
         inkscape:connector-curvature="0" />
    </clipPath>
  </defs>
  <sodipodi:namedview
     id="base"
     pagecolor="#ffffff"
     bordercolor="#666666"
     borderopacity="1.0"
     inkscape:pageopacity="0.0"
     inkscape:pageshadow="2"
     inkscape:zoom="3.959798"
     inkscape:cx="33.538031"
     inkscape:cy="59.964634"
     inkscape:document-units="px"
     inkscape:current-layer="layer1"
     showgrid="false"
     inkscape:window-width="1280"
     inkscape:window-height="750"
     inkscape:window-x="0"
     inkscape:window-y="22"
     inkscape:window-maximized="1"
     showguides="true"
     inkscape:guide-bbox="true">
    <sodipodi:guide
       orientation="0,1"
       position="-24.748737,0"
       id="guide11064" />
    <sodipodi:guide
       orientation="0,1"
       position="-23.233509,96"
       id="guide11066" />
    <sodipodi:guide
       orientation="1,0"
       position="0,54.800776"
       id="guide11068" />
    <sodipodi:guide
       orientation="1,0"
       position="96,51.012704"
       id="guide11070" />
    <sodipodi:guide
       orientation="0,1"
       position="-18.94036,48"
       id="guide11072" />
    <sodipodi:guide
       orientation="1,0"
       position="48,79.296975"
       id="guide11074" />
    <sodipodi:guide
       orientation="1,0"
       position="2,75.508903"
       id="guide11076" />
    <sodipodi:guide
       orientation="0,1"
       position="-77.27667,2"
       id="guide11078" />
    <sodipodi:guide
       orientation="1,0"
       position="94,77.781746"
       id="guide11080" />
    <sodipodi:guide
       orientation="0,1"
       position="-65.912454,94"
       id="guide11082" />
  </sodipodi:namedview>
  <metadata
     id="metadata11042">
    <rdf:RDF>
      <cc:Work
         rdf:about="">
        <dc:format>image/svg+xml</dc:format>
        <dc:type
           rdf:resource="http://purl.org/dc/dcmitype/StillImage" />
        <dc:title />
      </cc:Work>
    </rdf:RDF>
  </metadata>
  <g
     inkscape:label="Layer 1"
     inkscape:groupmode="layer"
     id="layer1"
     transform="translate(0,-956.36218)">
    <rect
       x="2"
       y="958.36218"
       width="92"
       height="92"
       style="fill:url(#linearGradient11642);fill-opacity:1.0"
       id="rect3867"
       rx="25"
       ry="25" />
    <g
       style="display:inline"
       transform="matrix(0.28445484,0,0,0.28445484,8.1826684,959.98668)"
       clip-path="url(#clipPath3048)"
       id="g4283">
      <path
         d="m 183.125,40 c -8.96279,0.194681 -17.93104,3.375233 -25.25,9.6875 -23.53757,20.3001 -5.2557,41.39142 -25.78125,59.09375 -20.52553,17.70235 -38.71242,-3.45634 -62.25,16.84375 l 0,0.0312 c -5.227828,4.50877 -9.000122,10.09182 -11.28125,16.125 -0.01509,0.0396 -0.01629,0.0853 -0.03125,0.125 -0.459382,1.22692 -0.851924,2.45857 -1.1875,3.71875 -0.148988,0.55949 -0.31302,1.12286 -0.4375,1.6875 -0.01373,0.0617 -0.01782,0.12571 -0.03125,0.1875 -0.256611,1.1909 -0.44644,2.38641 -0.59375,3.59375 -0.0013,0.0103 0.0012,0.0209 0,0.0312 -0.0077,0.0629 -0.02383,0.12461 -0.03125,0.1875 -0.06548,0.56236 -0.114559,1.12297 -0.15625,1.6875 -0.03193,0.42446 -0.07534,0.85633 -0.09375,1.28125 -0.0091,0.2163 -0.02562,0.4398 -0.03125,0.65625 -0.002,0.0721 0.0016,0.14664 0,0.21875 -0.01164,0.56641 -0.01231,1.12077 0,1.6875 0.006,0.28991 0.01903,0.58534 0.03125,0.875 0.01841,0.42492 0.06182,0.85679 0.09375,1.28125 0.04729,0.62871 0.110483,1.24824 0.1875,1.875 0.0012,0.0103 -0.0013,0.0209 0,0.0312 0.14731,1.20734 0.337139,2.40285 0.59375,3.59375 0.01342,0.0623 0.01754,0.1253 0.03125,0.1875 0.126314,0.56806 0.285968,1.12391 0.4375,1.6875 0.335576,1.26018 0.728118,2.49183 1.1875,3.71875 0.01503,0.0402 0.01608,0.0849 0.03125,0.125 2.281128,6.03318 6.053422,11.61623 11.28125,16.125 l 0,0.0312 c 23.53758,20.30009 41.72447,-0.8586 62.25,16.84375 20.52555,17.70233 2.24368,38.79365 25.78125,59.09375 16.72906,14.42804 41.97821,12.54155 56.40625,-4.1875 14.42805,-16.72905 12.57279,-41.9782 -4.15625,-56.40625 -23.53758,-20.30008 -41.72445,0.88984 -62.25,-16.8125 -10.3687,-8.94254 -10.82293,-18.7728 -11.78125,-28.90625 0.95832,-10.13345 1.41255,-19.96371 11.78125,-28.90625 20.52555,-17.70234 38.71242,3.48758 62.25,-16.8125 C 226.85404,95.8532 228.7093,70.60405 214.28125,53.875 206.16548,44.464909 194.64859,39.749696 183.125,40 z"
         inkscape:connector-curvature="0"
         id="path3984-0-3-4-7"
         style="color:#000000;fill:url(#linearGradient3698);fill-opacity:1;fill-rule:evenodd;stroke:none;stroke-width:1;marker:none;visibility:visible;display:inline;overflow:visible;enable-background:accumulate" />
      <path
         d="m 181.16699,37.984941 c -8.96279,0.194681 -17.93104,3.375233 -25.25,9.6875 -23.53757,20.3001 -5.2557,41.39142 -25.78125,59.093749 -20.52553,17.70235 -38.712422,-3.45634 -62.249998,16.84375 l 0,0.0312 c -5.227828,4.50877 -9.000122,10.09182 -11.28125,16.125 -0.01509,0.0396 -0.01629,0.0853 -0.03125,0.125 -0.459382,1.22692 -0.851924,2.45857 -1.1875,3.71875 -0.148988,0.55949 -0.31302,1.12286 -0.4375,1.6875 -0.01373,0.0617 -0.01782,0.12571 -0.03125,0.1875 -0.256611,1.1909 -0.44644,2.38641 -0.59375,3.59375 -0.0013,0.0103 0.0012,0.0209 0,0.0312 -0.0077,0.0629 -0.02383,0.12461 -0.03125,0.1875 -0.06548,0.56236 -0.114559,1.12297 -0.15625,1.6875 -0.03193,0.42446 -0.07534,0.85633 -0.09375,1.28125 -0.0091,0.2163 -0.02562,0.4398 -0.03125,0.65625 -0.002,0.0721 0.0016,0.14664 0,0.21875 -0.01164,0.56641 -0.01231,1.12077 0,1.6875 0.006,0.28991 0.01903,0.58534 0.03125,0.875 0.01841,0.42492 0.06182,0.85679 0.09375,1.28125 0.04729,0.62871 0.110483,1.24824 0.1875,1.875 0.0012,0.0103 -0.0013,0.0209 0,0.0312 0.14731,1.20734 0.337139,2.40285 0.59375,3.59375 0.01342,0.0623 0.01754,0.1253 0.03125,0.1875 0.126314,0.56806 0.285968,1.12391 0.4375,1.6875 0.335576,1.26018 0.728118,2.49183 1.1875,3.71875 0.01503,0.0402 0.01608,0.0849 0.03125,0.125 2.281128,6.03318 6.053422,11.61623 11.28125,16.125 l 0,0.0312 c 23.537576,20.30009 41.724468,-0.8586 62.249998,16.84375 20.52555,17.70233 2.24368,38.79365 25.78125,59.09375 16.72906,14.42804 41.97821,12.54155 56.40625,-4.1875 14.42805,-16.72905 12.57279,-41.9782 -4.15625,-56.40625 -23.53758,-20.30008 -41.72445,0.88984 -62.25,-16.8125 -10.3687,-8.94254 -10.82293,-18.7728 -11.78125,-28.90625 0.95832,-10.13345 1.41255,-19.96371 11.78125,-28.90625 20.52555,-17.70234 38.71242,3.48758 62.25,-16.8125 16.72904,-14.427849 18.5843,-39.676999 4.15625,-56.406049 -8.11577,-9.410091 -19.63266,-14.125304 -31.15625,-13.875 z"
         inkscape:connector-curvature="0"
         id="path3984-0-3-4-7-0-9"
         style="color:#000000;fill:none;stroke:url(#linearGradient3701);stroke-width:14.06198597;stroke-miterlimit:4;stroke-opacity:1;stroke-dasharray:none;marker:none;visibility:visible;display:inline;overflow:visible;filter:url(#filter3887);enable-background:accumulate" />
      <path
         d="m 185.14189,197.40202 c 0,8.60333 -12.82644,15.57771 -28.64865,15.57771 -15.82221,0 -28.64865,-6.97438 -28.64865,-15.57771 0,-4.30166 7.15451,-5.8021 -3.38593,-20.25303 16.00111,8.17082 24.12347,4.67533 32.03458,4.67533 15.82221,0 28.64865,6.97438 28.64865,15.5777 z"
         inkscape:connector-curvature="0"
         transform="matrix(1.1518866,0,0,1.6048575,1.7375254,-95.802114)"
         id="path6337-8"
         style="fill:url(#linearGradient3703);fill-opacity:1;stroke:none;display:inline;filter:url(#filter6949);enable-background:new" />
      <path
         d="m 210.99999,217 c 0,11.59798 -12.75988,21 -28.49999,21 -15.74011,0 -29.4949,-9.44477 -28.5,-21 0.73736,-8.56411 6.03068,-13.09265 -8.35336,-26.87919 18.29348,11.60885 28.9833,5.8792 36.85336,5.8792 15.74011,0 28.49999,9.40202 28.49999,20.99999 z"
         inkscape:connector-curvature="0"
         id="path6337"
         style="fill:url(#linearGradient3705);fill-opacity:1;stroke:none" />
      <path
         inkscape:connector-curvature="0"
         d="m 55.002248,147.86067 a 6.4842696,6.647191 0 1 1 -12.968539,0 6.4842696,6.647191 0 1 1 12.968539,0 z"
         transform="matrix(1.6483891,0,0,1.6079872,87.407712,-37.441077)"
         id="path4529-0-7-3-2"
         style="opacity:0.66803278;fill:url(#radialGradient3707);fill-opacity:1;stroke:none;display:inline;enable-background:new" />
      <path
         inkscape:connector-curvature="0"
         d="m 168,232 a 36,36 0 1 1 -72,0 36,36 0 1 1 72,0 z"
         transform="matrix(0.57638888,0,0,0.32638888,107.91669,175.52779)"
         id="path3785-66-5-6"
         style="opacity:0.34836067;color:#000000;fill:url(#linearGradient3709);fill-opacity:1;fill-rule:evenodd;stroke:none;stroke-width:1;marker:none;visibility:visible;display:inline;overflow:visible;filter:url(#filter4228);enable-background:accumulate" />
      <path
         inkscape:connector-curvature="0"
         d="m 185.14189,197.40202 a 28.64865,15.577704 0 1 1 -57.2973,0 28.64865,15.577704 0 1 1 57.2973,0 z"
         transform="matrix(1.0646226,0,0,1.4122745,17.393759,-212.78584)"
         id="path6911"
         style="fill:url(#linearGradient3711);fill-opacity:1;stroke:none;display:inline;filter:url(#filter4150);enable-background:new" />
      <path
         inkscape:connector-curvature="0"
         d="m 55.002248,147.86067 a 6.4842696,6.647191 0 1 1 -12.968539,0 6.4842696,6.647191 0 1 1 12.968539,0 z"
         transform="matrix(1.6483891,0,0,1.6079872,91.407712,-187.44108)"
         id="path6915"
         style="opacity:0.66803278;fill:url(#radialGradient3713);fill-opacity:1;stroke:none;display:inline;enable-background:new" />
      <path
         inkscape:connector-curvature="0"
         d="m 55.002248,147.86067 a 6.4842696,6.647191 0 1 1 -12.968539,0 6.4842696,6.647191 0 1 1 12.968539,0 z"
         transform="matrix(0.80660584,0,0,0.78683604,132.63487,-66.111856)"
         id="path6913"
         style="opacity:0.69672134;fill:url(#radialGradient3715);fill-opacity:1;stroke:none;display:inline;enable-background:new" />
      <path
         inkscape:connector-curvature="0"
         d="m 185.14189,197.40202 a 28.64865,15.577704 0 1 1 -57.2973,0 28.64865,15.577704 0 1 1 57.2973,0 z"
         transform="matrix(0.85269496,0,0,1.155497,50.987561,-166.09744)"
         id="path6917"
         style="fill:url(#linearGradient3717);fill-opacity:1;stroke:none" />
      <path
         inkscape:connector-curvature="0"
         d="m 168,232 a 36,36 0 1 1 -72,0 36,36 0 1 1 72,0 z"
         transform="matrix(0.57638888,0,0,0.32638888,109.91669,23.52779)"
         id="path6919"
         style="opacity:0.29918033;color:#000000;fill:url(#linearGradient3719);fill-opacity:1;fill-rule:evenodd;stroke:none;stroke-width:1;marker:none;visibility:visible;display:inline;overflow:visible;filter:url(#filter4228);enable-background:accumulate" />
      <g
         transform="translate(-84,-76)"
         id="use6452" />
      <path
         d="m 185.14189,197.40202 c 0,8.60333 -12.82644,15.57771 -28.64865,15.57771 -15.82221,0 -28.64865,-6.97438 -28.64865,-15.57771 0,-8.60332 12.82644,-15.5777 28.64865,-15.5777 7.9111,0 21.93627,3.63818 41.77054,-10.21517 -17.51633,12.86032 -13.12189,21.49121 -13.12189,25.79287 z"
         inkscape:connector-curvature="0"
         transform="matrix(1.1518866,0,0,1.6048575,-82.262479,-171.80211)"
         id="path6829"
         style="fill:url(#linearGradient3722);fill-opacity:1;stroke:none;display:inline;filter:url(#filter6953-2);enable-background:new" />
      <path
         d="M 141.47804,107.23001 C 120.11172,124.74985 117.87205,120.73507 98.5,120 82.759886,120 70,129.40202 70,141 c 0,11.59798 12.759886,21 28.5,21 15.74011,0 28.5,-9.40202 28.5,-21 -0.30555,-12.24998 1.09677,-21.17593 14.47804,-33.76999 z"
         inkscape:connector-curvature="0"
         id="path6835"
         style="fill:url(#linearGradient3724);fill-opacity:1;stroke:none;display:inline;enable-background:new" />
      <path
         inkscape:connector-curvature="0"
         d="m 55.002248,147.86067 a 6.4842696,6.647191 0 1 1 -12.968539,0 6.4842696,6.647191 0 1 1 12.968539,0 z"
         transform="matrix(1.6483891,0,0,1.6079872,5.4077125,-111.44108)"
         id="path6833"
         style="opacity:0.66803278;fill:url(#radialGradient3726);fill-opacity:1;stroke:none;display:inline;enable-background:new" />
      <path
         inkscape:connector-curvature="0"
         d="m 55.002248,147.86067 a 6.4842696,6.647191 0 1 1 -12.968539,0 6.4842696,6.647191 0 1 1 12.968539,0 z"
         transform="matrix(0.80660584,0,0,0.78683604,46.634871,9.8881481)"
         id="path6831"
         style="opacity:0.69672134;fill:url(#radialGradient3728);fill-opacity:1;stroke:none;display:inline;enable-background:new" />
      <path
         inkscape:connector-curvature="0"
         d="m 168,232 a 36,36 0 1 1 -72,0 36,36 0 1 1 72,0 z"
         transform="matrix(1.3485633,0,0,1.3485633,-79.407309,-142.85711)"
         id="path3785-66-5-67-4"
         style="color:#000000;fill:url(#radialGradient3730);fill-opacity:1;fill-rule:evenodd;stroke:none;stroke-width:1;marker:none;visibility:visible;display:inline;overflow:visible;filter:url(#filter4568-6);enable-background:accumulate" />
      <path
         inkscape:connector-curvature="0"
         d="m 168,232 a 36,36 0 1 1 -72,0 36,36 0 1 1 72,0 z"
         transform="matrix(0.57638888,0,0,0.32638888,23.91669,99.527794)"
         id="path6837"
         style="opacity:0.26639344;color:#000000;fill:url(#linearGradient3732);fill-opacity:1;fill-rule:evenodd;stroke:none;stroke-width:1;marker:none;visibility:visible;display:inline;overflow:visible;filter:url(#filter7119-7);enable-background:accumulate" />
      <path
         inkscape:connector-curvature="0"
         d="m 168,232 a 36,36 0 1 1 -72,0 36,36 0 1 1 72,0 z"
         transform="matrix(1.1991926,0,0,1.1991926,28.2336,-192.21269)"
         id="path3785-66-5-67-4-3"
         style="color:#000000;fill:url(#radialGradient3734);fill-opacity:1;fill-rule:evenodd;stroke:none;stroke-width:1;marker:none;visibility:visible;display:inline;overflow:visible;filter:url(#filter4568-8-3);enable-background:accumulate" />
      <path
         d="m 183.125,39.999997 c -8.96279,0.194681 -17.93104,3.375233 -25.25,9.6875 -23.53757,20.3001 -5.2557,41.39142 -25.78125,59.093753 -20.52553,17.70235 -38.712424,-3.45634 -62.25,16.84375 l 0,0.0312 c -5.227828,4.50877 -9.000122,10.09182 -11.28125,16.125 -0.01509,0.0396 -0.01629,0.0853 -0.03125,0.125 -0.459382,1.22692 -0.851924,2.45857 -1.1875,3.71875 -0.148988,0.55949 -0.31302,1.12286 -0.4375,1.6875 -0.01373,0.0617 -0.01782,0.12571 -0.03125,0.1875 -0.256611,1.1909 -0.44644,2.38641 -0.59375,3.59375 -0.0013,0.0103 0.0012,0.0209 0,0.0312 -0.0077,0.0629 -0.02383,0.12461 -0.03125,0.1875 -0.06548,0.56236 -0.114559,1.12297 -0.15625,1.6875 -0.03193,0.42446 -0.07534,0.85633 -0.09375,1.28125 -0.0091,0.2163 -0.02562,0.4398 -0.03125,0.65625 -0.002,0.0721 0.0016,0.14664 0,0.21875 -0.01164,0.56641 -0.01231,1.12077 0,1.6875 0.006,0.28991 0.01903,0.58534 0.03125,0.875 0.01841,0.42492 0.06182,0.85679 0.09375,1.28125 0.04729,0.62871 0.110483,1.24824 0.1875,1.875 0.0012,0.0103 -0.0013,0.0209 0,0.0312 0.14731,1.20734 0.337139,2.40285 0.59375,3.59375 0.01342,0.0623 0.01754,0.1253 0.03125,0.1875 0.126314,0.56806 0.285968,1.12391 0.4375,1.6875 0.335576,1.26018 0.728118,2.49183 1.1875,3.71875 0.01503,0.0402 0.01608,0.0849 0.03125,0.125 2.281128,6.03318 6.053422,11.61623 11.28125,16.125 l 0,0.0312 c 23.537576,20.30009 41.72447,-0.8586 62.25,16.84375 20.52555,17.70233 2.24368,38.79365 25.78125,59.09375 16.72906,14.42804 41.97821,12.54155 56.40625,-4.1875 14.42805,-16.72905 12.57279,-41.9782 -4.15625,-56.40625 -23.53758,-20.30008 -41.72445,0.88984 -62.25,-16.8125 -10.3687,-8.94254 -10.82293,-18.7728 -11.78125,-28.90625 0.95832,-10.13345 1.41255,-19.96371 11.78125,-28.90625 20.52555,-17.70234 38.71242,3.48758 62.25,-16.8125 16.72904,-14.427853 18.5843,-39.677003 4.15625,-56.406053 -8.11577,-9.410091 -19.63266,-14.125304 -31.15625,-13.875 z"
         inkscape:connector-curvature="0"
         id="path3984-0-3-4-7-0"
         style="color:#000000;fill:none;stroke:url(#linearGradient3352);stroke-width:7.03099298;stroke-miterlimit:4;stroke-opacity:1;stroke-dasharray:none;marker:none;visibility:visible;display:inline;overflow:visible;filter:url(#filter3824);enable-background:accumulate" />
    </g>
    <rect
       ry="25"
       rx="25"
       id="rect3003"
       style="opacity:0.15;fill:#ffffff;fill-opacity:1"
       height="92"
       width="92"
       y="958.36218"
       x="-96"
       clip-path="url(#clipPath3009)"
       transform="translate(98,3.8281269e-7)" />
  </g>
</svg>
