<?xml version="1.0" encoding="UTF-8" standalone="no"?>
<!-- Created with Inkscape (http://www.inkscape.org/) -->

<svg
   xmlns:dc="http://purl.org/dc/elements/1.1/"
   xmlns:cc="http://creativecommons.org/ns#"
   xmlns:rdf="http://www.w3.org/1999/02/22-rdf-syntax-ns#"
   xmlns:svg="http://www.w3.org/2000/svg"
   xmlns="http://www.w3.org/2000/svg"
   xmlns:xlink="http://www.w3.org/1999/xlink"
   xmlns:sodipodi="http://sodipodi.sourceforge.net/DTD/sodipodi-0.dtd"
   xmlns:inkscape="http://www.inkscape.org/namespaces/inkscape"
   width="96"
   height="96"
   id="svg11037"
   version="1.1"
   inkscape:version="0.48.3.1 r9886"
   sodipodi:docname="indicator-weather.svg">
  <defs
     id="defs11039">
    <linearGradient
       y2="1046.1001"
       x2="47.999954"
       y1="962.62189"
       x1="47.999954"
       gradientTransform="matrix(1.15,0,0,1.15,-7.1999462,-150.65291)"
       gradientUnits="userSpaceOnUse"
       id="linearGradient3886"
       xlink:href="#linearGradient3795"
       inkscape:collect="always" />
    <linearGradient
       id="linearGradient3795">
      <stop
         style="stop-color:#13a6fd;stop-opacity:1;"
         offset="0"
         id="stop3797" />
      <stop
         style="stop-color:#2975b6;stop-opacity:1;"
         offset="1"
         id="stop3799" />
    </linearGradient>
    <linearGradient
       y2="1046.1001"
       x2="47.999954"
       y1="962.62189"
       x1="47.999954"
       gradientTransform="matrix(1.15,0,0,1.15,-7.1999462,-150.65292)"
       gradientUnits="userSpaceOnUse"
       id="linearGradient11642"
       xlink:href="#linearGradient3822"
       inkscape:collect="always" />
    <linearGradient
       x1="48"
       y1="90"
       x2="48"
       y2="5.9877172"
       id="linearGradient3617"
       xlink:href="#linearGradient3822"
       gradientUnits="userSpaceOnUse" />
    <linearGradient
       id="linearGradient3822">
      <stop
         id="stop3824"
         style="stop-color:#e6e6e6;stop-opacity:1"
         offset="0" />
      <stop
         id="stop3826"
         style="stop-color:#f5f5f5;stop-opacity:1"
         offset="1" />
    </linearGradient>
    <linearGradient
       gradientTransform="translate(-49.767767,899.55885)"
       y2="5.9877172"
       x2="48"
       y1="90"
       x1="48"
       gradientUnits="userSpaceOnUse"
       id="linearGradient3054"
       xlink:href="#linearGradient3822"
       inkscape:collect="always" />
    <linearGradient
       x1="47.973103"
       y1="79.776169"
       x2="47.973103"
       y2="16.436062"
       id="linearGradient3067"
       xlink:href="#linearGradient3700"
       gradientUnits="userSpaceOnUse" />
    <linearGradient
       id="linearGradient3700">
      <stop
         id="stop3702"
         style="stop-color:#f05517;stop-opacity:1"
         offset="0" />
      <stop
         id="stop3704"
         style="stop-color:#f37340;stop-opacity:1"
         offset="1" />
    </linearGradient>
    <clipPath
       clipPathUnits="userSpaceOnUse"
       id="clipPath3009">
      <path
         id="path3011"
         d="m -2,956.36218 -96,0 0,33.5624 96,25.68742 0,-59.24982 z"
         style="opacity:0.15;fill:#ffffff;fill-opacity:1;stroke:none"
         inkscape:connector-curvature="0" />
    </clipPath>
  </defs>
  <sodipodi:namedview
     id="base"
     pagecolor="#ffffff"
     bordercolor="#666666"
     borderopacity="1.0"
     inkscape:pageopacity="0.0"
     inkscape:pageshadow="2"
     inkscape:zoom="3.959798"
     inkscape:cx="33.538031"
     inkscape:cy="59.964634"
     inkscape:document-units="px"
     inkscape:current-layer="layer1"
     showgrid="false"
     inkscape:window-width="1280"
     inkscape:window-height="750"
     inkscape:window-x="0"
     inkscape:window-y="22"
     inkscape:window-maximized="1"
     showguides="true"
     inkscape:guide-bbox="true">
    <sodipodi:guide
       orientation="0,1"
       position="-24.748737,0"
       id="guide11064" />
    <sodipodi:guide
       orientation="0,1"
       position="-23.233509,96"
       id="guide11066" />
    <sodipodi:guide
       orientation="1,0"
       position="0,54.800776"
       id="guide11068" />
    <sodipodi:guide
       orientation="1,0"
       position="96,51.012704"
       id="guide11070" />
    <sodipodi:guide
       orientation="0,1"
       position="-18.94036,48"
       id="guide11072" />
    <sodipodi:guide
       orientation="1,0"
       position="48,79.296975"
       id="guide11074" />
    <sodipodi:guide
       orientation="1,0"
       position="2,75.508903"
       id="guide11076" />
    <sodipodi:guide
       orientation="0,1"
       position="-77.27667,2"
       id="guide11078" />
    <sodipodi:guide
       orientation="1,0"
       position="94,77.781746"
       id="guide11080" />
    <sodipodi:guide
       orientation="0,1"
       position="-65.912454,94"
       id="guide11082" />
  </sodipodi:namedview>
  <metadata
     id="metadata11042">
    <rdf:RDF>
      <cc:Work
         rdf:about="">
        <dc:format>image/svg+xml</dc:format>
        <dc:type
           rdf:resource="http://purl.org/dc/dcmitype/StillImage" />
        <dc:title />
      </cc:Work>
    </rdf:RDF>
  </metadata>
  <g
     inkscape:label="Layer 1"
     inkscape:groupmode="layer"
     id="layer1"
     transform="translate(0,-956.36218)">
    <rect
       x="2"
       y="958.36218"
       width="92"
       height="92"
       style="fill:url(#linearGradient11642);fill-opacity:1.0"
       id="rect3867"
       rx="25"
       ry="25" />
    <g
       transform="translate(-4.4444444e-7,956.36218)"
       id="g3067">
      <path
         style="color:#000000;fill:url(#linearGradient3067);fill-opacity:1;fill-rule:nonzero;stroke:none;stroke-width:2;marker:none;visibility:visible;display:inline;overflow:visible;enable-background:accumulate"
         id="path3050"
         inkscape:connector-curvature="0"
         d="M 48,16 C 30.326888,16 16,30.10303 16,47.5 16,64.89697 30.326888,79 48,79 53.423369,79 58.524178,77.656301 63,75.3125 L 75,79 72.0625,68.25 C 76.998211,62.707254 80,55.449908 80,47.5 80,30.10303 65.673112,16 48,16 z m -11.125,11.96875 3.875,7.375 4.1875,-4.0625 0.5,5.8125 4.46875,-0.65625 -1.28125,4.4375 7.40625,0.15625 -4.5,3.21875 c -0.759312,0.303837 -1.450366,0.728691 -2.09375,1.21875 0.01114,-0.190441 0.03125,-0.369272 0.03125,-0.5625 0,-3.21872 -1.589631,-6.078999 -4.03125,-7.8125 -1.561035,-1.108304 -3.473379,-1.75 -5.53125,-1.75 -3.218723,0 -6.079,1.58963 -7.8125,4.03125 -1.108303,1.561035 -1.75,3.47338 -1.75,5.53125 0,3.216679 1.594685,6.081115 4.03125,7.8125 0.566831,0.402782 1.194039,0.72894 1.84375,1 -1.102825,1.226561 -1.78125,2.840965 -1.78125,4.625 0,0.140131 0.02325,0.267993 0.03125,0.40625 l -0.03125,0.03125 0,-0.4375 -0.0625,-5.625 -6.84375,2.78125 3.65625,-6.5625 -5.5625,-1.53125 4.71875,-3.34375 -6.5,-5.5625 8.25,0.875 -1.03125,-4.625 4.8125,1.4375 1,-8.21875 z m 3.03125,8.96875 c 4.397162,0 7.96875,3.571588 7.96875,7.96875 0,0.933946 -0.172814,1.823103 -0.46875,2.65625 -0.04344,0.06233 -0.08301,0.12409 -0.125,0.1875 -0.574833,-0.233454 -1.199916,-0.375 -1.875,-0.375 -2.460815,0 -4.434138,1.755368 -5.03125,4.03125 -1.015462,0.191124 -1.952873,0.600669 -2.78125,1.15625 -3.275392,-0.989825 -5.65625,-4.060273 -5.65625,-7.65625 0,-4.397162 3.571588,-7.96875 7.96875,-7.96875 z m 14.90625,8.25 c 4.15838,0 7.53125,3.372869 7.53125,7.53125 3.118784,0 5.65625,2.506218 5.65625,5.625 C 68,61.462532 65.462534,64 62.34375,64 l -20.6875,0 C 38.537466,64 36,61.462532 36,58.34375 c 0,-3.118782 2.537466,-5.625 5.65625,-5.625 0,-2.07919 1.670811,-3.78125 3.75,-3.78125 0.93205,0 1.74879,0.376457 2.40625,0.9375 1.113929,-2.765808 3.835473,-4.6875 7,-4.6875 z" />
      <path
         style="color:#000000;fill:#ffffff;fill-opacity:1;fill-rule:nonzero;stroke:none;stroke-width:2;marker:none;visibility:visible;display:inline;overflow:visible;enable-background:accumulate"
         id="path3070"
         inkscape:connector-curvature="0"
         d="m 36.875,27.96875 -1,8.21875 -4.8125,-1.4375 0.25,1.0625 3.4375,1.03125 C 35.144361,36.592349 35.569233,36.380019 36,36.1875 l 0.875,-7.21875 3.34375,6.375 c 0.478533,0.01552 0.947521,0.07351 1.40625,0.15625 l 3.3125,-3.21875 0.40625,4.75 c 0.03083,0.02134 0.06319,0.0408 0.09375,0.0625 l -0.5,-5.8125 -4.1875,4.0625 -3.875,-7.375 z m 8.5625,9.125 c 0.365023,0.259159 0.706776,0.53679 1.03125,0.84375 l 3.125,-0.46875 0.3125,-1.03125 -4.46875,0.65625 z M 39.90625,36.9375 c -4.397162,0 -7.96875,3.571588 -7.96875,7.96875 0,0.150002 0.02307,0.28944 0.03125,0.4375 0.290966,-4.133455 3.730725,-7.40625 7.9375,-7.40625 4.21733,0 7.661716,3.289341 7.9375,7.4375 0.0098,-0.156685 0.03125,-0.309401 0.03125,-0.46875 0,-4.397162 -3.571588,-7.96875 -7.96875,-7.96875 z M 23.84375,38.5 25.1875,39.65625 31.5,40.3125 c 0.131194,-0.24063 0.286503,-0.460103 0.4375,-0.6875 L 31.875,39.34375 23.84375,38.5 z m 25.0625,2.375 -0.125,0.46875 c 0.0697,0.174247 0.127896,0.352162 0.1875,0.53125 L 54.6875,42 56.03125,41.03125 48.90625,40.875 z m -19.1875,3.625 -4.09375,2.90625 1.03125,0.28125 3.6875,-2.625 -0.625,-0.5625 z m 25.09375,0.6875 c -3.164527,0 -5.886071,1.921692 -7,4.6875 -0.65746,-0.561043 -1.4742,-0.9375 -2.40625,-0.9375 -2.079189,0 -3.75,1.70206 -3.75,3.78125 -3.118784,0 -5.65625,2.506218 -5.65625,5.625 0,0.151741 0.01946,0.288737 0.03125,0.4375 0.290196,-2.845139 2.70114,-5.0625 5.625,-5.0625 0,-2.07919 1.670811,-3.78125 3.75,-3.78125 0.93205,0 1.74879,0.376457 2.40625,0.9375 1.113929,-2.765808 3.835473,-4.6875 7,-4.6875 4.15838,0 7.53125,3.372869 7.53125,7.53125 2.92386,0 5.334804,2.217361 5.625,5.0625 C 67.980538,58.632487 68,58.495491 68,58.34375 c 0,-3.118782 -2.537466,-5.625 -5.65625,-5.625 0,-4.158381 -3.37287,-7.53125 -7.53125,-7.53125 z M 30.375,45.34375 c -0.01115,0.190306 -0.03125,0.369463 -0.03125,0.5625 0,1.022538 0.170641,2.011233 0.46875,2.9375 l 0.375,0.09375 -0.21875,0.40625 c 0.550449,1.43536 1.43977,2.71282 2.5625,3.71875 L 34.375,52.71875 c -2.324244,-1.651571 -3.86128,-4.339165 -4,-7.375 z m 4,7.375 0,1 c 0.39461,0.280404 0.840896,0.505355 1.28125,0.71875 0.172012,-0.249445 0.360427,-0.494005 0.5625,-0.71875 -0.649711,-0.27106 -1.276919,-0.597218 -1.84375,-1 z M 80,47.96875 C 79.883105,55.732691 76.899804,62.817764 72.0625,68.25 L 72.28125,69 C 77.086709,63.489654 80,56.331724 80,48.5 c 0,-0.177668 0.003,-0.354281 0,-0.53125 z M 16,48 c -0.0026,0.166598 0,0.332783 0,0.5 0,17.39697 14.326888,31.5 32,31.5 5.423369,0 10.524178,-1.343699 15,-3.6875 L 75,80 74.6875,78.90625 63,75.3125 C 58.524178,77.656301 53.423369,79 48,79 30.496759,79 16.271763,65.166051 16,48 z M 30.71875,49.8125 27.53125,55.5 28.25,55.21875 31.1875,49.9375 30.71875,49.8125 z" />
      <path
         style="opacity:0.05;color:#000000;fill:#552200;fill-opacity:1;fill-rule:nonzero;stroke:none;stroke-width:2;marker:none;visibility:visible;display:inline;overflow:visible;enable-background:accumulate"
         id="path3856"
         inkscape:connector-curvature="0"
         d="M 48,16 C 30.326888,16 16,30.10303 16,47.5 16,64.89697 30.326888,79 48,79 53.423369,79 58.524178,77.656301 63,75.3125 L 75,79 72.0625,68.25 C 76.998211,62.707254 80,55.449908 80,47.5 80,30.10303 65.673112,16 48,16 z m 0,2.03125 c 16.585436,0 29.96875,13.194259 29.96875,29.46875 0,7.435251 -2.817445,14.186732 -7.4375,19.375 a 2.0447244,2.0447244 0 0 0 -0.4375,1.90625 L 72.0625,75.9375 63.59375,73.34375 A 2.0447244,2.0447244 0 0 0 62.0625,73.5 C 57.867711,75.696636 53.085668,76.96875 48,76.96875 31.414564,76.96875 18.03125,63.774491 18.03125,47.5 18.03125,31.225509 31.414564,18.03125 48,18.03125 z m -11.21875,7.875 a 2.0447244,2.0447244 0 0 0 -0.21875,0.03125 2.0447244,2.0447244 0 0 0 -1.71875,1.78125 l -0.71875,5.8125 -2.46875,-0.75 A 2.0447244,2.0447244 0 0 0 29.0625,35.1875 l 0.40625,1.84375 -5.40625,-0.5625 A 2.0447244,2.0447244 0 0 0 22.5,40.0625 l 4.5,3.875 -2.5625,1.8125 a 2.0447244,2.0447244 0 0 0 0.65625,3.625 L 28.125,50.21875 25.75,54.5 a 2.0447244,2.0447244 0 0 0 2.5625,2.90625 L 32.375,55.75 l 0.03125,2.59375 0,0.03125 0,0.40625 a 2.0447244,2.0447244 0 0 0 2.0625,2.03125 c 1.044235,3.018877 3.830292,5.21875 7.1875,5.21875 l 20.6875,0 c 4.227743,0 7.6875,-3.459759 7.6875,-7.6875 0,-3.626528 -2.610512,-6.518888 -6,-7.3125 C 63.2885,47.05753 60.204513,44.047984 56.1875,43.4375 l 1.03125,-0.75 A 2.0447244,2.0447244 0 0 0 56.0625,39 L 51.3125,38.90625 51.875,37 A 2.0447244,2.0447244 0 0 0 49.59375,34.40625 L 47.28125,34.75 46.96875,31.09375 A 2.0447244,2.0447244 0 0 0 43.5,29.8125 l -2.21875,2.15625 -2.59375,-4.9375 a 2.0447244,2.0447244 0 0 0 -1.90625,-1.125 z m 0.09375,2.0625 3.875,7.375 4.1875,-4.0625 0.5,5.8125 4.46875,-0.65625 -1.28125,4.4375 7.40625,0.15625 -4.5,3.21875 c -0.759312,0.303837 -1.450366,0.728691 -2.09375,1.21875 0.01114,-0.190441 0.03125,-0.369272 0.03125,-0.5625 0,-3.21872 -1.589631,-6.078999 -4.03125,-7.8125 -1.561035,-1.108304 -3.473379,-1.75 -5.53125,-1.75 -3.218723,0 -6.079,1.58963 -7.8125,4.03125 -1.108303,1.561035 -1.75,3.47338 -1.75,5.53125 0,3.216679 1.594685,6.081115 4.03125,7.8125 0.566831,0.402782 1.194039,0.72894 1.84375,1 -1.102825,1.226561 -1.78125,2.840965 -1.78125,4.625 0,0.140131 0.02325,0.267993 0.03125,0.40625 l -0.03125,0.03125 0,-0.4375 -0.0625,-5.625 -6.84375,2.78125 3.65625,-6.5625 -5.5625,-1.53125 4.71875,-3.34375 -6.5,-5.5625 8.25,0.875 -1.03125,-4.625 4.8125,1.4375 1,-8.21875 z m 3.03125,8.96875 c 4.397162,0 7.96875,3.571588 7.96875,7.96875 0,0.933946 -0.172814,1.823103 -0.46875,2.65625 -0.04344,0.06233 -0.08301,0.12409 -0.125,0.1875 -0.574833,-0.233454 -1.199916,-0.375 -1.875,-0.375 -2.460815,0 -4.434138,1.755368 -5.03125,4.03125 -1.015462,0.191124 -1.952873,0.600669 -2.78125,1.15625 -3.275392,-0.989825 -5.65625,-4.060273 -5.65625,-7.65625 0,-4.397162 3.571588,-7.96875 7.96875,-7.96875 z m 14.90625,8.25 c 4.15838,0 7.53125,3.372869 7.53125,7.53125 3.118784,0 5.65625,2.506218 5.65625,5.625 C 68,61.462532 65.462534,64 62.34375,64 l -20.6875,0 C 38.537466,64 36,61.462532 36,58.34375 c 0,-3.118782 2.537466,-5.625 5.65625,-5.625 0,-2.07919 1.670811,-3.78125 3.75,-3.78125 0.93205,0 1.74879,0.376457 2.40625,0.9375 1.113929,-2.765808 3.835473,-4.6875 7,-4.6875 z" />
      <path
         style="opacity:0.1;color:#000000;fill:#552200;fill-opacity:1;fill-rule:nonzero;stroke:none;stroke-width:2;marker:none;visibility:visible;display:inline;overflow:visible;enable-background:accumulate"
         id="path3852"
         inkscape:connector-curvature="0"
         d="M 48,16 C 30.326888,16 16,30.10303 16,47.5 16,64.89697 30.326888,79 48,79 53.423369,79 58.524178,77.656301 63,75.3125 L 75,79 72.0625,68.25 C 76.998211,62.707254 80,55.449908 80,47.5 80,30.10303 65.673112,16 48,16 z m 0,1.0625 c 17.10343,0 30.9375,13.628441 30.9375,30.4375 0,7.680351 -2.917117,14.674166 -7.6875,20.03125 a 1.0709466,1.0709466 0 0 0 -0.21875,1 l 2.4375,8.875 -10.15625,-3.125 A 1.0709466,1.0709466 0 0 0 62.5,74.375 C 58.171372,76.641722 53.246494,77.9375 48,77.9375 30.89657,77.9375 17.0625,64.309059 17.0625,47.5 17.0625,30.690941 30.89657,17.0625 48,17.0625 z m -11.28125,9.84375 a 1.0709466,1.0709466 0 0 0 -0.90625,0.9375 l -0.84375,6.9375 -3.59375,-1.0625 a 1.0709466,1.0709466 0 0 0 -1.34375,1.25 L 30.75,38.15625 23.96875,37.4375 a 1.0709466,1.0709466 0 0 0 -0.8125,1.875 l 5.4375,4.65625 L 25,46.53125 a 1.0709466,1.0709466 0 0 0 0.34375,1.90625 l 4.25,1.15625 -3,5.375 A 1.0709466,1.0709466 0 0 0 27.9375,56.5 l 5.40625,-2.1875 0.03125,4.03125 0,0.4375 a 1.0709466,1.0709466 0 0 0 1.8125,0.75 c 0.581381,3.118719 3.188208,5.53125 6.46875,5.53125 l 20.6875,0 c 3.699613,0 6.71875,-3.019139 6.71875,-6.71875 0,-3.387015 -2.58059,-6.05144 -5.84375,-6.5 C 62.756722,47.536415 59.238939,44.125 54.8125,44.125 c -0.541523,0 -1.047303,0.123622 -1.5625,0.21875 l 3.40625,-2.4375 A 1.0709466,1.0709466 0 0 0 56.0625,39.96875 L 50.03125,39.84375 50.9375,36.75 A 1.0709466,1.0709466 0 0 0 49.75,35.375 l -3.34375,0.5 L 46,31.1875 A 1.0709466,1.0709466 0 0 0 44.1875,30.5 l -3.15625,3.0625 -3.21875,-6.09375 a 1.0709466,1.0709466 0 0 0 -1.09375,-0.5625 z m 0.15625,1.0625 3.875,7.375 4.1875,-4.0625 0.5,5.8125 4.46875,-0.65625 -1.28125,4.4375 7.40625,0.15625 -4.5,3.21875 c -0.759312,0.303837 -1.450366,0.728691 -2.09375,1.21875 0.01114,-0.190441 0.03125,-0.369272 0.03125,-0.5625 0,-3.21872 -1.589631,-6.078999 -4.03125,-7.8125 -1.561035,-1.108304 -3.473379,-1.75 -5.53125,-1.75 -3.218723,0 -6.079,1.58963 -7.8125,4.03125 -1.108303,1.561035 -1.75,3.47338 -1.75,5.53125 0,3.216679 1.594685,6.081115 4.03125,7.8125 0.566831,0.402782 1.194039,0.72894 1.84375,1 -1.102825,1.226561 -1.78125,2.840965 -1.78125,4.625 0,0.140131 0.02325,0.267993 0.03125,0.40625 l -0.03125,0.03125 0,-0.4375 -0.0625,-5.625 -6.84375,2.78125 3.65625,-6.5625 -5.5625,-1.53125 4.71875,-3.34375 -6.5,-5.5625 8.25,0.875 -1.03125,-4.625 4.8125,1.4375 1,-8.21875 z m 3.03125,8.96875 c 4.397162,0 7.96875,3.571588 7.96875,7.96875 0,0.933946 -0.172814,1.823103 -0.46875,2.65625 -0.04344,0.06233 -0.08301,0.12409 -0.125,0.1875 -0.574833,-0.233454 -1.199916,-0.375 -1.875,-0.375 -2.460815,0 -4.434138,1.755368 -5.03125,4.03125 -1.015462,0.191124 -1.952873,0.600669 -2.78125,1.15625 -3.275392,-0.989825 -5.65625,-4.060273 -5.65625,-7.65625 0,-4.397162 3.571588,-7.96875 7.96875,-7.96875 z m 14.90625,8.25 c 4.15838,0 7.53125,3.372869 7.53125,7.53125 3.118784,0 5.65625,2.506218 5.65625,5.625 C 68,61.462532 65.462534,64 62.34375,64 l -20.6875,0 C 38.537466,64 36,61.462532 36,58.34375 c 0,-3.118782 2.537466,-5.625 5.65625,-5.625 0,-2.07919 1.670811,-3.78125 3.75,-3.78125 0.93205,0 1.74879,0.376457 2.40625,0.9375 1.113929,-2.765808 3.835473,-4.6875 7,-4.6875 z M 48.6875,46.25 A 1.0709466,1.0709466 0 0 0 49,46.4375 c -0.140455,0.128957 -0.274687,0.268233 -0.40625,0.40625 0.04523,-0.194774 0.06122,-0.393814 0.09375,-0.59375 z" />
      <path
         style="opacity:0.3;color:#000000;fill:#552200;fill-opacity:1;fill-rule:nonzero;stroke:none;stroke-width:2;marker:none;visibility:visible;display:inline;overflow:visible;enable-background:accumulate"
         id="path3079"
         inkscape:connector-curvature="0"
         d="M 48,16 C 30.326888,16 16,30.10303 16,47.5 16,47.667217 15.9974,47.833402 16,48 16.271763,30.833949 30.496759,17 48,17 65.492624,17 79.711493,30.817156 80,47.96875 80.002378,47.810805 80,47.658504 80,47.5 80,30.10303 65.673112,16 48,16 z m -8.09375,19.34375 c -1.390738,0 -2.711327,0.309712 -3.90625,0.84375 l -0.125,1 -1.125,-0.34375 c -1.043507,0.665226 -1.941771,1.524913 -2.65625,2.53125 -0.05672,0.07989 -0.101996,0.168295 -0.15625,0.25 l 0.15625,0.75 c 1.7335,-2.44162 4.593777,-4.03125 7.8125,-4.03125 2.057871,0 3.970215,0.641696 5.53125,1.75 l -0.09375,-1.0625 C 44.250733,36.274695 42.983831,35.745092 41.625,35.5 l -0.875,0.84375 -0.53125,-1 c -0.106179,-0.0034 -0.205505,0 -0.3125,0 z m 5.53125,2.75 c 2.313046,1.642217 3.843337,4.301055 4,7.3125 0.01136,-0.167343 0.03125,-0.328176 0.03125,-0.5 0,-1.057861 -0.182773,-2.0781 -0.5,-3.03125 l -0.34375,0 0.15625,-0.53125 C 48.261908,40.045504 47.467321,38.882171 46.46875,37.9375 L 45.4375,38.09375 z M 32.09375,40.375 31.5,40.3125 c -0.74272,1.36227 -1.15625,2.934321 -1.15625,4.59375 0,0.05276 -8.55e-4,0.103683 0,0.15625 0.0015,0.09517 0.02693,0.186741 0.03125,0.28125 0.107699,-1.838452 0.71441,-3.554147 1.71875,-4.96875 z m 0,-1 -0.78125,-3.5625 -0.25,-0.0625 0.8125,3.59375 0.21875,0.03125 z m 17.8125,-1.9375 -0.3125,0.03125 -0.96875,3.40625 0.28125,0 1,-3.4375 z m -26.0625,2.0625 5.875,5 0.625,-0.4375 L 25.1875,39.65625 23.84375,39.5 z M 54.6875,42 51.53125,44.25 c -0.759312,0.303837 -1.450366,0.728691 -2.09375,1.21875 0.0067,0.146778 0.03125,0.289123 0.03125,0.4375 0,0.193228 -0.02011,0.372059 -0.03125,0.5625 0.643384,-0.490059 1.334438,-0.914913 2.09375,-1.21875 l 4.5,-3.21875 L 54.6875,42 z m -22.71875,3.34375 c -0.01317,0.187068 -0.03125,0.372113 -0.03125,0.5625 0,3.595977 2.380858,6.666425 5.65625,7.65625 0.828377,-0.555581 1.765788,-0.965126 2.78125,-1.15625 0.597112,-2.275882 2.570435,-4.03125 5.03125,-4.03125 0.675084,0 1.300167,0.141546 1.875,0.375 0.04199,-0.06341 0.08156,-0.12517 0.125,-0.1875 0.295936,-0.833147 0.46875,-1.722304 0.46875,-2.65625 0,-0.179832 -0.01949,-0.354367 -0.03125,-0.53125 -0.04771,0.761651 -0.192056,1.496503 -0.4375,2.1875 -0.04344,0.06233 -0.08301,0.12409 -0.125,0.1875 -0.574833,-0.233454 -1.199916,-0.375 -1.875,-0.375 -2.460815,0 -4.434138,1.755368 -5.03125,4.03125 -1.015462,0.191124 -1.952873,0.600669 -2.78125,1.15625 -3.138763,-0.948536 -5.437135,-3.817383 -5.625,-7.21875 z m -5.3125,2.34375 -1.03125,0.71875 5.09375,1.40625 0.25,-0.46875 c -0.06226,-0.162357 -0.10269,-0.33358 -0.15625,-0.5 L 26.65625,47.6875 z m 6.875,5.375 L 28.25,55.21875 27.53125,56.5 34.375,53.71875 C 34.082439,53.510861 33.798233,53.301708 33.53125,53.0625 z m 2.125,1.375 c -0.766757,1.11192 -1.21875,2.449107 -1.21875,3.90625 0,0.118699 0.02128,0.228882 0.03125,0.34375 0.144932,-1.52094 0.785028,-2.895509 1.75,-3.96875 -0.197403,-0.08236 -0.370314,-0.188117 -0.5625,-0.28125 z m -1.1875,4.3125 -0.03125,0.03125 0,0.5625 c 0,-0.201814 0.01425,-0.396593 0.03125,-0.59375 z m -0.03125,0.59375 0,0.4375 0.03125,-0.03125 c -0.008,-0.138257 -0.03125,-0.266119 -0.03125,-0.40625 z m 1.59375,-0.4375 C 36.019462,59.054873 36,59.192009 36,59.34375 36,62.462532 38.537466,65 41.65625,65 l 20.6875,0 C 65.462534,65 68,62.462532 68,59.34375 68,59.192009 67.980538,59.054873 67.96875,58.90625 67.678554,61.754822 65.26761,64 62.34375,64 l -20.6875,0 c -2.92386,0 -5.334804,-2.245178 -5.625,-5.09375 z M 72.28125,69 c -0.07252,0.08315 -0.145375,0.167601 -0.21875,0.25 l 2.625,9.65625 L 75,79 72.28125,69 z" />
    </g>
    <rect
       ry="25"
       rx="25"
       id="rect3003"
       style="opacity:0.15;fill:#ffffff;fill-opacity:1"
       height="92"
       width="92"
       y="958.36218"
       x="-96"
       clip-path="url(#clipPath3009)"
       transform="translate(98,3.8281269e-7)" />
  </g>
</svg>
