<?xml version="1.0" encoding="UTF-8" standalone="no"?>
<!-- Created with Inkscape (http://www.inkscape.org/) -->

<svg
   xmlns:dc="http://purl.org/dc/elements/1.1/"
   xmlns:cc="http://creativecommons.org/ns#"
   xmlns:rdf="http://www.w3.org/1999/02/22-rdf-syntax-ns#"
   xmlns:svg="http://www.w3.org/2000/svg"
   xmlns="http://www.w3.org/2000/svg"
   xmlns:xlink="http://www.w3.org/1999/xlink"
   xmlns:sodipodi="http://sodipodi.sourceforge.net/DTD/sodipodi-0.dtd"
   xmlns:inkscape="http://www.inkscape.org/namespaces/inkscape"
   width="96"
   height="96"
   id="svg11037"
   version="1.1"
   inkscape:version="0.48.3.1 r9886"
   sodipodi:docname="templat.svg">
  <defs
     id="defs11039">
    <linearGradient
       y2="1046.1001"
       x2="47.999954"
       y1="962.62189"
       x1="47.999954"
       gradientTransform="matrix(1.15,0,0,1.15,-7.1999462,-150.65291)"
       gradientUnits="userSpaceOnUse"
       id="linearGradient3886"
       xlink:href="#linearGradient3795"
       inkscape:collect="always" />
    <linearGradient
       id="linearGradient3795">
      <stop
         style="stop-color:#13a6fd;stop-opacity:1;"
         offset="0"
         id="stop3797" />
      <stop
         style="stop-color:#2975b6;stop-opacity:1;"
         offset="1"
         id="stop3799" />
    </linearGradient>
    <linearGradient
       y2="1046.1001"
       x2="47.999954"
       y1="962.62189"
       x1="47.999954"
       gradientTransform="matrix(1.15,0,0,1.15,-7.1999462,-150.65292)"
       gradientUnits="userSpaceOnUse"
       id="linearGradient11642"
       xlink:href="#linearGradient3795"
       inkscape:collect="always" />
    <clipPath
       clipPathUnits="userSpaceOnUse"
       id="clipPath3009">
      <path
         id="path3011"
         d="m -2,956.36218 -96,0 0,33.5624 96,25.68742 0,-59.24982 z"
         style="opacity:0.15;fill:#ffffff;fill-opacity:1;stroke:none"
         inkscape:connector-curvature="0" />
    </clipPath>
    <linearGradient
       x1="48"
       y1="90"
       x2="48"
       y2="5.9877172"
       id="linearGradient2982"
       xlink:href="#ButtonColor-6"
       gradientUnits="userSpaceOnUse" />
    <linearGradient
       x1="58.650177"
       y1="122"
       x2="58.650177"
       y2="5.4252338"
       id="ButtonColor-6"
       gradientUnits="userSpaceOnUse">
      <stop
         id="stop3189-4"
         style="stop-color:#dcdcdc;stop-opacity:1"
         offset="0" />
      <stop
         id="stop3191-0"
         style="stop-color:#f5f5f5;stop-opacity:1"
         offset="1" />
    </linearGradient>
    <linearGradient
       x1="31.714285"
       y1="6"
       x2="31.714285"
       y2="74.09301"
       id="linearGradient2984"
       xlink:href="#linearGradient3737-1"
       gradientUnits="userSpaceOnUse" />
    <linearGradient
       id="linearGradient3737-1">
      <stop
         id="stop3739-1"
         style="stop-color:#ffffff;stop-opacity:1"
         offset="0" />
      <stop
         id="stop3741-0"
         style="stop-color:#ffffff;stop-opacity:0"
         offset="1" />
    </linearGradient>
    <radialGradient
       cx="47.967342"
       cy="89.688721"
       r="42"
       fx="47.967342"
       fy="89.688721"
       id="radialGradient2986"
       xlink:href="#linearGradient3737-1"
       gradientUnits="userSpaceOnUse"
       gradientTransform="matrix(1.3341109,0,0,0.95758929,-16.026413,2.1112584)" />
    <linearGradient
       id="linearGradient3796">
      <stop
         id="stop3798"
         style="stop-color:#ffffff;stop-opacity:1"
         offset="0" />
      <stop
         id="stop3800"
         style="stop-color:#ffffff;stop-opacity:0"
         offset="1" />
    </linearGradient>
    <linearGradient
       x1="48"
       y1="80"
       x2="48"
       y2="16"
       id="linearGradient4191"
       xlink:href="#linearGradient3814-9"
       gradientUnits="userSpaceOnUse" />
    <linearGradient
       id="linearGradient3814-9">
      <stop
         id="stop3816-9"
         style="stop-color:#ffffff;stop-opacity:1"
         offset="0" />
      <stop
         id="stop3818-8"
         style="stop-color:#ffffff;stop-opacity:0"
         offset="1" />
    </linearGradient>
    <linearGradient
       x1="47.726624"
       y1="78.923363"
       x2="47.726624"
       y2="16.640985"
       id="linearGradient4073"
       xlink:href="#linearGradient4163"
       gradientUnits="userSpaceOnUse" />
    <linearGradient
       id="linearGradient4163">
      <stop
         id="stop4165"
         style="stop-color:#4d81cf;stop-opacity:1"
         offset="0" />
      <stop
         id="stop4167"
         style="stop-color:#9cb8e4;stop-opacity:1"
         offset="1" />
    </linearGradient>
    <clipPath
       id="clipPath4146">
      <rect
         width="63.999855"
         height="63.999855"
         x="16.00013"
         y="26.000145"
         id="rect4148"
         style="fill:#ff00ff;fill-opacity:1;fill-rule:nonzero;stroke:none;display:inline" />
    </clipPath>
    <linearGradient
       x1="39.819206"
       y1="13.055696"
       x2="44.586384"
       y2="29.471077"
       id="linearGradient3982"
       xlink:href="#linearGradient3814-9"
       gradientUnits="userSpaceOnUse"
       gradientTransform="matrix(-0.96032399,0.27888679,0.27888679,0.96032399,111.43916,15.295347)" />
    <linearGradient
       id="linearGradient3813">
      <stop
         id="stop3815"
         style="stop-color:#ffffff;stop-opacity:1"
         offset="0" />
      <stop
         id="stop3817"
         style="stop-color:#ffffff;stop-opacity:0"
         offset="1" />
    </linearGradient>
    <linearGradient
       x1="35.83757"
       y1="59.202038"
       x2="35.97998"
       y2="80.75106"
       id="linearGradient3980"
       xlink:href="#linearGradient3814-9"
       gradientUnits="userSpaceOnUse"
       gradientTransform="translate(-10,-3)" />
    <linearGradient
       id="linearGradient3820">
      <stop
         id="stop3822"
         style="stop-color:#ffffff;stop-opacity:1"
         offset="0" />
      <stop
         id="stop3824"
         style="stop-color:#ffffff;stop-opacity:0"
         offset="1" />
    </linearGradient>
    <linearGradient
       x1="45.966625"
       y1="28.94561"
       x2="45.966625"
       y2="48.086025"
       id="linearGradient3929"
       xlink:href="#linearGradient3814-9"
       gradientUnits="userSpaceOnUse"
       gradientTransform="translate(44.277498,16.233172)" />
    <linearGradient
       id="linearGradient3827">
      <stop
         id="stop3829"
         style="stop-color:#ffffff;stop-opacity:1"
         offset="0" />
      <stop
         id="stop3831"
         style="stop-color:#ffffff;stop-opacity:0"
         offset="1" />
    </linearGradient>
    <linearGradient
       x1="76.75824"
       y1="27.409969"
       x2="76.75824"
       y2="56.865051"
       id="linearGradient3926"
       xlink:href="#linearGradient3814-9"
       gradientUnits="userSpaceOnUse"
       gradientTransform="matrix(-1,0,0,1,80.94186,38.325122)" />
    <linearGradient
       id="linearGradient3834">
      <stop
         id="stop3836"
         style="stop-color:#ffffff;stop-opacity:1"
         offset="0" />
      <stop
         id="stop3838"
         style="stop-color:#ffffff;stop-opacity:0"
         offset="1" />
    </linearGradient>
    <linearGradient
       x1="75.917961"
       y1="63.13913"
       x2="75.917961"
       y2="76.550301"
       id="linearGradient3235"
       xlink:href="#linearGradient3862-9"
       gradientUnits="userSpaceOnUse"
       gradientTransform="matrix(-1,0,0,1,85.59375,12.000001)" />
    <linearGradient
       id="linearGradient3862-9">
      <stop
         id="stop3864-9"
         style="stop-color:#ffffff;stop-opacity:1"
         offset="0" />
      <stop
         id="stop3866-2"
         style="stop-color:#ffffff;stop-opacity:0"
         offset="1" />
    </linearGradient>
    <linearGradient
       x1="35.83757"
       y1="59.202038"
       x2="35.83757"
       y2="87.445847"
       id="linearGradient5538"
       xlink:href="#linearGradient3814-9"
       gradientUnits="userSpaceOnUse"
       gradientTransform="matrix(-1,0,0,1,113.90625,7)" />
    <linearGradient
       id="linearGradient3845">
      <stop
         id="stop3847"
         style="stop-color:#ffffff;stop-opacity:1"
         offset="0" />
      <stop
         id="stop3849"
         style="stop-color:#ffffff;stop-opacity:0"
         offset="1" />
    </linearGradient>
    <linearGradient
       x1="45.966625"
       y1="28.94561"
       x2="45.966625"
       y2="48.086025"
       id="linearGradient5542"
       xlink:href="#linearGradient3814-9"
       gradientUnits="userSpaceOnUse"
       gradientTransform="translate(54.277498,38.233171)" />
    <linearGradient
       id="linearGradient3852">
      <stop
         id="stop3854"
         style="stop-color:#ffffff;stop-opacity:1"
         offset="0" />
      <stop
         id="stop3856"
         style="stop-color:#ffffff;stop-opacity:0"
         offset="1" />
    </linearGradient>
    <linearGradient
       x1="48"
       y1="20.220806"
       x2="48"
       y2="138.66119"
       id="linearGradient3613"
       xlink:href="#linearGradient3737"
       gradientUnits="userSpaceOnUse" />
    <linearGradient
       id="linearGradient3737">
      <stop
         id="stop3739"
         style="stop-color:#ffffff;stop-opacity:1"
         offset="0" />
      <stop
         id="stop3741"
         style="stop-color:#ffffff;stop-opacity:0"
         offset="1" />
    </linearGradient>
    <clipPath
       id="clipPath3613">
      <rect
         width="84"
         height="84"
         rx="6"
         ry="6"
         x="6"
         y="6"
         id="rect3615"
         style="fill:#ffffff;fill-opacity:1;fill-rule:nonzero;stroke:none" />
    </clipPath>
    <filter
       x="-0.192"
       y="-0.192"
       width="1.3839999"
       height="1.3839999"
       color-interpolation-filters="sRGB"
       id="filter3794">
      <feGaussianBlur
         id="feGaussianBlur3796"
         stdDeviation="5.28" />
    </filter>
    <radialGradient
       cx="143"
       cy="-26"
       r="4"
       fx="143"
       fy="-26"
       id="radialGradient5300"
       xlink:href="#linearGradient4648-2"
       gradientUnits="userSpaceOnUse"
       gradientTransform="matrix(1.0349557,-0.01760103,0.01790809,1.0530117,-4.5330553,3.8952517)" />
    <linearGradient
       id="linearGradient4648-2">
      <stop
         id="stop4650-4"
         style="stop-color:#f7d997;stop-opacity:1"
         offset="0" />
      <stop
         id="stop4652-7"
         style="stop-color:#ffce5a;stop-opacity:1"
         offset="0.37649068" />
      <stop
         id="stop4654-0"
         style="stop-color:#bc8711;stop-opacity:1"
         offset="0.72869164" />
      <stop
         id="stop4656-8"
         style="stop-color:#6e3600;stop-opacity:1"
         offset="1" />
    </linearGradient>
    <linearGradient
       x1="120"
       y1="-4"
       x2="162.54593"
       y2="-3.6969962"
       id="linearGradient5302"
       xlink:href="#linearGradient4480-4"
       gradientUnits="userSpaceOnUse" />
    <linearGradient
       id="linearGradient4480-4">
      <stop
         id="stop4482-6"
         style="stop-color:#f0bc47;stop-opacity:1"
         offset="0" />
      <stop
         id="stop4484-0"
         style="stop-color:#ffce5a;stop-opacity:1"
         offset="0.55790973" />
      <stop
         id="stop4486-9"
         style="stop-color:#bc8711;stop-opacity:1"
         offset="0.72869164" />
      <stop
         id="stop4488-7"
         style="stop-color:#6e3600;stop-opacity:1"
         offset="1" />
    </linearGradient>
    <radialGradient
       cx="150.94638"
       cy="-7.8292923"
       r="2.4745307"
       fx="150.94638"
       fy="-7.8292923"
       id="radialGradient5304"
       xlink:href="#linearGradient4272-8"
       gradientUnits="userSpaceOnUse"
       gradientTransform="matrix(1,0,0,4.489796,0,27.322633)" />
    <linearGradient
       id="linearGradient4272-8">
      <stop
         id="stop4274-0"
         style="stop-color:#ffecad;stop-opacity:1"
         offset="0" />
      <stop
         id="stop4276-7"
         style="stop-color:#ffecad;stop-opacity:0"
         offset="1" />
    </linearGradient>
    <linearGradient
       x1="148.41229"
       y1="-23.073612"
       x2="167.394"
       y2="10.86281"
       id="linearGradient5306"
       xlink:href="#linearGradient4349-3"
       gradientUnits="userSpaceOnUse" />
    <linearGradient
       id="linearGradient4349-3">
      <stop
         id="stop4351-1"
         style="stop-color:#f0bd48;stop-opacity:1"
         offset="0" />
      <stop
         id="stop4353-0"
         style="stop-color:#f0bd48;stop-opacity:0"
         offset="1" />
    </linearGradient>
    <linearGradient
       x1="145.95732"
       y1="-23.998249"
       x2="145.95732"
       y2="-19.957472"
       id="linearGradient5308"
       xlink:href="#linearGradient4315-1"
       gradientUnits="userSpaceOnUse" />
    <linearGradient
       id="linearGradient4315-1">
      <stop
         id="stop4317-0"
         style="stop-color:#6a3200;stop-opacity:1"
         offset="0" />
      <stop
         id="stop4319-3"
         style="stop-color:#6a3200;stop-opacity:0"
         offset="1" />
    </linearGradient>
    <linearGradient
       x1="126.94941"
       y1="-6.3611088"
       x2="145.84375"
       y2="-6.3611088"
       id="linearGradient5310"
       xlink:href="#linearGradient4377-0"
       gradientUnits="userSpaceOnUse" />
    <linearGradient
       id="linearGradient4377-0">
      <stop
         id="stop4379-5"
         style="stop-color:#a97400;stop-opacity:1"
         offset="0" />
      <stop
         id="stop4381-2"
         style="stop-color:#a97400;stop-opacity:0"
         offset="1" />
    </linearGradient>
    <linearGradient
       x1="125.41395"
       y1="5.4448237"
       x2="163.22527"
       y2="5.2299275"
       id="linearGradient5312"
       xlink:href="#linearGradient4514-8"
       gradientUnits="userSpaceOnUse"
       gradientTransform="translate(-0.28475354,-1.5)"
       spreadMethod="reflect" />
    <linearGradient
       id="linearGradient4514-8">
      <stop
         id="stop4516-8"
         style="stop-color:#a06a00;stop-opacity:1"
         offset="0" />
      <stop
         id="stop4522-7"
         style="stop-color:#cb971f;stop-opacity:1"
         offset="0.14430347" />
      <stop
         id="stop4524-2"
         style="stop-color:#733d00;stop-opacity:1"
         offset="0.15944791" />
      <stop
         id="stop4526-2"
         style="stop-color:#9a6000;stop-opacity:1"
         offset="0.4682675" />
      <stop
         id="stop4552-4"
         style="stop-color:#d7a32b;stop-opacity:1"
         offset="0.47961238" />
      <stop
         id="stop4528-3"
         style="stop-color:#d8a42c;stop-opacity:1"
         offset="0.47962314" />
      <stop
         id="stop4530-2"
         style="stop-color:#5a2900;stop-opacity:1"
         offset="0.83766484" />
      <stop
         id="stop4540-3"
         style="stop-color:#0f0000;stop-opacity:1"
         offset="0.84914237" />
      <stop
         id="stop4518-9"
         style="stop-color:#0d0000;stop-opacity:1"
         offset="1" />
    </linearGradient>
    <radialGradient
       cx="150.94638"
       cy="-7.8292923"
       r="2.4745307"
       fx="150.94638"
       fy="-7.8292923"
       id="radialGradient5314"
       xlink:href="#linearGradient4272-8"
       gradientUnits="userSpaceOnUse"
       gradientTransform="matrix(1,0,0,4.489796,0,27.322633)" />
    <linearGradient
       id="linearGradient3906">
      <stop
         id="stop3908"
         style="stop-color:#ffecad;stop-opacity:1"
         offset="0" />
      <stop
         id="stop3910"
         style="stop-color:#ffecad;stop-opacity:0"
         offset="1" />
    </linearGradient>
    <radialGradient
       cx="144.07829"
       cy="-21.110958"
       r="4.7975597"
       fx="144.07829"
       fy="-21.110958"
       id="radialGradient5316"
       xlink:href="#linearGradient4272-8"
       gradientUnits="userSpaceOnUse"
       gradientTransform="matrix(1,0,0,0.26315788,0,-15.555443)" />
    <linearGradient
       id="linearGradient3913">
      <stop
         id="stop3915"
         style="stop-color:#ffecad;stop-opacity:1"
         offset="0" />
      <stop
         id="stop3917"
         style="stop-color:#ffecad;stop-opacity:0"
         offset="1" />
    </linearGradient>
    <linearGradient
       x1="130.57146"
       y1="5.7313523"
       x2="157.63795"
       y2="5.3015594"
       id="linearGradient5318"
       xlink:href="#linearGradient4544-7"
       gradientUnits="userSpaceOnUse"
       gradientTransform="translate(-0.28475354,-1.509)"
       spreadMethod="pad" />
    <linearGradient
       id="linearGradient4544-7">
      <stop
         id="stop4546-3"
         style="stop-color:#eecb7b;stop-opacity:0"
         offset="0" />
      <stop
         id="stop4560-9"
         style="stop-color:#eec243;stop-opacity:0.51181102"
         offset="0.22882126" />
      <stop
         id="stop4548-0"
         style="stop-color:#efd17e;stop-opacity:1"
         offset="0.45764253" />
      <stop
         id="stop4556-0"
         style="stop-color:#ffffc4;stop-opacity:1"
         offset="0.47079113" />
      <stop
         id="stop4550-7"
         style="stop-color:#ffffd4;stop-opacity:0"
         offset="1" />
    </linearGradient>
    <linearGradient
       x1="144.02779"
       y1="-6.1613107"
       x2="165.13052"
       y2="-6.1613107"
       id="linearGradient5320"
       xlink:href="#linearGradient4402-1"
       gradientUnits="userSpaceOnUse"
       spreadMethod="reflect" />
    <linearGradient
       id="linearGradient4402-1">
      <stop
         id="stop4404-9"
         style="stop-color:#371100;stop-opacity:1"
         offset="0" />
      <stop
         id="stop4406-2"
         style="stop-color:#371100;stop-opacity:0.37007874"
         offset="1" />
    </linearGradient>
    <radialGradient
       cx="144.07829"
       cy="-21.110958"
       r="4.7975597"
       fx="144.07829"
       fy="-21.110958"
       id="radialGradient5322"
       xlink:href="#linearGradient4272-8"
       gradientUnits="userSpaceOnUse"
       gradientTransform="matrix(1,0,0,0.26315788,0,-15.555443)" />
    <linearGradient
       id="linearGradient3931">
      <stop
         id="stop3933"
         style="stop-color:#ffecad;stop-opacity:1"
         offset="0" />
      <stop
         id="stop3935"
         style="stop-color:#ffecad;stop-opacity:0"
         offset="1" />
    </linearGradient>
    <linearGradient
       x1="139.69525"
       y1="-23.480375"
       x2="116.76143"
       y2="30.353294"
       id="linearGradient5324"
       xlink:href="#linearGradient4332-5"
       gradientUnits="userSpaceOnUse" />
    <linearGradient
       id="linearGradient4332-5">
      <stop
         id="stop4334-3"
         style="stop-color:#7c4400;stop-opacity:1"
         offset="0" />
      <stop
         id="stop4336-0"
         style="stop-color:#7c4400;stop-opacity:0"
         offset="1" />
    </linearGradient>
    <linearGradient
       x1="135.63652"
       y1="-23.023407"
       x2="132.8745"
       y2="-2.0437706"
       id="linearGradient5326"
       xlink:href="#linearGradient4402-1"
       gradientUnits="userSpaceOnUse"
       spreadMethod="reflect" />
    <linearGradient
       id="linearGradient3942">
      <stop
         id="stop3944"
         style="stop-color:#371100;stop-opacity:1"
         offset="0" />
      <stop
         id="stop3946"
         style="stop-color:#371100;stop-opacity:0.37007874"
         offset="1" />
    </linearGradient>
    <linearGradient
       x1="120"
       y1="16"
       x2="168"
       y2="16"
       id="linearGradient5328"
       xlink:href="#linearGradient4582-7"
       gradientUnits="userSpaceOnUse" />
    <linearGradient
       id="linearGradient4582-7">
      <stop
         id="stop4584-8"
         style="stop-color:#421900;stop-opacity:1"
         offset="0" />
      <stop
         id="stop4586-7"
         style="stop-color:#c4901a;stop-opacity:1"
         offset="1" />
    </linearGradient>
    <linearGradient
       x1="79.824974"
       y1="11.390625"
       x2="167.875"
       y2="11.390625"
       id="linearGradient5330"
       xlink:href="#linearGradient4574-1"
       gradientUnits="userSpaceOnUse" />
    <linearGradient
       id="linearGradient4574-1">
      <stop
         id="stop4576-1"
         style="stop-color:#ffeeaa;stop-opacity:1"
         offset="0" />
      <stop
         id="stop4578-1"
         style="stop-color:#ffeeaa;stop-opacity:0"
         offset="1" />
    </linearGradient>
    <linearGradient
       x1="120"
       y1="16"
       x2="168"
       y2="16"
       id="linearGradient5332"
       xlink:href="#linearGradient4402-1"
       gradientUnits="userSpaceOnUse"
       gradientTransform="matrix(0.82745619,0,0,0.88889862,24.846309,-4.4445806)" />
    <linearGradient
       id="linearGradient3957">
      <stop
         id="stop3959"
         style="stop-color:#371100;stop-opacity:1"
         offset="0" />
      <stop
         id="stop3961"
         style="stop-color:#371100;stop-opacity:0.37007874"
         offset="1" />
    </linearGradient>
    <linearGradient
       x1="152.18506"
       y1="23.547825"
       x2="152.18506"
       y2="7.1485701"
       id="linearGradient5334"
       xlink:href="#linearGradient4607-5"
       gradientUnits="userSpaceOnUse" />
    <linearGradient
       id="linearGradient4607-5">
      <stop
         id="stop4609-5"
         style="stop-color:#ffce5a;stop-opacity:1"
         offset="0" />
      <stop
         id="stop4611-3"
         style="stop-color:#a8730d;stop-opacity:1"
         offset="1" />
    </linearGradient>
    <radialGradient
       cx="152.78711"
       cy="37.210262"
       r="24"
       fx="152.78711"
       fy="37.210262"
       id="radialGradient5336"
       xlink:href="#linearGradient3862-9-5"
       gradientUnits="userSpaceOnUse"
       gradientTransform="matrix(0.73130073,-0.09627757,0.04350873,0.33048162,39.434813,25.482751)" />
    <linearGradient
       id="linearGradient3862-9-5">
      <stop
         id="stop3864-9-2"
         style="stop-color:#ffffff;stop-opacity:1"
         offset="0" />
      <stop
         id="stop3866-2-6"
         style="stop-color:#ffffff;stop-opacity:0"
         offset="1" />
    </linearGradient>
    <radialGradient
       cx="150.94638"
       cy="-7.8292923"
       r="2.4745307"
       fx="150.94638"
       fy="-7.8292923"
       id="radialGradient5338"
       xlink:href="#linearGradient4272-8"
       gradientUnits="userSpaceOnUse"
       gradientTransform="matrix(1,0,0,4.489796,0,27.322633)" />
    <linearGradient
       id="linearGradient3972">
      <stop
         id="stop3974"
         style="stop-color:#ffecad;stop-opacity:1"
         offset="0" />
      <stop
         id="stop3976"
         style="stop-color:#ffecad;stop-opacity:0"
         offset="1" />
    </linearGradient>
    <clipPath
       id="clipPath4728-2">
      <path
         inkscape:connector-curvature="0"
         d="m 168,16 a 24,8 0 1 1 -48,0 24,8 0 1 1 48,0 z"
         id="path4730-8"
         style="color:#000000;fill:#ff00ff;fill-opacity:1;fill-rule:nonzero;stroke:none;stroke-width:0.01;marker:none;visibility:visible;display:inline;overflow:visible;enable-background:accumulate" />
    </clipPath>
    <radialGradient
       cx="143"
       cy="-26"
       r="4"
       fx="143"
       fy="-26"
       id="radialGradient5340"
       xlink:href="#linearGradient4648-2"
       gradientUnits="userSpaceOnUse"
       gradientTransform="matrix(1.0349557,-0.01760103,0.01790809,1.0530117,-4.5330553,3.8952517)" />
    <linearGradient
       id="linearGradient3981">
      <stop
         id="stop3983"
         style="stop-color:#f7d997;stop-opacity:1"
         offset="0" />
      <stop
         id="stop3985"
         style="stop-color:#ffce5a;stop-opacity:1"
         offset="0.37649068" />
      <stop
         id="stop3987"
         style="stop-color:#bc8711;stop-opacity:1"
         offset="0.72869164" />
      <stop
         id="stop3989"
         style="stop-color:#6e3600;stop-opacity:1"
         offset="1" />
    </linearGradient>
    <radialGradient
       cx="143.99702"
       cy="-26.691803"
       r="4"
       fx="143.99702"
       fy="-26.691803"
       id="radialGradient5342"
       xlink:href="#linearGradient4694-2"
       gradientUnits="userSpaceOnUse"
       gradientTransform="matrix(4.5930162,0,0,0.95478622,-509.77182,37.584975)" />
    <linearGradient
       id="linearGradient4694-2">
      <stop
         id="stop4696-3"
         style="stop-color:#2b0f00;stop-opacity:0"
         offset="0" />
      <stop
         id="stop4714-0"
         style="stop-color:#2b0f00;stop-opacity:0.22834645"
         offset="0.38756061" />
      <stop
         id="stop4698-9"
         style="stop-color:#2b0f00;stop-opacity:1"
         offset="1" />
    </linearGradient>
    <radialGradient
       cx="150.94638"
       cy="-7.8292923"
       r="2.4745307"
       fx="150.94638"
       fy="-7.8292923"
       id="radialGradient5344"
       xlink:href="#linearGradient4272-8"
       gradientUnits="userSpaceOnUse"
       gradientTransform="matrix(1,0,0,4.489796,0,27.322633)" />
    <linearGradient
       id="linearGradient3997">
      <stop
         id="stop3999"
         style="stop-color:#ffecad;stop-opacity:1"
         offset="0" />
      <stop
         id="stop4001"
         style="stop-color:#ffecad;stop-opacity:0"
         offset="1" />
    </linearGradient>
    <linearGradient
       inkscape:collect="always"
       xlink:href="#ButtonColor-6"
       id="linearGradient4680"
       gradientUnits="userSpaceOnUse"
       x1="48"
       y1="90"
       x2="48"
       y2="5.9877172" />
    <linearGradient
       inkscape:collect="always"
       xlink:href="#linearGradient3737-1"
       id="linearGradient4682"
       gradientUnits="userSpaceOnUse"
       x1="31.714285"
       y1="6"
       x2="31.714285"
       y2="74.09301" />
    <linearGradient
       inkscape:collect="always"
       xlink:href="#linearGradient3814-9"
       id="linearGradient4684"
       gradientUnits="userSpaceOnUse"
       x1="48"
       y1="80"
       x2="48"
       y2="16" />
    <linearGradient
       inkscape:collect="always"
       xlink:href="#linearGradient4163"
       id="linearGradient4686"
       gradientUnits="userSpaceOnUse"
       x1="47.726624"
       y1="78.923363"
       x2="47.726624"
       y2="16.640985" />
    <linearGradient
       inkscape:collect="always"
       xlink:href="#linearGradient3814-9"
       id="linearGradient4688"
       gradientUnits="userSpaceOnUse"
       gradientTransform="matrix(-0.96032399,0.27888679,0.27888679,0.96032399,111.43916,15.295347)"
       x1="39.819206"
       y1="13.055696"
       x2="44.586384"
       y2="29.471077" />
    <linearGradient
       inkscape:collect="always"
       xlink:href="#linearGradient3814-9"
       id="linearGradient4690"
       gradientUnits="userSpaceOnUse"
       gradientTransform="translate(-10,-3)"
       x1="35.83757"
       y1="59.202038"
       x2="35.97998"
       y2="80.75106" />
    <linearGradient
       inkscape:collect="always"
       xlink:href="#linearGradient3814-9"
       id="linearGradient4692"
       gradientUnits="userSpaceOnUse"
       gradientTransform="translate(44.277498,16.233172)"
       x1="45.966625"
       y1="28.94561"
       x2="45.966625"
       y2="48.086025" />
    <linearGradient
       inkscape:collect="always"
       xlink:href="#linearGradient3814-9"
       id="linearGradient4694"
       gradientUnits="userSpaceOnUse"
       gradientTransform="matrix(-1,0,0,1,80.94186,38.325122)"
       x1="76.75824"
       y1="27.409969"
       x2="76.75824"
       y2="56.865051" />
    <linearGradient
       inkscape:collect="always"
       xlink:href="#linearGradient3862-9"
       id="linearGradient4696"
       gradientUnits="userSpaceOnUse"
       gradientTransform="matrix(-1,0,0,1,85.59375,12.000001)"
       x1="75.917961"
       y1="63.13913"
       x2="75.917961"
       y2="76.550301" />
    <linearGradient
       inkscape:collect="always"
       xlink:href="#linearGradient3814-9"
       id="linearGradient4698"
       gradientUnits="userSpaceOnUse"
       gradientTransform="matrix(-1,0,0,1,113.90625,7)"
       x1="35.83757"
       y1="59.202038"
       x2="35.83757"
       y2="87.445847" />
    <linearGradient
       inkscape:collect="always"
       xlink:href="#linearGradient3814-9"
       id="linearGradient4700"
       gradientUnits="userSpaceOnUse"
       gradientTransform="translate(54.277498,38.233171)"
       x1="45.966625"
       y1="28.94561"
       x2="45.966625"
       y2="48.086025" />
    <linearGradient
       inkscape:collect="always"
       xlink:href="#linearGradient3737"
       id="linearGradient4702"
       gradientUnits="userSpaceOnUse"
       x1="48"
       y1="20.220806"
       x2="48"
       y2="138.66119" />
    <radialGradient
       inkscape:collect="always"
       xlink:href="#linearGradient4648-2"
       id="radialGradient4704"
       gradientUnits="userSpaceOnUse"
       gradientTransform="matrix(1.0349557,-0.01760103,0.01790809,1.0530117,-4.5330553,3.8952517)"
       cx="143"
       cy="-26"
       fx="143"
       fy="-26"
       r="4" />
    <linearGradient
       inkscape:collect="always"
       xlink:href="#linearGradient4480-4"
       id="linearGradient4706"
       gradientUnits="userSpaceOnUse"
       x1="120"
       y1="-4"
       x2="162.54593"
       y2="-3.6969962" />
    <radialGradient
       inkscape:collect="always"
       xlink:href="#linearGradient4272-8"
       id="radialGradient4708"
       gradientUnits="userSpaceOnUse"
       gradientTransform="matrix(1,0,0,4.489796,0,27.322633)"
       cx="150.94638"
       cy="-7.8292923"
       fx="150.94638"
       fy="-7.8292923"
       r="2.4745307" />
    <linearGradient
       inkscape:collect="always"
       xlink:href="#linearGradient4349-3"
       id="linearGradient4710"
       gradientUnits="userSpaceOnUse"
       x1="148.41229"
       y1="-23.073612"
       x2="167.394"
       y2="10.86281" />
    <linearGradient
       inkscape:collect="always"
       xlink:href="#linearGradient4315-1"
       id="linearGradient4712"
       gradientUnits="userSpaceOnUse"
       x1="145.95732"
       y1="-23.998249"
       x2="145.95732"
       y2="-19.957472" />
    <linearGradient
       inkscape:collect="always"
       xlink:href="#linearGradient4377-0"
       id="linearGradient4714"
       gradientUnits="userSpaceOnUse"
       x1="126.94941"
       y1="-6.3611088"
       x2="145.84375"
       y2="-6.3611088" />
    <linearGradient
       inkscape:collect="always"
       xlink:href="#linearGradient4514-8"
       id="linearGradient4716"
       gradientUnits="userSpaceOnUse"
       gradientTransform="translate(-0.28475354,-1.5)"
       spreadMethod="reflect"
       x1="125.41395"
       y1="5.4448237"
       x2="163.22527"
       y2="5.2299275" />
    <radialGradient
       inkscape:collect="always"
       xlink:href="#linearGradient4272-8"
       id="radialGradient4718"
       gradientUnits="userSpaceOnUse"
       gradientTransform="matrix(1,0,0,4.489796,0,27.322633)"
       cx="150.94638"
       cy="-7.8292923"
       fx="150.94638"
       fy="-7.8292923"
       r="2.4745307" />
    <radialGradient
       inkscape:collect="always"
       xlink:href="#linearGradient4272-8"
       id="radialGradient4720"
       gradientUnits="userSpaceOnUse"
       gradientTransform="matrix(1,0,0,0.26315788,0,-15.555443)"
       cx="144.07829"
       cy="-21.110958"
       fx="144.07829"
       fy="-21.110958"
       r="4.7975597" />
    <linearGradient
       inkscape:collect="always"
       xlink:href="#linearGradient4544-7"
       id="linearGradient4722"
       gradientUnits="userSpaceOnUse"
       gradientTransform="translate(-0.28475354,-1.509)"
       spreadMethod="pad"
       x1="130.57146"
       y1="5.7313523"
       x2="157.63795"
       y2="5.3015594" />
    <linearGradient
       inkscape:collect="always"
       xlink:href="#linearGradient4402-1"
       id="linearGradient4724"
       gradientUnits="userSpaceOnUse"
       spreadMethod="reflect"
       x1="144.02779"
       y1="-6.1613107"
       x2="165.13052"
       y2="-6.1613107" />
    <radialGradient
       inkscape:collect="always"
       xlink:href="#linearGradient4272-8"
       id="radialGradient4726"
       gradientUnits="userSpaceOnUse"
       gradientTransform="matrix(1,0,0,0.26315788,0,-15.555443)"
       cx="144.07829"
       cy="-21.110958"
       fx="144.07829"
       fy="-21.110958"
       r="4.7975597" />
    <linearGradient
       inkscape:collect="always"
       xlink:href="#linearGradient4332-5"
       id="linearGradient4728"
       gradientUnits="userSpaceOnUse"
       x1="139.69525"
       y1="-23.480375"
       x2="116.76143"
       y2="30.353294" />
    <linearGradient
       inkscape:collect="always"
       xlink:href="#linearGradient4402-1"
       id="linearGradient4730"
       gradientUnits="userSpaceOnUse"
       spreadMethod="reflect"
       x1="135.63652"
       y1="-23.023407"
       x2="132.8745"
       y2="-2.0437706" />
    <linearGradient
       inkscape:collect="always"
       xlink:href="#linearGradient4582-7"
       id="linearGradient4732"
       gradientUnits="userSpaceOnUse"
       x1="120"
       y1="16"
       x2="168"
       y2="16" />
    <linearGradient
       inkscape:collect="always"
       xlink:href="#linearGradient4574-1"
       id="linearGradient4734"
       gradientUnits="userSpaceOnUse"
       x1="79.824974"
       y1="11.390625"
       x2="167.875"
       y2="11.390625" />
    <linearGradient
       inkscape:collect="always"
       xlink:href="#linearGradient4402-1"
       id="linearGradient4736"
       gradientUnits="userSpaceOnUse"
       gradientTransform="matrix(0.82745619,0,0,0.88889862,24.846309,-4.4445806)"
       x1="120"
       y1="16"
       x2="168"
       y2="16" />
    <linearGradient
       inkscape:collect="always"
       xlink:href="#linearGradient4607-5"
       id="linearGradient4738"
       gradientUnits="userSpaceOnUse"
       x1="152.18506"
       y1="23.547825"
       x2="152.18506"
       y2="7.1485701" />
    <radialGradient
       inkscape:collect="always"
       xlink:href="#linearGradient3862-9-5"
       id="radialGradient4740"
       gradientUnits="userSpaceOnUse"
       gradientTransform="matrix(0.73130073,-0.09627757,0.04350873,0.33048162,39.434813,25.482751)"
       cx="152.78711"
       cy="37.210262"
       fx="152.78711"
       fy="37.210262"
       r="24" />
    <radialGradient
       inkscape:collect="always"
       xlink:href="#linearGradient4272-8"
       id="radialGradient4742"
       gradientUnits="userSpaceOnUse"
       gradientTransform="matrix(1,0,0,4.489796,0,27.322633)"
       cx="150.94638"
       cy="-7.8292923"
       fx="150.94638"
       fy="-7.8292923"
       r="2.4745307" />
    <radialGradient
       inkscape:collect="always"
       xlink:href="#linearGradient4648-2"
       id="radialGradient4744"
       gradientUnits="userSpaceOnUse"
       gradientTransform="matrix(1.0349557,-0.01760103,0.01790809,1.0530117,-4.5330553,3.8952517)"
       cx="143"
       cy="-26"
       fx="143"
       fy="-26"
       r="4" />
    <radialGradient
       inkscape:collect="always"
       xlink:href="#linearGradient4694-2"
       id="radialGradient4746"
       gradientUnits="userSpaceOnUse"
       gradientTransform="matrix(4.5930162,0,0,0.95478622,-509.77182,37.584975)"
       cx="143.99702"
       cy="-26.691803"
       fx="143.99702"
       fy="-26.691803"
       r="4" />
    <radialGradient
       inkscape:collect="always"
       xlink:href="#linearGradient4272-8"
       id="radialGradient4748"
       gradientUnits="userSpaceOnUse"
       gradientTransform="matrix(1,0,0,4.489796,0,27.322633)"
       cx="150.94638"
       cy="-7.8292923"
       fx="150.94638"
       fy="-7.8292923"
       r="2.4745307" />
    <clipPath
       clipPathUnits="userSpaceOnUse"
       id="clipPath4750">
      <rect
         x="6"
         y="6.0000038"
         width="84"
         height="84"
         style="fill:url(#linearGradient4754);fill-opacity:1"
         id="rect4752"
         rx="22.826086"
         ry="22.826086" />
    </clipPath>
    <linearGradient
       inkscape:collect="always"
       xlink:href="#linearGradient3795"
       id="linearGradient4754"
       gradientUnits="userSpaceOnUse"
       gradientTransform="matrix(1.05,0,0,1.05,-2.3999508,-1006.579)"
       x1="47.999954"
       y1="962.62189"
       x2="47.999954"
       y2="1046.1001" />
  </defs>
  <sodipodi:namedview
     id="base"
     pagecolor="#ffffff"
     bordercolor="#666666"
     borderopacity="1.0"
     inkscape:pageopacity="0.0"
     inkscape:pageshadow="2"
     inkscape:zoom="3.959798"
     inkscape:cx="33.538031"
     inkscape:cy="59.964634"
     inkscape:document-units="px"
     inkscape:current-layer="layer1"
     showgrid="false"
     inkscape:window-width="1280"
     inkscape:window-height="750"
     inkscape:window-x="0"
     inkscape:window-y="22"
     inkscape:window-maximized="1"
     showguides="true"
     inkscape:guide-bbox="true">
    <sodipodi:guide
       orientation="0,1"
       position="-24.748737,0"
       id="guide11064" />
    <sodipodi:guide
       orientation="0,1"
       position="-23.233509,96"
       id="guide11066" />
    <sodipodi:guide
       orientation="1,0"
       position="0,54.800776"
       id="guide11068" />
    <sodipodi:guide
       orientation="1,0"
       position="96,51.012704"
       id="guide11070" />
    <sodipodi:guide
       orientation="0,1"
       position="-18.94036,48"
       id="guide11072" />
    <sodipodi:guide
       orientation="1,0"
       position="48,79.296975"
       id="guide11074" />
    <sodipodi:guide
       orientation="1,0"
       position="2,75.508903"
       id="guide11076" />
    <sodipodi:guide
       orientation="0,1"
       position="-77.27667,2"
       id="guide11078" />
    <sodipodi:guide
       orientation="1,0"
       position="94,77.781746"
       id="guide11080" />
    <sodipodi:guide
       orientation="0,1"
       position="-65.912454,94"
       id="guide11082" />
  </sodipodi:namedview>
  <metadata
     id="metadata11042">
    <rdf:RDF>
      <cc:Work
         rdf:about="">
        <dc:format>image/svg+xml</dc:format>
        <dc:type
           rdf:resource="http://purl.org/dc/dcmitype/StillImage" />
        <dc:title></dc:title>
      </cc:Work>
    </rdf:RDF>
  </metadata>
  <g
     inkscape:label="Layer 1"
     inkscape:groupmode="layer"
     id="layer1"
     transform="translate(0,-956.36218)">
    <g
       transform="matrix(1.0952381,0,0,1.0952381,-4.5714286,951.79075)"
       id="g3726"
       clip-path="url(#clipPath4750)">
      <g
         id="layer1-0">
        <path
           style="fill:url(#linearGradient4680);fill-opacity:1;fill-rule:nonzero;stroke:none"
           id="rect2419"
           inkscape:connector-curvature="0"
           d="M 12,6 C 8.8423036,6 6.2807978,8.4087223 6.03125,11.5 8.5006537,11.517094 10.5,13.526594 10.5,16 c 0,2.484001 -2.016,4.5 -4.5,4.5 l 0,7 c 2.484,0 4.5,2.016 4.5,4.5 0,2.484001 -2.016,4.5 -4.5,4.5 l 0,7 c 2.484,0 4.5,2.016 4.5,4.5 0,2.484001 -2.016,4.5 -4.5,4.5 l 0,7 c 2.484,0 4.5,2.016 4.5,4.5 0,2.484001 -2.016,4.5 -4.5,4.5 l 0,7 c 2.484,-4e-6 4.5,2.016 4.5,4.5 0,2.473403 -1.9993463,4.482906 -4.46875,4.5 C 6.2807978,87.591278 8.8423036,90 12,90 c 0,-2.484 2.016,-4.5 4.5,-4.5 2.484001,0 4.5,2.016 4.5,4.5 l 7,0 c 0,-2.484 2.016,-4.5 4.5,-4.5 2.484001,0 4.5,2.016 4.5,4.5 l 7,0 c 0,-2.484 2.016,-4.5 4.5,-4.5 2.484001,0 4.5,2.016 4.5,4.5 l 7,0 c 0,-2.484 2.016,-4.5 4.5,-4.5 2.484001,0 4.5,2.016 4.5,4.5 l 7,0 c -4e-6,-2.484 2.016,-4.5 4.5,-4.5 2.452216,0 4.449324,1.966103 4.5,4.40625 C 87.688537,89.461133 89.746004,87.259273 89.96875,84.5 87.499346,84.482903 85.5,82.473406 85.5,80 c 0,-2.484004 2.016,-4.5 4.5,-4.5 l 0,-7 c -2.484,10e-7 -4.5,-2.016 -4.5,-4.5 0,-2.484 2.016,-4.5 4.5,-4.5 l 0,-7 c -2.484,10e-7 -4.5,-2.016 -4.5,-4.5 0,-2.484 2.016,-4.5 4.5,-4.5 l 0,-7 c -2.484,10e-7 -4.5,-2.016 -4.5,-4.5 0,-2.484 2.016,-4.5 4.5,-4.5 l 0,-7 c -2.484,1e-6 -4.5,-2.016 -4.5,-4.5 0,-2.473406 1.999346,-4.482906 4.46875,-4.5 C 89.746004,8.7407268 87.688537,6.538867 85,6.09375 84.949321,8.5338976 82.952219,10.5 80.5,10.5 78.015996,10.5 76,8.4840001 76,6 l -7,0 c 10e-7,2.4840004 -2.016,4.5 -4.5,4.5 C 62.016,10.5 60,8.4840001 60,6 l -7,0 c 10e-7,2.4840004 -2.016,4.5 -4.5,4.5 C 46.016,10.5 44,8.4840001 44,6 l -7,0 c 10e-7,2.4840004 -2.016,4.5 -4.5,4.5 C 30.016,10.5 28,8.4840001 28,6 l -7,0 c 1e-6,2.4840004 -2.016,4.5 -4.5,4.5 C 14.016,10.5 12,8.4840001 12,6 z" />
        <path
           style="opacity:0.8;fill:url(#linearGradient4682);fill-opacity:1;fill-rule:nonzero;stroke:none"
           id="path3421"
           inkscape:connector-curvature="0"
           d="m 12,6 c -3.1576964,0 -5.7192022,2.4087223 -5.96875,5.5 0.3875592,0.0027 0.7665092,0.06132 1.125,0.15625 C 7.6623387,9.7083063 9.2475019,8.2914957 11.28125,8 c 0.513582,2.458142 2.613584,4.375 5.21875,4.375 2.650061,0 4.786743,-1.978914 5.25,-4.5 l 5.5,0 c 0.463258,2.521086 2.599939,4.5 5.25,4.5 2.650061,0 4.786743,-1.978914 5.25,-4.5 l 5.5,0 c 0.463258,2.521086 2.599939,4.5 5.25,4.5 2.650061,0 4.786743,-1.978914 5.25,-4.5 l 5.5,0 c 0.463258,2.521086 2.599939,4.5 5.25,4.5 2.650061,0 4.786743,-1.978914 5.25,-4.5 l 5.5,0 c 0.463258,2.521085 2.599936,4.5 5.25,4.5 2.533754,0 4.599245,-1.797591 5.1875,-4.15625 1.565145,0.5523941 2.734682,1.812675 3.15625,3.4375 0.358491,-0.09493 0.737441,-0.153567 1.125,-0.15625 C 89.746004,8.7407268 87.688537,6.538867 85,6.09375 84.949321,8.5338976 82.952219,10.5 80.5,10.5 78.015996,10.5 76,8.4840001 76,6 l -7,0 c 10e-7,2.4840004 -2.016,4.5 -4.5,4.5 C 62.016,10.5 60,8.4840001 60,6 l -7,0 c 10e-7,2.4840004 -2.016,4.5 -4.5,4.5 C 46.016,10.5 44,8.4840001 44,6 l -7,0 c 10e-7,2.4840004 -2.016,4.5 -4.5,4.5 C 30.016,10.5 28,8.4840001 28,6 l -7,0 c 1e-6,2.4840004 -2.016,4.5 -4.5,4.5 C 14.016,10.5 12,8.4840001 12,6 z M 8.03125,12 C 9.4964802,12.742423 10.5,14.246206 10.5,16 c 0,2.484001 -2.016,4.5 -4.5,4.5 l 0,7 c 0.3210719,0 0.6354089,0.02973 0.9375,0.09375 l 0,-5.40625 c 2.5210853,-0.463258 4.5,-2.599938 4.5,-5.25 0,-2.251307 -1.432067,-4.133632 -3.40625,-4.9375 z m 79.9375,0 c -1.974183,0.803868 -3.40625,2.686193 -3.40625,4.9375 0,2.650061 1.978914,4.786743 4.5,5.25 l 0,5.40625 C 89.364591,27.52973 89.678928,27.5 90,27.5 l 0,-7 c -2.484,1e-6 -4.5,-2.016 -4.5,-4.5 0,-1.753794 1.00352,-3.257577 2.46875,-4 z M 8.1875,28.09375 C 9.5566917,28.865674 10.5,30.317187 10.5,32 c 0,2.484001 -2.016,4.5 -4.5,4.5 l 0,7 c 0.3210719,0 0.6354089,0.02973 0.9375,0.09375 l 0,-5.40625 c 2.5210853,-0.463258 4.5,-2.599938 4.5,-5.25 0,-2.189151 -1.359088,-4.009194 -3.25,-4.84375 z m 79.625,0 c -1.890912,0.834556 -3.25,2.654599 -3.25,4.84375 0,2.650061 1.978914,4.786743 4.5,5.25 l 0,5.40625 C 89.364591,43.52973 89.678928,43.5 90,43.5 l 0,-7 c -2.484,10e-7 -4.5,-2.016 -4.5,-4.5 0,-1.682813 0.943308,-3.134326 2.3125,-3.90625 z m -79.625,16 C 9.5566917,44.865674 10.5,46.317187 10.5,48 c 0,2.484001 -2.016,4.5 -4.5,4.5 l 0,7 c 0.3210719,0 0.6354089,0.02973 0.9375,0.09375 l 0,-5.40625 c 2.5210853,-0.463258 4.5,-2.599938 4.5,-5.25 0,-2.189151 -1.359088,-4.009194 -3.25,-4.84375 z m 79.625,0 c -1.890912,0.834556 -3.25,2.654599 -3.25,4.84375 0,2.650061 1.978914,4.786743 4.5,5.25 l 0,5.40625 C 89.364591,59.52973 89.678928,59.5 90,59.5 l 0,-7 c -2.484,10e-7 -4.5,-2.016 -4.5,-4.5 0,-1.682813 0.943308,-3.134326 2.3125,-3.90625 z m -79.625,16 C 9.5566917,60.865674 10.5,62.317187 10.5,64 c 0,2.484001 -2.016,4.5 -4.5,4.5 l 0,7 c 0.3210719,-10e-7 0.6354089,0.02973 0.9375,0.09375 l 0,-5.40625 c 2.5210853,-0.463258 4.5,-2.599938 4.5,-5.25 0,-2.189151 -1.359088,-4.009194 -3.25,-4.84375 z m 79.625,0 c -1.890912,0.834556 -3.25,2.654599 -3.25,4.84375 0,2.650061 1.978914,4.786743 4.5,5.25 l 0,5.40625 C 89.364591,75.52973 89.678928,75.5 90,75.5 l 0,-7 c -2.484,10e-7 -4.5,-2.016 -4.5,-4.5 0,-1.682813 0.943308,-3.134326 2.3125,-3.90625 z m -79.625,16 C 9.5566917,76.865674 10.5,78.317187 10.5,80 10.5,82.473403 8.5006537,84.482906 6.03125,84.5 6.2807978,87.591278 8.8423036,90 12,90 c 0,-2.162928 1.527437,-3.974973 3.5625,-4.40625 -2.154233,0.400506 -3.831866,2.130376 -4.28125,4.28125 -2.0541834,-0.294425 -3.6354873,-1.740587 -4.125,-3.71875 2.4131399,-0.548077 4.28125,-2.64583 4.28125,-5.21875 0,-2.189151 -1.359087,-4.009195 -3.25,-4.84375 z m 79.625,0 c -1.890912,0.834555 -3.25,2.654597 -3.25,4.84375 0,2.572922 1.868111,4.670672 4.28125,5.21875 -0.408658,1.653304 -1.572152,2.940917 -3.15625,3.5 -0.514722,-2.063828 -2.149193,-3.686183 -4.25,-4.0625 2.010646,0.421213 3.518381,2.188088 3.5625,4.3125 C 87.688537,89.461133 89.746004,87.259273 89.96875,84.5 87.499346,84.482903 85.5,82.473406 85.5,80 c 0,-1.682816 0.943308,-3.134327 2.3125,-3.90625 z m -70.34375,9.5 C 19.488914,86.036288 21,87.847644 21,90 l 0.75,0 c -0.405351,-2.205949 -2.090608,-3.993005 -4.28125,-4.40625 z m 14.0625,0 C 29.340608,86.006995 27.655351,87.794051 27.25,90 L 28,90 c 0,-2.152356 1.511086,-3.963712 3.53125,-4.40625 z m 1.9375,0 C 35.488914,86.036288 37,87.847644 37,90 l 0.75,0 c -0.405351,-2.205949 -2.090608,-3.993005 -4.28125,-4.40625 z m 14.0625,0 C 45.340608,86.006995 43.655351,87.794051 43.25,90 L 44,90 c 0,-2.152356 1.511086,-3.963712 3.53125,-4.40625 z m 1.9375,0 C 51.488914,86.036288 53,87.847644 53,90 l 0.75,0 c -0.405351,-2.205949 -2.090608,-3.993005 -4.28125,-4.40625 z m 14.0625,0 C 61.340608,86.006995 59.655351,87.794051 59.25,90 L 60,90 c 0,-2.152356 1.511086,-3.963712 3.53125,-4.40625 z m 1.9375,0 C 67.488914,86.036288 69,87.847644 69,90 l 0.75,0 c -0.405351,-2.205949 -2.090608,-3.993005 -4.28125,-4.40625 z m 14.0625,0 C 77.340608,86.006994 75.655349,87.794049 75.25,90 L 76,90 c -3e-6,-2.152356 1.511085,-3.963712 3.53125,-4.40625 z" />
        <path
           style="opacity:0.3;fill:url(#radialGradient2986);fill-opacity:1;fill-rule:nonzero;stroke:none"
           id="path2901"
           inkscape:connector-curvature="0"
           d="M 6.53125,9.5625 C 6.2652074,10.164261 6.0868357,10.811431 6.03125,11.5 8.157335,11.51472 9.9218068,13.006965 10.375,15 10.44877,14.676904 10.5,14.345348 10.5,14 10.5,11.69755 8.7626861,9.8279996 6.53125,9.5625 z m 82.9375,0 C 87.237314,9.8279996 85.5,11.69755 85.5,14 c 0,0.345348 0.05123,0.676904 0.125,1 0.453193,-1.993035 2.217665,-3.485283 4.34375,-3.5 -0.05569,-0.689818 -0.23378,-1.336098 -0.5,-1.9375 z M 6,25.5 l 0,2 c 2.138652,0 3.9181313,1.499149 4.375,3.5 0.07377,-0.323096 0.125,-0.654652 0.125,-1 0,-2.484 -2.016,-4.5 -4.5,-4.5 z m 84,0 c -2.484,0 -4.5,2.016 -4.5,4.5 0,0.345348 0.05123,0.676904 0.125,1 0.456869,-2.000851 2.236348,-3.5 4.375,-3.5 l 0,-2 z m -84,16 0,2 c 2.138652,0 3.9181313,1.499149 4.375,3.5 0.07377,-0.323096 0.125,-0.654652 0.125,-1 0,-2.484 -2.016,-4.5 -4.5,-4.5 z m 84,0 c -2.484,0 -4.5,2.016 -4.5,4.5 0,0.345348 0.05123,0.676904 0.125,1 0.456869,-2.000851 2.236348,-3.5 4.375,-3.5 l 0,-2 z m -84,16 0,2 c 2.138652,0 3.9181313,1.499149 4.375,3.5 0.07377,-0.323096 0.125,-0.654652 0.125,-1 0,-2.484 -2.016,-4.5 -4.5,-4.5 z m 84,0 c -2.484,0 -4.5,2.016 -4.5,4.5 0,0.345348 0.05123,0.676904 0.125,1 0.456869,-2.000851 2.236348,-3.5 4.375,-3.5 l 0,-2 z m -84,16 0,2 c 2.138652,-3e-6 3.9181313,1.499148 4.375,3.5 0.07318,-0.321834 0.125,-0.656125 0.125,-1 0,-2.484 -2.016,-4.500004 -4.5,-4.5 z m 84,0 c -2.484,0 -4.5,2.015996 -4.5,4.5 0,0.343875 0.05182,0.678166 0.125,1 0.456869,-2.000853 2.236348,-3.5 4.375,-3.5 l 0,-2 z m -73.5,10 C 14.016,83.5 12,85.516 12,88 9.5456675,88 7.4595845,86.537299 6.53125,84.4375 6.3655667,84.457213 6.2019294,84.498819 6.03125,84.5 6.2807978,87.591278 8.8423036,90 12,90 c 0,-2.484 2.016,-4.5 4.5,-4.5 2.484001,0 4.5,2.016 4.5,4.5 l 7,0 c 0,-2.484 2.016,-4.5 4.5,-4.5 2.484001,0 4.5,2.016 4.5,4.5 l 7,0 c 0,-2.484 2.016,-4.5 4.5,-4.5 2.484001,0 4.5,2.016 4.5,4.5 l 7,0 c 0,-2.484 2.016,-4.5 4.5,-4.5 2.484001,0 4.5,2.016 4.5,4.5 l 7,0 c -4e-6,-2.484 2.016,-4.5 4.5,-4.5 2.452216,0 4.449324,1.966103 4.5,4.40625 2.688537,-0.445117 4.746004,-2.646977 4.96875,-5.40625 -0.170679,-0.0012 -0.334317,-0.04279 -0.5,-0.0625 C 88.670091,86.241706 87.016403,87.572412 85,87.90625 84.949324,85.466103 82.952216,83.5 80.5,83.5 78.016,83.5 75.999996,85.516 76,88 l -7,0 c 0,-2.484 -2.015999,-4.5 -4.5,-4.5 -2.484,0 -4.5,2.016 -4.5,4.5 l -7,0 c 0,-2.484 -2.015999,-4.5 -4.5,-4.5 -2.484,0 -4.5,2.016 -4.5,4.5 l -7,0 c 0,-2.484 -2.015999,-4.5 -4.5,-4.5 -2.484,0 -4.5,2.016 -4.5,4.5 l -7,0 c 0,-2.484 -2.015999,-4.5 -4.5,-4.5 z" />
      </g>
      <g
         style="display:inline"
         id="layer3">
        <rect
           style="opacity:0.3;fill:url(#linearGradient4684);fill-opacity:1;fill-rule:nonzero;stroke:none;display:inline"
           id="rect4180"
           y="15"
           x="15.00013"
           height="66"
           width="66" />
        <rect
           style="fill:url(#linearGradient4686);fill-opacity:1;fill-rule:nonzero;stroke:none;display:inline"
           id="rect2411"
           y="16.000145"
           x="16.00013"
           height="63.999855"
           width="63.999855" />
        <g
           style="opacity:0.8"
           id="g3963"
           clip-path="url(#clipPath4146)"
           transform="translate(-4.4091797e-7,-10)">
          <path
             style="color:#000000;fill:url(#linearGradient4688);fill-opacity:1;fill-rule:nonzero;stroke:none;stroke-width:1.5;marker:none;visibility:visible;display:inline;overflow:visible;enable-background:accumulate"
             id="path3870"
             inkscape:connector-curvature="0"
             d="m 63.175794,37.576905 c 1.369476,-0.397707 2.807779,0.367992 3.205487,1.737469 0.262772,0.904832 0.01648,1.836087 -0.581625,2.479326 0.586553,0.478664 1.089738,1.056139 1.505518,1.710498 0.675277,-0.471862 1.39641,-0.882052 2.192631,-1.189959 -0.06956,-0.139988 -0.145615,-0.277311 -0.190748,-0.432721 -0.408457,-1.406491 0.403578,-2.883197 1.810068,-3.291654 1.030523,-0.299273 2.089976,0.06539 2.74654,0.829435 0.716458,-1.339395 1.929589,-2.411629 3.485864,-2.899711 -0.365462,-1.258437 0.359975,-2.577663 1.618413,-2.943125 1.184938,-0.344117 2.406347,0.292537 2.852109,1.417058 0.324269,-0.235887 0.702109,-0.431687 1.109389,-0.549965 1.887657,-0.548192 3.866495,0.539963 4.414688,2.42762 0.01796,0.06184 0.0078,0.126802 0.02228,0.188776 0.561904,-0.244831 1.133537,-0.459353 1.735737,-0.634238 1.602475,-0.465372 3.198285,-0.632208 4.779415,-0.574459 0.79208,-1.35483 2.08729,-2.428468 3.71337,-2.900697 3.36817,-0.978147 6.88309,0.954696 7.86124,4.322868 0.14672,0.505224 0.22646,1.01969 0.24699,1.522786 2.14913,-0.330399 4.24991,0.963796 4.87265,3.108152 0.12227,0.421021 0.17183,0.835673 0.16855,1.252696 0.2622,0.121854 0.51679,0.249167 0.76579,0.395888 0.63234,-0.964536 1.59387,-1.731977 2.81117,-2.085493 2.62791,-0.76317 5.33539,0.66766 6.06631,3.184536 0.73092,2.516876 -0.78897,5.175372 -3.41689,5.938542 -0.39479,0.114651 -0.79196,0.161401 -1.18396,0.181128 0.12908,3.889379 -2.36252,7.519728 -6.27254,8.655233 -1.22894,0.356896 -2.47953,0.422032 -3.66904,0.251997 -1.92,2.790095 -4.74823,4.958448 -8.25444,5.976689 -4.73744,1.37579 -9.602786,0.33061 -13.287237,-2.389162 -0.585007,0.617655 -1.333104,1.103049 -2.209076,1.35744 -2.331035,0.676952 -4.754739,-0.41753 -5.805842,-2.511733 -0.02951,0.0088 -0.06039,0.01754 -0.09003,0.02614 -3.469958,1.007707 -7.019558,0.122007 -9.602656,-2.027384 -0.854661,1.601925 -2.336349,2.85875 -4.217701,3.405112 -3.396856,0.986478 -6.953971,-0.707802 -8.344283,-3.857177 -0.398342,0.22718 -0.808409,0.430016 -1.268154,0.56353 -3.146095,0.913654 -6.444159,-0.899938 -7.357814,-4.046033 -0.913654,-3.146096 0.899938,-6.44416 4.046034,-7.357814 0.328869,-0.09551 0.658222,-0.151626 0.986469,-0.188857 0.336169,-0.608133 0.871585,-1.066644 1.552717,-1.26445 0.704334,-0.204545 1.442393,-0.08217 2.065929,0.278645 -0.128873,-3.224369 1.928678,-6.254798 5.167095,-7.195264 0.70473,-0.20466 1.409116,-0.264071 2.106545,-0.253808 -0.06387,-1.172217 0.667285,-2.276416 1.843037,-2.617865 z" />
          <path
             style="color:#000000;fill:url(#linearGradient4690);fill-opacity:1;fill-rule:nonzero;stroke:none;stroke-width:1.5;marker:none;visibility:visible;display:inline;overflow:visible;enable-background:accumulate"
             id="path3739"
             inkscape:connector-curvature="0"
             d="m 20.5,50.3125 c -0.950448,0 -1.828481,0.305591 -2.53125,0.8125 -0.580044,-0.08942 -1.176174,-0.15625 -1.78125,-0.15625 -2.643739,0 -5.050411,0.91554 -7,2.40625 C 8.962304,53.33941 8.735827,53.3125 8.5,53.3125 c -2.312525,0 -4.1875,1.771853 -4.1875,3.96875 0,0.823837 0.267268,1.583883 0.71875,2.21875 -0.267997,0.977691 -0.40625,1.999741 -0.40625,3.0625 0,1.073475 0.133008,2.107256 0.40625,3.09375 C 4.411327,65.37723 3.723921,65.21875 3,65.21875 c -2.736488,0 -4.9375,2.201013 -4.9375,4.9375 0,2.736488 2.201012,4.96875 4.9375,4.96875 0.36612,0 0.719001,-0.04965 1.0625,-0.125 -6.43e-4,0.04129 0,0.08355 0,0.125 0,4.316713 3.495787,7.8125 7.8125,7.8125 2.785961,0 5.209665,-1.46207 6.59375,-3.65625 2.041092,1.84097 4.753634,2.96875 7.71875,2.96875 4.014997,0 7.532983,-2.07204 9.59375,-5.1875 1.294164,0.971148 2.882433,1.5625 4.625,1.5625 2.724975,0 5.119177,-1.435314 6.5,-3.5625 0.693167,0.556164 1.542148,0.90625 2.5,0.90625 1.309291,0 2.478909,-0.629504 3.21875,-1.59375 0.322673,0.203233 0.71549,0.34375 1.125,0.34375 1.156262,0 2.09375,-0.937488 2.09375,-2.09375 0,-1.156262 -0.937488,-2.09375 -2.09375,-2.09375 -0.180666,0 -0.364014,0.01947 -0.53125,0.0625 C 52.711419,69.137709 51.398958,68.067364 49.8125,67.90625 49.72627,66.558185 48.619837,65.5 47.25,65.5 c -0.381196,0 -0.736814,0.07047 -1.0625,0.21875 -1.418341,-1.583489 -3.488111,-2.59375 -5.78125,-2.59375 -1.024452,0 -1.979942,0.201263 -2.875,0.5625 -0.224258,-2.373424 -2.22414,-4.25 -4.65625,-4.25 -0.280177,0 -0.545883,0.04651 -0.8125,0.09375 0.03207,-0.217664 0.0625,-0.429674 0.0625,-0.65625 0,-2.505235 -2.057265,-4.53125 -4.5625,-4.53125 -0.939463,0 -1.807279,0.260895 -2.53125,0.75 -0.124657,-0.147579 -0.243234,-0.296374 -0.375,-0.4375 0.01212,-0.123274 0.03125,-0.248717 0.03125,-0.375 0,-2.196897 -1.874975,-3.96875 -4.1875,-3.96875 z" />
          <path
             style="color:#000000;fill:url(#linearGradient4692);fill-opacity:1;fill-rule:nonzero;stroke:none;stroke-width:1.5;marker:none;visibility:visible;display:inline;overflow:visible;enable-background:accumulate"
             id="path3772"
             inkscape:connector-curvature="0"
             d="m 94.09,34.889421 c -1.79508,0 -3.28711,1.334802 -3.53125,3.0625 -0.99024,0.397809 -1.89622,0.908493 -2.71875,1.5625 -0.48316,-0.508483 -1.14945,-0.84375 -1.90625,-0.84375 -1.4646,0 -2.65625,1.191651 -2.65625,2.65625 0,0.01073 -1.3e-4,0.02055 0,0.03125 -1.03573,0.06809 -2.02712,0.266793 -2.96875,0.59375 -0.550274,-0.637053 -1.373388,-1.03125 -2.281252,-1.03125 -1.636798,0 -2.967312,1.308529 -3,2.9375 -0.04347,-0.0022 -0.08097,-0.03125 -0.125,-0.03125 -1.203669,0 -2.223302,0.869855 -2.46875,2 -2.45358,0.166046 -4.562623,1.519821 -5.78125,3.5 -0.4926,-0.208352 -1.025254,-0.3125 -1.59375,-0.3125 -2.273983,0 -4.125,1.851017 -4.125,4.125 0,2.273983 1.851017,4.09375 4.125,4.09375 0.534254,0 1.0316,-0.09607 1.5,-0.28125 1.286055,2.183281 3.657764,3.625 6.375,3.625 0.877767,0 1.718823,-0.156911 2.5,-0.4375 2.085815,2.410336 5.156042,3.9375 8.593752,3.9375 3.57421,0 6.75837,-1.640646 8.84375,-4.21875 1.21505,1.383268 2.98292,2.28125 4.96875,2.28125 1.54469,0 2.96664,-0.551752 4.09375,-1.4375 1.05752,0.549176 2.2573,0.875 3.53125,0.875 1.54894,0 2.98131,-0.460945 4.1875,-1.25 0.49805,0.257126 1.05711,0.40625 1.65625,0.40625 1.74332,0 3.21295,-1.235953 3.5625,-2.875 0.23611,1.540136 1.55007,2.71875 3.15625,2.71875 1.77293,0 3.21875,-1.414564 3.21875,-3.1875 0,-1.615065 -1.19735,-2.962289 -2.75,-3.1875 0.0458,-0.258658 0.0937,-0.540686 0.0937,-0.8125 0,-2.505235 -2.02602,-4.53125 -4.53125,-4.53125 -0.84008,0 -1.63779,0.258215 -2.3125,0.65625 -0.22398,-0.319863 -0.44981,-0.655928 -0.71875,-0.9375 0.10594,-0.250475 0.15625,-0.523434 0.15625,-0.8125 0,-1.156262 -0.93749,-2.09375 -2.09375,-2.09375 -0.0932,0 -0.1913,0.01945 -0.28125,0.03125 -0.0172,-1.796731 -1.48046,-3.25 -3.28125,-3.25 -0.47744,0 -0.93457,0.09784 -1.34375,0.28125 -1.42514,-2.522984 -3.82747,-4.414808 -6.6875,-5.1875 -0.40134,-1.525904 -1.75435,-2.65625 -3.40625,-2.65625 z" />
          <path
             style="opacity:0.8;color:#000000;fill:url(#linearGradient4694);fill-opacity:1;fill-rule:nonzero;stroke:none;stroke-width:1.5;marker:none;visibility:visible;display:inline;overflow:visible;enable-background:accumulate"
             id="path3671"
             inkscape:connector-curvature="0"
             d="m 10.66061,61.762622 c 3.026368,0.307343 5.375,2.892545 5.375,5.999999 0,0.502248 -0.07128,0.971235 -0.1875,1.4375 1.355555,-0.829233 2.950813,-1.3125 4.65625,-1.3125 0.697126,0 1.380076,0.09893 2.03125,0.25 0.475056,-1.362518 1.756773,-2.34375 3.28125,-2.34375 1.927104,0 3.46875,1.572896 3.46875,3.5 0,0.923053 -0.352247,1.75095 -0.9375,2.375 0.196494,-0.02238 0.391268,0 0.59375,0 2.890656,0 5.25,2.328094 5.25,5.21875 0,2.890656 -2.359344,5.249999 -5.25,5.249999 -0.403981,0 -0.778551,-0.0696 -1.15625,-0.15625 -1.011736,1.42701 -2.435578,2.51934 -4.09375,3.15625 0.0042,0.11543 0.03125,0.22731 0.03125,0.34375 0,5.24172 -4.258277,9.46875 -9.5,9.46875 -1.530417,0 -2.969848,-0.3566 -4.25,-1 -2.624598,1.78345 -5.806379,2.84375 -9.21875,2.84375 -6.838671,0 -12.693371,-4.20513 -15.156251,-10.15625 -4.78516,-0.5966 -8.5,-4.64697 -8.5,-9.593749 0,-5.357349 4.33015,-9.71875 9.6875,-9.71875 1.15953,0 2.28176,0.220606 3.3125,0.59375 0.85422,-0.731187 1.78936,-1.393203 2.78125,-1.9375 -0.0827,-0.233328 -0.15625,-0.488331 -0.15625,-0.75 0,-1.233347 1.01665,-2.21875 2.25,-2.21875 0.94828,0 1.76987,0.572443 2.09375,1.40625 1.05684,-0.242785 2.15727,-0.406213 3.281251,-0.4375 0.31043,-1.285581 1.462817,-2.21875 2.84375,-2.21875 1.174447,0 2.188572,0.690101 2.65625,1.6875 1.078785,-1.054211 2.554466,-1.6875 4.1875,-1.6875 0.207164,0 0.423242,-0.02049 0.625,0 z" />
          <path
             style="opacity:0.8;color:#000000;fill:url(#linearGradient4696);fill-opacity:1;fill-rule:nonzero;stroke:none;stroke-width:1.5;marker:none;visibility:visible;display:inline;overflow:visible;enable-background:accumulate"
             id="path3713"
             inkscape:connector-curvature="0"
             d="m 7.65625,74.65625 c 3.500466,0 6.464046,2.18625 7.625,5.28125 2.922683,0.05208 5.28125,2.43988 5.28125,5.375 0,2.96774 -2.40726,5.375 -5.375,5.375 -1.175339,0 -2.240467,-0.3911 -3.125,-1.03125 -1.273613,0.82112 -2.778216,1.3125 -4.40625,1.3125 -0.412169,0 -0.822986,-0.0348 -1.21875,-0.0937 -0.460796,0.55836 -1.157023,0.9375 -1.9375,0.9375 -1.110012,0 -2.04265,-0.72039 -2.375,-1.71875 -0.573002,0.1721 -1.183445,0.28125 -1.8125,0.28125 -3.468787,0 -6.28125,-2.81246 -6.28125,-6.28125 0,-2.90511 1.97757,-5.344769 4.65625,-6.0625 -0.02473,-0.153233 -0.0625,-0.308535 -0.0625,-0.46875 0,-1.618767 1.318733,-2.90625 2.9375,-2.90625 0.866194,0 1.650919,0.371372 2.1875,0.96875 1.15693,-0.628482 2.497055,-0.96875 3.90625,-0.96875 z" />
          <path
             style="opacity:0.5;color:#000000;fill:url(#linearGradient4698);fill-opacity:1;fill-rule:nonzero;stroke:none;stroke-width:1.5;marker:none;visibility:visible;display:inline;overflow:visible;enable-background:accumulate"
             id="path5536"
             inkscape:connector-curvature="0"
             d="m 83.40625,60.3125 c 0.95045,0 1.82848,0.305591 2.53125,0.8125 0.58004,-0.08942 1.17617,-0.15625 1.78125,-0.15625 2.64374,0 5.05041,0.91554 7,2.40625 0.2252,-0.03559 0.45167,-0.0625 0.6875,-0.0625 2.31252,0 4.1875,1.771853 4.1875,3.96875 0,0.823837 -0.26727,1.583883 -0.71875,2.21875 0.268,0.977691 0.40625,1.999741 0.40625,3.0625 0,1.073475 -0.13301,2.107256 -0.40625,3.09375 0.61992,-0.27902 1.30733,-0.4375 2.03125,-0.4375 2.73649,0 4.9375,2.201013 4.9375,4.9375 0,2.73649 -2.20101,4.96875 -4.9375,4.96875 -0.36612,0 -0.719,-0.0496 -1.0625,-0.125 6.4e-4,0.0413 0,0.0836 0,0.125 0,4.31671 -3.49579,7.8125 -7.8125,7.8125 -2.78596,0 -5.20966,-1.46207 -6.59375,-3.65625 -2.04109,1.84097 -4.75363,2.96875 -7.71875,2.96875 -4.014997,0 -7.532983,-2.07204 -9.59375,-5.1875 -1.294164,0.97115 -2.882433,1.5625 -4.625,1.5625 -2.724975,0 -5.119177,-1.43531 -6.5,-3.5625 -0.693167,0.55616 -1.542148,0.90625 -2.5,0.90625 -1.309291,0 -2.478909,-0.6295 -3.21875,-1.59375 -0.322673,0.20323 -0.71549,0.34375 -1.125,0.34375 -1.156262,0 -2.09375,-0.93749 -2.09375,-2.09375 0,-1.15626 0.937488,-2.09375 2.09375,-2.09375 0.180666,0 0.364014,0.0195 0.53125,0.0625 0.507331,-1.456041 1.819792,-2.526386 3.40625,-2.6875 0.08623,-1.348065 1.192663,-2.40625 2.5625,-2.40625 0.381196,0 0.736814,0.07047 1.0625,0.21875 C 59.137091,74.135261 61.206861,73.125 63.5,73.125 c 1.024452,0 1.979942,0.201263 2.875,0.5625 0.224258,-2.373424 2.22414,-4.25 4.65625,-4.25 0.280177,0 0.545883,0.04651 0.8125,0.09375 -0.03207,-0.217664 -0.0625,-0.429674 -0.0625,-0.65625 0,-2.505235 2.057265,-4.53125 4.5625,-4.53125 0.939463,0 1.807279,0.260895 2.53125,0.75 0.124657,-0.147579 0.243234,-0.296374 0.375,-0.4375 -0.01212,-0.123274 -0.03125,-0.248717 -0.03125,-0.375 0,-2.196897 1.87498,-3.96875 4.1875,-3.96875 z" />
          <path
             style="opacity:0.8;color:#000000;fill:url(#linearGradient4700);fill-opacity:1;fill-rule:nonzero;stroke:none;stroke-width:1.5;marker:none;visibility:visible;display:inline;overflow:visible;enable-background:accumulate"
             id="path5540"
             inkscape:connector-curvature="0"
             d="m 104.09,56.889421 c -1.79508,0 -3.28711,1.3348 -3.53125,3.0625 -0.99024,0.39781 -1.89622,0.90849 -2.71875,1.562499 -0.48316,-0.508483 -1.14945,-0.843749 -1.90625,-0.843749 -1.4646,0 -2.65625,1.19165 -2.65625,2.656249 0,0.01073 -1.3e-4,0.02055 0,0.03125 -1.03573,0.06809 -2.02712,0.266793 -2.96875,0.59375 -0.550274,-0.637053 -1.373388,-1.03125 -2.281252,-1.03125 -1.636798,0 -2.967312,1.308529 -3,2.9375 -0.04347,-0.0022 -0.08097,-0.03125 -0.125,-0.03125 -1.203669,0 -2.223302,0.869855 -2.46875,2 -2.45358,0.166046 -4.562623,1.519821 -5.78125,3.5 -0.4926,-0.208352 -1.025254,-0.3125 -1.59375,-0.3125 -2.273983,0 -4.125,1.851017 -4.125,4.125 0,2.273983 1.851017,4.09375 4.125,4.09375 0.534254,0 1.0316,-0.09607 1.5,-0.28125 1.286055,2.183281 3.657764,3.625 6.375,3.625 0.877767,0 1.718823,-0.156911 2.5,-0.4375 2.085815,2.410336 5.156042,3.9375 8.593752,3.9375 3.57421,0 6.75837,-1.640646 8.84375,-4.21875 1.21505,1.383268 2.98292,2.28125 4.96875,2.28125 1.54469,0 2.96664,-0.551752 4.09375,-1.4375 1.05752,0.549176 2.2573,0.875 3.53125,0.875 1.54894,0 2.98131,-0.460945 4.1875,-1.25 0.49805,0.257126 1.05711,0.40625 1.65625,0.40625 1.74332,0 3.21295,-1.235953 3.5625,-2.875 0.23611,1.540136 1.55007,2.71875 3.15625,2.71875 1.77293,0 3.21875,-1.414564 3.21875,-3.1875 0,-1.615065 -1.19735,-2.962289 -2.75,-3.1875 0.0458,-0.258658 0.0937,-0.540686 0.0937,-0.8125 0,-2.505235 -2.02602,-4.53125 -4.53125,-4.53125 -0.84008,0 -1.63779,0.258215 -2.3125,0.65625 -0.22398,-0.319863 -0.44981,-0.655928 -0.71875,-0.9375 0.10594,-0.250475 0.15625,-0.523434 0.15625,-0.8125 0,-1.156262 -0.93749,-2.09375 -2.09375,-2.09375 -0.0932,0 -0.1913,0.01945 -0.28125,0.03125 -0.0172,-1.796731 -1.48046,-3.25 -3.28125,-3.25 -0.47744,0 -0.93457,0.09784 -1.34375,0.28125 -1.42514,-2.522984 -3.82747,-4.414809 -6.6875,-5.187499 -0.40134,-1.5259 -1.75435,-2.65625 -3.40625,-2.65625 z" />
        </g>
        <path
           style="opacity:0.15;fill:#3365a8;fill-opacity:1;fill-rule:nonzero;stroke:none;display:inline"
           id="rect4171"
           inkscape:connector-curvature="0"
           d="m 16,16 0,64 64,0 0,-64 -64,0 z m 2,2 60,0 0,60 -60,0 0,-60 z" />
        <path
           style="opacity:0.3;fill:#3365a8;fill-opacity:1;fill-rule:nonzero;stroke:none;display:inline"
           id="rect4183"
           inkscape:connector-curvature="0"
           d="m 16.4375,16 c -0.03654,0.0073 -0.06024,0.01707 -0.09375,0.03125 -0.07367,0.02998 -0.134622,0.06872 -0.1875,0.125 -0.09518,0.101305 -0.159464,0.22767 -0.15625,0.375 l 0,62.90625 0,0.03125 c 0.0019,0.05425 0.01433,0.10669 0.03125,0.15625 0.01558,0.04455 0.03654,0.08657 0.0625,0.125 0.01089,0.01749 0.01848,0.04637 0.03125,0.0625 0.0088,0.01017 0.02176,0.02176 0.03125,0.03125 0.05288,0.05628 0.113827,0.09502 0.1875,0.125 0.02947,0.01199 0.06172,0.02443 0.09375,0.03125 0.03461,0.0069 0.05711,-4e-6 0.09375,0 l 16.0625,0 3.8125,0 1.65625,0 27.96875,0 13.4375,0 c 0.07531,-7e-6 0.122246,-0.0036 0.1875,-0.03125 0.195763,-0.08281 0.343729,-0.274073 0.34375,-0.5 5.91e-4,-0.0104 -10e-7,-0.02071 0,-0.03125 l 0,-62.90625 c -7e-6,-0.07531 -0.0036,-0.122246 -0.03125,-0.1875 -0.08281,-0.195763 -0.274074,-0.343727 -0.5,-0.34375 l -13.4375,0 -27.96875,0 -1.65625,0 -3.8125,0 -16.0625,0 c -0.03777,-0.004 -0.05597,-0.004 -0.09375,0 z m 0.65625,1.09375 14.6875,0 4.15625,0 1.125,0 30.75,0 11.09375,0 0,61.8125 -11.09375,0 -30.75,0 -1.125,0 -4.15625,0 -14.6875,0 0,-61.8125 z" />
      </g>
      <g
         style="display:inline"
         id="layer5">
        <rect
           style="opacity:0.1;fill:url(#linearGradient4702);fill-opacity:1;fill-rule:nonzero;stroke:#ffffff;stroke-width:0.5;stroke-linecap:round;stroke-linejoin:miter;stroke-miterlimit:4;stroke-opacity:1;stroke-dasharray:none;stroke-dashoffset:0;filter:url(#filter3794)"
           id="rect3171"
           clip-path="url(#clipPath3613)"
           y="15"
           x="15"
           ry="12"
           rx="12"
           height="66"
           width="66" />
      </g>
      <path
         style="opacity:0.3;color:#000000;fill:#000000;fill-opacity:1;fill-rule:nonzero;stroke:none;stroke-width:0.01;marker:none;visibility:visible;display:inline;overflow:visible;enable-background:accumulate"
         id="path5348"
         inkscape:connector-curvature="0"
         d="m 63.28125,25.65625 c -1.120763,0.07921 -2.177189,0.703735 -2.78125,1.75 -0.184589,0.319717 -0.2997,0.657677 -0.375,1 -0.09428,-0.03487 -0.185797,-0.09355 -0.28125,-0.125 -0.504109,-0.166089 -1.046585,-0.265087 -1.65625,-0.34375 -0.07397,-0.0096 -0.142222,-0.02286 -0.21875,-0.03125 -0.08143,-0.009 -0.165417,-0.02356 -0.25,-0.03125 -0.14844,-0.01319 -0.340704,-0.02192 -0.5,-0.03125 -0.354165,-0.01998 -0.737457,-0.02894 -1.15625,-0.03125 -0.203077,-0.0011 -0.406122,0.0166 -0.625,0.0625 -0.04267,0.0086 -0.08178,0.02092 -0.125,0.03125 -0.0326,0.008 -0.06085,0.02229 -0.09375,0.03125 -0.226603,0.05995 -0.447175,0.115209 -0.6875,0.21875 -0.08035,0.03462 -0.168227,0.0858 -0.25,0.125 -3.811485,1.827235 -9.138925,8.572263 -13.25,12.9375 -1.341409,1.42434 -3.185028,2.396109 -5.125,3.28125 -0.163359,0.07288 -0.335473,0.145329 -0.5,0.21875 -1.869362,0.834416 -3.775785,1.60963 -5.375,2.625 -0.04519,0.02873 -0.08031,0.06469 -0.125,0.09375 -0.759368,0.493954 -1.43339,1.044232 -2,1.6875 -0.201662,0.179121 -0.368242,0.365538 -0.5,0.59375 -1.932997,3.348048 4.643355,10.76351 14.6875,16.5625 10.044145,5.79899 19.754503,7.785548 21.6875,4.4375 0.120812,-0.209253 0.194429,-0.41661 0.25,-0.65625 0.859783,-2.46291 0.446387,-5.428347 0.125,-8.40625 -0.0044,-0.0063 0.0045,-0.02493 0,-0.03125 -0.02563,-0.236983 -0.07033,-0.481971 -0.09375,-0.71875 -0.214424,-2.175447 -0.295209,-4.330689 0.28125,-6.25 1.684801,-5.609508 4.722671,-13.340635 4.5625,-17.625 0.01107,0.0096 0.0202,0.02161 0.03125,0.03125 -0.0071,-0.22604 -0.03588,-0.418197 -0.0625,-0.625 -0.0226,-0.192641 -0.05436,-0.356887 -0.09375,-0.53125 -0.03697,-0.156097 -0.07403,-0.328388 -0.125,-0.46875 C 68.64815,35.41506 68.63346,35.39702 68.625,35.375 68.56451,35.217384 68.516627,35.072822 68.4375,34.9375 68.254681,34.624847 68.075888,34.357307 67.90625,34.09375 67.87585,34.04692 67.84264,34.0142 67.8125,33.96875 67.670984,33.752735 67.542917,33.562351 67.40625,33.375 67.351102,33.300478 67.304869,33.226814 67.25,33.15625 67.135188,33.005821 67.020849,32.884367 66.90625,32.75 66.83175,32.66372 66.762641,32.580698 66.6875,32.5 66.426602,32.215917 66.159203,31.954213 65.875,31.71875 c 0.259491,-0.23669 0.502521,-0.492107 0.6875,-0.8125 0.966498,-1.674024 0.392774,-3.814752 -1.28125,-4.78125 -0.258648,-0.14933 -0.537629,-0.235078 -0.8125,-0.3125 C 64.38147,25.77871 64.289259,25.76917 64.1875,25.75 63.88718,25.69232 63.580922,25.635072 63.28125,25.65625 z" />
      <g
         style="display:inline"
         id="g5236"
         transform="matrix(0.75777223,0.4375,-0.4375,0.75777223,-56.528547,-15.902923)">
        <path
           inkscape:connector-curvature="0"
           style="color:#000000;fill:url(#radialGradient4704);fill-opacity:1;fill-rule:nonzero;stroke:none;stroke-width:0.01;marker:none;visibility:visible;display:inline;overflow:visible;enable-background:accumulate"
           id="path5238"
           d="m 148,-25 a 4,4 0 1 1 -8,0 4,4 0 1 1 8,0 z" />
        <path
           style="opacity:0.61135368;fill:#2a0a00;fill-opacity:1;stroke:none"
           id="path5240"
           inkscape:connector-curvature="0"
           d="m 141.2585,-26.920679 c 0,0 -1.39878,2.860111 2.37554,3.043602 4.93045,0.239697 3.0685,-3.903187 3.0685,-3.903187 2.23533,2.387737 0.42979,5.229143 0.42979,5.229143 l -5.87383,0.07163 c 0,0 -1.86243,-1.289376 0,-4.441188 z" />
        <path
           style="fill:url(#linearGradient4706);fill-opacity:1;stroke:none"
           id="path5242"
           inkscape:connector-curvature="0"
           d="m 144,-24 c -3.4844,0 -4.8297,0.04133 -8.15625,1.9375 -3.73933,2.131466 -5.38073,14.0577581 -7.21875,21.84375 C 127.25502,5.5845857 120.50142,10.341064 120,16 l 24,0 24,0 C 167.49858,10.341064 160.74498,5.5845857 159.375,-0.21875 157.53698,-8.0047419 155.89558,-19.931034 152.15625,-22.0625 148.8297,-23.958675 147.4844,-24 144,-24 z" />
        <path
           inkscape:connector-curvature="0"
           style="color:#000000;fill:url(#radialGradient4708);fill-opacity:1;fill-rule:nonzero;stroke:none;stroke-width:0.01;marker:none;visibility:visible;display:inline;overflow:visible;enable-background:accumulate"
           id="path5244"
           transform="matrix(1.4285714,0,0,0.97636368,-66.256828,-2.0040886)"
           d="m 153.42091,-7.8292923 a 2.4745307,11.110138 0 1 1 -4.94906,0 2.4745307,11.110138 0 1 1 4.94906,0 z" />
        <path
           style="opacity:0.69432313;fill:url(#linearGradient4710);fill-opacity:1;stroke:none"
           id="path5246"
           inkscape:connector-curvature="0"
           d="m 145.28125,-23.96875 c 2.00428,0.100506 3.38009,0.484119 5.875,1.90625 3.73933,2.131466 5.38073,14.0577581 7.21875,21.84375 C 159.74498,5.5845857 166.49858,10.341064 167,16 l 1,0 c -0.50142,-5.658936 -7.25502,-10.4154143 -8.625,-16.21875 -1.83802,-7.7859919 -3.47942,-19.712284 -7.21875,-21.84375 -2.8594,-1.629892 -4.3265,-1.865531 -6.875,-1.90625 z" />
        <path
           style="opacity:0.5;fill:url(#linearGradient4712);fill-opacity:1;stroke:none"
           id="path5248"
           inkscape:connector-curvature="0"
           d="m 144,-24 c -3.4844,0 -4.8297,0.04133 -8.15625,1.9375 -0.54033,0.307994 -1.04036,0.82502 -1.5,1.5 2.85281,-0.458741 5.81834,-0.6875 8.875,-0.6875 3.69792,0 7.26856,0.336738 10.65625,1 -0.51685,-0.833587 -1.09618,-1.457625 -1.71875,-1.8125 C 148.8297,-23.958675 147.4844,-24 144,-24 z" />
        <path
           style="fill:url(#linearGradient4714);fill-opacity:1;stroke:none"
           id="path5250"
           inkscape:connector-curvature="0"
           d="m 142,-23.96875 c -1.35317,0.400378 -3.97358,1.059373 -4.79329,2 -2.65394,3.045428 -2.62665,12.3704395 -3.80046,17.125 -1.1738,4.75456052 -2.78409,4.65137983 -2,5.919 0.73962,1.195718 4.02125,0.2909018 4.03125,1.1875 0.0229,2.0929273 -5.45304,1.0728791 -5.65625,2.749375 l 2.84375,0.09375 c 0,0 -6.06026,3.1140873 -5.65625,6.144125 l 18.875,-3.21875 C 143.11672,6.8192349 137.99904,7.6542898 137.78125,6 c -0.25871,-1.9651169 4.66986,-0.010978 5.25,-1.90625 0.66373,-2.1683572 -2.72362,-2.9541472 -3.875,-7.5 -1.15138,-4.5458528 -0.49377,-14.385465 1.125,-18.375 0.35356,-0.871372 1.6921,-1.700186 2.53125,-2.1875 -0.26684,0.0037 -0.56816,-0.0094 -0.8125,0 z" />
        <path
           style="opacity:0.8;color:#000000;fill:url(#linearGradient4716);fill-opacity:1;fill-rule:nonzero;stroke:none;stroke-width:0.01;marker:none;visibility:visible;display:inline;overflow:visible;enable-background:accumulate"
           id="path5252"
           inkscape:connector-curvature="0"
           d="m 143.71875,3 c -7.27329,0 -13.76179,1.0796197 -18.15625,2.78125 -0.16384,0.2318021 -0.33271,0.4568305 -0.5,0.6875 C 129.45503,4.6492078 136.16006,3.5 143.71875,3.5 c 8.02926,0 15.11804,1.2940767 19.46875,3.3125 -0.16772,-0.2294599 -0.33474,-0.4570771 -0.5,-0.6875 C 158.30573,4.2272735 151.46478,3 143.71875,3 z" />
        <path
           inkscape:connector-curvature="0"
           style="color:#000000;fill:url(#radialGradient4718);fill-opacity:1;fill-rule:nonzero;stroke:none;stroke-width:0.01;marker:none;visibility:visible;display:inline;overflow:visible;enable-background:accumulate"
           id="path5254"
           transform="matrix(1.0512375,0,0,0.69931821,-19.577053,-6.4017513)"
           d="m 153.42091,-7.8292923 a 2.4745307,11.110138 0 1 1 -4.94906,0 2.4745307,11.110138 0 1 1 4.94906,0 z" />
        <path
           inkscape:connector-curvature="0"
           style="color:#000000;fill:url(#radialGradient4720);fill-opacity:1;fill-rule:nonzero;stroke:none;stroke-width:0.01;marker:none;visibility:visible;display:inline;overflow:visible;enable-background:accumulate"
           id="path5256"
           transform="matrix(0.99999868,0.0016217,-0.0016217,0.99999868,0.39318896,27.10938)"
           d="m 148.87585,-21.110958 a 4.79756,1.2625158 0 1 1 -9.59512,0 4.79756,1.2625158 0 1 1 9.59512,0 z" />
        <path
           style="color:#000000;fill:url(#linearGradient4722);fill-opacity:1;fill-rule:nonzero;stroke:none;stroke-width:0.01;marker:none;visibility:visible;display:inline;overflow:visible;enable-background:accumulate"
           id="path5258"
           inkscape:connector-curvature="0"
           d="M 143.71875,2.5 C 136.69319,2.5 130.3861,3.5172608 126,5.125 125.8514,5.3431248 125.71577,5.5643927 125.5625,5.78125 129.95696,4.0796197 136.44546,3 143.71875,3 c 7.74603,0 14.58698,1.2272735 18.96875,3.125 -0.16672,-0.2324614 -0.33776,-0.4537284 -0.5,-0.6875 C 157.78751,3.6584634 151.17053,2.5 143.71875,2.5 z" />
        <path
           style="opacity:0.8;fill:url(#linearGradient4724);fill-opacity:1;stroke:none"
           id="path5260"
           inkscape:connector-curvature="0"
           d="m 144.02779,-23.68649 c 0,0 5.22599,0.443321 8.22336,2.323029 2.94657,2.286131 5.38406,19.3798773 7.21336,23.8527724 0.42463,1.0382748 4.8603,6.5897365 5.57154,8.1646266 1.35434,2.402029 -12.30138,-2.0615695 -12.30138,-2.0615695 7.44857,-0.3443379 4.34835,-4.2626148 4.34835,-4.2626148 1.48609,-0.8699063 -2.54841,-1.551765 -0.75886,-3.2709353 0.77485,-0.74438447 -2.28936,-18.2934054 -4.72486,-21.7317464 -0.85958,-2.005698 -7.57151,-3.013562 -7.57151,-3.013562 z" />
        <path
           inkscape:connector-curvature="0"
           style="color:#000000;fill:url(#radialGradient4726);fill-opacity:1;fill-rule:nonzero;stroke:none;stroke-width:0.01;marker:none;visibility:visible;display:inline;overflow:visible;enable-background:accumulate"
           id="path5262"
           transform="matrix(1.4452632,0,0,1,-64.57999,0)"
           d="m 148.7704,-21.110958 a 4.6921058,1.2625157 0 1 1 -9.38421,0 4.6921058,1.2625157 0 1 1 9.38421,0 z" />
        <path
           style="opacity:0.6;fill:url(#linearGradient4728);fill-opacity:1;stroke:none"
           id="path5264"
           inkscape:connector-curvature="0"
           d="m 141.71875,-23.96875 c -2.00428,0.100507 -3.38009,0.484122 -5.875,1.90625 -3.73933,2.131466 -5.38073,14.0577581 -7.21875,21.84375 C 127.25502,5.5845857 120.50142,10.341064 120,16 l 1,0 c 0.50142,-5.658936 7.25502,-10.4154143 8.625,-16.21875 1.83802,-7.7859919 3.47942,-19.712284 7.21875,-21.84375 2.49491,-1.422128 3.87072,-1.805743 5.875,-1.90625 -0.32486,0.0052 -0.70719,-0.01468 -1,0 z" />
        <path
           style="opacity:0.8;fill:url(#linearGradient4730);fill-opacity:1;stroke:none"
           id="path5266"
           inkscape:connector-curvature="0"
           d="m 141.96875,-23.96875 c -1.35341,0.405954 -4.15235,1.270392 -4.96526,2.203212 -2.65394,3.045428 -2.42343,12.1672275 -3.59724,16.921788 -1.1738,4.75456052 -2.78409,4.65137983 -2,5.919 0.73962,1.195718 4.02125,0.2909018 4.03125,1.1875 0.0229,2.0929273 -5.45304,1.0728791 -5.65625,2.749375 l 2.84375,0.09375 c 0,0 -6.06026,3.1140873 -5.65625,6.144125 l 1,-0.15625 C 127.7886,8.1239871 133.625,5.105875 133.625,5.105875 l -2.84375,-0.09375 c 0.20321,-1.6764959 5.67917,-0.6564477 5.65625,-2.749375 -0.01,-0.8965982 -3.29163,0.00822 -4.03125,-1.1875 -0.78409,-1.26762017 0.8262,-1.16443948 2,-5.919 1.17381,-4.7545605 0.7909,-13.825557 3.44484,-16.870985 0.72883,-0.836338 3.4137,-1.714016 4.71141,-2.129015 0.12922,-0.07821 0.13523,-0.05775 0.25,-0.125 -0.2771,0.0038 -0.59079,-0.01001 -0.84375,0 z" />
        <path
           inkscape:connector-curvature="0"
           style="color:#000000;fill:url(#linearGradient4732);fill-opacity:1;fill-rule:nonzero;stroke:none;stroke-width:0.01;marker:none;visibility:visible;display:inline;overflow:visible;enable-background:accumulate"
           id="path5268"
           d="m 168,16 a 24,8 0 1 1 -48,0 24,8 0 1 1 48,0 z" />
        <path
           style="fill:url(#linearGradient4734);fill-opacity:1;stroke:none"
           id="path5270"
           inkscape:connector-curvature="0"
           d="m 143.34375,7.59375 c -9.69652,0 -18.06659,1.8547941 -22.09375,4.5625 -0.51874,0.994315 -0.92525,1.993037 -1.125,3.03125 C 121.35404,11.153451 131.57359,8 144,8 c 12.42641,0 22.64596,3.153451 23.875,7.1875 -0.0399,-0.207431 -0.10122,-0.419726 -0.15625,-0.625 -1.80839,-3.937012 -12.03422,-6.96875 -24.375,-6.96875 z" />
        <path
           style="opacity:0.5;color:#000000;fill:url(#linearGradient4736);fill-opacity:1;fill-rule:nonzero;stroke:none;stroke-width:0.01;marker:none;visibility:visible;display:inline;overflow:visible;enable-background:accumulate"
           id="path5272"
           inkscape:connector-curvature="0"
           d="m 144,8 c -1.00965,0 -1.99213,0.026485 -2.96875,0.0625 -0.69921,0.028687 -1.38324,0.076709 -2.0625,0.125 -5.86376,0.4168753 -10.92394,1.5350855 -14.34375,3.09375 1.92807,3.204171 9.84939,5.59375 19.375,5.59375 9.52561,0 17.44693,-2.389579 19.375,-5.59375 C 159.95519,9.7225855 154.89501,8.6043753 149.03125,8.1875 148.35059,8.144079 147.66961,8.088346 146.96875,8.0625 145.99213,8.0264845 145.00965,8 144,8 z" />
        <path
           style="opacity:0.5;color:#000000;fill:url(#linearGradient4738);fill-opacity:1;fill-rule:nonzero;stroke:none;stroke-width:0.01;marker:none;visibility:visible;display:inline;overflow:visible;enable-background:accumulate"
           id="path5274"
           inkscape:connector-curvature="0"
           d="m 144,8 c -13.25483,0 -24,3.581722 -24,8 0,4.418278 10.74517,8 24,8 13.25483,0 24,-3.581722 24,-8 0,-4.418278 -10.74517,-8 -24,-8 z m 0,0.21875 c 12.89008,0 23.34375,3.276193 23.34375,7.34375 0,4.067557 -10.45367,7.375 -23.34375,7.375 -12.89008,0 -23.34375,-3.307443 -23.34375,-7.375 0,-4.067557 10.45367,-7.34375 23.34375,-7.34375 z" />
        <path
           style="opacity:0.5;color:#000000;fill:url(#radialGradient4740);fill-opacity:1;fill-rule:nonzero;stroke:none;stroke-width:0.01;marker:none;visibility:visible;display:inline;overflow:visible;enable-background:accumulate"
           id="path5276"
           inkscape:connector-curvature="0"
           d="m 144,8 c -13.25483,0 -24,3.581722 -24,8 0,4.418278 10.74517,8 24,8 13.25483,0 24,-3.581722 24,-8 0,-4.418278 -10.74517,-8 -24,-8 z m 0,0.21875 c 12.89008,0 23.34375,3.276193 23.34375,7.34375 0,4.067557 -10.45367,7.375 -23.34375,7.375 -12.89008,0 -23.34375,-3.307443 -23.34375,-7.375 0,-4.067557 10.45367,-7.34375 23.34375,-7.34375 z" />
        <path
           inkscape:connector-curvature="0"
           style="color:#000000;fill:url(#radialGradient4742);fill-opacity:1;fill-rule:nonzero;stroke:none;stroke-width:0.01;marker:none;visibility:visible;display:inline;overflow:visible;enable-background:accumulate"
           id="path5278"
           transform="matrix(0.39756929,0.3438223,-0.13362202,0.15451007,81.281297,-77.626181)"
           d="m 153.42091,-7.8292923 a 2.4745307,11.110138 0 1 1 -4.94906,0 2.4745307,11.110138 0 1 1 4.94906,0 z" />
        <path
           style="opacity:0.61135368;fill:#ffe9a5;fill-opacity:1;stroke:none"
           id="path5280"
           inkscape:connector-curvature="0"
           d="m 144.73424,-28.557195 c 0,0 1.50606,0.368146 1.76549,1.801521 0.22886,1.264479 -0.90076,2.125796 -0.90076,2.125796 1.04488,-2.774343 -0.86473,-3.927317 -0.86473,-3.927317 z" />
        <g
           id="g5282"
           clip-path="url(#clipPath4728-2)">
          <path
             inkscape:connector-curvature="0"
             style="opacity:0.3;color:#000000;fill:#2b0d00;fill-opacity:1;fill-rule:nonzero;stroke:none;stroke-width:0.01;marker:none;visibility:visible;display:inline;overflow:visible;enable-background:accumulate"
             id="path5290"
             transform="matrix(1.4022182,0,0,1.4022182,-50.024021,49.094121)"
             d="m 148,-25 a 4,4 0 1 1 -8,0 4,4 0 1 1 8,0 z" />
          <path
             inkscape:connector-curvature="0"
             style="color:#000000;fill:url(#radialGradient4744);fill-opacity:1;fill-rule:nonzero;stroke:none;stroke-width:0.01;marker:none;visibility:visible;display:inline;overflow:visible;enable-background:accumulate"
             id="path5292"
             transform="matrix(1.4022182,0,0,1.4022182,-50.310549,48.664328)"
             d="m 148,-25 a 4,4 0 1 1 -8,0 4,4 0 1 1 8,0 z" />
          <path
             style="opacity:0.5;fill:#441b00;fill-opacity:1;stroke:none"
             id="path5294"
             inkscape:connector-curvature="0"
             d="m 155.65039,15.785103 c 0,0 -1.06532,2.668553 -3.87282,2.815599 -2.47667,0.129722 -3.85625,-2.1314 -3.85625,-2.1314 5.06398,2.542805 7.72907,-0.684199 7.72907,-0.684199 z" />
          <path
             style="color:#000000;fill:url(#radialGradient4746);fill-opacity:1;fill-rule:nonzero;stroke:none;stroke-width:0.01;marker:none;visibility:visible;display:inline;overflow:visible;enable-background:accumulate"
             id="path5296"
             inkscape:connector-curvature="0"
             d="m 151.59375,8 c -2.66092,0 -4.83374,1.8582158 -5.40625,4.34375 2.57976,-2.167151 8.16494,-2.3484489 10.875,0.03125 C 156.49991,9.8712456 154.26757,8 151.59375,8 z" />
          <path
             inkscape:connector-curvature="0"
             style="color:#000000;fill:url(#radialGradient4748);fill-opacity:1;fill-rule:nonzero;stroke:none;stroke-width:0.01;marker:none;visibility:visible;display:inline;overflow:visible;enable-background:accumulate"
             id="path5298"
             transform="matrix(1.0546259,0.04643886,-0.02401757,0.30799178,-9.9897072,8.2866654)"
             d="m 153.42091,-7.8292923 a 2.4745307,11.110138 0 1 1 -4.94906,0 2.4745307,11.110138 0 1 1 4.94906,0 z" />
        </g>
      </g>
    </g>
    <rect
       ry="25"
       rx="25"
       id="rect3003"
       style="opacity:0.15;fill:#ffffff;fill-opacity:1"
       height="92"
       width="92"
       y="958.36218"
       x="-96"
       clip-path="url(#clipPath3009)"
       transform="translate(98,0)" />
  </g>
</svg>
