<?xml version="1.0" encoding="UTF-8" standalone="no"?>
<!-- Created with Inkscape (http://www.inkscape.org/) -->

<svg
   xmlns:dc="http://purl.org/dc/elements/1.1/"
   xmlns:cc="http://creativecommons.org/ns#"
   xmlns:rdf="http://www.w3.org/1999/02/22-rdf-syntax-ns#"
   xmlns:svg="http://www.w3.org/2000/svg"
   xmlns="http://www.w3.org/2000/svg"
   xmlns:xlink="http://www.w3.org/1999/xlink"
   xmlns:sodipodi="http://sodipodi.sourceforge.net/DTD/sodipodi-0.dtd"
   xmlns:inkscape="http://www.inkscape.org/namespaces/inkscape"
   width="96"
   height="96"
   id="svg11037"
   version="1.1"
   inkscape:version="0.48.3.1 r9886"
   sodipodi:docname="meld.svg">
  <defs
     id="defs11039">
    <linearGradient
       y2="1046.1001"
       x2="47.999954"
       y1="962.62189"
       x1="47.999954"
       gradientTransform="matrix(1.15,0,0,1.15,-7.1999462,-150.65291)"
       gradientUnits="userSpaceOnUse"
       id="linearGradient3886"
       xlink:href="#linearGradient3795"
       inkscape:collect="always" />
    <linearGradient
       id="linearGradient3795">
      <stop
         style="stop-color:#13a6fd;stop-opacity:1;"
         offset="0"
         id="stop3797" />
      <stop
         style="stop-color:#2975b6;stop-opacity:1;"
         offset="1"
         id="stop3799" />
    </linearGradient>
    <linearGradient
       y2="1046.1001"
       x2="47.999954"
       y1="962.62189"
       x1="47.999954"
       gradientTransform="matrix(1.15,0,0,1.15,-7.1999462,-150.65292)"
       gradientUnits="userSpaceOnUse"
       id="linearGradient11642"
       xlink:href="#linearGradient6455"
       inkscape:collect="always" />
    <linearGradient
       x1="48"
       y1="90"
       x2="48"
       y2="5.9877172"
       id="linearGradient3617"
       xlink:href="#linearGradient6455"
       gradientUnits="userSpaceOnUse"
       gradientTransform="translate(0,-96)" />
    <linearGradient
       id="linearGradient6455">
      <stop
         id="stop6457"
         style="stop-color:#fdb245;stop-opacity:1"
         offset="0" />
      <stop
         id="stop6459"
         style="stop-color:#f57900;stop-opacity:1"
         offset="1" />
    </linearGradient>
    <clipPath
       id="clipPath4000">
      <rect
         width="84"
         height="84"
         rx="6"
         ry="6"
         x="36"
         y="-90"
         transform="scale(1,-1)"
         id="rect4002"
         style="fill:#ff00ff;fill-opacity:1;fill-rule:nonzero;stroke:none" />
    </clipPath>
    <radialGradient
       cx="48"
       cy="48"
       r="42"
       fx="48"
       fy="48"
       id="radialGradient4004"
       xlink:href="#linearGradient6661"
       gradientUnits="userSpaceOnUse"
       gradientTransform="translate(30,0)" />
    <linearGradient
       id="linearGradient6661">
      <stop
         id="stop6663"
         style="stop-color:#a4c1e0;stop-opacity:1"
         offset="0" />
      <stop
         id="stop6665"
         style="stop-color:#3465a4;stop-opacity:1"
         offset="1" />
    </linearGradient>
    <linearGradient
       x1="19.249098"
       y1="-1.4776937"
       x2="19.249098"
       y2="20.913509"
       id="linearGradient3978"
       xlink:href="#linearGradient9543"
       gradientUnits="userSpaceOnUse"
       gradientTransform="matrix(2.333332,0,0,2.4510672,-3.3333338,-3.7367477)" />
    <linearGradient
       id="linearGradient9543">
      <stop
         id="stop9545"
         style="stop-color:#ffffff;stop-opacity:1"
         offset="0" />
      <stop
         id="stop9547"
         style="stop-color:#ffffff;stop-opacity:0"
         offset="1" />
    </linearGradient>
    <clipPath
       id="clipPath4101">
      <path
         d="m 131.8125,6 c -10.56514,7.479706 -17.8135,19.080305 -17.21875,33.0625 0.61551,14.470158 12.41706,28.991205 28.5,27.25 9.18833,-0.994766 16.53558,-9.730037 11.84375,-17.1875 -1.49046,-2.369027 -5.11021,-2.573218 -6.8125,-1.4375 8.17954,-0.230773 4.1866,9.512607 -3,11 -9.81719,2.031839 -17.35122,-7.454397 -18.03125,-16.28125 -1.27081,-16.49509 14.68104,-28.178464 29.9375,-28.125 14.38906,0.05043 26.05971,8.295863 32.96875,19.75 L 190,12 c 0,-3.324 -2.676,-6 -6,-6 l -52.1875,0 z m 24.03125,23.53125 c -0.47014,-0.006 -0.95892,0.0088 -1.4375,0.03125 -0.49402,0.02315 -0.99741,0.07059 -1.5,0.125 -9.18833,0.994766 -16.53558,9.730037 -11.84375,17.1875 1.49046,2.369027 5.11021,2.573218 6.8125,1.4375 -8.17954,0.230773 -4.1866,-9.512607 3,-11 9.81719,-2.031839 17.35122,7.454397 18.03125,16.28125 1.27081,16.49509 -14.68104,28.178464 -29.9375,28.125 C 124.57969,81.668325 112.90904,73.422887 106,61.96875 L 106,84 c 0,3.324 2.676,6 6,6 l 52.1875,0 C 174.75264,82.520294 182.001,70.919695 181.40625,56.9375 180.82861,43.357595 170.41799,29.717653 155.84375,29.53125 z"
         inkscape:connector-curvature="0"
         id="path4103"
         style="fill:#ff00ff;fill-opacity:1;stroke:none" />
    </clipPath>
    <clipPath
       clipPathUnits="userSpaceOnUse"
       id="clipPath3822">
      <rect
         x="6"
         y="6.0000038"
         width="84"
         height="84"
         style="fill:url(#linearGradient3826);fill-opacity:1"
         id="rect3824"
         rx="22.826086"
         ry="22.826086" />
    </clipPath>
    <linearGradient
       inkscape:collect="always"
       xlink:href="#linearGradient6455"
       id="linearGradient3826"
       gradientUnits="userSpaceOnUse"
       gradientTransform="matrix(1.05,0,0,1.05,-2.3999508,-1006.579)"
       x1="47.999954"
       y1="962.62189"
       x2="47.999954"
       y2="1046.1001" />
    <clipPath
       clipPathUnits="userSpaceOnUse"
       id="clipPath3009">
      <path
         id="path3011"
         d="m -2,956.36218 -96,0 0,33.5624 96,25.68742 0,-59.24982 z"
         style="opacity:0.15;fill:#ffffff;fill-opacity:1;stroke:none"
         inkscape:connector-curvature="0" />
    </clipPath>
  </defs>
  <sodipodi:namedview
     id="base"
     pagecolor="#ffffff"
     bordercolor="#666666"
     borderopacity="1.0"
     inkscape:pageopacity="0.0"
     inkscape:pageshadow="2"
     inkscape:zoom="3.959798"
     inkscape:cx="33.538031"
     inkscape:cy="59.964634"
     inkscape:document-units="px"
     inkscape:current-layer="layer1"
     showgrid="false"
     inkscape:window-width="1280"
     inkscape:window-height="750"
     inkscape:window-x="0"
     inkscape:window-y="22"
     inkscape:window-maximized="1"
     showguides="true"
     inkscape:guide-bbox="true">
    <sodipodi:guide
       orientation="0,1"
       position="-24.748737,0"
       id="guide11064" />
    <sodipodi:guide
       orientation="0,1"
       position="-23.233509,96"
       id="guide11066" />
    <sodipodi:guide
       orientation="1,0"
       position="0,54.800776"
       id="guide11068" />
    <sodipodi:guide
       orientation="1,0"
       position="96,51.012704"
       id="guide11070" />
    <sodipodi:guide
       orientation="0,1"
       position="-18.94036,48"
       id="guide11072" />
    <sodipodi:guide
       orientation="1,0"
       position="48,79.296975"
       id="guide11074" />
    <sodipodi:guide
       orientation="1,0"
       position="2,75.508903"
       id="guide11076" />
    <sodipodi:guide
       orientation="0,1"
       position="-77.27667,2"
       id="guide11078" />
    <sodipodi:guide
       orientation="1,0"
       position="94,77.781746"
       id="guide11080" />
    <sodipodi:guide
       orientation="0,1"
       position="-65.912454,94"
       id="guide11082" />
  </sodipodi:namedview>
  <metadata
     id="metadata11042">
    <rdf:RDF>
      <cc:Work
         rdf:about="">
        <dc:format>image/svg+xml</dc:format>
        <dc:type
           rdf:resource="http://purl.org/dc/dcmitype/StillImage" />
        <dc:title />
      </cc:Work>
    </rdf:RDF>
  </metadata>
  <g
     inkscape:label="Layer 1"
     inkscape:groupmode="layer"
     id="layer1"
     transform="translate(0,-956.36218)">
    <g
       transform="matrix(1.0952381,0,0,1.0952381,-4.5714286,951.79075)"
       id="g3081"
       clip-path="url(#clipPath3822)">
      <rect
         style="fill:url(#linearGradient3617);fill-opacity:1;fill-rule:nonzero;stroke:none"
         id="rect2419"
         transform="scale(1,-1)"
         y="-90"
         x="6"
         ry="6"
         rx="6"
         height="84"
         width="84" />
      <g
         id="g3996"
         clip-path="url(#clipPath4000)"
         transform="translate(-30,0)">
        <path
           style="fill:url(#radialGradient4004);fill-opacity:1;stroke:none"
           id="path4051"
           inkscape:connector-curvature="0"
           d="m 61.8125,6 c -10.565136,7.479706 -17.813504,19.080305 -17.21875,33.0625 0.615512,14.470158 12.41706,28.991205 28.5,27.25 9.18833,-0.994766 16.53558,-9.730037 11.84375,-17.1875 -1.49046,-2.369027 -5.11021,-2.573218 -6.8125,-1.4375 8.17954,-0.230773 4.1866,9.512607 -3,11 -9.817193,2.031839 -17.351217,-7.454397 -18.03125,-16.28125 -1.270807,-16.49509 14.68104,-28.178464 29.9375,-28.125 14.38906,0.05043 26.05971,8.295863 32.96875,19.75 L 120,12 c 0,-3.324 -2.676,-6 -6,-6 L 61.8125,6 z m 24.03125,23.53125 c -0.47014,-0.006 -0.95892,0.0088 -1.4375,0.03125 -0.49402,0.02315 -0.99741,0.07059 -1.5,0.125 -9.18833,0.994766 -16.535579,9.730037 -11.84375,17.1875 1.49046,2.369027 5.11021,2.573218 6.8125,1.4375 -8.179537,0.230773 -4.1866,-9.512607 3,-11 9.81719,-2.031839 17.35122,7.454397 18.03125,16.28125 1.27081,16.49509 -14.68104,28.178464 -29.9375,28.125 C 54.579689,81.668325 42.909037,73.422887 36,61.96875 L 36,84 c 0,3.324 2.676,6 6,6 l 52.1875,0 C 104.75264,82.520294 112.001,70.919695 111.40625,56.9375 110.82861,43.357595 100.41799,29.717653 85.84375,29.53125 z" />
        <path
           style="opacity:0.3;fill:#ffffff;fill-opacity:1;stroke:none"
           id="path3987"
           inkscape:connector-curvature="0"
           d="m 87.03125,14.28125 c -14.886546,-0.05217 -30.435349,11.074004 -30,26.9375 0.2294,-15.328023 15.428798,-25.988563 30,-25.9375 14.38906,0.05043 26.05971,8.295863 32.96875,19.75 l 0,-1 c -6.90904,-11.454137 -18.57969,-19.69957 -32.96875,-19.75 z m -3.46875,22.75 c -0.876462,-0.0019 -1.767138,0.09076 -2.6875,0.28125 -4.652366,0.962889 -7.960418,5.375565 -7.5,8.3125 0.290104,-2.854852 3.349248,-6.453429 7.5,-7.3125 9.81719,-2.031839 17.35122,7.454397 18.03125,16.28125 0.03081,0.399946 0.05168,0.79331 0.0625,1.1875 0.01079,-0.72085 -0.0054,-1.446607 -0.0625,-2.1875 C 98.289973,45.594414 92.034962,37.050074 83.5625,37.03125 z M 44.59375,39.0625 c 0.0053,0.334082 -0.01433,0.663129 0,1 0.615512,14.470158 12.41706,28.991205 28.5,27.25 7.452493,-0.806837 13.692476,-6.695848 13.28125,-12.875 -0.289875,5.794884 -6.24024,11.112712 -13.28125,11.875 -16.08294,1.741205 -27.884488,-12.779842 -28.5,-27.25 z M 69.625,42.59375 c -0.08184,1.757603 0.347343,3.548492 1.4375,5.28125 1.49046,2.369027 5.11021,2.573218 6.8125,1.4375 -1.022442,0.02885 -1.840411,-0.09651 -2.5,-0.34375 -1.607069,0.0092 -3.380962,-0.613108 -4.3125,-2.09375 -0.879718,-1.398274 -1.337057,-2.852577 -1.4375,-4.28125 z m 11,5.4375 c -0.964242,0.0055 -1.861641,0.230356 -2.5,0.65625 2.811717,-0.07933 4.200273,1.025144 4.5,2.5625 0.103201,-1.415913 -0.475973,-2.647485 -2,-3.21875 z M 111.4375,59.6875 C 111.03976,72.43988 104.05171,83.016523 94.1875,90 L 42,90 c -3.324,0 -6,-2.676 -6,-6 l 0,1 c 0,3.324 2.676,6 6,6 l 52.1875,0 c 10.11959,-7.164275 17.19376,-18.11532 17.25,-31.3125 z" />
        <path
           style="fill:#ce5c00;fill-opacity:1;stroke:none"
           id="path4006"
           transform="translate(30,0)"
           inkscape:connector-curvature="0"
           d="M 31.8125,5 C 21.692913,12.164275 14.618735,23.11532 14.5625,36.3125 14.96024,23.56012 21.948291,12.983477 31.8125,6 L 84,6 c 3.324,0 6,2.676 6,6 l 0,-1 C 90,7.676 87.324,5 84,5 L 31.8125,5 z m 24.03125,23.53125 c -0.47014,-0.006 -0.95892,0.0088 -1.4375,0.03125 -0.49402,0.02315 -0.99741,0.07059 -1.5,0.125 -7.452493,0.806837 -13.692475,6.695848 -13.28125,12.875 0.289876,-5.794884 6.24024,-11.112712 13.28125,-11.875 0.50259,-0.05441 1.00598,-0.10185 1.5,-0.125 0.47858,-0.02245 0.96736,-0.03725 1.4375,-0.03125 14.57424,0.186403 24.98486,13.826345 25.5625,27.40625 -0.0053,-0.334082 0.01433,-0.663129 0,-1 C 80.82861,42.357595 70.41799,28.717653 55.84375,28.53125 z m -28.8125,11.6875 c -0.01079,0.72085 0.0054,1.446607 0.0625,2.1875 0.680033,8.826853 8.214057,18.313089 18.03125,16.28125 4.652366,-0.962889 7.960417,-5.375565 7.5,-8.3125 -0.290104,2.854852 -3.349248,6.453429 -7.5,7.3125 -9.817193,2.031839 -17.351217,-7.454397 -18.03125,-16.28125 -0.03081,-0.399946 -0.05168,-0.79331 -0.0625,-1.1875 z M 43.375,44.75 c -0.103201,1.415913 0.475973,2.647485 2,3.21875 0.964242,-0.0055 1.861641,-0.230356 2.5,-0.65625 -2.811716,0.07933 -4.200273,-1.025144 -4.5,-2.5625 z m 7.25,1.28125 c -0.964242,0.0055 -1.861641,0.230356 -2.5,0.65625 1.022442,-0.02885 1.840411,0.09651 2.5,0.34375 1.607069,-0.0092 3.380963,0.613108 4.3125,2.09375 0.879718,1.398274 1.337057,2.852577 1.4375,4.28125 0.08184,-1.757603 -0.347343,-3.548492 -1.4375,-5.28125 -0.931537,-1.480642 -2.705431,-2.102988 -4.3125,-2.09375 z m 18.34375,8.75 c -0.229397,15.328023 -15.428798,25.988563 -30,25.9375 C 24.579689,80.668325 12.909037,72.422887 6,60.96875 l 0,1 c 6.909037,11.454137 18.579689,19.699575 32.96875,19.75 14.886546,0.05217 30.435352,-11.074004 30,-26.9375 z" />
        <path
           style="opacity:0.3;fill:#000000;fill-opacity:1;stroke:none"
           id="path4105"
           transform="translate(30,0)"
           inkscape:connector-curvature="0"
           d="M 31.8125,6 C 21.692913,13.164275 14.618735,24.11532 14.5625,37.3125 14.96024,24.56012 21.948291,13.983477 31.8125,7 l 2.018239,-1 z m 24.03125,23.53125 c -0.47014,-0.006 -0.95892,0.0088 -1.4375,0.03125 -0.49402,0.02315 -0.99741,0.07059 -1.5,0.125 -7.452493,0.806837 -13.692475,6.695848 -13.28125,12.875 0.289876,-5.794884 6.24024,-11.112712 13.28125,-11.875 0.50259,-0.05441 1.00598,-0.10185 1.5,-0.125 0.47858,-0.02245 0.96736,-0.03725 1.4375,-0.03125 14.57424,0.186403 24.98486,13.826345 25.5625,27.40625 -0.0053,-0.334082 0.01433,-0.663129 0,-1 C 80.82861,43.357595 70.41799,29.717653 55.84375,29.53125 z m -28.8125,11.6875 c -0.01079,0.72085 0.0054,1.446607 0.0625,2.1875 0.680033,8.826853 8.214057,18.313089 18.03125,16.28125 4.652366,-0.962889 7.960417,-5.375565 7.5,-8.3125 -0.290104,2.854852 -3.349248,6.453429 -7.5,7.3125 -9.817193,2.031839 -17.351217,-7.454397 -18.03125,-16.28125 -0.03081,-0.399946 -0.05168,-0.79331 -0.0625,-1.1875 z M 43.375,45.75 c -0.103201,1.415913 0.475973,2.647485 2,3.21875 0.964242,-0.0055 1.861641,-0.230356 2.5,-0.65625 -2.811716,0.07933 -4.200273,-1.025144 -4.5,-2.5625 z m 7.25,1.28125 c -0.964242,0.0055 -1.861641,0.230356 -2.5,0.65625 1.022442,-0.02885 1.840411,0.09651 2.5,0.34375 1.607069,-0.0092 3.380963,0.613108 4.3125,2.09375 0.879718,1.398274 1.337057,2.852577 1.4375,4.28125 0.08184,-1.757603 -0.347343,-3.548492 -1.4375,-5.28125 -0.931537,-1.480642 -2.705431,-2.102988 -4.3125,-2.09375 z m 18.34375,8.75 c -0.229397,15.328023 -15.428798,25.988563 -30,25.9375 C 24.579689,81.668325 12.909037,73.422887 6,61.96875 l 0,1 c 6.909037,11.454137 18.579689,19.699575 32.96875,19.75 14.886546,0.05217 30.435352,-11.074004 30,-26.9375 z" />
      </g>
      <path
         style="opacity:0.74347821;color:#000000;fill:url(#linearGradient3978);fill-opacity:1;fill-rule:evenodd;stroke:none;stroke-width:0.99999994px;marker:none;visibility:visible;display:inline;overflow:visible;enable-background:accumulate"
         id="path3976"
         inkscape:connector-curvature="0"
         d="M 12,6 C 8.676,6 6,8.676 6,12 l 0,23 c 9.297407,2.857764 34.541132,6.729565 55.5,4.90625 C 70.616954,39.113122 81.361495,36.850838 90,33.875 L 90,12 C 90,8.676 87.324,6 84,6 L 12,6 z" />
      <g
         id="g4096"
         clip-path="url(#clipPath4101)"
         transform="translate(-100,0)" />
    </g>
    <rect
       ry="25"
       rx="25"
       id="rect3003"
       style="opacity:0.15;fill:#ffffff;fill-opacity:1"
       height="92"
       width="92"
       y="958.36218"
       x="-96"
       clip-path="url(#clipPath3009)"
       transform="translate(98,3.8281269e-7)" />
  </g>
</svg>
