<?xml version="1.0" encoding="UTF-8" standalone="no"?>
<!-- Created with Inkscape (http://www.inkscape.org/) -->

<svg
   xmlns:dc="http://purl.org/dc/elements/1.1/"
   xmlns:cc="http://creativecommons.org/ns#"
   xmlns:rdf="http://www.w3.org/1999/02/22-rdf-syntax-ns#"
   xmlns:svg="http://www.w3.org/2000/svg"
   xmlns="http://www.w3.org/2000/svg"
   xmlns:xlink="http://www.w3.org/1999/xlink"
   xmlns:sodipodi="http://sodipodi.sourceforge.net/DTD/sodipodi-0.dtd"
   xmlns:inkscape="http://www.inkscape.org/namespaces/inkscape"
   width="96"
   height="96"
   id="svg11037"
   version="1.1"
   inkscape:version="0.48.3.1 r9886"
   sodipodi:docname="mendeley.svg">
  <defs
     id="defs11039">
    <linearGradient
       y2="1046.1001"
       x2="47.999954"
       y1="962.62189"
       x1="47.999954"
       gradientTransform="matrix(1.15,0,0,1.15,-7.1999462,-150.65291)"
       gradientUnits="userSpaceOnUse"
       id="linearGradient3886"
       xlink:href="#linearGradient3795"
       inkscape:collect="always" />
    <linearGradient
       id="linearGradient3795">
      <stop
         style="stop-color:#13a6fd;stop-opacity:1;"
         offset="0"
         id="stop3797" />
      <stop
         style="stop-color:#2975b6;stop-opacity:1;"
         offset="1"
         id="stop3799" />
    </linearGradient>
    <linearGradient
       y2="1046.1001"
       x2="47.999954"
       y1="962.62189"
       x1="47.999954"
       gradientTransform="matrix(1.15,0,0,1.15,-7.1999462,-150.65292)"
       gradientUnits="userSpaceOnUse"
       id="linearGradient11642"
       xlink:href="#linearGradient3700"
       inkscape:collect="always" />
    <radialGradient
       cx="88"
       cy="88"
       r="42"
       fx="88"
       fy="88"
       id="radialGradient3833"
       xlink:href="#linearGradient3700"
       gradientUnits="userSpaceOnUse"
       gradientTransform="matrix(2.2695651,-0.00686696,0.00580377,1.9181687,-112.23246,-80.194551)" />
    <linearGradient
       id="linearGradient3700">
      <stop
         id="stop3702"
         style="stop-color:#730a13;stop-opacity:1"
         offset="0" />
      <stop
         id="stop3704"
         style="stop-color:#be212e;stop-opacity:1"
         offset="1" />
    </linearGradient>
    <radialGradient
       r="42"
       fy="88"
       fx="88"
       cy="88"
       cx="88"
       gradientTransform="matrix(2.2695651,-0.00686696,0.00580377,1.9181687,-131.44311,917.85417)"
       gradientUnits="userSpaceOnUse"
       id="radialGradient3052"
       xlink:href="#linearGradient3700"
       inkscape:collect="always" />
    <clipPath
       id="clipPath3888">
      <path
         d="m 34.405054,29.694011 c -1.445208,0.02254 -2.919206,0.387911 -4.351152,1.095614 -4.269072,2.10989 -6.01981,6.646131 -4.695487,12.051752 0.633127,2.584343 0.852059,6.07656 0.469548,7.481477 -0.542122,1.991087 -2.205522,3.033727 -4.883307,3.036415 -2.64526,0.0027 -5.246275,2.034052 -5.759799,4.507669 -0.525313,2.530457 0.07523,4.823108 1.721679,6.479773 1.935984,1.947973 4.622113,2.497148 6.949322,1.408646 3.369412,-1.575968 4.47335,-4.868513 3.036416,-8.984033 -0.692688,-1.983911 -0.724332,-2.250242 -0.375639,-3.505964 1.476071,-5.315659 13.601639,-5.704733 15.58902,-0.500852 0.469799,1.23015 0.392247,2.071774 -0.469549,4.225939 -0.527538,1.318622 -0.591657,1.777958 -0.500852,3.192931 0.165882,2.584715 1.40482,4.395911 3.8503,5.509373 1.488081,0.677544 4.581704,0.674543 6.041528,0 3.587923,-1.657947 4.934784,-5.252995 3.349448,-8.890124 -1.361707,-3.124041 -0.673576,-5.199696 2.191227,-6.636289 3.603721,-1.807133 8.809857,-1.394756 11.425687,0.907794 1.871634,1.64748 2.1514,3.073633 1.158221,5.916315 -1.318183,3.772926 -0.261956,7.036495 2.785989,8.671001 1.315819,0.70563 4.226039,0.70597 5.540676,0 1.190565,-0.639324 2.534692,-2.044816 2.973809,-3.099022 1.280899,-3.075078 0.233517,-6.944545 -2.285138,-8.420575 -0.87,-0.509852 -1.526557,-0.665364 -3.286841,-0.813885 -1.431395,-0.120772 -2.433179,-0.346881 -2.911203,-0.626065 -0.955475,-0.558027 -1.717812,-1.940421 -1.909498,-3.474661 -0.174487,-1.396503 0.214725,-4.87797 0.751278,-6.730199 0.554674,-1.914755 0.333157,-5.505878 -0.438245,-7.199747 -2.363621,-5.190107 -9.04051,-7.222371 -13.773432,-4.163333 -0.742332,0.479792 -1.694552,1.331941 -2.128621,1.878195 -1.521738,1.915054 -3.972708,4.36896 -4.726791,4.726791 -1.897458,0.900406 -3.845211,0.162547 -5.978921,-2.253834 -3.225307,-3.652591 -3.69738,-4.113581 -5.133733,-4.820702 -1.349446,-0.664331 -2.780731,-0.992937 -4.22594,-0.9704 z m 13.648219,10.643105 c 4.368792,-0.0072 7.338474,3.986758 6.104134,8.232756 -0.538316,1.851711 -2.30439,3.645287 -4.069423,4.163332 -1.510099,0.443218 -2.756009,0.465145 -4.163333,0.0313 -2.446752,-0.75425 -4.274141,-3.361467 -4.257242,-6.104135 0.01132,-1.835692 0.421587,-2.880766 1.690376,-4.257242 1.325034,-1.437485 2.759254,-2.062831 4.695488,-2.066015 z"
         inkscape:connector-curvature="0"
         id="path3890"
         style="color:#000000;fill:#ff00ff;fill-opacity:1;fill-rule:nonzero;stroke:none;stroke-width:1;marker:none;visibility:visible;display:inline;overflow:visible;enable-background:accumulate" />
    </clipPath>
    <filter
       color-interpolation-filters="sRGB"
       id="filter3892">
      <feGaussianBlur
         id="feGaussianBlur3894"
         stdDeviation="0.76960612" />
    </filter>
    <clipPath
       clipPathUnits="userSpaceOnUse"
       id="clipPath3009">
      <path
         id="path3011"
         d="m -2,956.36218 -96,0 0,33.5624 96,25.68742 0,-59.24982 z"
         style="opacity:0.15;fill:#ffffff;fill-opacity:1;stroke:none"
         inkscape:connector-curvature="0" />
    </clipPath>
  </defs>
  <sodipodi:namedview
     id="base"
     pagecolor="#ffffff"
     bordercolor="#666666"
     borderopacity="1.0"
     inkscape:pageopacity="0.0"
     inkscape:pageshadow="2"
     inkscape:zoom="3.959798"
     inkscape:cx="33.538031"
     inkscape:cy="59.964634"
     inkscape:document-units="px"
     inkscape:current-layer="layer1"
     showgrid="false"
     inkscape:window-width="1280"
     inkscape:window-height="750"
     inkscape:window-x="0"
     inkscape:window-y="22"
     inkscape:window-maximized="1"
     showguides="true"
     inkscape:guide-bbox="true">
    <sodipodi:guide
       orientation="0,1"
       position="-24.748737,0"
       id="guide11064" />
    <sodipodi:guide
       orientation="0,1"
       position="-23.233509,96"
       id="guide11066" />
    <sodipodi:guide
       orientation="1,0"
       position="0,54.800776"
       id="guide11068" />
    <sodipodi:guide
       orientation="1,0"
       position="96,51.012704"
       id="guide11070" />
    <sodipodi:guide
       orientation="0,1"
       position="-18.94036,48"
       id="guide11072" />
    <sodipodi:guide
       orientation="1,0"
       position="48,79.296975"
       id="guide11074" />
    <sodipodi:guide
       orientation="1,0"
       position="2,75.508903"
       id="guide11076" />
    <sodipodi:guide
       orientation="0,1"
       position="-77.27667,2"
       id="guide11078" />
    <sodipodi:guide
       orientation="1,0"
       position="94,77.781746"
       id="guide11080" />
    <sodipodi:guide
       orientation="0,1"
       position="-65.912454,94"
       id="guide11082" />
  </sodipodi:namedview>
  <metadata
     id="metadata11042">
    <rdf:RDF>
      <cc:Work
         rdf:about="">
        <dc:format>image/svg+xml</dc:format>
        <dc:type
           rdf:resource="http://purl.org/dc/dcmitype/StillImage" />
        <dc:title />
      </cc:Work>
    </rdf:RDF>
  </metadata>
  <g
     inkscape:label="Layer 1"
     inkscape:groupmode="layer"
     id="layer1"
     transform="translate(0,-956.36218)">
    <rect
       x="2"
       y="958.36218"
       width="92"
       height="92"
       style="fill:url(#linearGradient11642);fill-opacity:1.0"
       id="rect3867"
       rx="25"
       ry="25" />
    <g
       transform="translate(2.7801098e-7,956.36218)"
       id="layer4">
      <path
         d="m 34.405054,29.694011 c -1.445208,0.02254 -2.919206,0.387911 -4.351152,1.095614 -4.269072,2.10989 -6.01981,6.646131 -4.695487,12.051752 0.633127,2.584343 0.852059,6.07656 0.469548,7.481477 -0.542122,1.991087 -2.205522,3.033727 -4.883307,3.036415 -2.64526,0.0027 -5.246275,2.034052 -5.759799,4.507669 -0.525313,2.530457 0.07523,4.823108 1.721679,6.479773 1.935984,1.947973 4.622113,2.497148 6.949322,1.408646 3.369412,-1.575968 4.47335,-4.868513 3.036416,-8.984033 -0.692688,-1.983911 -0.724332,-2.250242 -0.375639,-3.505964 1.476071,-5.315659 13.601639,-5.704733 15.58902,-0.500852 0.469799,1.23015 0.392247,2.071774 -0.469549,4.225939 -0.527538,1.318622 -0.591657,1.777958 -0.500852,3.192931 0.165882,2.584715 1.40482,4.395911 3.8503,5.509373 1.488081,0.677544 4.581704,0.674543 6.041528,0 3.587923,-1.657947 4.934784,-5.252995 3.349448,-8.890124 -1.361707,-3.124041 -0.673576,-5.199696 2.191227,-6.636289 3.603721,-1.807133 8.809857,-1.394756 11.425687,0.907794 1.871634,1.64748 2.1514,3.073633 1.158221,5.916315 -1.318183,3.772926 -0.261956,7.036495 2.785989,8.671001 1.315819,0.70563 4.226039,0.70597 5.540676,0 1.190565,-0.639324 2.534692,-2.044816 2.973809,-3.099022 1.280899,-3.075078 0.233517,-6.944545 -2.285138,-8.420575 -0.87,-0.509852 -1.526557,-0.665364 -3.286841,-0.813885 -1.431395,-0.120772 -2.433179,-0.346881 -2.911203,-0.626065 -0.955475,-0.558027 -1.717812,-1.940421 -1.909498,-3.474661 -0.174487,-1.396503 0.214725,-4.87797 0.751278,-6.730199 0.554674,-1.914755 0.333157,-5.505878 -0.438245,-7.199747 -2.363621,-5.190107 -9.04051,-7.222371 -13.773432,-4.163333 -0.742332,0.479792 -1.694552,1.331941 -2.128621,1.878195 -1.521738,1.915054 -3.972708,4.36896 -4.726791,4.726791 -1.897458,0.900406 -3.845211,0.162547 -5.978921,-2.253834 -3.225307,-3.652591 -3.69738,-4.113581 -5.133733,-4.820702 -1.349446,-0.664331 -2.780731,-0.992937 -4.22594,-0.9704 z m 13.648219,10.643105 c 4.368792,-0.0072 7.338474,3.986758 6.104134,8.232756 -0.538316,1.851711 -2.30439,3.645287 -4.069423,4.163332 -1.510099,0.443218 -2.756009,0.465145 -4.163333,0.0313 -2.446752,-0.75425 -4.274141,-3.361467 -4.257242,-6.104135 0.01132,-1.835692 0.421587,-2.880766 1.690376,-4.257242 1.325034,-1.437485 2.759254,-2.062831 4.695488,-2.066015 z"
         inkscape:connector-curvature="0"
         id="rect3837"
         style="color:#000000;fill:#ffffff;fill-opacity:1;fill-rule:nonzero;stroke:none;stroke-width:12;marker:none;visibility:visible;display:inline;overflow:visible;enable-background:accumulate" />
      <path
         d="m 34.40625,28.6875 c -1.445208,0.02254 -2.911804,0.386047 -4.34375,1.09375 -3.468621,1.714286 -5.279982,5.042296 -5.125,9.125 0.15182,-3.626234 1.94151,-6.551634 5.125,-8.125 1.431946,-0.707703 2.898542,-1.07121 4.34375,-1.09375 1.445209,-0.02254 2.869304,0.304419 4.21875,0.96875 1.436353,0.707121 1.899693,1.191159 5.125,4.84375 2.13371,2.416381 4.102542,3.150406 6,2.25 0.754083,-0.357831 3.197012,-2.834946 4.71875,-4.75 0.434069,-0.546254 1.382668,-1.395208 2.125,-1.875 4.732922,-3.059038 11.417629,-1.002607 13.78125,4.1875 0.433961,0.952905 0.70438,2.482464 0.75,4 0.06295,-1.796668 -0.219708,-3.835568 -0.75,-5 -2.363621,-5.190107 -9.048328,-7.246538 -13.78125,-4.1875 -0.742332,0.479792 -1.690931,1.328746 -2.125,1.875 -1.521738,1.915054 -3.964667,4.392169 -4.71875,4.75 -1.897458,0.900406 -3.86629,0.166381 -6,-2.25 -3.225307,-3.652591 -3.688647,-4.136629 -5.125,-4.84375 -1.349446,-0.664331 -2.773541,-0.991287 -4.21875,-0.96875 z m 7.28125,17.40625 c -0.01199,0.187852 -0.02998,0.356284 -0.03125,0.5625 -0.0169,2.742668 1.834498,5.3395 4.28125,6.09375 1.407324,0.433845 2.646151,0.411968 4.15625,-0.03125 1.765033,-0.518045 3.524184,-2.304539 4.0625,-4.15625 0.241333,-0.83016 0.340363,-1.65463 0.28125,-2.4375 -0.03493,0.476487 -0.139126,0.948607 -0.28125,1.4375 -0.538316,1.851711 -2.297467,3.638205 -4.0625,4.15625 -1.510099,0.443218 -2.748926,0.465095 -4.15625,0.03125 -2.317228,-0.714322 -4.084329,-3.076911 -4.25,-5.65625 z m 28.34375,1.75 c -0.02034,0.551712 -0.01237,1.025874 0.03125,1.375 0.191686,1.53424 0.950775,2.910723 1.90625,3.46875 0.478024,0.279184 1.474855,0.504228 2.90625,0.625 1.760284,0.148521 2.41125,0.333898 3.28125,0.84375 1.687102,0.988707 2.70326,3.04033 2.8125,5.21875 0.203503,-2.525576 -0.868179,-5.079302 -2.8125,-6.21875 -0.87,-0.509852 -1.520966,-0.695229 -3.28125,-0.84375 -1.431395,-0.120772 -2.428226,-0.345816 -2.90625,-0.625 -0.955475,-0.558027 -1.714564,-1.93451 -1.90625,-3.46875 -0.0138,-0.110428 -0.0243,-0.240335 -0.03125,-0.375 z M 26,48.09375 c -0.02728,0.493778 -0.101374,0.90242 -0.1875,1.21875 -0.542122,1.991087 -2.197215,3.028562 -4.875,3.03125 -2.64526,0.0027 -5.236476,2.057633 -5.75,4.53125 -0.154827,0.74581 -0.194977,1.461949 -0.15625,2.15625 0.0276,-0.379633 0.07475,-0.763684 0.15625,-1.15625 0.513524,-2.473617 3.10474,-4.52855 5.75,-4.53125 2.677785,-0.0027 4.332878,-1.040163 4.875,-3.03125 0.137943,-0.50665 0.197211,-1.309662 0.1875,-2.21875 z m 27.75,5.4375 c -0.123108,0.943405 0.07776,2.025776 0.625,3.28125 0.367834,0.843896 0.56424,1.684305 0.625,2.5 0.08711,-1.117884 -0.104566,-2.306004 -0.625,-3.5 -0.363097,-0.83302 -0.5558,-1.589553 -0.625,-2.28125 z M 42.34375,53.6875 C 42.256524,54.289219 42.022158,55.007255 41.625,56 c -0.500284,1.250498 -0.570152,1.747175 -0.5,3 0.03547,-0.632166 0.156061,-1.140298 0.5,-2 0.638252,-1.59539 0.84458,-2.465954 0.71875,-3.3125 z M 69.6875,53.84375 C 69.621446,54.470044 69.444414,55.175215 69.15625,56 68.719439,57.250249 68.554275,58.433608 68.625,59.53125 68.679978,58.724674 68.850402,57.875404 69.15625,57 c 0.453266,-1.29734 0.638562,-2.293297 0.53125,-3.15625 z m -43.3125,0.125 c -0.130418,0.741307 -0.0087,1.266053 0.53125,2.8125 0.33899,0.9709 0.533966,1.882437 0.59375,2.75 0.06563,-1.141198 -0.122478,-2.400232 -0.59375,-3.75 -0.299159,-0.856815 -0.456077,-1.378356 -0.53125,-1.8125 z"
         inkscape:connector-curvature="0"
         id="path3874"
         style="color:#000000;fill:#a31924;fill-opacity:1;fill-rule:nonzero;stroke:none;stroke-width:12;marker:none;visibility:visible;display:inline;overflow:visible;enable-background:accumulate" />
      <path
         d="m 24.9375,39.96875 c -0.0446,1.218405 0.07517,2.523595 0.40625,3.875 0.404805,1.652362 0.639032,3.638227 0.65625,5.25 0.09388,-1.699242 -0.165677,-4.247545 -0.65625,-6.25 -0.242817,-0.99113 -0.366755,-1.95192 -0.40625,-2.875 z M 71.125,40.3125 c -0.02862,0.816899 -0.139131,1.589022 -0.3125,2.1875 -0.469484,1.6207 -0.816309,4.497754 -0.78125,6.125 0.07817,-1.636458 0.394948,-3.79145 0.78125,-5.125 0.242636,-0.837589 0.347974,-2.007487 0.3125,-3.1875 z m -23.0625,0.03125 c -1.936234,0.0032 -3.393716,0.625015 -4.71875,2.0625 -1.268789,1.376476 -1.67618,2.414308 -1.6875,4.25 -8.95e-4,0.145189 0.02199,0.293325 0.03125,0.4375 0.09476,-1.484368 0.529993,-2.465653 1.65625,-3.6875 1.325034,-1.437485 2.782516,-2.059316 4.71875,-2.0625 3.514624,-0.0058 6.131769,2.559993 6.375,5.78125 0.268473,-3.661766 -2.509239,-6.787621 -6.375,-6.78125 z M 34.125,49.0625 c -3.464323,0.111241 -6.855714,1.52967 -7.59375,4.1875 -0.198099,0.713398 -0.255137,1.147657 -0.15625,1.71875 0.03689,-0.209703 0.07936,-0.441856 0.15625,-0.71875 1.476071,-5.315659 13.575119,-5.703881 15.5625,-0.5 0.11745,0.307538 0.204671,0.620699 0.25,0.90625 0.09521,-0.689911 -2.53e-4,-1.252298 -0.25,-1.90625 -0.99369,-2.60194 -4.504427,-3.798741 -7.96875,-3.6875 z m 26.9375,0 c -1.580974,0.07081 -3.148605,0.416075 -4.5,1.09375 -2.100909,1.053528 -3.002818,2.472653 -2.8125,4.375 0.183226,-1.404103 1.09899,-2.515738 2.8125,-3.375 3.603721,-1.807133 8.82167,-1.3963 11.4375,0.90625 1.01746,0.895605 1.559674,1.753334 1.6875,2.78125 C 69.849105,53.311475 69.328592,52.231975 68,51.0625 c -1.634894,-1.439094 -4.302543,-2.118008 -6.9375,-2 z M 41.125,60 c -0.01893,0.337458 -0.0316,0.695047 0,1.1875 0.165882,2.584715 1.42952,4.386538 3.875,5.5 1.488081,0.677544 4.571426,0.674543 6.03125,0 2.755444,-1.273266 4.169862,-3.67511 3.96875,-6.375 -0.178237,2.287395 -1.558669,4.261323 -3.96875,5.375 -1.459824,0.674543 -4.543169,0.677544 -6.03125,0 -2.44548,-1.113462 -3.709118,-2.915285 -3.875,-5.5 -0.0047,-0.0731 0.0038,-0.11925 0,-0.1875 z m -26.09375,0.03125 c -0.150313,2.067456 0.483975,3.912844 1.875,5.3125 1.935984,1.947973 4.610291,2.494752 6.9375,1.40625 2.574528,-1.204178 3.849883,-3.408825 3.65625,-6.21875 -0.134476,2.338379 -1.391905,4.159653 -3.65625,5.21875 -2.327209,1.088502 -5.001516,0.541723 -6.9375,-1.40625 -1.161185,-1.16839 -1.78233,-2.651111 -1.875,-4.3125 z m 65.9375,0.34375 c -0.06011,0.746032 -0.239164,1.486283 -0.53125,2.1875 -0.439117,1.054206 -1.778185,2.454426 -2.96875,3.09375 -1.314637,0.70597 -4.215431,0.70563 -5.53125,0 -2.037936,-1.092874 -3.169796,-2.910244 -3.3125,-5.125 -0.181974,2.669707 0.971747,4.869736 3.3125,6.125 1.315819,0.70563 4.216613,0.70597 5.53125,0 1.190565,-0.639324 2.529633,-2.039544 2.96875,-3.09375 0.422899,-1.015261 0.585093,-2.113781 0.53125,-3.1875 z"
         inkscape:connector-curvature="0"
         id="path3879"
         style="opacity:0.15;color:#000000;fill:#ffffff;fill-opacity:1;fill-rule:nonzero;stroke:none;stroke-width:12;marker:none;visibility:visible;display:inline;overflow:visible;enable-background:accumulate" />
      <path
         d="m 34.405054,29.694011 c -1.445208,0.02254 -2.919206,0.387911 -4.351152,1.095614 -4.269072,2.10989 -6.01981,6.646131 -4.695487,12.051752 0.633127,2.584343 0.852059,6.07656 0.469548,7.481477 -0.542122,1.991087 -2.205522,3.033727 -4.883307,3.036415 -2.64526,0.0027 -5.246275,2.034052 -5.759799,4.507669 -0.525313,2.530457 0.07523,4.823108 1.721679,6.479773 1.935984,1.947973 4.622113,2.497148 6.949322,1.408646 3.369412,-1.575968 4.47335,-4.868513 3.036416,-8.984033 -0.692688,-1.983911 -0.724332,-2.250242 -0.375639,-3.505964 1.476071,-5.315659 13.601639,-5.704733 15.58902,-0.500852 0.469799,1.23015 0.392247,2.071774 -0.469549,4.225939 -0.527538,1.318622 -0.591657,1.777958 -0.500852,3.192931 0.165882,2.584715 1.40482,4.395911 3.8503,5.509373 1.488081,0.677544 4.581704,0.674543 6.041528,0 3.587923,-1.657947 4.934784,-5.252995 3.349448,-8.890124 -1.361707,-3.124041 -0.673576,-5.199696 2.191227,-6.636289 3.603721,-1.807133 8.809857,-1.394756 11.425687,0.907794 1.871634,1.64748 2.1514,3.073633 1.158221,5.916315 -1.318183,3.772926 -0.261956,7.036495 2.785989,8.671001 1.315819,0.70563 4.226039,0.70597 5.540676,0 1.190565,-0.639324 2.534692,-2.044816 2.973809,-3.099022 1.280899,-3.075078 0.233517,-6.944545 -2.285138,-8.420575 -0.87,-0.509852 -1.526557,-0.665364 -3.286841,-0.813885 -1.431395,-0.120772 -2.433179,-0.346881 -2.911203,-0.626065 -0.955475,-0.558027 -1.717812,-1.940421 -1.909498,-3.474661 -0.174487,-1.396503 0.214725,-4.87797 0.751278,-6.730199 0.554674,-1.914755 0.333157,-5.505878 -0.438245,-7.199747 -2.363621,-5.190107 -9.04051,-7.222371 -13.773432,-4.163333 -0.742332,0.479792 -1.694552,1.331941 -2.128621,1.878195 -1.521738,1.915054 -3.972708,4.36896 -4.726791,4.726791 -1.897458,0.900406 -3.845211,0.162547 -5.978921,-2.253834 -3.225307,-3.652591 -3.69738,-4.113581 -5.133733,-4.820702 -1.349446,-0.664331 -2.780731,-0.992937 -4.22594,-0.9704 z m 13.648219,10.643105 c 4.368792,-0.0072 7.338474,3.986758 6.104134,8.232756 -0.538316,1.851711 -2.30439,3.645287 -4.069423,4.163332 -1.510099,0.443218 -2.756009,0.465145 -4.163333,0.0313 -2.446752,-0.75425 -4.274141,-3.361467 -4.257242,-6.104135 0.01132,-1.835692 0.421587,-2.880766 1.690376,-4.257242 1.325034,-1.437485 2.759254,-2.062831 4.695488,-2.066015 z"
         inkscape:connector-curvature="0"
         clip-path="url(#clipPath3888)"
         id="path3884"
         style="opacity:0.15;color:#000000;fill:none;stroke:#000000;stroke-width:1;stroke-miterlimit:4;stroke-dasharray:none;marker:none;visibility:visible;display:inline;overflow:visible;filter:url(#filter3892);enable-background:accumulate" />
    </g>
    <rect
       ry="25"
       rx="25"
       id="rect3003"
       style="opacity:0.15;fill:#ffffff;fill-opacity:1"
       height="92"
       width="92"
       y="958.36218"
       x="-96"
       clip-path="url(#clipPath3009)"
       transform="translate(98,3.8281269e-7)" />
  </g>
</svg>
