<?xml version="1.0" encoding="UTF-8" standalone="no"?>
<!-- Created with Inkscape (http://www.inkscape.org/) -->

<svg
   xmlns:dc="http://purl.org/dc/elements/1.1/"
   xmlns:cc="http://creativecommons.org/ns#"
   xmlns:rdf="http://www.w3.org/1999/02/22-rdf-syntax-ns#"
   xmlns:svg="http://www.w3.org/2000/svg"
   xmlns="http://www.w3.org/2000/svg"
   xmlns:xlink="http://www.w3.org/1999/xlink"
   xmlns:sodipodi="http://sodipodi.sourceforge.net/DTD/sodipodi-0.dtd"
   xmlns:inkscape="http://www.inkscape.org/namespaces/inkscape"
   width="96"
   height="96"
   id="svg11037"
   version="1.1"
   inkscape:version="0.48.3.1 r9886"
   sodipodi:docname="midori.svg">
  <defs
     id="defs11039">
    <linearGradient
       y2="1046.1001"
       x2="47.999954"
       y1="962.62189"
       x1="47.999954"
       gradientTransform="matrix(1.15,0,0,1.15,-7.1999462,-150.65291)"
       gradientUnits="userSpaceOnUse"
       id="linearGradient3886"
       xlink:href="#linearGradient3795"
       inkscape:collect="always" />
    <linearGradient
       id="linearGradient3795">
      <stop
         style="stop-color:#13a6fd;stop-opacity:1;"
         offset="0"
         id="stop3797" />
      <stop
         style="stop-color:#2975b6;stop-opacity:1;"
         offset="1"
         id="stop3799" />
    </linearGradient>
    <linearGradient
       y2="1046.1001"
       x2="47.999954"
       y1="962.62189"
       x1="47.999954"
       gradientTransform="matrix(1.15,0,0,1.15,-7.1999462,-150.65292)"
       gradientUnits="userSpaceOnUse"
       id="linearGradient11642"
       xlink:href="#linearGradient4418"
       inkscape:collect="always" />
    <linearGradient
       x1="48"
       y1="90"
       x2="48"
       y2="5.9877172"
       id="linearGradient3706"
       xlink:href="#linearGradient4418"
       gradientUnits="userSpaceOnUse" />
    <linearGradient
       id="linearGradient4418">
      <stop
         id="stop4420"
         style="stop-color:#3b8132;stop-opacity:1"
         offset="0" />
      <stop
         id="stop4422"
         style="stop-color:#55c845;stop-opacity:1"
         offset="1" />
    </linearGradient>
    <radialGradient
       cx="63.98003"
       cy="61.948856"
       r="58.01997"
       fx="63.98003"
       fy="61.948856"
       id="radialGradient5232-9"
       xlink:href="#linearGradient4314"
       gradientUnits="userSpaceOnUse"
       gradientTransform="matrix(1.090012,0,0,0.84044811,-21.739002,-5.4878171)" />
    <linearGradient
       id="linearGradient4314">
      <stop
         id="stop4316"
         style="stop-color:#88f07b;stop-opacity:1"
         offset="0" />
      <stop
         id="stop4318"
         style="stop-color:#b5f2bc;stop-opacity:0.1221374"
         offset="1" />
    </linearGradient>
    <linearGradient
       x1="59"
       y1="40"
       x2="69"
       y2="40"
       id="linearGradient4578"
       xlink:href="#linearGradient5932-3-2-4"
       gradientUnits="userSpaceOnUse" />
    <linearGradient
       id="linearGradient5932-3-2-4">
      <stop
         id="stop5934-3-2-9"
         style="stop-color:#ff7c53;stop-opacity:1"
         offset="0" />
      <stop
         id="stop5940-1-4-5"
         style="stop-color:#f21919;stop-opacity:1"
         offset="0.5" />
      <stop
         id="stop5942-5-4-7"
         style="stop-color:#db1414;stop-opacity:1"
         offset="0.5" />
      <stop
         id="stop5936-2-5-0"
         style="stop-color:#9b1818;stop-opacity:1"
         offset="1" />
    </linearGradient>
    <linearGradient
       x1="59"
       y1="88"
       x2="69"
       y2="88"
       id="linearGradient4580"
       xlink:href="#linearGradient5944-6-9-3"
       gradientUnits="userSpaceOnUse" />
    <linearGradient
       id="linearGradient5944-6-9-3">
      <stop
         id="stop5946-9-5-0"
         style="stop-color:#f0f0f0;stop-opacity:1"
         offset="0" />
      <stop
         id="stop5952-4-9-7"
         style="stop-color:#e6e6e6;stop-opacity:1"
         offset="0.5" />
      <stop
         id="stop5954-4-7-2"
         style="stop-color:#d2d2d2;stop-opacity:1"
         offset="0.5" />
      <stop
         id="stop5948-6-2-1"
         style="stop-color:#bebebe;stop-opacity:1"
         offset="1" />
    </linearGradient>
    <radialGradient
       cx="63.335083"
       cy="63.279507"
       r="1.7404202"
       fx="63.335083"
       fy="63.279507"
       id="radialGradient4582"
       xlink:href="#linearGradient5960-0-4-4"
       gradientUnits="userSpaceOnUse"
       gradientTransform="matrix(0.644005,-1.4508695e-6,1.4508659e-6,0.6440034,22.699101,22.755712)" />
    <linearGradient
       id="linearGradient5960-0-4-4">
      <stop
         id="stop5962-7-7-5"
         style="stop-color:#c1c1c1;stop-opacity:1"
         offset="0" />
      <stop
         id="stop5964-4-1-8"
         style="stop-color:#3f3f3f;stop-opacity:1"
         offset="1" />
    </linearGradient>
    <clipPath
       clipPathUnits="userSpaceOnUse"
       id="clipPath3844">
      <rect
         x="6"
         y="5.9999609"
         width="84.000038"
         height="84.000038"
         style="fill:url(#linearGradient3848);fill-opacity:1"
         id="rect3846"
         rx="22.826097"
         ry="22.826097" />
    </clipPath>
    <linearGradient
       inkscape:collect="always"
       xlink:href="#linearGradient4418"
       id="linearGradient3848"
       gradientUnits="userSpaceOnUse"
       gradientTransform="matrix(1.0500005,0,0,1.0500005,-2.3999549,-1006.5795)"
       x1="47.999954"
       y1="962.62189"
       x2="47.999954"
       y2="1046.1001" />
    <clipPath
       clipPathUnits="userSpaceOnUse"
       id="clipPath3009">
      <path
         id="path3011"
         d="m -2,956.36218 -96,0 0,33.5624 96,25.68742 0,-59.24982 z"
         style="opacity:0.15;fill:#ffffff;fill-opacity:1;stroke:none"
         inkscape:connector-curvature="0" />
    </clipPath>
  </defs>
  <sodipodi:namedview
     id="base"
     pagecolor="#ffffff"
     bordercolor="#666666"
     borderopacity="1.0"
     inkscape:pageopacity="0.0"
     inkscape:pageshadow="2"
     inkscape:zoom="3.959798"
     inkscape:cx="33.538031"
     inkscape:cy="59.964634"
     inkscape:document-units="px"
     inkscape:current-layer="layer1"
     showgrid="false"
     inkscape:window-width="1280"
     inkscape:window-height="750"
     inkscape:window-x="0"
     inkscape:window-y="22"
     inkscape:window-maximized="1"
     showguides="true"
     inkscape:guide-bbox="true">
    <sodipodi:guide
       orientation="0,1"
       position="-24.748737,0"
       id="guide11064" />
    <sodipodi:guide
       orientation="0,1"
       position="-23.233509,96"
       id="guide11066" />
    <sodipodi:guide
       orientation="1,0"
       position="0,54.800776"
       id="guide11068" />
    <sodipodi:guide
       orientation="1,0"
       position="96,51.012704"
       id="guide11070" />
    <sodipodi:guide
       orientation="0,1"
       position="-18.94036,48"
       id="guide11072" />
    <sodipodi:guide
       orientation="1,0"
       position="48,79.296975"
       id="guide11074" />
    <sodipodi:guide
       orientation="1,0"
       position="2,75.508903"
       id="guide11076" />
    <sodipodi:guide
       orientation="0,1"
       position="-77.27667,2"
       id="guide11078" />
    <sodipodi:guide
       orientation="1,0"
       position="94,77.781746"
       id="guide11080" />
    <sodipodi:guide
       orientation="0,1"
       position="-65.912454,94"
       id="guide11082" />
  </sodipodi:namedview>
  <metadata
     id="metadata11042">
    <rdf:RDF>
      <cc:Work
         rdf:about="">
        <dc:format>image/svg+xml</dc:format>
        <dc:type
           rdf:resource="http://purl.org/dc/dcmitype/StillImage" />
        <dc:title />
      </cc:Work>
    </rdf:RDF>
  </metadata>
  <g
     inkscape:label="Layer 1"
     inkscape:groupmode="layer"
     id="layer1"
     transform="translate(0,-956.36218)">
    <g
       transform="matrix(1.0952376,0,0,1.0952376,-4.5714254,951.7908)"
       id="g3167"
       clip-path="url(#clipPath3844)">
      <g
         style="display:inline"
         id="layer1-1">
        <rect
           style="fill:url(#linearGradient3706);fill-opacity:1;fill-rule:nonzero;stroke:none"
           id="rect2419"
           y="6"
           x="6"
           ry="6"
           rx="6"
           height="84"
           width="84" />
        <path
           style="opacity:0.8;fill:url(#radialGradient5232-9);fill-opacity:1;stroke:none;display:inline"
           id="path3522-9"
           inkscape:connector-curvature="0"
           d="m 36.27388,6.096377 c 1.65012,2.2155912 0.11259,5.915398 2.60148,5.878671 1.2119,1.713164 -2.41545,0.511042 0.2036,1.831432 1.5061,1.185988 -1.5934,1.863613 0.27178,2.927919 -2.14968,1.109114 0.34844,5.801103 1.94512,6.97538 2.62795,2.212061 1.1622,-4.683394 4.0945,-5.04209 1.59336,-1.818795 4.39184,-2.986327 6.37927,-4.815989 -1.9423,-0.15766 -3.07647,-1.366454 -1.23702,-2.115252 3.38545,3.468671 0.8489,-1.642711 -1.02514,-2.452023 1.81336,-0.5767594 3.57698,-0.154404 3.32537,-1.6505493 1.91632,-1.4018192 -1.84226,-1.8544226 -3.18394,-1.5374987 -4.45834,0 -8.91667,0 -13.37502,0 z M 8.472035,7.5434349 C 6.022275,8.2412831 5.851393,14.095058 8.313685,10.844535 8.918028,9.50983 11.710762,7.901324 8.472035,7.5434349 z M 19.918529,7.746927 c -1.41226,2.214241 0.204911,3.989518 1.379911,1.288786 0.83171,-1.1277826 -0.617931,-1.2474651 -1.379911,-1.288786 z m 3.528951,0.4974263 c -2.728751,1.2645837 -0.6726,4.2134717 -0.60506,4.8693197 2.87457,0.994334 4.47323,-0.650114 5.56069,2.160413 2.73516,1.576152 -0.0538,4.314918 -1.08054,5.028176 1.84934,-1.610389 5.40416,4.378304 4.47226,1.214321 -1.11179,-0.811673 2.98515,1.303915 0.85962,-1.334006 -1.95607,-3.151091 0.15527,-1.410713 0.97995,-0.675273 2.80488,-2.514847 -3.1736,-2.818813 -1.68123,-5.40689 C 30.64542,13.041357 28.93028,9.83304 26.6145,10.46016 25.06426,12.464727 26.40035,6.0923691 24.12589,9.281181 c -0.11789,1.782531 -0.0429,4.044447 -0.70571,0.956351 -0.44407,-0.540606 0.764,-1.7974072 0.0273,-1.9931787 z m -5.56489,0.022612 C 16.050988,8.8775146 16.149361,11.351938 18.401546,11.617212 19.17298,10.738016 18.70804,8.4334551 17.88259,8.2669652 z M 10.734187,9.058325 c -2.379078,0.563598 -1.407992,2.481632 -0.679572,3.02182 -2.944918,0.737557 4.49569,0.942657 0.79268,1.409793 -3.08079,1.230224 2.966663,2.67961 3.958767,1.220954 3.804388,0.930273 0.136908,-3.045031 -0.197041,-5.199948 -1.612752,-1.7306215 -0.06365,3.989551 -1.521868,0.184316 -0.508787,1.129983 -2.126528,0.166515 -2.352966,-0.636935 z M 86.33531,9.307037 c -3.19244,1.249243 1.98418,5.963472 0.69765,1.674664 -0.12817,-0.517868 0.28819,-1.886169 -0.69765,-1.674664 z M 19.66969,11.2063 c -2.294083,2.155636 2.91599,3.938244 -0.658894,5.54415 -0.53602,-2.001942 -1.458276,1.001608 -3.503467,-0.615111 -3.515899,1.46374 -5.313868,-0.762449 -8.257534,-2.288432 -1.768029,-0.220055 -1.103781,1.679698 -1.220884,3.458474 0,4.915862 0,9.831727 0,14.74759 1.733489,1.823574 0.676329,0.804576 0,0.301602 0.951467,3.240031 -0.419572,7.976266 3.330851,9.860928 0.637563,1.182446 3.312882,6.219986 3.43622,4.712704 -1.341214,-1.404368 -2.717353,-5.614596 -0.447896,-1.862098 2.032756,3.567022 4.774753,5.880584 8.780474,6.729415 2.19006,0.744855 3.99117,3.305322 5.91712,2.741963 1.08905,2.870539 -3.22741,5.627088 0.14491,8.30447 1.76052,2.71045 4.71618,4.488168 3.11596,8.29345 -1.11907,3.716413 -0.63993,7.765882 -1.60779,11.228513 -0.30039,2.107681 2.93804,7.457302 2.65747,3.173531 0.94557,-2.976918 0.92064,-6.252508 3.14759,-8.360679 3.04711,0.02412 0.58237,-3.276114 3.607,-2.844995 1.84565,-2.418872 2.38023,-5.304486 5.49491,-6.264978 0.37205,-2.936144 5.17882,-7.4329 0.21314,-8.576056 -1.34961,-0.665119 -4.8245,-0.904282 -4.55894,-1.232465 0.53803,-2.913429 -4.49347,-3.742841 -6.63424,-4.934817 -2.81075,-1.994856 -7.03423,3.313948 -8.02451,-1.260398 -0.59088,-1.439233 -2.75133,-1.462574 -1.75843,-3.683379 -1.78939,1.779441 -5.28934,1.238624 -4.373028,-2.197824 1.391566,-2.894156 6.735638,-3.031092 7.646258,0.450058 -1.26435,-3.839294 2.44394,-6.828036 4.50253,-9.559465 0.41916,-1.305551 2.90974,-2.427219 2.05268,-0.692077 1.46015,-0.05266 3.67328,-2.687302 1.07941,-1.471281 -0.0367,-2.402702 -2.27298,-1.719417 -2.998,-1.378249 1.34377,-2.132514 8.24498,-0.966646 5.35509,-4.452373 -2.2393,-0.907229 -2.05302,-6.201368 -4.318,-3.251981 0.1906,-1.817243 -4.61001,-5.374474 -4.50525,-2.327163 0.58599,2.726773 0.10714,5.867952 -1.13992,7.655308 -0.26025,-3.995633 -7.075686,-3.112538 -6.199431,-7.370332 1.269451,-2.029282 2.752851,-4.835506 2.894181,-4.583059 2.27505,-0.868509 4.10459,-3.394824 1.46783,-5.055609 -0.14092,1.447483 -1.98303,4.433935 -1.72366,0.821917 -1.705794,2.022175 -1.3162,-3.217808 -2.91375,-3.761252 z m 54.45,1.401837 c -3.99594,0.977352 -5.58007,4.793453 -7.55681,7.954209 -2.91386,1.313584 -2.80294,6.954861 0.45241,5.153113 0.87128,1.52152 -0.60951,3.919724 1.92831,1.930256 2.047,-2.708555 0.35794,-7.089232 3.84142,-8.797142 0.25374,1.32799 -3.21334,6.286746 0.83699,5.471685 3.66156,0.13814 -2.66185,0.364788 -0.88099,2.703385 -1.85027,-1.097665 -0.88884,2.997843 -3.30399,2.044772 -2.09232,1.137967 -3.46433,-0.528366 -2.98503,-2.353789 -1.64596,0.960095 0.5177,3.668626 -2.33958,3.831405 -0.64005,2.272529 -5.90338,1.930002 -2.9102,4.244049 1.3289,3.443647 -4.95154,0.215879 -3.16854,4.348369 1.52545,4.086407 4.7224,-1.354049 6.01943,-2.405153 2.50248,-1.940907 6.21066,3.309444 3.95877,3.504593 2.52508,-0.338743 2.00619,-2.739888 -0.0169,-3.669477 -1.09268,-2.833524 3.45903,1.389634 3.2066,2.810286 1.60595,3.006852 0.94462,-3.078557 2.57885,-0.384373 -0.1908,2.841965 6.57418,0.668223 3.34439,4.290282 -2.77688,0.559235 -5.51013,-0.715787 -7.90083,0.100876 -2.22511,-0.01969 -2.11347,-2.396773 -2.92358,-2.992055 -2.83037,0.229926 -6.32794,0.203926 -8.22277,2.490166 -2.04902,2.810946 -5.00383,6.740445 -2.77053,10.329674 2.23487,5.318818 7.77718,0.27589 10.96298,3.417068 0.94693,1.309731 -0.8206,2.86661 1.2967,4.285291 0.79672,3.022035 -0.90448,5.891404 1.05227,8.780282 1.01184,2.716843 1.63978,6.783262 5.40576,4.300665 3.98577,-2.398255 2.92416,-6.819304 6.21294,-9.268036 -2.60227,-5.035562 3.18363,-7.243505 4.62722,-11.33147 -3.15395,0.461678 -5.96377,-2.682428 -6.72579,-5.847035 -1.32494,-1.53712 -0.98368,-3.80361 0.49633,-0.916013 2.03426,1.970926 2.07821,7.819175 5.84127,4.810628 1.72035,-0.719477 6.4186,-3.464001 2.67511,-4.712977 -2.41304,1.747528 -5.07525,-5.221667 -1.53182,-1.179385 2.57602,1.092759 4.37996,1.743838 4.37996,-1.879216 0,-9.761273 0,-19.654809 0,-29.482214 -0.8024,0.819872 -2.8638,2.334082 -3.90428,1.32791 -1.79037,0.249281 -4.15389,3.732429 -3.59125,0.365356 -1.55624,-0.103042 -0.27858,3.019034 -2.41664,3.106347 -0.21529,1.605089 -2.15987,0.29723 -1.42943,1.821464 -1.50065,-1.064346 -2.77067,-4.424842 0.18614,-2.315577 4.39103,-1.31719 -2.8956,-4.288275 -3.45804,-5.006418 0.94545,-0.226501 -1.02861,-1.211646 -1.26681,-0.881801 z m -36.23968,0.881801 c -1.4615,1.217596 2.77854,1.446893 0,0 z m -19.522371,0.655697 c -1.634647,1.709655 2.603281,1.571667 0,0 z m 9.478421,1.69577 c -1.23786,2.027571 1.82903,0.748571 0,0 z m 27.10058,2.39669 c -1.44923,1.668248 -3.36205,-0.439045 -3.39323,0.994852 0.26265,0.433258 1.31467,3.52554 3.61945,1.243565 1.23698,-0.521451 0.74995,-1.835967 -0.22622,-2.238417 z m -30.85575,0.994852 c -2.74881,2.400285 4.6683,2.621438 0.58232,0.275289 l -0.58232,-0.27529 z m 36.2623,6.647418 c -1.97909,1.2904 0.94943,4.030804 -0.0431,5.318079 -1.2401,2.160392 4.60832,-0.152179 1.48461,-1.875826 -0.22257,-1.48088 -1.83002,-3.287723 -1.44154,-3.442253 z m -1.33468,2.600181 c -2.75739,0.779471 -0.62595,4.803849 0.35067,1.013493 0.0549,-0.219748 0.12936,-1.020842 -0.35067,-1.013493 z m -22.0786,2.916726 c -2.56522,1.748962 -0.39843,3.494707 1.48156,2.707775 -0.38596,-1.055239 -1.46417,-1.720102 -1.48156,-2.707775 z m 48.4553,2.939335 c 1.27995,0.645878 -2.34554,1.749213 -0.0498,2.885924 1.33598,1.570889 0.83231,4.942999 -1.3392,2.556372 0.40344,-2.664667 -2.94356,-4.654664 1.38903,-5.442296 z m -6.58287,0.02261 c -0.17366,1.711943 3.69395,4.372967 -0.47504,3.504593 -2.20475,0.258597 -5.50697,-0.06736 -2.72943,-2.814283 0.87765,-0.526822 3.18206,1.817596 1.98292,-0.373765 0.42513,-0.02712 0.82107,-0.18758 1.22155,-0.316545 z M 66.06643,38.0673 c -1.60811,1.035898 1.11199,1.830212 0,0 z m -40.37941,9.654585 c -0.27111,0.904354 5.08598,1.82085 1.38929,0.371963 l -0.55107,-0.193949 -0.83822,-0.178014 z m 4.16235,1.288785 c -1.62491,1.649392 3.34782,0.492772 0,0 z m 54.3369,15.126272 c -3.53072,0.09109 -3.06133,9.197024 -0.60013,3.808943 0.2334,-1.169216 1.1689,-2.712425 0.60013,-3.808943 z" />
      </g>
      <g
         id="g3155">
        <path
           d="m 48,16 -4.625,16.6875 c -1.750115,0.528895 -3.372187,1.350473 -4.8125,2.40625 l -7.53125,-4.0625 4.0625,7.53125 c -1.055777,1.440313 -1.877355,3.062385 -2.40625,4.8125 L 16,48 32.6875,52.625 c 0.528895,1.750115 1.350473,3.372187 2.40625,4.8125 l -4.0625,7.53125 7.53125,-4.0625 c 1.440313,1.055777 3.062385,1.877355 4.8125,2.40625 L 48,80 52.625,63.3125 c 1.750115,-0.528895 3.372187,-1.350473 4.8125,-2.40625 l 7.53125,4.0625 -4.0625,-7.53125 c 1.055777,-1.440313 1.877355,-3.062385 2.40625,-4.8125 L 80,48 63.3125,43.375 c -0.528895,-1.750115 -1.350473,-3.372187 -2.40625,-4.8125 l 4.0625,-7.53125 -7.53125,4.0625 C 55.997187,34.037973 54.375115,33.216395 52.625,32.6875 L 48,16 z m 0,20 c 6.627417,0 12,5.372583 12,12 0,6.627417 -5.372583,12 -12,12 -6.627417,0 -12,-5.372583 -12,-12 0,-6.627417 5.372583,-12 12,-12 z"
           inkscape:connector-curvature="0"
           id="path4588"
           style="color:#000000;fill:#ffffff;fill-opacity:1;fill-rule:nonzero;stroke:none;stroke-width:0.80000001;marker:none;visibility:visible;display:inline;overflow:visible;enable-background:accumulate" />
        <path
           d="M 74.15625,22.875 44.5,45.53125 21.84375,75.1875 51.5,52.53125 74.15625,22.875 z"
           inkscape:connector-curvature="0"
           id="path4612"
           style="opacity:0.3;fill:#000000;fill-opacity:1;fill-rule:evenodd;stroke:none" />
        <g
           transform="matrix(0.70710678,0.70710678,-0.70710678,0.70710678,48.020021,-19.873366)"
           id="g4572">
          <g
             transform="matrix(0.98983765,0,0,0.77048859,-15.350324,-1.2826605)"
             id="g5928-7-4">
            <path
               d="m 69,64 -10,0 5,-48 5,48 z"
               inkscape:connector-curvature="0"
               id="path5923-0-5"
               style="fill:url(#linearGradient4578);fill-opacity:1;fill-rule:evenodd;stroke:none" />
            <path
               d="m 69,63.999997 -10,0 L 64,112 69,63.999997 z"
               inkscape:connector-curvature="0"
               id="path5926-8-6"
               style="fill:url(#linearGradient4580);fill-opacity:1;fill-rule:evenodd;stroke:none" />
          </g>
          <path
             inkscape:connector-curvature="0"
             d="m 65.503089,63.920891 a 1.7404205,1.7404205 0 1 1 -3.480841,0 1.7404205,1.7404205 0 1 1 3.480841,0 z"
             transform="matrix(0.88540527,0,0,0.88540527,-8.4565171,-8.5672842)"
             id="path5958-8-4"
             style="fill:url(#radialGradient4582);fill-opacity:1;fill-rule:evenodd;stroke:none" />
        </g>
      </g>
    </g>
    <rect
       ry="25"
       rx="25"
       id="rect3003"
       style="opacity:0.15;fill:#ffffff;fill-opacity:1"
       height="92"
       width="92"
       y="958.36218"
       x="-96"
       clip-path="url(#clipPath3009)"
       transform="translate(98,3.8281269e-7)" />
  </g>
</svg>
