<?xml version="1.0" encoding="UTF-8" standalone="no"?>
<!-- Created with Inkscape (http://www.inkscape.org/) -->

<svg
   xmlns:dc="http://purl.org/dc/elements/1.1/"
   xmlns:cc="http://creativecommons.org/ns#"
   xmlns:rdf="http://www.w3.org/1999/02/22-rdf-syntax-ns#"
   xmlns:svg="http://www.w3.org/2000/svg"
   xmlns="http://www.w3.org/2000/svg"
   xmlns:xlink="http://www.w3.org/1999/xlink"
   xmlns:sodipodi="http://sodipodi.sourceforge.net/DTD/sodipodi-0.dtd"
   xmlns:inkscape="http://www.inkscape.org/namespaces/inkscape"
   width="96"
   height="96"
   id="svg11037"
   version="1.1"
   inkscape:version="0.48.3.1 r9886"
   sodipodi:docname="minitube.svg">
  <defs
     id="defs11039">
    <linearGradient
       y2="1046.1001"
       x2="47.999954"
       y1="962.62189"
       x1="47.999954"
       gradientTransform="matrix(1.15,0,0,1.15,-7.1999462,-150.65291)"
       gradientUnits="userSpaceOnUse"
       id="linearGradient3886"
       xlink:href="#linearGradient3795"
       inkscape:collect="always" />
    <linearGradient
       id="linearGradient3795">
      <stop
         style="stop-color:#13a6fd;stop-opacity:1;"
         offset="0"
         id="stop3797" />
      <stop
         style="stop-color:#2975b6;stop-opacity:1;"
         offset="1"
         id="stop3799" />
    </linearGradient>
    <linearGradient
       y2="1046.1001"
       x2="47.999954"
       y1="962.62189"
       x1="47.999954"
       gradientTransform="matrix(1.15,0,0,1.15,-7.1999462,-150.65292)"
       gradientUnits="userSpaceOnUse"
       id="linearGradient11642"
       xlink:href="#linearGradient3948"
       inkscape:collect="always" />
    <radialGradient
       id="radialGradient3205"
       xlink:href="#linearGradient3948"
       gradientUnits="userSpaceOnUse"
       cy="78.287003"
       cx="47.098"
       gradientTransform="matrix(2.2063,0,-1.5668e-8,1.3124,-56.813,-119.24)"
       r="38.957001" />
    <linearGradient
       id="linearGradient3948">
      <stop
         id="stop3950"
         style="stop-color:#5a5a5a"
         offset="0" />
      <stop
         id="stop3952"
         style="stop-color:#737373"
         offset="1" />
    </linearGradient>
    <radialGradient
       r="38.957001"
       cy="78.287003"
       cx="47.098"
       gradientTransform="matrix(2.2063,0,-1.5668e-8,1.3124,-54.666464,-1021.0536)"
       gradientUnits="userSpaceOnUse"
       id="radialGradient3154"
       xlink:href="#linearGradient3948"
       inkscape:collect="always" />
    <linearGradient
       id="linearGradient3888"
       y2="69.871002"
       gradientUnits="userSpaceOnUse"
       x2="123.97"
       gradientTransform="translate(-80,0)"
       y1="17.684"
       x1="123.97">
      <stop
         id="stop3779"
         style="stop-color:#272727"
         offset="0" />
      <stop
         id="stop3781"
         style="stop-color:#737373"
         offset="1" />
    </linearGradient>
    <clipPath
       id="clipPath5265"
       clipPathUnits="userSpaceOnUse">
      <path
         inkscape:connector-curvature="0"
         id="path5267"
         style="fill:#ff0000"
         d="m 138,78 c -0.60457,0 -1.1929,0.01496 -1.7812,0.03125 -0.0141,1.46e-4 -0.0484,-1.5e-4 -0.0625,0 -8.3454,0.08895 -12.216,0.77855 -16.875,2.0312 -11.3,2.572 -11.28,7.6 -11.28,23.938 0,16.16 -0.0295,20.465 11.281,23.938 4.6588,1.2527 8.5296,1.9423 16.875,2.0312 0.0141,1.5e-4 0.0484,-1.5e-4 0.0625,0 0.58839,0.0163 1.1767,0.0312 1.7812,0.0312 0.60457,0 1.1929,-0.015 1.7812,-0.0312 0.0141,-1.5e-4 0.0484,1.5e-4 0.0625,0 8.3454,-0.0889 12.216,-0.77855 16.875,-2.0312 11.31,-3.47 11.28,-7.78 11.28,-23.94 0,-16.338 0.0205,-21.366 -11.281,-23.938 -4.6588,-1.2527 -8.5296,-1.9423 -16.875,-2.0312 -0.0141,-1.5e-4 -0.0484,1.46e-4 -0.0625,0 -0.59,-0.016 -1.18,-0.031 -1.78,-0.031 z" />
    </clipPath>
    <filter
       color-interpolation-filters="sRGB"
       id="filter3925"
       height="1.3102"
       width="1.2688"
       y="-0.15508001"
       x="-0.1344">
      <feGaussianBlur
         id="feGaussianBlur3927"
         stdDeviation="3.3599985" />
    </filter>
    <linearGradient
       id="linearGradient4099"
       y2="73.447998"
       xlink:href="#linearGradient3737-7"
       gradientUnits="userSpaceOnUse"
       x2="49.384998"
       y1="81.177002"
       x1="49.384998" />
    <linearGradient
       id="linearGradient3737-7">
      <stop
         id="stop3739-2"
         style="stop-color:#fff"
         offset="0" />
      <stop
         id="stop3741-7"
         style="stop-color:#fff;stop-opacity:0"
         offset="1" />
    </linearGradient>
    <linearGradient
       id="linearGradient4101"
       y2="79.839996"
       xlink:href="#linearGradient3948-1"
       gradientUnits="userSpaceOnUse"
       x2="48.179001"
       y1="72.25"
       x1="48.179001" />
    <linearGradient
       id="linearGradient3948-1">
      <stop
         id="stop3950-9"
         style="stop-color:#5a5a5a"
         offset="0" />
      <stop
         id="stop3952-1"
         style="stop-color:#737373"
         offset="1" />
    </linearGradient>
    <linearGradient
       id="linearGradient4103"
       y2="79.839996"
       xlink:href="#linearGradient3948-1"
       gradientUnits="userSpaceOnUse"
       x2="48.179001"
       gradientTransform="translate(1,0)"
       y1="72.25"
       x1="48.179001" />
    <linearGradient
       id="linearGradient3238">
      <stop
         id="stop3240"
         style="stop-color:#5a5a5a"
         offset="0" />
      <stop
         id="stop3242"
         style="stop-color:#737373"
         offset="1" />
    </linearGradient>
    <linearGradient
       id="linearGradient4105"
       y2="79.839996"
       xlink:href="#linearGradient3948-1"
       gradientUnits="userSpaceOnUse"
       x2="48.179001"
       gradientTransform="translate(2,0)"
       y1="72.25"
       x1="48.179001" />
    <linearGradient
       id="linearGradient3245">
      <stop
         id="stop3247"
         style="stop-color:#5a5a5a"
         offset="0" />
      <stop
         id="stop3249"
         style="stop-color:#737373"
         offset="1" />
    </linearGradient>
    <linearGradient
       id="linearGradient4107"
       y2="79.839996"
       xlink:href="#linearGradient3948-1"
       gradientUnits="userSpaceOnUse"
       x2="48.179001"
       gradientTransform="translate(-1,0)"
       y1="72.25"
       x1="48.179001" />
    <linearGradient
       id="linearGradient3252">
      <stop
         id="stop3254"
         style="stop-color:#5a5a5a"
         offset="0" />
      <stop
         id="stop3256"
         style="stop-color:#737373"
         offset="1" />
    </linearGradient>
    <linearGradient
       id="linearGradient4109"
       y2="79.839996"
       xlink:href="#linearGradient3948-1"
       gradientUnits="userSpaceOnUse"
       x2="48.179001"
       gradientTransform="translate(3,0)"
       y1="72.25"
       x1="48.179001" />
    <linearGradient
       id="linearGradient3259">
      <stop
         id="stop3261"
         style="stop-color:#5a5a5a"
         offset="0" />
      <stop
         id="stop3263"
         style="stop-color:#737373"
         offset="1" />
    </linearGradient>
    <linearGradient
       id="linearGradient4111"
       y2="79.839996"
       xlink:href="#linearGradient3948-1"
       gradientUnits="userSpaceOnUse"
       x2="48.179001"
       gradientTransform="translate(-2,0)"
       y1="72.25"
       x1="48.179001" />
    <linearGradient
       id="linearGradient3266">
      <stop
         id="stop3268"
         style="stop-color:#5a5a5a"
         offset="0" />
      <stop
         id="stop3270"
         style="stop-color:#737373"
         offset="1" />
    </linearGradient>
    <linearGradient
       id="linearGradient4113"
       y2="79.839996"
       xlink:href="#linearGradient3948-1"
       gradientUnits="userSpaceOnUse"
       x2="48.179001"
       gradientTransform="translate(4,0)"
       y1="72.25"
       x1="48.179001" />
    <linearGradient
       id="linearGradient3273">
      <stop
         id="stop3275"
         style="stop-color:#5a5a5a"
         offset="0" />
      <stop
         id="stop3277"
         style="stop-color:#737373"
         offset="1" />
    </linearGradient>
    <linearGradient
       id="linearGradient3785"
       y2="108.68"
       xlink:href="#linearGradient3237"
       gradientUnits="userSpaceOnUse"
       x2="26.360001"
       y1="103.13"
       x1="26.360001" />
    <linearGradient
       id="linearGradient3237">
      <stop
         id="stop3239"
         style="stop-color:#737373"
         offset="0" />
      <stop
         id="stop3241"
         style="stop-color:#fff"
         offset="1" />
    </linearGradient>
    <linearGradient
       id="linearGradient3787"
       y2="99.666"
       xlink:href="#linearGradient3237"
       gradientUnits="userSpaceOnUse"
       x2="26.360001"
       y1="112.61"
       x1="26.360001" />
    <linearGradient
       id="linearGradient3284">
      <stop
         id="stop3286"
         style="stop-color:#737373"
         offset="0" />
      <stop
         id="stop3288"
         style="stop-color:#fff"
         offset="1" />
    </linearGradient>
    <linearGradient
       id="linearGradient3789"
       y2="106.14"
       xlink:href="#linearGradient3767"
       gradientUnits="userSpaceOnUse"
       x2="35.109001"
       y1="106.14"
       x1="21.025999" />
    <linearGradient
       id="linearGradient3767">
      <stop
         id="stop3769"
         style="stop-color:#3e3e3e"
         offset="0" />
      <stop
         id="stop3771"
         style="stop-color:#bbb;stop-opacity:0"
         offset="1" />
    </linearGradient>
    <linearGradient
       id="linearGradient3294"
       y2="108.68"
       xlink:href="#linearGradient3237"
       gradientUnits="userSpaceOnUse"
       x2="26.360001"
       y1="103.13"
       x1="26.360001" />
    <linearGradient
       id="linearGradient3296">
      <stop
         id="stop3298"
         style="stop-color:#737373"
         offset="0" />
      <stop
         id="stop3300"
         style="stop-color:#fff"
         offset="1" />
    </linearGradient>
    <linearGradient
       id="linearGradient3302"
       y2="99.666"
       xlink:href="#linearGradient3237"
       gradientUnits="userSpaceOnUse"
       x2="26.360001"
       y1="112.61"
       x1="26.360001" />
    <linearGradient
       id="linearGradient3304">
      <stop
         id="stop3306"
         style="stop-color:#737373"
         offset="0" />
      <stop
         id="stop3308"
         style="stop-color:#fff"
         offset="1" />
    </linearGradient>
    <linearGradient
       id="linearGradient3310"
       y2="106.14"
       xlink:href="#linearGradient3767"
       gradientUnits="userSpaceOnUse"
       x2="35.109001"
       y1="106.14"
       x1="21.025999" />
    <linearGradient
       id="linearGradient3312">
      <stop
         id="stop3314"
         style="stop-color:#3e3e3e"
         offset="0" />
      <stop
         id="stop3316"
         style="stop-color:#bbb;stop-opacity:0"
         offset="1" />
    </linearGradient>
    <linearGradient
       id="linearGradient4216"
       y2="180.67"
       gradientUnits="userSpaceOnUse"
       x2="175.31"
       gradientTransform="matrix(0.0877,0,0,0.090597,23.55,33.645)"
       y1="73.253998"
       x1="175.31">
      <stop
         id="stop4194"
         style="stop-color:#fff"
         offset="0" />
      <stop
         id="stop4196"
         style="stop-color:#dfdfdf"
         offset=".99438" />
    </linearGradient>
    <linearGradient
       id="linearGradient4220"
       y2="218.48"
       gradientUnits="userSpaceOnUse"
       x2="383.29001"
       gradientTransform="matrix(0.095319,0,0,0.095319,22,32.786)"
       x1="383.29001">
      <stop
         id="stop3143"
         style="stop-color:#ED2828"
         offset=".005618" />
      <stop
         id="stop3145"
         style="stop-color:#EF3B39"
         offset=".5" />
      <stop
         id="stop3147"
         style="stop-color:#C02126"
         offset=".99438" />
    </linearGradient>
    <mask
       id="SVGID_2_"
       height="206.246582"
       width="312.2680664"
       y="6.1162109"
       x="227.1552734"
       maskUnits="userSpaceOnUse">
      <g
         id="g3157"
         style="filter:url(#Adobe_OpacityMaskFilter)">
        <linearGradient
           id="SVGID_3_"
           y2="169.00999"
           gradientUnits="userSpaceOnUse"
           x2="352.87"
           y1="-18.516001"
           x1="461.13">
          <stop
             id="stop3160"
             style="stop-color:#fff"
             offset=".005618" />
          <stop
             id="stop3162"
             style="stop-color:#F6F6F6"
             offset=".012915" />
          <stop
             id="stop3164"
             style="stop-color:#C8C8C8"
             offset=".052759" />
          <stop
             id="stop3166"
             style="stop-color:#9D9D9D"
             offset=".097662" />
          <stop
             id="stop3168"
             style="stop-color:#777"
             offset=".14592" />
          <stop
             id="stop3170"
             style="stop-color:#575757"
             offset=".19845" />
          <stop
             id="stop3172"
             style="stop-color:#3B3B3B"
             offset=".25651" />
          <stop
             id="stop3174"
             style="stop-color:#252525"
             offset=".32203" />
          <stop
             id="stop3176"
             style="stop-color:#141414"
             offset=".39858" />
          <stop
             id="stop3178"
             style="stop-color:#090909"
             offset=".49318" />
          <stop
             id="stop3180"
             style="stop-color:#020202"
             offset=".62593" />
          <stop
             id="stop3182"
             offset=".99438" />
        </linearGradient>
        <path
           inkscape:connector-curvature="0"
           id="path3184"
           style="fill:url(#SVGID_3_)"
           d="m 537.27,48.947 -0.0195,-0.23291 v -0.23438 c 0,-22.167 -18.275,-40.204 -40.74,-40.204 h -0.12695 l -0.12696,-0.00586 c -35.87,-1.4976 -73.87,-2.2203 -112.97,-2.149 -39.08,-0.0713 -77.08,0.6514 -112.96,2.1489 l -0.12744,0.00586 h -0.12793 c -6.1802,0 -12.039,1.3716 -17.292,3.8125 l 281.46,173.06 c 1.9375,-4.6777 3.0137,-9.791 3.0137,-15.15 v -0.23438 l 0.0195,-0.23242 c 1.4863,-19.398 2.209,-39.679 2.1484,-60.312 0.0605,-20.597 -0.66211,-40.877 -2.1484,-60.274 z m -41.014,161.26 0.12696,-0.004 h 0.12695 c 6.5137,0 12.67,-1.5254 18.137,-4.2188 l -87.156,6.1074 c 23.566,-0.33008 46.574,-0.95703 68.766,-1.8848 z" />
      </g>
    </mask>
    <linearGradient
       id="linearGradient3341"
       y2="169.00999"
       gradientUnits="userSpaceOnUse"
       x2="352.87"
       y1="-18.516001"
       x1="461.13">
      <stop
         id="stop3343"
         style="stop-color:#fff"
         offset=".005618" />
      <stop
         id="stop3345"
         style="stop-color:#F6F6F6"
         offset=".012915" />
      <stop
         id="stop3347"
         style="stop-color:#C8C8C8"
         offset=".052759" />
      <stop
         id="stop3349"
         style="stop-color:#9D9D9D"
         offset=".097662" />
      <stop
         id="stop3351"
         style="stop-color:#777"
         offset=".14592" />
      <stop
         id="stop3353"
         style="stop-color:#575757"
         offset=".19845" />
      <stop
         id="stop3355"
         style="stop-color:#3B3B3B"
         offset=".25651" />
      <stop
         id="stop3357"
         style="stop-color:#252525"
         offset=".32203" />
      <stop
         id="stop3359"
         style="stop-color:#141414"
         offset=".39858" />
      <stop
         id="stop3361"
         style="stop-color:#090909"
         offset=".49318" />
      <stop
         id="stop3363"
         style="stop-color:#020202"
         offset=".62593" />
      <stop
         id="stop3365"
         offset=".99438" />
    </linearGradient>
    <linearGradient
       y2="108.68"
       x2="26.360001"
       y1="103.13"
       x1="26.360001"
       gradientUnits="userSpaceOnUse"
       id="linearGradient3399"
       xlink:href="#linearGradient3237"
       inkscape:collect="always" />
    <linearGradient
       y2="99.666"
       x2="26.360001"
       y1="112.61"
       x1="26.360001"
       gradientUnits="userSpaceOnUse"
       id="linearGradient3401"
       xlink:href="#linearGradient3237"
       inkscape:collect="always" />
    <linearGradient
       y2="106.14"
       x2="35.109001"
       y1="106.14"
       x1="21.025999"
       gradientUnits="userSpaceOnUse"
       id="linearGradient3403"
       xlink:href="#linearGradient3767"
       inkscape:collect="always" />
    <clipPath
       clipPathUnits="userSpaceOnUse"
       id="clipPath3009">
      <path
         id="path3011"
         d="m -2,956.36218 -96,0 0,33.5624 96,25.68742 0,-59.24982 z"
         style="opacity:0.15;fill:#ffffff;fill-opacity:1;stroke:none"
         inkscape:connector-curvature="0" />
    </clipPath>
  </defs>
  <sodipodi:namedview
     id="base"
     pagecolor="#ffffff"
     bordercolor="#666666"
     borderopacity="1.0"
     inkscape:pageopacity="0.0"
     inkscape:pageshadow="2"
     inkscape:zoom="3.959798"
     inkscape:cx="33.538031"
     inkscape:cy="59.964634"
     inkscape:document-units="px"
     inkscape:current-layer="layer1"
     showgrid="false"
     inkscape:window-width="1280"
     inkscape:window-height="750"
     inkscape:window-x="0"
     inkscape:window-y="22"
     inkscape:window-maximized="1"
     showguides="true"
     inkscape:guide-bbox="true">
    <sodipodi:guide
       orientation="0,1"
       position="-24.748737,0"
       id="guide11064" />
    <sodipodi:guide
       orientation="0,1"
       position="-23.233509,96"
       id="guide11066" />
    <sodipodi:guide
       orientation="1,0"
       position="0,54.800776"
       id="guide11068" />
    <sodipodi:guide
       orientation="1,0"
       position="96,51.012704"
       id="guide11070" />
    <sodipodi:guide
       orientation="0,1"
       position="-18.94036,48"
       id="guide11072" />
    <sodipodi:guide
       orientation="1,0"
       position="48,79.296975"
       id="guide11074" />
    <sodipodi:guide
       orientation="1,0"
       position="2,75.508903"
       id="guide11076" />
    <sodipodi:guide
       orientation="0,1"
       position="-77.27667,2"
       id="guide11078" />
    <sodipodi:guide
       orientation="1,0"
       position="94,77.781746"
       id="guide11080" />
    <sodipodi:guide
       orientation="0,1"
       position="-65.912454,94"
       id="guide11082" />
  </sodipodi:namedview>
  <metadata
     id="metadata11042">
    <rdf:RDF>
      <cc:Work
         rdf:about="">
        <dc:format>image/svg+xml</dc:format>
        <dc:type
           rdf:resource="http://purl.org/dc/dcmitype/StillImage" />
        <dc:title />
      </cc:Work>
    </rdf:RDF>
  </metadata>
  <g
     inkscape:label="Layer 1"
     inkscape:groupmode="layer"
     id="layer1"
     transform="translate(0,-956.36218)">
    <rect
       x="2"
       y="958.36218"
       width="92"
       height="92"
       style="fill:url(#linearGradient11642);fill-opacity:1.0"
       id="rect3867"
       rx="25"
       ry="25" />
    <g
       transform="translate(3.0000001e-7,956.36218)"
       id="g3179">
      <path
         inkscape:connector-curvature="0"
         d="m 48,18 c -0.60457,0 -1.1929,0.01496 -1.7812,0.03125 -0.0141,1.46e-4 -0.0484,-1.5e-4 -0.0625,0 -8.345,0.089 -12.216,0.779 -16.875,2.031 -11.301,2.572 -11.281,7.6 -11.281,23.938 0,16.16 -0.0295,20.465 11.281,23.938 4.6588,1.2527 8.5296,1.9423 16.875,2.0312 0.0141,1.5e-4 0.0484,-1.5e-4 0.0625,0 0.58839,0.0163 1.1767,0.0312 1.7812,0.0312 0.60457,0 1.1929,-0.015 1.7812,-0.0312 0.0141,-1.5e-4 0.0484,1.5e-4 0.0625,0 8.3454,-0.0889 12.216,-0.77855 16.875,-2.0312 11.313,-3.473 11.283,-7.778 11.283,-23.938 0,-16.338 0.02,-21.366 -11.281,-23.938 -4.6588,-1.2527 -8.5296,-1.9423 -16.875,-2.0312 -0.0141,-1.5e-4 -0.0484,1.46e-4 -0.0625,0 -0.588,-0.016 -1.176,-0.031 -1.781,-0.031 z"
         style="fill:url(#linearGradient3888)"
         id="path5249" />
      <path
         inkscape:connector-curvature="0"
         d="m 138,78 c -0.60457,0 -1.1929,0.01496 -1.7812,0.03125 -0.0141,1.46e-4 -0.0484,-1.5e-4 -0.0625,0 -8.3454,0.08895 -12.216,0.77855 -16.875,2.0312 -11.3,2.572 -11.28,7.6 -11.28,23.938 0,16.16 -0.0295,20.465 11.281,23.938 4.6588,1.2527 8.5296,1.9423 16.875,2.0312 0.0141,1.5e-4 0.0484,-1.5e-4 0.0625,0 0.58839,0.0163 1.1767,0.0312 1.7812,0.0312 0.60457,0 1.1929,-0.015 1.7812,-0.0312 0.0141,-1.5e-4 0.0484,1.5e-4 0.0625,0 8.3454,-0.0889 12.216,-0.77855 16.875,-2.0312 11.31,-3.47 11.28,-7.78 11.28,-23.94 0,-16.338 0.0205,-21.366 -11.281,-23.938 -4.6588,-1.2527 -8.5296,-1.9423 -16.875,-2.0312 -0.0141,-1.5e-4 -0.0484,1.46e-4 -0.0625,0 -0.59,-0.016 -1.18,-0.031 -1.78,-0.031 z"
         transform="translate(-90,-60)"
         clip-path="url(#clipPath5265)"
         style="opacity:0.7;fill:none;stroke:#000000;stroke-width:5;filter:url(#filter3925)"
         id="path5259" />
      <path
         inkscape:connector-curvature="0"
         d="m 45,70.969 c -1.1004,0 -2.0312,0.93088 -2.0312,2.0312 v 0.875 c -0.078,-1.033 -0.919,-1.906 -1.969,-1.906 -1.1004,0 -2.0312,0.93088 -2.0312,2.0312 v 0.875 c -0.078,-1.033 -0.919,-1.906 -1.969,-1.906 -1.1004,0 -2.0312,0.93088 -2.0312,2.0312 v 2 c 0,1.1004 0.93088,2.0312 2.0312,2.0312 1.0505,0 1.8907,-0.87306 1.9688,-1.9062 v 0.875 c 0,1.1004 0.93088,2.0312 2.0312,2.0312 1.0505,0 1.8907,-0.87306 1.9688,-1.9062 v 0.875 c 0,1.1004 0.93088,2.0312 2.0312,2.0312 1.0754,0 1.9597,-0.90181 2,-1.9688 0.04031,1.0669 0.92459,1.9688 2,1.9688 1.07541,0 1.9597,-0.90181 2,-1.9688 0.04031,1.0669 0.92459,1.9688 2,1.9688 1.1004,0 2.0312,-0.93088 2.0312,-2.0312 v -0.875 c 0.07803,1.0332 0.91829,1.9062 1.9688,1.9062 1.1004,0 2.0312,-0.93088 2.0312,-2.0312 v -0.875 c 0.07803,1.0332 0.91829,1.9062 1.9688,1.9062 1.1004,0 2.0312,-0.93088 2.0312,-2.0312 v -2 c 0,-1.1004 -0.93088,-2.0312 -2.0312,-2.0312 -1.0505,0 -1.8907,0.87306 -1.9688,1.9062 v -0.875 c 0,-1.1004 -0.93088,-2.0312 -2.0312,-2.0312 -1.0505,0 -1.8907,0.87306 -1.9688,1.9062 v -0.875 c 0,-1.1004 -0.93088,-2.0312 -2.0312,-2.0312 -1.0754,0 -1.9597,0.90181 -2,1.9688 -0.04031,-1.0669 -0.92459,-1.9688 -2,-1.9688 -1.07541,0 -1.9597,0.90181 -2,1.9688 -0.04031,-1.0669 -0.92459,-1.9688 -2,-1.9688 z"
         style="opacity:0.6;fill:url(#linearGradient4099)"
         id="path4097" />
      <g
         id="g4026">
        <path
           inkscape:connector-curvature="0"
           d="m 45,72 c -0.554,0 -1,0.446 -1,1 v 6 c 0,0.554 0.446,1 1,1 0.554,0 1,-0.446 1,-1 v -6 c 0,-0.554 -0.446,-1 -1,-1 z"
           style="fill:url(#linearGradient4101)"
           id="path4010" />
        <path
           inkscape:connector-curvature="0"
           d="m 49,72 c -0.554,0 -1,0.446 -1,1 v 6 c 0,0.554 0.446,1 1,1 0.554,0 1,-0.446 1,-1 v -6 c 0,-0.554 -0.446,-1 -1,-1 z"
           style="fill:url(#linearGradient4103)"
           id="path4008" />
        <path
           inkscape:connector-curvature="0"
           d="m 53,72 c -0.554,0 -1,0.446 -1,1 v 6 c 0,0.554 0.446,1 1,1 0.554,0 1,-0.446 1,-1 v -6 c 0,-0.554 -0.446,-1 -1,-1 z"
           style="fill:url(#linearGradient4105)"
           id="path4006" />
        <path
           inkscape:connector-curvature="0"
           d="m 41,73 c -0.554,0 -1,0.446 -1,1 v 4 c 0,0.554 0.446,1 1,1 0.554,0 1,-0.446 1,-1 v -4 c 0,-0.554 -0.446,-1 -1,-1 z"
           style="fill:url(#linearGradient4107)"
           id="path4004" />
        <path
           inkscape:connector-curvature="0"
           d="m 57,73 c -0.554,0 -1,0.446 -1,1 v 4 c 0,0.554 0.446,1 1,1 0.554,0 1,-0.446 1,-1 v -4 c 0,-0.554 -0.446,-1 -1,-1 z"
           style="fill:url(#linearGradient4109)"
           id="path4002" />
        <path
           inkscape:connector-curvature="0"
           d="m 37,74 c -0.554,0 -1,0.446 -1,1 v 2 c 0,0.554 0.446,1 1,1 0.554,0 1,-0.446 1,-1 v -2 c 0,-0.554 -0.446,-1 -1,-1 z"
           style="fill:url(#linearGradient4111)"
           id="path4000" />
        <path
           inkscape:connector-curvature="0"
           d="m 61,74 c -0.554,0 -1,0.446 -1,1 v 2 c 0,0.554 0.446,1 1,1 0.554,0 1,-0.446 1,-1 v -2 c 0,-0.554 -0.446,-1 -1,-1 z"
           style="fill:url(#linearGradient4113)"
           id="rect3933" />
      </g>
      <g
         transform="translate(0,-1)"
         id="g3779">
        <path
           inkscape:connector-curvature="0"
           transform="matrix(1.1879,0,0,1.1879,0.65,-18.092)"
           d="m 23.865,79.206 a 5.051,5.051 0 1 1 -10.102,0 5.051,5.051 0 1 1 10.102,0 z"
           style="opacity:0.2"
           id="path3777" />
        <path
           inkscape:connector-curvature="0"
           transform="matrix(0.98995,0,0,0.98995,4.375,-2.4102)"
           d="m 23.865,79.206 a 5.051,5.051 0 1 1 -10.102,0 5.051,5.051 0 1 1 10.102,0 z"
           style="opacity:0.6"
           id="path3775" />
        <path
           inkscape:connector-curvature="0"
           transform="matrix(0.75718,0,0,0.75718,3.0405,-5.3647)"
           d="m 30.983,106.14 a 4.62245,4.62245 0 1 1 -9.2449,0 4.62245,4.62245 0 1 1 9.2449,0 z"
           style="fill:url(#linearGradient3399);stroke:url(#linearGradient3401);stroke-width:3.96210003;stroke-linecap:square"
           id="path3235" />
        <path
           inkscape:connector-curvature="0"
           transform="matrix(0,-0.7591,0.7591,0,-57.569,95.01)"
           d="m 30.983,106.14 a 4.62245,4.62245 0 1 1 -9.2449,0 4.62245,4.62245 0 1 1 9.2449,0 z"
           style="fill:none;stroke:url(#linearGradient3403);stroke-width:1.31739998;stroke-linecap:square"
           id="path2993" />
      </g>
      <g
         transform="translate(50,-1)"
         id="g3791">
        <path
           inkscape:connector-curvature="0"
           transform="matrix(1.1879,0,0,1.1879,0.65,-18.092)"
           d="m 23.865,79.206 a 5.051,5.051 0 1 1 -10.102,0 5.051,5.051 0 1 1 10.102,0 z"
           style="opacity:0.2"
           id="path3793" />
        <path
           inkscape:connector-curvature="0"
           transform="matrix(0.98995,0,0,0.98995,4.375,-2.4102)"
           d="m 23.865,79.206 a 5.051,5.051 0 1 1 -10.102,0 5.051,5.051 0 1 1 10.102,0 z"
           style="opacity:0.6"
           id="path3795" />
        <path
           inkscape:connector-curvature="0"
           transform="matrix(0.75718,0,0,0.75718,3.0405,-5.3647)"
           d="m 30.983,106.14 a 4.62245,4.62245 0 1 1 -9.2449,0 4.62245,4.62245 0 1 1 9.2449,0 z"
           style="fill:url(#linearGradient3785);stroke:url(#linearGradient3787);stroke-width:3.96210003;stroke-linecap:square"
           id="path3797" />
        <path
           inkscape:connector-curvature="0"
           transform="matrix(0,-0.7591,0.7591,0,-57.569,95.01)"
           d="m 30.983,106.14 a 4.62245,4.62245 0 1 1 -9.2449,0 4.62245,4.62245 0 1 1 9.2449,0 z"
           style="fill:none;stroke:url(#linearGradient3789);stroke-width:1.31739998;stroke-linecap:square"
           id="path3800" />
      </g>
      <path
         inkscape:connector-curvature="0"
         d="m 21.062,47.469 c 0.05668,5.9742 0.2876,9.9446 1.1562,12.125 1.0239,2.5702 2.6285,3.7937 7.8438,5.4062 0.01012,0.0027 0.02114,-0.0027 0.03125,0 0.03047,0.0094 0.03178,0.02182 0.0625,0.03125 4.4735,1.1986 7.9017,1.8196 16.031,1.9062 -0.08089,-8.62e-4 -0.04497,-0.0011 0.0625,0 a 3.0324,3.0324 0 0 1 0.0625,0 c 0.5839,0.01616 1.133,0.03125 1.6875,0.03125 0.55452,0 1.1036,-0.01509 1.6875,-0.03125 a 3.0324,3.0324 0 0 1 0.0625,0 c 0.10747,-0.0011 0.14339,-8.62e-4 0.0625,0 8.1295,-0.08665 11.558,-0.70762 16.031,-1.9062 0.03237,-0.0087 0.06127,-0.02252 0.09375,-0.03125 5.2152,-1.6126 6.8198,-2.8361 7.8438,-5.4062 0.86865,-2.1804 1.0996,-6.1508 1.1562,-12.125 -0.09203,4.9149 -0.38199,8.1815 -1.1562,10.125 -1.0239,2.5702 -2.6285,3.7937 -7.8438,5.4062 -0.03248,0.0087 -0.06138,0.02258 -0.09375,0.03125 -4.4735,1.1986 -7.9017,1.8196 -16.031,1.9062 0.08089,-8.62e-4 0.04497,-0.0011 -0.0625,0 a 3.0324,3.0324 0 0 0 -0.0625,0 c -0.5839,0.01616 -1.133,0.03125 -1.6875,0.03125 -0.55452,0 -1.1036,-0.01509 -1.6875,-0.03125 a 3.0324,3.0324 0 0 0 -0.0625,0 c -0.10747,-0.0011 -0.14339,-8.62e-4 -0.0625,0 -8.13,-0.086 -11.558,-0.707 -16.032,-1.906 -0.03,-0.009 -0.032,-0.022 -0.062,-0.031 -0.01,-0.003 -0.021,0.003 -0.032,0 -5.215,-1.613 -6.819,-2.836 -7.843,-5.406 -0.775,-1.944 -1.064,-5.21 -1.157,-10.125 z"
         style="opacity:0.3;fill:#ffffff"
         id="path3914" />
      <path
         inkscape:connector-curvature="0"
         d="m 48,18 c -0.60457,0 -1.1929,0.01496 -1.7812,0.03125 -0.0141,1.46e-4 -0.0484,-1.5e-4 -0.0625,0 -8.345,0.089 -12.216,0.779 -16.875,2.031 -11.301,2.572 -11.281,7.6 -11.281,23.938 0,16.16 -0.0295,20.465 11.281,23.938 4.6588,1.2527 8.5296,1.9423 16.875,2.0312 0.0141,1.5e-4 0.0484,-1.46e-4 0.0625,0 0.589,0.016 1.177,0.031 1.782,0.031 0.60457,0 1.1929,-0.01497 1.7812,-0.03125 0.0141,-1.46e-4 0.0484,1.5e-4 0.0625,0 8.345,-0.089 12.216,-0.779 16.875,-2.031 11.311,-3.473 11.281,-7.778 11.281,-23.938 0,-16.338 0.02,-21.366 -11.281,-23.938 -4.6588,-1.2527 -8.5296,-1.9423 -16.875,-2.0312 -0.0141,-1.5e-4 -0.0484,1.46e-4 -0.0625,0 C 49.194,18.015 48.606,18 48.001,18 z"
         style="opacity:0.6"
         id="path3391" />
      <g
         id="layer6">
        <path
           inkscape:connector-curvature="0"
           d="m 41.388,40.282 v 9.5933 h -1.7266 v -1.059 c -0.31825,0.39017 -0.64931,0.68761 -0.99348,0.89163 -0.34416,0.20367 -0.67839,0.30594 -1.0021,0.30594 -0.39915,0 -0.7001,-0.14262 -0.90257,-0.42839 -0.202,-0.286 -0.303,-0.714 -0.303,-1.285 v -8.0183 h 1.7266 v 7.3539 c 0,0.22755 0.03614,0.39194 0.10843,0.49368 0.07228,0.10174 0.18936,0.15271 0.35148,0.15271 0.12731,0 0.2876,-0.06724 0.48141,-0.2019 0.19381,-0.13483 0.37166,-0.30682 0.53382,-0.51651 v -7.2819 h 1.7266 z m -11.406,2.1932 c 0,-0.74295 0.23231,-1.3344 0.69723,-1.7749 0.46492,-0.44051 1.0896,-0.66076 1.8743,-0.66076 0.71453,0 1.2999,0.23242 1.7562,0.69673 0.45627,0.46431 0.68438,1.062 0.68438,1.7931 v 4.9549 c 0,0.82103 -0.22396,1.4651 -0.67128,1.9324 -0.44736,0.46732 -1.0634,0.70106 -1.8479,0.70106 -0.75539,0 -1.3599,-0.24136 -1.813,-0.72353 C 30.20857,48.91202 29.982,48.2633 29.982,47.4483 v -4.9731 z m 1.7769,5.1527 c 0,0.26418 0.06128,0.46785 0.18439,0.61188 0.12282,0.14386 0.2983,0.21552 0.52671,0.21552 0.23415,0 0.41987,-0.07325 0.55763,-0.22012 0.1375,-0.14704 0.2064,-0.34929 0.2064,-0.60728 v -5.2247 c 0,-0.20968 -0.07049,-0.37906 -0.21086,-0.50784 -0.14037,-0.12882 -0.32476,-0.19345 -0.55318,-0.19345 -0.2106,0 -0.38189,0.06463 -0.51361,0.19345 -0.13176,0.12877 -0.1975,0.29816 -0.1975,0.50784 v 5.2247 z m -8.2096,-10.757 h 1.9584 l 1.2616,5.1982 h 0.12209 l 1.203,-5.1982 h 1.9757 l -2.263,7.6084 v 5.3962 h -1.9445 v -5.1533 l -2.3133,-7.8514 z"
           style="fill:url(#linearGradient4216)"
           id="path3209" />
        <g
           transform="matrix(0.96508,0,0,0.96508,1.876,1.9343)"
           id="g4222">
          <path
             inkscape:connector-curvature="0"
             d="m 73.793,37.408 c 0,-2.4375 -2.0008,-4.4153 -4.4664,-4.4153 -3.519,-0.14689 -7.1197,-0.21209 -10.792,-0.20539 -3.6726,-0.0067 -7.2731,0.0585 -10.792,0.20539 -2.4654,0 -4.4663,1.9778 -4.4663,4.4153 -0.148,1.9305 -0.21223,3.861 -0.20646,5.7915 -0.0057,1.9305 0.05846,3.861 0.20651,5.7915 0,2.4375 2.0009,4.4154 4.4664,4.4154 3.5191,0.14689 7.1196,0.21205 10.792,0.20516 3.6726,0.0069 7.2733,-0.05828 10.792,-0.20516 2.4656,0 4.4664,-1.9779 4.4664,-4.4154 0.14801,-1.9306 0.21223,-3.8611 0.20646,-5.7915 0.0057,-1.9305 -0.05845,-3.8611 -0.20646,-5.7915 z"
             style="fill:url(#linearGradient4220)"
             id="path3149" />
          <path
             inkscape:connector-curvature="0"
             transform="matrix(0.095319,0,0,0.095319,22,32.786)"
             mask="url(#SVGID_2_)"
             style="fill:#ffffff"
             d="m 496.26,8.27 0.12696,0.00586 h 0.12695 c 22.465,0 40.74,18.036 40.74,40.204 v 0.23438 l 0.0195,0.23291 c 1.4863,19.397 2.209,39.678 2.1484,60.274 0.0605,20.634 -0.66211,40.914 -2.1484,60.312 l -0.0195,0.23242 v 0.23438 c 0,22.17 -18.275,40.205 -40.74,40.205 h -0.12695 l -0.12696,0.004 c -35.881,1.498 -73.887,2.2207 -112.96,2.1484 -39.094,0.0723 -77.098,-0.65039 -112.98,-2.1484 l -0.12744,-0.004 h -0.12744 c -22.465,0 -40.741,-18.035 -40.741,-40.205 v -0.23438 l -0.0181,-0.23242 c -1.4868,-19.389 -2.21,-39.668 -2.1489,-60.277 -0.0615,-20.635 0.66113,-40.915 2.1484,-60.31 l 0.0181,-0.23291 v -0.23438 c 0,-22.167 18.276,-40.204 40.74,-40.204 h 0.12793 L 270.31899,8.269 c 35.876,-1.4976 73.882,-2.2202 112.96,-2.1489 39.1,-0.071289 77.105,0.65137 112.98,2.1489 z"
             id="path3186" />
          <g
             transform="matrix(0.095319,0,0,0.095319,22,32.786)"
             id="g3211">
            <path
               inkscape:connector-curvature="0"
               d="m 314.23,33.879 h -68.045 v 20.834 h 22.937 v 122.71 h 22.171 V 54.713 h 22.938 V 33.882 z m 36.238,118.03 c -1.8476,2.3145 -3.877,4.2148 -6.0859,5.7012 -2.2109,1.4883 -4.0391,2.2285 -5.4902,2.2285 -1.8476,0 -3.1836,-0.5625 -4.0078,-1.6855 -0.82422,-1.1211 -1.2363,-2.9375 -1.2363,-5.4492 V 71.538 h -19.688 v 88.506 c 0,6.3047 1.1543,11.033 3.4629,14.188 2.3086,3.1523 5.7402,4.7266 10.291,4.7266 3.6914,0 7.502,-1.1289 11.426,-3.377 3.9258,-2.252 7.6992,-5.5352 11.328,-9.8418 v 11.689 h 19.688 v -105.9 h -19.688 v 80.377 z m 76.277,-81.715 c -3.0527,0 -6.0684,0.84228 -9.0527,2.5239 -2.9824,1.6841 -5.7988,4.1392 -8.4512,7.3706 v -46.211 h -19.879 v 143.54 h 19.879 v -8.1406 c 2.5859,3.2246 5.3887,5.6113 8.4043,7.1582 3.0156,1.5469 6.4473,2.3203 10.295,2.3203 5.832,0 10.291,-1.9941 13.373,-5.9902 3.082,-3.9961 4.627,-9.7578 4.627,-17.287 v -58.74 c 0,-8.6489 -1.6426,-15.237 -4.9258,-19.759 -3.2812,-4.5215 -8.0391,-6.7856 -14.27,-6.7856 z m -1.0664,82.41 c 0,3.375 -0.57031,5.8105 -1.7051,7.2969 -1.1348,1.4883 -2.9062,2.2305 -5.3105,2.2305 -1.6719,0 -3.2578,-0.37891 -4.7617,-1.1406 -1.5059,-0.75782 -3.0586,-2 -4.6602,-3.7207 v -65.986 c 1.3359,-1.4541 2.6875,-2.5293 4.0586,-3.2251 1.3691,-0.69287 2.7578,-1.0425 4.1602,-1.0425 2.6699,0 4.7109,0.92871 6.1133,2.7803 1.4043,1.852 2.1055,4.5635 2.1055,8.1357 v 54.674 z m 93.027,-25.643 v -26.959 c 0,-10.049 -2.4199,-17.752 -7.252,-23.109 -4.8359,-5.3579 -11.756,-8.0371 -20.762,-8.0371 -8.8105,0 -15.996,2.894 -21.557,8.6787 -5.5644,5.7881 -8.3457,13.275 -8.3457,22.468 v 47.527 c 0,10.193 2.5332,18.201 7.5977,24.025 5.0664,5.8223 12.004,8.7344 20.814,8.7344 9.8008,0 17.17,-2.748 22.104,-8.2402 4.9336,-5.4922 7.4004,-13.666 7.4004,-24.52 v -7.9531 h -20.262 v 7.3594 c 0,6.2305 -0.65039,10.26 -1.9492,12.08 -1.2988,1.8223 -3.582,2.7344 -6.8457,2.7344 -3.1367,0 -5.3516,-1.0762 -6.6504,-3.2324 -1.2988,-2.1523 -1.9473,-6.0156 -1.9473,-11.582 v -19.975 h 37.654 z m -37.66,-27.152 c 0,-4.4321 0.67969,-7.6099 2.0488,-9.5303 1.3652,-1.9175 3.6133,-2.8789 6.7461,-2.8789 2.998,0 5.1816,0.96142 6.5488,2.8789 1.3652,1.9204 2.0488,5.0981 2.0488,9.5303 v 10.722 h -17.39 V 99.809 z"
               id="path3213" />
            <path
               inkscape:connector-curvature="0"
               d="m 314.23,35.409 h -68.045 v 20.834 h 22.937 v 122.71 h 22.171 V 56.243 h 22.938 V 35.412 z m 36.238,118.03 c -1.8476,2.3144 -3.877,4.2148 -6.0859,5.7012 -2.2109,1.4883 -4.0391,2.2285 -5.4902,2.2285 -1.8476,0 -3.1836,-0.5625 -4.0078,-1.6856 -0.82422,-1.123 -1.2363,-2.9375 -1.2363,-5.4492 v -81.167 h -19.688 v 88.506 c 0,6.3047 1.1543,11.033 3.4629,14.188 2.3086,3.1523 5.7402,4.7266 10.291,4.7266 3.6914,0 7.502,-1.1289 11.426,-3.377 3.9258,-2.252 7.6992,-5.5352 11.328,-9.8418 v 11.689 h 19.688 v -105.9 h -19.688 v 80.377 z m 76.277,-81.715 c -3.0527,0 -6.0684,0.84228 -9.0527,2.5234 -2.9824,1.6846 -5.7988,4.1396 -8.4512,7.3711 v -46.211 h -19.879 v 143.54 h 19.879 v -8.1406 c 2.5859,3.2246 5.3887,5.6113 8.4043,7.1582 3.0156,1.5469 6.4473,2.3203 10.295,2.3203 5.832,0 10.291,-1.9941 13.373,-5.9902 3.082,-3.9961 4.627,-9.7578 4.627,-17.287 v -58.74 c 0,-8.6489 -1.6426,-15.237 -4.9258,-19.759 -3.2812,-4.5215 -8.0391,-6.7852 -14.27,-6.7852 z m -1.0664,82.41 c 0,3.375 -0.57031,5.8086 -1.7051,7.2969 -1.1348,1.4863 -2.9062,2.2305 -5.3105,2.2305 -1.6719,0 -3.2578,-0.37891 -4.7617,-1.1406 -1.5059,-0.75781 -3.0586,-2 -4.6602,-3.7207 v -65.997 c 1.3359,-1.4546 2.6875,-2.5298 4.0586,-3.2256 1.3691,-0.69287 2.7578,-1.042 4.1602,-1.042 2.6699,0 4.7109,0.92871 6.1133,2.7803 1.4043,1.8516 2.1055,4.5635 2.1055,8.1353 v 54.674 z m 93.027,-25.643 v -26.959 c 0,-10.05 -2.4199,-17.752 -7.252,-23.11 -4.8359,-5.3579 -11.756,-8.0366 -20.762,-8.0366 -8.8105,0 -15.996,2.894 -21.557,8.6787 -5.5644,5.7881 -8.3457,13.275 -8.3457,22.468 v 47.527 c 0,10.193 2.5332,18.201 7.5977,24.025 5.0664,5.8223 12.004,8.7344 20.814,8.7344 9.8008,0 17.17,-2.748 22.104,-8.2402 4.9336,-5.4922 7.4004,-13.666 7.4004,-24.52 v -7.9531 h -20.262 v 7.3594 c 0,6.2305 -0.65039,10.26 -1.9492,12.08 -1.2988,1.8223 -3.582,2.7324 -6.8457,2.7324 -3.1367,0 -5.3516,-1.0742 -6.6504,-3.2305 -1.2988,-2.1543 -1.9473,-6.0156 -1.9473,-11.582 v -19.975 h 37.654 z m -37.654,-27.156 c 0,-4.4316 0.67969,-7.6094 2.0488,-9.5298 1.3652,-1.9175 3.6133,-2.8789 6.7461,-2.8789 2.998,0 5.1816,0.96143 6.5488,2.8789 1.3652,1.9204 2.0488,5.0981 2.0488,9.5298 v 10.719 h -17.4 v -10.719 z"
               style="fill:#ffffff"
               id="path3215" />
          </g>
        </g>
      </g>
    </g>
    <rect
       ry="25"
       rx="25"
       id="rect3003"
       style="opacity:0.15;fill:#ffffff;fill-opacity:1"
       height="92"
       width="92"
       y="958.36218"
       x="-96"
       clip-path="url(#clipPath3009)"
       transform="translate(98,3.8281269e-7)" />
  </g>
</svg>
