<?xml version="1.0" encoding="UTF-8" standalone="no"?>
<!-- Created with Inkscape (http://www.inkscape.org/) -->

<svg
   xmlns:dc="http://purl.org/dc/elements/1.1/"
   xmlns:cc="http://creativecommons.org/ns#"
   xmlns:rdf="http://www.w3.org/1999/02/22-rdf-syntax-ns#"
   xmlns:svg="http://www.w3.org/2000/svg"
   xmlns="http://www.w3.org/2000/svg"
   xmlns:xlink="http://www.w3.org/1999/xlink"
   xmlns:sodipodi="http://sodipodi.sourceforge.net/DTD/sodipodi-0.dtd"
   xmlns:inkscape="http://www.inkscape.org/namespaces/inkscape"
   width="96"
   height="96"
   id="svg11037"
   version="1.1"
   inkscape:version="0.48.3.1 r9886"
   sodipodi:docname="mitter.svg">
  <defs
     id="defs11039">
    <linearGradient
       y2="1046.1001"
       x2="47.999954"
       y1="962.62189"
       x1="47.999954"
       gradientTransform="matrix(1.15,0,0,1.15,-7.1999462,-150.65291)"
       gradientUnits="userSpaceOnUse"
       id="linearGradient3886"
       xlink:href="#linearGradient3795"
       inkscape:collect="always" />
    <linearGradient
       id="linearGradient3795">
      <stop
         style="stop-color:#13a6fd;stop-opacity:1;"
         offset="0"
         id="stop3797" />
      <stop
         style="stop-color:#2975b6;stop-opacity:1;"
         offset="1"
         id="stop3799" />
    </linearGradient>
    <linearGradient
       y2="1046.1001"
       x2="47.999954"
       y1="962.62189"
       x1="47.999954"
       gradientTransform="matrix(1.15,0,0,1.15,-7.1999462,-150.65292)"
       gradientUnits="userSpaceOnUse"
       id="linearGradient11642"
       xlink:href="#linearGradient3718"
       inkscape:collect="always" />
    <linearGradient
       x1="53.194679"
       y1="89.16983"
       x2="53.194679"
       y2="8.3280878"
       id="linearGradient3724"
       xlink:href="#linearGradient3718"
       gradientUnits="userSpaceOnUse" />
    <linearGradient
       id="linearGradient3718">
      <stop
         id="stop3720"
         style="stop-color:#269ebf;stop-opacity:1"
         offset="0" />
      <stop
         id="stop3722"
         style="stop-color:#67c7e1;stop-opacity:1"
         offset="1" />
    </linearGradient>
    <linearGradient
       gradientTransform="translate(-49.010153,924.81267)"
       y2="8.3280878"
       x2="53.194679"
       y1="89.16983"
       x1="53.194679"
       gradientUnits="userSpaceOnUse"
       id="linearGradient3082"
       xlink:href="#linearGradient3718"
       inkscape:collect="always" />
    <linearGradient
       x1="15"
       y1="47.277454"
       x2="130.70613"
       y2="47.277454"
       id="linearGradient3732"
       xlink:href="#linearGradient3726"
       gradientUnits="userSpaceOnUse" />
    <linearGradient
       id="linearGradient3726">
      <stop
         id="stop3728"
         style="stop-color:#0088aa;stop-opacity:1"
         offset="0" />
      <stop
         id="stop3730"
         style="stop-color:#0088aa;stop-opacity:0"
         offset="1" />
    </linearGradient>
    <linearGradient
       x1="49"
       y1="56"
       x2="49"
       y2="24.983875"
       id="linearGradient3832"
       xlink:href="#linearGradient3800"
       gradientUnits="userSpaceOnUse" />
    <linearGradient
       id="linearGradient3800">
      <stop
         id="stop3802"
         style="stop-color:#005b59;stop-opacity:1"
         offset="0" />
      <stop
         id="stop3804"
         style="stop-color:#00555b;stop-opacity:0"
         offset="1" />
    </linearGradient>
    <linearGradient
       x1="49"
       y1="56"
       x2="49"
       y2="24.983875"
       id="linearGradient3830"
       xlink:href="#linearGradient3800"
       gradientUnits="userSpaceOnUse" />
    <linearGradient
       id="linearGradient3177">
      <stop
         id="stop3179"
         style="stop-color:#005b59;stop-opacity:1"
         offset="0" />
      <stop
         id="stop3181"
         style="stop-color:#00555b;stop-opacity:0"
         offset="1" />
    </linearGradient>
    <clipPath
       clipPathUnits="userSpaceOnUse"
       id="clipPath3009">
      <path
         id="path3011"
         d="m -2,956.36218 -96,0 0,33.5624 96,25.68742 0,-59.24982 z"
         style="opacity:0.15;fill:#ffffff;fill-opacity:1;stroke:none"
         inkscape:connector-curvature="0" />
    </clipPath>
  </defs>
  <sodipodi:namedview
     id="base"
     pagecolor="#ffffff"
     bordercolor="#666666"
     borderopacity="1.0"
     inkscape:pageopacity="0.0"
     inkscape:pageshadow="2"
     inkscape:zoom="3.959798"
     inkscape:cx="33.538031"
     inkscape:cy="59.964634"
     inkscape:document-units="px"
     inkscape:current-layer="layer1"
     showgrid="false"
     inkscape:window-width="1280"
     inkscape:window-height="750"
     inkscape:window-x="0"
     inkscape:window-y="22"
     inkscape:window-maximized="1"
     showguides="true"
     inkscape:guide-bbox="true">
    <sodipodi:guide
       orientation="0,1"
       position="-24.748737,0"
       id="guide11064" />
    <sodipodi:guide
       orientation="0,1"
       position="-23.233509,96"
       id="guide11066" />
    <sodipodi:guide
       orientation="1,0"
       position="0,54.800776"
       id="guide11068" />
    <sodipodi:guide
       orientation="1,0"
       position="96,51.012704"
       id="guide11070" />
    <sodipodi:guide
       orientation="0,1"
       position="-18.94036,48"
       id="guide11072" />
    <sodipodi:guide
       orientation="1,0"
       position="48,79.296975"
       id="guide11074" />
    <sodipodi:guide
       orientation="1,0"
       position="2,75.508903"
       id="guide11076" />
    <sodipodi:guide
       orientation="0,1"
       position="-77.27667,2"
       id="guide11078" />
    <sodipodi:guide
       orientation="1,0"
       position="94,77.781746"
       id="guide11080" />
    <sodipodi:guide
       orientation="0,1"
       position="-65.912454,94"
       id="guide11082" />
  </sodipodi:namedview>
  <metadata
     id="metadata11042">
    <rdf:RDF>
      <cc:Work
         rdf:about="">
        <dc:format>image/svg+xml</dc:format>
        <dc:type
           rdf:resource="http://purl.org/dc/dcmitype/StillImage" />
        <dc:title />
      </cc:Work>
    </rdf:RDF>
  </metadata>
  <g
     inkscape:label="Layer 1"
     inkscape:groupmode="layer"
     id="layer1"
     transform="translate(0,-956.36218)">
    <rect
       x="2"
       y="958.36218"
       width="92"
       height="92"
       style="fill:url(#linearGradient11642);fill-opacity:1.0"
       id="rect3867"
       rx="25"
       ry="25" />
    <g
       transform="translate(-4.4444445e-7,956.36218)"
       id="g3143">
      <g
         id="g3095">
        <path
           d="m 48,17 c -18.225397,0 -33,12.088312 -33,27 0,9.498438 5.99976,17.843462 15.0625,22.65625 -0.344625,2.508754 -1.914014,8.649817 -9.34375,10.75 9.622915,1.045823 16.013601,-3.646306 19.40625,-7.1875 C 42.648507,70.724251 45.286067,71 48,71 66.225397,71 81,58.911688 81,44 81,29.088312 66.225397,17 48,17 z"
           inkscape:connector-curvature="0"
           id="path3620"
           style="opacity:0.6;fill:url(#linearGradient3732);fill-opacity:1;stroke:none;display:inline" />
        <path
           d="m 15,44.40625 c -0.0053,0.200069 0,0.392631 0,0.59375 0,9.441618 5.934255,17.73658 14.90625,22.5625 0.06714,-0.329302 0.120551,-0.646372 0.15625,-0.90625 C 21.128785,61.911981 15.167817,53.73661 15,44.40625 z M 81,44.5 C 80.669643,59.177737 66.018397,71 48,71 c -2.713933,0 -5.351493,-0.275749 -7.875,-0.78125 -3.113855,3.250193 -8.747725,7.449531 -17.09375,7.3125 -0.700608,0.332399 -1.466906,0.635974 -2.3125,0.875 9.622915,1.045823 16.013601,-3.646306 19.40625,-7.1875 C 42.648507,71.724251 45.286067,72 48,72 66.225397,72 81,59.911688 81,45 c 0,-0.169364 0.0038,-0.331378 0,-0.5 z"
           inkscape:connector-curvature="0"
           id="path3779"
           style="opacity:0.2;fill:#ffffff;fill-opacity:1;stroke:none;display:inline" />
        <path
           d="m 48,17 c -18.225397,0 -33,12.088312 -33,27 0,9.498438 5.99976,17.843462 15.0625,22.65625 -0.344625,2.508754 -1.914014,8.649817 -9.34375,10.75 9.622915,1.045823 16.013601,-3.646306 19.40625,-7.1875 C 42.648507,70.724251 45.286067,71 48,71 66.225397,71 81,58.911688 81,44 81,29.088312 66.225397,17 48,17 z m 0,1.0625 c 17.7572,0 31.9375,11.725217 31.9375,25.9375 0,14.212283 -14.1803,25.9375 -31.9375,25.9375 -2.642211,0 -5.199353,-0.257842 -7.65625,-0.75 A 1.0589482,1.0589482 0 0 0 39.375,69.5 c -2.643757,2.759512 -7.248859,6.049087 -13.78125,6.71875 1.442602,-1.037266 2.550304,-2.240676 3.34375,-3.46875 1.481728,-2.293379 2.001549,-4.583837 2.1875,-5.9375 A 1.0589482,1.0589482 0 0 0 30.5625,65.71875 C 21.776577,61.052966 16.0625,53.052554 16.0625,44 16.0625,29.787717 30.2428,18.0625 48,18.0625 z"
           inkscape:connector-curvature="0"
           id="path3797"
           style="opacity:0.15;fill:#004455;fill-opacity:1;stroke:none;display:inline" />
      </g>
      <g
         style="display:inline"
         id="layer4">
        <g
           id="g3130">
          <g
             id="g3122">
            <path
               style="color:#000000;fill:#006680;fill-opacity:1;fill-rule:nonzero;stroke:none;stroke-width:0.5;marker:none;visibility:visible;display:inline;overflow:visible;enable-background:accumulate"
               id="path3780"
               inkscape:connector-curvature="0"
               d="m 40,33 c -6.627417,0 -12,5.372583 -12,12 l 0,8 c 0,2.216 1.784,4 4,4 2.216,0 4,-1.784 4,-4 l 0,-8 c 0,-2.209139 1.790861,-4 4,-4 2.209139,0 4,1.790861 4,4 l 0,8 c 0,2.216 1.784,4 4,4 2.216,0 4,-1.784 4,-4 l 0,-8 c 0,-2.209139 1.790861,-4 4,-4 2.209139,0 4,1.790861 4,4 l 0,8 c 0,2.216 1.784,4 4,4 2.216,0 4,-1.784 4,-4 l 0,-8 C 68,38.372583 62.627417,33 56,33 52.925073,33 50.1234,34.160676 48,36.0625 45.8766,34.160676 43.074927,33 40,33 z" />
            <g
               style="font-size:48px;font-style:normal;font-variant:normal;font-weight:normal;font-stretch:normal;text-align:start;line-height:125%;writing-mode:tb-rl;text-anchor:start;fill:#ff00ff;fill-opacity:1;stroke:none;font-family:American Participants;-inkscape-font-specification:American Participants"
               id="g3709"
               transform="matrix(0.94113621,0,0,0.94221106,4.5900791,2.5953791)" />
            <path
               style="color:#000000;fill:#ffffff;fill-opacity:1;fill-rule:nonzero;stroke:none;stroke-width:0.5;marker:none;visibility:visible;display:inline;overflow:visible;enable-background:accumulate"
               id="path3729"
               inkscape:connector-curvature="0"
               d="m 40,32 c -6.627417,0 -12,5.372583 -12,12 l 0,8 c 0,2.216 1.784,4 4,4 2.216,0 4,-1.784 4,-4 l 0,-8 c 0,-2.209139 1.790861,-4 4,-4 2.209139,0 4,1.790861 4,4 l 0,8 c 0,2.216 1.784,4 4,4 2.216,0 4,-1.784 4,-4 l 0,-8 c 0,-2.209139 1.790861,-4 4,-4 2.209139,0 4,1.790861 4,4 l 0,8 c 0,2.216 1.784,4 4,4 2.216,0 4,-1.784 4,-4 l 0,-8 C 68,37.372583 62.627417,32 56,32 52.925073,32 50.1234,33.160676 48,35.0625 45.8766,33.160676 43.074927,32 40,32 z" />
            <path
               style="opacity:0.2;color:#000000;fill:#003737;fill-opacity:1;fill-rule:nonzero;stroke:none;stroke-width:0.5;marker:none;visibility:visible;display:inline;overflow:visible;enable-background:accumulate"
               id="path3792"
               inkscape:connector-curvature="0"
               d="m 40,39 c -2.209139,0 -4,1.790861 -4,4 l 0,1 c 0,-2.209139 1.790861,-4 4,-4 2.209139,0 4,1.790861 4,4 l 0,-1 c 0,-2.209139 -1.790861,-4 -4,-4 z m 16,0 c -2.209139,0 -4,1.790861 -4,4 l 0,1 c 0,-2.209139 1.790861,-4 4,-4 2.209139,0 4,1.790861 4,4 l 0,-1 c 0,-2.209139 -1.790861,-4 -4,-4 z m -28,12 0,1 c 0,2.216 1.784,4 4,4 2.216,0 4,-1.784 4,-4 l 0,-1 c 0,2.216 -1.784,4 -4,4 -2.216,0 -4,-1.784 -4,-4 z m 16,0 0,1 c 0,2.216 1.784,4 4,4 2.216,0 4,-1.784 4,-4 l 0,-1 c 0,2.216 -1.784,4 -4,4 -2.216,0 -4,-1.784 -4,-4 z m 16,0 0,1 c 0,2.216 1.784,4 4,4 2.216,0 4,-1.784 4,-4 l 0,-1 c 0,2.216 -1.784,4 -4,4 -2.216,0 -4,-1.784 -4,-4 z" />
            <path
               style="opacity:0.1;color:#000000;fill:url(#linearGradient3832);fill-opacity:1;fill-rule:nonzero;stroke:none;stroke-width:0.5;marker:none;visibility:visible;display:inline;overflow:visible;enable-background:accumulate"
               id="path3810"
               inkscape:connector-curvature="0"
               d="m 40,32 c -6.627417,0 -12,5.372583 -12,12 l 0,8 c 0,2.216 1.784,4 4,4 2.216,0 4,-1.784 4,-4 l 0,-8 c 0,-2.209139 1.790861,-4 4,-4 2.209139,0 4,1.790861 4,4 l 0,8 c 0,2.216 1.784,4 4,4 2.216,0 4,-1.784 4,-4 l 0,-8 c 0,-2.209139 1.790861,-4 4,-4 2.209139,0 4,1.790861 4,4 l 0,8 c 0,2.216 1.784,4 4,4 2.216,0 4,-1.784 4,-4 l 0,-8 C 68,37.372583 62.627417,32 56,32 52.925073,32 50.1234,33.160676 48,35.0625 45.8766,33.160676 43.074927,32 40,32 z m 0,1.96875 c 2.577276,0 4.910209,0.970669 6.6875,2.5625 a 1.9778032,1.9778032 0 0 0 2.625,0 c 1.777291,-1.591831 4.110224,-2.5625 6.6875,-2.5625 5.55864,0 10.03125,4.47261 10.03125,10.03125 l 0,8 c 0,1.154614 -0.876636,2.03125 -2.03125,2.03125 -1.154614,0 -2.03125,-0.876636 -2.03125,-2.03125 l 0,-8 c 0,-3.277916 -2.690834,-5.96875 -5.96875,-5.96875 -3.277916,0 -5.96875,2.690834 -5.96875,5.96875 l 0,8 c 0,1.154614 -0.876636,2.03125 -2.03125,2.03125 -1.154614,0 -2.03125,-0.876636 -2.03125,-2.03125 l 0,-8 c 0,-3.277916 -2.690834,-5.96875 -5.96875,-5.96875 -3.277916,0 -5.96875,2.690834 -5.96875,5.96875 l 0,8 c 0,1.154614 -0.876636,2.03125 -2.03125,2.03125 -1.154614,0 -2.03125,-0.876636 -2.03125,-2.03125 l 0,-8 c 0,-5.55864 4.47261,-10.03125 10.03125,-10.03125 z" />
            <path
               style="opacity:0.2;color:#000000;fill:url(#linearGradient3830);fill-opacity:1;fill-rule:nonzero;stroke:none;stroke-width:0.5;marker:none;visibility:visible;display:inline;overflow:visible;enable-background:accumulate"
               id="path3798"
               inkscape:connector-curvature="0"
               d="m 40,32 c -6.627417,0 -12,5.372583 -12,12 l 0,8 c 0,2.216 1.784,4 4,4 2.216,0 4,-1.784 4,-4 l 0,-8 c 0,-2.209139 1.790861,-4 4,-4 2.209139,0 4,1.790861 4,4 l 0,8 c 0,2.216 1.784,4 4,4 2.216,0 4,-1.784 4,-4 l 0,-8 c 0,-2.209139 1.790861,-4 4,-4 2.209139,0 4,1.790861 4,4 l 0,8 c 0,2.216 1.784,4 4,4 2.216,0 4,-1.784 4,-4 l 0,-8 C 68,37.372583 62.627417,32 56,32 52.925073,32 50.1234,33.160676 48,35.0625 45.8766,33.160676 43.074927,32 40,32 z m 0,0.9375 c 2.837593,0 5.416662,1.058514 7.375,2.8125 a 0.9432319,0.9432319 0 0 0 1.25,0 c 1.958338,-1.753986 4.537407,-2.8125 7.375,-2.8125 6.117708,0 11.0625,4.944792 11.0625,11.0625 l 0,8 c 0,1.709815 -1.352685,3.0625 -3.0625,3.0625 -1.709815,0 -3.0625,-1.352685 -3.0625,-3.0625 l 0,-8 c 0,-2.718848 -2.218652,-4.9375 -4.9375,-4.9375 -2.718848,0 -4.9375,2.218652 -4.9375,4.9375 l 0,8 c 0,1.709815 -1.352685,3.0625 -3.0625,3.0625 -1.709815,0 -3.0625,-1.352685 -3.0625,-3.0625 l 0,-8 c 0,-2.718848 -2.218652,-4.9375 -4.9375,-4.9375 -2.718848,0 -4.9375,2.218652 -4.9375,4.9375 l 0,8 c 0,1.709815 -1.352685,3.0625 -3.0625,3.0625 -1.709815,0 -3.0625,-1.352685 -3.0625,-3.0625 l 0,-8 c 0,-6.117708 4.944792,-11.0625 11.0625,-11.0625 z" />
          </g>
        </g>
      </g>
    </g>
    <rect
       ry="25"
       rx="25"
       id="rect3003"
       style="opacity:0.15;fill:#ffffff;fill-opacity:1"
       height="92"
       width="92"
       y="958.36218"
       x="-96"
       clip-path="url(#clipPath3009)"
       transform="translate(98,3.8281269e-7)" />
  </g>
</svg>
