<?xml version="1.0" encoding="UTF-8" standalone="no"?>
<!-- Created with Inkscape (http://www.inkscape.org/) -->

<svg
   xmlns:dc="http://purl.org/dc/elements/1.1/"
   xmlns:cc="http://creativecommons.org/ns#"
   xmlns:rdf="http://www.w3.org/1999/02/22-rdf-syntax-ns#"
   xmlns:svg="http://www.w3.org/2000/svg"
   xmlns="http://www.w3.org/2000/svg"
   xmlns:xlink="http://www.w3.org/1999/xlink"
   xmlns:sodipodi="http://sodipodi.sourceforge.net/DTD/sodipodi-0.dtd"
   xmlns:inkscape="http://www.inkscape.org/namespaces/inkscape"
   width="96"
   height="96"
   id="svg11037"
   version="1.1"
   inkscape:version="0.48.3.1 r9886"
   sodipodi:docname="monodevelop.svg">
  <defs
     id="defs11039">
    <linearGradient
       y2="1046.1001"
       x2="47.999954"
       y1="962.62189"
       x1="47.999954"
       gradientTransform="matrix(1.15,0,0,1.15,-7.1999462,-150.65291)"
       gradientUnits="userSpaceOnUse"
       id="linearGradient3886"
       xlink:href="#linearGradient3795"
       inkscape:collect="always" />
    <linearGradient
       id="linearGradient3795">
      <stop
         style="stop-color:#13a6fd;stop-opacity:1;"
         offset="0"
         id="stop3797" />
      <stop
         style="stop-color:#2975b6;stop-opacity:1;"
         offset="1"
         id="stop3799" />
    </linearGradient>
    <linearGradient
       y2="1046.1001"
       x2="47.999954"
       y1="962.62189"
       x1="47.999954"
       gradientTransform="matrix(1.15,0,0,1.15,-7.1999462,-150.65292)"
       gradientUnits="userSpaceOnUse"
       id="linearGradient11642"
       xlink:href="#linearGradient10902-1"
       inkscape:collect="always" />
    <linearGradient
       id="linearGradient10902-1"
       y2="902.35999"
       gradientUnits="userSpaceOnUse"
       x2="48"
       gradientTransform="translate(0,-4e-5)"
       y1="1052.4"
       x1="48">
      <stop
         id="stop3746-5"
         style="stop-color:#6189bb"
         offset="0" />
      <stop
         id="stop3748-38"
         style="stop-color:#b6cce9"
         offset="1" />
    </linearGradient>
    <linearGradient
       y2="902.35999"
       x2="48"
       y1="1052.4"
       x1="48"
       gradientTransform="translate(-97.497474,16.939957)"
       gradientUnits="userSpaceOnUse"
       id="linearGradient3027"
       xlink:href="#linearGradient10902-1"
       inkscape:collect="always" />
    <linearGradient
       id="linearGradient3071"
       y2="14845"
       gradientUnits="userSpaceOnUse"
       x2="2128.6001"
       gradientTransform="matrix(-0.25635,0,0,0.25321,593.66,-3728)"
       y1="15027"
       x1="2128.6001">
      <stop
         id="stop7991"
         style="stop-color:#42699a"
         offset="0" />
      <stop
         id="stop7989-5"
         style="stop-color:#99b8e1"
         offset="1" />
    </linearGradient>
    <clipPath
       clipPathUnits="userSpaceOnUse"
       id="clipPath3009">
      <path
         id="path3011"
         d="m -2,956.36218 -96,0 0,33.5624 96,25.68742 0,-59.24982 z"
         style="opacity:0.15;fill:#ffffff;fill-opacity:1;stroke:none"
         inkscape:connector-curvature="0" />
    </clipPath>
  </defs>
  <sodipodi:namedview
     id="base"
     pagecolor="#ffffff"
     bordercolor="#666666"
     borderopacity="1.0"
     inkscape:pageopacity="0.0"
     inkscape:pageshadow="2"
     inkscape:zoom="3.959798"
     inkscape:cx="33.538031"
     inkscape:cy="59.964634"
     inkscape:document-units="px"
     inkscape:current-layer="layer1"
     showgrid="false"
     inkscape:window-width="1280"
     inkscape:window-height="750"
     inkscape:window-x="0"
     inkscape:window-y="22"
     inkscape:window-maximized="1"
     showguides="true"
     inkscape:guide-bbox="true">
    <sodipodi:guide
       orientation="0,1"
       position="-24.748737,0"
       id="guide11064" />
    <sodipodi:guide
       orientation="0,1"
       position="-23.233509,96"
       id="guide11066" />
    <sodipodi:guide
       orientation="1,0"
       position="0,54.800776"
       id="guide11068" />
    <sodipodi:guide
       orientation="1,0"
       position="96,51.012704"
       id="guide11070" />
    <sodipodi:guide
       orientation="0,1"
       position="-18.94036,48"
       id="guide11072" />
    <sodipodi:guide
       orientation="1,0"
       position="48,79.296975"
       id="guide11074" />
    <sodipodi:guide
       orientation="1,0"
       position="2,75.508903"
       id="guide11076" />
    <sodipodi:guide
       orientation="0,1"
       position="-77.27667,2"
       id="guide11078" />
    <sodipodi:guide
       orientation="1,0"
       position="94,77.781746"
       id="guide11080" />
    <sodipodi:guide
       orientation="0,1"
       position="-65.912454,94"
       id="guide11082" />
  </sodipodi:namedview>
  <metadata
     id="metadata11042">
    <rdf:RDF>
      <cc:Work
         rdf:about="">
        <dc:format>image/svg+xml</dc:format>
        <dc:type
           rdf:resource="http://purl.org/dc/dcmitype/StillImage" />
        <dc:title />
      </cc:Work>
    </rdf:RDF>
  </metadata>
  <g
     inkscape:label="Layer 1"
     inkscape:groupmode="layer"
     id="layer1"
     transform="translate(0,-956.36218)">
    <rect
       x="2"
       y="958.36218"
       width="92"
       height="92"
       style="fill:url(#linearGradient11642);fill-opacity:1.0"
       id="rect3867"
       rx="25"
       ry="25" />
    <g
       id="g3073"
       transform="matrix(0.81795,0,0,0.81795,8.7399996,964.89618)">
      <path
         inkscape:connector-curvature="0"
         id="path3603"
         style="fill:url(#linearGradient3071);fill-rule:evenodd"
         d="M 71.964,20 C 67.651,21.766 53.818,27.515 53.473,27.658 49.603,24.508 44.569,22.06 39.356,21.784 26.71,20.991 15.078,32.185 15.041,44.603 14.486,55.782 19.606,66.122 24.23,76 c 3.8691,-1.6089 17.938,-7.4537 18.293,-7.6016 3.7983,3.1637 8.6629,5.4951 13.734,5.8605 12.443,1.041 24.008,-9.674 24.641,-21.8 0.903,-11.343 -4.343,-21.835 -8.749,-31.978 -0.064,-0.158 -0.121,-0.323 -0.185,-0.481 z" />
      <path
         inkscape:connector-curvature="0"
         id="path3607"
         style="fill:#eeeeec;fill-rule:evenodd"
         d="M 27.115,68.755 C 24.386,62.17 20.768,56.368 20.688,45.614 20.605,34.504 30.167,27.311 37.724,27.31 c 9.1497,-0.0011 17.2,7.7003 17.624,14.079 0.38309,5.7568 -1.6722,14.129 -12.281,14.067 C 38.002,55.427 32.738,51.035 32.711,44.5 c -0.03,-7.0513 8.8324,-7.7392 11.067,-5.9441 0.86812,0.6973 0.84157,2.0772 0.07355,1.8281 -4.7718,-1.5486 -7.7197,1.5034 -7.5008,4.5398 0.29719,4.1199 2.7495,6.5711 7.1454,6.7795 6.3411,0.30022 8.1163,-5.8466 7.9542,-8.3414 -0.197,-3.0332 -2.8503,-9.2718 -11.104,-10.411 -3.8972,-0.53757 -7.1271,0.6259 -9.4864,2.9058 -2.3592,2.2801 -3.6856,4.6378 -3.8794,8.5054 -0.20042,4.0004 0.67584,6.3476 3.0763,11.596 0.85744,1.8745 3.2525,5.6563 5.1072,9.4432 l -8.0492,3.3537 z" />
      <path
         inkscape:connector-curvature="0"
         id="path3871"
         style="opacity:0.2;fill-rule:evenodd"
         d="m 68.885,28.31 c 2.7291,6.585 6.347,12.387 6.4275,23.141 0.08308,11.11 -9.4788,18.303 -17.036,18.304 -9.1497,0.0015 -17.2,-7.7001 -17.624,-14.078 -0.38308,-5.7574 1.6722,-14.13 12.281,-14.067 5.0654,0.02929 10.329,4.4214 10.356,10.956 0.03,7.0511 -8.8325,7.7394 -11.067,5.9441 -0.8681,-0.6973 -0.8416,-2.0769 -0.07355,-1.8281 4.7718,1.5488 7.7197,-1.5037 7.5008,-4.5399 -0.29718,-4.1199 -2.7495,-6.5706 -7.1454,-6.7791 -6.3411,-0.30022 -8.1163,5.8468 -7.9542,8.3411 0.197,3.0332 2.8503,9.2722 11.104,10.411 3.8972,0.5378 7.1271,-0.62567 9.4863,-2.9055 2.3593,-2.2803 3.6857,-4.638 3.8794,-8.5049 0.20042,-4.0006 -0.67587,-6.3476 -3.0763,-11.596 -0.85742,-1.8751 -3.2525,-5.6561 -5.1072,-9.4435 l 8.0492,-3.3542 z" />
      <path
         inkscape:connector-curvature="0"
         id="path3611"
         style="fill:#a9c4e3;fill-rule:evenodd"
         d="m 68.885,27.31 c 2.7291,6.585 6.347,12.387 6.4275,23.141 0.08308,11.11 -9.4788,18.303 -17.036,18.304 -9.1497,0.0015 -17.2,-7.7001 -17.624,-14.078 -0.38308,-5.7574 1.6722,-14.13 12.281,-14.067 5.0654,0.02929 10.329,4.4214 10.356,10.956 0.03,7.0511 -8.8325,7.7394 -11.067,5.9441 -0.8681,-0.6973 -0.8416,-2.0769 -0.07355,-1.8281 4.7718,1.5488 7.7197,-1.5037 7.5008,-4.5399 -0.29718,-4.1199 -2.7495,-6.5706 -7.1454,-6.7791 -6.3411,-0.30022 -8.1163,5.8468 -7.9542,8.3411 0.197,3.0332 2.8503,9.2722 11.104,10.411 3.8972,0.5378 7.1271,-0.62567 9.4863,-2.9055 2.3593,-2.2803 3.6857,-4.638 3.8794,-8.5049 0.20042,-4.0006 -0.67587,-6.3476 -3.0763,-11.596 -0.85742,-1.8751 -3.2525,-5.6561 -5.1072,-9.4435 l 8.0492,-3.3542 z" />
      <path
         inkscape:connector-curvature="0"
         id="path3613"
         style="fill:#eeeeec;fill-rule:evenodd"
         d="m 37.711,27.286 c -7.5573,8.58e-4 -17.104,7.1963 -17.021,18.307 0.08047,10.754 3.7138,16.562 6.4428,23.147 l 8.029,-3.355 c -0.716,-1.464 -1.501,-2.865 -2.259,-4.217 h -1.779 v -3.2108 c -0.43703,-0.78468 -0.81709,-1.4866 -1.0578,-2.0128 -2.4005,-5.2485 -3.2776,-7.597 -3.0772,-11.597 0.19378,-3.8676 1.5353,-6.2023 3.8945,-8.4824 2.3593,-2.2799 5.5747,-3.4609 9.4719,-2.9233 3.9032,0.53898 6.5391,2.228 8.2699,4.1693 h 1.6347 v 2.3961 c 0.74417,1.432 1.1356,2.812 1.202,3.8338 0.07201,1.1084 -0.27873,2.9362 -1.202,4.6006 v 5.7028 c 4.385,-2.767 5.369,-8.177 5.096,-12.268 -0.424,-6.379 -8.496,-14.091 -17.645,-14.09 z" />
      <path
         inkscape:connector-curvature="0"
         id="path3838"
         style="opacity:0.4;fill:#ffffff;fill-rule:evenodd"
         d="m 15,46.938 c -0.105,10.667 4.78,20.581 9.219,30.062 3.8691,-1.6089 17.958,-7.4458 18.312,-7.5938 3.7983,3.1637 8.648,5.4784 13.719,5.8438 12.444,1.0407 24.024,-9.6555 24.656,-21.781 0.07667,-0.9628 0.10142,-1.9241 0.09375,-2.875 -0.01358,0.62059 -0.04393,1.2493 -0.09375,1.875 C 80.274,64.595 68.694,75.291 56.25,74.25 51.179,73.885 46.33,71.57 42.531,68.406 42.177,68.554 28.088,74.391 24.219,76 19.918,66.814 15.195,57.226 15,46.938 z" />
      <path
         inkscape:connector-curvature="0"
         id="path3847"
         style="opacity:0.15;fill-rule:evenodd"
         d="m 71.969,20 c -4.3137,1.7655 -18.155,7.5128 -18.5,7.6562 -3.8701,-3.1502 -8.9115,-5.5981 -14.125,-5.875 -12.646,-0.79267 -24.276,10.395 -24.312,22.812 -0.55518,11.18 4.5627,21.529 9.1875,31.406 3.8691,-1.6089 17.958,-7.4458 18.312,-7.5938 3.7983,3.1637 8.648,5.4784 13.719,5.8438 12.444,1.0407 24.024,-9.6555 24.656,-21.781 0.90325,-11.343 -4.3443,-21.858 -8.75,-32 -0.064,-0.157 -0.123,-0.31 -0.187,-0.468 z m -0.375,0.96875 c 4.3954,10.099 9.4702,20.432 8.5938,31.438 a 0.72935,0.72935 0 0 0 0,0.03125 c -0.61,11.685 -11.883,22.096 -23.876,21.093 -4.883,-0.352 -9.614,-2.607 -13.312,-5.687 a 0.72935,0.72935 0 0 0 -0.75,-0.125 c -0.301,0.125 -13.242,5.478 -17.656,7.312 -4.544,-9.688 -9.375,-19.708 -8.844,-30.406 a 0.72935,0.72935 0 0 0 0,-0.03125 c 0.035,-11.964 11.372,-22.858 23.562,-22.094 5.011,0.266 9.915,2.648 13.688,5.719 a 0.72935,0.72935 0 0 0 0.75,0.125 c 0.32081,-0.13346 13.062,-5.4126 17.844,-7.375 z" />
      <path
         inkscape:connector-curvature="0"
         id="path3862"
         style="opacity:0.2;fill-rule:evenodd"
         d="m 71.969,20 c -4.3137,1.7655 -18.155,7.5128 -18.5,7.6562 -3.8701,-3.1502 -8.9115,-5.5981 -14.125,-5.875 -12.646,-0.79267 -24.276,10.395 -24.312,22.812 -0.01657,0.33365 0.0066,0.66784 0,1 0.03623,-12.418 11.666,-23.605 24.312,-22.812 5.2135,0.27686 10.255,2.7248 14.125,5.875 0.34489,-0.14348 14.186,-5.8907 18.5,-7.6562 0.064,0.15825 0.12334,0.31052 0.1875,0.46875 3.855,8.8745 8.3532,18.035 8.8125,27.781 -0.185,-10.121 -4.826,-19.604 -8.813,-28.781 -0.064,-0.158 -0.123,-0.311 -0.187,-0.469 z" />
    </g>
    <rect
       ry="25"
       rx="25"
       id="rect3003"
       style="opacity:0.15;fill:#ffffff;fill-opacity:1"
       height="92"
       width="92"
       y="958.36218"
       x="-96"
       clip-path="url(#clipPath3009)"
       transform="translate(98,3.8281269e-7)" />
  </g>
</svg>
