<?xml version="1.0" encoding="UTF-8" standalone="no"?>
<!-- Created with Inkscape (http://www.inkscape.org/) -->

<svg
   xmlns:dc="http://purl.org/dc/elements/1.1/"
   xmlns:cc="http://creativecommons.org/ns#"
   xmlns:rdf="http://www.w3.org/1999/02/22-rdf-syntax-ns#"
   xmlns:svg="http://www.w3.org/2000/svg"
   xmlns="http://www.w3.org/2000/svg"
   xmlns:xlink="http://www.w3.org/1999/xlink"
   xmlns:sodipodi="http://sodipodi.sourceforge.net/DTD/sodipodi-0.dtd"
   xmlns:inkscape="http://www.inkscape.org/namespaces/inkscape"
   width="96"
   height="96"
   id="svg11037"
   version="1.1"
   inkscape:version="0.48.3.1 r9886"
   sodipodi:docname="netbeans.svg">
  <defs
     id="defs11039">
    <linearGradient
       y2="1046.1001"
       x2="47.999954"
       y1="962.62189"
       x1="47.999954"
       gradientTransform="matrix(1.15,0,0,1.15,-7.1999462,-150.65291)"
       gradientUnits="userSpaceOnUse"
       id="linearGradient3886"
       xlink:href="#linearGradient3795"
       inkscape:collect="always" />
    <linearGradient
       id="linearGradient3795">
      <stop
         style="stop-color:#13a6fd;stop-opacity:1;"
         offset="0"
         id="stop3797" />
      <stop
         style="stop-color:#2975b6;stop-opacity:1;"
         offset="1"
         id="stop3799" />
    </linearGradient>
    <linearGradient
       y2="1046.1001"
       x2="47.999954"
       y1="962.62189"
       x1="47.999954"
       gradientTransform="matrix(1.15,0,0,1.15,-7.1999462,-150.65292)"
       gradientUnits="userSpaceOnUse"
       id="linearGradient11642"
       xlink:href="#linearGradient3700"
       inkscape:collect="always" />
    <linearGradient
       x1="48"
       y1="90"
       x2="48"
       y2="5.9877172"
       id="linearGradient3617"
       xlink:href="#linearGradient3700"
       gradientUnits="userSpaceOnUse" />
    <linearGradient
       id="linearGradient3700">
      <stop
         id="stop3702"
         style="stop-color:#a12225;stop-opacity:1"
         offset="0" />
      <stop
         id="stop3704"
         style="stop-color:#ce1b1f;stop-opacity:1"
         offset="1" />
    </linearGradient>
    <linearGradient
       gradientTransform="translate(-9.8667417,953.85455)"
       y2="5.9877172"
       x2="48"
       y1="90"
       x1="48"
       gradientUnits="userSpaceOnUse"
       id="linearGradient3074"
       xlink:href="#linearGradient3700"
       inkscape:collect="always" />
    <clipPath
       clipPathUnits="userSpaceOnUse"
       id="clipPath3009">
      <path
         id="path3011"
         d="m -2,956.36218 -96,0 0,33.5624 96,25.68742 0,-59.24982 z"
         style="opacity:0.15;fill:#ffffff;fill-opacity:1;stroke:none"
         inkscape:connector-curvature="0" />
    </clipPath>
  </defs>
  <sodipodi:namedview
     id="base"
     pagecolor="#ffffff"
     bordercolor="#666666"
     borderopacity="1.0"
     inkscape:pageopacity="0.0"
     inkscape:pageshadow="2"
     inkscape:zoom="3.959798"
     inkscape:cx="33.538031"
     inkscape:cy="59.964634"
     inkscape:document-units="px"
     inkscape:current-layer="layer1"
     showgrid="false"
     inkscape:window-width="1280"
     inkscape:window-height="750"
     inkscape:window-x="0"
     inkscape:window-y="22"
     inkscape:window-maximized="1"
     showguides="true"
     inkscape:guide-bbox="true">
    <sodipodi:guide
       orientation="0,1"
       position="-24.748737,0"
       id="guide11064" />
    <sodipodi:guide
       orientation="0,1"
       position="-23.233509,96"
       id="guide11066" />
    <sodipodi:guide
       orientation="1,0"
       position="0,54.800776"
       id="guide11068" />
    <sodipodi:guide
       orientation="1,0"
       position="96,51.012704"
       id="guide11070" />
    <sodipodi:guide
       orientation="0,1"
       position="-18.94036,48"
       id="guide11072" />
    <sodipodi:guide
       orientation="1,0"
       position="48,79.296975"
       id="guide11074" />
    <sodipodi:guide
       orientation="1,0"
       position="2,75.508903"
       id="guide11076" />
    <sodipodi:guide
       orientation="0,1"
       position="-77.27667,2"
       id="guide11078" />
    <sodipodi:guide
       orientation="1,0"
       position="94,77.781746"
       id="guide11080" />
    <sodipodi:guide
       orientation="0,1"
       position="-65.912454,94"
       id="guide11082" />
  </sodipodi:namedview>
  <metadata
     id="metadata11042">
    <rdf:RDF>
      <cc:Work
         rdf:about="">
        <dc:format>image/svg+xml</dc:format>
        <dc:type
           rdf:resource="http://purl.org/dc/dcmitype/StillImage" />
        <dc:title />
      </cc:Work>
    </rdf:RDF>
  </metadata>
  <g
     inkscape:label="Layer 1"
     inkscape:groupmode="layer"
     id="layer1"
     transform="translate(0,-956.36218)">
    <rect
       x="2"
       y="958.36218"
       width="92"
       height="92"
       style="fill:url(#linearGradient11642);fill-opacity:1.0"
       id="rect3867"
       rx="25"
       ry="25" />
    <g
       transform="translate(1.4777742e-7,956.36218)"
       id="layer4">
      <path
         d="m 41.3125,16 c -0.05991,-0.0097 -0.113846,0.01142 -0.15625,0.03125 -0.339234,0.180581 -1.709718,0.174137 -1.03125,1.375 0.701686,1.199573 1.385145,0.678468 1.90625,0 C 42.486088,16.811462 41.731892,16.067682 41.3125,16 z m 3.3125,0.1875 c -2.240493,0 -1.23276,1.881918 -0.375,2.0625 0.860339,0.18187 3.084265,0.878226 6.34375,1.21875 3.259486,0.339234 7.220515,1.19313 8.78125,1.375 1.540097,0.158655 4.276095,1.185097 5.65625,1.34375 1.381444,0.181871 7.048023,0.878227 8.40625,1.21875 1.381444,0.362451 1.89159,-1.700049 1.03125,-2.0625 C 73.608411,21.004516 71.725833,20.651734 68.625,20.3125 65.547386,19.971976 63.997886,19.283653 63.5,19.125 62.978894,18.944419 60.576685,18.939903 59.875,18.78125 59.195242,18.599379 55.75996,18.091637 54.0625,17.59375 52.341822,17.072645 46.842275,16.1875 44.625,16.1875 z m -6.25,1.4375 c -0.265853,-0.0057 -0.526296,0.04019 -0.65625,0.125 -0.521105,0.339234 -3.233411,1.882742 -4.09375,2.5625 -0.860338,0.679758 -3.081677,2.065726 -4.28125,2.40625 -1.199574,0.340524 -6.194604,3.455387 -8.59375,4.65625 -2.422364,1.199573 0.519176,1.364854 1.71875,0.84375 1.199573,-0.521105 7.033838,-3.589709 9.09375,-4.8125 2.059913,-1.200862 4.972627,-2.899807 7.03125,-4.28125 1.543966,-1.036083 0.578809,-1.48295 -0.21875,-1.5 z m 2.78125,1.75 c -0.495308,0.127213 -0.934041,0.598266 -0.84375,0.9375 0.18187,0.679759 0.6875,3.255814 0.6875,5.65625 0,2.400437 0.34375,6.051249 0.34375,7.75 0,0.619562 0.07107,1.567172 0.1875,2.59375 C 40.014689,35.88235 38.4373,35.416401 36.5625,34.84375 31.968007,33.440379 24.330727,31.124178 22.40625,30.625 c -1.924477,-0.497887 -2.286289,0.191959 -1.71875,0.9375 0.566251,0.770048 1.557473,0.788701 5.5625,2.125 4.028244,1.358226 11.853023,3.64312 14.34375,4.59375 0.411889,0.161128 0.808602,0.335111 1.21875,0.5 0.113426,1.023546 0.21875,1.983496 0.21875,2.65625 0,1.879331 0.14658,2.75 1.1875,2.75 1.018993,0 0.6875,-1.387258 0.6875,-2.40625 0,-0.380904 -0.01208,-1.341187 -0.03125,-2.21875 1.340164,0.499721 2.61232,0.918082 3.78125,1.03125 2.105057,0.181871 2.318235,-1.917451 -0.375,-2.6875 -0.991618,-0.277231 -2.214289,-0.598969 -3.4375,-0.9375 0.009,-0.402925 0.02679,-0.73167 0.0625,-0.84375 0.180582,-0.521104 -0.16188,-3.452162 -0.34375,-4.3125 -0.180582,-0.86034 -0.5,-3.591822 -0.5,-5.3125 0,-1.720678 -0.348266,-3.938798 -0.6875,-6 -0.170262,-1.029957 -0.723442,-1.252213 -1.21875,-1.125 z m 35.9375,2.5625 c -0.517394,-0.0032 -0.90625,0.203452 -0.90625,1.40625 0,1.901259 1.36187,1.90871 2.3125,1.34375 0.95063,-0.566251 0.57563,-2.65625 -0.375,-2.65625 -0.356486,0 -0.720813,-0.09184 -1.03125,-0.09375 z m -2.125,2.8125 c -0.348928,-0.0288 -0.84834,0.143514 -1.28125,0.5 -1.13121,0.973846 -4.594991,3.091823 -7.0625,4.8125 -2.489437,1.720678 -7.079274,4.7612 -8.4375,5.53125 -1.33501,0.770048 -3.064322,1.73558 -4.21875,2.6875 -1.13121,0.973847 -0.719388,2.683217 1,2.09375 1.720679,-0.564961 3.438032,-1.500533 4.59375,-2.65625 1.13121,-1.155718 2.283072,-1.939379 3.4375,-2.6875 1.154428,-0.770049 9.935573,-7.281783 11.65625,-8.4375 1.074618,-1.188287 0.894047,-1.795745 0.3125,-1.84375 z m 2.5625,1.28125 c -0.768758,0 -0.96875,0.961192 -0.96875,2.5 l 0,12.0625 c 0,1.516879 -0.0056,2.292983 -0.1875,4.21875 -0.203798,1.901259 -0.1875,9.949291 -0.1875,11.46875 0,1.538807 0.0112,2.483702 0.78125,2.6875 0.768759,0.180581 0.952452,-0.756162 1.15625,-2.09375 0.180581,-1.358227 0.5625,-4.604313 0.5625,-7.09375 0,-2.492017 -0.384379,-4.01812 0,-4.96875 C 79.07317,43.860581 79.056871,42.694525 78.875,40 78.672491,37.327402 78.296202,29.851251 78.5,28.71875 c 0.180581,-1.154428 -0.221918,-2.6875 -0.96875,-2.6875 z m -59.1875,2.875 c -1.018993,0.181871 -1.215057,0.512257 -1.375,1.53125 -0.180581,1.042209 1.014661,1.576686 1.875,0.875 0.860339,-0.679758 0.54092,-2.564903 -0.5,-2.40625 z m 0.46875,4.53125 c -0.492405,0.08497 -0.96875,0.525213 -0.96875,1.125 0,1.199573 0.66317,8.234701 0.84375,9.09375 0.158654,0.860339 0.84375,4.462306 0.84375,5.84375 0,1.381444 0.692016,3.263371 1.03125,4.125 0.339234,0.85905 0.01015,4.136443 0.53125,6.71875 0.497888,2.56038 1.349379,0.330379 1.53125,-0.53125 0.180581,-0.861629 -0.1875,-2.581677 -0.1875,-3.78125 0,-1.200864 -0.13063,-3.263548 -0.3125,-4.28125 -0.158653,-1.04221 -1.03688,-4.485524 -1.21875,-5.84375 -0.157363,-1.381444 -0.319419,-3.251298 -0.5,-5.3125 -0.158653,-2.059912 -0.341346,-4.647403 -0.5,-6.1875 -0.09029,-0.781013 -0.601345,-1.05372 -1.09375,-0.96875 z m 32.3125,5.625 c -1.742605,0.203798 -1.745717,1.538702 -1.15625,2.875 0.384379,0.95063 2.303121,0.54567 2.6875,-0.40625 0.38438,-0.950629 0.188138,-2.650621 -1.53125,-2.46875 z m 0.0625,4.25 c -0.384178,0.07373 -0.681799,0.417246 -0.75,1.0625 -0.0992,1.062139 -0.005,2.684794 0.125,4 -1.341194,-0.509038 -2.599211,-0.932631 -3.0625,-1.09375 -1.019003,-0.340524 -1.521104,0.1722 -1,1.03125 0.521105,0.86034 1.699757,0.851493 2.71875,1.53125 0.323566,0.218117 0.978751,0.624226 1.71875,1.0625 0.24483,1.387574 0.663751,4.187098 0.53125,6.34375 -0.180581,2.582307 0.0032,5.841823 0.34375,7.5625 0.339233,1.720678 0.53125,6.175427 0.53125,7.375 0,1.202153 0.319419,2.721976 0.5,3.0625 0.158653,0.362452 1.216347,1.930573 1.375,-0.3125 0.180581,-2.219855 -0.02433,-6.682345 0.15625,-8.0625 0.158654,-1.380154 -0.160766,-4.660135 -0.5,-8.78125 -0.190459,-2.304992 -0.319472,-4.239209 -0.40625,-5.8125 1.027214,0.518268 2.055542,1.004067 2.8125,1.1875 2.058621,0.522394 6.355369,2.581677 9.09375,3.78125 2.738381,1.202153 7.023693,3.580855 8.5625,4.28125 1.538808,0.681049 1.397218,-1.907072 0.71875,-2.40625 -0.701686,-0.518525 -6.181056,-2.575871 -7.5625,-3.4375 C 65.712306,54.825871 58.670252,51.923306 55.75,50.5625 55.017723,50.213641 54.179948,49.847695 53.34375,49.5 c 0,-1.018991 0.334718,-3.58408 -0.34375,-4.625 -0.324884,-1.07623 -1.172204,-1.685377 -1.8125,-1.5625 z m -7.28125,2.71875 c -0.536664,0.02654 -1.052064,0.312092 -1.1875,1.09375 -0.159943,1.018992 1.040282,1.182984 1.71875,0.84375 0.678469,-0.340524 0.678469,-1.725669 0,-1.90625 -0.169617,-0.03966 -0.352362,-0.0401 -0.53125,-0.03125 z M 41.8125,48.625 C 41.511176,48.656158 41.215085,48.784915 41,49 c -0.860339,0.860339 -5.482774,3.967645 -8.0625,6.1875 -2.579728,2.241784 -7.054942,4.617442 -8.59375,6.15625 -1.538807,1.541387 0.543507,2.423952 1.5625,1.40625 1.042209,-1.0435 6.151919,-4.466645 8.03125,-6.03125 1.901259,-1.538808 6.370669,-4.802363 8.25,-6.34375 1.425945,-1.154105 0.528973,-1.843475 -0.375,-1.75 z M 76.96875,60.5 c -1.154428,0.203798 -1.729418,0.984291 -1.34375,1.9375 0.38438,0.94934 1.71629,1.149389 2.28125,0.5625 0.588177,-0.567539 0.216928,-2.681871 -0.9375,-2.5 z m -54.125,2.3125 c -0.542083,-0.0019 -1.137137,0.343503 -1.25,0.78125 -0.158653,0.681049 -0.004,2.222442 1.21875,2.0625 1.199573,-0.178002 1.363565,-1.544621 0.84375,-2.40625 -0.187192,-0.322144 -0.48725,-0.436344 -0.8125,-0.4375 z m 51.0625,1.03125 c -0.266679,-0.01272 -0.551948,0.06584 -0.8125,0.28125 -1.017703,0.838412 -2.405612,1.685395 -4.125,3.25 -1.720678,1.538808 -6.519176,5.323468 -7.71875,6.34375 -1.198283,1.04092 -1.718936,0.357773 -3.9375,2.9375 -2.241784,2.582307 0.142065,2.926065 0.84375,2.40625 0.679758,-0.522394 1.35841,-1.034476 2.21875,-1.375 0.859049,-0.362452 1.742442,-1.552363 3.28125,-3.09375 1.540096,-1.540097 2.766773,-1.081385 4.125,-2.9375 1.380154,-1.858693 4.804943,-5.23816 6.34375,-6.1875 1.153138,-0.714907 0.581287,-1.586848 -0.21875,-1.625 z M 25.375,65.15625 c -0.991099,0.132292 -0.811322,1.073495 0.34375,1.71875 1.562026,0.859049 6.369846,3.413991 7.75,4.09375 1.358227,0.679758 2.731007,0.885321 3.75,1.5625 1.04092,0.681048 4.295911,2.385145 5.15625,2.90625 0.860339,0.522394 6.182347,3.257742 7.5625,3.9375 1.358227,0.702976 2.052355,-1.188322 1.53125,-1.6875 C 50.948935,77.166395 50.081491,76.989854 49.0625,76.46875 48.02158,75.972151 44.257558,74.236629 42.71875,73.375 41.178653,72.513371 37.906888,70.804758 36.1875,70.125 34.468112,69.446532 29.149146,65.989679 26.75,65.3125 26.150213,65.136756 25.705366,65.112153 25.375,65.15625 z M 53.6875,78.375 c -0.497888,0.156074 -1.545436,1.204097 -0.84375,2.40625 0.678469,1.199573 1.704564,1.853887 2.40625,0.3125 0.678469,-1.538807 -1.041395,-2.90062 -1.5625,-2.71875 z"
         inkscape:connector-curvature="0"
         id="path3866"
         style="opacity:0.3;fill:#550000;fill-rule:evenodd" />
      <path
         d="m 41.3125,15 c -0.05991,-0.0097 -0.113846,0.01142 -0.15625,0.03125 -0.339234,0.180581 -1.709718,0.174137 -1.03125,1.375 0.701686,1.199573 1.385145,0.678468 1.90625,0 C 42.486088,15.811462 41.731892,15.067682 41.3125,15 z m 3.3125,0.1875 c -2.240493,0 -1.23276,1.881918 -0.375,2.0625 0.860339,0.18187 3.084265,0.878226 6.34375,1.21875 3.259486,0.339234 7.220515,1.19313 8.78125,1.375 1.540097,0.158655 4.276095,1.185097 5.65625,1.34375 1.381444,0.181871 7.048023,0.878227 8.40625,1.21875 1.381444,0.362451 1.89159,-1.700049 1.03125,-2.0625 C 73.608411,20.004516 71.725833,19.651734 68.625,19.3125 65.547386,18.971976 63.997886,18.283653 63.5,18.125 62.978894,17.944419 60.576685,17.939903 59.875,17.78125 59.195242,17.599379 55.75996,17.091637 54.0625,16.59375 52.341822,16.072645 46.842275,15.1875 44.625,15.1875 z m -6.25,1.4375 c -0.265853,-0.0057 -0.526296,0.04019 -0.65625,0.125 -0.521105,0.339234 -3.233411,1.882742 -4.09375,2.5625 -0.860338,0.679758 -3.081677,2.065726 -4.28125,2.40625 -1.199574,0.340524 -6.194604,3.455387 -8.59375,4.65625 -2.422364,1.199573 0.519176,1.364854 1.71875,0.84375 1.199573,-0.521105 7.033838,-3.589709 9.09375,-4.8125 2.059913,-1.200862 4.972627,-2.899807 7.03125,-4.28125 1.543966,-1.036083 0.578809,-1.48295 -0.21875,-1.5 z m 2.78125,1.75 c -0.495308,0.127213 -0.934041,0.598266 -0.84375,0.9375 0.18187,0.679759 0.6875,3.255814 0.6875,5.65625 0,2.400437 0.34375,6.051249 0.34375,7.75 0,0.619562 0.07107,1.567172 0.1875,2.59375 C 40.014689,34.88235 38.4373,34.416401 36.5625,33.84375 31.968007,32.440379 24.330727,30.124178 22.40625,29.625 c -1.924477,-0.497887 -2.286289,0.191959 -1.71875,0.9375 0.566251,0.770048 1.557473,0.788701 5.5625,2.125 4.028244,1.358226 11.853023,3.64312 14.34375,4.59375 0.411889,0.161128 0.808602,0.335111 1.21875,0.5 0.113426,1.023546 0.21875,1.983496 0.21875,2.65625 0,1.879331 0.14658,2.75 1.1875,2.75 1.018993,0 0.6875,-1.387258 0.6875,-2.40625 0,-0.380904 -0.01208,-1.341187 -0.03125,-2.21875 1.340164,0.499721 2.61232,0.918082 3.78125,1.03125 2.105057,0.181871 2.318235,-1.917451 -0.375,-2.6875 -0.991618,-0.277231 -2.214289,-0.598969 -3.4375,-0.9375 0.009,-0.402925 0.02679,-0.73167 0.0625,-0.84375 0.180582,-0.521104 -0.16188,-3.452162 -0.34375,-4.3125 -0.180582,-0.86034 -0.5,-3.591822 -0.5,-5.3125 0,-1.720678 -0.348266,-3.938798 -0.6875,-6 -0.170262,-1.029957 -0.723442,-1.252213 -1.21875,-1.125 z m 35.9375,2.5625 c -0.517394,-0.0032 -0.90625,0.203452 -0.90625,1.40625 0,1.901259 1.36187,1.90871 2.3125,1.34375 0.95063,-0.566251 0.57563,-2.65625 -0.375,-2.65625 -0.356486,0 -0.720813,-0.09184 -1.03125,-0.09375 z m -2.125,2.8125 c -0.348928,-0.0288 -0.84834,0.143514 -1.28125,0.5 -1.13121,0.973846 -4.594991,3.091823 -7.0625,4.8125 -2.489437,1.720678 -7.079274,4.7612 -8.4375,5.53125 -1.33501,0.770048 -3.064322,1.73558 -4.21875,2.6875 -1.13121,0.973847 -0.719388,2.683217 1,2.09375 1.720679,-0.564961 3.438032,-1.500533 4.59375,-2.65625 1.13121,-1.155718 2.283072,-1.939379 3.4375,-2.6875 1.154428,-0.770049 9.935573,-7.281783 11.65625,-8.4375 1.074618,-1.188287 0.894047,-1.795745 0.3125,-1.84375 z m 2.5625,1.28125 c -0.768758,0 -0.96875,0.961192 -0.96875,2.5 l 0,12.0625 c 0,1.516879 -0.0056,2.292983 -0.1875,4.21875 -0.203798,1.901259 -0.1875,9.949291 -0.1875,11.46875 0,1.538807 0.0112,2.483702 0.78125,2.6875 0.768759,0.180581 0.952452,-0.756162 1.15625,-2.09375 0.180581,-1.358227 0.5625,-4.604313 0.5625,-7.09375 0,-2.492017 -0.384379,-4.01812 0,-4.96875 C 79.07317,42.860581 79.056871,41.694525 78.875,39 78.672491,36.327402 78.296202,28.851251 78.5,27.71875 c 0.180581,-1.154428 -0.221918,-2.6875 -0.96875,-2.6875 z m -59.1875,2.875 c -1.018993,0.181871 -1.215057,0.512257 -1.375,1.53125 -0.180581,1.042209 1.014661,1.576686 1.875,0.875 0.860339,-0.679758 0.54092,-2.564903 -0.5,-2.40625 z m 0.46875,4.53125 c -0.492405,0.08497 -0.96875,0.525213 -0.96875,1.125 0,1.199573 0.66317,8.234701 0.84375,9.09375 0.158654,0.860339 0.84375,4.462306 0.84375,5.84375 0,1.381444 0.692016,3.263371 1.03125,4.125 0.339234,0.85905 0.01015,4.136443 0.53125,6.71875 0.497888,2.56038 1.349379,0.330379 1.53125,-0.53125 0.180581,-0.861629 -0.1875,-2.581677 -0.1875,-3.78125 0,-1.200864 -0.13063,-3.263548 -0.3125,-4.28125 -0.158653,-1.04221 -1.03688,-4.485524 -1.21875,-5.84375 -0.157363,-1.381444 -0.319419,-3.251298 -0.5,-5.3125 -0.158653,-2.059912 -0.341346,-4.647403 -0.5,-6.1875 -0.09029,-0.781013 -0.601345,-1.05372 -1.09375,-0.96875 z m 32.3125,5.625 c -1.742605,0.203798 -1.745717,1.538702 -1.15625,2.875 0.384379,0.95063 2.303121,0.54567 2.6875,-0.40625 0.38438,-0.950629 0.188138,-2.650621 -1.53125,-2.46875 z m 0.0625,4.25 c -0.384178,0.07373 -0.681799,0.417246 -0.75,1.0625 -0.0992,1.062139 -0.005,2.684794 0.125,4 -1.341194,-0.509038 -2.599211,-0.932631 -3.0625,-1.09375 -1.019003,-0.340524 -1.521104,0.1722 -1,1.03125 0.521105,0.86034 1.699757,0.851493 2.71875,1.53125 0.323566,0.218117 0.978751,0.624226 1.71875,1.0625 0.24483,1.387574 0.663751,4.187098 0.53125,6.34375 -0.180581,2.582307 0.0032,5.841823 0.34375,7.5625 0.339233,1.720678 0.53125,6.175427 0.53125,7.375 0,1.202153 0.319419,2.721976 0.5,3.0625 0.158653,0.362452 1.216347,1.930573 1.375,-0.3125 0.180581,-2.219855 -0.02433,-6.682345 0.15625,-8.0625 0.158654,-1.380154 -0.160766,-4.660135 -0.5,-8.78125 -0.190459,-2.304992 -0.319472,-4.239209 -0.40625,-5.8125 1.027214,0.518268 2.055542,1.004067 2.8125,1.1875 2.058621,0.522394 6.355369,2.581677 9.09375,3.78125 2.738381,1.202153 7.023693,3.580855 8.5625,4.28125 1.538808,0.681049 1.397218,-1.907072 0.71875,-2.40625 -0.701686,-0.518525 -6.181056,-2.575871 -7.5625,-3.4375 C 65.712306,53.825871 58.670252,50.923306 55.75,49.5625 55.017723,49.213641 54.179948,48.847695 53.34375,48.5 c 0,-1.018991 0.334718,-3.58408 -0.34375,-4.625 -0.324884,-1.07623 -1.172204,-1.685377 -1.8125,-1.5625 z m -7.28125,2.71875 c -0.536664,0.02654 -1.052064,0.312092 -1.1875,1.09375 -0.159943,1.018992 1.040282,1.182984 1.71875,0.84375 0.678469,-0.340524 0.678469,-1.725669 0,-1.90625 -0.169617,-0.03966 -0.352362,-0.0401 -0.53125,-0.03125 z M 41.8125,47.625 C 41.511176,47.656158 41.215085,47.784915 41,48 c -0.860339,0.860339 -5.482774,3.967645 -8.0625,6.1875 -2.579728,2.241784 -7.054942,4.617442 -8.59375,6.15625 -1.538807,1.541387 0.543507,2.423952 1.5625,1.40625 1.042209,-1.0435 6.151919,-4.466645 8.03125,-6.03125 1.901259,-1.538808 6.370669,-4.802363 8.25,-6.34375 1.425945,-1.154105 0.528973,-1.843475 -0.375,-1.75 z M 76.96875,59.5 c -1.154428,0.203798 -1.729418,0.984291 -1.34375,1.9375 0.38438,0.94934 1.71629,1.149389 2.28125,0.5625 0.588177,-0.567539 0.216928,-2.681871 -0.9375,-2.5 z m -54.125,2.3125 c -0.542083,-0.0019 -1.137137,0.343503 -1.25,0.78125 -0.158653,0.681049 -0.004,2.222442 1.21875,2.0625 1.199573,-0.178002 1.363565,-1.544621 0.84375,-2.40625 -0.187192,-0.322144 -0.48725,-0.436344 -0.8125,-0.4375 z m 51.0625,1.03125 c -0.266679,-0.01272 -0.551948,0.06584 -0.8125,0.28125 -1.017703,0.838412 -2.405612,1.685395 -4.125,3.25 -1.720678,1.538808 -6.519176,5.323468 -7.71875,6.34375 -1.198283,1.04092 -1.718936,0.357773 -3.9375,2.9375 -2.241784,2.582307 0.142065,2.926065 0.84375,2.40625 0.679758,-0.522394 1.35841,-1.034476 2.21875,-1.375 0.859049,-0.362452 1.742442,-1.552363 3.28125,-3.09375 1.540096,-1.540097 2.766773,-1.081385 4.125,-2.9375 1.380154,-1.858693 4.804943,-5.23816 6.34375,-6.1875 1.153138,-0.714907 0.581287,-1.586848 -0.21875,-1.625 z M 25.375,64.15625 c -0.991099,0.132292 -0.811322,1.073495 0.34375,1.71875 1.562026,0.859049 6.369846,3.413991 7.75,4.09375 1.358227,0.679758 2.731007,0.885321 3.75,1.5625 1.04092,0.681048 4.295911,2.385145 5.15625,2.90625 0.860339,0.522394 6.182347,3.257742 7.5625,3.9375 1.358227,0.702976 2.052355,-1.188322 1.53125,-1.6875 C 50.948935,76.166395 50.081491,75.989854 49.0625,75.46875 48.02158,74.972151 44.257558,73.236629 42.71875,72.375 41.178653,71.513371 37.906888,69.804758 36.1875,69.125 34.468112,68.446532 29.149146,64.989679 26.75,64.3125 26.150213,64.136756 25.705366,64.112153 25.375,64.15625 z M 53.6875,77.375 c -0.497888,0.156074 -1.545436,1.204097 -0.84375,2.40625 0.678469,1.199573 1.704564,1.853887 2.40625,0.3125 0.678469,-1.538807 -1.041395,-2.90062 -1.5625,-2.71875 z"
         inkscape:connector-curvature="0"
         id="path2875"
         style="fill:#ffffff;fill-rule:evenodd" />
    </g>
    <rect
       ry="25"
       rx="25"
       id="rect3003"
       style="opacity:0.15;fill:#ffffff;fill-opacity:1"
       height="92"
       width="92"
       y="958.36218"
       x="-96"
       clip-path="url(#clipPath3009)"
       transform="translate(98,3.8281269e-7)" />
  </g>
</svg>
