<?xml version="1.0" encoding="UTF-8" standalone="no"?>
<!-- Created with Inkscape (http://www.inkscape.org/) -->

<svg
   xmlns:dc="http://purl.org/dc/elements/1.1/"
   xmlns:cc="http://creativecommons.org/ns#"
   xmlns:rdf="http://www.w3.org/1999/02/22-rdf-syntax-ns#"
   xmlns:svg="http://www.w3.org/2000/svg"
   xmlns="http://www.w3.org/2000/svg"
   xmlns:xlink="http://www.w3.org/1999/xlink"
   xmlns:sodipodi="http://sodipodi.sourceforge.net/DTD/sodipodi-0.dtd"
   xmlns:inkscape="http://www.inkscape.org/namespaces/inkscape"
   width="96"
   height="96"
   id="svg11037"
   version="1.1"
   inkscape:version="0.48.3.1 r9886"
   sodipodi:docname="nvidia-settings.svg">
  <defs
     id="defs11039">
    <linearGradient
       y2="1046.1001"
       x2="47.999954"
       y1="962.62189"
       x1="47.999954"
       gradientTransform="matrix(1.15,0,0,1.15,-7.1999462,-150.65291)"
       gradientUnits="userSpaceOnUse"
       id="linearGradient3886"
       xlink:href="#linearGradient3795"
       inkscape:collect="always" />
    <linearGradient
       id="linearGradient3795">
      <stop
         style="stop-color:#13a6fd;stop-opacity:1;"
         offset="0"
         id="stop3797" />
      <stop
         style="stop-color:#2975b6;stop-opacity:1;"
         offset="1"
         id="stop3799" />
    </linearGradient>
    <linearGradient
       y2="1046.1001"
       x2="47.999954"
       y1="962.62189"
       x1="47.999954"
       gradientTransform="matrix(1.15,0,0,1.15,-7.1999462,-150.65292)"
       gradientUnits="userSpaceOnUse"
       id="linearGradient11642"
       xlink:href="#linearGradient3700"
       inkscape:collect="always" />
    <linearGradient
       x1="48"
       y1="90"
       x2="48"
       y2="5.9877172"
       id="linearGradient3617"
       xlink:href="#linearGradient3700"
       gradientUnits="userSpaceOnUse" />
    <linearGradient
       id="linearGradient3700">
      <stop
         id="stop3702"
         style="stop-color:#222222;stop-opacity:1"
         offset="0" />
      <stop
         id="stop3704"
         style="stop-color:#333333;stop-opacity:1"
         offset="1" />
    </linearGradient>
    <clipPath
       id="clipPath3805">
      <rect
         width="80.307129"
         height="41.668793"
         rx="6"
         ry="4.4196429"
         x="7.8286824"
         y="28.31978"
         id="rect3807"
         style="fill:#ffffff;fill-opacity:1;stroke:none" />
    </clipPath>
    <filter
       color-interpolation-filters="sRGB"
       id="filter3795">
      <feGaussianBlur
         id="feGaussianBlur3797"
         stdDeviation="1.215" />
    </filter>
    <linearGradient
       x1="65.928574"
       y1="6"
       x2="65.928574"
       y2="90.001488"
       id="linearGradient3762"
       xlink:href="#linearGradient3756"
       gradientUnits="userSpaceOnUse" />
    <linearGradient
       id="linearGradient3756">
      <stop
         id="stop3758"
         style="stop-color:#dbff9a;stop-opacity:1"
         offset="0" />
      <stop
         id="stop3772"
         style="stop-color:#dfffa7;stop-opacity:1"
         offset="0.17644246" />
      <stop
         id="stop3774"
         style="stop-color:#c1ff53;stop-opacity:1"
         offset="0.29336214" />
      <stop
         id="stop3776"
         style="stop-color:#82c50c;stop-opacity:1"
         offset="0.49318853" />
      <stop
         id="stop3764"
         style="stop-color:#609501;stop-opacity:1"
         offset="0.75466347" />
      <stop
         id="stop3760"
         style="stop-color:#7cbf06;stop-opacity:1"
         offset="1" />
    </linearGradient>
    <linearGradient
       x1="-41"
       y1="48"
       x2="-35"
       y2="48"
       id="linearGradient3829"
       xlink:href="#linearGradient3737"
       gradientUnits="userSpaceOnUse"
       gradientTransform="matrix(0.50000001,0,0,1,61.499999,0)" />
    <linearGradient
       id="linearGradient3737">
      <stop
         id="stop3739"
         style="stop-color:#ffffff;stop-opacity:1"
         offset="0" />
      <stop
         id="stop3741"
         style="stop-color:#ffffff;stop-opacity:0"
         offset="1" />
    </linearGradient>
    <linearGradient
       x1="-41"
       y1="48"
       x2="-35"
       y2="48"
       id="linearGradient3825"
       xlink:href="#linearGradient3819"
       gradientUnits="userSpaceOnUse"
       gradientTransform="matrix(0.66666667,0,0,1,-13.666667,0)" />
    <linearGradient
       id="linearGradient3819">
      <stop
         id="stop3821"
         style="stop-color:#000000;stop-opacity:1"
         offset="0" />
      <stop
         id="stop3823"
         style="stop-color:#000000;stop-opacity:0"
         offset="1" />
    </linearGradient>
    <clipPath
       clipPathUnits="userSpaceOnUse"
       id="clipPath3838">
      <rect
         x="6"
         y="6.0000038"
         width="84"
         height="84"
         style="fill:url(#linearGradient3842);fill-opacity:1"
         id="rect3840"
         rx="22.826086"
         ry="22.826086" />
    </clipPath>
    <linearGradient
       inkscape:collect="always"
       xlink:href="#linearGradient3700"
       id="linearGradient3842"
       gradientUnits="userSpaceOnUse"
       gradientTransform="matrix(1.05,0,0,1.05,-2.3999508,-1006.579)"
       x1="47.999954"
       y1="962.62189"
       x2="47.999954"
       y2="1046.1001" />
    <clipPath
       clipPathUnits="userSpaceOnUse"
       id="clipPath3009">
      <path
         id="path3011"
         d="m -2,956.36218 -96,0 0,33.5624 96,25.68742 0,-59.24982 z"
         style="opacity:0.15;fill:#ffffff;fill-opacity:1;stroke:none"
         inkscape:connector-curvature="0" />
    </clipPath>
  </defs>
  <sodipodi:namedview
     id="base"
     pagecolor="#ffffff"
     bordercolor="#666666"
     borderopacity="1.0"
     inkscape:pageopacity="0.0"
     inkscape:pageshadow="2"
     inkscape:zoom="4"
     inkscape:cx="-5.020146"
     inkscape:cy="47.346634"
     inkscape:document-units="px"
     inkscape:current-layer="layer1"
     showgrid="false"
     inkscape:window-width="1280"
     inkscape:window-height="750"
     inkscape:window-x="0"
     inkscape:window-y="22"
     inkscape:window-maximized="1"
     showguides="true"
     inkscape:guide-bbox="true">
    <sodipodi:guide
       orientation="0,1"
       position="-24.748737,0"
       id="guide11064" />
    <sodipodi:guide
       orientation="0,1"
       position="-23.233509,96"
       id="guide11066" />
    <sodipodi:guide
       orientation="1,0"
       position="0,54.800776"
       id="guide11068" />
    <sodipodi:guide
       orientation="1,0"
       position="96,51.012704"
       id="guide11070" />
    <sodipodi:guide
       orientation="0,1"
       position="-18.94036,48"
       id="guide11072" />
    <sodipodi:guide
       orientation="1,0"
       position="48,79.296975"
       id="guide11074" />
    <sodipodi:guide
       orientation="1,0"
       position="2,75.508903"
       id="guide11076" />
    <sodipodi:guide
       orientation="0,1"
       position="-77.27667,2"
       id="guide11078" />
    <sodipodi:guide
       orientation="1,0"
       position="94,77.781746"
       id="guide11080" />
    <sodipodi:guide
       orientation="0,1"
       position="-65.912454,94"
       id="guide11082" />
  </sodipodi:namedview>
  <metadata
     id="metadata11042">
    <rdf:RDF>
      <cc:Work
         rdf:about="">
        <dc:format>image/svg+xml</dc:format>
        <dc:type
           rdf:resource="http://purl.org/dc/dcmitype/StillImage" />
        <dc:title />
      </cc:Work>
    </rdf:RDF>
  </metadata>
  <g
     inkscape:label="Layer 1"
     inkscape:groupmode="layer"
     id="layer1"
     transform="translate(0,-956.36218)">
    <g
       transform="matrix(1.0952381,0,0,1.0952381,-4.5714286,951.79075)"
       id="g3048"
       clip-path="url(#clipPath3838)">
      <g
         style="display:inline"
         id="layer1-9">
        <rect
           style="fill:url(#linearGradient3617);fill-opacity:1;fill-rule:nonzero;stroke:none"
           id="rect2419"
           y="6"
           x="6"
           ry="6"
           rx="6"
           height="84"
           width="84" />
      </g>
      <g
         id="layer3">
        <path
           style="fill:#000000;fill-opacity:1;fill-rule:nonzero;stroke-width:0;stroke-linecap:butt;stroke-linejoin:miter;stroke-miterlimit:10;filter:url(#filter3795)"
           id="path3782"
           clip-path="url(#clipPath3805)"
           inkscape:connector-curvature="0"
           d="m 41.09375,7 0,23.15625 c 0.45785,-0.03541 0.91464,-0.07808 1.375,-0.09375 C 60.20044,29.464883 71.75,44.625 71.75,44.625 c 0,0 -13.26928,16.125 -27.09375,16.125 -1.26699,0 -2.44843,-0.115384 -3.5625,-0.3125 l 0,4.3125 c 0.95268,0.120965 1.93805,0.1875 2.96875,0.1875 12.86459,0 22.17906,-6.56784 31.1875,-14.34375 1.49357,1.196173 7.61803,4.100795 8.875,5.375 -8.56532,7.171087 -28.52664,12.96875 -39.84375,12.96875 -1.09088,0 -2.15773,-0.08816 -3.1875,-0.1875 l 0,22.25 L 84,91 c 3.324,0 6,-2.676 6,-6 L 90,13 C 90,9.676 87.324,7 84,7 L 41.09375,7 z m 0,61.75 0,-4 c -15.74361,-1.980878 -21.125,-19.34375 -21.125,-19.34375 0,0 7.04388,-10.392601 21.125,-11.46875 l 0,-3.78125 C 25.49712,31.408832 12,44.625 12,44.625 c 0,0 7.64066,22.100249 29.09375,24.125 z m 0,-34.8125 0,4.65625 c 0.83391,-0.08932 1.70531,-0.15625 2.59375,-0.15625 8.16763,0 13,6.34375 13,6.34375 l -6.625,5.625 C 47.07818,45.431334 46.0577,43.22481 41.09375,42.625 l 0,14.125 c 1.12504,0.37825 2.38702,0.625 3.78125,0.625 9.68785,0 18.71875,-12.5625 18.71875,-12.5625 0,0 -8.37418,-11.338 -21.125,-10.9375 -0.46631,0.01473 -0.92185,0.03085 -1.375,0.0625 z m 0,22.8125 c -6.70822,-2.253833 -8.875,-10.0625 -8.875,-10.0625 0,0 3.89507,-4.660116 8.875,-4.0625 l 0,-4.03125 c -9.48822,1.026008 -15.1875,7.34375 -15.1875,7.34375 0,0 3.28907,12.378727 15.1875,14.5 l 0,-3.6875 z" />
        <path
           style="fill:url(#linearGradient3762);fill-opacity:1;fill-rule:nonzero;stroke-width:0;stroke-linecap:butt;stroke-linejoin:miter;stroke-miterlimit:10"
           id="path21"
           inkscape:connector-curvature="0"
           d="m 41.09375,6 0,23.15625 c 0.45785,-0.03541 0.91464,-0.07808 1.375,-0.09375 C 60.20044,28.464883 71.75,43.625 71.75,43.625 c 0,0 -13.26928,16.125 -27.09375,16.125 -1.26699,0 -2.44843,-0.115384 -3.5625,-0.3125 l 0,4.3125 c 0.95268,0.120965 1.93805,0.1875 2.96875,0.1875 12.86459,0 22.17906,-6.56784 31.1875,-14.34375 1.49357,1.196173 7.61803,4.100795 8.875,5.375 -8.56532,7.171087 -28.52664,12.96875 -39.84375,12.96875 -1.09088,0 -2.15773,-0.08816 -3.1875,-0.1875 l 0,22.25 L 84,90 c 3.324,0 6,-2.676 6,-6 L 90,12 C 90,8.676 87.324,6 84,6 L 41.09375,6 z m 0,61.75 0,-4 c -15.74361,-1.980878 -21.125,-19.34375 -21.125,-19.34375 0,0 7.04388,-10.392601 21.125,-11.46875 l 0,-3.78125 C 25.49712,30.408832 12,43.625 12,43.625 c 0,0 7.64066,22.100249 29.09375,24.125 z m 0,-34.8125 0,4.65625 c 0.83391,-0.08932 1.70531,-0.15625 2.59375,-0.15625 8.16763,0 13,6.34375 13,6.34375 l -6.625,5.625 C 47.07818,44.431334 46.0577,42.22481 41.09375,41.625 l 0,14.125 c 1.12504,0.37825 2.38702,0.625 3.78125,0.625 9.68785,0 18.71875,-12.5625 18.71875,-12.5625 0,0 -8.37418,-11.338 -21.125,-10.9375 -0.46631,0.01473 -0.92185,0.03085 -1.375,0.0625 z m 0,22.8125 c -6.70822,-2.253833 -8.875,-10.0625 -8.875,-10.0625 0,0 3.89507,-4.660116 8.875,-4.0625 l 0,-4.03125 c -9.48822,1.026008 -15.1875,7.34375 -15.1875,7.34375 0,0 3.28907,12.378727 15.1875,14.5 l 0,-3.6875 z" />
        <path
           style="opacity:0.6;fill:#ffffff;fill-opacity:1;fill-rule:nonzero;stroke-width:0;stroke-linecap:butt;stroke-linejoin:miter;stroke-miterlimit:10"
           id="path3766"
           inkscape:connector-curvature="0"
           d="M 41.09375,29.15625 C 25.49712,30.408832 12,43.625 12,43.625 c 0,0 0.133774,0.377176 0.28125,0.75 1.391896,-1.321508 14.088333,-13.036236 28.8125,-14.21875 l 0,-1 z m 1.375,3.71875 c -0.46631,0.01473 -0.92185,0.03085 -1.375,0.0625 l 0,1 c 0.45315,-0.03165 0.90869,-0.04777 1.375,-0.0625 11.156968,-0.350437 18.972802,8.272812 20.75,10.4375 0.233108,-0.302786 0.375,-0.5 0.375,-0.5 0,0 -8.37418,-11.338 -21.125,-10.9375 z m -1.375,4.71875 c -9.48822,1.026008 -15.1875,7.34375 -15.1875,7.34375 0,0 0.06756,0.30706 0.21875,0.75 1.09829,-1.114652 6.527506,-6.180957 14.96875,-7.09375 l 0,-1 z m 0,4.03125 0,1 c 4.96395,0.59981 5.98443,2.806334 8.96875,7.78125 l 6.625,-5.625 c 0,0 -0.198936,-0.260014 -0.5,-0.59375 l -6.125,5.21875 C 47.07818,44.431334 46.0577,42.22481 41.09375,41.625 z m 30.25,2.46875 C 69.356619,46.396591 57.300732,59.75 44.65625,59.75 c -1.26699,0 -2.44843,-0.115384 -3.5625,-0.3125 l 0,1 c 1.11407,0.197116 2.29551,0.3125 3.5625,0.3125 13.82447,0 27.09375,-16.125 27.09375,-16.125 0,0 -0.185185,-0.264221 -0.40625,-0.53125 z m -51.15625,1 c -0.103144,0.139838 -0.21875,0.3125 -0.21875,0.3125 0,0 5.38139,17.362872 21.125,19.34375 l 0,-1 C 27.145896,61.995066 21.332513,48.225438 20.1875,45.09375 z m 12.28125,1.34375 c -0.05952,0.06661 -0.25,0.25 -0.25,0.25 0,0 2.16678,7.808667 8.875,10.0625 l 0,-1 c -5.49314,-1.845589 -7.918431,-7.355105 -8.625,-9.3125 z m 51.03125,9 c -8.861762,6.948918 -28.154254,12.5 -39.21875,12.5 -1.09088,0 -2.15773,-0.08816 -3.1875,-0.1875 l 0,1 c 1.02977,0.09934 2.09662,0.1875 3.1875,0.1875 11.31711,0 31.27843,-5.797663 39.84375,-12.96875 C 83.979935,55.821696 83.760126,55.622853 83.5,55.4375 z" />
        <path
           style="opacity:0.6;fill:url(#linearGradient3829);fill-opacity:1;stroke:none"
           id="rect3827"
           inkscape:connector-curvature="0"
           d="m 41.09375,6 0,23.15625 c 0.45785,-0.03541 0.91464,-0.07808 1.375,-0.09375 0.512295,-0.01727 1.029405,-0.0083 1.53125,0 L 44,6 41.09375,6 z m 0,23.15625 c -0.03076,0.0025 -0.063,-0.0026 -0.09375,0 l 0,3.78125 c 0.03108,-0.0025 0.0626,0.0024 0.09375,0 l 0,-3.78125 z m 0,3.78125 0,4.65625 c 0.83391,-0.08932 1.70531,-0.15625 2.59375,-0.15625 0.106165,0 0.207465,-0.0021 0.3125,0 l 0,-4.53125 c -0.502494,-0.02084 -1.01409,-0.04749 -1.53125,-0.03125 -0.46631,0.01473 -0.92185,0.03085 -1.375,0.0625 z m 0,4.65625 c -0.03168,0.0034 -0.06216,-0.0035 -0.09375,0 l 0,4.03125 c 0.03196,0.0034 0.06171,-0.0038 0.09375,0 l 0,-4.03125 z m 0,4.03125 0,14.125 c 0.886356,0.298002 1.852191,0.51535 2.90625,0.59375 l 0,-14 C 43.191754,42.009628 42.261633,41.766119 41.09375,41.625 z m 0,14.125 C 41.06237,55.739457 41.031181,55.729535 41,55.71875 l 0,3.6875 c 0.03256,0.006 0.06106,0.02542 0.09375,0.03125 l 0,-3.6875 z m 0,3.6875 0,4.3125 c 0.932867,0.118449 1.898827,0.184795 2.90625,0.1875 l 0,-4.21875 C 42.983009,59.68587 42.009586,59.599542 41.09375,59.4375 z m 0,4.3125 C 41.06239,63.7461 41.03128,63.7541 41,63.75 l 0,4 c 0.03136,0.0031 0.06233,-0.003 0.09375,0 l 0,-4 z m 0,4 0,22.25 L 44,90 44,67.9375 C 43.007267,67.92411 42.034537,67.84076 41.09375,67.75 z" />
        <rect
           style="opacity:0.6;fill:url(#linearGradient3825);fill-opacity:1;stroke:none"
           id="rect3809"
           transform="scale(-1,1)"
           y="6"
           x="-41"
           height="84"
           width="4" />
      </g>
    </g>
    <rect
       ry="25"
       rx="25"
       id="rect3003"
       style="opacity:0.15;fill:#ffffff;fill-opacity:1"
       height="92"
       width="92"
       y="958.36218"
       x="-96"
       clip-path="url(#clipPath3009)"
       transform="translate(98,3.8281269e-7)" />
  </g>
</svg>
