<?xml version="1.0" encoding="UTF-8" standalone="no"?>
<!-- Created with Inkscape (http://www.inkscape.org/) -->

<svg
   xmlns:dc="http://purl.org/dc/elements/1.1/"
   xmlns:cc="http://creativecommons.org/ns#"
   xmlns:rdf="http://www.w3.org/1999/02/22-rdf-syntax-ns#"
   xmlns:svg="http://www.w3.org/2000/svg"
   xmlns="http://www.w3.org/2000/svg"
   xmlns:xlink="http://www.w3.org/1999/xlink"
   xmlns:sodipodi="http://sodipodi.sourceforge.net/DTD/sodipodi-0.dtd"
   xmlns:inkscape="http://www.inkscape.org/namespaces/inkscape"
   width="96"
   height="96"
   id="svg11037"
   version="1.1"
   inkscape:version="0.48.3.1 r9886"
   sodipodi:docname="onboard.svg">
  <defs
     id="defs11039">
    <linearGradient
       y2="1046.1001"
       x2="47.999954"
       y1="962.62189"
       x1="47.999954"
       gradientTransform="matrix(1.15,0,0,1.15,-7.1999462,-150.65291)"
       gradientUnits="userSpaceOnUse"
       id="linearGradient3886"
       xlink:href="#linearGradient3795"
       inkscape:collect="always" />
    <linearGradient
       id="linearGradient3795">
      <stop
         style="stop-color:#13a6fd;stop-opacity:1;"
         offset="0"
         id="stop3797" />
      <stop
         style="stop-color:#2975b6;stop-opacity:1;"
         offset="1"
         id="stop3799" />
    </linearGradient>
    <linearGradient
       y2="1046.1001"
       x2="47.999954"
       y1="962.62189"
       x1="47.999954"
       gradientTransform="matrix(1.15,0,0,1.15,-7.1999462,-150.65292)"
       gradientUnits="userSpaceOnUse"
       id="linearGradient11642"
       xlink:href="#linearGradient3795"
       inkscape:collect="always" />
    <linearGradient
       x1="48"
       y1="90"
       x2="48"
       y2="5.9877172"
       id="linearGradient8096"
       xlink:href="#linearGradient3977"
       gradientUnits="userSpaceOnUse"
       gradientTransform="matrix(0.5,0,0,0.5,3.0000004,45.000002)" />
    <linearGradient
       id="linearGradient3977">
      <stop
         id="stop3979"
         style="stop-color:#e1e1e1;stop-opacity:1"
         offset="0" />
      <stop
         id="stop3981"
         style="stop-color:#f5f5f5;stop-opacity:1"
         offset="1" />
    </linearGradient>
    <linearGradient
       x1="48"
       y1="90"
       x2="48"
       y2="5.9877172"
       id="linearGradient3975"
       xlink:href="#linearGradient4941"
       gradientUnits="userSpaceOnUse"
       gradientTransform="matrix(0.5,0,0,0.5,45.000004,45.000004)" />
    <linearGradient
       id="linearGradient4941">
      <stop
         id="stop4943"
         style="stop-color:#2d88c8;stop-opacity:1"
         offset="0" />
      <stop
         id="stop4945"
         style="stop-color:#539fd5;stop-opacity:1"
         offset="1" />
    </linearGradient>
    <linearGradient
       x1="48"
       y1="90"
       x2="48"
       y2="5.9877172"
       id="linearGradient3987"
       xlink:href="#linearGradient3977"
       gradientUnits="userSpaceOnUse"
       gradientTransform="matrix(0.5,0,0,0.5,45.000004,3.0000058)" />
    <linearGradient
       id="linearGradient3116">
      <stop
         id="stop3118"
         style="stop-color:#e1e1e1;stop-opacity:1"
         offset="0" />
      <stop
         id="stop3120"
         style="stop-color:#f5f5f5;stop-opacity:1"
         offset="1" />
    </linearGradient>
    <linearGradient
       x1="6"
       y1="27.000004"
       x2="48"
       y2="27.000004"
       id="linearGradient3986"
       xlink:href="#linearGradient3979"
       gradientUnits="userSpaceOnUse"
       gradientTransform="translate(-54.000004,-3.8146973e-6)" />
    <linearGradient
       id="linearGradient3979">
      <stop
         id="stop3982"
         style="stop-color:#fac217;stop-opacity:1"
         offset="0" />
      <stop
         id="stop3984"
         style="stop-color:#f8de72;stop-opacity:1"
         offset="1" />
    </linearGradient>
    <linearGradient
       x1="24"
       y1="48"
       x2="24"
       y2="88"
       id="linearGradient4003"
       xlink:href="#linearGradient3997"
       gradientUnits="userSpaceOnUse" />
    <linearGradient
       id="linearGradient3997">
      <stop
         id="stop3999"
         style="stop-color:#ffffff;stop-opacity:1"
         offset="0" />
      <stop
         id="stop4001"
         style="stop-color:#ffffff;stop-opacity:0"
         offset="1" />
    </linearGradient>
    <linearGradient
       x1="24"
       y1="48"
       x2="24"
       y2="88"
       id="linearGradient4007"
       xlink:href="#linearGradient3997"
       gradientUnits="userSpaceOnUse"
       gradientTransform="translate(42,-42)" />
    <linearGradient
       id="linearGradient3131">
      <stop
         id="stop3133"
         style="stop-color:#ffffff;stop-opacity:1"
         offset="0" />
      <stop
         id="stop3135"
         style="stop-color:#ffffff;stop-opacity:0"
         offset="1" />
    </linearGradient>
    <linearGradient
       x1="24"
       y1="48"
       x2="24"
       y2="88"
       id="linearGradient4011"
       xlink:href="#linearGradient3997"
       gradientUnits="userSpaceOnUse"
       gradientTransform="translate(0,-42)" />
    <linearGradient
       id="linearGradient3138">
      <stop
         id="stop3140"
         style="stop-color:#ffffff;stop-opacity:1"
         offset="0" />
      <stop
         id="stop3142"
         style="stop-color:#ffffff;stop-opacity:0"
         offset="1" />
    </linearGradient>
    <linearGradient
       x1="24"
       y1="48"
       x2="24"
       y2="88"
       id="linearGradient4015"
       xlink:href="#linearGradient3997"
       gradientUnits="userSpaceOnUse"
       gradientTransform="translate(42,0)" />
    <linearGradient
       id="linearGradient3145">
      <stop
         id="stop3147"
         style="stop-color:#ffffff;stop-opacity:1"
         offset="0" />
      <stop
         id="stop3149"
         style="stop-color:#ffffff;stop-opacity:0"
         offset="1" />
    </linearGradient>
    <radialGradient
       cx="48"
       cy="69"
       r="42"
       fx="48"
       fy="69"
       id="radialGradient4028"
       xlink:href="#linearGradient4022"
       gradientUnits="userSpaceOnUse"
       gradientTransform="matrix(1.1428571,0,0,0.95238094,-6.8571427,-17.714285)" />
    <linearGradient
       id="linearGradient4022">
      <stop
         id="stop4024"
         style="stop-color:#000000;stop-opacity:1"
         offset="0" />
      <stop
         id="stop4026"
         style="stop-color:#000000;stop-opacity:0"
         offset="1" />
    </linearGradient>
    <radialGradient
       cx="48"
       cy="69"
       r="42"
       fx="48"
       fy="69"
       id="radialGradient4032"
       xlink:href="#linearGradient4022"
       gradientUnits="userSpaceOnUse"
       gradientTransform="matrix(1.1428571,0,0,0.95238094,-6.8571427,24.285715)" />
    <linearGradient
       id="linearGradient3156">
      <stop
         id="stop3158"
         style="stop-color:#000000;stop-opacity:1"
         offset="0" />
      <stop
         id="stop3160"
         style="stop-color:#000000;stop-opacity:0"
         offset="1" />
    </linearGradient>
    <clipPath
       clipPathUnits="userSpaceOnUse"
       id="clipPath3122">
      <rect
         x="5.9999967"
         y="5.9999952"
         width="84.000008"
         height="84.000008"
         style="fill:url(#linearGradient3126);fill-opacity:1"
         id="rect3124"
         rx="22.82609"
         ry="22.82609" />
    </clipPath>
    <linearGradient
       inkscape:collect="always"
       xlink:href="#linearGradient3795"
       id="linearGradient3126"
       gradientUnits="userSpaceOnUse"
       gradientTransform="matrix(1.0500001,0,0,1.0500001,-2.3999552,-1006.5791)"
       x1="47.999954"
       y1="962.62189"
       x2="47.999954"
       y2="1046.1001" />
    <clipPath
       clipPathUnits="userSpaceOnUse"
       id="clipPath3009">
      <path
         id="path3011"
         d="m -2,956.36218 -96,0 0,33.5624 96,25.68742 0,-59.24982 z"
         style="opacity:0.15;fill:#ffffff;fill-opacity:1;stroke:none"
         inkscape:connector-curvature="0" />
    </clipPath>
  </defs>
  <sodipodi:namedview
     id="base"
     pagecolor="#ffffff"
     bordercolor="#666666"
     borderopacity="1.0"
     inkscape:pageopacity="0.0"
     inkscape:pageshadow="2"
     inkscape:zoom="3.959798"
     inkscape:cx="37.957448"
     inkscape:cy="59.964634"
     inkscape:document-units="px"
     inkscape:current-layer="layer1"
     showgrid="false"
     inkscape:window-width="1280"
     inkscape:window-height="750"
     inkscape:window-x="0"
     inkscape:window-y="22"
     inkscape:window-maximized="1"
     showguides="true"
     inkscape:guide-bbox="true">
    <sodipodi:guide
       orientation="0,1"
       position="-24.748737,0"
       id="guide11064" />
    <sodipodi:guide
       orientation="0,1"
       position="-23.233509,96"
       id="guide11066" />
    <sodipodi:guide
       orientation="1,0"
       position="0,54.800776"
       id="guide11068" />
    <sodipodi:guide
       orientation="1,0"
       position="96,51.012704"
       id="guide11070" />
    <sodipodi:guide
       orientation="0,1"
       position="-18.94036,48"
       id="guide11072" />
    <sodipodi:guide
       orientation="1,0"
       position="48,79.296975"
       id="guide11074" />
    <sodipodi:guide
       orientation="1,0"
       position="2,75.508903"
       id="guide11076" />
    <sodipodi:guide
       orientation="0,1"
       position="-77.27667,2"
       id="guide11078" />
    <sodipodi:guide
       orientation="1,0"
       position="94,77.781746"
       id="guide11080" />
    <sodipodi:guide
       orientation="0,1"
       position="-65.912454,94"
       id="guide11082" />
  </sodipodi:namedview>
  <metadata
     id="metadata11042">
    <rdf:RDF>
      <cc:Work
         rdf:about="">
        <dc:format>image/svg+xml</dc:format>
        <dc:type
           rdf:resource="http://purl.org/dc/dcmitype/StillImage" />
        <dc:title />
      </cc:Work>
    </rdf:RDF>
  </metadata>
  <g
     inkscape:label="Layer 1"
     inkscape:groupmode="layer"
     id="layer1"
     transform="translate(0,-956.36218)">
    <g
       transform="matrix(1.095238,0,0,1.095238,-4.5714241,951.79076)"
       style="display:inline"
       id="g3077"
       clip-path="url(#clipPath3122)">
      <g
         style="display:inline"
         id="layer3">
        <rect
           style="fill:url(#linearGradient8096);fill-opacity:1;fill-rule:nonzero;stroke:none"
           id="rect8039"
           y="48.000004"
           x="5.9999962"
           ry="6"
           rx="6"
           height="42"
           width="42" />
        <path
           style="opacity:0.3;fill:#ffffff;fill-opacity:1;fill-rule:nonzero;stroke:none"
           id="rect8166"
           inkscape:connector-curvature="0"
           d="m 12,48 c -3.324,0 -6,2.676 -6,6 l 0,30 c 0,3.324 2.676,6.000004 6,6 l 30,0 c 3.324,0 6,-2.675996 6,-6 l 0,-30 c 0,-3.324 -2.676,-6 -6,-6 l -30,0 z m 0,1 30,0 c 2.778924,0 5,2.221076 5,5 l 0,30 c 0,2.778929 -2.221075,5 -5,5 l -30,0 c -2.778922,3e-6 -5,-2.221076 -5,-5 L 7,54 c 0,-2.778924 2.221076,-5 5,-5 z" />
        <rect
           style="fill:url(#linearGradient3975);fill-opacity:1;fill-rule:nonzero;stroke:none"
           id="rect3971"
           y="48.000004"
           x="48"
           ry="6"
           rx="6"
           height="42"
           width="42" />
        <path
           style="opacity:0.2;fill:#ffffff;fill-opacity:1;fill-rule:nonzero;stroke:none"
           id="path3973"
           inkscape:connector-curvature="0"
           d="m 54,48 c -3.324,0 -6,2.676 -6,6 l 0,30 c 0,3.324 2.676,6.000004 6,6 l 30,0 c 3.324,0 6,-2.675996 6,-6 l 0,-30 c 0,-3.324 -2.676,-6 -6,-6 l -30,0 z m 0,1 30,0 c 2.778924,0 5,2.221076 5,5 l 0,30 c 0,2.778929 -2.221075,5 -5,5 l -30,0 c -2.778922,3e-6 -5,-2.221076 -5,-5 l 0,-30 c 0,-2.778924 2.221076,-5 5,-5 z" />
        <rect
           style="fill:url(#linearGradient3987);fill-opacity:1;fill-rule:nonzero;stroke:none"
           id="rect3983"
           y="6.0000038"
           x="48"
           ry="6"
           rx="6"
           height="42"
           width="42" />
        <path
           style="opacity:0.3;fill:#ffffff;fill-opacity:1;fill-rule:nonzero;stroke:none"
           id="path3985"
           inkscape:connector-curvature="0"
           d="m 54,6 c -3.324,0 -6,2.676 -6,6 l 0,30 c 0,3.324 2.676,6.000004 6,6 l 30,0 c 3.324,0 6,-2.675996 6,-6 L 90,12 C 90,8.676 87.324,6 84,6 L 54,6 z m 0,1 30,0 c 2.778924,0 5,2.221076 5,5 l 0,30 c 0,2.778929 -2.221075,5 -5,5 l -30,0 c -2.778922,3e-6 -5,-2.221076 -5,-5 l 0,-30 c 0,-2.778924 2.221076,-5 5,-5 z" />
        <rect
           style="fill:url(#linearGradient3986);fill-opacity:1;fill-rule:nonzero;stroke:none"
           id="rect3989"
           transform="matrix(0,-1,1,0,0,0)"
           y="6"
           x="-48.000004"
           ry="6"
           rx="6"
           height="42"
           width="42" />
        <path
           style="opacity:0.2;fill:#ffffff;fill-opacity:1;fill-rule:nonzero;stroke:none"
           id="path3991"
           inkscape:connector-curvature="0"
           d="M 12,6 C 8.676,6 6,8.676 6,12 l 0,30 c 0,3.324 2.676,6.000004 6,6 l 30,0 c 3.324,0 6,-2.675996 6,-6 L 48,12 C 48,8.676 45.324,6 42,6 L 12,6 z m 0,1 30,0 c 2.778924,0 5,2.221076 5,5 l 0,30 c 0,2.778929 -2.221075,5 -5,5 l -30,0 c -2.778922,3e-6 -5,-2.221076 -5,-5 L 7,12 C 7,9.221076 9.221076,7 12,7 z" />
        <path
           style="opacity:0.4;fill:url(#linearGradient4003);fill-opacity:1;fill-rule:nonzero;stroke:none"
           id="path3995"
           inkscape:connector-curvature="0"
           d="m 12,48 c -3.324,0 -6,2.676 -6,6 l 0,30 c 0,2.984862 2.152831,5.434872 5,5.90625 C 8.713211,89.443131 7,87.431559 7,85 L 7,55 c 0,-2.778924 2.221076,-5 5,-5 l 30,0 c 2.778924,0 5,2.221076 5,5 l 0,30 c 0,2.431563 -1.71321,4.44313 -4,4.90625 C 45.847169,89.43487 48,86.984866 48,84 l 0,-30 c 0,-3.324 -2.676,-6 -6,-6 l -30,0 z" />
        <path
           style="opacity:0.4;fill:url(#linearGradient4007);fill-opacity:1;fill-rule:nonzero;stroke:none"
           id="path4005"
           inkscape:connector-curvature="0"
           d="m 54,6 c -3.324,0 -6,2.676 -6,6 l 0,30 c 0,2.984862 2.152831,5.434872 5,5.90625 C 50.713211,47.443131 49,45.431559 49,43 l 0,-30 c 0,-2.778924 2.221076,-5 5,-5 l 30,0 c 2.778924,0 5,2.221076 5,5 l 0,30 c 0,2.431563 -1.71321,4.44313 -4,4.90625 C 87.847169,47.43487 90,44.984866 90,42 L 90,12 C 90,8.676 87.324,6 84,6 L 54,6 z" />
        <path
           style="opacity:0.35;fill:url(#linearGradient4011);fill-opacity:1;fill-rule:nonzero;stroke:none"
           id="path4009"
           inkscape:connector-curvature="0"
           d="M 12,6 C 8.676,6 6,8.676 6,12 l 0,30 c 0,2.984862 2.152831,5.434872 5,5.90625 C 8.713211,47.443131 7,45.431559 7,43 L 7,13 C 7,10.221076 9.221076,8 12,8 l 30,0 c 2.778924,0 5,2.221076 5,5 l 0,30 c 0,2.431563 -1.71321,4.44313 -4,4.90625 C 45.847169,47.43487 48,44.984866 48,42 L 48,12 C 48,8.676 45.324,6 42,6 L 12,6 z" />
        <path
           style="opacity:0.2;fill:url(#linearGradient4015);fill-opacity:1;fill-rule:nonzero;stroke:none"
           id="path4013"
           inkscape:connector-curvature="0"
           d="m 54,48 c -3.324,0 -6,2.676 -6,6 l 0,30 c 0,2.984862 2.152831,5.434872 5,5.90625 C 50.713211,89.443131 49,87.431559 49,85 l 0,-30 c 0,-2.778924 2.221076,-5 5,-5 l 30,0 c 2.778924,0 5,2.221076 5,5 l 0,30 c 0,2.431563 -1.71321,4.44313 -4,4.90625 C 87.847169,89.43487 90,86.984866 90,84 l 0,-30 c 0,-3.324 -2.676,-6 -6,-6 l -30,0 z" />
        <path
           style="opacity:0.3;fill:url(#radialGradient4028);fill-opacity:1;fill-rule:nonzero;stroke:none"
           id="path4011"
           inkscape:connector-curvature="0"
           d="M 12,6 C 8.676,6 6,8.676 6,12 l 0,30 c 0,3.324 2.676,6 6,6 l 30,0 c 3.324,0 6,-2.676 6,-6 0,3.324 2.676,6 6,6 l 30,0 c 3.324,0 6,-2.676 6,-6 L 90,12 C 90,8.676 87.324,6 84,6 L 54,6 C 50.676,6 48,8.676 48,12 48,8.676 45.324,6 42,6 L 12,6 z m 0,1 30,0 c 2.786131,0 5,2.2138686 5,5 l 0,30 c 0,2.786131 -2.213869,5 -5,5 L 12,47 C 9.2138686,47 7,44.786131 7,42 L 7,12 C 7,9.2138686 9.2138686,7 12,7 z m 42,0 30,0 c 2.786131,0 5,2.2138686 5,5 l 0,30 c 0,2.786131 -2.213869,5 -5,5 l -30,0 c -2.786131,0 -5,-2.213869 -5,-5 l 0,-30 c 0,-2.7861314 2.213869,-5 5,-5 z" />
        <path
           style="opacity:0.3;fill:url(#radialGradient4032);fill-opacity:1;fill-rule:nonzero;stroke:none"
           id="path4030"
           inkscape:connector-curvature="0"
           d="m 12,48 c -3.324,0 -6,2.676 -6,6 l 0,30 c 0,3.324 2.676,6 6,6 l 30,0 c 3.324,0 6,-2.676 6,-6 0,3.324 2.676,6 6,6 l 30,0 c 3.324,0 6,-2.676 6,-6 l 0,-30 c 0,-3.324 -2.676,-6 -6,-6 l -30,0 c -3.324,0 -6,2.676 -6,6 0,-3.324 -2.676,-6 -6,-6 l -30,0 z m 0,1 30,0 c 2.786131,0 5,2.213869 5,5 l 0,30 c 0,2.786131 -2.213869,5 -5,5 L 12,89 C 9.2138686,89 7,86.786131 7,84 L 7,54 c 0,-2.786131 2.2138686,-5 5,-5 z m 42,0 30,0 c 2.786131,0 5,2.213869 5,5 l 0,30 c 0,2.786131 -2.213869,5 -5,5 l -30,0 c -2.786131,0 -5,-2.213869 -5,-5 l 0,-30 c 0,-2.786131 2.213869,-5 5,-5 z" />
        <path
           inkscape:connector-curvature="0"
           style="font-size:11px;font-style:normal;font-variant:normal;font-weight:bold;font-stretch:normal;text-align:start;line-height:125%;letter-spacing:0px;word-spacing:0px;writing-mode:lr-tb;text-anchor:start;opacity:0.05;fill:#ffffff;fill-opacity:1;stroke:none;font-family:BabelSans;-inkscape-font-specification:BabelSans Bold"
           id="path4054"
           transform="translate(2,2)"
           d="M 20.78125,9.96875 C 18.771256,9.9687815 16.906358,10.442002 15.375,11.5 a 0.97740654,0.97740654 0 0 0 0,0.03125 0.97740654,0.97740654 0 0 0 -0.0625,0.03125 0.97740654,0.97740654 0 0 0 -0.15625,0.15625 0.97740654,0.97740654 0 0 0 -0.03125,0.0625 c -1.237265,0.930727 -2.277982,2.072219 -3.03125,3.4375 -0.766661,1.389587 -1.356136,2.89811 -1.6875,4.53125 a 0.97740654,0.97740654 0 0 0 0,0.03125 0.97740654,0.97740654 0 0 0 0,0.15625 c -0.273193,1.493408 -0.4375,2.965797 -0.4375,4.375 0,1.368868 0.190225,2.762115 0.5,4.1875 -1.1e-5,7.23e-4 -1.1e-5,0.03053 0,0.03125 A 0.97740654,0.97740654 0 0 0 10.5,28.75 c 0.349675,1.442424 0.920716,2.760457 1.625,4 0.0047,0.0083 -0.0047,0.02294 0,0.03125 a 0.97740654,0.97740654 0 0 0 0.125,0.3125 0.97740654,0.97740654 0 0 0 0,0.03125 c 0.855741,1.384301 1.97899,2.562978 3.3125,3.46875 a 0.97740654,0.97740654 0 0 0 0.0625,0 0.97740654,0.97740654 0 0 0 0.03125,0.03125 0.97740654,0.97740654 0 0 0 0.28125,0.125 c 0.0082,0.0048 0.02307,-0.0048 0.03125,0 1.410955,0.82758 3.02643,1.28125 4.78125,1.28125 1.943854,0 3.766687,-0.459053 5.28125,-1.46875 a 0.97740654,0.97740654 0 0 0 0.03125,0 C 27.427287,35.62736 28.540543,34.416015 29.375,33 c 0.794099,-1.371655 1.394153,-2.879375 1.75,-4.46875 0.34115,-1.523888 0.499979,-3.009678 0.5,-4.46875 -2.1e-5,-0.965726 -0.09635,-1.954385 -0.25,-2.9375 0.03354,0.251479 0.03691,0.24176 0,-0.03125 -0.138937,-1.027192 -0.366608,-2.055788 -0.6875,-3.03125 -0.0053,-0.02078 0.007,-0.0084 0,-0.03125 -0.314669,-1.033016 -0.757592,-2.009141 -1.28125,-2.9375 -0.551026,-0.976761 -1.225404,-1.871098 -2.03125,-2.625 -0.861335,-0.805718 -1.84393,-1.382477 -2.90625,-1.8125 -1.12895,-0.468062 -2.374417,-0.6874682 -3.6875,-0.6875 z m 0.03125,7 c 0.752638,1.7e-5 1.083675,0.123204 1.4375,0.40625 0.483979,0.387203 0.890203,0.854668 1.1875,1.4375 a 0.97740654,0.97740654 0 0 0 0,0.03125 0.97740654,0.97740654 0 0 0 0.0625,0.125 c 0.346512,0.709561 0.590936,1.487305 0.75,2.40625 0.166856,0.945669 0.249975,1.880141 0.25,2.71875 -1.4e-5,0.862503 -0.08228,1.768253 -0.25,2.71875 -0.158334,0.897084 -0.400455,1.659246 -0.75,2.375 -0.28885,0.577686 -0.698735,1.039982 -1.25,1.46875 -0.359907,0.277639 -0.724918,0.437503 -1.5,0.4375 -0.705015,2e-6 -1.0764,-0.148199 -1.4375,-0.40625 -0.490035,-0.378021 -0.869668,-0.813779 -1.1875,-1.375 -0.0077,-0.01362 -0.02361,-0.01746 -0.03125,-0.03125 -0.0016,-0.0041 5.3e-5,-0.03114 0,-0.03125 -0.343514,-0.675904 -0.61019,-1.423112 -0.78125,-2.25 0.05855,0.318857 0.06179,0.308685 0,-0.03125 -0.162662,-0.894913 -0.25,-1.73778 -0.25,-2.5625 -7e-6,-0.533555 0.02316,-1.152774 0.0625,-1.78125 0.03756,-0.619654 0.114239,-1.210031 0.21875,-1.75 0.105241,-0.561285 0.230317,-1.083415 0.40625,-1.53125 0.162047,-0.427232 0.356616,-0.745665 0.5625,-1 0.406555,-0.500366 0.796254,-0.860904 1.1875,-1.09375 0.0056,-0.0034 0.02561,0.0033 0.03125,0 0.337702,-0.186114 0.716684,-0.281234 1.28125,-0.28125 z m 33.03125,35 c -0.0023,1.78e-4 -0.185242,0.03086 -0.1875,0.03125 -0.0023,3.92e-4 -0.185289,0.03065 -0.1875,0.03125 -0.0022,6.02e-4 -0.185356,0.06169 -0.1875,0.0625 -0.0021,8.08e-4 -0.185441,0.06149 -0.1875,0.0625 -0.0021,10e-4 -0.154295,0.09255 -0.15625,0.09375 -0.002,0.0012 -0.154416,0.123626 -0.15625,0.125 -0.0018,0.0014 -0.154554,0.09221 -0.15625,0.09375 -0.0017,0.0015 -0.123456,0.154557 -0.125,0.15625 -0.0015,0.0017 -0.123622,0.123169 -0.125,0.125 -0.0014,0.0018 -0.123801,0.185548 -0.125,0.1875 -0.0012,0.002 -0.09274,0.154193 -0.09375,0.15625 -10e-4,0.0021 -0.06169,0.185357 -0.0625,0.1875 -8.12e-4,0.0021 -0.06189,0.15404 -0.0625,0.15625 -6.07e-4,0.0022 -0.03085,0.185243 -0.03125,0.1875 -3.96e-4,0.0023 -0.03107,0.185216 -0.03125,0.1875 -1.82e-4,0.0023 -3.4e-5,0.185209 0,0.1875 l 0,24 c -1.4e-5,0.0012 -4.6e-5,0.09254 0,0.09375 4.6e-5,0.0012 -1.06e-4,0.09254 0,0.09375 1.06e-4,0.0012 -1.66e-4,0.09255 0,0.09375 1.66e-4,0.0012 0.03102,0.09256 0.03125,0.09375 2.26e-4,0.0012 0.03097,0.123823 0.03125,0.125 2.85e-4,0.0012 -3.43e-4,0.09259 0,0.09375 3.43e-4,0.0012 0.03085,0.09261 0.03125,0.09375 4.01e-4,0.0011 0.06204,0.09263 0.0625,0.09375 4.57e-4,0.0011 0.03074,0.09265 0.03125,0.09375 5.12e-4,0.0011 0.03068,0.09268 0.03125,0.09375 5.66e-4,0.0011 0.06188,0.09271 0.0625,0.09375 6.19e-4,0.001 0.06183,0.06149 0.0625,0.0625 6.7e-4,0.001 0.03053,0.09278 0.03125,0.09375 7.19e-4,9.75e-4 0.06173,0.06156 0.0625,0.0625 7.67e-4,9.37e-4 0.06169,0.09285 0.0625,0.09375 8.13e-4,8.98e-4 0.09289,0.06164 0.09375,0.0625 8.57e-4,8.57e-4 0.0616,0.09294 0.0625,0.09375 8.98e-4,8.13e-4 0.09281,0.06173 0.09375,0.0625 9.37e-4,7.67e-4 0.06153,0.06178 0.0625,0.0625 9.75e-4,7.19e-4 0.09274,0.03058 0.09375,0.03125 10e-4,6.7e-4 0.06146,0.06188 0.0625,0.0625 10e-4,6.19e-4 0.09268,0.06193 0.09375,0.0625 0.0011,5.66e-4 0.09265,0.03074 0.09375,0.03125 0.0011,5.12e-4 0.09263,0.03079 0.09375,0.03125 0.0011,4.57e-4 0.09261,0.0621 0.09375,0.0625 0.0011,4.01e-4 0.09259,0.03091 0.09375,0.03125 0.0012,3.43e-4 0.09257,-2.85e-4 0.09375,0 0.0012,2.85e-4 0.12381,0.03102 0.125,0.03125 0.0012,2.26e-4 0.09255,0.03108 0.09375,0.03125 0.0012,1.66e-4 0.09254,-1.06e-4 0.09375,0 0.0012,1.06e-4 0.09254,-4.6e-5 0.09375,0 0.0012,4.6e-5 0.09254,1.4e-5 0.09375,0 l 7.3125,0 c 2.644318,0 5.012163,-0.719495 6.75,-2.3125 1.826052,-1.646452 2.624983,-4.091915 2.625,-6.84375 -1.9e-5,-1.481357 -0.354148,-2.895781 -1,-4.1875 -0.364611,-0.760899 -0.957709,-1.272468 -1.53125,-1.8125 0.272966,-0.315002 0.566386,-0.538782 0.78125,-1.0625 0.45866,-1.079227 0.718729,-2.231939 0.71875,-3.4375 -1.7e-5,-2.328737 -0.775747,-4.382883 -2.25,-5.90625 -0.06124,-0.106341 -0.113063,-0.198273 -0.125,-0.21875 -0.0064,-0.0062 -0.02484,0.0062 -0.03125,0 -1.553492,-1.500773 -3.680448,-2.281221 -6.03125,-2.28125 l -7.1875,0 c -4.34e-4,-1.9e-5 -0.01965,1.2e-5 -0.03125,0 -0.0464,-4.7e-5 -0.123265,-7.8e-5 -0.125,0 a 0.97740654,0.97740654 0 0 0 -0.03125,0 z m 5.28125,7.125 1.3125,0 c 0.652942,1.9e-5 1.165924,0.03807 1.5,0.09375 0.22251,0.03709 0.244889,0.0656 0.28125,0.09375 0.0037,0.0028 0.02797,-0.0026 0.03125,0 a 0.97740654,0.97740654 0 0 0 0.0625,0.0625 C 62.37056,59.3873 62.33213,59.2962 62.40625,59.5 a 0.97740654,0.97740654 0 0 0 0.03125,0.03125 0.97740654,0.97740654 0 0 0 0,0.0625 c 0.01141,0.05382 0.09375,0.430986 0.09375,1 -1e-5,1.021229 -0.340608,1.241257 -0.09375,1.0625 -0.03052,0.0221 -0.646525,0.281261 -1.71875,0.28125 l -1.59375,0 0,-2.84375 z m 0,10 1.875,0 c 1.174784,1.1e-5 1.799265,0.247889 2.09375,0.46875 0.14012,0.105093 0.343741,0.294131 0.34375,1.4375 -9e-6,1.107453 -0.310279,1.501963 -0.34375,1.53125 -0.172633,0.151052 -0.653915,0.406254 -1.75,0.40625 l -2.21875,0 0,-3.84375 z" />
        <path
           inkscape:connector-curvature="0"
           style="font-size:11px;font-style:normal;font-variant:normal;font-weight:bold;font-stretch:normal;text-align:start;line-height:125%;letter-spacing:0px;word-spacing:0px;writing-mode:lr-tb;text-anchor:start;opacity:0.05;fill:#ffffff;fill-opacity:1;stroke:none;font-family:BabelSans;-inkscape-font-specification:BabelSans Bold"
           id="path4050"
           transform="translate(2,2)"
           d="m 20.78125,10.9375 c -1.853279,2.9e-5 -3.498852,0.445825 -4.84375,1.375 a 1.0502481,1.0502481 0 0 0 0,0.03125 c -1.251772,0.880901 -2.25892,2.000559 -3,3.34375 -0.721125,1.307052 -1.250928,2.714408 -1.5625,4.25 a 1.0502481,1.0502481 0 0 0 0,0.03125 c -0.28241,1.499018 -0.4375,2.957597 -0.4375,4.34375 0,1.358237 0.171648,2.742795 0.5,4.1875 a 1.0502481,1.0502481 0 0 0 0,0.03125 c 0.356886,1.472169 0.911248,2.820842 1.65625,4.0625 a 1.0502481,1.0502481 0 0 0 0,0.03125 c 0.783406,1.267287 1.80682,2.324569 3.03125,3.15625 a 1.0502481,1.0502481 0 0 0 0.03125,0 c 1.31194,0.850337 2.866488,1.28125 4.59375,1.28125 1.788037,0 3.422654,-0.427613 4.75,-1.3125 1.247482,-0.854764 2.267296,-1.953623 3.03125,-3.25 0.742983,-1.283362 1.290164,-2.691969 1.625,-4.1875 0.327914,-1.464765 0.49998,-2.872291 0.5,-4.25 -2e-5,-0.904792 -0.09883,-1.851876 -0.25,-2.8125 -0.0014,-0.01015 0.0014,-0.0211 0,-0.03125 -0.132705,-0.98112 -0.351111,-1.953511 -0.65625,-2.875 -0.0028,-0.0092 0.0028,-0.02204 0,-0.03125 -0.292281,-0.959518 -0.695805,-1.878306 -1.1875,-2.75 -0.50773,-0.900013 -1.116423,-1.694556 -1.84375,-2.375 -0.756644,-0.707787 -1.648157,-1.229578 -2.625,-1.625 -0.999808,-0.41452 -2.11379,-0.624971 -3.3125,-0.625 z M 20.8125,16 c 0.896996,2e-5 1.529695,0.198776 2.0625,0.625 0.61251,0.490033 1.130424,1.100694 1.5,1.875 a 1.0502481,1.0502481 0 0 0 0,0.03125 c 0.390957,0.800573 0.671042,1.689731 0.84375,2.6875 0.177756,1.007448 0.249973,1.983626 0.25,2.875 -1.5e-5,0.913698 -0.07183,1.865277 -0.25,2.875 -0.172324,0.97635 -0.451399,1.852844 -0.84375,2.65625 -0.363808,0.727598 -0.891403,1.314834 -1.53125,1.8125 -0.527948,0.407269 -1.165791,0.625003 -2.09375,0.625 -0.87374,3e-6 -1.500934,-0.207198 -2.03125,-0.59375 -0.60502,-0.466722 -1.107213,-1.024734 -1.5,-1.75 -0.0043,-0.0084 0.0043,-0.02288 0,-0.03125 -0.381006,-0.749673 -0.685696,-1.58492 -0.875,-2.5 -0.002,-0.01075 0.002,-0.0205 0,-0.03125 -0.173268,-0.953262 -0.25,-1.868561 -0.25,-2.75 -7e-6,-0.559242 0.02203,-1.197332 0.0625,-1.84375 0.03911,-0.645098 0.102623,-1.275014 0.21875,-1.875 0.114006,-0.608029 0.265201,-1.16937 0.46875,-1.6875 0.195763,-0.516123 0.442837,-0.940405 0.71875,-1.28125 0.468995,-0.577215 0.951858,-1.009072 1.46875,-1.3125 0.0084,-0.0047 0.02286,0.0046 0.03125,0 0.494844,-0.272718 1.059474,-0.406231 1.75,-0.40625 z M 54,52.9375 A 1.0502481,1.0502481 0 0 0 52.9375,54 l 0,24 A 1.0502481,1.0502481 0 0 0 54,79.0625 l 7.3125,0 c 2.468031,0 4.572221,-0.667776 6.09375,-2.0625 1.576271,-1.421238 2.312484,-3.560181 2.3125,-6.125 -1.7e-5,-1.322961 -0.321658,-2.580803 -0.90625,-3.75 -0.426102,-0.889222 -1.090026,-1.586945 -1.875,-2.1875 0.388371,-0.487631 0.851448,-0.909403 1.09375,-1.5 0.415365,-0.977354 0.656232,-2.005383 0.65625,-3.0625 -1.6e-5,-2.199651 -0.718152,-4.070239 -2.09375,-5.40625 -0.0063,-0.0062 0.0064,-0.02511 0,-0.03125 -1.35424,-1.317685 -3.220863,-1.999973 -5.375,-2 l -7.21875,0 z m 4.15625,5.1875 2.28125,0 c 0.673497,2e-5 1.221431,0.02128 1.65625,0.09375 0.364203,0.06071 0.603043,0.169954 0.78125,0.3125 a 1.0502481,1.0502481 0 0 0 0.03125,0.03125 c 0.175923,0.131961 0.292801,0.281798 0.40625,0.59375 a 1.0502481,1.0502481 0 0 0 0.03125,0.03125 c 0.100778,0.264578 0.15625,0.74713 0.15625,1.40625 -1.1e-5,1.173483 -0.27424,1.680271 -0.5,1.84375 -0.349033,0.252752 -1.090798,0.468762 -2.28125,0.46875 l -2.5625,0 0,-4.78125 z m 0,10 2.84375,0 c 1.302864,1.2e-5 2.154009,0.256137 2.6875,0.65625 0.43966,0.329754 0.71874,0.933867 0.71875,2.21875 -1e-5,1.255335 -0.284944,1.956354 -0.65625,2.28125 -0.433492,0.379302 -1.179653,0.625004 -2.40625,0.625 l -3.1875,0 0,-5.78125 z" />
        <path
           style="font-size:11px;font-style:normal;font-variant:normal;font-weight:bold;font-stretch:normal;text-align:start;line-height:125%;letter-spacing:0px;word-spacing:0px;writing-mode:lr-tb;text-anchor:start;opacity:0.6;fill:#000000;fill-opacity:1;stroke:none;font-family:BabelSans;-inkscape-font-specification:BabelSans Bold"
           id="path4041"
           inkscape:connector-curvature="0"
           d="m 22.78125,14 c -1.68971,2.6e-5 -3.102678,0.394828 -4.25,1.1875 -1.126472,0.792724 -2.019968,1.790114 -2.6875,3 -0.66754,1.209928 -1.145454,2.529392 -1.4375,3.96875 C 14.135074,23.595638 14,24.998303 14,26.3125 c 0,1.272501 0.155835,2.591965 0.46875,3.96875 0.333766,1.376798 0.842851,2.63393 1.53125,3.78125 0.709251,1.14733 1.613139,2.092775 2.71875,2.84375 C 19.845211,37.636368 21.185454,38 22.75,38 c 1.627106,0 3.029771,-0.374023 4.15625,-1.125 1.126454,-0.771837 2.030336,-1.738059 2.71875,-2.90625 0.688378,-1.189042 1.187076,-2.477339 1.5,-3.875 0.312888,-1.397645 0.468731,-2.737888 0.46875,-4.03125 C 31.593731,25.207233 31.521023,24.292878 31.375,23.375 31.249806,22.436295 31.042026,21.532407 30.75,20.65625 30.478793,19.759265 30.115163,18.907327 29.65625,18.09375 29.197303,17.28021 28.646661,16.573727 28,15.96875 27.353313,15.36382 26.563627,14.885903 25.6875,14.53125 24.832207,14.176646 23.865983,14.000026 22.78125,14 z m 0.03125,2.9375 c 1.084733,2.4e-5 1.988622,0.290925 2.71875,0.875 0.730104,0.584112 1.343164,1.332158 1.78125,2.25 0.438055,0.897017 0.749739,1.88402 0.9375,2.96875 0.187716,1.063899 0.281221,2.102928 0.28125,3.0625 -1.6e-5,0.980453 -0.09352,1.998626 -0.28125,3.0625 -0.187775,1.063894 -0.499445,2.040507 -0.9375,2.9375 -0.438084,0.876146 -1.061535,1.603408 -1.8125,2.1875 -0.730128,0.563235 -1.644406,0.843754 -2.75,0.84375 -1.063894,4e-6 -1.957389,-0.270117 -2.6875,-0.8125 -0.730123,-0.563228 -1.322325,-1.269712 -1.78125,-2.125 -0.438077,-0.855273 -0.760149,-1.790328 -0.96875,-2.8125 -0.187745,-1.022153 -0.28125,-2.009157 -0.28125,-2.96875 -7e-6,-0.584083 0.02071,-1.238704 0.0625,-1.90625 0.04173,-0.688382 0.124833,-1.353306 0.25,-2 0.12516,-0.667518 0.301781,-1.29089 0.53125,-1.875 0.229449,-0.604936 0.520366,-1.124409 0.875,-1.5625 0.542366,-0.667517 1.134566,-1.186993 1.78125,-1.5625 0.667527,-0.37547 1.425958,-0.562476 2.28125,-0.5625 z M 56,56 l 0,24 7.3125,0 c 2.285706,0 4.081188,-0.595265 5.375,-1.78125 1.315351,-1.185981 1.968735,-2.971776 1.96875,-5.34375 -1.5e-5,-1.164412 -0.263731,-2.246201 -0.78125,-3.28125 -0.49597,-1.035028 -1.296846,-1.84559 -2.375,-2.40625 0.690013,-0.603761 1.217472,-1.315264 1.5625,-2.15625 0.366561,-0.862518 0.562485,-1.750572 0.5625,-2.65625 -1.5e-5,-2.005371 -0.58559,-3.566183 -1.75,-4.6875 C 66.732134,56.56623 65.181003,56.000025 63.21875,56 L 56,56 z m 3.09375,3.0625 3.34375,0 c 0.711583,2.1e-5 1.326222,0.03875 1.84375,0.125 0.517511,0.08626 0.926542,0.272519 1.25,0.53125 0.345004,0.25879 0.608733,0.619379 0.78125,1.09375 0.172492,0.452853 0.25,1.048115 0.25,1.78125 -1.2e-5,1.336944 -0.312174,2.234683 -0.9375,2.6875 -0.625348,0.452845 -1.590892,0.687513 -2.90625,0.6875 l -3.625,0 0,-6.90625 z m 0,10 3.90625,0 c 1.444735,1.3e-5 2.536211,0.292791 3.3125,0.875 0.776269,0.582219 1.156239,1.596201 1.15625,3.0625 -1.1e-5,1.423186 -0.341234,2.45873 -1.03125,3.0625 -0.690036,0.603777 -1.713705,0.906254 -3.09375,0.90625 l -4.25,0 0,-7.90625 z" />
      </g>
    </g>
    <rect
       ry="25"
       rx="25"
       id="rect3003"
       style="opacity:0.15;fill:#ffffff;fill-opacity:1"
       height="92"
       width="92"
       y="958.36218"
       x="-96"
       clip-path="url(#clipPath3009)"
       transform="translate(98,3.8281269e-7)" />
  </g>
</svg>
