<?xml version="1.0" encoding="UTF-8" standalone="no"?>
<!-- Created with Inkscape (http://www.inkscape.org/) -->

<svg
   xmlns:dc="http://purl.org/dc/elements/1.1/"
   xmlns:cc="http://creativecommons.org/ns#"
   xmlns:rdf="http://www.w3.org/1999/02/22-rdf-syntax-ns#"
   xmlns:svg="http://www.w3.org/2000/svg"
   xmlns="http://www.w3.org/2000/svg"
   xmlns:xlink="http://www.w3.org/1999/xlink"
   xmlns:sodipodi="http://sodipodi.sourceforge.net/DTD/sodipodi-0.dtd"
   xmlns:inkscape="http://www.inkscape.org/namespaces/inkscape"
   width="96"
   height="96"
   id="svg11037"
   version="1.1"
   inkscape:version="0.48.3.1 r9886"
   sodipodi:docname="openerp-client.svg">
  <defs
     id="defs11039">
    <linearGradient
       y2="1046.1001"
       x2="47.999954"
       y1="962.62189"
       x1="47.999954"
       gradientTransform="matrix(1.15,0,0,1.15,-7.1999462,-150.65291)"
       gradientUnits="userSpaceOnUse"
       id="linearGradient3886"
       xlink:href="#linearGradient3795"
       inkscape:collect="always" />
    <linearGradient
       id="linearGradient3795">
      <stop
         style="stop-color:#13a6fd;stop-opacity:1;"
         offset="0"
         id="stop3797" />
      <stop
         style="stop-color:#2975b6;stop-opacity:1;"
         offset="1"
         id="stop3799" />
    </linearGradient>
    <linearGradient
       y2="1046.1001"
       x2="47.999954"
       y1="962.62189"
       x1="47.999954"
       gradientTransform="matrix(1.15,0,0,1.15,-7.1999462,-150.65292)"
       gradientUnits="userSpaceOnUse"
       id="linearGradient11642"
       xlink:href="#linearGradient3700"
       inkscape:collect="always" />
    <linearGradient
       x1="48"
       y1="90"
       x2="48"
       y2="5.9877172"
       id="linearGradient3617"
       xlink:href="#linearGradient3700"
       gradientUnits="userSpaceOnUse" />
    <linearGradient
       id="linearGradient3700">
      <stop
         id="stop3702"
         style="stop-color:#b4b4b4;stop-opacity:1"
         offset="0" />
      <stop
         id="stop3704"
         style="stop-color:#e6e6e6;stop-opacity:1"
         offset="1" />
    </linearGradient>
    <linearGradient
       gradientTransform="translate(-30.827407,926.58043)"
       y2="5.9877172"
       x2="48"
       y1="90"
       x1="48"
       gradientUnits="userSpaceOnUse"
       id="linearGradient3046"
       xlink:href="#linearGradient3700"
       inkscape:collect="always" />
    <linearGradient
       x1="36.357143"
       y1="6"
       x2="36.357143"
       y2="63.893143"
       id="linearGradient3188"
       xlink:href="#linearGradient3737"
       gradientUnits="userSpaceOnUse" />
    <linearGradient
       id="linearGradient3737">
      <stop
         id="stop3739"
         style="stop-color:#ffffff;stop-opacity:1"
         offset="0" />
      <stop
         id="stop3741"
         style="stop-color:#ffffff;stop-opacity:0"
         offset="1" />
    </linearGradient>
    <radialGradient
       cx="48"
       cy="90.171875"
       r="42"
       fx="48"
       fy="90.171875"
       id="radialGradient3619"
       xlink:href="#linearGradient3737"
       gradientUnits="userSpaceOnUse"
       gradientTransform="matrix(1.1573129,0,0,0.99590774,-7.5510206,0.19713193)" />
    <linearGradient
       id="linearGradient3086">
      <stop
         id="stop3088"
         style="stop-color:#ffffff;stop-opacity:1"
         offset="0" />
      <stop
         id="stop3090"
         style="stop-color:#ffffff;stop-opacity:0"
         offset="1" />
    </linearGradient>
    <linearGradient
       x1="38.176777"
       y1="48.850189"
       x2="38.176777"
       y2="56.016853"
       id="linearGradient3845"
       xlink:href="#linearGradient3818"
       gradientUnits="userSpaceOnUse"
       gradientTransform="matrix(8.9302326,0,0,8.9302326,-284.92751,-420.24354)" />
    <linearGradient
       id="linearGradient3818">
      <stop
         id="stop3820"
         style="stop-color:#aa0000;stop-opacity:1"
         offset="0" />
      <stop
         id="stop3822"
         style="stop-color:#d20000;stop-opacity:1"
         offset="1" />
    </linearGradient>
    <clipPath
       clipPathUnits="userSpaceOnUse"
       id="clipPath3009">
      <path
         id="path3011"
         d="m -2,956.36218 -96,0 0,33.5624 96,25.68742 0,-59.24982 z"
         style="opacity:0.15;fill:#ffffff;fill-opacity:1;stroke:none"
         inkscape:connector-curvature="0" />
    </clipPath>
  </defs>
  <sodipodi:namedview
     id="base"
     pagecolor="#ffffff"
     bordercolor="#666666"
     borderopacity="1.0"
     inkscape:pageopacity="0.0"
     inkscape:pageshadow="2"
     inkscape:zoom="3.959798"
     inkscape:cx="33.538031"
     inkscape:cy="59.964634"
     inkscape:document-units="px"
     inkscape:current-layer="layer1"
     showgrid="false"
     inkscape:window-width="1280"
     inkscape:window-height="750"
     inkscape:window-x="0"
     inkscape:window-y="22"
     inkscape:window-maximized="1"
     showguides="true"
     inkscape:guide-bbox="true">
    <sodipodi:guide
       orientation="0,1"
       position="-24.748737,0"
       id="guide11064" />
    <sodipodi:guide
       orientation="0,1"
       position="-23.233509,96"
       id="guide11066" />
    <sodipodi:guide
       orientation="1,0"
       position="0,54.800776"
       id="guide11068" />
    <sodipodi:guide
       orientation="1,0"
       position="96,51.012704"
       id="guide11070" />
    <sodipodi:guide
       orientation="0,1"
       position="-18.94036,48"
       id="guide11072" />
    <sodipodi:guide
       orientation="1,0"
       position="48,79.296975"
       id="guide11074" />
    <sodipodi:guide
       orientation="1,0"
       position="2,75.508903"
       id="guide11076" />
    <sodipodi:guide
       orientation="0,1"
       position="-77.27667,2"
       id="guide11078" />
    <sodipodi:guide
       orientation="1,0"
       position="94,77.781746"
       id="guide11080" />
    <sodipodi:guide
       orientation="0,1"
       position="-65.912454,94"
       id="guide11082" />
  </sodipodi:namedview>
  <metadata
     id="metadata11042">
    <rdf:RDF>
      <cc:Work
         rdf:about="">
        <dc:format>image/svg+xml</dc:format>
        <dc:type
           rdf:resource="http://purl.org/dc/dcmitype/StillImage" />
        <dc:title />
      </cc:Work>
    </rdf:RDF>
  </metadata>
  <g
     inkscape:label="Layer 1"
     inkscape:groupmode="layer"
     id="layer1"
     transform="translate(0,-956.36218)">
    <rect
       x="2"
       y="958.36218"
       width="92"
       height="92"
       style="fill:url(#linearGradient11642);fill-opacity:1.0"
       id="rect3867"
       rx="25"
       ry="25" />
    <g
       transform="translate(0,956.36218)"
       id="layer1-1">
      <path
         d="m 72.27907,39.418608 c -6.2e-5,-3.523209 -0.47098,-6.715071 -1.412789,-9.575585 -0.941926,-2.860407 -2.267502,-5.302263 -3.976749,-7.325577 -1.709354,-2.023198 -3.767495,-3.575522 -6.174416,-4.656982 -2.372147,-1.116208 -5.023301,-1.674348 -7.953489,-1.674419 -3.209347,7.1e-5 -6.15702,0.627974 -8.84302,1.883725 -2.68608,1.255877 -5.110504,2.930295 -7.273263,5.023256 -2.127932,2.093077 -4.011648,4.517492 -5.651159,7.273255 -1.604673,2.720979 -2.947691,5.58144 -4.029071,8.581391 -1.081415,3.00004 -1.901175,6.034926 -2.459305,9.104658 -0.523223,3.034912 -0.784878,5.895373 -0.784878,8.581391 -1.8e-5,3.488399 0.453477,6.64537 1.360467,9.470931 0.941836,2.825597 2.249981,5.232572 3.924417,7.220933 1.674392,1.988378 3.680203,3.523262 6.017441,4.604651 2.372066,1.081397 5.00578,1.622096 7.901157,1.622087 3.209267,9e-6 6.15694,-0.610471 8.843029,-1.831394 2.720881,-1.255805 5.162737,-2.912783 7.325577,-4.970925 2.197623,-2.058133 4.11623,-4.447666 5.755821,-7.16861 1.639475,-2.720908 2.999933,-5.563928 4.081393,-8.529069 1.116217,-2.999968 1.953426,-5.999964 2.511628,-8.999995 0.55805,-3.034851 0.83712,-5.912752 0.837209,-8.633722 M 42.55814,83.999999 c -4.290727,0 -8.232585,-0.680216 -11.825584,-2.040692 -3.593043,-1.360468 -6.680251,-3.261625 -9.261624,-5.70349 -2.581409,-2.476737 -4.60466,-5.424411 -6.069772,-8.843029 -1.43024,-3.418582 -2.145355,-7.203465 -2.145346,-11.354648 -9e-6,-3.941831 0.401146,-7.761595 1.203483,-11.459301 0.802292,-3.697634 1.98837,-7.168557 3.558144,-10.412794 1.569756,-3.279012 3.488354,-6.279016 5.755812,-8.999996 2.302312,-2.720872 4.936025,-5.058074 7.901166,-7.011625 2.999969,-1.953426 6.313924,-3.470869 9.941858,-4.552329 3.627871,-1.081326 7.56973,-1.622025 11.825584,-1.622097 4.290646,7.2e-5 8.232504,0.680306 11.825584,2.040701 3.592954,1.36053 6.680162,3.279137 9.261624,5.755812 2.581329,2.441919 4.587139,5.389592 6.017441,8.843029 1.46504,3.418654 2.197596,7.186087 2.197677,11.302326 -8.1e-5,3.383754 -0.348905,6.837245 -1.046516,10.360463 -0.662892,3.488399 -1.709372,6.872117 -3.139531,10.151165 -1.39542,3.244201 -3.174483,6.296519 -5.337207,9.156971 -2.162858,2.860478 -4.744249,5.354657 -7.744191,7.482561 -2.965167,2.127905 -6.348886,3.819765 -10.151165,5.075578 -3.802368,1.220933 -8.058177,1.831395 -12.767437,1.831395"
         inkscape:connector-curvature="0"
         id="path3816"
         style="font-size:12px;font-style:italic;font-variant:normal;font-weight:normal;font-stretch:normal;text-align:start;line-height:125%;letter-spacing:0px;word-spacing:0px;writing-mode:lr-tb;text-anchor:start;fill:url(#linearGradient3845);fill-opacity:1;stroke:none;font-family:Liberation Serif;-inkscape-font-specification:Liberation Serif Italic" />
      <path
         d="m 53.4375,11 c -4.255854,7.2e-5 -8.184629,0.543674 -11.8125,1.625 -3.627934,1.08146 -6.937531,2.609074 -9.9375,4.5625 -2.965141,1.953551 -5.603938,4.279128 -7.90625,7 -2.267458,2.72098 -4.180244,5.720988 -5.75,9 -1.569774,3.244237 -2.760208,6.708616 -3.5625,10.40625 -0.802337,3.697706 -1.218759,7.526919 -1.21875,11.46875 0,0.211707 -0.0037,0.415199 0,0.625 0.02476,-3.80862 0.441993,-7.513936 1.21875,-11.09375 0.802292,-3.697634 1.992726,-7.162013 3.5625,-10.40625 1.569756,-3.279012 3.482542,-6.27902 5.75,-9 2.302312,-2.720872 4.941109,-5.046449 7.90625,-7 2.999969,-1.953426 6.309566,-3.48104 9.9375,-4.5625 3.627871,-1.081326 7.556646,-1.624928 11.8125,-1.625 4.290646,7.2e-5 8.25067,0.670855 11.84375,2.03125 3.592954,1.36053 6.668538,3.273325 9.25,5.75 2.581329,2.441919 4.569698,5.390313 6,8.84375 1.401532,3.270458 2.157921,6.872377 2.21875,10.78125 0.0015,-0.154944 -4e-6,-0.314097 0,-0.46875 -8.1e-5,-4.116239 -0.75371,-7.893846 -2.21875,-11.3125 -1.430302,-3.453437 -3.418671,-6.401831 -6,-8.84375 -2.581462,-2.476675 -5.657046,-4.38947 -9.25,-5.75 C 61.68817,11.670855 57.728146,11.000072 53.4375,11 z M 72.25,38.96875 c -0.03507,2.557757 -0.29196,5.262889 -0.8125,8.09375 -0.558202,3.000031 -1.383783,6.000032 -2.5,9 -1.08146,2.965141 -2.454275,5.810342 -4.09375,8.53125 -1.639591,2.720944 -3.552377,5.098117 -5.75,7.15625 -2.16284,2.058142 -4.591619,3.712945 -7.3125,4.96875 -2.686089,1.220923 -5.634483,1.843759 -8.84375,1.84375 -2.895377,9e-6 -5.534184,-0.543603 -7.90625,-1.625 C 32.694012,75.856111 30.674392,74.300878 29,72.3125 c -1.674436,-1.988361 -2.964414,-4.393153 -3.90625,-7.21875 -0.865466,-2.696201 -1.304143,-5.700264 -1.34375,-9 -0.0022,0.17727 -0.03125,0.355474 -0.03125,0.53125 -1.8e-5,3.488399 0.46801,6.643189 1.375,9.46875 0.941836,2.825597 2.231814,5.230389 3.90625,7.21875 1.674392,1.988378 3.694012,3.543611 6.03125,4.625 2.372066,1.081397 5.010873,1.625009 7.90625,1.625 3.209267,9e-6 6.157661,-0.622827 8.84375,-1.84375 2.720881,-1.255805 5.14966,-2.910608 7.3125,-4.96875 2.197623,-2.058133 4.110409,-4.435306 5.75,-7.15625 1.639475,-2.720908 3.01229,-5.566109 4.09375,-8.53125 1.116217,-2.999968 1.941798,-5.999969 2.5,-9 0.55805,-3.034851 0.843661,-5.93528 0.84375,-8.65625 -3e-6,-0.150572 -0.02953,-0.288138 -0.03125,-0.4375 z"
         inkscape:connector-curvature="0"
         id="path3847"
         style="font-size:12px;font-style:italic;font-variant:normal;font-weight:normal;font-stretch:normal;text-align:start;line-height:125%;letter-spacing:0px;word-spacing:0px;writing-mode:lr-tb;text-anchor:start;opacity:0.2;fill:#000000;fill-opacity:1;stroke:none;font-family:Liberation Serif;-inkscape-font-specification:Liberation Serif Italic" />
      <path
         d="m 52.75,16.1875 c -3.209347,7.1e-5 -6.15775,0.619249 -8.84375,1.875 -2.68608,1.255877 -5.087241,2.938289 -7.25,5.03125 C 34.528318,25.186827 32.639511,27.619237 31,30.375 c -1.604673,2.720979 -2.94987,5.562549 -4.03125,8.5625 -1.081415,3.00004 -1.91062,6.055268 -2.46875,9.125 -0.523223,3.034912 -0.78125,5.876482 -0.78125,8.5625 -1e-6,0.159706 0.02935,0.310434 0.03125,0.46875 0.032,-2.53158 0.261017,-5.194946 0.75,-8.03125 0.55813,-3.069732 1.387335,-6.12496 2.46875,-9.125 1.08138,-2.999951 2.426577,-5.841521 4.03125,-8.5625 1.639511,-2.755763 3.528318,-5.188173 5.65625,-7.28125 2.162759,-2.092961 4.56392,-3.775373 7.25,-5.03125 2.686,-1.255751 5.634403,-1.874929 8.84375,-1.875 2.930188,7.1e-5 5.596603,0.571292 7.96875,1.6875 2.406921,1.08146 4.446896,2.633052 6.15625,4.65625 1.709247,2.023314 3.058074,4.452093 4,7.3125 0.901559,2.738263 1.336414,5.779475 1.375,9.125 0.0025,-0.18431 0.03124,-0.379608 0.03125,-0.5625 -6.2e-5,-3.523209 -0.464441,-6.701986 -1.40625,-9.5625 -0.941926,-2.860407 -2.290753,-5.289186 -4,-7.3125 C 65.165646,20.508052 63.125671,18.95646 60.71875,17.875 58.346603,16.758792 55.680188,16.187571 52.75,16.1875 z m 30,24.21875 c -0.0305,3.235184 -0.396773,6.544059 -1.0625,9.90625 -0.662892,3.488399 -1.694841,6.877202 -3.125,10.15625 -1.39542,3.244201 -3.181026,6.295798 -5.34375,9.15625 -2.162858,2.860478 -4.750058,5.340846 -7.75,7.46875 -2.965167,2.127905 -6.353971,3.806687 -10.15625,5.0625 C 51.510132,83.377183 47.27176,84 42.5625,84 38.271773,84 34.311749,83.329226 30.71875,81.96875 27.125707,80.608282 24.050123,78.691865 21.46875,76.25 18.887341,73.773263 16.871362,70.824868 15.40625,67.40625 14.048951,64.162013 13.319213,60.59152 13.25,56.6875 c -8.15e-4,0.125427 0,0.249325 0,0.375 -9e-6,4.151183 0.72601,7.925168 2.15625,11.34375 1.465112,3.418618 3.481091,6.367013 6.0625,8.84375 2.581373,2.441865 5.656957,4.358282 9.25,5.71875 C 34.311749,84.329226 38.271773,85 42.5625,85 c 4.70926,0 8.947632,-0.622817 12.75,-1.84375 3.802279,-1.255813 7.191083,-2.934595 10.15625,-5.0625 2.999942,-2.127904 5.587142,-4.608272 7.75,-7.46875 2.162724,-2.860452 3.94833,-5.912049 5.34375,-9.15625 1.430159,-3.279048 2.462108,-6.667851 3.125,-10.15625 0.697611,-3.523218 1.062419,-6.991246 1.0625,-10.375 -4e-6,-0.178436 0.0028,-0.354125 0,-0.53125 z"
         inkscape:connector-curvature="0"
         id="path3856"
         style="font-size:12px;font-style:italic;font-variant:normal;font-weight:normal;font-stretch:normal;text-align:start;line-height:125%;letter-spacing:0px;word-spacing:0px;writing-mode:lr-tb;text-anchor:start;opacity:0.7;fill:#ffffff;fill-opacity:1;stroke:none;font-family:Liberation Serif;-inkscape-font-specification:Liberation Serif Italic" />
      <path
         d="m 53.4375,12 c -4.255854,7.2e-5 -8.184629,0.543674 -11.8125,1.625 -3.627934,1.08146 -6.937531,2.609074 -9.9375,4.5625 -2.965141,1.953551 -5.603938,4.279128 -7.90625,7 -2.267458,2.72098 -4.180244,5.720988 -5.75,9 -1.569774,3.244237 -2.760208,6.708616 -3.5625,10.40625 -0.802337,3.697706 -1.218759,7.526919 -1.21875,11.46875 0,0.211707 -0.0037,0.415199 0,0.625 0.02476,-3.80862 0.441993,-7.513936 1.21875,-11.09375 0.802292,-3.697634 1.992726,-7.162013 3.5625,-10.40625 1.569756,-3.279012 3.482542,-6.27902 5.75,-9 2.302312,-2.720872 4.941109,-5.046449 7.90625,-7 2.999969,-1.953426 6.309566,-3.48104 9.9375,-4.5625 3.627871,-1.081326 7.556646,-1.624928 11.8125,-1.625 4.290646,7.2e-5 8.25067,0.670855 11.84375,2.03125 3.592954,1.36053 6.668538,3.273325 9.25,5.75 2.581329,2.441919 4.569698,5.390313 6,8.84375 1.401532,3.270458 2.157921,6.872377 2.21875,10.78125 0.0015,-0.154944 -4e-6,-0.314097 0,-0.46875 -8.1e-5,-4.116239 -0.75371,-7.893846 -2.21875,-11.3125 -1.430302,-3.453437 -3.418671,-6.401831 -6,-8.84375 -2.581462,-2.476675 -5.657046,-4.38947 -9.25,-5.75 C 61.68817,12.670855 57.728146,12.000072 53.4375,12 z M 72.25,39.96875 c -0.03507,2.557757 -0.29196,5.262889 -0.8125,8.09375 -0.558202,3.000031 -1.383783,6.000032 -2.5,9 -1.08146,2.965141 -2.454275,5.810342 -4.09375,8.53125 -1.639591,2.720944 -3.552377,5.098117 -5.75,7.15625 -2.16284,2.058142 -4.591619,3.712945 -7.3125,4.96875 -2.686089,1.220923 -5.634483,1.843759 -8.84375,1.84375 -2.895377,9e-6 -5.534184,-0.543603 -7.90625,-1.625 C 32.694012,76.856111 30.674392,75.300878 29,73.3125 c -1.674436,-1.988361 -2.964414,-4.393153 -3.90625,-7.21875 -0.865466,-2.696201 -1.304143,-5.700264 -1.34375,-9 -0.0022,0.17727 -0.03125,0.355474 -0.03125,0.53125 -1.8e-5,3.488399 0.46801,6.643189 1.375,9.46875 0.941836,2.825597 2.231814,5.230389 3.90625,7.21875 1.674392,1.988378 3.694012,3.543611 6.03125,4.625 2.372066,1.081397 5.010873,1.625009 7.90625,1.625 3.209267,9e-6 6.157661,-0.622827 8.84375,-1.84375 2.720881,-1.255805 5.14966,-2.910608 7.3125,-4.96875 2.197623,-2.058133 4.110409,-4.435306 5.75,-7.15625 1.639475,-2.720908 3.01229,-5.566109 4.09375,-8.53125 1.116217,-2.999968 1.941798,-5.999969 2.5,-9 0.55805,-3.034851 0.843661,-5.93528 0.84375,-8.65625 -3e-6,-0.150572 -0.02953,-0.288138 -0.03125,-0.4375 z"
         inkscape:connector-curvature="0"
         id="path3865"
         style="font-size:12px;font-style:italic;font-variant:normal;font-weight:normal;font-stretch:normal;text-align:start;line-height:125%;letter-spacing:0px;word-spacing:0px;writing-mode:lr-tb;text-anchor:start;fill:#550000;fill-opacity:1;stroke:none;font-family:Liberation Serif;-inkscape-font-specification:Liberation Serif Italic" />
    </g>
    <rect
       ry="25"
       rx="25"
       id="rect3003"
       style="opacity:0.15;fill:#ffffff;fill-opacity:1"
       height="92"
       width="92"
       y="958.36218"
       x="-96"
       clip-path="url(#clipPath3009)"
       transform="translate(98,3.8281269e-7)" />
  </g>
</svg>
