<?xml version="1.0" encoding="UTF-8" standalone="no"?>
<!-- Created with Inkscape (http://www.inkscape.org/) -->

<svg
   xmlns:dc="http://purl.org/dc/elements/1.1/"
   xmlns:cc="http://creativecommons.org/ns#"
   xmlns:rdf="http://www.w3.org/1999/02/22-rdf-syntax-ns#"
   xmlns:svg="http://www.w3.org/2000/svg"
   xmlns="http://www.w3.org/2000/svg"
   xmlns:xlink="http://www.w3.org/1999/xlink"
   xmlns:sodipodi="http://sodipodi.sourceforge.net/DTD/sodipodi-0.dtd"
   xmlns:inkscape="http://www.inkscape.org/namespaces/inkscape"
   width="96"
   height="96"
   id="svg11037"
   version="1.1"
   inkscape:version="0.48.3.1 r9886"
   sodipodi:docname="palimpsest.svg">
  <defs
     id="defs11039">
    <linearGradient
       y2="1046.1001"
       x2="47.999954"
       y1="962.62189"
       x1="47.999954"
       gradientTransform="matrix(1.15,0,0,1.15,-7.1999462,-150.65291)"
       gradientUnits="userSpaceOnUse"
       id="linearGradient3886"
       xlink:href="#linearGradient3795"
       inkscape:collect="always" />
    <linearGradient
       id="linearGradient3795">
      <stop
         style="stop-color:#13a6fd;stop-opacity:1;"
         offset="0"
         id="stop3797" />
      <stop
         style="stop-color:#2975b6;stop-opacity:1;"
         offset="1"
         id="stop3799" />
    </linearGradient>
    <linearGradient
       y2="1046.1001"
       x2="47.999954"
       y1="962.62189"
       x1="47.999954"
       gradientTransform="matrix(1.15,0,0,1.15,-7.1999462,-150.65292)"
       gradientUnits="userSpaceOnUse"
       id="linearGradient11642"
       xlink:href="#linearGradient3795"
       inkscape:collect="always" />
    <linearGradient
       x1="36.357143"
       y1="6"
       x2="36.357143"
       y2="63.893143"
       id="linearGradient3188"
       xlink:href="#linearGradient3737"
       gradientUnits="userSpaceOnUse" />
    <linearGradient
       id="linearGradient3737">
      <stop
         id="stop3739"
         style="stop-color:#ffffff;stop-opacity:1"
         offset="0" />
      <stop
         id="stop3741"
         style="stop-color:#ffffff;stop-opacity:0"
         offset="1" />
    </linearGradient>
    <linearGradient
       x1="6"
       y1="77.09375"
       x2="32.030617"
       y2="77.09375"
       id="linearGradient3287"
       xlink:href="#linearGradient3273"
       gradientUnits="userSpaceOnUse"
       gradientTransform="matrix(-1,0,0,1,96.030615,0)" />
    <linearGradient
       id="linearGradient3273">
      <stop
         id="stop3275"
         style="stop-color:#7a7a7a;stop-opacity:1"
         offset="0" />
      <stop
         id="stop3281"
         style="stop-color:#f9f9f9;stop-opacity:1"
         offset="0.14636412" />
      <stop
         id="stop3283"
         style="stop-color:#c9c9c9;stop-opacity:1"
         offset="0.37253973" />
      <stop
         id="stop3277"
         style="stop-color:#dedede;stop-opacity:0"
         offset="1" />
    </linearGradient>
    <linearGradient
       x1="6"
       y1="77.09375"
       x2="32"
       y2="77.09375"
       id="linearGradient3279"
       xlink:href="#linearGradient3322"
       gradientUnits="userSpaceOnUse" />
    <linearGradient
       id="linearGradient3322">
      <stop
         id="stop3324"
         style="stop-color:#7a7a7a;stop-opacity:1"
         offset="0" />
      <stop
         id="stop3326"
         style="stop-color:#f9f9f9;stop-opacity:1"
         offset="0.2032043" />
      <stop
         id="stop3328"
         style="stop-color:#c9c9c9;stop-opacity:1"
         offset="0.42969123" />
      <stop
         id="stop3330"
         style="stop-color:#dedede;stop-opacity:0"
         offset="1" />
    </linearGradient>
    <linearGradient
       x1="48"
       y1="77.09375"
       x2="48"
       y2="90"
       id="linearGradient3460"
       xlink:href="#linearGradient3448"
       gradientUnits="userSpaceOnUse" />
    <linearGradient
       id="linearGradient3448">
      <stop
         id="stop3450"
         style="stop-color:#000000;stop-opacity:1"
         offset="0" />
      <stop
         id="stop3452"
         style="stop-color:#000000;stop-opacity:0"
         offset="1" />
    </linearGradient>
    <linearGradient
       x1="15.999999"
       y1="85.0625"
       x2="20.178572"
       y2="85.0625"
       id="linearGradient3556"
       xlink:href="#linearGradient3376"
       gradientUnits="userSpaceOnUse" />
    <linearGradient
       id="linearGradient3376">
      <stop
         id="stop3378"
         style="stop-color:#767676;stop-opacity:1"
         offset="0" />
      <stop
         id="stop3380"
         style="stop-color:#fdfdfd;stop-opacity:1"
         offset="1" />
    </linearGradient>
    <radialGradient
       cx="18.089285"
       cy="85.0625"
       r="2.0892856"
       fx="18.089285"
       fy="85.0625"
       id="radialGradient3558"
       xlink:href="#linearGradient3733"
       gradientUnits="userSpaceOnUse"
       gradientTransform="matrix(1,0,0,1.0042736,0,-0.3635233)" />
    <linearGradient
       id="linearGradient3733">
      <stop
         id="stop3735"
         style="stop-color:#ffbf67;stop-opacity:1"
         offset="0" />
      <stop
         id="stop3737"
         style="stop-color:#c70000;stop-opacity:1"
         offset="1" />
    </linearGradient>
    <linearGradient
       x1="67.071426"
       y1="80"
       x2="67.071426"
       y2="88.011475"
       id="linearGradient4239"
       xlink:href="#linearGradient3737"
       gradientUnits="userSpaceOnUse" />
    <linearGradient
       id="linearGradient3165">
      <stop
         id="stop3167"
         style="stop-color:#ffffff;stop-opacity:1"
         offset="0" />
      <stop
         id="stop3169"
         style="stop-color:#ffffff;stop-opacity:0"
         offset="1" />
    </linearGradient>
    <linearGradient
       x1="67.071426"
       y1="80"
       x2="67.071426"
       y2="88.011475"
       id="linearGradient4231"
       xlink:href="#linearGradient4225"
       gradientUnits="userSpaceOnUse"
       gradientTransform="translate(-2,0)" />
    <linearGradient
       id="linearGradient4225">
      <stop
         id="stop4227"
         style="stop-color:#000000;stop-opacity:1"
         offset="0" />
      <stop
         id="stop4229"
         style="stop-color:#484848;stop-opacity:1"
         offset="1" />
    </linearGradient>
    <linearGradient
       x1="-1.857143"
       y1="86.214287"
       x2="88"
       y2="8.6071424"
       id="linearGradient3179"
       xlink:href="#linearGradient3173"
       gradientUnits="userSpaceOnUse" />
    <linearGradient
       id="linearGradient3173">
      <stop
         id="stop3175"
         style="stop-color:#e6e6e6;stop-opacity:1"
         offset="0" />
      <stop
         id="stop3189"
         style="stop-color:#c3c3c3;stop-opacity:1"
         offset="0.26003402" />
      <stop
         id="stop3187"
         style="stop-color:#b9b9b9;stop-opacity:1"
         offset="0.49180263" />
      <stop
         id="stop3191"
         style="stop-color:#c8c8c8;stop-opacity:1"
         offset="0.75914466" />
      <stop
         id="stop3177"
         style="stop-color:#e6e6e6;stop-opacity:1"
         offset="1" />
    </linearGradient>
    <linearGradient
       x1="6"
       y1="75.5"
       x2="45.219246"
       y2="75.5"
       id="linearGradient3454"
       xlink:href="#linearGradient3448"
       gradientUnits="userSpaceOnUse"
       gradientTransform="matrix(-1,0,0,1,96,0)" />
    <linearGradient
       id="linearGradient3183">
      <stop
         id="stop3185"
         style="stop-color:#000000;stop-opacity:1"
         offset="0" />
      <stop
         id="stop3188"
         style="stop-color:#000000;stop-opacity:0"
         offset="1" />
    </linearGradient>
    <filter
       x="-0.29508197"
       y="-0.46153846"
       width="1.5901639"
       height="1.9230769"
       color-interpolation-filters="sRGB"
       id="filter3179">
      <feGaussianBlur
         id="feGaussianBlur3181"
         stdDeviation="6.6964288" />
    </filter>
    <linearGradient
       x1="38.765545"
       y1="73"
       x2="38.765545"
       y2="-60.29591"
       id="linearGradient3527"
       xlink:href="#linearGradient3448"
       gradientUnits="userSpaceOnUse"
       gradientTransform="matrix(1.0277778,0,0,1.0499999,-0.3055556,-2.6499999)" />
    <linearGradient
       id="linearGradient3193">
      <stop
         id="stop3195"
         style="stop-color:#000000;stop-opacity:1"
         offset="0" />
      <stop
         id="stop3197"
         style="stop-color:#000000;stop-opacity:0"
         offset="1" />
    </linearGradient>
    <linearGradient
       x1="44.324883"
       y1="12"
       x2="44.324883"
       y2="72.11245"
       id="linearGradient3547"
       xlink:href="#linearGradient4327"
       gradientUnits="userSpaceOnUse" />
    <linearGradient
       id="linearGradient4327">
      <stop
         id="stop4329"
         style="stop-color:#f0f0f0;stop-opacity:1"
         offset="0" />
      <stop
         id="stop4331"
         style="stop-color:#b4b4b4;stop-opacity:1"
         offset="1" />
    </linearGradient>
    <linearGradient
       x1="41.041885"
       y1="72"
       x2="48"
       y2="19.160589"
       id="linearGradient3517"
       xlink:href="#linearGradient3737"
       gradientUnits="userSpaceOnUse" />
    <linearGradient
       id="linearGradient3204">
      <stop
         id="stop3206"
         style="stop-color:#ffffff;stop-opacity:1"
         offset="0" />
      <stop
         id="stop3208"
         style="stop-color:#ffffff;stop-opacity:0"
         offset="1" />
    </linearGradient>
    <linearGradient
       x1="15.656256"
       y1="69.394279"
       x2="46.594883"
       y2="39.82095"
       id="linearGradient3540"
       xlink:href="#linearGradient3220"
       gradientUnits="userSpaceOnUse" />
    <linearGradient
       id="linearGradient3220">
      <stop
         id="stop3222"
         style="stop-color:#ffffff;stop-opacity:1"
         offset="0" />
      <stop
         id="stop3224"
         style="stop-color:#bfbfbf;stop-opacity:0"
         offset="1" />
    </linearGradient>
    <clipPath
       id="clipPath3306">
      <rect
         width="72"
         height="60"
         rx="4"
         ry="4"
         x="12"
         y="12"
         id="rect3308"
         style="fill:#ffffff;fill-opacity:1;fill-rule:nonzero;stroke:none" />
    </clipPath>
    <filter
       x="-0.12267826"
       y="-0.17991199"
       width="1.2453564"
       height="1.3598239"
       color-interpolation-filters="sRGB"
       id="filter3642">
      <feGaussianBlur
         id="feGaussianBlur3644"
         stdDeviation="3.178304" />
    </filter>
    <clipPath
       id="clipPath3788">
      <path
         d="m -84,12 c -2.216,0 -4,1.784 -4,4 l 0,52 c 0,2.216 1.784,4 4,4 l 64,0 c 2.216,0 4,-1.784 4,-4 l 0,-52 c 0,-2.216 -1.784,-4 -4,-4 l -64,0 z m 24.96875,14 c 2.831631,-0.01228 5.68269,0.922807 7.84375,2.84375 4.303233,3.825096 4.303233,10.049903 0,13.875 -4.303233,3.825096 -11.290517,3.825096 -15.59375,0 -2.881422,-2.561257 -3.821083,-6.203354 -2.84375,-9.46875 l 6.75,6 7.78125,-6.9375 -6.75,-5.96875 c 0.918393,-0.217185 1.868623,-0.339656 2.8125,-0.34375 z m 12.875,14.25 10.53125,9.375 c 2.158299,1.918488 2.158299,5.019013 0,6.9375 -2.158298,1.918488 -5.622951,1.918488 -7.78125,0 l -10.5625,-9.375 c 1.712088,-0.597172 3.335151,-1.520133 4.71875,-2.75 1.3836,-1.229865 2.421931,-2.665644 3.09375,-4.1875 z M -39.5,50.65625 c -0.70501,0 -1.430846,0.240613 -1.96875,0.71875 -1.075807,0.956274 -1.075807,2.512475 0,3.46875 1.075809,0.956274 2.830442,0.956274 3.90625,0 1.075809,-0.956275 1.075809,-2.512476 0,-3.46875 -0.537904,-0.478137 -1.23249,-0.71875 -1.9375,-0.71875 z"
         inkscape:connector-curvature="0"
         id="path3790"
         style="fill:#803300;fill-opacity:1;fill-rule:nonzero;stroke:none;display:inline" />
    </clipPath>
    <filter
       x="-0.22666666"
       y="-0.255"
       width="1.4533333"
       height="1.51"
       color-interpolation-filters="sRGB"
       id="filter3784">
      <feGaussianBlur
         id="feGaussianBlur3786"
         stdDeviation="3.4" />
    </filter>
    <linearGradient
       x1="47.494923"
       y1="58.696701"
       x2="47.494923"
       y2="26.072218"
       id="linearGradient3761"
       xlink:href="#linearGradient3767"
       gradientUnits="userSpaceOnUse" />
    <linearGradient
       id="linearGradient3767">
      <stop
         id="stop3769"
         style="stop-color:#4d4d4d;stop-opacity:0.70731705"
         offset="0" />
      <stop
         id="stop3771"
         style="stop-color:#4d4d4d;stop-opacity:0.25203252"
         offset="1" />
    </linearGradient>
    <clipPath
       clipPathUnits="userSpaceOnUse"
       id="clipPath3204">
      <rect
         x="6"
         y="5.980917"
         width="84.157585"
         height="84.157585"
         style="fill:url(#linearGradient3208);fill-opacity:1"
         id="rect3206"
         rx="22.868908"
         ry="22.868908" />
    </clipPath>
    <linearGradient
       inkscape:collect="always"
       xlink:href="#linearGradient3795"
       id="linearGradient3208"
       gradientUnits="userSpaceOnUse"
       gradientTransform="matrix(1.0519698,0,0,1.0519698,-2.4157089,-1008.4977)"
       x1="47.999954"
       y1="962.62189"
       x2="47.999954"
       y2="1046.1001" />
    <clipPath
       clipPathUnits="userSpaceOnUse"
       id="clipPath3009">
      <path
         id="path3011"
         d="m -2,956.36218 -96,0 0,33.5624 96,25.68742 0,-59.24982 z"
         style="opacity:0.15;fill:#ffffff;fill-opacity:1;stroke:none"
         inkscape:connector-curvature="0" />
    </clipPath>
  </defs>
  <sodipodi:namedview
     id="base"
     pagecolor="#ffffff"
     bordercolor="#666666"
     borderopacity="1.0"
     inkscape:pageopacity="0.0"
     inkscape:pageshadow="2"
     inkscape:zoom="3.959798"
     inkscape:cx="37.957448"
     inkscape:cy="59.964634"
     inkscape:document-units="px"
     inkscape:current-layer="layer1"
     showgrid="false"
     inkscape:window-width="1280"
     inkscape:window-height="750"
     inkscape:window-x="0"
     inkscape:window-y="22"
     inkscape:window-maximized="1"
     showguides="true"
     inkscape:guide-bbox="true">
    <sodipodi:guide
       orientation="0,1"
       position="-24.748737,0"
       id="guide11064" />
    <sodipodi:guide
       orientation="0,1"
       position="-23.233509,96"
       id="guide11066" />
    <sodipodi:guide
       orientation="1,0"
       position="0,54.800776"
       id="guide11068" />
    <sodipodi:guide
       orientation="1,0"
       position="96,51.012704"
       id="guide11070" />
    <sodipodi:guide
       orientation="0,1"
       position="-18.94036,48"
       id="guide11072" />
    <sodipodi:guide
       orientation="1,0"
       position="48,79.296975"
       id="guide11074" />
    <sodipodi:guide
       orientation="1,0"
       position="2,75.508903"
       id="guide11076" />
    <sodipodi:guide
       orientation="0,1"
       position="-77.27667,2"
       id="guide11078" />
    <sodipodi:guide
       orientation="1,0"
       position="94,77.781746"
       id="guide11080" />
    <sodipodi:guide
       orientation="0,1"
       position="-65.912454,94"
       id="guide11082" />
  </sodipodi:namedview>
  <metadata
     id="metadata11042">
    <rdf:RDF>
      <cc:Work
         rdf:about="">
        <dc:format>image/svg+xml</dc:format>
        <dc:type
           rdf:resource="http://purl.org/dc/dcmitype/StillImage" />
        <dc:title />
      </cc:Work>
    </rdf:RDF>
  </metadata>
  <g
     inkscape:label="Layer 1"
     inkscape:groupmode="layer"
     id="layer1"
     transform="translate(0,-956.36218)">
    <g
       transform="matrix(1.0931873,0,0,1.0931873,-4.5591239,951.82392)"
       id="g3102"
       clip-path="url(#clipPath3204)">
      <g
         id="layer1-3">
        <path
           style="opacity:0.5;fill:url(#linearGradient3188);fill-opacity:1;fill-rule:nonzero;stroke:none"
           id="rect3728"
           inkscape:connector-curvature="0"
           d="M 12,6 C 8.676,6 6,8.676 6,12 l 0,2 0,68 0,2 c 0,0.334721 0.04135,0.6507 0.09375,0.96875 0.0487,0.295596 0.09704,0.596915 0.1875,0.875 0.00988,0.03038 0.020892,0.0636 0.03125,0.09375 0.098865,0.287771 0.2348802,0.547452 0.375,0.8125 0.1445918,0.273507 0.3156161,0.535615 0.5,0.78125 0.1843839,0.245635 0.3737765,0.473472 0.59375,0.6875 0.439947,0.428056 0.94291,0.814526 1.5,1.09375 0.278545,0.139612 0.5734731,0.246947 0.875,0.34375 -0.2562018,-0.100222 -0.4867109,-0.236272 -0.71875,-0.375 -0.00741,-0.0044 -0.023866,0.0045 -0.03125,0 -0.031933,-0.0193 -0.062293,-0.04251 -0.09375,-0.0625 -0.120395,-0.0767 -0.2310226,-0.163513 -0.34375,-0.25 -0.1061728,-0.0808 -0.2132809,-0.161112 -0.3125,-0.25 C 8.4783201,88.557317 8.3087904,88.373362 8.15625,88.1875 8.0486711,88.057245 7.9378561,87.922215 7.84375,87.78125 7.818661,87.74287 7.805304,87.69538 7.78125,87.65625 7.716487,87.553218 7.6510225,87.451733 7.59375,87.34375 7.4927417,87.149044 7.3880752,86.928049 7.3125,86.71875 7.30454,86.69694 7.288911,86.6782 7.28125,86.65625 7.2494249,86.5643 7.2454455,86.469419 7.21875,86.375 7.1884177,86.268382 7.1483606,86.171969 7.125,86.0625 7.0521214,85.720988 7,85.364295 7,85 L 7,83 7,15 7,13 C 7,10.218152 9.2181517,8 12,8 l 2,0 68,0 2,0 c 2.781848,0 5,2.218152 5,5 l 0,2 0,68 0,2 c 0,0.364295 -0.05212,0.720988 -0.125,1.0625 -0.04415,0.206893 -0.08838,0.397658 -0.15625,0.59375 -0.0077,0.02195 -0.0233,0.04069 -0.03125,0.0625 -0.06274,0.173739 -0.138383,0.367449 -0.21875,0.53125 -0.04158,0.0828 -0.07904,0.169954 -0.125,0.25 -0.0546,0.09721 -0.126774,0.18835 -0.1875,0.28125 -0.09411,0.140965 -0.204921,0.275995 -0.3125,0.40625 -0.143174,0.17445 -0.303141,0.346998 -0.46875,0.5 -0.01117,0.0102 -0.01998,0.02115 -0.03125,0.03125 -0.138386,0.125556 -0.285091,0.234436 -0.4375,0.34375 -0.102571,0.07315 -0.204318,0.153364 -0.3125,0.21875 -0.0074,0.0045 -0.02384,-0.0044 -0.03125,0 -0.232039,0.138728 -0.462548,0.274778 -0.71875,0.375 0.301527,-0.0968 0.596455,-0.204138 0.875,-0.34375 0.55709,-0.279224 1.060053,-0.665694 1.5,-1.09375 0.219973,-0.214028 0.409366,-0.441865 0.59375,-0.6875 0.184384,-0.245635 0.355408,-0.507743 0.5,-0.78125 0.14012,-0.265048 0.276135,-0.524729 0.375,-0.8125 0.01041,-0.03078 0.02133,-0.06274 0.03125,-0.09375 0.09046,-0.278085 0.1388,-0.579404 0.1875,-0.875 C 89.95865,84.6507 90,84.334721 90,84 l 0,-2 0,-68 0,-2 C 90,8.676 87.324,6 84,6 L 12,6 z" />
        <path
           style="fill:#cacaca;fill-opacity:1;fill-rule:nonzero;stroke:none"
           id="rect3243"
           inkscape:connector-curvature="0"
           d="M 90,64.1875 90,84 c 0,3.324 -2.676,6 -6,6 L 12,90 C 8.676,90 6,87.324 6,84 l 0,-19.8125 84,0 z" />
        <path
           style="opacity:0.8;fill:url(#linearGradient3287);fill-opacity:1;fill-rule:nonzero;stroke:none"
           id="path3285"
           inkscape:connector-curvature="0"
           d="m 90.030615,64.1875 0,19.8125 c 0,3.324 -2.676,6 -6,6 L 64,90 l 0,-25.8125 26.030615,0 z" />
        <path
           style="opacity:0.8;fill:url(#linearGradient3279);fill-opacity:1;fill-rule:nonzero;stroke:none"
           id="path3263"
           inkscape:connector-curvature="0"
           d="M 6,64.1875 6,84 c 0,3.324 2.676,6 6,6 l 20,0 0,-25.8125 -26,0 z" />
        <path
           style="opacity:0.2;fill:url(#linearGradient3460);fill-opacity:1;fill-rule:nonzero;stroke:none"
           id="path3299"
           inkscape:connector-curvature="0"
           d="M 90,64.1875 90,84 c 0,3.324 -2.676,6 -6,6 L 12,90 C 8.676,90 6,87.324 6,84 l 0,-19.8125 84,0 z" />
        <g
           id="g3318">
          <path
             inkscape:connector-curvature="0"
             style="fill:url(#linearGradient3556);fill-opacity:1;fill-rule:nonzero;stroke:none"
             id="path3374"
             transform="matrix(0,1.6709402,1.6638297,0,-122.03844,53.282815)"
             d="m 20.178571,85.0625 a 2.089286,2.0982148 0 1 1 -4.178572,0 2.089286,2.0982148 0 1 1 4.178572,0 z" />
          <path
             inkscape:connector-curvature="0"
             style="fill:url(#radialGradient3558);fill-opacity:1;fill-rule:nonzero;stroke:#000000;stroke-width:0.84049988;stroke-linecap:square;stroke-linejoin:miter;stroke-miterlimit:4;stroke-opacity:0.53181823;stroke-dasharray:none;stroke-dashoffset:0"
             id="path3364"
             transform="matrix(1.1923077,0,0,1.1872339,-2.0769275,-17.480158)"
             d="m 20.178571,85.0625 a 2.089286,2.0982148 0 1 1 -4.178572,0 2.089286,2.0982148 0 1 1 4.178572,0 z" />
        </g>
        <path
           inkscape:connector-curvature="0"
           style="fill:url(#linearGradient4239);fill-opacity:1;fill-rule:nonzero;stroke:none"
           id="path4237"
           transform="matrix(1,0,0,-1,-2,168)"
           d="m 57,79.5 c -0.817559,0 -1.5,0.682441 -1.5,1.5 l 0,6 c 0,0.817559 0.682441,1.5 1.5,1.5 0.817559,0 1.5,-0.682441 1.5,-1.5 l 0,-6 c 0,-0.817559 -0.682441,-1.5 -1.5,-1.5 z m 4,0 c -0.817559,0 -1.5,0.682441 -1.5,1.5 l 0,6 c 0,0.817559 0.682441,1.5 1.5,1.5 0.817559,0 1.5,-0.682441 1.5,-1.5 l 0,-6 c 0,-0.817559 -0.682441,-1.5 -1.5,-1.5 z m 4,0 c -0.817559,0 -1.5,0.682441 -1.5,1.5 l 0,6 c 0,0.817559 0.682441,1.5 1.5,1.5 0.817559,0 1.5,-0.682441 1.5,-1.5 l 0,-6 c 0,-0.817559 -0.682441,-1.5 -1.5,-1.5 z m 4,0 c -0.817559,0 -1.5,0.682441 -1.5,1.5 l 0,6 c 0,0.817559 0.682441,1.5 1.5,1.5 0.817559,0 1.5,-0.682441 1.5,-1.5 l 0,-6 c 0,-0.817559 -0.682441,-1.5 -1.5,-1.5 z m 4,0 c -0.817559,0 -1.5,0.682441 -1.5,1.5 l 0,6 c 0,0.817559 0.682441,1.5 1.5,1.5 0.817559,0 1.5,-0.682441 1.5,-1.5 l 0,-6 c 0,-0.817559 -0.682441,-1.5 -1.5,-1.5 z m 4,0 c -0.817559,0 -1.5,0.682441 -1.5,1.5 l 0,6 c 0,0.817559 0.682441,1.5 1.5,1.5 0.817559,0 1.5,-0.682441 1.5,-1.5 l 0,-6 c 0,-0.817559 -0.682441,-1.5 -1.5,-1.5 z m 4,0 c -0.817559,0 -1.5,0.682441 -1.5,1.5 l 0,6 c 0,0.817559 0.682441,1.5 1.5,1.5 0.817559,0 1.5,-0.682441 1.5,-1.5 l 0,-6 c 0,-0.817559 -0.682441,-1.5 -1.5,-1.5 z" />
        <path
           style="fill:url(#linearGradient4231);fill-opacity:1;fill-rule:nonzero;stroke:none"
           id="rect4210"
           inkscape:connector-curvature="0"
           d="m 55,80 c -0.554,0 -1,0.446 -1,1 l 0,6 c 0,0.554 0.446,1 1,1 0.554,0 1,-0.446 1,-1 l 0,-6 c 0,-0.554 -0.446,-1 -1,-1 z m 4,0 c -0.554,0 -1,0.446 -1,1 l 0,6 c 0,0.554 0.446,1 1,1 0.554,0 1,-0.446 1,-1 l 0,-6 c 0,-0.554 -0.446,-1 -1,-1 z m 4,0 c -0.554,0 -1,0.446 -1,1 l 0,6 c 0,0.554 0.446,1 1,1 0.554,0 1,-0.446 1,-1 l 0,-6 c 0,-0.554 -0.446,-1 -1,-1 z m 4,0 c -0.554,0 -1,0.446 -1,1 l 0,6 c 0,0.554 0.446,1 1,1 0.554,0 1,-0.446 1,-1 l 0,-6 c 0,-0.554 -0.446,-1 -1,-1 z m 4,0 c -0.554,0 -1,0.446 -1,1 l 0,6 c 0,0.554 0.446,1 1,1 0.554,0 1,-0.446 1,-1 l 0,-6 c 0,-0.554 -0.446,-1 -1,-1 z m 4,0 c -0.554,0 -1,0.446 -1,1 l 0,6 c 0,0.554 0.446,1 1,1 0.554,0 1,-0.446 1,-1 l 0,-6 c 0,-0.554 -0.446,-1 -1,-1 z m 4,0 c -0.554,0 -1,0.446 -1,1 l 0,6 c 0,0.554 0.446,1 1,1 0.554,0 1,-0.446 1,-1 l 0,-6 c 0,-0.554 -0.446,-1 -1,-1 z" />
      </g>
      <rect
         style="fill:url(#linearGradient3179);fill-opacity:1;fill-rule:nonzero;stroke:none;display:inline"
         id="rect3171"
         y="6"
         x="6"
         ry="6"
         rx="6"
         height="72"
         width="84" />
      <path
         style="opacity:0.1;fill:url(#linearGradient3454);fill-opacity:1;fill-rule:nonzero;stroke:none;display:inline"
         id="path3443"
         inkscape:connector-curvature="0"
         d="m 90,72 0,1 c 0,3.324 -2.676,6 -6,6 L 12,79 C 8.676,79 6,76.324 6,73 l 0,-1 c 0,2.984862 2.152831,5.43487 5,5.90625 C 11.326884,77.971636 11.652269,78 12,78 l 72,0 c 0.166304,0 0.337194,-0.01811 0.5,-0.03125 0.04161,-0.0041 0.08371,0.0051 0.125,0 C 84.752873,77.95584 84.874673,77.927 85,77.90625 87.847169,77.43487 90,74.984862 90,72 z" />
      <rect
         style="opacity:0.15;fill:#ffffff;fill-opacity:1;fill-rule:nonzero;stroke:none;display:inline;filter:url(#filter3179)"
         id="rect2399"
         transform="matrix(1.0880985,0,0,1.1015333,-1.1722568,-1.4100719)"
         y="13.887781"
         x="13.306199"
         ry="9"
         rx="9"
         height="34.82143"
         width="54.464287" />
      <rect
         style="opacity:0.6;fill:url(#linearGradient3527);fill-opacity:1;fill-rule:nonzero;stroke:none;display:inline"
         id="rect3492"
         y="11"
         x="11"
         ry="4.1999998"
         rx="4.1111112"
         height="63"
         width="74" />
      <rect
         style="fill:url(#linearGradient3547);fill-opacity:1;fill-rule:nonzero;stroke:none;display:inline"
         id="rect3519"
         y="12"
         x="12"
         ry="4"
         rx="4"
         height="60"
         width="72" />
      <path
         style="opacity:0.5;fill:url(#linearGradient3517);fill-opacity:1;fill-rule:nonzero;stroke:none;display:inline"
         id="rect3490"
         inkscape:connector-curvature="0"
         d="m 16,12 c -2.216,0 -4,1.784 -4,4 l 0,52 c 0,2.216 1.784,4 4,4 l 64,0 c 2.216,0 4,-1.784 4,-4 l 0,-52 c 0,-2.216 -1.784,-4 -4,-4 l -64,0 z m 0,0.125 64,0 c 1.639964,0 2.9375,1.297536 2.9375,2.9375 l 0,52 C 82.9375,68.702464 81.639964,70 80,70 l -64,0 c -1.639964,0 -2.9375,-1.297536 -2.9375,-2.9375 l 0,-52 c 0,-1.639964 1.297536,-2.9375 2.9375,-2.9375 z" />
      <path
         style="opacity:0.4;fill:url(#linearGradient3540);fill-opacity:1;fill-rule:evenodd;stroke:none;display:inline;filter:url(#filter3642)"
         id="path3295"
         clip-path="url(#clipPath3306)"
         transform="matrix(1.1165614,0,0,1.1165614,-0.2667296,-9.2473368)"
         inkscape:connector-curvature="0"
         d="M 64.466651,70.746186 C 32.862441,69.262986 28.526172,59.329842 49.62534,36.936323 25.752355,44.487871 14.457963,55.107187 6.0678887,62.348022 -2.8433524,70.106028 5.5386893,80.117302 15.341349,79.28586 25.500218,79.279131 56.36182,77.407002 64.466651,70.746186 z" />
      <g
         style="display:inline"
         id="layer4">
        <path
           style="opacity:0.8;fill:#ffffff;fill-opacity:1;stroke:none;filter:url(#filter3784)"
           id="path3780"
           clip-path="url(#clipPath3788)"
           transform="translate(100,0)"
           inkscape:connector-curvature="0"
           d="m -69.626218,33.2582 c -0.977333,3.265396 -0.0407,6.889778 2.840722,9.451035 4.303233,3.825096 11.280153,3.825096 15.583386,0 4.303233,-3.825097 4.303233,-10.026804 0,-13.8519 -2.881414,-2.561257 -6.958844,-3.393825 -10.632415,-2.525085 l 6.736568,5.988061 -7.791692,6.925949 -6.736569,-5.98806 z m 15.66455,13.924044 10.551251,9.37889 c 2.158299,1.918488 5.633395,1.918488 7.791693,0 2.158299,-1.918487 2.158299,-5.007461 0,-6.925949 l -10.551251,-9.37889 c -0.671819,1.521856 -1.700612,2.954562 -3.084212,4.184427 -1.383599,1.229867 -2.995393,2.14435 -4.707481,2.741522 z m 12.499174,4.184428 c 1.075809,-0.956274 2.820039,-0.956274 3.895847,0 1.075809,0.956274 1.075809,2.5067 0,3.462975 -1.075808,0.956274 -2.820038,0.956274 -3.895847,0 -1.075807,-0.956275 -1.075807,-2.506701 0,-3.462975 z" />
        <path
           style="fill:url(#linearGradient3761);fill-opacity:1;stroke:none"
           id="path3739"
           inkscape:connector-curvature="0"
           d="m 30.373782,33.2582 c -0.977333,3.265396 -0.0407,6.889778 2.840722,9.451035 4.303233,3.825096 11.280153,3.825096 15.583386,0 4.303233,-3.825097 4.303233,-10.026804 0,-13.8519 C 45.916476,26.296078 41.839046,25.46351 38.165475,26.33225 l 6.736568,5.988061 -7.791692,6.925949 -6.736569,-5.98806 z m 15.66455,13.924044 10.551251,9.37889 c 2.158299,1.918488 5.633395,1.918488 7.791693,0 2.158299,-1.918487 2.158299,-5.007461 0,-6.925949 l -10.551251,-9.37889 c -0.671819,1.521856 -1.700612,2.954562 -3.084212,4.184427 -1.383599,1.229867 -2.995393,2.14435 -4.707481,2.741522 z m 12.499174,4.184428 c 1.075809,-0.956274 2.820039,-0.956274 3.895847,0 1.075809,0.956274 1.075809,2.5067 0,3.462975 -1.075808,0.956274 -2.820038,0.956274 -3.895847,0 -1.075807,-0.956275 -1.075807,-2.506701 0,-3.462975 z" />
        <path
           style="opacity:0.4;fill:#000000;fill-opacity:1;stroke:none"
           id="path3763"
           inkscape:connector-curvature="0"
           d="m 40.96875,26 c -0.943877,0.0041 -1.894107,0.126565 -2.8125,0.34375 l 0.9375,0.84375 c 3.419472,-0.53684 7.076994,0.308022 9.71875,2.65625 2.008215,1.78508 3.053656,4.10033 3.1875,6.4375 0.152959,-2.670953 -0.892482,-5.397484 -3.1875,-7.4375 C 46.65144,26.922807 43.800381,25.987719 40.96875,26 z m 3.375,6.8125 -7.21875,6.4375 -6.75,-6 c -0.293154,0.979467 -0.395834,1.994315 -0.34375,3 0.04208,-0.670579 0.148238,-1.346769 0.34375,-2 l 6.75,6 7.78125,-6.9375 -0.5625,-0.5 z m 9.5,7.4375 c -0.671819,1.521856 -1.71015,2.957635 -3.09375,4.1875 -1.383599,1.229867 -3.006662,2.152828 -4.71875,2.75 l 0.78125,0.6875 c 1.421716,-0.588017 2.765512,-1.395732 3.9375,-2.4375 1.3836,-1.229865 2.421931,-2.665644 3.09375,-4.1875 L 64.375,50.625 c 0.926584,0.82363 1.462754,1.86764 1.59375,2.9375 C 66.120505,52.159295 65.589043,50.704149 64.375,49.625 L 53.84375,40.25 z m 3.9375,13.375 c -0.168095,0.771739 0.07762,1.621078 0.75,2.21875 1.075809,0.956274 2.830442,0.956274 3.90625,0 0.672381,-0.597672 0.918095,-1.447011 0.75,-2.21875 -0.108442,0.442821 -0.362709,0.874491 -0.75,1.21875 -1.075808,0.956274 -2.830441,0.956274 -3.90625,0 -0.387291,-0.344259 -0.641559,-0.775929 -0.75,-1.21875 z" />
      </g>
    </g>
    <rect
       ry="25"
       rx="25"
       id="rect3003"
       style="opacity:0.15;fill:#ffffff;fill-opacity:1"
       height="92"
       width="92"
       y="958.36218"
       x="-96"
       clip-path="url(#clipPath3009)"
       transform="translate(98,3.8281269e-7)" />
  </g>
</svg>
