<?xml version="1.0" encoding="UTF-8" standalone="no"?>
<!-- Created with Inkscape (http://www.inkscape.org/) -->

<svg
   xmlns:dc="http://purl.org/dc/elements/1.1/"
   xmlns:cc="http://creativecommons.org/ns#"
   xmlns:rdf="http://www.w3.org/1999/02/22-rdf-syntax-ns#"
   xmlns:svg="http://www.w3.org/2000/svg"
   xmlns="http://www.w3.org/2000/svg"
   xmlns:xlink="http://www.w3.org/1999/xlink"
   xmlns:sodipodi="http://sodipodi.sourceforge.net/DTD/sodipodi-0.dtd"
   xmlns:inkscape="http://www.inkscape.org/namespaces/inkscape"
   width="96"
   height="96"
   id="svg11037"
   version="1.1"
   inkscape:version="0.48.3.1 r9886"
   sodipodi:docname="picasa.svg">
  <defs
     id="defs11039">
    <linearGradient
       y2="1046.1001"
       x2="47.999954"
       y1="962.62189"
       x1="47.999954"
       gradientTransform="matrix(1.15,0,0,1.15,-7.1999462,-150.65291)"
       gradientUnits="userSpaceOnUse"
       id="linearGradient3886"
       xlink:href="#linearGradient3795"
       inkscape:collect="always" />
    <linearGradient
       id="linearGradient3795">
      <stop
         style="stop-color:#13a6fd;stop-opacity:1;"
         offset="0"
         id="stop3797" />
      <stop
         style="stop-color:#2975b6;stop-opacity:1;"
         offset="1"
         id="stop3799" />
    </linearGradient>
    <linearGradient
       y2="1046.1001"
       x2="47.999954"
       y1="962.62189"
       x1="47.999954"
       gradientTransform="matrix(1.15,0,0,1.15,-7.1999462,-150.65292)"
       gradientUnits="userSpaceOnUse"
       id="linearGradient11642"
       xlink:href="#linearGradient3700"
       inkscape:collect="always" />
    <linearGradient
       x1="48"
       y1="90"
       x2="48"
       y2="5.9877172"
       id="linearGradient3617"
       xlink:href="#linearGradient3700"
       gradientUnits="userSpaceOnUse"
       gradientTransform="translate(138.30508,-26.847458)" />
    <linearGradient
       id="linearGradient3700">
      <stop
         id="stop3702"
         style="stop-color:#e1e1e1;stop-opacity:1"
         offset="0" />
      <stop
         id="stop3704"
         style="stop-color:#f5f5f5;stop-opacity:1"
         offset="1" />
    </linearGradient>
    <linearGradient
       y2="5.9877172"
       x2="48"
       y1="90"
       x1="48"
       gradientTransform="translate(-66.18275,925.31774)"
       gradientUnits="userSpaceOnUse"
       id="linearGradient3081"
       xlink:href="#linearGradient3700"
       inkscape:collect="always" />
    <radialGradient
       gradientTransform="translate(0,956.36218)"
       cx="47.727509"
       cy="47.717522"
       r="30.800892"
       fx="47.727509"
       fy="47.717522"
       id="radialGradient3811"
       xlink:href="#linearGradient3805"
       gradientUnits="userSpaceOnUse" />
    <linearGradient
       id="linearGradient3805">
      <stop
         id="stop3807"
         style="stop-color:#7aff06;stop-opacity:1"
         offset="0" />
      <stop
         id="stop3809"
         style="stop-color:#6eff06;stop-opacity:0"
         offset="1" />
    </linearGradient>
    <radialGradient
       gradientTransform="translate(0,956.36218)"
       cx="47.727509"
       cy="47.717522"
       r="30.800892"
       fx="47.727509"
       fy="47.717522"
       id="radialGradient3819"
       xlink:href="#linearGradient3813"
       gradientUnits="userSpaceOnUse" />
    <linearGradient
       id="linearGradient3813">
      <stop
         id="stop3815"
         style="stop-color:#12d8ff;stop-opacity:1"
         offset="0" />
      <stop
         id="stop3817"
         style="stop-color:#12d8ff;stop-opacity:0"
         offset="1" />
    </linearGradient>
    <radialGradient
       gradientTransform="translate(0,956.36218)"
       cx="47.727509"
       cy="47.717522"
       r="30.800892"
       fx="47.727509"
       fy="47.717522"
       id="radialGradient3803"
       xlink:href="#linearGradient3797"
       gradientUnits="userSpaceOnUse" />
    <linearGradient
       id="linearGradient3797">
      <stop
         id="stop3799-8"
         style="stop-color:#ffd80e;stop-opacity:1"
         offset="0" />
      <stop
         id="stop3801"
         style="stop-color:#ffee0e;stop-opacity:0"
         offset="1" />
    </linearGradient>
    <radialGradient
       gradientTransform="translate(0,956.36218)"
       cx="47.727509"
       cy="47.717522"
       r="30.800892"
       fx="47.727509"
       fy="47.717522"
       id="radialGradient3785"
       xlink:href="#linearGradient3765"
       gradientUnits="userSpaceOnUse" />
    <linearGradient
       id="linearGradient3765">
      <stop
         id="stop3767"
         style="stop-color:#ffffff;stop-opacity:1"
         offset="0" />
      <stop
         id="stop3769"
         style="stop-color:#ffffff;stop-opacity:0"
         offset="1" />
    </linearGradient>
    <radialGradient
       cx="47.727509"
       cy="47.717522"
       r="30.800892"
       fx="47.727509"
       fy="47.717522"
       id="radialGradient3120"
       xlink:href="#linearGradient3765"
       gradientUnits="userSpaceOnUse" />
    <linearGradient
       id="linearGradient3122">
      <stop
         id="stop3124"
         style="stop-color:#ffffff;stop-opacity:1"
         offset="0" />
      <stop
         id="stop3126"
         style="stop-color:#ffffff;stop-opacity:0"
         offset="1" />
    </linearGradient>
    <radialGradient
       gradientTransform="translate(0,956.36218)"
       r="30.800892"
       fy="47.717522"
       fx="47.727509"
       cy="47.717522"
       cx="47.727509"
       gradientUnits="userSpaceOnUse"
       id="radialGradient3142"
       xlink:href="#linearGradient3765"
       inkscape:collect="always" />
    <clipPath
       clipPathUnits="userSpaceOnUse"
       id="clipPath3009">
      <path
         id="path3011"
         d="m -2,956.36218 -96,0 0,33.5624 96,25.68742 0,-59.24982 z"
         style="opacity:0.15;fill:#ffffff;fill-opacity:1;stroke:none"
         inkscape:connector-curvature="0" />
    </clipPath>
  </defs>
  <sodipodi:namedview
     id="base"
     pagecolor="#ffffff"
     bordercolor="#666666"
     borderopacity="1.0"
     inkscape:pageopacity="0.0"
     inkscape:pageshadow="2"
     inkscape:zoom="3.959798"
     inkscape:cx="33.538031"
     inkscape:cy="49.863109"
     inkscape:document-units="px"
     inkscape:current-layer="layer1"
     showgrid="false"
     inkscape:window-width="1280"
     inkscape:window-height="750"
     inkscape:window-x="0"
     inkscape:window-y="22"
     inkscape:window-maximized="1"
     showguides="true"
     inkscape:guide-bbox="true">
    <sodipodi:guide
       orientation="0,1"
       position="-24.748737,0"
       id="guide11064" />
    <sodipodi:guide
       orientation="0,1"
       position="-23.233509,96"
       id="guide11066" />
    <sodipodi:guide
       orientation="1,0"
       position="0,54.800776"
       id="guide11068" />
    <sodipodi:guide
       orientation="1,0"
       position="96,51.012704"
       id="guide11070" />
    <sodipodi:guide
       orientation="0,1"
       position="-18.94036,48"
       id="guide11072" />
    <sodipodi:guide
       orientation="1,0"
       position="48,79.296975"
       id="guide11074" />
    <sodipodi:guide
       orientation="1,0"
       position="2,75.508903"
       id="guide11076" />
    <sodipodi:guide
       orientation="0,1"
       position="-77.27667,2"
       id="guide11078" />
    <sodipodi:guide
       orientation="1,0"
       position="94,77.781746"
       id="guide11080" />
    <sodipodi:guide
       orientation="0,1"
       position="-65.912454,94"
       id="guide11082" />
  </sodipodi:namedview>
  <metadata
     id="metadata11042">
    <rdf:RDF>
      <cc:Work
         rdf:about="">
        <dc:format>image/svg+xml</dc:format>
        <dc:type
           rdf:resource="http://purl.org/dc/dcmitype/StillImage" />
        <dc:title />
      </cc:Work>
    </rdf:RDF>
  </metadata>
  <g
     inkscape:label="Layer 1"
     inkscape:groupmode="layer"
     id="layer1"
     transform="translate(0,-956.36218)">
    <rect
       x="2"
       y="958.36218"
       width="92"
       height="92"
       style="fill:url(#linearGradient11642);fill-opacity:1.0"
       id="rect3867"
       rx="25"
       ry="25" />
    <path
       d="m 48,968.36218 c -5.0055,0 -9.76257,1.02898 -14.09375,2.875 L 61,995.64343 61,970.79968 c -4.035212,-1.56466 -8.412107,-2.4375 -13,-2.4375 z"
       inkscape:connector-curvature="0"
       id="path3731"
       style="color:#000000;fill:#f93538;fill-opacity:1;fill-rule:nonzero;stroke:none;stroke-width:1;marker:none;visibility:visible;display:inline;overflow:visible;enable-background:accumulate" />
    <path
       d="m 65,972.61218 0,41.75002 17.59375,0 c 0.914773,-3.1727 1.40625,-6.5329 1.40625,-10 0,-13.73368 -7.690698,-25.68011 -19,-31.75002 z"
       inkscape:connector-curvature="0"
       id="path3729"
       style="color:#000000;fill:#fe7d08;fill-opacity:1;fill-rule:nonzero;stroke:none;stroke-width:1;marker:none;visibility:visible;display:inline;overflow:visible;enable-background:accumulate" />
    <path
       d="M 30.03125,973.17468 C 19.259661,979.39636 12,991.02874 12,1004.3622 c 0,3.7735 0.579525,7.4259 1.65625,10.8437 L 45.375,986.98718 30.03125,973.17468 z"
       inkscape:connector-curvature="0"
       id="path3727"
       style="color:#000000;fill:#9864ae;fill-opacity:1;fill-rule:nonzero;stroke:none;stroke-width:1;marker:none;visibility:visible;display:inline;overflow:visible;enable-background:accumulate" />
    <path
       d="m 31,1005.1434 -15.78125,14.0313 c 3.270802,7.2232 8.82694,13.205 15.78125,16.9375 l 0,-30.9688 z"
       inkscape:connector-curvature="0"
       id="path3723"
       style="color:#000000;fill:#1d58a6;fill-opacity:1;fill-rule:nonzero;stroke:none;stroke-width:1;marker:none;visibility:visible;display:inline;overflow:visible;enable-background:accumulate" />
    <path
       d="m 35,1018.3622 0,19.5625 c 4.035212,1.5646 8.412107,2.4375 13,2.4375 14.911688,0 27.691153,-9.0791 33.15625,-22 l -46.15625,0 z"
       inkscape:connector-curvature="0"
       id="path3697"
       style="color:#000000;fill:#35a328;fill-opacity:1;fill-rule:nonzero;stroke:none;stroke-width:1;marker:none;visibility:visible;display:inline;overflow:visible;enable-background:accumulate" />
    <path
       d="m 47.71875,973.26843 c -3.418886,0 -6.708375,0.56549 -9.78125,1.59375 L 61,995.64343 61,976.29968 c -4.017438,-1.92012 -8.531535,-3.03125 -13.28125,-3.03125 z"
       inkscape:connector-curvature="0"
       id="path3795"
       style="opacity:0.8;color:#000000;fill:url(#radialGradient3142);fill-opacity:1;fill-rule:nonzero;stroke:none;stroke-width:1;marker:none;visibility:visible;display:inline;overflow:visible;enable-background:accumulate" />
    <path
       d="m 33.84375,976.58093 c -10.038792,5.07585 -16.90625,15.48213 -16.90625,27.49997 0,2.5564 0.319238,5.0312 0.90625,7.4063 L 45.375,986.98718 33.84375,976.58093 z"
       inkscape:connector-curvature="0"
       id="path3793"
       style="opacity:0.8;color:#000000;fill:url(#radialGradient3785);fill-opacity:1;fill-rule:nonzero;stroke:none;stroke-width:1;marker:none;visibility:visible;display:inline;overflow:visible;enable-background:accumulate" />
    <path
       d="m 65,978.58093 0,35.78127 11.75,0 c 1.139442,-3.2168 1.78125,-6.674 1.78125,-10.2813 0,-10.60695 -5.370357,-19.95988 -13.53125,-25.49997 z"
       inkscape:connector-curvature="0"
       id="path3791"
       style="opacity:0.8;color:#000000;fill:url(#radialGradient3803);fill-opacity:1;fill-rule:nonzero;stroke:none;stroke-width:1;marker:none;visibility:visible;display:inline;overflow:visible;enable-background:accumulate" />
    <path
       d="m 31,1005.1434 -11.8125,10.5 c 2.389518,5.895 6.539254,10.863 11.8125,14.2813 l 0,-24.7813 z"
       inkscape:connector-curvature="0"
       id="path3789"
       style="opacity:0.8;color:#000000;fill:url(#radialGradient3819);fill-opacity:1;fill-rule:nonzero;stroke:none;stroke-width:1;marker:none;visibility:visible;display:inline;overflow:visible;enable-background:accumulate" />
    <path
       d="m 35,1018.3622 0,13.75 c 3.882294,1.7658 8.175663,2.7812 12.71875,2.7812 11.85743,0 22.164544,-6.7102 27.3125,-16.5312 l -40.03125,0 z"
       inkscape:connector-curvature="0"
       id="path3763"
       style="opacity:0.7;color:#000000;fill:url(#radialGradient3811);fill-opacity:1;fill-rule:nonzero;stroke:none;stroke-width:1;marker:none;visibility:visible;display:inline;overflow:visible;enable-background:accumulate" />
    <path
       d="m 48,968.36218 c -5.0055,0 -9.76257,1.02898 -14.09375,2.875 L 61,995.64343 61,970.79968 c -4.035212,-1.56466 -8.412107,-2.4375 -13,-2.4375 z m 0,2.03125 c 3.852139,0 7.51806,0.72243 10.96875,1.90625 l 0,18.8125 -21.09375,-19 c 3.216965,-1.01465 6.566962,-1.71875 10.125,-1.71875 z m 17,2.21875 0,41.75002 17.59375,0 c 0.914773,-3.1727 1.40625,-6.5329 1.40625,-10 0,-13.73368 -7.690698,-25.68011 -19,-31.75002 z m -34.96875,0.5625 C 19.259661,979.39636 12,991.02874 12,1004.3622 c 0,3.7735 0.579525,7.4259 1.65625,10.8437 L 45.375,986.98718 30.03125,973.17468 z m -0.1875,2.53125 12.5,11.28125 -27.46875,24.43752 c -0.483504,-2.2867 -0.84375,-4.6316 -0.84375,-7.0625 0,-12.0859 6.324048,-22.6313 15.8125,-28.65627 z m 37.1875,0.5625 c 8.997084,6.10992 14.9375,16.38171 14.9375,28.09377 0,2.7553 -0.382223,5.4056 -1,7.9687 l -13.9375,0 0,-36.06247 z M 31,1005.1434 15.21875,1019.1747 c 3.270802,7.2232 8.82694,13.205 15.78125,16.9375 l 0,-30.9688 z m -2.03125,4.5 0,22.75 c -4.729242,-3.2321 -8.581335,-7.6277 -11.1875,-12.7812 l 11.1875,-9.9688 z m 6.03125,8.7188 0,19.5625 c 4.035212,1.5646 8.412107,2.4375 13,2.4375 14.911688,0 27.691153,-9.0791 33.15625,-22 l -46.15625,0 z m 2.03125,2.0312 40.8125,0 c -5.730826,10.6493 -16.884878,17.9375 -29.84375,17.9375 -3.852139,0 -7.51806,-0.7224 -10.96875,-1.9062 l 0,-16.0313 z"
       inkscape:connector-curvature="0"
       id="path3846"
       style="opacity:0.05;color:#000000;fill:#000000;fill-opacity:1;fill-rule:nonzero;stroke:none;stroke-width:1;marker:none;visibility:visible;display:inline;overflow:visible;enable-background:accumulate" />
    <path
       d="m 34.6875,971.92468 c -0.258639,0.10325 -0.525544,0.20351 -0.78125,0.3125 L 61,996.64343 l 0,-1 -26.3125,-23.71875 z m 10.125,15.5625 -31.15625,27.71872 c -1.016936,-3.2281 -1.595704,-6.6678 -1.65625,-10.2187 -0.0013,0.1261 0,0.2486 0,0.375 0,3.7735 0.579525,7.4259 1.65625,10.8437 l 31.71875,-28.21872 -0.5625,-0.5 z m 39.15625,17.37502 c -0.04498,3.2899 -0.504354,6.4803 -1.375,9.5 l -17.59375,0 0,1 17.59375,0 c 0.914773,-3.1727 1.40625,-6.5329 1.40625,-10 0,-0.1677 -0.02897,-0.3329 -0.03125,-0.5 z m -3.28125,14.5 c -5.693289,12.3788 -18.169451,21 -32.6875,21 -4.587893,0 -8.964788,-0.8729 -13,-2.4375 l 0,1 c 4.035212,1.5646 8.412107,2.4375 13,2.4375 14.911688,0 27.691153,-9.0791 33.15625,-22 l -0.46875,0 z m -65.125,0.5312 -0.34375,0.2813 c 3.270802,7.2232 8.82694,13.205 15.78125,16.9375 l 0,-1 c -6.720657,-3.6071 -12.129152,-9.32 -15.4375,-16.2188 z"
       inkscape:connector-curvature="0"
       id="path3832"
       style="color:#000000;fill:#ffffff;fill-opacity:1;fill-rule:nonzero;stroke:none;stroke-width:1;marker:none;visibility:visible;display:inline;overflow:visible;enable-background:accumulate" />
    <path
       d="m 48,968.36218 c -5.0055,0 -9.76257,1.02898 -14.09375,2.875 l 0.78125,0.6875 c 4.122211,-1.64556 8.602517,-2.5625 13.3125,-2.5625 4.587893,0 8.964788,0.87284 13,2.4375 l 0,-1 c -4.035212,-1.56466 -8.412107,-2.4375 -13,-2.4375 z m 17,4.25 0,1 c 11.171253,5.99582 18.783886,17.72768 18.96875,31.25002 0.0023,-0.1668 0.03125,-0.3328 0.03125,-0.5 0,-13.73368 -7.690698,-25.68011 -19,-31.75002 z m -34.96875,0.5625 C 19.259661,979.39636 12,991.02874 12,1004.3622 c 0,0.2095 -0.0036,0.4162 0,0.625 0.136005,-13.17478 7.361776,-24.64982 18.03125,-30.81252 l 14.78125,13.3125 0.5625,-0.5 -15.34375,-13.8125 z M 31,1005.1434 15.21875,1019.1747 c 0.109893,0.2427 0.228731,0.4789 0.34375,0.7187 l 15.4375,-13.75 0,-1 z m 4,13.2188 0,1 45.6875,0 c 0.154366,-0.3357 0.324482,-0.6589 0.46875,-1 l -46.15625,0 z"
       inkscape:connector-curvature="0"
       id="path3837"
       style="opacity:0.3;color:#000000;fill:#000000;fill-opacity:1;fill-rule:nonzero;stroke:none;stroke-width:1;marker:none;visibility:visible;display:inline;overflow:visible;enable-background:accumulate" />
    <path
       d="m 48,968.36218 c -5.0055,0 -9.76257,1.02898 -14.09375,2.875 L 61,995.64343 61,970.79968 c -4.035212,-1.56466 -8.412107,-2.4375 -13,-2.4375 z m 0,1.09375 c 4.188547,0 8.185224,0.77126 11.90625,2.125 l 0,21.625 -23.875,-21.5 c 3.750981,-1.37992 7.73582,-2.25 11.96875,-2.25 z m 17,3.15625 0,41.75002 17.59375,0 c 0.914773,-3.1727 1.40625,-6.5329 1.40625,-10 0,-13.73368 -7.690698,-25.68011 -19,-31.75002 z m -34.96875,0.5625 C 19.259661,979.39636 12,991.02874 12,1004.3622 c 0,3.7735 0.579525,7.4259 1.65625,10.8437 L 45.375,986.98718 30.03125,973.17468 z m -0.09375,1.375 13.8125,12.4375 -29.46875,26.18752 c -0.732271,-2.8189 -1.1875,-5.7644 -1.1875,-8.8125 0,-12.66788 6.758542,-23.68944 16.84375,-29.81252 z m 36.15625,0 c 10.067289,6.12684 16.8125,17.15642 16.8125,29.81252 0,3.0872 -0.436243,6.0565 -1.1875,8.9062 l -15.625,0 0,-38.71872 z M 31,1005.1434 15.21875,1019.1747 c 3.270802,7.2232 8.82694,13.205 15.78125,16.9375 l 0,-30.9688 z m -1.09375,2.4375 0,26.5625 c -5.748537,-3.509 -10.409236,-8.605 -13.34375,-14.7187 l 13.34375,-11.8438 z M 35,1018.3622 l 0,19.5625 c 4.035212,1.5646 8.412107,2.4375 13,2.4375 14.911688,0 27.691153,-9.0791 33.15625,-22 l -46.15625,0 z m 1.09375,1.0937 43.28125,0 c -5.638269,11.7018 -17.506221,19.8125 -31.375,19.8125 -4.188547,0 -8.185224,-0.7712 -11.90625,-2.125 l 0,-17.6875 z"
       inkscape:connector-curvature="0"
       id="path3842"
       style="opacity:0.1;color:#000000;fill:#000000;fill-opacity:1;fill-rule:nonzero;stroke:none;stroke-width:1;marker:none;visibility:visible;display:inline;overflow:visible;enable-background:accumulate" />
    <rect
       ry="25"
       rx="25"
       id="rect3003"
       style="opacity:0.15;fill:#ffffff;fill-opacity:1"
       height="92"
       width="92"
       y="958.36218"
       x="-96"
       clip-path="url(#clipPath3009)"
       transform="translate(98,3.8281269e-7)" />
  </g>
</svg>
