<?xml version="1.0" encoding="UTF-8" standalone="no"?>
<!-- Created with Inkscape (http://www.inkscape.org/) -->

<svg
   xmlns:dc="http://purl.org/dc/elements/1.1/"
   xmlns:cc="http://creativecommons.org/ns#"
   xmlns:rdf="http://www.w3.org/1999/02/22-rdf-syntax-ns#"
   xmlns:svg="http://www.w3.org/2000/svg"
   xmlns="http://www.w3.org/2000/svg"
   xmlns:xlink="http://www.w3.org/1999/xlink"
   xmlns:sodipodi="http://sodipodi.sourceforge.net/DTD/sodipodi-0.dtd"
   xmlns:inkscape="http://www.inkscape.org/namespaces/inkscape"
   width="96"
   height="96"
   id="svg11037"
   version="1.1"
   inkscape:version="0.48.3.1 r9886"
   sodipodi:docname="pidgin.svg">
  <defs
     id="defs11039">
    <linearGradient
       y2="1046.1001"
       x2="47.999954"
       y1="962.62189"
       x1="47.999954"
       gradientTransform="matrix(1.15,0,0,1.15,-7.1999462,-150.65291)"
       gradientUnits="userSpaceOnUse"
       id="linearGradient3886"
       xlink:href="#linearGradient3795"
       inkscape:collect="always" />
    <linearGradient
       id="linearGradient3795">
      <stop
         style="stop-color:#13a6fd;stop-opacity:1;"
         offset="0"
         id="stop3797" />
      <stop
         style="stop-color:#2975b6;stop-opacity:1;"
         offset="1"
         id="stop3799" />
    </linearGradient>
    <linearGradient
       y2="1046.1001"
       x2="47.999954"
       y1="962.62189"
       x1="47.999954"
       gradientTransform="matrix(1.15,0,0,1.15,-7.1999462,-150.65292)"
       gradientUnits="userSpaceOnUse"
       id="linearGradient11642"
       xlink:href="#ButtonColor"
       inkscape:collect="always" />
    <linearGradient
       x1="48"
       y1="90"
       x2="48"
       y2="5.9877172"
       id="linearGradient3948"
       xlink:href="#ButtonColor"
       gradientUnits="userSpaceOnUse" />
    <linearGradient
       x1="10.31979"
       y1="21"
       x2="10.31979"
       y2="0.99929649"
       id="ButtonColor"
       gradientUnits="userSpaceOnUse">
      <stop
         id="stop3189"
         style="stop-color:#892a77;stop-opacity:1"
         offset="0" />
      <stop
         id="stop3191"
         style="stop-color:#c16bae;stop-opacity:1"
         offset="1" />
    </linearGradient>
    <linearGradient
       gradientTransform="translate(-30.322331,951.07662)"
       y2="5.9877172"
       x2="48"
       y1="90"
       x1="48"
       gradientUnits="userSpaceOnUse"
       id="linearGradient3055"
       xlink:href="#ButtonColor"
       inkscape:collect="always" />
    <clipPath
       clipPathUnits="userSpaceOnUse"
       id="clipPath3009">
      <path
         id="path3011"
         d="m -2,956.36218 -96,0 0,33.5624 96,25.68742 0,-59.24982 z"
         style="opacity:0.15;fill:#ffffff;fill-opacity:1;stroke:none"
         inkscape:connector-curvature="0" />
    </clipPath>
  </defs>
  <sodipodi:namedview
     id="base"
     pagecolor="#ffffff"
     bordercolor="#666666"
     borderopacity="1.0"
     inkscape:pageopacity="0.0"
     inkscape:pageshadow="2"
     inkscape:zoom="3.959798"
     inkscape:cx="33.538031"
     inkscape:cy="49.863109"
     inkscape:document-units="px"
     inkscape:current-layer="layer1"
     showgrid="false"
     inkscape:window-width="1280"
     inkscape:window-height="750"
     inkscape:window-x="0"
     inkscape:window-y="22"
     inkscape:window-maximized="1"
     showguides="true"
     inkscape:guide-bbox="true">
    <sodipodi:guide
       orientation="0,1"
       position="-24.748737,0"
       id="guide11064" />
    <sodipodi:guide
       orientation="0,1"
       position="-23.233509,96"
       id="guide11066" />
    <sodipodi:guide
       orientation="1,0"
       position="0,54.800776"
       id="guide11068" />
    <sodipodi:guide
       orientation="1,0"
       position="96,51.012704"
       id="guide11070" />
    <sodipodi:guide
       orientation="0,1"
       position="-18.94036,48"
       id="guide11072" />
    <sodipodi:guide
       orientation="1,0"
       position="48,79.296975"
       id="guide11074" />
    <sodipodi:guide
       orientation="1,0"
       position="2,75.508903"
       id="guide11076" />
    <sodipodi:guide
       orientation="0,1"
       position="-77.27667,2"
       id="guide11078" />
    <sodipodi:guide
       orientation="1,0"
       position="94,77.781746"
       id="guide11080" />
    <sodipodi:guide
       orientation="0,1"
       position="-65.912454,94"
       id="guide11082" />
  </sodipodi:namedview>
  <metadata
     id="metadata11042">
    <rdf:RDF>
      <cc:Work
         rdf:about="">
        <dc:format>image/svg+xml</dc:format>
        <dc:type
           rdf:resource="http://purl.org/dc/dcmitype/StillImage" />
        <dc:title />
      </cc:Work>
    </rdf:RDF>
  </metadata>
  <g
     inkscape:label="Layer 1"
     inkscape:groupmode="layer"
     id="layer1"
     transform="translate(0,-956.36218)">
    <rect
       x="2"
       y="958.36218"
       width="92"
       height="92"
       style="fill:url(#linearGradient11642);fill-opacity:1.0"
       id="rect3867"
       rx="25"
       ry="25" />
    <g
       transform="translate(-0.03121695,963.39328)"
       id="g3057">
      <path
         inkscape:connector-curvature="0"
         style="font-size:24px;font-style:normal;font-variant:normal;font-weight:bold;font-stretch:normal;text-align:start;line-height:125%;writing-mode:lr-tb;text-anchor:start;opacity:0.15;fill:#5e1a50;fill-opacity:1;stroke:none;font-family:Liberation Sans;-inkscape-font-specification:Abandoned Bitplane Bold"
         id="path4082"
         d="m 55.34375,16.03125 a 0.98129583,0.98129583 0 0 0 -0.625,1.53125 c 1.318089,1.911264 2.441453,3.774319 3.375,5.625 0.931287,1.846272 1.694337,3.733871 2.28125,5.625 a 0.98129583,0.98129583 0 0 0 0,0.03125 c 0.604803,1.896179 1.067057,3.810611 1.34375,5.8125 0.277172,1.989195 0.406243,4.115856 0.40625,6.34375 -7e-6,2.24494 -0.128836,4.367789 -0.40625,6.375 -0.276571,1.984763 -0.738519,3.883759 -1.34375,5.78125 a 0.98129583,0.98129583 0 0 0 0,0.03125 c -0.586504,1.889836 -1.350437,3.764775 -2.28125,5.59375 -0.934452,1.852501 -2.056535,3.727983 -3.375,5.65625 a 0.98129583,0.98129583 0 0 0 0.8125,1.53125 l 7.0625,0 a 0.98129583,0.98129583 0 0 0 0.8125,-0.40625 c 1.31433,-1.894704 2.446,-3.801319 3.40625,-5.6875 0.959392,-1.884546 1.756352,-3.824597 2.375,-5.8125 0.0029,-0.0092 -0.0028,-0.02208 0,-0.03125 0.631991,-1.986768 1.114621,-4.074524 1.40625,-6.21875 0.309535,-2.166855 0.437485,-4.426127 0.4375,-6.84375 -1.5e-5,-2.423077 -0.130341,-4.715556 -0.4375,-6.84375 -0.0014,-0.0103 0.0014,-0.02095 0,-0.03125 -0.292102,-2.133597 -0.776986,-4.195028 -1.40625,-6.15625 -0.0029,-0.0092 0.0029,-0.02204 0,-0.03125 -0.619053,-1.98902 -1.415127,-3.912874 -2.375,-5.78125 -0.960248,-1.886152 -2.091923,-3.792774 -3.40625,-5.6875 a 0.98129583,0.98129583 0 0 0 -0.8125,-0.40625 l -7.0625,0 a 0.98129583,0.98129583 0 0 0 -0.1875,0 z m -29.53125,10 A 0.98129583,0.98129583 0 0 0 25.03125,27 l 0,8 A 0.98129583,0.98129583 0 0 0 26,35.96875 l 8,0 A 0.98129583,0.98129583 0 0 0 34.96875,35 l 0,-8 A 0.98129583,0.98129583 0 0 0 34,26.03125 l -8,0 a 0.98129583,0.98129583 0 0 0 -0.1875,0 z m 14,11 A 0.98129583,0.98129583 0 0 0 39.03125,38 l 0,6 A 0.98129583,0.98129583 0 0 0 40,44.96875 l 14,0 A 0.98129583,0.98129583 0 0 0 54.96875,44 l 0,-6 A 0.98129583,0.98129583 0 0 0 54,37.03125 l -14,0 a 0.98129583,0.98129583 0 0 0 -0.1875,0 z m -13.875,9 A 0.98129583,0.98129583 0 0 0 25.15625,47 l 0,7.90625 A 0.98129583,0.98129583 0 0 0 26.125,55.875 l 2.40625,0 c -0.03863,0.170484 -0.02553,0.289326 -0.09375,0.5625 -0.164541,0.65879 -0.43833,1.33793 -0.75,2.03125 -0.315658,0.702141 -0.644766,1.394829 -1.0625,2.03125 a 0.98129583,0.98129583 0 0 0 -0.03125,0 C 26.183697,61.150723 25.744034,61.771899 25.25,62.375 A 0.98129583,0.98129583 0 0 0 26,63.96875 l 5.03125,0 a 0.98129583,0.98129583 0 0 0 0.78125,-0.375 c 0.47532,-0.649895 0.948498,-1.341082 1.34375,-2.09375 0.39691,-0.755885 0.727819,-1.607698 1,-2.5 0.27378,-0.878554 0.460754,-1.80261 0.59375,-2.8125 0.0014,-0.01075 -0.0014,-0.02049 0,-0.03125 0.152087,-1.03292 0.218738,-2.182585 0.21875,-3.40625 l 0,-5.75 A 0.98129583,0.98129583 0 0 0 34,46.03125 l -7.875,0 a 0.98129583,0.98129583 0 0 0 -0.1875,0 z" />
      <path
         style="font-size:24px;font-style:normal;font-variant:normal;font-weight:bold;font-stretch:normal;text-align:start;line-height:125%;writing-mode:lr-tb;text-anchor:start;opacity:0.3;fill:#5e1a50;fill-opacity:1;stroke:none;font-family:Liberation Sans;-inkscape-font-specification:Abandoned Bitplane Bold"
         id="path4078"
         inkscape:connector-curvature="0"
         d="m 55.53125,17 c 1.341014,1.944507 2.482024,3.855847 3.4375,5.75 0.95547,1.894214 1.740289,3.836802 2.34375,5.78125 0.620215,1.944497 1.090027,3.938208 1.375,6 0.284957,2.045067 0.406243,4.205799 0.40625,6.46875 -7e-6,2.279738 -0.121291,4.438195 -0.40625,6.5 -0.284973,2.045055 -0.754785,4.024281 -1.375,5.96875 -0.603461,1.944474 -1.38828,3.872575 -2.34375,5.75 -0.955476,1.89418 -2.096486,3.820004 -3.4375,5.78125 l 7.0625,0 c 1.290721,-1.86067 2.40503,-3.718609 3.34375,-5.5625 0.938701,-1.843902 1.70903,-3.743029 2.3125,-5.6875 0.620206,-1.944472 1.09002,-3.967159 1.375,-6.0625 0.301712,-2.112092 0.437485,-4.338435 0.4375,-6.71875 C 70.062485,38.5717 69.926714,36.328593 69.625,34.25 69.34002,32.154683 68.870206,30.146483 68.25,28.21875 67.64653,26.274304 66.876201,24.389664 65.9375,22.5625 64.99878,20.718635 63.884471,18.860695 62.59375,17 l -7.0625,0 z M 26,27 l 0,8 8,0 0,-8 -8,0 z m 14,11 0,6 14,0 0,-6 -14,0 z m -13.875,9 0,7.90625 3.53125,0 c -9e-6,0.713489 -0.09861,1.049922 -0.28125,1.78125 -0.182657,0.731322 -0.452493,1.45617 -0.78125,2.1875 -0.328778,0.731324 -0.699635,1.460593 -1.15625,2.15625 C 26.999138,61.726898 26.51141,62.375687 26,63 l 5.03125,0 c 0.45661,-0.624313 0.884691,-1.273102 1.25,-1.96875 0.365285,-0.695657 0.681778,-1.474156 0.9375,-2.3125 0.255694,-0.820518 0.434641,-1.706455 0.5625,-2.6875 C 33.927349,55.050201 33.999988,53.945093 34,52.75 L 34,47 26.125,47 z" />
      <path
         style="font-size:24px;font-style:normal;font-variant:normal;font-weight:bold;font-stretch:normal;text-align:start;line-height:125%;writing-mode:lr-tb;text-anchor:start;fill:#ffffff;fill-opacity:1;stroke:none;font-family:Liberation Sans;-inkscape-font-specification:Abandoned Bitplane Bold"
         id="path4075"
         inkscape:connector-curvature="0"
         d="m 55.53125,16 c 1.341014,1.944507 2.482024,3.855847 3.4375,5.75 0.95547,1.894214 1.740289,3.836802 2.34375,5.78125 0.620215,1.944497 1.090027,3.938208 1.375,6 0.284957,2.045067 0.406243,4.205799 0.40625,6.46875 -7e-6,2.279738 -0.121291,4.438195 -0.40625,6.5 -0.284973,2.045055 -0.754785,4.024281 -1.375,5.96875 -0.603461,1.944474 -1.38828,3.872575 -2.34375,5.75 -0.955476,1.89418 -2.096486,3.820004 -3.4375,5.78125 l 7.0625,0 c 1.290721,-1.86067 2.40503,-3.718609 3.34375,-5.5625 0.938701,-1.843902 1.70903,-3.743029 2.3125,-5.6875 0.620206,-1.944472 1.09002,-3.967159 1.375,-6.0625 0.301712,-2.112092 0.437485,-4.338435 0.4375,-6.71875 C 70.062485,37.5717 69.926714,35.328593 69.625,33.25 69.34002,31.154683 68.870206,29.146483 68.25,27.21875 67.64653,25.274304 66.876201,23.389664 65.9375,21.5625 64.99878,19.718635 63.884471,17.860695 62.59375,16 l -7.0625,0 z M 26,26 l 0,8 8,0 0,-8 -8,0 z m 14,11 0,6 14,0 0,-6 -14,0 z m -13.875,9 0,7.90625 3.53125,0 c -9e-6,0.713489 -0.09861,1.049922 -0.28125,1.78125 -0.182657,0.731322 -0.452493,1.45617 -0.78125,2.1875 -0.328778,0.731324 -0.699635,1.460593 -1.15625,2.15625 C 26.999138,60.726898 26.51141,61.375687 26,62 l 5.03125,0 c 0.45661,-0.624313 0.884691,-1.273102 1.25,-1.96875 0.365285,-0.695657 0.681778,-1.474156 0.9375,-2.3125 0.255694,-0.820518 0.434641,-1.706455 0.5625,-2.6875 C 33.927349,54.050201 33.999988,52.945093 34,51.75 L 34,46 26.125,46 z" />
    </g>
    <rect
       ry="25"
       rx="25"
       id="rect3003"
       style="opacity:0.15;fill:#ffffff;fill-opacity:1"
       height="92"
       width="92"
       y="958.36218"
       x="-96"
       clip-path="url(#clipPath3009)"
       transform="translate(98,3.8281269e-7)" />
  </g>
</svg>
