<?xml version="1.0" encoding="UTF-8" standalone="no"?>
<!-- Created with Inkscape (http://www.inkscape.org/) -->

<svg
   xmlns:dc="http://purl.org/dc/elements/1.1/"
   xmlns:cc="http://creativecommons.org/ns#"
   xmlns:rdf="http://www.w3.org/1999/02/22-rdf-syntax-ns#"
   xmlns:svg="http://www.w3.org/2000/svg"
   xmlns="http://www.w3.org/2000/svg"
   xmlns:xlink="http://www.w3.org/1999/xlink"
   xmlns:sodipodi="http://sodipodi.sourceforge.net/DTD/sodipodi-0.dtd"
   xmlns:inkscape="http://www.inkscape.org/namespaces/inkscape"
   width="96"
   height="96"
   id="svg11037"
   version="1.1"
   inkscape:version="0.48.3.1 r9886"
   sodipodi:docname="ppa.svg">
  <defs
     id="defs11039">
    <linearGradient
       y2="1046.1001"
       x2="47.999954"
       y1="962.62189"
       x1="47.999954"
       gradientTransform="matrix(1.15,0,0,1.15,-7.1999462,-150.65291)"
       gradientUnits="userSpaceOnUse"
       id="linearGradient3886"
       xlink:href="#linearGradient3795"
       inkscape:collect="always" />
    <linearGradient
       id="linearGradient3795">
      <stop
         style="stop-color:#13a6fd;stop-opacity:1;"
         offset="0"
         id="stop3797" />
      <stop
         style="stop-color:#2975b6;stop-opacity:1;"
         offset="1"
         id="stop3799" />
    </linearGradient>
    <linearGradient
       y2="1046.1001"
       x2="47.999954"
       y1="962.62189"
       x1="47.999954"
       gradientTransform="matrix(1.15,0,0,1.15,-7.1999462,-150.65292)"
       gradientUnits="userSpaceOnUse"
       id="linearGradient11642"
       xlink:href="#linearGradient3795"
       inkscape:collect="always" />
    <linearGradient
       x1="8"
       y1="38.127232"
       x2="8"
       y2="71.877235"
       id="linearGradient4376"
       xlink:href="#linearGradient4370"
       gradientUnits="userSpaceOnUse" />
    <linearGradient
       id="linearGradient4370">
      <stop
         id="stop4372"
         style="stop-color:#8a5b30;stop-opacity:1"
         offset="0" />
      <stop
         id="stop4374"
         style="stop-color:#8a5b30;stop-opacity:0"
         offset="1" />
    </linearGradient>
    <linearGradient
       x1="54.187183"
       y1="90"
       x2="54.187183"
       y2="39.852562"
       id="linearGradient3706"
       xlink:href="#linearGradient4289"
       gradientUnits="userSpaceOnUse" />
    <linearGradient
       id="linearGradient4289">
      <stop
         id="stop4291"
         style="stop-color:#996c3b;stop-opacity:1"
         offset="0" />
      <stop
         id="stop4293"
         style="stop-color:#c19e6d;stop-opacity:1"
         offset="1" />
    </linearGradient>
    <radialGradient
       cx="48"
       cy="73.14563"
       r="42"
       fx="48"
       fy="73.14563"
       id="radialGradient4432"
       xlink:href="#linearGradient4426"
       gradientUnits="userSpaceOnUse"
       gradientTransform="matrix(0.867765,0,0,0.09523809,6.3472804,36.190476)" />
    <linearGradient
       id="linearGradient4426">
      <stop
         id="stop4428"
         style="stop-color:#71461e;stop-opacity:1"
         offset="0" />
      <stop
         id="stop4430"
         style="stop-color:#71461e;stop-opacity:0"
         offset="1" />
    </linearGradient>
    <linearGradient
       x1="8"
       y1="38.127232"
       x2="8"
       y2="87.029526"
       id="linearGradient4400"
       xlink:href="#linearGradient4370"
       gradientUnits="userSpaceOnUse"
       gradientTransform="matrix(-1,0,0,1,96,0)" />
    <linearGradient
       id="linearGradient3586">
      <stop
         id="stop3588"
         style="stop-color:#8a5b30;stop-opacity:1"
         offset="0" />
      <stop
         id="stop3590"
         style="stop-color:#8a5b30;stop-opacity:0"
         offset="1" />
    </linearGradient>
    <linearGradient
       x1="10"
       y1="40.263424"
       x2="10"
       y2="89.666374"
       id="linearGradient4402"
       xlink:href="#linearGradient3737"
       gradientUnits="userSpaceOnUse"
       gradientTransform="matrix(-1,0,0,1,96,0)" />
    <linearGradient
       id="linearGradient3737">
      <stop
         id="stop3739"
         style="stop-color:#ffffff;stop-opacity:1"
         offset="0" />
      <stop
         id="stop3741"
         style="stop-color:#ffffff;stop-opacity:0"
         offset="1" />
    </linearGradient>
    <linearGradient
       x1="10"
       y1="40.263424"
       x2="10"
       y2="89.666374"
       id="linearGradient4394"
       xlink:href="#linearGradient3737"
       gradientUnits="userSpaceOnUse" />
    <linearGradient
       id="linearGradient3597">
      <stop
         id="stop3599"
         style="stop-color:#ffffff;stop-opacity:1"
         offset="0" />
      <stop
         id="stop3601"
         style="stop-color:#ffffff;stop-opacity:0"
         offset="1" />
    </linearGradient>
    <linearGradient
       x1="47.079498"
       y1="32.782871"
       x2="6.5962563"
       y2="9.4098616"
       id="linearGradient5100"
       xlink:href="#linearGradient5092"
       gradientUnits="userSpaceOnUse" />
    <linearGradient
       id="linearGradient5092">
      <stop
         id="stop5094"
         style="stop-color:#be9f6a;stop-opacity:1"
         offset="0" />
      <stop
         id="stop5096"
         style="stop-color:#e5d2b2;stop-opacity:1"
         offset="1" />
    </linearGradient>
    <filter
       x="-0.31155673"
       y="-0.42628157"
       width="1.6231135"
       height="1.8525631"
       color-interpolation-filters="sRGB"
       id="filter4362">
      <feGaussianBlur
         id="feGaussianBlur4364"
         stdDeviation="6.2124381" />
    </filter>
    <linearGradient
       x1="48"
       y1="42"
       x2="6.7812738"
       y2="18.202358"
       id="linearGradient2489"
       xlink:href="#linearGradient4295"
       gradientUnits="userSpaceOnUse" />
    <linearGradient
       id="linearGradient4295">
      <stop
         id="stop4297"
         style="stop-color:#b88f56;stop-opacity:1"
         offset="0" />
      <stop
         id="stop4299"
         style="stop-color:#d9bd98;stop-opacity:1"
         offset="1" />
    </linearGradient>
    <linearGradient
       x1="47.226776"
       y1="29.039698"
       x2="6.3304405"
       y2="18.081558"
       id="linearGradient3264"
       xlink:href="#linearGradient4295"
       gradientUnits="userSpaceOnUse"
       gradientTransform="matrix(-1,0,0,1,96,0)" />
    <linearGradient
       id="linearGradient3614">
      <stop
         id="stop3616"
         style="stop-color:#b88f56;stop-opacity:1"
         offset="0" />
      <stop
         id="stop3618"
         style="stop-color:#d9bd98;stop-opacity:1"
         offset="1" />
    </linearGradient>
    <linearGradient
       x1="50.499405"
       y1="19.881863"
       x2="50.499405"
       y2="47.295406"
       id="linearGradient3277"
       xlink:href="#linearGradient4309"
       gradientUnits="userSpaceOnUse" />
    <linearGradient
       x1="52.25"
       y1="47.247101"
       x2="52.25"
       y2="0.2393"
       id="linearGradient4309"
       gradientUnits="userSpaceOnUse">
      <stop
         id="stop4311"
         style="stop-color:#d8cab2;stop-opacity:1"
         offset="0" />
      <stop
         id="stop4321"
         style="stop-color:#d2b98c;stop-opacity:1"
         offset="0.45710954" />
      <stop
         id="stop4323"
         style="stop-color:#f9f7ef;stop-opacity:1"
         offset="0.48590001" />
      <stop
         id="stop4325"
         style="stop-color:#ffffff;stop-opacity:1"
         offset="0.49110001" />
      <stop
         id="stop4327"
         style="stop-color:#fbf9f4;stop-opacity:1"
         offset="0.49180001" />
      <stop
         id="stop4329"
         style="stop-color:#efe7d0;stop-opacity:1"
         offset="0.4946" />
      <stop
         id="stop4331"
         style="stop-color:#e4d6b0;stop-opacity:1"
         offset="0.49770001" />
      <stop
         id="stop4333"
         style="stop-color:#dac894;stop-opacity:1"
         offset="0.5011" />
      <stop
         id="stop4335"
         style="stop-color:#c7a572;stop-opacity:1"
         offset="0.50489998" />
      <stop
         id="stop4347"
         style="stop-color:#d7c198;stop-opacity:1"
         offset="1" />
    </linearGradient>
    <linearGradient
       x1="23.142857"
       y1="42"
       x2="66.964287"
       y2="6"
       id="linearGradient3285"
       xlink:href="#linearGradient3737"
       gradientUnits="userSpaceOnUse" />
    <linearGradient
       id="linearGradient3633">
      <stop
         id="stop3635"
         style="stop-color:#ffffff;stop-opacity:1"
         offset="0" />
      <stop
         id="stop3637"
         style="stop-color:#ffffff;stop-opacity:0"
         offset="1" />
    </linearGradient>
    <linearGradient
       x1="8.9651041"
       y1="44.040279"
       x2="8.9651041"
       y2="52.263294"
       id="linearGradient4420"
       xlink:href="#linearGradient4414"
       gradientUnits="userSpaceOnUse" />
    <linearGradient
       id="linearGradient4414">
      <stop
         id="stop4416"
         style="stop-color:#dac3a2;stop-opacity:1"
         offset="0" />
      <stop
         id="stop4418"
         style="stop-color:#dac3a2;stop-opacity:0"
         offset="1" />
    </linearGradient>
    <linearGradient
       x1="8.9651041"
       y1="44.040279"
       x2="8.9651041"
       y2="52.263294"
       id="linearGradient4424"
       xlink:href="#linearGradient4414"
       gradientUnits="userSpaceOnUse"
       gradientTransform="matrix(-1,0,0,1,96.086934,0)" />
    <linearGradient
       id="linearGradient3644">
      <stop
         id="stop3646"
         style="stop-color:#dac3a2;stop-opacity:1"
         offset="0" />
      <stop
         id="stop3648"
         style="stop-color:#dac3a2;stop-opacity:0"
         offset="1" />
    </linearGradient>
    <linearGradient
       inkscape:collect="always"
       xlink:href="#linearGradient4370"
       id="linearGradient3603"
       gradientUnits="userSpaceOnUse"
       x1="8"
       y1="38.127232"
       x2="8"
       y2="71.877235" />
    <linearGradient
       inkscape:collect="always"
       xlink:href="#linearGradient4289"
       id="linearGradient3605"
       gradientUnits="userSpaceOnUse"
       x1="54.187183"
       y1="90"
       x2="54.187183"
       y2="39.852562" />
    <radialGradient
       inkscape:collect="always"
       xlink:href="#linearGradient4426"
       id="radialGradient3607"
       gradientUnits="userSpaceOnUse"
       gradientTransform="matrix(0.867765,0,0,0.09523809,6.3472804,36.190476)"
       cx="48"
       cy="73.14563"
       fx="48"
       fy="73.14563"
       r="42" />
    <linearGradient
       inkscape:collect="always"
       xlink:href="#linearGradient4370"
       id="linearGradient3609"
       gradientUnits="userSpaceOnUse"
       gradientTransform="matrix(-1,0,0,1,96,0)"
       x1="8"
       y1="38.127232"
       x2="8"
       y2="87.029526" />
    <linearGradient
       inkscape:collect="always"
       xlink:href="#linearGradient3737"
       id="linearGradient3611"
       gradientUnits="userSpaceOnUse"
       gradientTransform="matrix(-1,0,0,1,96,0)"
       x1="10"
       y1="40.263424"
       x2="10"
       y2="89.666374" />
    <linearGradient
       inkscape:collect="always"
       xlink:href="#linearGradient3737"
       id="linearGradient3613"
       gradientUnits="userSpaceOnUse"
       x1="10"
       y1="40.263424"
       x2="10"
       y2="89.666374" />
    <linearGradient
       inkscape:collect="always"
       xlink:href="#linearGradient5092"
       id="linearGradient3615"
       gradientUnits="userSpaceOnUse"
       x1="47.079498"
       y1="32.782871"
       x2="6.5962563"
       y2="9.4098616" />
    <linearGradient
       inkscape:collect="always"
       xlink:href="#linearGradient4295"
       id="linearGradient3617"
       gradientUnits="userSpaceOnUse"
       x1="48"
       y1="42"
       x2="6.7812738"
       y2="18.202358" />
    <linearGradient
       inkscape:collect="always"
       xlink:href="#linearGradient4295"
       id="linearGradient3619"
       gradientUnits="userSpaceOnUse"
       gradientTransform="matrix(-1,0,0,1,96,0)"
       x1="47.226776"
       y1="29.039698"
       x2="6.3304405"
       y2="18.081558" />
    <linearGradient
       inkscape:collect="always"
       xlink:href="#linearGradient4309"
       id="linearGradient3621"
       gradientUnits="userSpaceOnUse"
       x1="50.499405"
       y1="19.881863"
       x2="50.499405"
       y2="47.295406" />
    <linearGradient
       inkscape:collect="always"
       xlink:href="#linearGradient3737"
       id="linearGradient3623"
       gradientUnits="userSpaceOnUse"
       x1="23.142857"
       y1="42"
       x2="66.964287"
       y2="6" />
    <linearGradient
       inkscape:collect="always"
       xlink:href="#linearGradient4414"
       id="linearGradient3625"
       gradientUnits="userSpaceOnUse"
       x1="8.9651041"
       y1="44.040279"
       x2="8.9651041"
       y2="52.263294" />
    <linearGradient
       inkscape:collect="always"
       xlink:href="#linearGradient4414"
       id="linearGradient3627"
       gradientUnits="userSpaceOnUse"
       gradientTransform="matrix(-1,0,0,1,96.086934,0)"
       x1="8.9651041"
       y1="44.040279"
       x2="8.9651041"
       y2="52.263294" />
    <clipPath
       clipPathUnits="userSpaceOnUse"
       id="clipPath3629">
      <rect
         x="5.0666666"
         y="4.1333342"
         width="85.866661"
         height="85.866661"
         style="fill:url(#linearGradient3634);fill-opacity:1"
         id="rect3631"
         rx="23.333332"
         ry="23.333332" />
    </clipPath>
    <linearGradient
       inkscape:collect="always"
       xlink:href="#linearGradient3795"
       id="linearGradient3634"
       gradientUnits="userSpaceOnUse"
       gradientTransform="matrix(1.0733333,0,0,1.0733333,-3.5199495,-1030.9474)"
       x1="47.999954"
       y1="962.62189"
       x2="47.999954"
       y2="1046.1001" />
    <clipPath
       id="clipPath3871">
      <path
         d="M 0,95.999997 0,156 l 96.000001,0 0,-60.000003 -96.000001,0 z M 68,116 c 9.941125,0 18,8.05888 18,18 0,9.94112 -8.058875,18 -18,18 -9.941125,0 -18,-8.05888 -18,-18 0,-9.94112 8.058875,-18 18,-18 z"
         inkscape:connector-curvature="0"
         id="path3873"
         style="fill:#ffffff;fill-opacity:1;stroke:none" />
    </clipPath>
    <linearGradient
       inkscape:collect="always"
       xlink:href="#linearGradient3157"
       id="linearGradient3483"
       gradientUnits="userSpaceOnUse"
       x1="51.42857"
       y1="72.785713"
       x2="90.714287"
       y2="72.785713" />
    <linearGradient
       id="linearGradient3157">
      <stop
         id="stop3159"
         style="stop-color:#c3c3c3;stop-opacity:1"
         offset="0" />
      <stop
         id="stop3161"
         style="stop-color:#ebebeb;stop-opacity:1"
         offset="1" />
    </linearGradient>
    <linearGradient
       inkscape:collect="always"
       xlink:href="#linearGradient3737-1"
       id="linearGradient3485"
       gradientUnits="userSpaceOnUse"
       gradientTransform="translate(-2,0)"
       x1="64.321426"
       y1="55.310268"
       x2="64.321426"
       y2="84.889679" />
    <linearGradient
       id="linearGradient3737-1">
      <stop
         id="stop3739-5"
         style="stop-color:#ffffff;stop-opacity:1"
         offset="0" />
      <stop
         id="stop3741-9"
         style="stop-color:#ffffff;stop-opacity:0"
         offset="1" />
    </linearGradient>
    <clipPath
       clipPathUnits="userSpaceOnUse"
       id="clipPath3009">
      <path
         id="path3011"
         d="m -2,956.36218 -96,0 0,33.5624 96,25.68742 0,-59.24982 z"
         style="opacity:0.15;fill:#ffffff;fill-opacity:1;stroke:none"
         inkscape:connector-curvature="0" />
    </clipPath>
  </defs>
  <sodipodi:namedview
     id="base"
     pagecolor="#ffffff"
     bordercolor="#666666"
     borderopacity="1.0"
     inkscape:pageopacity="0.0"
     inkscape:pageshadow="2"
     inkscape:zoom="3.959798"
     inkscape:cx="37.957448"
     inkscape:cy="49.863109"
     inkscape:document-units="px"
     inkscape:current-layer="layer1"
     showgrid="false"
     inkscape:window-width="1280"
     inkscape:window-height="750"
     inkscape:window-x="0"
     inkscape:window-y="22"
     inkscape:window-maximized="1"
     showguides="true"
     inkscape:guide-bbox="true">
    <sodipodi:guide
       orientation="0,1"
       position="-24.748737,0"
       id="guide11064" />
    <sodipodi:guide
       orientation="0,1"
       position="-23.233509,96"
       id="guide11066" />
    <sodipodi:guide
       orientation="1,0"
       position="0,54.800776"
       id="guide11068" />
    <sodipodi:guide
       orientation="1,0"
       position="96,51.012704"
       id="guide11070" />
    <sodipodi:guide
       orientation="0,1"
       position="-18.94036,48"
       id="guide11072" />
    <sodipodi:guide
       orientation="1,0"
       position="48,79.296975"
       id="guide11074" />
    <sodipodi:guide
       orientation="1,0"
       position="2,75.508903"
       id="guide11076" />
    <sodipodi:guide
       orientation="0,1"
       position="-77.27667,2"
       id="guide11078" />
    <sodipodi:guide
       orientation="1,0"
       position="94,77.781746"
       id="guide11080" />
    <sodipodi:guide
       orientation="0,1"
       position="-65.912454,94"
       id="guide11082" />
  </sodipodi:namedview>
  <metadata
     id="metadata11042">
    <rdf:RDF>
      <cc:Work
         rdf:about="">
        <dc:format>image/svg+xml</dc:format>
        <dc:type
           rdf:resource="http://purl.org/dc/dcmitype/StillImage" />
        <dc:title />
      </cc:Work>
    </rdf:RDF>
  </metadata>
  <g
     inkscape:label="Layer 1"
     inkscape:groupmode="layer"
     id="layer1"
     transform="translate(0,-956.36218)">
    <g
       transform="matrix(1.0714286,0,0,1.0714286,-3.4285716,953.93361)"
       style="display:inline"
       id="g3487"
       clip-path="url(#clipPath3629)">
      <path
         d="m 6,36 0,48 c 0,1.781762 0.7745675,3.371709 2,4.46875 L 8,36 6,36 z"
         inkscape:connector-curvature="0"
         id="rect5138"
         style="fill:url(#linearGradient3603);fill-opacity:1;fill-rule:nonzero;stroke:none;display:inline" />
      <rect
         width="84"
         height="84"
         rx="6"
         ry="6"
         x="6"
         y="6"
         id="rect2419"
         style="fill:url(#linearGradient3605);fill-opacity:1;fill-rule:nonzero;stroke:none;display:inline" />
      <path
         d="m 6,36 0,2 c 0,3.324 2.676,6 6,6 l 72,0 c 3.324,0 6,-2.676 6,-6 l 0,-2 c 0,3.324 -2.676,6 -6,6 L 12,42 C 8.676,42 6,39.324 6,36 z"
         inkscape:connector-curvature="0"
         id="path3287"
         style="fill:url(#radialGradient3607);fill-opacity:1;fill-rule:nonzero;stroke:none;display:inline" />
      <path
         d="m 90,36 0,48 c 0,1.781762 -0.774567,3.371709 -2,4.46875 L 88,36 l 2,0 z"
         inkscape:connector-curvature="0"
         id="path4396"
         style="fill:url(#linearGradient3609);fill-opacity:1;fill-rule:nonzero;stroke:none;display:inline" />
      <rect
         width="84"
         height="24"
         rx="6"
         ry="6"
         x="6"
         y="18"
         id="rect2483"
         style="fill:#3c2510;fill-opacity:1;fill-rule:nonzero;stroke:none;display:inline" />
      <path
         d="m 88,36 0,52.46875 c -0.576856,0.516417 -1.254924,0.923089 -2,1.1875 L 86,36 l 2,0 z"
         inkscape:connector-curvature="0"
         id="path4398"
         style="opacity:0.3;fill:url(#linearGradient3611);fill-opacity:1;fill-rule:nonzero;stroke:none;display:inline" />
      <path
         d="m 8,36 0,52.46875 c 0.5768558,0.516417 1.254924,0.923089 2,1.1875 L 10,36 8,36 z"
         inkscape:connector-curvature="0"
         id="path4378"
         style="opacity:0.3;fill:url(#linearGradient3613);fill-opacity:1;fill-rule:nonzero;stroke:none;display:inline" />
      <path
         d="M 12,6 C 8.7734181,6 6,8.2592995 6,13 L 6,15 6,35.65625 48,35.69067 48,6 14,6 12,6 z"
         inkscape:connector-curvature="0"
         id="path5055"
         style="fill:url(#linearGradient3615);fill-opacity:1;fill-rule:nonzero;stroke:none;display:inline" />
      <rect
         width="47.855976"
         height="34.976532"
         rx="6"
         ry="6"
         x="12.753176"
         y="41.956837"
         transform="matrix(1,0,0,0.8555957,10,8.5841304)"
         id="rect4356"
         style="opacity:0.3;fill:#dac7a8;fill-opacity:1;fill-rule:nonzero;stroke:none;display:inline;filter:url(#filter4362)" />
      <path
         d="M 12,6 C 8.676,6 6,8.676 6,12 l 0,24 c 0,3.324 2.676,6 6,6 L 48,40 48,4 12,6 z"
         inkscape:connector-curvature="0"
         id="rect2481"
         style="fill:url(#linearGradient3617);fill-opacity:1;fill-rule:nonzero;stroke:none;display:inline" />
      <path
         d="M 54.120367,7.0000001 42,7.0000001 42.060184,31.062224 42.194832,60 l 5.686841,-0.49473 6.043862,-0.525331 0.03264,-5.551173 0.102007,-22.366542 0.06018,-24.0622239 z"
         inkscape:connector-curvature="0"
         id="path5008"
         style="opacity:0.5;fill:#3a240f;fill-opacity:1;display:inline" />
      <path
         d="m 84,6 c 3.324,0 6,2.676 6,6 l 0,24 c 0,3.324 -2.676,6 -6,6 L 48,40 48,4 84,6 z"
         inkscape:connector-curvature="0"
         id="path3262"
         style="fill:url(#linearGradient3619);fill-opacity:1;fill-rule:nonzero;stroke:none;display:inline" />
      <path
         d="M 58.191,-1.3602622 52.25,-1.7935124 46.309,-1.3602622 46.368,23.828 46.5,52.196667 l 5.575,-0.485 5.925,-0.515 0.032,-5.442 0.1,-21.926667 0.059,-25.1882622 z"
         inkscape:connector-curvature="0"
         transform="matrix(1.0200612,0,0,1.0200612,-5.2981977,5.7562055)"
         id="polygon120"
         style="fill:url(#linearGradient3621);fill-opacity:1;display:inline" />
      <path
         d="M 12,6 C 8.676,6 6,8.676 6,12 l 0,24 c 0,3.324 2.676,6 6,6 l 36,-2 36,2 c 3.324,0 6,-2.676 6,-6 L 90,12 C 90,8.676 87.324,6 84,6 L 48,4 12,6 z m 0,2 36,-2 36,2 c 2.245802,0 4,1.7541975 4,4 l 0,24 c 0,2.245802 -1.754198,4 -4,4 L 48,38 12,40 C 9.7541975,40 8,38.245802 8,36 L 8,12 C 8,9.7541975 9.7541975,8 12,8 z"
         inkscape:connector-curvature="0"
         id="rect3266"
         style="opacity:0.3;fill:url(#linearGradient3623);fill-opacity:1;fill-rule:nonzero;stroke:none;display:inline" />
      <rect
         width="1"
         height="35.714287"
         x="47"
         y="4.1250005"
         id="rect4363"
         style="opacity:0.2;fill:#8d6137;fill-opacity:1;fill-rule:nonzero;stroke:none;display:inline" />
      <rect
         width="1"
         height="35.714287"
         x="48"
         y="4.1250005"
         id="rect4365"
         style="opacity:0.2;fill:#ffffff;fill-opacity:1;fill-rule:nonzero;stroke:none;display:inline" />
      <path
         d="m 6.1871843,37.284884 c 2.3991123,5.555839 1.894036,16.036171 1.894036,16.036171 L 9.9121217,53.068517 C 9.6595836,44.861028 10.354063,41.83057 14.89975,41.704301 7.7307581,40.509469 6.1871843,37.284884 6.1871843,37.284884 z"
         inkscape:connector-curvature="0"
         id="path4404"
         style="fill:url(#linearGradient3625);fill-opacity:1;fill-rule:evenodd;stroke:none;display:inline" />
      <path
         d="m 89.89975,37.284884 c -2.399112,5.555839 -1.894036,16.036171 -1.894036,16.036171 L 86.174813,53.068517 C 86.427351,44.861028 85.732871,41.83057 81.187184,41.704301 88.356176,40.509469 89.89975,37.284884 89.89975,37.284884 z"
         inkscape:connector-curvature="0"
         id="path4422"
         style="fill:url(#linearGradient3627);fill-opacity:1;fill-rule:evenodd;stroke:none;display:inline" />
      <g
         id="layer5">
        <g
           transform="translate(0,-2)"
           id="g3745"
           style="display:inline">
          <rect
             width="14"
             height="19"
             rx="1.8666667"
             ry="2"
             x="15.5"
             y="49.5"
             id="rect3739"
             style="fill:none;stroke:#825023;stroke-width:1;stroke-opacity:1" />
          <path
             d="m 18.25,66 0,-9.25 -1.25,0 2.5,-4.75 2.5,4.75 -1.25,0 0,9.25 -2.5,0 z"
             inkscape:connector-curvature="0"
             id="path3741"
             style="fill:#825023;fill-opacity:1;fill-rule:nonzero;stroke:none" />
          <path
             d="m 24.25,66 0,-9.25 -1.25,0 2.5,-4.75 2.5,4.75 -1.25,0 0,9.25 -2.5,0 z"
             inkscape:connector-curvature="0"
             id="path3743"
             style="fill:#825023;fill-opacity:1;fill-rule:nonzero;stroke:none" />
        </g>
        <g
           id="text3754"
           style="font-size:1.5px;font-style:normal;font-variant:normal;font-weight:normal;font-stretch:normal;text-align:start;line-height:125%;writing-mode:lr-tb;text-anchor:start;fill:#553417;fill-opacity:1;stroke:none;display:inline;font-family:Arial;-inkscape-font-specification:Arial">
          <path
             d="m 15.109863,81.513954 0,-1.07373 0.14209,0 0,0.53247 0.533203,-0.53247 0.192627,0 -0.450439,0.435058 0.470215,0.638672 -0.1875,0 -0.382325,-0.543457 -0.175781,0.171387 0,0.37207 -0.14209,0"
             inkscape:connector-curvature="0"
             id="path3037" />
          <path
             d="m 16.633301,81.263466 0.13623,0.01685 c -0.02149,0.07959 -0.06128,0.141357 -0.119385,0.185302 -0.05811,0.04395 -0.132324,0.06592 -0.222656,0.06592 -0.11377,0 -0.204102,-0.03491 -0.270996,-0.104736 -0.06641,-0.07031 -0.09961,-0.168701 -0.09961,-0.295166 0,-0.130859 0.03369,-0.232421 0.101074,-0.304688 0.06738,-0.07226 0.154785,-0.108397 0.262207,-0.108398 0.104003,1e-6 0.188964,0.0354 0.254883,0.106201 0.06592,0.0708 0.09888,0.170411 0.09888,0.298828 -1e-6,0.0078 -2.45e-4,0.01953 -7.33e-4,0.03516 l -0.580078,0 c 0.0049,0.08545 0.02905,0.150879 0.07251,0.196289 0.04346,0.04541 0.09766,0.06812 0.162598,0.06812 0.04834,0 0.0896,-0.0127 0.123779,-0.03809 0.03418,-0.02539 0.06128,-0.06592 0.0813,-0.121582 m -0.432862,-0.213135 0.434327,0 c -0.0059,-0.06543 -0.02246,-0.114501 -0.0498,-0.147217 -0.04199,-0.05078 -0.09644,-0.07617 -0.16333,-0.07617 -0.06055,10e-7 -0.111573,0.02026 -0.153076,0.06079 -0.04102,0.04053 -0.06372,0.09473 -0.06812,0.162598"
             inkscape:connector-curvature="0"
             id="path3039" />
          <path
             d="m 17.468262,81.263466 0.13623,0.01685 c -0.02149,0.07959 -0.06128,0.141357 -0.119385,0.185302 -0.05811,0.04395 -0.132324,0.06592 -0.222656,0.06592 -0.11377,0 -0.204102,-0.03491 -0.270996,-0.104736 -0.06641,-0.07031 -0.09961,-0.168701 -0.09961,-0.295166 0,-0.130859 0.03369,-0.232421 0.101074,-0.304688 0.06738,-0.07226 0.154785,-0.108397 0.262207,-0.108398 0.104003,1e-6 0.188964,0.0354 0.254883,0.106201 0.06592,0.0708 0.09888,0.170411 0.09888,0.298828 -1e-6,0.0078 -2.45e-4,0.01953 -7.33e-4,0.03516 l -0.580078,0 c 0.0049,0.08545 0.02905,0.150879 0.07251,0.196289 0.04346,0.04541 0.09766,0.06812 0.162598,0.06812 0.04834,0 0.0896,-0.0127 0.123779,-0.03809 0.03418,-0.02539 0.06128,-0.06592 0.0813,-0.121582 m -0.432862,-0.213135 0.434327,0 c -0.0059,-0.06543 -0.02246,-0.114501 -0.0498,-0.147217 -0.04199,-0.05078 -0.09644,-0.07617 -0.16333,-0.07617 -0.06055,10e-7 -0.111573,0.02026 -0.153076,0.06079 -0.04102,0.04053 -0.06372,0.09473 -0.06812,0.162598"
             inkscape:connector-curvature="0"
             id="path3041" />
          <path
             d="m 17.770752,81.81205 0,-1.075928 0.120117,0 0,0.101074 c 0.02832,-0.03955 0.0603,-0.06909 0.09595,-0.08862 0.03564,-0.02002 0.07886,-0.03003 0.129639,-0.03003 0.06641,10e-7 0.125,0.01709 0.175781,0.05127 0.05078,0.03418 0.08911,0.08252 0.114991,0.145019 0.02588,0.06201 0.03882,0.130127 0.03882,0.204346 -1e-6,0.07959 -0.01441,0.151367 -0.04321,0.215332 -0.02832,0.06348 -0.06983,0.112305 -0.124512,0.146484 -0.0542,0.03369 -0.111328,0.05054 -0.171386,0.05054 -0.04395,0 -0.0835,-0.0093 -0.118653,-0.02783 -0.03467,-0.01855 -0.06323,-0.04199 -0.08569,-0.07031 l 0,0.378662 -0.131836,0 m 0.119385,-0.682617 c 0,0.100098 0.02026,0.174072 0.06079,0.221924 0.04053,0.04785 0.0896,0.07178 0.147217,0.07178 0.05859,0 0.108642,-0.02466 0.150146,-0.07398 0.04199,-0.0498 0.06299,-0.126708 0.06299,-0.230713 0,-0.09912 -0.02051,-0.173339 -0.06152,-0.222656 -0.04053,-0.04932 -0.08911,-0.07397 -0.145752,-0.07398 -0.05615,10e-7 -0.105957,0.02637 -0.149414,0.0791 -0.04297,0.05225 -0.06445,0.128419 -0.06445,0.228516"
             inkscape:connector-curvature="0"
             id="path3043" />
          <path
             d="m 19.022461,80.591835 0,-0.151611 0.131836,0 0,0.151611 -0.131836,0 m 0,0.922119 0,-0.777832 0.131836,0 0,0.777832 -0.131836,0"
             inkscape:connector-curvature="0"
             id="path3045" />
          <path
             d="m 19.355713,81.513954 0,-0.777832 0.118652,0 0,0.110596 c 0.05713,-0.08545 0.139648,-0.128173 0.247559,-0.128174 0.04687,1e-6 0.08984,0.0085 0.128906,0.02564 0.03955,0.0166 0.06909,0.03857 0.08862,0.06592 0.01953,0.02734 0.0332,0.05982 0.04102,0.09741 0.0049,0.02441 0.0073,0.06714 0.0073,0.128174 l 0,0.478271 -0.131836,0 0,-0.473144 c -1e-6,-0.05371 -0.0051,-0.09375 -0.01538,-0.120118 -0.01025,-0.02685 -0.02857,-0.0481 -0.05493,-0.06372 -0.02588,-0.01611 -0.0564,-0.02417 -0.09155,-0.02417 -0.05615,0 -0.104737,0.01782 -0.145752,0.05347 -0.04053,0.03565 -0.06079,0.103272 -0.06079,0.20288 l 0,0.424805 -0.131836,0"
             inkscape:connector-curvature="0"
             id="path3047" />
          <path
             d="m 21.114258,81.418007 c -0.04883,0.0415 -0.09595,0.0708 -0.141358,0.08789 -0.04492,0.01709 -0.09326,0.02563 -0.145019,0.02563 -0.08545,0 -0.151123,-0.02075 -0.197022,-0.06226 -0.0459,-0.04199 -0.06885,-0.09546 -0.06885,-0.1604 0,-0.03809 0.0085,-0.07275 0.02563,-0.104004 0.01758,-0.03174 0.04028,-0.05713 0.06812,-0.07617 0.02832,-0.01904 0.06006,-0.03345 0.09521,-0.04321 0.02588,-0.0068 0.06494,-0.01343 0.117187,-0.01977 0.106445,-0.0127 0.184814,-0.02783 0.235107,-0.04541 4.88e-4,-0.01807 7.32e-4,-0.02954 7.33e-4,-0.03442 -10e-7,-0.05371 -0.01245,-0.09155 -0.03735,-0.113525 -0.03369,-0.02979 -0.08374,-0.04468 -0.150146,-0.04468 -0.06201,10e-7 -0.107911,0.01099 -0.137695,0.03296 -0.0293,0.02148 -0.05103,0.05982 -0.06519,0.11499 l -0.128906,-0.01758 c 0.01172,-0.05517 0.03101,-0.09961 0.05786,-0.133301 0.02686,-0.03418 0.06567,-0.0603 0.116455,-0.07837 0.05078,-0.01855 0.109619,-0.02783 0.176514,-0.02783 0.06641,10e-7 0.120361,0.0078 0.161865,0.02344 0.0415,0.01563 0.07202,0.0354 0.09155,0.05933 0.01953,0.02344 0.0332,0.05322 0.04102,0.08935 0.0044,0.02246 0.0066,0.06299 0.0066,0.121582 l 0,0.175781 c 0,0.122559 0.0027,0.200196 0.0081,0.232911 0.0059,0.03223 0.01709,0.06323 0.03369,0.09302 l -0.137695,0 c -0.01367,-0.02734 -0.02246,-0.05933 -0.02637,-0.09595 m -0.01099,-0.294434 c -0.04785,0.01953 -0.119629,0.03613 -0.215332,0.04981 -0.0542,0.0078 -0.09253,0.0166 -0.11499,0.02637 -0.02246,0.0098 -0.0398,0.02417 -0.052,0.04321 -0.01221,0.01855 -0.01831,0.03931 -0.01831,0.06226 0,0.03516 0.01318,0.06445 0.03955,0.08789 0.02686,0.02344 0.06592,0.03516 0.117188,0.03516 0.05078,0 0.09595,-0.01099 0.135498,-0.03296 0.03955,-0.02246 0.0686,-0.05298 0.08716,-0.09155 0.01416,-0.02978 0.02124,-0.07373 0.02124,-0.131836 l 0,-0.04834"
             inkscape:connector-curvature="0"
             id="path3049" />
          <path
             d="m 21.804932,81.281776 0.130371,-0.02051 c 0.0073,0.05225 0.02759,0.09229 0.06079,0.120117 0.03369,0.02783 0.08057,0.04175 0.140625,0.04175 0.06055,0 0.105468,-0.01221 0.134765,-0.03662 0.0293,-0.0249 0.04395,-0.05395 0.04395,-0.08716 -10e-7,-0.02979 -0.01294,-0.05322 -0.03882,-0.07031 -0.01807,-0.01172 -0.06299,-0.02661 -0.134765,-0.04468 -0.09668,-0.02441 -0.163819,-0.04541 -0.201416,-0.06299 -0.03711,-0.01807 -0.06543,-0.04272 -0.08496,-0.07398 -0.01904,-0.03174 -0.02857,-0.06665 -0.02857,-0.104736 0,-0.03467 0.0078,-0.06665 0.02344,-0.09595 0.01611,-0.02978 0.03784,-0.05444 0.06518,-0.07397 0.02051,-0.01514 0.04834,-0.02783 0.0835,-0.03809 0.03564,-0.01074 0.07373,-0.01611 0.114258,-0.01611 0.06104,10e-7 0.114502,0.0088 0.160401,0.02637 0.04639,0.01758 0.08057,0.04151 0.102539,0.07178 0.02197,0.02979 0.03711,0.06982 0.04541,0.120117 l -0.128906,0.01758 c -0.0059,-0.04004 -0.02295,-0.07129 -0.05127,-0.09375 -0.02783,-0.02246 -0.06738,-0.03369 -0.118652,-0.03369 -0.06055,10e-7 -0.10376,0.01001 -0.129639,0.03003 -0.02588,0.02002 -0.03882,0.04346 -0.03882,0.07031 0,0.01709 0.0054,0.03247 0.01611,0.04614 0.01074,0.01416 0.02759,0.02588 0.05054,0.03516 0.01318,0.0049 0.052,0.01611 0.116455,0.03369 0.09326,0.0249 0.158203,0.04541 0.194824,0.06152 0.03711,0.01563 0.06616,0.03858 0.08716,0.06885 0.021,0.03027 0.03149,0.06787 0.03149,0.112793 -10e-7,0.04395 -0.01294,0.08545 -0.03882,0.124511 -0.02539,0.03858 -0.06226,0.0686 -0.110595,0.09009 -0.04834,0.021 -0.103028,0.03149 -0.164063,0.03149 -0.101074,0 -0.178223,-0.021 -0.231445,-0.06299 -0.05274,-0.04199 -0.08643,-0.104248 -0.101074,-0.186768"
             inkscape:connector-curvature="0"
             id="path3051" />
          <path
             d="m 23.115234,81.418007 c -0.04883,0.0415 -0.09595,0.0708 -0.141357,0.08789 -0.04492,0.01709 -0.09326,0.02563 -0.14502,0.02563 -0.08545,0 -0.151123,-0.02075 -0.197021,-0.06226 -0.0459,-0.04199 -0.06885,-0.09546 -0.06885,-0.1604 0,-0.03809 0.0085,-0.07275 0.02563,-0.104004 0.01758,-0.03174 0.04028,-0.05713 0.06812,-0.07617 0.02832,-0.01904 0.06006,-0.03345 0.09521,-0.04321 0.02588,-0.0068 0.06494,-0.01343 0.117188,-0.01977 0.106444,-0.0127 0.184814,-0.02783 0.235107,-0.04541 4.88e-4,-0.01807 7.32e-4,-0.02954 7.32e-4,-0.03442 0,-0.05371 -0.01245,-0.09155 -0.03735,-0.113525 -0.03369,-0.02979 -0.08374,-0.04468 -0.150147,-0.04468 -0.06201,10e-7 -0.10791,0.01099 -0.137695,0.03296 -0.0293,0.02148 -0.05102,0.05982 -0.06518,0.11499 l -0.128907,-0.01758 c 0.01172,-0.05517 0.03101,-0.09961 0.05786,-0.133301 0.02686,-0.03418 0.06567,-0.0603 0.116455,-0.07837 0.05078,-0.01855 0.109619,-0.02783 0.176513,-0.02783 0.06641,10e-7 0.120361,0.0078 0.161866,0.02344 0.0415,0.01563 0.07202,0.0354 0.09155,0.05933 0.01953,0.02344 0.0332,0.05322 0.04102,0.08935 0.0044,0.02246 0.0066,0.06299 0.0066,0.121582 l 0,0.175781 c -1e-6,0.122559 0.0027,0.200196 0.0081,0.232911 0.0059,0.03223 0.01709,0.06323 0.03369,0.09302 l -0.137695,0 c -0.01367,-0.02734 -0.02246,-0.05933 -0.02637,-0.09595 m -0.01099,-0.294434 c -0.04785,0.01953 -0.119629,0.03613 -0.215332,0.04981 -0.0542,0.0078 -0.09253,0.0166 -0.11499,0.02637 -0.02246,0.0098 -0.03979,0.02417 -0.052,0.04321 -0.01221,0.01855 -0.01831,0.03931 -0.01831,0.06226 0,0.03516 0.01318,0.06445 0.03955,0.08789 0.02686,0.02344 0.06592,0.03516 0.117188,0.03516 0.05078,0 0.09595,-0.01099 0.135498,-0.03296 0.03955,-0.02246 0.0686,-0.05298 0.08716,-0.09155 0.01416,-0.02978 0.02124,-0.07373 0.02124,-0.131836 l 0,-0.04834"
             inkscape:connector-curvature="0"
             id="path3053" />
          <path
             d="m 23.474121,81.513954 0,-0.675293 -0.116455,0 0,-0.102539 0.116455,0 0,-0.08276 c 0,-0.05224 0.0046,-0.09106 0.01392,-0.116455 0.0127,-0.03418 0.03491,-0.06177 0.06665,-0.08276 0.03223,-0.02148 0.07715,-0.03223 0.134766,-0.03223 0.03711,1e-6 0.07813,0.0044 0.123047,0.01318 l -0.01977,0.11499 c -0.02735,-0.0049 -0.05322,-0.0073 -0.07764,-0.0073 -0.04004,10e-7 -0.06836,0.0085 -0.08496,0.02564 -0.0166,0.01709 -0.0249,0.04907 -0.0249,0.09595 l 0,0.07178 0.151611,0 0,0.102539 -0.151611,0 0,0.675293 -0.131104,0"
             inkscape:connector-curvature="0"
             id="path3055" />
          <path
             d="m 24.391113,81.263466 0.136231,0.01685 c -0.02148,0.07959 -0.06128,0.141357 -0.119385,0.185302 -0.05811,0.04395 -0.132325,0.06592 -0.222656,0.06592 -0.11377,0 -0.204102,-0.03491 -0.270996,-0.104736 -0.06641,-0.07031 -0.09961,-0.168701 -0.09961,-0.295166 0,-0.130859 0.03369,-0.232421 0.101074,-0.304688 0.06738,-0.07226 0.154785,-0.108397 0.262208,-0.108398 0.104003,1e-6 0.188964,0.0354 0.254882,0.106201 0.06592,0.0708 0.09888,0.170411 0.09888,0.298828 0,0.0078 -2.45e-4,0.01953 -7.32e-4,0.03516 l -0.580078,0 c 0.0049,0.08545 0.02905,0.150879 0.07251,0.196289 0.04346,0.04541 0.09766,0.06812 0.162598,0.06812 0.04834,0 0.0896,-0.0127 0.123779,-0.03809 0.03418,-0.02539 0.06128,-0.06592 0.0813,-0.121582 m -0.432861,-0.213135 0.434326,0 c -0.0059,-0.06543 -0.02246,-0.114501 -0.0498,-0.147217 -0.04199,-0.05078 -0.09644,-0.07617 -0.16333,-0.07617 -0.06055,10e-7 -0.111572,0.02026 -0.153076,0.06079 -0.04102,0.04053 -0.06372,0.09473 -0.06811,0.162598"
             inkscape:connector-curvature="0"
             id="path3057" />
          <path
             d="m 25.109619,81.81205 0,-1.075928 0.120117,0 0,0.101074 c 0.02832,-0.03955 0.0603,-0.06909 0.09595,-0.08862 0.03564,-0.02002 0.07886,-0.03003 0.129638,-0.03003 0.06641,10e-7 0.125,0.01709 0.175782,0.05127 0.05078,0.03418 0.08911,0.08252 0.11499,0.145019 0.02588,0.06201 0.03882,0.130127 0.03882,0.204346 -10e-7,0.07959 -0.01441,0.151367 -0.04321,0.215332 -0.02832,0.06348 -0.06983,0.112305 -0.124512,0.146484 -0.0542,0.03369 -0.111328,0.05054 -0.171386,0.05054 -0.04395,0 -0.0835,-0.0093 -0.118653,-0.02783 -0.03467,-0.01855 -0.06323,-0.04199 -0.08569,-0.07031 l 0,0.378662 -0.131836,0 m 0.119385,-0.682617 c 0,0.100098 0.02026,0.174072 0.06079,0.221924 0.04053,0.04785 0.0896,0.07178 0.147217,0.07178 0.05859,0 0.108642,-0.02466 0.150146,-0.07398 0.04199,-0.0498 0.06299,-0.126708 0.06299,-0.230713 0,-0.09912 -0.02051,-0.173339 -0.06152,-0.222656 -0.04053,-0.04932 -0.08911,-0.07397 -0.145752,-0.07398 -0.05615,10e-7 -0.105957,0.02637 -0.149414,0.0791 -0.04297,0.05225 -0.06445,0.128419 -0.06445,0.228516"
             inkscape:connector-curvature="0"
             id="path3059" />
          <path
             d="m 25.94165,81.513954 0,-1.07373 0.131836,0 0,1.07373 -0.131836,0"
             inkscape:connector-curvature="0"
             id="path3061" />
          <path
             d="m 26.786133,81.418007 c -0.04883,0.0415 -0.09595,0.0708 -0.141358,0.08789 -0.04492,0.01709 -0.09326,0.02563 -0.145019,0.02563 -0.08545,0 -0.151123,-0.02075 -0.197022,-0.06226 -0.0459,-0.04199 -0.06885,-0.09546 -0.06885,-0.1604 0,-0.03809 0.0085,-0.07275 0.02563,-0.104004 0.01758,-0.03174 0.04028,-0.05713 0.06812,-0.07617 0.02832,-0.01904 0.06006,-0.03345 0.09521,-0.04321 0.02588,-0.0068 0.06494,-0.01343 0.117187,-0.01977 0.106445,-0.0127 0.184814,-0.02783 0.235107,-0.04541 4.88e-4,-0.01807 7.32e-4,-0.02954 7.33e-4,-0.03442 -10e-7,-0.05371 -0.01245,-0.09155 -0.03735,-0.113525 -0.03369,-0.02979 -0.08374,-0.04468 -0.150146,-0.04468 -0.06201,10e-7 -0.107911,0.01099 -0.137695,0.03296 -0.0293,0.02148 -0.05103,0.05982 -0.06519,0.11499 l -0.128906,-0.01758 c 0.01172,-0.05517 0.03101,-0.09961 0.05786,-0.133301 0.02686,-0.03418 0.06567,-0.0603 0.116455,-0.07837 0.05078,-0.01855 0.109619,-0.02783 0.176514,-0.02783 0.06641,10e-7 0.120361,0.0078 0.161865,0.02344 0.0415,0.01563 0.07202,0.0354 0.09155,0.05933 0.01953,0.02344 0.0332,0.05322 0.04102,0.08935 0.0044,0.02246 0.0066,0.06299 0.0066,0.121582 l 0,0.175781 c 0,0.122559 0.0027,0.200196 0.0081,0.232911 0.0059,0.03223 0.01709,0.06323 0.03369,0.09302 l -0.137695,0 c -0.01367,-0.02734 -0.02246,-0.05933 -0.02637,-0.09595 m -0.01099,-0.294434 c -0.04785,0.01953 -0.119629,0.03613 -0.215332,0.04981 -0.0542,0.0078 -0.09253,0.0166 -0.11499,0.02637 -0.02246,0.0098 -0.0398,0.02417 -0.052,0.04321 -0.01221,0.01855 -0.01831,0.03931 -0.01831,0.06226 0,0.03516 0.01318,0.06445 0.03955,0.08789 0.02686,0.02344 0.06592,0.03516 0.117188,0.03516 0.05078,0 0.09595,-0.01099 0.135498,-0.03296 0.03955,-0.02246 0.0686,-0.05298 0.08716,-0.09155 0.01416,-0.02978 0.02124,-0.07373 0.02124,-0.131836 l 0,-0.04834"
             inkscape:connector-curvature="0"
             id="path3063" />
          <path
             d="m 27.621094,81.229042 0.129638,0.01685 c -0.01416,0.08936 -0.05054,0.159424 -0.10913,0.210205 -0.05811,0.05029 -0.12964,0.07544 -0.2146,0.07544 -0.106446,0 -0.192139,-0.03467 -0.25708,-0.104004 -0.06445,-0.06982 -0.09668,-0.169677 -0.09668,-0.29956 0,-0.08398 0.01392,-0.15747 0.04175,-0.220459 0.02783,-0.06299 0.07007,-0.110107 0.126709,-0.141358 0.05713,-0.03174 0.11914,-0.04761 0.186035,-0.04761 0.08447,10e-7 0.153564,0.02149 0.207276,0.06445 0.05371,0.04248 0.08813,0.103028 0.103271,0.181641 l -0.128174,0.01978 c -0.01221,-0.05224 -0.03394,-0.09155 -0.06518,-0.11792 -0.03076,-0.02637 -0.06812,-0.03955 -0.112061,-0.03955 -0.06641,10e-7 -0.120361,0.02393 -0.161865,0.07178 -0.0415,0.04736 -0.06226,0.122559 -0.06226,0.225586 0,0.104492 0.02002,0.18042 0.06006,0.227783 0.04004,0.04736 0.09229,0.07104 0.156738,0.07104 0.05176,0 0.09497,-0.01587 0.129639,-0.04761 0.03467,-0.03174 0.05664,-0.08057 0.06592,-0.146484"
             inkscape:connector-curvature="0"
             id="path3065" />
          <path
             d="m 28.395996,81.263466 0.136231,0.01685 c -0.02149,0.07959 -0.06128,0.141357 -0.119385,0.185302 -0.05811,0.04395 -0.132325,0.06592 -0.222656,0.06592 -0.11377,0 -0.204102,-0.03491 -0.270997,-0.104736 -0.06641,-0.07031 -0.09961,-0.168701 -0.09961,-0.295166 0,-0.130859 0.03369,-0.232421 0.101074,-0.304688 0.06738,-0.07226 0.154785,-0.108397 0.262207,-0.108398 0.104004,1e-6 0.188965,0.0354 0.254883,0.106201 0.06592,0.0708 0.09888,0.170411 0.09888,0.298828 -10e-7,0.0078 -2.45e-4,0.01953 -7.32e-4,0.03516 l -0.580078,0 c 0.0049,0.08545 0.02905,0.150879 0.07251,0.196289 0.04346,0.04541 0.09766,0.06812 0.162598,0.06812 0.04834,0 0.0896,-0.0127 0.123779,-0.03809 0.03418,-0.02539 0.06128,-0.06592 0.0813,-0.121582 m -0.432861,-0.213135 0.434326,0 c -0.0059,-0.06543 -0.02246,-0.114501 -0.0498,-0.147217 -0.04199,-0.05078 -0.09644,-0.07617 -0.16333,-0.07617 -0.06055,10e-7 -0.111572,0.02026 -0.153076,0.06079 -0.04102,0.04053 -0.06372,0.09473 -0.06811,0.162598"
             inkscape:connector-curvature="0"
             id="path3067" />
          <path
             d="m 16.077393,83.388954 -0.23584,0 -0.09375,-0.243896 -0.429199,0 -0.08862,0.243896 -0.22998,0 0.418213,-1.07373 0.229248,0 0.429932,1.07373 m -0.39917,-0.424805 -0.14795,-0.398437 -0.145019,0.398437 0.292969,0"
             inkscape:connector-curvature="0"
             id="path3069"
             style="font-weight:bold;fill:#553417;-inkscape-font-specification:Abandoned Bitplane Bold" />
          <path
             d="m 16.905029,83.388954 -0.191162,0 0,-0.114258 c -0.03174,0.04443 -0.06934,0.07764 -0.112793,0.09961 -0.04297,0.02148 -0.08643,0.03223 -0.130371,0.03223 -0.08936,0 -0.166016,-0.03589 -0.22998,-0.107666 -0.06348,-0.07227 -0.09521,-0.172851 -0.09521,-0.301758 0,-0.131835 0.03101,-0.231933 0.09302,-0.300293 0.06201,-0.06885 0.140381,-0.10327 0.235108,-0.103271 0.08691,10e-7 0.162109,0.03613 0.225586,0.108398 l 0,-0.386718 0.20581,0 0,1.07373 m -0.549316,-0.405762 c 0,0.08301 0.01147,0.143067 0.03442,0.180176 0.0332,0.05371 0.07959,0.08057 0.13916,0.08057 0.04736,0 0.08765,-0.02002 0.120849,-0.06006 0.0332,-0.04053 0.0498,-0.10083 0.0498,-0.180908 0,-0.08935 -0.01611,-0.153564 -0.04834,-0.192627 -0.03223,-0.03955 -0.07349,-0.05933 -0.123779,-0.05933 -0.04883,0 -0.08984,0.01953 -0.123047,0.05859 -0.03271,0.03858 -0.04907,0.09644 -0.04907,0.173584"
             inkscape:connector-curvature="0"
             id="path3071"
             style="font-weight:bold;fill:#553417;-inkscape-font-specification:Abandoned Bitplane Bold" />
          <path
             d="m 17.093262,82.611122 0.189697,0 0,0.106201 c 0.06787,-0.08252 0.148681,-0.123778 0.242432,-0.123779 0.0498,1e-6 0.09302,0.01026 0.129638,0.03076 0.03662,0.02051 0.06665,0.05151 0.09009,0.09302 0.03418,-0.0415 0.07104,-0.07251 0.110596,-0.09302 0.03955,-0.02051 0.08179,-0.03076 0.126709,-0.03076 0.05713,1e-6 0.105468,0.01172 0.145019,0.03516 0.03955,0.02295 0.06909,0.05689 0.08862,0.101807 0.01416,0.0332 0.02124,0.08691 0.02124,0.161133 l 0,0.497314 -0.205811,0 0,-0.44458 c -1e-6,-0.07715 -0.0071,-0.126952 -0.02124,-0.149414 -0.01904,-0.0293 -0.04834,-0.04395 -0.08789,-0.04395 -0.02881,0 -0.05591,0.0088 -0.0813,0.02637 -0.02539,0.01758 -0.0437,0.04346 -0.05493,0.07764 -0.01123,0.03369 -0.01685,0.08716 -0.01685,0.1604 l 0,0.373535 -0.20581,0 0,-0.426269 c -1e-6,-0.07568 -0.0037,-0.124512 -0.01099,-0.146485 -0.0073,-0.02197 -0.0188,-0.03833 -0.03442,-0.04907 -0.01514,-0.01074 -0.03589,-0.01611 -0.06226,-0.01611 -0.03174,0 -0.0603,0.0085 -0.08569,0.02563 -0.02539,0.01709 -0.0437,0.04175 -0.05493,0.07397 -0.01074,0.03223 -0.01611,0.08569 -0.01611,0.1604 l 0,0.37793 -0.20581,0 0,-0.777832"
             inkscape:connector-curvature="0"
             id="path3073"
             style="font-weight:bold;fill:#553417;-inkscape-font-specification:Abandoned Bitplane Bold" />
          <path
             d="m 18.44165,82.505653 0,-0.190429 0.205811,0 0,0.190429 -0.205811,0 m 0,0.883301 0,-0.777832 0.205811,0 0,0.777832 -0.205811,0"
             inkscape:connector-curvature="0"
             id="path3075"
             style="font-weight:bold;fill:#553417;-inkscape-font-specification:Abandoned Bitplane Bold" />
          <path
             d="m 19.565186,83.388954 -0.205811,0 0,-0.396972 c -1e-6,-0.08398 -0.0044,-0.138184 -0.01318,-0.162598 -0.0088,-0.0249 -0.02319,-0.04419 -0.04321,-0.05786 -0.01953,-0.01367 -0.04321,-0.02051 -0.07105,-0.02051 -0.03564,0 -0.06763,0.0098 -0.09595,0.0293 -0.02832,0.01953 -0.04785,0.04541 -0.05859,0.07764 -0.01026,0.03223 -0.01538,0.0918 -0.01538,0.178711 l 0,0.352295 -0.205811,0 0,-0.777832 0.191162,0 0,0.114258 c 0.06787,-0.08789 0.15332,-0.131835 0.256348,-0.131836 0.04541,1e-6 0.08691,0.0083 0.124512,0.0249 0.0376,0.01611 0.06592,0.03687 0.08496,0.06226 0.01953,0.02539 0.03296,0.0542 0.04028,0.08643 0.0078,0.03223 0.01172,0.07837 0.01172,0.138428 l 0,0.483398"
             inkscape:connector-curvature="0"
             id="path3077"
             style="font-weight:bold;fill:#553417;-inkscape-font-specification:Abandoned Bitplane Bold" />
          <path
             d="m 19.774658,82.505653 0,-0.190429 0.205811,0 0,0.190429 -0.205811,0 m 0,0.883301 0,-0.777832 0.205811,0 0,0.777832 -0.205811,0"
             inkscape:connector-curvature="0"
             id="path3079"
             style="font-weight:bold;fill:#553417;-inkscape-font-specification:Abandoned Bitplane Bold" />
          <path
             d="m 20.118164,83.16703 0.206543,-0.03149 c 0.0088,0.04004 0.02661,0.07056 0.05347,0.09155 0.02685,0.02051 0.06445,0.03076 0.112793,0.03076 0.05322,0 0.09326,-0.0098 0.120117,-0.0293 0.01807,-0.01367 0.0271,-0.03198 0.0271,-0.05493 -10e-7,-0.01563 -0.0049,-0.02856 -0.01465,-0.03882 -0.01025,-0.0098 -0.0332,-0.0188 -0.06885,-0.0271 -0.166015,-0.03662 -0.27124,-0.07007 -0.315673,-0.100342 -0.06152,-0.04199 -0.09229,-0.100341 -0.09229,-0.175048 -10e-7,-0.06738 0.02661,-0.124023 0.07983,-0.169922 0.05322,-0.0459 0.135742,-0.06885 0.247559,-0.06885 0.106445,1e-6 0.185546,0.01734 0.237305,0.052 0.05176,0.03467 0.0874,0.08594 0.106933,0.153809 l -0.194091,0.03589 c -0.0083,-0.03027 -0.02417,-0.05347 -0.04761,-0.06958 -0.02295,-0.01611 -0.05591,-0.02417 -0.09888,-0.02417 -0.0542,10e-7 -0.09302,0.0076 -0.116455,0.0227 -0.01563,0.01074 -0.02344,0.02466 -0.02344,0.04175 -1e-6,0.01465 0.0068,0.0271 0.02051,0.03735 0.01855,0.01367 0.08252,0.03296 0.191895,0.05786 0.109863,0.0249 0.186523,0.05542 0.22998,0.09155 0.04297,0.03662 0.06445,0.08765 0.06445,0.153076 -10e-7,0.07129 -0.02979,0.132569 -0.08936,0.183838 -0.05957,0.05127 -0.147706,0.0769 -0.264404,0.0769 -0.105958,0 -0.189942,-0.02148 -0.251953,-0.06445 -0.06152,-0.04297 -0.101807,-0.101318 -0.12085,-0.175049"
             inkscape:connector-curvature="0"
             id="path3081"
             style="font-weight:bold;fill:#553417;-inkscape-font-specification:Abandoned Bitplane Bold" />
          <path
             d="m 21.382324,82.611122 0,0.164063 -0.140625,0 0,0.313476 c 0,0.06348 0.0012,0.100586 0.0037,0.111328 0.0029,0.01025 0.009,0.0188 0.01831,0.02563 0.0098,0.0068 0.02148,0.01025 0.03516,0.01025 0.01904,0 0.04663,-0.0066 0.08276,-0.01977 l 0.01758,0.159668 c -0.04785,0.02051 -0.102051,0.03076 -0.162598,0.03076 -0.03711,0 -0.07056,-0.0061 -0.100342,-0.01831 -0.02979,-0.0127 -0.05176,-0.02881 -0.06592,-0.04834 -0.01367,-0.02002 -0.02319,-0.04687 -0.02856,-0.08057 -0.0044,-0.02393 -0.0066,-0.07227 -0.0066,-0.145019 l 0,-0.339111 -0.09448,0 0,-0.164063 0.09448,0 0,-0.154541 0.206543,-0.120117 0,0.274658 0.140625,0"
             inkscape:connector-curvature="0"
             id="path3083"
             style="font-weight:bold;fill:#553417;-inkscape-font-specification:Abandoned Bitplane Bold" />
          <path
             d="m 21.723633,83.388954 -0.205811,0 0,-0.777832 0.191162,0 0,0.110596 c 0.03271,-0.05225 0.06201,-0.08667 0.08789,-0.103272 0.02637,-0.0166 0.05615,-0.0249 0.08936,-0.0249 0.04687,10e-7 0.09204,0.01294 0.135499,0.03882 l -0.06372,0.179444 c -0.03467,-0.02246 -0.06689,-0.03369 -0.09668,-0.03369 -0.02881,10e-7 -0.05322,0.0081 -0.07324,0.02417 -0.02002,0.01563 -0.03589,0.04419 -0.04761,0.08569 -0.01123,0.0415 -0.01685,0.128418 -0.01685,0.260742 l 0,0.240234"
             inkscape:connector-curvature="0"
             id="path3085"
             style="font-weight:bold;fill:#553417;-inkscape-font-specification:Abandoned Bitplane Bold" />
          <path
             d="m 22.263428,82.848427 -0.186768,-0.03369 c 0.021,-0.07519 0.05713,-0.130858 0.108399,-0.166992 0.05127,-0.03613 0.127441,-0.0542 0.228515,-0.0542 0.0918,10e-7 0.160156,0.01099 0.205078,0.03296 0.04492,0.02148 0.07642,0.04907 0.09448,0.08276 0.01855,0.0332 0.02783,0.09448 0.02783,0.183838 l -0.0022,0.240234 c -1e-6,0.06836 0.0032,0.118897 0.0095,0.151611 0.0068,0.03223 0.01929,0.0669 0.03735,0.104004 l -0.203614,0 c -0.0054,-0.01367 -0.01196,-0.03393 -0.01977,-0.06079 -0.0034,-0.01221 -0.0059,-0.02026 -0.0073,-0.02417 -0.03516,0.03418 -0.07276,0.05982 -0.112793,0.0769 -0.04004,0.01709 -0.08276,0.02563 -0.128174,0.02563 -0.08008,0 -0.143311,-0.02173 -0.189697,-0.06518 -0.0459,-0.04346 -0.06885,-0.09839 -0.06885,-0.164795 0,-0.04395 0.0105,-0.08301 0.03149,-0.117188 0.021,-0.03467 0.05029,-0.06103 0.08789,-0.0791 0.03809,-0.01855 0.09277,-0.03467 0.164062,-0.04834 0.09619,-0.01807 0.162841,-0.03491 0.199951,-0.05054 l 0,-0.02051 c 0,-0.03955 -0.0098,-0.06763 -0.0293,-0.08423 -0.01953,-0.01709 -0.0564,-0.02563 -0.110595,-0.02563 -0.03662,0 -0.06519,0.0073 -0.08569,0.02197 -0.02051,0.01416 -0.03711,0.03931 -0.0498,0.07544 m 0.27539,0.166992 c -0.02637,0.0088 -0.06811,0.01929 -0.125244,0.03149 -0.05713,0.01221 -0.09448,0.02417 -0.11206,0.03589 -0.02686,0.01904 -0.04028,0.04321 -0.04028,0.07251 0,0.02881 0.01074,0.05371 0.03223,0.07471 0.02148,0.021 0.04883,0.03149 0.08203,0.03149 0.03711,0 0.07251,-0.01221 0.106201,-0.03662 0.0249,-0.01855 0.04126,-0.04126 0.04907,-0.06812 0.0054,-0.01758 0.0081,-0.05102 0.0081,-0.100341 l 0,-0.04102"
             inkscape:connector-curvature="0"
             id="path3087"
             style="font-weight:bold;fill:#553417;-inkscape-font-specification:Abandoned Bitplane Bold" />
          <path
             d="m 23.30127,82.611122 0,0.164063 -0.140625,0 0,0.313476 c -10e-7,0.06348 0.0012,0.100586 0.0037,0.111328 0.0029,0.01025 0.009,0.0188 0.01831,0.02563 0.0098,0.0068 0.02148,0.01025 0.03516,0.01025 0.01904,0 0.04663,-0.0066 0.08276,-0.01977 l 0.01758,0.159668 c -0.04785,0.02051 -0.102051,0.03076 -0.162597,0.03076 -0.03711,0 -0.07056,-0.0061 -0.100342,-0.01831 -0.02979,-0.0127 -0.05176,-0.02881 -0.06592,-0.04834 -0.01367,-0.02002 -0.02319,-0.04687 -0.02857,-0.08057 -0.0044,-0.02393 -0.0066,-0.07227 -0.0066,-0.145019 l 0,-0.339111 -0.09448,0 0,-0.164063 0.09448,0 0,-0.154541 0.206543,-0.120117 0,0.274658 0.140625,0"
             inkscape:connector-curvature="0"
             id="path3089"
             style="font-weight:bold;fill:#553417;-inkscape-font-specification:Abandoned Bitplane Bold" />
          <path
             d="m 23.397949,82.989052 c 0,-0.06836 0.01685,-0.134521 0.05054,-0.198487 0.03369,-0.06396 0.0813,-0.112792 0.142823,-0.146484 0.06201,-0.03369 0.131103,-0.05054 0.207275,-0.05054 0.117675,10e-7 0.214111,0.03833 0.289307,0.11499 0.07519,0.07617 0.112792,0.172608 0.112793,0.289307 -10e-7,0.117676 -0.03809,0.215332 -0.114258,0.292969 -0.07568,0.07715 -0.171143,0.115722 -0.286377,0.115722 -0.07129,0 -0.139405,-0.01611 -0.204346,-0.04834 -0.06445,-0.03223 -0.113525,-0.07935 -0.147217,-0.141357 -0.03369,-0.0625 -0.05054,-0.138427 -0.05054,-0.227783 m 0.210938,0.01099 c -1e-6,0.07715 0.01831,0.136231 0.05493,0.177246 0.03662,0.04102 0.08179,0.06152 0.135498,0.06152 0.05371,0 0.09863,-0.02051 0.134766,-0.06152 0.03662,-0.04102 0.05493,-0.100585 0.05493,-0.178711 -1e-6,-0.07617 -0.01831,-0.134765 -0.05493,-0.175781 -0.03613,-0.04102 -0.08105,-0.06152 -0.134766,-0.06152 -0.05371,0 -0.09888,0.02051 -0.135498,0.06152 -0.03662,0.04102 -0.05493,0.100098 -0.05493,0.177246"
             inkscape:connector-curvature="0"
             id="path3091"
             style="font-weight:bold;fill:#553417;-inkscape-font-specification:Abandoned Bitplane Bold" />
          <path
             d="m 24.55957,83.388954 -0.20581,0 0,-0.777832 0.191162,0 0,0.110596 c 0.03271,-0.05225 0.06201,-0.08667 0.08789,-0.103272 0.02637,-0.0166 0.05615,-0.0249 0.08936,-0.0249 0.04687,10e-7 0.09204,0.01294 0.135498,0.03882 l -0.06372,0.179444 c -0.03467,-0.02246 -0.0669,-0.03369 -0.09668,-0.03369 -0.02881,10e-7 -0.05322,0.0081 -0.07324,0.02417 -0.02002,0.01563 -0.03589,0.04419 -0.04761,0.08569 -0.01123,0.0415 -0.01685,0.128418 -0.01685,0.260742 l 0,0.240234"
             inkscape:connector-curvature="0"
             id="path3093"
             style="font-weight:bold;fill:#553417;-inkscape-font-specification:Abandoned Bitplane Bold" />
          <path
             d="m 24.873047,83.16703 0.206543,-0.03149 c 0.0088,0.04004 0.02661,0.07056 0.05347,0.09155 0.02685,0.02051 0.06445,0.03076 0.112793,0.03076 0.05322,0 0.09326,-0.0098 0.120117,-0.0293 0.01807,-0.01367 0.0271,-0.03198 0.0271,-0.05493 0,-0.01563 -0.0049,-0.02856 -0.01465,-0.03882 -0.01025,-0.0098 -0.0332,-0.0188 -0.06885,-0.0271 -0.166016,-0.03662 -0.27124,-0.07007 -0.315674,-0.100342 -0.06152,-0.04199 -0.09229,-0.100341 -0.09229,-0.175048 0,-0.06738 0.02661,-0.124023 0.07983,-0.169922 0.05322,-0.0459 0.135742,-0.06885 0.247559,-0.06885 0.106445,1e-6 0.185546,0.01734 0.237305,0.052 0.05176,0.03467 0.0874,0.08594 0.106933,0.153809 l -0.194092,0.03589 c -0.0083,-0.03027 -0.02417,-0.05347 -0.04761,-0.06958 -0.02295,-0.01611 -0.05591,-0.02417 -0.09888,-0.02417 -0.0542,10e-7 -0.09302,0.0076 -0.116455,0.0227 -0.01563,0.01074 -0.02344,0.02466 -0.02344,0.04175 0,0.01465 0.0068,0.0271 0.02051,0.03735 0.01855,0.01367 0.08252,0.03296 0.191895,0.05786 0.109862,0.0249 0.186523,0.05542 0.22998,0.09155 0.04297,0.03662 0.06445,0.08765 0.06445,0.153076 0,0.07129 -0.02979,0.132569 -0.08936,0.183838 -0.05957,0.05127 -0.147706,0.0769 -0.264404,0.0769 -0.105958,0 -0.189942,-0.02148 -0.251954,-0.06445 -0.06152,-0.04297 -0.101806,-0.101318 -0.120849,-0.175049"
             inkscape:connector-curvature="0"
             id="path3095"
             style="font-weight:bold;fill:#553417;-inkscape-font-specification:Abandoned Bitplane Bold" />
          <path
             d="m 26.148926,82.989052 c 0,-0.06836 0.01685,-0.134521 0.05054,-0.198487 0.03369,-0.06396 0.0813,-0.112792 0.142822,-0.146484 0.06201,-0.03369 0.131103,-0.05054 0.207276,-0.05054 0.117675,10e-7 0.21411,0.03833 0.289306,0.11499 0.0752,0.07617 0.112792,0.172608 0.112793,0.289307 -1e-6,0.117676 -0.03809,0.215332 -0.114258,0.292969 -0.07568,0.07715 -0.171143,0.115722 -0.286377,0.115722 -0.07129,0 -0.139404,-0.01611 -0.204345,-0.04834 -0.06445,-0.03223 -0.113526,-0.07935 -0.147217,-0.141357 -0.03369,-0.0625 -0.05054,-0.138427 -0.05054,-0.227783 m 0.210937,0.01099 c 0,0.07715 0.01831,0.136231 0.05493,0.177246 0.03662,0.04102 0.08179,0.06152 0.135498,0.06152 0.05371,0 0.09863,-0.02051 0.134766,-0.06152 0.03662,-0.04102 0.05493,-0.100585 0.05493,-0.178711 0,-0.07617 -0.01831,-0.134765 -0.05493,-0.175781 -0.03613,-0.04102 -0.08106,-0.06152 -0.134766,-0.06152 -0.05371,0 -0.09888,0.02051 -0.135498,0.06152 -0.03662,0.04102 -0.05493,0.100098 -0.05493,0.177246"
             inkscape:connector-curvature="0"
             id="path3097"
             style="font-weight:bold;fill:#553417;-inkscape-font-specification:Abandoned Bitplane Bold" />
          <path
             d="m 27.821045,83.388954 -0.205811,0 0,-0.396972 c 0,-0.08398 -0.0044,-0.138184 -0.01318,-0.162598 -0.0088,-0.0249 -0.02319,-0.04419 -0.04321,-0.05786 -0.01953,-0.01367 -0.04321,-0.02051 -0.07105,-0.02051 -0.03564,0 -0.06763,0.0098 -0.09595,0.0293 -0.02832,0.01953 -0.04785,0.04541 -0.05859,0.07764 -0.01025,0.03223 -0.01538,0.0918 -0.01538,0.178711 l 0,0.352295 -0.20581,0 0,-0.777832 0.191162,0 0,0.114258 c 0.06787,-0.08789 0.15332,-0.131835 0.256347,-0.131836 0.04541,1e-6 0.08691,0.0083 0.124512,0.0249 0.0376,0.01611 0.06592,0.03687 0.08496,0.06226 0.01953,0.02539 0.03296,0.0542 0.04028,0.08643 0.0078,0.03223 0.01172,0.07837 0.01172,0.138428 l 0,0.483398"
             inkscape:connector-curvature="0"
             id="path3099"
             style="font-weight:bold;fill:#553417;-inkscape-font-specification:Abandoned Bitplane Bold" />
          <path
             d="m 28.030518,83.388954 0,-1.07373 0.20581,0 0,1.07373 -0.20581,0"
             inkscape:connector-curvature="0"
             id="path3101"
             style="font-weight:bold;fill:#553417;-inkscape-font-specification:Abandoned Bitplane Bold" />
          <path
             d="m 28.349121,82.611122 0.218994,0 0.186035,0.552246 0.181641,-0.552246 0.213135,0 -0.274658,0.748535 -0.04907,0.135498 c -0.01807,0.04541 -0.0354,0.08008 -0.052,0.104004 -0.01611,0.02393 -0.03491,0.04321 -0.0564,0.05786 -0.021,0.01514 -0.04712,0.02685 -0.07837,0.03516 -0.03076,0.0083 -0.06567,0.01245 -0.104737,0.01245 -0.03955,0 -0.07837,-0.0042 -0.116455,-0.01245 l -0.01831,-0.161133 c 0.03223,0.0063 0.06128,0.0095 0.08716,0.0095 0.04785,0 0.08325,-0.01416 0.106201,-0.04248 0.02295,-0.02783 0.04053,-0.06348 0.05273,-0.106934 l -0.295899,-0.780029"
             inkscape:connector-curvature="0"
             id="path3103"
             style="font-weight:bold;fill:#553417;-inkscape-font-specification:Abandoned Bitplane Bold" />
        </g>
        <g
           id="text3762"
           style="font-size:1.5px;font-style:normal;font-variant:normal;font-weight:bold;font-stretch:normal;text-align:start;line-height:125%;writing-mode:lr-tb;text-anchor:start;fill:#553417;fill-opacity:1;stroke:none;display:inline;font-family:Arial Black;-inkscape-font-specification:'Arial Black, Bold'">
          <path
             d="m 15.052002,78.15873 0.315674,-0.01978 c 0.0068,0.05127 0.02075,0.09033 0.04175,0.117188 0.03418,0.04346 0.08301,0.06518 0.146484,0.06518 0.04736,0 0.08374,-0.01099 0.109131,-0.03296 0.02588,-0.02246 0.03882,-0.04834 0.03882,-0.07764 0,-0.02783 -0.01221,-0.05273 -0.03662,-0.07471 -0.02441,-0.02197 -0.08106,-0.04272 -0.169922,-0.06226 -0.145508,-0.03271 -0.249267,-0.07617 -0.311279,-0.130371 -0.0625,-0.0542 -0.09375,-0.123291 -0.09375,-0.207276 0,-0.05517 0.01587,-0.107177 0.04761,-0.156006 0.03223,-0.04932 0.08032,-0.08789 0.144287,-0.115722 0.06445,-0.02832 0.152587,-0.04248 0.264404,-0.04248 0.137206,10e-7 0.241698,0.02564 0.313477,0.0769 0.07226,0.05078 0.115233,0.131837 0.128906,0.243165 l -0.312744,0.01831 c -0.0083,-0.04834 -0.02588,-0.0835 -0.05273,-0.105469 -0.02637,-0.02197 -0.06299,-0.03296 -0.109863,-0.03296 -0.03857,1e-6 -0.06763,0.0083 -0.08716,0.0249 -0.01953,0.01611 -0.0293,0.03589 -0.0293,0.05933 0,0.01709 0.0081,0.03247 0.02417,0.04614 0.01562,0.01416 0.05273,0.02734 0.111328,0.03955 0.145019,0.03125 0.248778,0.06299 0.311279,0.09521 0.06299,0.03174 0.108642,0.07129 0.136963,0.118652 0.02881,0.04736 0.04321,0.100343 0.04321,0.158936 -10e-7,0.06885 -0.01904,0.132324 -0.05713,0.19043 -0.03809,0.0581 -0.09131,0.102295 -0.159668,0.132568 -0.06836,0.02978 -0.154541,0.04468 -0.258545,0.04468 -0.182617,0 -0.309082,-0.03516 -0.379394,-0.105469 -0.07031,-0.07031 -0.110108,-0.159668 -0.119385,-0.268066"
             inkscape:connector-curvature="0"
             id="path3106" />
          <path
             d="m 16.137451,78.127235 c 0,-0.118651 0.04004,-0.216308 0.120117,-0.292968 0.08008,-0.07715 0.188232,-0.115722 0.324463,-0.115723 0.155761,1e-6 0.273437,0.04517 0.353028,0.135498 0.06396,0.07275 0.09595,0.162354 0.09595,0.268799 -1e-6,0.119629 -0.0398,0.217773 -0.119385,0.294433 -0.0791,0.07617 -0.188721,0.114258 -0.328857,0.114258 -0.125001,0 -0.226075,-0.03174 -0.303223,-0.09521 -0.09473,-0.07861 -0.14209,-0.18164 -0.14209,-0.309082 m 0.298828,-7.32e-4 c 0,0.06934 0.01392,0.120606 0.04175,0.153809 0.02832,0.0332 0.06372,0.0498 0.106202,0.0498 0.04297,0 0.07812,-0.01636 0.105468,-0.04907 0.02783,-0.03271 0.04175,-0.0852 0.04175,-0.157471 0,-0.06738 -0.01392,-0.117431 -0.04175,-0.150146 -0.02783,-0.0332 -0.06226,-0.0498 -0.103271,-0.04981 -0.04346,10e-7 -0.07935,0.01685 -0.107666,0.05054 -0.02832,0.0332 -0.04248,0.08398 -0.04248,0.152344"
             inkscape:connector-curvature="0"
             id="path3108" />
          <path
             d="m 17.507812,77.736122 0.14209,0 0,0.218262 -0.14209,0 0,0.55957 -0.298828,0 0,-0.55957 -0.111328,0 0,-0.218262 0.111328,0 0,-0.03516 c 0,-0.03174 0.0034,-0.06665 0.01025,-0.104736 0.0068,-0.03809 0.01953,-0.06909 0.03809,-0.09302 0.01904,-0.02441 0.04541,-0.04394 0.0791,-0.05859 0.03418,-0.01514 0.08398,-0.0227 0.149414,-0.02271 0.05224,10e-7 0.128173,0.0061 0.227783,0.01831 l -0.03296,0.180175 c -0.03564,-0.0059 -0.06445,-0.0088 -0.08643,-0.0088 -0.02686,10e-7 -0.04614,0.0046 -0.05786,0.01392 -0.01172,0.0088 -0.02002,0.02295 -0.0249,0.04248 -0.0024,0.01074 -0.0037,0.03345 -0.0037,0.06811"
             inkscape:connector-curvature="0"
             id="path3110" />
          <path
             d="m 18.118652,77.440224 0,0.295898 0.164063,0 0,0.217529 -0.164063,0 0,0.276123 c 0,0.0332 0.0032,0.05518 0.0095,0.06592 0.0098,0.0166 0.02685,0.0249 0.05127,0.0249 0.02197,0 0.05273,-0.0063 0.09229,-0.01904 l 0.02197,0.20581 c -0.07373,0.01611 -0.142578,0.02417 -0.206543,0.02417 -0.07422,0 -0.128906,-0.0095 -0.164062,-0.02856 -0.03516,-0.01904 -0.06128,-0.04785 -0.07837,-0.08643 -0.0166,-0.03906 -0.0249,-0.102051 -0.0249,-0.188965 l 0,-0.273926 -0.109863,0 0,-0.217529 0.109863,0 0,-0.142822 0.298828,-0.153076"
             inkscape:connector-curvature="0"
             id="path3112" />
          <path
             d="m 18.336182,77.736122 0.288574,0 0.125244,0.48999 0.158203,-0.48999 0.268799,0 0.164062,0.48999 0.125245,-0.48999 0.286377,0 -0.286377,0.777832 -0.265137,0 -0.157471,-0.468017 -0.152344,0.468017 -0.266601,0 -0.288574,-0.777832"
             inkscape:connector-curvature="0"
             id="path3114" />
          <path
             d="m 20.093262,77.988075 -0.284912,-0.03003 c 0.01074,-0.0498 0.02612,-0.08887 0.04614,-0.117188 0.02051,-0.02881 0.0498,-0.05371 0.08789,-0.07471 0.02734,-0.01514 0.06494,-0.02685 0.112793,-0.03516 0.04785,-0.0083 0.09961,-0.01245 0.155273,-0.01245 0.08936,10e-7 0.161132,0.0051 0.215332,0.01538 0.0542,0.0098 0.09936,0.03052 0.135498,0.06226 0.02539,0.02197 0.04541,0.05322 0.06006,0.09375 0.01465,0.04004 0.02197,0.07837 0.02197,0.11499 l 0,0.343506 c -10e-7,0.03662 0.0022,0.06543 0.0066,0.08643 0.0049,0.02051 0.01514,0.04687 0.03076,0.0791 l -0.279785,0 c -0.01123,-0.02002 -0.01855,-0.03516 -0.02197,-0.04541 -0.0034,-0.01074 -0.0068,-0.02734 -0.01025,-0.0498 -0.03906,0.0376 -0.07788,0.06445 -0.116455,0.08057 -0.05273,0.02148 -0.114014,0.03223 -0.183838,0.03223 -0.09277,0 -0.16333,-0.02148 -0.21167,-0.06445 -0.04785,-0.04297 -0.07178,-0.09595 -0.07178,-0.158935 0,-0.05908 0.01733,-0.107666 0.052,-0.145752 0.03467,-0.03809 0.09863,-0.06641 0.191895,-0.08496 0.111816,-0.02246 0.184325,-0.03809 0.217529,-0.04687 0.0332,-0.0093 0.06836,-0.02124 0.105469,-0.03589 -1e-6,-0.03662 -0.0076,-0.06226 -0.02271,-0.0769 -0.01514,-0.01465 -0.04175,-0.02197 -0.07983,-0.02197 -0.04883,10e-7 -0.08545,0.0078 -0.109864,0.02344 -0.01904,0.01221 -0.03442,0.03516 -0.04614,0.06885 m 0.258545,0.156739 c -0.04102,0.01465 -0.08374,0.02759 -0.128174,0.03882 -0.06055,0.01611 -0.09888,0.03198 -0.11499,0.04761 -0.0166,0.01611 -0.0249,0.03442 -0.0249,0.05493 0,0.02344 0.0081,0.04273 0.02417,0.05786 0.0166,0.01465 0.04077,0.02197 0.07251,0.02197 0.0332,0 0.06396,-0.0081 0.09228,-0.02417 0.02881,-0.01611 0.04907,-0.03564 0.06079,-0.05859 0.01221,-0.02344 0.01831,-0.05371 0.01831,-0.09082 l 0,-0.04761"
             inkscape:connector-curvature="0"
             id="path3116" />
          <path
             d="m 20.826416,77.736122 0.279053,0 0,0.127442 c 0.02686,-0.05518 0.05444,-0.09302 0.08276,-0.113526 0.02881,-0.02099 0.06421,-0.03149 0.106202,-0.03149 0.04394,10e-7 0.09204,0.01367 0.144287,0.04102 l -0.09229,0.212402 c -0.03516,-0.01465 -0.06299,-0.02197 -0.0835,-0.02197 -0.03906,10e-7 -0.06934,0.01611 -0.09082,0.04834 -0.03076,0.04541 -0.04614,0.130372 -0.04614,0.254883 l 0,0.260742 -0.299561,0 0,-0.777832"
             inkscape:connector-curvature="0"
             id="path3118" />
          <path
             d="m 22.375488,78.199013 -0.597656,0 c 0.0054,0.04785 0.01831,0.0835 0.03882,0.106933 0.02881,0.03369 0.06641,0.05054 0.112793,0.05054 0.0293,10e-7 0.05713,-0.0073 0.0835,-0.02197 0.01611,-0.0093 0.03345,-0.02564 0.052,-0.04907 l 0.293702,0.0271 c -0.04492,0.07813 -0.09912,0.134278 -0.162598,0.168457 -0.06348,0.03369 -0.154542,0.05054 -0.273193,0.05054 -0.103028,0 -0.184083,-0.0144 -0.243165,-0.04321 -0.05908,-0.0293 -0.108154,-0.07544 -0.147216,-0.138427 -0.03858,-0.06348 -0.05786,-0.137939 -0.05786,-0.223389 0,-0.121582 0.03882,-0.21997 0.116455,-0.295166 0.07813,-0.0752 0.185791,-0.112792 0.322998,-0.112793 0.111328,10e-7 0.199219,0.01685 0.263672,0.05054 0.06445,0.03369 0.113525,0.08252 0.147217,0.146484 0.03369,0.06397 0.05054,0.147218 0.05054,0.249756 l 0,0.03369 M 22.072266,78.05619 c -0.0059,-0.05762 -0.02148,-0.09888 -0.04687,-0.123779 -0.0249,-0.0249 -0.05786,-0.03735 -0.09888,-0.03735 -0.04736,0 -0.08521,0.0188 -0.113526,0.0564 -0.01807,0.02344 -0.02954,0.05835 -0.03442,0.104736 l 0.293702,0"
             inkscape:connector-curvature="0"
             id="path3120" />
          <path
             d="m 23.01709,77.736122 0.27832,0 0,0.113526 c 0.04004,-0.04736 0.08032,-0.08105 0.12085,-0.101075 0.04101,-0.02002 0.09033,-0.03003 0.147949,-0.03003 0.06201,10e-7 0.111083,0.01099 0.147217,0.03296 0.03613,0.02197 0.06567,0.05469 0.08862,0.09815 0.04687,-0.05078 0.0896,-0.08521 0.128174,-0.103272 0.03857,-0.01855 0.08618,-0.02783 0.142822,-0.02783 0.08349,10e-7 0.14868,0.0249 0.195557,0.07471 0.04687,0.04932 0.07031,0.12671 0.07031,0.232178 l 0,0.488525 -0.298828,0 0,-0.443115 c -10e-7,-0.03516 -0.0068,-0.06128 -0.02051,-0.07837 -0.02002,-0.02685 -0.04492,-0.04028 -0.07471,-0.04028 -0.03516,0 -0.06348,0.0127 -0.08496,0.03809 -0.02149,0.02539 -0.03223,0.06616 -0.03223,0.122314 l 0,0.401367 -0.298829,0 0,-0.428467 c 0,-0.03418 -0.002,-0.05737 -0.0059,-0.06958 -0.0063,-0.01953 -0.01733,-0.03516 -0.03296,-0.04687 -0.01563,-0.01221 -0.03394,-0.01831 -0.05493,-0.01831 -0.03418,0 -0.06226,0.01294 -0.08423,0.03882 -0.02197,0.02588 -0.03296,0.06836 -0.03296,0.127442 l 0,0.396972 -0.298828,0 0,-0.777832"
             inkscape:connector-curvature="0"
             id="path3122" />
          <path
             d="m 24.786621,77.988075 -0.284912,-0.03003 c 0.01074,-0.0498 0.02612,-0.08887 0.04614,-0.117188 0.02051,-0.02881 0.0498,-0.05371 0.08789,-0.07471 0.02734,-0.01514 0.06494,-0.02685 0.112793,-0.03516 0.04785,-0.0083 0.09961,-0.01245 0.155274,-0.01245 0.08935,10e-7 0.161132,0.0051 0.215332,0.01538 0.0542,0.0098 0.09936,0.03052 0.135498,0.06226 0.02539,0.02197 0.04541,0.05322 0.06006,0.09375 0.01465,0.04004 0.02197,0.07837 0.02197,0.11499 l 0,0.343506 c -1e-6,0.03662 0.0022,0.06543 0.0066,0.08643 0.0049,0.02051 0.01514,0.04687 0.03076,0.0791 l -0.279785,0 c -0.01123,-0.02002 -0.01855,-0.03516 -0.02197,-0.04541 -0.0034,-0.01074 -0.0068,-0.02734 -0.01025,-0.0498 -0.03906,0.0376 -0.07788,0.06445 -0.116455,0.08057 -0.05274,0.02148 -0.114014,0.03223 -0.183838,0.03223 -0.09277,0 -0.163331,-0.02148 -0.21167,-0.06445 -0.04785,-0.04297 -0.07178,-0.09595 -0.07178,-0.158935 0,-0.05908 0.01733,-0.107666 0.052,-0.145752 0.03467,-0.03809 0.09863,-0.06641 0.191895,-0.08496 0.111816,-0.02246 0.184326,-0.03809 0.217529,-0.04687 0.0332,-0.0093 0.06836,-0.02124 0.105469,-0.03589 -1e-6,-0.03662 -0.0076,-0.06226 -0.0227,-0.0769 -0.01514,-0.01465 -0.04175,-0.02197 -0.07983,-0.02197 -0.04883,10e-7 -0.08545,0.0078 -0.109863,0.02344 -0.01904,0.01221 -0.03443,0.03516 -0.04614,0.06885 m 0.258545,0.156739 c -0.04102,0.01465 -0.08374,0.02759 -0.128174,0.03882 -0.06055,0.01611 -0.09888,0.03198 -0.11499,0.04761 -0.0166,0.01611 -0.0249,0.03442 -0.0249,0.05493 -10e-7,0.02344 0.0081,0.04273 0.02417,0.05786 0.0166,0.01465 0.04077,0.02197 0.07251,0.02197 0.0332,0 0.06396,-0.0081 0.09229,-0.02417 0.02881,-0.01611 0.04907,-0.03564 0.06079,-0.05859 0.01221,-0.02344 0.01831,-0.05371 0.01831,-0.09082 l 0,-0.04761"
             inkscape:connector-curvature="0"
             id="path3124" />
          <path
             d="m 25.516846,77.736122 0.277588,0 0,0.126709 c 0.0415,-0.05176 0.0835,-0.08862 0.125976,-0.110596 0.04248,-0.02246 0.09424,-0.03369 0.155274,-0.03369 0.08252,10e-7 0.146971,0.02466 0.193359,0.07398 0.04687,0.04883 0.07031,0.124512 0.07031,0.22705 l 0,0.494385 -0.29956,0 0,-0.427734 c -1e-6,-0.04883 -0.009,-0.08325 -0.0271,-0.103272 -0.01807,-0.02051 -0.04346,-0.03076 -0.07617,-0.03076 -0.03613,0 -0.06543,0.01367 -0.08789,0.04102 -0.02246,0.02734 -0.03369,0.07642 -0.03369,0.147217 l 0,0.373535 -0.298095,0 0,-0.777832"
             inkscape:connector-curvature="0"
             id="path3126" />
          <path
             d="m 26.790527,77.988075 -0.284912,-0.03003 c 0.01074,-0.0498 0.02612,-0.08887 0.04614,-0.117188 0.02051,-0.02881 0.0498,-0.05371 0.08789,-0.07471 0.02734,-0.01514 0.06494,-0.02685 0.112793,-0.03516 0.04785,-0.0083 0.09961,-0.01245 0.155274,-0.01245 0.08936,10e-7 0.161132,0.0051 0.215332,0.01538 0.0542,0.0098 0.09936,0.03052 0.135498,0.06226 0.02539,0.02197 0.04541,0.05322 0.06006,0.09375 0.01465,0.04004 0.02197,0.07837 0.02197,0.11499 l 0,0.343506 c -1e-6,0.03662 0.0022,0.06543 0.0066,0.08643 0.0049,0.02051 0.01514,0.04687 0.03076,0.0791 l -0.279785,0 c -0.01123,-0.02002 -0.01856,-0.03516 -0.02197,-0.04541 -0.0034,-0.01074 -0.0068,-0.02734 -0.01025,-0.0498 -0.03906,0.0376 -0.07788,0.06445 -0.116455,0.08057 -0.05274,0.02148 -0.114014,0.03223 -0.183838,0.03223 -0.09277,0 -0.16333,-0.02148 -0.21167,-0.06445 -0.04785,-0.04297 -0.07178,-0.09595 -0.07178,-0.158935 0,-0.05908 0.01733,-0.107666 0.052,-0.145752 0.03467,-0.03809 0.09863,-0.06641 0.191894,-0.08496 0.111816,-0.02246 0.184326,-0.03809 0.21753,-0.04687 0.0332,-0.0093 0.06836,-0.02124 0.105468,-0.03589 0,-0.03662 -0.0076,-0.06226 -0.0227,-0.0769 -0.01514,-0.01465 -0.04175,-0.02197 -0.07983,-0.02197 -0.04883,10e-7 -0.08545,0.0078 -0.109863,0.02344 -0.01904,0.01221 -0.03442,0.03516 -0.04614,0.06885 m 0.258545,0.156739 c -0.04102,0.01465 -0.08374,0.02759 -0.128174,0.03882 -0.06055,0.01611 -0.09888,0.03198 -0.11499,0.04761 -0.0166,0.01611 -0.0249,0.03442 -0.0249,0.05493 0,0.02344 0.0081,0.04273 0.02417,0.05786 0.0166,0.01465 0.04077,0.02197 0.07251,0.02197 0.0332,0 0.06396,-0.0081 0.09229,-0.02417 0.02881,-0.01611 0.04907,-0.03564 0.06079,-0.05859 0.01221,-0.02344 0.01831,-0.05371 0.01831,-0.09082 l 0,-0.04761"
             inkscape:connector-curvature="0"
             id="path3128" />
          <path
             d="m 28.085449,77.736122 0.279053,0 0,0.734619 7.32e-4,0.03442 c -1e-6,0.04883 -0.0105,0.09521 -0.03149,0.13916 -0.02051,0.04443 -0.0481,0.08032 -0.08276,0.107666 -0.03418,0.02734 -0.07788,0.04712 -0.131104,0.05933 -0.05273,0.01221 -0.113282,0.01831 -0.181641,0.01831 -0.15625,0 -0.263672,-0.02344 -0.322265,-0.07031 -0.05811,-0.04687 -0.08716,-0.109619 -0.08716,-0.188232 0,-0.0098 4.88e-4,-0.02295 0.0015,-0.03955 l 0.289307,0.03296 c 0.0073,0.02686 0.01855,0.04541 0.03369,0.05566 0.02197,0.01514 0.04956,0.02271 0.08276,0.02271 0.04297,0 0.07495,-0.01147 0.09595,-0.03442 0.02148,-0.02295 0.03223,-0.06299 0.03223,-0.120118 l 0,-0.11792 c -0.0293,0.03467 -0.05859,0.05982 -0.08789,0.07544 -0.0459,0.02441 -0.09546,0.03662 -0.148681,0.03662 -0.104004,0 -0.187989,-0.04541 -0.251953,-0.13623 -0.04541,-0.06445 -0.06812,-0.149658 -0.06812,-0.255616 0,-0.121093 0.0293,-0.213378 0.08789,-0.276855 0.05859,-0.06348 0.135254,-0.09521 0.22998,-0.09522 0.06055,10e-7 0.110352,0.01026 0.149415,0.03076 0.03955,0.02051 0.07642,0.05444 0.110595,0.101806 l 0,-0.11499 m -0.280517,0.377197 c -1e-6,0.05615 0.01196,0.0979 0.03589,0.125245 0.02393,0.02685 0.05542,0.04028 0.09448,0.04028 0.03711,0 0.06811,-0.01392 0.09302,-0.04175 0.02539,-0.02832 0.03809,-0.0708 0.03809,-0.127442 0,-0.05664 -0.01318,-0.09985 -0.03955,-0.129638 -0.02637,-0.03027 -0.05859,-0.04541 -0.09668,-0.04541 -0.03809,1e-6 -0.0686,0.01392 -0.09155,0.04175 -0.02246,0.02734 -0.03369,0.073 -0.03369,0.136962"
             inkscape:connector-curvature="0"
             id="path3130" />
          <path
             d="m 29.409668,78.199013 -0.597656,0 c 0.0054,0.04785 0.01831,0.0835 0.03882,0.106933 0.02881,0.03369 0.06641,0.05054 0.112793,0.05054 0.0293,10e-7 0.05713,-0.0073 0.0835,-0.02197 0.01611,-0.0093 0.03345,-0.02564 0.052,-0.04907 l 0.293701,0.0271 c -0.04492,0.07813 -0.09912,0.134278 -0.162597,0.168457 -0.06348,0.03369 -0.154542,0.05054 -0.273194,0.05054 -0.103027,0 -0.184082,-0.0144 -0.243164,-0.04321 -0.05908,-0.0293 -0.108154,-0.07544 -0.147217,-0.138427 -0.03857,-0.06348 -0.05786,-0.137939 -0.05786,-0.223389 0,-0.121582 0.03882,-0.21997 0.116455,-0.295166 0.07813,-0.0752 0.185791,-0.112792 0.322998,-0.112793 0.111328,10e-7 0.199218,0.01685 0.263672,0.05054 0.06445,0.03369 0.113525,0.08252 0.147217,0.146484 0.03369,0.06397 0.05054,0.147218 0.05054,0.249756 l 0,0.03369 M 29.106445,78.05619 c -0.0059,-0.05762 -0.02149,-0.09888 -0.04687,-0.123779 -0.0249,-0.0249 -0.05786,-0.03735 -0.09888,-0.03735 -0.04736,0 -0.0852,0.0188 -0.113525,0.0564 -0.01807,0.02344 -0.02954,0.05835 -0.03442,0.104736 l 0.293701,0"
             inkscape:connector-curvature="0"
             id="path3132" />
          <path
             d="m 29.551025,77.736122 0.279053,0 0,0.127442 c 0.02686,-0.05518 0.05444,-0.09302 0.08276,-0.113526 0.02881,-0.02099 0.06421,-0.03149 0.106201,-0.03149 0.04395,10e-7 0.09204,0.01367 0.144287,0.04102 l -0.09228,0.212402 c -0.03516,-0.01465 -0.06299,-0.02197 -0.0835,-0.02197 -0.03906,10e-7 -0.06934,0.01611 -0.09082,0.04834 -0.03076,0.04541 -0.04614,0.130372 -0.04614,0.254883 l 0,0.260742 -0.299561,0 0,-0.777832"
             inkscape:connector-curvature="0"
             id="path3134" />
        </g>
      </g>
    </g>
    <g
       style="display:inline"
       id="layer6"
       transform="translate(-19.995938,929.36218)">
      <rect
         style="opacity:0.31000001;fill:#000000;fill-opacity:1;stroke:none;display:inline"
         id="rect3859"
         clip-path="url(#clipPath3871)"
         transform="translate(1.373291e-7,-61)"
         y="118"
         x="50"
         ry="18"
         rx="18"
         height="36"
         width="36" />
      <path
         style="fill:url(#linearGradient3483);fill-opacity:1;stroke:none"
         id="path3836"
         transform="matrix(0,-0.91636366,0.91636366,0,1.3018175,139.12727)"
         d="m 90.714283,72.785713 a 19.642857,19.642857 0 1 1 -39.285713,0 19.642857,19.642857 0 1 1 39.285713,0 z"
         inkscape:connector-curvature="0" />
      <g
         style="display:inline"
         id="g4106">
        <path
           style="opacity:0.2;fill:url(#linearGradient3485);fill-opacity:1;stroke:none"
           id="path3846"
           inkscape:connector-curvature="0"
           d="m 68,56 c -9.941125,0 -18,8.058875 -18,18 0,3.6617 1.09067,7.063961 2.96875,9.90625 C 51.722125,81.541769 51,78.858787 51,76 c 0,-9.388841 7.611159,-17 17,-17 9.388841,0 17,7.611159 17,17 0,2.858787 -0.722125,5.541769 -1.96875,7.90625 C 84.90933,81.063961 86,77.6617 86,74 86,64.058875 77.941125,56 68,56 z" />
        <path
           style="opacity:0.3;fill:#ffffff;fill-opacity:1;stroke:none;display:inline"
           id="path4097"
           inkscape:connector-curvature="0"
           d="m 68,56 c -9.94112,0 -18,8.05887 -18,18 0,0.168593 0.02664,0.33252 0.03125,0.5 C 50.298212,64.79197 58.227473,57 68,57 c 9.73052,0 17.63723,7.725255 17.96875,17.375 l 0,-1 C 85.63723,63.725255 77.73052,56 68,56 z" />
      </g>
      <path
         style="color:#000000;fill:#f8c300;fill-opacity:1;fill-rule:nonzero;stroke:none;stroke-width:1;marker:none;visibility:visible;display:inline;overflow:visible;enable-background:accumulate"
         id="path3942"
         transform="matrix(0.81757759,0,0,0.81757759,13.329489,14.930404)"
         d="m 59.530143,76.486558 10e-7,-8.474062 7.338753,-4.237031 7.338753,4.237031 -10e-7,8.474062 -7.338753,4.237031 z"
         inkscape:connector-curvature="0" />
      <path
         style="fill:#8fb635;fill-opacity:1;stroke:none"
         id="path3944"
         inkscape:connector-curvature="0"
         d="m 69,59.59375 0,6 5.6875,3.375 L 80,66 69,59.59375 z" />
      <path
         style="fill:#d18c3b;fill-opacity:1;stroke:none"
         id="path3966"
         inkscape:connector-curvature="0"
         d="m 80.976178,67.6629 -5.196152,3 -0.07909,6.61302 5.227263,3.116385 0.04798,-12.729405 z" />
      <path
         style="fill:#a02c35;fill-opacity:1;stroke:none"
         id="path3968"
         inkscape:connector-curvature="0"
         d="m 79.976178,82.06915 -5.196152,-2.999999 -5.766588,3.238016 -0.08524,6.085135 11.047978,-6.323151 z" />
      <path
         style="fill:#bb3a84;fill-opacity:1;stroke:none"
         id="path3970"
         inkscape:connector-curvature="0"
         d="m 67,88.40625 -10e-7,-5.999999 L 61.312501,79.031247 56,81.999994 66.999998,88.406249 z" />
      <path
         style="fill:#3941bf;fill-opacity:1;stroke:none"
         id="path3972"
         inkscape:connector-curvature="0"
         d="m 55.023821,80.3371 5.196151,-3 0.07909,-6.61302 -5.227261,-3.116387 -0.04798,12.729405 z" />
      <path
         style="fill:#3895bd;fill-opacity:1;stroke:none"
         id="path3974"
         inkscape:connector-curvature="0"
         d="m 56.023821,65.93085 5.196151,2.999999 5.766589,-3.238017 0.08524,-6.085134 -11.047979,6.323151 z" />
    </g>
    <rect
       ry="25"
       rx="25"
       id="rect3003"
       style="opacity:0.15;fill:#ffffff;fill-opacity:1"
       height="92"
       width="92"
       y="958.36218"
       x="-96"
       clip-path="url(#clipPath3009)"
       transform="translate(98,3.8281269e-7)" />
  </g>
</svg>
