<?xml version="1.0" encoding="UTF-8" standalone="no"?>
<!-- Created with Inkscape (http://www.inkscape.org/) -->

<svg
   xmlns:dc="http://purl.org/dc/elements/1.1/"
   xmlns:cc="http://creativecommons.org/ns#"
   xmlns:rdf="http://www.w3.org/1999/02/22-rdf-syntax-ns#"
   xmlns:svg="http://www.w3.org/2000/svg"
   xmlns="http://www.w3.org/2000/svg"
   xmlns:xlink="http://www.w3.org/1999/xlink"
   xmlns:sodipodi="http://sodipodi.sourceforge.net/DTD/sodipodi-0.dtd"
   xmlns:inkscape="http://www.inkscape.org/namespaces/inkscape"
   width="96"
   height="96"
   id="svg11037"
   version="1.1"
   inkscape:version="0.48.3.1 r9886"
   sodipodi:docname="preferences-desktop-remote-desktop.svg">
  <defs
     id="defs11039">
    <linearGradient
       y2="1046.1001"
       x2="47.999954"
       y1="962.62189"
       x1="47.999954"
       gradientTransform="matrix(1.15,0,0,1.15,-7.1999462,-150.65291)"
       gradientUnits="userSpaceOnUse"
       id="linearGradient3886"
       xlink:href="#linearGradient3795"
       inkscape:collect="always" />
    <linearGradient
       id="linearGradient3795">
      <stop
         style="stop-color:#13a6fd;stop-opacity:1;"
         offset="0"
         id="stop3797" />
      <stop
         style="stop-color:#2975b6;stop-opacity:1;"
         offset="1"
         id="stop3799" />
    </linearGradient>
    <linearGradient
       y2="1046.1001"
       x2="47.999954"
       y1="962.62189"
       x1="47.999954"
       gradientTransform="matrix(1.15,0,0,1.15,-7.1999462,-150.65292)"
       gradientUnits="userSpaceOnUse"
       id="linearGradient11642"
       xlink:href="#linearGradient3175"
       inkscape:collect="always" />
    <radialGradient
       cx="56.065952"
       cy="-15.871236"
       r="35.9375"
       fx="56.065952"
       fy="-15.871236"
       id="radialGradient3465"
       xlink:href="#linearGradient3175"
       gradientUnits="userSpaceOnUse"
       gradientTransform="matrix(-0.00226162,-1.2345585,1.3856367,0,179.50969,138.43656)" />
    <linearGradient
       id="linearGradient3175">
      <stop
         id="stop3177"
         style="stop-color:#4490e6;stop-opacity:1"
         offset="0" />
      <stop
         id="stop3179"
         style="stop-color:#103d8f;stop-opacity:1"
         offset="1" />
    </linearGradient>
    <radialGradient
       r="35.9375"
       fy="-15.871236"
       fx="56.065952"
       cy="-15.871236"
       cx="56.065952"
       gradientTransform="matrix(-0.00226162,-1.2345585,1.3856367,0,-13.85151,1096.9585)"
       gradientUnits="userSpaceOnUse"
       id="radialGradient3309"
       xlink:href="#linearGradient3175"
       inkscape:collect="always" />
    <linearGradient
       x1="24.790335"
       y1="64.485451"
       x2="94.680679"
       y2="44.223976"
       id="linearGradient4593"
       xlink:href="#linearGradient7175"
       gradientUnits="userSpaceOnUse"
       gradientTransform="matrix(0.9800587,-0.1987084,0.1987084,0.9800587,-12.275551,20.870047)" />
    <linearGradient
       id="linearGradient7175">
      <stop
         id="stop7177"
         style="stop-color:#000000;stop-opacity:1"
         offset="0" />
      <stop
         id="stop7179"
         style="stop-color:#000000;stop-opacity:0"
         offset="1" />
    </linearGradient>
    <linearGradient
       x1="23.204918"
       y1="51.635754"
       x2="89.898247"
       y2="51.635754"
       id="linearGradient4589"
       xlink:href="#linearGradient7175"
       gradientUnits="userSpaceOnUse"
       gradientTransform="translate(0,15)" />
    <linearGradient
       id="linearGradient3337">
      <stop
         id="stop3339"
         style="stop-color:#000000;stop-opacity:1"
         offset="0" />
      <stop
         id="stop3341"
         style="stop-color:#000000;stop-opacity:0"
         offset="1" />
    </linearGradient>
    <linearGradient
       x1="-31"
       y1="0"
       x2="-27"
       y2="0"
       id="linearGradient4531"
       xlink:href="#linearGradient4304"
       gradientUnits="userSpaceOnUse" />
    <linearGradient
       id="linearGradient4304">
      <stop
         id="stop4306"
         style="stop-color:#1a1a1a;stop-opacity:1"
         offset="0" />
      <stop
         id="stop4312"
         style="stop-color:#666666;stop-opacity:1"
         offset="0.30357143" />
      <stop
         id="stop4308"
         style="stop-color:#000000;stop-opacity:1"
         offset="1" />
    </linearGradient>
    <linearGradient
       x1="-29"
       y1="0"
       x2="-29"
       y2="-2.5"
       id="linearGradient4533"
       xlink:href="#linearGradient7175"
       gradientUnits="userSpaceOnUse" />
    <linearGradient
       id="linearGradient3349">
      <stop
         id="stop3351"
         style="stop-color:#000000;stop-opacity:1"
         offset="0" />
      <stop
         id="stop3353"
         style="stop-color:#000000;stop-opacity:0"
         offset="1" />
    </linearGradient>
    <linearGradient
       x1="-32"
       y1="56.09375"
       x2="-26"
       y2="56.09375"
       id="linearGradient4535"
       xlink:href="#linearGradient4304"
       gradientUnits="userSpaceOnUse" />
    <linearGradient
       id="linearGradient3356">
      <stop
         id="stop3358"
         style="stop-color:#1a1a1a;stop-opacity:1"
         offset="0" />
      <stop
         id="stop3360"
         style="stop-color:#666666;stop-opacity:1"
         offset="0.30357143" />
      <stop
         id="stop3362"
         style="stop-color:#000000;stop-opacity:1"
         offset="1" />
    </linearGradient>
    <linearGradient
       x1="-29"
       y1="35.764431"
       x2="-29.236725"
       y2="74.234039"
       id="linearGradient4537"
       xlink:href="#linearGradient7175"
       gradientUnits="userSpaceOnUse" />
    <linearGradient
       id="linearGradient3365">
      <stop
         id="stop3367"
         style="stop-color:#000000;stop-opacity:1"
         offset="0" />
      <stop
         id="stop3369"
         style="stop-color:#000000;stop-opacity:0"
         offset="1" />
    </linearGradient>
    <linearGradient
       x1="-33"
       y1="17.75"
       x2="-25"
       y2="17.75"
       id="linearGradient4539"
       xlink:href="#linearGradient4294"
       gradientUnits="userSpaceOnUse" />
    <linearGradient
       id="linearGradient4294">
      <stop
         id="stop4296"
         style="stop-color:#999999;stop-opacity:1"
         offset="0" />
      <stop
         id="stop4302"
         style="stop-color:#e6e6e6;stop-opacity:1"
         offset="0.35267857" />
      <stop
         id="stop4298"
         style="stop-color:#1f1f1f;stop-opacity:1"
         offset="1" />
    </linearGradient>
    <linearGradient
       x1="-29"
       y1="35.5"
       x2="-29"
       y2="0"
       id="linearGradient4541"
       xlink:href="#linearGradient4316"
       gradientUnits="userSpaceOnUse" />
    <linearGradient
       id="linearGradient4316">
      <stop
         id="stop4318"
         style="stop-color:#000000;stop-opacity:0.7681818"
         offset="0" />
      <stop
         id="stop4326"
         style="stop-color:#000000;stop-opacity:0"
         offset="0.06176317" />
      <stop
         id="stop4324"
         style="stop-color:#ffffff;stop-opacity:0"
         offset="0.93853289" />
      <stop
         id="stop4320"
         style="stop-color:#ffffff;stop-opacity:1"
         offset="1" />
    </linearGradient>
    <filter
       x="-0.36000001"
       y="-0.025714286"
       width="1.72"
       height="1.0514286"
       color-interpolation-filters="sRGB"
       id="filter4459">
      <feGaussianBlur
         id="feGaussianBlur4461"
         stdDeviation="0.3" />
    </filter>
    <linearGradient
       x1="-36"
       y1="16"
       x2="-32"
       y2="16"
       id="linearGradient4543"
       xlink:href="#linearGradient4490"
       gradientUnits="userSpaceOnUse"
       gradientTransform="matrix(-1,0,0,1,-66,0)" />
    <linearGradient
       id="linearGradient4490">
      <stop
         id="stop4492"
         style="stop-color:#ececec;stop-opacity:0"
         offset="0" />
      <stop
         id="stop4498"
         style="stop-color:#cccccc;stop-opacity:1"
         offset="0.23398043" />
      <stop
         id="stop4496"
         style="stop-color:#e6e6e6;stop-opacity:1"
         offset="0.50230217" />
      <stop
         id="stop4494"
         style="stop-color:#aaaaaa;stop-opacity:1"
         offset="1" />
    </linearGradient>
    <clipPath
       clipPathUnits="userSpaceOnUse"
       id="clipPath3009">
      <path
         id="path3011"
         d="m -2,956.36218 -96,0 0,33.5624 96,25.68742 0,-59.24982 z"
         style="opacity:0.15;fill:#ffffff;fill-opacity:1;stroke:none"
         inkscape:connector-curvature="0" />
    </clipPath>
  </defs>
  <sodipodi:namedview
     id="base"
     pagecolor="#ffffff"
     bordercolor="#666666"
     borderopacity="1.0"
     inkscape:pageopacity="0.0"
     inkscape:pageshadow="2"
     inkscape:zoom="3.959798"
     inkscape:cx="33.538031"
     inkscape:cy="59.964634"
     inkscape:document-units="px"
     inkscape:current-layer="layer1"
     showgrid="false"
     inkscape:window-width="1280"
     inkscape:window-height="750"
     inkscape:window-x="0"
     inkscape:window-y="22"
     inkscape:window-maximized="1"
     showguides="true"
     inkscape:guide-bbox="true">
    <sodipodi:guide
       orientation="0,1"
       position="-24.748737,0"
       id="guide11064" />
    <sodipodi:guide
       orientation="0,1"
       position="-23.233509,96"
       id="guide11066" />
    <sodipodi:guide
       orientation="1,0"
       position="0,54.800776"
       id="guide11068" />
    <sodipodi:guide
       orientation="1,0"
       position="96,51.012704"
       id="guide11070" />
    <sodipodi:guide
       orientation="0,1"
       position="-18.94036,48"
       id="guide11072" />
    <sodipodi:guide
       orientation="1,0"
       position="48,79.296975"
       id="guide11074" />
    <sodipodi:guide
       orientation="1,0"
       position="2,75.508903"
       id="guide11076" />
    <sodipodi:guide
       orientation="0,1"
       position="-77.27667,2"
       id="guide11078" />
    <sodipodi:guide
       orientation="1,0"
       position="94,77.781746"
       id="guide11080" />
    <sodipodi:guide
       orientation="0,1"
       position="-65.912454,94"
       id="guide11082" />
  </sodipodi:namedview>
  <metadata
     id="metadata11042">
    <rdf:RDF>
      <cc:Work
         rdf:about="">
        <dc:format>image/svg+xml</dc:format>
        <dc:type
           rdf:resource="http://purl.org/dc/dcmitype/StillImage" />
        <dc:title />
      </cc:Work>
    </rdf:RDF>
  </metadata>
  <g
     inkscape:label="Layer 1"
     inkscape:groupmode="layer"
     id="layer1"
     transform="translate(0,-956.36218)">
    <rect
       x="2"
       y="958.36218"
       width="92"
       height="92"
       style="fill:url(#linearGradient11642);fill-opacity:1.0"
       id="rect3867"
       rx="25"
       ry="25" />
    <path
       d="m 47.946429,986.36218 c -9.213204,0 -18.416992,3.52413 -25.446429,10.55357 l 4.232143,4.23215 c 11.715728,-11.71573 30.712843,-11.71573 42.428571,0 l 4.232143,-4.23215 C 66.36342,989.88631 57.159632,986.36218 47.946429,986.36218 z m 0,12 c -6.142136,0 -12.295852,2.33162 -16.982143,7.01782 l 4.258928,4.259 c 7.029437,-7.0295 18.416992,-7.0295 25.446429,0 l 4.258928,-4.259 c -4.686291,-4.6862 -10.840007,-7.01782 -16.982142,-7.01782 z m 0,12.00002 c -3.071068,0 -6.147926,1.1658 -8.491072,3.5089 l 8.491072,8.4911 8.491071,-8.4911 c -2.343146,-2.3431 -5.420004,-3.5089 -8.491071,-3.5089 z"
       inkscape:connector-curvature="0"
       id="path3717"
       style="opacity:0.6;fill:#ffffff;fill-opacity:1;stroke:none;display:inline;enable-background:new" />
    <g
       transform="translate(-6.0000001,956.36218)"
       id="layer4"
       style="display:inline;enable-background:new">
      <path
         d="m 98.312801,41.451522 c -0.493728,-0.991917 -1.689746,-1.392996 -2.68166,-0.899277 l -1.846425,0.919041 c -0.511823,-0.655829 -1.312112,-1.019174 -2.122518,-0.968144 -0.162082,0.0102 -0.314594,0.05403 -0.475341,0.09697 l -0.473445,-0.951188 -25.066565,12.476672 0.445596,0.895234 -0.895234,0.445595 -2.238086,1.113989 c -0.737741,0.367205 -1.210099,1.036302 -1.344875,1.786425 -2.644818,1.326807 -5.2139,2.62915 -7.693547,3.899213 -0.03863,0.01974 -0.07332,0.03598 -0.111904,0.0557 -2.366169,1.212363 -4.651122,2.395318 -6.826415,3.537418 -0.0096,0.005 -0.01837,0.0089 -0.02798,0.01393 -0.0089,0.0046 -0.01913,0.0093 -0.02798,0.01393 -0.653486,0.343185 -1.240593,0.667069 -1.874524,1.002843 -0.04657,0.02467 -0.09341,0.045 -0.139879,0.06962 -0.07435,0.03941 -0.149742,0.0721 -0.223809,0.111398 -0.437946,0.226503 -0.887766,0.461808 -1.300951,0.682445 -12.569079,6.711735 -20.861296,11.80836 -20.218213,13.100359 0.680767,1.367708 9.721399,-2.225927 22.641138,-8.232522 3.956015,-1.839215 8.176917,-3.836308 12.756585,-6.070226 0.996721,-0.486191 2.05819,-1.030859 3.077369,-1.531734 0.870976,-0.428041 1.758014,-0.843168 2.643676,-1.280961 0.679722,0.344714 1.498323,0.371248 2.236064,0.004 L 94.276154,47.928831 c 1.084907,-0.540004 1.591469,-1.751376 1.290943,-2.876607 l 1.846419,-0.91904 c 0.991924,-0.49372 1.393003,-1.689741 0.899285,-2.681662 z"
         inkscape:connector-curvature="0"
         id="path4591"
         style="opacity:0.3;fill:url(#linearGradient4593);fill-opacity:1;fill-rule:nonzero;stroke:none" />
      <path
         d="m 104.29336,57.145886 c -0.28678,-1.070245 -1.37925,-1.700985 -2.44949,-1.414213 l -1.992226,0.533814 c -0.371298,-0.744454 -1.083428,-1.259578 -1.887813,-1.3706 -0.160878,-0.0222 -0.319058,-0.0096 -0.485131,5.81e-4 l -0.274995,-1.026297 -27.045923,7.246934 0.258819,0.965925 -0.965925,0.258819 -2.414815,0.647048 c -0.795996,0.213287 -1.391889,0.77518 -1.673033,1.483563 -2.855725,0.774801 -5.632363,1.540676 -8.314934,2.292685 -0.04178,0.01167 -0.07901,0.0207 -0.120741,0.03235 -2.559891,0.71801 -5.034342,1.423336 -7.393202,2.110412 -0.01042,0.003 -0.01977,0.0051 -0.03019,0.0081 -0.0096,0.0028 -0.0206,0.0053 -0.03019,0.0081 -0.708648,0.206488 -1.348406,0.407251 -2.036416,0.610361 -0.05055,0.01492 -0.100491,0.02554 -0.150925,0.04044 -0.0807,0.02385 -0.161083,0.04091 -0.241482,0.0647 -0.47422,0.134962 -0.961828,0.276192 -1.410616,0.410326 -13.652112,4.080313 -22.791713,7.427571 -22.418185,8.821592 0.395416,1.475708 9.969851,-0.249816 23.825514,-3.569371 4.242594,-1.016445 8.776165,-2.134985 13.708407,-3.414337 1.073455,-0.278439 2.221987,-0.601323 3.32037,-0.88969 0.938663,-0.246435 1.890501,-0.477022 2.845495,-0.730096 0.59767,0.472906 1.394675,0.661574 2.190671,0.448287 l 29.943701,-8.02339 c 1.170575,-0.313656 1.907745,-1.400213 1.836805,-2.562722 l 1.99222,-0.533815 c 1.07025,-0.286771 1.70099,-1.379244 1.41422,-2.44949 z"
         inkscape:connector-curvature="0"
         id="rect4284"
         style="opacity:0.6;fill:url(#linearGradient4589);fill-opacity:1;fill-rule:nonzero;stroke:none" />
      <g
         transform="matrix(0.5,0.8660254,-0.8660254,0.5,106.8819,63.99641)"
         id="g4511">
        <rect
           width="4"
           height="8"
           rx="2"
           ry="2"
           x="-31"
           y="-4"
           id="rect4513"
           style="opacity:0.73306777;fill:url(#linearGradient4531);fill-opacity:1;fill-rule:nonzero;stroke:none" />
        <rect
           width="4"
           height="8"
           rx="2"
           ry="2"
           x="-31"
           y="-4"
           id="rect4515"
           style="opacity:0.73306777;fill:url(#linearGradient4533);fill-opacity:1;fill-rule:nonzero;stroke:none" />
        <path
           d="m -32,32.25 c 0.01081,26.348328 0.845623,47.687501 3,47.6875 2.280646,-10e-7 2.989187,-21.339173 3,-47.6875 l -6,0 z"
           inkscape:connector-curvature="0"
           id="path4517"
           style="fill:url(#linearGradient4535);fill-opacity:1;fill-rule:nonzero;stroke:none" />
        <path
           d="m -32,32.25 c 0.01081,26.348328 0.845623,47.687501 3,47.6875 2.280646,-10e-7 2.989187,-21.339173 3,-47.6875 l -6,0 z"
           inkscape:connector-curvature="0"
           id="path4519"
           style="opacity:0.8;fill:url(#linearGradient4537);fill-opacity:1;fill-rule:nonzero;stroke:none" />
        <path
           d="M -30.5,0 C -31.885,0 -33,1.115 -33,2.5 l 0,31 c 0,0.824075 0.388519,1.545093 1,2 l 6,0 c 0.611481,-0.454907 1,-1.175925 1,-2 l 0,-31 C -25,1.115 -26.115,0 -27.5,0 l -3,0 z"
           inkscape:connector-curvature="0"
           id="path4521"
           style="fill:url(#linearGradient4539);fill-opacity:1;fill-rule:nonzero;stroke:none" />
        <path
           d="M -30.5,6.5548395e-8 C -31.885,6.5548395e-8 -33,1.115 -33,2.5 l 0,31 c 0,0.824075 0.388519,1.545093 1,2 l 6,0 c 0.611481,-0.454907 1,-1.175925 1,-2 l 0,-31 C -25,1.115 -26.115,6.5548395e-8 -27.5,6.5548395e-8 l -3,0 z"
           inkscape:connector-curvature="0"
           id="path4523"
           style="fill:url(#linearGradient4541);fill-opacity:1;fill-rule:nonzero;stroke:none" />
        <path
           d="m -31.96875,40.0625 c 0.0049,0.670574 0.02557,1.278688 0.03125,1.9375 l 5.875,0 c 0.0056,-0.658823 0.02695,-1.266902 0.03125,-1.9375 l -5.9375,0 z m 0.03125,4.0625 c 0.02845,2.733648 0.07305,5.358369 0.125,7.875 l 5.625,0 c 0.05199,-2.51661 0.09557,-5.141352 0.125,-7.875 l -5.875,0 z m 0.1875,10 c 0.01507,0.611551 0.01413,1.277329 0.03125,1.875 l 5.4375,0 c 0.01593,-0.597688 0.01671,-1.263445 0.03125,-1.875 l -5.5,0 z"
           inkscape:connector-curvature="0"
           id="path4525"
           style="opacity:0.10756974;fill:#ffffff;fill-opacity:1;fill-rule:nonzero;stroke:none" />
        <rect
           width="2"
           height="28"
           x="-33"
           y="3"
           id="rect4527"
           style="opacity:0.4;fill:#000000;fill-opacity:1;fill-rule:nonzero;stroke:none;filter:url(#filter4459)" />
        <path
           d="m -34,2 0,28 2,0 0,-22 2,0 0,-4 -2,0 0,-2 -2,0 z"
           inkscape:connector-curvature="0"
           id="path4529"
           style="fill:url(#linearGradient4543);fill-opacity:1;fill-rule:nonzero;stroke:none" />
      </g>
    </g>
    <rect
       ry="25"
       rx="25"
       id="rect3003"
       style="opacity:0.15;fill:#ffffff;fill-opacity:1"
       height="92"
       width="92"
       y="958.36218"
       x="-96"
       clip-path="url(#clipPath3009)"
       transform="translate(98,3.8281269e-7)" />
  </g>
</svg>
