<?xml version="1.0" encoding="UTF-8" standalone="no"?>
<!-- Created with Inkscape (http://www.inkscape.org/) -->

<svg
   xmlns:dc="http://purl.org/dc/elements/1.1/"
   xmlns:cc="http://creativecommons.org/ns#"
   xmlns:rdf="http://www.w3.org/1999/02/22-rdf-syntax-ns#"
   xmlns:svg="http://www.w3.org/2000/svg"
   xmlns="http://www.w3.org/2000/svg"
   xmlns:xlink="http://www.w3.org/1999/xlink"
   xmlns:sodipodi="http://sodipodi.sourceforge.net/DTD/sodipodi-0.dtd"
   xmlns:inkscape="http://www.inkscape.org/namespaces/inkscape"
   width="96"
   height="96"
   id="svg11037"
   version="1.1"
   inkscape:version="0.48.3.1 r9886"
   sodipodi:docname="preferences-desktop-keyboard-shortcuts.svg">
  <defs
     id="defs11039">
    <linearGradient
       y2="1046.1001"
       x2="47.999954"
       y1="962.62189"
       x1="47.999954"
       gradientTransform="matrix(1.15,0,0,1.15,-7.1999462,-150.65291)"
       gradientUnits="userSpaceOnUse"
       id="linearGradient3886"
       xlink:href="#linearGradient3795"
       inkscape:collect="always" />
    <linearGradient
       id="linearGradient3795">
      <stop
         style="stop-color:#13a6fd;stop-opacity:1;"
         offset="0"
         id="stop3797" />
      <stop
         style="stop-color:#2975b6;stop-opacity:1;"
         offset="1"
         id="stop3799" />
    </linearGradient>
    <linearGradient
       y2="1046.1001"
       x2="47.999954"
       y1="962.62189"
       x1="47.999954"
       gradientTransform="matrix(1.15,0,0,1.15,-7.1999462,-150.65292)"
       gradientUnits="userSpaceOnUse"
       id="linearGradient11642"
       xlink:href="#linearGradient3641"
       inkscape:collect="always" />
    <linearGradient
       x1="48"
       y1="90"
       x2="48"
       y2="5.9877172"
       id="linearGradient3617"
       xlink:href="#linearGradient3641"
       gradientUnits="userSpaceOnUse" />
    <linearGradient
       id="linearGradient3641">
      <stop
         id="stop3643"
         style="stop-color:#b4b4b4;stop-opacity:1"
         offset="0" />
      <stop
         id="stop3645"
         style="stop-color:#dcdcdc;stop-opacity:1"
         offset="1" />
    </linearGradient>
    <linearGradient
       gradientTransform="translate(98.21958,950.36219)"
       y2="5.9877172"
       x2="48"
       y1="90"
       x1="48"
       gradientUnits="userSpaceOnUse"
       id="linearGradient3126"
       xlink:href="#linearGradient3641"
       inkscape:collect="always" />
    <linearGradient
       x1="63.535717"
       y1="90"
       x2="32.07143"
       y2="6"
       id="linearGradient3869"
       xlink:href="#linearGradient3825"
       gradientUnits="userSpaceOnUse"
       gradientTransform="matrix(0.35714285,0,0,0.35714285,15.857143,15.857143)" />
    <linearGradient
       id="linearGradient3825">
      <stop
         id="stop3827"
         style="stop-color:#b3b3b3;stop-opacity:1"
         offset="0" />
      <stop
         id="stop3829"
         style="stop-color:#d2d2d2;stop-opacity:1"
         offset="1" />
    </linearGradient>
    <linearGradient
       x1="13.321428"
       y1="48"
       x2="48"
       y2="84.285713"
       id="linearGradient3866"
       xlink:href="#linearGradient3672"
       gradientUnits="userSpaceOnUse"
       gradientTransform="matrix(-0.35714285,0,0,-0.35714285,50.142857,50.142857)" />
    <linearGradient
       id="linearGradient3672">
      <stop
         id="stop3674"
         style="stop-color:#ffffff;stop-opacity:0"
         offset="0" />
      <stop
         id="stop3676"
         style="stop-color:#ffffff;stop-opacity:0"
         offset="0.30000001" />
      <stop
         id="stop3678"
         style="stop-color:#ffffff;stop-opacity:0.61240309"
         offset="0.5" />
      <stop
         id="stop3680"
         style="stop-color:#ffffff;stop-opacity:0"
         offset="0.75264549" />
      <stop
         id="stop3682"
         style="stop-color:#ffffff;stop-opacity:0"
         offset="1" />
    </linearGradient>
    <linearGradient
       x1="13.321428"
       y1="48"
       x2="48"
       y2="84.285713"
       id="linearGradient3863"
       xlink:href="#linearGradient3672"
       gradientUnits="userSpaceOnUse"
       gradientTransform="matrix(0.35714285,0,0,-0.35714285,15.857143,50.142857)" />
    <linearGradient
       id="linearGradient3150">
      <stop
         id="stop3152"
         style="stop-color:#ffffff;stop-opacity:0"
         offset="0" />
      <stop
         id="stop3154"
         style="stop-color:#ffffff;stop-opacity:0"
         offset="0.30000001" />
      <stop
         id="stop3156"
         style="stop-color:#ffffff;stop-opacity:0.61240309"
         offset="0.5" />
      <stop
         id="stop3158"
         style="stop-color:#ffffff;stop-opacity:0"
         offset="0.75264549" />
      <stop
         id="stop3160"
         style="stop-color:#ffffff;stop-opacity:0"
         offset="1" />
    </linearGradient>
    <linearGradient
       x1="6"
       y1="48"
       x2="48"
       y2="81.071426"
       id="linearGradient3858"
       xlink:href="#linearGradient3650-2"
       gradientUnits="userSpaceOnUse"
       gradientTransform="matrix(0.35714285,0,0,0.35714285,15.857143,15.857143)" />
    <linearGradient
       id="linearGradient3650-2">
      <stop
         id="stop3652"
         style="stop-color:#000000;stop-opacity:0"
         offset="0" />
      <stop
         id="stop3660"
         style="stop-color:#000000;stop-opacity:0"
         offset="0.30000001" />
      <stop
         id="stop3658"
         style="stop-color:#000000;stop-opacity:0.11764706"
         offset="0.5" />
      <stop
         id="stop3662"
         style="stop-color:#000000;stop-opacity:0"
         offset="0.69999999" />
      <stop
         id="stop3654-5"
         style="stop-color:#000000;stop-opacity:0"
         offset="1" />
    </linearGradient>
    <linearGradient
       x1="6"
       y1="48"
       x2="48"
       y2="81.071426"
       id="linearGradient3855"
       xlink:href="#linearGradient3650-2"
       gradientUnits="userSpaceOnUse"
       gradientTransform="matrix(-0.35714285,0,0,0.35714285,50.142857,15.857143)" />
    <linearGradient
       id="linearGradient3170">
      <stop
         id="stop3172"
         style="stop-color:#000000;stop-opacity:0"
         offset="0" />
      <stop
         id="stop3174"
         style="stop-color:#000000;stop-opacity:0"
         offset="0.30000001" />
      <stop
         id="stop3176"
         style="stop-color:#000000;stop-opacity:0.11764706"
         offset="0.5" />
      <stop
         id="stop3178"
         style="stop-color:#000000;stop-opacity:0"
         offset="0.69999999" />
      <stop
         id="stop3180"
         style="stop-color:#000000;stop-opacity:0"
         offset="1" />
    </linearGradient>
    <linearGradient
       x1="16"
       y1="46"
       x2="80"
       y2="46"
       id="linearGradient3852"
       xlink:href="#linearGradient3622"
       gradientUnits="userSpaceOnUse"
       gradientTransform="matrix(0.36458332,0,0,0.36458332,16.166668,-49.104165)" />
    <linearGradient
       id="linearGradient3622">
      <stop
         id="stop3624"
         style="stop-color:#d6d6d6;stop-opacity:1"
         offset="0" />
      <stop
         id="stop3626"
         style="stop-color:#eaeaea;stop-opacity:1"
         offset="1" />
    </linearGradient>
    <linearGradient
       x1="22"
       y1="33"
       x2="44"
       y2="33"
       id="linearGradient4723"
       xlink:href="#linearGradient3737-4"
       gradientUnits="userSpaceOnUse"
       gradientTransform="matrix(0,-1,1,0,0,66)" />
    <linearGradient
       id="linearGradient3737-4">
      <stop
         id="stop3739-4"
         style="stop-color:#ffffff;stop-opacity:1"
         offset="0" />
      <stop
         id="stop3741-9"
         style="stop-color:#ffffff;stop-opacity:0"
         offset="1" />
    </linearGradient>
    <linearGradient
       x1="63.535717"
       y1="90"
       x2="32.07143"
       y2="6"
       id="linearGradient4781"
       xlink:href="#linearGradient3825"
       gradientUnits="userSpaceOnUse"
       gradientTransform="matrix(0.35714285,0,0,0.35714285,47.857143,15.857143)" />
    <linearGradient
       id="linearGradient3191">
      <stop
         id="stop3193"
         style="stop-color:#b3b3b3;stop-opacity:1"
         offset="0" />
      <stop
         id="stop3195"
         style="stop-color:#d2d2d2;stop-opacity:1"
         offset="1" />
    </linearGradient>
    <linearGradient
       x1="13.321428"
       y1="48"
       x2="48"
       y2="84.285713"
       id="linearGradient4783"
       xlink:href="#linearGradient3672"
       gradientUnits="userSpaceOnUse"
       gradientTransform="matrix(-0.35714285,0,0,-0.35714285,82.142857,50.142857)" />
    <linearGradient
       id="linearGradient3198">
      <stop
         id="stop3200"
         style="stop-color:#ffffff;stop-opacity:0"
         offset="0" />
      <stop
         id="stop3202"
         style="stop-color:#ffffff;stop-opacity:0"
         offset="0.30000001" />
      <stop
         id="stop3204"
         style="stop-color:#ffffff;stop-opacity:0.61240309"
         offset="0.5" />
      <stop
         id="stop3206"
         style="stop-color:#ffffff;stop-opacity:0"
         offset="0.75264549" />
      <stop
         id="stop3208"
         style="stop-color:#ffffff;stop-opacity:0"
         offset="1" />
    </linearGradient>
    <linearGradient
       x1="13.321428"
       y1="48"
       x2="48"
       y2="84.285713"
       id="linearGradient4785"
       xlink:href="#linearGradient3672"
       gradientUnits="userSpaceOnUse"
       gradientTransform="matrix(0.35714285,0,0,-0.35714285,47.857143,50.142857)" />
    <linearGradient
       id="linearGradient3211">
      <stop
         id="stop3213"
         style="stop-color:#ffffff;stop-opacity:0"
         offset="0" />
      <stop
         id="stop3215"
         style="stop-color:#ffffff;stop-opacity:0"
         offset="0.30000001" />
      <stop
         id="stop3217"
         style="stop-color:#ffffff;stop-opacity:0.61240309"
         offset="0.5" />
      <stop
         id="stop3219"
         style="stop-color:#ffffff;stop-opacity:0"
         offset="0.75264549" />
      <stop
         id="stop3221"
         style="stop-color:#ffffff;stop-opacity:0"
         offset="1" />
    </linearGradient>
    <linearGradient
       x1="6"
       y1="48"
       x2="48"
       y2="81.071426"
       id="linearGradient4787"
       xlink:href="#linearGradient3650-2"
       gradientUnits="userSpaceOnUse"
       gradientTransform="matrix(0.35714285,0,0,0.35714285,47.857143,15.857143)" />
    <linearGradient
       id="linearGradient3224">
      <stop
         id="stop3226"
         style="stop-color:#000000;stop-opacity:0"
         offset="0" />
      <stop
         id="stop3228"
         style="stop-color:#000000;stop-opacity:0"
         offset="0.30000001" />
      <stop
         id="stop3230"
         style="stop-color:#000000;stop-opacity:0.11764706"
         offset="0.5" />
      <stop
         id="stop3232"
         style="stop-color:#000000;stop-opacity:0"
         offset="0.69999999" />
      <stop
         id="stop3234"
         style="stop-color:#000000;stop-opacity:0"
         offset="1" />
    </linearGradient>
    <linearGradient
       x1="6"
       y1="48"
       x2="48"
       y2="81.071426"
       id="linearGradient4789"
       xlink:href="#linearGradient3650-2"
       gradientUnits="userSpaceOnUse"
       gradientTransform="matrix(-0.35714285,0,0,0.35714285,82.142857,15.857143)" />
    <linearGradient
       id="linearGradient3237">
      <stop
         id="stop3239"
         style="stop-color:#000000;stop-opacity:0"
         offset="0" />
      <stop
         id="stop3241"
         style="stop-color:#000000;stop-opacity:0"
         offset="0.30000001" />
      <stop
         id="stop3243"
         style="stop-color:#000000;stop-opacity:0.11764706"
         offset="0.5" />
      <stop
         id="stop3245"
         style="stop-color:#000000;stop-opacity:0"
         offset="0.69999999" />
      <stop
         id="stop3247"
         style="stop-color:#000000;stop-opacity:0"
         offset="1" />
    </linearGradient>
    <linearGradient
       x1="16"
       y1="46"
       x2="80"
       y2="46"
       id="linearGradient4791"
       xlink:href="#linearGradient3622"
       gradientUnits="userSpaceOnUse"
       gradientTransform="matrix(0.36458332,0,0,0.36458332,16.166668,-81.104165)" />
    <linearGradient
       id="linearGradient3250">
      <stop
         id="stop3252"
         style="stop-color:#d6d6d6;stop-opacity:1"
         offset="0" />
      <stop
         id="stop3254"
         style="stop-color:#eaeaea;stop-opacity:1"
         offset="1" />
    </linearGradient>
    <linearGradient
       x1="22"
       y1="33"
       x2="44"
       y2="33"
       id="linearGradient4793"
       xlink:href="#linearGradient3737-4"
       gradientUnits="userSpaceOnUse"
       gradientTransform="matrix(0,-1,1,0,32,66)" />
    <linearGradient
       id="linearGradient3257">
      <stop
         id="stop3259"
         style="stop-color:#ffffff;stop-opacity:1"
         offset="0" />
      <stop
         id="stop3261"
         style="stop-color:#ffffff;stop-opacity:0"
         offset="1" />
    </linearGradient>
    <linearGradient
       x1="63.535717"
       y1="90"
       x2="32.07143"
       y2="6"
       id="linearGradient4815"
       xlink:href="#linearGradient3825"
       gradientUnits="userSpaceOnUse"
       gradientTransform="matrix(0.35714285,0,0,0.35714285,15.857143,47.857143)" />
    <linearGradient
       id="linearGradient3264">
      <stop
         id="stop3266"
         style="stop-color:#b3b3b3;stop-opacity:1"
         offset="0" />
      <stop
         id="stop3268"
         style="stop-color:#d2d2d2;stop-opacity:1"
         offset="1" />
    </linearGradient>
    <linearGradient
       x1="13.321428"
       y1="48"
       x2="48"
       y2="84.285713"
       id="linearGradient4817"
       xlink:href="#linearGradient3672"
       gradientUnits="userSpaceOnUse"
       gradientTransform="matrix(-0.35714285,0,0,-0.35714285,72.142857,82.142857)" />
    <linearGradient
       id="linearGradient3271">
      <stop
         id="stop3273"
         style="stop-color:#ffffff;stop-opacity:0"
         offset="0" />
      <stop
         id="stop3275"
         style="stop-color:#ffffff;stop-opacity:0"
         offset="0.30000001" />
      <stop
         id="stop3277"
         style="stop-color:#ffffff;stop-opacity:0.61240309"
         offset="0.5" />
      <stop
         id="stop3279"
         style="stop-color:#ffffff;stop-opacity:0"
         offset="0.75264549" />
      <stop
         id="stop3281"
         style="stop-color:#ffffff;stop-opacity:0"
         offset="1" />
    </linearGradient>
    <linearGradient
       x1="13.321428"
       y1="48"
       x2="48"
       y2="84.285713"
       id="linearGradient4819"
       xlink:href="#linearGradient3672"
       gradientUnits="userSpaceOnUse"
       gradientTransform="matrix(0.35714285,0,0,-0.35714285,15.857143,82.142857)" />
    <linearGradient
       id="linearGradient3284">
      <stop
         id="stop3286"
         style="stop-color:#ffffff;stop-opacity:0"
         offset="0" />
      <stop
         id="stop3288"
         style="stop-color:#ffffff;stop-opacity:0"
         offset="0.30000001" />
      <stop
         id="stop3290"
         style="stop-color:#ffffff;stop-opacity:0.61240309"
         offset="0.5" />
      <stop
         id="stop3292"
         style="stop-color:#ffffff;stop-opacity:0"
         offset="0.75264549" />
      <stop
         id="stop3294"
         style="stop-color:#ffffff;stop-opacity:0"
         offset="1" />
    </linearGradient>
    <linearGradient
       x1="6"
       y1="48"
       x2="48"
       y2="81.071426"
       id="linearGradient4821"
       xlink:href="#linearGradient3650-2"
       gradientUnits="userSpaceOnUse"
       gradientTransform="matrix(0.35714285,0,0,0.35714285,15.857143,47.857143)" />
    <linearGradient
       id="linearGradient3297">
      <stop
         id="stop3299"
         style="stop-color:#000000;stop-opacity:0"
         offset="0" />
      <stop
         id="stop3301"
         style="stop-color:#000000;stop-opacity:0"
         offset="0.30000001" />
      <stop
         id="stop3303"
         style="stop-color:#000000;stop-opacity:0.11764706"
         offset="0.5" />
      <stop
         id="stop3305"
         style="stop-color:#000000;stop-opacity:0"
         offset="0.69999999" />
      <stop
         id="stop3307"
         style="stop-color:#000000;stop-opacity:0"
         offset="1" />
    </linearGradient>
    <linearGradient
       x1="6"
       y1="48"
       x2="48"
       y2="81.071426"
       id="linearGradient4823"
       xlink:href="#linearGradient3650-2"
       gradientUnits="userSpaceOnUse"
       gradientTransform="matrix(-0.35714285,0,0,0.35714285,72.142857,47.857143)" />
    <linearGradient
       id="linearGradient3310">
      <stop
         id="stop3312"
         style="stop-color:#000000;stop-opacity:0"
         offset="0" />
      <stop
         id="stop3314"
         style="stop-color:#000000;stop-opacity:0"
         offset="0.30000001" />
      <stop
         id="stop3316"
         style="stop-color:#000000;stop-opacity:0.11764706"
         offset="0.5" />
      <stop
         id="stop3318"
         style="stop-color:#000000;stop-opacity:0"
         offset="0.69999999" />
      <stop
         id="stop3320"
         style="stop-color:#000000;stop-opacity:0"
         offset="1" />
    </linearGradient>
    <linearGradient
       x1="16"
       y1="46"
       x2="80"
       y2="46"
       id="linearGradient4825"
       xlink:href="#linearGradient3622"
       gradientUnits="userSpaceOnUse"
       gradientTransform="matrix(0.36458332,0,0,0.36458332,48.166668,-49.104165)" />
    <linearGradient
       id="linearGradient3323">
      <stop
         id="stop3325"
         style="stop-color:#d6d6d6;stop-opacity:1"
         offset="0" />
      <stop
         id="stop3327"
         style="stop-color:#eaeaea;stop-opacity:1"
         offset="1" />
    </linearGradient>
    <linearGradient
       x1="22"
       y1="33"
       x2="44"
       y2="33"
       id="linearGradient4827"
       xlink:href="#linearGradient3737-4"
       gradientUnits="userSpaceOnUse"
       gradientTransform="matrix(0,-1,1,0,0,98)" />
    <linearGradient
       id="linearGradient3330">
      <stop
         id="stop3332"
         style="stop-color:#ffffff;stop-opacity:1"
         offset="0" />
      <stop
         id="stop3334"
         style="stop-color:#ffffff;stop-opacity:0"
         offset="1" />
    </linearGradient>
    <clipPath
       clipPathUnits="userSpaceOnUse"
       id="clipPath3009">
      <path
         id="path3011"
         d="m -2,956.36218 -96,0 0,33.5624 96,25.68742 0,-59.24982 z"
         style="opacity:0.15;fill:#ffffff;fill-opacity:1;stroke:none"
         inkscape:connector-curvature="0" />
    </clipPath>
  </defs>
  <sodipodi:namedview
     id="base"
     pagecolor="#ffffff"
     bordercolor="#666666"
     borderopacity="1.0"
     inkscape:pageopacity="0.0"
     inkscape:pageshadow="2"
     inkscape:zoom="3.959798"
     inkscape:cx="81.699819"
     inkscape:cy="54.463029"
     inkscape:document-units="px"
     inkscape:current-layer="layer1"
     showgrid="false"
     inkscape:window-width="1280"
     inkscape:window-height="750"
     inkscape:window-x="0"
     inkscape:window-y="22"
     inkscape:window-maximized="1"
     showguides="true"
     inkscape:guide-bbox="true">
    <sodipodi:guide
       orientation="0,1"
       position="-24.748737,0"
       id="guide11064" />
    <sodipodi:guide
       orientation="0,1"
       position="-23.233509,96"
       id="guide11066" />
    <sodipodi:guide
       orientation="1,0"
       position="0,54.800776"
       id="guide11068" />
    <sodipodi:guide
       orientation="1,0"
       position="96,51.012704"
       id="guide11070" />
    <sodipodi:guide
       orientation="0,1"
       position="-18.94036,48"
       id="guide11072" />
    <sodipodi:guide
       orientation="1,0"
       position="48,79.296975"
       id="guide11074" />
    <sodipodi:guide
       orientation="1,0"
       position="2,75.508903"
       id="guide11076" />
    <sodipodi:guide
       orientation="0,1"
       position="-77.27667,2"
       id="guide11078" />
    <sodipodi:guide
       orientation="1,0"
       position="94,77.781746"
       id="guide11080" />
    <sodipodi:guide
       orientation="0,1"
       position="-65.912454,94"
       id="guide11082" />
  </sodipodi:namedview>
  <metadata
     id="metadata11042">
    <rdf:RDF>
      <cc:Work
         rdf:about="">
        <dc:format>image/svg+xml</dc:format>
        <dc:type
           rdf:resource="http://purl.org/dc/dcmitype/StillImage" />
        <dc:title />
      </cc:Work>
    </rdf:RDF>
  </metadata>
  <g
     inkscape:label="Layer 1"
     inkscape:groupmode="layer"
     id="layer1"
     transform="translate(0,-956.36218)">
    <rect
       x="2"
       y="958.36218"
       width="92"
       height="92"
       style="fill:url(#linearGradient11642);fill-opacity:1.0"
       id="rect3867"
       rx="25"
       ry="25" />
    <g
       transform="translate(0,956.36218)"
       id="layer3"
       style="display:inline">
      <path
         d="m 19,16 c -1.662,0 -3,1.338 -3,3 l 0,25 0,3 0,32 c 0,1.662 1.338,3 3,3 l 50,0 c 1.662,0 3,-1.338 3,-3 l 0,-29 7,0 c 1.662,0 3,-1.338 3,-3 l 0,-28 c 0,-1.662 -1.338,-3 -3,-3 l -60,0 z"
         inkscape:connector-curvature="0"
         id="rect4831"
         style="opacity:0.7;color:#000000;fill:#000000;fill-opacity:1;fill-rule:nonzero;stroke:none;stroke-width:1;marker:none;visibility:visible;display:inline;overflow:visible;enable-background:accumulate" />
      <rect
         width="30"
         height="30"
         rx="2.1428571"
         ry="2.1428571"
         x="18"
         y="18"
         id="rect2419-0"
         style="fill:url(#linearGradient3869);fill-opacity:1;fill-rule:nonzero;stroke:none" />
      <path
         d="M 48,33 48,20.142858 C 48,18.955715 47.044285,18 45.857143,18 L 33,18 l 0,15 15,0 z"
         inkscape:connector-curvature="0"
         id="path3684"
         style="fill:url(#linearGradient3866);fill-opacity:1;fill-rule:nonzero;stroke:none" />
      <path
         d="M 18,33 18,20.142858 C 18,18.955715 18.955715,18 20.142858,18 L 33,18 33,33 18,33 z"
         inkscape:connector-curvature="0"
         id="path3668"
         style="fill:url(#linearGradient3863);fill-opacity:1;fill-rule:nonzero;stroke:none" />
      <path
         d="m 18,33 0,12.857143 C 18,47.044285 18.955715,48 20.142858,48 L 33,48 33,33 18,33 z"
         inkscape:connector-curvature="0"
         id="rect3643"
         style="fill:url(#linearGradient3858);fill-opacity:1;fill-rule:nonzero;stroke:none" />
      <path
         d="m 48,33 0,12.857143 C 48,47.044285 47.044285,48 45.857143,48 L 33,48 33,33 48,33 z"
         inkscape:connector-curvature="0"
         id="path3664"
         style="fill:url(#linearGradient3855);fill-opacity:1;fill-rule:nonzero;stroke:none" />
      <rect
         width="22"
         height="22"
         rx="2.1210001"
         ry="2.121212"
         x="22"
         y="-44"
         transform="matrix(0,1,-1,0,0,0)"
         id="rect3877"
         style="fill:url(#linearGradient3852);fill-opacity:1;fill-rule:nonzero;stroke:none" />
      <g
         transform="matrix(1.6666667,0,0,1.6666667,-8.666667,-15.333333)"
         id="text4232"
         style="font-size:10px;font-style:normal;font-variant:normal;font-weight:normal;font-stretch:normal;text-align:center;line-height:125%;writing-mode:lr-tb;text-anchor:middle;fill:#333333;fill-opacity:1;stroke:none;font-family:Liberation Sans;-inkscape-font-specification:Liberation Sans">
        <path
           d="m 27.363281,32.439941 -0.786133,-2.011718 -3.134765,0 -0.791016,2.011718 -0.966797,0 2.807617,-6.879882 1.059571,0 2.763672,6.879882 -0.952149,0 m -1.948242,-5.009765 c -0.05209,-0.130203 -0.102543,-0.262039 -0.151367,-0.395508 -0.04558,-0.133458 -0.08627,-0.253901 -0.12207,-0.361328 -0.03581,-0.110671 -0.06674,-0.201817 -0.09277,-0.273438 -0.02279,-0.07486 -0.03581,-0.120436 -0.03906,-0.136718 -0.0065,0.01628 -0.02116,0.06186 -0.04395,0.136718 -0.02279,0.07488 -0.05371,0.167649 -0.09277,0.278321 -0.03581,0.110682 -0.07813,0.232753 -0.126953,0.366211 -0.04558,0.133468 -0.09278,0.265304 -0.141602,0.395507 l -0.878906,2.260743 2.573242,0 -0.883789,-2.270508"
           inkscape:connector-curvature="0"
           id="path4316" />
      </g>
      <path
         d="M 22,41.875 C 22,43.050151 22.949966,44 24.125,44 l 17.75,0 C 43.050034,44 44,43.050151 44,41.875 l 0,-17.75 C 44,22.949849 43.050034,22 41.875,22 l -17.75,0 C 22.949966,22 22,22.949849 22,24.125 l 0,17.75 z m 2.03125,0.09375 c -0.01281,-0.0128 0,-0.05119 0,-0.09375 l 0,-17.75 c 0,-0.08512 0.0087,-0.09375 0.09375,-0.09375 l 17.75,0 c 0.08503,0 0.09375,0.0086 0.09375,0.09375 l 0,17.75 c 0,0.08512 -0.0087,0.09375 -0.09375,0.09375 l -17.75,0 c -0.04251,0 -0.08094,0.0128 -0.09375,0 z"
         inkscape:connector-curvature="0"
         id="rect3938"
         style="opacity:0.8;fill:url(#linearGradient4723);fill-opacity:1;fill-rule:nonzero;stroke:none" />
      <path
         d="M 20.15625,17 C 18.429795,17 17,18.429795 17,20.15625 l 0,25.6875 C 17,47.570205 18.429795,49 20.15625,49 l 25.6875,0 C 47.570205,49 49,47.570205 49,45.84375 l 0,-25.6875 C 49,18.429795 47.570205,17 45.84375,17 l -25.6875,0 z m 0,1 25.6875,0 C 47.030893,18 48,18.969107 48,20.15625 l 0,25.6875 C 48,47.030893 47.030893,48 45.84375,48 l -25.6875,0 C 18.969107,48 18,47.030893 18,45.84375 l 0,-25.6875 C 18,18.969107 18.969107,18 20.15625,18 z"
         inkscape:connector-curvature="0"
         id="path4758"
         style="opacity:0.2;fill:#ffffff;fill-opacity:1;fill-rule:nonzero;stroke:none" />
      <rect
         width="30"
         height="30"
         rx="2.1428571"
         ry="2.1428571"
         x="50"
         y="18"
         id="rect4761"
         style="fill:url(#linearGradient4781);fill-opacity:1;fill-rule:nonzero;stroke:none" />
      <path
         d="M 80,33 80,20.142858 C 80,18.955715 79.044285,18 77.857143,18 L 65,18 l 0,15 15,0 z"
         inkscape:connector-curvature="0"
         id="path4763"
         style="fill:url(#linearGradient4783);fill-opacity:1;fill-rule:nonzero;stroke:none" />
      <path
         d="M 50,33 50,20.142858 C 50,18.955715 50.955715,18 52.142858,18 L 65,18 65,33 50,33 z"
         inkscape:connector-curvature="0"
         id="path4765"
         style="fill:url(#linearGradient4785);fill-opacity:1;fill-rule:nonzero;stroke:none" />
      <path
         d="m 50,33 0,12.857143 C 50,47.044285 50.955715,48 52.142858,48 L 65,48 65,33 50,33 z"
         inkscape:connector-curvature="0"
         id="path4767"
         style="fill:url(#linearGradient4787);fill-opacity:1;fill-rule:nonzero;stroke:none" />
      <path
         d="m 80,33 0,12.857143 C 80,47.044285 79.044285,48 77.857143,48 L 65,48 65,33 80,33 z"
         inkscape:connector-curvature="0"
         id="path4769"
         style="fill:url(#linearGradient4789);fill-opacity:1;fill-rule:nonzero;stroke:none" />
      <rect
         width="22"
         height="22"
         rx="2.1210001"
         ry="2.121212"
         x="22"
         y="-76"
         transform="matrix(0,1,-1,0,0,0)"
         id="rect4771"
         style="fill:url(#linearGradient4791);fill-opacity:1;fill-rule:nonzero;stroke:none" />
      <path
         d="M 54,41.875 C 54,43.050151 54.949966,44 56.125,44 l 17.75,0 C 75.050034,44 76,43.050151 76,41.875 l 0,-17.75 C 76,22.949849 75.050034,22 73.875,22 l -17.75,0 C 54.949966,22 54,22.949849 54,24.125 l 0,17.75 z m 2.03125,0.09375 c -0.01281,-0.0128 0,-0.05119 0,-0.09375 l 0,-17.75 c 0,-0.08512 0.0087,-0.09375 0.09375,-0.09375 l 17.75,0 c 0.08503,0 0.09375,0.0086 0.09375,0.09375 l 0,17.75 c 0,0.08512 -0.0087,0.09375 -0.09375,0.09375 l -17.75,0 c -0.04251,0 -0.08094,0.0128 -0.09375,0 z"
         inkscape:connector-curvature="0"
         id="path4777"
         style="opacity:0.8;fill:url(#linearGradient4793);fill-opacity:1;fill-rule:nonzero;stroke:none" />
      <path
         d="M 52.15625,17 C 50.429795,17 49,18.429795 49,20.15625 l 0,25.6875 C 49,47.570205 50.429795,49 52.15625,49 l 25.6875,0 C 79.570205,49 81,47.570205 81,45.84375 l 0,-25.6875 C 81,18.429795 79.570205,17 77.84375,17 l -25.6875,0 z m 0,1 25.6875,0 C 79.030893,18 80,18.969107 80,20.15625 l 0,25.6875 C 80,47.030893 79.030893,48 77.84375,48 l -25.6875,0 C 50.969107,48 50,47.030893 50,45.84375 l 0,-25.6875 C 50,18.969107 50.969107,18 52.15625,18 z"
         inkscape:connector-curvature="0"
         id="path4779"
         style="opacity:0.2;fill:#ff0000;fill-opacity:1;fill-rule:nonzero;stroke:none" />
      <path
         d="m 20.142857,50 47.714286,0 C 69.044286,50 70,50.955714 70,52.142857 l 0,25.714286 C 70,79.044286 69.044286,80 67.857143,80 L 20.142857,80 C 18.955714,80 18,79.044286 18,77.857143 L 18,52.142857 C 18,50.955714 18.955714,50 20.142857,50 z"
         inkscape:connector-curvature="0"
         id="rect4795"
         style="fill:url(#linearGradient4815);fill-opacity:1;fill-rule:nonzero;stroke:none" />
      <path
         d="M 70,65 70,52.142858 C 70,50.955715 69.044285,50 67.857143,50 L 55,50 l 0,15 15,0 z"
         inkscape:connector-curvature="0"
         id="path4797"
         style="fill:url(#linearGradient4817);fill-opacity:1;fill-rule:nonzero;stroke:none" />
      <path
         d="M 18,65 18,52.142858 C 18,50.955715 18.955715,50 20.142858,50 L 33,50 33,65 18,65 z"
         inkscape:connector-curvature="0"
         id="path4799"
         style="fill:url(#linearGradient4819);fill-opacity:1;fill-rule:nonzero;stroke:none" />
      <path
         d="m 18,65 0,12.857143 C 18,79.044285 18.955715,80 20.142858,80 L 33,80 33,65 18,65 z"
         inkscape:connector-curvature="0"
         id="path4801"
         style="fill:url(#linearGradient4821);fill-opacity:1;fill-rule:nonzero;stroke:none" />
      <path
         d="m 70,65 0,12.857143 C 70,79.044285 69.044285,80 67.857143,80 L 55,80 55,65 70,65 z"
         inkscape:connector-curvature="0"
         id="path4803"
         style="fill:url(#linearGradient4823);fill-opacity:1;fill-rule:nonzero;stroke:none" />
      <path
         d="m 56.121,-66 17.758,0 c 1.175034,0 2.121,0.946061 2.121,2.121212 l 0,39.757576 C 76,-22.946061 75.054034,-22 73.879,-22 l -17.758,0 C 54.945966,-22 54,-22.946061 54,-24.121212 l 0,-39.757576 C 54,-65.053939 54.945966,-66 56.121,-66 z"
         inkscape:connector-curvature="0"
         transform="matrix(0,1,-1,0,0,0)"
         id="rect4805"
         style="fill:url(#linearGradient4825);fill-opacity:1;fill-rule:nonzero;stroke:none" />
      <path
         d="M 22,73.875 C 22,75.050151 22.949966,76 24.125,76 l 39.75,0 C 65.050034,76 66,75.050151 66,73.875 l 0,-17.75 C 66,54.949849 65.050034,54 63.875,54 l -39.75,0 C 22.949966,54 22,54.949849 22,56.125 l 0,17.75 z m 2.03125,0.09375 c -0.01281,-0.0128 0,-0.05119 0,-0.09375 l 0,-17.75 c 0,-0.08512 0.0087,-0.09375 0.09375,-0.09375 l 39.75,0 c 0.08503,0 0.09375,0.0086 0.09375,0.09375 l 0,17.75 c 0,0.08512 -0.0087,0.09375 -0.09375,0.09375 l -39.75,0 c -0.04251,0 -0.08094,0.0128 -0.09375,0 z"
         inkscape:connector-curvature="0"
         id="path4811"
         style="opacity:0.8;fill:url(#linearGradient4827);fill-opacity:1;fill-rule:nonzero;stroke:none" />
      <path
         d="M 20.15625,49 C 18.429795,49 17,50.429795 17,52.15625 l 0,25.6875 C 17,79.570205 18.429795,81 20.15625,81 l 47.6875,0 C 69.570205,81 71,79.570205 71,77.84375 l 0,-25.6875 C 71,50.429795 69.570205,49 67.84375,49 l -47.6875,0 z m 0,1 47.6875,0 C 69.030893,50 70,50.969107 70,52.15625 l 0,25.6875 C 70,79.030893 69.030893,80 67.84375,80 l -47.6875,0 C 18.969107,80 18,79.030893 18,77.84375 l 0,-25.6875 C 18,50.969107 18.969107,50 20.15625,50 z"
         inkscape:connector-curvature="0"
         id="path4813"
         style="opacity:0.2;fill:#ff0000;fill-opacity:1;fill-rule:nonzero;stroke:none" />
      <g
         transform="matrix(1.6657262,0,0,1.6657262,-9.9658127,-15.30606)"
         id="text4254"
         style="font-size:10px;font-style:normal;font-variant:normal;font-weight:normal;font-stretch:normal;text-align:center;line-height:125%;writing-mode:lr-tb;text-anchor:middle;fill:#333333;fill-opacity:1;stroke:none;font-family:Liberation Sans;-inkscape-font-specification:Liberation Sans">
        <path
           d="m 47.744141,32.439941 -5.478516,0 0,-0.698242 4.189453,-5.419922 -3.833008,0 0,-0.761718 4.892578,0 0,0.678711 -4.189453,5.439453 4.418946,0 0,0.761718"
           inkscape:connector-curvature="0"
           id="path4313" />
      </g>
      <g
         transform="matrix(1.5605106,0,0,1.5605106,-9.3758286,-42.675231)"
         id="text4236"
         style="font-size:10px;font-style:normal;font-variant:normal;font-weight:normal;font-stretch:normal;text-align:start;line-height:125%;writing-mode:lr-tb;text-anchor:start;fill:#333333;fill-opacity:1;stroke:none;font-family:Liberation Sans;-inkscape-font-specification:Liberation Sans">
        <path
           d="m 27.166992,66.353516 c -0.390628,6e-6 -0.737308,0.06511 -1.040039,0.195312 -0.299482,0.130214 -0.55176,0.315761 -0.756836,0.556641 -0.201825,0.24089 -0.354819,0.530604 -0.458984,0.86914 -0.104168,0.338546 -0.156252,0.714522 -0.15625,1.12793 -2e-6,0.413415 0.05534,0.792646 0.166015,1.137695 0.113931,0.341799 0.275064,0.636395 0.483399,0.883789 0.211586,0.247397 0.468747,0.439455 0.771484,0.576172 0.305987,0.13672 0.649411,0.205079 1.030274,0.205078 0.266923,1e-6 0.509435,-0.03418 0.727539,-0.102539 0.221349,-0.07161 0.419917,-0.170897 0.595703,-0.297851 0.179031,-0.126952 0.338536,-0.276692 0.478515,-0.449219 0.139969,-0.175779 0.263666,-0.369464 0.371094,-0.581055 l 0.761719,0.38086 c -0.123705,0.257163 -0.276699,0.49642 -0.458984,0.717773 -0.182298,0.221355 -0.397142,0.413412 -0.644532,0.576172 -0.244146,0.162761 -0.522466,0.291341 -0.834961,0.385742 -0.309249,0.09115 -0.655928,0.136719 -1.040039,0.136719 -0.556644,0 -1.044924,-0.08789 -1.464843,-0.263672 -0.416669,-0.179036 -0.766604,-0.426432 -1.049805,-0.742187 -0.279949,-0.31901 -0.48991,-0.696613 -0.629883,-1.132813 -0.139974,-0.436195 -0.209961,-0.913083 -0.209961,-1.430664 0,-0.537105 0.07324,-1.022131 0.219727,-1.455078 0.149738,-0.432937 0.36621,-0.800776 0.649414,-1.103516 0.286456,-0.305983 0.638019,-0.540358 1.054687,-0.703125 0.416664,-0.166008 0.891924,-0.249016 1.425782,-0.249023 0.732417,7e-6 1.344395,0.143236 1.835937,0.429687 0.49153,0.286465 0.852858,0.711269 1.083984,1.274414 l -0.883789,0.292969 c -0.06511,-0.162755 -0.153,-0.317377 -0.263672,-0.463867 -0.110682,-0.149734 -0.249028,-0.28157 -0.415039,-0.395508 -0.16602,-0.113926 -0.361333,-0.205072 -0.585937,-0.273437 -0.221359,-0.06835 -0.475265,-0.102533 -0.761719,-0.102539"
           inkscape:connector-curvature="0"
           id="path4292" />
        <path
           d="m 33.231445,72.535156 c -0.133466,0.03581 -0.270184,0.06348 -0.410156,0.08301 -0.136721,0.02279 -0.296226,0.03418 -0.478516,0.03418 -0.703126,0 -1.054688,-0.398763 -1.054687,-1.196289 l 0,-3.525391 -0.610352,0 0,-0.639648 0.644532,0 0.258789,-1.181641 0.585937,0 0,1.181641 0.976563,0 0,0.639648 -0.976563,0 0,3.334961 c -10e-7,0.253907 0.04069,0.432944 0.12207,0.537109 0.08463,0.100913 0.229491,0.151368 0.434571,0.151368 0.08463,0 0.166013,-0.0065 0.24414,-0.01953 0.08138,-0.01302 0.169269,-0.0293 0.263672,-0.04883 l 0,0.649414"
           inkscape:connector-curvature="0"
           id="path4294" />
        <path
           d="m 33.993164,72.574219 0,-4.052735 c -10e-7,-0.110673 -0.0016,-0.222977 -0.0049,-0.336914 0,-0.117183 -0.0016,-0.229487 -0.0049,-0.336914 -0.0033,-0.107417 -0.0065,-0.208328 -0.0098,-0.302734 -0.0033,-0.0944 -0.0065,-0.179031 -0.0098,-0.253906 l 0.830078,0 c 0.0033,0.07488 0.0065,0.161138 0.0098,0.258789 0.0065,0.09441 0.01139,0.192062 0.01465,0.292968 0.0065,0.100917 0.0098,0.198573 0.0098,0.292969 0.0033,0.09115 0.0049,0.169275 0.0049,0.234375 l 0.01953,0 c 0.06185,-0.201818 0.126952,-0.375972 0.195313,-0.522461 0.07161,-0.149734 0.15462,-0.271805 0.249023,-0.366211 0.0944,-0.09765 0.206704,-0.169265 0.336914,-0.214843 0.130206,-0.04882 0.288083,-0.07324 0.473633,-0.07324 0.07161,6e-6 0.139971,0.0065 0.205078,0.01953 0.0651,0.0098 0.115557,0.01954 0.151367,0.0293 l 0,0.805665 c -0.0586,-0.01627 -0.126956,-0.02766 -0.205078,-0.03418 -0.07813,-0.0098 -0.166018,-0.01464 -0.263672,-0.01465 -0.201825,5e-6 -0.374351,0.04558 -0.517578,0.136719 -0.139976,0.09115 -0.255536,0.218103 -0.34668,0.38086 -0.08789,0.159509 -0.152996,0.351566 -0.195312,0.576171 -0.04232,0.221358 -0.06348,0.463871 -0.06348,0.727539 l 0,2.753907 -0.878906,0"
           inkscape:connector-curvature="0"
           id="path4296" />
        <path
           d="m 37.313477,72.574219 0,-7.246094 0.878906,0 0,7.246094 -0.878906,0"
           inkscape:connector-curvature="0"
           id="path4298" />
      </g>
      <path
         d="m 82,47 c 0,1.662 -1.338,3 -3,3 l -7,0 0,1 7,0 c 1.662,0 3,-1.338 3,-3 l 0,-1 z m -66,32 0,1 c 0,1.662 1.338,3 3,3 l 50,0 c 1.662,0 3,-1.338 3,-3 l 0,-1 c 0,1.662 -1.338,3 -3,3 l -50,0 c -1.662,0 -3,-1.338 -3,-3 z"
         inkscape:connector-curvature="0"
         id="path4836"
         style="opacity:0.6;color:#000000;fill:#ffffff;fill-opacity:1;fill-rule:nonzero;stroke:none;stroke-width:1;marker:none;visibility:visible;display:inline;overflow:visible;enable-background:accumulate" />
      <path
         d="M 52.15625,18 C 50.96911,18 50,18.969107 50,20.15625 l 0,25.6875 C 50,47.030893 50.96911,48 52.15625,48 l 25.6875,0 C 79.03089,48 80,47.030893 80,45.84375 l 0,-25.6875 C 80,18.969107 79.03089,18 77.84375,18 l -25.6875,0 z m 0,1.96875 25.6875,0 c 0.10851,0 0.1875,0.07898 0.1875,0.1875 l 0,25.6875 c 0,0.108516 -0.079,0.1875 -0.1875,0.1875 l -25.6875,0 c -0.10851,0 -0.1875,-0.07898 -0.1875,-0.1875 l 0,-25.6875 c 0,-0.108516 0.079,-0.1875 0.1875,-0.1875 z"
         inkscape:connector-curvature="0"
         id="rect4885"
         style="opacity:0.3;fill:#ff0000;fill-opacity:1;fill-rule:nonzero;stroke:none" />
      <path
         d="M 52.15625,18 C 50.96911,18 50,18.969107 50,20.15625 l 0,25.6875 C 50,47.030893 50.96911,48 52.15625,48 l 25.6875,0 C 79.03089,48 80,47.030893 80,45.84375 l 0,-25.6875 C 80,18.969107 79.03089,18 77.84375,18 l -25.6875,0 z m 0,0.9375 25.6875,0 c 0.67346,0 1.21875,0.545288 1.21875,1.21875 l 0,25.6875 c 0,0.673462 -0.54529,1.21875 -1.21875,1.21875 l -25.6875,0 c -0.67346,0 -1.21875,-0.545288 -1.21875,-1.21875 l 0,-25.6875 c 0,-0.673462 0.54529,-1.21875 1.21875,-1.21875 z"
         inkscape:connector-curvature="0"
         id="rect4879"
         style="opacity:0.8;fill:#ff0000;fill-opacity:1;fill-rule:nonzero;stroke:none" />
      <path
         d="M 20.15625,50 C 18.96911,50 18,50.969107 18,52.15625 l 0,25.6875 C 18,79.030893 18.96911,80 20.15625,80 l 47.6875,0 C 69.03089,80 70,79.030893 70,77.84375 l 0,-25.6875 C 70,50.969107 69.03089,50 67.84375,50 l -47.6875,0 z m 0,1.96875 47.6875,0 c 0.10851,0 0.1875,0.07898 0.1875,0.1875 l 0,25.6875 c 0,0.108516 -0.079,0.1875 -0.1875,0.1875 l -47.6875,0 c -0.10851,0 -0.1875,-0.07898 -0.1875,-0.1875 l 0,-25.6875 c 0,-0.108516 0.079,-0.1875 0.1875,-0.1875 z"
         inkscape:connector-curvature="0"
         id="path4895"
         style="opacity:0.3;fill:#ff0000;fill-opacity:1;fill-rule:nonzero;stroke:none" />
      <path
         d="M 20.15625,50 C 18.96911,50 18,50.969107 18,52.15625 l 0,25.6875 C 18,79.030893 18.96911,80 20.15625,80 l 47.6875,0 C 69.03089,80 70,79.030893 70,77.84375 l 0,-25.6875 C 70,50.969107 69.03089,50 67.84375,50 l -47.6875,0 z m 0,0.9375 47.6875,0 c 0.67346,0 1.21875,0.545288 1.21875,1.21875 l 0,25.6875 c 0,0.673462 -0.54529,1.21875 -1.21875,1.21875 l -47.6875,0 c -0.67346,0 -1.21875,-0.545288 -1.21875,-1.21875 l 0,-25.6875 c 0,-0.673462 0.54529,-1.21875 1.21875,-1.21875 z"
         inkscape:connector-curvature="0"
         id="path4897"
         style="opacity:0.8;fill:#ff0000;fill-opacity:1;fill-rule:nonzero;stroke:none" />
    </g>
    <rect
       ry="25"
       rx="25"
       id="rect3003"
       style="opacity:0.15;fill:#ffffff;fill-opacity:1"
       height="92"
       width="92"
       y="958.36218"
       x="-96"
       clip-path="url(#clipPath3009)"
       transform="translate(98,3.8281269e-7)" />
  </g>
</svg>
