<?xml version="1.0" encoding="UTF-8" standalone="no"?>
<!-- Created with Inkscape (http://www.inkscape.org/) -->

<svg
   xmlns:dc="http://purl.org/dc/elements/1.1/"
   xmlns:cc="http://creativecommons.org/ns#"
   xmlns:rdf="http://www.w3.org/1999/02/22-rdf-syntax-ns#"
   xmlns:svg="http://www.w3.org/2000/svg"
   xmlns="http://www.w3.org/2000/svg"
   xmlns:xlink="http://www.w3.org/1999/xlink"
   xmlns:sodipodi="http://sodipodi.sourceforge.net/DTD/sodipodi-0.dtd"
   xmlns:inkscape="http://www.inkscape.org/namespaces/inkscape"
   width="96"
   height="96"
   id="svg11037"
   version="1.1"
   inkscape:version="0.48.3.1 r9886"
   sodipodi:docname="preferences-desktop-sound.svg">
  <defs
     id="defs11039">
    <linearGradient
       y2="1046.1001"
       x2="47.999954"
       y1="962.62189"
       x1="47.999954"
       gradientTransform="matrix(1.15,0,0,1.15,-7.1999462,-150.65291)"
       gradientUnits="userSpaceOnUse"
       id="linearGradient3886"
       xlink:href="#linearGradient3795"
       inkscape:collect="always" />
    <linearGradient
       id="linearGradient3795">
      <stop
         style="stop-color:#13a6fd;stop-opacity:1;"
         offset="0"
         id="stop3797" />
      <stop
         style="stop-color:#2975b6;stop-opacity:1;"
         offset="1"
         id="stop3799" />
    </linearGradient>
    <linearGradient
       y2="1046.1001"
       x2="47.999954"
       y1="962.62189"
       x1="47.999954"
       gradientTransform="matrix(1.15,0,0,1.15,-7.1999462,-150.65292)"
       gradientUnits="userSpaceOnUse"
       id="linearGradient11642"
       xlink:href="#linearGradient5801"
       inkscape:collect="always" />
    <linearGradient
       id="linearGradient5801"
       y2="902.35999"
       gradientUnits="userSpaceOnUse"
       x2="48"
       gradientTransform="translate(0,-7.8516e-6)"
       y1="1052.4"
       x1="48">
      <stop
         id="stop3189-7"
         style="stop-color:#505050"
         offset="0" />
      <stop
         id="stop3191-4"
         style="stop-color:#8c8c8c"
         offset="1" />
    </linearGradient>
    <linearGradient
       y2="902.35999"
       x2="48"
       y1="1052.4"
       x1="48"
       gradientTransform="translate(-92.446712,-24.981333)"
       gradientUnits="userSpaceOnUse"
       id="linearGradient3058"
       xlink:href="#linearGradient5801"
       inkscape:collect="always" />
    <radialGradient
       id="radialGradient8657"
       gradientUnits="userSpaceOnUse"
       cy="32.695"
       cx="71.417999"
       gradientTransform="matrix(-3.9129e-8,1.2194,-1.6956,-5.4408e-8,103.3,890.72)"
       r="34.449001">
      <stop
         id="stop3332-6"
         style="stop-color:#f0f0f0"
         offset="0" />
      <stop
         id="stop3338"
         style="stop-color:#b4b4b4"
         offset=".56385" />
      <stop
         id="stop3340"
         style="stop-color:#a0a0a0"
         offset=".64176" />
      <stop
         id="stop3334"
         style="stop-color:#787878"
         offset="1" />
    </radialGradient>
    <linearGradient
       id="linearGradient8659"
       y2="80.731003"
       gradientUnits="userSpaceOnUse"
       x2="74.862999"
       gradientTransform="matrix(0.79312,0,0,0.79312,-8.7775,951.88)"
       y1="30.972"
       x1="74.862999">
      <stop
         id="stop3324"
         style="stop-color:#6b6b6b"
         offset="0" />
      <stop
         id="stop3326-8"
         style="stop-color:#282828"
         offset="1" />
    </linearGradient>
    <linearGradient
       id="linearGradient8661"
       y2="48"
       gradientUnits="userSpaceOnUse"
       x2="48"
       gradientTransform="matrix(0.41623,0.72094,-0.72094,0.41623,62.491,949.18)"
       y1="48"
       x1="24">
      <stop
         id="stop3739-05"
         style="stop-color:#fff"
         offset="0" />
      <stop
         id="stop3741-11"
         style="stop-color:#fff;stop-opacity:0"
         offset="1" />
    </linearGradient>
    <radialGradient
       id="radialGradient8663"
       gradientUnits="userSpaceOnUse"
       cy="80.752998"
       cx="86.75"
       gradientTransform="matrix(0.43436,0,0,0.43436,16.843,975.35)"
       r="34.497002">
      <stop
         id="stop3830"
         style="stop-color:#eacc72"
         offset="0" />
      <stop
         id="stop3836-0"
         style="stop-color:#d49110"
         offset="1" />
    </radialGradient>
    <linearGradient
       id="linearGradient8665"
       y2="99.174004"
       gradientUnits="userSpaceOnUse"
       x2="59.140999"
       gradientTransform="matrix(0.17349,0,0,0.17349,35.475,992.41)"
       y1="31.833"
       x1="59.140999">
      <stop
         id="stop3546-8"
         style="stop-color:#040404"
         offset="0" />
      <stop
         id="stop3548-5"
         style="stop-color:#4b4b4b"
         offset="1" />
    </linearGradient>
    <linearGradient
       id="linearGradient8667"
       y2="92.192001"
       gradientUnits="userSpaceOnUse"
       x2="68.182999"
       gradientTransform="matrix(0.12297,0,0,0.07893,39.083,996.52)"
       y1="31.233"
       x1="67.288002">
      <stop
         id="stop3438-0"
         style="stop-color:#fff"
         offset="0" />
      <stop
         id="stop3440"
         style="stop-color:#fff;stop-opacity:0"
         offset="1" />
    </linearGradient>
    <linearGradient
       id="linearGradient8669"
       y2="48"
       gradientUnits="userSpaceOnUse"
       x2="63.516998"
       gradientTransform="matrix(0.40236,0.69691,-0.69691,0.40236,62.004,951)"
       y1="48"
       x1="32.483002">
      <stop
         id="stop3893-6"
         style="stop-color:#ac6b0e"
         offset="0" />
      <stop
         id="stop3895-2"
         style="stop-color:#bd750f;stop-opacity:0"
         offset="1" />
    </linearGradient>
    <linearGradient
       id="linearGradient8671"
       y2="48"
       gradientUnits="userSpaceOnUse"
       x2="63.652"
       gradientTransform="matrix(0.31911,0.55272,-0.55272,0.31911,59.079,961.92)"
       y1="48"
       x1="32.348">
      <stop
         id="stop3846-8"
         style="stop-color:#bd750f"
         offset="0" />
      <stop
         id="stop3848-6"
         style="stop-color:#bd750f;stop-opacity:0"
         offset="1" />
    </linearGradient>
    <clipPath
       clipPathUnits="userSpaceOnUse"
       id="clipPath3009">
      <path
         id="path3011"
         d="m -2,956.36218 -96,0 0,33.5624 96,25.68742 0,-59.24982 z"
         style="opacity:0.15;fill:#ffffff;fill-opacity:1;stroke:none"
         inkscape:connector-curvature="0" />
    </clipPath>
  </defs>
  <sodipodi:namedview
     id="base"
     pagecolor="#ffffff"
     bordercolor="#666666"
     borderopacity="1.0"
     inkscape:pageopacity="0.0"
     inkscape:pageshadow="2"
     inkscape:zoom="3.959798"
     inkscape:cx="33.538031"
     inkscape:cy="59.964634"
     inkscape:document-units="px"
     inkscape:current-layer="layer1"
     showgrid="false"
     inkscape:window-width="1280"
     inkscape:window-height="750"
     inkscape:window-x="0"
     inkscape:window-y="22"
     inkscape:window-maximized="1"
     showguides="true"
     inkscape:guide-bbox="true">
    <sodipodi:guide
       orientation="0,1"
       position="-24.748737,0"
       id="guide11064" />
    <sodipodi:guide
       orientation="0,1"
       position="-23.233509,96"
       id="guide11066" />
    <sodipodi:guide
       orientation="1,0"
       position="0,54.800776"
       id="guide11068" />
    <sodipodi:guide
       orientation="1,0"
       position="96,51.012704"
       id="guide11070" />
    <sodipodi:guide
       orientation="0,1"
       position="-18.94036,48"
       id="guide11072" />
    <sodipodi:guide
       orientation="1,0"
       position="48,79.296975"
       id="guide11074" />
    <sodipodi:guide
       orientation="1,0"
       position="2,75.508903"
       id="guide11076" />
    <sodipodi:guide
       orientation="0,1"
       position="-77.27667,2"
       id="guide11078" />
    <sodipodi:guide
       orientation="1,0"
       position="94,77.781746"
       id="guide11080" />
    <sodipodi:guide
       orientation="0,1"
       position="-65.912454,94"
       id="guide11082" />
  </sodipodi:namedview>
  <metadata
     id="metadata11042">
    <rdf:RDF>
      <cc:Work
         rdf:about="">
        <dc:format>image/svg+xml</dc:format>
        <dc:type
           rdf:resource="http://purl.org/dc/dcmitype/StillImage" />
        <dc:title />
      </cc:Work>
    </rdf:RDF>
  </metadata>
  <g
     inkscape:label="Layer 1"
     inkscape:groupmode="layer"
     id="layer1"
     transform="translate(0,-956.36218)">
    <rect
       x="2"
       y="958.36218"
       width="92"
       height="92"
       style="fill:url(#linearGradient11642);fill-opacity:1.0"
       id="rect3867"
       rx="25"
       ry="25" />
    <g
       id="g8640"
       transform="translate(0,0.60183)">
      <path
         inkscape:connector-curvature="0"
         id="path3320"
         style="fill:url(#radialGradient8657);fill-rule:evenodd;stroke:url(#linearGradient8659);stroke-width:0.83247;stroke-linejoin:round"
         d="m 47.865,977.12 c -14.712,0 -26.639,11.927 -26.639,26.639 0,14.712 11.927,26.639 26.639,26.639 14.712,0 26.639,-11.927 26.639,-26.639 0,-14.712 -11.927,-26.639 -26.639,-26.639 z m 0,6.6597 c 11.034,0 19.979,8.9449 19.979,19.979 0,11.0341 -8.9449,19.979 -19.979,19.979 -11.0341,0 -19.979,-8.9449 -19.979,-19.979 0,-11.0341 8.9449,-19.979 19.979,-19.979 z" />
      <path
         inkscape:connector-curvature="0"
         id="path3412"
         style="fill:#323232;fill-rule:evenodd"
         d="m 68.68,1003.8 a 20.812,20.812 0 1 1 -41.623,0 20.812,20.812 0 1 1 41.623,0 z" />
      <path
         inkscape:connector-curvature="0"
         id="path3947"
         style="opacity:0.6;fill:url(#linearGradient8661);fill-rule:evenodd"
         d="m 65.168,993.77 c -5.5176,-9.5559 -17.737,-12.83 -27.292,-7.3132 -9.5559,5.5176 -12.83,17.737 -7.3132,27.292 5.5176,9.5559 17.737,12.83 27.292,7.3132 9.5559,-5.5176 12.83,-17.736 7.3132,-27.292 z m -2.8838,1.6649 c 4.5969,7.9634 1.8689,18.146 -6.0945,22.744 -7.9634,4.5968 -18.146,1.8688 -22.744,-6.0945 -4.5969,-7.9634 -1.8689,-18.146 6.0945,-22.744 7.9634,-4.5969 18.146,-1.8689 22.744,6.0945 z" />
      <g
         id="g3933"
         transform="matrix(0.83247,0,0,0.83247,74.504,963.8)">
        <path
           inkscape:connector-curvature="0"
           id="path3914"
           style="opacity:0.15;fill-rule:evenodd"
           d="m -32,23 c -13.807,0 -25,11.193 -25,25 0,13.807 11.193,25 25,25 13.807,0 25,-11.193 25,-25 0,-13.807 -11.193,-25 -25,-25 z m 0,3 c 12.179,0 22,9.8214 22,22 0,12.1786 -9.8214,22 -22,22 -12.1786,0 -22,-9.8214 -22,-22 0,-12.1786 9.8214,-22 22,-22 z m 0,1 c -11.57,0 -21,9.4303 -21,21 0,11.5697 9.4303,21 21,21 11.5697,0 21,-9.4303 21,-21 0,-11.5697 -9.4303,-21 -21,-21 z m 0,3 c 9.9411,0 18,8.0589 18,18 0,9.9411 -8.0589,18 -18,18 -9.9411,0 -18,-8.0589 -18,-18 0,-9.9411 8.0589,-18 18,-18 z" />
        <path
           inkscape:connector-curvature="0"
           id="path3904"
           style="opacity:0.3;fill-rule:evenodd"
           d="m -32,23 c -13.807,0 -25,11.193 -25,25 0,13.807 11.193,25 25,25 13.807,0 25,-11.193 25,-25 0,-13.807 -11.193,-25 -25,-25 z m 0,1.9688 c 12.738,0 23.031,10.293 23.031,23.031 0,12.738 -10.293,23.031 -23.031,23.031 -12.738,0 -23.031,-10.293 -23.031,-23.031 0,-12.738 10.293,-23.031 23.031,-23.031 z m 0,3.0625 c -11.01,0 -19.969,8.9584 -19.969,19.969 0,11.01 8.9584,19.969 19.969,19.969 11.01,0 19.969,-8.9584 19.969,-19.969 0,-11.01 -8.9584,-19.969 -19.969,-19.969 z m 0,1.968 c 9.9411,0 18,8.0589 18,18 0,9.9411 -8.0589,18 -18,18 -9.9411,0 -18,-8.0589 -18,-18 0,-9.9411 8.0589,-18 18,-18 z" />
        <path
           inkscape:connector-curvature="0"
           id="path3918"
           style="opacity:0.5;fill-rule:evenodd"
           d="m -32,23 c -13.807,0 -25,11.193 -25,25 0,13.807 11.193,25 25,25 13.807,0 25,-11.193 25,-25 0,-13.807 -11.193,-25 -25,-25 z m 0,1 c 13.273,0 24,10.727 24,24 0,13.273 -10.727,24 -24,24 -13.273,0 -24,-10.727 -24,-24 0,-13.273 10.727,-24 24,-24 z m 0,5 c -10.476,0 -19,8.5243 -19,19 0,10.4757 8.5243,19 19,19 10.4757,0 19,-8.5243 19,-19 0,-10.4757 -8.5243,-19 -19,-19 z m 0,1 c 9.9411,0 18,8.0589 18,18 0,9.9411 -8.0589,18 -18,18 -9.9411,0 -18,-8.0589 -18,-18 0,-9.9411 8.0589,-18 18,-18 z" />
      </g>
      <path
         inkscape:connector-curvature="0"
         id="path3493"
         style="fill:url(#radialGradient8663);fill-rule:evenodd;stroke:#c2c2c2;stroke-width:1.66489995;stroke-linejoin:round"
         d="m 62.456,1003.8 a 14.589,14.589 0 1 1 -29.178,0 14.589,14.589 0 1 1 29.178,0 z" />
      <path
         inkscape:connector-curvature="0"
         id="path3540"
         style="fill:url(#linearGradient8665);fill-rule:evenodd"
         d="m 53.693,1003.8 a 5.8273,5.8273 0 1 1 -11.654,0 5.8273,5.8273 0 1 1 11.654,0 z" />
      <path
         inkscape:connector-curvature="0"
         id="path3552"
         style="opacity:0.8;fill:url(#linearGradient8667);fill-rule:evenodd"
         d="m 51.996,1001.7 a 4.1304,2.6511 0 1 1 -8.2606,0 4.1304,2.6511 0 1 1 8.2606,0 z" />
      <path
         inkscape:connector-curvature="0"
         id="path3819"
         style="opacity:0.3;fill:#ffffff;fill-rule:evenodd"
         d="m 26.221,1004.2 c -0.0026,0.1383 0,0.2773 0,0.4163 0,11.953 9.6908,21.644 21.644,21.644 11.9532,0 21.644,-9.6907 21.644,-21.644 0,-0.139 0.0026,-0.278 0,-0.4163 -0.22144,11.762 -9.8289,21.228 -21.644,21.228 -11.8151,0 -21.423,-9.4659 -21.644,-21.228 z" />
      <path
         inkscape:connector-curvature="0"
         id="path3840"
         style="color:#000000;fill:none;stroke:url(#linearGradient8669);stroke-width:0.83248001;stroke-linecap:round;stroke-dashoffset:8.6"
         d="M 53.901,1014.2 A 12.071,12.071 0 0 1 41.83,993.31 12.071,12.071 0 0 1 53.901,1014.2 z" />
      <path
         inkscape:connector-curvature="0"
         id="path3842"
         style="color:#000000;fill:none;stroke:url(#linearGradient8671);stroke-width:0.83243001;stroke-linecap:round;stroke-dashoffset:8.6"
         d="M 52.652,1012.1 A 9.5733,9.5733 0 1 1 43.0787,995.519 9.5733,9.5733 0 0 1 52.652,1012.1 z" />
      <path
         inkscape:connector-curvature="0"
         id="path3880"
         style="opacity:0.4;fill:#ffffff;fill-rule:evenodd"
         d="m 42.328,1007.4 c 0.06216,0.1251 0.11479,0.2508 0.18559,0.3735 1.839,3.1852 5.9121,4.2766 9.0972,2.4376 3.1853,-1.839 4.2766,-5.9121 2.4376,-9.0972 -0.0708,-0.1226 -0.15341,-0.2311 -0.23064,-0.3475 1.5525,3.124 0.43946,6.9557 -2.6232,8.7243 -3.0626,1.7682 -6.9375,0.8163 -8.8666,-2.0902 z" />
      <path
         inkscape:connector-curvature="0"
         id="path3889"
         style="opacity:0.4;fill:#aa4400;fill-rule:evenodd"
         d="m 53.402,1000.1 c -0.06244,-0.12572 -0.11488,-0.25143 -0.18564,-0.3738 -1.8389,-3.185 -5.9122,-4.2764 -9.0972,-2.4375 -3.1853,1.839 -4.2766,5.9121 -2.4376,9.0972 0.0708,0.1227 0.15341,0.2311 0.23064,0.3475 -1.5526,-3.1234 -0.43954,-6.9553 2.6231,-8.7234 3.0626,-1.7682 6.9375,-0.8163 8.8666,2.0901 z" />
    </g>
    <rect
       ry="25"
       rx="25"
       id="rect3003"
       style="opacity:0.15;fill:#ffffff;fill-opacity:1"
       height="92"
       width="92"
       y="958.36218"
       x="-96"
       clip-path="url(#clipPath3009)"
       transform="translate(98,3.8281269e-7)" />
  </g>
</svg>
