<?xml version="1.0" encoding="UTF-8" standalone="no"?>
<!-- Created with Inkscape (http://www.inkscape.org/) -->

<svg
   xmlns:dc="http://purl.org/dc/elements/1.1/"
   xmlns:cc="http://creativecommons.org/ns#"
   xmlns:rdf="http://www.w3.org/1999/02/22-rdf-syntax-ns#"
   xmlns:svg="http://www.w3.org/2000/svg"
   xmlns="http://www.w3.org/2000/svg"
   xmlns:xlink="http://www.w3.org/1999/xlink"
   xmlns:sodipodi="http://sodipodi.sourceforge.net/DTD/sodipodi-0.dtd"
   xmlns:inkscape="http://www.inkscape.org/namespaces/inkscape"
   width="96"
   height="96"
   id="svg11037"
   version="1.1"
   inkscape:version="0.48.3.1 r9886"
   sodipodi:docname="qtassistant.svg">
  <defs
     id="defs11039">
    <linearGradient
       y2="1046.1001"
       x2="47.999954"
       y1="962.62189"
       x1="47.999954"
       gradientTransform="matrix(1.15,0,0,1.15,-7.1999462,-150.65291)"
       gradientUnits="userSpaceOnUse"
       id="linearGradient3886"
       xlink:href="#linearGradient3795"
       inkscape:collect="always" />
    <linearGradient
       id="linearGradient3795">
      <stop
         style="stop-color:#13a6fd;stop-opacity:1;"
         offset="0"
         id="stop3797" />
      <stop
         style="stop-color:#2975b6;stop-opacity:1;"
         offset="1"
         id="stop3799" />
    </linearGradient>
    <linearGradient
       y2="1046.1001"
       x2="47.999954"
       y1="962.62189"
       x1="47.999954"
       gradientTransform="matrix(1.15,0,0,1.15,-7.1999462,-150.65292)"
       gradientUnits="userSpaceOnUse"
       id="linearGradient11642"
       xlink:href="#linearGradient3700"
       inkscape:collect="always" />
    <linearGradient
       x1="48"
       y1="90"
       x2="48"
       y2="5.9877172"
       id="linearGradient3617"
       xlink:href="#linearGradient3700"
       gradientUnits="userSpaceOnUse"
       gradientTransform="translate(-4.3145499,-20.997476)" />
    <linearGradient
       id="linearGradient3700">
      <stop
         id="stop3702"
         style="stop-color:#509528;stop-opacity:1"
         offset="0" />
      <stop
         id="stop3704"
         style="stop-color:#78cd46;stop-opacity:1"
         offset="1" />
    </linearGradient>
    <linearGradient
       y2="5.9877172"
       x2="48"
       y1="90"
       x1="48"
       gradientTransform="translate(29.276669,959.66293)"
       gradientUnits="userSpaceOnUse"
       id="linearGradient3054"
       xlink:href="#linearGradient3700"
       inkscape:collect="always" />
    <linearGradient
       x1="45.384357"
       y1="63.297825"
       x2="45.384357"
       y2="25.169353"
       id="linearGradient3827"
       xlink:href="#linearGradient3820-1"
       gradientUnits="userSpaceOnUse"
       gradientTransform="matrix(0.72917116,0,0,0.73000392,42.529498,39.974636)" />
    <linearGradient
       id="linearGradient3820-1">
      <stop
         id="stop3822-7"
         style="stop-color:#00a8e1;stop-opacity:1"
         offset="0" />
      <stop
         id="stop3824-8"
         style="stop-color:#5dceff;stop-opacity:1"
         offset="1" />
    </linearGradient>
    <linearGradient
       inkscape:collect="always"
       xlink:href="#linearGradient3820-1"
       id="linearGradient3826"
       gradientUnits="userSpaceOnUse"
       gradientTransform="matrix(0.72917116,0,0,0.73000392,42.529498,39.974636)"
       x1="45.384357"
       y1="63.297825"
       x2="45.384357"
       y2="25.169353" />
    <clipPath
       clipPathUnits="userSpaceOnUse"
       id="clipPath3009">
      <path
         id="path3011"
         d="m -2,956.36218 -96,0 0,33.5624 96,25.68742 0,-59.24982 z"
         style="opacity:0.15;fill:#ffffff;fill-opacity:1;stroke:none"
         inkscape:connector-curvature="0" />
    </clipPath>
  </defs>
  <sodipodi:namedview
     id="base"
     pagecolor="#ffffff"
     bordercolor="#666666"
     borderopacity="1.0"
     inkscape:pageopacity="0.0"
     inkscape:pageshadow="2"
     inkscape:zoom="3.959798"
     inkscape:cx="33.538031"
     inkscape:cy="59.964634"
     inkscape:document-units="px"
     inkscape:current-layer="layer1"
     showgrid="false"
     inkscape:window-width="1280"
     inkscape:window-height="750"
     inkscape:window-x="0"
     inkscape:window-y="22"
     inkscape:window-maximized="1"
     showguides="true"
     inkscape:guide-bbox="true">
    <sodipodi:guide
       orientation="0,1"
       position="-24.748737,0"
       id="guide11064" />
    <sodipodi:guide
       orientation="0,1"
       position="-23.233509,96"
       id="guide11066" />
    <sodipodi:guide
       orientation="1,0"
       position="0,54.800776"
       id="guide11068" />
    <sodipodi:guide
       orientation="1,0"
       position="96,51.012704"
       id="guide11070" />
    <sodipodi:guide
       orientation="0,1"
       position="-18.94036,48"
       id="guide11072" />
    <sodipodi:guide
       orientation="1,0"
       position="48,79.296975"
       id="guide11074" />
    <sodipodi:guide
       orientation="1,0"
       position="2,75.508903"
       id="guide11076" />
    <sodipodi:guide
       orientation="0,1"
       position="-77.27667,2"
       id="guide11078" />
    <sodipodi:guide
       orientation="1,0"
       position="94,77.781746"
       id="guide11080" />
    <sodipodi:guide
       orientation="0,1"
       position="-65.912454,94"
       id="guide11082" />
  </sodipodi:namedview>
  <metadata
     id="metadata11042">
    <rdf:RDF>
      <cc:Work
         rdf:about="">
        <dc:format>image/svg+xml</dc:format>
        <dc:type
           rdf:resource="http://purl.org/dc/dcmitype/StillImage" />
        <dc:title />
      </cc:Work>
    </rdf:RDF>
  </metadata>
  <g
     inkscape:label="Layer 1"
     inkscape:groupmode="layer"
     id="layer1"
     transform="translate(0,-956.36218)">
    <rect
       x="2"
       y="958.36218"
       width="92"
       height="92"
       style="fill:url(#linearGradient11642);fill-opacity:1.0"
       id="rect3867"
       rx="25"
       ry="25" />
    <g
       transform="translate(0,956.36218)"
       id="g3072">
      <path
         style="font-size:48px;font-style:normal;font-variant:normal;font-weight:normal;font-stretch:normal;text-align:start;line-height:125%;writing-mode:tb-rl;text-anchor:start;opacity:0.3;fill:#000000;fill-opacity:1;stroke:none;font-family:American Participants;-inkscape-font-specification:American Participants"
         id="path3689"
         inkscape:connector-curvature="0"
         d="m 84.685081,66.396369 c -1.9e-5,1.752026 -0.536687,3.258753 -1.610011,4.520185 -0.326684,0.420495 -1.306688,1.273139 -2.940017,2.557933 -1.073352,0.864335 -1.610021,1.670259 -1.610011,2.417773 l 0,1.226407 -6.475039,0 0,-1.997291 c -5e-6,-1.331516 0.513331,-2.569601 1.540009,-3.714259 0.02333,-0.04671 0.968333,-0.911032 2.835017,-2.592975 1.026664,-0.911028 1.539999,-1.751992 1.540011,-2.522894 -1.2e-5,-0.513904 -0.198346,-0.934384 -0.595004,-1.261447 -0.396679,-0.350381 -0.863349,-0.525582 -1.40001,-0.525602 -0.700011,2e-5 -1.225014,0.256983 -1.575009,0.770885 -0.350008,0.513941 -0.513343,1.132983 -0.490003,1.857129 l -6.265038,0 0,-0.560642 c 0,-2.312634 0.851669,-4.15808 2.555015,-5.53635 1.563339,-1.284783 3.523348,-1.927184 5.880036,-1.927211 2.333337,2.7e-5 4.316681,0.619069 5.950037,1.85713 1.773328,1.354911 2.659998,3.165317 2.660017,5.431229 m -5.740036,17.029532 c -1.1e-5,1.051206 -0.338346,1.903851 -1.015006,2.557933 -0.653348,0.677442 -1.505018,1.016163 -2.555016,1.016166 -1.050014,-3e-6 -1.913351,-0.338724 -2.590016,-1.016166 -0.653342,-0.654082 -0.98001,-1.506727 -0.980005,-2.557933 -5e-6,-1.051204 0.326663,-1.915527 0.980005,-2.592974 0.676665,-0.677438 1.540002,-1.016161 2.590016,-1.016166 1.049998,5e-6 1.901668,0.338728 2.555016,1.016166 0.67666,0.677447 1.014995,1.54177 1.015006,2.592974" />
      <path
         style="font-size:136.83798218px;font-style:normal;font-variant:normal;font-weight:bold;font-stretch:normal;text-align:start;line-height:125%;writing-mode:lr-tb;text-anchor:start;opacity:0.3;fill:#000000;fill-opacity:1;stroke:none;font-family:UnDotum;-inkscape-font-specification:UnDotum Bold"
         id="path3698"
         inkscape:connector-curvature="0"
         d="m 30.40625,15.0625 c -4.696152,4.2e-5 -8.490767,1.708521 -11.375,5.125 -3.290999,3.893275 -4.937502,9.169648 -4.9375,15.84375 -2e-6,4.965886 0.952168,9.282631 2.875,12.9375 2.921213,5.442598 7.41016,8.156247 13.4375,8.15625 1.302305,5.816011 4.894544,8.875255 13.34375,7.59375 l 0,-4.21875 c -3.933283,0.362517 -4.78719,-1.799293 -5.09375,-5.625 l 0,-0.25 c 1.183252,-0.754809 2.257307,-1.691665 3.21875,-2.84375 3.143052,-3.774052 4.718715,-9.03613 4.71875,-15.75 -3.5e-5,-5.005571 -1.00325,-9.31384 -3,-12.96875 -2.958227,-5.323374 -7.345082,-7.999958 -13.1875,-8 z m 31.65625,1.6875 -5.9375,0.15625 -1.96875,9.3125 -4.21875,0 0,6.96875 3.875,0 0,13.34375 c -5e-6,3.654886 0.521303,6.217605 1.53125,7.6875 1.271776,1.946621 3.972996,2.906247 8.125,2.90625 1.383983,-3e-6 3.098938,-0.188003 5.15625,-0.625 l 0,-6.625 c -1.421426,0.07946 -2.476816,0.125007 -3.1875,0.125 -1.159579,7e-6 -1.982496,-0.196474 -2.46875,-0.59375 C 62.37025,48.929534 62.062487,47.69663 62.0625,45.75 l 0,-12.5625 6.125,0 0,-6.96875 -6.125,0 0,-9.46875 z m -31.65625,6.125 c 4.585185,3.4e-5 6.874975,4.399393 6.875,13.21875 -2.5e-5,8.819396 -2.289815,13.250008 -6.875,13.25 -4.659175,8e-6 -7.000012,-4.453376 -7,-13.3125 -1.2e-5,-0.357522 -1.2e-5,-0.704936 0,-1.0625 0.221853,-8.064543 2.56269,-12.093716 7,-12.09375 z" />
      <path
         style="font-size:136.83798218px;font-style:normal;font-variant:normal;font-weight:bold;font-stretch:normal;text-align:start;line-height:125%;writing-mode:lr-tb;text-anchor:start;fill:#ffffff;fill-opacity:1;stroke:none;font-family:UnDotum;-inkscape-font-specification:UnDotum Bold"
         id="path3665"
         inkscape:connector-curvature="0"
         d="m 30.40625,14.0625 c -4.696152,4.2e-5 -8.490767,1.708521 -11.375,5.125 -3.290999,3.893275 -4.937502,9.169648 -4.9375,15.84375 -2e-6,4.965886 0.952168,9.282631 2.875,12.9375 2.921213,5.442598 7.41016,8.156247 13.4375,8.15625 1.302305,5.816011 4.894544,8.875255 13.34375,7.59375 l 0,-4.21875 c -3.933283,0.362517 -4.78719,-1.799293 -5.09375,-5.625 l 0,-0.25 c 1.183252,-0.754809 2.257307,-1.691665 3.21875,-2.84375 3.143052,-3.774052 4.718715,-9.03613 4.71875,-15.75 -3.5e-5,-5.005571 -1.00325,-9.31384 -3,-12.96875 -2.958227,-5.323374 -7.345082,-7.999958 -13.1875,-8 z m 31.65625,1.6875 -5.9375,0.15625 -1.96875,9.3125 -4.21875,0 0,6.96875 3.875,0 0,13.34375 c -5e-6,3.654886 0.521303,6.217605 1.53125,7.6875 1.271776,1.946621 3.972996,2.906247 8.125,2.90625 1.383983,-3e-6 3.098938,-0.188003 5.15625,-0.625 l 0,-6.625 c -1.421426,0.07946 -2.476816,0.125007 -3.1875,0.125 -1.159579,7e-6 -1.982496,-0.196474 -2.46875,-0.59375 C 62.37025,47.929534 62.062487,46.69663 62.0625,44.75 l 0,-12.5625 6.125,0 0,-6.96875 -6.125,0 0,-9.46875 z m -31.65625,6.125 c 4.585185,3.4e-5 6.874975,4.399393 6.875,13.21875 -2.5e-5,8.819396 -2.289815,13.250008 -6.875,13.25 -4.659175,8e-6 -7.000012,-4.453376 -7,-13.3125 -1.2e-5,-0.357522 -1.2e-5,-0.704936 0,-1.0625 0.221853,-8.064543 2.56269,-12.093716 7,-12.09375 z" />
      <path
         style="font-size:48px;font-style:normal;font-variant:normal;font-weight:normal;font-stretch:normal;text-align:start;line-height:125%;writing-mode:tb-rl;text-anchor:start;fill:url(#linearGradient3826);fill-opacity:1;stroke:none;font-family:American Participants;-inkscape-font-specification:American Participants"
         id="path3695"
         inkscape:connector-curvature="0"
         d="m 84.685081,65.396369 c -1.9e-5,1.752026 -0.536687,3.258753 -1.610011,4.520185 -0.326684,0.420495 -1.306688,1.273139 -2.940017,2.557933 -1.073352,0.864335 -1.610021,1.670259 -1.610011,2.417773 l 0,1.226407 -6.475039,0 0,-1.997291 c -5e-6,-1.331516 0.513331,-2.569601 1.540009,-3.714259 0.02333,-0.04671 0.968333,-0.911032 2.835017,-2.592975 1.026664,-0.911028 1.539999,-1.751992 1.540011,-2.522894 -1.2e-5,-0.513904 -0.198346,-0.934384 -0.595004,-1.261447 -0.396679,-0.350381 -0.863349,-0.525582 -1.40001,-0.525602 -0.700011,2e-5 -1.225014,0.256983 -1.575009,0.770885 -0.350008,0.513941 -0.513343,1.132983 -0.490003,1.857129 l -6.265038,0 0,-0.560642 c 0,-2.312634 0.851669,-4.15808 2.555015,-5.53635 1.563339,-1.284783 3.523348,-1.927184 5.880036,-1.927211 2.333337,2.7e-5 4.316681,0.619069 5.950037,1.85713 1.773328,1.354911 2.659998,3.165317 2.660017,5.431229 m -5.740036,17.029532 c -1.1e-5,1.051206 -0.338346,1.903851 -1.015006,2.557933 -0.653348,0.677442 -1.505018,1.016163 -2.555016,1.016166 -1.050014,-3e-6 -1.913351,-0.338724 -2.590016,-1.016166 -0.653342,-0.654082 -0.98001,-1.506727 -0.980005,-2.557933 -5e-6,-1.051204 0.326663,-1.915527 0.980005,-2.592974 0.676665,-0.677438 1.540002,-1.016161 2.590016,-1.016166 1.049998,5e-6 1.901668,0.338728 2.555016,1.016166 0.67666,0.677447 1.014995,1.54177 1.015006,2.592974" />
      <path
         style="font-size:48px;font-style:normal;font-variant:normal;font-weight:normal;font-stretch:normal;text-align:start;line-height:125%;writing-mode:tb-rl;text-anchor:start;opacity:0.3;fill:#ffffff;fill-opacity:1;stroke:none;font-family:American Participants;-inkscape-font-specification:American Participants"
         id="path2908"
         inkscape:connector-curvature="0"
         d="m 76.0625,58.09375 c -2.356688,2.7e-5 -4.311661,0.652717 -5.875,1.9375 -1.703346,1.37827 -2.5625,3.218616 -2.5625,5.53125 l 0,0.5625 0.03125,0 c 0.103227,-2.106144 0.938285,-3.804795 2.53125,-5.09375 1.563339,-1.284783 3.518312,-1.937473 5.875,-1.9375 2.333337,2.7e-5 4.335394,0.636939 5.96875,1.875 1.625449,1.241924 2.489438,2.867678 2.625,4.875 0.0082,-0.149702 0.03125,-0.284034 0.03125,-0.4375 -1.9e-5,-2.265912 -0.882922,-4.082589 -2.65625,-5.4375 -1.633356,-1.238061 -3.635413,-1.874973 -5.96875,-1.875 z m 1.8125,7.71875 c -0.178649,0.622352 -0.641142,1.293338 -1.4375,2 -1.866684,1.681943 -2.82042,2.54704 -2.84375,2.59375 -1.026678,1.144658 -1.531255,2.387234 -1.53125,3.71875 l 0,1 c -5e-6,-1.331516 0.504572,-2.574092 1.53125,-3.71875 0.02333,-0.04671 0.977066,-0.911807 2.84375,-2.59375 1.026664,-0.911028 1.531238,-1.760348 1.53125,-2.53125 -4e-6,-0.177241 -0.04657,-0.313735 -0.09375,-0.46875 z m -2.5,13 c -1.050014,5e-6 -1.917085,0.353812 -2.59375,1.03125 -0.653342,0.677447 -0.968755,1.542546 -0.96875,2.59375 -10e-7,0.174899 0.01317,0.336094 0.03125,0.5 0.09061,-0.824466 0.392861,-1.529016 0.9375,-2.09375 0.676665,-0.677438 1.543736,-1.031245 2.59375,-1.03125 1.049998,5e-6 1.909152,0.353812 2.5625,1.03125 0.564078,0.564734 0.874892,1.269284 0.96875,2.09375 0.01873,-0.163906 0.03125,-0.325101 0.03125,-0.5 -1.1e-5,-1.051204 -0.32334,-1.916303 -1,-2.59375 -0.653348,-0.677438 -1.512502,-1.031245 -2.5625,-1.03125 z" />
    </g>
    <rect
       ry="25"
       rx="25"
       id="rect3003"
       style="opacity:0.15;fill:#ffffff;fill-opacity:1"
       height="92"
       width="92"
       y="958.36218"
       x="-96"
       clip-path="url(#clipPath3009)"
       transform="translate(98,3.8281269e-7)" />
  </g>
</svg>
