<?xml version="1.0" encoding="UTF-8" standalone="no"?>
<!-- Created with Inkscape (http://www.inkscape.org/) -->

<svg
   xmlns:dc="http://purl.org/dc/elements/1.1/"
   xmlns:cc="http://creativecommons.org/ns#"
   xmlns:rdf="http://www.w3.org/1999/02/22-rdf-syntax-ns#"
   xmlns:svg="http://www.w3.org/2000/svg"
   xmlns="http://www.w3.org/2000/svg"
   xmlns:xlink="http://www.w3.org/1999/xlink"
   xmlns:sodipodi="http://sodipodi.sourceforge.net/DTD/sodipodi-0.dtd"
   xmlns:inkscape="http://www.inkscape.org/namespaces/inkscape"
   width="96"
   height="96"
   id="svg11037"
   version="1.1"
   inkscape:version="0.48.3.1 r9886"
   sodipodi:docname="screenruler-icon.svg">
  <defs
     id="defs11039">
    <linearGradient
       y2="1046.1001"
       x2="47.999954"
       y1="962.62189"
       x1="47.999954"
       gradientTransform="matrix(1.15,0,0,1.15,-7.1999462,-150.65291)"
       gradientUnits="userSpaceOnUse"
       id="linearGradient3886"
       xlink:href="#linearGradient3795"
       inkscape:collect="always" />
    <linearGradient
       id="linearGradient3795">
      <stop
         style="stop-color:#13a6fd;stop-opacity:1;"
         offset="0"
         id="stop3797" />
      <stop
         style="stop-color:#2975b6;stop-opacity:1;"
         offset="1"
         id="stop3799" />
    </linearGradient>
    <linearGradient
       y2="1046.1001"
       x2="47.999954"
       y1="962.62189"
       x1="47.999954"
       gradientTransform="matrix(1.15,0,0,1.15,-7.1999462,-150.65292)"
       gradientUnits="userSpaceOnUse"
       id="linearGradient11642"
       xlink:href="#linearGradient3822"
       inkscape:collect="always" />
    <linearGradient
       x1="6"
       y1="48"
       x2="90"
       y2="48"
       id="linearGradient3828"
       xlink:href="#linearGradient3822"
       gradientUnits="userSpaceOnUse"
       gradientTransform="translate(-96,0)" />
    <linearGradient
       id="linearGradient3822">
      <stop
         id="stop3824"
         style="stop-color:#d7c000;stop-opacity:1"
         offset="0" />
      <stop
         id="stop3826"
         style="stop-color:#ebd93c;stop-opacity:1"
         offset="1" />
    </linearGradient>
    <linearGradient
       y2="48"
       x2="90"
       y1="48"
       x1="6"
       gradientTransform="translate(-1048.3622,-105.57869)"
       gradientUnits="userSpaceOnUse"
       id="linearGradient3053"
       xlink:href="#linearGradient3822"
       inkscape:collect="always" />
    <linearGradient
       x1="16"
       y1="24"
       x2="16"
       y2="-16"
       id="linearGradient3862"
       xlink:href="#linearGradient3856"
       gradientUnits="userSpaceOnUse" />
    <linearGradient
       id="linearGradient3856">
      <stop
         id="stop3858"
         style="stop-color:#665400;stop-opacity:1"
         offset="0" />
      <stop
         id="stop3860"
         style="stop-color:#665400;stop-opacity:0"
         offset="1" />
    </linearGradient>
    <clipPath
       clipPathUnits="userSpaceOnUse"
       id="clipPath3009">
      <path
         id="path3011"
         d="m -2,956.36218 -96,0 0,33.5624 96,25.68742 0,-59.24982 z"
         style="opacity:0.15;fill:#ffffff;fill-opacity:1;stroke:none"
         inkscape:connector-curvature="0" />
    </clipPath>
  </defs>
  <sodipodi:namedview
     id="base"
     pagecolor="#ffffff"
     bordercolor="#666666"
     borderopacity="1.0"
     inkscape:pageopacity="0.0"
     inkscape:pageshadow="2"
     inkscape:zoom="3.959798"
     inkscape:cx="33.538031"
     inkscape:cy="59.964634"
     inkscape:document-units="px"
     inkscape:current-layer="layer1"
     showgrid="false"
     inkscape:window-width="1280"
     inkscape:window-height="750"
     inkscape:window-x="0"
     inkscape:window-y="22"
     inkscape:window-maximized="1"
     showguides="true"
     inkscape:guide-bbox="true">
    <sodipodi:guide
       orientation="0,1"
       position="-24.748737,0"
       id="guide11064" />
    <sodipodi:guide
       orientation="0,1"
       position="-23.233509,96"
       id="guide11066" />
    <sodipodi:guide
       orientation="1,0"
       position="0,54.800776"
       id="guide11068" />
    <sodipodi:guide
       orientation="1,0"
       position="96,51.012704"
       id="guide11070" />
    <sodipodi:guide
       orientation="0,1"
       position="-18.94036,48"
       id="guide11072" />
    <sodipodi:guide
       orientation="1,0"
       position="48,79.296975"
       id="guide11074" />
    <sodipodi:guide
       orientation="1,0"
       position="2,75.508903"
       id="guide11076" />
    <sodipodi:guide
       orientation="0,1"
       position="-77.27667,2"
       id="guide11078" />
    <sodipodi:guide
       orientation="1,0"
       position="94,77.781746"
       id="guide11080" />
    <sodipodi:guide
       orientation="0,1"
       position="-65.912454,94"
       id="guide11082" />
  </sodipodi:namedview>
  <metadata
     id="metadata11042">
    <rdf:RDF>
      <cc:Work
         rdf:about="">
        <dc:format>image/svg+xml</dc:format>
        <dc:type
           rdf:resource="http://purl.org/dc/dcmitype/StillImage" />
        <dc:title />
      </cc:Work>
    </rdf:RDF>
  </metadata>
  <g
     inkscape:label="Layer 1"
     inkscape:groupmode="layer"
     id="layer1"
     transform="translate(0,-956.36218)">
    <rect
       x="2"
       y="958.36218"
       width="92"
       height="92"
       style="fill:url(#linearGradient11642);fill-opacity:1.0"
       id="rect3867"
       rx="25"
       ry="25" />
    <g
       transform="translate(0,956.36218)"
       id="layer4">
      <path
         inkscape:connector-curvature="0"
         d="m 15.78125,9.90625 c -0.0011,5.42e-5 -0.09269,0.031142 -0.09375,0.03125 a 1.0151723,1.0151723 0 0 0 -0.125,0 C 15.5608,9.9378878 15.376703,9.999465 15.375,10 c -0.0017,5.34e-4 -0.154599,0.06182 -0.15625,0.0625 -0.0017,6.77e-4 -0.154662,0.06169 -0.15625,0.0625 -0.0016,8.15e-4 -0.154737,0.0928 -0.15625,0.09375 -0.0015,9.47e-4 -0.154823,0.09268 -0.15625,0.09375 -0.0014,0.0011 -0.123669,0.12381 -0.125,0.125 -0.0013,0.0012 -0.123775,0.123702 -0.125,0.125 -0.0012,0.0013 -0.12389,0.123602 -0.125,0.125 -0.0011,0.0014 -0.09276,0.154763 -0.09375,0.15625 -9.87e-4,0.0015 -0.09289,0.154684 -0.09375,0.15625 -8.57e-4,0.0016 -0.09303,0.154617 -0.09375,0.15625 -7.21e-4,0.0016 -0.06192,0.154562 -0.0625,0.15625 -5.8e-4,0.0017 -0.03082,0.154519 -0.03125,0.15625 -4.34e-4,0.0017 -0.06221,0.185738 -0.0625,0.1875 -2.86e-4,0.0018 1.35e-4,0.18572 0,0.1875 -1.35e-4,0.0018 -1.7e-5,0.154465 0,0.15625 l 0,24 c 2.9e-5,0.002 -2.23e-4,0.21674 0,0.21875 2.23e-4,0.002 0.03083,0.185521 0.03125,0.1875 4.16e-4,0.002 0.0619,0.21682 0.0625,0.21875 6.04e-4,0.0019 0.06171,0.185637 0.0625,0.1875 7.87e-4,0.0019 0.09279,0.154472 0.09375,0.15625 9.63e-4,0.0018 0.09262,0.185823 0.09375,0.1875 0.0011,0.0017 0.123714,0.154689 0.125,0.15625 0.0013,0.0016 0.12357,0.15482 0.125,0.15625 0.0014,0.0014 0.154689,0.123714 0.15625,0.125 0.0016,0.0013 0.154573,0.123871 0.15625,0.125 0.0017,0.0011 0.185722,0.09279 0.1875,0.09375 0.0018,9.63e-4 0.154387,0.09296 0.15625,0.09375 0.0019,7.87e-4 0.18557,0.0619 0.1875,0.0625 0.0019,6.04e-4 0.216771,0.06208 0.21875,0.0625 0.002,4.16e-4 0.18549,0.03103 0.1875,0.03125 0.002,2.23e-4 0.216728,-2.9e-5 0.21875,0 l 0.1875,0 C 14.091703,38.222365 12.171192,39.153877 11,40.90625 9.7474861,42.785032 9.343749,45.174357 9.34375,48 c -10e-7,2.818869 0.4010822,5.232747 1.65625,7.125 1.28329,1.91047 3.418366,2.9375 5.71875,2.9375 2.298699,0 4.439027,-1.017935 5.71875,-2.9375 C 23.694877,53.243643 24.124986,50.832098 24.125,48 24.124986,45.161149 23.692135,42.774091 22.4375,40.90625 21.269562,39.145534 19.34547,38.221572 17.25,38.0625 l 0.75,0 c 0.002,-2.9e-5 0.21674,2.23e-4 0.21875,0 0.002,-2.23e-4 0.185521,-0.03083 0.1875,-0.03125 0.002,-4.16e-4 0.21682,-0.0619 0.21875,-0.0625 0.0019,-6.04e-4 0.185637,-0.06171 0.1875,-0.0625 0.0019,-7.87e-4 0.154472,-0.09279 0.15625,-0.09375 0.0018,-9.63e-4 0.185823,-0.09262 0.1875,-0.09375 0.0017,-0.0011 0.154689,-0.123714 0.15625,-0.125 0.0016,-0.0013 0.15482,-0.12357 0.15625,-0.125 0.0014,-0.0014 0.123714,-0.154689 0.125,-0.15625 0.0013,-0.0016 0.123871,-0.154573 0.125,-0.15625 0.0011,-0.0017 0.09279,-0.185722 0.09375,-0.1875 9.63e-4,-0.0018 0.09296,-0.154387 0.09375,-0.15625 7.87e-4,-0.0019 0.0619,-0.18557 0.0625,-0.1875 6.04e-4,-0.0019 0.06208,-0.216771 0.0625,-0.21875 4.16e-4,-0.002 0.03103,-0.18549 0.03125,-0.1875 2.23e-4,-0.002 -2.9e-5,-0.216728 0,-0.21875 l 0,-11.28125 c 0.01719,0.04686 0.03086,0.09282 0.03125,0.09375 7.87e-4,0.0019 0.09279,0.154472 0.09375,0.15625 9.63e-4,0.0018 0.09262,0.185823 0.09375,0.1875 0.0011,0.0017 0.123714,0.154689 0.125,0.15625 0.0013,0.0016 0.12357,0.15482 0.125,0.15625 0.0014,0.0014 0.154689,0.123714 0.15625,0.125 0.0016,0.0013 0.154573,0.123871 0.15625,0.125 0.0017,0.0011 0.185722,0.09279 0.1875,0.09375 0.0018,9.63e-4 0.154387,0.09296 0.15625,0.09375 0.0019,7.87e-4 0.18557,0.0619 0.1875,0.0625 0.0019,6.04e-4 0.216771,0.06208 0.21875,0.0625 0.002,4.16e-4 0.18549,0.03103 0.1875,0.03125 0.002,2.23e-4 0.216728,-2.9e-5 0.21875,0 l 2,0 c 0.002,-2.9e-5 0.21674,2.23e-4 0.21875,0 0.002,-2.23e-4 0.185521,-0.03083 0.1875,-0.03125 0.002,-4.16e-4 0.21682,-0.0619 0.21875,-0.0625 0.0019,-6.04e-4 0.185637,-0.06171 0.1875,-0.0625 0.0019,-7.87e-4 0.154472,-0.09279 0.15625,-0.09375 0.0018,-9.63e-4 0.185823,-0.09262 0.1875,-0.09375 0.0017,-0.0011 0.154689,-0.123714 0.15625,-0.125 0.0016,-0.0013 0.15482,-0.12357 0.15625,-0.125 0.0014,-0.0014 0.123714,-0.154689 0.125,-0.15625 0.0013,-0.0016 0.123871,-0.154573 0.125,-0.15625 0.0011,-0.0017 0.09279,-0.185722 0.09375,-0.1875 9.63e-4,-0.0018 0.09296,-0.154387 0.09375,-0.15625 7.87e-4,-0.0019 0.0619,-0.18557 0.0625,-0.1875 3.42e-4,-0.0011 0.01723,-0.07126 0.03125,-0.125 0.01402,0.05374 0.03091,0.123908 0.03125,0.125 6.04e-4,0.0019 0.06171,0.185637 0.0625,0.1875 7.87e-4,0.0019 0.09279,0.154472 0.09375,0.15625 9.63e-4,0.0018 0.09262,0.185823 0.09375,0.1875 0.0011,0.0017 0.123714,0.154689 0.125,0.15625 0.0013,0.0016 0.12357,0.15482 0.125,0.15625 0.0014,0.0014 0.154689,0.123714 0.15625,0.125 0.0016,0.0013 0.154573,0.123871 0.15625,0.125 0.0017,0.0011 0.185722,0.09279 0.1875,0.09375 0.0018,9.63e-4 0.154387,0.09296 0.15625,0.09375 0.0019,7.87e-4 0.18557,0.0619 0.1875,0.0625 0.0019,6.04e-4 0.216771,0.06208 0.21875,0.0625 0.002,4.16e-4 0.18549,0.03103 0.1875,0.03125 0.002,2.23e-4 0.216728,-2.9e-5 0.21875,0 l 2,0 c 0.002,-2.9e-5 0.21674,2.23e-4 0.21875,0 0.002,-2.23e-4 0.185521,-0.03083 0.1875,-0.03125 0.002,-4.16e-4 0.21682,-0.0619 0.21875,-0.0625 0.0019,-6.04e-4 0.185637,-0.06171 0.1875,-0.0625 0.0019,-7.87e-4 0.154472,-0.09279 0.15625,-0.09375 0.0018,-9.63e-4 0.185823,-0.09262 0.1875,-0.09375 0.0017,-0.0011 0.154689,-0.123714 0.15625,-0.125 0.0016,-0.0013 0.15482,-0.12357 0.15625,-0.125 0.0014,-0.0014 0.123714,-0.154689 0.125,-0.15625 0.0013,-0.0016 0.123871,-0.154573 0.125,-0.15625 0.0011,-0.0017 0.09279,-0.185722 0.09375,-0.1875 9.63e-4,-0.0018 0.09296,-0.154387 0.09375,-0.15625 7.87e-4,-0.0019 0.0619,-0.18557 0.0625,-0.1875 3.42e-4,-0.0011 0.01723,-0.07126 0.03125,-0.125 0.01402,0.05374 0.03091,0.123908 0.03125,0.125 6.04e-4,0.0019 0.06171,0.185637 0.0625,0.1875 7.87e-4,0.0019 0.09279,0.154472 0.09375,0.15625 9.63e-4,0.0018 0.09262,0.185823 0.09375,0.1875 0.0011,0.0017 0.123714,0.154689 0.125,0.15625 0.0013,0.0016 0.12357,0.15482 0.125,0.15625 0.0014,0.0014 0.154689,0.123714 0.15625,0.125 0.0016,0.0013 0.154573,0.123871 0.15625,0.125 0.0017,0.0011 0.185722,0.09279 0.1875,0.09375 0.0018,9.63e-4 0.154387,0.09296 0.15625,0.09375 0.0019,7.87e-4 0.18557,0.0619 0.1875,0.0625 0.0019,6.04e-4 0.216771,0.06208 0.21875,0.0625 0.002,4.16e-4 0.18549,0.03103 0.1875,0.03125 0.002,2.23e-4 0.216728,-2.9e-5 0.21875,0 l 2,0 c 0.002,-2.9e-5 0.21674,2.23e-4 0.21875,0 0.002,-2.23e-4 0.185521,-0.03083 0.1875,-0.03125 0.002,-4.16e-4 0.21682,-0.0619 0.21875,-0.0625 0.0019,-6.04e-4 0.185637,-0.06171 0.1875,-0.0625 0.0019,-7.87e-4 0.154472,-0.09279 0.15625,-0.09375 0.0018,-9.63e-4 0.185823,-0.09262 0.1875,-0.09375 0.0017,-0.0011 0.154689,-0.123714 0.15625,-0.125 0.0016,-0.0013 0.15482,-0.12357 0.15625,-0.125 0.0014,-0.0014 0.123714,-0.154689 0.125,-0.15625 0.0013,-0.0016 0.123871,-0.154573 0.125,-0.15625 0.0011,-0.0017 0.09279,-0.185722 0.09375,-0.1875 9.63e-4,-0.0018 0.09296,-0.154387 0.09375,-0.15625 7.87e-4,-0.0019 0.0619,-0.18557 0.0625,-0.1875 3.42e-4,-0.0011 0.01723,-0.07126 0.03125,-0.125 0.01402,0.05374 0.03091,0.123908 0.03125,0.125 6.04e-4,0.0019 0.06171,0.185637 0.0625,0.1875 7.87e-4,0.0019 0.09279,0.154472 0.09375,0.15625 9.63e-4,0.0018 0.09262,0.185823 0.09375,0.1875 0.0011,0.0017 0.123714,0.154689 0.125,0.15625 0.0013,0.0016 0.12357,0.15482 0.125,0.15625 0.0014,0.0014 0.154689,0.123714 0.15625,0.125 0.0016,0.0013 0.154573,0.123871 0.15625,0.125 0.0017,0.0011 0.185722,0.09279 0.1875,0.09375 0.0018,9.63e-4 0.154387,0.09296 0.15625,0.09375 0.0019,7.87e-4 0.18557,0.0619 0.1875,0.0625 0.0019,6.04e-4 0.216771,0.06208 0.21875,0.0625 0.002,4.16e-4 0.18549,0.03103 0.1875,0.03125 0.002,2.23e-4 0.216728,-2.9e-5 0.21875,0 l 2,0 c 0.002,-2.9e-5 0.21674,2.23e-4 0.21875,0 0.002,-2.23e-4 0.185521,-0.03083 0.1875,-0.03125 0.002,-4.16e-4 0.21682,-0.0619 0.21875,-0.0625 0.0019,-6.04e-4 0.185637,-0.06171 0.1875,-0.0625 0.0019,-7.87e-4 0.154472,-0.09279 0.15625,-0.09375 0.0018,-9.63e-4 0.185823,-0.09262 0.1875,-0.09375 0.0017,-0.0011 0.154689,-0.123714 0.15625,-0.125 0.0016,-0.0013 0.15482,-0.12357 0.15625,-0.125 0.0014,-0.0014 0.123714,-0.154689 0.125,-0.15625 0.0013,-0.0016 0.123871,-0.154573 0.125,-0.15625 0.0011,-0.0017 0.09279,-0.185722 0.09375,-0.1875 9.63e-4,-0.0018 0.09296,-0.154387 0.09375,-0.15625 3.94e-4,-9.31e-4 0.01406,-0.04689 0.03125,-0.09375 l 0,5.28125 c 2.9e-5,0.002 -2.23e-4,0.21674 0,0.21875 2.23e-4,0.002 0.03083,0.185521 0.03125,0.1875 4.16e-4,0.002 0.0619,0.21682 0.0625,0.21875 6.04e-4,0.0019 0.06171,0.185637 0.0625,0.1875 7.87e-4,0.0019 0.09279,0.154472 0.09375,0.15625 9.63e-4,0.0018 0.09262,0.185823 0.09375,0.1875 0.0011,0.0017 0.123714,0.154689 0.125,0.15625 0.0013,0.0016 0.12357,0.15482 0.125,0.15625 0.0014,0.0014 0.154689,0.123714 0.15625,0.125 0.0016,0.0013 0.154573,0.123871 0.15625,0.125 0.0017,0.0011 0.185722,0.09279 0.1875,0.09375 0.0018,9.63e-4 0.154387,0.09296 0.15625,0.09375 0.0019,7.87e-4 0.18557,0.0619 0.1875,0.0625 0.0019,6.04e-4 0.216771,0.06208 0.21875,0.0625 0.002,4.16e-4 0.18549,0.03103 0.1875,0.03125 0.002,2.23e-4 0.216728,-2.9e-5 0.21875,0 l 2,0 c 0.002,-2.9e-5 0.21674,2.23e-4 0.21875,0 0.002,-2.23e-4 0.185521,-0.03083 0.1875,-0.03125 0.002,-4.16e-4 0.21682,-0.0619 0.21875,-0.0625 0.0019,-6.04e-4 0.185637,-0.06171 0.1875,-0.0625 0.0019,-7.87e-4 0.154472,-0.09279 0.15625,-0.09375 0.0018,-9.63e-4 0.185823,-0.09262 0.1875,-0.09375 0.0017,-0.0011 0.154689,-0.123714 0.15625,-0.125 0.0016,-0.0013 0.15482,-0.12357 0.15625,-0.125 0.0014,-0.0014 0.123714,-0.154689 0.125,-0.15625 0.0013,-0.0016 0.123871,-0.154573 0.125,-0.15625 0.0011,-0.0017 0.09279,-0.185722 0.09375,-0.1875 9.63e-4,-0.0018 0.09296,-0.154387 0.09375,-0.15625 7.87e-4,-0.0019 0.0619,-0.18557 0.0625,-0.1875 6.04e-4,-0.0019 0.06208,-0.216771 0.0625,-0.21875 4.16e-4,-0.002 0.03103,-0.18549 0.03125,-0.1875 2.23e-4,-0.002 -2.9e-5,-0.216728 0,-0.21875 l 0,-5.28125 c 0.01719,0.04686 0.03086,0.09282 0.03125,0.09375 7.87e-4,0.0019 0.09279,0.154472 0.09375,0.15625 9.63e-4,0.0018 0.09262,0.185823 0.09375,0.1875 0.0011,0.0017 0.123714,0.154689 0.125,0.15625 0.0013,0.0016 0.12357,0.15482 0.125,0.15625 0.0014,0.0014 0.154689,0.123714 0.15625,0.125 0.0016,0.0013 0.154573,0.123871 0.15625,0.125 0.0017,0.0011 0.185722,0.09279 0.1875,0.09375 0.0018,9.63e-4 0.154387,0.09296 0.15625,0.09375 0.0019,7.87e-4 0.18557,0.0619 0.1875,0.0625 0.0019,6.04e-4 0.216771,0.06208 0.21875,0.0625 0.002,4.16e-4 0.18549,0.03103 0.1875,0.03125 0.002,2.23e-4 0.216728,-2.9e-5 0.21875,0 l 2,0 c 0.002,-2.9e-5 0.21674,2.23e-4 0.21875,0 0.002,-2.23e-4 0.185521,-0.03083 0.1875,-0.03125 0.002,-4.16e-4 0.21682,-0.0619 0.21875,-0.0625 0.0019,-6.04e-4 0.185637,-0.06171 0.1875,-0.0625 0.0019,-7.87e-4 0.154472,-0.09279 0.15625,-0.09375 0.0018,-9.63e-4 0.185823,-0.09262 0.1875,-0.09375 0.0017,-0.0011 0.154689,-0.123714 0.15625,-0.125 0.0016,-0.0013 0.15482,-0.12357 0.15625,-0.125 0.0014,-0.0014 0.123714,-0.154689 0.125,-0.15625 0.0013,-0.0016 0.123871,-0.154573 0.125,-0.15625 0.0011,-0.0017 0.09279,-0.185722 0.09375,-0.1875 9.63e-4,-0.0018 0.09296,-0.154387 0.09375,-0.15625 7.87e-4,-0.0019 0.0619,-0.18557 0.0625,-0.1875 3.42e-4,-0.0011 0.01723,-0.07126 0.03125,-0.125 0.01402,0.05374 0.03091,0.123908 0.03125,0.125 6.04e-4,0.0019 0.06171,0.185637 0.0625,0.1875 7.87e-4,0.0019 0.09279,0.154472 0.09375,0.15625 9.63e-4,0.0018 0.09262,0.185823 0.09375,0.1875 0.0011,0.0017 0.123714,0.154689 0.125,0.15625 0.0013,0.0016 0.12357,0.15482 0.125,0.15625 0.0014,0.0014 0.154689,0.123714 0.15625,0.125 0.0016,0.0013 0.154573,0.123871 0.15625,0.125 0.0017,0.0011 0.185722,0.09279 0.1875,0.09375 0.0018,9.63e-4 0.154387,0.09296 0.15625,0.09375 0.0019,7.87e-4 0.18557,0.0619 0.1875,0.0625 0.0019,6.04e-4 0.216771,0.06208 0.21875,0.0625 0.002,4.16e-4 0.18549,0.03103 0.1875,0.03125 0.002,2.23e-4 0.216728,-2.9e-5 0.21875,0 l 2,0 c 0.002,-2.9e-5 0.21674,2.23e-4 0.21875,0 0.002,-2.23e-4 0.185521,-0.03083 0.1875,-0.03125 0.002,-4.16e-4 0.21682,-0.0619 0.21875,-0.0625 0.0019,-6.04e-4 0.185637,-0.06171 0.1875,-0.0625 0.0019,-7.87e-4 0.154472,-0.09279 0.15625,-0.09375 0.0018,-9.63e-4 0.185823,-0.09262 0.1875,-0.09375 0.0017,-0.0011 0.154689,-0.123714 0.15625,-0.125 0.0016,-0.0013 0.15482,-0.12357 0.15625,-0.125 0.0014,-0.0014 0.123714,-0.154689 0.125,-0.15625 0.0013,-0.0016 0.123871,-0.154573 0.125,-0.15625 0.0011,-0.0017 0.09279,-0.185722 0.09375,-0.1875 9.63e-4,-0.0018 0.09296,-0.154387 0.09375,-0.15625 7.87e-4,-0.0019 0.0619,-0.18557 0.0625,-0.1875 3.42e-4,-0.0011 0.01723,-0.07126 0.03125,-0.125 0.01402,0.05374 0.03091,0.123908 0.03125,0.125 6.04e-4,0.0019 0.06171,0.185637 0.0625,0.1875 7.87e-4,0.0019 0.09279,0.154472 0.09375,0.15625 9.63e-4,0.0018 0.09262,0.185823 0.09375,0.1875 0.0011,0.0017 0.123714,0.154689 0.125,0.15625 0.0013,0.0016 0.12357,0.15482 0.125,0.15625 0.0014,0.0014 0.154689,0.123714 0.15625,0.125 0.0016,0.0013 0.154573,0.123871 0.15625,0.125 0.0017,0.0011 0.185722,0.09279 0.1875,0.09375 0.0018,9.63e-4 0.154387,0.09296 0.15625,0.09375 0.0019,7.87e-4 0.18557,0.0619 0.1875,0.0625 0.0019,6.04e-4 0.216771,0.06208 0.21875,0.0625 0.002,4.16e-4 0.18549,0.03103 0.1875,0.03125 0.002,2.23e-4 0.216728,-2.9e-5 0.21875,0 l 2,0 c 0.002,-2.9e-5 0.21674,2.23e-4 0.21875,0 0.002,-2.23e-4 0.185521,-0.03083 0.1875,-0.03125 0.002,-4.16e-4 0.21682,-0.0619 0.21875,-0.0625 0.0019,-6.04e-4 0.185637,-0.06171 0.1875,-0.0625 0.0019,-7.87e-4 0.154472,-0.09279 0.15625,-0.09375 0.0018,-9.63e-4 0.185823,-0.09262 0.1875,-0.09375 0.0017,-0.0011 0.154689,-0.123714 0.15625,-0.125 0.0016,-0.0013 0.15482,-0.12357 0.15625,-0.125 0.0014,-0.0014 0.123714,-0.154689 0.125,-0.15625 0.0013,-0.0016 0.123871,-0.154573 0.125,-0.15625 0.0011,-0.0017 0.09279,-0.185722 0.09375,-0.1875 9.63e-4,-0.0018 0.09296,-0.154387 0.09375,-0.15625 7.87e-4,-0.0019 0.0619,-0.18557 0.0625,-0.1875 3.42e-4,-0.0011 0.01723,-0.07126 0.03125,-0.125 0.01402,0.05374 0.03091,0.123908 0.03125,0.125 6.04e-4,0.0019 0.06171,0.185637 0.0625,0.1875 7.87e-4,0.0019 0.09279,0.154472 0.09375,0.15625 9.63e-4,0.0018 0.09262,0.185823 0.09375,0.1875 0.0011,0.0017 0.123714,0.154689 0.125,0.15625 0.0013,0.0016 0.12357,0.15482 0.125,0.15625 0.0014,0.0014 0.154689,0.123714 0.15625,0.125 0.0016,0.0013 0.154573,0.123871 0.15625,0.125 0.0017,0.0011 0.185722,0.09279 0.1875,0.09375 0.0018,9.63e-4 0.154387,0.09296 0.15625,0.09375 0.0019,7.87e-4 0.18557,0.0619 0.1875,0.0625 0.0019,6.04e-4 0.216771,0.06208 0.21875,0.0625 0.002,4.16e-4 0.18549,0.03103 0.1875,0.03125 0.002,2.23e-4 0.216728,-2.9e-5 0.21875,0 l 2,0 c 0.002,-2.9e-5 0.21674,2.23e-4 0.21875,0 0.002,-2.23e-4 0.185521,-0.03083 0.1875,-0.03125 0.002,-4.16e-4 0.21682,-0.0619 0.21875,-0.0625 0.0019,-6.04e-4 0.185637,-0.06171 0.1875,-0.0625 0.0019,-7.87e-4 0.154472,-0.09279 0.15625,-0.09375 0.0018,-9.63e-4 0.185823,-0.09262 0.1875,-0.09375 0.0017,-0.0011 0.154689,-0.123714 0.15625,-0.125 0.0016,-0.0013 0.15482,-0.12357 0.15625,-0.125 0.0014,-0.0014 0.123714,-0.154689 0.125,-0.15625 0.0013,-0.0016 0.123871,-0.154573 0.125,-0.15625 0.0011,-0.0017 0.09279,-0.185722 0.09375,-0.1875 9.63e-4,-0.0018 0.09296,-0.154387 0.09375,-0.15625 3.94e-4,-9.31e-4 0.01406,-0.04689 0.03125,-0.09375 l 0,11.28125 c 2.9e-5,0.002 -2.23e-4,0.21674 0,0.21875 2.23e-4,0.002 0.03083,0.185521 0.03125,0.1875 4.16e-4,0.002 0.0619,0.21682 0.0625,0.21875 6.04e-4,0.0019 0.06171,0.185637 0.0625,0.1875 7.87e-4,0.0019 0.09279,0.154472 0.09375,0.15625 9.63e-4,0.0018 0.09262,0.185823 0.09375,0.1875 0.0011,0.0017 0.123714,0.154689 0.125,0.15625 0.0013,0.0016 0.12357,0.15482 0.125,0.15625 0.0014,0.0014 0.154689,0.123714 0.15625,0.125 0.0016,0.0013 0.154573,0.123871 0.15625,0.125 0.0017,0.0011 0.185722,0.09279 0.1875,0.09375 0.0018,9.63e-4 0.154387,0.09296 0.15625,0.09375 0.0019,7.87e-4 0.18557,0.0619 0.1875,0.0625 0.0019,6.04e-4 0.216771,0.06208 0.21875,0.0625 0.002,4.16e-4 0.18549,0.03103 0.1875,0.03125 0.002,2.23e-4 0.216728,-2.9e-5 0.21875,0 l 2,0 c 0.002,-2.9e-5 0.21674,2.23e-4 0.21875,0 0.002,-2.23e-4 0.185521,-0.03083 0.1875,-0.03125 0.002,-4.16e-4 0.21682,-0.0619 0.21875,-0.0625 0.0019,-6.04e-4 0.185637,-0.06171 0.1875,-0.0625 0.0019,-7.87e-4 0.154472,-0.09279 0.15625,-0.09375 0.0018,-9.63e-4 0.185823,-0.09262 0.1875,-0.09375 0.0017,-0.0011 0.154689,-0.123714 0.15625,-0.125 0.0016,-0.0013 0.15482,-0.12357 0.15625,-0.125 0.0014,-0.0014 0.123714,-0.154689 0.125,-0.15625 0.0013,-0.0016 0.123871,-0.154573 0.125,-0.15625 0.0011,-0.0017 0.09279,-0.185722 0.09375,-0.1875 9.63e-4,-0.0018 0.09296,-0.154387 0.09375,-0.15625 7.87e-4,-0.0019 0.0619,-0.18557 0.0625,-0.1875 6.04e-4,-0.0019 0.06208,-0.216771 0.0625,-0.21875 4.16e-4,-0.002 0.03103,-0.18549 0.03125,-0.1875 2.23e-4,-0.002 -2.9e-5,-0.216728 0,-0.21875 l 0,-11.28125 c 0.01719,0.04686 0.03086,0.09282 0.03125,0.09375 7.87e-4,0.0019 0.09279,0.154472 0.09375,0.15625 9.63e-4,0.0018 0.09262,0.185823 0.09375,0.1875 0.0011,0.0017 0.123714,0.154689 0.125,0.15625 0.0013,0.0016 0.12357,0.15482 0.125,0.15625 0.0014,0.0014 0.154689,0.123714 0.15625,0.125 0.0016,0.0013 0.154573,0.123871 0.15625,0.125 0.0017,0.0011 0.185722,0.09279 0.1875,0.09375 0.0018,9.63e-4 0.154387,0.09296 0.15625,0.09375 0.0019,7.87e-4 0.18557,0.0619 0.1875,0.0625 0.0019,6.04e-4 0.216771,0.06208 0.21875,0.0625 0.002,4.16e-4 0.18549,0.03103 0.1875,0.03125 0.002,2.23e-4 0.216728,-2.9e-5 0.21875,0 l 2,0 c 0.002,-2.9e-5 0.21674,2.23e-4 0.21875,0 0.002,-2.23e-4 0.185521,-0.03083 0.1875,-0.03125 0.002,-4.16e-4 0.21682,-0.0619 0.21875,-0.0625 0.0019,-6.04e-4 0.185637,-0.06171 0.1875,-0.0625 0.0019,-7.87e-4 0.154472,-0.09279 0.15625,-0.09375 0.0018,-9.63e-4 0.185823,-0.09262 0.1875,-0.09375 0.0017,-0.0011 0.154689,-0.123714 0.15625,-0.125 0.0016,-0.0013 0.15482,-0.12357 0.15625,-0.125 0.0014,-0.0014 0.123714,-0.154689 0.125,-0.15625 0.0013,-0.0016 0.123871,-0.154573 0.125,-0.15625 0.0011,-0.0017 0.09279,-0.185722 0.09375,-0.1875 9.63e-4,-0.0018 0.09296,-0.154387 0.09375,-0.15625 7.87e-4,-0.0019 0.0619,-0.18557 0.0625,-0.1875 6.04e-4,-0.0019 0.06208,-0.216771 0.0625,-0.21875 4.16e-4,-0.002 0.03103,-0.18549 0.03125,-0.1875 2.23e-4,-0.002 -2.9e-5,-0.216728 0,-0.21875 l 0,-12 c -2.9e-5,-0.002 2.23e-4,-0.21674 0,-0.21875 -2.23e-4,-0.002 -0.03083,-0.185521 -0.03125,-0.1875 -4.16e-4,-0.002 -0.0619,-0.21682 -0.0625,-0.21875 -6.04e-4,-0.0019 -0.06171,-0.185637 -0.0625,-0.1875 -7.87e-4,-0.0019 -0.09279,-0.154472 -0.09375,-0.15625 -9.63e-4,-0.0018 -0.09262,-0.185823 -0.09375,-0.1875 -0.0011,-0.0017 -0.123714,-0.154689 -0.125,-0.15625 -0.0013,-0.0016 -0.12357,-0.15482 -0.125,-0.15625 -0.0014,-0.0014 -0.154689,-0.123714 -0.15625,-0.125 -0.0016,-0.0013 -0.154573,-0.123871 -0.15625,-0.125 -0.0017,-0.0011 -0.185722,-0.09279 -0.1875,-0.09375 -0.0018,-9.63e-4 -0.154387,-0.09296 -0.15625,-0.09375 -0.0019,-7.87e-4 -0.18557,-0.0619 -0.1875,-0.0625 -0.0019,-6.04e-4 -0.216771,-0.062084 -0.21875,-0.0625 -0.002,-4.157e-4 -0.18549,-0.031027 -0.1875,-0.03125 -0.002,-2.233e-4 -0.216728,2.89e-5 -0.21875,0 l -1.90625,0 C 82.092689,9.9373918 82.001065,9.9063042 82,9.90625 c -0.0011,-5.42e-5 -0.123934,0 -0.125,0 -0.0011,0 -0.09269,-5.42e-5 -0.09375,0 -0.0011,5.42e-5 -0.09269,0.031142 -0.09375,0.03125 a 1.0151723,1.0151723 0 0 0 -0.125,0 C 81.5608,9.9378878 81.376703,9.999465 81.375,10 c -0.0017,5.34e-4 -0.154599,0.06182 -0.15625,0.0625 -0.0017,6.77e-4 -0.154662,0.06169 -0.15625,0.0625 -0.0016,8.15e-4 -0.154737,0.0928 -0.15625,0.09375 -0.0015,9.47e-4 -0.154823,0.09268 -0.15625,0.09375 -0.0014,0.0011 -0.123669,0.12381 -0.125,0.125 -0.0013,0.0012 -0.123775,0.123702 -0.125,0.125 -0.0012,0.0013 -0.12389,0.123602 -0.125,0.125 -0.0011,0.0014 -0.09276,0.154763 -0.09375,0.15625 -9.87e-4,0.0015 -0.09289,0.154684 -0.09375,0.15625 -8.57e-4,0.0016 -0.09303,0.154617 -0.09375,0.15625 -7.21e-4,0.0016 -0.06192,0.154562 -0.0625,0.15625 -5.8e-4,0.0017 -0.03082,0.154519 -0.03125,0.15625 -0.01076,-0.0412 -0.03099,-0.09291 -0.03125,-0.09375 -6.04e-4,-0.0019 -0.06171,-0.185637 -0.0625,-0.1875 -7.87e-4,-0.0019 -0.09279,-0.154472 -0.09375,-0.15625 -9.63e-4,-0.0018 -0.09262,-0.185823 -0.09375,-0.1875 -0.0011,-0.0017 -0.123714,-0.154689 -0.125,-0.15625 -0.0013,-0.0016 -0.12357,-0.15482 -0.125,-0.15625 -0.0014,-0.0014 -0.154689,-0.123714 -0.15625,-0.125 -0.0016,-0.0013 -0.154573,-0.123871 -0.15625,-0.125 -0.0017,-0.0011 -0.185722,-0.09279 -0.1875,-0.09375 -0.0018,-9.63e-4 -0.154387,-0.09296 -0.15625,-0.09375 -0.0019,-7.87e-4 -0.18557,-0.0619 -0.1875,-0.0625 -0.0019,-6.04e-4 -0.216771,-0.062084 -0.21875,-0.0625 -0.002,-4.157e-4 -0.18549,-0.031027 -0.1875,-0.03125 -0.002,-2.233e-4 -0.216728,2.89e-5 -0.21875,0 l -1.90625,0 C 76.092689,9.9373918 76.001065,9.9063042 76,9.90625 c -0.0011,-5.42e-5 -0.123934,0 -0.125,0 -0.0011,0 -0.09269,-5.42e-5 -0.09375,0 -0.0011,5.42e-5 -0.09269,0.031142 -0.09375,0.03125 a 1.0151723,1.0151723 0 0 0 -0.125,0 C 75.5608,9.9378878 75.376703,9.999465 75.375,10 c -0.0017,5.34e-4 -0.154599,0.06182 -0.15625,0.0625 -0.0017,6.77e-4 -0.154662,0.06169 -0.15625,0.0625 -0.0016,8.15e-4 -0.154737,0.0928 -0.15625,0.09375 -0.0015,9.47e-4 -0.154823,0.09268 -0.15625,0.09375 -0.0014,0.0011 -0.123669,0.12381 -0.125,0.125 -0.0013,0.0012 -0.123775,0.123702 -0.125,0.125 -0.0012,0.0013 -0.12389,0.123602 -0.125,0.125 -0.0011,0.0014 -0.09276,0.154763 -0.09375,0.15625 -9.87e-4,0.0015 -0.09289,0.154684 -0.09375,0.15625 -8.57e-4,0.0016 -0.09303,0.154617 -0.09375,0.15625 -7.21e-4,0.0016 -0.06192,0.154562 -0.0625,0.15625 -5.8e-4,0.0017 -0.03082,0.154519 -0.03125,0.15625 -0.01076,-0.0412 -0.03099,-0.09291 -0.03125,-0.09375 -6.04e-4,-0.0019 -0.06171,-0.185637 -0.0625,-0.1875 -7.87e-4,-0.0019 -0.09279,-0.154472 -0.09375,-0.15625 -9.63e-4,-0.0018 -0.09262,-0.185823 -0.09375,-0.1875 -0.0011,-0.0017 -0.123714,-0.154689 -0.125,-0.15625 -0.0013,-0.0016 -0.12357,-0.15482 -0.125,-0.15625 -0.0014,-0.0014 -0.154689,-0.123714 -0.15625,-0.125 -0.0016,-0.0013 -0.154573,-0.123871 -0.15625,-0.125 -0.0017,-0.0011 -0.185722,-0.09279 -0.1875,-0.09375 -0.0018,-9.63e-4 -0.154387,-0.09296 -0.15625,-0.09375 -0.0019,-7.87e-4 -0.18557,-0.0619 -0.1875,-0.0625 -0.0019,-6.04e-4 -0.216771,-0.062084 -0.21875,-0.0625 -0.002,-4.157e-4 -0.18549,-0.031027 -0.1875,-0.03125 -0.002,-2.233e-4 -0.216728,2.89e-5 -0.21875,0 l -1.90625,0 C 70.092689,9.9373918 70.001065,9.9063042 70,9.90625 c -0.0011,-5.42e-5 -0.123934,0 -0.125,0 -0.0011,0 -0.09269,-5.42e-5 -0.09375,0 -0.0011,5.42e-5 -0.09269,0.031142 -0.09375,0.03125 a 1.0151723,1.0151723 0 0 0 -0.125,0 C 69.5608,9.9378878 69.376703,9.999465 69.375,10 c -0.0017,5.34e-4 -0.154599,0.06182 -0.15625,0.0625 -0.0017,6.77e-4 -0.154662,0.06169 -0.15625,0.0625 -0.0016,8.15e-4 -0.154737,0.0928 -0.15625,0.09375 -0.0015,9.47e-4 -0.154823,0.09268 -0.15625,0.09375 -0.0014,0.0011 -0.123669,0.12381 -0.125,0.125 -0.0013,0.0012 -0.123775,0.123702 -0.125,0.125 -0.0012,0.0013 -0.12389,0.123602 -0.125,0.125 -0.0011,0.0014 -0.09276,0.154763 -0.09375,0.15625 -9.87e-4,0.0015 -0.09289,0.154684 -0.09375,0.15625 -8.57e-4,0.0016 -0.09303,0.154617 -0.09375,0.15625 -7.21e-4,0.0016 -0.06192,0.154562 -0.0625,0.15625 -5.8e-4,0.0017 -0.03082,0.154519 -0.03125,0.15625 -0.01076,-0.0412 -0.03099,-0.09291 -0.03125,-0.09375 -6.04e-4,-0.0019 -0.06171,-0.185637 -0.0625,-0.1875 -7.87e-4,-0.0019 -0.09279,-0.154472 -0.09375,-0.15625 -9.63e-4,-0.0018 -0.09262,-0.185823 -0.09375,-0.1875 -0.0011,-0.0017 -0.123714,-0.154689 -0.125,-0.15625 -0.0013,-0.0016 -0.12357,-0.15482 -0.125,-0.15625 -0.0014,-0.0014 -0.154689,-0.123714 -0.15625,-0.125 -0.0016,-0.0013 -0.154573,-0.123871 -0.15625,-0.125 -0.0017,-0.0011 -0.185722,-0.09279 -0.1875,-0.09375 -0.0018,-9.63e-4 -0.154387,-0.09296 -0.15625,-0.09375 -0.0019,-7.87e-4 -0.18557,-0.0619 -0.1875,-0.0625 -0.0019,-6.04e-4 -0.216771,-0.062084 -0.21875,-0.0625 -0.002,-4.157e-4 -0.18549,-0.031027 -0.1875,-0.03125 -0.002,-2.233e-4 -0.216728,2.89e-5 -0.21875,0 l -1.90625,0 C 64.092689,9.9373918 64.001065,9.9063042 64,9.90625 c -0.0011,-5.42e-5 -0.123934,0 -0.125,0 -0.0011,0 -0.09269,-5.42e-5 -0.09375,0 -0.0011,5.42e-5 -0.09269,0.031142 -0.09375,0.03125 a 1.0151723,1.0151723 0 0 0 -0.125,0 C 63.5608,9.9378878 63.376703,9.999465 63.375,10 c -0.0017,5.34e-4 -0.154599,0.06182 -0.15625,0.0625 -0.0017,6.77e-4 -0.154662,0.06169 -0.15625,0.0625 -0.0016,8.15e-4 -0.154737,0.0928 -0.15625,0.09375 -0.0015,9.47e-4 -0.154823,0.09268 -0.15625,0.09375 -0.0014,0.0011 -0.123669,0.12381 -0.125,0.125 -0.0013,0.0012 -0.123775,0.123702 -0.125,0.125 -0.0012,0.0013 -0.12389,0.123602 -0.125,0.125 -0.0011,0.0014 -0.09276,0.154763 -0.09375,0.15625 -9.87e-4,0.0015 -0.09289,0.154684 -0.09375,0.15625 -8.57e-4,0.0016 -0.09303,0.154617 -0.09375,0.15625 -7.21e-4,0.0016 -0.06192,0.154562 -0.0625,0.15625 -5.8e-4,0.0017 -0.03082,0.154519 -0.03125,0.15625 -0.01076,-0.0412 -0.03099,-0.09291 -0.03125,-0.09375 -6.04e-4,-0.0019 -0.06171,-0.185637 -0.0625,-0.1875 -7.87e-4,-0.0019 -0.09279,-0.154472 -0.09375,-0.15625 -9.63e-4,-0.0018 -0.09262,-0.185823 -0.09375,-0.1875 -0.0011,-0.0017 -0.123714,-0.154689 -0.125,-0.15625 -0.0013,-0.0016 -0.12357,-0.15482 -0.125,-0.15625 -0.0014,-0.0014 -0.154689,-0.123714 -0.15625,-0.125 -0.0016,-0.0013 -0.154573,-0.123871 -0.15625,-0.125 -0.0017,-0.0011 -0.185722,-0.09279 -0.1875,-0.09375 -0.0018,-9.63e-4 -0.154387,-0.09296 -0.15625,-0.09375 -0.0019,-7.87e-4 -0.18557,-0.0619 -0.1875,-0.0625 -0.0019,-6.04e-4 -0.216771,-0.062084 -0.21875,-0.0625 -0.002,-4.157e-4 -0.18549,-0.031027 -0.1875,-0.03125 -0.002,-2.233e-4 -0.216728,2.89e-5 -0.21875,0 l -1.90625,0 C 58.092689,9.9373918 58.001065,9.9063042 58,9.90625 c -0.0011,-5.42e-5 -0.123934,0 -0.125,0 -0.0011,0 -0.09269,-5.42e-5 -0.09375,0 -0.0011,5.42e-5 -0.09269,0.031142 -0.09375,0.03125 a 1.0151723,1.0151723 0 0 0 -0.125,0 C 57.5608,9.9378878 57.376703,9.999465 57.375,10 c -0.0017,5.34e-4 -0.154599,0.06182 -0.15625,0.0625 -0.0017,6.77e-4 -0.154662,0.06169 -0.15625,0.0625 -0.0016,8.15e-4 -0.154737,0.0928 -0.15625,0.09375 -0.0015,9.47e-4 -0.154823,0.09268 -0.15625,0.09375 -0.0014,0.0011 -0.123669,0.12381 -0.125,0.125 -0.0013,0.0012 -0.123775,0.123702 -0.125,0.125 -0.0012,0.0013 -0.12389,0.123602 -0.125,0.125 -0.0011,0.0014 -0.09276,0.154763 -0.09375,0.15625 -9.87e-4,0.0015 -0.09289,0.154684 -0.09375,0.15625 -8.57e-4,0.0016 -0.09303,0.154617 -0.09375,0.15625 -7.21e-4,0.0016 -0.06192,0.154562 -0.0625,0.15625 -5.8e-4,0.0017 -0.03082,0.154519 -0.03125,0.15625 -0.01076,-0.0412 -0.03099,-0.09291 -0.03125,-0.09375 -6.04e-4,-0.0019 -0.06171,-0.185637 -0.0625,-0.1875 -7.87e-4,-0.0019 -0.09279,-0.154472 -0.09375,-0.15625 -9.63e-4,-0.0018 -0.09262,-0.185823 -0.09375,-0.1875 -0.0011,-0.0017 -0.123714,-0.154689 -0.125,-0.15625 -0.0013,-0.0016 -0.12357,-0.15482 -0.125,-0.15625 -0.0014,-0.0014 -0.154689,-0.123714 -0.15625,-0.125 -0.0016,-0.0013 -0.154573,-0.123871 -0.15625,-0.125 -0.0017,-0.0011 -0.185722,-0.09279 -0.1875,-0.09375 -0.0018,-9.63e-4 -0.154387,-0.09296 -0.15625,-0.09375 -0.0019,-7.87e-4 -0.18557,-0.0619 -0.1875,-0.0625 -0.0019,-6.04e-4 -0.216771,-0.062084 -0.21875,-0.0625 -0.002,-4.157e-4 -0.18549,-0.031027 -0.1875,-0.03125 -0.002,-2.233e-4 -0.216728,2.89e-5 -0.21875,0 l -1.90625,0 C 52.092689,9.9373918 52.001065,9.9063042 52,9.90625 c -0.0011,-5.42e-5 -0.123934,0 -0.125,0 -0.0011,0 -0.09269,-5.42e-5 -0.09375,0 -0.0011,5.42e-5 -0.09269,0.031142 -0.09375,0.03125 a 1.0151723,1.0151723 0 0 0 -0.125,0 C 51.5608,9.9378878 51.376703,9.999465 51.375,10 c -0.0017,5.34e-4 -0.154599,0.06182 -0.15625,0.0625 -0.0017,6.77e-4 -0.154662,0.06169 -0.15625,0.0625 -0.0016,8.15e-4 -0.154737,0.0928 -0.15625,0.09375 -0.0015,9.47e-4 -0.154823,0.09268 -0.15625,0.09375 -0.0014,0.0011 -0.123669,0.12381 -0.125,0.125 -0.0013,0.0012 -0.123775,0.123702 -0.125,0.125 -0.0012,0.0013 -0.12389,0.123602 -0.125,0.125 -0.0011,0.0014 -0.09276,0.154763 -0.09375,0.15625 -9.87e-4,0.0015 -0.09289,0.154684 -0.09375,0.15625 -8.57e-4,0.0016 -0.09303,0.154617 -0.09375,0.15625 -7.21e-4,0.0016 -0.06192,0.154562 -0.0625,0.15625 -5.8e-4,0.0017 -0.03082,0.154519 -0.03125,0.15625 -0.01076,-0.0412 -0.03099,-0.09291 -0.03125,-0.09375 -6.04e-4,-0.0019 -0.06171,-0.185637 -0.0625,-0.1875 -7.87e-4,-0.0019 -0.09279,-0.154472 -0.09375,-0.15625 -9.63e-4,-0.0018 -0.09262,-0.185823 -0.09375,-0.1875 -0.0011,-0.0017 -0.123714,-0.154689 -0.125,-0.15625 -0.0013,-0.0016 -0.12357,-0.15482 -0.125,-0.15625 -0.0014,-0.0014 -0.154689,-0.123714 -0.15625,-0.125 -0.0016,-0.0013 -0.154573,-0.123871 -0.15625,-0.125 -0.0017,-0.0011 -0.185722,-0.09279 -0.1875,-0.09375 -0.0018,-9.63e-4 -0.154387,-0.09296 -0.15625,-0.09375 -0.0019,-7.87e-4 -0.18557,-0.0619 -0.1875,-0.0625 -0.0019,-6.04e-4 -0.216771,-0.062084 -0.21875,-0.0625 -0.002,-4.157e-4 -0.18549,-0.031027 -0.1875,-0.03125 -0.002,-2.233e-4 -0.216728,2.89e-5 -0.21875,0 l -1.90625,0 C 46.092689,9.9373918 46.001065,9.9063042 46,9.90625 c -0.0011,-5.42e-5 -0.123934,0 -0.125,0 -0.0011,0 -0.09269,-5.42e-5 -0.09375,0 -0.0011,5.42e-5 -0.09269,0.031142 -0.09375,0.03125 a 1.0151723,1.0151723 0 0 0 -0.125,0 C 45.5608,9.9378878 45.376703,9.999465 45.375,10 c -0.0017,5.34e-4 -0.154599,0.06182 -0.15625,0.0625 -0.0017,6.77e-4 -0.154662,0.06169 -0.15625,0.0625 -0.0016,8.15e-4 -0.154737,0.0928 -0.15625,0.09375 -0.0015,9.47e-4 -0.154823,0.09268 -0.15625,0.09375 -0.0014,0.0011 -0.123669,0.12381 -0.125,0.125 -0.0013,0.0012 -0.123775,0.123702 -0.125,0.125 -0.0012,0.0013 -0.12389,0.123602 -0.125,0.125 -0.0011,0.0014 -0.09276,0.154763 -0.09375,0.15625 -9.87e-4,0.0015 -0.09289,0.154684 -0.09375,0.15625 -8.57e-4,0.0016 -0.09303,0.154617 -0.09375,0.15625 -7.21e-4,0.0016 -0.06192,0.154562 -0.0625,0.15625 -5.8e-4,0.0017 -0.03082,0.154519 -0.03125,0.15625 -0.01076,-0.0412 -0.03099,-0.09291 -0.03125,-0.09375 -6.04e-4,-0.0019 -0.06171,-0.185637 -0.0625,-0.1875 -7.87e-4,-0.0019 -0.09279,-0.154472 -0.09375,-0.15625 -9.63e-4,-0.0018 -0.09262,-0.185823 -0.09375,-0.1875 -0.0011,-0.0017 -0.123714,-0.154689 -0.125,-0.15625 -0.0013,-0.0016 -0.12357,-0.15482 -0.125,-0.15625 -0.0014,-0.0014 -0.154689,-0.123714 -0.15625,-0.125 -0.0016,-0.0013 -0.154573,-0.123871 -0.15625,-0.125 -0.0017,-0.0011 -0.185722,-0.09279 -0.1875,-0.09375 -0.0018,-9.63e-4 -0.154387,-0.09296 -0.15625,-0.09375 -0.0019,-7.87e-4 -0.18557,-0.0619 -0.1875,-0.0625 -0.0019,-6.04e-4 -0.216771,-0.062084 -0.21875,-0.0625 -0.002,-4.157e-4 -0.18549,-0.031027 -0.1875,-0.03125 -0.002,-2.233e-4 -0.216728,2.89e-5 -0.21875,0 l -1.90625,0 C 40.092689,9.9373918 40.001065,9.9063042 40,9.90625 c -0.0011,-5.42e-5 -0.123934,0 -0.125,0 -0.0011,0 -0.09269,-5.42e-5 -0.09375,0 -0.0011,5.42e-5 -0.09269,0.031142 -0.09375,0.03125 a 1.0151723,1.0151723 0 0 0 -0.125,0 C 39.5608,9.9378878 39.376703,9.999465 39.375,10 c -0.0017,5.34e-4 -0.154599,0.06182 -0.15625,0.0625 -0.0017,6.77e-4 -0.154662,0.06169 -0.15625,0.0625 -0.0016,8.15e-4 -0.154737,0.0928 -0.15625,0.09375 -0.0015,9.47e-4 -0.154823,0.09268 -0.15625,0.09375 -0.0014,0.0011 -0.123669,0.12381 -0.125,0.125 -0.0013,0.0012 -0.123775,0.123702 -0.125,0.125 -0.0012,0.0013 -0.12389,0.123602 -0.125,0.125 -0.0011,0.0014 -0.09276,0.154763 -0.09375,0.15625 -9.87e-4,0.0015 -0.09289,0.154684 -0.09375,0.15625 -8.57e-4,0.0016 -0.09303,0.154617 -0.09375,0.15625 -7.21e-4,0.0016 -0.06192,0.154562 -0.0625,0.15625 -5.8e-4,0.0017 -0.03082,0.154519 -0.03125,0.15625 -0.01076,-0.0412 -0.03099,-0.09291 -0.03125,-0.09375 -6.04e-4,-0.0019 -0.06171,-0.185637 -0.0625,-0.1875 -7.87e-4,-0.0019 -0.09279,-0.154472 -0.09375,-0.15625 -9.63e-4,-0.0018 -0.09262,-0.185823 -0.09375,-0.1875 -0.0011,-0.0017 -0.123714,-0.154689 -0.125,-0.15625 -0.0013,-0.0016 -0.12357,-0.15482 -0.125,-0.15625 -0.0014,-0.0014 -0.154689,-0.123714 -0.15625,-0.125 -0.0016,-0.0013 -0.154573,-0.123871 -0.15625,-0.125 -0.0017,-0.0011 -0.185722,-0.09279 -0.1875,-0.09375 -0.0018,-9.63e-4 -0.154387,-0.09296 -0.15625,-0.09375 -0.0019,-7.87e-4 -0.18557,-0.0619 -0.1875,-0.0625 -0.0019,-6.04e-4 -0.216771,-0.062084 -0.21875,-0.0625 -0.002,-4.157e-4 -0.18549,-0.031027 -0.1875,-0.03125 -0.002,-2.233e-4 -0.216728,2.89e-5 -0.21875,0 l -1.90625,0 C 34.092689,9.9373918 34.001065,9.9063042 34,9.90625 c -0.0011,-5.42e-5 -0.123934,0 -0.125,0 -0.0011,0 -0.09269,-5.42e-5 -0.09375,0 -0.0011,5.42e-5 -0.09269,0.031142 -0.09375,0.03125 a 1.0151723,1.0151723 0 0 0 -0.125,0 C 33.5608,9.9378878 33.376703,9.999465 33.375,10 c -0.0017,5.34e-4 -0.154599,0.06182 -0.15625,0.0625 -0.0017,6.77e-4 -0.154662,0.06169 -0.15625,0.0625 -0.0016,8.15e-4 -0.154737,0.0928 -0.15625,0.09375 -0.0015,9.47e-4 -0.154823,0.09268 -0.15625,0.09375 -0.0014,0.0011 -0.123669,0.12381 -0.125,0.125 -0.0013,0.0012 -0.123775,0.123702 -0.125,0.125 -0.0012,0.0013 -0.12389,0.123602 -0.125,0.125 -0.0011,0.0014 -0.09276,0.154763 -0.09375,0.15625 -9.87e-4,0.0015 -0.09289,0.154684 -0.09375,0.15625 -8.57e-4,0.0016 -0.09303,0.154617 -0.09375,0.15625 -7.21e-4,0.0016 -0.06192,0.154562 -0.0625,0.15625 -5.8e-4,0.0017 -0.03082,0.154519 -0.03125,0.15625 -0.01076,-0.0412 -0.03099,-0.09291 -0.03125,-0.09375 -6.04e-4,-0.0019 -0.06171,-0.185637 -0.0625,-0.1875 -7.87e-4,-0.0019 -0.09279,-0.154472 -0.09375,-0.15625 -9.63e-4,-0.0018 -0.09262,-0.185823 -0.09375,-0.1875 -0.0011,-0.0017 -0.123714,-0.154689 -0.125,-0.15625 -0.0013,-0.0016 -0.12357,-0.15482 -0.125,-0.15625 -0.0014,-0.0014 -0.154689,-0.123714 -0.15625,-0.125 -0.0016,-0.0013 -0.154573,-0.123871 -0.15625,-0.125 -0.0017,-0.0011 -0.185722,-0.09279 -0.1875,-0.09375 -0.0018,-9.63e-4 -0.154387,-0.09296 -0.15625,-0.09375 -0.0019,-7.87e-4 -0.18557,-0.0619 -0.1875,-0.0625 -0.0019,-6.04e-4 -0.216771,-0.062084 -0.21875,-0.0625 -0.002,-4.157e-4 -0.18549,-0.031027 -0.1875,-0.03125 -0.002,-2.233e-4 -0.216728,2.89e-5 -0.21875,0 l -1.90625,0 C 28.092689,9.9373918 28.001065,9.9063042 28,9.90625 c -0.0011,-5.42e-5 -0.123934,0 -0.125,0 -0.0011,0 -0.09268,-5.42e-5 -0.09375,0 -0.0011,5.42e-5 -0.09269,0.031142 -0.09375,0.03125 a 1.0151723,1.0151723 0 0 0 -0.125,0 C 27.5608,9.9378878 27.376703,9.999465 27.375,10 c -0.0017,5.34e-4 -0.154599,0.06182 -0.15625,0.0625 -0.0017,6.77e-4 -0.154662,0.06169 -0.15625,0.0625 -0.0016,8.15e-4 -0.154737,0.0928 -0.15625,0.09375 -0.0015,9.47e-4 -0.154823,0.09268 -0.15625,0.09375 -0.0014,0.0011 -0.123669,0.12381 -0.125,0.125 -0.0013,0.0012 -0.123775,0.123702 -0.125,0.125 -0.0012,0.0013 -0.12389,0.123602 -0.125,0.125 -0.0011,0.0014 -0.09276,0.154763 -0.09375,0.15625 -9.87e-4,0.0015 -0.09289,0.154684 -0.09375,0.15625 -8.57e-4,0.0016 -0.09303,0.154617 -0.09375,0.15625 -7.21e-4,0.0016 -0.06192,0.154562 -0.0625,0.15625 -5.8e-4,0.0017 -0.03082,0.154519 -0.03125,0.15625 -0.01076,-0.0412 -0.03099,-0.09291 -0.03125,-0.09375 -6.04e-4,-0.0019 -0.06171,-0.185637 -0.0625,-0.1875 -7.87e-4,-0.0019 -0.09279,-0.154472 -0.09375,-0.15625 -9.63e-4,-0.0018 -0.09262,-0.185823 -0.09375,-0.1875 -0.0011,-0.0017 -0.123714,-0.154689 -0.125,-0.15625 -0.0013,-0.0016 -0.12357,-0.15482 -0.125,-0.15625 -0.0014,-0.0014 -0.154689,-0.123714 -0.15625,-0.125 -0.0016,-0.0013 -0.154573,-0.123871 -0.15625,-0.125 -0.0017,-0.0011 -0.185722,-0.09279 -0.1875,-0.09375 -0.0018,-9.63e-4 -0.154387,-0.09296 -0.15625,-0.09375 -0.0019,-7.87e-4 -0.18557,-0.0619 -0.1875,-0.0625 -0.0019,-6.04e-4 -0.216771,-0.062084 -0.21875,-0.0625 -0.002,-4.157e-4 -0.18549,-0.031027 -0.1875,-0.03125 -0.002,-2.233e-4 -0.216728,2.89e-5 -0.21875,0 l -1.90625,0 C 22.092689,9.9373918 22.001065,9.9063042 22,9.90625 c -0.0011,-5.42e-5 -0.123934,0 -0.125,0 -0.0011,0 -0.09268,-5.42e-5 -0.09375,0 -0.0011,5.42e-5 -0.09269,0.031142 -0.09375,0.03125 a 1.0151723,1.0151723 0 0 0 -0.125,0 C 21.5608,9.9378878 21.376703,9.999465 21.375,10 c -0.0017,5.34e-4 -0.154599,0.06182 -0.15625,0.0625 -0.0017,6.77e-4 -0.154662,0.06169 -0.15625,0.0625 -0.0016,8.15e-4 -0.154737,0.0928 -0.15625,0.09375 -0.0015,9.47e-4 -0.154823,0.09268 -0.15625,0.09375 -0.0014,0.0011 -0.123669,0.12381 -0.125,0.125 -0.0013,0.0012 -0.123775,0.123702 -0.125,0.125 -0.0012,0.0013 -0.12389,0.123602 -0.125,0.125 -0.0011,0.0014 -0.09276,0.154763 -0.09375,0.15625 -9.87e-4,0.0015 -0.09289,0.154684 -0.09375,0.15625 -8.57e-4,0.0016 -0.09303,0.154617 -0.09375,0.15625 -7.21e-4,0.0016 -0.06192,0.154562 -0.0625,0.15625 -5.8e-4,0.0017 -0.03082,0.154519 -0.03125,0.15625 -0.01076,-0.0412 -0.03099,-0.09291 -0.03125,-0.09375 -6.04e-4,-0.0019 -0.06171,-0.185637 -0.0625,-0.1875 -7.87e-4,-0.0019 -0.09279,-0.154472 -0.09375,-0.15625 -9.63e-4,-0.0018 -0.09262,-0.185823 -0.09375,-0.1875 -0.0011,-0.0017 -0.123714,-0.154689 -0.125,-0.15625 -0.0013,-0.0016 -0.12357,-0.15482 -0.125,-0.15625 -0.0014,-0.0014 -0.154689,-0.123714 -0.15625,-0.125 -0.0016,-0.0013 -0.154573,-0.123871 -0.15625,-0.125 -0.0017,-0.0011 -0.185722,-0.09279 -0.1875,-0.09375 -0.0018,-9.63e-4 -0.154387,-0.09296 -0.15625,-0.09375 -0.0019,-7.87e-4 -0.18557,-0.0619 -0.1875,-0.0625 -0.0019,-6.04e-4 -0.216771,-0.062084 -0.21875,-0.0625 -0.002,-4.157e-4 -0.18549,-0.031027 -0.1875,-0.03125 -0.002,-2.233e-4 -0.216728,2.89e-5 -0.21875,0 l -1.90625,0 C 16.092689,9.9373918 16.001065,9.9063042 16,9.90625 c -0.0011,-5.42e-5 -0.123934,0 -0.125,0 -0.0011,0 -0.09268,-5.42e-5 -0.09375,0 z M 75.65625,38.5 c -0.0011,5.4e-5 -0.09269,0.03114 -0.09375,0.03125 a 1.0151723,1.0151723 0 0 0 -0.09375,0 L 71.78125,39.25 a 1.0151723,1.0151723 0 0 0 -0.03125,0 c -0.0017,3.88e-4 -0.185797,0.06197 -0.1875,0.0625 -0.0017,5.34e-4 -0.154599,0.06182 -0.15625,0.0625 -0.0017,6.77e-4 -0.154662,0.06168 -0.15625,0.0625 -0.0016,8.15e-4 -0.154737,0.0928 -0.15625,0.09375 -0.0015,9.47e-4 -0.154823,0.09268 -0.15625,0.09375 -0.0014,0.0011 -0.123669,0.12381 -0.125,0.125 -0.0013,0.0012 -0.123775,0.123702 -0.125,0.125 -0.0012,0.0013 -0.12389,0.123602 -0.125,0.125 -0.0011,0.0014 -0.09276,0.154763 -0.09375,0.15625 -9.87e-4,0.0015 -0.09289,0.154684 -0.09375,0.15625 -8.57e-4,0.0016 -0.09303,0.154617 -0.09375,0.15625 -7.21e-4,0.0016 -0.06192,0.154562 -0.0625,0.15625 -5.8e-4,0.0017 -0.03082,0.154519 -0.03125,0.15625 -4.34e-4,0.0017 -0.06221,0.185738 -0.0625,0.1875 -2.86e-4,0.0018 1.35e-4,0.18572 0,0.1875 -1.35e-4,0.0018 -1.7e-5,0.154465 0,0.15625 l 0,1.90625 c -4e-6,0.0012 -6e-5,0.123845 0,0.125 6e-5,0.0012 -1.23e-4,0.0926 0,0.09375 1.23e-4,0.0012 -1.86e-4,0.123859 0,0.125 1.86e-4,0.0011 0.031,0.123871 0.03125,0.125 2.49e-4,0.0011 0.03094,0.09264 0.03125,0.09375 3.11e-4,0.0011 0.03088,0.123905 0.03125,0.125 3.72e-4,0.0011 0.03082,0.09268 0.03125,0.09375 4.31e-4,0.0011 0.06201,0.0927 0.0625,0.09375 4.9e-4,10e-4 0.0307,0.123981 0.03125,0.125 5.47e-4,10e-4 0.0619,0.09276 0.0625,0.09375 6.02e-4,9.87e-4 0.06184,0.0928 0.0625,0.09375 6.56e-4,9.53e-4 0.06179,0.09284 0.0625,0.09375 7.07e-4,9.15e-4 0.09299,0.09287 0.09375,0.09375 7.57e-4,8.75e-4 0.0617,0.09292 0.0625,0.09375 8.04e-4,8.32e-4 0.0929,0.06171 0.09375,0.0625 8.48e-4,7.86e-4 0.09286,0.09301 0.09375,0.09375 8.9e-4,7.38e-4 0.09282,0.06181 0.09375,0.0625 9.3e-4,6.88e-4 0.09278,0.06186 0.09375,0.0625 9.66e-4,6.36e-4 0.09275,0.06192 0.09375,0.0625 0.001,5.82e-4 0.09272,0.06197 0.09375,0.0625 0.001,5.26e-4 0.09269,0.03078 0.09375,0.03125 0.0011,4.68e-4 0.123918,0.06209 0.125,0.0625 0.0011,4.09e-4 0.09265,0.0309 0.09375,0.03125 0.0011,3.49e-4 0.12388,0.03096 0.125,0.03125 0.0011,2.88e-4 0.09262,0.03102 0.09375,0.03125 0.0011,2.25e-4 0.123855,-1.63e-4 0.125,0 0.0011,1.63e-4 0.123848,0.03115 0.125,0.03125 0.0012,9.9e-5 0.09259,-3.6e-5 0.09375,0 0.0012,3.6e-5 0.123844,2.8e-5 0.125,0 0.0012,-2.8e-5 0.123847,9.2e-5 0.125,0 0.0012,-9.2e-5 0.0926,-0.0311 0.09375,-0.03125 0.0011,-1.55e-4 0.123864,2.18e-4 0.125,0 a 1.0151723,1.0151723 0 0 0 0.03125,0 l 1.21875,-0.25 0,7.15625 -1.34375,0 c -0.002,2.9e-5 -0.21674,-2.23e-4 -0.21875,0 -0.002,2.23e-4 -0.185521,0.03083 -0.1875,0.03125 -0.002,4.16e-4 -0.21682,0.0619 -0.21875,0.0625 -0.0019,6.04e-4 -0.185637,0.06171 -0.1875,0.0625 -0.0019,7.87e-4 -0.154472,0.09279 -0.15625,0.09375 -0.0018,9.63e-4 -0.185823,0.09262 -0.1875,0.09375 -0.0017,0.0011 -0.154689,0.123714 -0.15625,0.125 -0.0016,0.0013 -0.15482,0.12357 -0.15625,0.125 -0.0014,0.0014 -0.123714,0.154689 -0.125,0.15625 -0.0013,0.0016 -0.123871,0.154573 -0.125,0.15625 -0.0011,0.0017 -0.09279,0.185722 -0.09375,0.1875 -9.63e-4,0.0018 -0.09296,0.154387 -0.09375,0.15625 -7.87e-4,0.0019 -0.0619,0.18557 -0.0625,0.1875 -6.04e-4,0.0019 -0.06208,0.216771 -0.0625,0.21875 -4.16e-4,0.002 -0.03103,0.18549 -0.03125,0.1875 -2.23e-4,0.002 2.9e-5,0.216728 0,0.21875 l 0,1.75 c 2.9e-5,0.002 -2.23e-4,0.21674 0,0.21875 2.23e-4,0.002 0.03083,0.185521 0.03125,0.1875 4.16e-4,0.002 0.0619,0.21682 0.0625,0.21875 6.04e-4,0.0019 0.06171,0.185637 0.0625,0.1875 7.87e-4,0.0019 0.09279,0.154472 0.09375,0.15625 9.63e-4,0.0018 0.09262,0.185823 0.09375,0.1875 0.0011,0.0017 0.123714,0.154689 0.125,0.15625 0.0013,0.0016 0.12357,0.15482 0.125,0.15625 0.0014,0.0014 0.154689,0.123714 0.15625,0.125 0.0016,0.0013 0.154573,0.123871 0.15625,0.125 0.0017,0.0011 0.185722,0.09279 0.1875,0.09375 0.0018,9.63e-4 0.154387,0.09296 0.15625,0.09375 0.0019,7.87e-4 0.18557,0.0619 0.1875,0.0625 0.0019,6.04e-4 0.216771,0.06208 0.21875,0.0625 0.002,4.16e-4 0.18549,0.03103 0.1875,0.03125 0.002,2.23e-4 0.216728,-2.9e-5 0.21875,0 l 8.875,0 c 0.002,-2.9e-5 0.21674,2.23e-4 0.21875,0 0.002,-2.23e-4 0.185521,-0.03083 0.1875,-0.03125 0.002,-4.16e-4 0.21682,-0.0619 0.21875,-0.0625 0.0019,-6.04e-4 0.185637,-0.06171 0.1875,-0.0625 0.0019,-7.87e-4 0.154472,-0.09279 0.15625,-0.09375 0.0018,-9.63e-4 0.185823,-0.09262 0.1875,-0.09375 0.0017,-0.0011 0.154689,-0.123714 0.15625,-0.125 0.0016,-0.0013 0.15482,-0.12357 0.15625,-0.125 0.0014,-0.0014 0.123714,-0.154689 0.125,-0.15625 0.0013,-0.0016 0.123871,-0.154573 0.125,-0.15625 0.0011,-0.0017 0.09279,-0.185722 0.09375,-0.1875 9.63e-4,-0.0018 0.09296,-0.154387 0.09375,-0.15625 7.87e-4,-0.0019 0.0619,-0.18557 0.0625,-0.1875 6.04e-4,-0.0019 0.06208,-0.216771 0.0625,-0.21875 4.16e-4,-0.002 0.03103,-0.18549 0.03125,-0.1875 2.23e-4,-0.002 -2.9e-5,-0.216728 0,-0.21875 l 0,-1.75 c -2.9e-5,-0.002 2.23e-4,-0.21674 0,-0.21875 -2.23e-4,-0.002 -0.03083,-0.185521 -0.03125,-0.1875 -4.16e-4,-0.002 -0.0619,-0.21682 -0.0625,-0.21875 -6.04e-4,-0.0019 -0.06171,-0.185637 -0.0625,-0.1875 -7.87e-4,-0.0019 -0.09279,-0.154472 -0.09375,-0.15625 -9.63e-4,-0.0018 -0.09262,-0.185823 -0.09375,-0.1875 -0.0011,-0.0017 -0.123714,-0.154689 -0.125,-0.15625 -0.0013,-0.0016 -0.12357,-0.15482 -0.125,-0.15625 -0.0014,-0.0014 -0.154689,-0.123714 -0.15625,-0.125 -0.0016,-0.0013 -0.154573,-0.123871 -0.15625,-0.125 -0.0017,-0.0011 -0.185722,-0.09279 -0.1875,-0.09375 -0.0018,-9.63e-4 -0.154387,-0.09296 -0.15625,-0.09375 -0.0019,-7.87e-4 -0.18557,-0.0619 -0.1875,-0.0625 -0.0019,-6.04e-4 -0.216771,-0.06208 -0.21875,-0.0625 -0.002,-4.16e-4 -0.18549,-0.03103 -0.1875,-0.03125 -0.002,-2.23e-4 -0.216728,2.9e-5 -0.21875,0 l -1.34375,0 0,-11.59375 c -2.9e-5,-0.002 2.23e-4,-0.21674 0,-0.21875 C 80.031027,40.373 80.00042,40.189479 80,40.1875 c -4.16e-4,-0.002 -0.0619,-0.21682 -0.0625,-0.21875 -6.04e-4,-0.0019 -0.06171,-0.185637 -0.0625,-0.1875 -7.87e-4,-0.0019 -0.09279,-0.154472 -0.09375,-0.15625 -9.63e-4,-0.0018 -0.09262,-0.185823 -0.09375,-0.1875 -0.0011,-0.0017 -0.123714,-0.154689 -0.125,-0.15625 C 79.5612,39.27965 79.43893,39.12643 79.4375,39.125 79.4361,39.1236 79.282811,39.001286 79.28125,39 79.27965,38.9987 79.126677,38.876129 79.125,38.875 c -0.0017,-0.0011 -0.185722,-0.09279 -0.1875,-0.09375 -0.0018,-9.63e-4 -0.154387,-0.09296 -0.15625,-0.09375 -0.0019,-7.87e-4 -0.18557,-0.0619 -0.1875,-0.0625 -0.0019,-6.04e-4 -0.216771,-0.06208 -0.21875,-0.0625 -0.002,-4.16e-4 -0.18549,-0.03103 -0.1875,-0.03125 -0.002,-2.23e-4 -0.216728,2.9e-5 -0.21875,0 l -2,0 C 75.96765,38.531142 75.87606,38.50005 75.875,38.5 c -0.0011,-5.4e-5 -0.123934,0 -0.125,0 -0.0011,0 -0.09269,-5.4e-5 -0.09375,0 z m -58.9375,5.21875 c 0.253925,3e-6 0.265688,0.0516 0.28125,0.0625 0.01556,0.0109 0.11317,0.10566 0.28125,0.4375 0.27719,0.536851 0.624991,1.85442 0.625,3.78125 -9e-6,1.918817 -0.352314,3.280927 -0.625,3.8125 C 17.115143,52.138321 17.007044,52.245227 17,52.25 c -0.007,0.0048 -0.0084,0.03125 -0.28125,0.03125 -0.275738,0 -0.256746,-0.03593 -0.25,-0.03125 0.0067,0.0047 -0.10275,-0.09179 -0.28125,-0.4375 -0.276474,-0.545853 -0.625003,-1.896825 -0.625,-3.8125 -3e-6,-1.923696 0.344112,-3.230275 0.625,-3.78125 0.180368,-0.351603 0.278769,-0.46697 0.28125,-0.46875 0.0025,-0.0018 -0.0067,-0.03125 0.25,-0.03125 z"
         id="path3888"
         style="opacity:0.05;color:#000000;fill:#ffffff;fill-opacity:1;fill-rule:nonzero;stroke:none;stroke-width:1.5;marker:none;visibility:visible;display:inline;overflow:visible;enable-background:accumulate" />
      <path
         inkscape:connector-curvature="0"
         d="M 15.78125,10.9375 A 1.0780094,1.0780094 0 0 0 14.9375,12 l 0,24 A 1.0780094,1.0780094 0 0 0 16,37.0625 l 2,0 A 1.0780094,1.0780094 0 0 0 19.0625,36 l 0,-24 A 1.0780094,1.0780094 0 0 0 18,10.9375 l -2,0 a 1.0780094,1.0780094 0 0 0 -0.21875,0 z m 6,0 A 1.0780094,1.0780094 0 0 0 20.9375,12 l 0,12 A 1.0780094,1.0780094 0 0 0 22,25.0625 l 2,0 A 1.0780094,1.0780094 0 0 0 25.0625,24 l 0,-12 A 1.0780094,1.0780094 0 0 0 24,10.9375 l -2,0 a 1.0780094,1.0780094 0 0 0 -0.21875,0 z m 6,0 A 1.0780094,1.0780094 0 0 0 26.9375,12 l 0,12 A 1.0780094,1.0780094 0 0 0 28,25.0625 l 2,0 A 1.0780094,1.0780094 0 0 0 31.0625,24 l 0,-12 A 1.0780094,1.0780094 0 0 0 30,10.9375 l -2,0 a 1.0780094,1.0780094 0 0 0 -0.21875,0 z m 6,0 A 1.0780094,1.0780094 0 0 0 32.9375,12 l 0,12 A 1.0780094,1.0780094 0 0 0 34,25.0625 l 2,0 A 1.0780094,1.0780094 0 0 0 37.0625,24 l 0,-12 A 1.0780094,1.0780094 0 0 0 36,10.9375 l -2,0 a 1.0780094,1.0780094 0 0 0 -0.21875,0 z m 6,0 A 1.0780094,1.0780094 0 0 0 38.9375,12 l 0,12 A 1.0780094,1.0780094 0 0 0 40,25.0625 l 2,0 A 1.0780094,1.0780094 0 0 0 43.0625,24 l 0,-12 A 1.0780094,1.0780094 0 0 0 42,10.9375 l -2,0 a 1.0780094,1.0780094 0 0 0 -0.21875,0 z m 6,0 A 1.0780094,1.0780094 0 0 0 44.9375,12 l 0,18 A 1.0780094,1.0780094 0 0 0 46,31.0625 l 2,0 A 1.0780094,1.0780094 0 0 0 49.0625,30 l 0,-18 A 1.0780094,1.0780094 0 0 0 48,10.9375 l -2,0 a 1.0780094,1.0780094 0 0 0 -0.21875,0 z m 6,0 A 1.0780094,1.0780094 0 0 0 50.9375,12 l 0,12 A 1.0780094,1.0780094 0 0 0 52,25.0625 l 2,0 A 1.0780094,1.0780094 0 0 0 55.0625,24 l 0,-12 A 1.0780094,1.0780094 0 0 0 54,10.9375 l -2,0 a 1.0780094,1.0780094 0 0 0 -0.21875,0 z m 6,0 A 1.0780094,1.0780094 0 0 0 56.9375,12 l 0,12 A 1.0780094,1.0780094 0 0 0 58,25.0625 l 2,0 A 1.0780094,1.0780094 0 0 0 61.0625,24 l 0,-12 A 1.0780094,1.0780094 0 0 0 60,10.9375 l -2,0 a 1.0780094,1.0780094 0 0 0 -0.21875,0 z m 6,0 A 1.0780094,1.0780094 0 0 0 62.9375,12 l 0,12 A 1.0780094,1.0780094 0 0 0 64,25.0625 l 2,0 A 1.0780094,1.0780094 0 0 0 67.0625,24 l 0,-12 A 1.0780094,1.0780094 0 0 0 66,10.9375 l -2,0 a 1.0780094,1.0780094 0 0 0 -0.21875,0 z m 6,0 A 1.0780094,1.0780094 0 0 0 68.9375,12 l 0,12 A 1.0780094,1.0780094 0 0 0 70,25.0625 l 2,0 A 1.0780094,1.0780094 0 0 0 73.0625,24 l 0,-12 A 1.0780094,1.0780094 0 0 0 72,10.9375 l -2,0 a 1.0780094,1.0780094 0 0 0 -0.21875,0 z m 6,0 A 1.0780094,1.0780094 0 0 0 74.9375,12 l 0,24 A 1.0780094,1.0780094 0 0 0 76,37.0625 l 2,0 A 1.0780094,1.0780094 0 0 0 79.0625,36 l 0,-24 A 1.0780094,1.0780094 0 0 0 78,10.9375 l -2,0 a 1.0780094,1.0780094 0 0 0 -0.21875,0 z m 6,0 A 1.0780094,1.0780094 0 0 0 80.9375,12 l 0,12 A 1.0780094,1.0780094 0 0 0 82,25.0625 l 2,0 A 1.0780094,1.0780094 0 0 0 85.0625,24 l 0,-12 A 1.0780094,1.0780094 0 0 0 84,10.9375 l -2,0 a 1.0780094,1.0780094 0 0 0 -0.21875,0 z m -65.0625,28 c -2.016192,1.9e-5 -3.785548,0.901179 -4.875,2.53125 -1.086934,1.630411 -1.500001,3.808262 -1.5,6.53125 -10e-7,2.716435 0.411184,4.921034 1.5,6.5625 1.093231,1.627523 2.868932,2.5 4.875,2.5 2.006056,0 3.786663,-0.867512 4.875,-2.5 1.092911,-1.635274 1.531237,-3.839324 1.53125,-6.5625 -1.3e-5,-2.729711 -0.440268,-4.907048 -1.53125,-6.53125 -1.084562,-1.635024 -2.85882,-2.531231 -4.875,-2.53125 z m 58.9375,0.59375 -3.6875,0.71875 A 1.0780094,1.0780094 0 0 0 71.125,41.3125 l 0,1.90625 a 1.0780094,1.0780094 0 0 0 1.28125,1.0625 l 2.4375,-0.5 0,9.40625 -2.34375,0 A 1.0780094,1.0780094 0 0 0 71.4375,54.25 l 0,1.75 A 1.0780094,1.0780094 0 0 0 72.5,57.0625 l 8.875,0 A 1.0780094,1.0780094 0 0 0 82.4375,56 l 0,-1.75 A 1.0780094,1.0780094 0 0 0 81.375,53.1875 l -2.34375,0 0,-12.59375 a 1.0780094,1.0780094 0 0 0 -1.0625,-1.0625 l -2.09375,0 a 1.0780094,1.0780094 0 0 0 -0.21875,0 z m -58.9375,3.1875 c 0.726665,9e-6 1.065433,0.23498 1.46875,1.03125 0.409364,0.792841 0.71874,2.220038 0.71875,4.25 -10e-6,2.022796 -0.310826,3.486044 -0.71875,4.28125 -0.399487,0.783598 -0.725898,1.000001 -1.46875,1 -0.733815,10e-7 -1.023258,-0.197724 -1.4375,-1 C 14.875325,51.479817 14.562497,50.020452 14.5625,48 c -3e-6,-2.027626 0.311399,-3.450962 0.71875,-4.25 0.418038,-0.814906 0.719976,-1.031241 1.4375,-1.03125 z"
         id="path3884"
         style="opacity:0.2;color:#000000;fill:#ffffff;fill-opacity:1;fill-rule:nonzero;stroke:none;stroke-width:1.5;marker:none;visibility:visible;display:inline;overflow:visible;enable-background:accumulate" />
      <path
         d="m 16,12 0,24 2,0 0,-24 -2,0 z m 6,0 0,12 2,0 0,-12 -2,0 z m 6,0 0,12 2,0 0,-12 -2,0 z m 6,0 0,12 2,0 0,-12 -2,0 z m 6,0 0,12 2,0 0,-12 -2,0 z m 6,0 0,18 2,0 0,-18 -2,0 z m 6,0 0,12 2,0 0,-12 -2,0 z m 6,0 0,12 2,0 0,-12 -2,0 z m 6,0 0,12 2,0 0,-12 -2,0 z m 6,0 0,12 2,0 0,-12 -2,0 z m 6,0 0,24 2,0 0,-24 -2,0 z m 6,0 0,12 2,0 0,-12 -2,0 z"
         inkscape:connector-curvature="0"
         id="rect3831"
         style="color:#000000;fill:url(#linearGradient3862);fill-opacity:1;fill-rule:nonzero;stroke:none;stroke-width:1.5;marker:none;visibility:visible;display:inline;overflow:visible;enable-background:accumulate" />
      <path
         d="m 16.729891,41.652679 c -1.074247,1.4e-5 -1.883371,0.530249 -2.427373,1.590704 -0.537124,1.053594 -0.805684,2.640853 -0.805681,4.761782 -3e-6,2.114058 0.268557,3.701317 0.805681,4.761782 0.544002,1.053585 1.353126,1.580375 2.427373,1.580374 1.08112,10e-7 1.890243,-0.526789 2.427372,-1.580374 0.543997,-1.060465 0.816001,-2.647724 0.816011,-4.761782 -10e-6,-2.120929 -0.272014,-3.708188 -0.816011,-4.761782 -0.537129,-1.060455 -1.346252,-1.59069 -2.427372,-1.590704 m 0,-1.652679 c 1.728418,1.6e-5 3.047117,0.685189 3.9561,2.05552 0.915849,1.363473 1.373778,3.346686 1.37379,5.949645 -1.2e-5,2.596088 -0.457941,4.579301 -1.37379,5.949645 C 19.777008,55.31827 18.458309,56 16.729891,56 15.001459,56 13.679317,55.31827 12.763461,53.95481 11.854485,52.584466 11.399999,50.601253 11.4,48.005165 c -1e-6,-2.602959 0.454485,-4.586172 1.363461,-5.949645 0.915856,-1.370331 2.237998,-2.055504 3.96643,-2.05552"
         inkscape:connector-curvature="0"
         id="path3869"
         style="font-size:21.15429306px;font-style:normal;font-variant:normal;font-weight:normal;font-stretch:normal;text-align:start;line-height:125%;letter-spacing:0px;word-spacing:0px;writing-mode:lr-tb;text-anchor:start;fill:#665400;fill-opacity:1;stroke:none;font-family:DejaVu Sans;-inkscape-font-specification:DejaVu Sans" />
      <path
         d="m 72.499548,54.244029 3.40865,0 0,-11.76501 -3.708198,0.743706 0,-1.900581 3.68754,-0.743706 2.086507,0 0,13.665591 3.408651,0 0,1.755971 -8.88315,0 0,-1.755971"
         inkscape:connector-curvature="0"
         id="path3871"
         style="font-size:21.15429306px;font-style:normal;font-variant:normal;font-weight:normal;font-stretch:normal;text-align:start;line-height:125%;letter-spacing:0px;word-spacing:0px;writing-mode:lr-tb;text-anchor:start;fill:#665400;fill-opacity:1;stroke:none;font-family:DejaVu Sans;-inkscape-font-specification:DejaVu Sans" />
    </g>
    <rect
       ry="25"
       rx="25"
       id="rect3003"
       style="opacity:0.15;fill:#ffffff;fill-opacity:1"
       height="92"
       width="92"
       y="958.36218"
       x="-96"
       clip-path="url(#clipPath3009)"
       transform="translate(98,3.8281269e-7)" />
  </g>
</svg>
