<?xml version="1.0" encoding="UTF-8" standalone="no"?>
<!-- Created with Inkscape (http://www.inkscape.org/) -->

<svg
   xmlns:dc="http://purl.org/dc/elements/1.1/"
   xmlns:cc="http://creativecommons.org/ns#"
   xmlns:rdf="http://www.w3.org/1999/02/22-rdf-syntax-ns#"
   xmlns:svg="http://www.w3.org/2000/svg"
   xmlns="http://www.w3.org/2000/svg"
   xmlns:xlink="http://www.w3.org/1999/xlink"
   xmlns:sodipodi="http://sodipodi.sourceforge.net/DTD/sodipodi-0.dtd"
   xmlns:inkscape="http://www.inkscape.org/namespaces/inkscape"
   width="96"
   height="96"
   id="svg11037"
   version="1.1"
   inkscape:version="0.48.3.1 r9886"
   sodipodi:docname="scribes.svg">
  <defs
     id="defs11039">
    <linearGradient
       y2="1046.1001"
       x2="47.999954"
       y1="962.62189"
       x1="47.999954"
       gradientTransform="matrix(1.15,0,0,1.15,-7.1999462,-150.65291)"
       gradientUnits="userSpaceOnUse"
       id="linearGradient3886"
       xlink:href="#linearGradient3795"
       inkscape:collect="always" />
    <linearGradient
       id="linearGradient3795">
      <stop
         style="stop-color:#13a6fd;stop-opacity:1;"
         offset="0"
         id="stop3797" />
      <stop
         style="stop-color:#2975b6;stop-opacity:1;"
         offset="1"
         id="stop3799" />
    </linearGradient>
    <linearGradient
       y2="1046.1001"
       x2="47.999954"
       y1="962.62189"
       x1="47.999954"
       gradientTransform="matrix(1.15,0,0,1.15,-7.1999462,-150.65292)"
       gradientUnits="userSpaceOnUse"
       id="linearGradient11642"
       xlink:href="#linearGradient3700"
       inkscape:collect="always" />
    <linearGradient
       x1="48"
       y1="90"
       x2="48"
       y2="5.9877172"
       id="linearGradient3617"
       xlink:href="#linearGradient3700"
       gradientUnits="userSpaceOnUse" />
    <linearGradient
       id="linearGradient3700">
      <stop
         id="stop3702"
         style="stop-color:#f57900;stop-opacity:1"
         offset="0" />
      <stop
         id="stop3704"
         style="stop-color:#f89d44;stop-opacity:1"
         offset="1" />
    </linearGradient>
    <linearGradient
       gradientTransform="translate(-90,960.36215)"
       y2="5.9877172"
       x2="48"
       y1="90"
       x1="48"
       gradientUnits="userSpaceOnUse"
       id="linearGradient3078"
       xlink:href="#linearGradient3700"
       inkscape:collect="always" />
    <linearGradient
       x1="102.76233"
       y1="78.680206"
       x2="142.16823"
       y2="30.335871"
       id="linearGradient3176"
       xlink:href="#linearGradient3936"
       gradientUnits="userSpaceOnUse"
       gradientTransform="matrix(0.98565429,0.16877686,-0.16877686,0.98565429,-45.008735,-15.895389)" />
    <linearGradient
       id="linearGradient3936">
      <stop
         id="stop3938"
         style="stop-color:#000000;stop-opacity:1"
         offset="0" />
      <stop
         id="stop3940"
         style="stop-color:#000000;stop-opacity:0"
         offset="1" />
    </linearGradient>
    <radialGradient
       cx="425.51019"
       cy="356.62274"
       r="143.34167"
       fx="425.51019"
       fy="356.62274"
       id="radialGradient4043"
       xlink:href="#linearGradient3294"
       gradientUnits="userSpaceOnUse"
       gradientTransform="matrix(-0.01898241,-0.01522718,0.20231986,-0.25221475,8.796203,136.45939)" />
    <linearGradient
       id="linearGradient3294">
      <stop
         id="stop3296"
         style="stop-color:#a1bfe1;stop-opacity:1"
         offset="0" />
      <stop
         id="stop3302"
         style="stop-color:#407dc1;stop-opacity:1"
         offset="0.50094414" />
      <stop
         id="stop3298"
         style="stop-color:#224367;stop-opacity:1"
         offset="1" />
    </linearGradient>
    <radialGradient
       cx="289.44067"
       cy="390.45248"
       r="17.67668"
       fx="289.44067"
       fy="390.45248"
       id="radialGradient4040"
       xlink:href="#linearGradient3202"
       gradientUnits="userSpaceOnUse"
       gradientTransform="matrix(0.07808342,0.06214543,-0.09525431,0.11968356,71.51635,-1.9903031)" />
    <linearGradient
       id="linearGradient3202">
      <stop
         id="stop3204"
         style="stop-color:#2b2b2b;stop-opacity:1"
         offset="0" />
      <stop
         id="stop3250"
         style="stop-color:#828383;stop-opacity:1"
         offset="0.5" />
      <stop
         id="stop3206"
         style="stop-color:#dadbdb;stop-opacity:1"
         offset="1" />
    </linearGradient>
    <radialGradient
       cx="283.50717"
       cy="382.14804"
       r="17.67668"
       fx="283.50717"
       fy="382.14804"
       id="radialGradient4037"
       xlink:href="#linearGradient3202"
       gradientUnits="userSpaceOnUse"
       gradientTransform="matrix(0.07808342,0.06214543,-0.09525431,0.11968356,90.619342,-23.620235)" />
    <linearGradient
       id="linearGradient3119">
      <stop
         id="stop3121"
         style="stop-color:#2b2b2b;stop-opacity:1"
         offset="0" />
      <stop
         id="stop3123"
         style="stop-color:#828383;stop-opacity:1"
         offset="0.5" />
      <stop
         id="stop3125"
         style="stop-color:#dadbdb;stop-opacity:1"
         offset="1" />
    </linearGradient>
    <radialGradient
       cx="418.45551"
       cy="181.18982"
       r="63.068935"
       fx="418.45551"
       fy="181.18982"
       id="radialGradient4034"
       xlink:href="#linearGradient3242"
       gradientUnits="userSpaceOnUse"
       gradientTransform="matrix(-0.01234502,-0.01124481,0.3176589,-0.34873903,38.557637,90.465077)" />
    <linearGradient
       id="linearGradient3242">
      <stop
         id="stop3244"
         style="stop-color:#282828;stop-opacity:1"
         offset="0" />
      <stop
         id="stop3252"
         style="stop-color:#969696;stop-opacity:1"
         offset="0.39253417" />
      <stop
         id="stop3246"
         style="stop-color:#e3e3e3;stop-opacity:1"
         offset="1" />
    </linearGradient>
    <linearGradient
       x1="103.94804"
       y1="79.295097"
       x2="134.48746"
       y2="41.356407"
       id="linearGradient3946"
       xlink:href="#linearGradient3936"
       gradientUnits="userSpaceOnUse"
       gradientTransform="matrix(0.84815852,0.52974252,-0.52974252,0.84815852,-2.1584295,-41.320509)" />
    <linearGradient
       id="linearGradient3133">
      <stop
         id="stop3135"
         style="stop-color:#000000;stop-opacity:1"
         offset="0" />
      <stop
         id="stop3137"
         style="stop-color:#000000;stop-opacity:0"
         offset="1" />
    </linearGradient>
    <clipPath
       clipPathUnits="userSpaceOnUse"
       id="clipPath3009">
      <path
         id="path3011"
         d="m -2,956.36218 -96,0 0,33.5624 96,25.68742 0,-59.24982 z"
         style="opacity:0.15;fill:#ffffff;fill-opacity:1;stroke:none"
         inkscape:connector-curvature="0" />
    </clipPath>
  </defs>
  <sodipodi:namedview
     id="base"
     pagecolor="#ffffff"
     bordercolor="#666666"
     borderopacity="1.0"
     inkscape:pageopacity="0.0"
     inkscape:pageshadow="2"
     inkscape:zoom="3.959798"
     inkscape:cx="33.538031"
     inkscape:cy="59.964634"
     inkscape:document-units="px"
     inkscape:current-layer="layer1"
     showgrid="false"
     inkscape:window-width="1280"
     inkscape:window-height="750"
     inkscape:window-x="0"
     inkscape:window-y="22"
     inkscape:window-maximized="1"
     showguides="true"
     inkscape:guide-bbox="true">
    <sodipodi:guide
       orientation="0,1"
       position="-24.748737,0"
       id="guide11064" />
    <sodipodi:guide
       orientation="0,1"
       position="-23.233509,96"
       id="guide11066" />
    <sodipodi:guide
       orientation="1,0"
       position="0,54.800776"
       id="guide11068" />
    <sodipodi:guide
       orientation="1,0"
       position="96,51.012704"
       id="guide11070" />
    <sodipodi:guide
       orientation="0,1"
       position="-18.94036,48"
       id="guide11072" />
    <sodipodi:guide
       orientation="1,0"
       position="48,79.296975"
       id="guide11074" />
    <sodipodi:guide
       orientation="1,0"
       position="2,75.508903"
       id="guide11076" />
    <sodipodi:guide
       orientation="0,1"
       position="-77.27667,2"
       id="guide11078" />
    <sodipodi:guide
       orientation="1,0"
       position="94,77.781746"
       id="guide11080" />
    <sodipodi:guide
       orientation="0,1"
       position="-65.912454,94"
       id="guide11082" />
  </sodipodi:namedview>
  <metadata
     id="metadata11042">
    <rdf:RDF>
      <cc:Work
         rdf:about="">
        <dc:format>image/svg+xml</dc:format>
        <dc:type
           rdf:resource="http://purl.org/dc/dcmitype/StillImage" />
        <dc:title />
      </cc:Work>
    </rdf:RDF>
  </metadata>
  <g
     inkscape:label="Layer 1"
     inkscape:groupmode="layer"
     id="layer1"
     transform="translate(0,-956.36218)">
    <rect
       x="2"
       y="958.36218"
       width="92"
       height="92"
       style="fill:url(#linearGradient11642);fill-opacity:1.0"
       id="rect3867"
       rx="25"
       ry="25" />
    <g
       transform="translate(1.6634587e-8,956.36218)"
       id="g3082">
      <path
         inkscape:connector-curvature="0"
         style="opacity:0.3;color:#000000;fill:#ff780b;fill-opacity:1;fill-rule:nonzero;stroke:none;stroke-width:1.5;marker:none;visibility:visible;display:inline;overflow:visible;enable-background:accumulate"
         id="path3889"
         d="M 47.9375,23.03125 C 34.29,23.146198 23.21875,34.262964 23.21875,47.9375 c 0,0.07206 -8.43e-4,0.154626 0,0.25 1.05e-4,0.01192 -1.74e-4,0.01922 0,0.03125 -0.126881,2.927839 -1.58247,4.288037 -3.09375,5.09375 -1.517243,0.808892 -3.03125,0.90625 -3.03125,0.90625 A 0.9018185,0.9018185 0 0 0 16.25,55.125 l 0,16.40625 a 0.9018185,0.9018185 0 0 0 0.90625,0.90625 c 8.761837,0 14.923763,-3.5763 18.8125,-8.125 3.888737,-4.5487 5.5625,-10.010524 5.5625,-14.03125 l 0,-2.34375 0,-0.125 0,-0.03125 c 0.09208,-3.506159 2.925238,-6.310212 6.4375,-6.40625 a 0.9018185,0.9018185 0 0 0 0.46875,-0.15625 0.9018185,0.9018185 0 0 0 0.5,0.21875 c 3.279468,0.387746 5.78125,3.108839 5.78125,6.5 0,3.614428 -2.874743,6.524906 -6.46875,6.59375 -0.03125,5.78e-4 -0.03384,0 -0.09375,0 l -6.5,0 A 0.9018185,0.9018185 0 0 0 40.75,55.4375 l 0,16.5 a 0.9018185,0.9018185 0 0 0 0.90625,0.90625 l 6.1875,0 c 0.111859,0.0013 0.222485,0 0.3125,0 13.745173,0 24.90625,-11.161075 24.90625,-24.90625 0,-13.43796 -10.67754,-24.392014 -24,-24.875 A 0.9018185,0.9018185 0 0 0 48.5,23.21875 0.9018185,0.9018185 0 0 0 47.9375,23.03125 z" />
      <path
         style="color:#000000;fill:#ffffff;fill-opacity:1;fill-rule:nonzero;stroke:none;stroke-width:1.5;marker:none;visibility:visible;display:inline;overflow:visible;enable-background:accumulate"
         id="path3864"
         inkscape:connector-curvature="0"
         d="m 47.938834,23.95191 c -13.16298,0.110867 -23.804602,10.801116 -23.804602,23.990254 0,0.08977 -0.0013,0.17847 0,0.268163 C 23.87634,54.729775 17.162,55.120675 17.162,55.120675 l 0,16.399184 c 17.039567,0 23.474555,-13.718692 23.474555,-21.246742 l 0,-2.330953 0,-0.165023 c 0.08612,-3.99671 3.310426,-7.193126 7.302279,-7.302278 z m 1.093279,0.02063 0,16.54358 c 3.720329,0.439871 6.600929,3.585154 6.600929,7.426045 0,4.094313 -3.268173,7.430494 -7.343534,7.508558 -0.04864,8.99e-4 -0.09555,0 -0.144395,0 l -6.477162,0 c 0,5.500774 0,11.001549 0,16.502324 l 6.188371,0 c 0.09657,0.0011 0.191948,0 0.288791,0 13.258112,0 24.010881,-10.752768 24.010881,-24.010882 0,-12.961287 -10.276308,-23.503855 -23.123881,-23.969625 z" />
      <g
         id="layer6"
         transform="translate(-4,6)">
        <path
           style="opacity:0.25;fill:url(#linearGradient3176);fill-opacity:1"
           id="path3902-5"
           inkscape:connector-curvature="0"
           d="m 103.09531,26.997728 c 0,0 -0.25105,0.203894 -0.25781,0.209493 -2.21993,-0.04859 -8.0462,2.105291 -23.24284,15.201474 -0.0172,-0.01668 -0.138185,-0.118777 -0.138185,-0.118777 l -0.598313,0.531646 c 0.08481,0.07708 0.161928,0.154794 0.24557,0.232278 -10.18625,8.360273 -21.07466,18.13062 -21.944108,18.91139 -7.99e-4,-0.0012 -0.02549,-0.03603 -0.02548,-0.03607 l -0.0202,-0.06687 -0.0413,0.05634 c -7.64e-4,-0.0014 -0.02548,-0.03607 -0.02548,-0.03607 l -0.789241,0.720886 c 0.0081,0.01173 0.01734,0.02434 0.02548,0.03607 l -0.03602,0.02554 0.02548,0.03607 c 4.2e-5,5.8e-5 0.04775,0.06716 0.05106,0.07216 -9.318121,9.495534 -15.121583,16.651535 -14.883979,17.488818 0.319625,1.126286 18.76411,-11.736831 19.526172,-12.382064 0.03176,0.02607 0.194412,0.160022 0.194515,0.160127 l 0.03076,0.0053 0.866667,-0.802742 -0.02548,-0.03607 c -1.53e-4,-1.1e-4 -0.07489,-0.07217 -0.08181,-0.07742 1.842824,-1.41214 11.90943,-9.17401 22.459932,-18.220671 0.170833,0.225729 0.331856,0.468987 0.331856,0.468987 l 0.598313,-0.531645 c -0.02268,-0.03404 -0.05293,-0.07361 -0.07653,-0.10822 0.790201,-0.61736 17.455531,-13.665016 19.329541,-19.010336 0.21345,-0.157476 0.30053,-0.23332 0.51035,-0.388186 0,0 -0.0316,-1.827825 -2.00865,-2.341353 z" />
        <path
           style="fill:#4d4d4d"
           id="path4824"
           inkscape:connector-curvature="0"
           d="m 58.811305,64.806923 c -0.0013,-7.53e-4 -1.401983,-0.774234 -3.163969,-2.146656 l 0,0 C 54.125603,61.476885 53.09831,60.360533 53.097181,60.359404 l 0,0 -0.02297,-0.02504 0.686493,-0.879111 0.02956,-0.0386 0.03182,0.03709 c 0.0032,0.0019 1.016749,1.185264 2.584235,2.406304 l 0,0 c 1.489913,1.159281 3.124429,1.993202 3.127818,1.994897 l 0,0 0.04312,0.02203 -0.736389,0.946329 -0.02956,-0.01638 0,0 z m -3.114638,-2.20992 c 1.608909,1.253236 2.912606,2.004123 3.123487,2.122932 l 0,0 0.634903,-0.816035 C 59.187125,63.764003 57.71284,62.977718 56.357176,61.922936 l 0,0 c -1.412903,-1.100535 -2.379378,-2.17151 -2.563335,-2.380885 l 0,0 -0.614567,0.787792 c 0.159855,0.170399 1.131603,1.189972 2.517393,2.26716 l 0,0 z" />
        <path
           style="fill:url(#radialGradient4043);fill-opacity:1;fill-rule:evenodd;stroke:#13345c;stroke-width:0.5;stroke-linecap:butt;stroke-linejoin:miter;stroke-miterlimit:4;stroke-opacity:1;stroke-dasharray:none"
           id="path3254"
           inkscape:connector-curvature="0"
           d="m 58.800638,64.465415 c 0,0 10.021885,-10.75183 19.831506,-22.591302 l 0.428489,0.132305 c 0,0 20.344107,-22.295585 15.367847,-24.100695 0,0 -2.48812,-4.927466 -22.002856,18.782933 l -0.03753,0.355809 C 63.384249,47.428206 53.379974,60.088795 53.379974,60.088795 45.652535,71.196981 41.064367,79.407388 41.44384,80.200834 41.959655,81.279353 58.83058,64.573465 58.800637,64.465415 z" />
        <path
           style="fill:url(#radialGradient4040);fill-opacity:1;fill-rule:evenodd;stroke:none"
           id="path2430"
           inkscape:connector-curvature="0"
           d="m 53.052249,60.295772 c 2.190592,2.242344 5.761083,4.519174 5.761083,4.519174 l 0.707197,-0.896934 C 57.097641,62.651764 53.72495,59.433343 53.72495,59.433343 l -0.672701,0.862429 z" />
        <path
           style="fill:url(#radialGradient4037);fill-opacity:1;fill-rule:evenodd;stroke:none"
           id="path3236"
           inkscape:connector-curvature="0"
           d="m 72.000002,36.975464 c 3.86372,2.466573 6.8995,5.450604 6.8995,5.450604 l 0.517461,-0.603703 C 77.356299,39.64193 72.509451,36.343176 72.509451,36.343176 l -0.509449,0.632288 z" />
        <path
           style="fill:url(#radialGradient4034);fill-opacity:1;fill-rule:evenodd;stroke:none"
           id="path3240"
           inkscape:connector-curvature="0"
           d="m 93.224586,17.277397 c 2.035353,0.17248 2.380329,1.966357 2.380329,1.966357 -9.279829,9.659296 -22.871843,23.699783 -22.871843,23.699783 l -0.68995,-0.586461 C 84.013755,28.006116 93.224586,17.277397 93.224586,17.277397" />
        <path
           style="opacity:0.4;fill:url(#linearGradient3946);fill-opacity:1"
           id="path3944"
           inkscape:connector-curvature="0"
           d="m 118.64074,54.503216 c 0,0 -0.30959,0.09354 -0.31797,0.09616 -2.03591,-0.886301 -8.24383,-1.101224 -27.270166,5.258549 -0.0096,-0.02195 -0.08286,-0.162287 -0.08286,-0.162287 l -0.75517,0.265228 c 0.04927,0.10347 0.09119,0.204615 0.139219,0.308019 -12.594839,3.876069 -26.373863,8.790906 -27.474357,9.183915 -2.72e-4,-0.0014 -0.0099,-0.043 -0.0099,-0.04304 l 0.0067,-0.06954 -0.05957,0.03648 c -1.62e-4,-0.0016 -0.0099,-0.04303 -0.0099,-0.04303 l -1.003574,0.367989 c 0.0031,0.01393 0.0069,0.02909 0.0099,0.04304 l -0.04302,0.01002 0.0099,0.04303 c 1.6e-5,7e-5 0.01874,0.08025 0.01991,0.08613 -12.221729,5.255654 -20.304327,9.678339 -20.401772,10.54321 -0.131075,1.163401 21.812476,-3.749781 22.762227,-4.058061 0.0195,0.03615 0.119262,0.221763 0.119317,0.221901 l 0.02646,0.01655 1.106248,-0.414396 -0.0099,-0.04304 c -9.9e-5,-1.61e-4 -0.04196,-0.09517 -0.04636,-0.102645 2.24054,-0.608375 14.497869,-3.976027 27.689922,-8.34923 0.07254,0.273634 0.129356,0.559772 0.129356,0.559772 l 0.755169,-0.265228 c -0.0081,-0.04009 -0.02109,-0.08818 -0.0298,-0.129151 0.965228,-0.271823 21.332281,-6.030065 25.092341,-10.266381 0.25721,-0.06483 0.36653,-0.102019 0.6194,-0.16581 0,0 0.66347,-1.703448 -0.97145,-2.92795 z" />
      </g>
    </g>
    <rect
       ry="25"
       rx="25"
       id="rect3003"
       style="opacity:0.15;fill:#ffffff;fill-opacity:1"
       height="92"
       width="92"
       y="958.36218"
       x="-96"
       clip-path="url(#clipPath3009)"
       transform="translate(98,3.8281269e-7)" />
  </g>
</svg>
