<?xml version="1.0" encoding="UTF-8" standalone="no"?>
<!-- Created with Inkscape (http://www.inkscape.org/) -->

<svg
   xmlns:dc="http://purl.org/dc/elements/1.1/"
   xmlns:cc="http://creativecommons.org/ns#"
   xmlns:rdf="http://www.w3.org/1999/02/22-rdf-syntax-ns#"
   xmlns:svg="http://www.w3.org/2000/svg"
   xmlns="http://www.w3.org/2000/svg"
   xmlns:xlink="http://www.w3.org/1999/xlink"
   xmlns:sodipodi="http://sodipodi.sourceforge.net/DTD/sodipodi-0.dtd"
   xmlns:inkscape="http://www.inkscape.org/namespaces/inkscape"
   width="96"
   height="96"
   id="svg11037"
   version="1.1"
   inkscape:version="0.48.3.1 r9886"
   sodipodi:docname="shutter.svg">
  <defs
     id="defs11039">
    <linearGradient
       y2="1046.1001"
       x2="47.999954"
       y1="962.62189"
       x1="47.999954"
       gradientTransform="matrix(1.15,0,0,1.15,-7.1999462,-150.65291)"
       gradientUnits="userSpaceOnUse"
       id="linearGradient3886"
       xlink:href="#linearGradient3795"
       inkscape:collect="always" />
    <linearGradient
       id="linearGradient3795">
      <stop
         style="stop-color:#13a6fd;stop-opacity:1;"
         offset="0"
         id="stop3797" />
      <stop
         style="stop-color:#2975b6;stop-opacity:1;"
         offset="1"
         id="stop3799" />
    </linearGradient>
    <linearGradient
       y2="1046.1001"
       x2="47.999954"
       y1="962.62189"
       x1="47.999954"
       gradientTransform="matrix(1.15,0,0,1.15,-7.1999462,-150.65292)"
       gradientUnits="userSpaceOnUse"
       id="linearGradient11642"
       xlink:href="#linearGradient4068"
       inkscape:collect="always" />
    <linearGradient
       x1="48"
       y1="90"
       x2="48"
       y2="5.9877172"
       id="linearGradient3617"
       xlink:href="#linearGradient4068"
       gradientUnits="userSpaceOnUse"
       gradientTransform="translate(2.440678,-12.20339)" />
    <linearGradient
       id="linearGradient4068">
      <stop
         id="stop4070"
         style="stop-color:#45a4d4;stop-opacity:1"
         offset="0" />
      <stop
         id="stop4072"
         style="stop-color:#94c8e0;stop-opacity:1"
         offset="1" />
    </linearGradient>
    <linearGradient
       y2="5.9877172"
       x2="48"
       y1="90"
       x1="48"
       gradientTransform="translate(-100.27539,952.36219)"
       gradientUnits="userSpaceOnUse"
       id="linearGradient3135"
       xlink:href="#linearGradient4068"
       inkscape:collect="always" />
    <radialGradient
       cx="353.6283"
       cy="241.04938"
       r="220.11942"
       fx="353.6283"
       fy="241.04938"
       id="radialGradient4089"
       xlink:href="#linearGradient6793"
       gradientUnits="userSpaceOnUse"
       gradientTransform="matrix(-0.14010564,0,0,0.13702439,96.633969,20.542549)" />
    <linearGradient
       id="linearGradient6793">
      <stop
         id="stop6795"
         style="stop-color:#44b5e8;stop-opacity:1"
         offset="0" />
      <stop
         id="stop6797"
         style="stop-color:#116b98;stop-opacity:1"
         offset="1" />
    </linearGradient>
    <radialGradient
       cx="353.6283"
       cy="241.04938"
       r="220.11942"
       fx="353.6283"
       fy="241.04938"
       id="radialGradient4086"
       xlink:href="#linearGradient6793"
       gradientUnits="userSpaceOnUse"
       gradientTransform="matrix(-0.13999019,-0.00562986,-0.00561708,0.1369115,97.441273,20.740641)" />
    <linearGradient
       id="linearGradient3178">
      <stop
         id="stop3180"
         style="stop-color:#44b5e8;stop-opacity:1"
         offset="0" />
      <stop
         id="stop3182"
         style="stop-color:#116b98;stop-opacity:1"
         offset="1" />
    </linearGradient>
    <radialGradient
       cx="353.6283"
       cy="241.04938"
       r="220.11942"
       fx="353.6283"
       fy="241.04938"
       id="radialGradient4081"
       xlink:href="#linearGradient6793"
       gradientUnits="userSpaceOnUse"
       gradientTransform="matrix(-0.14010564,0,0,0.13702439,96.633969,20.542549)" />
    <linearGradient
       id="linearGradient3185">
      <stop
         id="stop3187"
         style="stop-color:#44b5e8;stop-opacity:1"
         offset="0" />
      <stop
         id="stop3189"
         style="stop-color:#116b98;stop-opacity:1"
         offset="1" />
    </linearGradient>
    <radialGradient
       cx="353.6283"
       cy="241.04938"
       r="220.11942"
       fx="353.6283"
       fy="241.04938"
       id="radialGradient4078"
       xlink:href="#linearGradient6793"
       gradientUnits="userSpaceOnUse"
       gradientTransform="matrix(-0.14010564,0,0,0.13702439,96.633969,20.542549)" />
    <linearGradient
       id="linearGradient3192">
      <stop
         id="stop3194"
         style="stop-color:#44b5e8;stop-opacity:1"
         offset="0" />
      <stop
         id="stop3196"
         style="stop-color:#116b98;stop-opacity:1"
         offset="1" />
    </linearGradient>
    <radialGradient
       cx="353.6283"
       cy="241.04938"
       r="220.11942"
       fx="353.6283"
       fy="241.04938"
       id="radialGradient4075"
       xlink:href="#linearGradient6793"
       gradientUnits="userSpaceOnUse"
       gradientTransform="matrix(-0.14010564,0,0,0.13702439,96.633969,20.542549)" />
    <linearGradient
       id="linearGradient3199">
      <stop
         id="stop3201"
         style="stop-color:#44b5e8;stop-opacity:1"
         offset="0" />
      <stop
         id="stop3203"
         style="stop-color:#116b98;stop-opacity:1"
         offset="1" />
    </linearGradient>
    <clipPath
       clipPathUnits="userSpaceOnUse"
       id="clipPath3009">
      <path
         id="path3011"
         d="m -2,956.36218 -96,0 0,33.5624 96,25.68742 0,-59.24982 z"
         style="opacity:0.15;fill:#ffffff;fill-opacity:1;stroke:none"
         inkscape:connector-curvature="0" />
    </clipPath>
  </defs>
  <sodipodi:namedview
     id="base"
     pagecolor="#ffffff"
     bordercolor="#666666"
     borderopacity="1.0"
     inkscape:pageopacity="0.0"
     inkscape:pageshadow="2"
     inkscape:zoom="3.959798"
     inkscape:cx="33.538031"
     inkscape:cy="59.964634"
     inkscape:document-units="px"
     inkscape:current-layer="layer1"
     showgrid="false"
     inkscape:window-width="1280"
     inkscape:window-height="750"
     inkscape:window-x="0"
     inkscape:window-y="22"
     inkscape:window-maximized="1"
     showguides="true"
     inkscape:guide-bbox="true">
    <sodipodi:guide
       orientation="0,1"
       position="-24.748737,0"
       id="guide11064" />
    <sodipodi:guide
       orientation="0,1"
       position="-23.233509,96"
       id="guide11066" />
    <sodipodi:guide
       orientation="1,0"
       position="0,54.800776"
       id="guide11068" />
    <sodipodi:guide
       orientation="1,0"
       position="96,51.012704"
       id="guide11070" />
    <sodipodi:guide
       orientation="0,1"
       position="-18.94036,48"
       id="guide11072" />
    <sodipodi:guide
       orientation="1,0"
       position="48,79.296975"
       id="guide11074" />
    <sodipodi:guide
       orientation="1,0"
       position="2,75.508903"
       id="guide11076" />
    <sodipodi:guide
       orientation="0,1"
       position="-77.27667,2"
       id="guide11078" />
    <sodipodi:guide
       orientation="1,0"
       position="94,77.781746"
       id="guide11080" />
    <sodipodi:guide
       orientation="0,1"
       position="-65.912454,94"
       id="guide11082" />
  </sodipodi:namedview>
  <metadata
     id="metadata11042">
    <rdf:RDF>
      <cc:Work
         rdf:about="">
        <dc:format>image/svg+xml</dc:format>
        <dc:type
           rdf:resource="http://purl.org/dc/dcmitype/StillImage" />
        <dc:title />
      </cc:Work>
    </rdf:RDF>
  </metadata>
  <g
     inkscape:label="Layer 1"
     inkscape:groupmode="layer"
     id="layer1"
     transform="translate(0,-956.36218)">
    <rect
       x="2"
       y="958.36218"
       width="92"
       height="92"
       style="fill:url(#linearGradient11642);fill-opacity:1.0"
       id="rect3867"
       rx="25"
       ry="25" />
    <g
       transform="translate(-2.0297865e-8,956.36218)"
       id="g3149">
      <path
         style="fill:url(#radialGradient4089);fill-opacity:1;fill-rule:nonzero;stroke:none;stroke-width:25;marker-mid:none"
         id="path3113"
         inkscape:connector-curvature="0"
         d="M 60.536206,32.845276 C 54.178127,33.299454 43.00202,44.005302 44.57353,43.951066 57.572144,43.502475 65.691389,44.243076 75.833608,47.360811 77.33535,47.82245 74.213083,33.890296 60.536206,32.845276 z" />
      <path
         style="fill:url(#radialGradient4086);fill-opacity:1;fill-rule:nonzero;stroke:#000000;stroke-width:0;stroke-linecap:butt;stroke-linejoin:round;stroke-miterlimit:4;stroke-opacity:1;stroke-dasharray:none;stroke-dashoffset:1;marker-mid:none"
         id="path3115"
         inkscape:connector-curvature="0"
         d="M 41.200312,24.040509 C 37.585605,29.239019 37.131765,49.583642 38.06486,48.330525 45.755334,38.002446 64.187983,25.247562 75.181061,20.11146 88.769604,13.76272 49.247209,14.537309 41.200312,24.040509 z" />
      <path
         style="opacity:0.8;fill:#ffffff;fill-opacity:1;fill-rule:nonzero;stroke:none;stroke-width:25;marker-mid:none"
         id="path3117"
         inkscape:connector-curvature="0"
         d="M 24.832315,46.169493 C 26.915281,52.134336 40.245061,60.064077 39.786842,58.5748 35.996721,46.256337 34.625488,38.29867 35.052287,27.792807 35.11549,26.237222 22.324831,32.817023 24.832315,46.169493 z" />
      <path
         style="opacity:0.8;fill:#ffffff;fill-opacity:1;fill-rule:nonzero;stroke:none;stroke-width:25;marker-mid:none"
         id="path3119"
         inkscape:connector-curvature="0"
         d="M 26.573155,65.751865 C 32.476724,68.132864 47.286223,63.435497 45.853018,62.794971 33.998325,57.496897 27.05028,53.272387 19.351979,46.029509 18.212113,44.95707 14.778564,58.81725 26.573155,65.751865 z" />
      <path
         style="fill:url(#radialGradient4081);fill-opacity:1;fill-rule:nonzero;stroke:none;stroke-width:25;marker-mid:none"
         id="path3121"
         inkscape:connector-curvature="0"
         d="m 43.653123,76.956708 c 5.64438,-2.933087 11.565102,-17.169999 10.146567,-16.498223 -11.733345,5.55657 -19.474491,8.091666 -30.029835,9.248674 -1.562909,0.171315 6.925084,11.705564 19.883268,7.249549 z" />
      <path
         style="fill:url(#radialGradient4078);fill-opacity:1;fill-rule:nonzero;stroke:none;stroke-width:25;marker-mid:none"
         id="path3123"
         inkscape:connector-curvature="0"
         d="M 63.558847,70.909596 C 64.937662,64.747713 57.772406,51.082953 57.375449,52.589371 54.092057,65.04963 51.053193,72.540655 45.135075,81.271052 44.258792,82.563748 58.63589,83.586157 63.558847,70.909596 z" />
      <path
         style="fill:url(#radialGradient4075);fill-opacity:1;fill-rule:nonzero;stroke:none;stroke-width:25;marker-mid:none"
         id="path3125"
         inkscape:connector-curvature="0"
         d="m 71.395264,51.518589 c -3.835113,-5.041323 -18.982225,-8.527235 -18.083541,-7.249704 7.433416,10.567027 11.210432,17.721309 14.068248,27.847811 0.423153,1.499413 10.549504,-8.656598 4.015293,-20.598107 z" />
      <path
         style="opacity:0.3;fill:#ffffff;fill-opacity:1;fill-rule:nonzero;stroke:none;stroke-width:25;marker-mid:none"
         id="path4148"
         inkscape:connector-curvature="0"
         d="m 77.8125,18.34375 c -0.339431,0.516146 -1.169503,1.101223 -2.625,1.78125 -10.993078,5.1361 -29.434526,17.89067 -37.125,28.21875 -0.219471,0.294743 -0.362435,-0.631275 -0.40625,-2.25 0.0084,2.197914 0.147184,3.597918 0.40625,3.25 7.690474,-10.32808 26.131922,-23.08265 37.125,-28.21875 2.509471,-1.172457 3.208502,-2.101275 2.625,-2.78125 z m -28.59375,25.5 c -1.366744,0.01456 -2.798387,0.04502 -4.28125,0.09375 -0.504979,0.624863 -0.674424,1.010334 -0.375,1 3.338376,-0.115209 6.342553,-0.158262 9.15625,-0.09375 -0.136697,-0.195595 -0.267001,-0.364549 -0.40625,-0.5625 -0.112336,-0.15969 0.03934,-0.26415 0.375,-0.28125 0.881114,-0.04489 3.117124,0.37167 5.75,1.15625 5.640484,0.470235 10.716861,1.469825 16.40625,3.21875 0.299004,0.09192 0.396632,-0.415029 0.28125,-1.25 -0.05438,0.187509 -0.140462,0.293279 -0.28125,0.25 -8.874442,-2.728014 -16.220154,-3.642076 -26.625,-3.53125 z M 53.6875,45 c -0.335662,0.0171 -0.487336,0.12156 -0.375,0.28125 C 60.745916,55.84828 64.517184,62.9985 67.375,73.125 67.698983,74.273009 73.690645,68.585885 73.5625,60.5 73.215504,68.051582 67.685533,73.22535 67.375,72.125 64.584754,62.237931 60.902579,55.162918 53.8125,45 c -0.03619,3.75e-4 -0.09247,-0.0017 -0.125,0 z m 0.1875,16.4375 c -0.811352,3.174371 -5.598175,13.130179 -10.21875,15.53125 -10.700763,3.679745 -18.321874,-3.524597 -19.78125,-6.25 -0.03159,0.0035 -0.0621,-0.0035 -0.09375,0 -1.562909,0.17132 6.916816,11.70602 19.875,7.25 5.467993,-2.84143 11.187041,-16.30416 10.25,-16.53125 -0.0091,-0.0021 -0.02319,-0.0017 -0.03125,0 z m 9.84375,8.3125 c -0.02522,0.408056 -0.07546,0.795203 -0.15625,1.15625 -4.293108,11.054706 -15.772983,11.68517 -18.0625,10.8125 -0.0032,0.0048 -0.02804,-0.0048 -0.03125,0 -0.124342,0.186206 -0.216797,0.37522 -0.34375,0.5625 -0.876283,1.2927 13.514543,2.30156 18.4375,-10.375 0.143845,-0.642841 0.180955,-1.375679 0.15625,-2.15625 z" />
      <path
         style="opacity:0.4;fill:#000000;fill-opacity:1;fill-rule:nonzero;stroke:none;stroke-width:25;marker-mid:none"
         id="path4157"
         inkscape:connector-curvature="0"
         d="m 69.59375,16 c -9.3899,0.107682 -23.87987,2.6857 -28.40625,8.03125 -2.398206,3.448993 -3.369513,13.472293 -3.5,19.53125 0.219791,-6.11789 1.240808,-15.282181 3.5,-18.53125 C 45.71388,19.6857 60.20385,17.107682 69.59375,17 73.814189,16.9516 77.013674,17.41285 77.8125,18.34375 78.859476,16.751694 75.108967,15.936753 69.59375,16 z m -9.0625,16.84375 C 54.173171,33.29793 42.99099,43.99174 44.5625,43.9375 c 0.130806,-0.0045 0.245171,0.0043 0.375,0 C 47.082877,41.282804 55.384592,34.211394 60.53125,33.84375 71.484995,34.680702 75.660879,43.766343 76.125,47.125 76.650671,45.312416 72.92592,33.790799 60.53125,32.84375 z m -6.8125,12 c 0.03584,0.05128 0.05809,0.10513 0.09375,0.15625 2.577546,-0.02671 14.28449,3.181168 17.59375,7.53125 1.531356,2.798609 2.117025,5.493689 2.15625,7.96875 0.125844,-2.738706 -0.417204,-5.79058 -2.15625,-8.96875 -2.097327,-2.756975 -7.580624,-5.067367 -11.96875,-6.375 -1.832164,-0.152744 -3.722477,-0.26673 -5.71875,-0.3125 z m 3.8125,7.625 c -0.07395,-0.0188 -0.13144,0.0309 -0.15625,0.125 -3.283392,12.46026 -6.331882,19.9571 -12.25,28.6875 -0.109535,0.161587 0.0245,0.310957 0.34375,0.4375 0.0032,-0.0048 0.02804,0.0048 0.03125,0 5.665833,-8.488115 8.663863,-15.938943 11.875,-28.125 0.02481,-0.0941 0.0823,-0.1438 0.15625,-0.125 0.970578,0.247249 5.848778,9.7569 6.1875,16 0.204624,-6.16573 -5.162813,-16.738967 -6.1875,-17 z m -3.625,7.96875 c -0.03023,-0.007 -0.04942,0.01035 -0.09375,0.03125 -11.733345,5.55657 -19.475906,8.09299 -30.03125,9.25 -0.272271,0.02984 -0.214118,0.425052 0.09375,1 10.506944,-1.161802 18.239332,-3.710089 29.9375,-9.25 0.03103,-0.01463 0.0437,-0.02725 0.0625,-0.03125 0.148803,-0.582183 0.176471,-0.964806 0.03125,-1 z" />
      <path
         style="opacity:0.1;fill:#012d5b;fill-opacity:1;fill-rule:nonzero;stroke:none;stroke-width:25;marker-mid:none"
         id="path3757"
         inkscape:connector-curvature="0"
         d="m 69.59375,16 c -9.3899,0.10768 -23.87987,2.6857 -28.40625,8.03125 -3.614707,5.19851 -4.058095,25.56562 -3.125,24.3125 C 45.752974,38.01567 64.194422,25.2611 75.1875,20.125 81.132488,17.34743 76.897005,15.91625 69.59375,16 z m 0,3 c 0.474183,-0.005 0.77609,0.0526 1.21875,0.0625 -9.477794,4.94007 -21.571679,13.42713 -29.96875,22.0625 0.01765,-0.73281 -0.0076,-1.40401 0.0625,-2.28125 0.215323,-2.69604 0.562334,-5.58242 1.0625,-8.03125 0.476011,-2.33056 1.324746,-4.40941 1.6875,-4.96875 1.43489,-1.55344 5.70311,-3.6577 10.625,-4.875 C 59.36892,19.71045 65.161449,19.05083 69.59375,19 z m -9.0625,13.84375 C 54.173171,33.29793 42.99099,43.99174 44.5625,43.9375 57.561114,43.48891 65.701531,44.25727 75.84375,47.375 77.345492,47.83664 74.208127,33.88877 60.53125,32.84375 z m 0.0625,3.0625 c 5.646605,0.53644 8.849452,3.47257 10.75,6.40625 0.244606,0.37757 0.317096,0.69648 0.46875,1.03125 C 65.329981,41.75893 58.877005,41.0545 51.375,41 c 0.02562,-0.0209 0.03606,-0.0413 0.0625,-0.0625 1.575119,-1.26398 3.417298,-2.54954 5.125,-3.5 1.643943,-0.91497 3.248224,-1.44297 4.03125,-1.53125 z M 53.6875,44 c -0.335662,0.0171 -0.487336,0.12156 -0.375,0.28125 C 60.745916,54.84828 64.517184,61.9985 67.375,72.125 67.798153,73.62441 77.940461,63.47276 71.40625,51.53125 68.050526,47.12009 56.037137,43.8803 53.6875,44 z m 5.75,4.375 c 0.569188,0.1742 1.086234,0.28218 1.6875,0.5 1.700446,0.61602 3.444691,1.42328 4.875,2.25 1.430309,0.82672 2.590505,1.73152 2.96875,2.21875 2.524096,4.91688 1.757387,9.11574 0.3125,12.25 -0.212603,0.46118 -0.485607,0.71787 -0.71875,1.0625 C 66.387879,60.39982 63.462811,54.64176 59.4375,48.375 z m -1.90625,4.09375 c -0.07395,-0.0188 -0.13144,0.0309 -0.15625,0.125 -3.283392,12.46026 -6.331882,19.9571 -12.25,28.6875 -0.876283,1.2927 13.514543,2.30156 18.4375,-10.375 1.292639,-5.77676 -4.922018,-18.15493 -6.03125,-18.4375 z m 0.71875,7.4375 c 0.123729,0.28034 0.249519,0.49674 0.375,0.8125 0.692546,1.74273 1.287856,3.70996 1.65625,5.4375 0.359702,1.68678 0.484816,3.14801 0.375,3.84375 -2.118471,5.26351 -5.876244,7.46603 -9.28125,8.4375 -0.489905,0.13977 -0.870114,0.10801 -1.28125,0.15625 3.389542,-5.69008 5.951958,-11.59056 8.15625,-18.6875 z m -4.34375,0.53125 c -0.03023,-0.007 -0.04942,0.0103 -0.09375,0.0312 -11.733345,5.55657 -19.475906,8.09299 -30.03125,9.25 -1.562909,0.17132 6.916816,11.70602 19.875,7.25 5.467993,-2.84143 11.187041,-16.30416 10.25,-16.53125 z M 48.75,65.84375 c -0.07503,0.15241 -0.131285,0.27322 -0.21875,0.4375 -0.92502,1.73743 -2.094803,3.58002 -3.25,5.0625 -1.115208,1.43116 -2.313224,2.52627 -2.9375,2.875 -5.379217,1.73017 -9.527277,0.27174 -12.4375,-1.65625 -0.369771,-0.24497 -0.549562,-0.50541 -0.8125,-0.75 6.563285,-1.11447 12.777022,-3.05521 19.65625,-5.96875 z" />
      <path
         style="opacity:0.15;fill:#012d5b;fill-opacity:1;fill-rule:nonzero;stroke:none;stroke-width:25;marker-mid:none"
         id="path3760"
         inkscape:connector-curvature="0"
         d="m 69.59375,16 c -9.3899,0.10768 -23.87987,2.6857 -28.40625,8.03125 -3.614707,5.19851 -4.058095,25.56562 -3.125,24.3125 C 45.752974,38.01567 64.194422,25.2611 75.1875,20.125 81.132488,17.34743 76.897005,15.91625 69.59375,16 z m 0,2.03125 c 1.753472,-0.0201 3.326335,0.0687 4.53125,0.21875 0.0814,0.0101 0.07682,0.0194 0.15625,0.0312 -10.12369,4.73454 -25.459396,15.25154 -34.5,25.1875 0.02407,-1.47395 0.0098,-2.85328 0.15625,-4.6875 0.217767,-2.72665 0.582071,-5.65105 1.09375,-8.15625 0.496367,-2.43022 1.270569,-4.52233 1.8125,-5.34375 0.0028,-0.004 -0.0028,-0.027 0,-0.0312 1.707548,-1.92557 6.12936,-3.96002 11.21875,-5.21875 5.176009,-1.28015 11.01323,-1.94819 15.53125,-2 z m -9.0625,14.8125 C 54.173171,33.29793 42.99099,43.99174 44.5625,43.9375 57.561114,43.48891 65.701531,44.25727 75.84375,47.375 77.345492,47.83664 74.208127,33.88877 60.53125,32.84375 z m 0.03125,2.0625 c 6.041187,0.52713 9.564037,3.74194 11.59375,6.875 0.698728,1.07855 0.957574,1.95325 1.28125,2.84375 C 65.64643,42.52073 58.342708,41.78194 49,41.875 c 0.627476,-0.57443 1.061966,-1.06015 1.84375,-1.6875 1.609842,-1.29184 3.475459,-2.60609 5.25,-3.59375 1.749085,-0.97349 3.425881,-1.58682 4.46875,-1.6875 z M 53.6875,44 c -0.335662,0.0171 -0.487336,0.12156 -0.375,0.28125 C 60.745916,54.84828 64.517184,61.9985 67.375,72.125 67.798153,73.62441 77.940461,63.47276 71.40625,51.53125 68.050526,47.12009 56.037137,43.8803 53.6875,44 z m 3.65625,2.71875 c 1.264321,0.32804 2.644853,0.71379 4.125,1.25 3.518078,1.27449 7.145306,3.35827 8.25,4.78125 0.0034,0.004 0.02789,-0.004 0.03125,0 2.771503,5.26364 1.954331,9.89189 0.40625,13.25 -0.552163,1.19776 -1.184283,1.92533 -1.78125,2.6875 C 65.914918,61.01068 62.550962,54.5017 57.34375,46.71875 z m 0.1875,5.75 c -0.07395,-0.0188 -0.13144,0.0309 -0.15625,0.125 -3.283392,12.46026 -6.331882,19.9571 -12.25,28.6875 -0.876283,1.2927 13.514543,2.30156 18.4375,-10.375 1.292639,-5.77676 -4.922018,-18.15493 -6.03125,-18.4375 z M 58.125,57.3125 c 0.474301,0.9699 0.930257,1.86471 1.40625,3.0625 1.428498,3.59468 2.415545,7.9889 2.0625,9.90625 -2.228166,5.60438 -6.345888,8.06012 -9.96875,9.09375 -1.285246,0.36669 -2.24572,0.35822 -3.21875,0.40625 4.280299,-6.81407 7.12868,-13.53183 9.71875,-22.46875 z m -4.21875,3.125 c -0.03023,-0.007 -0.04942,0.0103 -0.09375,0.0312 -11.733345,5.55657 -19.475906,8.09299 -30.03125,9.25 -1.562909,0.17132 6.916816,11.70602 19.875,7.25 5.467993,-2.84143 11.187041,-16.30416 10.25,-16.53125 z m -3.3125,3.65625 c -0.400478,0.88841 -0.679705,1.64378 -1.21875,2.65625 -0.9518,1.78773 -2.147262,3.65203 -3.34375,5.1875 -1.173594,1.50609 -2.371177,2.6791 -3.25,3.15625 C 37.042933,76.9886 32.48531,75.43555 29.375,73.375 28.294504,72.65918 27.742012,71.94771 27.09375,71.25 c 7.987762,-1.16093 14.975612,-3.36564 23.5,-7.15625 z" />
      <path
         style="opacity:0.3;fill:#012d5b;fill-opacity:1;fill-rule:nonzero;stroke:none;stroke-width:25;marker-mid:none"
         id="path2969"
         inkscape:connector-curvature="0"
         d="m 69.59375,16 c -9.3899,0.10768 -23.87987,2.6857 -28.40625,8.03125 -3.614707,5.19851 -4.058095,25.56562 -3.125,24.3125 C 45.752974,38.01567 64.194422,25.2611 75.1875,20.125 81.132488,17.34743 76.897005,15.91625 69.59375,16 z m 0,1 c 1.791912,-0.0206 3.388812,0.0609 4.65625,0.21875 1.267438,0.15785 2.243198,0.44043 2.625,0.65625 -0.158961,0.19598 -0.792707,0.72129 -2.125,1.34375 -10.598335,4.95167 -27.57053,16.59188 -36.0625,26.84375 -0.0037,-0.1202 -0.0289,-0.15261 -0.03125,-0.28125 -0.0323,-1.76712 0.02937,-4.3312 0.25,-7.09375 0.220634,-2.76255 0.601783,-5.71956 1.125,-8.28125 0.513225,-2.51276 1.218073,-4.64186 1.9375,-5.71875 1.973165,-2.33026 6.57367,-4.35283 11.84375,-5.65625 C 59.08258,17.72783 64.984756,17.05285 69.59375,17 z m -9.0625,15.84375 C 54.173171,33.29793 42.99099,43.99174 44.5625,43.9375 57.561114,43.48891 65.701531,44.25727 75.84375,47.375 77.345492,47.83664 74.208127,33.88877 60.53125,32.84375 z m 0,1 c 6.465695,0.51602 10.329102,4.02401 12.5,7.375 1.08919,1.68127 1.734602,3.34235 2,4.46875 0.05026,0.21332 0.03884,0.26717 0.0625,0.4375 -9.262185,-2.73284 -17.244415,-3.51686 -28.78125,-3.21875 0.879933,-0.94447 2.239848,-2.2191 3.875,-3.53125 3.30391,-2.65126 7.676492,-5.31072 10.34375,-5.53125 z M 53.6875,44 c -0.335662,0.0171 -0.487336,0.12156 -0.375,0.28125 C 60.745916,54.84828 64.517184,61.9985 67.375,72.125 67.798153,73.62441 77.940461,63.47276 71.40625,51.53125 68.050526,47.12009 56.037137,43.8803 53.6875,44 z m 1.4375,1.21875 c 0.546183,0.0773 0.830206,0.0626 1.625,0.25 1.46785,0.34609 3.243224,0.87218 5.0625,1.53125 3.62853,1.3145 7.341023,3.28905 8.75,5.125 0.0039,0.005 0.02739,-0.005 0.03125,0 3.019071,5.62105 2.159767,10.71212 0.5,14.3125 -0.836405,1.81434 -1.905163,3.26297 -2.71875,4.09375 -0.168803,0.17237 -0.233758,0.19477 -0.375,0.3125 -2.705279,-9.17802 -6.375058,-16.21037 -12.875,-25.625 z m 2.40625,7.25 c -0.07395,-0.0188 -0.13144,0.0309 -0.15625,0.125 -3.283392,12.46026 -6.331882,19.9571 -12.25,28.6875 -0.876283,1.2927 13.514543,2.30156 18.4375,-10.375 1.292639,-5.77676 -4.922018,-18.15493 -6.03125,-18.4375 z m 0.34375,2.0625 c 0.131427,0.21582 0.228849,0.36248 0.375,0.625 0.692175,1.24332 1.500515,2.95774 2.25,4.84375 1.482708,3.73109 2.590811,8.17033 2.09375,10.59375 -2.346438,5.97277 -6.822406,8.67851 -10.6875,9.78125 C 49.966132,80.92853 48.169318,81.07027 47,81 46.762508,80.9857 46.71163,80.935 46.53125,80.9063 51.816594,72.90603 54.867874,65.55722 57.875,54.5313 z m -3.96875,5.90625 c -0.03023,-0.007 -0.04942,0.0103 -0.09375,0.0312 -11.733345,5.55657 -19.475906,8.09299 -30.03125,9.25 -1.562909,0.17132 6.916816,11.70602 19.875,7.25 5.467993,-2.84143 11.187041,-16.30416 10.25,-16.53125 z M 52.625,62.09375 c -0.03922,0.11448 -0.04847,0.15753 -0.09375,0.28125 -0.468337,1.27974 -1.272419,3.03885 -2.25,4.875 -1.955163,3.6723 -4.808427,7.62494 -7.09375,8.8125 -6.088209,2.03429 -11.055201,0.38683 -14.375,-1.8125 -1.67473,-1.10949 -2.897581,-2.3852 -3.59375,-3.3125 -0.132976,-0.17712 -0.159423,-0.22731 -0.25,-0.375 9.590663,-1.16311 17.20573,-3.62746 27.65625,-8.46875 z" />
    </g>
    <rect
       ry="25"
       rx="25"
       id="rect3003"
       style="opacity:0.15;fill:#ffffff;fill-opacity:1"
       height="92"
       width="92"
       y="958.36218"
       x="-96"
       clip-path="url(#clipPath3009)"
       transform="translate(98,3.8281269e-7)" />
  </g>
</svg>
