<?xml version="1.0" encoding="UTF-8" standalone="no"?>
<!-- Created with Inkscape (http://www.inkscape.org/) -->

<svg
   xmlns:dc="http://purl.org/dc/elements/1.1/"
   xmlns:cc="http://creativecommons.org/ns#"
   xmlns:rdf="http://www.w3.org/1999/02/22-rdf-syntax-ns#"
   xmlns:svg="http://www.w3.org/2000/svg"
   xmlns="http://www.w3.org/2000/svg"
   xmlns:xlink="http://www.w3.org/1999/xlink"
   xmlns:sodipodi="http://sodipodi.sourceforge.net/DTD/sodipodi-0.dtd"
   xmlns:inkscape="http://www.inkscape.org/namespaces/inkscape"
   width="96"
   height="96"
   id="svg11037"
   version="1.1"
   inkscape:version="0.48.3.1 r9886"
   sodipodi:docname="synapse.svg">
  <defs
     id="defs11039">
    <linearGradient
       y2="1046.1001"
       x2="47.999954"
       y1="962.62189"
       x1="47.999954"
       gradientTransform="matrix(1.15,0,0,1.15,-7.1999462,-150.65291)"
       gradientUnits="userSpaceOnUse"
       id="linearGradient3886"
       xlink:href="#linearGradient3795"
       inkscape:collect="always" />
    <linearGradient
       id="linearGradient3795">
      <stop
         style="stop-color:#13a6fd;stop-opacity:1;"
         offset="0"
         id="stop3797" />
      <stop
         style="stop-color:#2975b6;stop-opacity:1;"
         offset="1"
         id="stop3799" />
    </linearGradient>
    <linearGradient
       y2="1046.1001"
       x2="47.999954"
       y1="962.62189"
       x1="47.999954"
       gradientTransform="matrix(1.15,0,0,1.15,-7.1999462,-150.65292)"
       gradientUnits="userSpaceOnUse"
       id="linearGradient11642"
       xlink:href="#linearGradient3926"
       inkscape:collect="always" />
    <linearGradient
       x1="40"
       y1="8"
       x2="40"
       y2="88"
       id="linearGradient3617"
       xlink:href="#linearGradient3926"
       gradientUnits="userSpaceOnUse" />
    <linearGradient
       id="linearGradient3926">
      <stop
         id="stop3928"
         style="stop-color:#e9e6e8;stop-opacity:1"
         offset="0" />
      <stop
         id="stop3930"
         style="stop-color:#92838d;stop-opacity:1"
         offset="1" />
    </linearGradient>
    <linearGradient
       gradientTransform="translate(-106.84138,952.36217)"
       y2="88"
       x2="40"
       y1="8"
       x1="40"
       gradientUnits="userSpaceOnUse"
       id="linearGradient3047"
       xlink:href="#linearGradient3926"
       inkscape:collect="always" />
    <linearGradient
       x1="301.57123"
       y1="70.042267"
       x2="301.57123"
       y2="443.59406"
       id="linearGradient3920"
       xlink:href="#linearGradient3972"
       gradientUnits="userSpaceOnUse"
       gradientTransform="matrix(0.22574344,0,0,0.22574344,-9.78435,-9.790321)" />
    <linearGradient
       id="linearGradient3972">
      <stop
         id="stop3974"
         style="stop-color:#0b9879;stop-opacity:1"
         offset="0" />
      <stop
         id="stop3976"
         style="stop-color:#60e7dc;stop-opacity:1"
         offset="1" />
    </linearGradient>
    <clipPath
       clipPathUnits="userSpaceOnUse"
       id="clipPath3009">
      <path
         id="path3011"
         d="m -2,956.36218 -96,0 0,33.5624 96,25.68742 0,-59.24982 z"
         style="opacity:0.15;fill:#ffffff;fill-opacity:1;stroke:none"
         inkscape:connector-curvature="0" />
    </clipPath>
  </defs>
  <sodipodi:namedview
     id="base"
     pagecolor="#ffffff"
     bordercolor="#666666"
     borderopacity="1.0"
     inkscape:pageopacity="0.0"
     inkscape:pageshadow="2"
     inkscape:zoom="3.959798"
     inkscape:cx="33.538031"
     inkscape:cy="59.964634"
     inkscape:document-units="px"
     inkscape:current-layer="layer1"
     showgrid="false"
     inkscape:window-width="1280"
     inkscape:window-height="750"
     inkscape:window-x="0"
     inkscape:window-y="22"
     inkscape:window-maximized="1"
     showguides="true"
     inkscape:guide-bbox="true">
    <sodipodi:guide
       orientation="0,1"
       position="-24.748737,0"
       id="guide11064" />
    <sodipodi:guide
       orientation="0,1"
       position="-23.233509,96"
       id="guide11066" />
    <sodipodi:guide
       orientation="1,0"
       position="0,54.800776"
       id="guide11068" />
    <sodipodi:guide
       orientation="1,0"
       position="96,51.012704"
       id="guide11070" />
    <sodipodi:guide
       orientation="0,1"
       position="-18.94036,48"
       id="guide11072" />
    <sodipodi:guide
       orientation="1,0"
       position="48,79.296975"
       id="guide11074" />
    <sodipodi:guide
       orientation="1,0"
       position="2,75.508903"
       id="guide11076" />
    <sodipodi:guide
       orientation="0,1"
       position="-77.27667,2"
       id="guide11078" />
    <sodipodi:guide
       orientation="1,0"
       position="94,77.781746"
       id="guide11080" />
    <sodipodi:guide
       orientation="0,1"
       position="-65.912454,94"
       id="guide11082" />
  </sodipodi:namedview>
  <metadata
     id="metadata11042">
    <rdf:RDF>
      <cc:Work
         rdf:about="">
        <dc:format>image/svg+xml</dc:format>
        <dc:type
           rdf:resource="http://purl.org/dc/dcmitype/StillImage" />
        <dc:title />
      </cc:Work>
    </rdf:RDF>
  </metadata>
  <g
     inkscape:label="Layer 1"
     inkscape:groupmode="layer"
     id="layer1"
     transform="translate(0,-956.36218)">
    <rect
       x="2"
       y="958.36218"
       width="92"
       height="92"
       style="fill:url(#linearGradient11642);fill-opacity:1.0"
       id="rect3867"
       rx="25"
       ry="25" />
    <g
       transform="translate(0,956.36218)"
       id="g3060">
      <path
         style="fill:url(#linearGradient3920);fill-opacity:1;stroke:none;display:inline"
         id="path4189"
         inkscape:connector-curvature="0"
         d="m 48.005965,29.940523 c -9.973968,0 -18.059471,8.045596 -18.059471,18.059475 0,0 -0.119718,1.696399 0.399063,3.611895 l 27.734218,0 c -0.74873,2.091414 -2.09166,3.967816 -3.91524,5.220317 -4.1954,3.31225 -10.54926,2.107841 -14.12308,-1.608422 l -8.585301,0 c 2.788017,6.375372 9.146371,10.835685 16.549811,10.835685 9.97398,0 18.05948,-8.085502 18.05948,-18.059475 0,0 0,-1.856024 -0.35916,-3.611895 l -27.745899,0 c 1.561269,-3.946361 5.289499,-7.144335 9.622319,-7.181463 0.21682,-0.01045 0.43282,-0.01144 0.64901,-0.007 2.90447,0.0589 5.72277,1.436261 7.68233,3.576622 l 8.64174,0 C 61.767765,34.40088 55.409415,29.940566 48.005965,29.940566 z M 43.899405,6 l 0,9.451553 C 30.455873,17.12708 19.539196,26.935734 16.228425,39.798816 l 8.505523,0 c 3.488212,-9.284749 12.723999,-16.526029 22.817557,-16.45843 0.24474,-0.0065 0.49252,-0.0095 0.73682,-0.008 3.66456,0.02185 7.26669,0.931689 10.53179,2.56287 5.88112,2.647413 10.24801,7.879367 12.38187,13.90357 l 8.56959,0 C 76.460805,26.935734 65.544135,17.12708 52.100595,15.451553 l 0,-9.451553 z m -27.67098,50.201185 c 3.310771,12.863082 14.227448,22.671736 27.67098,24.347262 l 0,9.451553 8.20119,0 0,-9.451553 c 13.44354,-1.675526 24.36021,-11.48418 27.67098,-24.347262 l -8.44946,0 C 68.006735,65.981562 57.759555,73.01491 47.399325,72.651606 37.312268,72.702576 28.161708,65.496677 24.749966,56.201185 z" />
      <path
         style="opacity:0.1;fill:#000000;fill-opacity:1;stroke:none;display:inline"
         id="path3936"
         inkscape:connector-curvature="0"
         d="m 43.90625,6 0,9.4375 c -13.443532,1.675527 -24.376729,11.511918 -27.6875,24.375 l 8.5,0 c 3.488212,-9.284749 12.750192,-16.536349 22.84375,-16.46875 0.24474,-0.0065 0.47445,-0.0015 0.71875,0 3.66456,0.02185 7.26615,0.931319 10.53125,2.5625 5.88112,2.647413 10.24114,7.882047 12.375,13.90625 l 8.59375,0 C 76.47048,26.949408 65.53729,17.113027 52.09375,15.4375 l 0,-9.4375 -1.90625,0 0,1.90625 0,2.09375 0,5.4375 a 1.9056694,1.9056694 0 0 0 1.65625,1.90625 c 11.807641,1.471638 21.491835,9.646699 25.28125,20.5625 l -4.75,0 C 69.947957,32.015572 65.601862,26.885983 59.65625,24.1875 c -0.02081,-0.01039 -0.04167,-0.02091 -0.0625,-0.03125 -3.496517,-1.735523 -7.363662,-2.695205 -11.3125,-2.71875 -0.207585,-0.0013 -0.447749,-0.0054 -0.71875,0 -0.02356,4.72e-4 -0.03832,-6.42e-4 -0.0625,0 -10.520085,-0.04192 -19.916125,7.088979 -24,16.46875 l -4.625,0 C 22.664416,26.990456 32.348617,18.815388 44.15625,17.34375 A 1.9056694,1.9056694 0 0 0 45.8125,15.4375 l 0,-5.4375 0,-2.09375 0,-1.90625 -1.90625,0 z M 48,29.9375 c -9.973968,0 -18.0625,8.048621 -18.0625,18.0625 0,0 -0.112531,1.709504 0.40625,3.625 l 27.75,0 c -0.74873,2.091414 -2.11392,3.966249 -3.9375,5.21875 -4.1954,3.31225 -10.55118,2.091263 -14.125,-1.625 l -8.5625,0 C 34.256767,61.594122 40.59656,66.0625 48,66.0625 c 9.97398,0 18.0625,-8.088527 18.0625,-18.0625 0,0 0.01541,-1.869129 -0.34375,-3.625 l -27.75,0 c 1.561269,-3.946361 5.29218,-7.119122 9.625,-7.15625 0.21682,-0.01045 0.40881,-0.03569 0.625,-0.03125 2.90447,0.0589 5.72794,1.453389 7.6875,3.59375 l 8.65625,0 C 61.77448,34.405868 55.40345,29.9375 48,29.9375 z m 0,1.90625 c 5.508738,0 10.239946,2.834961 13.15625,7.03125 l -4.6875,0 C 54.236172,36.793358 51.379371,35.344711 48.25,35.28125 c -0.355318,-0.0073 -0.555647,0.02181 -0.6875,0.03125 -0.01196,8.57e-4 -0.05223,-4.95e-4 -0.0625,0 -5.224565,0.0746 -9.505111,3.806531 -11.3125,8.375 a 1.9056694,1.9056694 0 0 0 1.78125,2.59375 l 26.03125,0 c 0.04408,0.669183 0.15625,1.6875 0.15625,1.6875 a 1.9056694,1.9056694 0 0 0 0,0.03125 c 0,8.943792 -7.212452,16.15625 -16.15625,16.15625 -5.508727,0 -10.215306,-2.833348 -13.125,-7.03125 l 4.59375,0 c 4.265107,3.801178 10.959955,5.007378 15.78125,1.28125 0.03102,-0.0213 0.06297,-0.04092 0.09375,-0.0625 l 0,-0.03125 c 2.132095,-1.501243 3.671403,-3.629455 4.53125,-6.03125 a 1.9056694,1.9056694 0 0 0 -1.78125,-2.5625 l -26.0625,0 C 31.988967,49.104443 31.84375,48.125 31.84375,48.125 a 1.9056694,1.9056694 0 0 0 0,-0.125 C 31.84375,39.012199 39.051132,31.84375 48,31.84375 z M 16.21875,56.1875 c 3.310771,12.863082 14.243968,22.699474 27.6875,24.375 l 0,9.4375 1.96875,0 0,-1.90625 -0.0625,0 0,-7.53125 A 1.9056694,1.9056694 0 0 0 44.15625,78.65625 C 32.348617,77.184613 22.664416,69.009544 18.875,58.09375 l 4.65625,0 c 4.005699,9.387423 13.305054,16.493436 23.8125,16.46875 0.021,-4.9e-5 0.04149,1.06e-4 0.0625,0 10.772217,0.349682 21.132279,-6.549251 25.15625,-16.46875 l 4.5625,0 C 73.335585,69.009545 63.65139,77.184613 51.84375,78.65625 A 1.9056694,1.9056694 0 0 0 50.1875,80.5625 l 0,7.53125 -0.0625,0 0,1.90625 1.96875,0 0,-9.4375 c 13.44354,-1.675526 24.37673,-11.511918 27.6875,-24.375 l -8.46875,0 C 67.99712,65.967877 57.76648,73.019554 47.40625,72.65625 37.319193,72.70722 28.161742,65.482992 24.75,56.1875 l -8.53125,0 z" />
      <path
         style="opacity:0.15;fill:#000000;fill-opacity:1;stroke:none;display:inline"
         id="path3932"
         inkscape:connector-curvature="0"
         d="m 43.90625,6 0,9.4375 c -13.443532,1.675527 -24.376729,11.511918 -27.6875,24.375 l 8.5,0 c 3.488212,-9.284749 12.750192,-16.536349 22.84375,-16.46875 0.24474,-0.0065 0.47445,-0.0015 0.71875,0 3.66456,0.02185 7.26615,0.931319 10.53125,2.5625 5.88112,2.647413 10.24114,7.882047 12.375,13.90625 l 8.59375,0 C 76.47048,26.949408 65.53729,17.113027 52.09375,15.4375 L 52.09375,6 51,6 l 0,1.0625 0.03125,0 0,8.375 a 1.0671748,1.0671748 0 0 0 0.9375,1.0625 c 12.521701,1.560634 22.707761,10.487443 26.3125,22.25 l -6.4375,0 c -2.306366,-5.949031 -6.640413,-11.137856 -12.5625,-13.8125 -0.0083,-0.0037 -0.02297,0.0037 -0.03125,0 -3.396932,-1.692261 -7.141734,-2.633431 -10.96875,-2.65625 -0.224104,-0.0014 -0.456004,-0.006 -0.71875,0 -0.01142,2.63e-4 -0.01971,-3.07e-4 -0.03125,0 -10.338842,-0.05453 -19.670389,7.123559 -23.5,16.46875 l -6.3125,0 C 21.32349,26.987451 31.509557,18.060634 44.03125,16.5 a 1.0671748,1.0671748 0 0 0 0.9375,-1.0625 l 0,-8.375 L 45,7.0625 45,6 43.90625,6 z M 48,29.9375 c -9.973968,0 -18.0625,8.048621 -18.0625,18.0625 0,0 -0.112531,1.709504 0.40625,3.625 l 27.75,0 c -0.74873,2.091414 -2.11392,3.966249 -3.9375,5.21875 -4.1954,3.31225 -10.55118,2.091263 -14.125,-1.625 l -8.5625,0 C 34.256767,61.594122 40.59656,66.0625 48,66.0625 c 9.97398,0 18.0625,-8.088527 18.0625,-18.0625 0,0 0.01541,-1.869129 -0.34375,-3.625 l -27.75,0 c 1.561269,-3.946361 5.29218,-7.119122 9.625,-7.15625 0.21682,-0.01045 0.40881,-0.03569 0.625,-0.03125 2.90447,0.0589 5.72794,1.453389 7.6875,3.59375 l 8.65625,0 C 61.77448,34.405868 55.40345,29.9375 48,29.9375 z M 48,31 c 6.339011,0 11.733483,3.582774 14.65625,8.71875 l -6.4375,0 C 54.09839,37.612639 51.283529,36.186517 48.25,36.125 c -0.285064,-0.0059 -0.496711,0.0208 -0.65625,0.03125 -0.01516,9.93e-4 -0.04822,-6.88e-4 -0.0625,0 -4.820367,0.07122 -8.866706,3.526105 -10.5625,7.8125 a 1.0671748,1.0671748 0 0 0 1,1.46875 l 26.78125,0 C 64.888252,46.625491 65,48 65,48 65,57.397071 57.397078,65 48,65 41.661,65 36.293768,61.418829 33.375,56.28125 l 6.3125,0 c 3.967768,3.772606 10.506351,4.980998 15.0625,1.4375 0.01855,-0.01274 0.04404,-0.0184 0.0625,-0.03125 l 0,-0.03125 C 56.803365,56.264159 58.284422,54.260681 59.09375,52 a 1.0671748,1.0671748 0 0 0 -1,-1.4375 l -26.8125,0 C 31.101293,49.37147 31,48.0625 31,48.0625 A 1.0671748,1.0671748 0 0 0 31,48 C 31,38.560724 38.600088,31 48,31 z M 16.21875,56.1875 c 3.310771,12.863082 14.243968,22.699474 27.6875,24.375 l 0,9.4375 1.09375,0 0,-1.0625 -0.03125,0 0,-8.375 A 1.0671748,1.0671748 0 0 0 44.03125,79.5 C 31.509557,77.939367 21.32349,69.012549 17.71875,57.25 l 6.34375,0 c 3.751791,9.353962 12.983655,16.5063 23.3125,16.46875 0.01053,-3.8e-5 0.02072,5.3e-5 0.03125,0 C 57.999157,74.075751 68.274551,67.112504 72,57.25 l 6.28125,0 C 74.676511,69.012549 64.490451,77.939367 51.96875,79.5 a 1.0671748,1.0671748 0 0 0 -0.9375,1.0625 l 0,8.375 -0.03125,0 0,1.0625 1.09375,0 0,-9.4375 c 13.44354,-1.675526 24.37673,-11.511918 27.6875,-24.375 l -8.46875,0 C 67.99712,65.967877 57.76648,73.019554 47.40625,72.65625 37.319193,72.70722 28.161742,65.482992 24.75,56.1875 l -8.53125,0 z" />
      <path
         style="opacity:0.3;fill:#000000;fill-opacity:1;stroke:none;display:inline"
         id="path3922"
         inkscape:connector-curvature="0"
         d="m 43.90625,15.4375 c -13.443532,1.675527 -24.376729,11.511918 -27.6875,24.375 l 0.3125,0 c 3.610778,-12.363265 14.286213,-21.743686 27.375,-23.375 z m 8.1875,0 0,1 c 13.088795,1.631314 23.764224,11.011726 27.375,23.375 l 0.3125,0 C 76.47048,26.949408 65.53729,17.113027 52.09375,15.4375 z M 48,29.9375 c -9.973968,0 -18.0625,8.048621 -18.0625,18.0625 0,0 -0.0224,0.432106 0,1 0,-10.013879 8.088532,-18.0625 18.0625,-18.0625 7.014539,0 13.103388,4.000561 16.09375,9.84375 l 0.46875,0 C 61.77448,34.405868 55.40345,29.9375 48,29.9375 z M 38.4375,44.375 c -0.16828,0.331489 -0.332458,0.6555 -0.46875,1 l 27.75,0 c 0.25718,1.257306 0.291765,2.326952 0.3125,2.96875 0.0022,-0.115933 0.03125,-0.227292 0.03125,-0.34375 0,0 0.01541,-1.869129 -0.34375,-3.625 z m 19.21875,8.25 c -0.786369,1.673654 -1.98035,3.174999 -3.5,4.21875 -4.1954,3.31225 -10.55118,2.091263 -14.125,-1.625 l -8.5625,0 c 0.146458,0.334905 0.302954,0.676033 0.46875,1 l 8.09375,0 c 3.57382,3.716263 9.9296,4.93725 14.125,1.625 1.82358,-1.252501 3.18877,-3.127336 3.9375,-5.21875 z m -41.4375,3.5625 c 0.08736,0.339428 0.214637,0.664919 0.3125,1 l 8.21875,0 c 3.411742,9.295492 12.569193,16.51972 22.65625,16.46875 10.36023,0.363304 20.59087,-6.688373 23.90625,-16.46875 l 8.15625,0 c 0.09786,-0.335081 0.225136,-0.660572 0.3125,-1 l -8.46875,0 C 67.99712,65.967877 57.76648,73.019554 47.40625,72.65625 37.319193,72.70722 28.161742,65.482992 24.75,56.1875 z" />
      <path
         style="opacity:0.3;fill:#ffffff;fill-opacity:1;stroke:none;display:inline"
         id="path3963"
         inkscape:connector-curvature="0"
         d="M 47.5625,23.34375 C 37.468942,23.276151 28.206962,30.527751 24.71875,39.8125 l -8.1875,0 c -0.09786,0.335081 -0.225136,0.660572 -0.3125,1 l 8.5,0 c 3.488212,-9.284749 12.750192,-16.536349 22.84375,-16.46875 0.24474,-0.0065 0.47445,-0.0015 0.71875,0 3.66456,0.02185 7.26615,0.931319 10.53125,2.5625 5.88112,2.647413 10.24114,7.882047 12.375,13.90625 l 8.59375,0 c -0.08736,-0.339429 -0.214637,-0.664918 -0.3125,-1 l -8.28125,0 C 69.05364,33.788297 64.69362,28.553663 58.8125,25.90625 55.5474,24.275069 51.94581,23.3656 48.28125,23.34375 c -0.2443,-0.0015 -0.47401,-0.0065 -0.71875,0 z m 0.65625,13.84375 c -0.21619,-0.0044 -0.40818,0.0208 -0.625,0.03125 -4.33282,0.03713 -8.063731,3.209889 -9.625,7.15625 l 0.46875,0 c 1.759416,-3.465826 5.201667,-6.122363 9.15625,-6.15625 0.21682,-0.01045 0.40881,-0.03569 0.625,-0.03125 2.90447,0.0589 5.72794,1.453389 7.6875,3.59375 l 8.65625,0 c -0.146458,-0.334906 -0.302954,-0.676032 -0.46875,-1 l -8.1875,0 C 53.94669,38.640889 51.12322,37.2464 48.21875,37.1875 z m 17.8125,11.15625 C 65.845474,58.156844 57.857522,66.0625 48,66.0625 c -7.014529,0 -13.07214,-4.000569 -16.0625,-9.84375 l -0.46875,0 C 34.256767,62.594122 40.59656,67.0625 48,67.0625 c 9.97398,0 18.0625,-8.088527 18.0625,-18.0625 0,0 -0.02303,-0.401755 -0.03125,-0.65625 z m -36.09375,0.75 c -0.0085,0.136577 -0.0903,1.697847 0.40625,3.53125 l 27.3125,0 c 0.157274,-0.334731 0.312712,-0.651431 0.4375,-1 l -27.75,0 C 30.084359,50.667252 29.972418,49.757287 29.9375,49.09375 z M 16.21875,57.1875 c 3.310771,12.863082 14.243968,22.699474 27.6875,24.375 l 0,-1 C 30.817463,78.931187 20.142028,69.550765 16.53125,57.1875 z m 63.25,0 c -3.610776,12.363265 -14.286205,21.743687 -27.375,23.375 l 0,1 c 13.44354,-1.675526 24.37673,-11.511918 27.6875,-24.375 z" />
    </g>
    <rect
       ry="25"
       rx="25"
       id="rect3003"
       style="opacity:0.15;fill:#ffffff;fill-opacity:1"
       height="92"
       width="92"
       y="958.36218"
       x="-96"
       clip-path="url(#clipPath3009)"
       transform="translate(98,3.8281269e-7)" />
  </g>
</svg>
