<?xml version="1.0" encoding="UTF-8" standalone="no"?>
<!-- Created with Inkscape (http://www.inkscape.org/) -->

<svg
   xmlns:dc="http://purl.org/dc/elements/1.1/"
   xmlns:cc="http://creativecommons.org/ns#"
   xmlns:rdf="http://www.w3.org/1999/02/22-rdf-syntax-ns#"
   xmlns:svg="http://www.w3.org/2000/svg"
   xmlns="http://www.w3.org/2000/svg"
   xmlns:xlink="http://www.w3.org/1999/xlink"
   xmlns:sodipodi="http://sodipodi.sourceforge.net/DTD/sodipodi-0.dtd"
   xmlns:inkscape="http://www.inkscape.org/namespaces/inkscape"
   width="96"
   height="96"
   id="svg11037"
   version="1.1"
   inkscape:version="0.48.3.1 r9886"
   sodipodi:docname="system-file-manager.svg">
  <defs
     id="defs11039">
    <linearGradient
       y2="1046.1001"
       x2="47.999954"
       y1="962.62189"
       x1="47.999954"
       gradientTransform="matrix(1.15,0,0,1.15,-7.1999462,-150.65291)"
       gradientUnits="userSpaceOnUse"
       id="linearGradient3886"
       xlink:href="#linearGradient3795"
       inkscape:collect="always" />
    <linearGradient
       id="linearGradient3795">
      <stop
         style="stop-color:#13a6fd;stop-opacity:1;"
         offset="0"
         id="stop3797" />
      <stop
         style="stop-color:#2975b6;stop-opacity:1;"
         offset="1"
         id="stop3799" />
    </linearGradient>
    <linearGradient
       y2="1046.1001"
       x2="47.999954"
       y1="962.62189"
       x1="47.999954"
       gradientTransform="matrix(1.15,0,0,1.15,-7.1999462,-150.65292)"
       gradientUnits="userSpaceOnUse"
       id="linearGradient11642"
       xlink:href="#linearGradient3795"
       inkscape:collect="always" />
    <linearGradient
       x1="24"
       y1="8"
       x2="70.188019"
       y2="88"
       id="linearGradient3617"
       xlink:href="#linearGradient3700"
       gradientUnits="userSpaceOnUse" />
    <linearGradient
       id="linearGradient3700">
      <stop
         id="stop3702"
         style="stop-color:#dcdcdc;stop-opacity:1"
         offset="0" />
      <stop
         id="stop3822"
         style="stop-color:#f0f0f0;stop-opacity:1"
         offset="0.30000001" />
      <stop
         id="stop3824"
         style="stop-color:#dcdcdc;stop-opacity:1"
         offset="0.60000002" />
      <stop
         id="stop3828"
         style="stop-color:#c8c8c8;stop-opacity:1"
         offset="0.80000001" />
      <stop
         id="stop3704"
         style="stop-color:#bebebe;stop-opacity:1"
         offset="1" />
    </linearGradient>
    <linearGradient
       x1="67"
       y1="44"
       x2="67"
       y2="16"
       id="linearGradient3890"
       xlink:href="#linearGradient3850"
       gradientUnits="userSpaceOnUse" />
    <linearGradient
       id="linearGradient3850">
      <stop
         id="stop3852"
         style="stop-color:#000000;stop-opacity:1"
         offset="0" />
      <stop
         id="stop3854"
         style="stop-color:#000000;stop-opacity:0"
         offset="1" />
    </linearGradient>
    <linearGradient
       x1="80"
       y1="40"
       x2="73.569221"
       y2="16"
       id="linearGradient3864"
       xlink:href="#linearGradient3850"
       gradientUnits="userSpaceOnUse" />
    <linearGradient
       id="linearGradient3272">
      <stop
         id="stop3274"
         style="stop-color:#000000;stop-opacity:1"
         offset="0" />
      <stop
         id="stop3276"
         style="stop-color:#000000;stop-opacity:0"
         offset="1" />
    </linearGradient>
    <linearGradient
       x1="67"
       y1="44"
       x2="67"
       y2="-24"
       id="linearGradient3856"
       xlink:href="#linearGradient3850"
       gradientUnits="userSpaceOnUse" />
    <linearGradient
       id="linearGradient3279">
      <stop
         id="stop3281"
         style="stop-color:#000000;stop-opacity:1"
         offset="0" />
      <stop
         id="stop3283"
         style="stop-color:#000000;stop-opacity:0"
         offset="1" />
    </linearGradient>
    <linearGradient
       x1="24"
       y1="8"
       x2="72"
       y2="48"
       id="linearGradient3840"
       xlink:href="#linearGradient3700"
       gradientUnits="userSpaceOnUse" />
    <linearGradient
       id="linearGradient3286">
      <stop
         id="stop3288"
         style="stop-color:#dcdcdc;stop-opacity:1"
         offset="0" />
      <stop
         id="stop3290"
         style="stop-color:#f0f0f0;stop-opacity:1"
         offset="0.30000001" />
      <stop
         id="stop3292"
         style="stop-color:#dcdcdc;stop-opacity:1"
         offset="0.60000002" />
      <stop
         id="stop3294"
         style="stop-color:#c8c8c8;stop-opacity:1"
         offset="0.80000001" />
      <stop
         id="stop3296"
         style="stop-color:#bebebe;stop-opacity:1"
         offset="1" />
    </linearGradient>
    <linearGradient
       x1="67"
       y1="44"
       x2="67"
       y2="16"
       id="linearGradient3925"
       xlink:href="#linearGradient3850"
       gradientUnits="userSpaceOnUse"
       gradientTransform="translate(0,41)" />
    <linearGradient
       id="linearGradient3299">
      <stop
         id="stop3301"
         style="stop-color:#000000;stop-opacity:1"
         offset="0" />
      <stop
         id="stop3303"
         style="stop-color:#000000;stop-opacity:0"
         offset="1" />
    </linearGradient>
    <linearGradient
       x1="80"
       y1="40"
       x2="71.425629"
       y2="8"
       id="linearGradient3931"
       xlink:href="#linearGradient3850"
       gradientUnits="userSpaceOnUse" />
    <linearGradient
       id="linearGradient3306">
      <stop
         id="stop3308"
         style="stop-color:#000000;stop-opacity:1"
         offset="0" />
      <stop
         id="stop3310"
         style="stop-color:#000000;stop-opacity:0"
         offset="1" />
    </linearGradient>
    <linearGradient
       x1="67"
       y1="44"
       x2="67"
       y2="-40"
       id="linearGradient3915"
       xlink:href="#linearGradient3850"
       gradientUnits="userSpaceOnUse" />
    <linearGradient
       id="linearGradient3313">
      <stop
         id="stop3315"
         style="stop-color:#000000;stop-opacity:1"
         offset="0" />
      <stop
         id="stop3317"
         style="stop-color:#000000;stop-opacity:0"
         offset="1" />
    </linearGradient>
    <linearGradient
       x1="24"
       y1="40"
       x2="72"
       y2="88"
       id="linearGradient3872"
       xlink:href="#linearGradient3866"
       gradientUnits="userSpaceOnUse" />
    <linearGradient
       id="linearGradient3866">
      <stop
         id="stop3868"
         style="stop-color:#ffffff;stop-opacity:1"
         offset="0" />
      <stop
         id="stop3880"
         style="stop-color:#d2d2d2;stop-opacity:1"
         offset="0.16666667" />
      <stop
         id="stop3878"
         style="stop-color:#c8c8c8;stop-opacity:1"
         offset="0.33333334" />
      <stop
         id="stop3876"
         style="stop-color:#dcdcdc;stop-opacity:1"
         offset="0.66666669" />
      <stop
         id="stop3874"
         style="stop-color:#cfcfcf;stop-opacity:1"
         offset="0.83333331" />
      <stop
         id="stop3870"
         style="stop-color:#bdbdbd;stop-opacity:1"
         offset="1" />
    </linearGradient>
    <linearGradient
       x1="32"
       y1="16"
       x2="32"
       y2="32"
       id="linearGradient3911"
       xlink:href="#linearGradient3905"
       gradientUnits="userSpaceOnUse" />
    <linearGradient
       id="linearGradient3905">
      <stop
         id="stop3907"
         style="stop-color:#ffffff;stop-opacity:1"
         offset="0" />
      <stop
         id="stop3909"
         style="stop-color:#ffffff;stop-opacity:0"
         offset="1" />
    </linearGradient>
    <linearGradient
       x1="32"
       y1="8"
       x2="32"
       y2="32"
       id="linearGradient3929"
       xlink:href="#linearGradient3905"
       gradientUnits="userSpaceOnUse"
       gradientTransform="translate(0,40)" />
    <linearGradient
       id="linearGradient3332">
      <stop
         id="stop3334"
         style="stop-color:#ffffff;stop-opacity:1"
         offset="0" />
      <stop
         id="stop3336"
         style="stop-color:#ffffff;stop-opacity:0"
         offset="1" />
    </linearGradient>
    <linearGradient
       x1="48"
       y1="32"
       x2="48"
       y2="40"
       id="linearGradient3875"
       xlink:href="#linearGradient3865"
       gradientUnits="userSpaceOnUse"
       gradientTransform="translate(0,36)" />
    <linearGradient
       id="linearGradient3865">
      <stop
         id="stop3867"
         style="stop-color:#000000;stop-opacity:1"
         offset="0" />
      <stop
         id="stop3869"
         style="stop-color:#000000;stop-opacity:0"
         offset="1" />
    </linearGradient>
    <filter
       x="-0.11625"
       y="-0.39857143"
       width="1.2325"
       height="1.7971429"
       color-interpolation-filters="sRGB"
       id="filter4020">
      <feGaussianBlur
         id="feGaussianBlur4022"
         stdDeviation="1.1625" />
    </filter>
    <filter
       x="-0.06469065"
       y="-0.18604138"
       width="1.1293813"
       height="1.3720828"
       color-interpolation-filters="sRGB"
       id="filter4078">
      <feGaussianBlur
         id="feGaussianBlur4080"
         stdDeviation="0.7025" />
    </filter>
    <linearGradient
       x1="46"
       y1="26"
       x2="46"
       y2="32"
       id="linearGradient4060"
       xlink:href="#linearGradient4040"
       gradientUnits="userSpaceOnUse" />
    <linearGradient
       id="linearGradient4040">
      <stop
         id="stop4042"
         style="stop-color:#656565;stop-opacity:1"
         offset="0" />
      <stop
         id="stop4044"
         style="stop-color:#b9b9b9;stop-opacity:1"
         offset="1" />
    </linearGradient>
    <linearGradient
       x1="45"
       y1="30"
       x2="45"
       y2="18"
       id="linearGradient4058"
       xlink:href="#linearGradient3967"
       gradientUnits="userSpaceOnUse"
       gradientTransform="matrix(1,0,0,-1,0,45)" />
    <linearGradient
       id="linearGradient3967">
      <stop
         id="stop3969"
         style="stop-color:#ffffff;stop-opacity:1"
         offset="0" />
      <stop
         id="stop3971"
         style="stop-color:#8e8e8e;stop-opacity:1"
         offset="0.75" />
      <stop
         id="stop3973"
         style="stop-color:#cacaca;stop-opacity:1"
         offset="1" />
    </linearGradient>
    <linearGradient
       x1="48"
       y1="32"
       x2="48"
       y2="40"
       id="linearGradient3871"
       xlink:href="#linearGradient3865"
       gradientUnits="userSpaceOnUse" />
    <linearGradient
       id="linearGradient3356">
      <stop
         id="stop3358"
         style="stop-color:#000000;stop-opacity:1"
         offset="0" />
      <stop
         id="stop3360"
         style="stop-color:#000000;stop-opacity:0"
         offset="1" />
    </linearGradient>
    <filter
       x="-0.11625"
       y="-0.39857143"
       width="1.2325"
       height="1.7971429"
       color-interpolation-filters="sRGB"
       id="filter3362">
      <feGaussianBlur
         id="feGaussianBlur3364"
         stdDeviation="1.1625" />
    </filter>
    <linearGradient
       x1="50"
       y1="31"
       x2="50"
       y2="17"
       id="linearGradient4004"
       xlink:href="#linearGradient4040"
       gradientUnits="userSpaceOnUse" />
    <linearGradient
       id="linearGradient3367">
      <stop
         id="stop3369"
         style="stop-color:#656565;stop-opacity:1"
         offset="0" />
      <stop
         id="stop3371"
         style="stop-color:#b9b9b9;stop-opacity:1"
         offset="1" />
    </linearGradient>
    <linearGradient
       x1="48"
       y1="26"
       x2="48"
       y2="30"
       id="linearGradient3955"
       xlink:href="#linearGradient3967"
       gradientUnits="userSpaceOnUse"
       gradientTransform="translate(0,2)" />
    <linearGradient
       id="linearGradient3374">
      <stop
         id="stop3376"
         style="stop-color:#ffffff;stop-opacity:1"
         offset="0" />
      <stop
         id="stop3378"
         style="stop-color:#8e8e8e;stop-opacity:1"
         offset="0.75" />
      <stop
         id="stop3380"
         style="stop-color:#cacaca;stop-opacity:1"
         offset="1" />
    </linearGradient>
    <filter
       x="-0.06469065"
       y="-0.18604138"
       width="1.1293813"
       height="1.3720828"
       color-interpolation-filters="sRGB"
       id="filter3382">
      <feGaussianBlur
         id="feGaussianBlur3384"
         stdDeviation="0.7025" />
    </filter>
    <linearGradient
       x1="46"
       y1="26"
       x2="46"
       y2="32"
       id="linearGradient4094"
       xlink:href="#linearGradient4040"
       gradientUnits="userSpaceOnUse" />
    <linearGradient
       id="linearGradient3387">
      <stop
         id="stop3389"
         style="stop-color:#656565;stop-opacity:1"
         offset="0" />
      <stop
         id="stop3391"
         style="stop-color:#b9b9b9;stop-opacity:1"
         offset="1" />
    </linearGradient>
    <linearGradient
       x1="45"
       y1="30"
       x2="45"
       y2="18"
       id="linearGradient4096"
       xlink:href="#linearGradient3967"
       gradientUnits="userSpaceOnUse"
       gradientTransform="matrix(1,0,0,-1,0,45)" />
    <linearGradient
       id="linearGradient3394">
      <stop
         id="stop3396"
         style="stop-color:#ffffff;stop-opacity:1"
         offset="0" />
      <stop
         id="stop3398"
         style="stop-color:#8e8e8e;stop-opacity:1"
         offset="0.75" />
      <stop
         id="stop3400"
         style="stop-color:#cacaca;stop-opacity:1"
         offset="1" />
    </linearGradient>
    <linearGradient
       x1="50"
       y1="31"
       x2="50"
       y2="17"
       id="linearGradient4098"
       xlink:href="#linearGradient4040"
       gradientUnits="userSpaceOnUse" />
    <linearGradient
       id="linearGradient3403">
      <stop
         id="stop3405"
         style="stop-color:#656565;stop-opacity:1"
         offset="0" />
      <stop
         id="stop3407"
         style="stop-color:#b9b9b9;stop-opacity:1"
         offset="1" />
    </linearGradient>
    <linearGradient
       x1="48"
       y1="26"
       x2="48"
       y2="30"
       id="linearGradient4100"
       xlink:href="#linearGradient3967"
       gradientUnits="userSpaceOnUse"
       gradientTransform="translate(0,38)" />
    <linearGradient
       id="linearGradient3410">
      <stop
         id="stop3412"
         style="stop-color:#ffffff;stop-opacity:1"
         offset="0" />
      <stop
         id="stop3414"
         style="stop-color:#8e8e8e;stop-opacity:1"
         offset="0.75" />
      <stop
         id="stop3416"
         style="stop-color:#cacaca;stop-opacity:1"
         offset="1" />
    </linearGradient>
    <clipPath
       clipPathUnits="userSpaceOnUse"
       id="clipPath3268">
      <rect
         x="6"
         y="6.0000038"
         width="84"
         height="84"
         style="fill:url(#linearGradient3273);fill-opacity:1"
         id="rect3270"
         rx="22.826086"
         ry="22.826086" />
    </clipPath>
    <linearGradient
       inkscape:collect="always"
       xlink:href="#linearGradient3795"
       id="linearGradient3273"
       gradientUnits="userSpaceOnUse"
       gradientTransform="matrix(1.05,0,0,1.05,-2.3999508,-1006.579)"
       x1="47.999954"
       y1="962.62189"
       x2="47.999954"
       y2="1046.1001" />
    <clipPath
       clipPathUnits="userSpaceOnUse"
       id="clipPath3009">
      <path
         id="path3011"
         d="m -2,956.36218 -96,0 0,33.5624 96,25.68742 0,-59.24982 z"
         style="opacity:0.15;fill:#ffffff;fill-opacity:1;stroke:none"
         inkscape:connector-curvature="0" />
    </clipPath>
  </defs>
  <sodipodi:namedview
     id="base"
     pagecolor="#ffffff"
     bordercolor="#666666"
     borderopacity="1.0"
     inkscape:pageopacity="0.0"
     inkscape:pageshadow="2"
     inkscape:zoom="3.959798"
     inkscape:cx="37.957448"
     inkscape:cy="59.964634"
     inkscape:document-units="px"
     inkscape:current-layer="layer1"
     showgrid="false"
     inkscape:window-width="1280"
     inkscape:window-height="750"
     inkscape:window-x="0"
     inkscape:window-y="22"
     inkscape:window-maximized="1"
     showguides="true"
     inkscape:guide-bbox="true">
    <sodipodi:guide
       orientation="0,1"
       position="-24.748737,0"
       id="guide11064" />
    <sodipodi:guide
       orientation="0,1"
       position="-23.233509,96"
       id="guide11066" />
    <sodipodi:guide
       orientation="1,0"
       position="0,54.800776"
       id="guide11068" />
    <sodipodi:guide
       orientation="1,0"
       position="96,51.012704"
       id="guide11070" />
    <sodipodi:guide
       orientation="0,1"
       position="-18.94036,48"
       id="guide11072" />
    <sodipodi:guide
       orientation="1,0"
       position="48,79.296975"
       id="guide11074" />
    <sodipodi:guide
       orientation="1,0"
       position="2,75.508903"
       id="guide11076" />
    <sodipodi:guide
       orientation="0,1"
       position="-77.27667,2"
       id="guide11078" />
    <sodipodi:guide
       orientation="1,0"
       position="94,77.781746"
       id="guide11080" />
    <sodipodi:guide
       orientation="0,1"
       position="-65.912454,94"
       id="guide11082" />
  </sodipodi:namedview>
  <metadata
     id="metadata11042">
    <rdf:RDF>
      <cc:Work
         rdf:about="">
        <dc:format>image/svg+xml</dc:format>
        <dc:type
           rdf:resource="http://purl.org/dc/dcmitype/StillImage" />
        <dc:title />
      </cc:Work>
    </rdf:RDF>
  </metadata>
  <g
     inkscape:label="Layer 1"
     inkscape:groupmode="layer"
     id="layer1"
     transform="translate(0,-956.36218)">
    <g
       transform="matrix(1.0952381,0,0,1.0952381,-4.5714286,951.79075)"
       id="g3223"
       clip-path="url(#clipPath3268)">
      <g
         id="g3096">
        <rect
           width="84"
           height="84"
           rx="6"
           ry="6"
           x="6"
           y="6"
           id="rect2419"
           style="fill:url(#linearGradient3617);fill-opacity:1;fill-rule:nonzero;stroke:none" />
        <path
           inkscape:connector-curvature="0"
           d="m 15,11.96875 c -1.660749,0 -3.03125,1.370501 -3.03125,3.03125 l 0,26 c 0,1.660749 1.370501,3.03125 3.03125,3.03125 l 66,0 c 1.660749,0 3.03125,-1.370501 3.03125,-3.03125 l 0,-26 c 0,-1.660749 -1.370501,-3.03125 -3.03125,-3.03125 l -66,0 z"
           transform="translate(0,1)"
           id="path3888"
           style="opacity:0.05;color:#000000;fill:url(#linearGradient3890);fill-opacity:1;fill-rule:nonzero;stroke:none;stroke-width:1;marker:none;visibility:visible;display:inline;overflow:visible;enable-background:accumulate" />
        <path
           inkscape:connector-curvature="0"
           d="m 15,11.96875 c -1.660749,0 -3.03125,1.370501 -3.03125,3.03125 l 0,26 c 0,1.660749 1.370501,3.03125 3.03125,3.03125 l 66,0 c 1.660749,0 3.03125,-1.370501 3.03125,-3.03125 l 0,-26 c 0,-1.660749 -1.370501,-3.03125 -3.03125,-3.03125 l -66,0 z"
           id="path3862"
           style="opacity:0.1;color:#000000;fill:url(#linearGradient3864);fill-opacity:1;fill-rule:nonzero;stroke:none;stroke-width:1;marker:none;visibility:visible;display:inline;overflow:visible;enable-background:accumulate" />
        <path
           inkscape:connector-curvature="0"
           d="m 15,12.96875 c -1.10119,0 -2.03125,0.93006 -2.03125,2.03125 l 0,26 c 0,1.10119 0.93006,2.03125 2.03125,2.03125 l 66,0 c 1.10119,0 2.03125,-0.93006 2.03125,-2.03125 l 0,-26 c 0,-1.10119 -0.93006,-2.03125 -2.03125,-2.03125 l -66,0 z"
           id="path3846"
           style="opacity:0.5;color:#000000;fill:url(#linearGradient3856);fill-opacity:1;fill-rule:nonzero;stroke:none;stroke-width:1;marker:none;visibility:visible;display:inline;overflow:visible;enable-background:accumulate" />
        <rect
           width="68"
           height="28"
           rx="1"
           ry="1"
           x="14"
           y="14"
           id="rect3830"
           style="color:#000000;fill:url(#linearGradient3840);fill-opacity:1;fill-rule:nonzero;stroke:none;stroke-width:1;marker:none;visibility:visible;display:inline;overflow:visible;enable-background:accumulate" />
        <path
           d="m 15,48.96875 c -1.660749,0 -3.03125,1.370501 -3.03125,3.03125 l 0,30 c 0,1.660749 1.370501,3.03125 3.03125,3.03125 l 66,0 c 1.660749,0 3.03125,-1.370501 3.03125,-3.03125 l 0,-30 c 0,-1.660749 -1.370501,-3.03125 -3.03125,-3.03125 z"
           inkscape:connector-curvature="0"
           id="path3923"
           style="opacity:0.05;color:#000000;fill:url(#linearGradient3925);fill-opacity:1;fill-rule:nonzero;stroke:none;stroke-width:1;marker:none;visibility:visible;display:inline;overflow:visible;enable-background:accumulate" />
        <path
           d="m 15,7.96875 c -1.660749,0 -3.03125,1.370501 -3.03125,3.03125 l 0,30 c 0,1.660749 1.370501,3.03125 3.03125,3.03125 l 66,0 c 1.660749,0 3.03125,-1.370501 3.03125,-3.03125 l 0,-30 C 84.03125,9.339251 82.660749,7.96875 81,7.96875 z"
           inkscape:connector-curvature="0"
           transform="translate(0,40)"
           id="path3918"
           style="opacity:0.1;color:#000000;fill:url(#linearGradient3931);fill-opacity:1;fill-rule:nonzero;stroke:none;stroke-width:1;marker:none;visibility:visible;display:inline;overflow:visible;enable-background:accumulate" />
        <path
           d="m 15,8.96875 c -1.10119,0 -2.03125,0.93006 -2.03125,2.03125 l 0,30 c 0,1.10119 0.93006,2.03125 2.03125,2.03125 l 66,0 c 1.10119,0 2.03125,-0.93006 2.03125,-2.03125 l 0,-30 C 83.03125,9.89881 82.10119,8.96875 81,8.96875 z"
           inkscape:connector-curvature="0"
           transform="translate(0,40)"
           id="path3913"
           style="opacity:0.5;color:#000000;fill:url(#linearGradient3915);fill-opacity:1;fill-rule:nonzero;stroke:none;stroke-width:1;marker:none;visibility:visible;display:inline;overflow:visible;enable-background:accumulate" />
        <rect
           width="68"
           height="32"
           rx="1"
           ry="1"
           x="14"
           y="50"
           id="rect3832"
           style="color:#000000;fill:url(#linearGradient3872);fill-opacity:1;fill-rule:nonzero;stroke:none;stroke-width:1;marker:none;visibility:visible;display:inline;overflow:visible;enable-background:accumulate" />
        <path
           d="m 15,14 c -0.554,0 -1,0.446 -1,1 l 0,26 c 0,0.554 0.446,1 1,1 l 66,0 c 0.554,0 1,-0.446 1,-1 l 0,-26 c 0,-0.554 -0.446,-1 -1,-1 z m 0,0.90625 66,0 c 0.06312,0 0.09375,0.03063 0.09375,0.09375 l 0,26 c 0,0.06312 -0.03063,0.09375 -0.09375,0.09375 l -66,0 c -0.06312,0 -0.09375,-0.03063 -0.09375,-0.09375 l 0,-26 c 0,-0.06312 0.03063,-0.09375 0.09375,-0.09375 z"
           inkscape:connector-curvature="0"
           id="rect3892"
           style="opacity:0.7;color:#000000;fill:url(#linearGradient3911);fill-opacity:1;fill-rule:nonzero;stroke:none;stroke-width:1;marker:none;visibility:visible;display:inline;overflow:visible;enable-background:accumulate" />
        <path
           d="m 15,50 c -0.554,0 -1,0.446 -1,1 l 0,30 c 0,0.554 0.446,1 1,1 l 66,0 c 0.554,0 1,-0.446 1,-1 l 0,-30 c 0,-0.554 -0.446,-1 -1,-1 z m 0,0.90625 66,0 c 0.06312,0 0.09375,0.03063 0.09375,0.09375 l 0,30 c 0,0.06312 -0.03063,0.09375 -0.09375,0.09375 l -66,0 c -0.06312,0 -0.09375,-0.03063 -0.09375,-0.09375 l 0,-30 c 0,-0.06312 0.03063,-0.09375 0.09375,-0.09375 z"
           inkscape:connector-curvature="0"
           id="path3927"
           style="opacity:0.7;color:#000000;fill:url(#linearGradient3929);fill-opacity:1;fill-rule:nonzero;stroke:none;stroke-width:1;marker:none;visibility:visible;display:inline;overflow:visible;enable-background:accumulate" />
      </g>
      <g
         style="display:inline"
         id="layer4">
        <path
           style="opacity:0.25;fill:none;stroke:url(#linearGradient3875);stroke-width:3;stroke-linecap:butt;stroke-linejoin:round;stroke-miterlimit:4;stroke-opacity:1;stroke-dasharray:none;filter:url(#filter4020)"
           id="path3873"
           inkscape:connector-curvature="0"
           d="m 38,65 2,7 20,0 -2,-6.928203" />
        <g
           style="opacity:0.2;filter:url(#filter4078)"
           id="g4054"
           transform="translate(0,5)">
          <path
             inkscape:connector-curvature="0"
             style="color:#000000;fill:url(#linearGradient4060);fill-opacity:1;fill-rule:nonzero;stroke:none;stroke-width:1;marker:none;visibility:visible;display:inline;overflow:visible;enable-background:accumulate"
             id="path4046"
             transform="matrix(1,0,0,-1,0,45)"
             d="m 37,21.96875 c -1.114316,0 -2.03125,0.916934 -2.03125,2.03125 l 0,1 0,1 0,2 0,1 c 0,1.114316 0.916934,2.03125 2.03125,2.03125 l 22,0 c 1.114316,0 2.03125,-0.916934 2.03125,-2.03125 l 0,-1 0,-2 0,-1 0,-1 c 0,-1.114316 -0.916934,-2.03125 -2.03125,-2.03125 l -2,0 c -1.114316,0 -2.03125,0.916934 -2.03125,2.03125 l 0,0.96875 -0.96875,0 -12.96875,0 0,-0.96875 c 0,-1.114316 -0.916934,-2.03125 -2.03125,-2.03125 l -2,0 z" />
          <path
             style="color:#000000;fill:url(#linearGradient4058);fill-opacity:1;fill-rule:nonzero;stroke:none;stroke-width:1;marker:none;visibility:visible;display:inline;overflow:visible;enable-background:accumulate"
             id="path4048"
             inkscape:connector-curvature="0"
             d="m 37,22 c -0.554,0 -1,-0.446 -1,-1 l 0,-1 0,-1 0,-2 0,-1 c 0,-0.554 0.446,-1 1,-1 l 22,0 c 0.554,0 1,0.446 1,1 l 0,1 0,2 0,1 0,1 c 0,0.554 -0.446,1 -1,1 l -2,0 c -0.554,0 -1,-0.446 -1,-1 l 0,-1 c 0,-0.554 -0.446,-1 -1,-1 l -1,0 -13,0 c -0.554,0 -1,0.446 -1,1 l 0,1 c 0,0.554 -0.446,1 -1,1 l -2,0 z" />
        </g>
        <path
           style="opacity:0.25;fill:none;stroke:url(#linearGradient3871);stroke-width:3;stroke-linecap:butt;stroke-linejoin:round;stroke-miterlimit:4;stroke-opacity:1;stroke-dasharray:none;filter:url(#filter4020)"
           id="path4006"
           inkscape:connector-curvature="0"
           d="m 38,29 2,7 20,0 -2,-6.928203" />
        <path
           inkscape:connector-curvature="0"
           style="color:#000000;fill:url(#linearGradient4004);fill-opacity:1;fill-rule:nonzero;stroke:none;stroke-width:1;marker:none;visibility:visible;display:inline;overflow:visible;enable-background:accumulate"
           id="path3994"
           transform="translate(0,2)"
           d="m 37,21.96875 c -1.114316,0 -2.03125,0.916934 -2.03125,2.03125 l 0,1 0,1 0,2 0,1 c 0,1.114316 0.916934,2.03125 2.03125,2.03125 l 22,0 c 1.114316,0 2.03125,-0.916934 2.03125,-2.03125 l 0,-1 0,-2 0,-1 0,-1 c 0,-1.114316 -0.916934,-2.03125 -2.03125,-2.03125 l -2,0 c -1.114316,0 -2.03125,0.916934 -2.03125,2.03125 l 0,0.96875 -0.96875,0 -12.96875,0 0,-0.96875 c 0,-1.114316 -0.916934,-2.03125 -2.03125,-2.03125 l -2,0 z" />
        <path
           style="color:#000000;fill:url(#linearGradient3955);fill-opacity:1;fill-rule:nonzero;stroke:none;stroke-width:1;marker:none;visibility:visible;display:inline;overflow:visible;enable-background:accumulate"
           id="rect3934"
           inkscape:connector-curvature="0"
           d="m 37,25 c -0.554,0 -1,0.446 -1,1 l 0,1 0,1 0,2 0,1 c 0,0.554 0.446,1 1,1 l 22,0 c 0.554,0 1,-0.446 1,-1 l 0,-1 0,-2 0,-1 0,-1 c 0,-0.554 -0.446,-1 -1,-1 l -2,0 c -0.554,0 -1,0.446 -1,1 l 0,1 c 0,0.554 -0.446,1 -1,1 l -1,0 -13,0 c -0.554,0 -1,-0.446 -1,-1 l 0,-1 c 0,-0.554 -0.446,-1 -1,-1 l -2,0 z" />
        <g
           style="opacity:0.2;filter:url(#filter4078)"
           id="g4082"
           transform="translate(0,41)">
          <path
             inkscape:connector-curvature="0"
             style="color:#000000;fill:url(#linearGradient4094);fill-opacity:1;fill-rule:nonzero;stroke:none;stroke-width:1;marker:none;visibility:visible;display:inline;overflow:visible;enable-background:accumulate"
             id="path4084"
             transform="matrix(1,0,0,-1,0,45)"
             d="m 37,21.96875 c -1.114316,0 -2.03125,0.916934 -2.03125,2.03125 l 0,1 0,1 0,2 0,1 c 0,1.114316 0.916934,2.03125 2.03125,2.03125 l 22,0 c 1.114316,0 2.03125,-0.916934 2.03125,-2.03125 l 0,-1 0,-2 0,-1 0,-1 c 0,-1.114316 -0.916934,-2.03125 -2.03125,-2.03125 l -2,0 c -1.114316,0 -2.03125,0.916934 -2.03125,2.03125 l 0,0.96875 -0.96875,0 -12.96875,0 0,-0.96875 c 0,-1.114316 -0.916934,-2.03125 -2.03125,-2.03125 l -2,0 z" />
          <path
             style="color:#000000;fill:url(#linearGradient4096);fill-opacity:1;fill-rule:nonzero;stroke:none;stroke-width:1;marker:none;visibility:visible;display:inline;overflow:visible;enable-background:accumulate"
             id="path4086"
             inkscape:connector-curvature="0"
             d="m 37,22 c -0.554,0 -1,-0.446 -1,-1 l 0,-1 0,-1 0,-2 0,-1 c 0,-0.554 0.446,-1 1,-1 l 22,0 c 0.554,0 1,0.446 1,1 l 0,1 0,2 0,1 0,1 c 0,0.554 -0.446,1 -1,1 l -2,0 c -0.554,0 -1,-0.446 -1,-1 l 0,-1 c 0,-0.554 -0.446,-1 -1,-1 l -1,0 -13,0 c -0.554,0 -1,0.446 -1,1 l 0,1 c 0,0.554 -0.446,1 -1,1 l -2,0 z" />
        </g>
        <path
           inkscape:connector-curvature="0"
           style="color:#000000;fill:url(#linearGradient4098);fill-opacity:1;fill-rule:nonzero;stroke:none;stroke-width:1;marker:none;visibility:visible;display:inline;overflow:visible;enable-background:accumulate"
           id="path4090"
           transform="translate(0,38)"
           d="m 37,21.96875 c -1.114316,0 -2.03125,0.916934 -2.03125,2.03125 l 0,1 0,1 0,2 0,1 c 0,1.114316 0.916934,2.03125 2.03125,2.03125 l 22,0 c 1.114316,0 2.03125,-0.916934 2.03125,-2.03125 l 0,-1 0,-2 0,-1 0,-1 c 0,-1.114316 -0.916934,-2.03125 -2.03125,-2.03125 l -2,0 c -1.114316,0 -2.03125,0.916934 -2.03125,2.03125 l 0,0.96875 -0.96875,0 -12.96875,0 0,-0.96875 c 0,-1.114316 -0.916934,-2.03125 -2.03125,-2.03125 l -2,0 z" />
        <path
           style="color:#000000;fill:url(#linearGradient4100);fill-opacity:1;fill-rule:nonzero;stroke:none;stroke-width:1;marker:none;visibility:visible;display:inline;overflow:visible;enable-background:accumulate"
           id="path4092"
           inkscape:connector-curvature="0"
           d="m 37,61 c -0.554,0 -1,0.446 -1,1 l 0,1 0,1 0,2 0,1 c 0,0.554 0.446,1 1,1 l 22,0 c 0.554,0 1,-0.446 1,-1 l 0,-1 0,-2 0,-1 0,-1 c 0,-0.554 -0.446,-1 -1,-1 l -2,0 c -0.554,0 -1,0.446 -1,1 l 0,1 c 0,0.554 -0.446,1 -1,1 l -1,0 -13,0 c -0.554,0 -1,-0.446 -1,-1 l 0,-1 c 0,-0.554 -0.446,-1 -1,-1 l -2,0 z" />
      </g>
    </g>
    <rect
       ry="25"
       rx="25"
       id="rect3003"
       style="opacity:0.15;fill:#ffffff;fill-opacity:1"
       height="92"
       width="92"
       y="958.36218"
       x="-96"
       clip-path="url(#clipPath3009)"
       transform="translate(98,3.8281269e-7)" />
  </g>
</svg>
