<?xml version="1.0" encoding="UTF-8" standalone="no"?>
<!-- Created with Inkscape (http://www.inkscape.org/) -->

<svg
   xmlns:dc="http://purl.org/dc/elements/1.1/"
   xmlns:cc="http://creativecommons.org/ns#"
   xmlns:rdf="http://www.w3.org/1999/02/22-rdf-syntax-ns#"
   xmlns:svg="http://www.w3.org/2000/svg"
   xmlns="http://www.w3.org/2000/svg"
   xmlns:xlink="http://www.w3.org/1999/xlink"
   xmlns:sodipodi="http://sodipodi.sourceforge.net/DTD/sodipodi-0.dtd"
   xmlns:inkscape="http://www.inkscape.org/namespaces/inkscape"
   width="96"
   height="96"
   id="svg11037"
   version="1.1"
   inkscape:version="0.48.3.1 r9886"
   sodipodi:docname="transmission.svg">
  <defs
     id="defs11039">
    <linearGradient
       y2="1046.1001"
       x2="47.999954"
       y1="962.62189"
       x1="47.999954"
       gradientTransform="matrix(1.15,0,0,1.15,-7.1999462,-150.65291)"
       gradientUnits="userSpaceOnUse"
       id="linearGradient3886"
       xlink:href="#linearGradient3795"
       inkscape:collect="always" />
    <linearGradient
       id="linearGradient3795">
      <stop
         style="stop-color:#13a6fd;stop-opacity:1;"
         offset="0"
         id="stop3797" />
      <stop
         style="stop-color:#2975b6;stop-opacity:1;"
         offset="1"
         id="stop3799" />
    </linearGradient>
    <linearGradient
       y2="1046.1001"
       x2="47.999954"
       y1="962.62189"
       x1="47.999954"
       gradientTransform="matrix(1.15,0,0,1.15,-7.1999462,-150.65292)"
       gradientUnits="userSpaceOnUse"
       id="linearGradient11642"
       xlink:href="#linearGradient3795"
       inkscape:collect="always" />
    <linearGradient
       x1="47.753529"
       y1="90.218231"
       x2="47.753529"
       y2="6.3465385"
       id="linearGradient5321"
       xlink:href="#linearGradient3619"
       gradientUnits="userSpaceOnUse" />
    <linearGradient
       id="linearGradient3619">
      <stop
         id="stop3621"
         style="stop-color:#d2d2d2;stop-opacity:1"
         offset="0" />
      <stop
         id="stop3623"
         style="stop-color:#f0f0f0;stop-opacity:1"
         offset="1" />
    </linearGradient>
    <clipPath
       id="clipPath3750">
      <rect
         width="84"
         height="84"
         rx="6"
         ry="6"
         x="6"
         y="6"
         id="rect3752"
         style="fill:#ffffff;fill-opacity:1;fill-rule:nonzero;stroke:none" />
    </clipPath>
    <filter
       x="-0.28603512"
       y="-0.20228001"
       width="1.5720702"
       height="1.40456"
       color-interpolation-filters="sRGB"
       id="filter3766">
      <feGaussianBlur
         id="feGaussianBlur3768"
         stdDeviation="7.6983673" />
    </filter>
    <clipPath
       id="clipPath5288">
      <rect
         width="84"
         height="84"
         rx="6"
         ry="6"
         x="16"
         y="6"
         id="rect5290"
         style="fill:#ffffff;fill-opacity:1;fill-rule:nonzero;stroke:none" />
    </clipPath>
    <filter
       x="-0.12"
       y="-0.12"
       width="1.24"
       height="1.24"
       color-interpolation-filters="sRGB"
       id="filter5300">
      <feGaussianBlur
         id="feGaussianBlur5302"
         stdDeviation="4.2" />
    </filter>
    <linearGradient
       x1="47.753529"
       y1="90.218231"
       x2="47.753529"
       y2="6.3465385"
       id="linearGradient5239"
       xlink:href="#linearGradient5134"
       gradientUnits="userSpaceOnUse" />
    <linearGradient
       id="linearGradient5134">
      <stop
         id="stop5136"
         style="stop-color:#5a5a5a;stop-opacity:1"
         offset="0" />
      <stop
         id="stop5138"
         style="stop-color:#909090;stop-opacity:1"
         offset="1" />
    </linearGradient>
    <clipPath
       id="clipPath3171">
      <rect
         width="84"
         height="84"
         rx="6"
         ry="6"
         x="6"
         y="6"
         id="rect3173"
         style="fill:#ffffff;fill-opacity:1;fill-rule:nonzero;stroke:none" />
    </clipPath>
    <filter
       x="-0.28534135"
       y="-0.20178936"
       width="1.5706826"
       height="1.4035788"
       color-interpolation-filters="sRGB"
       id="filter3772">
      <feGaussianBlur
         id="feGaussianBlur3774"
         stdDeviation="7.6796946" />
    </filter>
    <linearGradient
       x1="49.978714"
       y1="82.681816"
       x2="49.978714"
       y2="-5.7324624"
       id="linearGradient5313"
       xlink:href="#linearGradient3737"
       gradientUnits="userSpaceOnUse" />
    <linearGradient
       id="linearGradient3737">
      <stop
         id="stop3739"
         style="stop-color:#ffffff;stop-opacity:1"
         offset="0" />
      <stop
         id="stop3741"
         style="stop-color:#ffffff;stop-opacity:0"
         offset="1" />
    </linearGradient>
    <linearGradient
       x1="48.961185"
       y1="78.065437"
       x2="48.961185"
       y2="18.06966"
       id="linearGradient5356"
       xlink:href="#linearGradient3737"
       gradientUnits="userSpaceOnUse" />
    <linearGradient
       id="linearGradient3182">
      <stop
         id="stop3184"
         style="stop-color:#ffffff;stop-opacity:1"
         offset="0" />
      <stop
         id="stop3186"
         style="stop-color:#ffffff;stop-opacity:0"
         offset="1" />
    </linearGradient>
    <linearGradient
       x1="50.252888"
       y1="20.248539"
       x2="50.252888"
       y2="75.615822"
       id="linearGradient5371"
       xlink:href="#linearGradient5420"
       gradientUnits="userSpaceOnUse" />
    <linearGradient
       id="linearGradient5420">
      <stop
         id="stop5422"
         style="stop-color:#525252;stop-opacity:1"
         offset="0" />
      <stop
         id="stop5498"
         style="stop-color:#cecece;stop-opacity:1"
         offset="0.21238038" />
      <stop
         id="stop5424"
         style="stop-color:#fdfdfd;stop-opacity:1"
         offset="0.60427487" />
      <stop
         id="stop5428"
         style="stop-color:#7c7c7c;stop-opacity:1"
         offset="0.74339777" />
      <stop
         id="stop5426"
         style="stop-color:#040404;stop-opacity:1"
         offset="1" />
    </linearGradient>
    <filter
       color-interpolation-filters="sRGB"
       id="filter3775">
      <feGaussianBlur
         id="feGaussianBlur3777"
         stdDeviation="0.4875" />
    </filter>
    <linearGradient
       x1="46.79694"
       y1="31.771585"
       x2="46.79694"
       y2="36.256687"
       id="linearGradient5502"
       xlink:href="#linearGradient5433"
       gradientUnits="userSpaceOnUse"
       gradientTransform="matrix(0.86666667,0,0,1.7454545,-14.6,-14.981815)" />
    <linearGradient
       id="linearGradient5433">
      <stop
         id="stop5435"
         style="stop-color:#8d8d8d;stop-opacity:1"
         offset="0" />
      <stop
         id="stop5441"
         style="stop-color:#ffffff;stop-opacity:1"
         offset="0.32500392" />
      <stop
         id="stop5443"
         style="stop-color:#686868;stop-opacity:1"
         offset="0.5802148" />
      <stop
         id="stop5437"
         style="stop-color:#b3b3b3;stop-opacity:1"
         offset="1" />
    </linearGradient>
    <linearGradient
       x1="34.15395"
       y1="33.945866"
       x2="34.15395"
       y2="46.010723"
       id="linearGradient5469"
       xlink:href="#linearGradient5463"
       gradientUnits="userSpaceOnUse"
       gradientTransform="matrix(0.97916667,0,0,1,1.4895833,3)" />
    <linearGradient
       id="linearGradient5463">
      <stop
         id="stop5465"
         style="stop-color:#d40000;stop-opacity:1"
         offset="0" />
      <stop
         id="stop5471"
         style="stop-color:#ff8c67;stop-opacity:1"
         offset="0.33869192" />
      <stop
         id="stop5473"
         style="stop-color:#d40000;stop-opacity:1"
         offset="0.60884869" />
      <stop
         id="stop5467"
         style="stop-color:#6e0000;stop-opacity:1"
         offset="1" />
    </linearGradient>
    <linearGradient
       x1="46.79694"
       y1="31.65823"
       x2="46.79694"
       y2="42.515114"
       id="linearGradient5439"
       xlink:href="#linearGradient3693"
       gradientUnits="userSpaceOnUse"
       gradientTransform="matrix(0.86666667,0,0,1.3636363,6.4,-6.4545428)" />
    <linearGradient
       id="linearGradient3693">
      <stop
         id="stop3695"
         style="stop-color:#8d8d8d;stop-opacity:1"
         offset="0" />
      <stop
         id="stop3697"
         style="stop-color:#ffffff;stop-opacity:1"
         offset="0.25843728" />
      <stop
         id="stop3699"
         style="stop-color:#686868;stop-opacity:1"
         offset="0.54385865" />
      <stop
         id="stop3711"
         style="stop-color:#b1b1b1;stop-opacity:1"
         offset="1" />
    </linearGradient>
    <linearGradient
       x1="50.498287"
       y1="42.38448"
       x2="50.498287"
       y2="53.953835"
       id="linearGradient3738"
       xlink:href="#linearGradient3731"
       gradientUnits="userSpaceOnUse"
       gradientTransform="matrix(1,0,0,0.88235294,0,4.2941175)" />
    <linearGradient
       id="linearGradient3731">
      <stop
         id="stop3733"
         style="stop-color:#4d4d4d;stop-opacity:1"
         offset="0" />
      <stop
         id="stop3735"
         style="stop-color:#878787;stop-opacity:1"
         offset="1" />
    </linearGradient>
    <linearGradient
       x1="55.619888"
       y1="35.701611"
       x2="39.929382"
       y2="35.701611"
       id="linearGradient5488"
       xlink:href="#linearGradient5274"
       gradientUnits="userSpaceOnUse"
       gradientTransform="matrix(0.13333333,0,0,1.0909091,33.6,2.6363637)" />
    <linearGradient
       id="linearGradient5274">
      <stop
         id="stop5276"
         style="stop-color:#000000;stop-opacity:1"
         offset="0" />
      <stop
         id="stop5278"
         style="stop-color:#000000;stop-opacity:0"
         offset="1" />
    </linearGradient>
    <linearGradient
       x1="55.619888"
       y1="35.701611"
       x2="39.929382"
       y2="35.701611"
       id="linearGradient5492"
       xlink:href="#linearGradient5274"
       gradientUnits="userSpaceOnUse"
       gradientTransform="matrix(-0.13333333,0,0,1.0909091,62.35643,2.6363637)" />
    <linearGradient
       id="linearGradient3224">
      <stop
         id="stop3226"
         style="stop-color:#000000;stop-opacity:1"
         offset="0" />
      <stop
         id="stop3228"
         style="stop-color:#000000;stop-opacity:0"
         offset="1" />
    </linearGradient>
    <clipPath
       id="clipPath5560">
      <path
         d="M 12,6 C 8.676,6 6,8.676 6,12 l 0,72 c 0,3.324 2.676,6 6,6 l 72,0 c 3.324,0 6,-2.676 6,-6 L 90,12 C 90,8.676 87.324,6 84,6 L 12,6 z m 7.5,9 57,0 c 2.493,0 4.5,2.007 4.5,4.5 l 0,57 c 0,2.493 -2.007,4.5 -4.5,4.5 l -57,0 C 17.007,81 15,78.993 15,76.5 l 0,-57 C 15,17.007 17.007,15 19.5,15 z"
         inkscape:connector-curvature="0"
         id="path5562"
         style="fill:#ffffff;fill-opacity:1;fill-rule:nonzero;stroke:none" />
    </clipPath>
    <clipPath
       clipPathUnits="userSpaceOnUse"
       id="clipPath3230">
      <rect
         x="2"
         y="958.36218"
         width="92"
         height="92"
         style="fill:url(#linearGradient3234);fill-opacity:1"
         id="rect3232"
         rx="25"
         ry="25" />
    </clipPath>
    <linearGradient
       inkscape:collect="always"
       xlink:href="#linearGradient3795"
       id="linearGradient3234"
       gradientUnits="userSpaceOnUse"
       gradientTransform="matrix(1.15,0,0,1.15,-7.1999462,-150.65292)"
       x1="47.999954"
       y1="962.62189"
       x2="47.999954"
       y2="1046.1001" />
    <clipPath
       clipPathUnits="userSpaceOnUse"
       id="clipPath3009">
      <path
         id="path3011"
         d="m -2,956.36218 -96,0 0,33.5624 96,25.68742 0,-59.24982 z"
         style="opacity:0.15;fill:#ffffff;fill-opacity:1;stroke:none"
         inkscape:connector-curvature="0" />
    </clipPath>
  </defs>
  <sodipodi:namedview
     id="base"
     pagecolor="#ffffff"
     bordercolor="#666666"
     borderopacity="1.0"
     inkscape:pageopacity="0.0"
     inkscape:pageshadow="2"
     inkscape:zoom="3.959798"
     inkscape:cx="37.957448"
     inkscape:cy="59.964634"
     inkscape:document-units="px"
     inkscape:current-layer="layer1"
     showgrid="false"
     inkscape:window-width="1280"
     inkscape:window-height="750"
     inkscape:window-x="0"
     inkscape:window-y="22"
     inkscape:window-maximized="1"
     showguides="true"
     inkscape:guide-bbox="true">
    <sodipodi:guide
       orientation="0,1"
       position="-24.748737,0"
       id="guide11064" />
    <sodipodi:guide
       orientation="0,1"
       position="-23.233509,96"
       id="guide11066" />
    <sodipodi:guide
       orientation="1,0"
       position="0,54.800776"
       id="guide11068" />
    <sodipodi:guide
       orientation="1,0"
       position="96,51.012704"
       id="guide11070" />
    <sodipodi:guide
       orientation="0,1"
       position="-18.94036,48"
       id="guide11072" />
    <sodipodi:guide
       orientation="1,0"
       position="48,79.296975"
       id="guide11074" />
    <sodipodi:guide
       orientation="1,0"
       position="2,75.508903"
       id="guide11076" />
    <sodipodi:guide
       orientation="0,1"
       position="-77.27667,2"
       id="guide11078" />
    <sodipodi:guide
       orientation="1,0"
       position="94,77.781746"
       id="guide11080" />
    <sodipodi:guide
       orientation="0,1"
       position="-65.912454,94"
       id="guide11082" />
  </sodipodi:namedview>
  <metadata
     id="metadata11042">
    <rdf:RDF>
      <cc:Work
         rdf:about="">
        <dc:format>image/svg+xml</dc:format>
        <dc:type
           rdf:resource="http://purl.org/dc/dcmitype/StillImage" />
        <dc:title />
      </cc:Work>
    </rdf:RDF>
  </metadata>
  <g
     inkscape:label="Layer 1"
     inkscape:groupmode="layer"
     id="layer1"
     transform="translate(0,-956.36218)">
    <g
       id="g3201"
       clip-path="url(#clipPath3230)">
      <g
         id="g3119"
         transform="matrix(1.0952381,0,0,1.0952381,-4.5714286,951.79075)">
        <g
           id="layer1-4"
           style="display:inline">
          <path
             d="m 12,11.65625 c -0.281536,0 -0.34375,0.06221 -0.34375,0.34375 l 0,72 c 0,0.281536 0.06221,0.34375 0.34375,0.34375 l 72,0 c 0.281536,0 0.34375,-0.06221 0.34375,-0.34375 l 0,-72 c 0,-0.281536 -0.06221,-0.34375 -0.34375,-0.34375 l -72,0 z"
             id="path5319"
             style="fill:url(#linearGradient5321);fill-opacity:1;fill-rule:nonzero;stroke:none"
             inkscape:connector-curvature="0" />
          <path
             d="M 47.84375,2.40625 C 35.926729,2.4327652 24.276423,7.1298273 15.625,15.78125 L 47.9375,48.0625 59.75,3.96875 C 55.810646,2.913203 51.81609,2.3974116 47.84375,2.40625 z M 47.9375,48.0625 36.09375,92.1875 c 15.757417,4.222188 32.58977,-0.27727 44.125,-11.8125 L 47.9375,48.0625 z"
             inkscape:connector-curvature="0"
             clip-path="url(#clipPath3750)"
             id="path3770"
             style="fill:#ffffff;fill-opacity:1;stroke:none;filter:url(#filter3766)" />
          <path
             d="m 22,6 c -3.324,0 -6,2.676 -6,6 l 0,72 c 0,3.324 2.676,6 6,6 l 72,0 c 3.324,0 6,-2.676 6,-6 l 0,-72 C 100,8.676 97.324,6 94,6 L 22,6 z m 8,10 56,0 c 2.216,0 4,1.784 4,4 l 0,56 c 0,2.216 -1.784,4 -4,4 l -56,0 c -2.216,0 -4,-1.784 -4,-4 l 0,-56 c 0,-2.216 1.784,-4 4,-4 z"
             inkscape:connector-curvature="0"
             transform="translate(-10,0)"
             clip-path="url(#clipPath5288)"
             id="path5282"
             style="opacity:0.7;fill:#000000;fill-opacity:1;fill-rule:nonzero;stroke:none;filter:url(#filter5300)" />
          <path
             d="M 12,6 C 8.676,6 6,8.676 6,12 l 0,72 c 0,3.324 2.676,6 6,6 l 72,0 c 3.324,0 6,-2.676 6,-6 L 90,12 C 90,8.676 87.324,6 84,6 L 12,6 z m 8,10 56,0 c 2.216,0 4,1.784 4,4 l 0,56 c 0,2.216 -1.784,4 -4,4 l -56,0 c -2.216,0 -4,-1.784 -4,-4 l 0,-56 c 0,-2.216 1.784,-4 4,-4 z"
             inkscape:connector-curvature="0"
             id="rect2841"
             style="fill:url(#linearGradient5239);fill-opacity:1;fill-rule:nonzero;stroke:none" />
          <path
             d="M 47.84375,2.40625 C 35.926729,2.4327652 24.276423,7.1298273 15.625,15.78125 L 47.9375,48.0625 59.75,3.96875 C 55.810646,2.913203 51.81609,2.3974116 47.84375,2.40625 z M 47.9375,48.0625 36.09375,92.1875 c 15.757417,4.222188 32.58977,-0.27727 44.125,-11.8125 L 47.9375,48.0625 z"
             inkscape:connector-curvature="0"
             clip-path="url(#clipPath3750)"
             id="path3740"
             style="opacity:0.4;fill:#ffffff;fill-opacity:1;stroke:none;filter:url(#filter3772)" />
          <path
             d="m 20,14.96875 c -2.766322,0 -5.03125,2.264928 -5.03125,5.03125 l 0,56 c 0,2.766322 2.264928,5.03125 5.03125,5.03125 l 56,0 c 2.766322,0 5.03125,-2.264928 5.03125,-5.03125 l 0,-56 c 0,-2.766322 -2.264928,-5.03125 -5.03125,-5.03125 l -56,0 z M 20,16 76,16 c 2.216,0 4,1.784 4,4 l 0,56 c 0,2.216 -1.784,4 -4,4 l -56,0 c -2.216,0 -4,-1.784 -4,-4 l 0,-56 c 0,-2.216 1.784,-4 4,-4 z"
             inkscape:connector-curvature="0"
             id="path5246"
             style="opacity:0.8;fill:#333333;fill-opacity:1;stroke:none" />
          <path
             d="m 20,13.03125 c -3.814344,0 -6.96875,3.154406 -6.96875,6.96875 l 0,56 c 0,3.814344 3.154406,6.96875 6.96875,6.96875 l 56,0 c 3.814344,0 6.96875,-3.154406 6.96875,-6.96875 l 0,-56 c 0,-3.814344 -3.154406,-6.96875 -6.96875,-6.96875 l -56,0 z m 0,2 56,0 c 2.732574,0 4.96875,2.236176 4.96875,4.96875 l 0,56 c 0,2.732574 -2.236176,4.96875 -4.96875,4.96875 l -56,0 c -2.732574,0 -4.96875,-2.236176 -4.96875,-4.96875 l 0,-56 c 0,-2.732574 2.236176,-4.96875 4.96875,-4.96875 z"
             inkscape:connector-curvature="0"
             id="path5253"
             style="opacity:0.4;fill:url(#linearGradient5313);fill-opacity:1;stroke:none" />
          <path
             d="m 20,16 c -2.216,0 -4,1.784 -4,4 l 0,1 c 0,-2.216 1.784,-4 4,-4 l 56,0 c 2.216,0 4,1.784 4,4 l 0,-1 c 0,-2.216 -1.784,-4 -4,-4 l -56,0 z"
             inkscape:connector-curvature="0"
             id="path5304"
             style="opacity:0.2;fill:#000000;fill-opacity:1;stroke:none" />
          <path
             d="m 20,17 c -2.216,0 -4,1.784 -4,4 l 0,1 c 0,-2.216 1.784,-4 4,-4 l 56,0 c 2.216,0 4,1.784 4,4 l 0,-1 c 0,-2.216 -1.784,-4 -4,-4 l -56,0 z"
             inkscape:connector-curvature="0"
             id="path5311"
             style="opacity:0.1;fill:#000000;fill-opacity:1;stroke:none" />
        </g>
        <g
           id="layer4"
           style="display:inline">
          <path
             d="M 47.75,18.09375 A 1.9113258,1.9113258 0 0 0 46.8125,18.5 l -7.5,6 -7.5,6 A 1.9113258,1.9113258 0 0 0 33,33.90625 l 5.09375,0 0,28.1875 -5.09375,0 A 1.9113258,1.9113258 0 0 0 31.8125,65.5 l 7.5,6 7.5,6 a 1.9113258,1.9113258 0 0 0 2.375,0 l 7.5,-6 7.5,-6 A 1.9113258,1.9113258 0 0 0 63,62.09375 l -5.09375,0 0,-28.1875 5.09375,0 A 1.9113258,1.9113258 0 0 0 64.1875,30.5 l -7.5,-6 -7.5,-6 A 1.9113258,1.9113258 0 0 0 47.75,18.09375 z"
             id="path5348"
             style="fill:url(#linearGradient5356);fill-opacity:1;stroke:none;display:inline"
             inkscape:connector-curvature="0" />
          <path
             d="m 48,20 -7.5,6 -7.5,6 7,0 0,32 -7,0 7.5,6 7.5,6 7.5,-6 7.5,-6 -7,0 0,-32 7,0 -7.5,-6 -7.5,-6 z"
             inkscape:connector-curvature="0"
             id="path5323"
             style="fill:url(#linearGradient5371);fill-opacity:1;stroke:none;display:inline" />
          <path
             d="m 48,20 -7.5,6 -7.5,6 7,0 0,32 -7,0 7.5,6 7.5,6 7.5,-6 7.5,-6 -7,0 0,-32 7,0 -7.5,-6 -7.5,-6 z m 0,3.03125 6.03125,4.8125 2.28125,1.8125 -0.3125,0 A 2.3528528,2.3528528 0 0 0 53.65625,32 l 0,32 A 2.3528528,2.3528528 0 0 0 56,66.34375 l 0.3125,0 -2.28125,1.8125 -6.03125,4.8125 -6.03125,-4.8125 -2.28125,-1.8125 0.3125,0 A 2.3528528,2.3528528 0 0 0 42.34375,64 l 0,-32 A 2.3528528,2.3528528 0 0 0 40,29.65625 l -0.3125,0 2.28125,-1.8125 L 48,23.03125 z"
             inkscape:connector-curvature="0"
             id="path3794"
             style="opacity:0.1;fill:#000000;fill-opacity:1;stroke:none;display:inline" />
          <path
             d="m 48,20 -7.5,6 -7.5,6 7,0 0,32 -7,0 7.5,6 7.5,6 7.5,-6 7.5,-6 -7,0 0,-32 7,0 -7.5,-6 -7.5,-6 z m 0,1.96875 6.53125,5.21875 4.09375,3.28125 -2.625,0 A 1.5276739,1.5276739 0 0 0 54.46875,32 l 0,32 A 1.5276739,1.5276739 0 0 0 56,65.53125 l 2.625,0 L 54.53125,68.8125 48,74.03125 41.46875,68.8125 37.375,65.53125 l 2.625,0 A 1.5276739,1.5276739 0 0 0 41.53125,64 l 0,-32 A 1.5276739,1.5276739 0 0 0 40,30.46875 l -2.625,0 L 41.46875,27.1875 48,21.96875 z"
             inkscape:connector-curvature="0"
             id="path3787"
             style="opacity:0.15;fill:#000000;fill-opacity:1;stroke:none;display:inline" />
          <path
             d="m 48,20 -7.5,6 -7.5,6 7,0 0,32 -7,0 7.5,6 7.5,6 7.5,-6 7.5,-6 -7,0 0,-32 7,0 -7.5,-6 -7.5,-6 z m 0,1.03125 7,5.59375 5.6875,4.5625 -4.6875,0 A 0.79909095,0.79909095 0 0 0 55.1875,32 l 0,32 A 0.79909095,0.79909095 0 0 0 56,64.8125 l 4.6875,0 L 55,69.375 48,74.96875 41,69.375 35.3125,64.8125 40,64.8125 A 0.79909095,0.79909095 0 0 0 40.8125,64 l 0,-32 A 0.79909095,0.79909095 0 0 0 40,31.1875 l -4.6875,0 L 41,26.625 48,21.03125 z"
             inkscape:connector-curvature="0"
             id="path3779"
             style="opacity:0.3;fill:#000000;fill-opacity:1;stroke:none;display:inline" />
        </g>
        <g
           id="layer6">
          <path
             d="m 43.5,47 c -5.556772,0 -10.572557,0.294226 -14.21875,0.75 -1.823097,0.227887 -3.286628,0.467795 -4.34375,0.78125 -0.528561,0.156727 -0.950962,0.328464 -1.28125,0.53125 C 23.325962,49.265286 23,49.558524 23,50 l -1.5,0 C 20.123649,50 19,51.123649 19,52.5 l 0,1 c 0,1.376351 1.123649,2.5 2.5,2.5 l 1.5,0 c 0,0.441476 0.325962,0.734714 0.65625,0.9375 0.330288,0.202786 0.752689,0.374523 1.28125,0.53125 1.057122,0.313455 2.520653,0.553363 4.34375,0.78125 C 32.927443,58.705774 37.943228,59 43.5,59 l 8,0 c 5.556772,0 10.572557,-0.294226 14.21875,-0.75 1.823097,-0.227887 3.286628,-0.467795 4.34375,-0.78125 0.528561,-0.156727 0.950962,-0.328464 1.28125,-0.53125 C 71.674038,56.734714 72,56.441476 72,56 l 0,-6 C 72,49.558524 71.674038,49.265286 71.34375,49.0625 71.013462,48.859714 70.591061,48.687977 70.0625,48.53125 69.005378,48.217795 67.541847,47.977887 65.71875,47.75 62.072557,47.294226 57.056772,47 51.5,47 l -8,0 z"
             inkscape:connector-curvature="0"
             id="rect5504"
             style="opacity:0.15;fill:#000000;fill-opacity:1;stroke:none;filter:url(#filter3775)" />
          <rect
             width="16"
             height="6"
             x="40"
             y="46"
             id="rect3725"
             style="fill:#333333;fill-opacity:1;stroke:none" />
          <rect
             width="13"
             height="6"
             rx="2"
             x="20.5"
             y="40"
             id="rect5500"
             style="fill:url(#linearGradient5502);fill-opacity:1;stroke:#474747;stroke-width:0.99999994;stroke-opacity:1" />
          <rect
             width="47"
             height="11"
             rx="19.583334"
             ry="2.5"
             x="24.5"
             y="37.5"
             id="rect5461"
             style="fill:url(#linearGradient5469);fill-opacity:1;stroke:#800000;stroke-width:1;stroke-opacity:1" />
          <rect
             width="13"
             height="15"
             x="41.5"
             y="36.5"
             id="rect5431"
             style="fill:url(#linearGradient5439);fill-opacity:1;stroke:url(#linearGradient3738);stroke-width:1" />
          <path
             d="M 38.95643,37.104568 41,37 41,49 39,48.895432 38.95643,37.104568 z"
             inkscape:connector-curvature="0"
             id="rect5475"
             style="opacity:0.6;fill:url(#linearGradient5488);fill-opacity:1;stroke:none" />
          <path
             d="M 57,37.104568 54.95643,37 l 0,12 2,-0.104568 L 57,37.104568 z"
             inkscape:connector-curvature="0"
             id="path5490"
             style="opacity:0.6;fill:url(#linearGradient5492);fill-opacity:1;stroke:none" />
        </g>
      </g>
      <g
         transform="matrix(1.0952381,0,0,1.0952381,-42.690134,946.75026)"
         style="display:inline"
         id="layer3">
        <path
           transform="translate(34.804035,4.6021865)"
           style="opacity:0.1;fill:#000000;stroke:none"
           id="path5077"
           clip-path="url(#clipPath5560)"
           inkscape:connector-curvature="0"
           d="m 61,-47 -111,111 2,2 111,-111 -2,-2 z m 4,4 -111,111 2,2 111,-111 -2,-2 z m 4,4 -111,111 2,2 111,-111 -2,-2 z m 4,4 -111,111 2,2 111,-111 -2,-2 z m 4,4 -111,111 2,2 111,-111 -2,-2 z m 4,4 -111,111 2,2 111,-111 -2,-2 z m 4,4 -111,111 2,2 111,-111 -2,-2 z m 4,4 -111,111 2,2 111,-111 -2,-2 z m 4,4 -111,111 2,2 111,-111 -2,-2 z m 4,4 -111,111 2,2 111,-111 -2,-2 z m 4,4 -111,111 2,2 111,-111 -2,-2 z m 4,4 -111,111 2,2 111,-111 -2,-2 z M 109,1 -2,112 0,114 111,3 109,1 z M 113,5 2,116 4,118 115,7 113,5 z M 117,9 6,120 8,122 119,11 117,9 z m 4,4 -111,111 2,2 111,-111 -2,-2 z m 4,4 -111,111 2,2 111,-111 -2,-2 z m 4,4 -111,111 2,2 111,-111 -2,-2 z m 4,4 -111,111 2,2 111,-111 -2,-2 z m 4,4 -111,111 2,2 111,-111 -2,-2 z m 4,4 -111,111 2,2 111,-111 -2,-2 z" />
      </g>
    </g>
    <rect
       ry="25"
       rx="25"
       id="rect3003"
       style="opacity:0.15;fill:#ffffff;fill-opacity:1"
       height="92"
       width="92"
       y="958.36218"
       x="-96"
       clip-path="url(#clipPath3009)"
       transform="translate(98,3.8281269e-7)" />
  </g>
</svg>
