<?xml version="1.0" encoding="UTF-8" standalone="no"?>
<!-- Created with Inkscape (http://www.inkscape.org/) -->

<svg
   xmlns:dc="http://purl.org/dc/elements/1.1/"
   xmlns:cc="http://creativecommons.org/ns#"
   xmlns:rdf="http://www.w3.org/1999/02/22-rdf-syntax-ns#"
   xmlns:svg="http://www.w3.org/2000/svg"
   xmlns="http://www.w3.org/2000/svg"
   xmlns:xlink="http://www.w3.org/1999/xlink"
   xmlns:sodipodi="http://sodipodi.sourceforge.net/DTD/sodipodi-0.dtd"
   xmlns:inkscape="http://www.inkscape.org/namespaces/inkscape"
   width="96"
   height="96"
   id="svg11037"
   version="1.1"
   inkscape:version="0.48.3.1 r9886"
   sodipodi:docname="ubuntu-tweak.svg">
  <defs
     id="defs11039">
    <linearGradient
       y2="1046.1001"
       x2="47.999954"
       y1="962.62189"
       x1="47.999954"
       gradientTransform="matrix(1.15,0,0,1.15,-7.1999462,-150.65291)"
       gradientUnits="userSpaceOnUse"
       id="linearGradient3886"
       xlink:href="#linearGradient3795"
       inkscape:collect="always" />
    <linearGradient
       id="linearGradient3795">
      <stop
         style="stop-color:#13a6fd;stop-opacity:1;"
         offset="0"
         id="stop3797" />
      <stop
         style="stop-color:#2975b6;stop-opacity:1;"
         offset="1"
         id="stop3799" />
    </linearGradient>
    <linearGradient
       y2="1046.1001"
       x2="47.999954"
       y1="962.62189"
       x1="47.999954"
       gradientTransform="matrix(1.15,0,0,1.15,-7.1999462,-150.65292)"
       gradientUnits="userSpaceOnUse"
       id="linearGradient11642"
       xlink:href="#linearGradient3795"
       inkscape:collect="always" />
    <linearGradient
       x1="48"
       y1="90"
       x2="48"
       y2="5.9877172"
       id="linearGradient3617"
       xlink:href="#linearGradient3676"
       gradientUnits="userSpaceOnUse" />
    <linearGradient
       id="linearGradient3676">
      <stop
         id="stop3678"
         style="stop-color:#68d003;stop-opacity:1"
         offset="0" />
      <stop
         id="stop3680"
         style="stop-color:#c0f988;stop-opacity:1"
         offset="1" />
    </linearGradient>
    <linearGradient
       x1="48"
       y1="20.220806"
       x2="48"
       y2="138.66119"
       id="linearGradient3613"
       xlink:href="#linearGradient3737"
       gradientUnits="userSpaceOnUse" />
    <linearGradient
       id="linearGradient3737">
      <stop
         id="stop3739"
         style="stop-color:#ffffff;stop-opacity:1"
         offset="0" />
      <stop
         id="stop3741"
         style="stop-color:#ffffff;stop-opacity:0"
         offset="1" />
    </linearGradient>
    <clipPath
       id="clipPath3613">
      <rect
         width="84"
         height="84"
         rx="6"
         ry="6"
         x="6"
         y="6"
         id="rect3615"
         style="fill:#ffffff;fill-opacity:1;fill-rule:nonzero;stroke:none" />
    </clipPath>
    <filter
       x="-0.192"
       y="-0.192"
       width="1.3839999"
       height="1.3839999"
       color-interpolation-filters="sRGB"
       id="filter3794">
      <feGaussianBlur
         id="feGaussianBlur3796"
         stdDeviation="5.28" />
    </filter>
    <linearGradient
       x1="12.75"
       y1="48"
       x2="83.25"
       y2="48"
       id="linearGradient3709"
       xlink:href="#linearGradient3703"
       gradientUnits="userSpaceOnUse"
       gradientTransform="matrix(0,-1,1,0,0,96)" />
    <linearGradient
       id="linearGradient3703">
      <stop
         id="stop3705"
         style="stop-color:#a8e66c;stop-opacity:1"
         offset="0" />
      <stop
         id="stop3707"
         style="stop-color:#dbfabd;stop-opacity:1"
         offset="1" />
    </linearGradient>
    <radialGradient
       cx="48"
       cy="48"
       r="35.25"
       fx="48"
       fy="48"
       id="radialGradient3773"
       xlink:href="#linearGradient3767"
       gradientUnits="userSpaceOnUse" />
    <linearGradient
       id="linearGradient3767">
      <stop
         id="stop3769"
         style="stop-color:#6bd107;stop-opacity:1"
         offset="0" />
      <stop
         id="stop3771"
         style="stop-color:#6bd107;stop-opacity:0"
         offset="1" />
    </linearGradient>
    <clipPath
       clipPathUnits="userSpaceOnUse"
       id="clipPath3068">
      <rect
         x="6"
         y="6.0000038"
         width="84"
         height="84"
         style="fill:url(#linearGradient3072);fill-opacity:1"
         id="rect3070"
         rx="22.826086"
         ry="22.826086" />
    </clipPath>
    <linearGradient
       inkscape:collect="always"
       xlink:href="#linearGradient3795"
       id="linearGradient3072"
       gradientUnits="userSpaceOnUse"
       gradientTransform="matrix(1.05,0,0,1.05,-2.3999508,-1006.579)"
       x1="47.999954"
       y1="962.62189"
       x2="47.999954"
       y2="1046.1001" />
    <clipPath
       clipPathUnits="userSpaceOnUse"
       id="clipPath3009">
      <path
         id="path3011"
         d="m -2,956.36218 -96,0 0,33.5624 96,25.68742 0,-59.24982 z"
         style="opacity:0.15;fill:#ffffff;fill-opacity:1;stroke:none"
         inkscape:connector-curvature="0" />
    </clipPath>
  </defs>
  <sodipodi:namedview
     id="base"
     pagecolor="#ffffff"
     bordercolor="#666666"
     borderopacity="1.0"
     inkscape:pageopacity="0.0"
     inkscape:pageshadow="2"
     inkscape:zoom="3.959798"
     inkscape:cx="37.957448"
     inkscape:cy="59.964634"
     inkscape:document-units="px"
     inkscape:current-layer="layer1"
     showgrid="false"
     inkscape:window-width="1280"
     inkscape:window-height="750"
     inkscape:window-x="0"
     inkscape:window-y="22"
     inkscape:window-maximized="1"
     showguides="true"
     inkscape:guide-bbox="true">
    <sodipodi:guide
       orientation="0,1"
       position="-24.748737,0"
       id="guide11064" />
    <sodipodi:guide
       orientation="0,1"
       position="-23.233509,96"
       id="guide11066" />
    <sodipodi:guide
       orientation="1,0"
       position="0,54.800776"
       id="guide11068" />
    <sodipodi:guide
       orientation="1,0"
       position="96,51.012704"
       id="guide11070" />
    <sodipodi:guide
       orientation="0,1"
       position="-18.94036,48"
       id="guide11072" />
    <sodipodi:guide
       orientation="1,0"
       position="48,79.296975"
       id="guide11074" />
    <sodipodi:guide
       orientation="1,0"
       position="2,75.508903"
       id="guide11076" />
    <sodipodi:guide
       orientation="0,1"
       position="-77.27667,2"
       id="guide11078" />
    <sodipodi:guide
       orientation="1,0"
       position="94,77.781746"
       id="guide11080" />
    <sodipodi:guide
       orientation="0,1"
       position="-65.912454,94"
       id="guide11082" />
  </sodipodi:namedview>
  <metadata
     id="metadata11042">
    <rdf:RDF>
      <cc:Work
         rdf:about="">
        <dc:format>image/svg+xml</dc:format>
        <dc:type
           rdf:resource="http://purl.org/dc/dcmitype/StillImage" />
        <dc:title />
      </cc:Work>
    </rdf:RDF>
  </metadata>
  <g
     inkscape:label="Layer 1"
     inkscape:groupmode="layer"
     id="layer1"
     transform="translate(0,-956.36218)">
    <g
       transform="matrix(1.0952381,0,0,1.0952381,-4.5714286,951.79075)"
       id="g3064"
       clip-path="url(#clipPath3068)">
      <g
         id="g3041">
        <rect
           width="84"
           height="84"
           rx="6"
           ry="6"
           x="6"
           y="6"
           id="rect2419"
           style="fill:url(#linearGradient3617);fill-opacity:1;fill-rule:nonzero;stroke:none" />
      </g>
      <g
         id="layer5">
        <rect
           style="opacity:0.1;fill:url(#linearGradient3613);fill-opacity:1;fill-rule:nonzero;stroke:#ffffff;stroke-width:0.5;stroke-linecap:round;stroke-linejoin:miter;stroke-miterlimit:4;stroke-opacity:1;stroke-dasharray:none;stroke-dashoffset:0;filter:url(#filter3794)"
           id="rect3171"
           clip-path="url(#clipPath3613)"
           y="15"
           x="15"
           ry="12"
           rx="12"
           height="66"
           width="66" />
      </g>
      <g
         id="layer4">
        <path
           style="opacity:0.3;color:#000000;fill:#000000;fill-opacity:1;fill-rule:nonzero;stroke:none;stroke-width:1;marker:none;visibility:visible;display:inline;overflow:visible;enable-background:accumulate"
           id="path3738"
           inkscape:connector-curvature="0"
           d="m 40.625,13.75 c -4.47894,0.933301 -8.644572,2.72742 -12.34375,5.15625 0.107811,2.695429 -0.851192,5.413692 -2.90625,7.46875 -2.055058,2.055058 -4.773321,3.014061 -7.46875,2.90625 C 15.47742,32.980428 13.683301,37.14606 12.75,41.625 14.748159,43.453374 16,46.078115 16,49 c 0,2.921885 -1.251841,5.546626 -3.25,7.375 0.933301,4.47894 2.72742,8.644572 5.15625,12.34375 2.695429,-0.107811 5.413692,0.851192 7.46875,2.90625 2.055058,2.055058 3.014061,4.773321 2.90625,7.46875 C 31.980428,81.52258 36.14606,83.316699 40.625,84.25 42.453374,82.251841 45.078115,81 48,81 c 2.921885,0 5.546626,1.251841 7.375,3.25 4.464448,-0.930281 8.622233,-2.708308 12.3125,-5.125 -0.0063,-0.144349 0,-0.293178 0,-0.4375 0,-2.559223 0.984879,-5.109879 2.9375,-7.0625 2.055058,-2.055058 4.773321,-3.014061 7.46875,-2.90625 C 80.52258,65.019572 82.316699,60.85394 83.25,56.375 81.251841,54.546626 80,51.921885 80,49 80,46.078115 81.251841,43.453374 83.25,41.625 82.316699,37.14606 80.52258,32.980428 78.09375,29.28125 75.398321,29.389061 72.680058,28.430058 70.625,26.375 c -1.952621,-1.952621 -2.9375,-4.503277 -2.9375,-7.0625 0,-0.144322 -0.0063,-0.293151 0,-0.4375 C 63.997233,16.458308 59.839448,14.680281 55.375,13.75 53.546626,15.748159 50.921885,17 48,17 45.078115,17 42.453374,15.748159 40.625,13.75 z M 48,41 c 4.418278,0 8,3.581722 8,8 0,4.418278 -3.581722,8 -8,8 -4.418278,0 -8,-3.581722 -8,-8 0,-4.418278 3.581722,-8 8,-8 z" />
        <path
           style="color:#000000;fill:url(#linearGradient3709);fill-opacity:1;fill-rule:nonzero;stroke:none;stroke-width:1;marker:none;visibility:visible;display:inline;overflow:visible;enable-background:accumulate"
           id="path3683"
           inkscape:connector-curvature="0"
           d="m 40.625,12.75 c -4.47894,0.933301 -8.644572,2.72742 -12.34375,5.15625 0.107811,2.695429 -0.851192,5.413692 -2.90625,7.46875 -2.055058,2.055058 -4.773321,3.014061 -7.46875,2.90625 C 15.47742,31.980428 13.683301,36.14606 12.75,40.625 14.748159,42.453374 16,45.078115 16,48 c 0,2.921885 -1.251841,5.546626 -3.25,7.375 0.933301,4.47894 2.72742,8.644572 5.15625,12.34375 2.695429,-0.107811 5.413692,0.851192 7.46875,2.90625 2.055058,2.055058 3.014061,4.773321 2.90625,7.46875 C 31.980428,80.52258 36.14606,82.316699 40.625,83.25 42.453374,81.251841 45.078115,80 48,80 c 2.921885,0 5.546626,1.251841 7.375,3.25 4.464448,-0.930281 8.622233,-2.708308 12.3125,-5.125 -0.0063,-0.144349 0,-0.293178 0,-0.4375 0,-2.559223 0.984879,-5.109879 2.9375,-7.0625 2.055058,-2.055058 4.773321,-3.014061 7.46875,-2.90625 C 80.52258,64.019572 82.316699,59.85394 83.25,55.375 81.251841,53.546626 80,50.921885 80,48 80,45.078115 81.251841,42.453374 83.25,40.625 82.316699,36.14606 80.52258,31.980428 78.09375,28.28125 75.398321,28.389061 72.680058,27.430058 70.625,25.375 c -1.952621,-1.952621 -2.9375,-4.503277 -2.9375,-7.0625 0,-0.144322 -0.0063,-0.293151 0,-0.4375 C 63.997233,15.458308 59.839448,13.680281 55.375,12.75 53.546626,14.748159 50.921885,16 48,16 45.078115,16 42.453374,14.748159 40.625,12.75 z M 48,40 c 4.418278,0 8,3.581722 8,8 0,4.418278 -3.581722,8 -8,8 -4.418278,0 -8,-3.581722 -8,-8 0,-4.418278 3.581722,-8 8,-8 z" />
        <path
           style="color:#000000;fill:url(#radialGradient3773);fill-opacity:1;fill-rule:nonzero;stroke:none;stroke-width:1;marker:none;visibility:visible;display:inline;overflow:visible;enable-background:accumulate"
           id="path3765"
           inkscape:connector-curvature="0"
           d="m 40.625,12.75 c -4.47894,0.933301 -8.644572,2.72742 -12.34375,5.15625 0.107811,2.695429 -0.851192,5.413692 -2.90625,7.46875 -2.055058,2.055058 -4.773321,3.014061 -7.46875,2.90625 C 15.47742,31.980428 13.683301,36.14606 12.75,40.625 14.748159,42.453374 16,45.078115 16,48 c 0,2.921885 -1.251841,5.546626 -3.25,7.375 0.933301,4.47894 2.72742,8.644572 5.15625,12.34375 2.695429,-0.107811 5.413692,0.851192 7.46875,2.90625 2.055058,2.055058 3.014061,4.773321 2.90625,7.46875 C 31.980428,80.52258 36.14606,82.316699 40.625,83.25 42.453374,81.251841 45.078115,80 48,80 c 2.921885,0 5.546626,1.251841 7.375,3.25 4.464448,-0.930281 8.622233,-2.708308 12.3125,-5.125 -0.0063,-0.144349 0,-0.293178 0,-0.4375 0,-2.559223 0.984879,-5.109879 2.9375,-7.0625 2.055058,-2.055058 4.773321,-3.014061 7.46875,-2.90625 C 80.52258,64.019572 82.316699,59.85394 83.25,55.375 81.251841,53.546626 80,50.921885 80,48 80,45.078115 81.251841,42.453374 83.25,40.625 82.316699,36.14606 80.52258,31.980428 78.09375,28.28125 75.398321,28.389061 72.680058,27.430058 70.625,25.375 c -1.952621,-1.952621 -2.9375,-4.503277 -2.9375,-7.0625 0,-0.144322 -0.0063,-0.293151 0,-0.4375 C 63.997233,15.458308 59.839448,13.680281 55.375,12.75 53.546626,14.748159 50.921885,16 48,16 45.078115,16 42.453374,14.748159 40.625,12.75 z M 48,40 c 4.418278,0 8,3.581722 8,8 0,4.418278 -3.581722,8 -8,8 -4.418278,0 -8,-3.581722 -8,-8 0,-4.418278 3.581722,-8 8,-8 z" />
        <path
           style="fill:#000000;overflow:visible"
           id="path3324"
           inkscape:connector-curvature="0"
           d="m 58.193287,25.127183 c -2.625083,0 -4.750691,2.137213 -4.750691,4.771917 0,2.634704 2.125608,4.771918 4.750691,4.771918 2.625083,0 4.750691,-2.137214 4.750691,-4.771918 0,-2.634704 -2.125608,-4.771917 -4.750691,-4.771917 z M 48.16036,28.864629 c -2.929768,3.82e-4 -5.900152,0.74311 -8.571177,2.068943 -0.09498,0.04732 -0.154222,0.13131 -0.182719,0.233591 -0.02887,0.10228 -0.023,0.210262 0.03323,0.30033 l 3.853706,6.123406 c 0.09764,0.15571 0.296027,0.221533 0.465103,0.150164 1.42632,-0.605668 2.906393,-0.90099 4.401864,-0.90099 5.500867,0 10.299983,4.094443 11.162462,9.527149 0.02887,0.182427 0.181923,0.317018 0.365437,0.317018 l 7.242313,0 c 0.105624,0 0.211333,-0.03817 0.282383,-0.116796 0.07105,-0.07862 0.109543,-0.177548 0.09967,-0.283647 -0.390586,-4.030926 -2.106215,-7.933715 -4.817134,-10.962062 -0.122342,-0.137392 -0.327075,-0.150427 -0.481715,-0.05006 -1.093106,0.709095 -2.333349,1.084527 -3.587932,1.084527 -3.660027,0 -6.627333,-2.986779 -6.627713,-6.640641 3.8e-4,-0.0019 0,-0.127373 0,-0.13348 0,-0.182044 -0.135889,-0.352461 -0.315604,-0.383756 -1.1444,-0.199219 -2.255273,-0.333701 -3.322162,-0.333701 z m -11.627565,4.004406 c -0.05015,0.01236 -0.108273,0.03449 -0.149496,0.06673 -3.141399,2.430312 -5.497265,5.84822 -6.644324,9.627262 -0.04483,0.147697 -0.0049,0.304267 0.116276,0.400441 1.578678,1.255992 2.524843,3.189335 2.524843,5.172358 0,1.983024 -0.945784,3.916367 -2.524843,5.172358 -0.120443,0.0958 -0.161109,0.252364 -0.116276,0.400442 1.13794,3.747366 3.475237,7.152238 6.57788,9.577205 0.08321,0.06526 0.178279,0.101747 0.282384,0.08342 0.103726,-0.01793 0.192549,-0.09461 0.249162,-0.183534 l 3.886928,-6.106721 c 0.09916,-0.156092 0.07224,-0.361358 -0.06645,-0.483866 -2.435079,-2.152092 -3.837098,-5.23785 -3.837098,-8.459309 0,-3.245504 1.409784,-6.339823 3.870319,-8.492678 0.138681,-0.121746 0.181459,-0.327012 0.08305,-0.483867 l -3.853706,-6.123399 c -0.05623,-0.08931 -0.145437,-0.148532 -0.249163,-0.166851 -0.05186,-0.0092 -0.09934,-0.01236 -0.149496,0 z M 25.818826,43.347233 c -2.686566,0 -4.866967,2.192041 -4.866967,4.888714 0,2.696671 2.180401,4.872026 4.866967,4.872026 2.686563,0 4.866966,-2.175355 4.866966,-4.872026 0,-2.696673 -2.180403,-4.888714 -4.866966,-4.888714 z m 41.111746,6.306939 -7.242312,0.01669 c -0.182753,3.82e-4 -0.352793,0.136116 -0.382049,0.317015 -0.874257,5.392253 -5.660182,9.460413 -11.145851,9.460413 -1.512949,0 -3.009419,-0.313809 -4.451696,-0.934362 -0.168697,-0.07213 -0.365937,-0.02108 -0.465102,0.133479 l -3.886929,6.123405 c -0.05661,0.08969 -0.06133,0.197669 -0.03323,0.30033 0.0281,0.102282 0.08811,0.186267 0.182718,0.233592 2.691922,1.353692 5.690648,2.068942 8.654231,2.068942 1.099185,0 2.246759,-0.110545 3.405215,-0.317015 0.162618,-0.02862 0.279618,-0.152528 0.298995,-0.317015 0.386026,-3.348929 3.20558,-5.87313 6.561269,-5.87313 1.040294,0 2.110974,0.263741 3.072998,0.767511 0.14628,0.07671 0.315997,0.05195 0.431881,-0.06674 3.033875,-3.107729 4.951803,-7.205051 5.381901,-11.512669 0.01064,-0.105717 -0.02824,-0.204644 -0.09966,-0.283645 -0.07144,-0.079 -0.176759,-0.117177 -0.282383,-0.116797 z m -8.554566,12.897529 c -2.686565,0 -4.866966,2.172582 -4.866966,4.855343 0,2.682761 2.180401,4.855343 4.866966,4.855343 2.686566,0 4.866966,-2.172582 4.866966,-4.855343 0,-2.682761 -2.1804,-4.855343 -4.866966,-4.855343 z" />
        <path
           style="opacity:0.4;color:#000000;fill:#ffffff;fill-opacity:1;fill-rule:nonzero;stroke:none;stroke-width:1;marker:none;visibility:visible;display:inline;overflow:visible;enable-background:accumulate"
           id="path3711"
           inkscape:connector-curvature="0"
           d="m 40.625,12.75 c -4.47894,0.933301 -8.644572,2.72742 -12.34375,5.15625 0.107811,2.695429 -0.851192,5.413692 -2.90625,7.46875 -2.055058,2.055058 -4.773321,3.014061 -7.46875,2.90625 C 15.47742,31.980428 13.683301,36.14606 12.75,40.625 14.748159,42.453374 16,45.078115 16,48 c 0,2.921885 -1.251841,5.546626 -3.25,7.375 0.933301,4.47894 2.72742,8.644572 5.15625,12.34375 2.695429,-0.107811 5.413692,0.851192 7.46875,2.90625 2.055058,2.055058 3.014061,4.773321 2.90625,7.46875 C 31.980428,80.52258 36.14606,82.316699 40.625,83.25 42.453374,81.251841 45.078115,80 48,80 c 2.921885,0 5.546626,1.251841 7.375,3.25 4.464448,-0.930281 8.622233,-2.708308 12.3125,-5.125 -0.0063,-0.144349 0,-0.293178 0,-0.4375 0,-2.559223 0.984879,-5.109879 2.9375,-7.0625 2.055058,-2.055058 4.773321,-3.014061 7.46875,-2.90625 C 80.52258,64.019572 82.316699,59.85394 83.25,55.375 81.251841,53.546626 80,50.921885 80,48 80,45.078115 81.251841,42.453374 83.25,40.625 82.316699,36.14606 80.52258,31.980428 78.09375,28.28125 75.398321,28.389061 72.680058,27.430058 70.625,25.375 c -1.952621,-1.952621 -2.9375,-4.503277 -2.9375,-7.0625 0,-0.144322 -0.0063,-0.293151 0,-0.4375 C 63.997233,15.458308 59.839448,13.680281 55.375,12.75 53.546626,14.748159 50.921885,16 48,16 45.078115,16 42.453374,14.748159 40.625,12.75 z m -0.15625,1.15625 c 1.978403,1.87706 4.593547,3.125 7.53125,3.125 2.937703,0 5.552847,-1.24794 7.53125,-3.125 4.020606,0.887442 7.782051,2.480073 11.15625,4.625 0.05544,2.75148 1.094541,5.500791 3.1875,7.59375 2.07834,2.07834 4.804992,2.992809 7.53125,3.0625 2.183669,3.404955 3.789691,7.215438 4.6875,11.28125 -1.87706,1.978403 -3.125,4.593547 -3.125,7.53125 0,2.937703 1.24794,5.552847 3.125,7.53125 -0.897809,4.065812 -2.503831,7.876295 -4.6875,11.28125 -2.726258,0.06969 -5.45291,0.98416 -7.53125,3.0625 -2.092959,2.092959 -3.132063,4.84227 -3.1875,7.59375 -3.374199,2.144927 -7.135644,3.737558 -11.15625,4.625 -1.978403,-1.87706 -4.593547,-3.125 -7.53125,-3.125 -2.937703,0 -5.552847,1.24794 -7.53125,3.125 -4.065812,-0.897809 -7.876295,-2.503831 -11.28125,-4.6875 -0.06969,-2.726258 -0.98416,-5.45291 -3.0625,-7.53125 -2.07834,-2.07834 -4.804992,-2.992809 -7.53125,-3.0625 -2.183669,-3.404955 -3.789691,-7.215438 -4.6875,-11.28125 1.87706,-1.978403 3.125,-4.593547 3.125,-7.53125 0,-2.937703 -1.24794,-5.552847 -3.125,-7.53125 0.897809,-4.065812 2.503831,-7.876295 4.6875,-11.28125 2.726258,-0.06969 5.45291,-0.98416 7.53125,-3.0625 2.07834,-2.07834 2.992809,-4.804992 3.0625,-7.53125 3.404955,-2.183669 7.215438,-3.789691 11.28125,-4.6875 z M 48,39 c -4.970563,0 -9,4.029437 -9,9 0,4.970563 4.029437,9 9,9 4.970563,0 9,-4.029437 9,-9 0,-4.970563 -4.029437,-9 -9,-9 z m 0,1 c 4.418278,0 8,3.581722 8,8 0,4.418278 -3.581722,8 -8,8 -4.418278,0 -8,-3.581722 -8,-8 0,-4.418278 3.581722,-8 8,-8 z" />
        <path
           style="opacity:0.2;fill:#ffffff;fill-opacity:1;fill-rule:nonzero;stroke:none"
           id="rect3756"
           inkscape:connector-curvature="0"
           d="M 12,6 C 8.676,6 6,8.676 6,12 l 0,72 c 0,3.324 2.676,6 6,6 L 29.625,90 40.875,6 12,6 z" />
      </g>
    </g>
    <rect
       ry="25"
       rx="25"
       id="rect3003"
       style="opacity:0.15;fill:#ffffff;fill-opacity:1"
       height="92"
       width="92"
       y="958.36218"
       x="-96"
       clip-path="url(#clipPath3009)"
       transform="translate(98,3.8281269e-7)" />
  </g>
</svg>
