<?xml version="1.0" encoding="UTF-8" standalone="no"?>
<!-- Created with Inkscape (http://www.inkscape.org/) -->

<svg
   xmlns:dc="http://purl.org/dc/elements/1.1/"
   xmlns:cc="http://creativecommons.org/ns#"
   xmlns:rdf="http://www.w3.org/1999/02/22-rdf-syntax-ns#"
   xmlns:svg="http://www.w3.org/2000/svg"
   xmlns="http://www.w3.org/2000/svg"
   xmlns:xlink="http://www.w3.org/1999/xlink"
   xmlns:sodipodi="http://sodipodi.sourceforge.net/DTD/sodipodi-0.dtd"
   xmlns:inkscape="http://www.inkscape.org/namespaces/inkscape"
   width="96"
   height="96"
   id="svg11037"
   version="1.1"
   inkscape:version="0.48.3.1 r9886"
   sodipodi:docname="vim.svg">
  <defs
     id="defs11039">
    <linearGradient
       y2="1046.1001"
       x2="47.999954"
       y1="962.62189"
       x1="47.999954"
       gradientTransform="matrix(1.15,0,0,1.15,-7.1999462,-150.65291)"
       gradientUnits="userSpaceOnUse"
       id="linearGradient3886"
       xlink:href="#linearGradient3795"
       inkscape:collect="always" />
    <linearGradient
       id="linearGradient3795">
      <stop
         style="stop-color:#13a6fd;stop-opacity:1;"
         offset="0"
         id="stop3797" />
      <stop
         style="stop-color:#2975b6;stop-opacity:1;"
         offset="1"
         id="stop3799" />
    </linearGradient>
    <linearGradient
       y2="1046.1001"
       x2="47.999954"
       y1="962.62189"
       x1="47.999954"
       gradientTransform="matrix(1.15,0,0,1.15,-7.1999462,-150.65292)"
       gradientUnits="userSpaceOnUse"
       id="linearGradient11642"
       xlink:href="#linearGradient5395"
       inkscape:collect="always" />
    <linearGradient
       id="linearGradient5395"
       y2="-59.097"
       gradientUnits="userSpaceOnUse"
       x2="47.999001"
       gradientTransform="matrix(0.95238,0,0,0.95238,2.2857,958.65)"
       y1="90"
       x1="48">
      <stop
         id="stop3846"
         style="stop-color:#0b700b"
         offset="0" />
      <stop
         id="stop3848"
         style="stop-color:#28a528"
         offset="1" />
    </linearGradient>
    <linearGradient
       y2="-59.097"
       x2="47.999001"
       y1="90"
       x1="48"
       gradientTransform="matrix(0.95238,0,0,0.95238,-110.46304,966.65217)"
       gradientUnits="userSpaceOnUse"
       id="linearGradient3047"
       xlink:href="#linearGradient5395"
       inkscape:collect="always" />
    <linearGradient
       id="linearGradient20810"
       y2="543.90997"
       xlink:href="#linearGradient854"
       gradientUnits="userSpaceOnUse"
       x2="275.04001"
       gradientTransform="matrix(1.6003,0,0,1.6187,-277.35,57.003)"
       y1="547.96002"
       x1="279.12" />
    <linearGradient
       id="linearGradient854">
      <stop
         id="stop855"
         offset="0" />
      <stop
         id="stop877"
         style="stop-color:#f5f5f5"
         offset=".87779" />
      <stop
         id="stop856"
         style="stop-color:#fff"
         offset="1" />
    </linearGradient>
    <linearGradient
       id="linearGradient20812"
       y2="197.27"
       xlink:href="#linearGradient854"
       gradientUnits="userSpaceOnUse"
       x2="723.66998"
       gradientTransform="matrix(0.58267,0,0,4.4457,-277.35,57.003)"
       y1="197.22"
       x1="737.87" />
    <linearGradient
       id="linearGradient3065">
      <stop
         id="stop3067"
         offset="0" />
      <stop
         id="stop3069"
         style="stop-color:#f5f5f5"
         offset=".87779" />
      <stop
         id="stop3071"
         style="stop-color:#fff"
         offset="1" />
    </linearGradient>
    <linearGradient
       id="linearGradient20814"
       y2="571.17999"
       xlink:href="#linearGradient854"
       gradientUnits="userSpaceOnUse"
       x2="247.85001"
       gradientTransform="matrix(1.7368,0,0,1.4915,-277.35,57.003)"
       y1="577.09998"
       x1="247.92" />
    <linearGradient
       id="linearGradient3074">
      <stop
         id="stop3076"
         offset="0" />
      <stop
         id="stop3078"
         style="stop-color:#f5f5f5"
         offset=".87779" />
      <stop
         id="stop3080"
         style="stop-color:#fff"
         offset="1" />
    </linearGradient>
    <linearGradient
       id="linearGradient20816"
       y2="448.10999"
       xlink:href="#linearGradient854"
       gradientUnits="userSpaceOnUse"
       x2="431.51999"
       gradientTransform="matrix(1.4044,0,0,1.8445,-433.84,93.821)"
       y1="444.34"
       x1="432.78" />
    <linearGradient
       id="linearGradient3083">
      <stop
         id="stop3085"
         offset="0" />
      <stop
         id="stop3087"
         style="stop-color:#f5f5f5"
         offset=".87779" />
      <stop
         id="stop3089"
         style="stop-color:#fff"
         offset="1" />
    </linearGradient>
    <linearGradient
       id="linearGradient20818"
       y2="763.53003"
       xlink:href="#linearGradient854"
       gradientUnits="userSpaceOnUse"
       x2="192.16"
       gradientTransform="matrix(2.316,0,0,1.1185,-277.35,57.003)"
       y1="764.65002"
       x1="196.8" />
    <linearGradient
       id="linearGradient3092">
      <stop
         id="stop3094"
         offset="0" />
      <stop
         id="stop3096"
         style="stop-color:#f5f5f5"
         offset=".87779" />
      <stop
         id="stop3098"
         style="stop-color:#fff"
         offset="1" />
    </linearGradient>
    <linearGradient
       id="linearGradient20820"
       y2="694.71002"
       xlink:href="#linearGradient854"
       gradientUnits="userSpaceOnUse"
       x2="193.06"
       gradientTransform="matrix(2.1045,0,0,1.2309,-277.35,57.003)"
       y1="696.40997"
       x1="195.60001" />
    <linearGradient
       id="linearGradient3101">
      <stop
         id="stop3103"
         offset="0" />
      <stop
         id="stop3105"
         style="stop-color:#f5f5f5"
         offset=".87779" />
      <stop
         id="stop3107"
         style="stop-color:#fff"
         offset="1" />
    </linearGradient>
    <linearGradient
       id="linearGradient20822"
       y2="269.14001"
       xlink:href="#linearGradient854"
       gradientUnits="userSpaceOnUse"
       x2="508.45999"
       gradientTransform="matrix(0.80571,0,0,3.215,-277.35,57.003)"
       y1="267.28"
       x1="508.59" />
    <linearGradient
       id="linearGradient3110">
      <stop
         id="stop3112"
         offset="0" />
      <stop
         id="stop3114"
         style="stop-color:#f5f5f5"
         offset=".87779" />
      <stop
         id="stop3116"
         style="stop-color:#fff"
         offset="1" />
    </linearGradient>
    <linearGradient
       id="linearGradient20824"
       y2="15.502"
       xlink:href="#linearGradient3909"
       gradientUnits="userSpaceOnUse"
       x2="48"
       gradientTransform="translate(110.75,891.61)"
       y1="80"
       x1="48" />
    <linearGradient
       id="linearGradient3909">
      <stop
         id="stop3911"
         style="stop-color:#c6c3c6"
         offset="0" />
      <stop
         id="stop3913"
         style="stop-color:#eae9ea"
         offset="1" />
    </linearGradient>
    <linearGradient
       id="linearGradient3122"
       y2="15.502"
       xlink:href="#linearGradient3909"
       gradientUnits="userSpaceOnUse"
       x2="48"
       gradientTransform="translate(110.75,891.61)"
       y1="80"
       x1="48" />
    <linearGradient
       id="linearGradient3124">
      <stop
         id="stop3126"
         style="stop-color:#c6c3c6"
         offset="0" />
      <stop
         id="stop3128"
         style="stop-color:#eae9ea"
         offset="1" />
    </linearGradient>
    <linearGradient
       id="linearGradient20828"
       y2="513.37"
       xlink:href="#linearGradient3909"
       gradientUnits="userSpaceOnUse"
       x2="387.56"
       gradientTransform="matrix(1.7078,0,0,1.7078,-495.13,70.859)"
       y1="527.41998"
       x1="387.56" />
    <linearGradient
       id="linearGradient3131">
      <stop
         id="stop3133"
         style="stop-color:#c6c3c6"
         offset="0" />
      <stop
         id="stop3135"
         style="stop-color:#eae9ea"
         offset="1" />
    </linearGradient>
    <linearGradient
       id="linearGradient5391"
       y2="-62.224998"
       gradientUnits="userSpaceOnUse"
       x2="16.971001"
       gradientTransform="matrix(0.66914,0,0,0.66914,698.9,676.39)"
       y1="22.844999"
       x1="102.04">
      <stop
         id="stop3869-5"
         offset="0" />
      <stop
         id="stop3871"
         style="stop-opacity:0"
         offset="1" />
    </linearGradient>
    <linearGradient
       y2="-62.224998"
       x2="16.971001"
       y1="22.844999"
       x1="102.04"
       gradientTransform="matrix(0.66914,0,0,0.66914,698.90155,676.39155)"
       gradientUnits="userSpaceOnUse"
       id="linearGradient3163"
       xlink:href="#linearGradient5391"
       inkscape:collect="always" />
    <linearGradient
       y2="15.502"
       x2="48"
       y1="80"
       x1="48"
       gradientTransform="translate(110.75,891.61)"
       gradientUnits="userSpaceOnUse"
       id="linearGradient3165"
       xlink:href="#linearGradient3909"
       inkscape:collect="always" />
    <clipPath
       clipPathUnits="userSpaceOnUse"
       id="clipPath3009">
      <path
         id="path3011"
         d="m -2,956.36218 -96,0 0,33.5624 96,25.68742 0,-59.24982 z"
         style="opacity:0.15;fill:#ffffff;fill-opacity:1;stroke:none"
         inkscape:connector-curvature="0" />
    </clipPath>
  </defs>
  <sodipodi:namedview
     id="base"
     pagecolor="#ffffff"
     bordercolor="#666666"
     borderopacity="1.0"
     inkscape:pageopacity="0.0"
     inkscape:pageshadow="2"
     inkscape:zoom="3.959798"
     inkscape:cx="33.538031"
     inkscape:cy="59.964634"
     inkscape:document-units="px"
     inkscape:current-layer="layer1"
     showgrid="false"
     inkscape:window-width="1280"
     inkscape:window-height="750"
     inkscape:window-x="0"
     inkscape:window-y="22"
     inkscape:window-maximized="1"
     showguides="true"
     inkscape:guide-bbox="true">
    <sodipodi:guide
       orientation="0,1"
       position="-24.748737,0"
       id="guide11064" />
    <sodipodi:guide
       orientation="0,1"
       position="-23.233509,96"
       id="guide11066" />
    <sodipodi:guide
       orientation="1,0"
       position="0,54.800776"
       id="guide11068" />
    <sodipodi:guide
       orientation="1,0"
       position="96,51.012704"
       id="guide11070" />
    <sodipodi:guide
       orientation="0,1"
       position="-18.94036,48"
       id="guide11072" />
    <sodipodi:guide
       orientation="1,0"
       position="48,79.296975"
       id="guide11074" />
    <sodipodi:guide
       orientation="1,0"
       position="2,75.508903"
       id="guide11076" />
    <sodipodi:guide
       orientation="0,1"
       position="-77.27667,2"
       id="guide11078" />
    <sodipodi:guide
       orientation="1,0"
       position="94,77.781746"
       id="guide11080" />
    <sodipodi:guide
       orientation="0,1"
       position="-65.912454,94"
       id="guide11082" />
  </sodipodi:namedview>
  <metadata
     id="metadata11042">
    <rdf:RDF>
      <cc:Work
         rdf:about="">
        <dc:format>image/svg+xml</dc:format>
        <dc:type
           rdf:resource="http://purl.org/dc/dcmitype/StillImage" />
        <dc:title />
      </cc:Work>
    </rdf:RDF>
  </metadata>
  <g
     inkscape:label="Layer 1"
     inkscape:groupmode="layer"
     id="layer1"
     transform="translate(0,-956.36218)">
    <rect
       x="2"
       y="958.36218"
       width="92"
       height="92"
       style="fill:url(#linearGradient11642);fill-opacity:1.0"
       id="rect3867"
       rx="25"
       ry="25" />
    <rect
       id="rect20604"
       style="opacity:0.4;fill:url(#linearGradient3163);fill-rule:evenodd"
       transform="matrix(0.70710678,0.70710678,-0.70710678,0.70710678,0,0)"
       height="37.852001"
       width="37.852001"
       y="657.4715"
       x="725.40161" />
    <g
       id="g20803"
       transform="matrix(0.66914,0,0,0.66914,112.6,448.47218)">
      <path
         inkscape:connector-curvature="0"
         id="path20596"
         style="opacity:0.05;fill-rule:evenodd"
         d="m -96.5,790.11 -40,40 40,40 40,-40 -40,-40 z m 0,2.9062 37.062,37.094 -37.062,37.062 -37.094,-37.062 37.09,-37.09 z" />
      <path
         inkscape:connector-curvature="0"
         id="path20598"
         style="opacity:0.1;fill-rule:evenodd"
         d="m -96.5,790.11 -40,40 40,40 40,-40 -40,-40 z m 0,1.9375 38.031,38.062 -38.031,38.03 -38.06,-38.03 38.06,-38.06 z" />
      <path
         inkscape:connector-curvature="0"
         id="path20606"
         style="opacity:0.2;fill:#ffffff;fill-rule:evenodd;stroke-width:0"
         d="m -136,830.61 -0.5,0.5 40,40 40,-40 -0.5,-0.5 -39.5,39.5 -39.5,-39.5 z" />
      <path
         inkscape:connector-curvature="0"
         id="path20608"
         style="opacity:0.15;fill-rule:evenodd"
         d="m -96.5,790.11 -40,40 40,40 40,-40 -40,-40 z m 0,1 38.969,39 -38.969,38.969 -39,-38.969 39,-39 z" />
      <path
         inkscape:connector-curvature="0"
         id="path20610"
         style="opacity:0.2;fill-rule:evenodd"
         d="m -96.5,790.11 -40,40 0.5,0.5 39.5,-39.5 39.5,39.5 0.5,-0.5 -40,-40 z" />
    </g>
    <g
       id="g20745"
       transform="matrix(0.72674,0,0,0.72674,-68.437,321.18218)">
      <path
         inkscape:connector-curvature="0"
         id="path20624"
         style="opacity:0.3;fill-rule:evenodd"
         d="m 169.5,908.61 c -1.0242,0.0123 -1.8521,0.32621 -2.4288,0.91474 -0.57669,0.58853 -0.89357,1.449 -0.88319,2.5234 l 0.0315,2.6496 h -0.0315 c 0.0823,1.1826 0.64499,1.881 1.4825,2.3342 0.84535,0.45736 1.992,0.65458 3.1227,0.69393 a 0.29978,0.29978 0 0 1 0.28388,0.34697 0.29978,0.29978 0 0 1 -0.0631,0.15772 l -19.399,19.241 a 0.29978,0.29978 0 0 1 -0.53622,-0.2208 v -19.683 a 0.29978,0.29978 0 0 1 0.0631,-0.15771 0.29978,0.29978 0 0 1 0.15771,-0.12617 0.29978,0.29978 0 0 1 0.0946,0 c 0.82891,0.0286 1.5221,-0.21114 2.0187,-0.6624 0.49667,-0.45126 0.8412,-1.1297 0.88319,-2.1134 h -0.0315 l -0.0315,-2.6811 h 0.0315 c -0.0579,-1.2516 -0.37851,-1.9544 -0.94628,-2.3972 -0.56777,-0.44287 -1.4661,-0.65302 -2.8073,-0.69394 v 0.0316 l -21.134,0.12617 v -0.0316 c -1.0684,0.091 -1.9124,0.34618 -2.4919,0.82011 -0.57993,0.47434 -0.9648,1.2048 -1.104,2.4288 h 0.0315 l -0.0315,1.8295 h -0.0315 c 0.0626,1.2566 0.32984,2.1711 0.85165,2.7758 0.52181,0.60469 1.3228,0.9502 2.618,1.0094 l 1.104,0.0316 a 0.29978,0.29978 0 0 1 0.31543,0.28388 l 0.0631,51.509 h -0.0316 c 0.11477,0.92539 0.44491,1.6567 0.97782,2.1764 0.53918,0.52582 1.309,0.83504 2.3657,0.85165 h 4.9206 v 0.0315 c 0.89687,-0.0782 1.7691,-0.77998 2.5234,-1.5456 l 51.698,-53.276 c 0.87886,-0.89757 1.462,-1.5902 1.3879,-2.8073 a 0.29978,0.29978 0 0 1 -0.0315,-0.0315 v -3.0596 c 0.008,-1.4183 -0.14091,-2.2449 -0.53623,-2.6811 -0.39531,-0.43621 -1.1173,-0.59503 -2.4919,-0.59931 h -21.985 z" />
      <path
         inkscape:connector-curvature="0"
         id="path20626"
         style="fill:#ffffff;fill-rule:evenodd"
         d="m 169.5,907.61 c -1.0242,0.0123 -1.8521,0.32621 -2.4288,0.91474 -0.57669,0.58853 -0.89357,1.449 -0.88319,2.5234 l 0.0315,2.6496 h -0.0315 c 0.0823,1.1826 0.64499,1.881 1.4825,2.3342 0.84535,0.45736 1.992,0.65458 3.1227,0.69393 a 0.29978,0.29978 0 0 1 0.28388,0.34697 0.29978,0.29978 0 0 1 -0.0631,0.15772 l -19.399,19.241 a 0.29978,0.29978 0 0 1 -0.53622,-0.2208 v -19.683 a 0.29978,0.29978 0 0 1 0.0631,-0.15771 0.29978,0.29978 0 0 1 0.15771,-0.12617 0.29978,0.29978 0 0 1 0.0946,0 c 0.82891,0.0286 1.5221,-0.21114 2.0187,-0.6624 0.49667,-0.45126 0.8412,-1.1297 0.88319,-2.1134 h -0.0315 l -0.0315,-2.6811 h 0.0315 c -0.0579,-1.2516 -0.37851,-1.9544 -0.94628,-2.3972 -0.56777,-0.44287 -1.4661,-0.65302 -2.8073,-0.69394 v 0.0316 l -21.134,0.12617 v -0.0316 c -1.0684,0.091 -1.9124,0.34618 -2.4919,0.82011 -0.57993,0.47434 -0.9648,1.2048 -1.104,2.4288 h 0.0315 l -0.0315,1.8295 h -0.0315 c 0.0626,1.2566 0.32984,2.1711 0.85165,2.7758 0.52181,0.60469 1.3228,0.9502 2.618,1.0094 l 1.104,0.0316 a 0.29978,0.29978 0 0 1 0.31543,0.28388 l 0.0631,51.509 h -0.0316 c 0.11477,0.92539 0.44491,1.6567 0.97782,2.1764 0.53918,0.52582 1.309,0.83504 2.3657,0.85165 h 4.9206 v 0.0315 c 0.89687,-0.0782 1.7691,-0.77998 2.5234,-1.5456 l 51.698,-53.276 c 0.87886,-0.89757 1.462,-1.5902 1.3879,-2.8073 a 0.29978,0.29978 0 0 1 -0.0315,-0.0315 v -3.0596 c 0.008,-1.4183 -0.14091,-2.2449 -0.53623,-2.6811 -0.39531,-0.43621 -1.1173,-0.59503 -2.4919,-0.59931 h -21.985 z" />
      <path
         inkscape:connector-curvature="0"
         id="path20628"
         style="fill:url(#linearGradient20810);fill-opacity:0.75;fill-rule:evenodd;stroke-width:0.375"
         d="m 193.41,907.89 -61.886,62.312 c 0.59875,0.72017 1.2215,1.3346 2.4734,1.3542 l 4.9051,0.0501 c 1.0312,-0.0748 1.9264,-0.81355 2.7028,-1.6017 l 51.454,-53.056 c 0.88794,-0.90682 1.5316,-1.6887 1.4515,-3.0031 v -3.0532 c 0.01,-1.6974 -0.36554,-2.5137 -1.1012,-3.0032 z" />
      <path
         inkscape:connector-curvature="0"
         id="path20630"
         style="fill:url(#linearGradient20812);fill-opacity:0.75;fill-rule:evenodd;stroke-width:0.375"
         d="m 147.43,944.32 3.7388,-7.3868 -0.10235,-20.686 -3.733,-1.1906 0.0966,29.264 z" />
      <path
         inkscape:connector-curvature="0"
         id="path20632"
         style="fill:url(#linearGradient20814);fill-opacity:0.75;fill-rule:evenodd;stroke-width:0.25"
         d="m 153.36,908.37 -8.3364,5.8988 6.2401,2.0963 h 0.0488 c 1.6974,0.038 2.937,-0.96977 3.0225,-2.9738 v -2.6325 c -0.0549,-1.1855 -0.4092,-1.8906 -0.97501,-2.3888 z" />
      <path
         inkscape:connector-curvature="0"
         id="path20634"
         style="fill:url(#linearGradient20816);fill-opacity:0.75;fill-rule:evenodd;stroke-width:0.125"
         d="m 178.93,910.76 -1.7603,1.1065 1.3077,0.50296 0.45266,-1.6095 z m -0.45266,1.6095 -5.6331,3.4201 c -0.43813,-0.0315 -0.92306,-0.17905 -1.4083,-0.25147 l -0.35207,0.25147 c 0.41798,0.0618 0.78132,0.23666 1.2071,0.25148 l -4.2751,4.2248 7.0414,4.8284 3.4201,-12.725 z" />
      <path
         inkscape:connector-curvature="0"
         id="path20636"
         style="fill:url(#linearGradient20818);fill-opacity:0.75;fill-rule:evenodd;stroke-width:0.375"
         d="m 172.16,911.61 -5.8316,2.6145 c 0.42247,1.955 2.4073,2.4208 5.0431,2.5624 l 5.6762,-3.4526 -4.8877,-1.7243 z" />
      <path
         inkscape:connector-curvature="0"
         id="path20638"
         style="fill:url(#linearGradient20820);fill-opacity:0.75;fill-rule:evenodd;stroke-width:0.375"
         d="m 131.62,911.74 -5.6268,2.5121 c 0.42247,1.955 1.5881,2.5232 4.6335,2.5112 l 5.4714,-5.91 -4.4781,0.88679 z" />
      <path
         inkscape:connector-curvature="0"
         id="path20640"
         style="fill:url(#linearGradient20822);fill-opacity:0.75;fill-rule:evenodd;stroke-width:0.125"
         d="m 134,912.66 -3.456,4.1736 0.18034,4.061 c -0.0393,0.55961 0.85573,7.7177 1.6863,4.8903 0.83055,-2.8274 1.0221,-13.436 1.5893,-13.125 z" />
      <path
         inkscape:connector-curvature="0"
         id="path20642"
         style="fill:url(#linearGradient3165);fill-rule:evenodd;stroke-width:0.25"
         d="m 137.16,970.18 c 0.59537,-0.0525 1.4008,-0.78796 2.1012,-1.5759 l 51.144,-51.995 c 0.56033,-0.61287 1.1705,-1.3241 1.153,-1.937 l -0.10236,-4.1598 c 0,-0.54282 -0.41891,-0.93471 -1.1018,-0.89969 l -20.8,-0.0486 c -0.89302,-0.0351 -1.681,0.50778 -1.5759,1.4708 v 2.177 c 0.0351,1.3161 1.0495,1.5059 1.7674,1.4708 l 2.5348,0.003 c 0.6654,0.28018 0.91855,0.66939 0.95358,1.4749 -0.0822,1.6583 -0.11717,1.6298 -1.7015,3.2316 l -23.887,24.557 -0.10236,-28.751 h 2.7556 c 0.5078,-0.0525 1.1678,-0.62236 1.2554,-1.2527 v -3.2302 c -0.0175,-0.61284 -0.40275,-1.0681 -1.1557,-1.0506 h -21.576 c -0.78796,-0.0351 -1.3133,0.6654 -1.2607,1.4708 l -0.0512,2.3924 c -0.003,0.80548 0.57651,1.444 1.3119,1.5141 h 3.3999 l -0.0525,54.088 c -0.0525,0.56034 0.0525,0.858 0.47278,1.0506 l 4.5177,-10e-6 z" />
      <path
         inkscape:connector-curvature="0"
         id="path20644"
         style="fill:url(#linearGradient20824);fill-rule:evenodd;stroke-width:0.25"
         d="m 137.16,970.18 c 0.59537,-0.0525 1.4008,-0.78796 2.1012,-1.5759 l 51.144,-51.995 c 0.56033,-0.61287 1.1705,-1.3241 1.153,-1.937 l -0.10236,-4.1598 c 0,-0.54282 -0.41891,-0.93471 -1.1018,-0.89969 l -20.8,-0.0486 c -0.89302,-0.0351 -1.681,0.50778 -1.5759,1.4708 v 2.177 c 0.0351,1.3161 1.0495,1.5059 1.7674,1.4708 l 2.5348,0.003 c 0.6654,0.28018 0.91855,0.66939 0.95358,1.4749 -0.0822,1.6583 -0.11717,1.6298 -1.7015,3.2316 l -23.887,24.557 -0.10236,-28.751 h 2.7556 c 0.5078,-0.0525 1.1678,-0.62236 1.2554,-1.2527 v -3.2302 c -0.0175,-0.61284 -0.40275,-1.0681 -1.1557,-1.0506 h -21.576 c -0.78796,-0.0351 -1.3133,0.6654 -1.2607,1.4708 l -0.0512,2.3924 c -0.003,0.80548 0.57651,1.444 1.3119,1.5141 h 3.3999 l -0.0525,54.088 c -0.0525,0.56034 0.0525,0.858 0.47278,1.0506 l 4.5177,-10e-6 z" />
      <path
         inkscape:connector-curvature="0"
         id="path20654"
         style="opacity:0.3;fill-rule:evenodd"
         d="m 163.76,948.86 c 0,2.1216 -1.5823,3.8415 -3.5342,3.8415 -1.9519,0 -3.5342,-1.7199 -3.5342,-3.8415 0,-2.1216 1.5823,-3.8415 3.5342,-3.8415 1.9519,0 3.5342,1.7199 3.5342,3.8415 z m -13.401,20.378 c 5.9431,-10.792 5.0681,-11.704 5.0316,-12.907 -0.085,-1.6043 0.26738,-2.2241 2.0418,-2.1877 l 2.6981,-0.0729 c 1.6407,-0.0729 2.1876,0.51044 1.7501,1.7501 -0.70043,1.8907 -5.99,10.485 -4.9889,12.221 l 1.0636,1.3251 c 0.4486,0.94136 -0.59811,2.2952 -1.1808,2.3085 l -5.0301,0.0425 c -1.2275,0.0137 -1.9446,-1.2518 -1.3855,-2.4793 z m 20.389,-15.61 c -1.8539,-0.33557 -3.7443,-0.23361 -5.4524,-0.0222 -0.66843,-0.0487 -0.92996,1.0356 -0.68689,1.7891 l 0.70918,1.4183 c 0.0914,1.1443 0.66498,2.3494 -5.0149,12.664 -0.55908,1.2275 0.19082,2.4943 1.4183,2.4821 l 5.0149,-0.0506 c 0.58267,-0.0137 1.6136,-1.3381 1.1651,-2.2795 l -1.0638,-1.317 c -0.48367,-0.83872 0.54688,-3.3145 1.7729,-5.8254 1.7725,-2.3272 3.819,-2.4589 5.1162,-2.4821 0.38691,0.0883 0.54396,0.53201 0.65853,1.0131 -0.65585,1.7999 -1.4971,3.9111 -4.0018,8.4594 -0.55906,1.2275 0.14022,2.4943 1.3677,2.4821 l 5.0655,-0.0505 c 0.58267,-0.0137 1.6137,-1.3381 1.1651,-2.2795 l -1.0638,-1.317 c -0.49068,-0.85086 0.57291,-3.3776 1.8236,-5.9267 1.6392,-2.3491 3.6248,-2.3808 4.8629,-2.3808 0.49425,0.15199 0.60765,0.77621 0.60787,1.4183 -0.68437,1.806 -1.3662,3.728 -3.7485,8.0542 -0.55906,1.2275 0.14022,2.4943 1.3677,2.4821 l 5.0148,-0.0506 c 0.58266,-0.0137 1.6644,-1.3381 1.2157,-2.2795 l -1.0638,-1.317 c -1.0012,-1.736 3.0241,-6.7947 4.1985,-9.9616 0.72923,-2.2606 -1.7729,-4.2381 -3.1584,-4.6756 l -3.815,-0.0588 c -0.68809,0.15695 -0.8322,0.55333 -1.0215,1.2744 l -2.6101,-0.0222 c 0.0514,-0.66749 -0.12262,-1.1084 -0.61426,-1.157 l -3.9973,-0.0587 c -1.2895,-0.0265 -1.162,0.43728 -1.3273,1.2299 l -3.8926,0.002 c 0.21468,-0.41869 0.21059,-0.98325 -0.0137,-1.2561 z" />
      <path
         inkscape:connector-curvature="0"
         id="path20656"
         style="fill:url(#linearGradient20828);fill-rule:evenodd"
         d="m 163.76,947.86 c 0,2.1216 -1.5823,3.8415 -3.5342,3.8415 -1.9519,0 -3.5342,-1.7199 -3.5342,-3.8415 0,-2.1216 1.5823,-3.8415 3.5342,-3.8415 1.9519,0 3.5342,1.7199 3.5342,3.8415 z m -13.401,20.378 c 5.9431,-10.792 5.0681,-11.704 5.0316,-12.907 -0.085,-1.6043 0.26738,-2.2241 2.0418,-2.1877 l 2.6981,-0.0729 c 1.6407,-0.0729 2.1876,0.51044 1.7501,1.7501 -0.70043,1.8907 -5.99,10.485 -4.9889,12.221 l 1.0636,1.3251 c 0.4486,0.94136 -0.59811,2.2952 -1.1808,2.3085 l -5.0301,0.0425 c -1.2275,0.0137 -1.9446,-1.2518 -1.3855,-2.4793 z m 20.389,-15.61 c -1.8539,-0.33557 -3.7443,-0.23361 -5.4524,-0.0222 -0.66843,-0.0487 -0.92997,1.0356 -0.6869,1.7891 l 0.70918,1.4183 c 0.0914,1.1443 0.66498,2.3494 -5.0149,12.664 -0.55908,1.2275 0.19082,2.4943 1.4183,2.4821 l 5.0149,-0.0506 c 0.58267,-0.0137 1.6136,-1.3381 1.1651,-2.2795 l -1.0638,-1.317 c -0.48367,-0.83872 0.54689,-3.3145 1.7729,-5.8254 1.7725,-2.3272 3.819,-2.4589 5.1162,-2.4821 0.38691,0.0883 0.54397,0.53201 0.65853,1.0131 -0.65585,1.7999 -1.4971,3.9111 -4.0018,8.4594 -0.55906,1.2275 0.14022,2.4943 1.3677,2.4821 l 5.0655,-0.0505 c 0.58267,-0.0137 1.6137,-1.3381 1.1651,-2.2795 l -1.0638,-1.317 c -0.49068,-0.85086 0.57291,-3.3776 1.8236,-5.9267 1.6391,-2.3491 3.6248,-2.3808 4.8629,-2.3808 0.49425,0.152 0.60765,0.77621 0.60787,1.4183 -0.68437,1.806 -1.3662,3.728 -3.7485,8.0542 -0.55906,1.2275 0.14022,2.4943 1.3677,2.4821 l 5.0148,-0.0505 c 0.58266,-0.0137 1.6644,-1.3381 1.2157,-2.2795 l -1.0638,-1.317 c -1.0012,-1.736 3.0241,-6.7947 4.1985,-9.9616 0.72923,-2.2606 -1.7729,-4.2381 -3.1584,-4.6756 l -3.815,-0.0588 c -0.68809,0.15695 -0.8322,0.55334 -1.0215,1.2744 l -2.6101,-0.0222 c 0.0514,-0.6675 -0.12262,-1.1084 -0.61426,-1.157 l -3.9973,-0.0588 c -1.2895,-0.0265 -1.162,0.43728 -1.3273,1.2299 l -3.8926,0.002 c 0.21468,-0.41869 0.21059,-0.98325 -0.0137,-1.2561 z" />
      <path
         inkscape:connector-curvature="0"
         id="path20658"
         style="opacity:0.6;fill:#ffffff;fill-rule:evenodd"
         d="m 160.22,944.02 c -1.9519,0 -3.5312,1.7222 -3.5312,3.8438 0,1.3695 0.66387,2.5698 1.6562,3.25 -0.41846,-0.63119 -0.65625,-1.4126 -0.65625,-2.25 0,-2.1216 1.5794,-3.8438 3.5312,-3.8438 0.69196,0 1.33,0.22017 1.875,0.59375 -0.64171,-0.96792 -1.6936,-1.5938 -2.875,-1.5938 z m 7.75,8.375 c -0.91785,0.01 -1.8334,0.11304 -2.6875,0.21875 -0.66843,-0.0487 -0.93058,1.0277 -0.6875,1.7812 l 0.71875,1.4062 c 0.0914,1.1443 0.67985,2.3731 -5,12.688 -0.4772,1.0477 -0.007,2.0898 0.90625,2.375 -0.13802,-0.41685 -0.1279,-0.88836 0.0937,-1.375 5.6798,-10.314 5.0914,-11.543 5,-12.688 l -0.71875,-1.4062 c -0.24308,-0.75353 0.0191,-1.8299 0.6875,-1.7812 1.4425,-0.17854 3.023,-0.26894 4.5938,-0.0937 0.0693,-0.33878 0.0381,-0.70778 -0.125,-0.90625 -0.92696,-0.16779 -1.8634,-0.22872 -2.7812,-0.21875 z m 16.25,0.21875 c -0.68809,0.15695 -0.84199,0.56015 -1.0312,1.2812 l -1.875,-0.0312 c 0.22691,0.18518 0.31797,0.52322 0.28125,1 l 2.5938,0.0312 c 0.18926,-0.7211 0.34316,-1.1243 1.0312,-1.2812 l 3.8125,0.0625 c 0.4309,0.13608 0.98389,0.41634 1.5,0.8125 -0.71441,-0.91248 -1.7643,-1.5802 -2.5,-1.8125 l -3.8125,-0.0625 z m -8.25,0.0312 c -1.2895,-0.0265 -1.1471,0.45738 -1.3125,1.25 h -2.7812 c 0.0857,0.29351 0.036,0.68598 -0.125,1 h 3.9062 c 0.16539,-0.79262 0.023,-1.2765 1.3125,-1.25 l 3.625,0.0625 c 0.01,-0.56984 -0.17726,-0.95572 -0.625,-1 l -4,-0.0625 z m -15.844,0.4375 -2.6875,0.0625 c -1.7744,-0.0364 -2.1476,0.58323 -2.0625,2.1875 0.0365,1.2032 0.91185,2.1138 -5.0312,12.906 -0.47719,1.0478 1.4e-4,2.1222 0.90625,2.4062 -0.13949,-0.42104 -0.13175,-0.91113 0.0937,-1.4062 5.9431,-10.792 5.0677,-11.703 5.0312,-12.906 -0.085,-1.6043 0.28808,-2.224 2.0625,-2.1875 l 2.6875,-0.0625 c 0.35466,-0.0158 0.6527,-0.0143 0.90625,0.0312 9.1e-4,-0.74374 -0.62478,-1.0882 -1.9062,-1.0312 z m 14.594,6.9062 c -0.10197,0.002 -0.23302,0.0271 -0.34375,0.0312 -0.65584,1.7999 -1.4953,3.9204 -4,8.4688 -0.48422,1.0632 -0.0231,2.1407 0.90625,2.4062 -0.13824,-0.42266 -0.13285,-0.90871 0.0937,-1.4062 2.5047,-4.5484 3.3442,-6.6689 4,-8.4688 -0.11456,-0.4811 -0.26934,-0.94295 -0.65625,-1.0312 z m 9.875,0 c -0.12206,0 -0.27071,0.0284 -0.40625,0.0312 0.0134,0.13291 0.0312,0.26703 0.0312,0.40625 -0.68436,1.806 -1.3677,3.7364 -3.75,8.0625 -0.47719,1.0477 -0.0273,2.0898 0.875,2.375 -0.12842,-0.41685 -0.0966,-0.88836 0.125,-1.375 2.3823,-4.3262 3.0656,-6.2565 3.75,-8.0625 -2.2e-4,-0.64213 -0.13075,-1.2855 -0.625,-1.4375 z" />
      <path
         inkscape:connector-curvature="0"
         id="path20660"
         style="opacity:0.2;fill-rule:evenodd"
         d="m 162.09,944.61 c 0.41846,0.63118 0.65625,1.4126 0.65625,2.25 0,2.1216 -1.5794,3.8438 -3.5312,3.8438 -0.69196,0 -1.33,-0.22017 -1.875,-0.59375 0.6417,0.96792 1.6936,1.5938 2.875,1.5938 1.9518,0 3.5312,-1.7222 3.5312,-3.8438 0,-1.3694 -0.66387,-2.5698 -1.6562,-3.25 z m 7.7812,7.9062 c -0.026,0.12692 -0.0665,0.26089 -0.125,0.375 h 1.125 c -0.0286,-0.0978 -0.0689,-0.21304 -0.125,-0.28125 -0.28826,-0.0522 -0.5858,-0.0615 -0.875,-0.0937 z m 9.7188,0.1875 c -9.3e-4,0.0559 0.005,0.0967 0,0.15625 h 0.71875 c -0.0908,-0.0741 -0.20328,-0.14236 -0.34375,-0.15625 h -0.375 z m -18.562,0.40625 c -2.6e-4,0.20851 -0.0605,0.44731 -0.15625,0.71875 -0.70044,1.8907 -6.0012,10.483 -5,12.219 l 1.0625,1.3125 c 0.4486,0.94136 -0.57359,2.2993 -1.1562,2.3125 l -5.0312,0.0312 c -0.17977,0.002 -0.34453,-0.0138 -0.5,-0.0625 0.20633,0.62282 0.76761,1.0706 1.5,1.0625 l 5.0312,-0.0312 c 0.58266,-0.0132 1.6048,-1.3711 1.1562,-2.3125 l -1.0625,-1.3125 c -1.0012,-1.736 4.2996,-10.328 5,-12.219 0.34296,-0.9717 0.0757,-1.5535 -0.84375,-1.7188 z m 28.5,0.375 c 0.63108,0.80604 0.99828,1.8147 0.65625,2.875 -1.1744,3.1669 -5.1887,8.2015 -4.1875,9.9375 l 1.0625,1.3125 c 0.44861,0.94141 -0.63609,2.2676 -1.2188,2.2812 l -5.0312,0.0625 c -0.17977,0.002 -0.31394,-0.0448 -0.46875,-0.0937 0.1955,0.6346 0.7279,1.1011 1.4688,1.0938 l 5.0312,-0.0625 c 0.58266,-0.0137 1.6674,-1.3398 1.2188,-2.2812 l -1.06,-1.32 c -1.0012,-1.736 3.013,-6.7706 4.1875,-9.9375 0.50244,-1.5575 -0.51284,-2.9973 -1.6562,-3.875 z m -16.812,4.5 c -1.2972,0.0232 -3.3525,0.17277 -5.125,2.5 -1.2261,2.5108 -2.2337,4.9738 -1.75,5.8125 l 1.0625,1.3125 c 0.44858,0.94139 -0.60484,2.2676 -1.1875,2.2812 l -5,0.0625 c -0.17977,0.002 -0.34333,-0.0448 -0.5,-0.0937 0.21012,0.6346 0.75913,1.1011 1.5,1.0938 l 5,-0.0625 c 0.58266,-0.0137 1.6361,-1.3399 1.1875,-2.2812 l -1.0625,-1.3125 c -0.48368,-0.83872 0.52394,-3.3017 1.75,-5.8125 1.6332,-2.1443 3.4833,-2.4198 4.7812,-2.4688 -0.11456,-0.4811 -0.26934,-0.94295 -0.65625,-1.0312 z m 9.875,0 c -1.2381,0 -3.2046,0.0571 -4.8438,2.4062 -1.2507,2.549 -2.3344,5.0554 -1.8438,5.9062 l 1.0625,1.3125 c 0.4486,0.94139 -0.57359,2.2676 -1.1562,2.2812 l -5.0625,0.0625 c -0.16433,0.002 -0.32511,-0.0214 -0.46875,-0.0625 0.20282,0.6201 0.73879,1.0697 1.4688,1.0625 l 5.0625,-0.0625 c 0.58266,-0.0137 1.6048,-1.3399 1.1562,-2.2812 l -1.0625,-1.3125 c -0.49068,-0.85086 0.59307,-3.3572 1.8438,-5.9062 1.4776,-2.1175 3.1982,-2.3494 4.4375,-2.375 -0.0485,-0.4801 -0.20666,-0.91221 -0.59375,-1.0312 z" />
    </g>
    <rect
       ry="25"
       rx="25"
       id="rect3003"
       style="opacity:0.15;fill:#ffffff;fill-opacity:1"
       height="92"
       width="92"
       y="958.36218"
       x="-96"
       clip-path="url(#clipPath3009)"
       transform="translate(98,3.8281269e-7)" />
  </g>
</svg>
