<?xml version="1.0" encoding="UTF-8" standalone="no"?>
<!-- Created with Inkscape (http://www.inkscape.org/) -->

<svg
   xmlns:dc="http://purl.org/dc/elements/1.1/"
   xmlns:cc="http://creativecommons.org/ns#"
   xmlns:rdf="http://www.w3.org/1999/02/22-rdf-syntax-ns#"
   xmlns:svg="http://www.w3.org/2000/svg"
   xmlns="http://www.w3.org/2000/svg"
   xmlns:xlink="http://www.w3.org/1999/xlink"
   xmlns:sodipodi="http://sodipodi.sourceforge.net/DTD/sodipodi-0.dtd"
   xmlns:inkscape="http://www.inkscape.org/namespaces/inkscape"
   width="96"
   height="96"
   id="svg11037"
   version="1.1"
   inkscape:version="0.48.3.1 r9886"
   sodipodi:docname="wine-winetricks.svg">
  <defs
     id="defs11039">
    <linearGradient
       y2="1046.1001"
       x2="47.999954"
       y1="962.62189"
       x1="47.999954"
       gradientTransform="matrix(1.15,0,0,1.15,-7.1999462,-150.65291)"
       gradientUnits="userSpaceOnUse"
       id="linearGradient3886"
       xlink:href="#linearGradient3795"
       inkscape:collect="always" />
    <linearGradient
       id="linearGradient3795">
      <stop
         style="stop-color:#13a6fd;stop-opacity:1;"
         offset="0"
         id="stop3797" />
      <stop
         style="stop-color:#2975b6;stop-opacity:1;"
         offset="1"
         id="stop3799" />
    </linearGradient>
    <linearGradient
       y2="1046.1001"
       x2="47.999954"
       y1="962.62189"
       x1="47.999954"
       gradientTransform="matrix(1.15,0,0,1.15,-7.1999462,-150.65292)"
       gradientUnits="userSpaceOnUse"
       id="linearGradient11642"
       xlink:href="#linearGradient3795"
       inkscape:collect="always" />
    <linearGradient
       x1="48"
       y1="90"
       x2="48"
       y2="5.9877172"
       id="linearGradient3617"
       xlink:href="#linearGradient3778"
       gradientUnits="userSpaceOnUse" />
    <linearGradient
       id="linearGradient3778">
      <stop
         id="stop3780"
         style="stop-color:#911935;stop-opacity:1"
         offset="0" />
      <stop
         id="stop3782"
         style="stop-color:#dd6876;stop-opacity:1"
         offset="1" />
    </linearGradient>
    <linearGradient
       x1="48"
       y1="20.220806"
       x2="48"
       y2="138.66119"
       id="linearGradient3613"
       xlink:href="#linearGradient3737"
       gradientUnits="userSpaceOnUse" />
    <linearGradient
       id="linearGradient3737">
      <stop
         id="stop3739"
         style="stop-color:#ffffff;stop-opacity:1"
         offset="0" />
      <stop
         id="stop3741"
         style="stop-color:#ffffff;stop-opacity:0"
         offset="1" />
    </linearGradient>
    <clipPath
       id="clipPath3613">
      <rect
         width="84"
         height="84"
         rx="6"
         ry="6"
         x="6"
         y="6"
         id="rect3615"
         style="fill:#ffffff;fill-opacity:1;fill-rule:nonzero;stroke:none" />
    </clipPath>
    <filter
       x="-0.192"
       y="-0.192"
       width="1.3839999"
       height="1.3839999"
       color-interpolation-filters="sRGB"
       id="filter3794">
      <feGaussianBlur
         id="feGaussianBlur3796"
         stdDeviation="5.28" />
    </filter>
    <linearGradient
       x1="79.814896"
       y1="106.04263"
       x2="39.328308"
       y2="35.917809"
       id="linearGradient4314"
       xlink:href="#linearGradient4296"
       gradientUnits="userSpaceOnUse"
       gradientTransform="matrix(0.96592583,0.25881905,-0.25881905,0.96592583,30.00523,-25.91561)" />
    <linearGradient
       id="linearGradient4296">
      <stop
         id="stop4298"
         style="stop-color:#000000;stop-opacity:1"
         offset="0" />
      <stop
         id="stop4300"
         style="stop-color:#000000;stop-opacity:0"
         offset="1" />
    </linearGradient>
    <filter
       color-interpolation-filters="sRGB"
       id="filter4304">
      <feGaussianBlur
         id="feGaussianBlur4306"
         stdDeviation="0.53347418" />
    </filter>
    <linearGradient
       x1="79.814896"
       y1="106.04263"
       x2="39.328308"
       y2="35.917809"
       id="linearGradient4310"
       xlink:href="#linearGradient4296"
       gradientUnits="userSpaceOnUse"
       gradientTransform="matrix(0.96592583,0.25881905,-0.25881905,0.96592583,30.00523,-25.91561)" />
    <linearGradient
       id="linearGradient3222">
      <stop
         id="stop3224"
         style="stop-color:#000000;stop-opacity:1"
         offset="0" />
      <stop
         id="stop3226"
         style="stop-color:#000000;stop-opacity:0"
         offset="1" />
    </linearGradient>
    <filter
       color-interpolation-filters="sRGB"
       id="filter3228">
      <feGaussianBlur
         id="feGaussianBlur3230"
         stdDeviation="0.53347418" />
    </filter>
    <linearGradient
       x1="79.814896"
       y1="106.04263"
       x2="39.328308"
       y2="35.917809"
       id="linearGradient4302"
       xlink:href="#linearGradient4296"
       gradientUnits="userSpaceOnUse"
       gradientTransform="matrix(0.96592583,0.25881905,-0.25881905,0.96592583,30.00523,-25.91561)" />
    <linearGradient
       id="linearGradient3233">
      <stop
         id="stop3235"
         style="stop-color:#000000;stop-opacity:1"
         offset="0" />
      <stop
         id="stop3237"
         style="stop-color:#000000;stop-opacity:0"
         offset="1" />
    </linearGradient>
    <filter
       color-interpolation-filters="sRGB"
       id="filter3239">
      <feGaussianBlur
         id="feGaussianBlur3241"
         stdDeviation="0.53347418" />
    </filter>
    <radialGradient
       cx="39.04879"
       cy="28.09796"
       r="36.428211"
       fx="39.04879"
       fy="28.09796"
       id="radialGradient4323"
       xlink:href="#linearGradient4778"
       gradientUnits="userSpaceOnUse"
       gradientTransform="matrix(0.02521851,1.5993168,-0.98834063,0.01558446,65.834392,-34.7967)" />
    <linearGradient
       id="linearGradient4778">
      <stop
         id="stop4780"
         style="stop-color:#fff9b9;stop-opacity:1"
         offset="0" />
      <stop
         id="stop4782"
         style="stop-color:#fff79e;stop-opacity:0"
         offset="1" />
    </linearGradient>
    <radialGradient
       cx="32"
       cy="32"
       r="8"
       fx="32"
       fy="32"
       id="radialGradient4333"
       xlink:href="#linearGradient4215"
       gradientUnits="userSpaceOnUse" />
    <linearGradient
       id="linearGradient4215">
      <stop
         id="stop4217"
         style="stop-color:#ffb800;stop-opacity:1"
         offset="0" />
      <stop
         id="stop4219"
         style="stop-color:#ffb800;stop-opacity:0"
         offset="1" />
    </linearGradient>
    <radialGradient
       cx="29.094891"
       cy="31.601685"
       r="7.2449093"
       fx="29.094891"
       fy="31.601685"
       id="radialGradient3556"
       xlink:href="#linearGradient4223"
       gradientUnits="userSpaceOnUse" />
    <linearGradient
       id="linearGradient4223">
      <stop
         id="stop4225"
         style="stop-color:#ffe375;stop-opacity:1"
         offset="0" />
      <stop
         id="stop4227"
         style="stop-color:#ffa600;stop-opacity:1"
         offset="1" />
    </linearGradient>
    <radialGradient
       cx="32"
       cy="32"
       r="8"
       fx="32"
       fy="32"
       id="radialGradient4355"
       xlink:href="#linearGradient4215"
       gradientUnits="userSpaceOnUse" />
    <linearGradient
       id="linearGradient3256">
      <stop
         id="stop3258"
         style="stop-color:#ffb800;stop-opacity:1"
         offset="0" />
      <stop
         id="stop3260"
         style="stop-color:#ffb800;stop-opacity:0"
         offset="1" />
    </linearGradient>
    <radialGradient
       cx="29.094891"
       cy="31.601685"
       r="7.2449093"
       fx="29.094891"
       fy="31.601685"
       id="radialGradient4357"
       xlink:href="#linearGradient4223"
       gradientUnits="userSpaceOnUse" />
    <linearGradient
       id="linearGradient3263">
      <stop
         id="stop3265"
         style="stop-color:#ffe375;stop-opacity:1"
         offset="0" />
      <stop
         id="stop3267"
         style="stop-color:#ffa600;stop-opacity:1"
         offset="1" />
    </linearGradient>
    <radialGradient
       cx="32"
       cy="32"
       r="8"
       fx="32"
       fy="32"
       id="radialGradient4397"
       xlink:href="#linearGradient4215"
       gradientUnits="userSpaceOnUse" />
    <linearGradient
       id="linearGradient3270">
      <stop
         id="stop3272"
         style="stop-color:#ffb800;stop-opacity:1"
         offset="0" />
      <stop
         id="stop3274"
         style="stop-color:#ffb800;stop-opacity:0"
         offset="1" />
    </linearGradient>
    <radialGradient
       cx="29.094891"
       cy="31.601685"
       r="7.2449093"
       fx="29.094891"
       fy="31.601685"
       id="radialGradient4399"
       xlink:href="#linearGradient4223"
       gradientUnits="userSpaceOnUse" />
    <linearGradient
       id="linearGradient3277">
      <stop
         id="stop3279"
         style="stop-color:#ffe375;stop-opacity:1"
         offset="0" />
      <stop
         id="stop3281"
         style="stop-color:#ffa600;stop-opacity:1"
         offset="1" />
    </linearGradient>
    <radialGradient
       cx="32"
       cy="32"
       r="8"
       fx="32"
       fy="32"
       id="radialGradient4481"
       xlink:href="#linearGradient4215"
       gradientUnits="userSpaceOnUse" />
    <linearGradient
       id="linearGradient3284">
      <stop
         id="stop3286"
         style="stop-color:#ffb800;stop-opacity:1"
         offset="0" />
      <stop
         id="stop3288"
         style="stop-color:#ffb800;stop-opacity:0"
         offset="1" />
    </linearGradient>
    <radialGradient
       cx="29.094891"
       cy="31.601685"
       r="7.2449093"
       fx="29.094891"
       fy="31.601685"
       id="radialGradient4483"
       xlink:href="#linearGradient4223"
       gradientUnits="userSpaceOnUse" />
    <linearGradient
       id="linearGradient3291">
      <stop
         id="stop3293"
         style="stop-color:#ffe375;stop-opacity:1"
         offset="0" />
      <stop
         id="stop3295"
         style="stop-color:#ffa600;stop-opacity:1"
         offset="1" />
    </linearGradient>
    <radialGradient
       cx="39.04879"
       cy="28.09796"
       r="36.428211"
       fx="39.04879"
       fy="28.09796"
       id="radialGradient4903"
       xlink:href="#linearGradient4778"
       gradientUnits="userSpaceOnUse"
       gradientTransform="matrix(0.02521851,1.5993168,-0.98834063,0.01558446,65.834392,-34.7967)" />
    <linearGradient
       id="linearGradient3298">
      <stop
         id="stop3300"
         style="stop-color:#fff9b9;stop-opacity:1"
         offset="0" />
      <stop
         id="stop3302"
         style="stop-color:#fff79e;stop-opacity:0"
         offset="1" />
    </linearGradient>
    <linearGradient
       x1="48"
       y1="56"
       x2="55.077717"
       y2="56"
       id="linearGradient4238"
       xlink:href="#linearGradient4634"
       gradientUnits="userSpaceOnUse" />
    <linearGradient
       id="linearGradient4634">
      <stop
         id="stop4636"
         style="stop-color:#000000;stop-opacity:1"
         offset="0" />
      <stop
         id="stop4642"
         style="stop-color:#a5a5a5;stop-opacity:1"
         offset="0.30000001" />
      <stop
         id="stop4644"
         style="stop-color:#4c4c4c;stop-opacity:1"
         offset="0.60000002" />
      <stop
         id="stop4638"
         style="stop-color:#000000;stop-opacity:1"
         offset="1" />
    </linearGradient>
    <linearGradient
       x1="48"
       y1="56"
       x2="56.153542"
       y2="56"
       id="linearGradient4240"
       xlink:href="#linearGradient4654"
       gradientUnits="userSpaceOnUse" />
    <linearGradient
       id="linearGradient4654">
      <stop
         id="stop4656"
         style="stop-color:#a5a5a5;stop-opacity:1"
         offset="0" />
      <stop
         id="stop4658"
         style="stop-color:#ffffff;stop-opacity:1"
         offset="0.30000001" />
      <stop
         id="stop4660"
         style="stop-color:#a5a5a5;stop-opacity:1"
         offset="0.60000002" />
      <stop
         id="stop4662"
         style="stop-color:#636363;stop-opacity:1"
         offset="1" />
    </linearGradient>
    <linearGradient
       x1="48"
       y1="56"
       x2="55.868713"
       y2="56"
       id="linearGradient4242"
       xlink:href="#linearGradient4654"
       gradientUnits="userSpaceOnUse"
       gradientTransform="matrix(1,0,0,-1,0,112)" />
    <linearGradient
       id="linearGradient3317">
      <stop
         id="stop3319"
         style="stop-color:#a5a5a5;stop-opacity:1"
         offset="0" />
      <stop
         id="stop3321"
         style="stop-color:#ffffff;stop-opacity:1"
         offset="0.30000001" />
      <stop
         id="stop3323"
         style="stop-color:#a5a5a5;stop-opacity:1"
         offset="0.60000002" />
      <stop
         id="stop3325"
         style="stop-color:#636363;stop-opacity:1"
         offset="1" />
    </linearGradient>
    <linearGradient
       x1="48"
       y1="96"
       x2="48"
       y2="31.677887"
       id="linearGradient4244"
       xlink:href="#linearGradient4672"
       gradientUnits="userSpaceOnUse" />
    <linearGradient
       id="linearGradient4672">
      <stop
         id="stop4674"
         style="stop-color:#000000;stop-opacity:1"
         offset="0" />
      <stop
         id="stop4676"
         style="stop-color:#000000;stop-opacity:0"
         offset="1" />
    </linearGradient>
    <clipPath
       clipPathUnits="userSpaceOnUse"
       id="clipPath3266">
      <rect
         x="6"
         y="6.1877699"
         width="83.970985"
         height="83.970985"
         style="fill:url(#linearGradient3271);fill-opacity:1"
         id="rect3268"
         rx="22.818203"
         ry="22.818203" />
    </clipPath>
    <linearGradient
       inkscape:collect="always"
       xlink:href="#linearGradient3795"
       id="linearGradient3271"
       gradientUnits="userSpaceOnUse"
       gradientTransform="matrix(1.0496374,0,0,1.0496374,-2.3970496,-1006.0415)"
       x1="47.999954"
       y1="962.62189"
       x2="47.999954"
       y2="1046.1001" />
    <clipPath
       clipPathUnits="userSpaceOnUse"
       id="clipPath3009">
      <path
         id="path3011"
         d="m -2,956.36218 -96,0 0,33.5624 96,25.68742 0,-59.24982 z"
         style="opacity:0.15;fill:#ffffff;fill-opacity:1;stroke:none"
         inkscape:connector-curvature="0" />
    </clipPath>
  </defs>
  <sodipodi:namedview
     id="base"
     pagecolor="#ffffff"
     bordercolor="#666666"
     borderopacity="1.0"
     inkscape:pageopacity="0.0"
     inkscape:pageshadow="2"
     inkscape:zoom="3.959798"
     inkscape:cx="37.957448"
     inkscape:cy="59.964634"
     inkscape:document-units="px"
     inkscape:current-layer="layer1"
     showgrid="false"
     inkscape:window-width="1280"
     inkscape:window-height="750"
     inkscape:window-x="0"
     inkscape:window-y="22"
     inkscape:window-maximized="1"
     showguides="true"
     inkscape:guide-bbox="true">
    <sodipodi:guide
       orientation="0,1"
       position="-24.748737,0"
       id="guide11064" />
    <sodipodi:guide
       orientation="0,1"
       position="-23.233509,96"
       id="guide11066" />
    <sodipodi:guide
       orientation="1,0"
       position="0,54.800776"
       id="guide11068" />
    <sodipodi:guide
       orientation="1,0"
       position="96,51.012704"
       id="guide11070" />
    <sodipodi:guide
       orientation="0,1"
       position="-18.94036,48"
       id="guide11072" />
    <sodipodi:guide
       orientation="1,0"
       position="48,79.296975"
       id="guide11074" />
    <sodipodi:guide
       orientation="1,0"
       position="2,75.508903"
       id="guide11076" />
    <sodipodi:guide
       orientation="0,1"
       position="-77.27667,2"
       id="guide11078" />
    <sodipodi:guide
       orientation="1,0"
       position="94,77.781746"
       id="guide11080" />
    <sodipodi:guide
       orientation="0,1"
       position="-65.912454,94"
       id="guide11082" />
  </sodipodi:namedview>
  <metadata
     id="metadata11042">
    <rdf:RDF>
      <cc:Work
         rdf:about="">
        <dc:format>image/svg+xml</dc:format>
        <dc:type
           rdf:resource="http://purl.org/dc/dcmitype/StillImage" />
        <dc:title />
      </cc:Work>
    </rdf:RDF>
  </metadata>
  <g
     inkscape:label="Layer 1"
     inkscape:groupmode="layer"
     id="layer1"
     transform="translate(0,-956.36218)">
    <g
       transform="matrix(1.0956165,0,0,1.0956165,-4.5736991,951.58276)"
       id="g3153"
       clip-path="url(#clipPath3266)">
      <g
         id="layer1-1" />
      <g
         id="g3122">
        <rect
           width="84"
           height="84"
           rx="6"
           ry="6"
           x="6"
           y="6"
           id="rect2419"
           style="fill:url(#linearGradient3617);fill-opacity:1;fill-rule:nonzero;stroke:none" />
        <g
           id="layer5">
          <rect
             width="66"
             height="66"
             rx="12"
             ry="12"
             x="15"
             y="15"
             clip-path="url(#clipPath3613)"
             id="rect3171"
             style="opacity:0.1;fill:url(#linearGradient3613);fill-opacity:1;fill-rule:nonzero;stroke:#ffffff;stroke-width:0.5;stroke-linecap:round;stroke-linejoin:miter;stroke-miterlimit:4;stroke-opacity:1;stroke-dasharray:none;stroke-dashoffset:0;filter:url(#filter3794)" />
        </g>
      </g>
      <g
         id="layer3">
        <path
           style="opacity:0.1;color:#000000;fill:url(#linearGradient4314);fill-opacity:1;fill-rule:nonzero;stroke:none;stroke-width:1;marker:none;visibility:visible;display:inline;overflow:visible;filter:url(#filter4304);enable-background:accumulate"
           id="path4312"
           transform="matrix(0.8286091,-0.55982761,0.55982761,0.8286091,-40.811413,58.691203)"
           inkscape:connector-curvature="0"
           d="m 61.895589,17.34349 c -0.135233,-0.04214 -0.28289,-0.05044 -0.416672,-0.01459 l -5.787197,1.555153 c -0.535123,0.143386 -0.804929,0.915704 -0.58985,1.718389 l 3.238555,12.061692 6.733607,25.097978 4.37878,16.37891 5.585295,20.810946 c 0.215078,0.802687 0.824216,1.348782 1.359339,1.205396 l 5.787197,-1.555154 c 0.535123,-0.143386 0.804929,-0.915701 0.589851,-1.718388 L 77.189199,72.072876 72.810419,55.693967 66.076812,30.595988 62.838256,18.534296 C 62.676947,17.932283 62.301288,17.469904 61.895589,17.34349 z" />
        <path
           style="opacity:0.3;color:#000000;fill:url(#linearGradient4310);fill-opacity:1;fill-rule:nonzero;stroke:none;stroke-width:1;marker:none;visibility:visible;display:inline;overflow:visible;filter:url(#filter4304);enable-background:accumulate"
           id="path4308"
           transform="matrix(0.93863507,-0.34491188,0.34491188,0.93863507,-28.481108,31.913896)"
           inkscape:connector-curvature="0"
           d="m 61.895589,17.34349 c -0.135233,-0.04214 -0.28289,-0.05044 -0.416672,-0.01459 l -5.787197,1.555153 c -0.535123,0.143386 -0.804929,0.915704 -0.58985,1.718389 l 3.238555,12.061692 6.733607,25.097978 4.37878,16.37891 5.585295,20.810946 c 0.215078,0.802687 0.824216,1.348782 1.359339,1.205396 l 5.787197,-1.555154 c 0.535123,-0.143386 0.804929,-0.915701 0.589851,-1.718388 L 77.189199,72.072876 72.810419,55.693967 66.076812,30.595988 62.838256,18.534296 C 62.676947,17.932283 62.301288,17.469904 61.895589,17.34349 z" />
        <path
           style="opacity:0.12000002;color:#000000;fill:url(#linearGradient4302);fill-opacity:1;fill-rule:nonzero;stroke:none;stroke-width:1;marker:none;visibility:visible;display:inline;overflow:visible;filter:url(#filter4304);enable-background:accumulate"
           id="rect4250"
           inkscape:connector-curvature="0"
           d="m 61.895589,17.34349 c -0.135233,-0.04214 -0.28289,-0.05044 -0.416672,-0.01459 l -5.787197,1.555153 c -0.535123,0.143386 -0.804929,0.915704 -0.58985,1.718389 l 3.238555,12.061692 6.733607,25.097978 4.37878,16.37891 5.585295,20.810946 c 0.215078,0.802687 0.824216,1.348782 1.359339,1.205396 l 5.787197,-1.555154 c 0.535123,-0.143386 0.804929,-0.915701 0.589851,-1.718388 L 77.189199,72.072876 72.810419,55.693967 66.076812,30.595988 62.838256,18.534296 C 62.676947,17.932283 62.301288,17.469904 61.895589,17.34349 z" />
        <path
           style="opacity:0.4;fill:url(#radialGradient4323);fill-opacity:1;stroke:none"
           id="path4776"
           inkscape:connector-curvature="0"
           d="m 73.34375,6 c -7.360276,25.499114 -22.654005,54.407743 -36,50.03125 C 23.296473,51.424788 32.225198,32.751577 36.6875,28.15625 31.433271,33.083079 18.287468,53.438221 35.0625,62.34375 47.995141,69.20943 74.795715,53.55914 90,32.375 L 90,12 C 90,8.676 87.324,6 84,6 L 73.34375,6 z" />
        <g
           style="fill:#ffcc00;display:inline;enable-background:new"
           id="g4201"
           transform="matrix(1.1298846,0,0,1.1298846,7.44748,29.550012)">
          <path
             inkscape:connector-curvature="0"
             style="color:#000000;fill:url(#radialGradient4333);fill-opacity:1;fill-rule:nonzero;stroke:none;stroke-width:1;marker:none;visibility:visible;display:inline;overflow:visible;enable-background:accumulate"
             id="path4203"
             transform="translate(-1,-1)"
             d="m 40,32 a 8,8 0 1 1 -16,0 8,8 0 1 1 16,0 z" />
          <path
             style="opacity:0.1;color:#000000;fill:#ffcc00;fill-opacity:1;fill-rule:nonzero;stroke:none;stroke-width:1;marker:none;visibility:visible;display:inline;overflow:visible;enable-background:accumulate"
             id="path4205"
             transform="matrix(0.8660254,0.5,-0.5,0.8660254,21.657457,-10.861778)"
             inkscape:connector-curvature="0"
             d="m 23.90625,22.633975 2.383468,8.216066 -6.186993,5.931209 8.186993,-2.467107 5.991532,6.270632 -2.52743,-8.270632 6.330955,-5.907893 -8.330955,2.443791 -5.84757,-6.216066 z" />
          <path
             style="opacity:0.2;color:#000000;fill:#ffcc00;fill-opacity:1;fill-rule:nonzero;stroke:none;stroke-width:1;marker:none;visibility:visible;display:inline;overflow:visible;enable-background:accumulate"
             id="path4207"
             transform="matrix(0.8660254,0.5,-0.5,0.8660254,21.657457,-10.861778)"
             inkscape:connector-curvature="0"
             d="m 33.777741,39.712619 -5.216804,-6.034048 -7.576981,2.605964 6.074408,-5.15034 -2.646323,-7.643445 5.163457,6.064847 7.630327,-2.636762 -6.025795,5.354295 2.597711,7.439489 z" />
          <path
             inkscape:connector-curvature="0"
             style="color:#000000;fill:url(#radialGradient3556);fill-opacity:1;fill-rule:nonzero;stroke:none;stroke-width:1;marker:none;visibility:visible;display:inline;overflow:visible;enable-background:accumulate"
             id="path4209"
             transform="matrix(0.8660254,0.5,-0.5,0.8660254,21.657457,-10.861778)"
             d="m 33.277741,38.846594 -4.529283,-5.952006 -6.898477,2.889947 5.952006,-4.529283 -2.889946,-6.898477 4.529282,5.952006 6.898477,-2.889946 -5.952006,4.529282 z" />
        </g>
        <g
           style="fill:#ffcc00;display:inline;enable-background:new"
           id="g4345"
           transform="matrix(0.74835613,0,0,0.74835613,49.786131,23.15389)">
          <path
             inkscape:connector-curvature="0"
             style="color:#000000;fill:url(#radialGradient4355);fill-opacity:1;fill-rule:nonzero;stroke:none;stroke-width:1;marker:none;visibility:visible;display:inline;overflow:visible;enable-background:accumulate"
             id="path4347"
             transform="translate(-1,-1)"
             d="m 40,32 a 8,8 0 1 1 -16,0 8,8 0 1 1 16,0 z" />
          <path
             style="opacity:0.1;color:#000000;fill:#ffcc00;fill-opacity:1;fill-rule:nonzero;stroke:none;stroke-width:1;marker:none;visibility:visible;display:inline;overflow:visible;enable-background:accumulate"
             id="path4349"
             transform="matrix(0.8660254,0.5,-0.5,0.8660254,21.657457,-10.861778)"
             inkscape:connector-curvature="0"
             d="m 23.90625,22.633975 2.383468,8.216066 -6.186993,5.931209 8.186993,-2.467107 5.991532,6.270632 -2.52743,-8.270632 6.330955,-5.907893 -8.330955,2.443791 -5.84757,-6.216066 z" />
          <path
             style="opacity:0.2;color:#000000;fill:#ffcc00;fill-opacity:1;fill-rule:nonzero;stroke:none;stroke-width:1;marker:none;visibility:visible;display:inline;overflow:visible;enable-background:accumulate"
             id="path4351"
             transform="matrix(0.8660254,0.5,-0.5,0.8660254,21.657457,-10.861778)"
             inkscape:connector-curvature="0"
             d="m 33.777741,39.712619 -5.216804,-6.034048 -7.576981,2.605964 6.074408,-5.15034 -2.646323,-7.643445 5.163457,6.064847 7.630327,-2.636762 -6.025795,5.354295 2.597711,7.439489 z" />
          <path
             inkscape:connector-curvature="0"
             style="color:#000000;fill:url(#radialGradient4357);fill-opacity:1;fill-rule:nonzero;stroke:none;stroke-width:1;marker:none;visibility:visible;display:inline;overflow:visible;enable-background:accumulate"
             id="path4353"
             transform="matrix(0.8660254,0.5,-0.5,0.8660254,21.657457,-10.861778)"
             d="m 33.277741,38.846594 -4.529283,-5.952006 -6.898477,2.889947 5.952006,-4.529283 -2.889946,-6.898477 4.529282,5.952006 6.898477,-2.889946 -5.952006,4.529282 z" />
        </g>
        <g
           style="fill:#ffcc00;display:inline;enable-background:new"
           id="g4387"
           transform="matrix(1.8398335,0,0,1.8398335,-31.184817,-10.840219)">
          <path
             inkscape:connector-curvature="0"
             style="color:#000000;fill:url(#radialGradient4397);fill-opacity:1;fill-rule:nonzero;stroke:none;stroke-width:1;marker:none;visibility:visible;display:inline;overflow:visible;enable-background:accumulate"
             id="path4389"
             transform="translate(-1,-1)"
             d="m 40,32 a 8,8 0 1 1 -16,0 8,8 0 1 1 16,0 z" />
          <path
             style="opacity:0.1;color:#000000;fill:#ffcc00;fill-opacity:1;fill-rule:nonzero;stroke:none;stroke-width:1;marker:none;visibility:visible;display:inline;overflow:visible;enable-background:accumulate"
             id="path4391"
             transform="matrix(0.8660254,0.5,-0.5,0.8660254,21.657457,-10.861778)"
             inkscape:connector-curvature="0"
             d="m 23.90625,22.633975 2.383468,8.216066 -6.186993,5.931209 8.186993,-2.467107 5.991532,6.270632 -2.52743,-8.270632 6.330955,-5.907893 -8.330955,2.443791 -5.84757,-6.216066 z" />
          <path
             style="opacity:0.2;color:#000000;fill:#ffcc00;fill-opacity:1;fill-rule:nonzero;stroke:none;stroke-width:1;marker:none;visibility:visible;display:inline;overflow:visible;enable-background:accumulate"
             id="path4393"
             transform="matrix(0.8660254,0.5,-0.5,0.8660254,21.657457,-10.861778)"
             inkscape:connector-curvature="0"
             d="m 33.777741,39.712619 -5.216804,-6.034048 -7.576981,2.605964 6.074408,-5.15034 -2.646323,-7.643445 5.163457,6.064847 7.630327,-2.636762 -6.025795,5.354295 2.597711,7.439489 z" />
          <path
             inkscape:connector-curvature="0"
             style="color:#000000;fill:url(#radialGradient4399);fill-opacity:1;fill-rule:nonzero;stroke:none;stroke-width:1;marker:none;visibility:visible;display:inline;overflow:visible;enable-background:accumulate"
             id="path4395"
             transform="matrix(0.8660254,0.5,-0.5,0.8660254,21.657457,-10.861778)"
             d="m 33.277741,38.846594 -4.529283,-5.952006 -6.898477,2.889947 5.952006,-4.529283 -2.889946,-6.898477 4.529282,5.952006 6.898477,-2.889946 -5.952006,4.529282 z" />
        </g>
        <g
           style="fill:#ffcc00;display:inline;enable-background:new"
           id="g4471"
           transform="matrix(0.87787637,0,0,0.87787637,3.932715,-6.34023)">
          <path
             inkscape:connector-curvature="0"
             style="color:#000000;fill:url(#radialGradient4481);fill-opacity:1;fill-rule:nonzero;stroke:none;stroke-width:1;marker:none;visibility:visible;display:inline;overflow:visible;enable-background:accumulate"
             id="path4473"
             transform="translate(-1,-1)"
             d="m 40,32 a 8,8 0 1 1 -16,0 8,8 0 1 1 16,0 z" />
          <path
             style="opacity:0.1;color:#000000;fill:#ffcc00;fill-opacity:1;fill-rule:nonzero;stroke:none;stroke-width:1;marker:none;visibility:visible;display:inline;overflow:visible;enable-background:accumulate"
             id="path4475"
             transform="matrix(0.8660254,0.5,-0.5,0.8660254,21.657457,-10.861778)"
             inkscape:connector-curvature="0"
             d="m 23.90625,22.633975 2.383468,8.216066 -6.186993,5.931209 8.186993,-2.467107 5.991532,6.270632 -2.52743,-8.270632 6.330955,-5.907893 -8.330955,2.443791 -5.84757,-6.216066 z" />
          <path
             style="opacity:0.2;color:#000000;fill:#ffcc00;fill-opacity:1;fill-rule:nonzero;stroke:none;stroke-width:1;marker:none;visibility:visible;display:inline;overflow:visible;enable-background:accumulate"
             id="path4477"
             transform="matrix(0.8660254,0.5,-0.5,0.8660254,21.657457,-10.861778)"
             inkscape:connector-curvature="0"
             d="m 33.777741,39.712619 -5.216804,-6.034048 -7.576981,2.605964 6.074408,-5.15034 -2.646323,-7.643445 5.163457,6.064847 7.630327,-2.636762 -6.025795,5.354295 2.597711,7.439489 z" />
          <path
             inkscape:connector-curvature="0"
             style="color:#000000;fill:url(#radialGradient4483);fill-opacity:1;fill-rule:nonzero;stroke:none;stroke-width:1;marker:none;visibility:visible;display:inline;overflow:visible;enable-background:accumulate"
             id="path4479"
             transform="matrix(0.8660254,0.5,-0.5,0.8660254,21.657457,-10.861778)"
             d="m 33.277741,38.846594 -4.529283,-5.952006 -6.898477,2.889947 5.952006,-4.529283 -2.889946,-6.898477 4.529282,5.952006 6.898477,-2.889946 -5.952006,4.529282 z" />
        </g>
        <path
           inkscape:connector-curvature="0"
           style="opacity:0;fill:url(#radialGradient4903);fill-opacity:1;stroke:none"
           id="path4901"
           d="M 76.6875,-9.84375 A 1.4541256,1.4541256 0 0 0 75.28125,-8.625 C 73.00568,4.8008624 67.467265,22.213273 60.5625,35.46875 57.110118,42.096488 53.305299,47.680148 49.53125,51.1875 45.757201,54.694852 42.235925,56.070883 38.875,54.96875 35.469945,53.852145 33.796,52.00109 32.9375,49.6875 c -0.8585,-2.31359 -0.790906,-5.207445 -0.125,-8.125 0.665906,-2.917555 1.907685,-5.838542 3.21875,-8.15625 1.311065,-2.317708 2.820599,-4.084934 3.375,-4.46875 L 38.59375,27.75 37.75,26.5625 c -1.396565,1.011306 -3.259903,3.034721 -5.25,5.78125 -1.990097,2.746529 -4.040377,6.166856 -5.375,9.875 -1.334623,3.708144 -1.976089,7.742496 -1.03125,11.5625 0.944839,3.820004 3.554543,7.334435 8.28125,9.84375 4.965377,2.636019 11.452026,2.235318 18.34375,-0.09375 6.891724,-2.329068 14.287059,-6.6334 21.25,-12.21875 C 87.894632,40.141801 100.12795,23.849146 102.28125,7.5 A 1.4541256,1.4541256 0 0 0 101.625,6.09375 L 77.5,-9.59375 a 1.4541256,1.4541256 0 0 0 -0.8125,-0.25 z" />
        <g
           id="g4224"
           transform="matrix(0.8660254,-0.5,0.5,0.8660254,-74.655099,72.267662)">
          <g
             id="g4226"
             transform="translate(70,0)">
            <rect
               style="color:#000000;fill:url(#linearGradient4238);fill-opacity:1;fill-rule:nonzero;stroke:none;stroke-width:1;marker:none;visibility:visible;display:inline;overflow:visible;enable-background:accumulate"
               id="rect4228"
               y="16"
               x="48"
               ry="1.5"
               rx="1"
               height="80"
               width="8" />
            <path
               style="color:#000000;fill:url(#linearGradient4240);fill-opacity:1;fill-rule:nonzero;stroke:none;stroke-width:1;marker:none;visibility:visible;display:inline;overflow:visible;enable-background:accumulate"
               id="path4230"
               inkscape:connector-curvature="0"
               d="m 49,16 c -0.554,0 -1,0.669 -1,1.5 l 0,12.5 8,0 0,-12.5 C 56,16.669 55.554,16 55,16 z" />
            <path
               style="color:#000000;fill:url(#linearGradient4242);fill-opacity:1;fill-rule:nonzero;stroke:none;stroke-width:1;marker:none;visibility:visible;display:inline;overflow:visible;enable-background:accumulate"
               id="path4232"
               inkscape:connector-curvature="0"
               d="m 49,96 c -0.554,0 -1,-0.669 -1,-1.5 l 0,-12.5 8,0 0,12.5 c 0,0.831 -0.446,1.5 -1,1.5 z" />
            <rect
               style="opacity:0.3;color:#000000;fill:url(#linearGradient4244);fill-opacity:1;fill-rule:nonzero;stroke:none;stroke-width:1;marker:none;visibility:visible;display:inline;overflow:visible;enable-background:accumulate"
               id="rect4234"
               y="16"
               x="48"
               ry="1.5"
               rx="1"
               height="80"
               width="8" />
            <path
               style="opacity:0.2;color:#000000;fill:#000000;fill-opacity:1;fill-rule:nonzero;stroke:none;stroke-width:1;marker:none;visibility:visible;display:inline;overflow:visible;enable-background:accumulate"
               id="path4236"
               inkscape:connector-curvature="0"
               d="m 49,16 c -0.554,0 -1,0.669 -1,1.5 l 0,77 c 0,0.831 0.446,1.5 1,1.5 l 6,0 c 0.554,0 1,-0.669 1,-1.5 l 0,-77 C 56,16.669 55.554,16 55,16 z m 0.125,1 5.75,0 C 54.92429,17.07394 55,17.264325 55,17.5 l 0,77 c 0,0.235675 -0.07571,0.426061 -0.125,0.5 l -5.75,0 C 49.075707,94.926061 49,94.735675 49,94.5 l 0,-77 c 0,-0.235675 0.07571,-0.426061 0.125,-0.5 z" />
          </g>
        </g>
      </g>
    </g>
    <rect
       ry="25"
       rx="25"
       id="rect3003"
       style="opacity:0.15;fill:#ffffff;fill-opacity:1"
       height="92"
       width="92"
       y="958.36218"
       x="-96"
       clip-path="url(#clipPath3009)"
       transform="translate(98,3.8281269e-7)" />
  </g>
</svg>
