<?xml version="1.0" encoding="UTF-8" standalone="no"?>
<!-- Created with Inkscape (http://www.inkscape.org/) -->

<svg
   xmlns:dc="http://purl.org/dc/elements/1.1/"
   xmlns:cc="http://creativecommons.org/ns#"
   xmlns:rdf="http://www.w3.org/1999/02/22-rdf-syntax-ns#"
   xmlns:svg="http://www.w3.org/2000/svg"
   xmlns="http://www.w3.org/2000/svg"
   xmlns:xlink="http://www.w3.org/1999/xlink"
   xmlns:sodipodi="http://sodipodi.sourceforge.net/DTD/sodipodi-0.dtd"
   xmlns:inkscape="http://www.inkscape.org/namespaces/inkscape"
   width="96"
   height="96"
   id="svg11037"
   version="1.1"
   inkscape:version="0.48.3.1 r9886"
   sodipodi:docname="wmaker-meterbridge.svg">
  <defs
     id="defs11039">
    <linearGradient
       y2="1046.1001"
       x2="47.999954"
       y1="962.62189"
       x1="47.999954"
       gradientTransform="matrix(1.15,0,0,1.15,-7.1999462,-150.65291)"
       gradientUnits="userSpaceOnUse"
       id="linearGradient3886"
       xlink:href="#linearGradient3795"
       inkscape:collect="always" />
    <linearGradient
       id="linearGradient3795">
      <stop
         style="stop-color:#13a6fd;stop-opacity:1;"
         offset="0"
         id="stop3797" />
      <stop
         style="stop-color:#2975b6;stop-opacity:1;"
         offset="1"
         id="stop3799" />
    </linearGradient>
    <linearGradient
       y2="1046.1001"
       x2="47.999954"
       y1="962.62189"
       x1="47.999954"
       gradientTransform="matrix(1.15,0,0,1.15,-7.1999462,-150.65292)"
       gradientUnits="userSpaceOnUse"
       id="linearGradient11642"
       xlink:href="#linearGradient3795"
       inkscape:collect="always" />
    <clipPath
       clipPathUnits="userSpaceOnUse"
       id="clipPath3009">
      <path
         id="path3011"
         d="m -2,956.36218 -96,0 0,33.5624 96,25.68742 0,-59.24982 z"
         style="opacity:0.15;fill:#ffffff;fill-opacity:1;stroke:none"
         inkscape:connector-curvature="0" />
    </clipPath>
    <linearGradient
       inkscape:collect="always"
       xlink:href="#linearGradient3716-9"
       id="linearGradient11361"
       gradientUnits="userSpaceOnUse"
       gradientTransform="matrix(16.749621,0,0,-16.749621,2689.9054,-277.29028)"
       x1="9.2829962"
       y1="54.56599"
       x2="9.2829962"
       y2="30.797007" />
    <linearGradient
       id="linearGradient3716-9">
      <stop
         id="stop3718-1"
         style="stop-color:#c83771;stop-opacity:1"
         offset="0" />
      <stop
         id="stop3720-3"
         style="stop-color:#c83771;stop-opacity:0"
         offset="1" />
    </linearGradient>
    <linearGradient
       inkscape:collect="always"
       xlink:href="#linearGradient3724-4"
       id="linearGradient11363"
       gradientUnits="userSpaceOnUse"
       gradientTransform="matrix(16.749621,0,0,-16.749621,2689.9054,-277.29028)"
       x1="16.535534"
       y1="62.394672"
       x2="16.535534"
       y2="40.421619" />
    <linearGradient
       id="linearGradient3724-4">
      <stop
         id="stop3726-2"
         style="stop-color:#d35fbc;stop-opacity:1"
         offset="0" />
      <stop
         id="stop3728-9"
         style="stop-color:#d35fbc;stop-opacity:0"
         offset="1" />
    </linearGradient>
    <linearGradient
       inkscape:collect="always"
       xlink:href="#linearGradient3732-9"
       id="linearGradient11365"
       gradientUnits="userSpaceOnUse"
       gradientTransform="matrix(16.749621,0,0,-16.749621,2689.9054,-277.29028)"
       x1="22.525381"
       y1="66.206116"
       x2="22.525381"
       y2="32.08049" />
    <linearGradient
       id="linearGradient3732-9">
      <stop
         id="stop3734-1"
         style="stop-color:#8d5fd3;stop-opacity:1"
         offset="0" />
      <stop
         id="stop3736-7"
         style="stop-color:#8d5fd3;stop-opacity:0"
         offset="1" />
    </linearGradient>
    <linearGradient
       inkscape:collect="always"
       xlink:href="#linearGradient3740-2"
       id="linearGradient11367"
       gradientUnits="userSpaceOnUse"
       gradientTransform="matrix(16.749621,0,0,-16.749621,2689.9054,-277.29028)"
       x1="29.77792"
       y1="54.060917"
       x2="29.77792"
       y2="23.20402" />
    <linearGradient
       id="linearGradient3740-2">
      <stop
         id="stop3742-7"
         style="stop-color:#5599ff;stop-opacity:1"
         offset="0" />
      <stop
         id="stop3744-5"
         style="stop-color:#5599ff;stop-opacity:0"
         offset="1" />
    </linearGradient>
    <linearGradient
       inkscape:collect="always"
       xlink:href="#linearGradient3748-7"
       id="linearGradient11369"
       gradientUnits="userSpaceOnUse"
       gradientTransform="matrix(16.749621,0,0,-16.749621,2689.9054,-277.29028)"
       x1="37.030457"
       y1="68.960663"
       x2="37.030457"
       y2="46.717045" />
    <linearGradient
       id="linearGradient3748-7">
      <stop
         id="stop3751-1"
         style="stop-color:#37abc8;stop-opacity:1"
         offset="0" />
      <stop
         id="stop3753-8-3"
         style="stop-color:#37abc8;stop-opacity:0"
         offset="1" />
    </linearGradient>
    <linearGradient
       inkscape:collect="always"
       xlink:href="#linearGradient3757-8-7"
       id="linearGradient11371"
       gradientUnits="userSpaceOnUse"
       gradientTransform="matrix(16.749621,0,0,-16.749621,2689.9054,-277.29028)"
       x1="44.282997"
       y1="64.162437"
       x2="44.282997"
       y2="37.391563" />
    <linearGradient
       id="linearGradient3757-8-7">
      <stop
         id="stop3759-8-8"
         style="stop-color:#70e4cd;stop-opacity:1"
         offset="0" />
      <stop
         id="stop3761-7-5"
         style="stop-color:#70e4cd;stop-opacity:0"
         offset="1" />
    </linearGradient>
    <linearGradient
       inkscape:collect="always"
       xlink:href="#linearGradient3765-5"
       id="linearGradient11373"
       gradientUnits="userSpaceOnUse"
       gradientTransform="matrix(16.749621,0,0,-16.749621,2689.9054,-277.29028)"
       x1="51.282997"
       y1="60.879444"
       x2="51.282997"
       y2="12.370317" />
    <linearGradient
       id="linearGradient3765-5">
      <stop
         id="stop3767-7"
         style="stop-color:#53df53;stop-opacity:1"
         offset="0" />
      <stop
         id="stop3769-4"
         style="stop-color:#53df53;stop-opacity:0"
         offset="1" />
    </linearGradient>
    <linearGradient
       inkscape:collect="always"
       xlink:href="#linearGradient3773-2"
       id="linearGradient11375"
       gradientUnits="userSpaceOnUse"
       gradientTransform="matrix(16.749621,0,0,-16.749621,2689.9054,-277.29028)"
       x1="57.525383"
       y1="65.677666"
       x2="57.525383"
       y2="27.464857" />
    <linearGradient
       id="linearGradient3773-2">
      <stop
         id="stop3775-4"
         style="stop-color:#aad400;stop-opacity:1"
         offset="0" />
      <stop
         id="stop3777-6"
         style="stop-color:#aad400;stop-opacity:0"
         offset="1" />
    </linearGradient>
    <linearGradient
       inkscape:collect="always"
       xlink:href="#linearGradient3781-8"
       id="linearGradient11377"
       gradientUnits="userSpaceOnUse"
       gradientTransform="matrix(16.749621,0,0,-16.749621,2689.9054,-277.29028)"
       x1="64.777916"
       y1="63.909901"
       x2="64.777916"
       y2="35.095482" />
    <linearGradient
       id="linearGradient3781-8">
      <stop
         id="stop3783-1"
         style="stop-color:#ffd42a;stop-opacity:1"
         offset="0" />
      <stop
         id="stop3785-5"
         style="stop-color:#ffd42a;stop-opacity:0"
         offset="1" />
    </linearGradient>
    <linearGradient
       inkscape:collect="always"
       xlink:href="#linearGradient3789-5"
       id="linearGradient11379"
       gradientUnits="userSpaceOnUse"
       gradientTransform="matrix(16.749621,0,0,-16.749621,2689.9054,-277.29028)"
       x1="72.788071"
       y1="60.12183"
       x2="72.788071"
       y2="18.954224" />
    <linearGradient
       id="linearGradient3789-5">
      <stop
         id="stop3791-4"
         style="stop-color:#ff992a;stop-opacity:1"
         offset="0" />
      <stop
         id="stop3793-5"
         style="stop-color:#ff992a;stop-opacity:0"
         offset="1" />
    </linearGradient>
    <linearGradient
       inkscape:collect="always"
       xlink:href="#linearGradient3797-7"
       id="linearGradient11381"
       gradientUnits="userSpaceOnUse"
       gradientTransform="matrix(16.749621,0,0,-16.749621,2689.9054,-277.29028)"
       x1="78.272842"
       y1="58.354065"
       x2="78.272842"
       y2="40.421116" />
    <linearGradient
       id="linearGradient3797-7">
      <stop
         id="stop3799-2"
         style="stop-color:#ff6600;stop-opacity:1"
         offset="0" />
      <stop
         id="stop3801-9"
         style="stop-color:#ff6600;stop-opacity:0"
         offset="1" />
    </linearGradient>
    <linearGradient
       inkscape:collect="always"
       xlink:href="#linearGradient3805-9"
       id="linearGradient11383"
       gradientUnits="userSpaceOnUse"
       gradientTransform="matrix(16.749621,0,0,-16.749621,2689.9054,-277.29028)"
       x1="85.525383"
       y1="60.879444"
       x2="85.525383"
       y2="34.361088" />
    <linearGradient
       id="linearGradient3805-9">
      <stop
         id="stop3807-5"
         style="stop-color:#d40000;stop-opacity:1"
         offset="0" />
      <stop
         id="stop3809-7"
         style="stop-color:#d40000;stop-opacity:0"
         offset="1" />
    </linearGradient>
    <linearGradient
       y2="34.361088"
       x2="85.525383"
       y1="60.879444"
       x1="85.525383"
       gradientTransform="matrix(16.749621,0,0,-16.749621,2689.9054,-277.29028)"
       gradientUnits="userSpaceOnUse"
       id="linearGradient4653"
       xlink:href="#linearGradient3805-9"
       inkscape:collect="always" />
    <linearGradient
       inkscape:collect="always"
       xlink:href="#linearGradient3716-9"
       id="linearGradient3810"
       gradientUnits="userSpaceOnUse"
       gradientTransform="matrix(16.749621,0,0,-16.749621,2689.9054,-277.29028)"
       x1="9.2829962"
       y1="54.56599"
       x2="9.2829962"
       y2="30.797007" />
    <linearGradient
       inkscape:collect="always"
       xlink:href="#linearGradient3724-4"
       id="linearGradient3812"
       gradientUnits="userSpaceOnUse"
       gradientTransform="matrix(16.749621,0,0,-16.749621,2689.9054,-277.29028)"
       x1="16.535534"
       y1="62.394672"
       x2="16.535534"
       y2="40.421619" />
    <linearGradient
       inkscape:collect="always"
       xlink:href="#linearGradient3732-9"
       id="linearGradient3814"
       gradientUnits="userSpaceOnUse"
       gradientTransform="matrix(16.749621,0,0,-16.749621,2689.9054,-277.29028)"
       x1="22.525381"
       y1="66.206116"
       x2="22.525381"
       y2="32.08049" />
    <linearGradient
       inkscape:collect="always"
       xlink:href="#linearGradient3740-2"
       id="linearGradient3816"
       gradientUnits="userSpaceOnUse"
       gradientTransform="matrix(16.749621,0,0,-16.749621,2689.9054,-277.29028)"
       x1="29.77792"
       y1="54.060917"
       x2="29.77792"
       y2="23.20402" />
    <linearGradient
       inkscape:collect="always"
       xlink:href="#linearGradient3748-7"
       id="linearGradient3818"
       gradientUnits="userSpaceOnUse"
       gradientTransform="matrix(16.749621,0,0,-16.749621,2689.9054,-277.29028)"
       x1="37.030457"
       y1="68.960663"
       x2="37.030457"
       y2="46.717045" />
    <linearGradient
       inkscape:collect="always"
       xlink:href="#linearGradient3757-8-7"
       id="linearGradient3820"
       gradientUnits="userSpaceOnUse"
       gradientTransform="matrix(16.749621,0,0,-16.749621,2689.9054,-277.29028)"
       x1="44.282997"
       y1="64.162437"
       x2="44.282997"
       y2="37.391563" />
    <linearGradient
       inkscape:collect="always"
       xlink:href="#linearGradient3765-5"
       id="linearGradient3822"
       gradientUnits="userSpaceOnUse"
       gradientTransform="matrix(16.749621,0,0,-16.749621,2689.9054,-277.29028)"
       x1="51.282997"
       y1="60.879444"
       x2="51.282997"
       y2="12.370317" />
    <linearGradient
       inkscape:collect="always"
       xlink:href="#linearGradient3773-2"
       id="linearGradient3824"
       gradientUnits="userSpaceOnUse"
       gradientTransform="matrix(16.749621,0,0,-16.749621,2689.9054,-277.29028)"
       x1="57.525383"
       y1="65.677666"
       x2="57.525383"
       y2="27.464857" />
    <linearGradient
       inkscape:collect="always"
       xlink:href="#linearGradient3781-8"
       id="linearGradient3826"
       gradientUnits="userSpaceOnUse"
       gradientTransform="matrix(16.749621,0,0,-16.749621,2689.9054,-277.29028)"
       x1="64.777916"
       y1="63.909901"
       x2="64.777916"
       y2="35.095482" />
    <linearGradient
       inkscape:collect="always"
       xlink:href="#linearGradient3789-5"
       id="linearGradient3828"
       gradientUnits="userSpaceOnUse"
       gradientTransform="matrix(16.749621,0,0,-16.749621,2689.9054,-277.29028)"
       x1="72.788071"
       y1="60.12183"
       x2="72.788071"
       y2="18.954224" />
    <linearGradient
       inkscape:collect="always"
       xlink:href="#linearGradient3797-7"
       id="linearGradient3830"
       gradientUnits="userSpaceOnUse"
       gradientTransform="matrix(16.749621,0,0,-16.749621,2689.9054,-277.29028)"
       x1="78.272842"
       y1="58.354065"
       x2="78.272842"
       y2="40.421116" />
    <linearGradient
       inkscape:collect="always"
       xlink:href="#linearGradient3805-9"
       id="linearGradient3832"
       gradientUnits="userSpaceOnUse"
       gradientTransform="matrix(16.749621,0,0,-16.749621,2689.9054,-277.29028)"
       x1="85.525383"
       y1="60.879444"
       x2="85.525383"
       y2="34.361088" />
  </defs>
  <sodipodi:namedview
     id="base"
     pagecolor="#ffffff"
     bordercolor="#666666"
     borderopacity="1.0"
     inkscape:pageopacity="0.0"
     inkscape:pageshadow="2"
     inkscape:zoom="3.959798"
     inkscape:cx="49.460373"
     inkscape:cy="46.908825"
     inkscape:document-units="px"
     inkscape:current-layer="layer1"
     showgrid="false"
     inkscape:window-width="1280"
     inkscape:window-height="754"
     inkscape:window-x="0"
     inkscape:window-y="22"
     inkscape:window-maximized="1"
     showguides="true"
     inkscape:guide-bbox="true">
    <sodipodi:guide
       orientation="0,1"
       position="-24.748737,0"
       id="guide11064" />
    <sodipodi:guide
       orientation="0,1"
       position="-23.233509,96"
       id="guide11066" />
    <sodipodi:guide
       orientation="1,0"
       position="0,54.800776"
       id="guide11068" />
    <sodipodi:guide
       orientation="1,0"
       position="96,51.012704"
       id="guide11070" />
    <sodipodi:guide
       orientation="0,1"
       position="-18.94036,48"
       id="guide11072" />
    <sodipodi:guide
       orientation="1,0"
       position="48,79.296975"
       id="guide11074" />
    <sodipodi:guide
       orientation="1,0"
       position="2,75.508903"
       id="guide11076" />
    <sodipodi:guide
       orientation="0,1"
       position="-77.27667,2"
       id="guide11078" />
    <sodipodi:guide
       orientation="1,0"
       position="94,77.781746"
       id="guide11080" />
    <sodipodi:guide
       orientation="0,1"
       position="-65.912454,94"
       id="guide11082" />
  </sodipodi:namedview>
  <metadata
     id="metadata11042">
    <rdf:RDF>
      <cc:Work
         rdf:about="">
        <dc:format>image/svg+xml</dc:format>
        <dc:type
           rdf:resource="http://purl.org/dc/dcmitype/StillImage" />
        <dc:title />
      </cc:Work>
    </rdf:RDF>
  </metadata>
  <g
     inkscape:label="Layer 1"
     inkscape:groupmode="layer"
     id="layer1"
     transform="translate(0,-956.36218)">
    <rect
       x="2"
       y="958.36218"
       width="92"
       height="92"
       style="fill:#1a1a1a;fill-opacity:1;opacity:1"
       id="rect3867"
       rx="25"
       ry="25" />
    <rect
       ry="25"
       rx="25"
       id="rect3003"
       style="opacity:0.15;fill:#ffffff;fill-opacity:1"
       height="92"
       width="92"
       y="958.36218"
       x="-96"
       clip-path="url(#clipPath3009)"
       transform="translate(98,0)" />
    <g
       id="g11119"
       transform="matrix(-0.04675524,0,0,-0.04629765,211.46597,954.89291)">
      <path
         d="m 2807.1527,-377.78798 c -9.2793,0 -16.7496,-7.4704 -16.7496,-16.7497 l 0,-33.4992 c 0,-9.2793 7.4703,-16.7496 16.7496,-16.7496 l 66.9985,0 c 9.2793,0 16.7496,7.4703 16.7496,16.7496 l 0,33.4992 c 0,9.2793 -7.4703,16.7497 -16.7496,16.7497 l -66.9985,0 z m 0,-83.7481 c -9.2793,0 -16.7496,-7.4704 -16.7496,-16.7497 l 0,-33.4992 c 0,-9.2793 7.4703,-16.7496 16.7496,-16.7496 l 66.9985,0 c 9.2793,0 16.7496,7.4703 16.7496,16.7496 l 0,33.4992 c 0,9.2793 -7.4703,16.7497 -16.7496,16.7497 l -66.9985,0 z m 0,-83.7481 c -9.2793,0 -16.7496,-7.4704 -16.7496,-16.7497 l 0,-33.4992 c 0,-9.2793 7.4703,-16.7496 16.7496,-16.7496 l 66.9985,0 c 9.2793,0 16.7496,7.4703 16.7496,16.7496 l 0,33.4992 c 0,9.2793 -7.4703,16.7497 -16.7496,16.7497 l -66.9985,0 z m 0,-83.7482 c -9.2793,0 -16.7496,-7.4703 -16.7496,-16.7496 l 0,-33.4992 c 0,-9.2793 7.4703,-16.7496 16.7496,-16.7496 l 66.9985,0 c 9.2793,0 16.7496,7.4703 16.7496,16.7496 l 0,33.4992 c 0,9.2793 -7.4703,16.7496 -16.7496,16.7496 l -66.9985,0 z m 0,-83.7481 c -9.2793,0 -16.7496,-7.4703 -16.7496,-16.7496 l 0,-33.4992 c 0,-9.2793 7.4703,-16.7496 16.7496,-16.7496 l 66.9985,0 c 9.2793,0 16.7496,7.4703 16.7496,16.7496 l 0,33.4992 c 0,9.2793 -7.4703,16.7496 -16.7496,16.7496 l -66.9985,0 z m 0,-83.74806 c -9.2793,0 -16.7496,-7.47033 -16.7496,-16.74962 l 0,-33.49924 c 0,-9.27929 7.4703,-16.74963 16.7496,-16.74963 l 66.9985,0 c 9.2793,0 16.7496,7.47034 16.7496,16.74963 l 0,33.49924 c 0,9.27929 -7.4703,16.74962 -16.7496,16.74962 l -66.9985,0 z m 0,-83.74811 c -9.2793,0 -16.7496,-7.47033 -16.7496,-16.74962 l 0,-33.49924 c 0,-9.27929 7.4703,-16.74962 16.7496,-16.74962 l 66.9985,0 c 9.2793,0 16.7496,7.47033 16.7496,16.74962 l 0,33.49924 c 0,9.27929 -7.4703,16.74962 -16.7496,16.74962 l -66.9985,0 z m 0,-83.7481 c -9.2793,0 -16.7496,-7.47033 -16.7496,-16.74962 l 0,-33.49923 c 0,-9.2793 7.4703,-16.7496 16.7496,-16.7496 l 66.9985,0 c 9.2793,0 16.7496,7.4703 16.7496,16.7496 l 0,33.49923 c 0,9.27929 -7.4703,16.74962 -16.7496,16.74962 l -66.9985,0 z m 0,-83.74815 c -9.2793,0 -16.7496,-7.4703 -16.7496,-16.7496 l 0,-33.4992 c 0,-9.2793 7.4703,-16.7496 16.7496,-16.7496 l 66.9985,0 c 9.2793,0 16.7496,7.4703 16.7496,16.7496 l 0,33.4992 c 0,9.2793 -7.4703,16.7496 -16.7496,16.7496 l -66.9985,0 z m 0,-83.7481 c -9.2793,0 -16.7496,-7.4703 -16.7496,-16.7496 l 0,-33.4992 c 0,-9.2793 7.4703,-16.7497 16.7496,-16.7497 l 66.9985,0 c 9.2793,0 16.7496,7.4704 16.7496,16.7497 l 0,33.4992 c 0,9.2793 -7.4703,16.7496 -16.7496,16.7496 l -66.9985,0 z m 0,-83.7481 c -9.2793,0 -16.7496,-7.4703 -16.7496,-16.7496 l 0,-33.4992 c 0,-9.2793 7.4703,-16.7497 16.7496,-16.7497 l 66.9985,0 c 9.2793,0 16.7496,7.4704 16.7496,16.7497 l 0,33.4992 c 0,9.2793 -7.4703,16.7496 -16.7496,16.7496 l -66.9985,0 z m 0,-83.7481 c -9.2793,0 -16.7496,-7.4703 -16.7496,-16.7496 l 0,-33.4992 c 0,-9.2793 7.4703,-16.7497 16.7496,-16.7497 l 66.9985,0 c 9.2793,0 16.7496,7.4704 16.7496,16.7497 l 0,33.4992 c 0,9.2793 -7.4703,16.7496 -16.7496,16.7496 l -66.9985,0 z m 0,-83.7481 c -9.2793,0 -16.7496,-7.4703 -16.7496,-16.7496 l 0,-33.4992 c 0,-9.2793 7.4703,-16.7497 16.7496,-16.7497 l 66.9985,0 c 9.2793,0 16.7496,7.4704 16.7496,16.7497 l 0,33.4992 c 0,9.2793 -7.4703,16.7496 -16.7496,16.7496 l -66.9985,0 z m 0,-83.7481 c -9.2793,0 -16.7496,-7.4703 -16.7496,-16.7496 l 0,-33.4992 c 0,-9.2793 7.4703,-16.7497 16.7496,-16.7497 l 66.9985,0 c 9.2793,0 16.7496,7.4704 16.7496,16.7497 l 0,33.4992 c 0,9.2793 -7.4703,16.7496 -16.7496,16.7496 l -66.9985,0 z m 0,-83.7481 c -9.2793,0 -16.7496,-7.4703 -16.7496,-16.7496 l 0,-33.4993 c 0,-9.2792 7.4703,-16.7496 16.7496,-16.7496 l 66.9985,0 c 9.2793,0 16.7496,7.4704 16.7496,16.7496 l 0,33.4993 c 0,9.2793 -7.4703,16.7496 -16.7496,16.7496 l -66.9985,0 z m 0,-83.7481 c -9.2793,0 -16.7496,-7.4703 -16.7496,-16.7496 l 0,-33.4993 c 0,-9.2792 7.4703,-16.7496 16.7496,-16.7496 l 66.9985,0 c 9.2793,0 16.7496,7.4704 16.7496,16.7496 l 0,33.4993 c 0,9.2793 -7.4703,16.7496 -16.7496,16.7496 l -66.9985,0 z m 0,-83.7481 c -9.2793,0 -16.7496,-7.4703 -16.7496,-16.7496 l 0,-33.4993 c 0,-9.2793 7.4703,-16.7496 16.7496,-16.7496 l 66.9985,0 c 9.2793,0 16.7496,7.4703 16.7496,16.7496 l 0,33.4993 c 0,9.2793 -7.4703,16.7496 -16.7496,16.7496 l -66.9985,0 z"
         inkscape:connector-curvature="0"
         id="path11121"
         style="fill:url(#linearGradient3810);fill-opacity:1;stroke:none;display:inline" />
      <path
         d="m 2924.4001,-377.78798 c -9.2793,0 -16.7496,-7.4704 -16.7496,-16.7497 l 0,-33.4992 c 0,-9.2793 7.4703,-16.7496 16.7496,-16.7496 l 66.9985,0 c 9.2793,0 16.7496,7.4703 16.7496,16.7496 l 0,33.4992 c 0,9.2793 -7.4703,16.7497 -16.7496,16.7497 l -66.9985,0 z m 0,-83.7481 c -9.2793,0 -16.7496,-7.4704 -16.7496,-16.7497 l 0,-33.4992 c 0,-9.2793 7.4703,-16.7496 16.7496,-16.7496 l 66.9985,0 c 9.2793,0 16.7496,7.4703 16.7496,16.7496 l 0,33.4992 c 0,9.2793 -7.4703,16.7497 -16.7496,16.7497 l -66.9985,0 z m 0,-83.7481 c -9.2793,0 -16.7496,-7.4704 -16.7496,-16.7497 l 0,-33.4992 c 0,-9.2793 7.4703,-16.7496 16.7496,-16.7496 l 66.9985,0 c 9.2793,0 16.7496,7.4703 16.7496,16.7496 l 0,33.4992 c 0,9.2793 -7.4703,16.7497 -16.7496,16.7497 l -66.9985,0 z m 0,-83.7482 c -9.2793,0 -16.7496,-7.4703 -16.7496,-16.7496 l 0,-33.4992 c 0,-9.2793 7.4703,-16.7496 16.7496,-16.7496 l 66.9985,0 c 9.2793,0 16.7496,7.4703 16.7496,16.7496 l 0,33.4992 c 0,9.2793 -7.4703,16.7496 -16.7496,16.7496 l -66.9985,0 z m 0,-83.7481 c -9.2793,0 -16.7496,-7.4703 -16.7496,-16.7496 l 0,-33.4992 c 0,-9.2793 7.4703,-16.7496 16.7496,-16.7496 l 66.9985,0 c 9.2793,0 16.7496,7.4703 16.7496,16.7496 l 0,33.4992 c 0,9.2793 -7.4703,16.7496 -16.7496,16.7496 l -66.9985,0 z m 0,-83.74806 c -9.2793,0 -16.7496,-7.47033 -16.7496,-16.74962 l 0,-33.49924 c 0,-9.27929 7.4703,-16.74963 16.7496,-16.74963 l 66.9985,0 c 9.2793,0 16.7496,7.47034 16.7496,16.74963 l 0,33.49924 c 0,9.27929 -7.4703,16.74962 -16.7496,16.74962 l -66.9985,0 z m 0,-83.74811 c -9.2793,0 -16.7496,-7.47033 -16.7496,-16.74962 l 0,-33.49924 c 0,-9.27929 7.4703,-16.74962 16.7496,-16.74962 l 66.9985,0 c 9.2793,0 16.7496,7.47033 16.7496,16.74962 l 0,33.49924 c 0,9.27929 -7.4703,16.74962 -16.7496,16.74962 l -66.9985,0 z m 0,-83.7481 c -9.2793,0 -16.7496,-7.47033 -16.7496,-16.74962 l 0,-33.49923 c 0,-9.2793 7.4703,-16.7496 16.7496,-16.7496 l 66.9985,0 c 9.2793,0 16.7496,7.4703 16.7496,16.7496 l 0,33.49923 c 0,9.27929 -7.4703,16.74962 -16.7496,16.74962 l -66.9985,0 z m 0,-83.74815 c -9.2793,0 -16.7496,-7.4703 -16.7496,-16.7496 l 0,-33.4992 c 0,-9.2793 7.4703,-16.7496 16.7496,-16.7496 l 66.9985,0 c 9.2793,0 16.7496,7.4703 16.7496,16.7496 l 0,33.4992 c 0,9.2793 -7.4703,16.7496 -16.7496,16.7496 l -66.9985,0 z m 0,-83.7481 c -9.2793,0 -16.7496,-7.4703 -16.7496,-16.7496 l 0,-33.4992 c 0,-9.2793 7.4703,-16.7497 16.7496,-16.7497 l 66.9985,0 c 9.2793,0 16.7496,7.4704 16.7496,16.7497 l 0,33.4992 c 0,9.2793 -7.4703,16.7496 -16.7496,16.7496 l -66.9985,0 z m 0,-83.7481 c -9.2793,0 -16.7496,-7.4703 -16.7496,-16.7496 l 0,-33.4992 c 0,-9.2793 7.4703,-16.7497 16.7496,-16.7497 l 66.9985,0 c 9.2793,0 16.7496,7.4704 16.7496,16.7497 l 0,33.4992 c 0,9.2793 -7.4703,16.7496 -16.7496,16.7496 l -66.9985,0 z m 0,-83.7481 c -9.2793,0 -16.7496,-7.4703 -16.7496,-16.7496 l 0,-33.4992 c 0,-9.2793 7.4703,-16.7497 16.7496,-16.7497 l 66.9985,0 c 9.2793,0 16.7496,7.4704 16.7496,16.7497 l 0,33.4992 c 0,9.2793 -7.4703,16.7496 -16.7496,16.7496 l -66.9985,0 z m 0,-83.7481 c -9.2793,0 -16.7496,-7.4703 -16.7496,-16.7496 l 0,-33.4992 c 0,-9.2793 7.4703,-16.7497 16.7496,-16.7497 l 66.9985,0 c 9.2793,0 16.7496,7.4704 16.7496,16.7497 l 0,33.4992 c 0,9.2793 -7.4703,16.7496 -16.7496,16.7496 l -66.9985,0 z m 0,-83.7481 c -9.2793,0 -16.7496,-7.4703 -16.7496,-16.7496 l 0,-33.4992 c 0,-9.2793 7.4703,-16.7497 16.7496,-16.7497 l 66.9985,0 c 9.2793,0 16.7496,7.4704 16.7496,16.7497 l 0,33.4992 c 0,9.2793 -7.4703,16.7496 -16.7496,16.7496 l -66.9985,0 z m 0,-83.7481 c -9.2793,0 -16.7496,-7.4703 -16.7496,-16.7496 l 0,-33.4993 c 0,-9.2792 7.4703,-16.7496 16.7496,-16.7496 l 66.9985,0 c 9.2793,0 16.7496,7.4704 16.7496,16.7496 l 0,33.4993 c 0,9.2793 -7.4703,16.7496 -16.7496,16.7496 l -66.9985,0 z m 0,-83.7481 c -9.2793,0 -16.7496,-7.4703 -16.7496,-16.7496 l 0,-33.4993 c 0,-9.2792 7.4703,-16.7496 16.7496,-16.7496 l 66.9985,0 c 9.2793,0 16.7496,7.4704 16.7496,16.7496 l 0,33.4993 c 0,9.2793 -7.4703,16.7496 -16.7496,16.7496 l -66.9985,0 z m 0,-83.7481 c -9.2793,0 -16.7496,-7.4703 -16.7496,-16.7496 l 0,-33.4993 c 0,-9.2793 7.4703,-16.7496 16.7496,-16.7496 l 66.9985,0 c 9.2793,0 16.7496,7.4703 16.7496,16.7496 l 0,33.4993 c 0,9.2793 -7.4703,16.7496 -16.7496,16.7496 l -66.9985,0 z"
         inkscape:connector-curvature="0"
         id="path11123"
         style="fill:url(#linearGradient3812);fill-opacity:1;stroke:none;display:inline" />
      <path
         d="m 3041.6474,-377.78798 c -9.2793,0 -16.7496,-7.4704 -16.7496,-16.7497 l 0,-33.4992 c 0,-9.2793 7.4703,-16.7496 16.7496,-16.7496 l 66.9985,0 c 9.2793,0 16.7496,7.4703 16.7496,16.7496 l 0,33.4992 c 0,9.2793 -7.4703,16.7497 -16.7496,16.7497 l -66.9985,0 z m 0,-83.7481 c -9.2793,0 -16.7496,-7.4704 -16.7496,-16.7497 l 0,-33.4992 c 0,-9.2793 7.4703,-16.7496 16.7496,-16.7496 l 66.9985,0 c 9.2793,0 16.7496,7.4703 16.7496,16.7496 l 0,33.4992 c 0,9.2793 -7.4703,16.7497 -16.7496,16.7497 l -66.9985,0 z m 0,-83.7481 c -9.2793,0 -16.7496,-7.4704 -16.7496,-16.7497 l 0,-33.4992 c 0,-9.2793 7.4703,-16.7496 16.7496,-16.7496 l 66.9985,0 c 9.2793,0 16.7496,7.4703 16.7496,16.7496 l 0,33.4992 c 0,9.2793 -7.4703,16.7497 -16.7496,16.7497 l -66.9985,0 z m 0,-83.7482 c -9.2793,0 -16.7496,-7.4703 -16.7496,-16.7496 l 0,-33.4992 c 0,-9.2793 7.4703,-16.7496 16.7496,-16.7496 l 66.9985,0 c 9.2793,0 16.7496,7.4703 16.7496,16.7496 l 0,33.4992 c 0,9.2793 -7.4703,16.7496 -16.7496,16.7496 l -66.9985,0 z m 0,-83.7481 c -9.2793,0 -16.7496,-7.4703 -16.7496,-16.7496 l 0,-33.4992 c 0,-9.2793 7.4703,-16.7496 16.7496,-16.7496 l 66.9985,0 c 9.2793,0 16.7496,7.4703 16.7496,16.7496 l 0,33.4992 c 0,9.2793 -7.4703,16.7496 -16.7496,16.7496 l -66.9985,0 z m 0,-83.74806 c -9.2793,0 -16.7496,-7.47033 -16.7496,-16.74962 l 0,-33.49924 c 0,-9.27929 7.4703,-16.74963 16.7496,-16.74963 l 66.9985,0 c 9.2793,0 16.7496,7.47034 16.7496,16.74963 l 0,33.49924 c 0,9.27929 -7.4703,16.74962 -16.7496,16.74962 l -66.9985,0 z m 0,-83.74811 c -9.2793,0 -16.7496,-7.47033 -16.7496,-16.74962 l 0,-33.49924 c 0,-9.27929 7.4703,-16.74962 16.7496,-16.74962 l 66.9985,0 c 9.2793,0 16.7496,7.47033 16.7496,16.74962 l 0,33.49924 c 0,9.27929 -7.4703,16.74962 -16.7496,16.74962 l -66.9985,0 z m 0,-83.7481 c -9.2793,0 -16.7496,-7.47033 -16.7496,-16.74962 l 0,-33.49923 c 0,-9.2793 7.4703,-16.7496 16.7496,-16.7496 l 66.9985,0 c 9.2793,0 16.7496,7.4703 16.7496,16.7496 l 0,33.49923 c 0,9.27929 -7.4703,16.74962 -16.7496,16.74962 l -66.9985,0 z m 0,-83.74815 c -9.2793,0 -16.7496,-7.4703 -16.7496,-16.7496 l 0,-33.4992 c 0,-9.2793 7.4703,-16.7496 16.7496,-16.7496 l 66.9985,0 c 9.2793,0 16.7496,7.4703 16.7496,16.7496 l 0,33.4992 c 0,9.2793 -7.4703,16.7496 -16.7496,16.7496 l -66.9985,0 z m 0,-83.7481 c -9.2793,0 -16.7496,-7.4703 -16.7496,-16.7496 l 0,-33.4992 c 0,-9.2793 7.4703,-16.7497 16.7496,-16.7497 l 66.9985,0 c 9.2793,0 16.7496,7.4704 16.7496,16.7497 l 0,33.4992 c 0,9.2793 -7.4703,16.7496 -16.7496,16.7496 l -66.9985,0 z m 0,-83.7481 c -9.2793,0 -16.7496,-7.4703 -16.7496,-16.7496 l 0,-33.4992 c 0,-9.2793 7.4703,-16.7497 16.7496,-16.7497 l 66.9985,0 c 9.2793,0 16.7496,7.4704 16.7496,16.7497 l 0,33.4992 c 0,9.2793 -7.4703,16.7496 -16.7496,16.7496 l -66.9985,0 z m 0,-83.7481 c -9.2793,0 -16.7496,-7.4703 -16.7496,-16.7496 l 0,-33.4992 c 0,-9.2793 7.4703,-16.7497 16.7496,-16.7497 l 66.9985,0 c 9.2793,0 16.7496,7.4704 16.7496,16.7497 l 0,33.4992 c 0,9.2793 -7.4703,16.7496 -16.7496,16.7496 l -66.9985,0 z m 0,-83.7481 c -9.2793,0 -16.7496,-7.4703 -16.7496,-16.7496 l 0,-33.4992 c 0,-9.2793 7.4703,-16.7497 16.7496,-16.7497 l 66.9985,0 c 9.2793,0 16.7496,7.4704 16.7496,16.7497 l 0,33.4992 c 0,9.2793 -7.4703,16.7496 -16.7496,16.7496 l -66.9985,0 z m 0,-83.7481 c -9.2793,0 -16.7496,-7.4703 -16.7496,-16.7496 l 0,-33.4992 c 0,-9.2793 7.4703,-16.7497 16.7496,-16.7497 l 66.9985,0 c 9.2793,0 16.7496,7.4704 16.7496,16.7497 l 0,33.4992 c 0,9.2793 -7.4703,16.7496 -16.7496,16.7496 l -66.9985,0 z m 0,-83.7481 c -9.2793,0 -16.7496,-7.4703 -16.7496,-16.7496 l 0,-33.4993 c 0,-9.2792 7.4703,-16.7496 16.7496,-16.7496 l 66.9985,0 c 9.2793,0 16.7496,7.4704 16.7496,16.7496 l 0,33.4993 c 0,9.2793 -7.4703,16.7496 -16.7496,16.7496 l -66.9985,0 z m 0,-83.7481 c -9.2793,0 -16.7496,-7.4703 -16.7496,-16.7496 l 0,-33.4993 c 0,-9.2792 7.4703,-16.7496 16.7496,-16.7496 l 66.9985,0 c 9.2793,0 16.7496,7.4704 16.7496,16.7496 l 0,33.4993 c 0,9.2793 -7.4703,16.7496 -16.7496,16.7496 l -66.9985,0 z m 0,-83.7481 c -9.2793,0 -16.7496,-7.4703 -16.7496,-16.7496 l 0,-33.4993 c 0,-9.2793 7.4703,-16.7496 16.7496,-16.7496 l 66.9985,0 c 9.2793,0 16.7496,7.4703 16.7496,16.7496 l 0,33.4993 c 0,9.2793 -7.4703,16.7496 -16.7496,16.7496 l -66.9985,0 z"
         inkscape:connector-curvature="0"
         id="path11125"
         style="fill:url(#linearGradient3814);fill-opacity:1;stroke:none;display:inline" />
      <path
         d="m 3158.8948,-377.78798 c -9.2793,0 -16.7496,-7.4704 -16.7496,-16.7497 l 0,-33.4992 c 0,-9.2793 7.4703,-16.7496 16.7496,-16.7496 l 66.9985,0 c 9.2793,0 16.7496,7.4703 16.7496,16.7496 l 0,33.4992 c 0,9.2793 -7.4703,16.7497 -16.7496,16.7497 l -66.9985,0 z m 0,-83.7481 c -9.2793,0 -16.7496,-7.4704 -16.7496,-16.7497 l 0,-33.4992 c 0,-9.2793 7.4703,-16.7496 16.7496,-16.7496 l 66.9985,0 c 9.2793,0 16.7496,7.4703 16.7496,16.7496 l 0,33.4992 c 0,9.2793 -7.4703,16.7497 -16.7496,16.7497 l -66.9985,0 z m 0,-83.7481 c -9.2793,0 -16.7496,-7.4704 -16.7496,-16.7497 l 0,-33.4992 c 0,-9.2793 7.4703,-16.7496 16.7496,-16.7496 l 66.9985,0 c 9.2793,0 16.7496,7.4703 16.7496,16.7496 l 0,33.4992 c 0,9.2793 -7.4703,16.7497 -16.7496,16.7497 l -66.9985,0 z m 0,-83.7482 c -9.2793,0 -16.7496,-7.4703 -16.7496,-16.7496 l 0,-33.4992 c 0,-9.2793 7.4703,-16.7496 16.7496,-16.7496 l 66.9985,0 c 9.2793,0 16.7496,7.4703 16.7496,16.7496 l 0,33.4992 c 0,9.2793 -7.4703,16.7496 -16.7496,16.7496 l -66.9985,0 z m 0,-83.7481 c -9.2793,0 -16.7496,-7.4703 -16.7496,-16.7496 l 0,-33.4992 c 0,-9.2793 7.4703,-16.7496 16.7496,-16.7496 l 66.9985,0 c 9.2793,0 16.7496,7.4703 16.7496,16.7496 l 0,33.4992 c 0,9.2793 -7.4703,16.7496 -16.7496,16.7496 l -66.9985,0 z m 0,-83.74806 c -9.2793,0 -16.7496,-7.47033 -16.7496,-16.74962 l 0,-33.49924 c 0,-9.27929 7.4703,-16.74963 16.7496,-16.74963 l 66.9985,0 c 9.2793,0 16.7496,7.47034 16.7496,16.74963 l 0,33.49924 c 0,9.27929 -7.4703,16.74962 -16.7496,16.74962 l -66.9985,0 z m 0,-83.74811 c -9.2793,0 -16.7496,-7.47033 -16.7496,-16.74962 l 0,-33.49924 c 0,-9.27929 7.4703,-16.74962 16.7496,-16.74962 l 66.9985,0 c 9.2793,0 16.7496,7.47033 16.7496,16.74962 l 0,33.49924 c 0,9.27929 -7.4703,16.74962 -16.7496,16.74962 l -66.9985,0 z m 0,-83.7481 c -9.2793,0 -16.7496,-7.47033 -16.7496,-16.74962 l 0,-33.49923 c 0,-9.2793 7.4703,-16.7496 16.7496,-16.7496 l 66.9985,0 c 9.2793,0 16.7496,7.4703 16.7496,16.7496 l 0,33.49923 c 0,9.27929 -7.4703,16.74962 -16.7496,16.74962 l -66.9985,0 z m 0,-83.74815 c -9.2793,0 -16.7496,-7.4703 -16.7496,-16.7496 l 0,-33.4992 c 0,-9.2793 7.4703,-16.7496 16.7496,-16.7496 l 66.9985,0 c 9.2793,0 16.7496,7.4703 16.7496,16.7496 l 0,33.4992 c 0,9.2793 -7.4703,16.7496 -16.7496,16.7496 l -66.9985,0 z m 0,-83.7481 c -9.2793,0 -16.7496,-7.4703 -16.7496,-16.7496 l 0,-33.4992 c 0,-9.2793 7.4703,-16.7497 16.7496,-16.7497 l 66.9985,0 c 9.2793,0 16.7496,7.4704 16.7496,16.7497 l 0,33.4992 c 0,9.2793 -7.4703,16.7496 -16.7496,16.7496 l -66.9985,0 z m 0,-83.7481 c -9.2793,0 -16.7496,-7.4703 -16.7496,-16.7496 l 0,-33.4992 c 0,-9.2793 7.4703,-16.7497 16.7496,-16.7497 l 66.9985,0 c 9.2793,0 16.7496,7.4704 16.7496,16.7497 l 0,33.4992 c 0,9.2793 -7.4703,16.7496 -16.7496,16.7496 l -66.9985,0 z m 0,-83.7481 c -9.2793,0 -16.7496,-7.4703 -16.7496,-16.7496 l 0,-33.4992 c 0,-9.2793 7.4703,-16.7497 16.7496,-16.7497 l 66.9985,0 c 9.2793,0 16.7496,7.4704 16.7496,16.7497 l 0,33.4992 c 0,9.2793 -7.4703,16.7496 -16.7496,16.7496 l -66.9985,0 z m 0,-83.7481 c -9.2793,0 -16.7496,-7.4703 -16.7496,-16.7496 l 0,-33.4992 c 0,-9.2793 7.4703,-16.7497 16.7496,-16.7497 l 66.9985,0 c 9.2793,0 16.7496,7.4704 16.7496,16.7497 l 0,33.4992 c 0,9.2793 -7.4703,16.7496 -16.7496,16.7496 l -66.9985,0 z m 0,-83.7481 c -9.2793,0 -16.7496,-7.4703 -16.7496,-16.7496 l 0,-33.4992 c 0,-9.2793 7.4703,-16.7497 16.7496,-16.7497 l 66.9985,0 c 9.2793,0 16.7496,7.4704 16.7496,16.7497 l 0,33.4992 c 0,9.2793 -7.4703,16.7496 -16.7496,16.7496 l -66.9985,0 z m 0,-83.7481 c -9.2793,0 -16.7496,-7.4703 -16.7496,-16.7496 l 0,-33.4993 c 0,-9.2792 7.4703,-16.7496 16.7496,-16.7496 l 66.9985,0 c 9.2793,0 16.7496,7.4704 16.7496,16.7496 l 0,33.4993 c 0,9.2793 -7.4703,16.7496 -16.7496,16.7496 l -66.9985,0 z m 0,-83.7481 c -9.2793,0 -16.7496,-7.4703 -16.7496,-16.7496 l 0,-33.4993 c 0,-9.2792 7.4703,-16.7496 16.7496,-16.7496 l 66.9985,0 c 9.2793,0 16.7496,7.4704 16.7496,16.7496 l 0,33.4993 c 0,9.2793 -7.4703,16.7496 -16.7496,16.7496 l -66.9985,0 z m 0,-83.7481 c -9.2793,0 -16.7496,-7.4703 -16.7496,-16.7496 l 0,-33.4993 c 0,-9.2793 7.4703,-16.7496 16.7496,-16.7496 l 66.9985,0 c 9.2793,0 16.7496,7.4703 16.7496,16.7496 l 0,33.4993 c 0,9.2793 -7.4703,16.7496 -16.7496,16.7496 l -66.9985,0 z"
         inkscape:connector-curvature="0"
         id="path11127"
         style="fill:url(#linearGradient3816);fill-opacity:1;stroke:none;display:inline" />
      <path
         d="m 3276.1421,-377.78798 c -9.2793,0 -16.7496,-7.4704 -16.7496,-16.7497 l 0,-33.4992 c 0,-9.2793 7.4703,-16.7496 16.7496,-16.7496 l 66.9985,0 c 9.2793,0 16.7496,7.4703 16.7496,16.7496 l 0,33.4992 c 0,9.2793 -7.4703,16.7497 -16.7496,16.7497 l -66.9985,0 z m 0,-83.7481 c -9.2793,0 -16.7496,-7.4704 -16.7496,-16.7497 l 0,-33.4992 c 0,-9.2793 7.4703,-16.7496 16.7496,-16.7496 l 66.9985,0 c 9.2793,0 16.7496,7.4703 16.7496,16.7496 l 0,33.4992 c 0,9.2793 -7.4703,16.7497 -16.7496,16.7497 l -66.9985,0 z m 0,-83.7481 c -9.2793,0 -16.7496,-7.4704 -16.7496,-16.7497 l 0,-33.4992 c 0,-9.2793 7.4703,-16.7496 16.7496,-16.7496 l 66.9985,0 c 9.2793,0 16.7496,7.4703 16.7496,16.7496 l 0,33.4992 c 0,9.2793 -7.4703,16.7497 -16.7496,16.7497 l -66.9985,0 z m 0,-83.7482 c -9.2793,0 -16.7496,-7.4703 -16.7496,-16.7496 l 0,-33.4992 c 0,-9.2793 7.4703,-16.7496 16.7496,-16.7496 l 66.9985,0 c 9.2793,0 16.7496,7.4703 16.7496,16.7496 l 0,33.4992 c 0,9.2793 -7.4703,16.7496 -16.7496,16.7496 l -66.9985,0 z m 0,-83.7481 c -9.2793,0 -16.7496,-7.4703 -16.7496,-16.7496 l 0,-33.4992 c 0,-9.2793 7.4703,-16.7496 16.7496,-16.7496 l 66.9985,0 c 9.2793,0 16.7496,7.4703 16.7496,16.7496 l 0,33.4992 c 0,9.2793 -7.4703,16.7496 -16.7496,16.7496 l -66.9985,0 z m 0,-83.74806 c -9.2793,0 -16.7496,-7.47033 -16.7496,-16.74962 l 0,-33.49924 c 0,-9.27929 7.4703,-16.74963 16.7496,-16.74963 l 66.9985,0 c 9.2793,0 16.7496,7.47034 16.7496,16.74963 l 0,33.49924 c 0,9.27929 -7.4703,16.74962 -16.7496,16.74962 l -66.9985,0 z m 0,-83.74811 c -9.2793,0 -16.7496,-7.47033 -16.7496,-16.74962 l 0,-33.49924 c 0,-9.27929 7.4703,-16.74962 16.7496,-16.74962 l 66.9985,0 c 9.2793,0 16.7496,7.47033 16.7496,16.74962 l 0,33.49924 c 0,9.27929 -7.4703,16.74962 -16.7496,16.74962 l -66.9985,0 z m 0,-83.7481 c -9.2793,0 -16.7496,-7.47033 -16.7496,-16.74962 l 0,-33.49923 c 0,-9.2793 7.4703,-16.7496 16.7496,-16.7496 l 66.9985,0 c 9.2793,0 16.7496,7.4703 16.7496,16.7496 l 0,33.49923 c 0,9.27929 -7.4703,16.74962 -16.7496,16.74962 l -66.9985,0 z m 0,-83.74815 c -9.2793,0 -16.7496,-7.4703 -16.7496,-16.7496 l 0,-33.4992 c 0,-9.2793 7.4703,-16.7496 16.7496,-16.7496 l 66.9985,0 c 9.2793,0 16.7496,7.4703 16.7496,16.7496 l 0,33.4992 c 0,9.2793 -7.4703,16.7496 -16.7496,16.7496 l -66.9985,0 z m 0,-83.7481 c -9.2793,0 -16.7496,-7.4703 -16.7496,-16.7496 l 0,-33.4992 c 0,-9.2793 7.4703,-16.7497 16.7496,-16.7497 l 66.9985,0 c 9.2793,0 16.7496,7.4704 16.7496,16.7497 l 0,33.4992 c 0,9.2793 -7.4703,16.7496 -16.7496,16.7496 l -66.9985,0 z m 0,-83.7481 c -9.2793,0 -16.7496,-7.4703 -16.7496,-16.7496 l 0,-33.4992 c 0,-9.2793 7.4703,-16.7497 16.7496,-16.7497 l 66.9985,0 c 9.2793,0 16.7496,7.4704 16.7496,16.7497 l 0,33.4992 c 0,9.2793 -7.4703,16.7496 -16.7496,16.7496 l -66.9985,0 z m 0,-83.7481 c -9.2793,0 -16.7496,-7.4703 -16.7496,-16.7496 l 0,-33.4992 c 0,-9.2793 7.4703,-16.7497 16.7496,-16.7497 l 66.9985,0 c 9.2793,0 16.7496,7.4704 16.7496,16.7497 l 0,33.4992 c 0,9.2793 -7.4703,16.7496 -16.7496,16.7496 l -66.9985,0 z m 0,-83.7481 c -9.2793,0 -16.7496,-7.4703 -16.7496,-16.7496 l 0,-33.4992 c 0,-9.2793 7.4703,-16.7497 16.7496,-16.7497 l 66.9985,0 c 9.2793,0 16.7496,7.4704 16.7496,16.7497 l 0,33.4992 c 0,9.2793 -7.4703,16.7496 -16.7496,16.7496 l -66.9985,0 z m 0,-83.7481 c -9.2793,0 -16.7496,-7.4703 -16.7496,-16.7496 l 0,-33.4992 c 0,-9.2793 7.4703,-16.7497 16.7496,-16.7497 l 66.9985,0 c 9.2793,0 16.7496,7.4704 16.7496,16.7497 l 0,33.4992 c 0,9.2793 -7.4703,16.7496 -16.7496,16.7496 l -66.9985,0 z m 0,-83.7481 c -9.2793,0 -16.7496,-7.4703 -16.7496,-16.7496 l 0,-33.4993 c 0,-9.2792 7.4703,-16.7496 16.7496,-16.7496 l 66.9985,0 c 9.2793,0 16.7496,7.4704 16.7496,16.7496 l 0,33.4993 c 0,9.2793 -7.4703,16.7496 -16.7496,16.7496 l -66.9985,0 z m 0,-83.7481 c -9.2793,0 -16.7496,-7.4703 -16.7496,-16.7496 l 0,-33.4993 c 0,-9.2792 7.4703,-16.7496 16.7496,-16.7496 l 66.9985,0 c 9.2793,0 16.7496,7.4704 16.7496,16.7496 l 0,33.4993 c 0,9.2793 -7.4703,16.7496 -16.7496,16.7496 l -66.9985,0 z m 0,-83.7481 c -9.2793,0 -16.7496,-7.4703 -16.7496,-16.7496 l 0,-33.4993 c 0,-9.2793 7.4703,-16.7496 16.7496,-16.7496 l 66.9985,0 c 9.2793,0 16.7496,7.4703 16.7496,16.7496 l 0,33.4993 c 0,9.2793 -7.4703,16.7496 -16.7496,16.7496 l -66.9985,0 z"
         inkscape:connector-curvature="0"
         id="path11129"
         style="fill:url(#linearGradient3818);fill-opacity:1;stroke:none;display:inline" />
      <path
         d="m 3393.3895,-377.78798 c -9.2793,0 -16.7497,-7.4704 -16.7497,-16.7497 l 0,-33.4992 c 0,-9.2793 7.4704,-16.7496 16.7497,-16.7496 l 66.9985,0 c 9.2792,0 16.7496,7.4703 16.7496,16.7496 l 0,33.4992 c 0,9.2793 -7.4704,16.7497 -16.7496,16.7497 l -66.9985,0 z m 0,-83.7481 c -9.2793,0 -16.7497,-7.4704 -16.7497,-16.7497 l 0,-33.4992 c 0,-9.2793 7.4704,-16.7496 16.7497,-16.7496 l 66.9985,0 c 9.2792,0 16.7496,7.4703 16.7496,16.7496 l 0,33.4992 c 0,9.2793 -7.4704,16.7497 -16.7496,16.7497 l -66.9985,0 z m 0,-83.7481 c -9.2793,0 -16.7497,-7.4704 -16.7497,-16.7497 l 0,-33.4992 c 0,-9.2793 7.4704,-16.7496 16.7497,-16.7496 l 66.9985,0 c 9.2792,0 16.7496,7.4703 16.7496,16.7496 l 0,33.4992 c 0,9.2793 -7.4704,16.7497 -16.7496,16.7497 l -66.9985,0 z m 0,-83.7482 c -9.2793,0 -16.7497,-7.4703 -16.7497,-16.7496 l 0,-33.4992 c 0,-9.2793 7.4704,-16.7496 16.7497,-16.7496 l 66.9985,0 c 9.2792,0 16.7496,7.4703 16.7496,16.7496 l 0,33.4992 c 0,9.2793 -7.4704,16.7496 -16.7496,16.7496 l -66.9985,0 z m 0,-83.7481 c -9.2793,0 -16.7497,-7.4703 -16.7497,-16.7496 l 0,-33.4992 c 0,-9.2793 7.4704,-16.7496 16.7497,-16.7496 l 66.9985,0 c 9.2792,0 16.7496,7.4703 16.7496,16.7496 l 0,33.4992 c 0,9.2793 -7.4704,16.7496 -16.7496,16.7496 l -66.9985,0 z m 0,-83.74806 c -9.2793,0 -16.7497,-7.47033 -16.7497,-16.74962 l 0,-33.49924 c 0,-9.27929 7.4704,-16.74963 16.7497,-16.74963 l 66.9985,0 c 9.2792,0 16.7496,7.47034 16.7496,16.74963 l 0,33.49924 c 0,9.27929 -7.4704,16.74962 -16.7496,16.74962 l -66.9985,0 z m 0,-83.74811 c -9.2793,0 -16.7497,-7.47033 -16.7497,-16.74962 l 0,-33.49924 c 0,-9.27929 7.4704,-16.74962 16.7497,-16.74962 l 66.9985,0 c 9.2792,0 16.7496,7.47033 16.7496,16.74962 l 0,33.49924 c 0,9.27929 -7.4704,16.74962 -16.7496,16.74962 l -66.9985,0 z m 0,-83.7481 c -9.2793,0 -16.7497,-7.47033 -16.7497,-16.74962 l 0,-33.49923 c 0,-9.2793 7.4704,-16.7496 16.7497,-16.7496 l 66.9985,0 c 9.2792,0 16.7496,7.4703 16.7496,16.7496 l 0,33.49923 c 0,9.27929 -7.4704,16.74962 -16.7496,16.74962 l -66.9985,0 z m 0,-83.74815 c -9.2793,0 -16.7497,-7.4703 -16.7497,-16.7496 l 0,-33.4992 c 0,-9.2793 7.4704,-16.7496 16.7497,-16.7496 l 66.9985,0 c 9.2792,0 16.7496,7.4703 16.7496,16.7496 l 0,33.4992 c 0,9.2793 -7.4704,16.7496 -16.7496,16.7496 l -66.9985,0 z m 0,-83.7481 c -9.2793,0 -16.7497,-7.4703 -16.7497,-16.7496 l 0,-33.4992 c 0,-9.2793 7.4704,-16.7497 16.7497,-16.7497 l 66.9985,0 c 9.2792,0 16.7496,7.4704 16.7496,16.7497 l 0,33.4992 c 0,9.2793 -7.4704,16.7496 -16.7496,16.7496 l -66.9985,0 z m 0,-83.7481 c -9.2793,0 -16.7497,-7.4703 -16.7497,-16.7496 l 0,-33.4992 c 0,-9.2793 7.4704,-16.7497 16.7497,-16.7497 l 66.9985,0 c 9.2792,0 16.7496,7.4704 16.7496,16.7497 l 0,33.4992 c 0,9.2793 -7.4704,16.7496 -16.7496,16.7496 l -66.9985,0 z m 0,-83.7481 c -9.2793,0 -16.7497,-7.4703 -16.7497,-16.7496 l 0,-33.4992 c 0,-9.2793 7.4704,-16.7497 16.7497,-16.7497 l 66.9985,0 c 9.2792,0 16.7496,7.4704 16.7496,16.7497 l 0,33.4992 c 0,9.2793 -7.4704,16.7496 -16.7496,16.7496 l -66.9985,0 z m 0,-83.7481 c -9.2793,0 -16.7497,-7.4703 -16.7497,-16.7496 l 0,-33.4992 c 0,-9.2793 7.4704,-16.7497 16.7497,-16.7497 l 66.9985,0 c 9.2792,0 16.7496,7.4704 16.7496,16.7497 l 0,33.4992 c 0,9.2793 -7.4704,16.7496 -16.7496,16.7496 l -66.9985,0 z m 0,-83.7481 c -9.2793,0 -16.7497,-7.4703 -16.7497,-16.7496 l 0,-33.4992 c 0,-9.2793 7.4704,-16.7497 16.7497,-16.7497 l 66.9985,0 c 9.2792,0 16.7496,7.4704 16.7496,16.7497 l 0,33.4992 c 0,9.2793 -7.4704,16.7496 -16.7496,16.7496 l -66.9985,0 z m 0,-83.7481 c -9.2793,0 -16.7497,-7.4703 -16.7497,-16.7496 l 0,-33.4993 c 0,-9.2792 7.4704,-16.7496 16.7497,-16.7496 l 66.9985,0 c 9.2792,0 16.7496,7.4704 16.7496,16.7496 l 0,33.4993 c 0,9.2793 -7.4704,16.7496 -16.7496,16.7496 l -66.9985,0 z m 0,-83.7481 c -9.2793,0 -16.7497,-7.4703 -16.7497,-16.7496 l 0,-33.4993 c 0,-9.2792 7.4704,-16.7496 16.7497,-16.7496 l 66.9985,0 c 9.2792,0 16.7496,7.4704 16.7496,16.7496 l 0,33.4993 c 0,9.2793 -7.4704,16.7496 -16.7496,16.7496 l -66.9985,0 z m 0,-83.7481 c -9.2793,0 -16.7497,-7.4703 -16.7497,-16.7496 l 0,-33.4993 c 0,-9.2793 7.4704,-16.7496 16.7497,-16.7496 l 66.9985,0 c 9.2792,0 16.7496,7.4703 16.7496,16.7496 l 0,33.4993 c 0,9.2793 -7.4704,16.7496 -16.7496,16.7496 l -66.9985,0 z"
         inkscape:connector-curvature="0"
         id="path11131"
         style="fill:url(#linearGradient3820);fill-opacity:1;stroke:none;display:inline" />
      <path
         d="m 3510.6368,-377.78798 c -9.2793,0 -16.7496,-7.4704 -16.7496,-16.7497 l 0,-33.4992 c 0,-9.2793 7.4703,-16.7496 16.7496,-16.7496 l 66.9985,0 c 9.2793,0 16.7496,7.4703 16.7496,16.7496 l 0,33.4992 c 0,9.2793 -7.4703,16.7497 -16.7496,16.7497 l -66.9985,0 z m 0,-83.7481 c -9.2793,0 -16.7496,-7.4704 -16.7496,-16.7497 l 0,-33.4992 c 0,-9.2793 7.4703,-16.7496 16.7496,-16.7496 l 66.9985,0 c 9.2793,0 16.7496,7.4703 16.7496,16.7496 l 0,33.4992 c 0,9.2793 -7.4703,16.7497 -16.7496,16.7497 l -66.9985,0 z m 0,-83.7481 c -9.2793,0 -16.7496,-7.4704 -16.7496,-16.7497 l 0,-33.4992 c 0,-9.2793 7.4703,-16.7496 16.7496,-16.7496 l 66.9985,0 c 9.2793,0 16.7496,7.4703 16.7496,16.7496 l 0,33.4992 c 0,9.2793 -7.4703,16.7497 -16.7496,16.7497 l -66.9985,0 z m 0,-83.7482 c -9.2793,0 -16.7496,-7.4703 -16.7496,-16.7496 l 0,-33.4992 c 0,-9.2793 7.4703,-16.7496 16.7496,-16.7496 l 66.9985,0 c 9.2793,0 16.7496,7.4703 16.7496,16.7496 l 0,33.4992 c 0,9.2793 -7.4703,16.7496 -16.7496,16.7496 l -66.9985,0 z m 0,-83.7481 c -9.2793,0 -16.7496,-7.4703 -16.7496,-16.7496 l 0,-33.4992 c 0,-9.2793 7.4703,-16.7496 16.7496,-16.7496 l 66.9985,0 c 9.2793,0 16.7496,7.4703 16.7496,16.7496 l 0,33.4992 c 0,9.2793 -7.4703,16.7496 -16.7496,16.7496 l -66.9985,0 z m 0,-83.74806 c -9.2793,0 -16.7496,-7.47033 -16.7496,-16.74962 l 0,-33.49924 c 0,-9.27929 7.4703,-16.74963 16.7496,-16.74963 l 66.9985,0 c 9.2793,0 16.7496,7.47034 16.7496,16.74963 l 0,33.49924 c 0,9.27929 -7.4703,16.74962 -16.7496,16.74962 l -66.9985,0 z m 0,-83.74811 c -9.2793,0 -16.7496,-7.47033 -16.7496,-16.74962 l 0,-33.49924 c 0,-9.27929 7.4703,-16.74962 16.7496,-16.74962 l 66.9985,0 c 9.2793,0 16.7496,7.47033 16.7496,16.74962 l 0,33.49924 c 0,9.27929 -7.4703,16.74962 -16.7496,16.74962 l -66.9985,0 z m 0,-83.7481 c -9.2793,0 -16.7496,-7.47033 -16.7496,-16.74962 l 0,-33.49923 c 0,-9.2793 7.4703,-16.7496 16.7496,-16.7496 l 66.9985,0 c 9.2793,0 16.7496,7.4703 16.7496,16.7496 l 0,33.49923 c 0,9.27929 -7.4703,16.74962 -16.7496,16.74962 l -66.9985,0 z m 0,-83.74815 c -9.2793,0 -16.7496,-7.4703 -16.7496,-16.7496 l 0,-33.4992 c 0,-9.2793 7.4703,-16.7496 16.7496,-16.7496 l 66.9985,0 c 9.2793,0 16.7496,7.4703 16.7496,16.7496 l 0,33.4992 c 0,9.2793 -7.4703,16.7496 -16.7496,16.7496 l -66.9985,0 z m 0,-83.7481 c -9.2793,0 -16.7496,-7.4703 -16.7496,-16.7496 l 0,-33.4992 c 0,-9.2793 7.4703,-16.7497 16.7496,-16.7497 l 66.9985,0 c 9.2793,0 16.7496,7.4704 16.7496,16.7497 l 0,33.4992 c 0,9.2793 -7.4703,16.7496 -16.7496,16.7496 l -66.9985,0 z m 0,-83.7481 c -9.2793,0 -16.7496,-7.4703 -16.7496,-16.7496 l 0,-33.4992 c 0,-9.2793 7.4703,-16.7497 16.7496,-16.7497 l 66.9985,0 c 9.2793,0 16.7496,7.4704 16.7496,16.7497 l 0,33.4992 c 0,9.2793 -7.4703,16.7496 -16.7496,16.7496 l -66.9985,0 z m 0,-83.7481 c -9.2793,0 -16.7496,-7.4703 -16.7496,-16.7496 l 0,-33.4992 c 0,-9.2793 7.4703,-16.7497 16.7496,-16.7497 l 66.9985,0 c 9.2793,0 16.7496,7.4704 16.7496,16.7497 l 0,33.4992 c 0,9.2793 -7.4703,16.7496 -16.7496,16.7496 l -66.9985,0 z m 0,-83.7481 c -9.2793,0 -16.7496,-7.4703 -16.7496,-16.7496 l 0,-33.4992 c 0,-9.2793 7.4703,-16.7497 16.7496,-16.7497 l 66.9985,0 c 9.2793,0 16.7496,7.4704 16.7496,16.7497 l 0,33.4992 c 0,9.2793 -7.4703,16.7496 -16.7496,16.7496 l -66.9985,0 z m 0,-83.7481 c -9.2793,0 -16.7496,-7.4703 -16.7496,-16.7496 l 0,-33.4992 c 0,-9.2793 7.4703,-16.7497 16.7496,-16.7497 l 66.9985,0 c 9.2793,0 16.7496,7.4704 16.7496,16.7497 l 0,33.4992 c 0,9.2793 -7.4703,16.7496 -16.7496,16.7496 l -66.9985,0 z m 0,-83.7481 c -9.2793,0 -16.7496,-7.4703 -16.7496,-16.7496 l 0,-33.4993 c 0,-9.2792 7.4703,-16.7496 16.7496,-16.7496 l 66.9985,0 c 9.2793,0 16.7496,7.4704 16.7496,16.7496 l 0,33.4993 c 0,9.2793 -7.4703,16.7496 -16.7496,16.7496 l -66.9985,0 z m 0,-83.7481 c -9.2793,0 -16.7496,-7.4703 -16.7496,-16.7496 l 0,-33.4993 c 0,-9.2792 7.4703,-16.7496 16.7496,-16.7496 l 66.9985,0 c 9.2793,0 16.7496,7.4704 16.7496,16.7496 l 0,33.4993 c 0,9.2793 -7.4703,16.7496 -16.7496,16.7496 l -66.9985,0 z m 0,-83.7481 c -9.2793,0 -16.7496,-7.4703 -16.7496,-16.7496 l 0,-33.4993 c 0,-9.2793 7.4703,-16.7496 16.7496,-16.7496 l 66.9985,0 c 9.2793,0 16.7496,7.4703 16.7496,16.7496 l 0,33.4993 c 0,9.2793 -7.4703,16.7496 -16.7496,16.7496 l -66.9985,0 z"
         inkscape:connector-curvature="0"
         id="path11133"
         style="fill:url(#linearGradient3822);fill-opacity:1;stroke:none;display:inline" />
      <path
         d="m 3627.8842,-377.78798 c -9.2793,0 -16.7497,-7.4704 -16.7497,-16.7497 l 0,-33.4992 c 0,-9.2793 7.4704,-16.7496 16.7497,-16.7496 l 66.9984,0 c 9.2793,0 16.7497,7.4703 16.7497,16.7496 l 0,33.4992 c 0,9.2793 -7.4704,16.7497 -16.7497,16.7497 l -66.9984,0 z m 0,-83.7481 c -9.2793,0 -16.7497,-7.4704 -16.7497,-16.7497 l 0,-33.4992 c 0,-9.2793 7.4704,-16.7496 16.7497,-16.7496 l 66.9984,0 c 9.2793,0 16.7497,7.4703 16.7497,16.7496 l 0,33.4992 c 0,9.2793 -7.4704,16.7497 -16.7497,16.7497 l -66.9984,0 z m 0,-83.7481 c -9.2793,0 -16.7497,-7.4704 -16.7497,-16.7497 l 0,-33.4992 c 0,-9.2793 7.4704,-16.7496 16.7497,-16.7496 l 66.9984,0 c 9.2793,0 16.7497,7.4703 16.7497,16.7496 l 0,33.4992 c 0,9.2793 -7.4704,16.7497 -16.7497,16.7497 l -66.9984,0 z m 0,-83.7482 c -9.2793,0 -16.7497,-7.4703 -16.7497,-16.7496 l 0,-33.4992 c 0,-9.2793 7.4704,-16.7496 16.7497,-16.7496 l 66.9984,0 c 9.2793,0 16.7497,7.4703 16.7497,16.7496 l 0,33.4992 c 0,9.2793 -7.4704,16.7496 -16.7497,16.7496 l -66.9984,0 z m 0,-83.7481 c -9.2793,0 -16.7497,-7.4703 -16.7497,-16.7496 l 0,-33.4992 c 0,-9.2793 7.4704,-16.7496 16.7497,-16.7496 l 66.9984,0 c 9.2793,0 16.7497,7.4703 16.7497,16.7496 l 0,33.4992 c 0,9.2793 -7.4704,16.7496 -16.7497,16.7496 l -66.9984,0 z m 0,-83.74806 c -9.2793,0 -16.7497,-7.47033 -16.7497,-16.74962 l 0,-33.49924 c 0,-9.27929 7.4704,-16.74963 16.7497,-16.74963 l 66.9984,0 c 9.2793,0 16.7497,7.47034 16.7497,16.74963 l 0,33.49924 c 0,9.27929 -7.4704,16.74962 -16.7497,16.74962 l -66.9984,0 z m 0,-83.74811 c -9.2793,0 -16.7497,-7.47033 -16.7497,-16.74962 l 0,-33.49924 c 0,-9.27929 7.4704,-16.74962 16.7497,-16.74962 l 66.9984,0 c 9.2793,0 16.7497,7.47033 16.7497,16.74962 l 0,33.49924 c 0,9.27929 -7.4704,16.74962 -16.7497,16.74962 l -66.9984,0 z m 0,-83.7481 c -9.2793,0 -16.7497,-7.47033 -16.7497,-16.74962 l 0,-33.49923 c 0,-9.2793 7.4704,-16.7496 16.7497,-16.7496 l 66.9984,0 c 9.2793,0 16.7497,7.4703 16.7497,16.7496 l 0,33.49923 c 0,9.27929 -7.4704,16.74962 -16.7497,16.74962 l -66.9984,0 z m 0,-83.74815 c -9.2793,0 -16.7497,-7.4703 -16.7497,-16.7496 l 0,-33.4992 c 0,-9.2793 7.4704,-16.7496 16.7497,-16.7496 l 66.9984,0 c 9.2793,0 16.7497,7.4703 16.7497,16.7496 l 0,33.4992 c 0,9.2793 -7.4704,16.7496 -16.7497,16.7496 l -66.9984,0 z m 0,-83.7481 c -9.2793,0 -16.7497,-7.4703 -16.7497,-16.7496 l 0,-33.4992 c 0,-9.2793 7.4704,-16.7497 16.7497,-16.7497 l 66.9984,0 c 9.2793,0 16.7497,7.4704 16.7497,16.7497 l 0,33.4992 c 0,9.2793 -7.4704,16.7496 -16.7497,16.7496 l -66.9984,0 z m 0,-83.7481 c -9.2793,0 -16.7497,-7.4703 -16.7497,-16.7496 l 0,-33.4992 c 0,-9.2793 7.4704,-16.7497 16.7497,-16.7497 l 66.9984,0 c 9.2793,0 16.7497,7.4704 16.7497,16.7497 l 0,33.4992 c 0,9.2793 -7.4704,16.7496 -16.7497,16.7496 l -66.9984,0 z m 0,-83.7481 c -9.2793,0 -16.7497,-7.4703 -16.7497,-16.7496 l 0,-33.4992 c 0,-9.2793 7.4704,-16.7497 16.7497,-16.7497 l 66.9984,0 c 9.2793,0 16.7497,7.4704 16.7497,16.7497 l 0,33.4992 c 0,9.2793 -7.4704,16.7496 -16.7497,16.7496 l -66.9984,0 z m 0,-83.7481 c -9.2793,0 -16.7497,-7.4703 -16.7497,-16.7496 l 0,-33.4992 c 0,-9.2793 7.4704,-16.7497 16.7497,-16.7497 l 66.9984,0 c 9.2793,0 16.7497,7.4704 16.7497,16.7497 l 0,33.4992 c 0,9.2793 -7.4704,16.7496 -16.7497,16.7496 l -66.9984,0 z m 0,-83.7481 c -9.2793,0 -16.7497,-7.4703 -16.7497,-16.7496 l 0,-33.4992 c 0,-9.2793 7.4704,-16.7497 16.7497,-16.7497 l 66.9984,0 c 9.2793,0 16.7497,7.4704 16.7497,16.7497 l 0,33.4992 c 0,9.2793 -7.4704,16.7496 -16.7497,16.7496 l -66.9984,0 z m 0,-83.7481 c -9.2793,0 -16.7497,-7.4703 -16.7497,-16.7496 l 0,-33.4993 c 0,-9.2792 7.4704,-16.7496 16.7497,-16.7496 l 66.9984,0 c 9.2793,0 16.7497,7.4704 16.7497,16.7496 l 0,33.4993 c 0,9.2793 -7.4704,16.7496 -16.7497,16.7496 l -66.9984,0 z m 0,-83.7481 c -9.2793,0 -16.7497,-7.4703 -16.7497,-16.7496 l 0,-33.4993 c 0,-9.2792 7.4704,-16.7496 16.7497,-16.7496 l 66.9984,0 c 9.2793,0 16.7497,7.4704 16.7497,16.7496 l 0,33.4993 c 0,9.2793 -7.4704,16.7496 -16.7497,16.7496 l -66.9984,0 z m 0,-83.7481 c -9.2793,0 -16.7497,-7.4703 -16.7497,-16.7496 l 0,-33.4993 c 0,-9.2793 7.4704,-16.7496 16.7497,-16.7496 l 66.9984,0 c 9.2793,0 16.7497,7.4703 16.7497,16.7496 l 0,33.4993 c 0,9.2793 -7.4704,16.7496 -16.7497,16.7496 l -66.9984,0 z"
         inkscape:connector-curvature="0"
         id="path11135"
         style="fill:url(#linearGradient3824);fill-opacity:1;stroke:none;display:inline" />
      <path
         d="m 3745.1315,-377.78798 c -9.2793,0 -16.7496,-7.4704 -16.7496,-16.7497 l 0,-33.4992 c 0,-9.2793 7.4703,-16.7496 16.7496,-16.7496 l 66.9985,0 c 9.2793,0 16.7496,7.4703 16.7496,16.7496 l 0,33.4992 c 0,9.2793 -7.4703,16.7497 -16.7496,16.7497 l -66.9985,0 z m 0,-83.7481 c -9.2793,0 -16.7496,-7.4704 -16.7496,-16.7497 l 0,-33.4992 c 0,-9.2793 7.4703,-16.7496 16.7496,-16.7496 l 66.9985,0 c 9.2793,0 16.7496,7.4703 16.7496,16.7496 l 0,33.4992 c 0,9.2793 -7.4703,16.7497 -16.7496,16.7497 l -66.9985,0 z m 0,-83.7481 c -9.2793,0 -16.7496,-7.4704 -16.7496,-16.7497 l 0,-33.4992 c 0,-9.2793 7.4703,-16.7496 16.7496,-16.7496 l 66.9985,0 c 9.2793,0 16.7496,7.4703 16.7496,16.7496 l 0,33.4992 c 0,9.2793 -7.4703,16.7497 -16.7496,16.7497 l -66.9985,0 z m 0,-83.7482 c -9.2793,0 -16.7496,-7.4703 -16.7496,-16.7496 l 0,-33.4992 c 0,-9.2793 7.4703,-16.7496 16.7496,-16.7496 l 66.9985,0 c 9.2793,0 16.7496,7.4703 16.7496,16.7496 l 0,33.4992 c 0,9.2793 -7.4703,16.7496 -16.7496,16.7496 l -66.9985,0 z m 0,-83.7481 c -9.2793,0 -16.7496,-7.4703 -16.7496,-16.7496 l 0,-33.4992 c 0,-9.2793 7.4703,-16.7496 16.7496,-16.7496 l 66.9985,0 c 9.2793,0 16.7496,7.4703 16.7496,16.7496 l 0,33.4992 c 0,9.2793 -7.4703,16.7496 -16.7496,16.7496 l -66.9985,0 z m 0,-83.74806 c -9.2793,0 -16.7496,-7.47033 -16.7496,-16.74962 l 0,-33.49924 c 0,-9.27929 7.4703,-16.74963 16.7496,-16.74963 l 66.9985,0 c 9.2793,0 16.7496,7.47034 16.7496,16.74963 l 0,33.49924 c 0,9.27929 -7.4703,16.74962 -16.7496,16.74962 l -66.9985,0 z m 0,-83.74811 c -9.2793,0 -16.7496,-7.47033 -16.7496,-16.74962 l 0,-33.49924 c 0,-9.27929 7.4703,-16.74962 16.7496,-16.74962 l 66.9985,0 c 9.2793,0 16.7496,7.47033 16.7496,16.74962 l 0,33.49924 c 0,9.27929 -7.4703,16.74962 -16.7496,16.74962 l -66.9985,0 z m 0,-83.7481 c -9.2793,0 -16.7496,-7.47033 -16.7496,-16.74962 l 0,-33.49923 c 0,-9.2793 7.4703,-16.7496 16.7496,-16.7496 l 66.9985,0 c 9.2793,0 16.7496,7.4703 16.7496,16.7496 l 0,33.49923 c 0,9.27929 -7.4703,16.74962 -16.7496,16.74962 l -66.9985,0 z m 0,-83.74815 c -9.2793,0 -16.7496,-7.4703 -16.7496,-16.7496 l 0,-33.4992 c 0,-9.2793 7.4703,-16.7496 16.7496,-16.7496 l 66.9985,0 c 9.2793,0 16.7496,7.4703 16.7496,16.7496 l 0,33.4992 c 0,9.2793 -7.4703,16.7496 -16.7496,16.7496 l -66.9985,0 z m 0,-83.7481 c -9.2793,0 -16.7496,-7.4703 -16.7496,-16.7496 l 0,-33.4992 c 0,-9.2793 7.4703,-16.7497 16.7496,-16.7497 l 66.9985,0 c 9.2793,0 16.7496,7.4704 16.7496,16.7497 l 0,33.4992 c 0,9.2793 -7.4703,16.7496 -16.7496,16.7496 l -66.9985,0 z m 0,-83.7481 c -9.2793,0 -16.7496,-7.4703 -16.7496,-16.7496 l 0,-33.4992 c 0,-9.2793 7.4703,-16.7497 16.7496,-16.7497 l 66.9985,0 c 9.2793,0 16.7496,7.4704 16.7496,16.7497 l 0,33.4992 c 0,9.2793 -7.4703,16.7496 -16.7496,16.7496 l -66.9985,0 z m 0,-83.7481 c -9.2793,0 -16.7496,-7.4703 -16.7496,-16.7496 l 0,-33.4992 c 0,-9.2793 7.4703,-16.7497 16.7496,-16.7497 l 66.9985,0 c 9.2793,0 16.7496,7.4704 16.7496,16.7497 l 0,33.4992 c 0,9.2793 -7.4703,16.7496 -16.7496,16.7496 l -66.9985,0 z m 0,-83.7481 c -9.2793,0 -16.7496,-7.4703 -16.7496,-16.7496 l 0,-33.4992 c 0,-9.2793 7.4703,-16.7497 16.7496,-16.7497 l 66.9985,0 c 9.2793,0 16.7496,7.4704 16.7496,16.7497 l 0,33.4992 c 0,9.2793 -7.4703,16.7496 -16.7496,16.7496 l -66.9985,0 z m 0,-83.7481 c -9.2793,0 -16.7496,-7.4703 -16.7496,-16.7496 l 0,-33.4992 c 0,-9.2793 7.4703,-16.7497 16.7496,-16.7497 l 66.9985,0 c 9.2793,0 16.7496,7.4704 16.7496,16.7497 l 0,33.4992 c 0,9.2793 -7.4703,16.7496 -16.7496,16.7496 l -66.9985,0 z m 0,-83.7481 c -9.2793,0 -16.7496,-7.4703 -16.7496,-16.7496 l 0,-33.4993 c 0,-9.2792 7.4703,-16.7496 16.7496,-16.7496 l 66.9985,0 c 9.2793,0 16.7496,7.4704 16.7496,16.7496 l 0,33.4993 c 0,9.2793 -7.4703,16.7496 -16.7496,16.7496 l -66.9985,0 z m 0,-83.7481 c -9.2793,0 -16.7496,-7.4703 -16.7496,-16.7496 l 0,-33.4993 c 0,-9.2792 7.4703,-16.7496 16.7496,-16.7496 l 66.9985,0 c 9.2793,0 16.7496,7.4704 16.7496,16.7496 l 0,33.4993 c 0,9.2793 -7.4703,16.7496 -16.7496,16.7496 l -66.9985,0 z m 0,-83.7481 c -9.2793,0 -16.7496,-7.4703 -16.7496,-16.7496 l 0,-33.4993 c 0,-9.2793 7.4703,-16.7496 16.7496,-16.7496 l 66.9985,0 c 9.2793,0 16.7496,7.4703 16.7496,16.7496 l 0,33.4993 c 0,9.2793 -7.4703,16.7496 -16.7496,16.7496 l -66.9985,0 z"
         inkscape:connector-curvature="0"
         id="path11137"
         style="fill:url(#linearGradient3826);fill-opacity:1;stroke:none;display:inline" />
      <path
         d="m 3862.3788,-377.78798 c -9.2792,0 -16.7496,-7.4704 -16.7496,-16.7497 l 0,-33.4992 c 0,-9.2793 7.4704,-16.7496 16.7496,-16.7496 l 66.9985,0 c 9.2793,0 16.7496,7.4703 16.7496,16.7496 l 0,33.4992 c 0,9.2793 -7.4703,16.7497 -16.7496,16.7497 l -66.9985,0 z m 0,-83.7481 c -9.2792,0 -16.7496,-7.4704 -16.7496,-16.7497 l 0,-33.4992 c 0,-9.2793 7.4704,-16.7496 16.7496,-16.7496 l 66.9985,0 c 9.2793,0 16.7496,7.4703 16.7496,16.7496 l 0,33.4992 c 0,9.2793 -7.4703,16.7497 -16.7496,16.7497 l -66.9985,0 z m 0,-83.7481 c -9.2792,0 -16.7496,-7.4704 -16.7496,-16.7497 l 0,-33.4992 c 0,-9.2793 7.4704,-16.7496 16.7496,-16.7496 l 66.9985,0 c 9.2793,0 16.7496,7.4703 16.7496,16.7496 l 0,33.4992 c 0,9.2793 -7.4703,16.7497 -16.7496,16.7497 l -66.9985,0 z m 0,-83.7482 c -9.2792,0 -16.7496,-7.4703 -16.7496,-16.7496 l 0,-33.4992 c 0,-9.2793 7.4704,-16.7496 16.7496,-16.7496 l 66.9985,0 c 9.2793,0 16.7496,7.4703 16.7496,16.7496 l 0,33.4992 c 0,9.2793 -7.4703,16.7496 -16.7496,16.7496 l -66.9985,0 z m 0,-83.7481 c -9.2792,0 -16.7496,-7.4703 -16.7496,-16.7496 l 0,-33.4992 c 0,-9.2793 7.4704,-16.7496 16.7496,-16.7496 l 66.9985,0 c 9.2793,0 16.7496,7.4703 16.7496,16.7496 l 0,33.4992 c 0,9.2793 -7.4703,16.7496 -16.7496,16.7496 l -66.9985,0 z m 0,-83.74806 c -9.2792,0 -16.7496,-7.47033 -16.7496,-16.74962 l 0,-33.49924 c 0,-9.27929 7.4704,-16.74963 16.7496,-16.74963 l 66.9985,0 c 9.2793,0 16.7496,7.47034 16.7496,16.74963 l 0,33.49924 c 0,9.27929 -7.4703,16.74962 -16.7496,16.74962 l -66.9985,0 z m 0,-83.74811 c -9.2792,0 -16.7496,-7.47033 -16.7496,-16.74962 l 0,-33.49924 c 0,-9.27929 7.4704,-16.74962 16.7496,-16.74962 l 66.9985,0 c 9.2793,0 16.7496,7.47033 16.7496,16.74962 l 0,33.49924 c 0,9.27929 -7.4703,16.74962 -16.7496,16.74962 l -66.9985,0 z m 0,-83.7481 c -9.2792,0 -16.7496,-7.47033 -16.7496,-16.74962 l 0,-33.49923 c 0,-9.2793 7.4704,-16.7496 16.7496,-16.7496 l 66.9985,0 c 9.2793,0 16.7496,7.4703 16.7496,16.7496 l 0,33.49923 c 0,9.27929 -7.4703,16.74962 -16.7496,16.74962 l -66.9985,0 z m 0,-83.74815 c -9.2792,0 -16.7496,-7.4703 -16.7496,-16.7496 l 0,-33.4992 c 0,-9.2793 7.4704,-16.7496 16.7496,-16.7496 l 66.9985,0 c 9.2793,0 16.7496,7.4703 16.7496,16.7496 l 0,33.4992 c 0,9.2793 -7.4703,16.7496 -16.7496,16.7496 l -66.9985,0 z m 0,-83.7481 c -9.2792,0 -16.7496,-7.4703 -16.7496,-16.7496 l 0,-33.4992 c 0,-9.2793 7.4704,-16.7497 16.7496,-16.7497 l 66.9985,0 c 9.2793,0 16.7496,7.4704 16.7496,16.7497 l 0,33.4992 c 0,9.2793 -7.4703,16.7496 -16.7496,16.7496 l -66.9985,0 z m 0,-83.7481 c -9.2792,0 -16.7496,-7.4703 -16.7496,-16.7496 l 0,-33.4992 c 0,-9.2793 7.4704,-16.7497 16.7496,-16.7497 l 66.9985,0 c 9.2793,0 16.7496,7.4704 16.7496,16.7497 l 0,33.4992 c 0,9.2793 -7.4703,16.7496 -16.7496,16.7496 l -66.9985,0 z m 0,-83.7481 c -9.2792,0 -16.7496,-7.4703 -16.7496,-16.7496 l 0,-33.4992 c 0,-9.2793 7.4704,-16.7497 16.7496,-16.7497 l 66.9985,0 c 9.2793,0 16.7496,7.4704 16.7496,16.7497 l 0,33.4992 c 0,9.2793 -7.4703,16.7496 -16.7496,16.7496 l -66.9985,0 z m 0,-83.7481 c -9.2792,0 -16.7496,-7.4703 -16.7496,-16.7496 l 0,-33.4992 c 0,-9.2793 7.4704,-16.7497 16.7496,-16.7497 l 66.9985,0 c 9.2793,0 16.7496,7.4704 16.7496,16.7497 l 0,33.4992 c 0,9.2793 -7.4703,16.7496 -16.7496,16.7496 l -66.9985,0 z m 0,-83.7481 c -9.2792,0 -16.7496,-7.4703 -16.7496,-16.7496 l 0,-33.4992 c 0,-9.2793 7.4704,-16.7497 16.7496,-16.7497 l 66.9985,0 c 9.2793,0 16.7496,7.4704 16.7496,16.7497 l 0,33.4992 c 0,9.2793 -7.4703,16.7496 -16.7496,16.7496 l -66.9985,0 z m 0,-83.7481 c -9.2792,0 -16.7496,-7.4703 -16.7496,-16.7496 l 0,-33.4993 c 0,-9.2792 7.4704,-16.7496 16.7496,-16.7496 l 66.9985,0 c 9.2793,0 16.7496,7.4704 16.7496,16.7496 l 0,33.4993 c 0,9.2793 -7.4703,16.7496 -16.7496,16.7496 l -66.9985,0 z m 0,-83.7481 c -9.2792,0 -16.7496,-7.4703 -16.7496,-16.7496 l 0,-33.4993 c 0,-9.2792 7.4704,-16.7496 16.7496,-16.7496 l 66.9985,0 c 9.2793,0 16.7496,7.4704 16.7496,16.7496 l 0,33.4993 c 0,9.2793 -7.4703,16.7496 -16.7496,16.7496 l -66.9985,0 z m 0,-83.7481 c -9.2792,0 -16.7496,-7.4703 -16.7496,-16.7496 l 0,-33.4993 c 0,-9.2793 7.4704,-16.7496 16.7496,-16.7496 l 66.9985,0 c 9.2793,0 16.7496,7.4703 16.7496,16.7496 l 0,33.4993 c 0,9.2793 -7.4703,16.7496 -16.7496,16.7496 l -66.9985,0 z"
         inkscape:connector-curvature="0"
         id="path11139"
         style="fill:url(#linearGradient3828);fill-opacity:1;stroke:none;display:inline" />
      <path
         d="m 3979.6262,-377.78798 c -9.2793,0 -16.7496,-7.4704 -16.7496,-16.7497 l 0,-33.4992 c 0,-9.2793 7.4703,-16.7496 16.7496,-16.7496 l 66.9985,0 c 9.2793,0 16.7496,7.4703 16.7496,16.7496 l 0,33.4992 c 0,9.2793 -7.4703,16.7497 -16.7496,16.7497 l -66.9985,0 z m 0,-83.7481 c -9.2793,0 -16.7496,-7.4704 -16.7496,-16.7497 l 0,-33.4992 c 0,-9.2793 7.4703,-16.7496 16.7496,-16.7496 l 66.9985,0 c 9.2793,0 16.7496,7.4703 16.7496,16.7496 l 0,33.4992 c 0,9.2793 -7.4703,16.7497 -16.7496,16.7497 l -66.9985,0 z m 0,-83.7481 c -9.2793,0 -16.7496,-7.4704 -16.7496,-16.7497 l 0,-33.4992 c 0,-9.2793 7.4703,-16.7496 16.7496,-16.7496 l 66.9985,0 c 9.2793,0 16.7496,7.4703 16.7496,16.7496 l 0,33.4992 c 0,9.2793 -7.4703,16.7497 -16.7496,16.7497 l -66.9985,0 z m 0,-83.7482 c -9.2793,0 -16.7496,-7.4703 -16.7496,-16.7496 l 0,-33.4992 c 0,-9.2793 7.4703,-16.7496 16.7496,-16.7496 l 66.9985,0 c 9.2793,0 16.7496,7.4703 16.7496,16.7496 l 0,33.4992 c 0,9.2793 -7.4703,16.7496 -16.7496,16.7496 l -66.9985,0 z m 0,-83.7481 c -9.2793,0 -16.7496,-7.4703 -16.7496,-16.7496 l 0,-33.4992 c 0,-9.2793 7.4703,-16.7496 16.7496,-16.7496 l 66.9985,0 c 9.2793,0 16.7496,7.4703 16.7496,16.7496 l 0,33.4992 c 0,9.2793 -7.4703,16.7496 -16.7496,16.7496 l -66.9985,0 z m 0,-83.74806 c -9.2793,0 -16.7496,-7.47033 -16.7496,-16.74962 l 0,-33.49924 c 0,-9.27929 7.4703,-16.74963 16.7496,-16.74963 l 66.9985,0 c 9.2793,0 16.7496,7.47034 16.7496,16.74963 l 0,33.49924 c 0,9.27929 -7.4703,16.74962 -16.7496,16.74962 l -66.9985,0 z m 0,-83.74811 c -9.2793,0 -16.7496,-7.47033 -16.7496,-16.74962 l 0,-33.49924 c 0,-9.27929 7.4703,-16.74962 16.7496,-16.74962 l 66.9985,0 c 9.2793,0 16.7496,7.47033 16.7496,16.74962 l 0,33.49924 c 0,9.27929 -7.4703,16.74962 -16.7496,16.74962 l -66.9985,0 z m 0,-83.7481 c -9.2793,0 -16.7496,-7.47033 -16.7496,-16.74962 l 0,-33.49923 c 0,-9.2793 7.4703,-16.7496 16.7496,-16.7496 l 66.9985,0 c 9.2793,0 16.7496,7.4703 16.7496,16.7496 l 0,33.49923 c 0,9.27929 -7.4703,16.74962 -16.7496,16.74962 l -66.9985,0 z m 0,-83.74815 c -9.2793,0 -16.7496,-7.4703 -16.7496,-16.7496 l 0,-33.4992 c 0,-9.2793 7.4703,-16.7496 16.7496,-16.7496 l 66.9985,0 c 9.2793,0 16.7496,7.4703 16.7496,16.7496 l 0,33.4992 c 0,9.2793 -7.4703,16.7496 -16.7496,16.7496 l -66.9985,0 z m 0,-83.7481 c -9.2793,0 -16.7496,-7.4703 -16.7496,-16.7496 l 0,-33.4992 c 0,-9.2793 7.4703,-16.7497 16.7496,-16.7497 l 66.9985,0 c 9.2793,0 16.7496,7.4704 16.7496,16.7497 l 0,33.4992 c 0,9.2793 -7.4703,16.7496 -16.7496,16.7496 l -66.9985,0 z m 0,-83.7481 c -9.2793,0 -16.7496,-7.4703 -16.7496,-16.7496 l 0,-33.4992 c 0,-9.2793 7.4703,-16.7497 16.7496,-16.7497 l 66.9985,0 c 9.2793,0 16.7496,7.4704 16.7496,16.7497 l 0,33.4992 c 0,9.2793 -7.4703,16.7496 -16.7496,16.7496 l -66.9985,0 z m 0,-83.7481 c -9.2793,0 -16.7496,-7.4703 -16.7496,-16.7496 l 0,-33.4992 c 0,-9.2793 7.4703,-16.7497 16.7496,-16.7497 l 66.9985,0 c 9.2793,0 16.7496,7.4704 16.7496,16.7497 l 0,33.4992 c 0,9.2793 -7.4703,16.7496 -16.7496,16.7496 l -66.9985,0 z m 0,-83.7481 c -9.2793,0 -16.7496,-7.4703 -16.7496,-16.7496 l 0,-33.4992 c 0,-9.2793 7.4703,-16.7497 16.7496,-16.7497 l 66.9985,0 c 9.2793,0 16.7496,7.4704 16.7496,16.7497 l 0,33.4992 c 0,9.2793 -7.4703,16.7496 -16.7496,16.7496 l -66.9985,0 z m 0,-83.7481 c -9.2793,0 -16.7496,-7.4703 -16.7496,-16.7496 l 0,-33.4992 c 0,-9.2793 7.4703,-16.7497 16.7496,-16.7497 l 66.9985,0 c 9.2793,0 16.7496,7.4704 16.7496,16.7497 l 0,33.4992 c 0,9.2793 -7.4703,16.7496 -16.7496,16.7496 l -66.9985,0 z m 0,-83.7481 c -9.2793,0 -16.7496,-7.4703 -16.7496,-16.7496 l 0,-33.4993 c 0,-9.2792 7.4703,-16.7496 16.7496,-16.7496 l 66.9985,0 c 9.2793,0 16.7496,7.4704 16.7496,16.7496 l 0,33.4993 c 0,9.2793 -7.4703,16.7496 -16.7496,16.7496 l -66.9985,0 z m 0,-83.7481 c -9.2793,0 -16.7496,-7.4703 -16.7496,-16.7496 l 0,-33.4993 c 0,-9.2792 7.4703,-16.7496 16.7496,-16.7496 l 66.9985,0 c 9.2793,0 16.7496,7.4704 16.7496,16.7496 l 0,33.4993 c 0,9.2793 -7.4703,16.7496 -16.7496,16.7496 l -66.9985,0 z m 0,-83.7481 c -9.2793,0 -16.7496,-7.4703 -16.7496,-16.7496 l 0,-33.4993 c 0,-9.2793 7.4703,-16.7496 16.7496,-16.7496 l 66.9985,0 c 9.2793,0 16.7496,7.4703 16.7496,16.7496 l 0,33.4993 c 0,9.2793 -7.4703,16.7496 -16.7496,16.7496 l -66.9985,0 z"
         inkscape:connector-curvature="0"
         id="path11141"
         style="fill:url(#linearGradient3830);fill-opacity:1;stroke:none;display:inline" />
      <path
         d="m 4096.8735,-377.78798 c -9.2793,0 -16.7496,-7.4704 -16.7496,-16.7497 l 0,-33.4992 c 0,-9.2793 7.4703,-16.7496 16.7496,-16.7496 l 66.9985,0 c 9.2793,0 16.7496,7.4703 16.7496,16.7496 l 0,33.4992 c 0,9.2793 -7.4703,16.7497 -16.7496,16.7497 l -66.9985,0 z m 0,-83.7481 c -9.2793,0 -16.7496,-7.4704 -16.7496,-16.7497 l 0,-33.4992 c 0,-9.2793 7.4703,-16.7496 16.7496,-16.7496 l 66.9985,0 c 9.2793,0 16.7496,7.4703 16.7496,16.7496 l 0,33.4992 c 0,9.2793 -7.4703,16.7497 -16.7496,16.7497 l -66.9985,0 z m 0,-83.7481 c -9.2793,0 -16.7496,-7.4704 -16.7496,-16.7497 l 0,-33.4992 c 0,-9.2793 7.4703,-16.7496 16.7496,-16.7496 l 66.9985,0 c 9.2793,0 16.7496,7.4703 16.7496,16.7496 l 0,33.4992 c 0,9.2793 -7.4703,16.7497 -16.7496,16.7497 l -66.9985,0 z m 0,-83.7482 c -9.2793,0 -16.7496,-7.4703 -16.7496,-16.7496 l 0,-33.4992 c 0,-9.2793 7.4703,-16.7496 16.7496,-16.7496 l 66.9985,0 c 9.2793,0 16.7496,7.4703 16.7496,16.7496 l 0,33.4992 c 0,9.2793 -7.4703,16.7496 -16.7496,16.7496 l -66.9985,0 z m 0,-83.7481 c -9.2793,0 -16.7496,-7.4703 -16.7496,-16.7496 l 0,-33.4992 c 0,-9.2793 7.4703,-16.7496 16.7496,-16.7496 l 66.9985,0 c 9.2793,0 16.7496,7.4703 16.7496,16.7496 l 0,33.4992 c 0,9.2793 -7.4703,16.7496 -16.7496,16.7496 l -66.9985,0 z m 0,-83.74806 c -9.2793,0 -16.7496,-7.47033 -16.7496,-16.74962 l 0,-33.49924 c 0,-9.27929 7.4703,-16.74963 16.7496,-16.74963 l 66.9985,0 c 9.2793,0 16.7496,7.47034 16.7496,16.74963 l 0,33.49924 c 0,9.27929 -7.4703,16.74962 -16.7496,16.74962 l -66.9985,0 z m 0,-83.74811 c -9.2793,0 -16.7496,-7.47033 -16.7496,-16.74962 l 0,-33.49924 c 0,-9.27929 7.4703,-16.74962 16.7496,-16.74962 l 66.9985,0 c 9.2793,0 16.7496,7.47033 16.7496,16.74962 l 0,33.49924 c 0,9.27929 -7.4703,16.74962 -16.7496,16.74962 l -66.9985,0 z m 0,-83.7481 c -9.2793,0 -16.7496,-7.47033 -16.7496,-16.74962 l 0,-33.49923 c 0,-9.2793 7.4703,-16.7496 16.7496,-16.7496 l 66.9985,0 c 9.2793,0 16.7496,7.4703 16.7496,16.7496 l 0,33.49923 c 0,9.27929 -7.4703,16.74962 -16.7496,16.74962 l -66.9985,0 z m 0,-83.74815 c -9.2793,0 -16.7496,-7.4703 -16.7496,-16.7496 l 0,-33.4992 c 0,-9.2793 7.4703,-16.7496 16.7496,-16.7496 l 66.9985,0 c 9.2793,0 16.7496,7.4703 16.7496,16.7496 l 0,33.4992 c 0,9.2793 -7.4703,16.7496 -16.7496,16.7496 l -66.9985,0 z m 0,-83.7481 c -9.2793,0 -16.7496,-7.4703 -16.7496,-16.7496 l 0,-33.4992 c 0,-9.2793 7.4703,-16.7497 16.7496,-16.7497 l 66.9985,0 c 9.2793,0 16.7496,7.4704 16.7496,16.7497 l 0,33.4992 c 0,9.2793 -7.4703,16.7496 -16.7496,16.7496 l -66.9985,0 z m 0,-83.7481 c -9.2793,0 -16.7496,-7.4703 -16.7496,-16.7496 l 0,-33.4992 c 0,-9.2793 7.4703,-16.7497 16.7496,-16.7497 l 66.9985,0 c 9.2793,0 16.7496,7.4704 16.7496,16.7497 l 0,33.4992 c 0,9.2793 -7.4703,16.7496 -16.7496,16.7496 l -66.9985,0 z m 0,-83.7481 c -9.2793,0 -16.7496,-7.4703 -16.7496,-16.7496 l 0,-33.4992 c 0,-9.2793 7.4703,-16.7497 16.7496,-16.7497 l 66.9985,0 c 9.2793,0 16.7496,7.4704 16.7496,16.7497 l 0,33.4992 c 0,9.2793 -7.4703,16.7496 -16.7496,16.7496 l -66.9985,0 z m 0,-83.7481 c -9.2793,0 -16.7496,-7.4703 -16.7496,-16.7496 l 0,-33.4992 c 0,-9.2793 7.4703,-16.7497 16.7496,-16.7497 l 66.9985,0 c 9.2793,0 16.7496,7.4704 16.7496,16.7497 l 0,33.4992 c 0,9.2793 -7.4703,16.7496 -16.7496,16.7496 l -66.9985,0 z m 0,-83.7481 c -9.2793,0 -16.7496,-7.4703 -16.7496,-16.7496 l 0,-33.4992 c 0,-9.2793 7.4703,-16.7497 16.7496,-16.7497 l 66.9985,0 c 9.2793,0 16.7496,7.4704 16.7496,16.7497 l 0,33.4992 c 0,9.2793 -7.4703,16.7496 -16.7496,16.7496 l -66.9985,0 z m 0,-83.7481 c -9.2793,0 -16.7496,-7.4703 -16.7496,-16.7496 l 0,-33.4993 c 0,-9.2792 7.4703,-16.7496 16.7496,-16.7496 l 66.9985,0 c 9.2793,0 16.7496,7.4704 16.7496,16.7496 l 0,33.4993 c 0,9.2793 -7.4703,16.7496 -16.7496,16.7496 l -66.9985,0 z m 0,-83.7481 c -9.2793,0 -16.7496,-7.4703 -16.7496,-16.7496 l 0,-33.4993 c 0,-9.2792 7.4703,-16.7496 16.7496,-16.7496 l 66.9985,0 c 9.2793,0 16.7496,7.4704 16.7496,16.7496 l 0,33.4993 c 0,9.2793 -7.4703,16.7496 -16.7496,16.7496 l -66.9985,0 z m 0,-83.7481 c -9.2793,0 -16.7496,-7.4703 -16.7496,-16.7496 l 0,-33.4993 c 0,-9.2793 7.4703,-16.7496 16.7496,-16.7496 l 66.9985,0 c 9.2793,0 16.7496,7.4703 16.7496,16.7496 l 0,33.4993 c 0,9.2793 -7.4703,16.7496 -16.7496,16.7496 l -66.9985,0 z"
         inkscape:connector-curvature="0"
         id="path11143"
         style="fill:url(#linearGradient3832);fill-opacity:1;stroke:none;display:inline" />
    </g>
  </g>
</svg>
