<?xml version="1.0" encoding="UTF-8" standalone="no"?>
<!-- Created with Inkscape (http://www.inkscape.org/) -->

<svg
   xmlns:dc="http://purl.org/dc/elements/1.1/"
   xmlns:cc="http://creativecommons.org/ns#"
   xmlns:rdf="http://www.w3.org/1999/02/22-rdf-syntax-ns#"
   xmlns:svg="http://www.w3.org/2000/svg"
   xmlns="http://www.w3.org/2000/svg"
   xmlns:xlink="http://www.w3.org/1999/xlink"
   xmlns:sodipodi="http://sodipodi.sourceforge.net/DTD/sodipodi-0.dtd"
   xmlns:inkscape="http://www.inkscape.org/namespaces/inkscape"
   width="96"
   height="96"
   id="svg11037"
   version="1.1"
   inkscape:version="0.48.3.1 r9886"
   sodipodi:docname="wordpress.svg">
  <defs
     id="defs11039">
    <linearGradient
       y2="1046.1001"
       x2="47.999954"
       y1="962.62189"
       x1="47.999954"
       gradientTransform="matrix(1.15,0,0,1.15,-7.1999462,-150.65291)"
       gradientUnits="userSpaceOnUse"
       id="linearGradient3886"
       xlink:href="#linearGradient3795"
       inkscape:collect="always" />
    <linearGradient
       id="linearGradient3795">
      <stop
         style="stop-color:#13a6fd;stop-opacity:1;"
         offset="0"
         id="stop3797" />
      <stop
         style="stop-color:#2975b6;stop-opacity:1;"
         offset="1"
         id="stop3799" />
    </linearGradient>
    <linearGradient
       y2="1046.1001"
       x2="47.999954"
       y1="962.62189"
       x1="47.999954"
       gradientTransform="matrix(1.15,0,0,1.15,-7.1999462,-150.65292)"
       gradientUnits="userSpaceOnUse"
       id="linearGradient11642"
       xlink:href="#linearGradient3645"
       inkscape:collect="always" />
    <linearGradient
       x1="48"
       y1="90"
       x2="48"
       y2="5.9877172"
       id="linearGradient3617"
       xlink:href="#linearGradient3645"
       gradientUnits="userSpaceOnUse"
       gradientTransform="translate(19.525424,-25.220339)" />
    <linearGradient
       id="linearGradient3645">
      <stop
         id="stop3647"
         style="stop-color:#0f466f;stop-opacity:1"
         offset="0" />
      <stop
         id="stop3649"
         style="stop-color:#2e72a7;stop-opacity:1"
         offset="1" />
    </linearGradient>
    <linearGradient
       y2="5.9877172"
       x2="48"
       y1="90"
       x1="48"
       gradientTransform="translate(-95.477168,943.24795)"
       gradientUnits="userSpaceOnUse"
       id="linearGradient3046"
       xlink:href="#linearGradient3645"
       inkscape:collect="always" />
    <linearGradient
       x1="48"
       y1="84"
       x2="48"
       y2="12"
       id="linearGradient2928"
       xlink:href="#linearGradient4062"
       gradientUnits="userSpaceOnUse" />
    <linearGradient
       id="linearGradient4062">
      <stop
         id="stop4064"
         style="stop-color:#dfdfdf;stop-opacity:1"
         offset="0" />
      <stop
         id="stop4066"
         style="stop-color:#ffffff;stop-opacity:1"
         offset="1" />
    </linearGradient>
    <clipPath
       clipPathUnits="userSpaceOnUse"
       id="clipPath3009">
      <path
         id="path3011"
         d="m -2,956.36218 -96,0 0,33.5624 96,25.68742 0,-59.24982 z"
         style="opacity:0.15;fill:#ffffff;fill-opacity:1;stroke:none"
         inkscape:connector-curvature="0" />
    </clipPath>
  </defs>
  <sodipodi:namedview
     id="base"
     pagecolor="#ffffff"
     bordercolor="#666666"
     borderopacity="1.0"
     inkscape:pageopacity="0.0"
     inkscape:pageshadow="2"
     inkscape:zoom="3.959798"
     inkscape:cx="33.538031"
     inkscape:cy="59.964634"
     inkscape:document-units="px"
     inkscape:current-layer="layer1"
     showgrid="false"
     inkscape:window-width="1280"
     inkscape:window-height="750"
     inkscape:window-x="0"
     inkscape:window-y="22"
     inkscape:window-maximized="1"
     showguides="true"
     inkscape:guide-bbox="true">
    <sodipodi:guide
       orientation="0,1"
       position="-24.748737,0"
       id="guide11064" />
    <sodipodi:guide
       orientation="0,1"
       position="-23.233509,96"
       id="guide11066" />
    <sodipodi:guide
       orientation="1,0"
       position="0,54.800776"
       id="guide11068" />
    <sodipodi:guide
       orientation="1,0"
       position="96,51.012704"
       id="guide11070" />
    <sodipodi:guide
       orientation="0,1"
       position="-18.94036,48"
       id="guide11072" />
    <sodipodi:guide
       orientation="1,0"
       position="48,79.296975"
       id="guide11074" />
    <sodipodi:guide
       orientation="1,0"
       position="2,75.508903"
       id="guide11076" />
    <sodipodi:guide
       orientation="0,1"
       position="-77.27667,2"
       id="guide11078" />
    <sodipodi:guide
       orientation="1,0"
       position="94,77.781746"
       id="guide11080" />
    <sodipodi:guide
       orientation="0,1"
       position="-65.912454,94"
       id="guide11082" />
  </sodipodi:namedview>
  <metadata
     id="metadata11042">
    <rdf:RDF>
      <cc:Work
         rdf:about="">
        <dc:format>image/svg+xml</dc:format>
        <dc:type
           rdf:resource="http://purl.org/dc/dcmitype/StillImage" />
        <dc:title />
      </cc:Work>
    </rdf:RDF>
  </metadata>
  <g
     inkscape:label="Layer 1"
     inkscape:groupmode="layer"
     id="layer1"
     transform="translate(0,-956.36218)">
    <rect
       x="2"
       y="958.36218"
       width="92"
       height="92"
       style="fill:url(#linearGradient11642);fill-opacity:1.0"
       id="rect3867"
       rx="25"
       ry="25" />
    <g
       transform="translate(0,956.36218)"
       id="layer4">
      <path
         d="M 47.989186,12 C 28.140631,12 12,28.162259 12,48.010814 12,67.86023 28.140631,84 47.989186,84 67.838606,84 84,67.86023 84,48.010814 84,28.162259 67.838606,12 47.989186,12 z m 0,3.633524 c 8.426314,0 16.107756,3.224319 21.866026,8.499849 -0.139285,-0.0087 -0.267324,-0.02163 -0.410934,-0.02163 -3.179334,0 -5.450286,2.777916 -5.450286,5.753079 0,2.66718 1.539057,4.92429 3.179333,7.591469 1.231073,2.155026 2.681887,4.909583 2.681887,8.910784 0,2.769264 -0.825329,6.262638 -2.465606,10.468009 L 64.145389,67.62752 52.466206,32.827876 c 1.948261,-0.102084 3.698408,-0.302793 3.698408,-0.302793 1.744091,-0.206765 1.52781,-2.762343 -0.216281,-2.660259 0,0 -5.223623,0.410934 -8.607991,0.410934 -3.180198,0 -8.543106,-0.410934 -8.543106,-0.410934 -1.744956,-0.102084 -1.939609,2.557309 -0.194653,2.660259 0,0 1.651523,0.200709 3.395615,0.302793 L 47.037549,46.648243 39.943527,67.88705 28.177831,32.827876 c 1.949991,-0.102084 3.698408,-0.302793 3.698408,-0.302793 1.742361,-0.206765 1.52781,-2.762343 -0.216281,-2.660259 0,0 -5.245251,0.410934 -8.629619,0.410934 -0.607317,0 -1.316719,-0.01903 -2.076299,-0.04326 C 26.741724,21.447157 36.682007,15.63352 47.989186,15.63352 z m 28.419345,16.848302 c 2.525299,4.609385 3.957945,9.902217 3.957945,15.528988 0,11.940451 -6.469402,22.355686 -16.091318,27.965156 l 9.884049,-28.570743 c 1.847041,-4.617171 2.465605,-8.309523 2.465605,-11.592671 0,-1.191276 -0.077,-2.300366 -0.216281,-3.33073 z M 18.445179,34.839291 33.866026,77.14389 C 23.06927,71.89864 15.633524,60.82158 15.633524,48.010814 c 0,-4.692436 1.016521,-9.146098 2.811655,-13.171523 z m 30.127966,16.004806 9.948934,27.251423 c 0.06575,0.16005 0.129768,0.29415 0.216281,0.43257 -3.363605,1.18435 -6.979826,1.83839 -10.749174,1.83839 -3.175873,0 -6.227167,-0.46631 -9.127065,-1.31932 l 9.711024,-28.203063 z"
         inkscape:connector-curvature="0"
         id="path4048"
         style="fill:url(#linearGradient2928);fill-opacity:1;fill-rule:nonzero;stroke:none" />
      <path
         d="m 48,11 c -19.848555,0 -36,16.151445 -36,36 0,0.165572 0.02901,0.334951 0.03125,0.5 C 12.301875,27.882716 28.319816,12 48,12 67.681042,12 83.697779,27.882716 83.96875,47.5 83.970992,47.334951 84,47.165572 84,47 84,27.151445 67.84942,11 48,11 z M 68.75,23.15625 C 65.933394,23.520336 64,26.117608 64,28.875 c 0,0.150633 0.02169,0.289335 0.03125,0.4375 0.261137,-2.75665 2.425624,-5.1875 5.40625,-5.1875 0.14361,0 0.266965,-0.0087 0.40625,0 C 69.483858,23.795279 69.124629,23.469659 68.75,23.15625 z M 31.65625,28.875 c 0,0 -5.240632,0.40625 -8.625,0.40625 -0.404785,0 -0.894884,-0.01844 -1.375,-0.03125 -0.232144,0.325588 -0.467232,0.634396 -0.6875,0.96875 0.75958,0.02423 1.455183,0.0625 2.0625,0.0625 3.384368,0 8.625,-0.40625 8.625,-0.40625 0.68036,-0.03982 1.123021,0.309415 1.3125,0.78125 0.286127,-0.80606 -0.172612,-1.847969 -1.3125,-1.78125 z m 6.84375,0 c -0.910418,0.130617 -1.286765,1.114654 -1.03125,1.84375 0.177837,-0.500828 0.647414,-0.884487 1.34375,-0.84375 0,0 5.351052,0.40625 8.53125,0.40625 3.384368,0 8.59375,-0.40625 8.59375,-0.40625 0.682889,-0.03997 1.155274,0.306866 1.34375,0.78125 0.278529,-0.804862 -0.208587,-1.847693 -1.34375,-1.78125 0,0 -5.209382,0.40625 -8.59375,0.40625 -3.180198,0 -8.53125,-0.40625 -8.53125,-0.40625 -0.10906,-0.0064 -0.215647,-0.0139 -0.3125,0 z m 37.90625,3.59375 c 0.122842,0.908755 0.2029,1.903893 0.21875,2.9375 0.0045,-0.197804 0,-0.398935 0,-0.59375 0,-0.744275 -0.03723,-1.444042 -0.09375,-2.125 -0.0392,-0.07289 -0.08525,-0.1462 -0.125,-0.21875 z M 28.5,32.78125 c -0.117277,0.0069 -0.193366,0.02501 -0.3125,0.03125 L 39.9375,67.875 47.03125,46.65625 46.84375,46.1875 39.9375,66.875 28.5,32.78125 z m 24.28125,0 c -0.117196,0.0069 -0.193472,0.02501 -0.3125,0.03125 L 64.15625,67.625 67.375,56.84375 c 1.640277,-4.205371 2.46875,-7.699486 2.46875,-10.46875 0,-0.141552 -0.02769,-0.26779 -0.03125,-0.40625 -0.10727,2.669791 -0.911879,5.963587 -2.4375,9.875 L 64.15625,66.625 52.78125,32.78125 z m 27.5625,14.625 c -0.143825,11.581115 -6.362309,21.677944 -15.625,27.28125 l -0.4375,1.28125 C 73.903166,70.35928 80.375,59.940451 80.375,48 c 0,-0.199592 -0.02766,-0.395014 -0.03125,-0.59375 z m -64.6875,0.0625 C 15.653331,47.646259 15.625,47.821792 15.625,48 c 0,12.810766 7.453244,23.911 18.25,29.15625 l -0.4375,-1.25 C 23.014171,70.64072 15.832192,59.903557 15.65625,47.46875 z M 58.375,77.65625 C 55.117272,78.759354 51.630799,79.375 48,79.375 c -3.061277,0 -6.006742,-0.423519 -8.8125,-1.21875 L 38.875,79.0625 c 2.899898,0.85301 5.949127,1.3125 9.125,1.3125 3.769348,0 7.386395,-0.6594 10.75,-1.84375 -0.08651,-0.13842 -0.153,-0.27745 -0.21875,-0.4375 L 58.375,77.65625 z"
         inkscape:connector-curvature="0"
         id="path4052"
         style="opacity:0.4;fill:#000000;fill-opacity:1;fill-rule:nonzero;stroke:none" />
      <path
         d="m 48,15.625 c -11.307179,0 -21.243566,5.808409 -27.03125,14.59375 0.253309,0.0081 0.447277,0.02484 0.6875,0.03125 C 27.523835,22.020559 37.123151,16.625 48,16.625 c 7.899669,0 15.130565,2.830113 20.75,7.53125 0.222447,-0.02875 0.454784,-0.03125 0.6875,-0.03125 0.14361,0 0.266965,-0.0087 0.40625,0 C 64.08548,18.84947 56.426314,15.625 48,15.625 z M 64.03125,30.34375 C 64.015699,30.517493 64,30.699351 64,30.875 c 0,2.66718 1.547224,4.926571 3.1875,7.59375 1.187521,2.078787 2.527996,4.724655 2.625,8.5 0.0081,-0.200645 0.03125,-0.400177 0.03125,-0.59375 0,-4.001201 -1.425177,-6.751224 -2.65625,-8.90625 -1.541052,-2.505835 -2.986255,-4.662955 -3.15625,-7.125 z m -31.0625,1.3125 c -0.151663,0.427256 -0.490146,0.803371 -1.09375,0.875 0,0 -1.737509,0.179166 -3.6875,0.28125 L 28.5,33.78125 c 1.802311,-0.106113 3.375,-0.25 3.375,-0.25 1.062676,-0.126107 1.389997,-1.137294 1.09375,-1.875 z m 24.3125,0 c -0.14941,0.431747 -0.516072,0.80281 -1.125,0.875 0,0 -1.739239,0.179166 -3.6875,0.28125 l 0.3125,0.96875 c 1.801065,-0.106113 3.375,-0.25 3.375,-0.25 1.061202,-0.125807 1.41789,-1.137811 1.125,-1.875 z m -19.8125,0.0625 c -0.267806,0.754201 0.07638,1.750633 1.125,1.8125 0,0 1.662158,0.179166 3.40625,0.28125 l 4.84375,13.375 0.1875,-0.53125 L 42,32.8125 c -1.744092,-0.102084 -3.40625,-0.28125 -3.40625,-0.28125 -0.610735,-0.03603 -0.972778,-0.378145 -1.125,-0.8125 z m 38.9375,0.75 c 0.05226,0.386622 0.09105,0.809776 0.125,1.21875 2.36326,4.393662 3.716474,9.403029 3.8125,14.71875 C 80.345444,48.269813 80.375,48.136842 80.375,48 c 0,-5.626771 -1.443451,-10.921865 -3.96875,-15.53125 z m -57.96875,2.375 C 16.642366,38.869175 15.625,43.307564 15.625,48 c 0,0.156143 0.02905,0.313129 0.03125,0.46875 0.07395,-4.496518 1.054291,-8.752451 2.78125,-12.625 l 15,41.0625 c 0.14876,0.07515 0.287431,0.177094 0.4375,0.25 L 18.4375,34.84375 z m 58.1875,1.5625 c -0.07107,3.135722 -0.731309,6.656802 -2.46875,11 l -9.875,28.5625 c 0.151549,-0.08835 0.287528,-0.190527 0.4375,-0.28125 l 9.4375,-27.28125 C 76.003291,43.789079 76.625,40.095648 76.625,36.8125 c 0,-0.140601 0.0021,-0.267933 0,-0.40625 z M 12.03125,48.5 C 12.028935,48.667833 12,48.831629 12,49 12,68.849416 28.151445,85 48,85 67.84942,85 84,68.849416 84,49 84,48.831629 83.971068,48.667833 83.96875,48.5 83.702241,68.121615 67.683848,84 48,84 28.31701,84 12.297418,68.121615 12.03125,48.5 z M 48.5625,50.84375 38.875,79.0625 c 0.104638,0.03078 0.207469,0.06398 0.3125,0.09375 l 9.375,-27.3125 9.8125,26.8125 c 0.124313,-0.04209 0.251365,-0.08147 0.375,-0.125 -0.08651,-0.13842 -0.153,-0.27745 -0.21875,-0.4375 l -9.96875,-27.25 z"
         inkscape:connector-curvature="0"
         id="path4057"
         style="opacity:0.3;fill:#ffffff;fill-opacity:1;fill-rule:nonzero;stroke:none" />
    </g>
    <rect
       ry="25"
       rx="25"
       id="rect3003"
       style="opacity:0.15;fill:#ffffff;fill-opacity:1"
       height="92"
       width="92"
       y="958.36218"
       x="-96"
       clip-path="url(#clipPath3009)"
       transform="translate(98,3.8281269e-7)" />
  </g>
</svg>
