<?xml version="1.0" encoding="UTF-8" standalone="no"?>
<!-- Created with Inkscape (http://www.inkscape.org/) -->

<svg
   xmlns:dc="http://purl.org/dc/elements/1.1/"
   xmlns:cc="http://creativecommons.org/ns#"
   xmlns:rdf="http://www.w3.org/1999/02/22-rdf-syntax-ns#"
   xmlns:svg="http://www.w3.org/2000/svg"
   xmlns="http://www.w3.org/2000/svg"
   xmlns:xlink="http://www.w3.org/1999/xlink"
   xmlns:sodipodi="http://sodipodi.sourceforge.net/DTD/sodipodi-0.dtd"
   xmlns:inkscape="http://www.inkscape.org/namespaces/inkscape"
   width="96"
   height="96"
   id="svg11037"
   version="1.1"
   inkscape:version="0.48.3.1 r9886"
   sodipodi:docname="workspace-switcher.svg">
  <defs
     id="defs11039">
    <linearGradient
       y2="1046.1001"
       x2="47.999954"
       y1="962.62189"
       x1="47.999954"
       gradientTransform="matrix(1.15,0,0,1.15,-7.1999462,-150.65291)"
       gradientUnits="userSpaceOnUse"
       id="linearGradient3886"
       xlink:href="#linearGradient3795"
       inkscape:collect="always" />
    <linearGradient
       id="linearGradient3795">
      <stop
         style="stop-color:#13a6fd;stop-opacity:1;"
         offset="0"
         id="stop3797" />
      <stop
         style="stop-color:#2975b6;stop-opacity:1;"
         offset="1"
         id="stop3799" />
    </linearGradient>
    <linearGradient
       y2="1046.1001"
       x2="47.999954"
       y1="962.62189"
       x1="47.999954"
       gradientTransform="matrix(1.15,0,0,1.15,-7.1999462,-150.65292)"
       gradientUnits="userSpaceOnUse"
       id="linearGradient11642"
       xlink:href="#linearGradient10902-1"
       inkscape:collect="always" />
    <linearGradient
       id="linearGradient10902-1"
       y2="902.35999"
       gradientUnits="userSpaceOnUse"
       x2="48"
       gradientTransform="translate(0,-9.6172e-6)"
       y1="1052.4"
       x1="48">
      <stop
         id="stop3177-6"
         style="stop-color:#4490e6"
         offset="0" />
      <stop
         id="stop3179-3"
         style="stop-color:#103d8f"
         offset="1" />
    </linearGradient>
    <linearGradient
       y2="902.35999"
       x2="48"
       y1="1052.4"
       x1="48"
       gradientTransform="translate(-107.85154,8.0021589)"
       gradientUnits="userSpaceOnUse"
       id="linearGradient3021"
       xlink:href="#linearGradient10902-1"
       inkscape:collect="always" />
    <linearGradient
       id="linearGradient7182"
       y2="-24"
       xlink:href="#linearGradient4134"
       gradientUnits="userSpaceOnUse"
       x2="32"
       gradientTransform="translate(112.72,-1020.2)"
       y1="46"
       x1="32" />
    <linearGradient
       id="linearGradient4134">
      <stop
         id="stop4136"
         style="stop-color:#fff"
         offset="0" />
      <stop
         id="stop4138"
         style="stop-color:#fff;stop-opacity:0"
         offset="1" />
    </linearGradient>
    <linearGradient
       id="linearGradient7184"
       y2="-24"
       xlink:href="#linearGradient4134"
       gradientUnits="userSpaceOnUse"
       x2="32"
       gradientTransform="translate(112.72,-1052.2)"
       y1="46"
       x1="32" />
    <linearGradient
       id="linearGradient3038">
      <stop
         id="stop3040"
         style="stop-color:#fff"
         offset="0" />
      <stop
         id="stop3042"
         style="stop-color:#fff;stop-opacity:0"
         offset="1" />
    </linearGradient>
    <linearGradient
       id="linearGradient7186"
       y2="-24"
       xlink:href="#linearGradient4134"
       gradientUnits="userSpaceOnUse"
       x2="32"
       gradientTransform="translate(144.72,-1052.2)"
       y1="46"
       x1="32" />
    <linearGradient
       id="linearGradient3045">
      <stop
         id="stop3047"
         style="stop-color:#fff"
         offset="0" />
      <stop
         id="stop3049"
         style="stop-color:#fff;stop-opacity:0"
         offset="1" />
    </linearGradient>
    <linearGradient
       id="linearGradient7188"
       y2="-24"
       xlink:href="#linearGradient4134"
       gradientUnits="userSpaceOnUse"
       x2="32"
       gradientTransform="translate(144.72,-1020.2)"
       y1="46"
       x1="32" />
    <linearGradient
       id="linearGradient3052">
      <stop
         id="stop3054"
         style="stop-color:#fff"
         offset="0" />
      <stop
         id="stop3056"
         style="stop-color:#fff;stop-opacity:0"
         offset="1" />
    </linearGradient>
    <clipPath
       clipPathUnits="userSpaceOnUse"
       id="clipPath3009">
      <path
         id="path3011"
         d="m -2,956.36218 -96,0 0,33.5624 96,25.68742 0,-59.24982 z"
         style="opacity:0.15;fill:#ffffff;fill-opacity:1;stroke:none"
         inkscape:connector-curvature="0" />
    </clipPath>
  </defs>
  <sodipodi:namedview
     id="base"
     pagecolor="#ffffff"
     bordercolor="#666666"
     borderopacity="1.0"
     inkscape:pageopacity="0.0"
     inkscape:pageshadow="2"
     inkscape:zoom="3.959798"
     inkscape:cx="33.538031"
     inkscape:cy="59.964634"
     inkscape:document-units="px"
     inkscape:current-layer="layer1"
     showgrid="false"
     inkscape:window-width="1280"
     inkscape:window-height="750"
     inkscape:window-x="0"
     inkscape:window-y="22"
     inkscape:window-maximized="1"
     showguides="true"
     inkscape:guide-bbox="true">
    <sodipodi:guide
       orientation="0,1"
       position="-24.748737,0"
       id="guide11064" />
    <sodipodi:guide
       orientation="0,1"
       position="-23.233509,96"
       id="guide11066" />
    <sodipodi:guide
       orientation="1,0"
       position="0,54.800776"
       id="guide11068" />
    <sodipodi:guide
       orientation="1,0"
       position="96,51.012704"
       id="guide11070" />
    <sodipodi:guide
       orientation="0,1"
       position="-18.94036,48"
       id="guide11072" />
    <sodipodi:guide
       orientation="1,0"
       position="48,79.296975"
       id="guide11074" />
    <sodipodi:guide
       orientation="1,0"
       position="2,75.508903"
       id="guide11076" />
    <sodipodi:guide
       orientation="0,1"
       position="-77.27667,2"
       id="guide11078" />
    <sodipodi:guide
       orientation="1,0"
       position="94,77.781746"
       id="guide11080" />
    <sodipodi:guide
       orientation="0,1"
       position="-65.912454,94"
       id="guide11082" />
  </sodipodi:namedview>
  <metadata
     id="metadata11042">
    <rdf:RDF>
      <cc:Work
         rdf:about="">
        <dc:format>image/svg+xml</dc:format>
        <dc:type
           rdf:resource="http://purl.org/dc/dcmitype/StillImage" />
        <dc:title />
      </cc:Work>
    </rdf:RDF>
  </metadata>
  <g
     inkscape:label="Layer 1"
     inkscape:groupmode="layer"
     id="layer1"
     transform="translate(0,-956.36218)">
    <rect
       x="2"
       y="958.36218"
       width="92"
       height="92"
       style="fill:url(#linearGradient11642);fill-opacity:1.0"
       id="rect3867"
       rx="25"
       ry="25" />
    <g
       id="g7172"
       transform="matrix(0.83333,0,0,0.83333,-85.934,167.56218)">
      <rect
         id="rect3889"
         style="opacity:0.3;fill:url(#linearGradient7182)"
         transform="scale(1,-1)"
         rx="2"
         ry="2"
         height="28"
         width="28"
         y="-1002.2"
         x="130.72" />
      <path
         inkscape:connector-curvature="0"
         id="rect4107"
         style="opacity:0.3;fill:#ffffff"
         d="m 132.72,974.16 c -1.108,0 -2,0.892 -2,2 v 24 c 0,1.108 0.892,2 2,2 h 24 c 1.108,0 2,-0.892 2,-2 v -24 c 0,-1.108 -0.892,-2 -2,-2 h -24 z m 0,1.0312 h 24 c 0.54712,0 0.96875,0.42163 0.96875,0.96875 v 23.99995 c 0,0.5472 -0.42163,0.9688 -0.96875,0.9688 h -24 c -0.54712,0 -0.96875,-0.4216 -0.96875,-0.9688 v -23.99995 c 0,-0.54712 0.42163,-0.96875 0.96875,-0.96875 z" />
      <rect
         id="rect4144"
         style="opacity:0.2;fill:url(#linearGradient7184)"
         transform="scale(1,-1)"
         rx="2"
         ry="2"
         height="28"
         width="28"
         y="-1034.2"
         x="130.72" />
      <path
         inkscape:connector-curvature="0"
         id="path4148"
         style="opacity:0.3;fill:#ffffff"
         d="m 132.72,1006.2 c -1.108,0 -2,0.892 -2,2 v 24 c 0,1.108 0.892,2 2,2 h 24 c 1.108,0 2,-0.892 2,-2 v -24 c 0,-1.108 -0.892,-2 -2,-2 h -24 z m 0,1.0313 h 24 c 0.54712,0 0.96875,0.4216 0.96875,0.9687 v 24 c 0,0.5472 -0.42163,0.9688 -0.96875,0.9688 h -24 c -0.54712,0 -0.96875,-0.4216 -0.96875,-0.9688 v -24 c 0,-0.5471 0.42163,-0.9687 0.96875,-0.9687 z" />
      <rect
         id="rect4156"
         style="opacity:0.2;fill:url(#linearGradient7186)"
         transform="scale(1,-1)"
         rx="2"
         ry="2"
         height="28"
         width="28"
         y="-1034.2"
         x="162.72" />
      <path
         inkscape:connector-curvature="0"
         id="path4160"
         style="opacity:0.3;fill:#ffffff"
         d="m 164.72,1006.2 c -1.108,0 -2,0.892 -2,2 v 24 c 0,1.108 0.892,2 2,2 h 24 c 1.108,0 2,-0.892 2,-2 v -24 c 0,-1.108 -0.892,-2 -2,-2 h -24 z m 0,1.0313 h 24 c 0.54712,0 0.96875,0.4216 0.96875,0.9687 v 24 c 0,0.5472 -0.42163,0.9688 -0.96875,0.9688 h -24 c -0.54712,0 -0.96875,-0.4216 -0.96875,-0.9688 v -24 c 0,-0.5471 0.42163,-0.9687 0.96875,-0.9687 z" />
      <rect
         id="rect4168"
         style="opacity:0.2;fill:url(#linearGradient7188)"
         transform="scale(1,-1)"
         rx="2"
         ry="2"
         height="28"
         width="28"
         y="-1002.2"
         x="162.72" />
      <path
         inkscape:connector-curvature="0"
         id="path4172"
         style="opacity:0.3;fill:#ffffff"
         d="m 164.72,974.16 c -1.108,0 -2,0.892 -2,2 v 24 c 0,1.108 0.892,2 2,2 h 24 c 1.108,0 2,-0.892 2,-2 v -24 c 0,-1.108 -0.892,-2 -2,-2 h -24 z m 0,1.0312 h 24 c 0.54712,0 0.96875,0.42163 0.96875,0.96875 v 23.99995 c 0,0.5472 -0.42163,0.9688 -0.96875,0.9688 h -24 c -0.54712,0 -0.96875,-0.4216 -0.96875,-0.9688 v -23.99995 c 0,-0.54712 0.42163,-0.96875 0.96875,-0.96875 z" />
    </g>
    <rect
       ry="25"
       rx="25"
       id="rect3003"
       style="opacity:0.15;fill:#ffffff;fill-opacity:1"
       height="92"
       width="92"
       y="958.36218"
       x="-96"
       clip-path="url(#clipPath3009)"
       transform="translate(98,3.8281269e-7)" />
  </g>
</svg>
