<?xml version="1.0" encoding="UTF-8" standalone="no"?>
<!-- Created with Inkscape (http://www.inkscape.org/) -->

<svg
   xmlns:dc="http://purl.org/dc/elements/1.1/"
   xmlns:cc="http://creativecommons.org/ns#"
   xmlns:rdf="http://www.w3.org/1999/02/22-rdf-syntax-ns#"
   xmlns:svg="http://www.w3.org/2000/svg"
   xmlns="http://www.w3.org/2000/svg"
   xmlns:xlink="http://www.w3.org/1999/xlink"
   xmlns:sodipodi="http://sodipodi.sourceforge.net/DTD/sodipodi-0.dtd"
   xmlns:inkscape="http://www.inkscape.org/namespaces/inkscape"
   width="96"
   height="96"
   id="svg11037"
   version="1.1"
   inkscape:version="0.48.3.1 r9886"
   sodipodi:docname="xchat.svg">
  <defs
     id="defs11039">
    <linearGradient
       y2="1046.1001"
       x2="47.999954"
       y1="962.62189"
       x1="47.999954"
       gradientTransform="matrix(1.15,0,0,1.15,-7.1999462,-150.65291)"
       gradientUnits="userSpaceOnUse"
       id="linearGradient3886"
       xlink:href="#linearGradient3795"
       inkscape:collect="always" />
    <linearGradient
       id="linearGradient3795">
      <stop
         style="stop-color:#13a6fd;stop-opacity:1;"
         offset="0"
         id="stop3797" />
      <stop
         style="stop-color:#2975b6;stop-opacity:1;"
         offset="1"
         id="stop3799" />
    </linearGradient>
    <linearGradient
       y2="1046.1001"
       x2="47.999954"
       y1="962.62189"
       x1="47.999954"
       gradientTransform="matrix(1.15,0,0,1.15,-7.1999462,-150.65292)"
       gradientUnits="userSpaceOnUse"
       id="linearGradient11642"
       xlink:href="#linearGradient3614"
       inkscape:collect="always" />
    <linearGradient
       x1="48"
       y1="90"
       x2="48"
       y2="5.9877172"
       id="linearGradient3617"
       xlink:href="#linearGradient3614"
       gradientUnits="userSpaceOnUse"
       gradientTransform="translate(116.74576,15.050847)" />
    <linearGradient
       id="linearGradient3614">
      <stop
         id="stop3616"
         style="stop-color:#6da014;stop-opacity:1"
         offset="0" />
      <stop
         id="stop3618"
         style="stop-color:#b4e844;stop-opacity:1"
         offset="1" />
    </linearGradient>
    <linearGradient
       y2="5.9877172"
       x2="48"
       y1="90"
       x1="48"
       gradientTransform="translate(-111.38709,906.62992)"
       gradientUnits="userSpaceOnUse"
       id="linearGradient3066"
       xlink:href="#linearGradient3614"
       inkscape:collect="always" />
    <linearGradient
       x1="15"
       y1="47.277454"
       x2="127.28258"
       y2="47.277454"
       id="linearGradient3777"
       xlink:href="#linearGradient3771"
       gradientUnits="userSpaceOnUse" />
    <linearGradient
       id="linearGradient3771">
      <stop
         id="stop3773"
         style="stop-color:#000000;stop-opacity:1"
         offset="0" />
      <stop
         id="stop3775"
         style="stop-color:#000000;stop-opacity:0"
         offset="1" />
    </linearGradient>
    <linearGradient
       x1="50.630707"
       y1="61.373192"
       x2="50.630707"
       y2="26.422728"
       id="linearGradient3699"
       xlink:href="#linearGradient3697"
       gradientUnits="userSpaceOnUse" />
    <linearGradient
       id="linearGradient3697">
      <stop
         id="stop3699"
         style="stop-color:#e6e6e6;stop-opacity:1"
         offset="0" />
      <stop
         id="stop3701"
         style="stop-color:#f5f5f5;stop-opacity:1"
         offset="1" />
    </linearGradient>
    <linearGradient
       inkscape:collect="always"
       xlink:href="#linearGradient3771"
       id="linearGradient3910"
       gradientUnits="userSpaceOnUse"
       x1="15"
       y1="47.277454"
       x2="127.28258"
       y2="47.277454" />
    <linearGradient
       inkscape:collect="always"
       xlink:href="#linearGradient3697"
       id="linearGradient3912"
       gradientUnits="userSpaceOnUse"
       x1="50.630707"
       y1="61.373192"
       x2="50.630707"
       y2="26.422728" />
    <clipPath
       clipPathUnits="userSpaceOnUse"
       id="clipPath3009">
      <path
         id="path3011"
         d="m -2,956.36218 -96,0 0,33.5624 96,25.68742 0,-59.24982 z"
         style="opacity:0.15;fill:#ffffff;fill-opacity:1;stroke:none"
         inkscape:connector-curvature="0" />
    </clipPath>
  </defs>
  <sodipodi:namedview
     id="base"
     pagecolor="#ffffff"
     bordercolor="#666666"
     borderopacity="1.0"
     inkscape:pageopacity="0.0"
     inkscape:pageshadow="2"
     inkscape:zoom="3.959798"
     inkscape:cx="33.538031"
     inkscape:cy="59.964634"
     inkscape:document-units="px"
     inkscape:current-layer="layer1"
     showgrid="false"
     inkscape:window-width="1280"
     inkscape:window-height="750"
     inkscape:window-x="0"
     inkscape:window-y="22"
     inkscape:window-maximized="1"
     showguides="true"
     inkscape:guide-bbox="true">
    <sodipodi:guide
       orientation="0,1"
       position="-24.748737,0"
       id="guide11064" />
    <sodipodi:guide
       orientation="0,1"
       position="-23.233509,96"
       id="guide11066" />
    <sodipodi:guide
       orientation="1,0"
       position="0,54.800776"
       id="guide11068" />
    <sodipodi:guide
       orientation="1,0"
       position="96,51.012704"
       id="guide11070" />
    <sodipodi:guide
       orientation="0,1"
       position="-18.94036,48"
       id="guide11072" />
    <sodipodi:guide
       orientation="1,0"
       position="48,79.296975"
       id="guide11074" />
    <sodipodi:guide
       orientation="1,0"
       position="2,75.508903"
       id="guide11076" />
    <sodipodi:guide
       orientation="0,1"
       position="-77.27667,2"
       id="guide11078" />
    <sodipodi:guide
       orientation="1,0"
       position="94,77.781746"
       id="guide11080" />
    <sodipodi:guide
       orientation="0,1"
       position="-65.912454,94"
       id="guide11082" />
  </sodipodi:namedview>
  <metadata
     id="metadata11042">
    <rdf:RDF>
      <cc:Work
         rdf:about="">
        <dc:format>image/svg+xml</dc:format>
        <dc:type
           rdf:resource="http://purl.org/dc/dcmitype/StillImage" />
        <dc:title />
      </cc:Work>
    </rdf:RDF>
  </metadata>
  <g
     inkscape:label="Layer 1"
     inkscape:groupmode="layer"
     id="layer1"
     transform="translate(0,-956.36218)">
    <rect
       x="2"
       y="958.36218"
       width="92"
       height="92"
       style="fill:url(#linearGradient11642);fill-opacity:1.0"
       id="rect3867"
       rx="25"
       ry="25" />
    <g
       transform="translate(-4.4444445e-7,956.36218)"
       id="g3146">
      <path
         style="opacity:0.2;fill:url(#linearGradient3910);fill-opacity:1;stroke:none;display:inline"
         id="path3620"
         inkscape:connector-curvature="0"
         d="m 48,17 c -18.225397,0 -33,12.088312 -33,27 0,9.498438 5.99976,17.843462 15.0625,22.65625 -0.344625,2.508754 -1.914014,8.649817 -9.34375,10.75 9.622915,1.045823 16.013601,-3.646306 19.40625,-7.1875 C 42.648507,70.724251 45.286067,71 48,71 66.225397,71 81,58.911688 81,44 81,29.088312 66.225397,17 48,17 z" />
      <path
         style="opacity:0.25;fill:#ffffff;fill-opacity:1;stroke:none;display:inline"
         id="path3779"
         inkscape:connector-curvature="0"
         d="m 15,44.40625 c -0.0053,0.200069 0,0.392631 0,0.59375 0,9.441618 5.934255,17.73658 14.90625,22.5625 0.06714,-0.329302 0.120551,-0.646372 0.15625,-0.90625 C 21.128785,61.911981 15.167817,53.73661 15,44.40625 z M 81,44.5 C 80.669643,59.177737 66.018397,71 48,71 c -2.713933,0 -5.351493,-0.275749 -7.875,-0.78125 -3.113855,3.250193 -8.747725,7.449531 -17.09375,7.3125 -0.700608,0.332399 -1.466906,0.635974 -2.3125,0.875 9.622915,1.045823 16.013601,-3.646306 19.40625,-7.1875 C 42.648507,71.724251 45.286067,72 48,72 66.225397,72 81,59.911688 81,45 c 0,-0.169364 0.0038,-0.331378 0,-0.5 z" />
      <path
         style="opacity:0.05;fill:#000000;fill-opacity:1;stroke:none;display:inline"
         id="path3811"
         inkscape:connector-curvature="0"
         d="m 48,17 c -18.225397,0 -33,12.088312 -33,27 0,9.498438 5.99976,17.843462 15.0625,22.65625 -0.344625,2.508754 -1.914014,8.649817 -9.34375,10.75 9.622915,1.045823 16.013601,-3.646306 19.40625,-7.1875 C 42.648507,70.724251 45.286067,71 48,71 66.225397,71 81,58.911688 81,44 81,29.088312 66.225397,17 48,17 z m 0,2.9375 c 16.920322,0 30.0625,11.100368 30.0625,24.0625 0,12.962132 -13.142178,24.0625 -30.0625,24.0625 -2.514011,0 -4.943414,-0.281692 -7.28125,-0.75 A 2.9517629,2.9517629 0 0 0 38,68.1875 c -1.62088,1.691849 -4.004104,3.567605 -7.125,4.875 1.341535,-2.353896 1.934715,-4.614792 2.125,-6 a 2.9517629,2.9517629 0 0 0 -1.5625,-3 C 23.146372,59.659478 17.9375,52.25556 17.9375,44 17.9375,31.037868 31.079678,19.9375 48,19.9375 z" />
      <path
         style="opacity:0.07999998;fill:#000000;fill-opacity:1;stroke:none;display:inline"
         id="path3804"
         inkscape:connector-curvature="0"
         d="m 48,17 c -18.225397,0 -33,12.088312 -33,27 0,9.498438 5.99976,17.843462 15.0625,22.65625 -0.344625,2.508754 -1.914014,8.649817 -9.34375,10.75 9.622915,1.045823 16.013601,-3.646306 19.40625,-7.1875 C 42.648507,70.724251 45.286067,71 48,71 66.225397,71 81,58.911688 81,44 81,29.088312 66.225397,17 48,17 z m 0,1.875 c 17.393221,0 31.125,11.456439 31.125,25.125 0,13.668561 -13.731779,25.125 -31.125,25.125 -2.586453,0 -5.094885,-0.268215 -7.5,-0.75 a 1.8821808,1.8821808 0 0 0 -1.71875,0.53125 c -2.229762,2.327391 -5.862118,5.104965 -10.90625,6.21875 0.603013,-0.636706 1.319873,-1.240512 1.75,-1.90625 1.573141,-2.434865 2.115946,-4.881651 2.3125,-6.3125 A 1.8821808,1.8821808 0 0 0 30.9375,65 C 22.366775,60.448498 16.875,52.705921 16.875,44 16.875,30.331439 30.606779,18.875 48,18.875 z" />
      <g
         style="display:inline"
         id="layer4">
        <path
           style="font-size:50.15510178px;font-style:normal;font-variant:normal;font-weight:bold;font-stretch:normal;text-align:start;line-height:125%;writing-mode:lr-tb;text-anchor:start;opacity:0.05;fill:#000000;fill-opacity:1;stroke:none;font-family:Sans;-inkscape-font-specification:Abandoned Bitplane Bold"
           id="path3696"
           inkscape:connector-curvature="0"
           d="m 43.53125,25.0625 c -1.148369,0.175617 -1.633463,1.303386 -1.776717,2.335818 C 41.169689,29.765545 40.584844,32.132773 40,34.5 c -2.383702,0.02098 -4.781011,-0.04188 -7.15625,0.03125 -1.182816,0.214906 -1.739885,1.465459 -1.5625,2.576104 0.04144,1.669205 -0.08311,3.365346 0.0625,5.017646 0.251022,1.193859 1.558543,1.633737 2.656496,1.46875 1.218668,0 2.437336,0 3.656004,0 -0.239583,0.9375 -0.479167,1.875 -0.71875,2.8125 -2.32985,0.0423 -4.6871,-0.08425 -7,0.0625 -1.193859,0.251022 -1.633737,1.558543 -1.46875,2.656496 0.04249,1.652654 -0.08462,3.332829 0.0625,4.968504 0.251022,1.193859 1.558543,1.633737 2.656496,1.46875 1.187418,0 2.374836,0 3.562254,0 -0.588247,2.470387 -1.301519,4.928271 -1.8125,7.40625 -0.06943,1.301788 1.285116,2.180678 2.495711,1.96875 1.842958,-0.05369 3.707719,0.112817 5.535539,-0.09375 1.47237,-0.52632 1.3666,-2.291824 1.789529,-3.541681 0.476407,-1.91319 0.952814,-3.826379 1.429221,-5.739569 0.833333,0 1.666667,0 2.5,0 -0.588247,2.470387 -1.301519,4.928271 -1.8125,7.40625 -0.06943,1.301788 1.285116,2.180678 2.495711,1.96875 1.821961,-0.05534 3.666293,0.11524 5.473039,-0.09375 1.47237,-0.52632 1.3666,-2.291824 1.789529,-3.541681 0.476407,-1.91319 0.952814,-3.826379 1.429221,-5.739569 2.362791,-0.02146 4.739451,0.04254 7.09375,-0.03125 1.182816,-0.214906 1.739885,-1.465459 1.5625,-2.576104 -0.04252,-1.689862 0.08466,-3.407264 -0.0625,-5.080146 -0.251022,-1.193859 -1.558543,-1.633737 -2.656496,-1.46875 -1.229085,0 -2.458169,0 -3.687254,0 0.239583,-0.9375 0.479167,-1.875 0.71875,-2.8125 2.34035,-0.04178 4.707817,0.08353 7.03125,-0.0625 1.193859,-0.251022 1.633737,-1.558543 1.46875,-2.656496 -0.04138,-1.632 0.08304,-3.290907 -0.0625,-4.906004 -0.251022,-1.193859 -1.558543,-1.633737 -2.656496,-1.46875 -1.177001,0 -2.354003,0 -3.531004,0 0.599133,-2.491216 1.323085,-4.969594 1.84375,-7.46875 0.06943,-1.301788 -1.285116,-2.180678 -2.495711,-1.96875 -1.821961,0.05534 -3.666293,-0.11524 -5.473039,0.09375 -1.471362,0.526572 -1.367662,2.291558 -1.793543,3.540678 -0.485485,1.934357 -0.970971,3.868715 -1.456457,5.803072 -0.833333,0 -1.666667,0 -2.5,0 0.599133,-2.491216 1.323085,-4.969594 1.84375,-7.46875 0.06943,-1.301788 -1.285116,-2.180678 -2.495711,-1.96875 -1.741013,0 -3.482027,0 -5.223039,0 z m 3.5625,18.53125 c 0.822917,0 1.645833,0 2.46875,0 -0.239583,0.9375 -0.479167,1.875 -0.71875,2.8125 -0.822917,0 -1.645833,0 -2.46875,0 0.239583,-0.9375 0.479167,-1.875 0.71875,-2.8125 z" />
        <path
           inkscape:connector-curvature="0"
           style="font-size:50.15510178px;font-style:normal;font-variant:normal;font-weight:bold;font-stretch:normal;text-align:start;line-height:125%;writing-mode:lr-tb;text-anchor:start;opacity:0.12000002;fill:#000000;fill-opacity:1;stroke:none;font-family:Sans;-inkscape-font-specification:Abandoned Bitplane Bold"
           id="path3692"
           d="m 43.75,26 a 1.00149,1.00149 0 0 0 -0.875,0.75 l -2.15625,8.6875 -7.5,0 a 1.00149,1.00149 0 0 0 -1,1 l 0,5.21875 a 1.00149,1.00149 0 0 0 1,1 l 5.625,0 -1.1875,4.6875 -7.25,0 a 1.00149,1.00149 0 0 0 -1,1 l 0,5.28125 a 1.00149,1.00149 0 0 0 1,1 l 5.53125,0 -2.03125,8.125 A 1.00149,1.00149 0 0 0 34.875,64 l 5.46875,0 a 1.00149,1.00149 0 0 0 0.96875,-0.75 l 2.15625,-8.625 4.40625,0 -2.03125,8.125 A 1.00149,1.00149 0 0 0 46.8125,64 l 5.40625,0 a 1.00149,1.00149 0 0 0 0.96875,-0.75 l 2.15625,-8.625 7.4375,0 a 1.00149,1.00149 0 0 0 1,-1 l 0,-5.28125 a 1.00149,1.00149 0 0 0 -1,-1 l -5.65625,0 1.1875,-4.6875 7.28125,0 a 1.00149,1.00149 0 0 0 1,-1 l 0,-5.21875 a 1.00149,1.00149 0 0 0 -1,-1 l -5.5,0 2.0625,-8.1875 A 1.00149,1.00149 0 0 0 61.1875,26 l -5.40625,0 a 1.00149,1.00149 0 0 0 -0.96875,0.75 l -2.1875,8.6875 -4.40625,0 2.0625,-8.1875 A 1.00149,1.00149 0 0 0 49.3125,26 l -5.46875,0 A 1.00149,1.00149 0 0 0 43.75,26 z m 2.625,16.65625 4.40625,0 -1.21875,4.6875 -4.40625,0 1.21875,-4.6875 z" />
        <path
           style="font-size:50.15510178px;font-style:normal;font-variant:normal;font-weight:bold;font-stretch:normal;text-align:start;line-height:125%;writing-mode:lr-tb;text-anchor:start;opacity:0.3;fill:#000000;fill-opacity:1;stroke:none;font-family:Sans;-inkscape-font-specification:Abandoned Bitplane Bold"
           id="path3715"
           inkscape:connector-curvature="0"
           d="m 49.297959,27 -2.351021,9.428572 6.465306,0 L 55.787755,27 61.2,27 l -2.375511,9.428572 6.783674,0 0,5.216326 -8.081633,0 -1.689796,6.710204 6.955102,0 0,5.265306 -8.228571,0 L 52.212244,63 46.8,63 l 2.35102,-9.379592 -6.465306,0 L 40.334694,63 l -5.461225,0 2.35102,-9.379592 -6.832653,0 0,-5.265306 8.032653,0 1.714286,-6.710204 -6.930612,0 0,-5.216326 8.277551,0 L 43.836734,27 l 5.461225,0 m 2.767347,14.644898 -6.465306,0 -1.714286,6.710204 6.465306,0 1.714286,-6.710204" />
        <g
           style="font-size:48px;font-style:normal;font-variant:normal;font-weight:normal;font-stretch:normal;text-align:start;line-height:125%;writing-mode:tb-rl;text-anchor:start;fill:#ff00ff;fill-opacity:1;stroke:none;font-family:American Participants;-inkscape-font-specification:American Participants"
           id="g3709"
           transform="matrix(0.94113621,0,0,0.94221106,4.5900791,2.5953791)" />
        <path
           style="font-size:50.15510178px;font-style:normal;font-variant:normal;font-weight:bold;font-stretch:normal;text-align:start;line-height:125%;writing-mode:lr-tb;text-anchor:start;fill:url(#linearGradient3912);fill-opacity:1;stroke:none;font-family:Sans;-inkscape-font-specification:Abandoned Bitplane Bold"
           id="path3658"
           inkscape:connector-curvature="0"
           d="m 49.297959,26 -2.351021,9.428572 6.465306,0 L 55.787755,26 61.2,26 l -2.375511,9.428572 6.783674,0 0,5.216326 -8.081633,0 -1.689796,6.710204 6.955102,0 0,5.265306 -8.228571,0 L 52.212244,62 46.8,62 l 2.35102,-9.379592 -6.465306,0 L 40.334694,62 l -5.461225,0 2.35102,-9.379592 -6.832653,0 0,-5.265306 8.032653,0 1.714286,-6.710204 -6.930612,0 0,-5.216326 8.277551,0 L 43.836734,26 l 5.461225,0 m 2.767347,14.644898 -6.465306,0 -1.714286,6.710204 6.465306,0 1.714286,-6.710204" />
        <path
           style="font-size:50.15510178px;font-style:normal;font-variant:normal;font-weight:bold;font-stretch:normal;text-align:start;line-height:125%;writing-mode:lr-tb;text-anchor:start;fill:#ffffff;fill-opacity:1;stroke:none;font-family:Sans;-inkscape-font-specification:Abandoned Bitplane Bold"
           id="path3723"
           inkscape:connector-curvature="0"
           d="M 43.84375,26 41.5,35.4375 l -8.28125,0 0,1 8.28125,0 2.34375,-9.4375 5.21875,0 0.25,-1 -5.46875,0 z m 11.9375,0 -2.375,9.4375 -6.21875,0 -0.25,1 6.46875,0 2.375,-9.4375 5.15625,0 0.25,-1 -5.40625,0 z m 3.28125,9.4375 -0.25,1 6.78125,0 0,-1 -6.53125,0 z m -19.1875,6.21875 -1.4375,5.6875 -8.03125,0 0,1 8.03125,0 1.6875,-6.6875 -0.25,0 z m 11.9375,0 -1.46875,5.6875 -6.21875,0 -0.25,1 6.46875,0 1.71875,-6.6875 -0.25,0 z m 4.28125,5.6875 -0.25,1 6.9375,0 0,-1 -6.6875,0 z M 36.96875,53.625 34.875,62 l 0.25,0 2.09375,-8.375 -0.25,0 z m 11.9375,0 -2.09375,8.375 0.25,0 2.09375,-8.375 -0.25,0 z" />
      </g>
    </g>
    <rect
       ry="25"
       rx="25"
       id="rect3003"
       style="opacity:0.15;fill:#ffffff;fill-opacity:1"
       height="92"
       width="92"
       y="958.36218"
       x="-96"
       clip-path="url(#clipPath3009)"
       transform="translate(98,3.8281269e-7)" />
  </g>
</svg>
