<?xml version="1.0" encoding="UTF-8" standalone="no"?>
<!-- Created with Inkscape (http://www.inkscape.org/) -->

<svg
   xmlns:dc="http://purl.org/dc/elements/1.1/"
   xmlns:cc="http://creativecommons.org/ns#"
   xmlns:rdf="http://www.w3.org/1999/02/22-rdf-syntax-ns#"
   xmlns:svg="http://www.w3.org/2000/svg"
   xmlns="http://www.w3.org/2000/svg"
   xmlns:xlink="http://www.w3.org/1999/xlink"
   xmlns:sodipodi="http://sodipodi.sourceforge.net/DTD/sodipodi-0.dtd"
   xmlns:inkscape="http://www.inkscape.org/namespaces/inkscape"
   width="96"
   height="96"
   id="svg11037"
   version="1.1"
   inkscape:version="0.48.3.1 r9886"
   sodipodi:docname="xterm.svg">
  <defs
     id="defs11039">
    <linearGradient
       y2="1046.1001"
       x2="47.999954"
       y1="962.62189"
       x1="47.999954"
       gradientTransform="matrix(1.15,0,0,1.15,-7.1999462,-150.65291)"
       gradientUnits="userSpaceOnUse"
       id="linearGradient3886"
       xlink:href="#linearGradient3795"
       inkscape:collect="always" />
    <linearGradient
       id="linearGradient3795">
      <stop
         style="stop-color:#13a6fd;stop-opacity:1;"
         offset="0"
         id="stop3797" />
      <stop
         style="stop-color:#2975b6;stop-opacity:1;"
         offset="1"
         id="stop3799" />
    </linearGradient>
    <linearGradient
       y2="1046.1001"
       x2="47.999954"
       y1="962.62189"
       x1="47.999954"
       gradientTransform="matrix(1.15,0,0,1.15,-7.1999462,-150.65292)"
       gradientUnits="userSpaceOnUse"
       id="linearGradient11642"
       xlink:href="#linearGradient3795"
       inkscape:collect="always" />
    <radialGradient
       cx="47.098362"
       cy="78.286942"
       r="38.957481"
       fx="47.098362"
       fy="78.286942"
       id="radialGradient3205"
       xlink:href="#linearGradient3224"
       gradientUnits="userSpaceOnUse"
       gradientTransform="matrix(1.3830053,-1.0350102e-8,0,1.3123934,-18.038924,-24.218731)" />
    <linearGradient
       id="linearGradient3224">
      <stop
         id="stop3226"
         style="stop-color:#42394b;stop-opacity:1"
         offset="0" />
      <stop
         id="stop3228"
         style="stop-color:#000000;stop-opacity:1"
         offset="1" />
    </linearGradient>
    <clipPath
       clipPathUnits="userSpaceOnUse"
       id="clipPath3036">
      <rect
         x="8.1408806"
         y="8.8493147"
         width="77.921623"
         height="77.921623"
         style="fill:url(#linearGradient3040);fill-opacity:1"
         id="rect3038"
         rx="21.174353"
         ry="21.174353" />
    </clipPath>
    <linearGradient
       inkscape:collect="always"
       xlink:href="#linearGradient3795"
       id="linearGradient3040"
       gradientUnits="userSpaceOnUse"
       gradientTransform="matrix(0.97402025,0,0,0.97402025,0.34876421,-930.45779)"
       x1="47.999954"
       y1="962.62189"
       x2="47.999954"
       y2="1046.1001" />
    <clipPath
       clipPathUnits="userSpaceOnUse"
       id="clipPath3009">
      <path
         id="path3011"
         d="m -2,956.36218 -96,0 0,33.5624 96,25.68742 0,-59.24982 z"
         style="opacity:0.15;fill:#ffffff;fill-opacity:1;stroke:none"
         inkscape:connector-curvature="0" />
    </clipPath>
  </defs>
  <sodipodi:namedview
     id="base"
     pagecolor="#ffffff"
     bordercolor="#666666"
     borderopacity="1.0"
     inkscape:pageopacity="0.0"
     inkscape:pageshadow="2"
     inkscape:zoom="3.959798"
     inkscape:cx="37.957448"
     inkscape:cy="59.964634"
     inkscape:document-units="px"
     inkscape:current-layer="layer1"
     showgrid="false"
     inkscape:window-width="1280"
     inkscape:window-height="750"
     inkscape:window-x="0"
     inkscape:window-y="22"
     inkscape:window-maximized="1"
     showguides="true"
     inkscape:guide-bbox="true">
    <sodipodi:guide
       orientation="0,1"
       position="-24.748737,0"
       id="guide11064" />
    <sodipodi:guide
       orientation="0,1"
       position="-23.233509,96"
       id="guide11066" />
    <sodipodi:guide
       orientation="1,0"
       position="0,54.800776"
       id="guide11068" />
    <sodipodi:guide
       orientation="1,0"
       position="96,51.012704"
       id="guide11070" />
    <sodipodi:guide
       orientation="0,1"
       position="-18.94036,48"
       id="guide11072" />
    <sodipodi:guide
       orientation="1,0"
       position="48,79.296975"
       id="guide11074" />
    <sodipodi:guide
       orientation="1,0"
       position="2,75.508903"
       id="guide11076" />
    <sodipodi:guide
       orientation="0,1"
       position="-77.27667,2"
       id="guide11078" />
    <sodipodi:guide
       orientation="1,0"
       position="94,77.781746"
       id="guide11080" />
    <sodipodi:guide
       orientation="0,1"
       position="-65.912454,94"
       id="guide11082" />
  </sodipodi:namedview>
  <metadata
     id="metadata11042">
    <rdf:RDF>
      <cc:Work
         rdf:about="">
        <dc:format>image/svg+xml</dc:format>
        <dc:type
           rdf:resource="http://purl.org/dc/dcmitype/StillImage" />
        <dc:title />
      </cc:Work>
    </rdf:RDF>
  </metadata>
  <g
     inkscape:label="Layer 1"
     inkscape:groupmode="layer"
     id="layer1"
     transform="translate(0,-956.36218)">
    <g
       transform="matrix(1.1806736,0,0,1.1806736,-7.6117229,947.91403)"
       id="g3050"
       clip-path="url(#clipPath3036)">
      <path
         inkscape:connector-curvature="0"
         style="opacity:0.2;fill:#ff00ff;stroke:none"
         id="path3927"
         d="m 24,17.5 a 1.4854276,1.4854276 0 0 0 -1.25,2.3125 L 41.21875,48.5 22.75,76.1875 A 1.4854276,1.4854276 0 0 0 24,78.5 l 4,0 a 1.4854276,1.4854276 0 0 0 1.21875,-0.6875 l 15.6875,-23.40625 14.875,23.40625 a 1.4854276,1.4854276 0 0 0 1.25,0.6875 l 12,0 a 1.4854276,1.4854276 0 0 0 1.25,-2.3125 L 55.8125,47.5 74.28125,19.8125 a 1.4854276,1.4854276 0 0 0 -1.25,-2.3125 l -4,0 A 1.4854276,1.4854276 0 0 0 67.8125,18.1875 L 52.125,41.59375 37.25,18.1875 A 1.4854276,1.4854276 0 0 0 36,17.5 l -12,0 z" />
      <rect
         style="fill:url(#radialGradient3205);fill-opacity:1;stroke:none"
         id="rect3461"
         y="8.2544327"
         x="8.1408806"
         ry="6.1732869"
         rx="5.8527675"
         height="78.516495"
         width="77.914963" />
      <path
         style="opacity:0.2;fill:#ffffff;stroke:none"
         id="path3889"
         inkscape:connector-curvature="0"
         d="M 24,19 43,48.508772 24,77 28,77 51.03125,42.626096 36,19 24,19 z M 69.03125,19 46,53.373904 61.03125,77 l 12,0 -19,-29.508772 19,-28.491228 -4,0 z" />
      <path
         style="opacity:0.07999998;fill:#d9c6ed;fill-opacity:1;stroke:none"
         id="rect3256"
         inkscape:connector-curvature="0"
         d="m 14,8.25 c -3.242433,0 -5.84375,2.7675 -5.84375,6.1875 l 0,49.0625 C 26.980304,49.641102 53.967914,39.706343 86.0625,41.71875 l 0,-27.28125 c 0,-3.420001 -2.63257,-6.1875 -5.875,-6.1875 L 14,8.25 z" />
      <path
         inkscape:connector-curvature="0"
         style="font-size:48px;font-style:normal;font-variant:normal;font-weight:bold;font-stretch:normal;text-align:start;line-height:125%;writing-mode:lr-tb;text-anchor:start;opacity:0.1;fill:#000000;fill-opacity:1;stroke:none;display:inline;font-family:MgOpen Canonica;-inkscape-font-specification:MgOpen Canonica Bold"
         id="path3883"
         d="M 23.8125,24.0625 A 0.94073904,0.94073904 0 0 0 23.0625,25 l 0,4 a 0.94073904,0.94073904 0 0 0 0.59375,0.875 L 29.375,32.09375 23.65625,34.25 a 0.94073904,0.94073904 0 0 0 -0.59375,0.875 l 0,3.875 a 0.94073904,0.94073904 0 0 0 1.28125,0.875 l 11.9375,-4.90625 a 0.94073904,0.94073904 0 0 0 0.59375,-0.875 L 36.9375,30.25 A 0.94073904,0.94073904 0 0 0 36.375,29.375 l -12,-5.25 a 0.94073904,0.94073904 0 0 0 -0.5625,-0.0625 z m 12.09375,14 A 0.94073904,0.94073904 0 0 0 35.0625,39 l 0,4 A 0.94073904,0.94073904 0 0 0 36,43.9375 l 12,0 A 0.94073904,0.94073904 0 0 0 48.9375,43 l 0,-4 A 0.94073904,0.94073904 0 0 0 48,38.0625 l -12,0 a 0.94073904,0.94073904 0 0 0 -0.09375,0 z" />
      <path
         style="font-size:48px;font-style:normal;font-variant:normal;font-weight:bold;font-stretch:normal;text-align:start;line-height:125%;writing-mode:lr-tb;text-anchor:start;opacity:0.2;fill:#000000;fill-opacity:1;stroke:none;display:inline;font-family:MgOpen Canonica;-inkscape-font-specification:MgOpen Canonica Bold"
         id="path3874"
         inkscape:connector-curvature="0"
         d="m 24,25 0,4 8,3.09375 L 24,35.125 24,39 35.9375,34.09375 36,30.25 24,25 z m 12,14 0,4 12,0 0,-4 -12,0 z" />
      <path
         style="font-size:48px;font-style:normal;font-variant:normal;font-weight:bold;font-stretch:normal;text-align:start;line-height:125%;writing-mode:lr-tb;text-anchor:start;fill:#ffffff;fill-opacity:1;stroke:none;display:inline;font-family:MgOpen Canonica;-inkscape-font-specification:MgOpen Canonica Bold"
         id="path3213"
         inkscape:connector-curvature="0"
         d="m 24,24 0,4.002171 8.011647,3.093117 L 24,34.127758 24,38 35.946726,33.083525 36,29.24142 24,24 z" />
      <path
         style="font-size:48px;font-style:normal;font-variant:normal;font-weight:bold;font-stretch:normal;text-align:start;line-height:125%;writing-mode:lr-tb;text-anchor:start;fill:#ffffff;fill-opacity:1;stroke:none;display:inline;font-family:MgOpen Canonica;-inkscape-font-specification:MgOpen Canonica Bold"
         id="path3557"
         inkscape:connector-curvature="0"
         d="m 36,38 0,4 12,0 0,-4 -12,0 z" />
      <path
         style="font-size:medium;font-style:normal;font-variant:normal;font-weight:normal;font-stretch:normal;text-indent:0;text-align:start;text-decoration:none;line-height:normal;letter-spacing:normal;word-spacing:normal;text-transform:none;direction:ltr;block-progression:tb;writing-mode:lr-tb;text-anchor:start;opacity:0.15;color:#000000;fill:#000000;fill-opacity:1;stroke:none;stroke-width:4;marker:none;visibility:visible;display:inline;overflow:visible;enable-background:accumulate;font-family:Abandoned Bitplane;-inkscape-font-specification:Abandoned Bitplane"
         id="rect3222-3"
         inkscape:connector-curvature="0"
         d="m 19,13 c -3.289406,0 -6,2.710594 -6,6 l 0,58 c 0,3.289406 2.710594,6 6,6 l 58,0 c 3.289406,0 6,-2.710594 6,-6 l 0,-58 c 0,-3.289406 -2.710594,-6 -6,-6 l -58,0 z m 0,4 58,0 c 1.142594,0 2,0.857406 2,2 l 0,58 c 0,1.142594 -0.857406,2 -2,2 l -58,0 c -1.142594,0 -2,-0.857406 -2,-2 l 0,-58 c 0,-1.142594 0.857406,-2 2,-2 z" />
      <path
         style="opacity:0.3;color:#000000;fill:#000000;fill-opacity:1;fill-rule:nonzero;stroke:none;stroke-width:1;marker:none;visibility:visible;display:inline;overflow:visible;enable-background:accumulate"
         id="rect3981"
         inkscape:connector-curvature="0"
         d="m 17,14 c -1.662,0 -3,1.338 -3,3 l 0,62 c 0,1.662 1.338,3 3,3 l 62,0 c 1.662,0 3,-1.338 3,-3 l 0,-62 c 0,-1.662 -1.338,-3 -3,-3 l -62,0 z m 0,1.9375 62,0 c 0.618163,0 1.0625,0.444337 1.0625,1.0625 l 0,62 c 0,0.618163 -0.444337,1.0625 -1.0625,1.0625 l -62,0 c -0.618163,0 -1.0625,-0.444337 -1.0625,-1.0625 l 0,-62 c 0,-0.618163 0.444337,-1.0625 1.0625,-1.0625 z" />
      <path
         style="opacity:0.6;color:#000000;fill:#000000;fill-opacity:1;fill-rule:nonzero;stroke:none;stroke-width:1;marker:none;visibility:visible;display:inline;overflow:visible;enable-background:accumulate"
         id="rect3977"
         inkscape:connector-curvature="0"
         d="m 17,14 c -1.662,0 -3,1.338 -3,3 l 0,62 c 0,1.662 1.338,3 3,3 l 62,0 c 1.662,0 3,-1.338 3,-3 l 0,-62 c 0,-1.662 -1.338,-3 -3,-3 l -62,0 z m 0,0.96875 62,0 c 1.140081,0 2.03125,0.891169 2.03125,2.03125 l 0,62 c 0,1.140081 -0.891169,2.03125 -2.03125,2.03125 l -62,0 c -1.140081,0 -2.03125,-0.891169 -2.03125,-2.03125 l 0,-62 c 0,-1.140081 0.891169,-2.03125 2.03125,-2.03125 z" />
    </g>
    <rect
       ry="25"
       rx="25"
       id="rect3003"
       style="opacity:0.15;fill:#ffffff;fill-opacity:1"
       height="92"
       width="92"
       y="958.36218"
       x="-96"
       clip-path="url(#clipPath3009)"
       transform="translate(98,3.8281269e-7)" />
  </g>
</svg>
