<?xml version="1.0" encoding="UTF-8" standalone="no"?>
<!-- Created with Inkscape (http://www.inkscape.org/) -->

<svg
   xmlns:dc="http://purl.org/dc/elements/1.1/"
   xmlns:cc="http://creativecommons.org/ns#"
   xmlns:rdf="http://www.w3.org/1999/02/22-rdf-syntax-ns#"
   xmlns:svg="http://www.w3.org/2000/svg"
   xmlns="http://www.w3.org/2000/svg"
   xmlns:xlink="http://www.w3.org/1999/xlink"
   xmlns:sodipodi="http://sodipodi.sourceforge.net/DTD/sodipodi-0.dtd"
   xmlns:inkscape="http://www.inkscape.org/namespaces/inkscape"
   width="96"
   height="96"
   id="svg11037"
   version="1.1"
   inkscape:version="0.48.3.1 r9886"
   sodipodi:docname="zim.svg">
  <defs
     id="defs11039">
    <linearGradient
       y2="1046.1001"
       x2="47.999954"
       y1="962.62189"
       x1="47.999954"
       gradientTransform="matrix(1.15,0,0,1.15,-7.1999462,-150.65291)"
       gradientUnits="userSpaceOnUse"
       id="linearGradient3886"
       xlink:href="#linearGradient3795"
       inkscape:collect="always" />
    <linearGradient
       id="linearGradient3795">
      <stop
         style="stop-color:#13a6fd;stop-opacity:1;"
         offset="0"
         id="stop3797" />
      <stop
         style="stop-color:#2975b6;stop-opacity:1;"
         offset="1"
         id="stop3799" />
    </linearGradient>
    <linearGradient
       y2="1046.1001"
       x2="47.999954"
       y1="962.62189"
       x1="47.999954"
       gradientTransform="matrix(1.15,0,0,1.15,-7.1999462,-150.65292)"
       gradientUnits="userSpaceOnUse"
       id="linearGradient11642"
       xlink:href="#linearGradient3795"
       inkscape:collect="always" />
    <linearGradient
       x1="72"
       y1="88"
       x2="72"
       y2="48"
       id="linearGradient3999"
       xlink:href="#linearGradient4161"
       gradientUnits="userSpaceOnUse" />
    <linearGradient
       id="linearGradient4161">
      <stop
         id="stop4163"
         style="stop-color:#737373;stop-opacity:1"
         offset="0" />
      <stop
         id="stop4165"
         style="stop-color:#989898;stop-opacity:1"
         offset="1" />
    </linearGradient>
    <linearGradient
       x1="64"
       y1="64"
       x2="64"
       y2="8"
       id="linearGradient4143"
       xlink:href="#color_3_"
       gradientUnits="userSpaceOnUse" />
    <linearGradient
       x1="84.25"
       y1="128.9995"
       x2="84.25"
       y2="216.5005"
       id="color_3_"
       gradientUnits="userSpaceOnUse">
      <stop
         id="stop48"
         style="stop-color:#d8d8d8;stop-opacity:1"
         offset="0" />
      <stop
         id="stop50"
         style="stop-color:#f9f9f9;stop-opacity:1"
         offset="1" />
    </linearGradient>
    <linearGradient
       x1="24"
       y1="88"
       x2="24"
       y2="48"
       id="linearGradient4159"
       xlink:href="#linearGradient3700"
       gradientUnits="userSpaceOnUse" />
    <linearGradient
       id="linearGradient3700">
      <stop
         id="stop3702"
         style="stop-color:#b5b5b5;stop-opacity:1"
         offset="0" />
      <stop
         id="stop3704"
         style="stop-color:#dedede;stop-opacity:1"
         offset="1" />
    </linearGradient>
    <linearGradient
       x1="24"
       y1="64"
       x2="24"
       y2="8"
       id="linearGradient4007"
       xlink:href="#linearGradient3325"
       gradientUnits="userSpaceOnUse" />
    <linearGradient
       id="linearGradient3325">
      <stop
         id="stop3327"
         style="stop-color:#f06805;stop-opacity:1"
         offset="0" />
      <stop
         id="stop3329"
         style="stop-color:#ffb03c;stop-opacity:1"
         offset="1" />
    </linearGradient>
    <clipPath
       clipPathUnits="userSpaceOnUse"
       id="clipPath3060">
      <rect
         x="6"
         y="6.0000038"
         width="84"
         height="84"
         style="fill:url(#linearGradient3064);fill-opacity:1"
         id="rect3062"
         rx="22.826086"
         ry="22.826086" />
    </clipPath>
    <linearGradient
       inkscape:collect="always"
       xlink:href="#linearGradient3795"
       id="linearGradient3064"
       gradientUnits="userSpaceOnUse"
       gradientTransform="matrix(1.05,0,0,1.05,-2.3999508,-1006.579)"
       x1="47.999954"
       y1="962.62189"
       x2="47.999954"
       y2="1046.1001" />
    <clipPath
       clipPathUnits="userSpaceOnUse"
       id="clipPath3009">
      <path
         id="path3011"
         d="m -2,956.36218 -96,0 0,33.5624 96,25.68742 0,-59.24982 z"
         style="opacity:0.15;fill:#ffffff;fill-opacity:1;stroke:none"
         inkscape:connector-curvature="0" />
    </clipPath>
  </defs>
  <sodipodi:namedview
     id="base"
     pagecolor="#ffffff"
     bordercolor="#666666"
     borderopacity="1.0"
     inkscape:pageopacity="0.0"
     inkscape:pageshadow="2"
     inkscape:zoom="3.959798"
     inkscape:cx="37.957448"
     inkscape:cy="59.964634"
     inkscape:document-units="px"
     inkscape:current-layer="layer1"
     showgrid="false"
     inkscape:window-width="1280"
     inkscape:window-height="750"
     inkscape:window-x="0"
     inkscape:window-y="22"
     inkscape:window-maximized="1"
     showguides="true"
     inkscape:guide-bbox="true">
    <sodipodi:guide
       orientation="0,1"
       position="-24.748737,0"
       id="guide11064" />
    <sodipodi:guide
       orientation="0,1"
       position="-23.233509,96"
       id="guide11066" />
    <sodipodi:guide
       orientation="1,0"
       position="0,54.800776"
       id="guide11068" />
    <sodipodi:guide
       orientation="1,0"
       position="96,51.012704"
       id="guide11070" />
    <sodipodi:guide
       orientation="0,1"
       position="-18.94036,48"
       id="guide11072" />
    <sodipodi:guide
       orientation="1,0"
       position="48,79.296975"
       id="guide11074" />
    <sodipodi:guide
       orientation="1,0"
       position="2,75.508903"
       id="guide11076" />
    <sodipodi:guide
       orientation="0,1"
       position="-77.27667,2"
       id="guide11078" />
    <sodipodi:guide
       orientation="1,0"
       position="94,77.781746"
       id="guide11080" />
    <sodipodi:guide
       orientation="0,1"
       position="-65.912454,94"
       id="guide11082" />
  </sodipodi:namedview>
  <metadata
     id="metadata11042">
    <rdf:RDF>
      <cc:Work
         rdf:about="">
        <dc:format>image/svg+xml</dc:format>
        <dc:type
           rdf:resource="http://purl.org/dc/dcmitype/StillImage" />
        <dc:title />
      </cc:Work>
    </rdf:RDF>
  </metadata>
  <g
     inkscape:label="Layer 1"
     inkscape:groupmode="layer"
     id="layer1"
     transform="translate(0,-956.36218)">
    <g
       transform="matrix(1.0952381,0,0,1.0952381,-4.5714286,951.79075)"
       style="display:inline"
       id="g3058"
       clip-path="url(#clipPath3060)">
      <rect
         style="fill:#323232;fill-opacity:1;fill-rule:nonzero;stroke:none;display:inline"
         id="rect2419"
         y="6"
         x="6"
         ry="6"
         rx="6"
         height="84"
         width="84" />
      <path
         style="color:#000000;fill:url(#linearGradient3999);fill-opacity:1;fill-rule:nonzero;stroke:none;stroke-width:2;marker:none;visibility:visible;display:inline;overflow:visible;enable-background:accumulate"
         id="path4111"
         inkscape:connector-curvature="0"
         d="m 49.53125,49.53125 0,4.28125 0,3.1875 0,9.53125 c -0.0036,0.198326 -0.130801,0.38918 -0.3125,0.46875 -1.1043,0.55215 -2.840301,0.430683 -5.28125,-1.375 -0.359013,-0.189499 -0.853049,-0.481799 -1.375,-0.71875 -0.521951,-0.236951 -1.06602,-0.401018 -1.375,-0.40625 -1.286727,0 -2.474281,0.750188 -3.375,2.0625 -0.900719,1.312312 -1.46875,3.161468 -1.46875,5.21875 0,2.057282 0.568631,3.914554 1.46875,5.21875 0.885379,1.282839 2.04835,2.007282 3.3125,2.03125 0.02105,3.99e-4 0.0414,0 0.0625,0 0.949254,-0.126095 2.351515,-0.803879 2.6875,-1.0625 2.484666,-1.8635 4.236277,-1.959987 5.34375,-1.40625 0.181699,0.07957 0.308935,0.270424 0.3125,0.46875 L 49.53125,90 84,90 c 3.324,0 6,-2.676 6,-6 l 0,-34.46875 -17.78125,0 c -0.232286,0.734967 -0.153994,1.930091 1.375,3.96875 0.470576,0.611343 1.198945,1.964322 1.34375,3.25 0.0012,0.02081 0.0012,0.04169 0,0.0625 0,1.695612 -1.014267,3.208803 -2.53125,4.25 -1.516983,1.041197 -3.561962,1.65625 -5.8125,1.65625 -2.250538,0 -4.303026,-0.614454 -5.8125,-1.65625 -1.509474,-1.041796 -2.5,-2.556211 -2.5,-4.25 0.01027,-0.606331 0.269794,-1.236568 0.53125,-1.8125 0.261456,-0.575932 0.542376,-1.103354 0.71875,-1.4375 0.01902,-0.02255 0.03995,-0.04348 0.0625,-0.0625 1.528994,-2.038659 1.607286,-3.233783 1.375,-3.96875 l -4.96875,0 -3.1875,0 z" />
      <path
         style="color:#000000;fill:url(#linearGradient4143);fill-opacity:1;fill-rule:nonzero;stroke:none;stroke-width:2;marker:none;visibility:visible;display:inline;overflow:visible;enable-background:accumulate"
         id="path4113"
         inkscape:connector-curvature="0"
         d="m 49.40625,6 0,15.84375 c 0.763546,0.282462 2.018339,0.228434 4.15625,-1.375 0.585545,-0.450716 1.967681,-1.140338 3.21875,-1.28125 0.01041,-3.9e-4 0.02084,-3.9e-4 0.03125,0 1.654722,0 3.129101,0.972234 4.15625,2.46875 1.027149,1.496516 1.625,3.518788 1.625,5.75 0,2.231212 -0.597371,4.261054 -1.625,5.75 -1.027629,1.488946 -2.502986,2.4375 -4.15625,2.4375 -0.576598,-0.0098 -1.179466,-0.240994 -1.75,-0.5 -0.570534,-0.259006 -1.100871,-0.541066 -1.4375,-0.71875 -0.02166,-0.0086 -0.04259,-0.01911 -0.0625,-0.03125 -2.137911,-1.603434 -3.392704,-1.657462 -4.15625,-1.375 l 0,7.03125 0,3.1875 0,5.40625 3.40625,0 3.1875,0 5.375,0 c 0.152154,-0.0028 0.302567,0.08491 0.375,0.21875 0.531828,1.063656 0.428724,2.755734 -1.375,5.1875 -0.0083,0.01577 -0.02255,0.04613 -0.03125,0.0625 -0.187912,0.353513 -0.458692,0.839732 -0.6875,1.34375 -0.2394,0.52735 -0.431763,1.067535 -0.4375,1.40625 0,1.327617 0.792221,2.553984 2.125,3.46875 1.332779,0.914766 3.204642,1.5 5.28125,1.5 2.076608,0 3.956527,-0.585713 5.28125,-1.5 1.314311,-0.9071 2.081752,-2.120602 2.09375,-3.4375 -9.71e-4,-0.0086 0.0011,-0.02256 0,-0.03125 -0.119941,-0.981116 -0.842544,-2.383051 -1.125,-2.75 -1.8508,-2.467733 -1.907989,-4.184021 -1.375,-5.25 0.07243,-0.133837 0.222846,-0.221578 0.375,-0.21875 l 18.125,0 L 90,12 C 90,8.676 87.324,6 84,6 z" />
      <path
         style="color:#000000;fill:url(#linearGradient4159);fill-opacity:1;fill-rule:nonzero;stroke:none;stroke-width:2;marker:none;visibility:visible;display:inline;overflow:visible;enable-background:accumulate"
         id="path4109"
         inkscape:connector-curvature="0"
         d="M 6,49.53125 6,84 c 0,3.324 2.676,6 6,6 l 36.46875,0 0,-12.5625 c -0.734967,-0.232286 -1.930091,-0.153994 -3.96875,1.375 -0.622559,0.47921 -1.973911,1.168775 -3.25,1.3125 -0.02081,0.0012 -0.04169,0.0012 -0.0625,0 -1.693789,0 -3.208204,-0.990526 -4.25,-2.5 -1.041796,-1.509474 -1.65625,-3.561962 -1.65625,-5.8125 0,-2.250538 0.615053,-4.295517 1.65625,-5.8125 1.041197,-1.516983 2.554388,-2.53125 4.25,-2.53125 C 41.793831,63.47902 42.424067,63.738544 43,64 c 0.575933,0.261456 1.103357,0.542375 1.4375,0.71875 0.02255,0.01902 0.04348,0.03995 0.0625,0.0625 2.040701,1.530526 3.238483,1.630896 3.96875,1.40625 l 0,-9.1875 0,-3.1875 0,-4.28125 -4.28125,0 -3.1875,0 -14.78125,0 c -0.232286,0.734967 -0.153994,1.930091 1.375,3.96875 0.470577,0.611343 1.198945,1.964322 1.34375,3.25 0.0012,0.02081 0.0012,0.04169 0,0.0625 0,1.69561 -1.014267,3.208803 -2.53125,4.25 -1.516983,1.041197 -3.561962,1.65625 -5.8125,1.65625 -2.250538,0 -4.303026,-0.614453 -5.8125,-1.65625 -1.509474,-1.041797 -2.5,-2.556213 -2.5,-4.25 0.01027,-0.606333 0.269794,-1.236568 0.53125,-1.8125 0.261456,-0.575932 0.542376,-1.103356 0.71875,-1.4375 0.01902,-0.02255 0.03995,-0.04348 0.0625,-0.0625 1.528994,-2.038659 1.607286,-3.233783 1.375,-3.96875 z" />
      <path
         style="color:#000000;fill:url(#linearGradient4007);fill-opacity:1;fill-rule:nonzero;stroke:none;stroke-width:2;marker:none;visibility:visible;display:inline;overflow:visible;enable-background:accumulate"
         id="path4115"
         inkscape:connector-curvature="0"
         d="M 12,6 C 8.676,6 6,8.676 6,12 l 0,36.59375 9.375,0 c 0.152154,-0.0028 0.302567,0.08491 0.375,0.21875 0.531828,1.063656 0.428724,2.755734 -1.375,5.1875 -0.0083,0.01577 -0.02255,0.04613 -0.03125,0.0625 -0.187912,0.353513 -0.458692,0.839732 -0.6875,1.34375 -0.2394,0.52735 -0.431763,1.067535 -0.4375,1.40625 0,1.327617 0.792221,2.553984 2.125,3.46875 1.332779,0.914766 3.204642,1.5 5.28125,1.5 2.076608,0 3.956527,-0.585713 5.28125,-1.5 1.314311,-0.9071 2.081752,-2.120602 2.09375,-3.4375 -9.71e-4,-0.0086 0.0011,-0.02256 0,-0.03125 -0.119941,-0.981116 -0.842544,-2.383051 -1.125,-2.75 -1.8508,-2.467733 -1.907989,-4.184021 -1.375,-5.25 0.07243,-0.133837 0.222846,-0.221578 0.375,-0.21875 l 14.125,0 4.1875,0 4.40625,0 0,-5.40625 0,-3.1875 0,-7.3125 c -0.0028,-0.152154 0.08491,-0.302567 0.21875,-0.375 1.0568,-0.5284 2.753841,-0.460719 5.1875,1.34375 0.02114,0.01567 0.04125,0.01531 0.0625,0.03125 0.357341,0.190561 0.839324,0.482576 1.34375,0.71875 0.527548,0.247 1.072284,0.431845 1.40625,0.4375 1.327615,0 2.553984,-0.792221 3.46875,-2.125 0.914766,-1.332779 1.5,-3.204642 1.5,-5.28125 0,-2.076608 -0.585713,-3.956526 -1.5,-5.28125 -0.907101,-1.314311 -2.120604,-2.081752 -3.4375,-2.09375 -0.01043,-9.5e-5 -0.0208,0 -0.03125,0 -0.981118,0.119944 -2.383052,0.842546 -2.75,1.125 -2.467733,1.8508 -4.184021,1.907989 -5.25,1.375 -0.133837,-0.07243 -0.221578,-0.222846 -0.21875,-0.375 l 0,-16.1875 z" />
      <path
         style="font-size:18.26544952px;font-style:normal;font-variant:normal;font-weight:normal;font-stretch:normal;text-align:center;line-height:100%;writing-mode:lr-tb;text-anchor:middle;opacity:0.3;fill:#ffffff;fill-opacity:1;stroke:none;display:inline;font-family:Hoefler Text;-inkscape-font-specification:Hoefler Text"
         id="path4237"
         inkscape:connector-curvature="0"
         d="m 43.999704,17.405569 c -2e-5,0.13452 -0.03568,0.258072 -0.106813,0.370588 -0.07135,0.11256 -0.14952,0.16884 -0.234676,0.16882 -0.702944,0.07896 -1.277492,0.346063 -1.723636,0.801368 -0.44624,0.455356 -0.906618,1.323971 -1.381184,2.605882 L 33.290281,40.730303 C 33.242845,40.910099 33.109845,41 32.891327,41 32.720367,41 32.587663,40.91015 32.493223,40.730299 L 28.420101,30.644433 23.734215,40.730299 C 23.639717,40.910099 23.507035,41 23.336113,41 23.126901,41 22.989279,40.910147 22.923229,40.730299 L 15.787896,21.352225 c -0.446203,-1.203676 -0.916143,-2.044336 -1.409856,-2.521988 -0.493716,-0.477612 -1.182127,-0.772692 -2.065235,-0.885261 -0.07589,1.3e-5 -0.14706,-0.04787 -0.213385,-0.1436 C 12.033,17.705616 12,17.596052 12,17.472489 c 0,-0.314964 0.07589,-0.472456 0.227729,-0.472481 0.636252,2.5e-5 1.300907,0.03401 1.993967,0.101893 0.645528,0.06724 1.253089,0.10088 1.822717,0.10088 0.578895,1.2e-5 1.262371,-0.03364 2.050472,-0.10088 0.826316,-0.06789 1.557328,-0.101906 2.193007,-0.101906 0.15236,2.5e-5 0.228604,0.15752 0.228604,0.472481 0,0.315008 -0.04761,0.472503 -0.1425,0.472492 -0.636271,0.05636 -1.137232,0.247407 -1.502868,0.573355 -0.365659,0.326 -0.548479,0.753193 -0.548459,1.281585 -2e-5,0.269717 0.07628,0.607012 0.228587,1.011873 l 5.895843,15.769079 3.346462,-7.487711 -3.11873,-7.740934 c -0.560352,-1.383464 -1.020898,-2.274747 -1.381602,-2.673819 -0.360726,-0.399035 -0.90675,-0.643516 -1.638024,-0.733428 -0.06604,1.2e-5 -0.129973,-0.04787 -0.19166,-0.1436 -0.06165,-0.09576 -0.0926,-0.205324 -0.0926,-0.328887 0,-0.314961 0.0664,-0.472456 0.19904,-0.472481 0.63625,2.5e-5 1.220075,0.03401 1.751452,0.101893 0.512822,0.06724 1.058698,0.10088 1.637606,0.10088 0.569594,1.2e-5 1.172544,-0.03364 1.808814,-0.10088 0.655376,-0.06789 1.300904,-0.101906 1.936604,-0.101906 0.15236,2.5e-5 0.228586,0.15752 0.228604,0.472481 -1.8e-5,0.315012 -0.04744,0.472503 -0.1425,0.472492 -1.272538,0.10088 -1.908808,0.528083 -1.908788,1.281575 -2e-5,0.337656 0.14724,0.860577 0.441554,1.56877 l 2.065252,4.958527 2.050452,-4.537503 c 0.28509,-0.640256 0.427626,-1.179648 0.427644,-1.618192 -1.6e-5,-1.034846 -0.636268,-1.585905 -1.908768,-1.653177 -0.113654,1.1e-5 -0.1704,-0.15748 -0.1704,-0.472492 -1.8e-5,-0.11256 0.02828,-0.2194 0.0852,-0.320649 0.05675,-0.101134 0.11384,-0.1518 0.17116,-0.15182 0.455442,2.5e-5 1.01551,0.03401 1.680166,0.101893 0.636252,0.06725 1.158352,0.10088 1.56632,0.10088 0.29435,1.3e-5 0.726359,-0.02809 1.295991,-0.08444 0.721427,-0.07896 1.324359,-0.118333 1.808831,-0.118333 0.113453,2.5e-5 0.17038,0.1352 0.17038,0.405565 -3.6e-5,0.359632 -0.10436,0.53942 -0.312924,0.539407 -0.740591,0.08985 -1.336275,0.331649 -1.787087,0.725188 -0.450849,0.393593 -1.013517,1.287609 -1.688001,2.682061 l -2.733666,5.986864 3.701967,8.938115 5.469052,-15.060858 c 0.19004,-0.550353 0.285072,-1.056132 0.285112,-1.517316 -4e-5,-1.102093 -0.636289,-1.686782 -1.908789,-1.754054 -0.114214,1.3e-5 -0.17134,-0.15748 -0.17114,-0.472492 -1.9e-5,-0.314963 0.08539,-0.472455 0.25642,-0.47248 0.465289,2.5e-5 1.01608,0.03401 1.652368,0.101893 0.588717,0.06724 1.082413,0.10088 1.481125,0.10088 0.417779,1.3e-5 0.901911,-0.03363 1.452455,-0.10088 0.569592,-0.06788 1.082129,-0.101893 1.537629,-0.101893 0.1332,2.5e-5 0.19988,0.1352 0.19992,0.405565 l 0,0 z" />
      <path
         style="font-size:18.26544952px;font-style:normal;font-variant:normal;font-weight:normal;font-stretch:normal;text-align:center;line-height:100%;writing-mode:lr-tb;text-anchor:middle;fill:#803300;fill-opacity:1;stroke:none;display:inline;font-family:Hoefler Text;-inkscape-font-specification:Hoefler Text"
         id="text2810"
         inkscape:connector-curvature="0"
         d="m 43.999704,16.405569 c -2e-5,0.13452 -0.03568,0.258072 -0.106813,0.370588 -0.07135,0.11256 -0.14952,0.16884 -0.234676,0.16882 -0.702944,0.07896 -1.277492,0.346063 -1.723636,0.801368 -0.44624,0.455356 -0.906618,1.323971 -1.381184,2.605882 L 33.290281,39.730303 C 33.242845,39.910099 33.109845,40 32.891327,40 32.720367,40 32.587663,39.91015 32.493223,39.730299 L 28.420101,29.644433 23.734215,39.730299 C 23.639717,39.910099 23.507035,40 23.336113,40 23.126901,40 22.989279,39.910147 22.923229,39.730299 L 15.787896,20.352225 c -0.446203,-1.203676 -0.916143,-2.044336 -1.409856,-2.521988 -0.493716,-0.477612 -1.182127,-0.772692 -2.065235,-0.885261 -0.07589,1.3e-5 -0.14706,-0.04787 -0.213385,-0.1436 C 12.033,16.705616 12,16.596052 12,16.472489 c 0,-0.314964 0.07589,-0.472456 0.227729,-0.472481 0.636252,2.5e-5 1.300907,0.03401 1.993967,0.101893 0.645528,0.06724 1.253089,0.10088 1.822717,0.10088 0.578895,1.2e-5 1.262371,-0.03364 2.050472,-0.10088 0.826316,-0.06789 1.557328,-0.101906 2.193007,-0.101906 0.15236,2.5e-5 0.228604,0.15752 0.228604,0.472481 0,0.315008 -0.04761,0.472503 -0.1425,0.472492 -0.636271,0.05636 -1.137232,0.247407 -1.502868,0.573355 -0.365659,0.326 -0.548479,0.753193 -0.548459,1.281585 -2e-5,0.269717 0.07628,0.607012 0.228587,1.011873 l 5.895843,15.769079 3.346462,-7.487711 -3.11873,-7.740934 c -0.560352,-1.383464 -1.020898,-2.274747 -1.381602,-2.673819 -0.360726,-0.399035 -0.90675,-0.643516 -1.638024,-0.733428 -0.06604,1.2e-5 -0.129973,-0.04787 -0.19166,-0.1436 -0.06165,-0.09576 -0.0926,-0.205324 -0.0926,-0.328887 0,-0.314961 0.0664,-0.472456 0.19904,-0.472481 0.63625,2.5e-5 1.220075,0.03401 1.751452,0.101893 0.512822,0.06724 1.058698,0.10088 1.637606,0.10088 0.569594,1.2e-5 1.172544,-0.03364 1.808814,-0.10088 0.655376,-0.06789 1.300904,-0.101906 1.936604,-0.101906 0.15236,2.5e-5 0.228586,0.15752 0.228604,0.472481 -1.8e-5,0.315012 -0.04744,0.472503 -0.1425,0.472492 -1.272538,0.10088 -1.908808,0.528083 -1.908788,1.281575 -2e-5,0.337656 0.14724,0.860577 0.441554,1.56877 l 2.065252,4.958527 2.050452,-4.537503 c 0.28509,-0.640256 0.427626,-1.179648 0.427644,-1.618192 -1.6e-5,-1.034846 -0.636268,-1.585905 -1.908768,-1.653177 -0.113654,1.1e-5 -0.1704,-0.15748 -0.1704,-0.472492 -1.8e-5,-0.11256 0.02828,-0.2194 0.0852,-0.320649 0.05675,-0.101134 0.11384,-0.1518 0.17116,-0.15182 0.455442,2.5e-5 1.01551,0.03401 1.680166,0.101893 0.636252,0.06725 1.158352,0.10088 1.56632,0.10088 0.29435,1.3e-5 0.726359,-0.02809 1.295991,-0.08444 0.721427,-0.07896 1.324359,-0.118333 1.808831,-0.118333 0.113453,2.5e-5 0.17038,0.1352 0.17038,0.405565 -3.6e-5,0.359632 -0.10436,0.53942 -0.312924,0.539407 -0.740591,0.08985 -1.336275,0.331649 -1.787087,0.725188 -0.450849,0.393593 -1.013517,1.287609 -1.688001,2.682061 l -2.733666,5.986864 3.701967,8.938115 5.469052,-15.060858 c 0.19004,-0.550353 0.285072,-1.056132 0.285112,-1.517316 -4e-5,-1.102093 -0.636289,-1.686782 -1.908789,-1.754054 -0.114214,1.3e-5 -0.17134,-0.15748 -0.17114,-0.472492 -1.9e-5,-0.314963 0.08539,-0.472455 0.25642,-0.47248 0.465289,2.5e-5 1.01608,0.03401 1.652368,0.101893 0.588717,0.06724 1.082413,0.10088 1.481125,0.10088 0.417779,1.3e-5 0.901911,-0.03363 1.452455,-0.10088 0.569592,-0.06788 1.082129,-0.101893 1.537629,-0.101893 0.1332,2.5e-5 0.19988,0.1352 0.19992,0.405565 l 0,0 z" />
      <path
         style="opacity:0.4;color:#000000;fill:#ffffff;fill-opacity:1;fill-rule:nonzero;stroke:none;stroke-width:2;marker:none;visibility:visible;display:inline;overflow:visible;enable-background:accumulate"
         id="path3927"
         inkscape:connector-curvature="0"
         d="m 56.8125,20.0625 c -0.981118,0.119944 -2.383052,0.842546 -2.75,1.125 -2.467733,1.8508 -4.184021,1.907989 -5.25,1.375 -0.133837,-0.07243 -0.221578,-0.222846 -0.21875,-0.375 l 0,1 c -0.0028,0.152154 0.08491,0.30257 0.21875,0.375 1.065979,0.532989 2.782267,0.4758 5.25,-1.375 0.366948,-0.282454 1.768882,-1.005056 2.75,-1.125 0.01045,0 0.02082,-9.5e-5 0.03125,0 1.316896,0.012 2.530399,0.779439 3.4375,2.09375 0.841078,1.218651 1.383979,2.902011 1.46875,4.78125 0.0074,-0.163481 0.03125,-0.333722 0.03125,-0.5 0,-2.076608 -0.585713,-3.956526 -1.5,-5.28125 -0.907101,-1.314311 -2.120604,-2.081752 -3.4375,-2.09375 -0.01043,-9.5e-5 -0.0208,0 -0.03125,0 z M 15.96875,50.625 C 15.834085,51.538795 15.377743,52.648111 14.375,54 c -0.0083,0.01577 -0.02255,0.04613 -0.03125,0.0625 -0.187912,0.353513 -0.458692,0.839732 -0.6875,1.34375 -0.2394,0.52735 -0.431763,1.067535 -0.4375,1.40625 0,0.220351 0.02,0.442439 0.0625,0.65625 0.07081,-0.314372 0.201205,-0.679664 0.375,-1.0625 0.228808,-0.504018 0.499588,-0.990237 0.6875,-1.34375 0.0087,-0.01637 0.02295,-0.04673 0.03125,-0.0625 1.399042,-1.886177 1.743665,-3.326922 1.59375,-4.375 z m 9.28125,0 c -0.169687,1.058851 0.179063,2.509584 1.625,4.4375 0.254467,0.330587 0.856066,1.491348 1.0625,2.4375 0.04266,-0.211947 0.06051,-0.437678 0.0625,-0.65625 -9.71e-4,-0.0086 0.0011,-0.02256 0,-0.03125 -0.119941,-0.981116 -0.842544,-2.383051 -1.125,-2.75 -1.029622,-1.372829 -1.498368,-2.512377 -1.625,-3.4375 z" />
      <path
         style="opacity:0.7;color:#000000;fill:#ffffff;fill-opacity:1;fill-rule:nonzero;stroke:none;stroke-width:2;marker:none;visibility:visible;display:inline;overflow:visible;enable-background:accumulate"
         id="path3946"
         inkscape:connector-curvature="0"
         d="m 6,49.53125 0,1 8.96875,0 c 0.01452,0.04594 0.01944,0.106626 0.03125,0.15625 0.08661,-0.480201 0.06367,-0.855903 -0.03125,-1.15625 l -8.96875,0 z m 20.21875,0 c -0.09492,0.300347 -0.117864,0.676049 -0.03125,1.15625 0.01181,-0.04962 0.01673,-0.110315 0.03125,-0.15625 l 14.78125,0 3.1875,0 4.28125,0 0,-1 -4.28125,0 -3.1875,0 -14.78125,0 z M 12.3125,57.5 c -0.0143,0.101573 -0.02955,0.211886 -0.03125,0.3125 0,1.693787 0.990526,3.208203 2.5,4.25 1.509474,1.041797 3.561962,1.65625 5.8125,1.65625 2.250538,0 4.295517,-0.615053 5.8125,-1.65625 1.516983,-1.041197 2.53125,-2.55439 2.53125,-4.25 0.0012,-0.02081 0.0012,-0.04169 0,-0.0625 -0.0083,-0.07351 -0.05056,-0.144948 -0.0625,-0.21875 -0.242395,1.399154 -1.171847,2.641107 -2.46875,3.53125 -1.516983,1.041197 -3.561962,1.65625 -5.8125,1.65625 -2.250538,0 -4.303026,-0.614453 -5.8125,-1.65625 C 13.479035,60.163748 12.539491,58.913957 12.3125,57.5 z m 23,14.8125 c -0.0067,0.164472 -0.03125,0.333136 -0.03125,0.5 0,2.250538 0.614454,4.303026 1.65625,5.8125 1.041796,1.509474 2.556211,2.5 4.25,2.5 0.02081,0.0012 0.04169,0.0012 0.0625,0 1.276089,-0.143725 2.627441,-0.83329 3.25,-1.3125 2.038659,-1.528994 3.233783,-1.607286 3.96875,-1.375 l 0,-1 c -0.734967,-0.232286 -1.930091,-0.153994 -3.96875,1.375 -0.622559,0.47921 -1.973911,1.168775 -3.25,1.3125 -0.02081,0.0012 -0.04169,0.0012 -0.0625,0 -1.693789,0 -3.208204,-0.990526 -4.25,-2.5 -0.964553,-1.397556 -1.541592,-3.257772 -1.625,-5.3125 z" />
      <path
         style="color:#000000;fill:#ffffff;fill-opacity:1;fill-rule:nonzero;stroke:none;stroke-width:2;marker:none;visibility:visible;display:inline;overflow:visible;enable-background:accumulate"
         id="path3955"
         inkscape:connector-curvature="0"
         d="m 62.5625,27.90625 c -0.08399,2.028943 -0.645242,3.875694 -1.59375,5.25 -1.027629,1.488946 -2.502986,2.4375 -4.15625,2.4375 -0.576598,-0.0098 -1.179466,-0.240994 -1.75,-0.5 -0.570534,-0.259006 -1.100871,-0.541066 -1.4375,-0.71875 -0.02166,-0.0086 -0.04259,-0.01911 -0.0625,-0.03125 -2.137911,-1.603434 -3.392704,-1.657462 -4.15625,-1.375 l 0,1 c 0.763546,-0.282462 2.018339,-0.228434 4.15625,1.375 0.01991,0.01214 0.04084,0.02265 0.0625,0.03125 0.336629,0.177684 0.866966,0.459744 1.4375,0.71875 0.570534,0.259006 1.173402,0.4902 1.75,0.5 1.653264,0 3.128621,-0.948554 4.15625,-2.4375 1.027629,-1.488946 1.625,-3.518788 1.625,-5.75 0,-0.17179 -0.02424,-0.330832 -0.03125,-0.5 z M 61.96875,50.625 C 61.834085,51.538795 61.377743,52.648111 60.375,54 c -0.0083,0.01577 -0.02255,0.04613 -0.03125,0.0625 -0.187912,0.353513 -0.458692,0.839732 -0.6875,1.34375 -0.2394,0.52735 -0.431763,1.067535 -0.4375,1.40625 0,0.220351 0.02,0.442439 0.0625,0.65625 0.07081,-0.314372 0.201205,-0.679664 0.375,-1.0625 0.228808,-0.504018 0.499588,-0.990237 0.6875,-1.34375 0.0087,-0.01637 0.02295,-0.04673 0.03125,-0.0625 1.399042,-1.886177 1.743665,-3.326922 1.59375,-4.375 z m 9.28125,0 c -0.169687,1.058851 0.179063,2.509584 1.625,4.4375 0.254467,0.330587 0.856066,1.491348 1.0625,2.4375 0.04266,-0.211947 0.06051,-0.437678 0.0625,-0.65625 -9.71e-4,-0.0086 0.0011,-0.02256 0,-0.03125 -0.119941,-0.981116 -0.842544,-2.383051 -1.125,-2.75 -1.029622,-1.372829 -1.498368,-2.512377 -1.625,-3.4375 z" />
      <path
         style="opacity:0.3;color:#000000;fill:#ffffff;fill-opacity:1;fill-rule:nonzero;stroke:none;stroke-width:2;marker:none;visibility:visible;display:inline;overflow:visible;enable-background:accumulate"
         id="path3965"
         inkscape:connector-curvature="0"
         d="m 49.53125,49.53125 0,1 3.28125,0 3.1875,0 4.96875,0 c 0.01452,0.04594 0.01944,0.106626 0.03125,0.15625 0.08661,-0.480201 0.06368,-0.855903 -0.03125,-1.15625 l -4.96875,0 -3.1875,0 -3.28125,0 z m 22.6875,0 c -0.09493,0.300347 -0.117864,0.676049 -0.03125,1.15625 0.01181,-0.04962 0.01673,-0.110315 0.03125,-0.15625 l 17.78125,0 0,-1 -17.78125,0 z M 58.3125,57.5 c -0.0143,0.101573 -0.02955,0.211886 -0.03125,0.3125 0,1.693789 0.990526,3.208204 2.5,4.25 1.509474,1.041796 3.561962,1.65625 5.8125,1.65625 2.250538,0 4.295517,-0.615053 5.8125,-1.65625 1.516983,-1.041197 2.53125,-2.554388 2.53125,-4.25 0.0012,-0.02081 0.0012,-0.04169 0,-0.0625 -0.0083,-0.07351 -0.05056,-0.144948 -0.0625,-0.21875 -0.242395,1.399154 -1.171847,2.641107 -2.46875,3.53125 -1.516983,1.041197 -3.561962,1.65625 -5.8125,1.65625 -2.250538,0 -4.303026,-0.614454 -5.8125,-1.65625 C 59.479035,60.163749 58.539491,58.913958 58.3125,57.5 z m -17.125,7 c -1.286727,0 -2.474281,0.750188 -3.375,2.0625 -0.900719,1.312312 -1.46875,3.161468 -1.46875,5.21875 0,0.171589 0.02348,0.331399 0.03125,0.5 0.08535,-1.851775 0.611906,-3.515892 1.4375,-4.71875 0.900719,-1.312312 2.088273,-2.0625 3.375,-2.0625 0.30898,0.0052 0.853049,0.169299 1.375,0.40625 0.521951,0.236951 1.015987,0.529251 1.375,0.71875 2.440949,1.805683 4.17695,1.92715 5.28125,1.375 0.181699,-0.07957 0.3089,-0.270424 0.3125,-0.46875 l 0,-1 C 49.52765,66.729576 49.400449,66.92043 49.21875,67 48.11445,67.55215 46.378449,67.430683 43.9375,65.625 43.578487,65.435501 43.084451,65.143201 42.5625,64.90625 42.040549,64.669299 41.49648,64.505232 41.1875,64.5 z" />
    </g>
    <rect
       ry="25"
       rx="25"
       id="rect3003"
       style="opacity:0.15;fill:#ffffff;fill-opacity:1"
       height="92"
       width="92"
       y="958.36218"
       x="-96"
       clip-path="url(#clipPath3009)"
       transform="translate(98,3.8281269e-7)" />
  </g>
</svg>
