<?xml version="1.0" encoding="UTF-8" standalone="no"?>
<!-- Created with Inkscape (http://www.inkscape.org/) -->
<svg id="svg2982" xmlns:rdf="http://www.w3.org/1999/02/22-rdf-syntax-ns#" xmlns="http://www.w3.org/2000/svg" height="96" width="96" version="1.1" xmlns:cc="http://creativecommons.org/ns#" xmlns:xlink="http://www.w3.org/1999/xlink" xmlns:dc="http://purl.org/dc/elements/1.1/">
 <defs id="defs2984">
  <filter id="filter8262" color-interpolation-filters="sRGB">
   <feGaussianBlur id="feGaussianBlur8264" stdDeviation="0.78065245"/>
  </filter>
  <linearGradient id="linearGradient6376" y2="85.821" gradientUnits="userSpaceOnUse" x2="48.036" gradientTransform="matrix(.93226 0 0 .93226 3.2517 958.18)" y1="25.911" x1="48.036">
   <stop id="stop3319-60" style="stop-color:#3c8fc2" offset="0"/>
   <stop id="stop3321-6" style="stop-color:#2174a6" offset="1"/>
  </linearGradient>
  <linearGradient id="linearGradient6391" y2="5.9877" gradientUnits="userSpaceOnUse" y1="78" gradientTransform="matrix(.94417 0 0 .94541 2.68 965.06)" x2="48" x1="48">
   <stop id="stop3970-7" style="stop-color:#b0b0b0" offset="0"/>
   <stop id="stop3972" style="stop-color:#d7d7d7" offset="1"/>
  </linearGradient>
 </defs>
 <metadata id="metadata2987">
  <rdf:RDF>
   <cc:Work rdf:about="">
    <dc:format>image/svg+xml</dc:format>
    <dc:type rdf:resource="http://purl.org/dc/dcmitype/StillImage"/>
    <dc:title/>
   </cc:Work>
  </rdf:RDF>
 </metadata>
 <g id="layer1" transform="translate(0 -956.36)">
  <g id="g7168">
   <path id="path3908-1" style="filter:url(#filter8262)" transform="matrix(1.021 0 0 1.021 -1.01 -21.124)" d="m17.071 965.51c-2.5957 0-4.6793 2.0361-4.6793 4.5652v3.3668c-2.1585 1.0239-3.6522 3.2074-3.6522 5.7636v57.522c0 3.5408 2.8505 6.3914 6.3913 6.3914h65.739c3.5408 0 6.3913-2.8506 6.3913-6.3914v-57.522c0-2.5654-1.5096-4.7445-3.6807-5.7636-0.1549-2.3907-2.1568-4.2799-4.6508-4.2799h-37.064c-3.8535-3.7547-4.1112-3.5911-5.9348-3.6522h-18.86z"/>
   <rect id="rect3352" style="fill:url(#linearGradient6376)" rx="5.5935" ry="5.5935" height="58.432" width="69.919" y="979.76" x="13.074"/>
   <path id="path3908" style="opacity:.75;fill:#babdb6" d="m17.236 963.78c-2.5823 0-4.6613 2.0789-4.6613 4.6613v55.761c0 2.2311 1.7892 4.0203 4.0204 4.0203h62.811c2.2311 0 4.0204-1.7892 4.0204-4.0203v-52.032c0-2.5824-2.0789-4.6613-4.6613-4.6613h-37.786c-3.8337-3.8337-4.0707-3.6666-5.8849-3.729z"/>
   <rect id="rect2419" style="stroke:#eeeeec;stroke-width:.99999;fill:#d3d7cf" rx="5.5935" ry="5.5935" height="70.851" width="78.309" y="971.23" x="8.8452"/>
   <rect id="rect2419-8" style="fill:url(#linearGradient6391)" rx="5.665" ry="5.6724" height="71.851" width="79.31" y="970.73" x="8.345"/>
  </g>
 </g>
</svg>
