<?xml version="1.0" encoding="UTF-8" standalone="no"?>
<!-- Created with Inkscape (http://www.inkscape.org/) -->

<svg
   xmlns:dc="http://purl.org/dc/elements/1.1/"
   xmlns:cc="http://creativecommons.org/ns#"
   xmlns:rdf="http://www.w3.org/1999/02/22-rdf-syntax-ns#"
   xmlns:svg="http://www.w3.org/2000/svg"
   xmlns="http://www.w3.org/2000/svg"
   xmlns:xlink="http://www.w3.org/1999/xlink"
   xmlns:sodipodi="http://sodipodi.sourceforge.net/DTD/sodipodi-0.dtd"
   xmlns:inkscape="http://www.inkscape.org/namespaces/inkscape"
   id="svg2408"
   height="96"
   width="96"
   version="1.0"
   inkscape:version="0.48.3.1 r9886"
   sodipodi:docname="folder.svg">
  <sodipodi:namedview
     pagecolor="#ffffff"
     bordercolor="#666666"
     borderopacity="1"
     objecttolerance="10"
     gridtolerance="10"
     guidetolerance="10"
     inkscape:pageopacity="0"
     inkscape:pageshadow="2"
     inkscape:window-width="1280"
     inkscape:window-height="750"
     id="namedview50"
     showgrid="false"
     inkscape:zoom="4.9166667"
     inkscape:cx="4.393489"
     inkscape:cy="36.917367"
     inkscape:window-x="0"
     inkscape:window-y="22"
     inkscape:window-maximized="1"
     inkscape:current-layer="svg2408" />
  <defs
     id="defs2410">
    <linearGradient
       id="linearGradient3361"
       x1="48.036"
       gradientUnits="userSpaceOnUse"
       y1="25.911"
       gradientTransform="scale(1.0599 .94353)"
       x2="48.036"
       y2="85.821">
      <stop
         id="stop3319"
         style="stop-color:#c6953a"
         offset="0" />
      <stop
         id="stop3321"
         style="stop-color:#ab7a1f"
         offset="1" />
    </linearGradient>
    <linearGradient
       id="ButtonShadow"
       x1="45.448"
       gradientUnits="userSpaceOnUse"
       y1="80.472"
       gradientTransform="matrix(1.0059 0 0 .99417 0 12)"
       x2="45.448"
       y2="7.0165">
      <stop
         id="stop3750"
         offset="0" />
      <stop
         id="stop3752"
         style="stop-opacity:.58824"
         offset="1" />
    </linearGradient>
    <linearGradient
       id="linearGradient3737">
      <stop
         id="stop3739"
         style="stop-color:#fff"
         offset="0" />
      <stop
         id="stop3741"
         style="stop-color:#fff;stop-opacity:0"
         offset="1" />
    </linearGradient>
    <linearGradient
       id="linearGradient3706"
       x1="48"
       gradientUnits="userSpaceOnUse"
       y1="78"
       gradientTransform="translate(0,12)"
       x2="48"
       y2="5.9877">
      <stop
         id="stop3189"
         style="stop-color:#c6953a"
         offset="0" />
      <stop
         id="stop3191"
         style="stop-color:#dec18c"
         offset="1" />
    </linearGradient>
    <filter
       id="filter3179"
       width="1.5902"
       y="-.46154"
       x="-.29508"
       height="1.9231"
       color-interpolation-filters="sRGB">
      <feGaussianBlur
         id="feGaussianBlur3181"
         stdDeviation="6.6964288" />
    </filter>
    <filter
       id="filter3174"
       color-interpolation-filters="sRGB">
      <feGaussianBlur
         id="feGaussianBlur3176"
         stdDeviation="1.71" />
    </filter>
    <linearGradient
       id="linearGradient3188"
       x1="36.357"
       xlink:href="#linearGradient3737"
       gradientUnits="userSpaceOnUse"
       x2="36.357"
       y1="18"
       y2="73.995" />
    <linearGradient
       id="linearGradient4010"
       x1="23.607"
       xlink:href="#linearGradient3737"
       gradientUnits="userSpaceOnUse"
       x2="23.607"
       y1="6"
       y2="58.466" />
    <linearGradient
       id="linearGradient4023"
       x1="34.860001"
       gradientUnits="userSpaceOnUse"
       y1="17.736"
       gradientTransform="matrix(0.72,0,0,0.72,1.92,-5.52)"
       x2="34.860001"
       y2="32.013"
       spreadMethod="pad"
       xlink:href="#linearGradient1422">
      <stop
         id="stop3350"
         style="stop-color:#e0c693"
         offset="0" />
      <stop
         id="stop3356"
         style="stop-color:#c0984f"
         offset=".71692" />
      <stop
         id="stop3352"
         style="stop-color:#a67315"
         offset="1" />
    </linearGradient>
    <radialGradient
       id="radialGradient2874"
       gradientUnits="userSpaceOnUse"
       cy="90.172"
       cx="48"
       gradientTransform="matrix(1.1573 0 0 .99591 -7.551 .19713)"
       r="42">
      <stop
         id="stop3739-0"
         style="stop-color:#fff"
         offset="0" />
      <stop
         id="stop3741-4"
         style="stop-color:#fff;stop-opacity:0"
         offset="1" />
    </radialGradient>
    <linearGradient
       id="linearGradient3664"
       x1="45.448"
       xlink:href="#ButtonShadow"
       gradientUnits="userSpaceOnUse"
       y1="80.472"
       gradientTransform="matrix(1.0059 0 0 .99417 0 12)"
       x2="45.448"
       y2="5.2972" />
    <linearGradient
       id="linearGradient3671"
       x1="26.5"
       xlink:href="#ButtonShadow"
       gradientUnits="userSpaceOnUse"
       x2="26.5"
       y1="90.313"
       y2="6.9171" />
    <linearGradient
       id="linearGradient3692"
       x1="26.5"
       xlink:href="#ButtonShadow"
       gradientUnits="userSpaceOnUse"
       y1="90.313"
       gradientTransform="matrix(1.0278 0 0 1.0127 -1.3333 .030880)"
       x2="26.5"
       y2="6.9171" />
    <linearGradient
       inkscape:collect="always"
       xlink:href="#linearGradient1422"
       id="linearGradient7495"
       gradientUnits="userSpaceOnUse"
       gradientTransform="matrix(-0.22626952,0,0,0.28549608,383.19059,509.54421)"
       x1="328.29959"
       y1="286.21814"
       x2="328.29959"
       y2="187.30515" />
    <linearGradient
       id="linearGradient1422"
       inkscape:collect="always">
      <stop
         id="stop1424"
         offset="0"
         style="stop-color:#529cae;stop-opacity:1" />
      <stop
         id="stop1426"
         offset="1"
         style="stop-color:#a0c9d3;stop-opacity:1" />
    </linearGradient>
    <linearGradient
       y2="187.30515"
       x2="328.29959"
       y1="286.21814"
       x1="328.29959"
       gradientTransform="matrix(-0.22626952,0,0,0.28549608,25.269085,-7.8257489)"
       gradientUnits="userSpaceOnUse"
       id="linearGradient3993"
       xlink:href="#linearGradient1422"
       inkscape:collect="always" />
    <linearGradient
       inkscape:collect="always"
       xlink:href="#linearGradient1422"
       id="linearGradient3841"
       gradientUnits="userSpaceOnUse"
       gradientTransform="translate(0,12)"
       x1="48"
       y1="78"
       x2="48"
       y2="5.9877" />
    <linearGradient
       inkscape:collect="always"
       xlink:href="#linearGradient1422"
       id="linearGradient3800"
       gradientUnits="userSpaceOnUse"
       gradientTransform="matrix(0.72,0,0,0.72,1.92,-5.52)"
       spreadMethod="pad"
       x1="34.860001"
       y1="17.736"
       x2="34.860001"
       y2="32.013" />
    <clipPath
       id="clipPath3788">
      <path
         inkscape:connector-curvature="0"
         id="path3790"
         style="opacity:0.9;fill:#ff0000"
         d="m 47,28 c -0.554,0 -1,0.446 -1,1 v 7.3438 c -2.331,0.823 -4,3.043 -4,5.656 0,1.2827 0.4081,2.4622 1.0938,3.4375 l -2.563,8.562 h -4.531 c -0.554,0 -1,0.446 -1,1 0,0.554 0.446,1 1,1 h 3.9375 l -2.2188,7.4375 c -2.217,7.432 -2.28,13.929 -0.157,14.562 l 6.5625,-22 h 7.7812 l 6.5625,22 c 2.124,-0.633 2.062,-7.13 -0.156,-14.562 l -2.218,-7.438 h 3.906 c 0.554,0 1,-0.446 1,-1 0,-0.554 -0.446,-1 -1,-1 h -4.5 L 52.9372,45.405 c 0.67,-0.968 1.062,-2.139 1.062,-3.406 0,-2.613 -1.669,-4.833 -4,-5.656 v -7.344 c 0,-0.554 -0.446,-1 -1,-1 h -2 z m 1,10 c 2.2091,0 4,1.7909 4,4 0,0.32165 -0.05331,0.63782 -0.125,0.9375 -0.04599,0.19224 -0.08362,0.38216 -0.15625,0.5625 -0.06614,0.16372 -0.16371,0.31733 -0.25,0.46875 -0.0069,0.01214 -0.02425,0.01918 -0.03125,0.03125 -0.08536,0.1461 -0.17848,0.30451 -0.28125,0.4375 -0.11133,0.14407 -0.21378,0.27923 -0.34375,0.40625 -0.12998,0.12702 -0.29075,0.23552 -0.4375,0.34375 -0.2935,0.21646 -0.61934,0.40034 -0.96875,0.53125 -0.174,0.065 -0.345,0.115 -0.531,0.156 -0.282,0.063 -0.575,0.125 -0.875,0.125 -0.287,0 -0.574,-0.036 -0.844,-0.094 -0.246,-0.052 -0.492,-0.124 -0.718,-0.218 -0.022,-0.01 -0.042,-0.022 -0.063,-0.032 -0.182,-0.081 -0.365,-0.175 -0.531,-0.281 -0.064,-0.04 -0.127,-0.081 -0.188,-0.125 -0.043,-0.031 -0.083,-0.061 -0.125,-0.094 -0.112,-0.087 -0.21,-0.182 -0.312,-0.281 -0.132,-0.129 -0.263,-0.291 -0.375,-0.437 -0.051,-0.067 -0.11,-0.119 -0.156,-0.188 -0.026,-0.038 -0.039,-0.086 -0.063,-0.125 -0.028,-0.046 -0.067,-0.078 -0.094,-0.125 -0.096,-0.168 -0.178,-0.349 -0.25,-0.531 -0.069,-0.175 -0.111,-0.345 -0.156,-0.531 -0.072,-0.3 -0.125,-0.616 -0.125,-0.938 0,-2.2091 1.7909,-4 4,-4 z m -1.4062,9.8125 c 0.451,0.109 0.922,0.188 1.406,0.188 0.5056,0 0.99968,-0.06974 1.4688,-0.1875 l 1.843,6.188 h -6.562 l 1.844,-6.188 z" />
    </clipPath>
    <filter
       id="filter3792"
       color-interpolation-filters="sRGB">
      <feGaussianBlur
         id="feGaussianBlur3794"
         stdDeviation="0.38" />
    </filter>
    <clipPath
       id="clipPath3816">
      <path
         inkscape:connector-curvature="0"
         id="path3818"
         style="opacity:0.35;fill:#ff0000"
         d="m 23.344,81.688 c -0.554,0 -1,0.446 -1,1 v 61.781 c 0,0.554 0.446,1 1,1 h 48.219 c 0.554,0 1,-0.446 1,-1 V 82.688 c 0,-0.554 -0.446,-1 -1,-1 H 23.344 z M 47,88 h 2 c 0.554,0 1,0.446 1,1 v 7.3438 c 2.3312,0.82325 4,3.0433 4,5.6562 0,1.2672 -0.39198,2.4377 -1.0625,3.4062 l 2.562,8.59 h 4.5 c 0.554,0 1,0.446 1,1 0,0.554 -0.446,1 -1,1 h -3.9062 l 2.2188,7.4375 c 2.2171,7.4324 2.2798,13.929 0.15625,14.562 l -6.5625,-22 h -7.7812 l -6.5625,22 c -2.1235,-0.63345 -2.0608,-7.1301 0.15625,-14.562 l 2.219,-7.44 h -3.938 c -0.554,0 -1,-0.446 -1,-1 0,-0.554 0.446,-1 1,-1 h 4.5312 l 2.5625,-8.5625 c -0.686,-0.98 -1.094,-2.16 -1.094,-3.44 0,-2.613 1.6688,-4.833 4,-5.6562 v -7.344 c 0,-0.554 0.446,-1 1,-1 z m 1,10 c -2.2091,0 -4,1.7909 -4,4 0,0.32165 0.05331,0.63767 0.125,0.9375 0.0446,0.18643 0.0872,0.35625 0.15625,0.53125 0.07164,0.18183 0.15362,0.36358 0.25,0.53125 0.02663,0.0469 0.06532,0.0793 0.09375,0.125 0.02436,0.0389 0.03686,0.0871 0.0625,0.125 0.04673,0.0695 0.10537,0.1213 0.15625,0.1875 0.11239,0.14626 0.24374,0.30856 0.375,0.4375 0.10208,0.0986 0.20041,0.19385 0.3125,0.28125 0.04161,0.0327 0.08205,0.0627 0.125,0.0937 0.06081,0.0437 0.12421,0.0847 0.1875,0.125 0.16649,0.10591 0.34925,0.20045 0.53125,0.28125 0.02115,0.009 0.04116,0.0222 0.0625,0.0312 0.22609,0.0949 0.4726,0.16635 0.71875,0.21875 0.27,0.05 0.557,0.09 0.844,0.09 0.30044,0 0.59348,-0.0622 0.875,-0.125 0.18588,-0.0415 0.35654,-0.0909 0.53125,-0.15625 0.34941,-0.13091 0.67525,-0.31478 0.96875,-0.53125 0.14675,-0.10823 0.30752,-0.21673 0.4375,-0.34375 0.12998,-0.12702 0.23242,-0.26218 0.34375,-0.40625 0.10277,-0.13299 0.19589,-0.2914 0.28125,-0.4375 0.007,-0.012 0.02435,-0.0191 0.03125,-0.0312 0.08629,-0.15142 0.18386,-0.30503 0.25,-0.46875 0.07263,-0.18034 0.11026,-0.37026 0.15625,-0.5625 0.072,-0.3 0.125,-0.62 0.125,-0.94 0,-2.209 -1.791,-4 -4,-4 z m -1.406,9.81 -1.844,6.19 h 6.5625 l -1.8438,-6.1875 c -0.469,0.12 -0.963,0.19 -1.469,0.19 -0.48424,0 -0.95523,-0.0792 -1.4062,-0.1875 z" />
    </clipPath>
    <filter
       id="filter3824"
       color-interpolation-filters="sRGB">
      <feGaussianBlur
         id="feGaussianBlur3826"
         stdDeviation="0.57" />
    </filter>
    <linearGradient
       id="linearGradient3782"
       y2="27.531"
       gradientUnits="userSpaceOnUse"
       y1="76"
       x2="48"
       x1="48">
      <stop
         id="stop3692"
         style="stop-color:#b38229"
         offset="0" />
      <stop
         id="stop3694"
         style="stop-color:#b38229;stop-opacity:.47059"
         offset="1" />
    </linearGradient>
    <linearGradient
       y2="27.531"
       x2="48"
       y1="76"
       x1="48"
       gradientUnits="userSpaceOnUse"
       id="linearGradient3096"
       xlink:href="#ButtonShadow"
       inkscape:collect="always" />
  </defs>
  <metadata
     id="metadata2413">
    <rdf:RDF>
      <cc:Work
         rdf:about="">
        <dc:format>image/svg+xml</dc:format>
        <dc:type
           rdf:resource="http://purl.org/dc/dcmitype/StillImage" />
        <dc:title></dc:title>
      </cc:Work>
    </rdf:RDF>
  </metadata>
  <g
     id="layer2"
     style="display:none">
    <path
       id="rect3745"
       style="opacity:.9;filter:url(#filter3174);fill:url(#linearGradient3664)"
       d="m14.969 8.8029c-1.64 0-2.969 1.2821-2.969 2.8751v7.322c-3.324 0-7 2.676-7 6v61c0 3.324 2.676 6 6 6h74c3.324 0 6-2.676 6-6v-61c0-3.324-3.7474-6-7.0714-6v-0.13461c0-2.3891-1.9777-4.3125-4.4375-4.3125h-43.335l-1.4688-2.875c-0.734-1.424-1.329-2.8741-2.969-2.8741h-16.75z" />
  </g>
  <g
     id="layer4">
    <path
       id="path3715"
       style="opacity:.08;fill:url(#linearGradient3692)"
       transform="matrix(.99729 0 0 .99863 .13008 .0054870)"
       d="m13.969 4c-3.301 0-6.094 2.6931-6.094 6.031v7.0625c-3.4361 1.5607-6 4.8407-6 8.9062v59c0 5.5613 4.5637 10.125 10.125 10.125h72c5.5613 0 10.125-4.5637 10.125-10.125v-59c0-4.0908-2.5938-7.3894-6.0625-8.9375-0.16038-3.9934-3.4736-7.2188-7.5-7.2188h-42.5l-0.625-1.219c-0.303-0.596-0.703-1.5848-1.5-2.5625-0.904-1.1067-2.384-2.0625-4.219-2.0625h-17.75z" />
    <path
       id="path3707"
       style="opacity:.1;fill:url(#linearGradient3692)"
       transform="matrix(.99654 0 0 .99790 .16609 .041696)"
       d="m13.969 4.9688c-2.7832 0-5.125 2.2573-5.125 5.0625v7.625c-3.4369 1.2903-6 4.4397-6 8.3438v59c0 5.0399 4.1163 9.1562 9.1562 9.1562h72c5.0399 0 9.1562-4.1163 9.1562-9.1562v-59c0-3.904-2.5631-7.0534-6-8.3438v-0.3125c0-3.6027-2.9854-6.5312-6.5938-6.5312h-43.094l-0.875-1.75c-0.329-0.651-0.709-1.5531-1.405-2.4068-0.751-0.9189-1.959-1.6874-3.469-1.6874h-17.75z" />
    <path
       id="path3698"
       style="opacity:.2;fill:url(#linearGradient3692)"
       transform="matrix(.99717 0 0 .99857 .13598 .0086083)"
       d="m13.969 6c-2.232 0-4.094 1.7965-4.094 4.031v8.2812c-3.4279 0.95094-6 3.9595-6 7.6875v59c0 4.4838 3.6412 8.125 8.125 8.125h72c4.4838 0 8.125-3.6412 8.125-8.125v-59c0-3.728-2.5721-6.7366-6-7.6875v-0.96875c0-3.0378-2.5058-5.5-5.5625-5.5h-43.719l-1.1562-2.3125c-0.353-0.695-0.699-1.505-1.281-2.218s-1.532-1.3125-2.687-1.3125h-17.75z" />
    <path
       id="path3679"
       style="opacity:.3;fill:url(#linearGradient3692)"
       d="m13.969 7.125c-1.64 0-2.969 1.2904-2.969 2.906v9.0625c-3.3973 0.485-6 3.37-6 6.906v59c0 3.878 3.122 7 7 7h72c3.878 0 7-3.122 7-7v-59c0-3.5358-2.6027-6.4206-6-6.9062v-1.75c0-2.4238-1.9777-4.375-4.4375-4.375h-44.406l-1.4688-2.9375c-0.733-1.446-1.328-2.907-2.968-2.907h-17.75z" />
    <path
       id="path2885"
       style="opacity:.45;fill:url(#linearGradient3671)"
       d="m14.875 7c-1.596 0-2.875 1.2795-2.875 2.875v9.125c-3.324 0-6 2.676-6 6v60c0 3.324 2.676 6 6 6h72c3.324 0 6-2.676 6-6v-60c0-3.324-2.676-6-6-6v-1.9062c0-2.394-1.919-4.344-4.312-4.344h-43.219l-1.4375-2.875c-0.714-1.4271-1.28-2.875-2.876-2.875h-17.281z" />
  </g>
  <g
     id="layer3">
    <path
       id="rect3325"
       style="fill:url(#linearGradient3800);fill-opacity:1"
       d="m14.88 6c-1.596 0-2.88 1.2845-2.88 2.88v61.92c0 2.3933 1.9267 4.32 4.32 4.32h63.36c2.3933 0 4.32-1.9267 4.32-4.32v-54.72c0-2.3933-1.9267-4.32-4.32-4.32h-43.2l-1.44-2.88c-0.714-1.4271-1.284-2.88-2.88-2.88h-17.28z" />
    <path
       id="path3997"
       style="opacity:.3;fill:url(#linearGradient4010)"
       d="m14.875 6c-1.596 0-2.875 1.2795-2.875 2.875v61.938c0 2.3933 1.9192 4.3125 4.3125 4.3125h63.375c2.394-0.001 4.313-1.92 4.313-4.314v-54.718c0-2.394-1.919-4.344-4.312-4.344h-43.219l-1.4375-2.875c-0.714-1.4271-1.28-2.875-2.876-2.875h-17.281zm0 1.9375h17.281c0.48716 0 0.66045 0.11267 0.96875 0.5s0.62967 1.0718 1 1.8125l1.4375 2.875c0.17338 0.34199 0.52284 0.55889 0.90625 0.5625h43.219c1.8354 0 3.2812 1.4682 3.2812 3.3125v54.719c0 1.8443-1.4369 3.2812-3.2812 3.2812h-63.375c-1.8443 0-3.2812-1.4369-3.2812-3.2812v-61.938c0-1.0466 0.79716-1.8438 1.8438-1.8438z" />
    <rect
       id="rect3352"
       style="fill:url(#linearGradient3361)"
       rx="6"
       ry="6"
       height="62.679"
       width="75"
       y="23.143"
       x="10.536" />
  </g>
  <g
     id="layer1">
    <rect
       id="rect2419"
       style="fill:url(#linearGradient3841);fill-opacity:1"
       rx="6"
       ry="6"
       height="72"
       width="84"
       y="18"
       x="6" />
    <path
       id="rect3728"
       style="opacity:.5;fill:url(#linearGradient3188)"
       d="m12 18c-3.324 0-6 2.676-6 6v60c0 0.33472 0.04135 0.6507 0.09375 0.96875 0.0487 0.2956 0.09704 0.59692 0.1875 0.875 0.00988 0.03038 0.020892 0.0636 0.03125 0.09375 0.098865 0.28777 0.23488 0.54745 0.375 0.8125 0.14459 0.27351 0.31562 0.53562 0.5 0.78125 0.18438 0.24564 0.37378 0.47347 0.59375 0.6875 0.43995 0.42806 0.94291 0.81453 1.5 1.0938 0.27854 0.13961 0.57347 0.24695 0.875 0.34375-0.2562-0.10022-0.48671-0.23627-0.71875-0.375-0.00741-0.0044-0.023866 0.0045-0.03125 0-0.031933-0.0193-0.062293-0.04251-0.09375-0.0625-0.1204-0.0767-0.23102-0.16351-0.34375-0.25-0.10617-0.0808-0.21328-0.16111-0.3125-0.25-0.1778-0.162-0.3473-0.346-0.4999-0.531-0.1075-0.131-0.2183-0.266-0.3124-0.407-0.0251-0.038-0.0385-0.086-0.0626-0.125-0.0647-0.103-0.1302-0.204-0.1874-0.312-0.1011-0.195-0.2057-0.416-0.2813-0.625-0.008-0.022-0.0236-0.041-0.0313-0.063-0.0318-0.092-0.0358-0.187-0.0624-0.281-0.0304-0.107-0.0704-0.203-0.0938-0.313-0.0729-0.341-0.125-0.698-0.125-1.062v-60c0-2.7818 2.2182-5 5-5h72c2.7818 0 5 2.2182 5 5v60c0 0.3643-0.05212 0.72099-0.125 1.0625-0.04415 0.20689-0.08838 0.39766-0.15625 0.59375-0.0077 0.02195-0.0233 0.04069-0.03125 0.0625-0.06274 0.17374-0.13838 0.36745-0.21875 0.53125-0.04158 0.0828-0.07904 0.16995-0.125 0.25-0.0546 0.09721-0.12677 0.18835-0.1875 0.28125-0.09411 0.14096-0.20492 0.276-0.3125 0.40625-0.14317 0.17445-0.30314 0.347-0.46875 0.5-0.01117 0.0102-0.01998 0.02115-0.03125 0.03125-0.13839 0.12556-0.28509 0.23444-0.4375 0.34375-0.10257 0.07315-0.20432 0.15336-0.3125 0.21875-0.0074 0.0045-0.02384-0.0044-0.03125 0-0.23204 0.13873-0.46255 0.27478-0.71875 0.375 0.30153-0.0968 0.59646-0.20414 0.875-0.34375 0.55709-0.27922 1.0601-0.66569 1.5-1.0938 0.21997-0.21403 0.40937-0.44186 0.59375-0.6875s0.35541-0.50774 0.5-0.78125c0.14012-0.26505 0.27614-0.52473 0.375-0.8125 0.01041-0.03078 0.02133-0.06274 0.03125-0.09375 0.09046-0.27808 0.1388-0.5794 0.1875-0.875 0.053-0.318 0.094-0.634 0.094-0.969v-60c0-3.324-2.676-6-6-6h-72z" />
    <rect
       id="rect2399"
       style="opacity:.15;filter:url(#filter3179);fill:#fff9dc"
       transform="matrix(.89175 0 0 .926 12.134 19.14)"
       rx="9"
       ry="9"
       height="34.821"
       width="54.464"
       y="13.888"
       x="13.306" />
    <path
       id="path3615"
       style="opacity:.2;fill:url(#radialGradient2874)"
       d="m12 90c-3.324 0-6-2.676-6-6v-60c0-0.33472 0.04135-0.6507 0.09375-0.96875 0.0487-0.2956 0.09704-0.59692 0.1875-0.875 0.00988-0.03038 0.020892-0.0636 0.03125-0.09375 0.098865-0.28777 0.23488-0.54745 0.375-0.8125 0.14459-0.27351 0.31562-0.53562 0.5-0.78125 0.18438-0.24564 0.37378-0.47347 0.59375-0.6875 0.43995-0.42806 0.94291-0.81453 1.5-1.0938 0.27854-0.13961 0.57347-0.24695 0.875-0.34375-0.2562 0.10022-0.48671 0.23627-0.71875 0.375-0.00741 0.0044-0.023866-0.0045-0.03125 0-0.031933 0.0193-0.062293 0.04251-0.09375 0.0625-0.1204 0.0767-0.23102 0.16351-0.34375 0.25-0.10617 0.0808-0.21328 0.16111-0.3125 0.25-0.17793 0.16143-0.34746 0.34539-0.5 0.53125-0.10758 0.13026-0.21839 0.26528-0.3125 0.40625-0.025089 0.03838-0.038446 0.08587-0.0625 0.125-0.064763 0.10303-0.13023 0.20452-0.1875 0.3125-0.10101 0.19471-0.20567 0.4157-0.28125 0.625-0.0079 0.022-0.0235 0.041-0.0312 0.063-0.0318 0.092-0.0358 0.187-0.0624 0.281-0.0304 0.107-0.0704 0.203-0.0938 0.313-0.0729 0.341-0.125 0.698-0.125 1.062v60c0 2.7818 2.2182 5 5 5h72c2.7818 0 5-2.2182 5-5v-60c0-0.3643-0.05212-0.72099-0.125-1.0625-0.04415-0.20689-0.08838-0.39766-0.15625-0.59375-0.0077-0.02195-0.0233-0.04069-0.03125-0.0625-0.06274-0.17374-0.13838-0.36745-0.21875-0.53125-0.04158-0.0828-0.07904-0.16995-0.125-0.25-0.0546-0.09721-0.12677-0.18835-0.1875-0.28125-0.09411-0.14096-0.20492-0.276-0.3125-0.40625-0.14317-0.17445-0.30314-0.347-0.46875-0.5-0.01117-0.0102-0.01998-0.02115-0.03125-0.03125-0.13839-0.12556-0.28509-0.23444-0.4375-0.34375-0.10257-0.07315-0.20432-0.15336-0.3125-0.21875-0.0074-0.0045-0.02384 0.0044-0.03125 0-0.23204-0.13873-0.46255-0.27478-0.71875-0.375 0.30153 0.0968 0.59646 0.20414 0.875 0.34375 0.55709 0.27922 1.0601 0.66569 1.5 1.0938 0.21997 0.21403 0.40937 0.44186 0.59375 0.6875s0.35541 0.50774 0.5 0.78125c0.14012 0.26505 0.27614 0.52473 0.375 0.8125 0.01041 0.03078 0.02133 0.06274 0.03125 0.09375 0.09046 0.27808 0.1388 0.5794 0.1875 0.875 0.053 0.318 0.094 0.634 0.094 0.969v60c0 3.324-2.676 6-6 6h-72z" />
  </g>
  <path
     inkscape:connector-curvature="0"
     id="rect2957"
     style="opacity:0.45;fill:url(#linearGradient3096);fill-opacity:1"
     d="m 47,28 c -0.554,0 -1,0.446 -1,1 v 7.3438 c -2.331,0.823 -4,3.043 -4,5.656 0,1.2827 0.4081,2.4622 1.0938,3.4375 l -2.563,8.562 h -4.531 c -0.554,0 -1,0.446 -1,1 0,0.554 0.446,1 1,1 h 3.9375 l -2.2188,7.4375 c -2.217,7.432 -2.28,13.929 -0.157,14.562 l 6.5625,-22 h 7.7812 l 6.5625,22 c 2.124,-0.633 2.062,-7.13 -0.156,-14.562 l -2.218,-7.438 h 3.906 c 0.554,0 1,-0.446 1,-1 0,-0.554 -0.446,-1 -1,-1 h -4.5 L 52.9372,45.405 c 0.67,-0.968 1.062,-2.139 1.062,-3.406 0,-2.613 -1.669,-4.833 -4,-5.656 v -7.344 c 0,-0.554 -0.446,-1 -1,-1 h -2 z m 1,10 c 2.2091,0 4,1.7909 4,4 0,0.32165 -0.05331,0.63782 -0.125,0.9375 -0.04599,0.19224 -0.08362,0.38216 -0.15625,0.5625 -0.06614,0.16372 -0.16371,0.31733 -0.25,0.46875 -0.0069,0.01214 -0.02425,0.01918 -0.03125,0.03125 -0.08536,0.1461 -0.17848,0.30451 -0.28125,0.4375 -0.11133,0.14407 -0.21378,0.27923 -0.34375,0.40625 -0.12998,0.12702 -0.29075,0.23552 -0.4375,0.34375 -0.2935,0.21646 -0.61934,0.40034 -0.96875,0.53125 -0.174,0.065 -0.345,0.115 -0.531,0.156 -0.282,0.063 -0.575,0.125 -0.875,0.125 -0.28675,0 -0.5741,-0.03641 -0.84375,-0.09375 -0.24615,-0.05235 -0.49266,-0.12383 -0.71875,-0.21875 -0.02134,-0.009 -0.04135,-0.02187 -0.0625,-0.03125 -0.182,-0.08076 -0.36476,-0.17534 -0.53125,-0.28125 -0.06329,-0.04026 -0.12669,-0.08134 -0.1875,-0.125 -0.04295,-0.03105 -0.08339,-0.06104 -0.125,-0.09375 -0.11209,-0.0874 -0.21042,-0.18263 -0.3125,-0.28125 -0.13126,-0.12894 -0.26261,-0.29124 -0.375,-0.4375 -0.05088,-0.06621 -0.10952,-0.11803 -0.15625,-0.1875 -0.02564,-0.03795 -0.03814,-0.08614 -0.0625,-0.125 -0.02843,-0.04572 -0.06712,-0.07805 -0.09375,-0.125 -0.09638,-0.16767 -0.17836,-0.34942 -0.25,-0.53125 -0.069,-0.175 -0.111,-0.345 -0.156,-0.531 -0.072,-0.3 -0.125,-0.616 -0.125,-0.938 0,-2.2091 1.7909,-4 4,-4 z m -1.4062,9.8125 c 0.451,0.109 0.922,0.188 1.406,0.188 0.5056,0 0.99968,-0.06974 1.4688,-0.1875 l 1.843,6.188 h -6.562 l 1.844,-6.188 z" />
  <path
     inkscape:connector-curvature="0"
     id="path3797"
     style="opacity:0.3;fill:none;stroke:#ffffff;stroke-width:1.5;filter:url(#filter3824)"
     clip-path="url(#clipPath3816)"
     transform="translate(-1.7166137e-8,-60)"
     d="m 47,88 c -0.554,0 -1,0.446 -1,1 v 7.3438 c -2.331,0.823 -4,3.043 -4,5.656 0,1.2828 0.4081,2.4622 1.0938,3.4375 l -2.563,8.56 h -4.531 c -0.554,0 -1,0.446 -1,1 0,0.554 0.446,1 1,1 h 3.9375 l -2.2188,7.4375 c -2.217,7.43 -2.28,13.93 -0.157,14.56 l 6.5625,-22 h 7.7812 l 6.5625,22 c 2.1235,-0.63345 2.0608,-7.1301 -0.15625,-14.562 l -2.218,-7.44 h 3.906 c 0.554,0 1,-0.446 1,-1 0,-0.554 -0.446,-1 -1,-1 h -4.5 l -2.5625,-8.5938 c 0.67,-0.97 1.062,-2.14 1.062,-3.41 0,-2.613 -1.669,-4.833 -4,-5.656 v -7.344 c 0,-0.554 -0.446,-1 -1,-1 h -2 z m 1,10 c 2.2091,0 4,1.7909 4,4 0,0.32165 -0.05331,0.63782 -0.125,0.9375 -0.04599,0.19224 -0.08362,0.38216 -0.15625,0.5625 -0.06614,0.16372 -0.16371,0.31733 -0.25,0.46875 -0.0069,0.0121 -0.02425,0.0192 -0.03125,0.0312 -0.08536,0.1461 -0.17848,0.30451 -0.28125,0.4375 -0.11133,0.14407 -0.21378,0.27923 -0.34375,0.40625 -0.12998,0.12702 -0.29075,0.23552 -0.4375,0.34375 -0.2935,0.21647 -0.61934,0.40034 -0.96875,0.53125 -0.1747,0.0654 -0.34537,0.11479 -0.53125,0.15625 -0.282,0.06 -0.575,0.12 -0.875,0.12 -0.28675,0 -0.5741,-0.0364 -0.84375,-0.0937 -0.24615,-0.0524 -0.49266,-0.12383 -0.71875,-0.21875 -0.02134,-0.009 -0.04135,-0.0219 -0.0625,-0.0312 -0.182,-0.0808 -0.36476,-0.17534 -0.53125,-0.28125 -0.06329,-0.0403 -0.12669,-0.0813 -0.1875,-0.125 -0.04295,-0.031 -0.08339,-0.061 -0.125,-0.0937 -0.11209,-0.0874 -0.21042,-0.18263 -0.3125,-0.28125 -0.13126,-0.12894 -0.26261,-0.29124 -0.375,-0.4375 -0.05088,-0.0662 -0.10952,-0.11803 -0.15625,-0.1875 -0.02564,-0.0379 -0.03814,-0.0861 -0.0625,-0.125 -0.02843,-0.0457 -0.06712,-0.0781 -0.09375,-0.125 -0.09638,-0.16767 -0.17836,-0.34942 -0.25,-0.53125 -0.06905,-0.175 -0.11165,-0.34482 -0.15625,-0.53125 -0.072,-0.3 -0.125,-0.62 -0.125,-0.94 0,-2.2091 1.7909,-4 4,-4 z m -1.4062,9.8125 c 0.451,0.11 0.922,0.19 1.406,0.19 0.5056,0 0.99968,-0.0697 1.4688,-0.1875 l 1.843,6.19 h -6.5625 l 1.8438,-6.1875 z" />
  <path
     inkscape:connector-curvature="0"
     id="path3784"
     d="m 47,28.5 c -0.554,0 -1,0.446 -1,1 v 7.3438 c -2.331,0.823 -4,3.043 -4,5.656 0,1.2827 0.4081,2.4622 1.0938,3.4375 l -2.563,8.562 h -4.531 c -0.554,0 -1,0.446 -1,1 0,0.554 0.446,1 1,1 h 3.9375 l -2.2188,7.4375 c -2.217,7.432 -2.28,13.929 -0.157,14.562 l 6.5625,-22 h 7.7812 l 6.5625,22 c 2.124,-0.633 2.062,-7.13 -0.156,-14.562 l -2.218,-7.438 h 3.906 c 0.554,0 1,-0.446 1,-1 0,-0.554 -0.446,-1 -1,-1 h -4.5 L 52.9372,45.905 c 0.67,-0.968 1.062,-2.139 1.062,-3.406 0,-2.613 -1.669,-4.833 -4,-5.656 v -7.344 c 0,-0.554 -0.446,-1 -1,-1 h -2 z m 1,10 c 2.2091,0 4,1.7909 4,4 0,0.32165 -0.05331,0.63782 -0.125,0.9375 -0.04599,0.19224 -0.08362,0.38216 -0.15625,0.5625 -0.06614,0.16372 -0.16371,0.31733 -0.25,0.46875 -0.0069,0.01214 -0.02425,0.01918 -0.03125,0.03125 -0.08536,0.1461 -0.17848,0.30451 -0.28125,0.4375 -0.11133,0.14407 -0.21378,0.27923 -0.34375,0.40625 -0.12998,0.12702 -0.29075,0.23552 -0.4375,0.34375 -0.2935,0.21646 -0.61934,0.40034 -0.96875,0.53125 -0.174,0.065 -0.345,0.115 -0.531,0.156 -0.282,0.063 -0.575,0.125 -0.875,0.125 -0.287,0 -0.574,-0.036 -0.844,-0.094 -0.246,-0.052 -0.492,-0.124 -0.718,-0.218 -0.022,-0.01 -0.042,-0.022 -0.063,-0.032 -0.182,-0.081 -0.365,-0.175 -0.531,-0.281 -0.064,-0.04 -0.127,-0.081 -0.188,-0.125 -0.043,-0.031 -0.083,-0.061 -0.125,-0.094 -0.112,-0.087 -0.21,-0.182 -0.312,-0.281 -0.132,-0.129 -0.263,-0.291 -0.375,-0.437 -0.051,-0.067 -0.11,-0.119 -0.156,-0.188 -0.026,-0.038 -0.039,-0.086 -0.063,-0.125 -0.028,-0.046 -0.067,-0.078 -0.094,-0.125 -0.096,-0.168 -0.178,-0.349 -0.25,-0.531 -0.069,-0.175 -0.111,-0.345 -0.156,-0.531 -0.072,-0.3 -0.125,-0.616 -0.125,-0.938 0,-2.2091 1.7909,-4 4,-4 z m -1.4062,9.8125 c 0.451,0.109 0.922,0.188 1.406,0.188 0.5056,0 0.99968,-0.06974 1.4688,-0.1875 l 1.8438,6.1875 h -6.5625 l 1.8438,-6.1875 z"
     style="opacity:0.35;fill:none;stroke:#ffffff;filter:url(#filter3792)"
     clip-path="url(#clipPath3788)" />
</svg>
