<?xml version="1.0" encoding="UTF-8" standalone="no"?>
<!-- Created with Inkscape (http://www.inkscape.org/) -->

<svg
   xmlns:dc="http://purl.org/dc/elements/1.1/"
   xmlns:cc="http://creativecommons.org/ns#"
   xmlns:rdf="http://www.w3.org/1999/02/22-rdf-syntax-ns#"
   xmlns:svg="http://www.w3.org/2000/svg"
   xmlns="http://www.w3.org/2000/svg"
   xmlns:xlink="http://www.w3.org/1999/xlink"
   xmlns:sodipodi="http://sodipodi.sourceforge.net/DTD/sodipodi-0.dtd"
   xmlns:inkscape="http://www.inkscape.org/namespaces/inkscape"
   width="96"
   height="96"
   id="svg11037"
   version="1.1"
   inkscape:version="0.48.3.1 r9886"
   sodipodi:docname="templat-actions.svg">
  <defs
     id="defs11039">
    <linearGradient
       y2="1046.1001"
       x2="47.999954"
       y1="962.62189"
       x1="47.999954"
       gradientTransform="matrix(1.15,0,0,1.15,-7.1999462,-150.65291)"
       gradientUnits="userSpaceOnUse"
       id="linearGradient3886"
       xlink:href="#linearGradient3795"
       inkscape:collect="always" />
    <linearGradient
       id="linearGradient3795">
      <stop
         style="stop-color:#13a6fd;stop-opacity:1;"
         offset="0"
         id="stop3797" />
      <stop
         style="stop-color:#2975b6;stop-opacity:1;"
         offset="1"
         id="stop3799" />
    </linearGradient>
    <clipPath
       clipPathUnits="userSpaceOnUse"
       id="clipPath3009">
      <path
         id="path3011"
         d="m -2,956.36218 -96,0 0,33.5624 96,25.68742 0,-59.24982 z"
         style="opacity:0.15;fill:#ffffff;fill-opacity:1;stroke:none"
         inkscape:connector-curvature="0" />
    </clipPath>
    <linearGradient
       x1="11.998966"
       y1="1.8417114"
       x2="11.998966"
       y2="20.237488"
       id="linearGradient3867"
       xlink:href="#linearGradient3637"
       gradientUnits="userSpaceOnUse"
       gradientTransform="matrix(2.7741687,0,0,3.2616291,2.819831,13.992926)" />
    <linearGradient
       id="linearGradient3637">
      <stop
         id="stop3639"
         style="stop-color:#f0f0f0;stop-opacity:1"
         offset="0" />
      <stop
         id="stop3641"
         style="stop-color:#aaaaaa;stop-opacity:1"
         offset="1" />
    </linearGradient>
  </defs>
  <sodipodi:namedview
     id="base"
     pagecolor="#ffffff"
     bordercolor="#666666"
     borderopacity="1.0"
     inkscape:pageopacity="0.0"
     inkscape:pageshadow="2"
     inkscape:zoom="3.959798"
     inkscape:cx="29.118614"
     inkscape:cy="59.964634"
     inkscape:document-units="px"
     inkscape:current-layer="layer1"
     showgrid="false"
     inkscape:window-width="1280"
     inkscape:window-height="750"
     inkscape:window-x="0"
     inkscape:window-y="22"
     inkscape:window-maximized="1"
     showguides="true"
     inkscape:guide-bbox="true">
    <sodipodi:guide
       orientation="0,1"
       position="-24.748737,0"
       id="guide11064" />
    <sodipodi:guide
       orientation="0,1"
       position="-23.233509,96"
       id="guide11066" />
    <sodipodi:guide
       orientation="1,0"
       position="0,54.800776"
       id="guide11068" />
    <sodipodi:guide
       orientation="1,0"
       position="96,51.012704"
       id="guide11070" />
    <sodipodi:guide
       orientation="0,1"
       position="-18.94036,48"
       id="guide11072" />
    <sodipodi:guide
       orientation="1,0"
       position="48,79.296975"
       id="guide11074" />
    <sodipodi:guide
       orientation="1,0"
       position="2,75.508903"
       id="guide11076" />
    <sodipodi:guide
       orientation="0,1"
       position="-77.27667,2"
       id="guide11078" />
    <sodipodi:guide
       orientation="1,0"
       position="94,77.781746"
       id="guide11080" />
    <sodipodi:guide
       orientation="0,1"
       position="-65.912454,94"
       id="guide11082" />
  </sodipodi:namedview>
  <metadata
     id="metadata11042">
    <rdf:RDF>
      <cc:Work
         rdf:about="">
        <dc:format>image/svg+xml</dc:format>
        <dc:type
           rdf:resource="http://purl.org/dc/dcmitype/StillImage" />
        <dc:title></dc:title>
      </cc:Work>
    </rdf:RDF>
  </metadata>
  <g
     inkscape:label="Layer 1"
     inkscape:groupmode="layer"
     id="layer1"
     transform="translate(0,-956.36218)">
    <rect
       x="2"
       y="958.36218"
       width="92"
       height="92"
       style="fill:#000000;fill-opacity:1;opacity:0.6"
       id="rect3867"
       rx="25"
       ry="25" />
    <g
       transform="translate(0,956.36218)"
       style="display:inline"
       id="g3092">
      <path
         style="opacity:0.3;fill:#000000;fill-opacity:1;stroke:none;display:inline"
         id="path3887"
         inkscape:connector-curvature="0"
         d="m 42,21 c -3.324,0 -6,2.676 -6,6 l 27,0 c 1.662,0 3,1.338 3,3 l 0,30 c 0,1.662 -1.338,3 -3,3 l -27,0 c 0,3.324 2.676,6 6,6 l 9,0 0,4 -3,0 0,2 -9,0 0,2 9,0 0,2 12,0 0,-2 9,0 0,-2 -9,0 0,-2 -3,0 0,-4 9,0 c 3.324,0 6,-2.676 6,-6 l 0,-36 c 0,-3.324 -2.676,-6 -6,-6 L 42,21 z M 24.5,29 C 22.007,29 20,31.007 20,33.5 l 0,23 c 0,2.493 2.007,4.5 4.5,4.5 l 6,0 C 28.007,61 26,58.993 26,56.5 l 0,-3 0,-17 0,-3 C 26,31.007 28.007,29 30.5,29 l -6,0 z m 10,0 C 32.007,29 30,31.007 30,33.5 l 0,23 c 0,2.493 2.007,4.5 4.5,4.5 l 17,0 c 2.493,0 4.5,-2.007 4.5,-4.5 l 0,-23 C 56,31.007 53.993,29 51.5,29 l -17,0 z m 3,6 11,0 c 0.831,0 1.5,0.669 1.5,1.5 l 0,17 c 0,0.831 -0.669,1.5 -1.5,1.5 l -11,0 C 36.669,55 36,54.331 36,53.5 l 0,-17 C 36,35.669 36.669,35 37.5,35 z" />
      <path
         style="fill:url(#linearGradient3867);fill-opacity:1;stroke:none;display:inline"
         id="path3087"
         inkscape:connector-curvature="0"
         d="m 42,20 c -3.324,0 -6,2.676 -6,6 l 27,0 c 1.662,0 3,1.338 3,3 l 0,30 c 0,1.662 -1.338,3 -3,3 l -27,0 c 0,3.324 2.676,6 6,6 l 9,0 0,4 -3,0 0,2 -9,0 0,2 9,0 0,2 12,0 0,-2 9,0 0,-2 -9,0 0,-2 -3,0 0,-4 9,0 c 3.324,0 6,-2.676 6,-6 l 0,-36 c 0,-3.324 -2.676,-6 -6,-6 L 42,20 z M 24.5,28 C 22.007,28 20,30.007 20,32.5 l 0,23 c 0,2.493 2.007,4.5 4.5,4.5 l 6,0 C 28.007,60 26,57.993 26,55.5 l 0,-3 0,-17 0,-3 C 26,30.007 28.007,28 30.5,28 l -6,0 z m 10,0 C 32.007,28 30,30.007 30,32.5 l 0,23 c 0,2.493 2.007,4.5 4.5,4.5 l 17,0 c 2.493,0 4.5,-2.007 4.5,-4.5 l 0,-23 C 56,30.007 53.993,28 51.5,28 l -17,0 z m 3,6 11,0 c 0.831,0 1.5,0.669 1.5,1.5 l 0,17 c 0,0.831 -0.669,1.5 -1.5,1.5 l -11,0 C 36.669,54 36,53.331 36,52.5 l 0,-17 C 36,34.669 36.669,34 37.5,34 z" />
      <path
         style="opacity:0.75;fill:#ffffff;fill-opacity:1;stroke:none;display:inline"
         id="path3869"
         inkscape:connector-curvature="0"
         d="m 42,20 c -3.324,0 -6,2.676 -6,6 l 0.09375,0 C 36.56513,23.152831 39.015138,21 42,21 l 24,0 c 3.324,0 6,2.676 6,6 l 0,-1 c 0,-3.324 -2.676,-6 -6,-6 L 42,20 z M 24.5,28 C 22.007,28 20,30.007 20,32.5 l 0,1 C 20,31.007 22.007,29 24.5,29 l 3.1875,0 c 0.769484,-0.615373 1.746145,-1 2.8125,-1 l -6,0 z m 10,0 C 32.007,28 30,30.007 30,32.5 l 0,1 C 30,31.007 32.007,29 34.5,29 l 17,0 c 2.493,0 4.5,2.007 4.5,4.5 l 0,-1 C 56,30.007 53.993,28 51.5,28 l -17,0 z m 1.5,24.5 0,1 c 0,0.831 0.669,1.5 1.5,1.5 l 11,0 c 0.831,0 1.5,-0.669 1.5,-1.5 l 0,-1 c 0,0.831 -0.669,1.5 -1.5,1.5 l -11,0 C 36.669,54 36,53.331 36,52.5 z m -10,3 0,1 c 0,1.426645 0.658031,2.67671 1.6875,3.5 L 30.5,60 C 28.007,60 26,57.993 26,55.5 z M 66,59 c 0,1.662 -1.338,3 -3,3 l -27,0 c 0,0.339138 0.04019,0.676507 0.09375,1 L 63,63 c 1.662,0 3,-1.338 3,-3 l 0,-1 z m -18,13 0,1 3,0 0,-1 -3,0 z m 9,0 0,1 3,0 0,-1 -3,0 z m -18,2 0,1 9,0 0,-1 -9,0 z m 21,0 0,1 9,0 0,-1 -9,0 z" />
      <path
         style="opacity:0.15;fill:#000000;fill-opacity:1;stroke:none;display:inline"
         id="path3878"
         inkscape:connector-curvature="0"
         d="M 36.09375,25 C 36.040192,25.323493 36,25.660862 36,26 l 27,0 c 1.662,0 3,1.338 3,3 l 0,-1 c 0,-1.662 -1.338,-3 -3,-3 L 36.09375,25 z M 27.6875,28 C 26.658031,28.82329 26,30.073355 26,31.5 l 0,1 C 26,30.007 28.007,28 30.5,28 l -2.8125,0 z M 37.5,33 C 36.669,33 36,33.669 36,34.5 l 0,1 C 36,34.669 36.669,34 37.5,34 l 11,0 c 0.831,0 1.5,0.669 1.5,1.5 l 0,-1 C 50,33.669 49.331,33 48.5,33 l -11,0 z M 20,54.5 l 0,1 c 0,2.493 2.007,4.5 4.5,4.5 l 6,0 c -1.066355,0 -2.043016,-0.384627 -2.8125,-1 L 24.5,59 C 22.007,59 20,56.993 20,54.5 z m 10,0 0,1 c 0,2.493 2.007,4.5 4.5,4.5 l 17,0 c 2.493,0 4.5,-2.007 4.5,-4.5 l 0,-1 c 0,2.493 -2.007,4.5 -4.5,4.5 l -17,0 C 32.007,59 30,56.993 30,54.5 z M 72,61 c 0,3.324 -2.676,6 -6,6 l -9,0 0,1 9,0 c 3.324,0 6,-2.676 6,-6 l 0,-1 z m -36,1 c 0,3.324 2.676,6 6,6 l 9,0 0,-1 -9,0 c -2.984862,0 -5.43487,-2.152831 -5.90625,-5 L 36,62 z m 3,13 0,1 9,0 0,-1 -9,0 z m 21,0 0,1 9,0 0,-1 -9,0 z m -12,2 0,1 12,0 0,-1 -12,0 z" />
    </g>
    <rect
       ry="25"
       rx="25"
       id="rect3003"
       style="opacity:0.15;fill:#ffffff;fill-opacity:1"
       height="92"
       width="92"
       y="958.36218"
       x="-96"
       clip-path="url(#clipPath3009)"
       transform="translate(98,0)" />
  </g>
</svg>
