<?xml version="1.0" encoding="UTF-8" standalone="no"?>
<!-- Created with Inkscape (http://www.inkscape.org/) -->

<svg
   xmlns:dc="http://purl.org/dc/elements/1.1/"
   xmlns:cc="http://creativecommons.org/ns#"
   xmlns:rdf="http://www.w3.org/1999/02/22-rdf-syntax-ns#"
   xmlns:svg="http://www.w3.org/2000/svg"
   xmlns="http://www.w3.org/2000/svg"
   xmlns:xlink="http://www.w3.org/1999/xlink"
   xmlns:sodipodi="http://sodipodi.sourceforge.net/DTD/sodipodi-0.dtd"
   xmlns:inkscape="http://www.inkscape.org/namespaces/inkscape"
   width="96"
   height="96"
   id="svg11037"
   version="1.1"
   inkscape:version="0.48.3.1 r9886"
   sodipodi:docname="add-files-to-archive.svg">
  <defs
     id="defs11039">
    <linearGradient
       y2="1046.1001"
       x2="47.999954"
       y1="962.62189"
       x1="47.999954"
       gradientTransform="matrix(1.15,0,0,1.15,-7.1999462,-150.65291)"
       gradientUnits="userSpaceOnUse"
       id="linearGradient3886"
       xlink:href="#linearGradient3795"
       inkscape:collect="always" />
    <linearGradient
       id="linearGradient3795">
      <stop
         style="stop-color:#13a6fd;stop-opacity:1;"
         offset="0"
         id="stop3797" />
      <stop
         style="stop-color:#2975b6;stop-opacity:1;"
         offset="1"
         id="stop3799" />
    </linearGradient>
    <clipPath
       clipPathUnits="userSpaceOnUse"
       id="clipPath3009">
      <path
         id="path3011"
         d="m -2,956.36218 -96,0 0,33.5624 96,25.68742 0,-59.24982 z"
         style="opacity:0.15;fill:#ffffff;fill-opacity:1;stroke:none"
         inkscape:connector-curvature="0" />
    </clipPath>
    <linearGradient
       x1="11.998966"
       y1="1.8417114"
       x2="11.998966"
       y2="20.237488"
       id="linearGradient3867"
       xlink:href="#linearGradient3637"
       gradientUnits="userSpaceOnUse"
       gradientTransform="matrix(2.7741687,0,0,3.2616291,2.819831,13.992926)" />
    <linearGradient
       id="linearGradient3637">
      <stop
         id="stop3639"
         style="stop-color:#f0f0f0;stop-opacity:1"
         offset="0" />
      <stop
         id="stop3641"
         style="stop-color:#aaaaaa;stop-opacity:1"
         offset="1" />
    </linearGradient>
    <linearGradient
       x1="11.998966"
       y1="1.8417114"
       x2="11.998966"
       y2="20.237488"
       id="linearGradient3105"
       xlink:href="#linearGradient3637-3"
       gradientUnits="userSpaceOnUse"
       gradientTransform="matrix(2.7741687,0,0,3.2616291,2.819831,13.992926)" />
    <linearGradient
       id="linearGradient3637-3">
      <stop
         id="stop3639-1"
         style="stop-color:#f0f0f0;stop-opacity:1"
         offset="0" />
      <stop
         id="stop3641-4"
         style="stop-color:#aaaaaa;stop-opacity:1"
         offset="1" />
    </linearGradient>
  </defs>
  <sodipodi:namedview
     id="base"
     pagecolor="#ffffff"
     bordercolor="#666666"
     borderopacity="1.0"
     inkscape:pageopacity="0.0"
     inkscape:pageshadow="2"
     inkscape:zoom="3.959798"
     inkscape:cx="29.118614"
     inkscape:cy="59.964634"
     inkscape:document-units="px"
     inkscape:current-layer="layer1"
     showgrid="false"
     inkscape:window-width="1280"
     inkscape:window-height="750"
     inkscape:window-x="0"
     inkscape:window-y="22"
     inkscape:window-maximized="1"
     showguides="true"
     inkscape:guide-bbox="true">
    <sodipodi:guide
       orientation="0,1"
       position="-24.748737,0"
       id="guide11064" />
    <sodipodi:guide
       orientation="0,1"
       position="-23.233509,96"
       id="guide11066" />
    <sodipodi:guide
       orientation="1,0"
       position="0,54.800776"
       id="guide11068" />
    <sodipodi:guide
       orientation="1,0"
       position="96,51.012704"
       id="guide11070" />
    <sodipodi:guide
       orientation="0,1"
       position="-18.94036,48"
       id="guide11072" />
    <sodipodi:guide
       orientation="1,0"
       position="48,79.296975"
       id="guide11074" />
    <sodipodi:guide
       orientation="1,0"
       position="2,75.508903"
       id="guide11076" />
    <sodipodi:guide
       orientation="0,1"
       position="-77.27667,2"
       id="guide11078" />
    <sodipodi:guide
       orientation="1,0"
       position="94,77.781746"
       id="guide11080" />
    <sodipodi:guide
       orientation="0,1"
       position="-65.912454,94"
       id="guide11082" />
  </sodipodi:namedview>
  <metadata
     id="metadata11042">
    <rdf:RDF>
      <cc:Work
         rdf:about="">
        <dc:format>image/svg+xml</dc:format>
        <dc:type
           rdf:resource="http://purl.org/dc/dcmitype/StillImage" />
        <dc:title></dc:title>
      </cc:Work>
    </rdf:RDF>
  </metadata>
  <g
     inkscape:label="Layer 1"
     inkscape:groupmode="layer"
     id="layer1"
     transform="translate(0,-956.36218)">
    <rect
       x="2"
       y="958.36218"
       width="92"
       height="92"
       style="fill:#000000;fill-opacity:1;opacity:0.6"
       id="rect3867"
       rx="25"
       ry="25" />
    <g
       transform="translate(0,956.36218)"
       style="display:inline"
       id="g3077">
      <path
         style="opacity:0.3;fill:#000000;fill-opacity:1;stroke:none;display:inline"
         id="path3894"
         inkscape:connector-curvature="0"
         d="m 42,21 c -3.324,0 -6,2.676 -6,6 l 27,0 c 1.662,0 3,1.338 3,3 l 0,30 c 0,1.662 -1.338,3 -3,3 l -27,0 c 0,3.324 2.676,6 6,6 l 9,0 0,4 -3,0 0,2 -9,0 0,2 9,0 0,2 12,0 0,-2 9,0 0,-2 -9,0 0,-2 -3,0 0,-4 9,0 c 3.324,0 6,-2.676 6,-6 l 0,-36 c 0,-3.324 -2.676,-6 -6,-6 l -24,0 z m -17.03125,7.09375 c -1.662,0 -3,1.338 -3,3 l 0,1.90625 31.78125,0 c -0.440564,-1.108944 -1.512703,-1.90625 -2.78125,-1.90625 l -16,0 c 0,-1.662 -1.338,-3 -3,-3 l -7,0 z m -0.5,7 c -2.493,0 -4.5,2.007 -4.5,4.5 l 0,17 c 0,2.493 2.007,4.5 4.5,4.5 l 4.5,0 22.53125,0 c 2.513527,0 4.415584,-2.195801 4.46875,-4.5 l 0,-17 c 0,-2.493 -2.007,-4.5 -4.5,-4.5 l -3,0 -15,0 -9,0 z" />
      <path
         style="fill:url(#linearGradient3105);fill-opacity:1;stroke:none;display:inline"
         id="path3096"
         inkscape:connector-curvature="0"
         d="m 42,20 c -3.324,0 -6,2.676 -6,6 l 27,0 c 1.662,0 3,1.338 3,3 l 0,30 c 0,1.662 -1.338,3 -3,3 l -27,0 c 0,3.324 2.676,6 6,6 l 9,0 0,4 -3,0 0,2 -9,0 0,2 9,0 0,2 12,0 0,-2 9,0 0,-2 -9,0 0,-2 -3,0 0,-4 9,0 c 3.324,0 6,-2.676 6,-6 l 0,-36 c 0,-3.324 -2.676,-6 -6,-6 l -24,0 z m -17.03125,7.09375 c -1.662,0 -3,1.338 -3,3 l 0,1.90625 31.78125,0 c -0.440564,-1.108944 -1.512703,-1.90625 -2.78125,-1.90625 l -16,0 c 0,-1.662 -1.338,-3 -3,-3 l -7,0 z m -0.5,7 c -2.493,0 -4.5,2.007 -4.5,4.5 l 0,17 c 0,2.493 2.007,4.5 4.5,4.5 l 4.5,0 22.53125,0 c 2.513527,0 4.415584,-2.195801 4.46875,-4.5 l 0,-17 c 0,-2.493 -2.007,-4.5 -4.5,-4.5 l -3,0 -15,0 -9,0 z" />
      <path
         style="opacity:0.75;fill:#ffffff;fill-opacity:1;stroke:none;display:inline"
         id="path3108"
         inkscape:connector-curvature="0"
         d="m 42,20 c -3.324,0 -6,2.676 -6,6 l 0.09375,0 C 36.56513,23.152831 39.015138,21 42,21 l 24,0 c 3.324,0 6,2.676 6,6 l 0,-1 c 0,-3.324 -2.676,-6 -6,-6 l -24,0 z m -17.03125,7.09375 c -1.662,0 -3,1.338 -3,3 l 0,1 c 0,-1.662 1.338,-3 3,-3 l 7,0 c 1.662,0 3,1.338 3,3 l 16,0 c 0.840412,0 1.583533,0.347585 2.125,0.90625 L 53.75,32 c -0.440564,-1.108944 -1.512703,-1.90625 -2.78125,-1.90625 l -16,0 c 0,-1.662 -1.338,-3 -3,-3 l -7,0 z m -0.5,7 c -2.493,0 -4.5,2.007 -4.5,4.5 l 0,1 c 0,-2.493 2.007,-4.5 4.5,-4.5 l 9,0 15,0 3,0 c 2.493,0 4.5,2.007 4.5,4.5 l 0,-1 c 0,-2.493 -2.007,-4.5 -4.5,-4.5 l -3,0 -15,0 -9,0 z M 66,59 c 0,1.662 -1.338,3 -3,3 l -27,0 c 0,0.339138 0.04019,0.676507 0.09375,1 L 63,63 c 1.662,0 3,-1.338 3,-3 l 0,-1 z m -18,13 0,1 3,0 0,-1 -3,0 z m 9,0 0,1 3,0 0,-1 -3,0 z m -18,2 0,1 9,0 0,-1 -9,0 z m 21,0 0,1 9,0 0,-1 -9,0 z" />
      <path
         style="opacity:0.15;fill:#000000;fill-opacity:1;stroke:none;display:inline"
         id="path3117"
         inkscape:connector-curvature="0"
         d="M 36.09375,25 C 36.040192,25.323493 36,25.660862 36,26 l 27,0 c 1.662,0 3,1.338 3,3 l 0,-1 c 0,-1.662 -1.338,-3 -3,-3 l -26.90625,0 z m -14.125,6 0,1 31.78125,0 c -0.14869,-0.374269 -0.380408,-0.715397 -0.65625,-1 l -31.125,0 z m -2,23.59375 0,1 c 0,2.493 2.007,4.5 4.5,4.5 l 4.5,0 22.53125,0 c 2.513527,0 4.415584,-2.195801 4.46875,-4.5 l 0,-1 c -0.05317,2.304199 -1.955223,4.5 -4.46875,4.5 l -22.53125,0 -4.5,0 c -2.493,0 -4.5,-2.007 -4.5,-4.5 z M 72,61 c 0,3.324 -2.676,6 -6,6 l -9,0 0,1 9,0 c 3.324,0 6,-2.676 6,-6 l 0,-1 z m -36,1 c 0,3.324 2.676,6 6,6 l 9,0 0,-1 -9,0 c -2.984862,0 -5.43487,-2.152831 -5.90625,-5 L 36,62 z m 3,13 0,1 9,0 0,-1 -9,0 z m 21,0 0,1 9,0 0,-1 -9,0 z m -12,2 0,1 12,0 0,-1 -12,0 z" />
    </g>
    <rect
       ry="25"
       rx="25"
       id="rect3003"
       style="opacity:0.15;fill:#ffffff;fill-opacity:1"
       height="92"
       width="92"
       y="958.36218"
       x="-96"
       clip-path="url(#clipPath3009)"
       transform="translate(98,0)" />
  </g>
</svg>
