<?xml version="1.0" encoding="UTF-8" standalone="no"?>
<!-- Created with Inkscape (http://www.inkscape.org/) -->

<svg
   xmlns:dc="http://purl.org/dc/elements/1.1/"
   xmlns:cc="http://creativecommons.org/ns#"
   xmlns:rdf="http://www.w3.org/1999/02/22-rdf-syntax-ns#"
   xmlns:svg="http://www.w3.org/2000/svg"
   xmlns="http://www.w3.org/2000/svg"
   xmlns:xlink="http://www.w3.org/1999/xlink"
   xmlns:sodipodi="http://sodipodi.sourceforge.net/DTD/sodipodi-0.dtd"
   xmlns:inkscape="http://www.inkscape.org/namespaces/inkscape"
   width="96"
   height="96"
   id="svg11037"
   version="1.1"
   inkscape:version="0.48.3.1 r9886"
   sodipodi:docname="bookmark-new.svg">
  <defs
     id="defs11039">
    <linearGradient
       y2="1046.1001"
       x2="47.999954"
       y1="962.62189"
       x1="47.999954"
       gradientTransform="matrix(1.15,0,0,1.15,-7.1999462,-150.65291)"
       gradientUnits="userSpaceOnUse"
       id="linearGradient3886"
       xlink:href="#linearGradient3795"
       inkscape:collect="always" />
    <linearGradient
       id="linearGradient3795">
      <stop
         style="stop-color:#13a6fd;stop-opacity:1;"
         offset="0"
         id="stop3797" />
      <stop
         style="stop-color:#2975b6;stop-opacity:1;"
         offset="1"
         id="stop3799" />
    </linearGradient>
    <clipPath
       clipPathUnits="userSpaceOnUse"
       id="clipPath3009">
      <path
         id="path3011"
         d="m -2,956.36218 -96,0 0,33.5624 96,25.68742 0,-59.24982 z"
         style="opacity:0.15;fill:#ffffff;fill-opacity:1;stroke:none"
         inkscape:connector-curvature="0" />
    </clipPath>
    <linearGradient
       x1="11.998966"
       y1="1.8417114"
       x2="11.998966"
       y2="20.237488"
       id="linearGradient3867"
       xlink:href="#linearGradient3637"
       gradientUnits="userSpaceOnUse"
       gradientTransform="matrix(2.7741687,0,0,3.2616291,2.819831,13.992926)" />
    <linearGradient
       id="linearGradient3637">
      <stop
         id="stop3639"
         style="stop-color:#f0f0f0;stop-opacity:1"
         offset="0" />
      <stop
         id="stop3641"
         style="stop-color:#aaaaaa;stop-opacity:1"
         offset="1" />
    </linearGradient>
    <linearGradient
       x1="11.998966"
       y1="1.8417114"
       x2="11.998966"
       y2="20.237488"
       id="linearGradient3105"
       xlink:href="#linearGradient3637-3"
       gradientUnits="userSpaceOnUse"
       gradientTransform="matrix(2.7741687,0,0,3.2616291,2.819831,13.992926)" />
    <linearGradient
       id="linearGradient3637-3">
      <stop
         id="stop3639-1"
         style="stop-color:#f0f0f0;stop-opacity:1"
         offset="0" />
      <stop
         id="stop3641-4"
         style="stop-color:#aaaaaa;stop-opacity:1"
         offset="1" />
    </linearGradient>
    <linearGradient
       x1="3"
       y1="11"
       x2="19"
       y2="11"
       id="linearGradient3139"
       xlink:href="#linearGradient3637-6"
       gradientUnits="userSpaceOnUse"
       gradientTransform="matrix(0,3.125,-3.125,0,84.375,11.625)" />
    <linearGradient
       id="linearGradient3637-6">
      <stop
         id="stop3639-5"
         style="stop-color:#f0f0f0;stop-opacity:1"
         offset="0" />
      <stop
         id="stop3641-9"
         style="stop-color:#aaaaaa;stop-opacity:1"
         offset="1" />
    </linearGradient>
    <linearGradient
       x1="11.998966"
       y1="5.5317268"
       x2="11.998966"
       y2="20.282997"
       id="linearGradient3877"
       xlink:href="#linearGradient3637-2"
       gradientUnits="userSpaceOnUse"
       gradientTransform="matrix(2.7658632,0,0,3.2539569,10,6)" />
    <linearGradient
       id="linearGradient3637-2">
      <stop
         id="stop3639-4"
         style="stop-color:#f0f0f0;stop-opacity:1"
         offset="0" />
      <stop
         id="stop3641-3"
         style="stop-color:#aaaaaa;stop-opacity:1"
         offset="1" />
    </linearGradient>
    <linearGradient
       x1="652.021"
       y1="347.86285"
       x2="627.67029"
       y2="349.2926"
       id="linearGradient7313"
       xlink:href="#linearGradient3637-5"
       gradientUnits="userSpaceOnUse"
       gradientTransform="matrix(0.11586665,-1.9518366,1.9733605,0.1145396,-711.10468,1256.8145)" />
    <linearGradient
       id="linearGradient3637-5">
      <stop
         id="stop3639-9"
         style="stop-color:#f0f0f0;stop-opacity:1"
         offset="0" />
      <stop
         id="stop3641-8"
         style="stop-color:#aaaaaa;stop-opacity:1"
         offset="1" />
    </linearGradient>
  </defs>
  <sodipodi:namedview
     id="base"
     pagecolor="#ffffff"
     bordercolor="#666666"
     borderopacity="1.0"
     inkscape:pageopacity="0.0"
     inkscape:pageshadow="2"
     inkscape:zoom="3.959798"
     inkscape:cx="29.118614"
     inkscape:cy="59.964634"
     inkscape:document-units="px"
     inkscape:current-layer="layer1"
     showgrid="false"
     inkscape:window-width="1280"
     inkscape:window-height="750"
     inkscape:window-x="0"
     inkscape:window-y="22"
     inkscape:window-maximized="1"
     showguides="true"
     inkscape:guide-bbox="true">
    <sodipodi:guide
       orientation="0,1"
       position="-24.748737,0"
       id="guide11064" />
    <sodipodi:guide
       orientation="0,1"
       position="-23.233509,96"
       id="guide11066" />
    <sodipodi:guide
       orientation="1,0"
       position="0,54.800776"
       id="guide11068" />
    <sodipodi:guide
       orientation="1,0"
       position="96,51.012704"
       id="guide11070" />
    <sodipodi:guide
       orientation="0,1"
       position="-18.94036,48"
       id="guide11072" />
    <sodipodi:guide
       orientation="1,0"
       position="48,79.296975"
       id="guide11074" />
    <sodipodi:guide
       orientation="1,0"
       position="2,75.508903"
       id="guide11076" />
    <sodipodi:guide
       orientation="0,1"
       position="-77.27667,2"
       id="guide11078" />
    <sodipodi:guide
       orientation="1,0"
       position="94,77.781746"
       id="guide11080" />
    <sodipodi:guide
       orientation="0,1"
       position="-65.912454,94"
       id="guide11082" />
  </sodipodi:namedview>
  <metadata
     id="metadata11042">
    <rdf:RDF>
      <cc:Work
         rdf:about="">
        <dc:format>image/svg+xml</dc:format>
        <dc:type
           rdf:resource="http://purl.org/dc/dcmitype/StillImage" />
        <dc:title></dc:title>
      </cc:Work>
    </rdf:RDF>
  </metadata>
  <g
     inkscape:label="Layer 1"
     inkscape:groupmode="layer"
     id="layer1"
     transform="translate(0,-956.36218)">
    <rect
       x="2"
       y="958.36218"
       width="92"
       height="92"
       style="fill:#000000;fill-opacity:1;opacity:0.6"
       id="rect3867"
       rx="25"
       ry="25" />
    <g
       transform="translate(1.6375937e-7,956.36218)"
       style="display:inline"
       id="g3070">
      <path
         style="opacity:0.3;fill:#000000;fill-opacity:1;display:inline"
         id="path3886"
         inkscape:connector-curvature="0"
         d="m 71.845479,38.905446 c -0.227691,1.037229 -1.773783,5.569235 -2.509801,7.355542 -1.022418,2.481463 -3.330084,6.453138 -5.008866,8.620702 -2.006213,2.590305 -3.884901,4.488075 -7.489841,7.565992 -5.533894,4.724877 -10.985191,7.908194 -16.562938,9.672079 -2.570734,0.812906 -3.581257,0.963253 -5.675132,0.844272 -4.18166,-0.236272 -8.636754,-2.727546 -10.15667,-5.676388 -0.431156,-0.83654 -0.475126,-1.17258 -0.426546,-3.259966 0.06179,-2.655561 0.226866,-3.043636 1.528721,-3.598923 2.079478,-0.886793 10.68477,-3.751932 11.181993,-3.723074 0.820605,0.04763 2.813312,1.436118 4.403909,3.068575 1.765848,1.812285 2.05486,1.846345 4.482439,0.528533 4.957205,-2.69137 8.87596,-6.154974 11.953282,-10.564977 1.596368,-2.287649 3.305834,-5.36844 3.345003,-6.028279 0.05566,-0.937382 -0.198027,-1.31029 -1.776736,-2.613375 -1.855334,-1.53132 -3.871839,-3.557931 -4.166902,-4.187714 -0.30077,-0.642081 -0.275467,-0.700245 2.204236,-5.072698 1.162393,-2.049655 2.454089,-4.339615 2.870534,-5.088754 0.416347,-0.749198 0.908536,-1.472348 1.093746,-1.607066 0.604088,-0.439396 4.534806,0.228269 5.890937,1.000866 1.376198,0.783871 3.281662,3.271269 4.040354,5.274312 0.790232,2.086261 1.167332,5.716014 0.778265,7.490448 z" />
      <path
         style="fill:url(#linearGradient7313);fill-opacity:1;display:inline"
         id="path4609"
         inkscape:connector-curvature="0"
         d="m 71.845479,37.905446 c -0.227691,1.037229 -1.773783,5.569235 -2.509801,7.355542 -1.022418,2.481463 -3.330084,6.453138 -5.008866,8.620702 -2.006213,2.590305 -3.884901,4.488075 -7.489841,7.565992 -5.533894,4.724877 -10.985191,7.908194 -16.562938,9.672079 -2.570734,0.812906 -3.581257,0.963253 -5.675132,0.844272 -4.18166,-0.236272 -8.636754,-2.727546 -10.15667,-5.676388 -0.431156,-0.83654 -0.475126,-1.17258 -0.426546,-3.259966 0.06179,-2.655561 0.226866,-3.043636 1.528721,-3.598923 2.079478,-0.886793 10.68477,-3.751932 11.181993,-3.723074 0.820605,0.04763 2.813312,1.436118 4.403909,3.068575 1.765848,1.812285 2.05486,1.846345 4.482439,0.528533 4.957205,-2.69137 8.87596,-6.154974 11.953282,-10.564977 1.596368,-2.287649 3.305834,-5.36844 3.345003,-6.028279 0.05566,-0.937382 -0.198027,-1.31029 -1.776736,-2.613375 -1.855334,-1.53132 -3.871839,-3.557931 -4.166902,-4.187714 -0.30077,-0.642081 -0.275467,-0.700245 2.204236,-5.072698 1.162393,-2.049655 2.454089,-4.339615 2.870534,-5.088754 0.416347,-0.749198 0.908536,-1.472348 1.093746,-1.607066 0.604088,-0.439396 4.534806,0.228269 5.890937,1.000866 1.376198,0.783871 3.281662,3.271269 4.040354,5.274312 0.790232,2.086261 1.167332,5.716014 0.778265,7.490448 z" />
      <path
         style="opacity:0.75;fill:#ffffff;fill-opacity:1;display:inline"
         id="path3868"
         inkscape:connector-curvature="0"
         d="m 62.125,24 c -0.474644,-0.01288 -0.848978,0.01515 -1,0.125 -0.18521,0.134718 -0.677403,0.875802 -1.09375,1.625 -0.416445,0.749139 -1.712607,3.044095 -2.875,5.09375 -2.479703,4.372453 -2.48827,4.420419 -2.1875,5.0625 0.242818,-0.616356 0.848588,-1.701601 2.1875,-4.0625 1.162393,-2.049655 2.458555,-4.344611 2.875,-5.09375 0.416347,-0.749198 0.90854,-1.490282 1.09375,-1.625 0.604088,-0.439396 4.550119,0.258653 5.90625,1.03125 1.376198,0.783871 3.272558,3.246957 4.03125,5.25 0.538458,1.421563 0.863112,3.564187 0.90625,5.34375 0.09847,-1.911513 -0.2606,-4.639195 -0.90625,-6.34375 -0.758692,-2.003043 -2.655052,-4.466129 -4.03125,-5.25 C 66.014152,24.576802 63.548933,24.038626 62.125,24 z m -1.28125,18.96875 c -0.297024,0.974394 -1.829169,3.700369 -3.28125,5.78125 -3.077322,4.410003 -6.980295,7.87113 -11.9375,10.5625 -2.427579,1.317812 -2.734152,1.281035 -4.5,-0.53125 -1.590597,-1.632457 -3.585645,-3.01487 -4.40625,-3.0625 -0.497223,-0.02886 -9.108022,2.831957 -11.1875,3.71875 -1.301855,0.555287 -1.43821,0.938189 -1.5,3.59375 -0.0159,0.683005 -0.01424,1.14437 0,1.53125 0.0027,-0.181158 -0.005,-0.315003 0,-0.53125 0.06179,-2.655561 0.198145,-3.038463 1.5,-3.59375 2.079478,-0.886793 10.690277,-3.747608 11.1875,-3.71875 0.820605,0.04763 2.815653,1.430043 4.40625,3.0625 1.765848,1.812285 2.072421,1.849062 4.5,0.53125 4.957205,-2.69137 8.860178,-6.152497 11.9375,-10.5625 1.596368,-2.287649 3.304581,-5.371411 3.34375,-6.03125 0.01693,-0.28512 0.0064,-0.527266 -0.0625,-0.75 z" />
      <path
         style="opacity:0.15;fill:#000000;fill-opacity:1;display:inline"
         id="path3877"
         inkscape:connector-curvature="0"
         d="m 54.96875,34.90625 c -0.206888,0.525153 -0.13837,0.70461 0,1 0.295063,0.629783 2.300916,2.65618 4.15625,4.1875 1.098518,0.90673 1.561148,1.365459 1.71875,1.875 0.02951,-0.09682 0.05896,-0.190361 0.0625,-0.25 0.05566,-0.937382 -0.202541,-1.321915 -1.78125,-2.625 -1.855334,-1.53132 -3.861187,-3.557717 -4.15625,-4.1875 z m 17,0.84375 c -0.02205,0.428051 -0.05382,0.831596 -0.125,1.15625 -0.227691,1.037229 -1.763982,5.557443 -2.5,7.34375 -1.022418,2.481463 -3.352468,6.457436 -5.03125,8.625 -2.006213,2.590305 -3.86381,4.484583 -7.46875,7.5625 -5.533894,4.724877 -10.984753,7.923615 -16.5625,9.6875 -2.570734,0.812906 -3.593625,0.962731 -5.6875,0.84375 -4.18166,-0.236272 -8.636334,-2.738658 -10.15625,-5.6875 -0.290079,-0.562819 -0.376963,-0.923255 -0.40625,-1.71875 -0.02352,1.567527 0.01976,1.968873 0.40625,2.71875 1.519916,2.948842 5.97459,5.451228 10.15625,5.6875 2.093875,0.118981 3.116766,-0.03084 5.6875,-0.84375 5.577747,-1.763885 11.028606,-4.962623 16.5625,-9.6875 3.60494,-3.077917 5.462537,-4.972195 7.46875,-7.5625 1.678782,-2.167564 4.008832,-6.143537 5.03125,-8.625 0.736018,-1.786307 2.272309,-6.306521 2.5,-7.34375 0.123959,-0.565347 0.145171,-1.324158 0.125,-2.15625 z" />
    </g>
    <rect
       ry="25"
       rx="25"
       id="rect3003"
       style="opacity:0.15;fill:#ffffff;fill-opacity:1"
       height="92"
       width="92"
       y="958.36218"
       x="-96"
       clip-path="url(#clipPath3009)"
       transform="translate(98,0)" />
  </g>
</svg>
