<?xml version="1.0" encoding="UTF-8" standalone="no"?>
<!-- Created with Inkscape (http://www.inkscape.org/) -->

<svg
   xmlns:dc="http://purl.org/dc/elements/1.1/"
   xmlns:cc="http://creativecommons.org/ns#"
   xmlns:rdf="http://www.w3.org/1999/02/22-rdf-syntax-ns#"
   xmlns:svg="http://www.w3.org/2000/svg"
   xmlns="http://www.w3.org/2000/svg"
   xmlns:xlink="http://www.w3.org/1999/xlink"
   xmlns:sodipodi="http://sodipodi.sourceforge.net/DTD/sodipodi-0.dtd"
   xmlns:inkscape="http://www.inkscape.org/namespaces/inkscape"
   width="96"
   height="96"
   id="svg11037"
   version="1.1"
   inkscape:version="0.48.3.1 r9886"
   sodipodi:docname="call-start.svg">
  <defs
     id="defs11039">
    <linearGradient
       y2="1046.1001"
       x2="47.999954"
       y1="962.62189"
       x1="47.999954"
       gradientTransform="matrix(1.15,0,0,1.15,-7.1999462,-150.65291)"
       gradientUnits="userSpaceOnUse"
       id="linearGradient3886"
       xlink:href="#linearGradient3795"
       inkscape:collect="always" />
    <linearGradient
       id="linearGradient3795">
      <stop
         style="stop-color:#13a6fd;stop-opacity:1;"
         offset="0"
         id="stop3797" />
      <stop
         style="stop-color:#2975b6;stop-opacity:1;"
         offset="1"
         id="stop3799" />
    </linearGradient>
    <clipPath
       clipPathUnits="userSpaceOnUse"
       id="clipPath3009">
      <path
         id="path3011"
         d="m -2,956.36218 -96,0 0,33.5624 96,25.68742 0,-59.24982 z"
         style="opacity:0.15;fill:#ffffff;fill-opacity:1;stroke:none"
         inkscape:connector-curvature="0" />
    </clipPath>
    <linearGradient
       x1="11.998966"
       y1="1.8417114"
       x2="11.998966"
       y2="20.237488"
       id="linearGradient3867"
       xlink:href="#linearGradient3637"
       gradientUnits="userSpaceOnUse"
       gradientTransform="matrix(2.7741687,0,0,3.2616291,2.819831,13.992926)" />
    <linearGradient
       id="linearGradient3637">
      <stop
         id="stop3639"
         style="stop-color:#f0f0f0;stop-opacity:1"
         offset="0" />
      <stop
         id="stop3641"
         style="stop-color:#aaaaaa;stop-opacity:1"
         offset="1" />
    </linearGradient>
    <linearGradient
       x1="11.998966"
       y1="1.8417114"
       x2="11.998966"
       y2="20.237488"
       id="linearGradient3105"
       xlink:href="#linearGradient3637-3"
       gradientUnits="userSpaceOnUse"
       gradientTransform="matrix(2.7741687,0,0,3.2616291,2.819831,13.992926)" />
    <linearGradient
       id="linearGradient3637-3">
      <stop
         id="stop3639-1"
         style="stop-color:#f0f0f0;stop-opacity:1"
         offset="0" />
      <stop
         id="stop3641-4"
         style="stop-color:#aaaaaa;stop-opacity:1"
         offset="1" />
    </linearGradient>
    <linearGradient
       x1="3"
       y1="11"
       x2="19"
       y2="11"
       id="linearGradient3139"
       xlink:href="#linearGradient3637-6"
       gradientUnits="userSpaceOnUse"
       gradientTransform="matrix(0,3.125,-3.125,0,84.375,11.625)" />
    <linearGradient
       id="linearGradient3637-6">
      <stop
         id="stop3639-5"
         style="stop-color:#f0f0f0;stop-opacity:1"
         offset="0" />
      <stop
         id="stop3641-9"
         style="stop-color:#aaaaaa;stop-opacity:1"
         offset="1" />
    </linearGradient>
    <linearGradient
       x1="11.998966"
       y1="5.5317268"
       x2="11.998966"
       y2="20.282997"
       id="linearGradient3877"
       xlink:href="#linearGradient3637-2"
       gradientUnits="userSpaceOnUse"
       gradientTransform="matrix(2.7658632,0,0,3.2539569,10,6)" />
    <linearGradient
       id="linearGradient3637-2">
      <stop
         id="stop3639-4"
         style="stop-color:#f0f0f0;stop-opacity:1"
         offset="0" />
      <stop
         id="stop3641-3"
         style="stop-color:#aaaaaa;stop-opacity:1"
         offset="1" />
    </linearGradient>
    <linearGradient
       x1="652.021"
       y1="347.86285"
       x2="627.67029"
       y2="349.2926"
       id="linearGradient7313"
       xlink:href="#linearGradient3637-5"
       gradientUnits="userSpaceOnUse"
       gradientTransform="matrix(0.11586665,-1.9518366,1.9733605,0.1145396,-711.10468,1256.8145)" />
    <linearGradient
       id="linearGradient3637-5">
      <stop
         id="stop3639-9"
         style="stop-color:#f0f0f0;stop-opacity:1"
         offset="0" />
      <stop
         id="stop3641-8"
         style="stop-color:#aaaaaa;stop-opacity:1"
         offset="1" />
    </linearGradient>
    <linearGradient
       x1="647.27832"
       y1="349.10172"
       x2="639.46515"
       y2="357.89178"
       id="linearGradient3811"
       xlink:href="#linearGradient3183-0"
       gradientUnits="userSpaceOnUse"
       gradientTransform="matrix(-1.3783144,1.2009005,-1.2251361,-1.3503034,1354.9038,-244.77384)" />
    <linearGradient
       id="linearGradient3183-0">
      <stop
         id="stop3185-9"
         style="stop-color:#c80000;stop-opacity:1"
         offset="0" />
      <stop
         id="stop3187-6"
         style="stop-color:#f3604d;stop-opacity:1"
         offset="1" />
    </linearGradient>
  </defs>
  <sodipodi:namedview
     id="base"
     pagecolor="#ffffff"
     bordercolor="#666666"
     borderopacity="1.0"
     inkscape:pageopacity="0.0"
     inkscape:pageshadow="2"
     inkscape:zoom="3.959798"
     inkscape:cx="29.118614"
     inkscape:cy="59.964634"
     inkscape:document-units="px"
     inkscape:current-layer="layer1"
     showgrid="false"
     inkscape:window-width="1280"
     inkscape:window-height="750"
     inkscape:window-x="0"
     inkscape:window-y="22"
     inkscape:window-maximized="1"
     showguides="true"
     inkscape:guide-bbox="true">
    <sodipodi:guide
       orientation="0,1"
       position="-24.748737,0"
       id="guide11064" />
    <sodipodi:guide
       orientation="0,1"
       position="-23.233509,96"
       id="guide11066" />
    <sodipodi:guide
       orientation="1,0"
       position="0,54.800776"
       id="guide11068" />
    <sodipodi:guide
       orientation="1,0"
       position="96,51.012704"
       id="guide11070" />
    <sodipodi:guide
       orientation="0,1"
       position="-18.94036,48"
       id="guide11072" />
    <sodipodi:guide
       orientation="1,0"
       position="48,79.296975"
       id="guide11074" />
    <sodipodi:guide
       orientation="1,0"
       position="2,75.508903"
       id="guide11076" />
    <sodipodi:guide
       orientation="0,1"
       position="-77.27667,2"
       id="guide11078" />
    <sodipodi:guide
       orientation="1,0"
       position="94,77.781746"
       id="guide11080" />
    <sodipodi:guide
       orientation="0,1"
       position="-65.912454,94"
       id="guide11082" />
  </sodipodi:namedview>
  <metadata
     id="metadata11042">
    <rdf:RDF>
      <cc:Work
         rdf:about="">
        <dc:format>image/svg+xml</dc:format>
        <dc:type
           rdf:resource="http://purl.org/dc/dcmitype/StillImage" />
        <dc:title></dc:title>
      </cc:Work>
    </rdf:RDF>
  </metadata>
  <g
     inkscape:label="Layer 1"
     inkscape:groupmode="layer"
     id="layer1"
     transform="translate(0,-956.36218)">
    <rect
       x="2"
       y="958.36218"
       width="92"
       height="92"
       style="fill:#000000;fill-opacity:1;opacity:0.6"
       id="rect3867"
       rx="25"
       ry="25" />
    <g
       transform="translate(3.7779796e-7,956.36218)"
       style="display:inline"
       id="g3070">
      <path
         style="opacity:0.3;fill:#000000;fill-opacity:1;display:inline"
         id="path3886"
         inkscape:connector-curvature="0"
         d="m 25.482773,46.905576 c 0.842007,-0.530814 4.884637,-2.493801 6.561568,-3.185688 2.329496,-0.961154 6.50067,-2.065669 9.053704,-2.397424 3.050962,-0.396444 5.555884,-0.422647 9.986534,-0.104495 6.801435,0.488364 12.520156,1.930956 17.375501,4.383072 2.237751,1.130188 3.004528,1.685045 4.306186,3.116144 2.600422,2.857163 3.877096,7.364986 2.912654,10.274813 -0.273612,0.825462 -0.468754,1.073528 -1.893103,2.406519 -1.812039,1.695827 -2.179764,1.842796 -3.408787,1.364326 -1.963027,-0.764384 -9.549745,-4.453464 -9.85844,-4.793695 -0.509462,-0.561512 -0.897622,-2.757017 -0.857841,-4.852092 0.04415,-2.325888 -0.123757,-2.534949 -2.603868,-3.242589 -5.064707,-1.444814 -9.959592,-1.713681 -14.930763,-0.820105 -2.578774,0.46351 -5.761175,1.37235 -6.227128,1.778328 -0.661946,0.576738 -0.743362,0.984441 -0.571296,2.856544 0.202276,2.200079 0.180501,4.828063 -0.04496,5.430417 -0.229918,0.614075 -0.285385,0.635751 -4.837348,1.891034 -2.133801,0.588442 -4.513167,1.250381 -5.28752,1.470885 -0.774325,0.220605 -1.581295,0.375167 -1.79331,0.343516 -0.69151,-0.103237 -2.838689,-3.08017 -3.217796,-4.461673 -0.384825,-1.401839 0.01739,-4.259243 0.853193,-6.058864 0.870357,-1.874401 3.042721,-4.490665 4.482894,-5.399034 z" />
      <path
         style="fill:url(#linearGradient3811);fill-opacity:1;display:inline"
         id="path4609"
         inkscape:connector-curvature="0"
         d="m 25.482773,45.905576 c 0.842007,-0.530814 4.884637,-2.493801 6.561568,-3.185688 2.329496,-0.961154 6.50067,-2.065669 9.053704,-2.397424 3.050962,-0.396444 5.555884,-0.422647 9.986534,-0.104495 6.801435,0.488364 12.520156,1.930956 17.375501,4.383072 2.237751,1.130188 3.004528,1.685045 4.306186,3.116144 2.600422,2.857163 3.877096,7.364986 2.912654,10.274813 -0.273612,0.825462 -0.468754,1.073528 -1.893103,2.406519 -1.812039,1.695827 -2.179764,1.842796 -3.408787,1.364326 -1.963027,-0.764384 -9.549745,-4.453464 -9.85844,-4.793695 -0.509462,-0.561512 -0.897622,-2.757017 -0.857841,-4.852092 0.04415,-2.325888 -0.123757,-2.534949 -2.603868,-3.242589 -5.064707,-1.444814 -9.959592,-1.713681 -14.930763,-0.820105 -2.578774,0.46351 -5.761175,1.37235 -6.227128,1.778328 -0.661946,0.576738 -0.743362,0.984441 -0.571296,2.856544 0.202276,2.200079 0.180501,4.828063 -0.04496,5.430417 -0.229918,0.614075 -0.285385,0.635751 -4.837348,1.891034 -2.133801,0.588442 -4.513167,1.250381 -5.28752,1.470885 -0.774325,0.220605 -1.581295,0.375167 -1.79331,0.343516 -0.69151,-0.103237 -2.838689,-3.08017 -3.217796,-4.461673 -0.384825,-1.401839 0.01739,-4.259243 0.853193,-6.058864 0.870357,-1.874401 3.042721,-4.490665 4.482894,-5.399034 z" />
      <path
         style="opacity:0.3;fill:#ffffff;fill-opacity:1;display:inline"
         id="path3868"
         inkscape:connector-curvature="0"
         d="m 45.5625,40 c -1.561432,0.01634 -2.943269,0.114278 -4.46875,0.3125 -2.553034,0.331755 -6.733004,1.445096 -9.0625,2.40625 -1.676931,0.691887 -5.720493,2.656686 -6.5625,3.1875 -1.440173,0.908369 -3.598393,3.531849 -4.46875,5.40625 -0.698154,1.50324 -1.081663,3.735496 -0.96875,5.25 0.06843,-1.393098 0.412994,-3.053367 0.96875,-4.25 0.870357,-1.874401 3.028577,-4.497881 4.46875,-5.40625 0.842007,-0.530814 4.885569,-2.495613 6.5625,-3.1875 2.329496,-0.961154 6.509466,-2.074495 9.0625,-2.40625 3.050962,-0.396444 5.56935,-0.411902 10,-0.09375 6.801435,0.488364 12.519655,1.922884 17.375,4.375 2.237751,1.130188 3.010842,1.693901 4.3125,3.125 1.904652,2.0927 3.063606,5.068994 3.1875,7.65625 0.183715,-2.785379 -1.033623,-6.28972 -3.1875,-8.65625 -1.301658,-1.431099 -2.074749,-1.994812 -4.3125,-3.125 -4.855345,-2.452116 -10.573565,-3.886636 -17.375,-4.375 C 48.878425,40.059674 47.123932,39.983663 45.5625,40 z M 35.28125,52.125 c -0.02769,0.379971 -0.03505,0.841095 0.03125,1.5625 0.07878,0.856851 0.144237,1.752029 0.15625,2.59375 0.02186,-1.063838 -0.0443,-2.376116 -0.15625,-3.59375 -0.02093,-0.227707 -0.01841,-0.375183 -0.03125,-0.5625 z" />
      <path
         style="opacity:0.1;fill:#000000;fill-opacity:1;display:inline"
         id="path3877"
         inkscape:connector-curvature="0"
         d="m 47.6875,46.53125 c -1.855712,0.0074 -3.698311,0.196159 -5.5625,0.53125 -2.578774,0.46351 -5.752797,1.375272 -6.21875,1.78125 -0.581433,0.506589 -0.717725,0.928532 -0.625,2.28125 0.04416,-0.606084 0.218131,-0.926755 0.625,-1.28125 0.465953,-0.405978 3.639976,-1.31774 6.21875,-1.78125 4.971171,-0.893576 9.872793,-0.632314 14.9375,0.8125 2.061863,0.588303 2.521338,0.848077 2.59375,2.25 0.04415,-2.325888 -0.113639,-2.54236 -2.59375,-3.25 -3.165442,-0.903009 -6.282147,-1.356153 -9.375,-1.34375 z m 11.96875,4.8125 c 0.0052,0.229693 0.0055,0.490514 0,0.78125 -0.03978,2.095075 0.365538,4.282238 0.875,4.84375 0.308695,0.340231 7.880723,4.016866 9.84375,4.78125 1.229023,0.47847 1.594211,0.352077 3.40625,-1.34375 1.424349,-1.332991 1.632638,-1.580788 1.90625,-2.40625 0.258046,-0.778554 0.326508,-1.679875 0.28125,-2.625 -0.03809,0.577469 -0.115636,1.125324 -0.28125,1.625 -0.273612,0.825462 -0.481901,1.073259 -1.90625,2.40625 -1.812039,1.695827 -2.177227,1.82222 -3.40625,1.34375 -1.963027,-0.764384 -9.535055,-4.441019 -9.84375,-4.78125 -0.491659,-0.54189 -0.884889,-2.598406 -0.875,-4.625 z m -24.1875,3.9375 c -0.01763,0.858354 -0.08682,1.574769 -0.1875,1.84375 -0.229918,0.614075 -0.291787,0.619717 -4.84375,1.875 -2.133801,0.588442 -4.506897,1.248246 -5.28125,1.46875 -0.774325,0.220605 -1.569235,0.375401 -1.78125,0.34375 -0.69151,-0.103237 -2.839643,-3.055997 -3.21875,-4.4375 -0.06338,-0.23087 -0.102738,-0.513898 -0.125,-0.8125 -0.03448,0.701988 -0.0039,1.342794 0.125,1.8125 0.379107,1.381503 2.52724,4.334263 3.21875,4.4375 0.212015,0.03165 1.006925,-0.123145 1.78125,-0.34375 0.774353,-0.220504 3.147449,-0.880308 5.28125,-1.46875 4.551963,-1.255283 4.613832,-1.260925 4.84375,-1.875 0.137652,-0.367759 0.206332,-1.524242 0.1875,-2.84375 z" />
    </g>
    <rect
       ry="25"
       rx="25"
       id="rect3003"
       style="opacity:0.15;fill:#ffffff;fill-opacity:1"
       height="92"
       width="92"
       y="958.36218"
       x="-96"
       clip-path="url(#clipPath3009)"
       transform="translate(98,0)" />
  </g>
</svg>
