<?xml version="1.0" encoding="UTF-8" standalone="no"?>
<!-- Created with Inkscape (http://www.inkscape.org/) -->

<svg
   xmlns:dc="http://purl.org/dc/elements/1.1/"
   xmlns:cc="http://creativecommons.org/ns#"
   xmlns:rdf="http://www.w3.org/1999/02/22-rdf-syntax-ns#"
   xmlns:svg="http://www.w3.org/2000/svg"
   xmlns="http://www.w3.org/2000/svg"
   xmlns:xlink="http://www.w3.org/1999/xlink"
   xmlns:sodipodi="http://sodipodi.sourceforge.net/DTD/sodipodi-0.dtd"
   xmlns:inkscape="http://www.inkscape.org/namespaces/inkscape"
   width="96"
   height="96"
   id="svg11037"
   version="1.1"
   inkscape:version="0.48.3.1 r9886"
   sodipodi:docname="dialog-ok.svg">
  <defs
     id="defs11039">
    <linearGradient
       y2="1046.1001"
       x2="47.999954"
       y1="962.62189"
       x1="47.999954"
       gradientTransform="matrix(1.15,0,0,1.15,-7.1999462,-150.65291)"
       gradientUnits="userSpaceOnUse"
       id="linearGradient3886"
       xlink:href="#linearGradient3795"
       inkscape:collect="always" />
    <linearGradient
       id="linearGradient3795">
      <stop
         style="stop-color:#13a6fd;stop-opacity:1;"
         offset="0"
         id="stop3797" />
      <stop
         style="stop-color:#2975b6;stop-opacity:1;"
         offset="1"
         id="stop3799" />
    </linearGradient>
    <clipPath
       clipPathUnits="userSpaceOnUse"
       id="clipPath3009">
      <path
         id="path3011"
         d="m -2,956.36218 -96,0 0,33.5624 96,25.68742 0,-59.24982 z"
         style="opacity:0.15;fill:#ffffff;fill-opacity:1;stroke:none"
         inkscape:connector-curvature="0" />
    </clipPath>
    <linearGradient
       x1="11.998966"
       y1="1.8417114"
       x2="11.998966"
       y2="20.237488"
       id="linearGradient3867"
       xlink:href="#linearGradient3637"
       gradientUnits="userSpaceOnUse"
       gradientTransform="matrix(2.7741687,0,0,3.2616291,2.819831,13.992926)" />
    <linearGradient
       id="linearGradient3637">
      <stop
         id="stop3639"
         style="stop-color:#f0f0f0;stop-opacity:1"
         offset="0" />
      <stop
         id="stop3641"
         style="stop-color:#aaaaaa;stop-opacity:1"
         offset="1" />
    </linearGradient>
    <linearGradient
       x1="11.998966"
       y1="1.8417114"
       x2="11.998966"
       y2="20.237488"
       id="linearGradient3105"
       xlink:href="#linearGradient3637-3"
       gradientUnits="userSpaceOnUse"
       gradientTransform="matrix(2.7741687,0,0,3.2616291,2.819831,13.992926)" />
    <linearGradient
       id="linearGradient3637-3">
      <stop
         id="stop3639-1"
         style="stop-color:#f0f0f0;stop-opacity:1"
         offset="0" />
      <stop
         id="stop3641-4"
         style="stop-color:#aaaaaa;stop-opacity:1"
         offset="1" />
    </linearGradient>
    <linearGradient
       x1="3"
       y1="11"
       x2="19"
       y2="11"
       id="linearGradient3139"
       xlink:href="#linearGradient3637-6"
       gradientUnits="userSpaceOnUse"
       gradientTransform="matrix(0,3.125,-3.125,0,84.375,11.625)" />
    <linearGradient
       id="linearGradient3637-6">
      <stop
         id="stop3639-5"
         style="stop-color:#f0f0f0;stop-opacity:1"
         offset="0" />
      <stop
         id="stop3641-9"
         style="stop-color:#aaaaaa;stop-opacity:1"
         offset="1" />
    </linearGradient>
    <linearGradient
       x1="11.998966"
       y1="5.5317268"
       x2="11.998966"
       y2="20.282997"
       id="linearGradient3877"
       xlink:href="#linearGradient3637-2"
       gradientUnits="userSpaceOnUse"
       gradientTransform="matrix(2.7658632,0,0,3.2539569,10,6)" />
    <linearGradient
       id="linearGradient3637-2">
      <stop
         id="stop3639-4"
         style="stop-color:#f0f0f0;stop-opacity:1"
         offset="0" />
      <stop
         id="stop3641-3"
         style="stop-color:#aaaaaa;stop-opacity:1"
         offset="1" />
    </linearGradient>
    <linearGradient
       x1="652.021"
       y1="347.86285"
       x2="627.67029"
       y2="349.2926"
       id="linearGradient7313"
       xlink:href="#linearGradient3637-5"
       gradientUnits="userSpaceOnUse"
       gradientTransform="matrix(0.11586665,-1.9518366,1.9733605,0.1145396,-711.10468,1256.8145)" />
    <linearGradient
       id="linearGradient3637-5">
      <stop
         id="stop3639-9"
         style="stop-color:#f0f0f0;stop-opacity:1"
         offset="0" />
      <stop
         id="stop3641-8"
         style="stop-color:#aaaaaa;stop-opacity:1"
         offset="1" />
    </linearGradient>
    <linearGradient
       x1="647.27832"
       y1="349.10172"
       x2="639.46515"
       y2="357.89178"
       id="linearGradient3811"
       xlink:href="#linearGradient3183-0"
       gradientUnits="userSpaceOnUse"
       gradientTransform="matrix(-1.3783144,1.2009005,-1.2251361,-1.3503034,1354.9038,-244.77384)" />
    <linearGradient
       id="linearGradient3183-0">
      <stop
         id="stop3185-9"
         style="stop-color:#c80000;stop-opacity:1"
         offset="0" />
      <stop
         id="stop3187-6"
         style="stop-color:#f3604d;stop-opacity:1"
         offset="1" />
    </linearGradient>
    <linearGradient
       x1="11.162445"
       y1="5.6551228"
       x2="11.162445"
       y2="18.097509"
       id="linearGradient3018"
       xlink:href="#linearGradient3637-8"
       gradientUnits="userSpaceOnUse"
       gradientTransform="matrix(3.6987654,0,0,2.8914301,10.901546,15.338296)" />
    <linearGradient
       id="linearGradient3637-8">
      <stop
         id="stop3639-97"
         style="stop-color:#f0f0f0;stop-opacity:1"
         offset="0" />
      <stop
         id="stop3641-6"
         style="stop-color:#aaaaaa;stop-opacity:1"
         offset="1" />
    </linearGradient>
    <linearGradient
       x1="8.7404661"
       y1="4.5355735"
       x2="8.7404661"
       y2="20.492353"
       id="linearGradient3017"
       xlink:href="#linearGradient3637-65"
       gradientUnits="userSpaceOnUse"
       gradientTransform="matrix(3.0237157,0,0,2.3517789,18.666667,20)" />
    <linearGradient
       id="linearGradient3637-65">
      <stop
         id="stop3639-3"
         style="stop-color:#f0f0f0;stop-opacity:1"
         offset="0" />
      <stop
         id="stop3641-0"
         style="stop-color:#aaaaaa;stop-opacity:1"
         offset="1" />
    </linearGradient>
    <linearGradient
       x1="48"
       y1="74"
       x2="48"
       y2="21.913534"
       id="linearGradient3195"
       xlink:href="#linearGradient4081"
       gradientUnits="userSpaceOnUse"
       gradientTransform="translate(80,0)" />
    <linearGradient
       id="linearGradient4081">
      <stop
         id="stop4083"
         style="stop-color:#aaaaaa;stop-opacity:1"
         offset="0" />
      <stop
         id="stop4085"
         style="stop-color:#f0f0f0;stop-opacity:1"
         offset="1" />
    </linearGradient>
  </defs>
  <sodipodi:namedview
     id="base"
     pagecolor="#ffffff"
     bordercolor="#666666"
     borderopacity="1.0"
     inkscape:pageopacity="0.0"
     inkscape:pageshadow="2"
     inkscape:zoom="3.959798"
     inkscape:cx="29.118614"
     inkscape:cy="59.964634"
     inkscape:document-units="px"
     inkscape:current-layer="layer1"
     showgrid="false"
     inkscape:window-width="1280"
     inkscape:window-height="750"
     inkscape:window-x="0"
     inkscape:window-y="22"
     inkscape:window-maximized="1"
     showguides="true"
     inkscape:guide-bbox="true">
    <sodipodi:guide
       orientation="0,1"
       position="-24.748737,0"
       id="guide11064" />
    <sodipodi:guide
       orientation="0,1"
       position="-23.233509,96"
       id="guide11066" />
    <sodipodi:guide
       orientation="1,0"
       position="0,54.800776"
       id="guide11068" />
    <sodipodi:guide
       orientation="1,0"
       position="96,51.012704"
       id="guide11070" />
    <sodipodi:guide
       orientation="0,1"
       position="-18.94036,48"
       id="guide11072" />
    <sodipodi:guide
       orientation="1,0"
       position="48,79.296975"
       id="guide11074" />
    <sodipodi:guide
       orientation="1,0"
       position="2,75.508903"
       id="guide11076" />
    <sodipodi:guide
       orientation="0,1"
       position="-77.27667,2"
       id="guide11078" />
    <sodipodi:guide
       orientation="1,0"
       position="94,77.781746"
       id="guide11080" />
    <sodipodi:guide
       orientation="0,1"
       position="-65.912454,94"
       id="guide11082" />
  </sodipodi:namedview>
  <metadata
     id="metadata11042">
    <rdf:RDF>
      <cc:Work
         rdf:about="">
        <dc:format>image/svg+xml</dc:format>
        <dc:type
           rdf:resource="http://purl.org/dc/dcmitype/StillImage" />
        <dc:title></dc:title>
      </cc:Work>
    </rdf:RDF>
  </metadata>
  <g
     inkscape:label="Layer 1"
     inkscape:groupmode="layer"
     id="layer1"
     transform="translate(0,-956.36218)">
    <rect
       x="2"
       y="958.36218"
       width="92"
       height="92"
       style="fill:#000000;fill-opacity:1;opacity:0.6"
       id="rect3867"
       rx="25"
       ry="25" />
    <g
       transform="translate(0,956.36218)"
       style="display:inline"
       id="g3053">
      <path
         style="opacity:0.3;color:#000000;fill:#000000;fill-opacity:1;fill-rule:nonzero;stroke:none;stroke-width:1;marker:none;visibility:visible;display:inline;overflow:visible;enable-background:accumulate"
         id="path3984"
         inkscape:connector-curvature="0"
         d="M 30.59375,23 C 28.054583,23 26,25.084107 26,27.65625 l 0,42.6875 C 26,72.915893 28.054583,75 30.59375,75 l 34.8125,0 C 67.945417,75 70,72.915893 70,70.34375 L 70,57 l -6,7 0,2 0,1 c 0,1.108 -0.892,2 -2,2 l -1,0 -26,0 -1,0 c -1.108,0 -2,-0.892 -2,-2 l 0,-1 0,-34 0,-1 c 0,-1.108 0.892,-2 2,-2 l 1,0 26,0 1,0 c 1.108,0 2,0.892 2,2 l 0,1 0,3 6,6 0,-13.34375 C 70,25.084107 67.945417,23 65.40625,23 l -34.8125,0 z m 80,0 C 108.05458,23 106,25.084107 106,27.65625 L 106,43 l 6,0 0,-11 0,-1 c 0,-1.108 0.892,-2 2,-2 l 1,0 26,0 1,0 c 1.108,0 2,0.892 2,2 l 0,1 0,34 0,1 c 0,1.108 -0.892,2 -2,2 l -1,0 -26,0 -1,0 c -1.108,0 -2,-0.892 -2,-2 l 0,-1 0,-10 -6,0 0,14.34375 C 106,72.915893 108.05458,75 110.59375,75 l 34.8125,0 C 147.94542,75 150,72.915893 150,70.34375 l 0,-42.6875 C 150,25.084107 147.94542,23 145.40625,23 l -34.8125,0 z M 62,37 l 0,8 -14,0 0,9 14,0 0,8 L 74,49 62,37 z m 54,0 0,8 -14,0 0,9 14,0 0,8 12,-13 -12,-12 z" />
      <path
         style="color:#000000;fill:url(#linearGradient3195);fill-opacity:1;fill-rule:nonzero;stroke:none;stroke-width:1;marker:none;visibility:visible;display:inline;overflow:visible;enable-background:accumulate"
         id="rect2957"
         inkscape:connector-curvature="0"
         d="M 30.59375,22 C 28.054583,22 26,24.084107 26,26.65625 l 0,42.6875 C 26,71.915893 28.054583,74 30.59375,74 l 34.8125,0 C 67.945417,74 70,71.915893 70,69.34375 L 70,56 l -6,7 0,2 0,1 c 0,1.108 -0.892,2 -2,2 l -1,0 -26,0 -1,0 c -1.108,0 -2,-0.892 -2,-2 l 0,-1 0,-34 0,-1 c 0,-1.108 0.892,-2 2,-2 l 1,0 26,0 1,0 c 1.108,0 2,0.892 2,2 l 0,1 0,3 6,6 0,-13.34375 C 70,24.084107 67.945417,22 65.40625,22 l -34.8125,0 z m 80,0 C 108.05458,22 106,24.084107 106,26.65625 L 106,42 l 6,0 0,-11 0,-1 c 0,-1.108 0.892,-2 2,-2 l 1,0 26,0 1,0 c 1.108,0 2,0.892 2,2 l 0,1 0,34 0,1 c 0,1.108 -0.892,2 -2,2 l -1,0 -26,0 -1,0 c -1.108,0 -2,-0.892 -2,-2 l 0,-1 0,-10 -6,0 0,14.34375 C 106,71.915893 108.05458,74 110.59375,74 l 34.8125,0 C 147.94542,74 150,71.915893 150,69.34375 l 0,-42.6875 C 150,24.084107 147.94542,22 145.40625,22 l -34.8125,0 z M 62,36 l 0,8 -14,0 0,9 14,0 0,8 L 74,48 62,36 z m 54,0 0,8 -14,0 0,9 14,0 0,8 12,-13 -12,-12 z" />
      <path
         style="opacity:0.75;color:#000000;fill:#ffffff;fill-opacity:1;fill-rule:nonzero;stroke:none;stroke-width:1;marker:none;visibility:visible;display:inline;overflow:visible;enable-background:accumulate"
         id="path3198"
         inkscape:connector-curvature="0"
         d="M 30.59375,22 C 28.054583,22 26,24.084107 26,26.65625 l 0,1 C 26,25.084107 28.054583,23 30.59375,23 l 34.8125,0 C 67.945417,23 70,25.084107 70,27.65625 l 0,-1 C 70,24.084107 67.945417,22 65.40625,22 l -34.8125,0 z m 80,0 C 108.05458,22 106,24.084107 106,26.65625 l 0,1 C 106,25.084107 108.05458,23 110.59375,23 l 34.8125,0 C 147.94542,23 150,25.084107 150,27.65625 l 0,-1 C 150,24.084107 147.94542,22 145.40625,22 l -34.8125,0 z M 62,36 62,37 73.53125,48.53125 74,48 62,36 z m 54,0 0,1 11.53125,11.53125 L 128,48 116,36 z m -68,8 0,1 14,0 0,-1 -14,0 z m 54,0 0,1 14,0 0,-1 -14,0 z m 4,11 0,1 6,0 0,-1 -6,0 z m -36,1 -6,7 0,1 6,-7 0,-1 z m -38,10 0,1 c 0,1.108 0.892,2 2,2 l 1,0 26,0 1,0 c 1.108,0 2,-0.892 2,-2 l 0,-1 c 0,1.108 -0.892,2 -2,2 l -1,0 -26,0 -1,0 c -1.108,0 -2,-0.892 -2,-2 z m 80,0 0,1 c 0,1.108 0.892,2 2,2 l 1,0 26,0 1,0 c 1.108,0 2,-0.892 2,-2 l 0,-1 c 0,1.108 -0.892,2 -2,2 l -1,0 -26,0 -1,0 c -1.108,0 -2,-0.892 -2,-2 z" />
      <path
         style="opacity:0.15;color:#000000;fill:#000000;fill-opacity:1;fill-rule:nonzero;stroke:none;stroke-width:1;marker:none;visibility:visible;display:inline;overflow:visible;enable-background:accumulate"
         id="path3975"
         inkscape:connector-curvature="0"
         d="m 34,27 c -1.108,0 -2,0.892 -2,2 l 0,1 c 0,-1.108 0.892,-2 2,-2 l 1,0 26,0 1,0 c 1.108,0 2,0.892 2,2 l 0,-1 c 0,-1.108 -0.892,-2 -2,-2 l -1,0 -26,0 -1,0 z m 80,0 c -1.108,0 -2,0.892 -2,2 l 0,1 c 0,-1.108 0.892,-2 2,-2 l 1,0 26,0 1,0 c 1.108,0 2,0.892 2,2 l 0,-1 c 0,-1.108 -0.892,-2 -2,-2 l -1,0 -26,0 -1,0 z m -50,6 0,1 6,6 0,-1 -6,-6 z m 42,8 0,1 6,0 0,-1 -6,0 z M 73.53125,47.53125 62,60 62,61 74,48 73.53125,47.53125 z m 54,0 L 116,60 l 0,1 12,-13 -0.46875,-0.46875 z M 48,52 l 0,1 14,0 0,-1 -14,0 z m 54,0 0,1 14,0 0,-1 -14,0 z m -76,16.34375 0,1 C 26,71.915893 28.054583,74 30.59375,74 l 34.8125,0 C 67.945417,74 70,71.915893 70,69.34375 l 0,-1 C 70,70.915893 67.945417,73 65.40625,73 l -34.8125,0 C 28.054583,73 26,70.915893 26,68.34375 z m 80,0 0,1 C 106,71.915893 108.05458,74 110.59375,74 l 34.8125,0 C 147.94542,74 150,71.915893 150,69.34375 l 0,-1 C 150,70.915893 147.94542,73 145.40625,73 l -34.8125,0 C 108.05458,73 106,70.915893 106,68.34375 z" />
    </g>
    <rect
       ry="25"
       rx="25"
       id="rect3003"
       style="opacity:0.15;fill:#ffffff;fill-opacity:1"
       height="92"
       width="92"
       y="958.36218"
       x="-96"
       clip-path="url(#clipPath3009)"
       transform="translate(98,0)" />
  </g>
</svg>
