<?xml version="1.0" encoding="UTF-8" standalone="no"?>
<!-- Created with Inkscape (http://www.inkscape.org/) -->

<svg
   xmlns:dc="http://purl.org/dc/elements/1.1/"
   xmlns:cc="http://creativecommons.org/ns#"
   xmlns:rdf="http://www.w3.org/1999/02/22-rdf-syntax-ns#"
   xmlns:svg="http://www.w3.org/2000/svg"
   xmlns="http://www.w3.org/2000/svg"
   xmlns:xlink="http://www.w3.org/1999/xlink"
   xmlns:sodipodi="http://sodipodi.sourceforge.net/DTD/sodipodi-0.dtd"
   xmlns:inkscape="http://www.inkscape.org/namespaces/inkscape"
   width="96"
   height="96"
   id="svg11037"
   version="1.1"
   inkscape:version="0.48.3.1 r9886"
   sodipodi:docname="document-print.svg">
  <defs
     id="defs11039">
    <linearGradient
       y2="1046.1001"
       x2="47.999954"
       y1="962.62189"
       x1="47.999954"
       gradientTransform="matrix(1.15,0,0,1.15,-7.1999462,-150.65291)"
       gradientUnits="userSpaceOnUse"
       id="linearGradient3886"
       xlink:href="#linearGradient3795"
       inkscape:collect="always" />
    <linearGradient
       id="linearGradient3795">
      <stop
         style="stop-color:#13a6fd;stop-opacity:1;"
         offset="0"
         id="stop3797" />
      <stop
         style="stop-color:#2975b6;stop-opacity:1;"
         offset="1"
         id="stop3799" />
    </linearGradient>
    <clipPath
       clipPathUnits="userSpaceOnUse"
       id="clipPath3009">
      <path
         id="path3011"
         d="m -2,956.36218 -96,0 0,33.5624 96,25.68742 0,-59.24982 z"
         style="opacity:0.15;fill:#ffffff;fill-opacity:1;stroke:none"
         inkscape:connector-curvature="0" />
    </clipPath>
    <linearGradient
       x1="11.998966"
       y1="1.8417114"
       x2="11.998966"
       y2="20.237488"
       id="linearGradient3867"
       xlink:href="#linearGradient3637"
       gradientUnits="userSpaceOnUse"
       gradientTransform="matrix(2.7741687,0,0,3.2616291,2.819831,13.992926)" />
    <linearGradient
       id="linearGradient3637">
      <stop
         id="stop3639"
         style="stop-color:#f0f0f0;stop-opacity:1"
         offset="0" />
      <stop
         id="stop3641"
         style="stop-color:#aaaaaa;stop-opacity:1"
         offset="1" />
    </linearGradient>
    <linearGradient
       x1="11.998966"
       y1="1.8417114"
       x2="11.998966"
       y2="20.237488"
       id="linearGradient3105"
       xlink:href="#linearGradient3637-3"
       gradientUnits="userSpaceOnUse"
       gradientTransform="matrix(2.7741687,0,0,3.2616291,2.819831,13.992926)" />
    <linearGradient
       id="linearGradient3637-3">
      <stop
         id="stop3639-1"
         style="stop-color:#f0f0f0;stop-opacity:1"
         offset="0" />
      <stop
         id="stop3641-4"
         style="stop-color:#aaaaaa;stop-opacity:1"
         offset="1" />
    </linearGradient>
    <linearGradient
       x1="3"
       y1="11"
       x2="19"
       y2="11"
       id="linearGradient3139"
       xlink:href="#linearGradient3637-6"
       gradientUnits="userSpaceOnUse"
       gradientTransform="matrix(0,3.125,-3.125,0,84.375,11.625)" />
    <linearGradient
       id="linearGradient3637-6">
      <stop
         id="stop3639-5"
         style="stop-color:#f0f0f0;stop-opacity:1"
         offset="0" />
      <stop
         id="stop3641-9"
         style="stop-color:#aaaaaa;stop-opacity:1"
         offset="1" />
    </linearGradient>
    <linearGradient
       x1="11.998966"
       y1="5.5317268"
       x2="11.998966"
       y2="20.282997"
       id="linearGradient3877"
       xlink:href="#linearGradient3637-2"
       gradientUnits="userSpaceOnUse"
       gradientTransform="matrix(2.7658632,0,0,3.2539569,10,6)" />
    <linearGradient
       id="linearGradient3637-2">
      <stop
         id="stop3639-4"
         style="stop-color:#f0f0f0;stop-opacity:1"
         offset="0" />
      <stop
         id="stop3641-3"
         style="stop-color:#aaaaaa;stop-opacity:1"
         offset="1" />
    </linearGradient>
    <linearGradient
       x1="652.021"
       y1="347.86285"
       x2="627.67029"
       y2="349.2926"
       id="linearGradient7313"
       xlink:href="#linearGradient3637-5"
       gradientUnits="userSpaceOnUse"
       gradientTransform="matrix(0.11586665,-1.9518366,1.9733605,0.1145396,-711.10468,1256.8145)" />
    <linearGradient
       id="linearGradient3637-5">
      <stop
         id="stop3639-9"
         style="stop-color:#f0f0f0;stop-opacity:1"
         offset="0" />
      <stop
         id="stop3641-8"
         style="stop-color:#aaaaaa;stop-opacity:1"
         offset="1" />
    </linearGradient>
    <linearGradient
       x1="647.27832"
       y1="349.10172"
       x2="639.46515"
       y2="357.89178"
       id="linearGradient3811"
       xlink:href="#linearGradient3183-0"
       gradientUnits="userSpaceOnUse"
       gradientTransform="matrix(-1.3783144,1.2009005,-1.2251361,-1.3503034,1354.9038,-244.77384)" />
    <linearGradient
       id="linearGradient3183-0">
      <stop
         id="stop3185-9"
         style="stop-color:#c80000;stop-opacity:1"
         offset="0" />
      <stop
         id="stop3187-6"
         style="stop-color:#f3604d;stop-opacity:1"
         offset="1" />
    </linearGradient>
    <linearGradient
       x1="11.162445"
       y1="5.6551228"
       x2="11.162445"
       y2="18.097509"
       id="linearGradient3018"
       xlink:href="#linearGradient3637-8"
       gradientUnits="userSpaceOnUse"
       gradientTransform="matrix(3.6987654,0,0,2.8914301,10.901546,15.338296)" />
    <linearGradient
       id="linearGradient3637-8">
      <stop
         id="stop3639-97"
         style="stop-color:#f0f0f0;stop-opacity:1"
         offset="0" />
      <stop
         id="stop3641-6"
         style="stop-color:#aaaaaa;stop-opacity:1"
         offset="1" />
    </linearGradient>
    <linearGradient
       x1="8.7404661"
       y1="4.5355735"
       x2="8.7404661"
       y2="20.492353"
       id="linearGradient3017"
       xlink:href="#linearGradient3637-65"
       gradientUnits="userSpaceOnUse"
       gradientTransform="matrix(3.0237157,0,0,2.3517789,18.666667,20)" />
    <linearGradient
       id="linearGradient3637-65">
      <stop
         id="stop3639-3"
         style="stop-color:#f0f0f0;stop-opacity:1"
         offset="0" />
      <stop
         id="stop3641-0"
         style="stop-color:#aaaaaa;stop-opacity:1"
         offset="1" />
    </linearGradient>
    <linearGradient
       x1="48"
       y1="74"
       x2="48"
       y2="21.913534"
       id="linearGradient3195"
       xlink:href="#linearGradient4081"
       gradientUnits="userSpaceOnUse"
       gradientTransform="translate(80,0)" />
    <linearGradient
       id="linearGradient4081">
      <stop
         id="stop4083"
         style="stop-color:#aaaaaa;stop-opacity:1"
         offset="0" />
      <stop
         id="stop4085"
         style="stop-color:#f0f0f0;stop-opacity:1"
         offset="1" />
    </linearGradient>
    <linearGradient
       x1="48"
       y1="74"
       x2="48"
       y2="21.913534"
       id="linearGradient3195-7"
       xlink:href="#linearGradient4081-3"
       gradientUnits="userSpaceOnUse" />
    <linearGradient
       id="linearGradient4081-3">
      <stop
         id="stop4083-6"
         style="stop-color:#aaaaaa;stop-opacity:1"
         offset="0" />
      <stop
         id="stop4085-8"
         style="stop-color:#f0f0f0;stop-opacity:1"
         offset="1" />
    </linearGradient>
    <linearGradient
       x1="45"
       y1="24"
       x2="45"
       y2="76"
       id="linearGradient3879"
       xlink:href="#linearGradient3637-0"
       gradientUnits="userSpaceOnUse" />
    <linearGradient
       id="linearGradient3637-0">
      <stop
         id="stop3639-56"
         style="stop-color:#f0f0f0;stop-opacity:1"
         offset="0" />
      <stop
         id="stop3641-32"
         style="stop-color:#aaaaaa;stop-opacity:1"
         offset="1" />
    </linearGradient>
    <linearGradient
       x1="48"
       y1="74"
       x2="48"
       y2="23.990002"
       id="linearGradient3161"
       xlink:href="#linearGradient4081-0"
       gradientUnits="userSpaceOnUse" />
    <linearGradient
       id="linearGradient4081-0">
      <stop
         id="stop4083-7"
         style="stop-color:#aaaaaa;stop-opacity:1"
         offset="0" />
      <stop
         id="stop4085-7"
         style="stop-color:#f0f0f0;stop-opacity:1"
         offset="1" />
    </linearGradient>
    <linearGradient
       x1="48"
       y1="74"
       x2="48"
       y2="21.913534"
       id="linearGradient3762"
       xlink:href="#linearGradient4081-1"
       gradientUnits="userSpaceOnUse" />
    <linearGradient
       id="linearGradient4081-1">
      <stop
         id="stop4083-2"
         style="stop-color:#aaaaaa;stop-opacity:1"
         offset="0" />
      <stop
         id="stop4085-4"
         style="stop-color:#f0f0f0;stop-opacity:1"
         offset="1" />
    </linearGradient>
    <linearGradient
       x1="18.44883"
       y1="17.478098"
       x2="18.44883"
       y2="0.92195439"
       id="linearGradient2869"
       xlink:href="#linearGradient4081-8"
       gradientUnits="userSpaceOnUse"
       gradientTransform="matrix(2.4659278,0,0,2.8992258,10.506518,21.327046)" />
    <linearGradient
       id="linearGradient4081-8">
      <stop
         id="stop4083-3"
         style="stop-color:#aaaaaa;stop-opacity:1"
         offset="0" />
      <stop
         id="stop4085-6"
         style="stop-color:#f0f0f0;stop-opacity:1"
         offset="1" />
    </linearGradient>
    <linearGradient
       x1="18.44883"
       y1="17.478098"
       x2="18.44883"
       y2="0.92195439"
       id="linearGradient3181"
       xlink:href="#linearGradient4081-4"
       gradientUnits="userSpaceOnUse"
       gradientTransform="matrix(2.4659278,0,0,2.8992258,10.506518,21.327046)" />
    <linearGradient
       id="linearGradient4081-4">
      <stop
         id="stop4083-61"
         style="stop-color:#aaaaaa;stop-opacity:1"
         offset="0" />
      <stop
         id="stop4085-3"
         style="stop-color:#f0f0f0;stop-opacity:1"
         offset="1" />
    </linearGradient>
  </defs>
  <sodipodi:namedview
     id="base"
     pagecolor="#ffffff"
     bordercolor="#666666"
     borderopacity="1.0"
     inkscape:pageopacity="0.0"
     inkscape:pageshadow="2"
     inkscape:zoom="3.959798"
     inkscape:cx="81.938797"
     inkscape:cy="63.817216"
     inkscape:document-units="px"
     inkscape:current-layer="layer1"
     showgrid="false"
     inkscape:window-width="1280"
     inkscape:window-height="750"
     inkscape:window-x="0"
     inkscape:window-y="22"
     inkscape:window-maximized="1"
     showguides="true"
     inkscape:guide-bbox="true">
    <sodipodi:guide
       orientation="0,1"
       position="-24.748737,0"
       id="guide11064" />
    <sodipodi:guide
       orientation="0,1"
       position="-23.233509,96"
       id="guide11066" />
    <sodipodi:guide
       orientation="1,0"
       position="0,54.800776"
       id="guide11068" />
    <sodipodi:guide
       orientation="1,0"
       position="96,51.012704"
       id="guide11070" />
    <sodipodi:guide
       orientation="0,1"
       position="-18.94036,48"
       id="guide11072" />
    <sodipodi:guide
       orientation="1,0"
       position="48,79.296975"
       id="guide11074" />
    <sodipodi:guide
       orientation="1,0"
       position="2,75.508903"
       id="guide11076" />
    <sodipodi:guide
       orientation="0,1"
       position="-77.27667,2"
       id="guide11078" />
    <sodipodi:guide
       orientation="1,0"
       position="94,77.781746"
       id="guide11080" />
    <sodipodi:guide
       orientation="0,1"
       position="-65.912454,94"
       id="guide11082" />
  </sodipodi:namedview>
  <metadata
     id="metadata11042">
    <rdf:RDF>
      <cc:Work
         rdf:about="">
        <dc:format>image/svg+xml</dc:format>
        <dc:type
           rdf:resource="http://purl.org/dc/dcmitype/StillImage" />
        <dc:title></dc:title>
      </cc:Work>
    </rdf:RDF>
  </metadata>
  <g
     inkscape:label="Layer 1"
     inkscape:groupmode="layer"
     id="layer1"
     transform="translate(0,-956.36218)">
    <rect
       x="2"
       y="958.36218"
       width="92"
       height="92"
       style="fill:#000000;fill-opacity:1;opacity:0.6"
       id="rect3867"
       rx="25"
       ry="25" />
    <g
       transform="translate(0,956.36218)"
       style="display:inline"
       id="g3053">
      <path
         inkscape:connector-curvature="0"
         style="opacity:0.3;fill:#000000;fill-opacity:1;stroke:none;display:inline"
         id="path3986"
         transform="translate(0,1)"
         d="m 33.34375,24 c -2.216,0 -4,1.784 -4,4 l 0,14.65625 -1.34375,0 c -2.216,0 -4,1.784 -4,4 L 24,60 c 0,2.216 1.784,4 4,4 l 1.34375,0 0,4 c 0,2.216 1.784,4 4,4 l 29.3125,0 c 0.628102,0 1.222096,-0.150391 1.75,-0.40625 l -4.875,-4.9375 -23.53125,0 c -0.738666,0 -1.34375,-0.573834 -1.34375,-1.3125 l 0,-1.34375 0,-2.65625 6.9375,0 C 40.743603,60.801708 39.931874,60.179147 39.1875,59.4375 35.365306,55.629309 34.142542,50.193714 35.53125,45.34375 l -0.875,0 0,-2.6875 0,-12 c 0,-0.738666 0.605084,-1.3125 1.34375,-1.3125 l 24,0 c 0.738666,0 1.34375,0.573834 1.34375,1.3125 l 0,10.71875 c 2.972604,4.492629 3.088725,10.29879 0.4375,14.96875 0.01474,0.166843 0.03977,0.321184 0.0625,0.46875 0.09179,7.72e-4 0.106915,-0.002 0.21875,0 0.78271,0.01369 2.254104,0.200644 3.3125,1.3125 0.02179,0.02289 0.04107,0.03881 0.0625,0.0625 l 4.96875,5 C 71.376023,62.45892 72,61.311732 72,60 l 0,-13.34375 c 0,-2.215996 -1.784,-4 -4,-4 l -1.25,0 -0.09375,0 0,-14.65625 c 0,-2.216 -1.784,-4 -4,-4 l -29.3125,0 z m 4,10.65625 0,2.6875 4.0625,0 c 2.397019,-1.594929 5.166012,-2.40625 7.9375,-2.40625 2.771632,0 5.561972,0.810229 7.96875,2.40625 l 1.4375,0 0,-2.6875 -21.40625,0 z m 12,2.34375 c -3.162926,0 -6.307237,1.191074 -8.71875,3.59375 -4.823025,4.805354 -4.823024,12.600895 0,17.40625 4.204602,4.189197 10.678352,4.771137 15.46875,1.65625 0.814264,0.04071 2.127161,0.128868 2.59375,0.65625 0.635306,0.718079 -0.280903,2.405587 0.9375,3.5 L 67.21875,71.5 c 0,0 1.404371,1.493859 3.59375,-0.6875 C 73.001883,68.631141 71.5,67.21875 71.5,67.21875 L 63.90625,59.5625 c -1.09844,-1.21394 -2.779282,-0.335775 -3.5,-0.96875 -0.529324,-0.464878 -0.646657,-1.751219 -0.6875,-2.5625 3.126342,-4.772845 2.579602,-11.248306 -1.625,-15.4375 C 55.682237,38.191074 52.506676,37 49.34375,37 z m -12,3 0,1.40625 C 37.665487,40.919906 38.018874,40.452273 38.40625,40 l -1.0625,0 z m 12.0625,1.09375 c 4.547192,0 8.21875,3.688219 8.21875,8.21875 0,4.530534 -3.671556,8.21875 -8.21875,8.21875 -4.547189,2e-6 -8.25,-3.688216 -8.25,-8.21875 10e-7,-2.265266 0.915232,-4.358196 2.40625,-5.84375 1.491019,-1.485555 3.570154,-2.375 5.84375,-2.375 z m -4.8125,4.25 c -0.870533,1.066413 -1.374999,2.469078 -1.375,3.96875 0,3.415207 2.747174,6.156252 6.1875,6.15625 3.440333,0 6.15625,-2.731629 6.15625,-6.15625 0,-1.514638 -0.547267,-2.901596 -1.4375,-3.96875 l -9.53125,0 z m 20.75,5.3125 c 0.736002,0 1.3125,0.60775 1.3125,1.34375 4e-6,0.736 -0.5765,1.34375 -1.3125,1.34375 C 64.607752,53.34375 64,52.736 64,52 c 2e-6,-0.736 0.60775,-1.34375 1.34375,-1.34375 z" />
      <path
         style="fill:url(#linearGradient3181);fill-opacity:1;stroke:none;display:inline"
         id="Symbol"
         inkscape:connector-curvature="0"
         d="m 33.34375,24 c -2.216,0 -4,1.784 -4,4 l 0,14.65625 -1.34375,0 c -2.216,0 -4,1.784 -4,4 L 24,60 c 0,2.216 1.784,4 4,4 l 1.34375,0 0,4 c 0,2.216 1.784,4 4,4 l 29.3125,0 c 0.628102,0 1.222096,-0.150391 1.75,-0.40625 l -4.875,-4.9375 -23.53125,0 c -0.738666,0 -1.34375,-0.573834 -1.34375,-1.3125 l 0,-1.34375 0,-2.65625 6.9375,0 C 40.743603,60.801708 39.931874,60.179147 39.1875,59.4375 35.365306,55.629309 34.142542,50.193714 35.53125,45.34375 l -0.875,0 0,-2.6875 0,-12 c 0,-0.738666 0.605084,-1.3125 1.34375,-1.3125 l 24,0 c 0.738666,0 1.34375,0.573834 1.34375,1.3125 l 0,10.71875 c 2.972604,4.492629 3.088725,10.29879 0.4375,14.96875 0.01474,0.166843 0.03977,0.321184 0.0625,0.46875 0.09179,7.72e-4 0.106915,-0.002 0.21875,0 0.78271,0.01369 2.254104,0.200644 3.3125,1.3125 0.02179,0.02289 0.04107,0.03881 0.0625,0.0625 l 4.96875,5 C 71.376023,62.45892 72,61.311732 72,60 l 0,-13.34375 c 0,-2.215996 -1.784,-4 -4,-4 l -1.25,0 -0.09375,0 0,-14.65625 c 0,-2.216 -1.784,-4 -4,-4 l -29.3125,0 z m 4,10.65625 0,2.6875 4.0625,0 c 2.397019,-1.594929 5.166012,-2.40625 7.9375,-2.40625 2.771632,0 5.561972,0.810229 7.96875,2.40625 l 1.4375,0 0,-2.6875 -21.40625,0 z m 12,2.34375 c -3.162926,0 -6.307237,1.191074 -8.71875,3.59375 -4.823025,4.805354 -4.823024,12.600895 0,17.40625 4.204602,4.189197 10.678352,4.771137 15.46875,1.65625 0.814264,0.04071 2.127161,0.128868 2.59375,0.65625 0.635306,0.718079 -0.280903,2.405587 0.9375,3.5 L 67.21875,71.5 c 0,0 1.404371,1.493859 3.59375,-0.6875 C 73.001883,68.631141 71.5,67.21875 71.5,67.21875 L 63.90625,59.5625 c -1.09844,-1.21394 -2.779282,-0.335775 -3.5,-0.96875 -0.529324,-0.464878 -0.646657,-1.751219 -0.6875,-2.5625 3.126342,-4.772845 2.579602,-11.248306 -1.625,-15.4375 C 55.682237,38.191074 52.506676,37 49.34375,37 z m -12,3 0,1.40625 C 37.665487,40.919906 38.018874,40.452273 38.40625,40 l -1.0625,0 z m 12.0625,1.09375 c 4.547192,0 8.21875,3.688219 8.21875,8.21875 0,4.530534 -3.671556,8.21875 -8.21875,8.21875 -4.547189,2e-6 -8.25,-3.688216 -8.25,-8.21875 10e-7,-2.265266 0.915232,-4.358196 2.40625,-5.84375 1.491019,-1.485555 3.570154,-2.375 5.84375,-2.375 z m -4.8125,4.25 c -0.870533,1.066413 -1.374999,2.469078 -1.375,3.96875 0,3.415207 2.747174,6.156252 6.1875,6.15625 3.440333,0 6.15625,-2.731629 6.15625,-6.15625 0,-1.514638 -0.547267,-2.901596 -1.4375,-3.96875 l -9.53125,0 z m 20.75,5.3125 c 0.736002,0 1.3125,0.60775 1.3125,1.34375 4e-6,0.736 -0.5765,1.34375 -1.3125,1.34375 C 64.607752,53.34375 64,52.736 64,52 c 2e-6,-0.736 0.60775,-1.34375 1.34375,-1.34375 z" />
      <path
         style="opacity:0.75;fill:#ffffff;fill-opacity:1;stroke:none;display:inline"
         id="path3184"
         inkscape:connector-curvature="0"
         d="m 33.34375,24 c -2.216,0 -4,1.784 -4,4 l 0,1 c 0,-2.216 1.784,-4 4,-4 l 29.3125,0 c 2.216,0 4,1.784 4,4 l 0,-1 c 0,-2.216 -1.784,-4 -4,-4 l -29.3125,0 z m 4,10.65625 0,1 7.53125,0 c 1.453369,-0.480492 2.953509,-0.71875 4.46875,-0.71875 1.51532,0 3.039235,0.238375 4.5,0.71875 l 4.90625,0 0,-1 -21.40625,0 z m 12,2.34375 c -3.162926,0 -6.307237,1.191074 -8.71875,3.59375 -2.5385,2.529199 -3.727425,5.873571 -3.59375,9.1875 0.123359,-2.977796 1.312649,-5.914757 3.59375,-8.1875 C 43.036513,39.191074 46.180824,38 49.34375,38 c 3.162926,0 6.338487,1.191074 8.75,3.59375 2.277332,2.268987 3.464988,5.210913 3.59375,8.1875 0.124755,-3.310329 -1.061345,-6.664375 -3.59375,-9.1875 C 55.682237,38.191074 52.506676,37 49.34375,37 z m -12,3 0,1 0.28125,0 c 0.243909,-0.341726 0.503178,-0.675343 0.78125,-1 l -1.0625,0 z M 28,42.65625 c -2.216,0 -4,1.784 -4,4 l 0,1 c 0,-2.216 1.784,-4 4,-4 l 1.34375,0 0,-1 -1.34375,0 z m 38.65625,0 0,1 0.09375,0 1.25,0 c 2.216,0 4,1.784004 4,4 l 0,-1 c 0,-2.215996 -1.784,-4 -4,-4 l -1.25,0 -0.09375,0 z m -32,2.6875 0,1 0.625,0 c 0.0709,-0.33905 0.154304,-0.665788 0.25,-1 l -0.875,0 z m 9.9375,0 c -0.870533,1.066413 -1.374999,2.469078 -1.375,3.96875 0,0.21345 0.01029,0.417321 0.03125,0.625 0.07812,-1.354347 0.547819,-2.618725 1.34375,-3.59375 l 9.53125,0 c 0.778954,0.93376 1.289329,2.111498 1.40625,3.40625 0.01025,-0.147158 0.03125,-0.287513 0.03125,-0.4375 0,-1.514638 -0.547267,-2.901596 -1.4375,-3.96875 l -9.53125,0 z M 35,49.71875 c -0.157279,3.866169 1.233122,7.775195 4.1875,10.71875 0.32979,0.328582 0.677535,0.621065 1.03125,0.90625 l 1.375,0 C 40.743603,60.801708 39.931874,60.179147 39.1875,59.4375 36.488155,56.748044 35.102122,53.252056 35,49.71875 z m 28.65625,0.0625 c -0.09307,2.272918 -0.715089,4.519392 -1.875,6.5625 0.01474,0.166843 0.03977,0.321184 0.0625,0.46875 0.09179,7.72e-4 0.106915,-0.002 0.21875,0 1.128405,-2.196362 1.657714,-4.630953 1.59375,-7.03125 z M 41.1875,49.8125 c -0.0099,0.165883 -0.03125,0.332044 -0.03125,0.5 0,4.530534 3.702811,8.218752 8.25,8.21875 4.547194,0 8.21875,-3.688216 8.21875,-8.21875 0,-0.167955 -0.0213,-0.334505 -0.03125,-0.5 -0.258431,4.298675 -3.808879,7.71875 -8.1875,7.71875 -4.378616,2e-6 -7.95817,-3.420075 -8.21875,-7.71875 z m 22.90625,2.71875 C 64.039751,52.675975 64,52.837647 64,53 c 0,0.736 0.607752,1.34375 1.34375,1.34375 0.736,0 1.312504,-0.60775 1.3125,-1.34375 0,-0.162353 -0.04212,-0.324025 -0.09375,-0.46875 -0.19664,0.48143 -0.66675,0.8125 -1.21875,0.8125 -0.551998,0 -1.04457,-0.33107 -1.25,-0.8125 z M 59.8125,56.875 c -0.03303,0.05214 -0.05986,0.104509 -0.09375,0.15625 0.04084,0.811281 0.158176,2.097622 0.6875,2.5625 0.720718,0.632975 2.40156,-0.24519 3.5,0.96875 L 71.5,68.21875 c 0,0 0.299544,0.282577 0.4375,0.78125 C 72.184209,67.89353 71.5,67.21875 71.5,67.21875 L 63.90625,59.5625 c -1.09844,-1.21394 -2.779282,-0.335775 -3.5,-0.96875 C 60.038281,58.270582 59.894983,57.556564 59.8125,56.875 z m -25.15625,8.46875 0,1 c 0,0.738666 0.605084,1.3125 1.34375,1.3125 l 23.53125,0 4.15625,4.21875 c 0.248166,-0.06739 0.492369,-0.17153 0.71875,-0.28125 l -4.875,-4.9375 -23.53125,0 c -0.738666,0 -1.34375,-0.573834 -1.34375,-1.3125 z" />
      <path
         style="opacity:0.15;fill:#000000;fill-opacity:1;stroke:none;display:inline"
         id="path3973"
         inkscape:connector-curvature="0"
         d="m 36,28.34375 c -0.738666,0 -1.34375,0.573834 -1.34375,1.3125 l 0,1 c 0,-0.738666 0.605084,-1.3125 1.34375,-1.3125 l 24,0 c 0.738666,0 1.34375,0.573834 1.34375,1.3125 l 0,-1 c 0,-0.738666 -0.605084,-1.3125 -1.34375,-1.3125 l -24,0 z m 8.875,6.3125 c -1.20495,0.398363 -2.382241,0.964558 -3.46875,1.6875 l -4.0625,0 0,1 4.0625,0 c 2.397019,-1.594929 5.166012,-2.40625 7.9375,-2.40625 2.771632,0 5.561972,0.810229 7.96875,2.40625 l 1.4375,0 0,-1 -1.4375,0 c -1.090933,-0.723437 -2.257668,-1.289234 -3.46875,-1.6875 l -8.96875,0 z M 37.625,40 c -0.09587,0.134325 -0.190467,0.26902 -0.28125,0.40625 l 0,1 C 37.665487,40.919906 38.018874,40.452273 38.40625,40 L 37.625,40 z m 11.78125,0.09375 c -2.273596,0 -4.352731,0.889445 -5.84375,2.375 -1.491018,1.485554 -2.406249,3.578484 -2.40625,5.84375 0,0.167956 0.02122,0.334505 0.03125,0.5 0.123928,-2.071436 0.994532,-3.968341 2.375,-5.34375 1.491019,-1.485555 3.570154,-2.375 5.84375,-2.375 4.378619,0 7.929069,3.420078 8.1875,7.71875 0.0099,-0.165495 0.03125,-0.332044 0.03125,-0.5 0,-4.530531 -3.671558,-8.21875 -8.21875,-8.21875 z m 11.9375,0.28125 0,1 c 1.486302,2.246314 2.243297,4.809386 2.3125,7.40625 0.119664,-2.922323 -0.64041,-5.879146 -2.3125,-8.40625 z m -26.0625,4.96875 c -0.231348,1.106351 -0.313765,2.250009 -0.28125,3.375 0.0462,-1.135644 0.215949,-2.273833 0.53125,-3.375 l -0.25,0 z m 1.75,3.4375 C 36.893786,52.099529 38.083077,55.467389 40.625,58 c 4.204602,4.189197 10.678352,4.771137 15.46875,1.65625 0.814264,0.04071 2.127161,0.128868 2.59375,0.65625 0.13951,0.157686 0.221091,0.359114 0.25,0.59375 -0.0027,-0.648438 0.06765,-1.23471 -0.25,-1.59375 C 58.220911,58.785118 56.908014,58.69696 56.09375,58.65625 51.303352,61.771137 44.829602,61.189197 40.625,57 38.340475,54.723845 37.151551,51.763623 37.03125,48.78125 z m 24.65625,0 c -0.08238,2.185876 -0.725384,4.351809 -1.96875,6.25 0.01245,0.247305 0.05758,0.544882 0.09375,0.84375 1.363495,-2.152306 1.981392,-4.634289 1.875,-7.09375 z M 43.25,48.9375 c -0.0073,0.126942 -0.03125,0.246483 -0.03125,0.375 0,3.415207 2.747174,6.156252 6.1875,6.15625 3.440333,0 6.15625,-2.731629 6.15625,-6.15625 0,-0.126414 -0.02374,-0.250476 -0.03125,-0.375 -0.310978,3.121906 -2.899688,5.53125 -6.125,5.53125 -3.225306,2e-6 -5.841838,-2.416066 -6.15625,-5.53125 z m 22.09375,0.71875 C 64.60775,49.65625 64.000002,50.264 64,51 c 0,0.162353 0.03975,0.324025 0.09375,0.46875 0.20543,-0.48143 0.698,-0.8125 1.25,-0.8125 0.552002,0 1.02211,0.33107 1.21875,0.8125 0.05163,-0.144725 0.09375,-0.306397 0.09375,-0.46875 0,-0.736 -0.576498,-1.34375 -1.3125,-1.34375 z M 62.0625,55.8125 c -0.09241,0.179866 -0.180909,0.354507 -0.28125,0.53125 0.01474,0.166843 0.03977,0.321184 0.0625,0.46875 0.09179,7.72e-4 0.106915,-0.002 0.21875,0 0.78271,0.01369 2.254104,0.200644 3.3125,1.3125 0.02179,0.02289 0.04107,0.03881 0.0625,0.0625 l 4.96875,5 C 71.376023,62.45892 72,61.311732 72,60 l 0,-1 c 0,1.311732 -0.623977,2.45892 -1.59375,3.1875 l -4.96875,-5 C 65.41607,57.16381 65.39679,57.14789 65.375,57.125 64.316604,56.013144 62.84521,55.82619 62.0625,55.8125 z M 24,59 l 0,1 c 0,2.216 1.784,4 4,4 l 1.34375,0 0,-1 L 28,63 c -2.216,0 -4,-1.784 -4,-4 z m 10.65625,1.34375 0,1 6.9375,0 c -0.473495,-0.301894 -0.930339,-0.641489 -1.375,-1 l -5.5625,0 z M 58.9375,61 c 0.06745,0.828852 -0.226302,1.99169 0.6875,2.8125 L 67.21875,71.5 c 0,0 1.404371,1.493859 3.59375,-0.6875 1.219228,-1.21476 1.298374,-2.1858 1.125,-2.8125 -0.115628,0.518583 -0.426329,1.11639 -1.125,1.8125 C 68.623121,71.993859 67.21875,70.5 67.21875,70.5 L 59.625,62.8125 C 59.044244,62.290844 58.947484,61.621943 58.9375,61 z m -29.59375,6 0,1 c 0,2.216 1.784,4 4,4 l 29.3125,0 c 0.628102,0 1.222096,-0.150391 1.75,-0.40625 L 63.6875,70.875 C 63.356961,70.964755 63.015003,71 62.65625,71 l -29.3125,0 c -2.216,0 -4,-1.784 -4,-4 z" />
    </g>
    <rect
       ry="25"
       rx="25"
       id="rect3003"
       style="opacity:0.15;fill:#ffffff;fill-opacity:1"
       height="92"
       width="92"
       y="958.36218"
       x="-96"
       clip-path="url(#clipPath3009)"
       transform="translate(98,-2.6171874e-6)" />
  </g>
</svg>
