<?xml version="1.0" encoding="UTF-8" standalone="no"?>
<!-- Created with Inkscape (http://www.inkscape.org/) -->

<svg
   xmlns:dc="http://purl.org/dc/elements/1.1/"
   xmlns:cc="http://creativecommons.org/ns#"
   xmlns:rdf="http://www.w3.org/1999/02/22-rdf-syntax-ns#"
   xmlns:svg="http://www.w3.org/2000/svg"
   xmlns="http://www.w3.org/2000/svg"
   xmlns:xlink="http://www.w3.org/1999/xlink"
   xmlns:sodipodi="http://sodipodi.sourceforge.net/DTD/sodipodi-0.dtd"
   xmlns:inkscape="http://www.inkscape.org/namespaces/inkscape"
   width="96"
   height="96"
   id="svg11037"
   version="1.1"
   inkscape:version="0.48.3.1 r9886"
   sodipodi:docname="document-send.svg">
  <defs
     id="defs11039">
    <linearGradient
       y2="1046.1001"
       x2="47.999954"
       y1="962.62189"
       x1="47.999954"
       gradientTransform="matrix(1.15,0,0,1.15,-7.1999462,-150.65291)"
       gradientUnits="userSpaceOnUse"
       id="linearGradient3886"
       xlink:href="#linearGradient3795"
       inkscape:collect="always" />
    <linearGradient
       id="linearGradient3795">
      <stop
         style="stop-color:#13a6fd;stop-opacity:1;"
         offset="0"
         id="stop3797" />
      <stop
         style="stop-color:#2975b6;stop-opacity:1;"
         offset="1"
         id="stop3799" />
    </linearGradient>
    <clipPath
       clipPathUnits="userSpaceOnUse"
       id="clipPath3009">
      <path
         id="path3011"
         d="m -2,956.36218 -96,0 0,33.5624 96,25.68742 0,-59.24982 z"
         style="opacity:0.15;fill:#ffffff;fill-opacity:1;stroke:none"
         inkscape:connector-curvature="0" />
    </clipPath>
    <linearGradient
       x1="11.998966"
       y1="1.8417114"
       x2="11.998966"
       y2="20.237488"
       id="linearGradient3867"
       xlink:href="#linearGradient3637"
       gradientUnits="userSpaceOnUse"
       gradientTransform="matrix(2.7741687,0,0,3.2616291,2.819831,13.992926)" />
    <linearGradient
       id="linearGradient3637">
      <stop
         id="stop3639"
         style="stop-color:#f0f0f0;stop-opacity:1"
         offset="0" />
      <stop
         id="stop3641"
         style="stop-color:#aaaaaa;stop-opacity:1"
         offset="1" />
    </linearGradient>
    <linearGradient
       x1="11.998966"
       y1="1.8417114"
       x2="11.998966"
       y2="20.237488"
       id="linearGradient3105"
       xlink:href="#linearGradient3637-3"
       gradientUnits="userSpaceOnUse"
       gradientTransform="matrix(2.7741687,0,0,3.2616291,2.819831,13.992926)" />
    <linearGradient
       id="linearGradient3637-3">
      <stop
         id="stop3639-1"
         style="stop-color:#f0f0f0;stop-opacity:1"
         offset="0" />
      <stop
         id="stop3641-4"
         style="stop-color:#aaaaaa;stop-opacity:1"
         offset="1" />
    </linearGradient>
    <linearGradient
       x1="3"
       y1="11"
       x2="19"
       y2="11"
       id="linearGradient3139"
       xlink:href="#linearGradient3637-6"
       gradientUnits="userSpaceOnUse"
       gradientTransform="matrix(0,3.125,-3.125,0,84.375,11.625)" />
    <linearGradient
       id="linearGradient3637-6">
      <stop
         id="stop3639-5"
         style="stop-color:#f0f0f0;stop-opacity:1"
         offset="0" />
      <stop
         id="stop3641-9"
         style="stop-color:#aaaaaa;stop-opacity:1"
         offset="1" />
    </linearGradient>
    <linearGradient
       x1="11.998966"
       y1="5.5317268"
       x2="11.998966"
       y2="20.282997"
       id="linearGradient3877"
       xlink:href="#linearGradient3637-2"
       gradientUnits="userSpaceOnUse"
       gradientTransform="matrix(2.7658632,0,0,3.2539569,10,6)" />
    <linearGradient
       id="linearGradient3637-2">
      <stop
         id="stop3639-4"
         style="stop-color:#f0f0f0;stop-opacity:1"
         offset="0" />
      <stop
         id="stop3641-3"
         style="stop-color:#aaaaaa;stop-opacity:1"
         offset="1" />
    </linearGradient>
    <linearGradient
       x1="652.021"
       y1="347.86285"
       x2="627.67029"
       y2="349.2926"
       id="linearGradient7313"
       xlink:href="#linearGradient3637-5"
       gradientUnits="userSpaceOnUse"
       gradientTransform="matrix(0.11586665,-1.9518366,1.9733605,0.1145396,-711.10468,1256.8145)" />
    <linearGradient
       id="linearGradient3637-5">
      <stop
         id="stop3639-9"
         style="stop-color:#f0f0f0;stop-opacity:1"
         offset="0" />
      <stop
         id="stop3641-8"
         style="stop-color:#aaaaaa;stop-opacity:1"
         offset="1" />
    </linearGradient>
    <linearGradient
       x1="647.27832"
       y1="349.10172"
       x2="639.46515"
       y2="357.89178"
       id="linearGradient3811"
       xlink:href="#linearGradient3183-0"
       gradientUnits="userSpaceOnUse"
       gradientTransform="matrix(-1.3783144,1.2009005,-1.2251361,-1.3503034,1354.9038,-244.77384)" />
    <linearGradient
       id="linearGradient3183-0">
      <stop
         id="stop3185-9"
         style="stop-color:#c80000;stop-opacity:1"
         offset="0" />
      <stop
         id="stop3187-6"
         style="stop-color:#f3604d;stop-opacity:1"
         offset="1" />
    </linearGradient>
    <linearGradient
       x1="11.162445"
       y1="5.6551228"
       x2="11.162445"
       y2="18.097509"
       id="linearGradient3018"
       xlink:href="#linearGradient3637-8"
       gradientUnits="userSpaceOnUse"
       gradientTransform="matrix(3.6987654,0,0,2.8914301,10.901546,15.338296)" />
    <linearGradient
       id="linearGradient3637-8">
      <stop
         id="stop3639-97"
         style="stop-color:#f0f0f0;stop-opacity:1"
         offset="0" />
      <stop
         id="stop3641-6"
         style="stop-color:#aaaaaa;stop-opacity:1"
         offset="1" />
    </linearGradient>
    <linearGradient
       x1="8.7404661"
       y1="4.5355735"
       x2="8.7404661"
       y2="20.492353"
       id="linearGradient3017"
       xlink:href="#linearGradient3637-65"
       gradientUnits="userSpaceOnUse"
       gradientTransform="matrix(3.0237157,0,0,2.3517789,18.666667,20)" />
    <linearGradient
       id="linearGradient3637-65">
      <stop
         id="stop3639-3"
         style="stop-color:#f0f0f0;stop-opacity:1"
         offset="0" />
      <stop
         id="stop3641-0"
         style="stop-color:#aaaaaa;stop-opacity:1"
         offset="1" />
    </linearGradient>
    <linearGradient
       x1="48"
       y1="74"
       x2="48"
       y2="21.913534"
       id="linearGradient3195"
       xlink:href="#linearGradient4081"
       gradientUnits="userSpaceOnUse"
       gradientTransform="translate(80,0)" />
    <linearGradient
       id="linearGradient4081">
      <stop
         id="stop4083"
         style="stop-color:#aaaaaa;stop-opacity:1"
         offset="0" />
      <stop
         id="stop4085"
         style="stop-color:#f0f0f0;stop-opacity:1"
         offset="1" />
    </linearGradient>
    <linearGradient
       x1="48"
       y1="74"
       x2="48"
       y2="21.913534"
       id="linearGradient3195-7"
       xlink:href="#linearGradient4081-3"
       gradientUnits="userSpaceOnUse" />
    <linearGradient
       id="linearGradient4081-3">
      <stop
         id="stop4083-6"
         style="stop-color:#aaaaaa;stop-opacity:1"
         offset="0" />
      <stop
         id="stop4085-8"
         style="stop-color:#f0f0f0;stop-opacity:1"
         offset="1" />
    </linearGradient>
    <linearGradient
       x1="45"
       y1="24"
       x2="45"
       y2="76"
       id="linearGradient3879"
       xlink:href="#linearGradient3637-0"
       gradientUnits="userSpaceOnUse" />
    <linearGradient
       id="linearGradient3637-0">
      <stop
         id="stop3639-56"
         style="stop-color:#f0f0f0;stop-opacity:1"
         offset="0" />
      <stop
         id="stop3641-32"
         style="stop-color:#aaaaaa;stop-opacity:1"
         offset="1" />
    </linearGradient>
    <linearGradient
       x1="48"
       y1="74"
       x2="48"
       y2="23.990002"
       id="linearGradient3161"
       xlink:href="#linearGradient4081-0"
       gradientUnits="userSpaceOnUse" />
    <linearGradient
       id="linearGradient4081-0">
      <stop
         id="stop4083-7"
         style="stop-color:#aaaaaa;stop-opacity:1"
         offset="0" />
      <stop
         id="stop4085-7"
         style="stop-color:#f0f0f0;stop-opacity:1"
         offset="1" />
    </linearGradient>
    <linearGradient
       x1="48"
       y1="74"
       x2="48"
       y2="21.913534"
       id="linearGradient3762"
       xlink:href="#linearGradient4081-1"
       gradientUnits="userSpaceOnUse" />
    <linearGradient
       id="linearGradient4081-1">
      <stop
         id="stop4083-2"
         style="stop-color:#aaaaaa;stop-opacity:1"
         offset="0" />
      <stop
         id="stop4085-4"
         style="stop-color:#f0f0f0;stop-opacity:1"
         offset="1" />
    </linearGradient>
    <linearGradient
       x1="18.44883"
       y1="17.478098"
       x2="18.44883"
       y2="0.92195439"
       id="linearGradient2869"
       xlink:href="#linearGradient4081-8"
       gradientUnits="userSpaceOnUse"
       gradientTransform="matrix(2.4659278,0,0,2.8992258,10.506518,21.327046)" />
    <linearGradient
       id="linearGradient4081-8">
      <stop
         id="stop4083-3"
         style="stop-color:#aaaaaa;stop-opacity:1"
         offset="0" />
      <stop
         id="stop4085-6"
         style="stop-color:#f0f0f0;stop-opacity:1"
         offset="1" />
    </linearGradient>
    <linearGradient
       x1="18.44883"
       y1="17.478098"
       x2="18.44883"
       y2="0.92195439"
       id="linearGradient3181"
       xlink:href="#linearGradient4081-4"
       gradientUnits="userSpaceOnUse"
       gradientTransform="matrix(2.4659278,0,0,2.8992258,10.506518,21.327046)" />
    <linearGradient
       id="linearGradient4081-4">
      <stop
         id="stop4083-61"
         style="stop-color:#aaaaaa;stop-opacity:1"
         offset="0" />
      <stop
         id="stop4085-3"
         style="stop-color:#f0f0f0;stop-opacity:1"
         offset="1" />
    </linearGradient>
    <linearGradient
       x1="49"
       y1="70"
       x2="49"
       y2="23.729059"
       id="linearGradient3818"
       xlink:href="#linearGradient4081-6"
       gradientUnits="userSpaceOnUse" />
    <linearGradient
       id="linearGradient4081-6">
      <stop
         id="stop4083-24"
         style="stop-color:#aaaaaa;stop-opacity:1"
         offset="0" />
      <stop
         id="stop4085-38"
         style="stop-color:#f0f0f0;stop-opacity:1"
         offset="1" />
    </linearGradient>
    <linearGradient
       x1="45"
       y1="20"
       x2="45"
       y2="68"
       id="linearGradient3131"
       xlink:href="#linearGradient3637-31"
       gradientUnits="userSpaceOnUse"
       gradientTransform="translate(-4,2)" />
    <linearGradient
       id="linearGradient3637-31">
      <stop
         id="stop3639-33"
         style="stop-color:#f0f0f0;stop-opacity:1"
         offset="0" />
      <stop
         id="stop3641-06"
         style="stop-color:#aaaaaa;stop-opacity:1"
         offset="1" />
    </linearGradient>
    <linearGradient
       x1="19.530235"
       y1="20.237455"
       x2="19.530235"
       y2="1.8417403"
       id="linearGradient2862"
       xlink:href="#linearGradient4081-18"
       gradientUnits="userSpaceOnUse"
       gradientTransform="matrix(2.219335,0,0,2.6093033,4.655865,19.194341)" />
    <linearGradient
       id="linearGradient4081-18">
      <stop
         id="stop4083-66"
         style="stop-color:#aaaaaa;stop-opacity:1"
         offset="0" />
      <stop
         id="stop4085-41"
         style="stop-color:#f0f0f0;stop-opacity:1"
         offset="1" />
    </linearGradient>
    <linearGradient
       x1="38"
       y1="24"
       x2="38"
       y2="72"
       id="linearGradient4002"
       xlink:href="#linearGradient3637-1"
       gradientUnits="userSpaceOnUse" />
    <linearGradient
       id="linearGradient3637-1">
      <stop
         id="stop3639-49"
         style="stop-color:#f0f0f0;stop-opacity:1"
         offset="0" />
      <stop
         id="stop3641-87"
         style="stop-color:#aaaaaa;stop-opacity:1"
         offset="1" />
    </linearGradient>
    <linearGradient
       x1="45"
       y1="24"
       x2="45"
       y2="76"
       id="linearGradient3100"
       xlink:href="#linearGradient3637-32"
       gradientUnits="userSpaceOnUse"
       gradientTransform="translate(8,2)" />
    <linearGradient
       id="linearGradient3637-32">
      <stop
         id="stop3639-7"
         style="stop-color:#f0f0f0;stop-opacity:1"
         offset="0" />
      <stop
         id="stop3641-88"
         style="stop-color:#aaaaaa;stop-opacity:1"
         offset="1" />
    </linearGradient>
    <linearGradient
       x1="45"
       y1="24"
       x2="45"
       y2="76"
       id="linearGradient3895"
       xlink:href="#linearGradient3637-4"
       gradientUnits="userSpaceOnUse"
       gradientTransform="translate(4,-2)" />
    <linearGradient
       id="linearGradient3637-4">
      <stop
         id="stop3639-40"
         style="stop-color:#f0f0f0;stop-opacity:1"
         offset="0" />
      <stop
         id="stop3641-7"
         style="stop-color:#aaaaaa;stop-opacity:1"
         offset="1" />
    </linearGradient>
  </defs>
  <sodipodi:namedview
     id="base"
     pagecolor="#ffffff"
     bordercolor="#666666"
     borderopacity="1.0"
     inkscape:pageopacity="0.0"
     inkscape:pageshadow="2"
     inkscape:zoom="3.959798"
     inkscape:cx="81.938797"
     inkscape:cy="63.817216"
     inkscape:document-units="px"
     inkscape:current-layer="layer1"
     showgrid="false"
     inkscape:window-width="1280"
     inkscape:window-height="750"
     inkscape:window-x="0"
     inkscape:window-y="22"
     inkscape:window-maximized="1"
     showguides="true"
     inkscape:guide-bbox="true">
    <sodipodi:guide
       orientation="0,1"
       position="-24.748737,0"
       id="guide11064" />
    <sodipodi:guide
       orientation="0,1"
       position="-23.233509,96"
       id="guide11066" />
    <sodipodi:guide
       orientation="1,0"
       position="0,54.800776"
       id="guide11068" />
    <sodipodi:guide
       orientation="1,0"
       position="96,51.012704"
       id="guide11070" />
    <sodipodi:guide
       orientation="0,1"
       position="-18.94036,48"
       id="guide11072" />
    <sodipodi:guide
       orientation="1,0"
       position="48,79.296975"
       id="guide11074" />
    <sodipodi:guide
       orientation="1,0"
       position="2,75.508903"
       id="guide11076" />
    <sodipodi:guide
       orientation="0,1"
       position="-77.27667,2"
       id="guide11078" />
    <sodipodi:guide
       orientation="1,0"
       position="94,77.781746"
       id="guide11080" />
    <sodipodi:guide
       orientation="0,1"
       position="-65.912454,94"
       id="guide11082" />
  </sodipodi:namedview>
  <metadata
     id="metadata11042">
    <rdf:RDF>
      <cc:Work
         rdf:about="">
        <dc:format>image/svg+xml</dc:format>
        <dc:type
           rdf:resource="http://purl.org/dc/dcmitype/StillImage" />
        <dc:title></dc:title>
      </cc:Work>
    </rdf:RDF>
  </metadata>
  <g
     inkscape:label="Layer 1"
     inkscape:groupmode="layer"
     id="layer1"
     transform="translate(0,-956.36218)">
    <rect
       x="2"
       y="958.36218"
       width="92"
       height="92"
       style="fill:#000000;fill-opacity:1;opacity:0.6"
       id="rect3867"
       rx="25"
       ry="25" />
    <g
       transform="translate(0,956.36218)"
       style="display:inline"
       id="g3070">
      <path
         style="opacity:0.3;color:#000000;fill:#000000;fill-opacity:1;fill-rule:nonzero;stroke:none;stroke-width:2;marker:none;visibility:visible;display:inline;overflow:visible;enable-background:accumulate"
         id="path3917"
         inkscape:connector-curvature="0"
         d="M 37.5,23 C 35.561,23 34,24.561 34,26.5 l 0,37 c 0,1.939 1.561,3.5 3.5,3.5 l 29,0 c 1.939,0 3.5,-1.561 3.5,-3.5 l 0,-37 C 70,24.561 68.439,23 66.5,23 l -29,0 z m 4.25,6 20.5,0 c 0.9695,0 1.75,0.7805 1.75,1.75 l 0,28.5 C 64,60.2195 63.2195,61 62.25,61 l -20.5,0 C 40.7805,61 40,60.2195 40,59.25 l 0,-28.5 C 40,29.7805 40.7805,29 41.75,29 z M 29.5,31 C 27.561,31 26,32.561 26,34.5 l 0,37 c 0,1.939 1.561,3.5 3.5,3.5 l 29,0 c 1.939,0 3.5,-1.561 3.5,-3.5 l 0,-2.5 -7.75,0 -20.5,0 C 32.7805,69 32,68.2195 32,67.25 l 0,-28.5 0,-7.75 -2.5,0 z" />
      <path
         style="color:#000000;fill:url(#linearGradient3895);fill-opacity:1;fill-rule:nonzero;stroke:none;stroke-width:2;marker:none;visibility:visible;display:inline;overflow:visible;enable-background:accumulate"
         id="path3109"
         inkscape:connector-curvature="0"
         d="M 37.5,22 C 35.561,22 34,23.561 34,25.5 l 0,37 c 0,1.939 1.561,3.5 3.5,3.5 l 29,0 c 1.939,0 3.5,-1.561 3.5,-3.5 l 0,-37 C 70,23.561 68.439,22 66.5,22 l -29,0 z m 4.25,6 20.5,0 c 0.9695,0 1.75,0.7805 1.75,1.75 l 0,28.5 C 64,59.2195 63.2195,60 62.25,60 l -20.5,0 C 40.7805,60 40,59.2195 40,58.25 l 0,-28.5 C 40,28.7805 40.7805,28 41.75,28 z M 29.5,30 C 27.561,30 26,31.561 26,33.5 l 0,37 c 0,1.939 1.561,3.5 3.5,3.5 l 29,0 c 1.939,0 3.5,-1.561 3.5,-3.5 l 0,-2.5 -7.75,0 -20.5,0 C 32.7805,68 32,67.2195 32,66.25 l 0,-28.5 0,-7.75 -2.5,0 z" />
      <path
         style="opacity:0.75;color:#000000;fill:#ffffff;fill-opacity:1;fill-rule:nonzero;stroke:none;stroke-width:2;marker:none;visibility:visible;display:inline;overflow:visible;enable-background:accumulate"
         id="path3897"
         inkscape:connector-curvature="0"
         d="M 37.5,22 C 35.561,22 34,23.561 34,25.5 l 0,1 C 34,24.561 35.561,23 37.5,23 l 29,0 c 1.939,0 3.5,1.561 3.5,3.5 l 0,-1 C 70,23.561 68.439,22 66.5,22 l -29,0 z m -8,8 C 27.561,30 26,31.561 26,33.5 l 0,1 C 26,32.561 27.561,31 29.5,31 l 2.5,0 0,-1 -2.5,0 z m 10.5,28.25 0,1 c 0,0.9695 0.7805,1.75 1.75,1.75 l 20.5,0 C 63.2195,61 64,60.2195 64,59.25 l 0,-1 C 64,59.2195 63.2195,60 62.25,60 l -20.5,0 C 40.7805,60 40,59.2195 40,58.25 z m -8,8 0,1 c 0,0.9695 0.7805,1.75 1.75,1.75 l 20.5,0 7.75,0 0,-1 -7.75,0 -20.5,0 C 32.7805,68 32,67.2195 32,66.25 z" />
      <path
         style="opacity:0.15;color:#000000;fill:#000000;fill-opacity:1;fill-rule:nonzero;stroke:none;stroke-width:2;marker:none;visibility:visible;display:inline;overflow:visible;enable-background:accumulate"
         id="path3907"
         inkscape:connector-curvature="0"
         d="M 41.75,27 C 40.7805,27 40,27.7805 40,28.75 l 0,1 C 40,28.7805 40.7805,28 41.75,28 l 20.5,0 c 0.9695,0 1.75,0.7805 1.75,1.75 l 0,-1 C 64,27.7805 63.2195,27 62.25,27 l -20.5,0 z M 34,61.5 l 0,1 c 0,1.939 1.561,3.5 3.5,3.5 l 29,0 c 1.939,0 3.5,-1.561 3.5,-3.5 l 0,-1 c 0,1.939 -1.561,3.5 -3.5,3.5 l -29,0 C 35.561,65 34,63.439 34,61.5 z m -8,8 0,1 c 0,1.939 1.561,3.5 3.5,3.5 l 29,0 c 1.939,0 3.5,-1.561 3.5,-3.5 l 0,-1 c 0,1.939 -1.561,3.5 -3.5,3.5 l -29,0 C 27.561,73 26,71.439 26,69.5 z" />
    </g>
    <rect
       ry="25"
       rx="25"
       id="rect3003"
       style="opacity:0.15;fill:#ffffff;fill-opacity:1"
       height="92"
       width="92"
       y="958.36218"
       x="-96"
       clip-path="url(#clipPath3009)"
       transform="translate(98,-2.6171874e-6)" />
  </g>
</svg>
