<?xml version="1.0" encoding="UTF-8" standalone="no"?>
<!-- Created with Inkscape (http://www.inkscape.org/) -->

<svg
   xmlns:dc="http://purl.org/dc/elements/1.1/"
   xmlns:cc="http://creativecommons.org/ns#"
   xmlns:rdf="http://www.w3.org/1999/02/22-rdf-syntax-ns#"
   xmlns:svg="http://www.w3.org/2000/svg"
   xmlns="http://www.w3.org/2000/svg"
   xmlns:xlink="http://www.w3.org/1999/xlink"
   xmlns:sodipodi="http://sodipodi.sourceforge.net/DTD/sodipodi-0.dtd"
   xmlns:inkscape="http://www.inkscape.org/namespaces/inkscape"
   width="96"
   height="96"
   id="svg11037"
   version="1.1"
   inkscape:version="0.48.3.1 r9886"
   sodipodi:docname="edit-copy.svg">
  <defs
     id="defs11039">
    <linearGradient
       y2="1046.1001"
       x2="47.999954"
       y1="962.62189"
       x1="47.999954"
       gradientTransform="matrix(1.15,0,0,1.15,-7.1999462,-150.65291)"
       gradientUnits="userSpaceOnUse"
       id="linearGradient3886"
       xlink:href="#linearGradient3795"
       inkscape:collect="always" />
    <linearGradient
       id="linearGradient3795">
      <stop
         style="stop-color:#13a6fd;stop-opacity:1;"
         offset="0"
         id="stop3797" />
      <stop
         style="stop-color:#2975b6;stop-opacity:1;"
         offset="1"
         id="stop3799" />
    </linearGradient>
    <clipPath
       clipPathUnits="userSpaceOnUse"
       id="clipPath3009">
      <path
         id="path3011"
         d="m -2,956.36218 -96,0 0,33.5624 96,25.68742 0,-59.24982 z"
         style="opacity:0.15;fill:#ffffff;fill-opacity:1;stroke:none"
         inkscape:connector-curvature="0" />
    </clipPath>
    <linearGradient
       x1="11.998966"
       y1="1.8417114"
       x2="11.998966"
       y2="20.237488"
       id="linearGradient3867"
       xlink:href="#linearGradient3637"
       gradientUnits="userSpaceOnUse"
       gradientTransform="matrix(2.7741687,0,0,3.2616291,2.819831,13.992926)" />
    <linearGradient
       id="linearGradient3637">
      <stop
         id="stop3639"
         style="stop-color:#f0f0f0;stop-opacity:1"
         offset="0" />
      <stop
         id="stop3641"
         style="stop-color:#aaaaaa;stop-opacity:1"
         offset="1" />
    </linearGradient>
    <linearGradient
       x1="11.998966"
       y1="1.8417114"
       x2="11.998966"
       y2="20.237488"
       id="linearGradient3105"
       xlink:href="#linearGradient3637-3"
       gradientUnits="userSpaceOnUse"
       gradientTransform="matrix(2.7741687,0,0,3.2616291,2.819831,13.992926)" />
    <linearGradient
       id="linearGradient3637-3">
      <stop
         id="stop3639-1"
         style="stop-color:#f0f0f0;stop-opacity:1"
         offset="0" />
      <stop
         id="stop3641-4"
         style="stop-color:#aaaaaa;stop-opacity:1"
         offset="1" />
    </linearGradient>
    <linearGradient
       x1="3"
       y1="11"
       x2="19"
       y2="11"
       id="linearGradient3139"
       xlink:href="#linearGradient3637-6"
       gradientUnits="userSpaceOnUse"
       gradientTransform="matrix(0,3.125,-3.125,0,84.375,11.625)" />
    <linearGradient
       id="linearGradient3637-6">
      <stop
         id="stop3639-5"
         style="stop-color:#f0f0f0;stop-opacity:1"
         offset="0" />
      <stop
         id="stop3641-9"
         style="stop-color:#aaaaaa;stop-opacity:1"
         offset="1" />
    </linearGradient>
    <linearGradient
       x1="11.998966"
       y1="5.5317268"
       x2="11.998966"
       y2="20.282997"
       id="linearGradient3877"
       xlink:href="#linearGradient3637-2"
       gradientUnits="userSpaceOnUse"
       gradientTransform="matrix(2.7658632,0,0,3.2539569,10,6)" />
    <linearGradient
       id="linearGradient3637-2">
      <stop
         id="stop3639-4"
         style="stop-color:#f0f0f0;stop-opacity:1"
         offset="0" />
      <stop
         id="stop3641-3"
         style="stop-color:#aaaaaa;stop-opacity:1"
         offset="1" />
    </linearGradient>
    <linearGradient
       x1="652.021"
       y1="347.86285"
       x2="627.67029"
       y2="349.2926"
       id="linearGradient7313"
       xlink:href="#linearGradient3637-5"
       gradientUnits="userSpaceOnUse"
       gradientTransform="matrix(0.11586665,-1.9518366,1.9733605,0.1145396,-711.10468,1256.8145)" />
    <linearGradient
       id="linearGradient3637-5">
      <stop
         id="stop3639-9"
         style="stop-color:#f0f0f0;stop-opacity:1"
         offset="0" />
      <stop
         id="stop3641-8"
         style="stop-color:#aaaaaa;stop-opacity:1"
         offset="1" />
    </linearGradient>
    <linearGradient
       x1="647.27832"
       y1="349.10172"
       x2="639.46515"
       y2="357.89178"
       id="linearGradient3811"
       xlink:href="#linearGradient3183-0"
       gradientUnits="userSpaceOnUse"
       gradientTransform="matrix(-1.3783144,1.2009005,-1.2251361,-1.3503034,1354.9038,-244.77384)" />
    <linearGradient
       id="linearGradient3183-0">
      <stop
         id="stop3185-9"
         style="stop-color:#c80000;stop-opacity:1"
         offset="0" />
      <stop
         id="stop3187-6"
         style="stop-color:#f3604d;stop-opacity:1"
         offset="1" />
    </linearGradient>
    <linearGradient
       x1="11.162445"
       y1="5.6551228"
       x2="11.162445"
       y2="18.097509"
       id="linearGradient3018"
       xlink:href="#linearGradient3637-8"
       gradientUnits="userSpaceOnUse"
       gradientTransform="matrix(3.6987654,0,0,2.8914301,10.901546,15.338296)" />
    <linearGradient
       id="linearGradient3637-8">
      <stop
         id="stop3639-97"
         style="stop-color:#f0f0f0;stop-opacity:1"
         offset="0" />
      <stop
         id="stop3641-6"
         style="stop-color:#aaaaaa;stop-opacity:1"
         offset="1" />
    </linearGradient>
    <linearGradient
       x1="8.7404661"
       y1="4.5355735"
       x2="8.7404661"
       y2="20.492353"
       id="linearGradient3017"
       xlink:href="#linearGradient3637-65"
       gradientUnits="userSpaceOnUse"
       gradientTransform="matrix(3.0237157,0,0,2.3517789,18.666667,20)" />
    <linearGradient
       id="linearGradient3637-65">
      <stop
         id="stop3639-3"
         style="stop-color:#f0f0f0;stop-opacity:1"
         offset="0" />
      <stop
         id="stop3641-0"
         style="stop-color:#aaaaaa;stop-opacity:1"
         offset="1" />
    </linearGradient>
    <linearGradient
       x1="48"
       y1="74"
       x2="48"
       y2="21.913534"
       id="linearGradient3195"
       xlink:href="#linearGradient4081"
       gradientUnits="userSpaceOnUse"
       gradientTransform="translate(80,0)" />
    <linearGradient
       id="linearGradient4081">
      <stop
         id="stop4083"
         style="stop-color:#aaaaaa;stop-opacity:1"
         offset="0" />
      <stop
         id="stop4085"
         style="stop-color:#f0f0f0;stop-opacity:1"
         offset="1" />
    </linearGradient>
    <linearGradient
       x1="48"
       y1="74"
       x2="48"
       y2="21.913534"
       id="linearGradient3195-7"
       xlink:href="#linearGradient4081-3"
       gradientUnits="userSpaceOnUse" />
    <linearGradient
       id="linearGradient4081-3">
      <stop
         id="stop4083-6"
         style="stop-color:#aaaaaa;stop-opacity:1"
         offset="0" />
      <stop
         id="stop4085-8"
         style="stop-color:#f0f0f0;stop-opacity:1"
         offset="1" />
    </linearGradient>
    <linearGradient
       x1="45"
       y1="24"
       x2="45"
       y2="76"
       id="linearGradient3879"
       xlink:href="#linearGradient3637-0"
       gradientUnits="userSpaceOnUse" />
    <linearGradient
       id="linearGradient3637-0">
      <stop
         id="stop3639-56"
         style="stop-color:#f0f0f0;stop-opacity:1"
         offset="0" />
      <stop
         id="stop3641-32"
         style="stop-color:#aaaaaa;stop-opacity:1"
         offset="1" />
    </linearGradient>
    <linearGradient
       x1="48"
       y1="74"
       x2="48"
       y2="23.990002"
       id="linearGradient3161"
       xlink:href="#linearGradient4081-0"
       gradientUnits="userSpaceOnUse" />
    <linearGradient
       id="linearGradient4081-0">
      <stop
         id="stop4083-7"
         style="stop-color:#aaaaaa;stop-opacity:1"
         offset="0" />
      <stop
         id="stop4085-7"
         style="stop-color:#f0f0f0;stop-opacity:1"
         offset="1" />
    </linearGradient>
    <linearGradient
       x1="48"
       y1="74"
       x2="48"
       y2="21.913534"
       id="linearGradient3762"
       xlink:href="#linearGradient4081-1"
       gradientUnits="userSpaceOnUse" />
    <linearGradient
       id="linearGradient4081-1">
      <stop
         id="stop4083-2"
         style="stop-color:#aaaaaa;stop-opacity:1"
         offset="0" />
      <stop
         id="stop4085-4"
         style="stop-color:#f0f0f0;stop-opacity:1"
         offset="1" />
    </linearGradient>
    <linearGradient
       x1="18.44883"
       y1="17.478098"
       x2="18.44883"
       y2="0.92195439"
       id="linearGradient2869"
       xlink:href="#linearGradient4081-8"
       gradientUnits="userSpaceOnUse"
       gradientTransform="matrix(2.4659278,0,0,2.8992258,10.506518,21.327046)" />
    <linearGradient
       id="linearGradient4081-8">
      <stop
         id="stop4083-3"
         style="stop-color:#aaaaaa;stop-opacity:1"
         offset="0" />
      <stop
         id="stop4085-6"
         style="stop-color:#f0f0f0;stop-opacity:1"
         offset="1" />
    </linearGradient>
    <linearGradient
       x1="18.44883"
       y1="17.478098"
       x2="18.44883"
       y2="0.92195439"
       id="linearGradient3181"
       xlink:href="#linearGradient4081-4"
       gradientUnits="userSpaceOnUse"
       gradientTransform="matrix(2.4659278,0,0,2.8992258,10.506518,21.327046)" />
    <linearGradient
       id="linearGradient4081-4">
      <stop
         id="stop4083-61"
         style="stop-color:#aaaaaa;stop-opacity:1"
         offset="0" />
      <stop
         id="stop4085-3"
         style="stop-color:#f0f0f0;stop-opacity:1"
         offset="1" />
    </linearGradient>
    <linearGradient
       x1="49"
       y1="70"
       x2="49"
       y2="23.729059"
       id="linearGradient3818"
       xlink:href="#linearGradient4081-6"
       gradientUnits="userSpaceOnUse" />
    <linearGradient
       id="linearGradient4081-6">
      <stop
         id="stop4083-24"
         style="stop-color:#aaaaaa;stop-opacity:1"
         offset="0" />
      <stop
         id="stop4085-38"
         style="stop-color:#f0f0f0;stop-opacity:1"
         offset="1" />
    </linearGradient>
    <linearGradient
       x1="45"
       y1="20"
       x2="45"
       y2="68"
       id="linearGradient3131"
       xlink:href="#linearGradient3637-31"
       gradientUnits="userSpaceOnUse"
       gradientTransform="translate(-4,2)" />
    <linearGradient
       id="linearGradient3637-31">
      <stop
         id="stop3639-33"
         style="stop-color:#f0f0f0;stop-opacity:1"
         offset="0" />
      <stop
         id="stop3641-06"
         style="stop-color:#aaaaaa;stop-opacity:1"
         offset="1" />
    </linearGradient>
    <linearGradient
       x1="19.530235"
       y1="20.237455"
       x2="19.530235"
       y2="1.8417403"
       id="linearGradient2862"
       xlink:href="#linearGradient4081-18"
       gradientUnits="userSpaceOnUse"
       gradientTransform="matrix(2.219335,0,0,2.6093033,4.655865,19.194341)" />
    <linearGradient
       id="linearGradient4081-18">
      <stop
         id="stop4083-66"
         style="stop-color:#aaaaaa;stop-opacity:1"
         offset="0" />
      <stop
         id="stop4085-41"
         style="stop-color:#f0f0f0;stop-opacity:1"
         offset="1" />
    </linearGradient>
    <linearGradient
       x1="38"
       y1="24"
       x2="38"
       y2="72"
       id="linearGradient4002"
       xlink:href="#linearGradient3637-1"
       gradientUnits="userSpaceOnUse" />
    <linearGradient
       id="linearGradient3637-1">
      <stop
         id="stop3639-49"
         style="stop-color:#f0f0f0;stop-opacity:1"
         offset="0" />
      <stop
         id="stop3641-87"
         style="stop-color:#aaaaaa;stop-opacity:1"
         offset="1" />
    </linearGradient>
    <linearGradient
       x1="45"
       y1="24"
       x2="45"
       y2="76"
       id="linearGradient3100"
       xlink:href="#linearGradient3637-32"
       gradientUnits="userSpaceOnUse"
       gradientTransform="translate(8,2)" />
    <linearGradient
       id="linearGradient3637-32">
      <stop
         id="stop3639-7"
         style="stop-color:#f0f0f0;stop-opacity:1"
         offset="0" />
      <stop
         id="stop3641-88"
         style="stop-color:#aaaaaa;stop-opacity:1"
         offset="1" />
    </linearGradient>
    <linearGradient
       x1="45"
       y1="24"
       x2="45"
       y2="76"
       id="linearGradient3895"
       xlink:href="#linearGradient3637-4"
       gradientUnits="userSpaceOnUse"
       gradientTransform="translate(4,-2)" />
    <linearGradient
       id="linearGradient3637-4">
      <stop
         id="stop3639-40"
         style="stop-color:#f0f0f0;stop-opacity:1"
         offset="0" />
      <stop
         id="stop3641-7"
         style="stop-color:#aaaaaa;stop-opacity:1"
         offset="1" />
    </linearGradient>
    <linearGradient
       x1="46.069901"
       y1="0.92127591"
       x2="46.069901"
       y2="17.478098"
       id="linearGradient3916"
       xlink:href="#linearGradient3637-34"
       gradientUnits="userSpaceOnUse"
       gradientTransform="matrix(-2.669076,0,0,3.1691493,171.99415,18.59292)" />
    <linearGradient
       id="linearGradient3637-34">
      <stop
         id="stop3639-48"
         style="stop-color:#f0f0f0;stop-opacity:1"
         offset="0" />
      <stop
         id="stop3641-2"
         style="stop-color:#aaaaaa;stop-opacity:1"
         offset="1" />
    </linearGradient>
  </defs>
  <sodipodi:namedview
     id="base"
     pagecolor="#ffffff"
     bordercolor="#666666"
     borderopacity="1.0"
     inkscape:pageopacity="0.0"
     inkscape:pageshadow="2"
     inkscape:zoom="3.959798"
     inkscape:cx="81.938797"
     inkscape:cy="63.817216"
     inkscape:document-units="px"
     inkscape:current-layer="layer1"
     showgrid="false"
     inkscape:window-width="1280"
     inkscape:window-height="750"
     inkscape:window-x="0"
     inkscape:window-y="22"
     inkscape:window-maximized="1"
     showguides="true"
     inkscape:guide-bbox="true">
    <sodipodi:guide
       orientation="0,1"
       position="-24.748737,0"
       id="guide11064" />
    <sodipodi:guide
       orientation="0,1"
       position="-23.233509,96"
       id="guide11066" />
    <sodipodi:guide
       orientation="1,0"
       position="0,54.800776"
       id="guide11068" />
    <sodipodi:guide
       orientation="1,0"
       position="96,51.012704"
       id="guide11070" />
    <sodipodi:guide
       orientation="0,1"
       position="-18.94036,48"
       id="guide11072" />
    <sodipodi:guide
       orientation="1,0"
       position="48,79.296975"
       id="guide11074" />
    <sodipodi:guide
       orientation="1,0"
       position="2,75.508903"
       id="guide11076" />
    <sodipodi:guide
       orientation="0,1"
       position="-77.27667,2"
       id="guide11078" />
    <sodipodi:guide
       orientation="1,0"
       position="94,77.781746"
       id="guide11080" />
    <sodipodi:guide
       orientation="0,1"
       position="-65.912454,94"
       id="guide11082" />
  </sodipodi:namedview>
  <metadata
     id="metadata11042">
    <rdf:RDF>
      <cc:Work
         rdf:about="">
        <dc:format>image/svg+xml</dc:format>
        <dc:type
           rdf:resource="http://purl.org/dc/dcmitype/StillImage" />
        <dc:title></dc:title>
      </cc:Work>
    </rdf:RDF>
  </metadata>
  <g
     inkscape:label="Layer 1"
     inkscape:groupmode="layer"
     id="layer1"
     transform="translate(0,-956.36218)">
    <rect
       x="2"
       y="958.36218"
       width="92"
       height="92"
       style="fill:#000000;fill-opacity:1;opacity:0.6"
       id="rect3867"
       rx="25"
       ry="25" />
    <g
       transform="translate(-3.6752634e-7,956.36218)"
       style="display:inline"
       id="g3070">
      <path
         style="opacity:0.3;fill:#000000;fill-opacity:1;stroke:none;display:inline"
         id="path3936"
         inkscape:connector-curvature="0"
         d="m 33.75,21 c -0.04115,-8.97e-4 -0.08502,0.01398 -0.125,0.03125 -0.23987,0.103604 -0.43058,0.451915 -0.71875,0.8125 0,0 -0.93044,2.55437 -0.90625,4.15625 0.0299,1.98013 0.62789,5.29789 1.6875,8.1875 2.248208,6.130985 5.382447,12.867505 8.15625,17.78125 C 42.378187,49.996618 42.983556,47.865836 44.03125,46 A 2.4115845,2.4115845 0 0 1 44.0625,45.9375 L 46.59375,41.71875 34.71875,21.9375 C 34.37788,21.35255 34.093092,21.09695 33.875,21.03125 33.829564,21.01757 33.791146,21.000897 33.75,21 z m 28.375,0.03125 c -0.218093,0.0657 -0.502879,0.3213 -0.84375,0.90625 L 46.125,47.1875 c -1.283442,2.28568 -1.939407,5.76262 -2.875,8.5625 -0.467798,1.39995 -1.019454,2.6455 -1.53125,3.3125 -0.31877,0.54547 -0.693921,0.59375 -1.15625,0.59375 -2.570274,-0.10003 -5.425829,1.65554 -7.15625,4.625 -2.260599,3.87926 -1.717854,8.41398 1.21875,10.09375 2.936604,1.67977 7.114402,-0.12074 9.375,-4 1.040547,-1.78561 1.48363,-3.6917 1.375,-5.40625 l 0.0625,0.09375 c -0.03135,-1.28043 0.09966,-2.89357 0.6875,-4.375 0.674259,-1.69905 1.786415,-3.22279 4.78125,-4.09375 0.257893,-0.0701 0.538222,-0.24509 0.6875,-0.46875 C 54.802555,51.50768 59.327988,42.32643 62.3125,34.1875 63.372111,31.29789 63.970102,27.98013 64,26 64.02419,24.39812 63.09375,21.84375 63.09375,21.84375 62.709522,21.36297 62.488487,20.92181 62.125,21.03125 z M 53.46875,57.625 c -0.548457,0.739261 -1.152462,1.045041 -1.875,1.25 l 0,0.03125 c -1.054621,0.306705 -1.687041,0.595121 -2.125,0.9375 0.146831,0.274724 0.292202,0.556363 0.40625,0.84375 0.587847,1.48143 0.71885,3.09457 0.6875,4.375 l 0.0625,-0.09375 c -0.10863,1.71455 0.334453,3.62064 1.375,5.40625 2.260599,3.87926 6.438396,5.67977 9.375,4 2.936604,-1.67977 3.479348,-6.21449 1.21875,-10.09375 -1.730421,-2.96946 -4.585976,-4.72503 -7.15625,-4.625 -0.462328,0 -0.837479,-0.04828 -1.15625,-0.59375 -0.264722,-0.345 -0.542617,-0.837973 -0.8125,-1.4375 z M 39.8125,63 c 0.443902,-0.0181 0.873587,0.09719 1.25,0.3125 1.505653,0.86125 1.673684,3.33391 0.375,5.5625 -1.298685,2.22858 -3.556847,3.36125 -5.0625,2.5 C 34.869347,70.51375 34.701315,68.00984 36,65.78125 36.974014,64.10981 38.480795,63.05431 39.8125,63 z m 16.375,0 c 1.331704,0.05431 2.838486,1.10981 3.8125,2.78125 1.298685,2.22859 1.130653,4.7325 -0.375,5.59375 -1.505654,0.86125 -3.763815,-0.27142 -5.0625,-2.5 -1.298685,-2.22859 -1.130653,-4.70125 0.375,-5.5625 0.376414,-0.21531 0.806098,-0.3306 1.25,-0.3125 z" />
      <path
         style="fill:url(#linearGradient3916);fill-opacity:1;stroke:none;display:inline"
         id="path3113"
         inkscape:connector-curvature="0"
         d="m 33.75,20 c -0.04115,-8.97e-4 -0.08502,0.01398 -0.125,0.03125 -0.23987,0.103604 -0.43058,0.451915 -0.71875,0.8125 0,0 -0.93044,2.55437 -0.90625,4.15625 0.0299,1.98013 0.62789,5.29789 1.6875,8.1875 2.248208,6.130985 5.382447,12.867505 8.15625,17.78125 C 42.378187,48.996618 42.983556,46.865836 44.03125,45 A 2.4115845,2.4115845 0 0 1 44.0625,44.9375 L 46.59375,40.71875 34.71875,20.9375 C 34.37788,20.35255 34.093092,20.09695 33.875,20.03125 33.829564,20.01757 33.791146,20.000897 33.75,20 z m 28.375,0.03125 c -0.218093,0.0657 -0.502879,0.3213 -0.84375,0.90625 L 46.125,46.1875 c -1.283442,2.28568 -1.939407,5.76262 -2.875,8.5625 -0.467798,1.39995 -1.019454,2.6455 -1.53125,3.3125 -0.31877,0.54547 -0.693921,0.59375 -1.15625,0.59375 -2.570274,-0.10003 -5.425829,1.65554 -7.15625,4.625 -2.260599,3.87926 -1.717854,8.41398 1.21875,10.09375 2.936604,1.67977 7.114402,-0.12074 9.375,-4 1.040547,-1.78561 1.48363,-3.6917 1.375,-5.40625 l 0.0625,0.09375 c -0.03135,-1.28043 0.09966,-2.89357 0.6875,-4.375 0.674259,-1.69905 1.786415,-3.22279 4.78125,-4.09375 0.257893,-0.0701 0.538222,-0.24509 0.6875,-0.46875 C 54.802555,50.50768 59.327988,41.32643 62.3125,33.1875 63.372111,30.29789 63.970102,26.98013 64,25 64.02419,23.39812 63.09375,20.84375 63.09375,20.84375 62.709522,20.36297 62.488487,19.92181 62.125,20.03125 z M 53.46875,56.625 c -0.548457,0.739261 -1.152462,1.045041 -1.875,1.25 l 0,0.03125 c -1.054621,0.306705 -1.687041,0.595121 -2.125,0.9375 0.146831,0.274724 0.292202,0.556363 0.40625,0.84375 0.587847,1.48143 0.71885,3.09457 0.6875,4.375 l 0.0625,-0.09375 c -0.10863,1.71455 0.334453,3.62064 1.375,5.40625 2.260599,3.87926 6.438396,5.67977 9.375,4 2.936604,-1.67977 3.479348,-6.21449 1.21875,-10.09375 -1.730421,-2.96946 -4.585976,-4.72503 -7.15625,-4.625 -0.462328,0 -0.837479,-0.04828 -1.15625,-0.59375 -0.264722,-0.345 -0.542617,-0.837973 -0.8125,-1.4375 z M 39.8125,62 c 0.443902,-0.0181 0.873587,0.09719 1.25,0.3125 1.505653,0.86125 1.673684,3.33391 0.375,5.5625 -1.298685,2.22858 -3.556847,3.36125 -5.0625,2.5 C 34.869347,69.51375 34.701315,67.00984 36,64.78125 36.974014,63.10981 38.480795,62.05431 39.8125,62 z m 16.375,0 c 1.331704,0.05431 2.838486,1.10981 3.8125,2.78125 1.298685,2.22859 1.130653,4.7325 -0.375,5.59375 -1.505654,0.86125 -3.763815,-0.27142 -5.0625,-2.5 -1.298685,-2.22859 -1.130653,-4.70125 0.375,-5.5625 0.376414,-0.21531 0.806098,-0.3306 1.25,-0.3125 z" />
      <path
         style="opacity:0.75;fill:#ffffff;fill-opacity:1;stroke:none;display:inline"
         id="path3918"
         inkscape:connector-curvature="0"
         d="m 33.75,20 c -0.04115,-8.97e-4 -0.08502,0.01398 -0.125,0.03125 -0.23987,0.103604 -0.43058,0.451915 -0.71875,0.8125 0,0 -0.93044,2.55437 -0.90625,4.15625 0.0016,0.10809 0.02625,0.259226 0.03125,0.375 0.161887,-1.562057 0.875,-3.53125 0.875,-3.53125 0.28817,-0.360585 0.47888,-0.708896 0.71875,-0.8125 C 33.66498,21.01398 33.70885,20.9991 33.75,21 c 0.04115,8.97e-4 0.07956,0.01757 0.125,0.03125 0.218092,0.0657 0.50288,0.3213 0.84375,0.90625 l 11.5625,19.28125 0.3125,-0.5 -11.875,-19.78125 C 34.37788,20.35255 34.093092,20.09695 33.875,20.03125 33.829564,20.01757 33.791146,20.000897 33.75,20 z m 28.375,0.03125 c -0.218093,0.0657 -0.502879,0.3213 -0.84375,0.90625 L 46.125,46.1875 c -1.283442,2.28568 -1.939407,5.76262 -2.875,8.5625 -0.467798,1.39995 -1.019454,2.6455 -1.53125,3.3125 -0.31877,0.54547 -0.693921,0.59375 -1.15625,0.59375 -2.570274,-0.10003 -5.425829,1.65554 -7.15625,4.625 -1.046917,1.796543 -1.489906,3.739725 -1.375,5.46875 0.08088,-1.453951 0.527275,-3.014027 1.375,-4.46875 1.730421,-2.96946 4.585976,-4.72503 7.15625,-4.625 0.462329,0 0.83748,-0.04828 1.15625,-0.59375 0.511796,-0.667 1.063452,-1.91255 1.53125,-3.3125 0.935593,-2.79988 1.591558,-6.27682 2.875,-8.5625 l 15.15625,-25.25 c 0.340871,-0.58495 0.625657,-0.84055 0.84375,-0.90625 0.363487,-0.10944 0.584522,0.33172 0.96875,0.8125 0,0 0.713113,1.969193 0.875,3.53125 C 63.97375,25.259226 63.998368,25.10809 64,25 64.02419,23.39812 63.09375,20.84375 63.09375,20.84375 62.709522,20.36297 62.488487,19.92181 62.125,20.03125 z M 53.46875,56.625 c -0.548457,0.739261 -1.152462,1.045041 -1.875,1.25 l 0,0.03125 c -1.054621,0.306705 -1.687041,0.595121 -2.125,0.9375 0.131461,0.245967 0.267312,0.493785 0.375,0.75 0.412067,-0.239935 0.959034,-0.457471 1.75,-0.6875 l 0,-0.03125 c 0.722538,-0.204959 1.326543,-0.510739 1.875,-1.25 0.269883,0.599527 0.547778,1.0925 0.8125,1.4375 0.318771,0.54547 0.693922,0.59375 1.15625,0.59375 2.570274,-0.10003 5.425829,1.65554 7.15625,4.625 0.847724,1.454723 1.294122,3.014799 1.375,4.46875 0.114906,-1.729025 -0.328084,-3.672207 -1.375,-5.46875 -1.730421,-2.96946 -4.585976,-4.72503 -7.15625,-4.625 -0.462328,0 -0.837479,-0.04828 -1.15625,-0.59375 -0.264722,-0.345 -0.542617,-0.837973 -0.8125,-1.4375 z m -11.1875,8.78125 c -0.08517,0.798084 -0.362765,1.643361 -0.84375,2.46875 -1.298685,2.22858 -3.556847,3.36125 -5.0625,2.5 -0.695847,-0.398032 -1.107047,-1.152089 -1.21875,-2.0625 -0.135501,1.353353 0.277717,2.524219 1.21875,3.0625 1.505653,0.86125 3.763815,-0.27142 5.0625,-2.5 0.691639,-1.186878 0.964619,-2.423696 0.84375,-3.46875 z m 11.4375,0 c -0.120869,1.045054 0.152111,2.281872 0.84375,3.46875 1.298685,2.22858 3.556846,3.36125 5.0625,2.5 0.941033,-0.538281 1.354251,-1.709147 1.21875,-3.0625 -0.111703,0.910411 -0.522903,1.664468 -1.21875,2.0625 -1.505654,0.86125 -3.763815,-0.27142 -5.0625,-2.5 -0.480986,-0.825389 -0.758583,-1.670666 -0.84375,-2.46875 z" />
      <path
         style="opacity:0.15;fill:#000000;fill-opacity:1;stroke:none;display:inline"
         id="path3927"
         inkscape:connector-curvature="0"
         d="M 32.03125,24.40625 C 32.01035,24.617494 31.997127,24.809752 32,25 c 0.0299,1.98013 0.62789,5.29789 1.6875,8.1875 2.248208,6.130985 5.382447,12.867505 8.15625,17.78125 0.534437,-1.972132 1.139806,-4.102914 2.1875,-5.96875 a 2.4115845,2.4115845 0 0 1 0.03125,-0.0625 l 2.53125,-4.21875 -0.3125,-0.5 -2.21875,3.71875 A 2.4115845,2.4115845 0 0 0 44.03125,44 c -1.047694,1.865836 -1.653063,3.996618 -2.1875,5.96875 C 39.069947,45.055005 35.935708,38.318485 33.6875,32.1875 32.690522,29.468692 32.122221,26.412317 32.03125,24.40625 z m 31.9375,0 c -0.09097,2.006067 -0.659271,5.062442 -1.65625,7.78125 -2.984512,8.13893 -7.509945,17.32018 -10.71875,21.9375 -0.149278,0.22366 -0.429607,0.39865 -0.6875,0.46875 -2.994835,0.87096 -4.106991,2.3947 -4.78125,4.09375 -0.58784,1.48143 -0.71885,3.09457 -0.6875,4.375 0.05118,-1.063319 0.24662,-2.263927 0.6875,-3.375 0.674259,-1.69905 1.786415,-3.22279 4.78125,-4.09375 0.257893,-0.0701 0.538222,-0.24509 0.6875,-0.46875 C 54.802555,50.50768 59.327988,41.32643 62.3125,33.1875 63.372111,30.29789 63.970102,26.98013 64,25 64.0029,24.809752 63.98965,24.617494 63.96875,24.40625 z M 45.4375,63.0625 45.375,62.96875 c 0.02067,0.326327 0.01961,0.661947 0,1 l 0.0625,0.09375 c -0.0078,-0.320107 -0.01706,-0.64556 0,-1 z M 45.375,63.96875 C 45.29157,65.406855 44.842502,66.929242 44,68.375 c -2.260598,3.87926 -6.438396,5.67977 -9.375,4 -1.568345,-0.897111 -2.453375,-2.602759 -2.59375,-4.59375 -0.125269,2.410489 0.766337,4.54845 2.59375,5.59375 2.936604,1.67977 7.114402,-0.12074 9.375,-4 1.040547,-1.78561 1.48363,-3.6917 1.375,-5.40625 z m 4.46875,-5.375 c -0.137356,0.07998 -0.26551,0.164405 -0.375,0.25 0.146831,0.274724 0.292202,0.556363 0.40625,0.84375 0.440885,1.111073 0.636326,2.311681 0.6875,3.375 0.03135,-1.28043 -0.09965,-2.89357 -0.6875,-4.375 -0.01194,-0.03008 -0.01866,-0.06379 -0.03125,-0.09375 z m 0.71875,4.46875 c 0.01706,0.35444 0.0078,0.679893 0,1 l 0.0625,-0.09375 c -0.01961,-0.338053 -0.02067,-0.673673 0,-1 l -0.0625,0.09375 z m 0.0625,0.90625 c -0.10863,1.71455 0.334453,3.62064 1.375,5.40625 2.260599,3.87926 6.438396,5.67977 9.375,4 1.827413,-1.0453 2.719019,-3.183261 2.59375,-5.59375 -0.140375,1.990991 -1.025405,3.696639 -2.59375,4.59375 -2.936604,1.67977 -7.114401,-0.12074 -9.375,-4 -0.842502,-1.445758 -1.291571,-2.968145 -1.375,-4.40625 z M 39.8125,61 c -1.331705,0.05431 -2.838486,1.10981 -3.8125,2.78125 -0.691639,1.186878 -0.964619,2.44666 -0.84375,3.5 0.08504,-0.803777 0.362556,-1.674254 0.84375,-2.5 0.974014,-1.67144 2.480795,-2.72694 3.8125,-2.78125 0.443902,-0.0181 0.873587,0.09719 1.25,0.3125 0.695847,0.398032 1.107047,1.159268 1.21875,2.0625 C 42.416751,63.030803 42.003533,61.850781 41.0625,61.3125 40.686087,61.09719 40.256402,60.9819 39.8125,61 z m 16.375,0 c -0.443902,-0.0181 -0.873586,0.09719 -1.25,0.3125 -0.941033,0.538281 -1.354251,1.718303 -1.21875,3.0625 0.111703,-0.903232 0.522903,-1.664468 1.21875,-2.0625 0.376414,-0.21531 0.806098,-0.3306 1.25,-0.3125 1.331704,0.05431 2.838486,1.10981 3.8125,2.78125 0.481194,0.825746 0.758714,1.696223 0.84375,2.5 C 60.964619,66.22791 60.691639,64.968128 60,63.78125 59.025986,62.10981 57.519204,61.05431 56.1875,61 z" />
    </g>
    <rect
       ry="25"
       rx="25"
       id="rect3003"
       style="opacity:0.15;fill:#ffffff;fill-opacity:1"
       height="92"
       width="92"
       y="958.36218"
       x="-96"
       clip-path="url(#clipPath3009)"
       transform="translate(98,-2.6171874e-6)" />
  </g>
</svg>
