<?xml version="1.0" encoding="UTF-8" standalone="no"?>
<!-- Created with Inkscape (http://www.inkscape.org/) -->

<svg
   xmlns:dc="http://purl.org/dc/elements/1.1/"
   xmlns:cc="http://creativecommons.org/ns#"
   xmlns:rdf="http://www.w3.org/1999/02/22-rdf-syntax-ns#"
   xmlns:svg="http://www.w3.org/2000/svg"
   xmlns="http://www.w3.org/2000/svg"
   xmlns:xlink="http://www.w3.org/1999/xlink"
   xmlns:sodipodi="http://sodipodi.sourceforge.net/DTD/sodipodi-0.dtd"
   xmlns:inkscape="http://www.inkscape.org/namespaces/inkscape"
   width="96"
   height="96"
   id="svg11037"
   version="1.1"
   inkscape:version="0.48.3.1 r9886"
   sodipodi:docname="edit-find.svg">
  <defs
     id="defs11039">
    <linearGradient
       y2="1046.1001"
       x2="47.999954"
       y1="962.62189"
       x1="47.999954"
       gradientTransform="matrix(1.15,0,0,1.15,-7.1999462,-150.65291)"
       gradientUnits="userSpaceOnUse"
       id="linearGradient3886"
       xlink:href="#linearGradient3795"
       inkscape:collect="always" />
    <linearGradient
       id="linearGradient3795">
      <stop
         style="stop-color:#13a6fd;stop-opacity:1;"
         offset="0"
         id="stop3797" />
      <stop
         style="stop-color:#2975b6;stop-opacity:1;"
         offset="1"
         id="stop3799" />
    </linearGradient>
    <clipPath
       clipPathUnits="userSpaceOnUse"
       id="clipPath3009">
      <path
         id="path3011"
         d="m -2,956.36218 -96,0 0,33.5624 96,25.68742 0,-59.24982 z"
         style="opacity:0.15;fill:#ffffff;fill-opacity:1;stroke:none"
         inkscape:connector-curvature="0" />
    </clipPath>
    <linearGradient
       x1="11.998966"
       y1="1.8417114"
       x2="11.998966"
       y2="20.237488"
       id="linearGradient3867"
       xlink:href="#linearGradient3637"
       gradientUnits="userSpaceOnUse"
       gradientTransform="matrix(2.7741687,0,0,3.2616291,2.819831,13.992926)" />
    <linearGradient
       id="linearGradient3637">
      <stop
         id="stop3639"
         style="stop-color:#f0f0f0;stop-opacity:1"
         offset="0" />
      <stop
         id="stop3641"
         style="stop-color:#aaaaaa;stop-opacity:1"
         offset="1" />
    </linearGradient>
    <linearGradient
       x1="11.998966"
       y1="1.8417114"
       x2="11.998966"
       y2="20.237488"
       id="linearGradient3105"
       xlink:href="#linearGradient3637-3"
       gradientUnits="userSpaceOnUse"
       gradientTransform="matrix(2.7741687,0,0,3.2616291,2.819831,13.992926)" />
    <linearGradient
       id="linearGradient3637-3">
      <stop
         id="stop3639-1"
         style="stop-color:#f0f0f0;stop-opacity:1"
         offset="0" />
      <stop
         id="stop3641-4"
         style="stop-color:#aaaaaa;stop-opacity:1"
         offset="1" />
    </linearGradient>
    <linearGradient
       x1="3"
       y1="11"
       x2="19"
       y2="11"
       id="linearGradient3139"
       xlink:href="#linearGradient3637-6"
       gradientUnits="userSpaceOnUse"
       gradientTransform="matrix(0,3.125,-3.125,0,84.375,11.625)" />
    <linearGradient
       id="linearGradient3637-6">
      <stop
         id="stop3639-5"
         style="stop-color:#f0f0f0;stop-opacity:1"
         offset="0" />
      <stop
         id="stop3641-9"
         style="stop-color:#aaaaaa;stop-opacity:1"
         offset="1" />
    </linearGradient>
    <linearGradient
       x1="11.998966"
       y1="5.5317268"
       x2="11.998966"
       y2="20.282997"
       id="linearGradient3877"
       xlink:href="#linearGradient3637-2"
       gradientUnits="userSpaceOnUse"
       gradientTransform="matrix(2.7658632,0,0,3.2539569,10,6)" />
    <linearGradient
       id="linearGradient3637-2">
      <stop
         id="stop3639-4"
         style="stop-color:#f0f0f0;stop-opacity:1"
         offset="0" />
      <stop
         id="stop3641-3"
         style="stop-color:#aaaaaa;stop-opacity:1"
         offset="1" />
    </linearGradient>
    <linearGradient
       x1="652.021"
       y1="347.86285"
       x2="627.67029"
       y2="349.2926"
       id="linearGradient7313"
       xlink:href="#linearGradient3637-5"
       gradientUnits="userSpaceOnUse"
       gradientTransform="matrix(0.11586665,-1.9518366,1.9733605,0.1145396,-711.10468,1256.8145)" />
    <linearGradient
       id="linearGradient3637-5">
      <stop
         id="stop3639-9"
         style="stop-color:#f0f0f0;stop-opacity:1"
         offset="0" />
      <stop
         id="stop3641-8"
         style="stop-color:#aaaaaa;stop-opacity:1"
         offset="1" />
    </linearGradient>
    <linearGradient
       x1="647.27832"
       y1="349.10172"
       x2="639.46515"
       y2="357.89178"
       id="linearGradient3811"
       xlink:href="#linearGradient3183-0"
       gradientUnits="userSpaceOnUse"
       gradientTransform="matrix(-1.3783144,1.2009005,-1.2251361,-1.3503034,1354.9038,-244.77384)" />
    <linearGradient
       id="linearGradient3183-0">
      <stop
         id="stop3185-9"
         style="stop-color:#c80000;stop-opacity:1"
         offset="0" />
      <stop
         id="stop3187-6"
         style="stop-color:#f3604d;stop-opacity:1"
         offset="1" />
    </linearGradient>
    <linearGradient
       x1="11.162445"
       y1="5.6551228"
       x2="11.162445"
       y2="18.097509"
       id="linearGradient3018"
       xlink:href="#linearGradient3637-8"
       gradientUnits="userSpaceOnUse"
       gradientTransform="matrix(3.6987654,0,0,2.8914301,10.901546,15.338296)" />
    <linearGradient
       id="linearGradient3637-8">
      <stop
         id="stop3639-97"
         style="stop-color:#f0f0f0;stop-opacity:1"
         offset="0" />
      <stop
         id="stop3641-6"
         style="stop-color:#aaaaaa;stop-opacity:1"
         offset="1" />
    </linearGradient>
    <linearGradient
       x1="8.7404661"
       y1="4.5355735"
       x2="8.7404661"
       y2="20.492353"
       id="linearGradient3017"
       xlink:href="#linearGradient3637-65"
       gradientUnits="userSpaceOnUse"
       gradientTransform="matrix(3.0237157,0,0,2.3517789,18.666667,20)" />
    <linearGradient
       id="linearGradient3637-65">
      <stop
         id="stop3639-3"
         style="stop-color:#f0f0f0;stop-opacity:1"
         offset="0" />
      <stop
         id="stop3641-0"
         style="stop-color:#aaaaaa;stop-opacity:1"
         offset="1" />
    </linearGradient>
    <linearGradient
       x1="48"
       y1="74"
       x2="48"
       y2="21.913534"
       id="linearGradient3195"
       xlink:href="#linearGradient4081"
       gradientUnits="userSpaceOnUse"
       gradientTransform="translate(80,0)" />
    <linearGradient
       id="linearGradient4081">
      <stop
         id="stop4083"
         style="stop-color:#aaaaaa;stop-opacity:1"
         offset="0" />
      <stop
         id="stop4085"
         style="stop-color:#f0f0f0;stop-opacity:1"
         offset="1" />
    </linearGradient>
    <linearGradient
       x1="48"
       y1="74"
       x2="48"
       y2="21.913534"
       id="linearGradient3195-7"
       xlink:href="#linearGradient4081-3"
       gradientUnits="userSpaceOnUse" />
    <linearGradient
       id="linearGradient4081-3">
      <stop
         id="stop4083-6"
         style="stop-color:#aaaaaa;stop-opacity:1"
         offset="0" />
      <stop
         id="stop4085-8"
         style="stop-color:#f0f0f0;stop-opacity:1"
         offset="1" />
    </linearGradient>
    <linearGradient
       x1="45"
       y1="24"
       x2="45"
       y2="76"
       id="linearGradient3879"
       xlink:href="#linearGradient3637-0"
       gradientUnits="userSpaceOnUse" />
    <linearGradient
       id="linearGradient3637-0">
      <stop
         id="stop3639-56"
         style="stop-color:#f0f0f0;stop-opacity:1"
         offset="0" />
      <stop
         id="stop3641-32"
         style="stop-color:#aaaaaa;stop-opacity:1"
         offset="1" />
    </linearGradient>
    <linearGradient
       x1="48"
       y1="74"
       x2="48"
       y2="23.990002"
       id="linearGradient3161"
       xlink:href="#linearGradient4081-0"
       gradientUnits="userSpaceOnUse" />
    <linearGradient
       id="linearGradient4081-0">
      <stop
         id="stop4083-7"
         style="stop-color:#aaaaaa;stop-opacity:1"
         offset="0" />
      <stop
         id="stop4085-7"
         style="stop-color:#f0f0f0;stop-opacity:1"
         offset="1" />
    </linearGradient>
    <linearGradient
       x1="48"
       y1="74"
       x2="48"
       y2="21.913534"
       id="linearGradient3762"
       xlink:href="#linearGradient4081-1"
       gradientUnits="userSpaceOnUse" />
    <linearGradient
       id="linearGradient4081-1">
      <stop
         id="stop4083-2"
         style="stop-color:#aaaaaa;stop-opacity:1"
         offset="0" />
      <stop
         id="stop4085-4"
         style="stop-color:#f0f0f0;stop-opacity:1"
         offset="1" />
    </linearGradient>
    <linearGradient
       x1="18.44883"
       y1="17.478098"
       x2="18.44883"
       y2="0.92195439"
       id="linearGradient2869"
       xlink:href="#linearGradient4081-8"
       gradientUnits="userSpaceOnUse"
       gradientTransform="matrix(2.4659278,0,0,2.8992258,10.506518,21.327046)" />
    <linearGradient
       id="linearGradient4081-8">
      <stop
         id="stop4083-3"
         style="stop-color:#aaaaaa;stop-opacity:1"
         offset="0" />
      <stop
         id="stop4085-6"
         style="stop-color:#f0f0f0;stop-opacity:1"
         offset="1" />
    </linearGradient>
    <linearGradient
       x1="18.44883"
       y1="17.478098"
       x2="18.44883"
       y2="0.92195439"
       id="linearGradient3181"
       xlink:href="#linearGradient4081-4"
       gradientUnits="userSpaceOnUse"
       gradientTransform="matrix(2.4659278,0,0,2.8992258,10.506518,21.327046)" />
    <linearGradient
       id="linearGradient4081-4">
      <stop
         id="stop4083-61"
         style="stop-color:#aaaaaa;stop-opacity:1"
         offset="0" />
      <stop
         id="stop4085-3"
         style="stop-color:#f0f0f0;stop-opacity:1"
         offset="1" />
    </linearGradient>
    <linearGradient
       x1="49"
       y1="70"
       x2="49"
       y2="23.729059"
       id="linearGradient3818"
       xlink:href="#linearGradient4081-6"
       gradientUnits="userSpaceOnUse" />
    <linearGradient
       id="linearGradient4081-6">
      <stop
         id="stop4083-24"
         style="stop-color:#aaaaaa;stop-opacity:1"
         offset="0" />
      <stop
         id="stop4085-38"
         style="stop-color:#f0f0f0;stop-opacity:1"
         offset="1" />
    </linearGradient>
    <linearGradient
       x1="45"
       y1="20"
       x2="45"
       y2="68"
       id="linearGradient3131"
       xlink:href="#linearGradient3637-31"
       gradientUnits="userSpaceOnUse"
       gradientTransform="translate(-4,2)" />
    <linearGradient
       id="linearGradient3637-31">
      <stop
         id="stop3639-33"
         style="stop-color:#f0f0f0;stop-opacity:1"
         offset="0" />
      <stop
         id="stop3641-06"
         style="stop-color:#aaaaaa;stop-opacity:1"
         offset="1" />
    </linearGradient>
    <linearGradient
       x1="19.530235"
       y1="20.237455"
       x2="19.530235"
       y2="1.8417403"
       id="linearGradient2862"
       xlink:href="#linearGradient4081-18"
       gradientUnits="userSpaceOnUse"
       gradientTransform="matrix(2.219335,0,0,2.6093033,4.655865,19.194341)" />
    <linearGradient
       id="linearGradient4081-18">
      <stop
         id="stop4083-66"
         style="stop-color:#aaaaaa;stop-opacity:1"
         offset="0" />
      <stop
         id="stop4085-41"
         style="stop-color:#f0f0f0;stop-opacity:1"
         offset="1" />
    </linearGradient>
    <linearGradient
       x1="38"
       y1="24"
       x2="38"
       y2="72"
       id="linearGradient4002"
       xlink:href="#linearGradient3637-1"
       gradientUnits="userSpaceOnUse" />
    <linearGradient
       id="linearGradient3637-1">
      <stop
         id="stop3639-49"
         style="stop-color:#f0f0f0;stop-opacity:1"
         offset="0" />
      <stop
         id="stop3641-87"
         style="stop-color:#aaaaaa;stop-opacity:1"
         offset="1" />
    </linearGradient>
    <linearGradient
       x1="45"
       y1="24"
       x2="45"
       y2="76"
       id="linearGradient3100"
       xlink:href="#linearGradient3637-32"
       gradientUnits="userSpaceOnUse"
       gradientTransform="translate(8,2)" />
    <linearGradient
       id="linearGradient3637-32">
      <stop
         id="stop3639-7"
         style="stop-color:#f0f0f0;stop-opacity:1"
         offset="0" />
      <stop
         id="stop3641-88"
         style="stop-color:#aaaaaa;stop-opacity:1"
         offset="1" />
    </linearGradient>
    <linearGradient
       x1="45"
       y1="24"
       x2="45"
       y2="76"
       id="linearGradient3895"
       xlink:href="#linearGradient3637-4"
       gradientUnits="userSpaceOnUse"
       gradientTransform="translate(4,-2)" />
    <linearGradient
       id="linearGradient3637-4">
      <stop
         id="stop3639-40"
         style="stop-color:#f0f0f0;stop-opacity:1"
         offset="0" />
      <stop
         id="stop3641-7"
         style="stop-color:#aaaaaa;stop-opacity:1"
         offset="1" />
    </linearGradient>
    <linearGradient
       x1="46.069901"
       y1="0.92127591"
       x2="46.069901"
       y2="17.478098"
       id="linearGradient3916"
       xlink:href="#linearGradient3637-34"
       gradientUnits="userSpaceOnUse"
       gradientTransform="matrix(-2.669076,0,0,3.1691493,171.99415,18.59292)" />
    <linearGradient
       id="linearGradient3637-34">
      <stop
         id="stop3639-48"
         style="stop-color:#f0f0f0;stop-opacity:1"
         offset="0" />
      <stop
         id="stop3641-2"
         style="stop-color:#aaaaaa;stop-opacity:1"
         offset="1" />
    </linearGradient>
    <linearGradient
       x1="10.710332"
       y1="1.9963325"
       x2="10.710332"
       y2="18.974037"
       id="linearGradient3018-7"
       xlink:href="#linearGradient3637-9"
       gradientUnits="userSpaceOnUse"
       gradientTransform="matrix(2.819164,0,0,2.819164,15.399593,18.515788)" />
    <linearGradient
       id="linearGradient3637-9">
      <stop
         id="stop3639-52"
         style="stop-color:#f0f0f0;stop-opacity:1"
         offset="0" />
      <stop
         id="stop3641-01"
         style="stop-color:#aaaaaa;stop-opacity:1"
         offset="1" />
    </linearGradient>
    <linearGradient
       x1="10.710332"
       y1="1.9963325"
       x2="10.710332"
       y2="18.974037"
       id="linearGradient3018-5"
       xlink:href="#linearGradient3637-89"
       gradientUnits="userSpaceOnUse"
       gradientTransform="matrix(2.819164,0,0,2.819164,15.399593,18.515788)" />
    <linearGradient
       id="linearGradient3637-89">
      <stop
         id="stop3639-2"
         style="stop-color:#f0f0f0;stop-opacity:1"
         offset="0" />
      <stop
         id="stop3641-5"
         style="stop-color:#aaaaaa;stop-opacity:1"
         offset="1" />
    </linearGradient>
  </defs>
  <sodipodi:namedview
     id="base"
     pagecolor="#ffffff"
     bordercolor="#666666"
     borderopacity="1.0"
     inkscape:pageopacity="0.0"
     inkscape:pageshadow="2"
     inkscape:zoom="3.959798"
     inkscape:cx="81.938797"
     inkscape:cy="63.817216"
     inkscape:document-units="px"
     inkscape:current-layer="layer1"
     showgrid="false"
     inkscape:window-width="1280"
     inkscape:window-height="750"
     inkscape:window-x="0"
     inkscape:window-y="22"
     inkscape:window-maximized="1"
     showguides="true"
     inkscape:guide-bbox="true">
    <sodipodi:guide
       orientation="0,1"
       position="-24.748737,0"
       id="guide11064" />
    <sodipodi:guide
       orientation="0,1"
       position="-23.233509,96"
       id="guide11066" />
    <sodipodi:guide
       orientation="1,0"
       position="0,54.800776"
       id="guide11068" />
    <sodipodi:guide
       orientation="1,0"
       position="96,51.012704"
       id="guide11070" />
    <sodipodi:guide
       orientation="0,1"
       position="-18.94036,48"
       id="guide11072" />
    <sodipodi:guide
       orientation="1,0"
       position="48,79.296975"
       id="guide11074" />
    <sodipodi:guide
       orientation="1,0"
       position="2,75.508903"
       id="guide11076" />
    <sodipodi:guide
       orientation="0,1"
       position="-77.27667,2"
       id="guide11078" />
    <sodipodi:guide
       orientation="1,0"
       position="94,77.781746"
       id="guide11080" />
    <sodipodi:guide
       orientation="0,1"
       position="-65.912454,94"
       id="guide11082" />
  </sodipodi:namedview>
  <metadata
     id="metadata11042">
    <rdf:RDF>
      <cc:Work
         rdf:about="">
        <dc:format>image/svg+xml</dc:format>
        <dc:type
           rdf:resource="http://purl.org/dc/dcmitype/StillImage" />
        <dc:title></dc:title>
      </cc:Work>
    </rdf:RDF>
  </metadata>
  <g
     inkscape:label="Layer 1"
     inkscape:groupmode="layer"
     id="layer1"
     transform="translate(0,-956.36218)">
    <rect
       x="2"
       y="958.36218"
       width="92"
       height="92"
       style="fill:#000000;fill-opacity:1;opacity:0.6"
       id="rect3867"
       rx="25"
       ry="25" />
    <g
       transform="translate(0,956.36218)"
       style="display:inline"
       id="g3070">
      <path
         style="opacity:0.3;fill:#000000;fill-opacity:1;stroke:none;display:inline"
         id="path3921"
         inkscape:connector-curvature="0"
         d="m 40.9375,25 c -4.337728,0 -8.661532,1.6424 -11.96875,4.9375 -6.614435,6.590199 -6.614434,17.2848 0,23.875 5.766309,5.745185 14.64906,6.521844 21.21875,2.25 1.116703,0.05582 2.922607,0.214234 3.5625,0.9375 0.871276,0.984794 -0.358454,3.280341 1.3125,4.78125 l 10.375,10.53125 c 0,0 1.934922,2.054077 4.9375,-0.9375 3.00258,-2.991577 0.9375,-4.90625 0.9375,-4.90625 L 60.90625,55.9375 C 59.399818,54.272668 57.082164,55.49308 56.09375,54.625 55.367821,53.987453 55.243513,52.206365 55.1875,51.09375 59.475054,44.548134 58.703812,35.682678 52.9375,29.9375 49.630282,26.6424 45.275228,25 40.9375,25 z M 41,30.625 c 6.236149,0 11.3125,5.036699 11.3125,11.25 0,6.213304 -5.076348,11.25 -11.3125,11.25 -6.236145,3e-6 -11.28125,-5.036696 -11.28125,-11.25 0,-3.106651 1.267675,-5.962669 3.3125,-8 2.044825,-2.037333 4.850676,-3.25 7.96875,-3.25 z M 27,67 c -1.656854,0 -3,1.343146 -3,3 0,1.656854 1.343146,3 3,3 1.656854,0 3,-1.343146 3,-3 0,-1.656854 -1.343146,-3 -3,-3 z m 10,0 c -1.656854,0 -3,1.343146 -3,3 0,1.656854 1.343146,3 3,3 1.656854,0 3,-1.343146 3,-3 0,-1.656854 -1.343146,-3 -3,-3 z m 10,0 c -1.656854,0 -3,1.343146 -3,3 0,1.656854 1.343146,3 3,3 1.656854,0 3,-1.343146 3,-3 0,-1.656854 -1.343146,-3 -3,-3 z" />
      <path
         style="fill:url(#linearGradient3018-5);fill-opacity:1;stroke:none;display:inline"
         id="Symbol"
         inkscape:connector-curvature="0"
         d="m 40.9375,24 c -4.337728,0 -8.661532,1.6424 -11.96875,4.9375 -6.614435,6.590199 -6.614434,17.2848 0,23.875 5.766309,5.745185 14.64906,6.521844 21.21875,2.25 1.116703,0.05582 2.922607,0.214234 3.5625,0.9375 0.871276,0.984794 -0.358454,3.280341 1.3125,4.78125 l 10.375,10.53125 c 0,0 1.934922,2.054077 4.9375,-0.9375 3.00258,-2.991577 0.9375,-4.90625 0.9375,-4.90625 L 60.90625,54.9375 C 59.399818,53.272668 57.082164,54.49308 56.09375,53.625 55.367821,52.987453 55.243513,51.206365 55.1875,50.09375 59.475054,43.548134 58.703812,34.682678 52.9375,28.9375 49.630282,25.6424 45.275228,24 40.9375,24 z M 41,29.625 c 6.236149,0 11.3125,5.036699 11.3125,11.25 0,6.213304 -5.076348,11.25 -11.3125,11.25 -6.236145,3e-6 -11.28125,-5.036696 -11.28125,-11.25 0,-3.106651 1.267675,-5.962669 3.3125,-8 2.044825,-2.037333 4.850676,-3.25 7.96875,-3.25 z M 27,66 c -1.656854,0 -3,1.343146 -3,3 0,1.656854 1.343146,3 3,3 1.656854,0 3,-1.343146 3,-3 0,-1.656854 -1.343146,-3 -3,-3 z m 10,0 c -1.656854,0 -3,1.343146 -3,3 0,1.656854 1.343146,3 3,3 1.656854,0 3,-1.343146 3,-3 0,-1.656854 -1.343146,-3 -3,-3 z m 10,0 c -1.656854,0 -3,1.343146 -3,3 0,1.656854 1.343146,3 3,3 1.656854,0 3,-1.343146 3,-3 0,-1.656854 -1.343146,-3 -3,-3 z" />
      <path
         style="opacity:0.75;fill:#ffffff;fill-opacity:1;stroke:none;display:inline"
         id="path3903"
         inkscape:connector-curvature="0"
         d="m 40.9375,24 c -4.337728,0 -8.661532,1.6424 -11.96875,4.9375 -3.434453,3.421869 -5.069631,7.951631 -4.9375,12.4375 0.122341,-4.153494 1.757518,-8.26917 4.9375,-11.4375 C 32.275968,26.6424 36.599772,25 40.9375,25 c 4.337728,0 8.692782,1.6424 12,4.9375 3.155628,3.144062 4.815465,7.222337 4.96875,11.34375 C 58.004869,36.82428 56.349152,32.336648 52.9375,28.9375 49.630282,25.6424 45.275228,24 40.9375,24 z M 29.75,41.375 c -0.0073,0.166448 -0.03125,0.331996 -0.03125,0.5 0,6.213304 5.045105,11.250003 11.28125,11.25 6.236152,0 11.3125,-5.036696 11.3125,-11.25 0,-0.168003 -0.0239,-0.333793 -0.03125,-0.5 -0.264313,5.980646 -5.213719,10.75 -11.28125,10.75 -6.067524,3e-6 -10.987286,-4.769354 -11.25,-10.75 z m 25.5,9.65625 c -0.01563,0.02413 -0.04674,0.03843 -0.0625,0.0625 0.05601,1.112615 0.180321,2.893703 0.90625,3.53125 0.988414,0.86808 3.306068,-0.352332 4.8125,1.3125 L 71.3125,66.46875 c 0,0 0.508047,0.479482 0.65625,1.3125 0.283099,-1.458991 -0.65625,-2.3125 -0.65625,-2.3125 L 60.90625,54.9375 C 59.399818,53.272668 57.082164,54.49308 56.09375,53.625 55.549303,53.14684 55.34262,52.03145 55.25,51.03125 z M 27,66 c -1.656854,0 -3,1.343146 -3,3 0,0.174764 0.03382,0.333425 0.0625,0.5 C 24.305716,68.087354 25.51791,67 27,67 c 1.48209,0 2.694284,1.087354 2.9375,2.5 C 29.966179,69.333425 30,69.174764 30,69 30,67.343146 28.656854,66 27,66 z m 10,0 c -1.656854,0 -3,1.343146 -3,3 0,0.174764 0.03382,0.333425 0.0625,0.5 C 34.305716,68.087354 35.51791,67 37,67 c 1.48209,0 2.694284,1.087354 2.9375,2.5 C 39.966179,69.333425 40,69.174764 40,69 40,67.343146 38.656854,66 37,66 z m 10,0 c -1.656854,0 -3,1.343146 -3,3 0,0.174764 0.03382,0.333425 0.0625,0.5 C 44.305716,68.087354 45.51791,67 47,67 c 1.48209,0 2.694284,1.087354 2.9375,2.5 C 49.966179,69.333425 50,69.174764 50,69 50,67.343146 48.656854,66 47,66 z" />
      <path
         style="opacity:0.15;fill:#000000;fill-opacity:1;stroke:none;display:inline"
         id="path3912"
         inkscape:connector-curvature="0"
         d="m 41,28.625 c -3.118074,0 -5.923925,1.212667 -7.96875,3.25 -2.044825,2.037331 -3.3125,4.893349 -3.3125,8 0,0.168004 0.02395,0.333793 0.03125,0.5 0.128337,-2.911434 1.347006,-5.572845 3.28125,-7.5 2.044825,-2.037333 4.850676,-3.25 7.96875,-3.25 6.067528,0 11.016937,4.769357 11.28125,10.75 0.0073,-0.166207 0.03125,-0.331996 0.03125,-0.5 0,-6.213301 -5.076351,-11.25 -11.3125,-11.25 z m 16.90625,11.65625 c -0.06806,3.07612 -0.967937,6.139613 -2.71875,8.8125 0.01354,0.268923 0.03345,0.584808 0.0625,0.90625 1.898624,-2.941899 2.781713,-6.345401 2.65625,-9.71875 z m -33.875,0.09375 c -0.132131,4.485869 1.503047,9.01563 4.9375,12.4375 5.766309,5.745185 14.64906,6.521844 21.21875,2.25 1.116703,0.05582 2.922607,0.214234 3.5625,0.9375 0.217819,0.246198 0.310405,0.560354 0.34375,0.9375 C 54.09685,56.155341 54.14207,55.443157 53.75,55 53.110107,54.276734 51.304203,54.11832 50.1875,54.0625 43.61781,58.334344 34.735059,57.557685 28.96875,51.8125 25.788769,48.64417 24.153591,44.528494 24.03125,40.375 z m 30.0625,16.8125 c 0.04258,1.107232 -0.200918,2.543114 0.96875,3.59375 l 10.375,10.53125 c 0,0 1.934922,2.054077 4.9375,-0.9375 1.50129,-1.495789 1.734697,-2.709885 1.59375,-3.5625 -0.147068,0.719058 -0.610969,1.583321 -1.59375,2.5625 -3.002578,2.991577 -4.9375,0.9375 -4.9375,0.9375 L 55.0625,59.78125 C 54.227023,59.030795 54.104096,58.0721 54.09375,57.1875 z M 24.0625,68.5 C 24.033821,68.666575 24,68.825236 24,69 c 0,1.656854 1.343146,3 3,3 1.656854,0 3,-1.343146 3,-3 0,-0.174764 -0.03382,-0.333425 -0.0625,-0.5 C 29.694284,69.912646 28.48209,71 27,71 25.51791,71 24.305716,69.912646 24.0625,68.5 z m 10,0 C 34.033821,68.666575 34,68.825236 34,69 c 0,1.656854 1.343146,3 3,3 1.656854,0 3,-1.343146 3,-3 0,-0.174764 -0.03382,-0.333425 -0.0625,-0.5 C 39.694284,69.912646 38.48209,71 37,71 35.51791,71 34.305716,69.912646 34.0625,68.5 z m 10,0 C 44.033821,68.666575 44,68.825236 44,69 c 0,1.656854 1.343146,3 3,3 1.656854,0 3,-1.343146 3,-3 0,-0.174764 -0.03382,-0.333425 -0.0625,-0.5 C 49.694284,69.912646 48.48209,71 47,71 45.51791,71 44.305716,69.912646 44.0625,68.5 z" />
    </g>
    <rect
       ry="25"
       rx="25"
       id="rect3003"
       style="opacity:0.15;fill:#ffffff;fill-opacity:1"
       height="92"
       width="92"
       y="958.36218"
       x="-96"
       clip-path="url(#clipPath3009)"
       transform="translate(98,-2.6171874e-6)" />
  </g>
</svg>
