<?xml version="1.0" encoding="UTF-8" standalone="no"?>
<!-- Created with Inkscape (http://www.inkscape.org/) -->

<svg
   xmlns:dc="http://purl.org/dc/elements/1.1/"
   xmlns:cc="http://creativecommons.org/ns#"
   xmlns:rdf="http://www.w3.org/1999/02/22-rdf-syntax-ns#"
   xmlns:svg="http://www.w3.org/2000/svg"
   xmlns="http://www.w3.org/2000/svg"
   xmlns:xlink="http://www.w3.org/1999/xlink"
   xmlns:sodipodi="http://sodipodi.sourceforge.net/DTD/sodipodi-0.dtd"
   xmlns:inkscape="http://www.inkscape.org/namespaces/inkscape"
   width="96"
   height="96"
   id="svg11037"
   version="1.1"
   inkscape:version="0.48.3.1 r9886"
   sodipodi:docname="templat.svg">
  <defs
     id="defs11039">
    <linearGradient
       y2="1046.1001"
       x2="47.999954"
       y1="962.62189"
       x1="47.999954"
       gradientTransform="matrix(1.15,0,0,1.15,-7.1999462,-150.65291)"
       gradientUnits="userSpaceOnUse"
       id="linearGradient3886"
       xlink:href="#linearGradient3795"
       inkscape:collect="always" />
    <linearGradient
       id="linearGradient3795">
      <stop
         style="stop-color:#13a6fd;stop-opacity:1;"
         offset="0"
         id="stop3797" />
      <stop
         style="stop-color:#2975b6;stop-opacity:1;"
         offset="1"
         id="stop3799" />
    </linearGradient>
    <linearGradient
       y2="1046.1001"
       x2="47.999954"
       y1="962.62189"
       x1="47.999954"
       gradientTransform="matrix(1.15,0,0,1.15,-7.1999462,-150.65292)"
       gradientUnits="userSpaceOnUse"
       id="linearGradient11642"
       xlink:href="#linearGradient3795"
       inkscape:collect="always" />
    <clipPath
       clipPathUnits="userSpaceOnUse"
       id="clipPath3009">
      <path
         id="path3011"
         d="m -2,956.36218 -96,0 0,33.5624 96,25.68742 0,-59.24982 z"
         style="opacity:0.15;fill:#ffffff;fill-opacity:1;stroke:none"
         inkscape:connector-curvature="0" />
    </clipPath>
    <linearGradient
       x1="48"
       y1="90"
       x2="48"
       y2="5.9877172"
       id="linearGradient2982"
       xlink:href="#ButtonColor-6"
       gradientUnits="userSpaceOnUse" />
    <linearGradient
       x1="58.650177"
       y1="122"
       x2="58.650177"
       y2="5.4252338"
       id="ButtonColor-6"
       gradientUnits="userSpaceOnUse">
      <stop
         id="stop3189-4"
         style="stop-color:#dcdcdc;stop-opacity:1"
         offset="0" />
      <stop
         id="stop3191-0"
         style="stop-color:#f5f5f5;stop-opacity:1"
         offset="1" />
    </linearGradient>
    <radialGradient
       cx="47.967342"
       cy="89.688721"
       r="42"
       fx="47.967342"
       fy="89.688721"
       id="radialGradient2986"
       xlink:href="#linearGradient3737-1"
       gradientUnits="userSpaceOnUse"
       gradientTransform="matrix(1.3341109,0,0,0.95758929,-16.026413,2.1112584)" />
    <linearGradient
       id="linearGradient3737-1">
      <stop
         id="stop3739-1"
         style="stop-color:#ffffff;stop-opacity:1"
         offset="0" />
      <stop
         id="stop3741-0"
         style="stop-color:#ffffff;stop-opacity:0"
         offset="1" />
    </linearGradient>
    <linearGradient
       x1="47.726624"
       y1="78.923363"
       x2="47.726624"
       y2="16.640985"
       id="linearGradient4073"
       xlink:href="#linearGradient3821"
       gradientUnits="userSpaceOnUse" />
    <linearGradient
       id="linearGradient3821">
      <stop
         id="stop3823"
         style="stop-color:#4d81cf;stop-opacity:1"
         offset="0" />
      <stop
         id="stop3825"
         style="stop-color:#9cb8e4;stop-opacity:1"
         offset="1" />
    </linearGradient>
    <clipPath
       id="clipPath4146">
      <rect
         width="63.999855"
         height="63.999855"
         x="16.00013"
         y="26.000145"
         id="rect4148"
         style="fill:#ff00ff;fill-opacity:1;fill-rule:nonzero;stroke:none;display:inline" />
    </clipPath>
    <linearGradient
       x1="39.819206"
       y1="13.055696"
       x2="44.586384"
       y2="29.471077"
       id="linearGradient3982"
       xlink:href="#linearGradient3814-9"
       gradientUnits="userSpaceOnUse"
       gradientTransform="matrix(-0.96032399,0.27888679,0.27888679,0.96032399,111.43916,15.295347)" />
    <linearGradient
       id="linearGradient3814-9">
      <stop
         id="stop3816-9"
         style="stop-color:#ffffff;stop-opacity:1"
         offset="0" />
      <stop
         id="stop3818-8"
         style="stop-color:#ffffff;stop-opacity:0"
         offset="1" />
    </linearGradient>
    <linearGradient
       x1="35.83757"
       y1="56.923836"
       x2="35.83757"
       y2="89.995026"
       id="linearGradient3980"
       xlink:href="#linearGradient3814-9"
       gradientUnits="userSpaceOnUse"
       gradientTransform="translate(-10,-3)" />
    <linearGradient
       id="linearGradient3127">
      <stop
         id="stop3129"
         style="stop-color:#ffffff;stop-opacity:1"
         offset="0" />
      <stop
         id="stop3131"
         style="stop-color:#ffffff;stop-opacity:0"
         offset="1" />
    </linearGradient>
    <linearGradient
       x1="45.966625"
       y1="28.94561"
       x2="45.966625"
       y2="48.086025"
       id="linearGradient3929"
       xlink:href="#linearGradient3814-9"
       gradientUnits="userSpaceOnUse"
       gradientTransform="translate(44.277498,16.233172)" />
    <linearGradient
       id="linearGradient3134">
      <stop
         id="stop3136"
         style="stop-color:#ffffff;stop-opacity:1"
         offset="0" />
      <stop
         id="stop3138"
         style="stop-color:#ffffff;stop-opacity:0"
         offset="1" />
    </linearGradient>
    <linearGradient
       x1="76.75824"
       y1="27.409969"
       x2="76.75824"
       y2="56.865051"
       id="linearGradient3926"
       xlink:href="#linearGradient3814-9"
       gradientUnits="userSpaceOnUse"
       gradientTransform="matrix(-1,0,0,1,80.94186,38.325122)" />
    <linearGradient
       id="linearGradient3141">
      <stop
         id="stop3143"
         style="stop-color:#ffffff;stop-opacity:1"
         offset="0" />
      <stop
         id="stop3145"
         style="stop-color:#ffffff;stop-opacity:0"
         offset="1" />
    </linearGradient>
    <linearGradient
       x1="75.917961"
       y1="63.13913"
       x2="75.917961"
       y2="76.550301"
       id="linearGradient3235"
       xlink:href="#linearGradient3862-9"
       gradientUnits="userSpaceOnUse"
       gradientTransform="matrix(-1,0,0,1,85.59375,12.000001)" />
    <linearGradient
       id="linearGradient3862-9">
      <stop
         id="stop3864-9"
         style="stop-color:#ffffff;stop-opacity:1"
         offset="0" />
      <stop
         id="stop3866-2"
         style="stop-color:#ffffff;stop-opacity:0"
         offset="1" />
    </linearGradient>
    <linearGradient
       x1="49.190796"
       y1="68.262077"
       x2="49.190796"
       y2="27.219465"
       id="linearGradient4184"
       xlink:href="#ButtonColor-6"
       gradientUnits="userSpaceOnUse" />
    <linearGradient
       x1="58.650177"
       y1="122"
       x2="58.650177"
       y2="5.4252338"
       id="linearGradient3152"
       gradientUnits="userSpaceOnUse">
      <stop
         id="stop3154"
         style="stop-color:#dcdcdc;stop-opacity:1"
         offset="0" />
      <stop
         id="stop3156"
         style="stop-color:#f5f5f5;stop-opacity:1"
         offset="1" />
    </linearGradient>
    <linearGradient
       x1="49.190796"
       y1="68.262077"
       x2="49.190796"
       y2="27.219465"
       id="linearGradient3158"
       xlink:href="#ButtonColor-6"
       gradientUnits="userSpaceOnUse" />
    <linearGradient
       x1="58.650177"
       y1="122"
       x2="58.650177"
       y2="5.4252338"
       id="linearGradient3160"
       gradientUnits="userSpaceOnUse">
      <stop
         id="stop3162"
         style="stop-color:#dcdcdc;stop-opacity:1"
         offset="0" />
      <stop
         id="stop3164"
         style="stop-color:#f5f5f5;stop-opacity:1"
         offset="1" />
    </linearGradient>
    <clipPath
       clipPathUnits="userSpaceOnUse"
       id="clipPath3124">
      <rect
         x="6"
         y="6.0000038"
         width="84"
         height="84"
         style="fill:url(#linearGradient3128);fill-opacity:1"
         id="rect3126"
         rx="22.826086"
         ry="22.826086" />
    </clipPath>
    <linearGradient
       inkscape:collect="always"
       xlink:href="#linearGradient3795"
       id="linearGradient3128"
       gradientUnits="userSpaceOnUse"
       gradientTransform="matrix(1.05,0,0,1.05,-2.3999508,-1006.579)"
       x1="47.999954"
       y1="962.62189"
       x2="47.999954"
       y2="1046.1001" />
  </defs>
  <sodipodi:namedview
     id="base"
     pagecolor="#ffffff"
     bordercolor="#666666"
     borderopacity="1.0"
     inkscape:pageopacity="0.0"
     inkscape:pageshadow="2"
     inkscape:zoom="3.959798"
     inkscape:cx="33.538031"
     inkscape:cy="59.964634"
     inkscape:document-units="px"
     inkscape:current-layer="layer1"
     showgrid="false"
     inkscape:window-width="1280"
     inkscape:window-height="750"
     inkscape:window-x="0"
     inkscape:window-y="22"
     inkscape:window-maximized="1"
     showguides="true"
     inkscape:guide-bbox="true">
    <sodipodi:guide
       orientation="0,1"
       position="-24.748737,0"
       id="guide11064" />
    <sodipodi:guide
       orientation="0,1"
       position="-23.233509,96"
       id="guide11066" />
    <sodipodi:guide
       orientation="1,0"
       position="0,54.800776"
       id="guide11068" />
    <sodipodi:guide
       orientation="1,0"
       position="96,51.012704"
       id="guide11070" />
    <sodipodi:guide
       orientation="0,1"
       position="-18.94036,48"
       id="guide11072" />
    <sodipodi:guide
       orientation="1,0"
       position="48,79.296975"
       id="guide11074" />
    <sodipodi:guide
       orientation="1,0"
       position="2,75.508903"
       id="guide11076" />
    <sodipodi:guide
       orientation="0,1"
       position="-77.27667,2"
       id="guide11078" />
    <sodipodi:guide
       orientation="1,0"
       position="94,77.781746"
       id="guide11080" />
    <sodipodi:guide
       orientation="0,1"
       position="-65.912454,94"
       id="guide11082" />
  </sodipodi:namedview>
  <metadata
     id="metadata11042">
    <rdf:RDF>
      <cc:Work
         rdf:about="">
        <dc:format>image/svg+xml</dc:format>
        <dc:type
           rdf:resource="http://purl.org/dc/dcmitype/StillImage" />
        <dc:title></dc:title>
      </cc:Work>
    </rdf:RDF>
  </metadata>
  <g
     inkscape:label="Layer 1"
     inkscape:groupmode="layer"
     id="layer1"
     transform="translate(0,-956.36218)">
    <g
       transform="matrix(1.0952381,0,0,1.0952381,-4.5714286,951.79075)"
       style="display:inline"
       id="g3080"
       clip-path="url(#clipPath3124)">
      <g
         id="layer1-4">
        <path
           style="fill:url(#linearGradient2982);fill-opacity:1;fill-rule:nonzero;stroke:none"
           id="rect2419"
           inkscape:connector-curvature="0"
           d="M 12,6 C 8.8423036,6 6.2807978,8.4087223 6.03125,11.5 8.5006537,11.517094 10.5,13.526594 10.5,16 c 0,2.484001 -2.016,4.5 -4.5,4.5 l 0,7 c 2.484,0 4.5,2.016 4.5,4.5 0,2.484001 -2.016,4.5 -4.5,4.5 l 0,7 c 2.484,0 4.5,2.016 4.5,4.5 0,2.484001 -2.016,4.5 -4.5,4.5 l 0,7 c 2.484,0 4.5,2.016 4.5,4.5 0,2.484001 -2.016,4.5 -4.5,4.5 l 0,7 c 2.484,-4e-6 4.5,2.016 4.5,4.5 0,2.473403 -1.9993463,4.482906 -4.46875,4.5 C 6.2807978,87.591278 8.8423036,90 12,90 c 0,-2.484 2.016,-4.5 4.5,-4.5 2.484001,0 4.5,2.016 4.5,4.5 l 7,0 c 0,-2.484 2.016,-4.5 4.5,-4.5 2.484001,0 4.5,2.016 4.5,4.5 l 7,0 c 0,-2.484 2.016,-4.5 4.5,-4.5 2.484001,0 4.5,2.016 4.5,4.5 l 7,0 c 0,-2.484 2.016,-4.5 4.5,-4.5 2.484001,0 4.5,2.016 4.5,4.5 l 7,0 c -4e-6,-2.484 2.016,-4.5 4.5,-4.5 2.452216,0 4.449324,1.966103 4.5,4.40625 C 87.688537,89.461133 89.746004,87.259273 89.96875,84.5 87.499346,84.482903 85.5,82.473406 85.5,80 c 0,-2.484004 2.016,-4.5 4.5,-4.5 l 0,-7 c -2.484,10e-7 -4.5,-2.016 -4.5,-4.5 0,-2.484 2.016,-4.5 4.5,-4.5 l 0,-7 c -2.484,10e-7 -4.5,-2.016 -4.5,-4.5 0,-2.484 2.016,-4.5 4.5,-4.5 l 0,-7 c -2.484,10e-7 -4.5,-2.016 -4.5,-4.5 0,-2.484 2.016,-4.5 4.5,-4.5 l 0,-7 c -2.484,1e-6 -4.5,-2.016 -4.5,-4.5 0,-2.473406 1.999346,-4.482906 4.46875,-4.5 C 89.746004,8.7407268 87.688537,6.538867 85,6.09375 84.949321,8.5338976 82.952219,10.5 80.5,10.5 78.015996,10.5 76,8.4840001 76,6 l -7,0 c 10e-7,2.4840004 -2.016,4.5 -4.5,4.5 C 62.016,10.5 60,8.4840001 60,6 l -7,0 c 10e-7,2.4840004 -2.016,4.5 -4.5,4.5 C 46.016,10.5 44,8.4840001 44,6 l -7,0 c 10e-7,2.4840004 -2.016,4.5 -4.5,4.5 C 30.016,10.5 28,8.4840001 28,6 l -7,0 c 1e-6,2.4840004 -2.016,4.5 -4.5,4.5 C 14.016,10.5 12,8.4840001 12,6 z" />
        <path
           style="opacity:0.3;fill:url(#radialGradient2986);fill-opacity:1;fill-rule:nonzero;stroke:none"
           id="path2901"
           inkscape:connector-curvature="0"
           d="M 6.53125,9.5625 C 6.2652074,10.164261 6.0868357,10.811431 6.03125,11.5 8.157335,11.51472 9.9218068,13.006965 10.375,15 10.44877,14.676904 10.5,14.345348 10.5,14 10.5,11.69755 8.7626861,9.8279996 6.53125,9.5625 z m 82.9375,0 C 87.237314,9.8279996 85.5,11.69755 85.5,14 c 0,0.345348 0.05123,0.676904 0.125,1 0.453193,-1.993035 2.217665,-3.485283 4.34375,-3.5 -0.05569,-0.689818 -0.23378,-1.336098 -0.5,-1.9375 z M 6,25.5 l 0,2 c 2.138652,0 3.9181313,1.499149 4.375,3.5 0.07377,-0.323096 0.125,-0.654652 0.125,-1 0,-2.484 -2.016,-4.5 -4.5,-4.5 z m 84,0 c -2.484,0 -4.5,2.016 -4.5,4.5 0,0.345348 0.05123,0.676904 0.125,1 0.456869,-2.000851 2.236348,-3.5 4.375,-3.5 l 0,-2 z m -84,16 0,2 c 2.138652,0 3.9181313,1.499149 4.375,3.5 0.07377,-0.323096 0.125,-0.654652 0.125,-1 0,-2.484 -2.016,-4.5 -4.5,-4.5 z m 84,0 c -2.484,0 -4.5,2.016 -4.5,4.5 0,0.345348 0.05123,0.676904 0.125,1 0.456869,-2.000851 2.236348,-3.5 4.375,-3.5 l 0,-2 z m -84,16 0,2 c 2.138652,0 3.9181313,1.499149 4.375,3.5 0.07377,-0.323096 0.125,-0.654652 0.125,-1 0,-2.484 -2.016,-4.5 -4.5,-4.5 z m 84,0 c -2.484,0 -4.5,2.016 -4.5,4.5 0,0.345348 0.05123,0.676904 0.125,1 0.456869,-2.000851 2.236348,-3.5 4.375,-3.5 l 0,-2 z m -84,16 0,2 c 2.138652,-3e-6 3.9181313,1.499148 4.375,3.5 0.07318,-0.321834 0.125,-0.656125 0.125,-1 0,-2.484 -2.016,-4.500004 -4.5,-4.5 z m 84,0 c -2.484,0 -4.5,2.015996 -4.5,4.5 0,0.343875 0.05182,0.678166 0.125,1 0.456869,-2.000853 2.236348,-3.5 4.375,-3.5 l 0,-2 z m -73.5,10 C 14.016,83.5 12,85.516 12,88 9.5456675,88 7.4595845,86.537299 6.53125,84.4375 6.3655667,84.457213 6.2019294,84.498819 6.03125,84.5 6.2807978,87.591278 8.8423036,90 12,90 c 0,-2.484 2.016,-4.5 4.5,-4.5 2.484001,0 4.5,2.016 4.5,4.5 l 7,0 c 0,-2.484 2.016,-4.5 4.5,-4.5 2.484001,0 4.5,2.016 4.5,4.5 l 7,0 c 0,-2.484 2.016,-4.5 4.5,-4.5 2.484001,0 4.5,2.016 4.5,4.5 l 7,0 c 0,-2.484 2.016,-4.5 4.5,-4.5 2.484001,0 4.5,2.016 4.5,4.5 l 7,0 c -4e-6,-2.484 2.016,-4.5 4.5,-4.5 2.452216,0 4.449324,1.966103 4.5,4.40625 2.688537,-0.445117 4.746004,-2.646977 4.96875,-5.40625 -0.170679,-0.0012 -0.334317,-0.04279 -0.5,-0.0625 C 88.670091,86.241706 87.016403,87.572412 85,87.90625 84.949324,85.466103 82.952216,83.5 80.5,83.5 78.016,83.5 75.999996,85.516 76,88 l -7,0 c 0,-2.484 -2.015999,-4.5 -4.5,-4.5 -2.484,0 -4.5,2.016 -4.5,4.5 l -7,0 c 0,-2.484 -2.015999,-4.5 -4.5,-4.5 -2.484,0 -4.5,2.016 -4.5,4.5 l -7,0 c 0,-2.484 -2.015999,-4.5 -4.5,-4.5 -2.484,0 -4.5,2.016 -4.5,4.5 l -7,0 c 0,-2.484 -2.015999,-4.5 -4.5,-4.5 z" />
      </g>
      <rect
         style="fill:url(#linearGradient4073);fill-opacity:1;fill-rule:nonzero;stroke:none;display:inline"
         id="rect2411"
         y="16.000145"
         x="16.00013"
         height="63.999855"
         width="63.999855" />
      <g
         style="opacity:0.8"
         id="g3963"
         clip-path="url(#clipPath4146)"
         transform="translate(0,-10)">
        <path
           style="color:#000000;fill:url(#linearGradient3982);fill-opacity:1;fill-rule:nonzero;stroke:none;stroke-width:1.5;marker:none;visibility:visible;display:inline;overflow:visible;enable-background:accumulate"
           id="path3870"
           inkscape:connector-curvature="0"
           d="m 63.175794,37.576905 c 1.369476,-0.397707 2.807779,0.367992 3.205487,1.737469 0.262772,0.904832 0.01648,1.836087 -0.581625,2.479326 0.586553,0.478664 1.089738,1.056139 1.505518,1.710498 0.675277,-0.471862 1.39641,-0.882052 2.192631,-1.189959 -0.06956,-0.139988 -0.145615,-0.277311 -0.190748,-0.432721 -0.408457,-1.406491 0.403578,-2.883197 1.810068,-3.291654 1.030523,-0.299273 2.089976,0.06539 2.74654,0.829435 0.716458,-1.339395 1.929589,-2.411629 3.485864,-2.899711 -0.365462,-1.258437 0.359975,-2.577663 1.618413,-2.943125 1.184938,-0.344117 2.406347,0.292537 2.852109,1.417058 0.324269,-0.235887 0.702109,-0.431687 1.109389,-0.549965 1.887657,-0.548192 3.866495,0.539963 4.414688,2.42762 0.01796,0.06184 0.0078,0.126802 0.02228,0.188776 0.561904,-0.244831 1.133537,-0.459353 1.735737,-0.634238 1.602475,-0.465372 3.198285,-0.632208 4.779415,-0.574459 0.79208,-1.35483 2.08729,-2.428468 3.71337,-2.900697 3.36817,-0.978147 6.88309,0.954696 7.86124,4.322868 0.14672,0.505224 0.22646,1.01969 0.24699,1.522786 2.14913,-0.330399 4.24991,0.963796 4.87265,3.108152 0.12227,0.421021 0.17183,0.835673 0.16855,1.252696 0.2622,0.121854 0.51679,0.249167 0.76579,0.395888 0.63234,-0.964536 1.59387,-1.731977 2.81117,-2.085493 2.62791,-0.76317 5.33539,0.66766 6.06631,3.184536 0.73092,2.516876 -0.78897,5.175372 -3.41689,5.938542 -0.39479,0.114651 -0.79196,0.161401 -1.18396,0.181128 0.12908,3.889379 -2.36252,7.519728 -6.27254,8.655233 -1.22894,0.356896 -2.47953,0.422032 -3.66904,0.251997 -1.92,2.790095 -4.74823,4.958448 -8.25444,5.976689 -4.73744,1.37579 -9.602786,0.33061 -13.287237,-2.389162 -0.585007,0.617655 -1.333104,1.103049 -2.209076,1.35744 -2.331035,0.676952 -4.754739,-0.41753 -5.805842,-2.511733 -0.02951,0.0088 -0.06039,0.01754 -0.09003,0.02614 -3.469958,1.007707 -7.019558,0.122007 -9.602656,-2.027384 -0.854661,1.601925 -2.336349,2.85875 -4.217701,3.405112 -3.396856,0.986478 -6.953971,-0.707802 -8.344283,-3.857177 -0.398342,0.22718 -0.808409,0.430016 -1.268154,0.56353 -3.146095,0.913654 -6.444159,-0.899938 -7.357814,-4.046033 -0.913654,-3.146096 0.899938,-6.44416 4.046034,-7.357814 0.328869,-0.09551 0.658222,-0.151626 0.986469,-0.188857 0.336169,-0.608133 0.871585,-1.066644 1.552717,-1.26445 0.704334,-0.204545 1.442393,-0.08217 2.065929,0.278645 -0.128873,-3.224369 1.928678,-6.254798 5.167095,-7.195264 0.70473,-0.20466 1.409116,-0.264071 2.106545,-0.253808 -0.06387,-1.172217 0.667285,-2.276416 1.843037,-2.617865 z" />
        <path
           style="color:#000000;fill:url(#linearGradient3980);fill-opacity:1;fill-rule:nonzero;stroke:none;stroke-width:1.5;marker:none;visibility:visible;display:inline;overflow:visible;enable-background:accumulate"
           id="path3739"
           inkscape:connector-curvature="0"
           d="m 20.5,50.3125 c -0.950448,0 -1.828481,0.305591 -2.53125,0.8125 -0.580044,-0.08942 -1.176174,-0.15625 -1.78125,-0.15625 -2.643739,0 -5.050411,0.91554 -7,2.40625 C 8.962304,53.33941 8.735827,53.3125 8.5,53.3125 c -2.312525,0 -4.1875,1.771853 -4.1875,3.96875 0,0.823837 0.267268,1.583883 0.71875,2.21875 -0.267997,0.977691 -0.40625,1.999741 -0.40625,3.0625 0,1.073475 0.133008,2.107256 0.40625,3.09375 C 4.411327,65.37723 3.723921,65.21875 3,65.21875 c -2.736488,0 -4.9375,2.201013 -4.9375,4.9375 0,2.736488 2.201012,4.96875 4.9375,4.96875 0.36612,0 0.719001,-0.04965 1.0625,-0.125 -6.43e-4,0.04129 0,0.08355 0,0.125 0,4.316713 3.495787,7.8125 7.8125,7.8125 2.785961,0 5.209665,-1.462067 6.59375,-3.65625 2.041092,1.840971 4.753634,2.96875 7.71875,2.96875 4.014997,0 7.532983,-2.07204 9.59375,-5.1875 1.294164,0.971148 2.882433,1.5625 4.625,1.5625 2.724975,0 5.119177,-1.435314 6.5,-3.5625 0.693167,0.556164 1.542148,0.90625 2.5,0.90625 1.309291,0 2.478909,-0.629504 3.21875,-1.59375 0.322673,0.203233 0.71549,0.34375 1.125,0.34375 1.156262,0 2.09375,-0.937488 2.09375,-2.09375 0,-1.156262 -0.937488,-2.09375 -2.09375,-2.09375 -0.180666,0 -0.364014,0.01947 -0.53125,0.0625 C 52.711419,69.137709 51.398958,68.067364 49.8125,67.90625 49.72627,66.558185 48.619837,65.5 47.25,65.5 c -0.381196,0 -0.736814,0.07047 -1.0625,0.21875 -1.418341,-1.583489 -3.488111,-2.59375 -5.78125,-2.59375 -1.024452,0 -1.979942,0.201263 -2.875,0.5625 -0.224258,-2.373424 -2.22414,-4.25 -4.65625,-4.25 -0.280177,0 -0.545883,0.04651 -0.8125,0.09375 0.03207,-0.217664 0.0625,-0.429674 0.0625,-0.65625 0,-2.505235 -2.057265,-4.53125 -4.5625,-4.53125 -0.939463,0 -1.807279,0.260895 -2.53125,0.75 -0.124657,-0.147579 -0.243234,-0.296374 -0.375,-0.4375 0.01212,-0.123274 0.03125,-0.248717 0.03125,-0.375 0,-2.196897 -1.874975,-3.96875 -4.1875,-3.96875 z" />
        <path
           style="color:#000000;fill:url(#linearGradient3929);fill-opacity:1;fill-rule:nonzero;stroke:none;stroke-width:1.5;marker:none;visibility:visible;display:inline;overflow:visible;enable-background:accumulate"
           id="path3772"
           inkscape:connector-curvature="0"
           d="m 94.09,34.889421 c -1.79508,0 -3.28711,1.334802 -3.53125,3.0625 -0.99024,0.397809 -1.89622,0.908493 -2.71875,1.5625 -0.48316,-0.508483 -1.14945,-0.84375 -1.90625,-0.84375 -1.4646,0 -2.65625,1.191651 -2.65625,2.65625 0,0.01073 -1.3e-4,0.02055 0,0.03125 -1.03573,0.06809 -2.02712,0.266793 -2.96875,0.59375 -0.550274,-0.637053 -1.373388,-1.03125 -2.281252,-1.03125 -1.636798,0 -2.967312,1.308529 -3,2.9375 -0.04347,-0.0022 -0.08097,-0.03125 -0.125,-0.03125 -1.203669,0 -2.223302,0.869855 -2.46875,2 -2.45358,0.166046 -4.562623,1.519821 -5.78125,3.5 -0.4926,-0.208352 -1.025254,-0.3125 -1.59375,-0.3125 -2.273983,0 -4.125,1.851017 -4.125,4.125 0,2.273983 1.851017,4.09375 4.125,4.09375 0.534254,0 1.0316,-0.09607 1.5,-0.28125 1.286055,2.183281 3.657764,3.625 6.375,3.625 0.877767,0 1.718823,-0.156911 2.5,-0.4375 2.085815,2.410336 5.156042,3.9375 8.593752,3.9375 3.57421,0 6.75837,-1.640646 8.84375,-4.21875 1.21505,1.383268 2.98292,2.28125 4.96875,2.28125 1.54469,0 2.96664,-0.551752 4.09375,-1.4375 1.05752,0.549176 2.2573,0.875 3.53125,0.875 1.54894,0 2.98131,-0.460945 4.1875,-1.25 0.49805,0.257126 1.05711,0.40625 1.65625,0.40625 1.74332,0 3.21295,-1.235953 3.5625,-2.875 0.23611,1.540136 1.55007,2.71875 3.15625,2.71875 1.77293,0 3.21875,-1.414564 3.21875,-3.1875 0,-1.615065 -1.19735,-2.962289 -2.75,-3.1875 0.0458,-0.258658 0.0937,-0.540686 0.0937,-0.8125 0,-2.505235 -2.02602,-4.53125 -4.53125,-4.53125 -0.84008,0 -1.63779,0.258215 -2.3125,0.65625 -0.22398,-0.319863 -0.44981,-0.655928 -0.71875,-0.9375 0.10594,-0.250475 0.15625,-0.523434 0.15625,-0.8125 0,-1.156262 -0.93749,-2.09375 -2.09375,-2.09375 -0.0932,0 -0.1913,0.01945 -0.28125,0.03125 -0.0172,-1.796731 -1.48046,-3.25 -3.28125,-3.25 -0.47744,0 -0.93457,0.09784 -1.34375,0.28125 -1.42514,-2.522984 -3.82747,-4.414808 -6.6875,-5.1875 -0.40134,-1.525904 -1.75435,-2.65625 -3.40625,-2.65625 z" />
        <path
           style="opacity:0.8;color:#000000;fill:url(#linearGradient3926);fill-opacity:1;fill-rule:nonzero;stroke:none;stroke-width:1.5;marker:none;visibility:visible;display:inline;overflow:visible;enable-background:accumulate"
           id="path3671"
           inkscape:connector-curvature="0"
           d="m 10.66061,61.762622 c 3.026368,0.307343 5.375,2.892545 5.375,5.999999 0,0.502248 -0.07128,0.971235 -0.1875,1.4375 1.355555,-0.829233 2.950813,-1.3125 4.65625,-1.3125 0.697126,0 1.380076,0.09893 2.03125,0.25 0.475056,-1.362518 1.756773,-2.34375 3.28125,-2.34375 1.927104,0 3.46875,1.572896 3.46875,3.5 0,0.923053 -0.352247,1.75095 -0.9375,2.375 0.196494,-0.02238 0.391268,0 0.59375,0 2.890656,0 5.25,2.328094 5.25,5.21875 0,2.890656 -2.359344,5.25 -5.25,5.25 -0.403981,0 -0.778551,-0.06962 -1.15625,-0.15625 -1.011736,1.427012 -2.435578,2.519337 -4.09375,3.15625 0.0042,0.11543 0.03125,0.227305 0.03125,0.34375 0,5.241723 -4.258277,9.46875 -9.5,9.46875 -1.530417,0 -2.969848,-0.356599 -4.25,-1 -2.624598,1.783448 -5.806379,2.84375 -9.21875,2.84375 -6.838671,0 -12.693371,-4.205133 -15.156251,-10.15625 -4.78516,-0.596606 -8.5,-4.646976 -8.5,-9.59375 0,-5.357349 4.33015,-9.71875 9.6875,-9.71875 1.15953,0 2.28176,0.220606 3.3125,0.59375 0.85422,-0.731187 1.78936,-1.393203 2.78125,-1.9375 -0.0827,-0.233328 -0.15625,-0.488331 -0.15625,-0.75 0,-1.233347 1.01665,-2.21875 2.25,-2.21875 0.94828,0 1.76987,0.572443 2.09375,1.40625 1.05684,-0.242785 2.15727,-0.406213 3.281251,-0.4375 0.31043,-1.285581 1.462817,-2.21875 2.84375,-2.21875 1.174447,0 2.188572,0.690101 2.65625,1.6875 1.078785,-1.054211 2.554466,-1.6875 4.1875,-1.6875 0.207164,0 0.423242,-0.02049 0.625,0 z" />
        <path
           style="opacity:0.8;color:#000000;fill:url(#linearGradient3235);fill-opacity:1;fill-rule:nonzero;stroke:none;stroke-width:1.5;marker:none;visibility:visible;display:inline;overflow:visible;enable-background:accumulate"
           id="path3713"
           inkscape:connector-curvature="0"
           d="m 7.65625,74.65625 c 3.500466,0 6.464046,2.18625 7.625,5.28125 2.922683,0.05208 5.28125,2.439881 5.28125,5.375 0,2.96774 -2.40726,5.375 -5.375,5.375 -1.175339,0 -2.240467,-0.391098 -3.125,-1.03125 -1.273613,0.821117 -2.778216,1.3125 -4.40625,1.3125 -0.412169,0 -0.822986,-0.03481 -1.21875,-0.09375 -0.460796,0.558357 -1.157023,0.9375 -1.9375,0.9375 -1.110012,0 -2.04265,-0.720393 -2.375,-1.71875 -0.573002,0.172103 -1.183445,0.28125 -1.8125,0.28125 -3.468787,0 -6.28125,-2.812463 -6.28125,-6.28125 0,-2.905109 1.97757,-5.344769 4.65625,-6.0625 -0.02473,-0.153233 -0.0625,-0.308535 -0.0625,-0.46875 0,-1.618767 1.318733,-2.90625 2.9375,-2.90625 0.866194,0 1.650919,0.371372 2.1875,0.96875 1.15693,-0.628482 2.497055,-0.96875 3.90625,-0.96875 z" />
      </g>
      <path
         style="opacity:0.6;fill:#3365a8;fill-opacity:1;fill-rule:nonzero;stroke:none;display:inline"
         id="rect4183"
         inkscape:connector-curvature="0"
         d="m 16.4375,16 c -0.03654,0.0073 -0.06024,0.01707 -0.09375,0.03125 -0.07367,0.02998 -0.134622,0.06872 -0.1875,0.125 -0.09518,0.101305 -0.159464,0.22767 -0.15625,0.375 l 0,62.90625 0,0.03125 c 0.0019,0.05425 0.01433,0.10669 0.03125,0.15625 0.01558,0.04455 0.03654,0.08657 0.0625,0.125 0.01089,0.01749 0.01848,0.04637 0.03125,0.0625 0.0088,0.01017 0.02176,0.02176 0.03125,0.03125 0.05288,0.05628 0.113827,0.09502 0.1875,0.125 0.02947,0.01199 0.06172,0.02443 0.09375,0.03125 0.03461,0.0069 0.05711,-4e-6 0.09375,0 l 16.0625,0 3.8125,0 1.65625,0 27.96875,0 13.4375,0 c 0.07531,-7e-6 0.122246,-0.0036 0.1875,-0.03125 0.195763,-0.08281 0.343729,-0.274073 0.34375,-0.5 5.91e-4,-0.0104 -10e-7,-0.02071 0,-0.03125 l 0,-62.90625 c -7e-6,-0.07531 -0.0036,-0.122246 -0.03125,-0.1875 -0.08281,-0.195763 -0.274074,-0.343727 -0.5,-0.34375 l -13.4375,0 -27.96875,0 -1.65625,0 -3.8125,0 -16.0625,0 c -0.03777,-0.004 -0.05597,-0.004 -0.09375,0 z m 0.65625,1.09375 14.6875,0 4.15625,0 1.125,0 30.75,0 11.09375,0 0,61.8125 -11.09375,0 -30.75,0 -1.125,0 -4.15625,0 -14.6875,0 0,-61.8125 z" />
      <g
         style="font-size:48.75218582px;font-style:normal;font-variant:normal;font-weight:normal;font-stretch:normal;text-align:start;line-height:125%;letter-spacing:0px;word-spacing:0px;writing-mode:lr-tb;text-anchor:start;opacity:0.3;fill:#072045;fill-opacity:1;stroke:none;font-family:Ubuntu;-inkscape-font-specification:Ubuntu"
         id="text4154"
         transform="scale(1.0005805,0.99941983)">
        <path
           style="fill:#072045;fill-opacity:1"
           id="path4159"
           inkscape:connector-curvature="0"
           d="m 58.45387,60.485207 c -1.040079,2e-6 -1.901367,-0.146255 -2.583866,-0.43877 -0.682561,-0.29251 -1.251336,-0.682527 -1.706326,-1.170053 -0.715061,0.390021 -1.576349,0.731286 -2.583866,1.023796 -1.007571,0.260014 -2.015115,0.39002 -3.022635,0.390018 -1.560093,2e-6 -2.990155,-0.243759 -4.290193,-0.731283 -1.267575,-0.487518 -2.372623,-1.20255 -3.315148,-2.145096 -0.942558,-0.975038 -1.67384,-2.16134 -2.193849,-3.55891 -0.520037,-1.397552 -0.780048,-3.022623 -0.780035,-4.875218 -1.3e-5,-1.560055 0.243748,-3.022619 0.731283,-4.387697 0.487507,-1.397543 1.202539,-2.600096 2.145096,-3.607662 0.975027,-1.040024 2.145078,-1.852559 3.510158,-2.437609 1.397541,-0.585002 2.97386,-0.877514 4.728962,-0.877539 1.657548,2.5e-5 3.168864,0.13003 4.533953,0.390017 1.397532,0.260036 2.470079,0.520047 3.217644,0.780035 l 0,14.918169 c -3.2e-5,1.040054 0.178726,1.771336 0.536274,2.193848 0.357483,0.422525 0.828754,0.633785 1.413814,0.633779 0.845002,6e-6 1.576285,-0.292507 2.193848,-0.87754 0.649992,-0.585018 1.170015,-1.348802 1.56007,-2.291352 0.422481,-0.942532 0.731244,-1.998829 0.926291,-3.168892 0.19497,-1.202541 0.292474,-2.421344 0.292513,-3.656414 -3.9e-5,-2.047574 -0.357554,-3.965158 -1.072548,-5.752758 -0.715069,-1.820058 -1.738864,-3.412628 -3.071387,-4.777714 -1.332594,-1.365034 -2.957665,-2.437581 -4.875219,-3.217645 -1.885113,-0.780004 -4.013956,-1.170021 -6.386536,-1.170052 -2.372628,3.1e-5 -4.550223,0.406299 -6.532793,1.218804 -1.982604,0.780064 -3.688929,1.917614 -5.11898,3.412653 -1.430074,1.462591 -2.551373,3.26642 -3.3639,5.411493 -0.780043,2.145115 -1.17006,4.582722 -1.170053,7.312828 -7e-6,2.860139 0.422511,5.378999 1.267557,7.556589 0.845028,2.1451 2.01508,3.948929 3.510157,5.411492 1.527555,1.430064 3.315133,2.502611 5.362741,3.217645 2.080073,0.74753 4.355173,1.121296 6.825306,1.1213 1.917559,-4e-6 3.493878,-0.113759 4.728962,-0.341265 1.267526,-0.227514 2.080062,-0.406272 2.437609,-0.536274 l 0.487522,3.607661 c -0.552556,0.195002 -1.560101,0.406262 -3.022636,0.633779 -1.430091,0.227503 -2.973909,0.341258 -4.631457,0.341265 -2.892651,-7e-6 -5.622771,-0.422526 -8.190367,-1.267557 -2.567629,-0.812542 -4.810228,-2.080097 -6.727802,-3.80267 -1.917594,-1.690077 -3.445161,-3.851422 -4.582706,-6.484041 -1.105053,-2.665113 -1.657577,-5.817751 -1.657574,-9.457924 -3e-6,-3.51014 0.552521,-6.581525 1.657574,-9.214163 1.105044,-2.632593 2.583859,-4.810188 4.436449,-6.532793 1.885074,-1.755048 4.046418,-3.071355 6.484041,-3.948927 2.470092,-0.877505 5.070206,-1.316275 7.80035,-1.316309 2.665093,3.4e-5 5.183953,0.438804 7.556589,1.316309 2.372572,0.84507 4.452664,2.096375 6.240279,3.753918 1.787541,1.625101 3.201353,3.607688 4.241441,5.947767 1.040003,2.307625 1.560026,4.923989 1.560069,7.849102 -4.3e-5,2.210112 -0.260054,4.160198 -0.780035,5.850262 -0.487563,1.690084 -1.153843,3.120147 -1.998839,4.290192 -0.845078,1.137556 -1.852622,1.998844 -3.022636,2.583866 -1.170088,0.585029 -2.405143,0.877542 -3.705166,0.87754 M 48.703433,56.53628 c 0.682506,6e-6 1.365036,-0.065 2.047592,-0.195009 0.715005,-0.162501 1.348783,-0.390011 1.901335,-0.682531 -0.09753,-0.422511 -0.162535,-0.84503 -0.195009,-1.267557 -0.03253,-0.42251 -0.04878,-0.828778 -0.04875,-1.218804 l 0,-11.456764 c -0.195036,-0.06498 -0.568802,-0.129985 -1.1213,-0.195009 -0.552551,-0.06498 -1.170078,-0.09748 -1.852583,-0.0975 -2.307626,2.1e-5 -4.030202,0.715052 -5.167732,2.145096 -1.137569,1.430082 -1.706344,3.233911 -1.706326,5.411493 -1.8e-5,2.307615 0.552506,4.143945 1.657574,5.508997 1.105029,1.365068 2.600094,2.047598 4.485201,2.047592" />
      </g>
      <text
         sodipodi:linespacing="125%"
         style="font-size:48.75218582px;font-style:normal;font-variant:normal;font-weight:normal;font-stretch:normal;text-align:start;line-height:125%;letter-spacing:0px;word-spacing:0px;writing-mode:lr-tb;text-anchor:start;fill:url(#linearGradient4184);fill-opacity:1;stroke:none;font-family:Ubuntu;-inkscape-font-specification:Ubuntu"
         xml:space="preserve"
         id="text4150"
         transform="scale(1.0005805,0.99941983)"
         y="61.580971"
         x="24.717358"><tspan
           style="fill:url(#linearGradient4184);fill-opacity:1"
           id="tspan4152"
           y="61.580971"
           x="24.717358">@</tspan></text>
      <path
         style="font-size:48.75218582px;font-style:normal;font-variant:normal;font-weight:normal;font-stretch:normal;text-align:start;line-height:125%;letter-spacing:0px;word-spacing:0px;writing-mode:lr-tb;text-anchor:start;fill:#ffffff;fill-opacity:1;stroke:none;font-family:Ubuntu;-inkscape-font-specification:Ubuntu"
         id="text4186"
         inkscape:connector-curvature="0"
         d="m 48.375,27 c -2.731728,3.5e-5 -5.309724,0.435504 -7.78125,1.3125 -2.439038,0.877063 -4.613832,2.183471 -6.5,3.9375 -1.853666,1.721605 -3.331815,3.900185 -4.4375,6.53125 C 28.550555,41.412361 27.999997,44.491896 28,48 c 0,0.169121 -0.0024,0.332985 0,0.5 0.05127,-3.296408 0.604459,-6.21591 1.65625,-8.71875 1.105685,-2.631065 2.583834,-4.809645 4.4375,-6.53125 1.886168,-1.754029 4.060962,-3.060437 6.5,-3.9375 2.471526,-0.876996 5.049522,-1.312465 7.78125,-1.3125 2.66664,3.5e-5 5.188487,0.435504 7.5625,1.3125 2.37395,0.84458 4.461346,2.093418 6.25,3.75 1.788579,1.624158 3.209309,3.598779 4.25,5.9375 0.971691,2.153547 1.46686,4.589609 1.53125,7.28125 C 67.97115,46.134751 68,45.99261 68,45.84375 67.999957,42.920335 67.478108,40.306286 66.4375,38 c -1.040691,-2.338721 -2.461421,-4.313342 -4.25,-5.9375 -1.788654,-1.656582 -3.87605,-2.90542 -6.25,-3.75 C 53.563487,27.435504 51.04164,27.000035 48.375,27 z m 0.75,9.65625 c -1.75612,2.5e-5 -3.351647,0.290338 -4.75,0.875 -1.365872,0.58471 -2.524407,1.398079 -3.5,2.4375 -0.943105,1.006981 -1.66846,2.197018 -2.15625,3.59375 -0.487818,1.364286 -0.718763,2.81585 -0.71875,4.375 -10e-7,0.126457 0.02882,0.250665 0.03125,0.375 0.05836,-1.31915 0.267476,-2.575315 0.6875,-3.75 0.48779,-1.396732 1.213145,-2.586769 2.15625,-3.59375 0.975593,-1.039421 2.134128,-1.85279 3.5,-2.4375 1.398353,-0.584662 2.99388,-0.874975 4.75,-0.875 1.65851,2.5e-5 3.165369,0.115164 4.53125,0.375 1.398344,0.259885 2.470751,0.521413 3.21875,0.78125 l 0,-1 C 56.127001,37.552663 55.054594,37.291135 53.65625,37.03125 52.290369,36.771414 50.78351,36.656275 49.125,36.65625 z M 63.78125,46 c -0.02045,1.084349 -0.109337,2.159648 -0.28125,3.21875 -0.195161,1.169385 -0.483524,2.214265 -0.90625,3.15625 -0.390281,0.942004 -0.91213,1.727821 -1.5625,2.3125 -0.617922,0.584693 -1.342007,0.875006 -2.1875,0.875 -0.585399,6e-6 -1.079809,-0.23397 -1.4375,-0.65625 -0.357756,-0.422267 -0.531282,-1.148049 -0.53125,-2.1875 l 0,1 c -3.2e-5,1.039451 0.173494,1.765233 0.53125,2.1875 0.357691,0.42228 0.852101,0.656256 1.4375,0.65625 0.845493,6e-6 1.569578,-0.290307 2.1875,-0.875 0.65037,-0.584679 1.172219,-1.370496 1.5625,-2.3125 0.422726,-0.941985 0.711089,-1.986865 0.90625,-3.15625 0.195083,-1.201843 0.312461,-2.421896 0.3125,-3.65625 -4e-6,-0.19196 -0.02495,-0.372827 -0.03125,-0.5625 z M 42.625,48.46875 c -0.0064,0.159186 -0.03125,0.305352 -0.03125,0.46875 -1.8e-5,2.306276 0.550541,4.16699 1.65625,5.53125 1.10567,1.364276 2.582549,2.031256 4.46875,2.03125 0.682902,6e-6 1.379548,-0.05756 2.0625,-0.1875 0.71542,-0.162407 1.353377,-0.39515 1.90625,-0.6875 -0.07301,-0.315926 -0.08843,-0.621566 -0.125,-0.9375 -0.524631,0.263306 -1.116122,0.47401 -1.78125,0.625 -0.682952,0.129937 -1.379598,0.187506 -2.0625,0.1875 -1.886201,6e-6 -3.36308,-0.666974 -4.46875,-2.03125 -1.018616,-1.256801 -1.544782,-2.943739 -1.625,-5 z M 32.21875,48.5 c -0.0031,0.16837 -0.03125,0.329343 -0.03125,0.5 -7e-6,2.85848 0.435714,5.386174 1.28125,7.5625 0.845519,2.143856 2.004054,3.944535 3.5,5.40625 1.528441,1.429234 3.326204,2.504131 5.375,3.21875 2.081281,0.747096 4.340933,1.124996 6.8125,1.125 1.918673,-4e-6 3.5142,-0.116375 4.75,-0.34375 1.268262,-0.227381 2.079745,-0.432573 2.4375,-0.5625 l 0.375,2.65625 c 0.03151,-0.01031 0.096,-0.02103 0.125,-0.03125 l -0.5,-3.625 c -0.357755,0.129927 -1.169238,0.335119 -2.4375,0.5625 -1.2358,0.227375 -2.831327,0.343746 -4.75,0.34375 -2.471567,-4e-6 -4.731219,-0.377904 -6.8125,-1.125 -2.048796,-0.714619 -3.846559,-1.789516 -5.375,-3.21875 -1.495946,-1.461715 -2.654481,-3.262394 -3.5,-5.40625 -0.795017,-2.046293 -1.202505,-4.413134 -1.25,-7.0625 z" />
    </g>
    <rect
       ry="25"
       rx="25"
       id="rect3003"
       style="opacity:0.15;fill:#ffffff;fill-opacity:1"
       height="92"
       width="92"
       y="958.36218"
       x="-96"
       clip-path="url(#clipPath3009)"
       transform="translate(98,0)" />
  </g>
</svg>
