<?xml version="1.0" encoding="UTF-8" standalone="no"?>
<!-- Created with Inkscape (http://www.inkscape.org/) -->

<svg
   xmlns:dc="http://purl.org/dc/elements/1.1/"
   xmlns:cc="http://creativecommons.org/ns#"
   xmlns:rdf="http://www.w3.org/1999/02/22-rdf-syntax-ns#"
   xmlns:svg="http://www.w3.org/2000/svg"
   xmlns="http://www.w3.org/2000/svg"
   xmlns:xlink="http://www.w3.org/1999/xlink"
   xmlns:sodipodi="http://sodipodi.sourceforge.net/DTD/sodipodi-0.dtd"
   xmlns:inkscape="http://www.inkscape.org/namespaces/inkscape"
   width="96"
   height="96"
   id="svg11037"
   version="1.1"
   inkscape:version="0.48.3.1 r9886"
   sodipodi:docname="mail-mark-important.svg">
  <defs
     id="defs11039">
    <linearGradient
       y2="1046.1001"
       x2="47.999954"
       y1="962.62189"
       x1="47.999954"
       gradientTransform="matrix(1.15,0,0,1.15,-7.1999462,-150.65291)"
       gradientUnits="userSpaceOnUse"
       id="linearGradient3886"
       xlink:href="#linearGradient3795"
       inkscape:collect="always" />
    <linearGradient
       id="linearGradient3795">
      <stop
         style="stop-color:#13a6fd;stop-opacity:1;"
         offset="0"
         id="stop3797" />
      <stop
         style="stop-color:#2975b6;stop-opacity:1;"
         offset="1"
         id="stop3799" />
    </linearGradient>
    <linearGradient
       y2="1046.1001"
       x2="47.999954"
       y1="962.62189"
       x1="47.999954"
       gradientTransform="matrix(1.15,0,0,1.15,-7.1999462,-150.65292)"
       gradientUnits="userSpaceOnUse"
       id="linearGradient11642"
       xlink:href="#linearGradient3795"
       inkscape:collect="always" />
    <linearGradient
       x1="48"
       y1="90"
       x2="48"
       y2="5.9877172"
       id="linearGradient3689"
       xlink:href="#linearGradient3700"
       gradientUnits="userSpaceOnUse" />
    <linearGradient
       id="linearGradient3700">
      <stop
         id="stop3702"
         style="stop-color:#dcdcdc;stop-opacity:1"
         offset="0" />
      <stop
         id="stop3704"
         style="stop-color:#f0f0f0;stop-opacity:1"
         offset="1" />
    </linearGradient>
    <linearGradient
       x1="48"
       y1="32"
       x2="48"
       y2="80"
       id="linearGradient3701"
       xlink:href="#linearGradient3641"
       gradientUnits="userSpaceOnUse"
       gradientTransform="translate(100,0)" />
    <linearGradient
       id="linearGradient3641">
      <stop
         id="stop3643"
         style="stop-color:#000000;stop-opacity:1"
         offset="0" />
      <stop
         id="stop3645"
         style="stop-color:#000000;stop-opacity:0"
         offset="1" />
    </linearGradient>
    <clipPath
       id="clipPath3696">
      <rect
         width="84"
         height="84"
         rx="6"
         ry="6"
         x="106"
         y="6"
         id="rect3698"
         style="fill:#ff00ff;fill-opacity:1;fill-rule:nonzero;stroke:none" />
    </clipPath>
    <filter
       color-interpolation-filters="sRGB"
       id="filter3665">
      <feGaussianBlur
         id="feGaussianBlur3667"
         stdDeviation="0.69" />
    </filter>
    <linearGradient
       x1="48"
       y1="88"
       x2="48"
       y2="36"
       id="linearGradient3635"
       xlink:href="#linearGradient3727"
       gradientUnits="userSpaceOnUse" />
    <linearGradient
       id="linearGradient3727">
      <stop
         id="stop3729"
         style="stop-color:#d5d5d5;stop-opacity:1"
         offset="0" />
      <stop
         id="stop3731"
         style="stop-color:#f1f1f1;stop-opacity:1"
         offset="1" />
    </linearGradient>
    <linearGradient
       x1="51"
       y1="62"
       x2="51"
       y2="21"
       id="linearGradient3707"
       xlink:href="#linearGradient3641"
       gradientUnits="userSpaceOnUse"
       gradientTransform="translate(100,-1)" />
    <linearGradient
       id="linearGradient3108">
      <stop
         id="stop3110"
         style="stop-color:#000000;stop-opacity:1"
         offset="0" />
      <stop
         id="stop3112"
         style="stop-color:#000000;stop-opacity:0"
         offset="1" />
    </linearGradient>
    <clipPath
       id="clipPath3703">
      <rect
         width="84"
         height="84"
         rx="6"
         ry="6"
         x="106"
         y="6"
         id="rect3705"
         style="fill:#ff00ff;fill-opacity:1;fill-rule:nonzero;stroke:none" />
    </clipPath>
    <filter
       color-interpolation-filters="sRGB"
       id="filter3649">
      <feGaussianBlur
         id="feGaussianBlur3651"
         stdDeviation="1.38" />
    </filter>
    <linearGradient
       x1="48"
       y1="88"
       x2="48"
       y2="32"
       id="linearGradient3627"
       xlink:href="#linearGradient3700"
       gradientUnits="userSpaceOnUse" />
    <linearGradient
       id="linearGradient3119">
      <stop
         id="stop3121"
         style="stop-color:#dcdcdc;stop-opacity:1"
         offset="0" />
      <stop
         id="stop3123"
         style="stop-color:#f0f0f0;stop-opacity:1"
         offset="1" />
    </linearGradient>
    <clipPath
       clipPathUnits="userSpaceOnUse"
       id="clipPath3076">
      <rect
         x="6"
         y="6.0000038"
         width="84"
         height="84"
         style="fill:url(#linearGradient3080);fill-opacity:1"
         id="rect3078"
         rx="22.826086"
         ry="22.826086" />
    </clipPath>
    <linearGradient
       inkscape:collect="always"
       xlink:href="#linearGradient3795"
       id="linearGradient3080"
       gradientUnits="userSpaceOnUse"
       gradientTransform="matrix(1.05,0,0,1.05,-2.3999508,-1006.579)"
       x1="47.999954"
       y1="962.62189"
       x2="47.999954"
       y2="1046.1001" />
    <clipPath
       clipPathUnits="userSpaceOnUse"
       id="clipPath3009">
      <path
         id="path3011"
         d="m -2,956.36218 -96,0 0,33.5624 96,25.68742 0,-59.24982 z"
         style="opacity:0.15;fill:#ffffff;fill-opacity:1;stroke:none"
         inkscape:connector-curvature="0" />
    </clipPath>
    <linearGradient
       x1="8.8832188"
       y1="16.071617"
       x2="8.8832188"
       y2="11.246404"
       id="linearGradient4042"
       xlink:href="#ButtonColor-5"
       gradientUnits="userSpaceOnUse"
       gradientTransform="matrix(4.3075002,0,0,5.5956066,39.283845,-5.930454)" />
    <linearGradient
       x1="10.31979"
       y1="21"
       x2="10.31979"
       y2="0.99929649"
       id="ButtonColor-5"
       gradientUnits="userSpaceOnUse">
      <stop
         id="stop3189-0"
         style="stop-color:#3875d0;stop-opacity:1"
         offset="0" />
      <stop
         id="stop3191-2"
         style="stop-color:#7cacf6;stop-opacity:1"
         offset="1" />
    </linearGradient>
    <linearGradient
       x1="8.8832188"
       y1="16.071617"
       x2="8.8832188"
       y2="11.246404"
       id="linearGradient3954"
       xlink:href="#linearGradient4066"
       gradientUnits="userSpaceOnUse"
       gradientTransform="matrix(4.3075002,0,0,-5.5956066,39.283845,140.93045)" />
    <linearGradient
       id="linearGradient4066">
      <stop
         id="stop4069"
         style="stop-color:#ffffff;stop-opacity:1"
         offset="0" />
      <stop
         id="stop4072"
         style="stop-color:#ffffff;stop-opacity:0"
         offset="1" />
    </linearGradient>
    <linearGradient
       x1="56.65815"
       y1="51.019985"
       x2="56.65815"
       y2="23.566277"
       id="linearGradient3755"
       xlink:href="#linearGradient3779"
       gradientUnits="userSpaceOnUse" />
    <linearGradient
       id="linearGradient3779">
      <stop
         id="stop3781"
         style="stop-color:#d00000;stop-opacity:1"
         offset="0" />
      <stop
         id="stop3783"
         style="stop-color:#ff3c22;stop-opacity:1"
         offset="1" />
    </linearGradient>
    <linearGradient
       x1="10.351493"
       y1="2.5798409"
       x2="10.351493"
       y2="18.417696"
       id="linearGradient3895"
       xlink:href="#linearGradient3290"
       gradientUnits="userSpaceOnUse"
       gradientTransform="matrix(2.3841083,0,0,2.4591314,46.809841,40.645851)" />
    <linearGradient
       id="linearGradient3290">
      <stop
         id="stop3292"
         style="stop-color:#a50000;stop-opacity:1"
         offset="0" />
      <stop
         id="stop3294"
         style="stop-color:#ff580a;stop-opacity:1"
         offset="1" />
    </linearGradient>
    <linearGradient
       x1="10.351493"
       y1="2.5798409"
       x2="10.351493"
       y2="18.417696"
       id="linearGradient3721-4"
       xlink:href="#linearGradient3290"
       gradientUnits="userSpaceOnUse"
       gradientTransform="matrix(2.3841083,0,0,2.4591314,46.809841,39.645851)" />
    <linearGradient
       id="linearGradient3102">
      <stop
         id="stop3104"
         style="stop-color:#a50000;stop-opacity:1"
         offset="0" />
      <stop
         id="stop3106"
         style="stop-color:#ff580a;stop-opacity:1"
         offset="1" />
    </linearGradient>
    <linearGradient
       x1="10.351493"
       y1="4.2104902"
       x2="10.351493"
       y2="18.417696"
       id="linearGradient3956"
       xlink:href="#linearGradient3203"
       gradientUnits="userSpaceOnUse"
       gradientTransform="matrix(2.3841083,0,0,2.4591314,46.809841,39.645851)" />
    <linearGradient
       id="linearGradient3203">
      <stop
         id="stop3205"
         style="stop-color:#ff3000;stop-opacity:1"
         offset="0" />
      <stop
         id="stop3211"
         style="stop-color:#ff7e00;stop-opacity:1"
         offset="0.27244934" />
      <stop
         id="stop3213"
         style="stop-color:#ffd200;stop-opacity:1"
         offset="0.62384999" />
      <stop
         id="stop3207"
         style="stop-color:#fff3b9;stop-opacity:1"
         offset="1" />
    </linearGradient>
    <linearGradient
       x1="10.351493"
       y1="5.4949298"
       x2="10.351493"
       y2="18.417696"
       id="linearGradient3940"
       xlink:href="#linearGradient3203"
       gradientUnits="userSpaceOnUse"
       gradientTransform="matrix(2.5299765,0,0,2.756407,45.295331,35.853737)" />
    <linearGradient
       id="linearGradient3115">
      <stop
         id="stop3117"
         style="stop-color:#ff3000;stop-opacity:1"
         offset="0" />
      <stop
         id="stop3119"
         style="stop-color:#ff7e00;stop-opacity:1"
         offset="0.27244934" />
      <stop
         id="stop3121-4"
         style="stop-color:#ffd200;stop-opacity:1"
         offset="0.62384999" />
      <stop
         id="stop3123-6"
         style="stop-color:#fff3b9;stop-opacity:1"
         offset="1" />
    </linearGradient>
    <linearGradient
       x1="10.351493"
       y1="3.8038428"
       x2="10.351493"
       y2="16.40992"
       id="linearGradient3964"
       xlink:href="#linearGradient3203"
       gradientUnits="userSpaceOnUse"
       gradientTransform="matrix(2.3841083,0,0,2.4591314,46.809841,39.645851)" />
    <linearGradient
       id="linearGradient3126">
      <stop
         id="stop3128"
         style="stop-color:#ff3000;stop-opacity:1"
         offset="0" />
      <stop
         id="stop3130"
         style="stop-color:#ff7e00;stop-opacity:1"
         offset="0.27244934" />
      <stop
         id="stop3132"
         style="stop-color:#ffd200;stop-opacity:1"
         offset="0.62384999" />
      <stop
         id="stop3134"
         style="stop-color:#fff3b9;stop-opacity:1"
         offset="1" />
    </linearGradient>
    <linearGradient
       y2="16.40992"
       x2="10.351493"
       y1="3.8038428"
       x1="10.351493"
       gradientTransform="matrix(2.3841083,0,0,2.4591314,46.809841,39.645851)"
       gradientUnits="userSpaceOnUse"
       id="linearGradient3142"
       xlink:href="#linearGradient3203"
       inkscape:collect="always" />
    <radialGradient
       cx="-10.959364"
       cy="11.931095"
       r="7"
       fx="-10.959364"
       fy="11.931095"
       id="radialGradient3087"
       xlink:href="#linearGradient4069"
       gradientUnits="userSpaceOnUse"
       gradientTransform="matrix(7.4695966,2.0379667e-7,-2.0572941e-7,7.5404359,13.075366,-26.577408)" />
    <linearGradient
       id="linearGradient4069">
      <stop
         id="stop4071"
         style="stop-color:#ff2400;stop-opacity:1"
         offset="0" />
      <stop
         id="stop4073"
         style="stop-color:#ff4700;stop-opacity:0"
         offset="1" />
    </linearGradient>
    <radialGradient
       r="7"
       fy="11.931095"
       fx="-10.959364"
       cy="11.931095"
       cx="-10.959364"
       gradientTransform="matrix(7.4695966,2.0379667e-7,-2.0572941e-7,7.5404359,-943.28681,-26.577408)"
       gradientUnits="userSpaceOnUse"
       id="radialGradient3159"
       xlink:href="#linearGradient4069"
       inkscape:collect="always" />
  </defs>
  <sodipodi:namedview
     id="base"
     pagecolor="#ffffff"
     bordercolor="#666666"
     borderopacity="1.0"
     inkscape:pageopacity="0.0"
     inkscape:pageshadow="2"
     inkscape:zoom="5.6"
     inkscape:cx="36.675801"
     inkscape:cy="50.983824"
     inkscape:document-units="px"
     inkscape:current-layer="layer1"
     showgrid="false"
     inkscape:window-width="1280"
     inkscape:window-height="750"
     inkscape:window-x="0"
     inkscape:window-y="22"
     inkscape:window-maximized="1"
     showguides="true"
     inkscape:guide-bbox="true">
    <sodipodi:guide
       orientation="0,1"
       position="-24.748737,0"
       id="guide11064" />
    <sodipodi:guide
       orientation="0,1"
       position="-23.233509,96"
       id="guide11066" />
    <sodipodi:guide
       orientation="1,0"
       position="0,54.800776"
       id="guide11068" />
    <sodipodi:guide
       orientation="1,0"
       position="96,51.012704"
       id="guide11070" />
    <sodipodi:guide
       orientation="0,1"
       position="-18.94036,48"
       id="guide11072" />
    <sodipodi:guide
       orientation="1,0"
       position="48,79.296975"
       id="guide11074" />
    <sodipodi:guide
       orientation="1,0"
       position="2,75.508903"
       id="guide11076" />
    <sodipodi:guide
       orientation="0,1"
       position="-77.27667,2"
       id="guide11078" />
    <sodipodi:guide
       orientation="1,0"
       position="94,77.781746"
       id="guide11080" />
    <sodipodi:guide
       orientation="0,1"
       position="-65.912454,94"
       id="guide11082" />
  </sodipodi:namedview>
  <metadata
     id="metadata11042">
    <rdf:RDF>
      <cc:Work
         rdf:about="">
        <dc:format>image/svg+xml</dc:format>
        <dc:type
           rdf:resource="http://purl.org/dc/dcmitype/StillImage" />
        <dc:title></dc:title>
      </cc:Work>
    </rdf:RDF>
  </metadata>
  <g
     inkscape:label="Layer 1"
     inkscape:groupmode="layer"
     id="layer1"
     transform="translate(0,-956.36218)">
    <g
       transform="matrix(1.0952381,0,0,1.0952381,-4.5714286,951.79075)"
       id="layer1-9"
       clip-path="url(#clipPath3076)">
      <rect
         width="84"
         height="84"
         rx="6"
         ry="6"
         x="6"
         y="6"
         id="rect2419"
         style="fill:url(#linearGradient3689);fill-opacity:1;fill-rule:nonzero;stroke:none" />
      <path
         d="m 112,89 c -3.324,0 -6,-2.676 -6,-6 l 0,-6 42,-42 42,42 0,6 c 0,3.324 -2.676,6 -6,6 l -72,0 z"
         inkscape:connector-curvature="0"
         transform="translate(-100,-1)"
         clip-path="url(#clipPath3696)"
         id="path3653"
         style="opacity:0.3;fill:url(#linearGradient3701);fill-opacity:1;stroke:none;filter:url(#filter3665)" />
      <path
         d="M 12,90 C 8.676,90 6,87.324 6,84 l 0,-6 42,-42 42,42 0,6 c 0,3.324 -2.676,6 -6,6 l -72,0 z"
         inkscape:connector-curvature="0"
         id="path3619"
         style="fill:url(#linearGradient3635);fill-opacity:1;stroke:none" />
      <path
         d="M 48,36 6,78 6,79 48,37 90,79 90,78 48,36 z"
         inkscape:connector-curvature="0"
         id="path3718"
         style="opacity:0.4;fill:#ffffff;fill-opacity:1;stroke:none" />
      <path
         d="m 112,7 c -3.324,0 -6,2.676 -6,6 l 0,6 42,42 42,-42 0,-6 c 0,-3.324 -2.676,-6 -6,-6 l -72,0 z"
         inkscape:connector-curvature="0"
         transform="translate(-100,1)"
         clip-path="url(#clipPath3703)"
         id="path3637"
         style="opacity:0.4;fill:url(#linearGradient3707);fill-opacity:1;stroke:none;filter:url(#filter3649)" />
      <path
         d="M 12,6 C 8.676,6 6,8.676 6,12 l 0,6 42,42 42,-42 0,-6 C 90,8.676 87.324,6 84,6 L 12,6 z"
         inkscape:connector-curvature="0"
         id="path3613"
         style="fill:url(#linearGradient3627);fill-opacity:1;stroke:none" />
      <path
         d="M 6,17 6,18 48,60 90,18 90,17 48,59 6,17 z"
         inkscape:connector-curvature="0"
         id="path3709"
         style="opacity:0.6;fill:#ffffff;fill-opacity:1;stroke:none" />
    </g>
    <rect
       ry="25"
       rx="25"
       id="rect3003"
       style="opacity:0.15;fill:#ffffff;fill-opacity:1"
       height="92"
       width="92"
       y="958.36218"
       x="-96"
       clip-path="url(#clipPath3009)"
       transform="translate(98,3.8281269e-7)" />
    <g
       transform="translate(-1.9577358e-7,956.36218)"
       style="display:inline"
       id="g3080">
      <path
         style="opacity:0.3;fill:url(#linearGradient3895);fill-opacity:1;fill-rule:evenodd;stroke:none;display:inline"
         id="path3893"
         inkscape:connector-curvature="0"
         d="M 73.340525,46.990019 C 63.572567,55.46193 59.11195,63.83067 60.146143,73.581775 c 0.813804,7.673184 3.911075,10.752443 7.71364,12.382423 1.784634,0.644991 3.708354,1.014954 5.78523,1.014954 2.329227,0.16098 4.479797,-0.638627 6.597189,-1.420934 7.013611,-2.92814 8.34979,-15.430409 -0.101491,-25.982786 1.348766,7.74061 -0.351896,11.280466 -3.349343,13.498869 3.149519,-14.257372 -7.974011,-12.072984 -3.450843,-26.084282 z" />
      <path
         style="opacity:0.7;fill:url(#linearGradient3721-4);fill-opacity:1;fill-rule:evenodd;stroke:none;display:inline"
         id="path2421"
         inkscape:connector-curvature="0"
         d="M 73.340525,45.990019 C 63.572567,54.46193 59.11195,62.83067 60.146143,72.581775 c 0.813804,7.673184 3.911075,10.752443 7.71364,12.382423 1.784634,0.644991 3.708354,1.014954 5.78523,1.014954 2.329227,0.16098 4.479797,-0.638627 6.597189,-1.420934 7.013611,-2.92814 8.34979,-15.430409 -0.101491,-25.982786 1.348766,7.74061 -0.351896,11.280466 -3.349343,13.498869 3.149519,-14.257372 -7.974011,-12.072984 -3.450843,-26.084282 z" />
      <path
         inkscape:connector-curvature="0"
         style="opacity:0.5;fill:url(#linearGradient3956);fill-opacity:1;fill-rule:evenodd;stroke:none;display:inline"
         id="path3954"
         d="m 70.8125,50.65625 c -6.85678,7.017596 -9.993071,13.891111 -9.15625,21.78125 0.769131,7.251972 3.318125,9.645215 6.71875,11.125 0.0187,0.0068 0.04377,-0.0067 0.0625,0 0.01327,0.0057 0.01796,0.02555 0.03125,0.03125 1.600676,0.567544 3.316748,0.875 5.1875,0.875 a 1.5041203,1.5041203 0 0 1 0.09375,0 c 1.909422,0.131966 3.819071,-0.511095 5.90625,-1.28125 0.02117,-0.0088 0.04144,-0.02219 0.0625,-0.03125 2.7993,-1.204809 4.639299,-4.407555 4.78125,-8.78125 0.09767,-3.009464 -0.713031,-6.519723 -2.46875,-10.03125 -0.06636,1.257704 -0.195084,2.450175 -0.5,3.46875 -0.730569,2.440469 -2.148434,4.214051 -3.84375,5.46875 A 1.5041203,1.5041203 0 0 1 75.3125,71.75 C 76.810438,64.969075 75.087978,62.732796 73.25,59.71875 72.331011,58.211727 71.345626,56.52521 70.9375,54.25 70.746695,53.186308 70.698538,51.976374 70.8125,50.65625 z" />
      <path
         style="opacity:0.5;fill:url(#linearGradient3940);fill-opacity:1;fill-rule:evenodd;stroke:none;display:inline"
         id="path4033"
         inkscape:connector-curvature="0"
         d="m 69.356465,54 c -4.30696,5.927954 -6.90713,11.740723 -6.246896,18.316109 0.759491,7.563977 2.738767,9.278216 5.816075,10.693878 1.523006,0.581404 3.078436,0.910117 4.84673,0.910117 a 3.6688738,3.8752868 0 0 1 0.21541,0 c 1.483225,0.108267 3.241227,-0.486429 5.49296,-1.365176 2.023722,-0.969653 3.640567,-3.598968 3.769679,-7.849761 0.03905,-1.285228 -0.370272,-2.855031 -0.646231,-4.323057 -0.982102,1.857495 -1.919002,3.781927 -3.338858,4.89188 a 3.6688738,3.8752868 0 0 1 -5.70837,-3.867998 C 75.040368,64.313063 73.599046,62.891645 71.618272,59.460703 70.824756,58.086241 69.966934,56.147891 69.356465,54 z" />
      <path
         inkscape:connector-curvature="0"
         style="opacity:0.5;fill:url(#linearGradient3142);fill-opacity:1;fill-rule:evenodd;stroke:none;display:inline"
         id="path3962"
         transform="translate(0,2)"
         d="m 68.71875,59.03125 c -2.795904,4.255787 -3.930358,8.38424 -3.4375,13.03125 0.344342,3.246729 1.048459,5.007959 1.75,6.03125 0.66262,0.966519 1.415649,1.484996 2.625,2.03125 a 3.6561643,3.6561643 0 0 1 0.03125,0.03125 c 0.01865,0.0066 0.04382,-0.0065 0.0625,0 1.200193,0.418886 2.458586,0.65625 3.90625,0.65625 A 3.6561643,3.6561643 0 0 1 74,80.84375 l 0,-0.03125 c 0.907056,0.06269 2.353968,-0.314959 4.3125,-1.03125 0.969877,-0.433944 1.86647,-1.906506 2.25,-4.25 -0.242068,0.20537 -0.437798,0.502696 -0.6875,0.6875 A 3.6561643,3.6561643 0 0 1 74.6875,75.3125 3.6561643,3.6561643 0 0 1 71.75,70.96875 c 1.334094,-6.039231 0.323076,-6.149157 -1.625,-9.34375 -0.431819,-0.708127 -0.93085,-1.602041 -1.40625,-2.59375 z m 1.1875,21.1875 c 0.0072,0.0032 -0.0071,0.02809 0,0.03125 0.405003,0.180268 0.590891,0.34884 0.8125,0.53125 -0.226562,-0.181688 -0.399126,-0.385313 -0.8125,-0.5625 z" />
    </g>
  </g>
</svg>
