<?xml version="1.0" encoding="UTF-8" standalone="no"?>
<!-- Created with Inkscape (http://www.inkscape.org/) -->

<svg
   xmlns:dc="http://purl.org/dc/elements/1.1/"
   xmlns:cc="http://creativecommons.org/ns#"
   xmlns:rdf="http://www.w3.org/1999/02/22-rdf-syntax-ns#"
   xmlns:svg="http://www.w3.org/2000/svg"
   xmlns="http://www.w3.org/2000/svg"
   xmlns:xlink="http://www.w3.org/1999/xlink"
   xmlns:sodipodi="http://sodipodi.sourceforge.net/DTD/sodipodi-0.dtd"
   xmlns:inkscape="http://www.inkscape.org/namespaces/inkscape"
   width="96"
   height="96"
   id="svg11037"
   version="1.1"
   inkscape:version="0.48.3.1 r9886"
   sodipodi:docname="mail-mark-junk.svg">
  <defs
     id="defs11039">
    <linearGradient
       y2="1046.1001"
       x2="47.999954"
       y1="962.62189"
       x1="47.999954"
       gradientTransform="matrix(1.15,0,0,1.15,-7.1999462,-150.65291)"
       gradientUnits="userSpaceOnUse"
       id="linearGradient3886"
       xlink:href="#linearGradient3795"
       inkscape:collect="always" />
    <linearGradient
       id="linearGradient3795">
      <stop
         style="stop-color:#13a6fd;stop-opacity:1;"
         offset="0"
         id="stop3797" />
      <stop
         style="stop-color:#2975b6;stop-opacity:1;"
         offset="1"
         id="stop3799" />
    </linearGradient>
    <linearGradient
       y2="1046.1001"
       x2="47.999954"
       y1="962.62189"
       x1="47.999954"
       gradientTransform="matrix(1.15,0,0,1.15,-7.1999462,-150.65292)"
       gradientUnits="userSpaceOnUse"
       id="linearGradient11642"
       xlink:href="#linearGradient3795"
       inkscape:collect="always" />
    <linearGradient
       x1="48"
       y1="90"
       x2="48"
       y2="5.9877172"
       id="linearGradient3689"
       xlink:href="#linearGradient3700"
       gradientUnits="userSpaceOnUse" />
    <linearGradient
       id="linearGradient3700">
      <stop
         id="stop3702"
         style="stop-color:#dcdcdc;stop-opacity:1"
         offset="0" />
      <stop
         id="stop3704"
         style="stop-color:#f0f0f0;stop-opacity:1"
         offset="1" />
    </linearGradient>
    <linearGradient
       x1="48"
       y1="32"
       x2="48"
       y2="80"
       id="linearGradient3701"
       xlink:href="#linearGradient3641"
       gradientUnits="userSpaceOnUse"
       gradientTransform="translate(100,0)" />
    <linearGradient
       id="linearGradient3641">
      <stop
         id="stop3643"
         style="stop-color:#000000;stop-opacity:1"
         offset="0" />
      <stop
         id="stop3645"
         style="stop-color:#000000;stop-opacity:0"
         offset="1" />
    </linearGradient>
    <clipPath
       id="clipPath3696">
      <rect
         width="84"
         height="84"
         rx="6"
         ry="6"
         x="106"
         y="6"
         id="rect3698"
         style="fill:#ff00ff;fill-opacity:1;fill-rule:nonzero;stroke:none" />
    </clipPath>
    <filter
       color-interpolation-filters="sRGB"
       id="filter3665">
      <feGaussianBlur
         id="feGaussianBlur3667"
         stdDeviation="0.69" />
    </filter>
    <linearGradient
       x1="48"
       y1="88"
       x2="48"
       y2="36"
       id="linearGradient3635"
       xlink:href="#linearGradient3727"
       gradientUnits="userSpaceOnUse" />
    <linearGradient
       id="linearGradient3727">
      <stop
         id="stop3729"
         style="stop-color:#d5d5d5;stop-opacity:1"
         offset="0" />
      <stop
         id="stop3731"
         style="stop-color:#f1f1f1;stop-opacity:1"
         offset="1" />
    </linearGradient>
    <linearGradient
       x1="51"
       y1="62"
       x2="51"
       y2="21"
       id="linearGradient3707"
       xlink:href="#linearGradient3641"
       gradientUnits="userSpaceOnUse"
       gradientTransform="translate(100,-1)" />
    <linearGradient
       id="linearGradient3108">
      <stop
         id="stop3110"
         style="stop-color:#000000;stop-opacity:1"
         offset="0" />
      <stop
         id="stop3112"
         style="stop-color:#000000;stop-opacity:0"
         offset="1" />
    </linearGradient>
    <clipPath
       id="clipPath3703">
      <rect
         width="84"
         height="84"
         rx="6"
         ry="6"
         x="106"
         y="6"
         id="rect3705"
         style="fill:#ff00ff;fill-opacity:1;fill-rule:nonzero;stroke:none" />
    </clipPath>
    <filter
       color-interpolation-filters="sRGB"
       id="filter3649">
      <feGaussianBlur
         id="feGaussianBlur3651"
         stdDeviation="1.38" />
    </filter>
    <linearGradient
       x1="48"
       y1="88"
       x2="48"
       y2="32"
       id="linearGradient3627"
       xlink:href="#linearGradient3700"
       gradientUnits="userSpaceOnUse" />
    <linearGradient
       id="linearGradient3119">
      <stop
         id="stop3121"
         style="stop-color:#dcdcdc;stop-opacity:1"
         offset="0" />
      <stop
         id="stop3123"
         style="stop-color:#f0f0f0;stop-opacity:1"
         offset="1" />
    </linearGradient>
    <clipPath
       clipPathUnits="userSpaceOnUse"
       id="clipPath3076">
      <rect
         x="6"
         y="6.0000038"
         width="84"
         height="84"
         style="fill:url(#linearGradient3080);fill-opacity:1"
         id="rect3078"
         rx="22.826086"
         ry="22.826086" />
    </clipPath>
    <linearGradient
       inkscape:collect="always"
       xlink:href="#linearGradient3795"
       id="linearGradient3080"
       gradientUnits="userSpaceOnUse"
       gradientTransform="matrix(1.05,0,0,1.05,-2.3999508,-1006.579)"
       x1="47.999954"
       y1="962.62189"
       x2="47.999954"
       y2="1046.1001" />
    <clipPath
       clipPathUnits="userSpaceOnUse"
       id="clipPath3009">
      <path
         id="path3011"
         d="m -2,956.36218 -96,0 0,33.5624 96,25.68742 0,-59.24982 z"
         style="opacity:0.15;fill:#ffffff;fill-opacity:1;stroke:none"
         inkscape:connector-curvature="0" />
    </clipPath>
    <linearGradient
       x1="8.8832188"
       y1="16.071617"
       x2="8.8832188"
       y2="11.246404"
       id="linearGradient4042"
       xlink:href="#ButtonColor-5"
       gradientUnits="userSpaceOnUse"
       gradientTransform="matrix(4.3075002,0,0,5.5956066,39.283845,-5.930454)" />
    <linearGradient
       x1="10.31979"
       y1="21"
       x2="10.31979"
       y2="0.99929649"
       id="ButtonColor-5"
       gradientUnits="userSpaceOnUse">
      <stop
         id="stop3189-0"
         style="stop-color:#3875d0;stop-opacity:1"
         offset="0" />
      <stop
         id="stop3191-2"
         style="stop-color:#7cacf6;stop-opacity:1"
         offset="1" />
    </linearGradient>
    <linearGradient
       x1="8.8832188"
       y1="16.071617"
       x2="8.8832188"
       y2="11.246404"
       id="linearGradient3954"
       xlink:href="#linearGradient4066"
       gradientUnits="userSpaceOnUse"
       gradientTransform="matrix(4.3075002,0,0,-5.5956066,39.283845,140.93045)" />
    <linearGradient
       id="linearGradient4066">
      <stop
         id="stop4069"
         style="stop-color:#ffffff;stop-opacity:1"
         offset="0" />
      <stop
         id="stop4072"
         style="stop-color:#ffffff;stop-opacity:0"
         offset="1" />
    </linearGradient>
    <linearGradient
       x1="56.65815"
       y1="51.019985"
       x2="56.65815"
       y2="23.566277"
       id="linearGradient3755"
       xlink:href="#linearGradient3779"
       gradientUnits="userSpaceOnUse" />
    <linearGradient
       id="linearGradient3779">
      <stop
         id="stop3781"
         style="stop-color:#d00000;stop-opacity:1"
         offset="0" />
      <stop
         id="stop3783"
         style="stop-color:#ff3c22;stop-opacity:1"
         offset="1" />
    </linearGradient>
    <linearGradient
       x1="10.351493"
       y1="2.5798409"
       x2="10.351493"
       y2="18.417696"
       id="linearGradient3895"
       xlink:href="#linearGradient3290"
       gradientUnits="userSpaceOnUse"
       gradientTransform="matrix(2.3841083,0,0,2.4591314,46.809841,40.645851)" />
    <linearGradient
       id="linearGradient3290">
      <stop
         id="stop3292"
         style="stop-color:#a50000;stop-opacity:1"
         offset="0" />
      <stop
         id="stop3294"
         style="stop-color:#ff580a;stop-opacity:1"
         offset="1" />
    </linearGradient>
    <linearGradient
       x1="10.351493"
       y1="2.5798409"
       x2="10.351493"
       y2="18.417696"
       id="linearGradient3721-4"
       xlink:href="#linearGradient3290"
       gradientUnits="userSpaceOnUse"
       gradientTransform="matrix(2.3841083,0,0,2.4591314,46.809841,39.645851)" />
    <linearGradient
       id="linearGradient3102">
      <stop
         id="stop3104"
         style="stop-color:#a50000;stop-opacity:1"
         offset="0" />
      <stop
         id="stop3106"
         style="stop-color:#ff580a;stop-opacity:1"
         offset="1" />
    </linearGradient>
    <linearGradient
       x1="10.351493"
       y1="4.2104902"
       x2="10.351493"
       y2="18.417696"
       id="linearGradient3956"
       xlink:href="#linearGradient3203"
       gradientUnits="userSpaceOnUse"
       gradientTransform="matrix(2.3841083,0,0,2.4591314,46.809841,39.645851)" />
    <linearGradient
       id="linearGradient3203">
      <stop
         id="stop3205"
         style="stop-color:#ff3000;stop-opacity:1"
         offset="0" />
      <stop
         id="stop3211"
         style="stop-color:#ff7e00;stop-opacity:1"
         offset="0.27244934" />
      <stop
         id="stop3213"
         style="stop-color:#ffd200;stop-opacity:1"
         offset="0.62384999" />
      <stop
         id="stop3207"
         style="stop-color:#fff3b9;stop-opacity:1"
         offset="1" />
    </linearGradient>
    <linearGradient
       x1="10.351493"
       y1="5.4949298"
       x2="10.351493"
       y2="18.417696"
       id="linearGradient3940"
       xlink:href="#linearGradient3203"
       gradientUnits="userSpaceOnUse"
       gradientTransform="matrix(2.5299765,0,0,2.756407,45.295331,35.853737)" />
    <linearGradient
       id="linearGradient3115">
      <stop
         id="stop3117"
         style="stop-color:#ff3000;stop-opacity:1"
         offset="0" />
      <stop
         id="stop3119"
         style="stop-color:#ff7e00;stop-opacity:1"
         offset="0.27244934" />
      <stop
         id="stop3121-4"
         style="stop-color:#ffd200;stop-opacity:1"
         offset="0.62384999" />
      <stop
         id="stop3123-6"
         style="stop-color:#fff3b9;stop-opacity:1"
         offset="1" />
    </linearGradient>
    <linearGradient
       x1="10.351493"
       y1="3.8038428"
       x2="10.351493"
       y2="16.40992"
       id="linearGradient3964"
       xlink:href="#linearGradient3203"
       gradientUnits="userSpaceOnUse"
       gradientTransform="matrix(2.3841083,0,0,2.4591314,46.809841,39.645851)" />
    <linearGradient
       id="linearGradient3126">
      <stop
         id="stop3128"
         style="stop-color:#ff3000;stop-opacity:1"
         offset="0" />
      <stop
         id="stop3130"
         style="stop-color:#ff7e00;stop-opacity:1"
         offset="0.27244934" />
      <stop
         id="stop3132"
         style="stop-color:#ffd200;stop-opacity:1"
         offset="0.62384999" />
      <stop
         id="stop3134"
         style="stop-color:#fff3b9;stop-opacity:1"
         offset="1" />
    </linearGradient>
    <linearGradient
       y2="16.40992"
       x2="10.351493"
       y1="3.8038428"
       x1="10.351493"
       gradientTransform="matrix(2.3841083,0,0,2.4591314,46.809841,39.645851)"
       gradientUnits="userSpaceOnUse"
       id="linearGradient3142"
       xlink:href="#linearGradient3203"
       inkscape:collect="always" />
    <radialGradient
       cx="-10.959364"
       cy="11.931095"
       r="7"
       fx="-10.959364"
       fy="11.931095"
       id="radialGradient3087"
       xlink:href="#linearGradient4069"
       gradientUnits="userSpaceOnUse"
       gradientTransform="matrix(7.4695966,2.0379667e-7,-2.0572941e-7,7.5404359,13.075366,-26.577408)" />
    <linearGradient
       id="linearGradient4069">
      <stop
         id="stop4071"
         style="stop-color:#ff2400;stop-opacity:1"
         offset="0" />
      <stop
         id="stop4073"
         style="stop-color:#ff4700;stop-opacity:0"
         offset="1" />
    </linearGradient>
    <linearGradient
       x1="45.298355"
       y1="72.618279"
       x2="79.622185"
       y2="72.618279"
       id="linearGradient3915"
       xlink:href="#linearGradient3801"
       gradientUnits="userSpaceOnUse" />
    <linearGradient
       id="linearGradient3801">
      <stop
         id="stop3803"
         style="stop-color:#a4d620;stop-opacity:1"
         offset="0" />
      <stop
         id="stop3805"
         style="stop-color:#62a915;stop-opacity:1"
         offset="1" />
    </linearGradient>
    <linearGradient
       x1="68"
       y1="52"
       x2="68"
       y2="84"
       id="linearGradient3948"
       xlink:href="#linearGradient3942"
       gradientUnits="userSpaceOnUse" />
    <linearGradient
       id="linearGradient3942">
      <stop
         id="stop3944"
         style="stop-color:#ffffff;stop-opacity:1"
         offset="0" />
      <stop
         id="stop3946"
         style="stop-color:#ffffff;stop-opacity:0"
         offset="1" />
    </linearGradient>
    <linearGradient
       y2="84"
       x2="68"
       y1="52"
       x1="68"
       gradientUnits="userSpaceOnUse"
       id="linearGradient3108-3"
       xlink:href="#linearGradient3942"
       inkscape:collect="always" />
  </defs>
  <sodipodi:namedview
     id="base"
     pagecolor="#ffffff"
     bordercolor="#666666"
     borderopacity="1.0"
     inkscape:pageopacity="0.0"
     inkscape:pageshadow="2"
     inkscape:zoom="5.6"
     inkscape:cx="36.675801"
     inkscape:cy="50.983824"
     inkscape:document-units="px"
     inkscape:current-layer="layer1"
     showgrid="false"
     inkscape:window-width="1280"
     inkscape:window-height="750"
     inkscape:window-x="0"
     inkscape:window-y="22"
     inkscape:window-maximized="1"
     showguides="true"
     inkscape:guide-bbox="true">
    <sodipodi:guide
       orientation="0,1"
       position="-24.748737,0"
       id="guide11064" />
    <sodipodi:guide
       orientation="0,1"
       position="-23.233509,96"
       id="guide11066" />
    <sodipodi:guide
       orientation="1,0"
       position="0,54.800776"
       id="guide11068" />
    <sodipodi:guide
       orientation="1,0"
       position="96,51.012704"
       id="guide11070" />
    <sodipodi:guide
       orientation="0,1"
       position="-18.94036,48"
       id="guide11072" />
    <sodipodi:guide
       orientation="1,0"
       position="48,79.296975"
       id="guide11074" />
    <sodipodi:guide
       orientation="1,0"
       position="2,75.508903"
       id="guide11076" />
    <sodipodi:guide
       orientation="0,1"
       position="-77.27667,2"
       id="guide11078" />
    <sodipodi:guide
       orientation="1,0"
       position="94,77.781746"
       id="guide11080" />
    <sodipodi:guide
       orientation="0,1"
       position="-65.912454,94"
       id="guide11082" />
  </sodipodi:namedview>
  <metadata
     id="metadata11042">
    <rdf:RDF>
      <cc:Work
         rdf:about="">
        <dc:format>image/svg+xml</dc:format>
        <dc:type
           rdf:resource="http://purl.org/dc/dcmitype/StillImage" />
        <dc:title></dc:title>
      </cc:Work>
    </rdf:RDF>
  </metadata>
  <g
     inkscape:label="Layer 1"
     inkscape:groupmode="layer"
     id="layer1"
     transform="translate(0,-956.36218)">
    <g
       transform="matrix(1.0952381,0,0,1.0952381,-4.5714286,951.79075)"
       id="layer1-9"
       clip-path="url(#clipPath3076)">
      <rect
         width="84"
         height="84"
         rx="6"
         ry="6"
         x="6"
         y="6"
         id="rect2419"
         style="fill:url(#linearGradient3689);fill-opacity:1;fill-rule:nonzero;stroke:none" />
      <path
         d="m 112,89 c -3.324,0 -6,-2.676 -6,-6 l 0,-6 42,-42 42,42 0,6 c 0,3.324 -2.676,6 -6,6 l -72,0 z"
         inkscape:connector-curvature="0"
         transform="translate(-100,-1)"
         clip-path="url(#clipPath3696)"
         id="path3653"
         style="opacity:0.3;fill:url(#linearGradient3701);fill-opacity:1;stroke:none;filter:url(#filter3665)" />
      <path
         d="M 12,90 C 8.676,90 6,87.324 6,84 l 0,-6 42,-42 42,42 0,6 c 0,3.324 -2.676,6 -6,6 l -72,0 z"
         inkscape:connector-curvature="0"
         id="path3619"
         style="fill:url(#linearGradient3635);fill-opacity:1;stroke:none" />
      <path
         d="M 48,36 6,78 6,79 48,37 90,79 90,78 48,36 z"
         inkscape:connector-curvature="0"
         id="path3718"
         style="opacity:0.4;fill:#ffffff;fill-opacity:1;stroke:none" />
      <path
         d="m 112,7 c -3.324,0 -6,2.676 -6,6 l 0,6 42,42 42,-42 0,-6 c 0,-3.324 -2.676,-6 -6,-6 l -72,0 z"
         inkscape:connector-curvature="0"
         transform="translate(-100,1)"
         clip-path="url(#clipPath3703)"
         id="path3637"
         style="opacity:0.4;fill:url(#linearGradient3707);fill-opacity:1;stroke:none;filter:url(#filter3649)" />
      <path
         d="M 12,6 C 8.676,6 6,8.676 6,12 l 0,6 42,42 42,-42 0,-6 C 90,8.676 87.324,6 84,6 L 12,6 z"
         inkscape:connector-curvature="0"
         id="path3613"
         style="fill:url(#linearGradient3627);fill-opacity:1;stroke:none" />
      <path
         d="M 6,17 6,18 48,60 90,18 90,17 48,59 6,17 z"
         inkscape:connector-curvature="0"
         id="path3709"
         style="opacity:0.6;fill:#ffffff;fill-opacity:1;stroke:none" />
    </g>
    <rect
       ry="25"
       rx="25"
       id="rect3003"
       style="opacity:0.15;fill:#ffffff;fill-opacity:1"
       height="92"
       width="92"
       y="958.36218"
       x="-96"
       clip-path="url(#clipPath3009)"
       transform="translate(98,3.8281269e-7)" />
    <g
       transform="translate(0,956.36218)"
       id="g3071">
      <path
         inkscape:connector-curvature="0"
         style="opacity:0.3;color:#000000;fill:#000000;fill-opacity:1;fill-rule:nonzero;stroke:none;stroke-width:2;marker:none;visibility:visible;display:inline;overflow:visible;enable-background:accumulate"
         id="path3950"
         transform="matrix(0,1.048834,-1.048834,0,146.16452,5.4895435)"
         d="m 74.641931,84.79994 -4.128425,-0.680449 -0.772592,4.112178 -3.646724,-2.051417 -2.132447,3.599941 -2.725174,-3.174954 -3.235096,2.653498 -1.474928,-3.915545 -3.947546,1.387004 -0.04678,-4.183864 -4.183864,-0.04678 1.387005,-3.947547 -3.915546,-1.474927 2.653499,-3.235097 -3.174955,-2.725173 3.599941,-2.132447 -2.051417,-3.646724 4.112178,-0.772592 -0.680448,-4.128426 4.128425,0.680449 0.772592,-4.112178 3.646724,2.051417 2.132447,-3.599941 2.725173,3.174954 3.235097,-2.653498 1.474927,3.915545 3.947547,-1.387004 0.04678,4.183864 4.183863,0.04678 -1.387004,3.947547 3.915545,1.474927 -2.653498,3.235097 3.174955,2.725173 -3.599942,2.132447 2.051418,3.646724 -4.112178,0.772592 z" />
      <path
         inkscape:connector-curvature="0"
         style="color:#000000;fill:url(#linearGradient3915);fill-opacity:1;fill-rule:nonzero;stroke:none;stroke-width:2;marker:none;visibility:visible;display:inline;overflow:visible;enable-background:accumulate"
         id="path3139"
         transform="matrix(0,1.048834,-1.048834,0,146.16452,4.4895435)"
         d="m 74.641931,84.79994 -4.128425,-0.680449 -0.772592,4.112178 -3.646724,-2.051417 -2.132447,3.599941 -2.725174,-3.174954 -3.235096,2.653498 -1.474928,-3.915545 -3.947546,1.387004 -0.04678,-4.183864 -4.183864,-0.04678 1.387005,-3.947547 -3.915546,-1.474927 2.653499,-3.235097 -3.174955,-2.725173 3.599941,-2.132447 -2.051417,-3.646724 4.112178,-0.772592 -0.680448,-4.128426 4.128425,0.680449 0.772592,-4.112178 3.646724,2.051417 2.132447,-3.599941 2.725173,3.174954 3.235097,-2.653498 1.474927,3.915545 3.947547,-1.387004 0.04678,4.183864 4.183863,0.04678 -1.387004,3.947547 3.915545,1.474927 -2.653498,3.235097 3.174955,2.725173 -3.599942,2.132447 2.051418,3.646724 -4.112178,0.772592 z" />
      <path
         style="opacity:0;fill:#000000;stroke:none;display:inline"
         id="path3919"
         inkscape:connector-curvature="0"
         d="m 60,72 4,-4 4,4 8,-8 4,4 -12,12 -8,-8 z" />
      <path
         style="opacity:0.07999998;fill:#000000;stroke:none;display:inline"
         id="path3929"
         inkscape:connector-curvature="0"
         d="m 75.875,62 c -0.897869,0.0099 -1.438132,0.775583 -2.032335,1.344835 C 71.89511,65.29239 69.947555,67.239945 68,69.1875 c -0.964382,-0.939158 -1.868773,-1.970041 -2.875,-2.84375 -0.879623,-0.663028 -2.130727,-0.326947 -2.783407,0.470907 -1.284146,1.304182 -2.625329,2.584738 -3.872843,3.904093 -0.783383,0.836692 -0.536644,2.211406 0.302071,2.89513 2.649229,2.639204 5.299107,5.277758 7.947929,7.91737 0.836978,0.783668 2.210868,0.536107 2.895476,-0.301726 C 73.544901,77.298849 77.475575,73.368175 81.40625,69.4375 82.240045,68.656851 82.202094,67.170154 81.273706,66.461206 79.934643,65.122783 78.575876,63.762503 77.25,62.4375 76.861442,62.132871 76.36048,62.000022 75.875,62 z" />
      <path
         inkscape:connector-curvature="0"
         style="opacity:0.12000002;fill:#000000;stroke:none;display:inline"
         id="path3925"
         d="m 75.90625,63.09375 a 0.90850139,0.90850139 0 0 0 -0.5625,0.25 L 68,70.6875 64.65625,67.34375 a 0.90850139,0.90850139 0 0 0 -1.3125,0 l -4,4 a 0.90850139,0.90850139 0 0 0 0,1.3125 l 8,8 a 0.90850139,0.90850139 0 0 0 1.3125,0 l 12,-12 a 0.90850139,0.90850139 0 0 0 0,-1.3125 l -4,-4 a 0.90850139,0.90850139 0 0 0 -0.75,-0.25 z" />
      <path
         style="opacity:0.3;fill:#000000;stroke:none;display:inline"
         id="path3921"
         inkscape:connector-curvature="0"
         d="m 60,72 4,-4 4,4 8,-8 4,4 -12,12 -8,-8 z" />
      <path
         style="fill:#ffffff;stroke:none;display:inline"
         id="path3917"
         inkscape:connector-curvature="0"
         d="m 60,71 4,-4 4,4 8,-8 4,4 -12,12 -8,-8 z" />
      <path
         style="opacity:0.6;color:#000000;fill:url(#linearGradient3108-3);fill-opacity:1;fill-rule:nonzero;stroke:none;stroke-width:2;marker:none;visibility:visible;display:inline;overflow:visible;enable-background:accumulate"
         id="path3933"
         inkscape:connector-curvature="0"
         d="M 71.5625,52 68.71875,55.34375 65.3125,52.5625 63.78125,56.65625 59.625,55.1875 l 0,1 4.15625,1.46875 1.53125,-4.09375 3.40625,2.78125 L 71.5625,53 73.8125,56.78125 77.625,54.625 78.4375,58.9375 82.625,58.25 82.78125,57.21875 78.4375,57.9375 77.625,53.625 73.8125,55.78125 71.5625,52 z m -11.96875,7.59375 -4.40625,0.03125 0.34375,1 4.0625,-0.03125 0,-1 z m 22.625,2 -0.15625,0.96875 3.8125,0.71875 0.5,-0.90625 -4.15625,-0.78125 z m -25.875,2.3125 -3.78125,1.40625 0.625,0.78125 3.46875,-1.3125 -0.3125,-0.875 z m 28.3125,2.53125 -0.4375,0.75 3.09375,1.84375 L 88,68.4375 l -3.34375,-2 z M 54.875,69.125 52,71.5625 l 0.6875,0.40625 2.65625,-2.25 L 54.875,69.125 z m 30.25,2.75 -0.46875,0.40625 2.15625,2.625 0.625,-0.21875 -2.3125,-2.8125 z m -29.78125,2.6875 -1.71875,3.0625 0.5,0.09375 1.65625,-2.90625 -0.4375,-0.25 z m 28.3125,2.53125 -0.3125,0.125 1.125,3.15625 0.34375,0 -1.15625,-3.28125 z m -25.875,2.3125 -0.5625,3.375 L 57.375,82.75 57.9375,79.4375 57.78125,79.40625 z" />
    </g>
  </g>
</svg>
